<?xml version="1.0" encoding="UTF-8" standalone="no"?>
<!-- Created with Inkscape (http://www.inkscape.org/) -->

<svg
   version="1.1"
   id="svg1"
   width="566.92932"
   height="415.74799"
   viewBox="0 0 566.92932 415.74799"
   sodipodi:docname="allg_einfluss_querdehnzahl.pdf"
   xmlns:inkscape="http://www.inkscape.org/namespaces/inkscape"
   xmlns:sodipodi="http://sodipodi.sourceforge.net/DTD/sodipodi-0.dtd"
   xmlns="http://www.w3.org/2000/svg"
   xmlns:svg="http://www.w3.org/2000/svg">
  <defs
     id="defs1">
    <clipPath
       clipPathUnits="userSpaceOnUse"
       id="clipPath39">
      <path
         d="M -0.00426,-0.00311 V 311.81415 H 425.20111 V -0.00311 H -0.00426"
         transform="matrix(1,0,0,-1,-49.685261,247.34387)"
         clip-rule="evenodd"
         id="path39" />
    </clipPath>
    <clipPath
       clipPathUnits="userSpaceOnUse"
       id="clipPath40">
      <path
         d="M -0.00426,-0.00311 V 311.81415 H 425.20111 V -0.00311 H -0.00426"
         transform="matrix(1,0,0,-1,-58.772212,243.21)"
         clip-rule="evenodd"
         id="path40" />
    </clipPath>
    <clipPath
       clipPathUnits="userSpaceOnUse"
       id="clipPath41">
      <path
         d="M -0.00426,-0.00311 V 311.81415 H 425.20111 V -0.00311 H -0.00426"
         transform="matrix(1,0,0,-1,-71.732082,270.71728)"
         clip-rule="evenodd"
         id="path41" />
    </clipPath>
    <clipPath
       clipPathUnits="userSpaceOnUse"
       id="clipPath42">
      <path
         d="M -0.00426,-0.00311 V 311.81415 H 425.20111 V -0.00311 H -0.00426"
         transform="matrix(1,0,0,-1,-88.91266,296.50156)"
         clip-rule="evenodd"
         id="path42" />
    </clipPath>
    <clipPath
       clipPathUnits="userSpaceOnUse"
       id="clipPath43">
      <path
         d="M -0.00426,-0.00311 V 311.81415 H 425.20111 V -0.00311 H -0.00426"
         transform="matrix(1,0,0,-1,-48.556001,285.08186)"
         clip-rule="evenodd"
         id="path43" />
    </clipPath>
    <clipPath
       clipPathUnits="userSpaceOnUse"
       id="clipPath44">
      <path
         d="M -0.00426,-0.00311 V 311.81415 H 425.20111 V -0.00311 H -0.00426"
         transform="matrix(1,0,0,-1,-142.39095,225.51723)"
         clip-rule="evenodd"
         id="path44" />
    </clipPath>
    <clipPath
       clipPathUnits="userSpaceOnUse"
       id="clipPath45">
      <path
         d="M -0.00426,-0.00311 V 311.81415 H 425.20111 V -0.00311 H -0.00426"
         transform="matrix(1,0,0,-1,-151.47789,221.38339)"
         clip-rule="evenodd"
         id="path45" />
    </clipPath>
    <clipPath
       clipPathUnits="userSpaceOnUse"
       id="clipPath46">
      <path
         d="M -0.00426,-0.00311 V 311.81415 H 425.20111 V -0.00311 H -0.00426"
         transform="matrix(1,0,0,-1,-77.927889,113.14815)"
         clip-rule="evenodd"
         id="path46" />
    </clipPath>
    <clipPath
       clipPathUnits="userSpaceOnUse"
       id="clipPath47">
      <path
         d="M -0.00426,-0.00311 V 311.81415 H 425.20111 V -0.00311 H -0.00426"
         transform="matrix(1,0,0,-1,-87.014845,109.0143)"
         clip-rule="evenodd"
         id="path47" />
    </clipPath>
    <clipPath
       clipPathUnits="userSpaceOnUse"
       id="clipPath48">
      <path
         d="M -0.00426,-0.00311 V 311.81415 H 425.20111 V -0.00311 H -0.00426"
         transform="matrix(1,0,0,-1,-51.315862,63.827582)"
         clip-rule="evenodd"
         id="path48" />
    </clipPath>
    <clipPath
       clipPathUnits="userSpaceOnUse"
       id="clipPath49">
      <path
         d="M -0.00426,-0.00311 V 311.81415 H 425.20111 V -0.00311 H -0.00426"
         transform="matrix(1,0,0,-1,-60.402802,59.693724)"
         clip-rule="evenodd"
         id="path49" />
    </clipPath>
    <clipPath
       clipPathUnits="userSpaceOnUse"
       id="clipPath50">
      <path
         d="M -0.00426,-0.00311 V 311.81415 H 425.20111 V -0.00311 H -0.00426"
         transform="matrix(1,0,0,-1,-139.80306,37.471628)"
         clip-rule="evenodd"
         id="path50" />
    </clipPath>
    <clipPath
       clipPathUnits="userSpaceOnUse"
       id="clipPath51">
      <path
         d="M -0.00426,-0.00311 V 311.81415 H 425.20111 V -0.00311 H -0.00426"
         transform="matrix(1,0,0,-1,-148.89,33.337771)"
         clip-rule="evenodd"
         id="path51" />
    </clipPath>
    <clipPath
       clipPathUnits="userSpaceOnUse"
       id="clipPath52">
      <path
         d="M -0.00426,-0.00311 V 311.81415 H 425.20111 V -0.00311 H -0.00426"
         transform="matrix(1,0,0,-1,-110.33982,81.156085)"
         clip-rule="evenodd"
         id="path52" />
    </clipPath>
    <clipPath
       clipPathUnits="userSpaceOnUse"
       id="clipPath53">
      <path
         d="M -0.00426,-0.00311 V 311.81415 H 425.20111 V -0.00311 H -0.00426"
         transform="matrix(1,0,0,-1,-119.42677,77.022219)"
         clip-rule="evenodd"
         id="path53" />
    </clipPath>
    <clipPath
       clipPathUnits="userSpaceOnUse"
       id="clipPath54">
      <path
         d="M -0.00426,-0.00311 V 311.81415 H 425.20111 V -0.00311 H -0.00426"
         transform="matrix(1,0,0,-1,-116.32809,167.64126)"
         clip-rule="evenodd"
         id="path54" />
    </clipPath>
    <clipPath
       clipPathUnits="userSpaceOnUse"
       id="clipPath55">
      <path
         d="M -0.00426,-0.00311 V 311.81415 H 425.20111 V -0.00311 H -0.00426"
         transform="matrix(1,0,0,-1,-125.41503,163.50741)"
         clip-rule="evenodd"
         id="path55" />
    </clipPath>
    <clipPath
       clipPathUnits="userSpaceOnUse"
       id="clipPath56">
      <path
         d="M -0.00426,-0.00311 V 311.81415 H 425.20111 V -0.00311 H -0.00426"
         transform="matrix(1,0,0,-1,-81.907795,18.020783)"
         clip-rule="evenodd"
         id="path56" />
    </clipPath>
    <clipPath
       clipPathUnits="userSpaceOnUse"
       id="clipPath57">
      <path
         d="M -0.00426,-0.00311 V 311.81415 H 425.20111 V -0.00311 H -0.00426"
         transform="matrix(1,0,0,-1,-90.994742,13.886918)"
         clip-rule="evenodd"
         id="path57" />
    </clipPath>
    <clipPath
       clipPathUnits="userSpaceOnUse"
       id="clipPath58">
      <path
         d="M -0.00426,-0.00311 V 311.81415 H 425.20111 V -0.00311 H -0.00426"
         transform="matrix(1,0,0,-1,-99.16093,18.020783)"
         clip-rule="evenodd"
         id="path58" />
    </clipPath>
    <clipPath
       clipPathUnits="userSpaceOnUse"
       id="clipPath59">
      <path
         d="M -0.00426,-0.00311 V 311.81415 H 425.20111 V -0.00311 H -0.00426"
         transform="matrix(1,0,0,-1,-115.96777,13.886918)"
         clip-rule="evenodd"
         id="path59" />
    </clipPath>
    <clipPath
       clipPathUnits="userSpaceOnUse"
       id="clipPath60">
      <path
         d="M -0.00426,-0.00311 V 311.81415 H 425.20111 V -0.00311 H -0.00426"
         transform="matrix(1,0,0,-1,-355.013,177.70363)"
         clip-rule="evenodd"
         id="path60" />
    </clipPath>
    <clipPath
       clipPathUnits="userSpaceOnUse"
       id="clipPath61">
      <path
         d="M -0.00426,-0.00311 V 311.81415 H 425.20111 V -0.00311 H -0.00426"
         transform="matrix(1,0,0,-1,-360.94866,173.56977)"
         clip-rule="evenodd"
         id="path61" />
    </clipPath>
    <clipPath
       clipPathUnits="userSpaceOnUse"
       id="clipPath62">
      <path
         d="M -0.00426,-0.00311 V 311.81415 H 425.20111 V -0.00311 H -0.00426"
         transform="matrix(1,0,0,-1,-344.94727,277.40678)"
         clip-rule="evenodd"
         id="path62" />
    </clipPath>
    <clipPath
       clipPathUnits="userSpaceOnUse"
       id="clipPath63">
      <path
         d="M -0.00426,-0.00311 V 311.81415 H 425.20111 V -0.00311 H -0.00426"
         transform="matrix(1,0,0,-1,-350.88294,273.27294)"
         clip-rule="evenodd"
         id="path63" />
    </clipPath>
    <clipPath
       clipPathUnits="userSpaceOnUse"
       id="clipPath64">
      <path
         d="M -0.00426,-0.00311 V 311.81415 H 425.20111 V -0.00311 H -0.00426"
         transform="matrix(1,0,0,-1,-341.56549,109.7313)"
         clip-rule="evenodd"
         id="path64" />
    </clipPath>
    <clipPath
       clipPathUnits="userSpaceOnUse"
       id="clipPath65">
      <path
         d="M -0.00426,-0.00311 V 311.81415 H 425.20111 V -0.00311 H -0.00426"
         transform="matrix(1,0,0,-1,-355.86939,105.59745)"
         clip-rule="evenodd"
         id="path65" />
    </clipPath>
    <clipPath
       clipPathUnits="userSpaceOnUse"
       id="clipPath66">
      <path
         d="M -0.00426,-0.00311 V 311.81415 H 425.20111 V -0.00311 H -0.00426"
         transform="matrix(1,0,0,-1,-230.30254,176.89723)"
         clip-rule="evenodd"
         id="path66" />
    </clipPath>
    <clipPath
       clipPathUnits="userSpaceOnUse"
       id="clipPath67">
      <path
         d="M -0.00426,-0.00311 V 311.81415 H 425.20111 V -0.00311 H -0.00426"
         transform="matrix(1,0,0,-1,-236.23819,172.76337)"
         clip-rule="evenodd"
         id="path67" />
    </clipPath>
    <clipPath
       clipPathUnits="userSpaceOnUse"
       id="clipPath68">
      <path
         d="M -0.00426,-0.00311 V 311.81415 H 425.20111 V -0.00311 H -0.00426"
         transform="matrix(1,0,0,-1,-227.71917,275.57923)"
         clip-rule="evenodd"
         id="path68" />
    </clipPath>
    <clipPath
       clipPathUnits="userSpaceOnUse"
       id="clipPath69">
      <path
         d="M -0.00426,-0.00311 V 311.81415 H 425.20111 V -0.00311 H -0.00426"
         transform="matrix(1,0,0,-1,-233.65483,271.44536)"
         clip-rule="evenodd"
         id="path69" />
    </clipPath>
    <clipPath
       clipPathUnits="userSpaceOnUse"
       id="clipPath70">
      <path
         d="M -0.00426,-0.00311 V 311.81415 H 425.20111 V -0.00311 H -0.00426"
         transform="matrix(1,0,0,-1,-19.648581,252.46726)"
         clip-rule="evenodd"
         id="path70" />
    </clipPath>
    <clipPath
       clipPathUnits="userSpaceOnUse"
       id="clipPath71">
      <path
         d="M -0.00426,-0.00311 V 311.81415 H 425.20111 V -0.00311 H -0.00426"
         transform="matrix(1,0,0,-1,-142.0764,286.5209)"
         clip-rule="evenodd"
         id="path71" />
    </clipPath>
    <clipPath
       clipPathUnits="userSpaceOnUse"
       id="clipPath72">
      <path
         d="M -0.00426,-0.00311 V 311.81415 H 425.20111 V -0.00311 H -0.00426"
         transform="matrix(1,0,0,-1,-19.6696,155.64795)"
         clip-rule="evenodd"
         id="path72" />
    </clipPath>
    <clipPath
       clipPathUnits="userSpaceOnUse"
       id="clipPath73">
      <path
         d="M -0.00426,-0.00311 V 311.81415 H 425.20111 V -0.00311 H -0.00426"
         transform="matrix(1,0,0,-1,-142.09743,189.70158)"
         clip-rule="evenodd"
         id="path73" />
    </clipPath>
    <clipPath
       clipPathUnits="userSpaceOnUse"
       id="clipPath74">
      <path
         d="M -0.00426,-0.00311 V 311.81415 H 425.20111 V -0.00311 H -0.00426"
         transform="matrix(1,0,0,-1,-142.09743,98.567725)"
         clip-rule="evenodd"
         id="path74" />
    </clipPath>
    <clipPath
       clipPathUnits="userSpaceOnUse"
       id="clipPath75">
      <path
         d="M -0.00426,-0.00311 V 311.81415 H 425.20111 V -0.00311 H -0.00426"
         transform="matrix(1,0,0,-1,-19.6696,64.514102)"
         clip-rule="evenodd"
         id="path75" />
    </clipPath>
    <clipPath
       clipPathUnits="userSpaceOnUse"
       id="clipPath76">
      <path
         d="M -0.00426,-0.00311 V 311.81415 H 425.20111 V -0.00311 H -0.00426"
         transform="matrix(1,0,0,-1,-195.31899,290.85885)"
         clip-rule="evenodd"
         id="path76" />
    </clipPath>
    <clipPath
       clipPathUnits="userSpaceOnUse"
       id="clipPath77">
      <path
         d="M -0.00426,-0.00311 V 311.81415 H 425.20111 V -0.00311 H -0.00426"
         transform="matrix(1,0,0,-1,-316.83081,290.85885)"
         clip-rule="evenodd"
         id="path77" />
    </clipPath>
    <clipPath
       clipPathUnits="userSpaceOnUse"
       id="clipPath78">
      <path
         d="M -0.00426,-0.00311 V 311.81415 H 425.20111 V -0.00311 H -0.00426"
         transform="matrix(1,0,0,-1,-310.12846,203.42559)"
         clip-rule="evenodd"
         id="path78" />
    </clipPath>
    <clipPath
       clipPathUnits="userSpaceOnUse"
       id="clipPath79">
      <path
         d="M -0.00426,-0.00311 V 311.81415 H 425.20111 V -0.00311 H -0.00426"
         transform="matrix(1,0,0,-1,-324.43236,199.29171)"
         clip-rule="evenodd"
         id="path79" />
    </clipPath>
    <clipPath
       clipPathUnits="userSpaceOnUse"
       id="clipPath80">
      <path
         d="M -0.00426,-0.00311 V 311.81415 H 425.20111 V -0.00311 H -0.00426"
         transform="matrix(1,0,0,-1,-263.26534,31.912283)"
         clip-rule="evenodd"
         id="path80" />
    </clipPath>
    <clipPath
       clipPathUnits="userSpaceOnUse"
       id="clipPath81">
      <path
         d="M -0.00426,-0.00311 V 311.81415 H 425.20111 V -0.00311 H -0.00426"
         transform="matrix(1,0,0,-1,-269.20101,27.778418)"
         clip-rule="evenodd"
         id="path81" />
    </clipPath>
    <clipPath
       clipPathUnits="userSpaceOnUse"
       id="clipPath82">
      <path
         d="M -0.00426,-0.00311 V 311.81415 H 425.20111 V -0.00311 H -0.00426"
         transform="matrix(1,0,0,-1,-267.98974,18.849293)"
         clip-rule="evenodd"
         id="path82" />
    </clipPath>
    <clipPath
       clipPathUnits="userSpaceOnUse"
       id="clipPath83">
      <path
         d="M -0.00426,-0.00311 V 311.81415 H 425.20111 V -0.00311 H -0.00426"
         transform="matrix(1,0,0,-1,-285.03925,66.377912)"
         clip-rule="evenodd"
         id="path83" />
    </clipPath>
    <clipPath
       clipPathUnits="userSpaceOnUse"
       id="clipPath84">
      <path
         d="M -0.00426,-0.00311 V 311.81415 H 425.20111 V -0.00311 H -0.00426"
         transform="matrix(1,0,0,-1,-290.97492,62.244054)"
         clip-rule="evenodd"
         id="path84" />
    </clipPath>
    <clipPath
       clipPathUnits="userSpaceOnUse"
       id="clipPath85">
      <path
         d="M -0.00426,-0.00311 V 311.81415 H 425.20111 V -0.00311 H -0.00426"
         transform="matrix(1,0,0,-1,-289.76365,53.314914)"
         clip-rule="evenodd"
         id="path85" />
    </clipPath>
    <clipPath
       clipPathUnits="userSpaceOnUse"
       id="clipPath86">
      <path
         d="M -0.00426,-0.00311 V 311.81415 H 425.20111 V -0.00311 H -0.00426"
         transform="matrix(1,0,0,-1,-386.57853,31.912283)"
         clip-rule="evenodd"
         id="path86" />
    </clipPath>
    <clipPath
       clipPathUnits="userSpaceOnUse"
       id="clipPath87">
      <path
         d="M -0.00426,-0.00311 V 311.81415 H 425.20111 V -0.00311 H -0.00426"
         transform="matrix(1,0,0,-1,-392.51422,27.778418)"
         clip-rule="evenodd"
         id="path87" />
    </clipPath>
    <clipPath
       clipPathUnits="userSpaceOnUse"
       id="clipPath88">
      <path
         d="M -0.00426,-0.00311 V 311.81415 H 425.20111 V -0.00311 H -0.00426"
         transform="matrix(1,0,0,-1,-391.30296,18.849293)"
         clip-rule="evenodd"
         id="path88" />
    </clipPath>
    <clipPath
       clipPathUnits="userSpaceOnUse"
       id="clipPath89">
      <path
         d="M -0.00426,-0.00311 V 311.81415 H 425.20111 V -0.00311 H -0.00426"
         transform="matrix(1,0,0,-1,-408.35244,66.377912)"
         clip-rule="evenodd"
         id="path89" />
    </clipPath>
    <clipPath
       clipPathUnits="userSpaceOnUse"
       id="clipPath90">
      <path
         d="M -0.00426,-0.00311 V 311.81415 H 425.20111 V -0.00311 H -0.00426"
         transform="matrix(1,0,0,-1,-414.28813,62.244054)"
         clip-rule="evenodd"
         id="path90" />
    </clipPath>
    <clipPath
       clipPathUnits="userSpaceOnUse"
       id="clipPath91">
      <path
         d="M -0.00426,-0.00311 V 311.81415 H 425.20111 V -0.00311 H -0.00426"
         transform="matrix(1,0,0,-1,-413.07686,53.314914)"
         clip-rule="evenodd"
         id="path91" />
    </clipPath>
  </defs>
  <sodipodi:namedview
     id="namedview1"
     pagecolor="#ffffff"
     bordercolor="#000000"
     borderopacity="0.25"
     inkscape:showpageshadow="2"
     inkscape:pageopacity="0.0"
     inkscape:pagecheckerboard="0"
     inkscape:deskcolor="#d1d1d1">
    <inkscape:page
       x="0"
       y="0"
       inkscape:label="1"
       id="page1"
       width="566.92932"
       height="415.74799"
       margin="0"
       bleed="0" />
  </sodipodi:namedview>
  <g
     id="g1"
     inkscape:groupmode="layer"
     inkscape:label="1">
    <path
       id="path1"
       d="m 311.70822,229.3735 7.0101,-2.9212 7.03821,-2.64252 3.53845,-1.12967 3.55603,-0.95544 3.57709,-0.74646 3.60172,-0.50259 3.67016,-0.23664 3.69534,0.0128 3.71692,0.22662 3.73487,0.40479 7.50934,1.20157 7.53808,1.48669 m -26.31238,37.55304 7.0101,-2.9212 7.03824,-2.64252 3.53842,-1.12964 3.55604,-0.95547 3.57711,-0.74643 3.60169,-0.5026 3.67016,-0.23666 3.69535,0.0128 3.71692,0.22662 3.73489,0.40479 7.50931,1.2016 7.53808,1.48666 m -90.06024,-25.94898 3.80972,-1.60769 3.82523,-1.56583 3.85629,-1.48215 3.90287,-1.35659 2.29388,-0.71296 2.31467,-0.643 2.33532,-0.55966 2.35584,-0.46283 2.01868,-0.30878 2.02975,-0.22952 2.03723,-0.15073 2.04108,-0.0724 2.46261,0.0141 2.46042,0.1138 2.45581,0.1998 2.44864,0.2721 3.90613,0.55575 3.88766,0.66874 3.87531,0.74404 3.86917,0.78171 2.6539,-6.57092 m 29.22003,38.32193 2.65393,-6.57089 m -34.52786,-25.18012 2.53421,4.73667 2.66226,4.6123 1.41913,2.22064 1.49915,2.14295"
       style="fill:none;stroke:#000000;stroke-width:0.3685;stroke-linecap:round;stroke-linejoin:round;stroke-miterlimit:10;stroke-dasharray:none;stroke-opacity:1"
       transform="matrix(1.3333333,0,0,-1.3333333,0,415.748)" />
    <path
       id="path2"
       d="m 378.00928,237.28403 1.59512,2.04965 1.70718,1.94086 2.16849,2.13351 2.32395,1.98251 2.45718,1.85309 2.56821,1.74518 5.3807,3.25311 5.55835,3.08054 m -29.22003,-38.32193 2.53424,4.73666 2.66226,4.61231 1.41913,2.22067 1.49912,2.14294 1.59515,2.04966 1.70715,1.94085 2.16852,2.13352 2.32392,1.98251 2.45718,1.85306 2.56824,1.74521 5.38067,3.25311 5.55838,3.08054 m -92.71417,-19.37809 2.53424,4.73667 2.66223,4.6123 1.41913,2.22068 1.49915,2.14291 1.59515,2.04968 1.70715,1.94083 2.16849,2.13354 2.32395,1.98249 2.45718,1.85308 2.56821,1.74521 5.3807,3.25309 5.55835,3.08053 m -20.45688,-14.04794 2.5633,-1.21024 m 2.05063,-0.9682 2.56332,-1.21026 m 2.07449,-0.91431 2.61942,-1.08344 m 2.09555,-0.86673 2.3389,-0.9674 0.28796,-0.0961 m 2.15103,-0.71802 1.6644,-0.55557 1.04474,-0.27362 m 2.19373,-0.57456 0.88293,-0.23123 1.89267,-0.33398 m 2.23322,-0.39408 0.0171,-0.003 2.8088,-0.21875 m 2.26349,-0.092 2.22879,0.0341 0.6033,0.0527 m 2.2591,0.19739 0.2846,0.0249 2.52128,0.37473 m 2.2294,0.41202 1.57748,0.31442 1.1882,0.30261 m 2.19754,0.55972 2.74695,0.69965"
       style="fill:none;stroke:#000000;stroke-width:0.3685;stroke-linecap:round;stroke-linejoin:round;stroke-miterlimit:10;stroke-dasharray:none;stroke-opacity:1"
       transform="matrix(1.3333333,0,0,-1.3333333,0,415.748)" />
    <path
       id="path3"
       d="m 376.8851,239.96991 2.71903,0.80139 m -56.47886,6.30527 v 0 m 58.18631,-5.80203 v 0 m -10.09008,-20.98853 1.33722,2.49939 m 2.33755,4.21329 1.41705,2.45501 m 2.65543,4.0196 0.36749,0.52527 1.34723,1.73114 m 3.25986,3.54315 0.86371,0.84976 1.23474,1.05334 m 3.80246,2.95624 2.31213,1.5712 m 4.15735,2.51349 1.22336,0.73962 1.22894,0.68109 m 4.21488,2.33597 0.11453,0.0635 m -29.46692,-27.25208 0.1272,0.23773 m 3.77069,6.34681 0.15265,0.23883 m 4.48346,5.8396 0.18722,0.21286 m 5.44873,4.94775 0.22632,0.17069 m 6.10574,4.11773 0.24259,0.14667 m 6.3764,3.69327 0.24793,0.13742 M 371.2215,220.28606 v 0 m 31.87393,31.75101 v 0 m -93.0986,-29.76493 6.82412,-2.47305 6.84546,-2.2652 3.43738,-0.98968 3.45068,-0.85974 3.46668,-0.70389 3.48535,-0.52197 4.30988,-0.36856 4.33801,-0.0941 4.36215,0.14127 4.38226,0.33737 8.80875,1.10611 8.84088,1.41986 m -60.84021,12.37295 -1.71139,-7.10141 m 0.87759,3.64161 2.64618,-1.01639 m 4.49844,-1.72791 0.41251,-0.15841 2.26211,-0.77985 m 4.55579,-1.57056 0.76459,-0.26358 1.94519,-0.56613 m 4.66043,-1.22104 1.02765,-0.24936 1.74747,-0.32345 m 4.76458,-0.70471 1.19742,-0.14212 1.62689,-0.0793 m 4.81623,-0.065 0.94336,0.012 1.88723,0.12244 m 4.79782,0.43896 0.76975,0.0831 2.03613,0.31555 m 4.76206,0.73798 0.70214,0.10883 2.08719,0.39431 m 4.73514,0.89457 0.70078,0.13238"
       style="fill:none;stroke:#000000;stroke-width:0.3685;stroke-linecap:round;stroke-linejoin:round;stroke-miterlimit:10;stroke-dasharray:none;stroke-opacity:1"
       transform="matrix(1.3333333,0,0,-1.3333333,0,415.748)" />
    <path
       id="path4"
       d="m 315.63751,224.08417 0.26462,-0.10163 m 6.93542,-2.49051 0.26801,-0.0924 m 7.03485,-2.18823 0.27548,-0.0668 m 7.21006,-1.51159 0.28149,-0.0334 m 7.34149,-0.58615 0.28342,0.004 m 7.35953,0.32846 0.28183,0.0304 m 7.30145,0.98934 0.28012,0.0434 m 7.25861,1.27139 0.27853,0.0526 m -57.418,6.18106 v 0 m 60.34708,-5.62769 v 0 m -47.25342,28.47644 1.26749,2.53549 m 1.014,2.02838 1.26752,2.53547 m 1.01401,2.02838 1.26751,2.53546 m 1.01401,2.02838 1.26752,2.53549 m 1.01401,2.02838 1.26751,2.53546 m 1.01401,2.02839 1.26752,2.53549 m 1.01401,2.02838 1.26748,2.53546 m 1.01401,2.02838 1.26752,2.53546 m 1.014,2.02838 1.26752,2.5355 m 1.01401,2.02838 1.26752,2.53546 m 1.014,2.02838 1.26752,2.53546 m 1.01401,2.02838 1.26752,2.5355 m 1.014,2.02838 0.10056,0.20117 m -28.3216,-56.65332 v 0 m 28.3216,56.65332 v 0 l 1.19931,-2.50806 m 0.97827,-2.04584 1.22284,-2.55734 m 0.97827,-2.04584 1.22287,-2.55731 m 0.97827,-2.04586 1.22284,-2.55732 m 0.97827,-2.04583 1.22287,-2.55732 m 0.97828,-2.04586 1.22283,-2.55732 m 0.97828,-2.04583 1.22287,-2.55732 m 0.97827,-2.04586 1.22284,-2.55732 m 0.9783,-2.04583 1.22284,-2.55732 m 0.97827,-2.04586 1.22284,-2.55732 m 0.9783,-2.04583 1.22284,-2.55731 m 0.97827,-2.04587 1.22284,-2.55731 m 0.9783,-2.04584 1.22284,-2.55731 m 0.97827,-2.04587 1.22287,-2.55731 m -29.81396,62.34921 v 0 m 29.86471,-62.45535 v 0"
       style="fill:none;stroke:#000000;stroke-width:0.3685;stroke-linecap:round;stroke-linejoin:round;stroke-miterlimit:10;stroke-dasharray:none;stroke-opacity:1"
       transform="matrix(1.3333333,0,0,-1.3333333,0,415.748)" />
    <path
       id="path5"
       d="m 343.52493,287.88318 c 4.88938,-2.44425 10.63327,-2.49463 15.56473,-0.13651"
       style="fill:none;stroke:#000000;stroke-width:0.3685;stroke-linecap:round;stroke-linejoin:round;stroke-miterlimit:10;stroke-dasharray:none;stroke-opacity:1"
       transform="matrix(1.3333333,0,0,-1.3333333,0,415.748)" />
    <path
       id="path6"
       d="m 308.74664,33.03557 1.7898,-6.85689 m 61.35852,15.51148 1.78976,-6.85689 -63.14828,-8.65459 m 61.35852,15.51148 -63.14832,-8.65459 m 6.39597,-2.67452 4.21258,0.57735 m 5.89762,0.80827 4.21258,0.57735 m 5.89765,0.80827 4.21258,0.57735 m 5.89762,0.80829 4.21258,0.57733 m 5.89765,0.80829 4.21258,0.57735 m 5.89761,0.80827 4.21259,0.57735 m -57.85287,-7.92885 0.28082,0.03848 m 9.82937,1.34714 0.28086,0.0385 m 9.82937,1.34712 0.28083,0.0385 m 9.82937,1.34713 0.28086,0.03849 m 9.82937,1.34713 0.28082,0.03849 m 9.82938,1.34713 0.28085,0.0385 m 9.82938,1.34712 0.0752,0.01032 m -63.14832,-8.6546 v 0 m 63.14829,8.6546 v 0 m 31.24151,17.68364 -1.55432,-6.91406 m -28.7923,-14.19803 28.7923,14.19803 m -93.73038,-15.99573 33.65601,47.84796 61.62869,-24.93817 m -32.13638,-14.2552 1.78976,-6.85689 m -1.78976,6.85689 32.13638,14.2552 m -28.34021,-16.32877 3.85257,1.79912 m 5.39362,2.51878 3.85257,1.79912 m 5.39361,2.51879 3.8526,1.79911 m -25.17019,-11.75428 0.25683,0.11995 m 8.98935,4.19795 0.25684,0.11995 m 8.98935,4.19795 0.25683,0.11995 m 8.98938,4.19795 0.25684,0.11995 m -28.0715,-13.10916 v 0 m 30.46435,14.22661 v 0 M 310.3978,35.71654 v 2.83464 m 0,2.26771 v 0.12535 m 0,-7.0866 v 0 m 0,7.0866 v 0 m 63.28692,-14.66122 v 2.06343 m 0,2.26773 v 2.75545 m 0,-7.08661 v 0 m 0,7.08661 v 0 m 31.81446,25.1405 v 0.4505 m 0,2.26772 V 64.063 m 0,-5.55287 v 0 m 0,7.08661 v 0 m -31.81446,-39.31372 1.569,1.58936 m 1.59317,1.61381 1.99143,2.01727 m 1.59317,1.61382 1.99142,2.01726 m 1.59317,1.61383 1.99143,2.01726"
       style="fill:none;stroke:#000000;stroke-width:0.3685;stroke-linecap:round;stroke-linejoin:round;stroke-miterlimit:10;stroke-dasharray:none;stroke-opacity:1"
       transform="matrix(1.3333333,0,0,-1.3333333,0,415.748)" />
    <path
       id="path7"
       d="m 387.60068,40.37944 1.99142,2.01727 m 1.59317,1.61382 1.99143,2.01727 m 1.59317,1.61382 1.99142,2.01727 m 1.59314,1.61382 1.99146,2.01727 m 1.59314,1.61381 1.99145,2.01728 M 373.68472,26.28302 v 0 m 31.81446,32.22711 v 0 m -93.14817,-24.88627 2.81455,-0.33687 m 2.25165,-0.26949 2.81457,-0.33687 m 2.25162,-0.26948 2.81457,-0.33687 m 2.25165,-0.2695 2.81455,-0.33687 m 2.25164,-0.26948 2.81458,-0.33687 m 2.25165,-0.26949 2.81454,-0.33687 m 2.25165,-0.2695 2.81454,-0.33685 m 2.25165,-0.2695 2.81458,-0.33687 m 2.25165,-0.26949 2.81454,-0.33686 m 2.25165,-0.26949 2.81457,-0.33687 m 2.25165,-0.2695 2.81455,-0.33687 m 2.25164,-0.26948 2.81455,-0.33687 m 2.25165,-0.26949 0.53927,-0.06454 m -63.28692,7.57462 v 0 m 63.28692,-7.57462 v 0 m -63.28692,14.66122 0.53775,-0.06436 m 2.25164,-0.26948 2.81458,-0.33687 m 2.25165,-0.2695 2.81454,-0.33685 m 2.25165,-0.26951 2.81455,-0.33686 m 2.25164,-0.26949 2.81458,-0.33687 m 2.25165,-0.2695 2.81454,-0.33685 m 2.25165,-0.2695 2.81457,-0.33687 m 2.25165,-0.26949 2.81455,-0.33686 m 2.25164,-0.26949 2.81455,-0.33687 m 2.25165,-0.2695 2.81457,-0.33687 m 2.25165,-0.26948 2.81455,-0.33687 m 2.25164,-0.26949 2.81458,-0.33686 m 2.25162,-0.26951 2.81457,-0.33685 m -61.33221,7.34065 v 0 m 63.28692,-7.57461 v 0 l 1.6106,1.63147 m 1.59314,1.61381 1.99145,2.01728 m 1.59314,1.61381 1.99146,2.01728 m 1.59314,1.61381 1.99145,2.01727 m 1.59314,1.61382 1.99146,2.01727 m 1.59314,1.61382 1.99145,2.01727 m 1.59314,1.61382 1.99146,2.01727 m 1.59314,1.61381 1.99142,2.01728 m 1.59317,1.61381 1.99143,2.01727 M 373.68472,33.36963 v 0 m 31.81446,32.22711 v 0 m -95.10138,-24.6525 0.38253,0.3875 m 1.59317,1.61382 1.99143,2.01727"
       style="fill:none;stroke:#000000;stroke-width:0.3685;stroke-linecap:round;stroke-linejoin:round;stroke-miterlimit:10;stroke-dasharray:none;stroke-opacity:1"
       transform="matrix(1.3333333,0,0,-1.3333333,0,415.748)" />
    <path
       id="path8"
       d="m 315.9581,46.57664 1.99142,2.01728 m 1.59317,1.61381 1.99143,2.01728 m 1.59314,1.61381 1.99145,2.01727 m 1.59314,1.61382 1.99146,2.01727 m 1.59314,1.61382 1.99145,2.01727 m 1.59314,1.61382 1.99146,2.01727 m 1.59314,1.61381 1.99145,2.01728 m 1.59314,1.61381 1.16202,1.1771 M 310.3978,40.94424 v 0 m 31.81445,32.22712 v 0 m 0.55795,-0.06678 2.81458,-0.33686 m 2.25165,-0.26951 2.81454,-0.33686 m 2.25165,-0.26949 2.81457,-0.33687 m 2.25165,-0.26948 2.81455,-0.33687 m 2.25164,-0.2695 2.81455,-0.33685 m 2.25165,-0.26951 2.81457,-0.33686 m 2.25165,-0.26949 2.81454,-0.33687 m 2.25165,-0.2695 2.81458,-0.33685 m 2.25165,-0.2695 2.81454,-0.33687 m 2.25165,-0.26949 2.81454,-0.33686 m 2.25165,-0.26949 2.81458,-0.33687 m 2.25164,-0.2695 2.81455,-0.33687 m 2.25165,-0.26948 1.93451,-0.23154 m -63.28693,7.57462 v 0 m 63.28693,-7.57462 v 0"
       style="fill:none;stroke:#000000;stroke-width:0.3685;stroke-linecap:round;stroke-linejoin:round;stroke-miterlimit:10;stroke-dasharray:none;stroke-opacity:1"
       transform="matrix(1.3333333,0,0,-1.3333333,0,415.748)" />
    <path
       id="path9"
       d="m 380.36292,38.12642 c 0.53713,-1.08925 1.25262,-2.08101 2.11691,-2.93422"
       style="fill:none;stroke:#000000;stroke-width:0.3685;stroke-linecap:round;stroke-linejoin:round;stroke-miterlimit:10;stroke-dasharray:none;stroke-opacity:1"
       transform="matrix(1.3333333,0,0,-1.3333333,0,415.748)" />
    <path
       id="path10"
       d="m 397.87518,53.21458 c -0.45425,1.02405 -1.09668,1.95374 -1.89392,2.74077"
       style="fill:none;stroke:#000000;stroke-width:0.3685;stroke-linecap:round;stroke-linejoin:round;stroke-miterlimit:10;stroke-dasharray:none;stroke-opacity:1"
       transform="matrix(1.3333333,0,0,-1.3333333,0,415.748)" />
    <path
       id="path11"
       d="m 373.06039,125.40523 0.78257,0.0939 0.77911,0.10043 0.77213,0.11342 0.76168,0.13292 2.32236,0.58595 2.19138,0.83015 2.06918,1.05808 1.95566,1.26968 1.85092,1.46503 1.75485,1.64413 1.66757,1.80689 1.58899,1.95343 2.97718,4.28125 2.76767,4.67194 2.62793,4.9324 2.55813,5.06265 m -29.42731,-30.00227 1.38279,0.19204 1.37558,0.2192 1.36114,0.2735 1.33951,0.35493 1.09515,0.37402 1.07236,0.44289 1.04678,0.50517 1.01841,0.56084 1.09048,0.6778 1.05243,0.73327 1.01437,0.78421 0.97632,0.83063 1.13501,1.06457 1.08252,1.11866 1.03363,1.1651 0.98834,1.20385 1.26603,1.67102 1.19934,1.71885 1.1416,1.75802 1.09283,1.78861 1.76608,3.086 1.68003,3.13339 1.62262,3.16495 1.59396,3.18075 m -30.69345,-36.97487 1.93756,0.59719 1.91748,0.62535 1.87732,0.6817 1.81711,0.76622 2.15521,1.10362 2.03855,1.26735 1.92962,1.42015 1.82852,1.56204 1.7352,1.69304 1.64963,1.81308"
       style="fill:none;stroke:#000000;stroke-width:0.3685;stroke-linecap:round;stroke-linejoin:round;stroke-miterlimit:10;stroke-dasharray:none;stroke-opacity:1"
       transform="matrix(1.3333333,0,0,-1.3333333,0,415.748)" />
    <path
       id="path12"
       d="m 390.68045,129.96237 1.57184,1.92224 1.50183,2.02048 2.82474,4.29199 2.63809,4.55396 2.51364,4.72857 2.45139,4.81592 m -94.16922,-17.99258 0.78259,0.0939 0.77911,0.1004 0.77213,0.11344 0.76169,0.1329 2.32232,0.58597 2.19141,0.83017 2.06918,1.05804 1.95566,1.26969 1.85092,1.46506 1.75485,1.6441 1.66758,1.80688 1.58899,1.95343 2.97717,4.28125 2.76764,4.67194 2.62796,4.93243 2.5581,5.06263 m 32.98725,-42.38628 1.55804,0.35187 1.54437,0.37304 1.02805,0.28154 m 5.5015,2.23247 0.71749,0.38075 1.94996,1.27485 0.87445,0.6837 m 4.34118,4.06007 0.0251,0.0263 1.57135,1.86264 1.07361,1.41809 m 3.30795,4.94699 2.11221,3.69025 m 2.77643,5.26495 0.11575,0.22256 1.77686,3.5849 m -23.46179,-28.73936 0.26199,0.10825 m 8.25269,5.3946 0.20923,0.19126 m 6.24737,7.67508 0.15619,0.23657 m 5.00287,8.55984 0.13083,0.25147 m -27.0737,-24.33272 v 0 m 30.90753,31.93257 v 0 m -93.32208,-19.54855 -1.26612,-6.9726 m 93.74106,28.07715 1.69428,-3.11197 m -31.12159,-26.8903 -1.26614,-6.9726"
       style="fill:none;stroke:#000000;stroke-width:0.3685;stroke-linecap:round;stroke-linejoin:round;stroke-miterlimit:10;stroke-dasharray:none;stroke-opacity:1"
       transform="matrix(1.3333333,0,0,-1.3333333,0,415.748)" />
    <path
       id="path13"
       d="m 355.44897,188.61145 c 2.65067,-2.6741 5.76032,-2.63934 8.39658,0.0938"
       style="fill:none;stroke:#000000;stroke-width:0.3685;stroke-linecap:round;stroke-linejoin:round;stroke-miterlimit:10;stroke-dasharray:none;stroke-opacity:1"
       transform="matrix(1.3333333,0,0,-1.3333333,0,415.748)" />
    <path
       id="path14"
       d="m 310.01276,134.30295 8.12643,0.18142 8.1026,0.0135 4.03488,-0.10873 4.01999,-0.21378 4.00208,-0.33972 3.98123,-0.48672 3.89816,-0.63663 3.8779,-0.77914 3.86057,-0.90131 3.8461,-1.00314 7.6604,-2.23027 7.63729,-2.39316 m -64.31375,1.92512 8.12644,0.18145 8.10257,0.0135 4.03491,-0.10876 4.01996,-0.21375 4.0021,-0.33973 3.9812,-0.48673 3.89817,-0.63661 3.87793,-0.77916 3.86056,-0.90132 3.8461,-1.00314 7.6604,-2.23026 7.63727,-2.39316 m -32.35419,45.87258 8.12644,0.18145 8.1026,0.0135 4.03488,-0.10876 4.01999,-0.21375 4.00207,-0.33975 3.98124,-0.48669 3.89816,-0.63663 3.8779,-0.77915 3.86056,-0.90133 3.8461,-1.00315 7.6604,-2.23025 7.6373,-2.39316 m -42.88632,50.49844 0.12067,-0.4241 m 0.62048,-2.18118 0.77563,-2.72647 m 0.62049,-2.18115 0.77563,-2.72648 m 0.62049,-2.18118 0.7756,-2.72647 m 0.62051,-2.18118 0.77561,-2.72647 m 0.62051,-2.18116 0.77561,-2.72647 m 0.62051,-2.18118 0.7756,-2.72647 m 0.62049,-2.18118 0.77563,-2.72647 m 0.62049,-2.18116 0.77563,-2.72647 m 0.62048,-2.18118 0.19584,-0.68835 m -12.1059,42.55477 v 0 m 12.1059,-42.55477 v 0 m -29.42402,-29.98844 0.65821,2.75717 m 0.52658,2.20572 0.6582,2.75717"
       style="fill:none;stroke:#000000;stroke-width:0.3685;stroke-linecap:round;stroke-linejoin:round;stroke-miterlimit:10;stroke-dasharray:none;stroke-opacity:1"
       transform="matrix(1.3333333,0,0,-1.3333333,0,415.748)" />
    <path
       id="path15"
       d="m 344.65283,143.28851 0.65824,2.75717 m 0.52655,2.20575 0.65823,2.75718 m 0.52655,2.20571 0.65823,2.75718 m 0.52655,2.20572 0.65824,2.75717 m 0.52655,2.20575 0.65823,2.75717 m 0.52655,2.20572 0.65824,2.75717 m 0.52655,2.20572 0.65823,2.75717 m 0.52655,2.20575 0.65823,2.75717 m 0.52658,2.20572 0.65821,2.75717 m 0.52658,2.20572 0.6582,2.75717 m 0.52658,2.20575 0.65821,2.75717 m 0.52658,2.20572 0.6582,2.75717 m 0.52658,2.20572 0.6582,2.75717 m -17.2485,-72.25161 v 0 m 17.32141,72.55706 v 0 m -17.32141,-72.55706 0.78259,0.0939 0.77908,0.1004 0.77213,0.11344 0.47333,0.0826 m 2.20334,0.53348 0.40737,0.10278 2.19141,0.83017 m 2.08164,1.06616 1.9432,1.26157 0.40601,0.32141 m 1.75503,1.4342 1.44474,1.35355 0.5798,0.62826 m 1.50665,1.69364 1.17008,1.43841 0.55975,0.80493 m 1.29471,1.86179 1.12274,1.61453 0.44244,0.74689 m 1.15583,1.95108 1.16937,1.97397 0.25406,0.47684 m 1.06631,2.00137 1.30759,2.45422 m 1.047,2.07206 1.27838,2.52999 m -29.19458,-29.54168 v 0 m 29.42731,30.00229 v 0 m -43.3086,-18.13752 2.83396,0.0633 m 2.26715,0.0506 2.83392,0.0633 m 2.26767,0.008 2.83462,0.005 m 2.26774,0.004 0.92395,0.002 1.91,-0.0515 m 2.26675,-0.0648 2.83063,-0.15052 m 2.26187,-0.15878 2.78772,-0.23666 m 2.2876,-0.27967 1.6936,-0.20706 1.11368,-0.18185 m 2.23807,-0.36551 0.54642,-0.0892 2.23629,-0.44931 m 2.21936,-0.46473 2.76041,-0.6445 m 2.19763,-0.55887 2.1709,-0.56622 0.56757,-0.16525 m 2.1773,-0.63388 2.72165,-0.79239"
       style="fill:none;stroke:#000000;stroke-width:0.3685;stroke-linecap:round;stroke-linejoin:round;stroke-miterlimit:10;stroke-dasharray:none;stroke-opacity:1"
       transform="matrix(1.3333333,0,0,-1.3333333,0,415.748)" />
    <path
       id="path16"
       d="m 383.79245,138.71393 0.0166,-0.005 2.68848,-0.84244 m 2.16397,-0.6781 2.70495,-0.8476 m -62.96774,8.87268 v 0 m 63.04761,-8.8977 v 0 m -62.86432,8.27502 0.80045,-2.71927 m 0.64038,-2.17544 0.80044,-2.71927 m 0.64035,-2.17542 0.80045,-2.71929 m 0.64035,-2.17542 0.80047,-2.7193 m 0.64035,-2.17541 0.80045,-2.71929 m 0.64035,-2.17543 0.80045,-2.71928 m 0.64038,-2.17543 0.80044,-2.71927 m 0.64035,-2.17543 0.80045,-2.71929 m 0.64035,-2.17543 0.80048,-2.71928 m 0.64035,-2.17542 0.80044,-2.71928 m 0.64035,-2.17543 0.80045,-2.71928 m 0.64038,-2.17543 0.80044,-2.71929 m 0.64035,-2.17541 0.80045,-2.71929 m -18.27344,62.07846 v 0 m 18.3844,-62.45533 v 0 m 0.0484,0.05803 1.81546,2.177 m 1.45236,1.7416 1.81546,2.17699 m 1.45237,1.74161 1.81546,2.17699 m 1.45236,1.7416 1.81546,2.17701 m 1.45236,1.74159 1.81546,2.177 m 1.45239,1.74159 1.81546,2.177 m 1.45237,1.7416 1.81546,2.177 m 1.45236,1.74159 1.81546,2.177 m 1.45236,1.74161 1.81546,2.17699 m 1.45236,1.7416 1.81546,2.17699 m 1.4524,1.74161 1.81546,2.177 m 1.45236,1.74159 1.81546,2.17699 m 1.45236,1.74161 1.81546,2.177 m 1.45236,1.74161 1.81546,2.177 m -44.34561,-53.1768 v 0 m 44.66321,53.55763 v 0"
       style="fill:none;stroke:#000000;stroke-width:0.3685;stroke-linecap:round;stroke-linejoin:round;stroke-miterlimit:10;stroke-dasharray:none;stroke-opacity:1"
       transform="matrix(1.3333333,0,0,-1.3333333,0,415.748)" />
    <path
       id="path17"
       d="m 358.1297,96.36455 c -4.54242,3.78802 -10.67554,5.05945 -16.34943,3.38928"
       style="fill:none;stroke:#000000;stroke-width:0.3685;stroke-linecap:round;stroke-linejoin:round;stroke-miterlimit:10;stroke-dasharray:none;stroke-opacity:1"
       transform="matrix(1.3333333,0,0,-1.3333333,0,415.748)" />
    <path
       id="path18"
       d="m 309.3797,130.81665 4.25092,0.0949 m 5.95178,0.09 4.25195,0.007 m 5.95111,-0.11338 3.87814,-0.2062 0.36701,-0.0311 m 5.92267,-0.58826 1.69363,-0.20706 2.51242,-0.41031 m 5.84137,-1.14035 3.28284,-0.76643 0.85235,-0.22231 m 5.73862,-1.57999 4.08246,-1.18856 m 5.68552,-1.76307 2.78482,-0.87263 m -55.96274,9.05589 0.28339,0.006 m 9.92065,0.002 0.28339,-0.008 m 9.9031,-0.55722 0.28247,-0.024 m 9.81003,-1.44998 0.27792,-0.0558 m 9.65323,-2.28057 0.25089,-0.0654 m 9.53741,-2.81842 0.27048,-0.0848 m -57.55783,7.17749 v 0 m 63.04761,-8.89772 v 0 m -45.32498,101.44231 1.33725,2.49939 m 1.06979,1.99951 0.1272,0.23776 1.28225,2.2215 m 1.13364,1.96402 0.24634,0.42679 1.26108,1.97332 m 1.28973,1.86499 0.36746,0.52527 1.34726,1.73111 m 1.47904,1.71823 0.47601,0.54117 1.50687,1.48254 m 1.68072,1.52036 1.30484,1.11313 0.89383,0.67407 m 1.81946,1.35303 2.3121,1.57116 m 1.97418,1.19358 2.42575,1.46658 m 1.96183,1.13666 2.47931,1.37408 m 1.98349,1.09928 0.1145,0.0635 m -31.87393,-31.751 v 0 m 31.87393,31.751 v 0"
       style="fill:none;stroke:#000000;stroke-width:0.3685;stroke-linecap:round;stroke-linejoin:round;stroke-miterlimit:10;stroke-dasharray:none;stroke-opacity:1"
       transform="matrix(1.3333333,0,0,-1.3333333,0,415.748)" />
    <path
       id="path19"
       d="m 344.20029,188.19043 c -2.65067,2.67407 -5.76032,2.63931 -8.39658,-0.0939"
       style="fill:none;stroke:#000000;stroke-width:0.3685;stroke-linecap:round;stroke-linejoin:round;stroke-miterlimit:10;stroke-dasharray:none;stroke-opacity:1"
       transform="matrix(1.3333333,0,0,-1.3333333,0,415.748)" />
    <path
       id="path20"
       d="m 327.27789,222.64966 0.67908,-2.75211 m 0.54324,-2.20166 0.67908,-2.7521 m 0.54324,-2.20169 0.67908,-2.75211 m 0.54324,-2.20169 0.67908,-2.75211 m 0.54325,-2.20169 0.67907,-2.7521 m 0.54325,-2.20166 0.67907,-2.75211 m 0.54325,-2.20169 0.67907,-2.7521 m 0.54328,-2.2017 0.67904,-2.7521 m 0.54328,-2.20169 0.67904,-2.75211 m 0.54328,-2.20169 0.67905,-2.7521 m 0.54327,-2.20166 0.54675,-2.21589 m -12.94555,52.46534 v 0 m 12.94555,-52.46534 v 0 m 0.18585,0.79166 0.64795,2.75958 m 0.51837,2.20768 0.64795,2.75961 m 0.51838,2.20767 0.64794,2.75958 m 0.51835,2.20771 0.64795,2.75958 m 0.51837,2.20767 0.64795,2.75961 m 0.51834,2.20768 0.64795,2.75958 m 0.51837,2.2077 0.64795,2.75958 m 0.51837,2.20768 0.64795,2.75961 m 0.51834,2.20767 0.64795,2.75958 m 0.51837,2.20771 0.64795,2.75958 m 0.51834,2.20767 0.64795,2.75961 m 0.51837,2.20768 0.64795,2.75961 m 0.51834,2.20767 0.64795,2.75958 m 0.51837,2.20768 0.64795,2.75961 m 0.51837,2.20767 0.64795,2.75961 m 0.51834,2.20768 0.64795,2.75958 m 0.51837,2.20767 0.64795,2.75961 M 340.04788,170.8959 v 0 m 19.75238,84.12497 v 0 M 409.25671,59.37436 h 9.49607 M 387.48282,24.90874 h 9.49606 m -207.01867,204.46476 7.0101,-2.9212 7.0382,-2.64252 3.53846,-1.12967 3.55603,-0.95544 3.57708,-0.74646 3.60172,-0.50259 3.67017,-0.23664 3.69534,0.0128 3.71689,0.22662 3.73489,0.40479 7.50934,1.20157 7.53808,1.48669 m -26.31237,37.55304 7.0101,-2.9212 7.03824,-2.64252 3.53842,-1.12964 3.55603,-0.95547"
       style="fill:none;stroke:#000000;stroke-width:0.3685;stroke-linecap:round;stroke-linejoin:round;stroke-miterlimit:10;stroke-dasharray:none;stroke-opacity:1"
       transform="matrix(1.3333333,0,0,-1.3333333,0,415.748)" />
    <path
       id="path21"
       d="m 242.97693,253.47568 3.57709,-0.74643 3.60171,-0.5026 3.67017,-0.23666 3.69534,0.0128 3.71689,0.22662 3.73489,0.40479 7.50934,1.2016 7.53809,1.48666 m -90.06024,-25.94898 3.80972,-1.60769 3.82522,-1.56583 3.8563,-1.48215 3.90286,-1.35659 2.29385,-0.71296 2.3147,-0.643 2.33533,-0.55966 2.35583,-0.46283 2.01868,-0.30878 2.02975,-0.22952 2.03724,-0.15073 2.04107,-0.0724 2.46262,0.0141 2.46042,0.1138 2.45578,0.1998 2.44867,0.2721 3.90612,0.55575 3.88764,0.66874 3.87533,0.74404 3.86917,0.78171 m -42.24932,21.67755 2.61654,-1.09036 m 2.09323,-0.87228 2.30033,-0.95859 0.32074,-0.12042 m 2.12301,-0.79709 2.65375,-0.99637 m 2.12622,-0.78784 2.70038,-0.86209 m 2.18106,-0.61905 2.0275,-0.54477 0.71972,-0.15018 m 2.21991,-0.46322 0.63749,-0.13303 2.16247,-0.30176 m 2.25208,-0.25323 2.82876,-0.18241 m 2.26764,0.006 1.45624,0.005 1.37585,0.0839 m 2.26352,0.138 0.0775,0.005 2.7409,0.29706 m 2.24598,0.30808 2.79904,0.44787 m 2.23922,0.35831 1.21906,0.19507 1.56982,0.3096 m 2.22486,0.43881 2.78109,0.54846 m -57.22396,5.99185 v 0 m 58.18628,-5.80206 v 0 m -15.93696,-15.87549 2.65391,-6.57092 m 29.22003,38.32193 2.6539,-6.57089"
       style="fill:none;stroke:#000000;stroke-width:0.3685;stroke-linecap:round;stroke-linejoin:round;stroke-miterlimit:10;stroke-dasharray:none;stroke-opacity:1"
       transform="matrix(1.3333333,0,0,-1.3333333,0,415.748)" />
    <path
       id="path22"
       d="m 248.14651,223.57147 31.87394,31.75101 m -29.22003,-38.32193 31.87393,31.75104 m -92.71414,-19.37809 31.87393,31.75101 m 30.86044,-37.62982 2.00824,2.00052 m 3.41406,3.40088 2.00827,2.00052 m 3.41403,3.40091 2.00827,2.00051 m 3.41407,3.40088 2.00827,2.00052 m 3.41403,3.40088 2.00827,2.00052 m 3.41406,3.40091 1.54123,1.53528 m -30.46026,-30.34281 0.20083,0.20008 m 5.2215,5.20135 0.2008,0.20004 m 5.2215,5.20136 0.20084,0.20004 m 5.22149,5.20136 0.20081,0.20007 m 5.2215,5.20136 0.20083,0.20004 m 5.2215,5.20135 0.2008,0.20005 m -28.72607,-28.6153 v 0 m 31.87393,31.75101 v 0 m -75.45019,-6.788 1.18344,2.36734 m 1.01401,2.02838 1.26751,2.53547 m 1.01401,2.02838 1.26752,2.53546 m 1.014,2.02838 1.26752,2.53546 m 1.01401,2.02838 1.26752,2.5355 m 1.014,2.02838 1.26749,2.53546 m 1.01401,2.02838 1.26751,2.53549 m 1.01401,2.02838 1.26752,2.53546 m 1.01401,2.02839 1.26751,2.53546 m 1.01401,2.02838 1.26752,2.53549 m 1.01401,2.02838 1.26751,2.53546 m 1.01401,2.02838 1.26749,2.5355 m 1.01401,2.02835 1.02743,2.0552 m -28.32159,-56.65329 v 0 m 28.32159,56.65329 v 0 l 0.29297,-0.61267 m 0.97827,-2.04587 1.22284,-2.55731 m 0.9783,-2.04587 1.22284,-2.55731 m 0.97827,-2.04583 1.22284,-2.55732 m 0.9783,-2.04586 1.22284,-2.55732 m 0.97828,-2.04583 1.22283,-2.55732 m 0.97831,-2.04586 1.22284,-2.55732 m 0.97827,-2.04583 1.22287,-2.55732 m 0.97827,-2.04586 1.22284,-2.55732 m 0.97827,-2.04583 1.22287,-2.55731 m 0.97827,-2.04587 1.22284,-2.55731 m 0.97827,-2.04584 1.22284,-2.55731 m 0.9783,-2.04587 1.22284,-2.55731 m 0.97827,-2.04584 1.22287,-2.55731 m -28.90762,60.45382 v 0 m 29.86469,-62.45535 v 0"
       style="fill:none;stroke:#000000;stroke-width:0.3685;stroke-linecap:round;stroke-linejoin:round;stroke-miterlimit:10;stroke-dasharray:none;stroke-opacity:1"
       transform="matrix(1.3333333,0,0,-1.3333333,0,415.748)" />
    <path
       id="path23"
       d="m 226.29681,286.0556 c 4.88938,-2.44424 10.63327,-2.49463 15.56476,-0.1365"
       style="fill:none;stroke:#000000;stroke-width:0.3685;stroke-linecap:round;stroke-linejoin:round;stroke-miterlimit:10;stroke-dasharray:none;stroke-opacity:1"
       transform="matrix(1.3333333,0,0,-1.3333333,0,415.748)" />
    <path
       id="path24"
       d="m 189.96021,229.3735 -1.7114,-7.10141 6.82413,-2.47305 6.84546,-2.2652 3.43737,-0.98968 3.45069,-0.85974 3.46667,-0.70389 3.48532,-0.52197 4.30991,-0.36856 4.33801,-0.0941 4.36215,0.14127 4.38227,0.33737 8.80874,1.10611 8.84089,1.41986 m -60.84021,12.37295 -1.7114,-7.10141 m 0.87759,3.64161 2.64615,-1.01642 m 4.49848,-1.72788 0.41247,-0.15844 2.26215,-0.77982 m 4.55578,-1.57056 0.76459,-0.26358 1.94519,-0.56613 m 4.66043,-1.22104 1.02765,-0.24936 1.74747,-0.32345 m 4.76456,-0.70471 1.19744,-0.14212 1.62687,-0.0793 m 4.81625,-0.065 0.94336,0.012 1.88724,0.12244 m 4.79782,0.43896 0.76971,0.0831 2.03617,0.31555 m 4.76205,0.73798 0.70212,0.10883 2.08722,0.39431 m 4.73514,0.89457 0.70074,0.13238 m -55.58395,3.79816 0.26461,-0.10166 m 6.93543,-2.49048 0.268,-0.0924 m 7.03486,-2.18823 0.27545,-0.0668 m 7.21008,-1.51159 0.28149,-0.0334 m 7.3415,-0.58615 0.28341,0.004 m 7.35953,0.32846 0.28183,0.0304 m 7.30145,0.98931 0.28012,0.0434 m 7.25861,1.27139 0.27853,0.0526 m -57.418,6.18106 v 0 m 60.34705,-5.62769 v 0 m 0.27374,-94.88078 0.7826,0.0939 0.77908,0.10043 0.77215,0.11342 0.76166,0.13292 2.32236,0.58595 2.19141,0.83015 2.06915,1.05808 1.95569,1.26968 1.85089,1.46503 1.75488,1.64413"
       style="fill:none;stroke:#000000;stroke-width:0.3685;stroke-linecap:round;stroke-linejoin:round;stroke-miterlimit:10;stroke-dasharray:none;stroke-opacity:1"
       transform="matrix(1.3333333,0,0,-1.3333333,0,415.748)" />
    <path
       id="path25"
       d="m 264.98706,132.69894 1.66754,1.80689 1.58899,1.95343 2.9772,4.28125 2.76764,4.67194 2.62796,4.9324 2.55811,5.06265 m -29.42731,-30.00227 1.38278,0.19204 1.37558,0.2192 1.36115,0.2735 1.33954,0.35493 1.09515,0.37402 1.07233,0.44289 1.04678,0.50517 1.0184,0.56084 1.09049,0.6778 1.05243,0.73327 1.01437,0.78421 0.97632,0.83063 1.13504,1.06457 1.08249,1.11866 1.03363,1.1651 0.98834,1.20385 1.26602,1.67102 1.19934,1.71885 1.14161,1.75802 1.09283,1.78861 1.76608,3.086 1.68003,3.13339 1.62262,3.16495 1.59396,3.18075 m -30.69342,-36.97487 1.93756,0.59719 1.91748,0.62535 1.87732,0.6817 1.81708,0.76622 2.15521,1.10362 2.03854,1.26735 1.92963,1.42015 1.82852,1.56204 1.7352,1.69304 1.64963,1.81308 1.57184,1.92224 1.50183,2.02048 2.82477,4.29199 2.63806,4.55396 2.51364,4.72857 2.45138,4.81592 m -94.16919,-17.99258 0.7826,0.0939 0.77908,0.1004 0.77213,0.11344 0.76168,0.1329"
       style="fill:none;stroke:#000000;stroke-width:0.3685;stroke-linecap:round;stroke-linejoin:round;stroke-miterlimit:10;stroke-dasharray:none;stroke-opacity:1"
       transform="matrix(1.3333333,0,0,-1.3333333,0,415.748)" />
    <path
       id="path26"
       d="m 189.79507,134.74362 2.32236,0.58597 2.19141,0.83017 2.06915,1.05804 1.95569,1.26969 1.85089,1.46506 1.75488,1.6441 1.66754,1.80688 1.58899,1.95343 2.97721,4.28125 2.76764,4.67194 2.62796,4.93243 2.5581,5.06263 m 32.98725,-42.38628 1.55804,0.35187 1.54437,0.37304 1.02805,0.28154 m 5.50146,2.23247 0.7175,0.38075 1.94995,1.27485 0.87445,0.6837 m 4.34122,4.06007 0.0251,0.0263 1.57132,1.86264 1.0736,1.41809 m 3.30796,4.94699 2.11221,3.69025 m 2.77643,5.26495 0.11575,0.22256 1.77686,3.5849 m -23.46176,-28.73936 0.26196,0.10825 m 8.25268,5.3946 0.20923,0.19126 m 6.24738,7.67508 0.15619,0.23657 m 5.0029,8.55984 0.1308,0.25147 m -27.07367,-24.33272 v 0 m 30.9075,31.93257 v 0 m -93.32206,-19.54855 -1.26614,-6.9726 63.04764,-8.89772 m 1.26611,6.9726 -63.04761,8.89772 m 92.47492,21.10455 -63.04761,8.89771 m 63.04761,-8.89771 1.69427,-3.11197 m -31.12158,-26.8903 -1.26611,-6.9726 m -60.02054,12.04616 2.80682,-0.39612 m 4.77161,-0.6734 2.80682,-0.39612 m 4.77164,-0.6734 2.80683,-0.39613 m 4.7716,-0.6734 2.80683,-0.39612 m 4.77163,-0.6734 2.80683,-0.39612 m 4.7716,-0.6734 2.80686,-0.39612 m 4.7716,-0.67341 2.80683,-0.39612 m 4.7716,-0.6734 2.80686,-0.39612 m 4.7716,-0.6734 0.026,-0.004 m -63.04761,8.89772 0.14853,-0.021 m 7.29776,-1.0299 0.2807,-0.0396 m 7.29776,-1.02991 0.28067,-0.0396 m 7.29776,-1.02993 0.2807,-0.0396 m 7.29776,-1.0299 0.28067,-0.0396"
       style="fill:none;stroke:#000000;stroke-width:0.3685;stroke-linecap:round;stroke-linejoin:round;stroke-miterlimit:10;stroke-dasharray:none;stroke-opacity:1"
       transform="matrix(1.3333333,0,0,-1.3333333,0,415.748)" />
    <path
       id="path27"
       d="m 223.8266,125.48769 0.2807,-0.0396 m 7.29776,-1.02992 0.28067,-0.0396 m 7.29776,-1.02991 0.2807,-0.0396 m 7.29776,-1.02991 0.28067,-0.0396 m -60.77609,8.57715 v 0 m 63.04761,-8.89772 v 0 m -30.89075,7.93517 1.38278,0.19204 1.37558,0.21918 m 2.25531,0.51044 0.44537,0.11801 1.09516,0.37402 1.07232,0.44287 m 2.06455,1.06565 6.4e-4,3.6e-4 1.09048,0.6778 1.05243,0.73327 0.21143,0.16346 m 1.75714,1.43255 0.0222,0.0188 1.13501,1.06458 0.86886,0.89785 m 1.50296,1.69736 0.73264,0.8924 1.01455,1.33911 m 1.31083,1.85013 0.13998,0.20062 1.1416,1.75803 0.25751,0.42141 m 1.16592,1.94483 1.40796,2.46023 m 1.07291,1.99784 0.63464,1.18368 0.68048,1.3273 m 1.03293,2.0188 1.26996,2.53424 m -29.19409,-29.53689 v 0 m 29.42731,30.00225 v 0 m -11.25733,45.62342 0.67905,-2.75211 m 0.54327,-2.20169 0.67905,-2.75211 m 0.54327,-2.20166 0.67905,-2.7521 m 0.54327,-2.20169 0.67905,-2.75211 m 0.54327,-2.20169 0.67905,-2.7521 m 0.54327,-2.20169 0.67905,-2.75211 m 0.54327,-2.20166 0.67905,-2.75211 m 0.54328,-2.20169 0.67907,-2.7521 m 0.54325,-2.20169 0.67907,-2.75211 m 0.54325,-2.20169 0.25644,-1.03931 m -11.36249,46.04959 v 0 m 11.36249,-46.04959 v 0 m -29.00861,-28.2395 0.65512,2.75791 m 0.52405,2.20633 0.65512,2.7579 m 0.52405,2.20633 0.65512,2.75793 m 0.52408,2.20633 0.65509,2.75791 m 0.52408,2.20633 0.65509,2.7579 m 0.52407,2.20633 0.65509,2.7579 m 0.52408,2.20633 0.65509,2.75791 m 0.52408,2.20633 0.65509,2.7579 m 0.52408,2.20633 0.65509,2.75793"
       style="fill:none;stroke:#000000;stroke-width:0.3685;stroke-linecap:round;stroke-linejoin:round;stroke-miterlimit:10;stroke-dasharray:none;stroke-opacity:1"
       transform="matrix(1.3333333,0,0,-1.3333333,0,415.748)" />
    <path
       id="path28"
       d="m 229.25464,176.29498 0.65509,2.75794 m 0.52408,2.20633 0.65509,2.7579 m 0.52408,2.20633 0.65509,2.7579 m 0.52407,2.20633 0.6551,2.75791 m 0.52407,2.20633 0.65509,2.7579 m 0.52408,2.20633 0.65509,2.7579 M 218.22339,129.8541 v 0 m 18.06482,76.05184 v 0"
       style="fill:none;stroke:#000000;stroke-width:0.3685;stroke-linecap:round;stroke-linejoin:round;stroke-miterlimit:10;stroke-dasharray:none;stroke-opacity:1"
       transform="matrix(1.3333333,0,0,-1.3333333,0,415.748)" />
    <path
       id="path29"
       d="m 232.1358,188.61145 c 2.65064,-2.6741 5.76029,-2.63934 8.39658,0.0938"
       style="fill:none;stroke:#000000;stroke-width:0.3685;stroke-linecap:round;stroke-linejoin:round;stroke-miterlimit:10;stroke-dasharray:none;stroke-opacity:1"
       transform="matrix(1.3333333,0,0,-1.3333333,0,415.748)" />
    <path
       id="path30"
       d="m 185.43344,33.03557 1.7898,-6.85689 m 61.35852,15.51148 1.78979,-6.85689 -63.14831,-8.65459 m 61.35852,15.51148 -63.14832,-8.65459 m 6.11307,-2.71329 4.21258,0.57735 m 5.89765,0.80827 4.21258,0.57735 m 5.89762,0.80827 4.21258,0.57735 m 5.89765,0.80829 4.21258,0.57733 m 5.89762,0.80829 4.21258,0.57734 m 5.89765,0.80828 4.21258,0.57734 m -57.8529,-7.92884 0.28085,0.03848 m 9.82937,1.34714 0.28083,0.03849 m 9.82937,1.34714 0.28086,0.03848 m 9.82937,1.34714 0.28083,0.03848 m 9.82937,1.34714 0.28086,0.03848 m 9.82937,1.34714 0.28082,0.0385 m 9.82938,1.34712 0.28085,0.0385 m -63.07107,-8.64401 v 0 m 63.14831,8.6546 v 0 m 31.24149,17.68364 -1.55432,-6.91406 M 250.37155,34.83327 279.16382,49.0313 m -93.73038,-15.99573 33.65601,47.84796 61.62869,-24.93817 m -32.13638,-14.2552 1.78979,-6.85689 m -1.78979,6.85689 32.13638,14.2552 m -28.81281,-16.54947 3.8526,1.79913 m 5.39362,2.51877 3.85257,1.79913 m 5.39362,2.51877 3.85257,1.79914 m 5.39361,2.51876 0.29706,0.13874 m -21.61466,-10.09389 0.25684,0.11993 m 8.98935,4.19797 0.25684,0.11994 m 8.98935,4.19796 0.25683,0.11994 M 249.47665,38.26172 v 0 m 30.46433,14.22661 v 0 M 187.08463,35.71654 v 2.83464 m 0,2.26771 v 0.12535 m 0,-7.0866 v 0 m 0,7.0866 v 0 m 63.28692,-14.66122 v 2.06343 m 0,2.26773 v 2.75545 m 0,-7.08661 v 0 m 0,7.08661 v 0 m 31.81445,25.1405 v 0.4505 m 0,2.26772 V 64.063 m 0,-5.55287 v 0 m 0,7.08661 v 0 m -31.81445,-39.31372 1.49298,1.51234 m 1.59314,1.61382 1.99146,2.01727 m 1.59314,1.61382 1.99145,2.01727 m 1.59314,1.61382 1.99146,2.01727"
       style="fill:none;stroke:#000000;stroke-width:0.3685;stroke-linecap:round;stroke-linejoin:round;stroke-miterlimit:10;stroke-dasharray:none;stroke-opacity:1"
       transform="matrix(1.3333333,0,0,-1.3333333,0,415.748)" />
    <path
       id="path31"
       d="m 264.21146,40.30244 1.99142,2.01728 m 1.59317,1.61381 1.99143,2.01728 m 1.59317,1.61381 1.99142,2.01727 m 1.59317,1.61382 1.99143,2.01727 m 1.59317,1.61382 1.99142,2.01727 m 1.59317,1.61382 0.0516,0.05224 M 250.37158,26.28302 v 0 m 31.81445,32.22711 v 0 m -93.1654,-24.88421 2.81454,-0.33686 m 2.25165,-0.2695 2.81458,-0.33687 m 2.25161,-0.26948 2.81458,-0.33687 m 2.25165,-0.2695 2.81454,-0.33685 m 2.25165,-0.2695 2.81458,-0.33687 m 2.25164,-0.26949 2.81455,-0.33687 m 2.25165,-0.26948 2.81457,-0.33687 m 2.25162,-0.2695 2.81457,-0.33687 m 2.25165,-0.26949 2.81455,-0.33686 m 2.25164,-0.26949 2.81458,-0.33687 m 2.25165,-0.2695 2.81454,-0.33685 m 2.25165,-0.2695 2.81455,-0.33687 m 2.25164,-0.26949 0.55652,-0.0666 m -63.28692,7.57462 v 0 m 63.28692,-7.57462 v 0 m -63.28692,14.66122 0.5205,-0.0623 m 2.25165,-0.26948 2.81458,-0.33687 m 2.25164,-0.2695 2.81455,-0.33685 m 2.25165,-0.26951 2.81454,-0.33686 m 2.25165,-0.26949 2.81457,-0.33687 m 2.25165,-0.26948 2.81455,-0.33687 m 2.25165,-0.2695 2.81457,-0.33687 m 2.25165,-0.26949 2.81454,-0.33686 m 2.25165,-0.26949 2.81455,-0.33687 m 2.25164,-0.2695 2.81458,-0.33685 m 2.25165,-0.2695 2.81454,-0.33687 m 2.25165,-0.26949 2.81457,-0.33686 m 2.25165,-0.26951 2.81455,-0.33685 m -61.31497,7.33859 v 0 m 63.28692,-7.57461 v 0 l 1.53455,1.55447 m 1.59317,1.61382 1.99142,2.01727 m 1.59317,1.61382 1.99143,2.01727 m 1.59314,1.61381 1.99145,2.01728 m 1.59314,1.61381 1.99146,2.01728 m 1.59314,1.61381 1.99145,2.01727 m 1.59314,1.61382 1.99146,2.01726 m 1.59314,1.61383 1.99145,2.01726 m 1.59314,1.61381 1.99146,2.01727 m 1.59313,1.61383 0.01,0.01012 M 250.37157,33.36963 v 0 m 31.81445,32.22711 v 0"
       style="fill:none;stroke:#000000;stroke-width:0.3685;stroke-linecap:round;stroke-linejoin:round;stroke-miterlimit:10;stroke-dasharray:none;stroke-opacity:1"
       transform="matrix(1.3333333,0,0,-1.3333333,0,415.748)" />
    <path
       id="path32"
       d="m 187.08463,40.94424 0.30651,0.31051 m 1.59314,1.61381 1.99146,2.01727 m 1.59314,1.61382 1.99145,2.01727 m 1.59314,1.61382 1.99146,2.01727 m 1.59314,1.61382 1.99145,2.01727 m 1.59314,1.61381 1.99146,2.01728 m 1.59314,1.61381 1.99142,2.01728 m 1.59317,1.61381 1.99143,2.01727 m 1.59317,1.61382 1.99142,2.01727 m 1.59317,1.61382 1.23804,1.25409 M 187.08463,40.94424 v 0 m 31.81445,32.22712 v 0 m 0.54071,-0.06472 2.81457,-0.33686 m 2.25165,-0.26951 2.81455,-0.33685 m 2.25164,-0.2695 2.81458,-0.33687 m 2.25165,-0.26948 2.81454,-0.33687 m 2.25165,-0.2695 2.81455,-0.33685 m 2.25164,-0.26951 2.81458,-0.33686 m 2.25165,-0.26949 2.81454,-0.33687 m 2.25165,-0.26948 2.81454,-0.33687 m 2.25165,-0.2695 2.81458,-0.33687 m 2.25164,-0.26949 2.81455,-0.33686 m 2.25165,-0.26949 2.81457,-0.33687 m 2.25165,-0.2695 2.81454,-0.33685 m 2.25165,-0.2695 1.95175,-0.2336 m -63.28692,7.57462 v 0 M 282.186,65.59674 v 0"
       style="fill:none;stroke:#000000;stroke-width:0.3685;stroke-linecap:round;stroke-linejoin:round;stroke-miterlimit:10;stroke-dasharray:none;stroke-opacity:1"
       transform="matrix(1.3333333,0,0,-1.3333333,0,415.748)" />
    <path
       id="path33"
       d="m 257.04971,38.12642 c 0.53714,-1.08925 1.25266,-2.08101 2.11692,-2.93422"
       style="fill:none;stroke:#000000;stroke-width:0.3685;stroke-linecap:round;stroke-linejoin:round;stroke-miterlimit:10;stroke-dasharray:none;stroke-opacity:1"
       transform="matrix(1.3333333,0,0,-1.3333333,0,415.748)" />
    <path
       id="path34"
       d="m 274.56198,53.21458 c -0.45425,1.02405 -1.09668,1.95374 -1.89392,2.74077"
       style="fill:none;stroke:#000000;stroke-width:0.3685;stroke-linecap:round;stroke-linejoin:round;stroke-miterlimit:10;stroke-dasharray:none;stroke-opacity:1"
       transform="matrix(1.3333333,0,0,-1.3333333,0,415.748)" />
    <path
       id="path35"
       d="m 285.94354,59.37436 h 9.49607 M 264.16965,24.90874 h 9.49606 m -218.7814,204.1595 v -7.08664 m 63.28694,-0.48798 v -7.08664 m 31.81447,39.31372 v -7.08661 m -31.81447,-32.22711 31.81447,32.22711 m -31.81447,-32.22711 -63.28694,7.57462 m 63.28694,-0.48798 -63.28694,7.57462 m 63.28694,-7.57462 31.81447,32.22708 m -95.10141,-24.65246 31.81447,32.22708 m 63.28694,-7.57462 -63.28694,7.57462 m -28.91527,-36.1174 2.81456,-0.33686 m 4.78476,-0.57269 2.81456,-0.33685 m 4.78474,-0.57266 2.81456,-0.33689 m 4.78475,-0.57266 2.81456,-0.33685 m 4.78474,-0.5727 2.81456,-0.33685 m 4.78474,-0.57266 2.81456,-0.33688 m 4.78476,-0.57267 2.81455,-0.33688 m 4.78476,-0.57266 2.81456,-0.33686 m -58.54282,7.00681 0.28145,-0.0337 m 7.31786,-0.87586 0.28146,-0.0337 m 7.31784,-0.87585 0.28146,-0.0337 m 7.31786,-0.87583 0.28145,-0.0337 m 7.31785,-0.87585 0.28145,-0.0337 m 7.31786,-0.87586 0.28145,-0.0337 m 7.31785,-0.87586 0.28147,-0.0337 m 7.31784,-0.87585 0.28146,-0.0337 m 7.31786,-0.87586 0.28144,-0.0337 m -61.44201,7.35379 v 0 m 63.28694,-7.57461 v 0 l 1.38469,1.40268 m 3.38545,3.42935 1.99144,2.01727 m 3.38544,3.42935 1.99145,2.01728 m 3.38544,3.42935 1.99145,2.01727 m 3.38544,3.42938 1.99146,2.01728 m 3.38543,3.42935 1.99146,2.01727 m 3.38544,3.42935 0.15988,0.16193 m -28.83663,-29.21063 0.19915,0.20175 m 5.17775,5.2449 0.19914,0.20172 m 5.17773,5.24491 0.19916,0.20172 m 5.17773,5.2449 0.19916,0.20172 m 5.17774,5.24491 0.19915,0.20172 m 5.17774,5.2449 0.19916,0.20172 m -30.06145,-30.45135 v 0 m 31.81447,32.22711 v 0 M 54.90533,41.11507 v -7.08663 m 63.28693,-0.48799 v -7.08662 m 31.81445,39.31372 V 58.68094 M 118.19226,26.45383 150.00671,58.68094 M 118.19226,26.45383 54.90533,34.02844"
       style="fill:none;stroke:#000000;stroke-width:0.3685;stroke-linecap:round;stroke-linejoin:round;stroke-miterlimit:10;stroke-dasharray:none;stroke-opacity:1"
       transform="matrix(1.3333333,0,0,-1.3333333,0,415.748)" />
    <path
       id="path36"
       d="m 118.19226,33.54045 -63.28693,7.57462 m 63.28693,-7.57462 31.81445,32.2271 M 54.90533,41.11507 86.71979,73.34218 m 63.28692,-7.57463 -63.28692,7.57463 M 58.4039,37.15302 61.21846,36.81616 m 4.78474,-0.57268 2.81456,-0.33686 m 4.78475,-0.57268 2.81456,-0.33685 m 4.78476,-0.57268 2.81454,-0.33687 m 4.78476,-0.57266 2.81456,-0.33687 m 4.78475,-0.57268 2.81456,-0.33687 m 4.78474,-0.57266 2.81456,-0.33687 m 4.78474,-0.57268 2.81456,-0.33686 m -58.54281,7.00682 0.28146,-0.03369 m 7.31786,-0.87586 0.28145,-0.03369 m 7.31785,-0.87584 0.28145,-0.03369 m 7.31786,-0.87586 0.28146,-0.03369 m 7.31784,-0.87584 0.28146,-0.03369 m 7.31786,-0.87585 0.28145,-0.03368 m 7.31785,-0.87585 0.28145,-0.03369 m 7.31786,-0.87586 0.28145,-0.03367 m 7.31785,-0.87586 0.28147,-0.03369 m -62.04139,7.42554 v 0 m 63.28693,-7.57462 v 0 m 1.94454,1.96977 1.99143,2.01726 m 3.38546,3.42937 1.99144,2.01727 m 3.38546,3.42935 1.99143,2.01728 m 3.38547,3.42936 1.99142,2.01728 m 3.38544,3.42935 1.99145,2.01727 m 3.38544,3.42937 1.99146,2.01726 m -30.6682,-31.06597 0.19916,0.20172 m 5.17773,5.24492 0.19914,0.20172 m 5.17777,5.24491 0.19912,0.20172 m 5.17777,5.2449 0.19913,0.20174 m 5.17776,5.2449 0.19913,0.20172 m 5.17773,5.24491 0.19916,0.20172 m -27.23584,-27.5891 v 0 m 31.81445,32.22711 v 0 m -95.10138,70.02469 v -7.08662 m 63.28693,-0.48801 v -7.08661 m 31.81445,39.31374 v -7.08664 m -31.81445,-32.2271 31.81445,32.2271 m -31.81445,-32.2271 -63.28693,7.57462 m 63.28693,-0.48801 -63.28693,7.57463 m 63.28693,-7.57463 31.81445,32.22713 m -95.10138,-24.6525 31.81446,32.22711 m 63.28692,-7.57461 -63.28692,7.57461 m -31.81446,-35.77041 1.868,-0.22357 m 4.78474,-0.5727 2.81456,-0.33687 m 4.78475,-0.57266 2.81456,-0.33687 m 4.78476,-0.57267 2.81454,-0.33687"
       style="fill:none;stroke:#000000;stroke-width:0.3685;stroke-linecap:round;stroke-linejoin:round;stroke-miterlimit:10;stroke-dasharray:none;stroke-opacity:1"
       transform="matrix(1.3333333,0,0,-1.3333333,0,415.748)" />
    <path
       id="path37"
       d="m 84.356,125.18076 2.81456,-0.33687 m 4.78475,-0.57268 2.81456,-0.33685 m 4.78474,-0.57268 2.81456,-0.33687 m 4.78475,-0.57268 2.81456,-0.33685 m 4.78474,-0.57268 2.81456,-0.33687 m -58.5428,7.00682 0.28145,-0.0337 m 7.31785,-0.87585 0.28145,-0.0337 m 7.31786,-0.87586 0.28146,-0.0337 m 7.31784,-0.87586 0.28146,-0.0337 m 7.31786,-0.87584 0.28145,-0.0337 m 7.31785,-0.87585 0.28145,-0.0337 m 7.31786,-0.87583 0.28145,-0.0337 m 7.31785,-0.87585 0.28147,-0.0337 m -57.59626,6.89353 v 0 m 63.28693,-7.57463 v 0 l 1.38796,1.40594 m 3.38545,3.42937 1.99144,2.01727 m 3.38545,3.42935 1.99142,2.01728 m 3.38547,3.42935 1.99143,2.01727 m 3.38546,3.42938 1.99143,2.01728 m 3.38547,3.42935 1.99142,2.01727 m 3.38544,3.42935 0.15661,0.15863 m -28.83334,-29.20732 0.19914,0.20172 m 5.17774,5.24492 0.19915,0.20172 m 5.17775,5.24491 0.19913,0.20172 m 5.17777,5.2449 0.19912,0.20172 m 5.17777,5.24491 0.19913,0.20172 m 5.17776,5.2449 0.19913,0.20175 m -30.0647,-30.45466 v 0 m 31.81445,32.22709 v 0 m -139.05215,80.96796 31.81445,32.22708 m 110.88474,-9.16437 25.44073,25.75071 m -88.72766,-18.17609 25.44074,25.7507 m -2.76354,-2.8194 63.28694,-7.57461 m -63.28694,7.57461 3.16637,-0.37899 m -3.16637,0.37899 v 0 l 3.00582,0.0684 -0.10106,-0.84436 -2.90476,0.77591 m 63.28694,-7.57461 -3.16638,0.37897 m 3.16638,-0.37897 v 0 l -2.90478,0.77588 -0.10105,-0.84436 3.00583,0.0685 M 10.97557,137.50674 42.79004,169.73386 m 110.88473,-9.1644 25.44074,25.7507 m -88.72768,-18.17609 25.44074,25.75071 m -2.76354,-2.8194 63.28693,-7.57462 m -63.28693,7.57462 3.16638,-0.37897 m -3.16638,0.37897 v 0"
       style="fill:none;stroke:#000000;stroke-width:0.3685;stroke-linecap:round;stroke-linejoin:round;stroke-miterlimit:10;stroke-dasharray:none;stroke-opacity:1"
       transform="matrix(1.3333333,0,0,-1.3333333,0,415.748)" />
    <path
       id="path38"
       d="m 113.06503,191.07538 v 0 l 3.00582,0.0685 -0.10106,-0.84436 -2.90476,0.77588 m 63.28693,-7.57462 -3.16638,0.37897 m 3.16638,-0.37897 v 0 l -2.90476,0.77588 -0.10104,-0.84436 3.0058,0.0685 M 153.67477,69.43561 179.11551,95.18629 m -88.72768,-18.17607 25.44074,25.75069 m -2.76354,-2.8194 63.28693,-7.57461 m -63.28693,7.57461 3.16638,-0.37896 m -3.16638,0.37896 v 0 l 3.00582,0.06848 -0.10106,-0.84436 -2.90476,0.77588 m 63.28693,-7.57461 -3.16638,0.37896 m 3.16638,-0.37896 v 0 l -2.90476,0.77589 -0.10104,-0.84436 3.0058,0.06847 M 10.97557,46.37288 42.79004,78.59999"
       style="fill:none;stroke:#000000;stroke-width:0.3685;stroke-linecap:round;stroke-linejoin:round;stroke-miterlimit:10;stroke-dasharray:none;stroke-opacity:1"
       transform="matrix(1.3333333,0,0,-1.3333333,0,415.748)" />
    <text
       id="text38"
       xml:space="preserve"
       transform="matrix(1.3333333,0,0,1.3333333,66.247013,85.956187)"
       clip-path="url(#clipPath39)"><tspan
         style="font-style:italic;font-variant:normal;font-weight:normal;font-stretch:normal;font-size:10.0071px;font-family:'Palatino Linotype';writing-mode:lr-tb;fill:#000000;fill-opacity:1;fill-rule:nonzero;stroke:none"
         x="0"
         y="0"
         id="tspan38">m</tspan></text>
    <text
       id="text39"
       xml:space="preserve"
       transform="matrix(1.3333333,0,0,1.3333333,78.362947,91.468013)"
       clip-path="url(#clipPath40)"><tspan
         style="font-style:italic;font-variant:normal;font-weight:normal;font-stretch:normal;font-size:6.00428px;font-family:'Palatino Linotype';writing-mode:lr-tb;fill:#000000;fill-opacity:1;fill-rule:nonzero;stroke:none"
         x="0 3.00214"
         y="0"
         sodipodi:role="line"
         id="tspan39">xx</tspan></text>
    <text
       id="text40"
       xml:space="preserve"
       transform="matrix(1.3333333,0,0,1.3333333,95.642773,54.79164)"
       clip-path="url(#clipPath41)"><tspan
         style="font-style:italic;font-variant:normal;font-weight:normal;font-stretch:normal;font-size:10.0071px;font-family:'Palatino Linotype';writing-mode:lr-tb;fill:#000000;fill-opacity:1;fill-rule:nonzero;stroke:none"
         x="0"
         y="0"
         id="tspan40">z</tspan></text>
    <text
       id="text41"
       xml:space="preserve"
       transform="matrix(1.3333333,0,0,1.3333333,118.55021,20.4126)"
       clip-path="url(#clipPath42)"><tspan
         style="font-style:italic;font-variant:normal;font-weight:normal;font-stretch:normal;font-size:10.0071px;font-family:'Palatino Linotype';writing-mode:lr-tb;fill:#000000;fill-opacity:1;fill-rule:nonzero;stroke:none"
         x="0"
         y="0"
         id="tspan41">x</tspan></text>
    <text
       id="text42"
       xml:space="preserve"
       transform="matrix(1.3333333,0,0,1.3333333,64.741333,35.638867)"
       clip-path="url(#clipPath43)"><tspan
         style="font-style:italic;font-variant:normal;font-weight:normal;font-stretch:normal;font-size:10.0071px;font-family:'Palatino Linotype';writing-mode:lr-tb;fill:#000000;fill-opacity:1;fill-rule:nonzero;stroke:none"
         x="0"
         y="0"
         id="tspan42">y</tspan></text>
    <text
       id="text43"
       xml:space="preserve"
       transform="matrix(1.3333333,0,0,1.3333333,189.85459,115.05837)"
       clip-path="url(#clipPath44)"><tspan
         style="font-style:italic;font-variant:normal;font-weight:normal;font-stretch:normal;font-size:10.0071px;font-family:'Palatino Linotype';writing-mode:lr-tb;fill:#000000;fill-opacity:1;fill-rule:nonzero;stroke:none"
         x="0"
         y="0"
         id="tspan43">m</tspan></text>
    <text
       id="text44"
       xml:space="preserve"
       transform="matrix(1.3333333,0,0,1.3333333,201.97052,120.57016)"
       clip-path="url(#clipPath45)"><tspan
         style="font-style:italic;font-variant:normal;font-weight:normal;font-stretch:normal;font-size:6.00428px;font-family:'Palatino Linotype';writing-mode:lr-tb;fill:#000000;fill-opacity:1;fill-rule:nonzero;stroke:none"
         x="0 3.00214"
         y="0"
         sodipodi:role="line"
         id="tspan44">xx</tspan></text>
    <text
       id="text45"
       xml:space="preserve"
       transform="matrix(1.3333333,0,0,1.3333333,103.90385,264.8838)"
       clip-path="url(#clipPath46)"><tspan
         style="font-style:italic;font-variant:normal;font-weight:normal;font-stretch:normal;font-size:10.0071px;font-family:'Palatino Linotype';writing-mode:lr-tb;fill:#000000;fill-opacity:1;fill-rule:nonzero;stroke:none"
         x="0"
         y="0"
         id="tspan45">m</tspan></text>
    <text
       id="text46"
       xml:space="preserve"
       transform="matrix(1.3333333,0,0,1.3333333,116.01979,270.3956)"
       clip-path="url(#clipPath47)"><tspan
         style="font-style:italic;font-variant:normal;font-weight:normal;font-stretch:normal;font-size:6.00428px;font-family:'Palatino Linotype';writing-mode:lr-tb;fill:#000000;fill-opacity:1;fill-rule:nonzero;stroke:none"
         x="0 3.00214"
         y="0"
         sodipodi:role="line"
         id="tspan46">yy</tspan></text>
    <text
       id="text47"
       xml:space="preserve"
       transform="matrix(1.3333333,0,0,1.3333333,68.421147,330.64456)"
       clip-path="url(#clipPath48)"><tspan
         style="font-style:italic;font-variant:normal;font-weight:normal;font-stretch:normal;font-size:10.0071px;font-family:'Palatino Linotype';writing-mode:lr-tb;fill:#000000;fill-opacity:1;fill-rule:nonzero;stroke:none"
         x="0"
         y="0"
         id="tspan47">m</tspan></text>
    <text
       id="text48"
       xml:space="preserve"
       transform="matrix(1.3333333,0,0,1.3333333,80.537067,336.15637)"
       clip-path="url(#clipPath49)"><tspan
         style="font-style:italic;font-variant:normal;font-weight:normal;font-stretch:normal;font-size:6.00428px;font-family:'Palatino Linotype';writing-mode:lr-tb;fill:#000000;fill-opacity:1;fill-rule:nonzero;stroke:none"
         x="0 3.00214"
         y="0"
         sodipodi:role="line"
         id="tspan48">xy</tspan></text>
    <text
       id="text49"
       xml:space="preserve"
       transform="matrix(1.3333333,0,0,1.3333333,186.40407,365.78583)"
       clip-path="url(#clipPath50)"><tspan
         style="font-style:italic;font-variant:normal;font-weight:normal;font-stretch:normal;font-size:10.0071px;font-family:'Palatino Linotype';writing-mode:lr-tb;fill:#000000;fill-opacity:1;fill-rule:nonzero;stroke:none"
         x="0"
         y="0"
         id="tspan49">m</tspan></text>
    <text
       id="text50"
       xml:space="preserve"
       transform="matrix(1.3333333,0,0,1.3333333,198.52,371.29764)"
       clip-path="url(#clipPath51)"><tspan
         style="font-style:italic;font-variant:normal;font-weight:normal;font-stretch:normal;font-size:6.00428px;font-family:'Palatino Linotype';writing-mode:lr-tb;fill:#000000;fill-opacity:1;fill-rule:nonzero;stroke:none"
         x="0 3.00214"
         y="0"
         sodipodi:role="line"
         id="tspan50">xy</tspan></text>
    <text
       id="text51"
       xml:space="preserve"
       transform="matrix(1.3333333,0,0,1.3333333,147.11976,307.53989)"
       clip-path="url(#clipPath52)"><tspan
         style="font-style:italic;font-variant:normal;font-weight:normal;font-stretch:normal;font-size:10.0071px;font-family:'Palatino Linotype';writing-mode:lr-tb;fill:#000000;fill-opacity:1;fill-rule:nonzero;stroke:none"
         x="0"
         y="0"
         id="tspan51">m</tspan></text>
    <text
       id="text52"
       xml:space="preserve"
       transform="matrix(1.3333333,0,0,1.3333333,159.23569,313.05171)"
       clip-path="url(#clipPath53)"><tspan
         style="font-style:italic;font-variant:normal;font-weight:normal;font-stretch:normal;font-size:6.00428px;font-family:'Palatino Linotype';writing-mode:lr-tb;fill:#000000;fill-opacity:1;fill-rule:nonzero;stroke:none"
         x="0 3.00214"
         y="0"
         sodipodi:role="line"
         id="tspan52">yx</tspan></text>
    <text
       id="text53"
       xml:space="preserve"
       transform="matrix(1.3333333,0,0,1.3333333,155.10411,192.22632)"
       clip-path="url(#clipPath54)"><tspan
         style="font-style:italic;font-variant:normal;font-weight:normal;font-stretch:normal;font-size:10.0071px;font-family:'Palatino Linotype';writing-mode:lr-tb;fill:#000000;fill-opacity:1;fill-rule:nonzero;stroke:none"
         x="0"
         y="0"
         id="tspan53">m</tspan></text>
    <text
       id="text54"
       xml:space="preserve"
       transform="matrix(1.3333333,0,0,1.3333333,167.22003,197.73813)"
       clip-path="url(#clipPath55)"><tspan
         style="font-style:italic;font-variant:normal;font-weight:normal;font-stretch:normal;font-size:6.00428px;font-family:'Palatino Linotype';writing-mode:lr-tb;fill:#000000;fill-opacity:1;fill-rule:nonzero;stroke:none"
         x="0 3.00214"
         y="0"
         sodipodi:role="line"
         id="tspan54">yy</tspan></text>
    <text
       id="text55"
       xml:space="preserve"
       transform="matrix(1.3333333,0,0,1.3333333,109.21039,391.72029)"
       clip-path="url(#clipPath56)"><tspan
         style="font-style:italic;font-variant:normal;font-weight:normal;font-stretch:normal;font-size:10.0071px;font-family:'Palatino Linotype';writing-mode:lr-tb;fill:#000000;fill-opacity:1;fill-rule:nonzero;stroke:none"
         x="0"
         y="0"
         id="tspan55">m</tspan></text>
    <text
       id="text56"
       xml:space="preserve"
       transform="matrix(1.3333333,0,0,1.3333333,121.32632,397.23211)"
       clip-path="url(#clipPath57)"><tspan
         style="font-style:italic;font-variant:normal;font-weight:normal;font-stretch:normal;font-size:6.00428px;font-family:'Palatino Linotype';writing-mode:lr-tb;fill:#000000;fill-opacity:1;fill-rule:nonzero;stroke:none"
         x="0 3.00214 6.0042801"
         y="0"
         sodipodi:role="line"
         id="tspan56">yx </tspan></text>
    <text
       id="text57"
       xml:space="preserve"
       transform="matrix(1.3333333,0,0,1.3333333,132.21457,391.72029)"
       clip-path="url(#clipPath58)"><tspan
         style="font-style:italic;font-variant:normal;font-weight:normal;font-stretch:normal;font-size:10.0071px;font-family:'Palatino Linotype';writing-mode:lr-tb;fill:#000000;fill-opacity:1;fill-rule:nonzero;stroke:none"
         x="0 5.0035648 7.5053477"
         y="0"
         sodipodi:role="line"
         id="tspan57">= m</tspan></text>
    <text
       id="text58"
       xml:space="preserve"
       transform="matrix(1.3333333,0,0,1.3333333,154.62369,397.23211)"
       clip-path="url(#clipPath59)"><tspan
         style="font-style:italic;font-variant:normal;font-weight:normal;font-stretch:normal;font-size:6.00428px;font-family:'Palatino Linotype';writing-mode:lr-tb;fill:#000000;fill-opacity:1;fill-rule:nonzero;stroke:none"
         x="0 3.00214"
         y="0"
         sodipodi:role="line"
         id="tspan58">xy</tspan></text>
    <text
       id="text59"
       xml:space="preserve"
       transform="matrix(1.3333333,0,0,1.3333333,473.35065,178.80983)"
       clip-path="url(#clipPath60)"><tspan
         style="font-style:italic;font-variant:normal;font-weight:normal;font-stretch:normal;font-size:10.0071px;font-family:'Palatino Linotype';writing-mode:lr-tb;fill:#000000;fill-opacity:1;fill-rule:nonzero;stroke:none"
         x="0"
         y="0"
         id="tspan59"></tspan></text>
    <text
       id="text60"
       xml:space="preserve"
       transform="matrix(1.3333333,0,0,1.3333333,481.26487,184.32165)"
       clip-path="url(#clipPath61)"><tspan
         style="font-style:italic;font-variant:normal;font-weight:normal;font-stretch:normal;font-size:6.00428px;font-family:'Palatino Linotype';writing-mode:lr-tb;fill:#000000;fill-opacity:1;fill-rule:nonzero;stroke:none"
         x="0 3.00214"
         y="0"
         sodipodi:role="line"
         id="tspan60">yy</tspan></text>
    <text
       id="text61"
       xml:space="preserve"
       transform="matrix(1.3333333,0,0,1.3333333,459.92968,45.872307)"
       clip-path="url(#clipPath62)"><tspan
         style="font-style:italic;font-variant:normal;font-weight:normal;font-stretch:normal;font-size:10.0071px;font-family:'Palatino Linotype';writing-mode:lr-tb;fill:#000000;fill-opacity:1;fill-rule:nonzero;stroke:none"
         x="0"
         y="0"
         id="tspan61"></tspan></text>
    <text
       id="text62"
       xml:space="preserve"
       transform="matrix(1.3333333,0,0,1.3333333,467.84391,51.384093)"
       clip-path="url(#clipPath63)"><tspan
         style="font-style:italic;font-variant:normal;font-weight:normal;font-stretch:normal;font-size:6.00428px;font-family:'Palatino Linotype';writing-mode:lr-tb;fill:#000000;fill-opacity:1;fill-rule:nonzero;stroke:none"
         x="0 3.00214"
         y="0"
         sodipodi:role="line"
         id="tspan62">xx</tspan></text>
    <text
       id="text63"
       xml:space="preserve"
       transform="matrix(1.3333333,0,0,1.3333333,455.42064,269.4396)"
       clip-path="url(#clipPath64)"><tspan
         style="font-style:italic;font-variant:normal;font-weight:normal;font-stretch:normal;font-size:10.0071px;font-family:'Palatino Linotype';writing-mode:lr-tb;fill:#000000;fill-opacity:1;fill-rule:nonzero;stroke:none"
         x="0 4.9835505 7.4853334"
         y="0"
         sodipodi:role="line"
         id="tspan63"> </tspan></text>
    <text
       id="text64"
       xml:space="preserve"
       transform="matrix(1.3333333,0,0,1.3333333,474.49251,274.9514)"
       clip-path="url(#clipPath65)"><tspan
         style="font-style:italic;font-variant:normal;font-weight:normal;font-stretch:normal;font-size:6.00428px;font-family:'Palatino Linotype';writing-mode:lr-tb;fill:#000000;fill-opacity:1;fill-rule:nonzero;stroke:none"
         x="0 3.00214"
         y="0"
         sodipodi:role="line"
         id="tspan64">yy</tspan></text>
    <text
       id="text65"
       xml:space="preserve"
       transform="matrix(1.3333333,0,0,1.3333333,307.07004,179.88503)"
       clip-path="url(#clipPath66)"><tspan
         style="font-style:italic;font-variant:normal;font-weight:normal;font-stretch:normal;font-size:10.0071px;font-family:'Palatino Linotype';writing-mode:lr-tb;fill:#000000;fill-opacity:1;fill-rule:nonzero;stroke:none"
         x="0"
         y="0"
         id="tspan65"></tspan></text>
    <text
       id="text66"
       xml:space="preserve"
       transform="matrix(1.3333333,0,0,1.3333333,314.98425,185.39685)"
       clip-path="url(#clipPath67)"><tspan
         style="font-style:italic;font-variant:normal;font-weight:normal;font-stretch:normal;font-size:6.00428px;font-family:'Palatino Linotype';writing-mode:lr-tb;fill:#000000;fill-opacity:1;fill-rule:nonzero;stroke:none"
         x="0 3.00214"
         y="0"
         sodipodi:role="line"
         id="tspan66">yy</tspan></text>
    <text
       id="text67"
       xml:space="preserve"
       transform="matrix(1.3333333,0,0,1.3333333,303.62555,48.30904)"
       clip-path="url(#clipPath68)"><tspan
         style="font-style:italic;font-variant:normal;font-weight:normal;font-stretch:normal;font-size:10.0071px;font-family:'Palatino Linotype';writing-mode:lr-tb;fill:#000000;fill-opacity:1;fill-rule:nonzero;stroke:none"
         x="0"
         y="0"
         id="tspan67"></tspan></text>
    <text
       id="text68"
       xml:space="preserve"
       transform="matrix(1.3333333,0,0,1.3333333,311.53977,53.820867)"
       clip-path="url(#clipPath69)"><tspan
         style="font-style:italic;font-variant:normal;font-weight:normal;font-stretch:normal;font-size:6.00428px;font-family:'Palatino Linotype';writing-mode:lr-tb;fill:#000000;fill-opacity:1;fill-rule:nonzero;stroke:none"
         x="0 3.00214"
         y="0"
         sodipodi:role="line"
         id="tspan68">xx</tspan></text>
    <text
       id="text69"
       xml:space="preserve"
       transform="matrix(1.3333333,0,0,1.3333333,26.198107,79.125)"
       clip-path="url(#clipPath70)"><tspan
         style="font-style:italic;font-variant:normal;font-weight:normal;font-stretch:normal;font-size:10.0071px;font-family:'Palatino Linotype';writing-mode:lr-tb;fill:#000000;fill-opacity:1;fill-rule:nonzero;stroke:none"
         x="0"
         y="0"
         id="tspan69">1</tspan></text>
    <text
       id="text70"
       xml:space="preserve"
       transform="matrix(1.3333333,0,0,1.3333333,189.4352,33.720147)"
       clip-path="url(#clipPath71)"><tspan
         style="font-style:italic;font-variant:normal;font-weight:normal;font-stretch:normal;font-size:10.0071px;font-family:'Palatino Linotype';writing-mode:lr-tb;fill:#000000;fill-opacity:1;fill-rule:nonzero;stroke:none"
         x="0"
         y="0"
         id="tspan70">1</tspan></text>
    <text
       id="text71"
       xml:space="preserve"
       transform="matrix(1.3333333,0,0,1.3333333,26.226133,208.2174)"
       clip-path="url(#clipPath72)"><tspan
         style="font-style:italic;font-variant:normal;font-weight:normal;font-stretch:normal;font-size:10.0071px;font-family:'Palatino Linotype';writing-mode:lr-tb;fill:#000000;fill-opacity:1;fill-rule:nonzero;stroke:none"
         x="0"
         y="0"
         id="tspan71">1</tspan></text>
    <text
       id="text72"
       xml:space="preserve"
       transform="matrix(1.3333333,0,0,1.3333333,189.46323,162.81256)"
       clip-path="url(#clipPath73)"><tspan
         style="font-style:italic;font-variant:normal;font-weight:normal;font-stretch:normal;font-size:10.0071px;font-family:'Palatino Linotype';writing-mode:lr-tb;fill:#000000;fill-opacity:1;fill-rule:nonzero;stroke:none"
         x="0"
         y="0"
         id="tspan72">1</tspan></text>
    <text
       id="text73"
       xml:space="preserve"
       transform="matrix(1.3333333,0,0,1.3333333,189.46323,284.32437)"
       clip-path="url(#clipPath74)"><tspan
         style="font-style:italic;font-variant:normal;font-weight:normal;font-stretch:normal;font-size:10.0071px;font-family:'Palatino Linotype';writing-mode:lr-tb;fill:#000000;fill-opacity:1;fill-rule:nonzero;stroke:none"
         x="0"
         y="0"
         id="tspan73">1</tspan></text>
    <text
       id="text74"
       xml:space="preserve"
       transform="matrix(1.3333333,0,0,1.3333333,26.226133,329.7292)"
       clip-path="url(#clipPath75)"><tspan
         style="font-style:italic;font-variant:normal;font-weight:normal;font-stretch:normal;font-size:10.0071px;font-family:'Palatino Linotype';writing-mode:lr-tb;fill:#000000;fill-opacity:1;fill-rule:nonzero;stroke:none"
         x="0"
         y="0"
         id="tspan74">1</tspan></text>
    <text
       id="text75"
       xml:space="preserve"
       transform="matrix(1.3333333,0,0,1.3333333,260.42532,27.936213)"
       clip-path="url(#clipPath76)"><tspan
         style="font-style:italic;font-variant:normal;font-weight:normal;font-stretch:normal;font-size:10.0071px;font-family:'Palatino Linotype';writing-mode:lr-tb;fill:#000000;fill-opacity:1;fill-rule:nonzero;stroke:none"
         x="0 4.4431658"
         y="0"
         sodipodi:role="line"
         id="tspan75">a)</tspan></text>
    <text
       id="text76"
       xml:space="preserve"
       transform="matrix(1.3333333,0,0,1.3333333,422.44107,27.936213)"
       clip-path="url(#clipPath77)"><tspan
         style="font-style:italic;font-variant:normal;font-weight:normal;font-stretch:normal;font-size:10.0071px;font-family:'Palatino Linotype';writing-mode:lr-tb;fill:#000000;fill-opacity:1;fill-rule:nonzero;stroke:none"
         x="0 4.6333013"
         y="0"
         sodipodi:role="line"
         id="tspan76">b)</tspan></text>
    <text
       id="text77"
       xml:space="preserve"
       transform="matrix(1.3333333,0,0,1.3333333,413.5046,144.51389)"
       clip-path="url(#clipPath78)"><tspan
         style="font-style:italic;font-variant:normal;font-weight:normal;font-stretch:normal;font-size:10.0071px;font-family:'Palatino Linotype';writing-mode:lr-tb;fill:#000000;fill-opacity:1;fill-rule:nonzero;stroke:none"
         x="0 4.9835505 7.4853334"
         y="0"
         sodipodi:role="line"
         id="tspan77"> </tspan></text>
    <text
       id="text78"
       xml:space="preserve"
       transform="matrix(1.3333333,0,0,1.3333333,432.57647,150.02572)"
       clip-path="url(#clipPath79)"><tspan
         style="font-style:italic;font-variant:normal;font-weight:normal;font-stretch:normal;font-size:6.00428px;font-family:'Palatino Linotype';writing-mode:lr-tb;fill:#000000;fill-opacity:1;fill-rule:nonzero;stroke:none"
         x="0 3.00214"
         y="0"
         sodipodi:role="line"
         id="tspan78">xx</tspan></text>
    <text
       id="text79"
       xml:space="preserve"
       transform="matrix(1.3333333,0,0,1.3333333,351.02045,373.19829)"
       clip-path="url(#clipPath80)"><tspan
         style="font-style:italic;font-variant:normal;font-weight:normal;font-stretch:normal;font-size:10.0071px;font-family:'Palatino Linotype';writing-mode:lr-tb;fill:#000000;fill-opacity:1;fill-rule:nonzero;stroke:none"
         x="0"
         y="0"
         id="tspan79"></tspan></text>
    <text
       id="text80"
       xml:space="preserve"
       transform="matrix(1.3333333,0,0,1.3333333,358.93467,378.71011)"
       clip-path="url(#clipPath81)"><tspan
         style="font-style:italic;font-variant:normal;font-weight:normal;font-stretch:normal;font-size:6.00428px;font-family:'Palatino Linotype';writing-mode:lr-tb;fill:#000000;fill-opacity:1;fill-rule:nonzero;stroke:none"
         x="0 3.00214"
         y="0"
         sodipodi:role="line"
         id="tspan80">xy</tspan></text>
    <text
       id="text81"
       xml:space="preserve"
       transform="matrix(1.3333333,0,0,1.3333333,357.31965,390.61561)"
       clip-path="url(#clipPath82)"><tspan
         style="font-style:italic;font-variant:normal;font-weight:normal;font-stretch:normal;font-size:6.00428px;font-family:'Palatino Linotype';writing-mode:lr-tb;fill:#000000;fill-opacity:1;fill-rule:nonzero;stroke:none"
         x="0"
         y="0"
         id="tspan81">4</tspan></text>
    <text
       id="text82"
       xml:space="preserve"
       transform="matrix(1.3333333,0,0,1.3333333,380.05233,327.24412)"
       clip-path="url(#clipPath83)"><tspan
         style="font-style:italic;font-variant:normal;font-weight:normal;font-stretch:normal;font-size:10.0071px;font-family:'Palatino Linotype';writing-mode:lr-tb;fill:#000000;fill-opacity:1;fill-rule:nonzero;stroke:none"
         x="0"
         y="0"
         id="tspan82"></tspan></text>
    <text
       id="text83"
       xml:space="preserve"
       transform="matrix(1.3333333,0,0,1.3333333,387.96655,332.75593)"
       clip-path="url(#clipPath84)"><tspan
         style="font-style:italic;font-variant:normal;font-weight:normal;font-stretch:normal;font-size:6.00428px;font-family:'Palatino Linotype';writing-mode:lr-tb;fill:#000000;fill-opacity:1;fill-rule:nonzero;stroke:none"
         x="0 3.00214"
         y="0"
         sodipodi:role="line"
         id="tspan83">xy</tspan></text>
    <text
       id="text84"
       xml:space="preserve"
       transform="matrix(1.3333333,0,0,1.3333333,386.35153,344.66145)"
       clip-path="url(#clipPath85)"><tspan
         style="font-style:italic;font-variant:normal;font-weight:normal;font-stretch:normal;font-size:6.00428px;font-family:'Palatino Linotype';writing-mode:lr-tb;fill:#000000;fill-opacity:1;fill-rule:nonzero;stroke:none"
         x="0"
         y="0"
         id="tspan84">4</tspan></text>
    <text
       id="text85"
       xml:space="preserve"
       transform="matrix(1.3333333,0,0,1.3333333,515.43803,373.19829)"
       clip-path="url(#clipPath86)"><tspan
         style="font-style:italic;font-variant:normal;font-weight:normal;font-stretch:normal;font-size:10.0071px;font-family:'Palatino Linotype';writing-mode:lr-tb;fill:#000000;fill-opacity:1;fill-rule:nonzero;stroke:none"
         x="0"
         y="0"
         id="tspan85"></tspan></text>
    <text
       id="text86"
       xml:space="preserve"
       transform="matrix(1.3333333,0,0,1.3333333,523.35228,378.71011)"
       clip-path="url(#clipPath87)"><tspan
         style="font-style:italic;font-variant:normal;font-weight:normal;font-stretch:normal;font-size:6.00428px;font-family:'Palatino Linotype';writing-mode:lr-tb;fill:#000000;fill-opacity:1;fill-rule:nonzero;stroke:none"
         x="0 3.00214"
         y="0"
         sodipodi:role="line"
         id="tspan86">xy</tspan></text>
    <text
       id="text87"
       xml:space="preserve"
       transform="matrix(1.3333333,0,0,1.3333333,521.73727,390.61561)"
       clip-path="url(#clipPath88)"><tspan
         style="font-style:italic;font-variant:normal;font-weight:normal;font-stretch:normal;font-size:6.00428px;font-family:'Palatino Linotype';writing-mode:lr-tb;fill:#000000;fill-opacity:1;fill-rule:nonzero;stroke:none"
         x="0"
         y="0"
         id="tspan87">4</tspan></text>
    <text
       id="text88"
       xml:space="preserve"
       transform="matrix(1.3333333,0,0,1.3333333,544.46991,327.24412)"
       clip-path="url(#clipPath89)"><tspan
         style="font-style:italic;font-variant:normal;font-weight:normal;font-stretch:normal;font-size:10.0071px;font-family:'Palatino Linotype';writing-mode:lr-tb;fill:#000000;fill-opacity:1;fill-rule:nonzero;stroke:none"
         x="0"
         y="0"
         id="tspan88"></tspan></text>
    <text
       id="text89"
       xml:space="preserve"
       transform="matrix(1.3333333,0,0,1.3333333,552.38416,332.75593)"
       clip-path="url(#clipPath90)"><tspan
         style="font-style:italic;font-variant:normal;font-weight:normal;font-stretch:normal;font-size:6.00428px;font-family:'Palatino Linotype';writing-mode:lr-tb;fill:#000000;fill-opacity:1;fill-rule:nonzero;stroke:none"
         x="0 3.00214"
         y="0"
         sodipodi:role="line"
         id="tspan89">xy</tspan></text>
    <text
       id="text90"
       xml:space="preserve"
       transform="matrix(1.3333333,0,0,1.3333333,550.76913,344.66145)"
       clip-path="url(#clipPath91)"><tspan
         style="font-style:italic;font-variant:normal;font-weight:normal;font-stretch:normal;font-size:6.00428px;font-family:'Palatino Linotype';writing-mode:lr-tb;fill:#000000;fill-opacity:1;fill-rule:nonzero;stroke:none"
         x="0"
         y="0"
         id="tspan90">4</tspan></text>
    <path
       id="path92"
       d="m 39.51904,266.94211 39.86188,-4.77094 m -68.42636,-27.84512 31.81445,32.22708 m -31.81445,-32.22708 2.24037,2.26941 m -2.24037,-2.26941 v 0 l 1.78842,2.41684 0.60518,-0.59744 -2.3936,-1.8194 m 31.81445,32.22708 -2.24037,-2.26941 m 2.24037,2.26941 v 0 l -2.3936,-1.8194 0.60518,-0.59744 1.78842,2.41684 m -35.06444,-31.8381 39.8619,-4.77097 m 21.55357,65.61844 v -22.17688 m 0,5.95276 v 0.4252 m 0,-6.37796 v 0 l 0.85039,5.95276 h -1.70078 l 0.85039,-5.95276"
       style="fill:none;stroke:#000000;stroke-width:0.3685;stroke-linecap:round;stroke-linejoin:round;stroke-miterlimit:10;stroke-dasharray:none;stroke-opacity:1"
       transform="matrix(1.3333333,0,0,-1.3333333,0,415.748)" />
    <path
       id="path93"
       d="m 68.26965,279.33838 0.85039,-5.95276 0.85039,5.95276 z"
       style="fill:#000000;fill-opacity:1;fill-rule:nonzero;stroke:none"
       transform="matrix(1.3333333,0,0,-1.3333333,0,415.748)" />
    <path
       id="path94"
       d="m 69.12004,295.5625 19.20574,-2.29868 m -5.91057,0.70743 -0.4222,0.0505 m 6.33277,-0.75794 v 0 l -5.80951,1.55179 -0.20212,-1.68872 6.01163,0.13693"
       style="fill:none;stroke:#000000;stroke-width:0.3685;stroke-linecap:round;stroke-linejoin:round;stroke-miterlimit:10;stroke-dasharray:none;stroke-opacity:1"
       transform="matrix(1.3333333,0,0,-1.3333333,0,415.748)" />
    <path
       id="path95"
       d="m 82.31415,293.12689 6.01163,0.13693 -5.80951,1.55179 z"
       style="fill:#000000;fill-opacity:1;fill-rule:nonzero;stroke:none"
       transform="matrix(1.3333333,0,0,-1.3333333,0,415.748)" />
    <path
       id="path96"
       d="M 69.12004,295.5625 52.96216,279.19504 m 4.18202,4.23626 0.29871,0.30259 m -4.48073,-4.53885 v 0 l 4.7872,3.63882 -1.21036,1.19486 -3.57684,-4.83368"
       style="fill:none;stroke:#000000;stroke-width:0.3685;stroke-linecap:round;stroke-linejoin:round;stroke-miterlimit:10;stroke-dasharray:none;stroke-opacity:1"
       transform="matrix(1.3333333,0,0,-1.3333333,0,415.748)" />
    <path
       id="path97"
       d="m 56.539,284.02872 -3.57684,-4.83368 4.7872,3.63882 z"
       style="fill:#000000;fill-opacity:1;fill-rule:nonzero;stroke:none"
       transform="matrix(1.3333333,0,0,-1.3333333,0,415.748)" />
    <path
       id="path98"
       d="m 129.63928,229.59177 10.97708,11.09478 m -4.18673,-4.23162 -0.29905,-0.30225 m 4.48578,4.53387 v 0 l -4.79126,-3.63351 1.20905,-1.19623 3.58221,4.82974"
       style="fill:none;stroke:#000000;stroke-width:0.3685;stroke-linecap:round;stroke-linejoin:round;stroke-miterlimit:10;stroke-dasharray:none;stroke-opacity:1"
       transform="matrix(1.3333333,0,0,-1.3333333,0,415.748)" />
    <path
       id="path99"
       d="m 137.03415,235.85681 3.58221,4.82974 -4.79126,-3.63351 z"
       style="fill:#000000;fill-opacity:1;fill-rule:nonzero;stroke:none"
       transform="matrix(1.3333333,0,0,-1.3333333,0,415.748)" />
    <path
       id="path100"
       d="m 129.4924,229.44299 6.99326,7.05927 m -4.18943,-4.22894 -0.29922,-0.30207 m 4.48865,4.53101 v 0 l -4.79355,-3.63046 1.20828,-1.19696 3.58527,4.82742"
       style="fill:none;stroke:#000000;stroke-width:0.3685;stroke-linecap:round;stroke-linejoin:round;stroke-miterlimit:10;stroke-dasharray:none;stroke-opacity:1"
       transform="matrix(1.3333333,0,0,-1.3333333,0,415.748)" />
    <path
       id="path101"
       d="m 132.90039,231.67484 3.58527,4.82742 -4.79355,-3.63046 z"
       style="fill:#000000;fill-opacity:1;fill-rule:nonzero;stroke:none"
       transform="matrix(1.3333333,0,0,-1.3333333,0,415.748)" />
    <path
       id="path102"
       d="m 39.54005,170.12283 39.8619,-4.77096 m -68.42638,-27.84513 31.81447,32.22712 m -31.81447,-32.22712 2.24037,2.26941 m -2.24037,-2.26941 v 0 l 1.78842,2.41684 0.60518,-0.59741 -2.3936,-1.81943 m 31.81447,32.22712 -2.24037,-2.26944 m 2.24037,2.26944 v 0 l -2.39362,-1.81943 0.60518,-0.59744 1.78844,2.41687 M 7.7256,137.89572 47.58748,133.12479 m 0.7074,-76.74442 19.38937,-2.32065 m -13.47879,1.61324 0.42218,-0.05052 m -6.33276,0.75793 v 0 l 6.01164,0.13696 -0.20212,-1.68873 -5.80952,1.55177"
       style="fill:none;stroke:#000000;stroke-width:0.3685;stroke-linecap:round;stroke-linejoin:round;stroke-miterlimit:10;stroke-dasharray:none;stroke-opacity:1"
       transform="matrix(1.3333333,0,0,-1.3333333,0,415.748)" />
    <path
       id="path103"
       d="m 54.1044,54.8286 0.20212,1.68873 -6.01164,-0.13696 z"
       style="fill:#000000;fill-opacity:1;fill-rule:nonzero;stroke:none"
       transform="matrix(1.3333333,0,0,-1.3333333,0,415.748)" />
    <path
       id="path104"
       d="m 53.6496,55.73949 14.03465,-1.67977 m -8.12407,0.97235 0.42218,-0.05053 m -6.33276,0.75795 v 0 l 6.01164,0.13694 -0.20212,-1.68872 -5.80952,1.55178"
       style="fill:none;stroke:#000000;stroke-width:0.3685;stroke-linecap:round;stroke-linejoin:round;stroke-miterlimit:10;stroke-dasharray:none;stroke-opacity:1"
       transform="matrix(1.3333333,0,0,-1.3333333,0,415.748)" />
    <path
       id="path105"
       d="m 59.45912,54.18771 0.20212,1.68872 -6.01164,-0.13694 z"
       style="fill:#000000;fill-opacity:1;fill-rule:nonzero;stroke:none"
       transform="matrix(1.3333333,0,0,-1.3333333,0,415.748)" />
    <path
       id="path106"
       d="m 134.09949,46.11069 25.64599,-3.06949 m -5.91058,0.70743 -0.42218,0.05052 m 6.33276,-0.75795 v 0 l -5.80951,1.55179 -0.20211,-1.68872 6.01162,0.13693"
       style="fill:none;stroke:#000000;stroke-width:0.3685;stroke-linecap:round;stroke-linejoin:round;stroke-miterlimit:10;stroke-dasharray:none;stroke-opacity:1"
       transform="matrix(1.3333333,0,0,-1.3333333,0,415.748)" />
    <path
       id="path107"
       d="m 153.73386,42.90427 6.01162,0.13693 -5.80951,1.55179 z"
       style="fill:#000000;fill-opacity:1;fill-rule:nonzero;stroke:none"
       transform="matrix(1.3333333,0,0,-1.3333333,0,415.748)" />
    <path
       id="path108"
       d="m 139.45422,45.4698 14.38504,-1.72171 m -5.91055,0.70743 -0.42218,0.05052 m 6.33273,-0.75795 v 0 l -5.80951,1.55179 -0.20211,-1.68872 6.01162,0.13693"
       style="fill:none;stroke:#000000;stroke-width:0.3685;stroke-linecap:round;stroke-linejoin:round;stroke-miterlimit:10;stroke-dasharray:none;stroke-opacity:1"
       transform="matrix(1.3333333,0,0,-1.3333333,0,415.748)" />
    <path
       id="path109"
       d="m 147.82764,43.61116 6.01162,0.13693 -5.80951,1.55179 z"
       style="fill:#000000;fill-opacity:1;fill-rule:nonzero;stroke:none"
       transform="matrix(1.3333333,0,0,-1.3333333,0,415.748)" />
    <path
       id="path110"
       d="m 133.38077,81.22385 -11.88921,-12.0434 m 7.70717,7.80713 -0.29871,-0.3026 m 4.48075,4.53887 v 0 l -3.57685,-4.8337 -1.21035,1.19486 4.7872,3.63884"
       style="fill:none;stroke:#000000;stroke-width:0.3685;stroke-linecap:round;stroke-linejoin:round;stroke-miterlimit:10;stroke-dasharray:none;stroke-opacity:1"
       transform="matrix(1.3333333,0,0,-1.3333333,0,415.748)" />
    <path
       id="path111"
       d="m 128.59357,77.58501 1.21035,-1.19486 3.57685,4.8337 z"
       style="fill:#000000;fill-opacity:1;fill-rule:nonzero;stroke:none"
       transform="matrix(1.3333333,0,0,-1.3333333,0,415.748)" />
    <path
       id="path112"
       d="M 129.59204,77.38597 125.6705,73.41359 M 125.41,73.1497 125.11128,72.84711 m 4.48076,4.53886 v 0 l -3.57686,-4.83369 -1.21036,1.19485 4.78722,3.63884"
       style="fill:none;stroke:#000000;stroke-width:0.3685;stroke-linecap:round;stroke-linejoin:round;stroke-miterlimit:10;stroke-dasharray:none;stroke-opacity:1"
       transform="matrix(1.3333333,0,0,-1.3333333,0,415.748)" />
    <path
       id="path113"
       d="m 124.80482,73.74713 1.21036,-1.19485 3.57686,4.83369 z"
       style="fill:#000000;fill-opacity:1;fill-rule:nonzero;stroke:none"
       transform="matrix(1.3333333,0,0,-1.3333333,0,415.748)" />
    <path
       id="path114"
       d="M 86.5488,33.78444 68.40298,15.40326 m 4.18203,4.23627 0.2987,0.30259 m -4.48073,-4.53886 v 0 l 4.78721,3.63884 -1.21036,1.19485 -3.57685,-4.83369"
       style="fill:none;stroke:#000000;stroke-width:0.3685;stroke-linecap:round;stroke-linejoin:round;stroke-miterlimit:10;stroke-dasharray:none;stroke-opacity:1"
       transform="matrix(1.3333333,0,0,-1.3333333,0,415.748)" />
    <path
       id="path115"
       d="m 71.97983,20.23695 -3.57685,-4.83369 4.78721,3.63884 z"
       style="fill:#000000;fill-opacity:1;fill-rule:nonzero;stroke:none"
       transform="matrix(1.3333333,0,0,-1.3333333,0,415.748)" />
    <path
       id="path116"
       d="M 82.76007,29.94656 72.58191,19.6364 m 4.18204,4.23628 0.2987,0.30258 M 72.58191,19.6364 v 0 l 4.78722,3.63884 -1.21036,1.19485 -3.57686,-4.83369"
       style="fill:none;stroke:#000000;stroke-width:0.3685;stroke-linecap:round;stroke-linejoin:round;stroke-miterlimit:10;stroke-dasharray:none;stroke-opacity:1"
       transform="matrix(1.3333333,0,0,-1.3333333,0,415.748)" />
    <path
       id="path117"
       d="m 76.15877,24.47009 -3.57686,-4.83369 4.78722,3.63884 z"
       style="fill:#000000;fill-opacity:1;fill-rule:nonzero;stroke:none"
       transform="matrix(1.3333333,0,0,-1.3333333,0,415.748)" />
    <path
       id="path118"
       d="m 90.687,124.42302 -15.49678,1.85475 m 5.91056,-0.70741 0.4222,-0.0505 m -6.33276,0.75795 v 0 l 5.80951,-1.55177 0.20211,1.68872 -6.01162,-0.13695"
       style="fill:none;stroke:#000000;stroke-width:0.3685;stroke-linecap:round;stroke-linejoin:round;stroke-miterlimit:10;stroke-dasharray:none;stroke-opacity:1"
       transform="matrix(1.3333333,0,0,-1.3333333,0,415.748)" />
    <path
       id="path119"
       d="m 81.20184,126.41472 -6.01162,-0.13695 5.80951,-1.55177 z"
       style="fill:#000000;fill-opacity:1;fill-rule:nonzero;stroke:none"
       transform="matrix(1.3333333,0,0,-1.3333333,0,415.748)" />
    <path
       id="path120"
       d="m 90.89459,124.39841 -9.86557,1.18712 m 5.91011,-0.71117 0.42217,-0.0508 m -6.33228,0.76197 v 0 l 5.80852,-1.55547 0.2032,1.6886 -6.01172,-0.13313"
       style="fill:none;stroke:#000000;stroke-width:0.3685;stroke-linecap:round;stroke-linejoin:round;stroke-miterlimit:10;stroke-dasharray:none;stroke-opacity:1"
       transform="matrix(1.3333333,0,0,-1.3333333,0,415.748)" />
    <path
       id="path121"
       d="m 87.04074,125.71866 -6.01172,-0.13313 5.80852,-1.55547 z"
       style="fill:#000000;fill-opacity:1;fill-rule:nonzero;stroke:none"
       transform="matrix(1.3333333,0,0,-1.3333333,0,415.748)" />
    <path
       id="path122"
       d="m 39.54005,78.98897 39.8619,-4.77095 M 10.97557,46.37288 42.79004,78.59999 M 10.97557,46.37288 13.21594,48.6423 m -2.24037,-2.26942 v 0 l 1.78842,2.41685 0.60518,-0.59744 -2.3936,-1.81941 m 31.81447,32.22711 -2.24037,-2.26944 m 2.24037,2.26944 v 0 l -2.39362,-1.81943 0.60518,-0.59742 1.78844,2.41685 M 7.7256,46.76186 47.58748,41.99091 m 18.76486,195.17547 1.31719,1.3313 m 1.59494,1.61206 1.99368,2.01505 m 1.59495,1.61206 1.99369,2.01504 m 1.59494,1.61206 0.88769,0.89722 M 66.35234,237.16638 v 0 m 10.97708,11.09479 v 0 m -10.97708,-11.09479 4.48578,4.53388 m -4.48578,-4.53388 v 0 l 3.58222,4.82974 1.20903,-1.19622 -4.79125,-3.63352 m 4.18729,4.23218 0.77243,0.77972 m 1.59598,1.61106 1.99494,2.01376 m 1.59598,1.61105 1.03392,1.04367 m -6.99325,-7.05926 v 0 m 6.99325,7.05926 v 0 m -6.99325,-7.05926 4.48866,4.53104 m -4.48866,-4.53104 v 0 l 3.58528,4.82745 1.20827,-1.19696 -4.79355,-3.63049 m 36.46504,-82.89368 2.1496,-0.25726 m 2.25164,-0.2695 2.81456,-0.33685 m 2.25165,-0.2695 2.81456,-0.33689 m 2.25165,-0.26947 0.96312,-0.11529 m -15.49678,1.85476 v 0 m 15.49678,-1.85476 v 0 l -6.33275,0.75796 m 6.33275,-0.75796 v 0 l -5.80951,1.55178 -0.20212,-1.68872 6.01163,0.13694 m -15.70436,1.87939 2.46413,-0.29651 m 2.25148,-0.27093 2.81434,-0.33866 m 2.25148,-0.2709 0.0841,-0.0101 m -9.86557,1.18713 v 0 m 9.86557,-1.18713 v 0"
       style="fill:none;stroke:#000000;stroke-width:0.3685;stroke-linecap:round;stroke-linejoin:round;stroke-miterlimit:10;stroke-dasharray:none;stroke-opacity:1"
       transform="matrix(1.3333333,0,0,-1.3333333,0,415.748)" />
    <path
       id="path123"
       d="m 116.66266,157.34238 -6.33228,0.76196 m 6.33228,-0.76196 v 0 l -5.80853,1.55548 -0.20319,-1.6886 6.01172,0.13312"
       style="fill:none;stroke:#000000;stroke-width:0.3685;stroke-linecap:round;stroke-linejoin:round;stroke-miterlimit:10;stroke-dasharray:none;stroke-opacity:1"
       transform="matrix(1.3333333,0,0,-1.3333333,0,415.748)" />
  </g>
</svg>
