<?xml version="1.0" encoding="UTF-8" standalone="no"?>
<!-- Created with Inkscape (http://www.inkscape.org/) -->

<svg
   version="1.1"
   id="svg1"
   width="566.92932"
   height="302.36267"
   viewBox="0 0 566.92932 302.36267"
   sodipodi:docname="quad_lpa1_m.pdf"
   xmlns:inkscape="http://www.inkscape.org/namespaces/inkscape"
   xmlns:sodipodi="http://sodipodi.sourceforge.net/DTD/sodipodi-0.dtd"
   xmlns="http://www.w3.org/2000/svg"
   xmlns:svg="http://www.w3.org/2000/svg">
  <defs
     id="defs1">
    <clipPath
       clipPathUnits="userSpaceOnUse"
       id="clipPath20">
      <path
         d="m -0.00426,-0.00227 v 226.7762 H 425.20111 V -0.00227 H -0.00426"
         transform="matrix(1,0,0,-1,-231.09802,111.80702)"
         clip-rule="evenodd"
         id="path20" />
    </clipPath>
    <clipPath
       clipPathUnits="userSpaceOnUse"
       id="clipPath21">
      <path
         d="m -0.00426,-0.00227 v 226.7762 H 425.20111 V -0.00227 H -0.00426"
         transform="matrix(1,0,0,-1,-238.88626,108.49994)"
         clip-rule="evenodd"
         id="path21" />
    </clipPath>
    <clipPath
       clipPathUnits="userSpaceOnUse"
       id="clipPath22">
      <path
         d="m -0.00426,-0.00227 v 226.7762 H 425.20111 V -0.00227 H -0.00426"
         transform="matrix(1,0,0,-1,-18.028161,110.23076)"
         clip-rule="evenodd"
         id="path22" />
    </clipPath>
    <clipPath
       clipPathUnits="userSpaceOnUse"
       id="clipPath23">
      <path
         d="m -0.00426,-0.00227 v 226.7762 H 425.20111 V -0.00227 H -0.00426"
         transform="matrix(1,0,0,-1,-11.16135,129.68531)"
         clip-rule="evenodd"
         id="path23" />
    </clipPath>
    <clipPath
       clipPathUnits="userSpaceOnUse"
       id="clipPath24">
      <path
         d="m -0.00426,-0.00227 v 226.7762 H 425.20111 V -0.00227 H -0.00426"
         transform="matrix(1,0,0,-1,-1.0196901,140.54252)"
         clip-rule="evenodd"
         id="path24" />
    </clipPath>
    <clipPath
       clipPathUnits="userSpaceOnUse"
       id="clipPath25">
      <path
         d="m -0.00426,-0.00227 v 226.7762 H 425.20111 V -0.00227 H -0.00426"
         transform="matrix(1,0,0,-1,-1.0196901,164.07006)"
         clip-rule="evenodd"
         id="path25" />
    </clipPath>
  </defs>
  <sodipodi:namedview
     id="namedview1"
     pagecolor="#ffffff"
     bordercolor="#000000"
     borderopacity="0.25"
     inkscape:showpageshadow="2"
     inkscape:pageopacity="0.0"
     inkscape:pagecheckerboard="0"
     inkscape:deskcolor="#d1d1d1">
    <inkscape:page
       x="0"
       y="0"
       inkscape:label="1"
       id="page1"
       width="566.92932"
       height="302.36267"
       margin="0"
       bleed="0" />
  </sodipodi:namedview>
  <g
     id="g1"
     inkscape:groupmode="layer"
     inkscape:label="1">
    <path
       id="path1"
       d="m 221.84909,114.11815 c 0,1.56554 -1.2691,2.83465 -2.83466,2.83465 m 0,0 c -1.56552,0 -2.83462,-1.26911 -2.83462,-2.83465 m 0,0 c 0,-1.56552 1.2691,-2.83464 2.83462,-2.83464 m 0,0 c 1.56556,0 2.83466,1.26912 2.83466,2.83464"
       style="fill:none;stroke:#000000;stroke-width:0.3685;stroke-linecap:round;stroke-linejoin:round;stroke-miterlimit:10;stroke-dasharray:none;stroke-opacity:1"
       transform="matrix(1.3333333,0,0,-1.3333333,0,302.36267)" />
    <path
       id="path2"
       d="M 158.88254,102.54576 V 89.30695 m -20.04398,71.10076 v -5.24612 m 140.3078,-75.7606 V 64.24886 m -60.13193,3.57972 V 54.63606 m -80.17587,59.48209 v -11.15578 m 100.21985,91.85394 -20.04398,4.90668 m 140.30781,-97.17723 v -0.30859 m -80.17588,0.30859 V 89.30695 M 78.70663,119.3643 58.66267,137.26294 m 40.08794,0 v -10.83176 m 220.48367,-33.63708 20.04398,13.68628 m -200.4397,53.92733 v -13.1462 m 100.21985,41.53717 20.04398,17.89862 m 0,-138.86872 V 53.3091 M 158.88254,171.98013 v -12.65249 m 140.30777,-4.16605 -20.04395,9.8288 m 0,-75.26683 -20.04397,9.19619 m 0,-54.23594 v -6.86629 m 40.08792,30.01106 v -5.24615 m -200.4397,74.68051 v -6.86627 m 80.1759,6.86627 v -12.88393 m 20.04395,47.60112 v -8.91845 M 219.01443,21.53902 v 5.13813 m 20.04398,29.57905 v -8.91846 m -140.3078,89.9252 v -8.64072 m 60.13193,-58.84947 -20.04398,11.74213 m 60.1319,90.46525 v -9.55108 m 20.04397,-15.21384 -20.04397,15.21384 m 20.04397,-2.02134 v -13.1925 M 178.92651,36.04308 158.88254,52.5376 m 40.08792,73.15295 v -14.4732 m 40.08795,-8.67159 V 87.77939 m -100.21985,-43.09558 20.04398,-1.0801 m 100.21985,13.11538 -20.04398,7.48349 M 219.01443,14.56473 198.97046,32.80281 m 60.13193,-11.26379 -20.04398,5.24615 m -40.08795,1.34239 20.04397,7.90009 m -80.17587,54.94572 v -9.89053 m 80.17587,-59.54382 v 5.13813 m -20.04397,162.12153 -20.04395,17.89862 m 20.04395,-118.62474 20.04397,10.8009 M 198.97046,79.40099 V 66.57877 m 20.04397,70.68417 v -13.93315 m 20.04398,2.36076 v -14.76637 m 60.1319,16.88026 -20.04395,11.40265 m 20.04395,-71.37851 v -8.57899 m -80.17588,124.30293 v -7.63779 m -40.08792,-25.39755 20.04395,12.5445 m 20.04397,43.63562 v 5.13815 m 120.26383,-123.14569 20.04398,4.47465"
       style="fill:none;stroke:#000000;stroke-width:0.22678;stroke-linecap:round;stroke-linejoin:round;stroke-miterlimit:10;stroke-dasharray:none;stroke-opacity:1"
       transform="matrix(1.3333333,0,0,-1.3333333,0,302.36267)" />
    <path
       id="path3"
       d="m 198.97046,47.33774 -20.04395,10.60031 m 100.21985,114.04208 v -6.98974 M 239.05841,56.2562 V 43.83516 m -60.1319,102.05308 -20.04397,17.94492 m 60.13189,-86.79295 -20.04397,10.73918 m -40.08792,14.76637 V 87.34735 M 198.97046,33.1114 V 26.78517 M 98.75061,105.46201 78.70663,120.70671 M 178.92651,44.68381 V 33.85204 m 40.08792,-19.28731 20.04398,18.23808 m 20.04398,104.46013 v -12.88393 m 100.21985,1.31154 v -0.30859 m -40.08796,23.45337 v -8.14694 M 239.05841,33.1114 v -9.38134 m 80.17587,55.67093 v -6.98974 m -120.26382,76.42408 v -12.82221 m 60.13193,24.39459 v -9.89053 m 80.17587,-13.25424 v -8.64072 M 219.01443,206.6973 v 5.13815 m 60.13193,-63.00012 v -9.62824 M 98.75061,90.97337 v -8.64071 m 20.04398,34.43943 20.04397,10.60032 m -20.04397,-1.68186 v -9.55108 m 120.26382,-49.5607 -20.04398,9.19619 m -60.13189,34.71718 -20.04398,15.6613 m -60.13193,-0.46289 v -4.98384 m 120.26383,-53.46446 -20.04395,10.8472 m 80.17588,82.31826 v -9.45849 m 80.17587,-44.46884 -20.04398,9.45849 m -100.21985,-59.26606 20.04398,9.48936 m 20.04398,1.66641 v -9.45849 m 40.08792,55.74806 V 100.92563 M 198.97046,23.73006 178.92651,42.40018 m -20.04397,83.29037 v -13.23881 m 180.39572,24.8112 V 126.43118 M 319.23428,56.2562 299.19031,54.68234 M 198.97046,102.54576 V 87.77939 m 20.04397,-31.10658 -20.04397,9.48936 m 0,82.67316 v -12.15872 m -100.21985,-8.05439 20.04398,16.49451 m 20.04397,-65.25285 20.04398,7.48347 m 100.21985,63.16983 -20.04398,12.5445 M 198.97046,56.2562 V 43.83516 m -120.26383,72.47403 20.04398,18.67015 m 0,-20.86119 v -7.63777 m 80.1759,-38.6518 v -9.89053 m 100.21985,67.7525 v -12.82222 m -140.3078,42.29326 20.04398,9.8288 M 279.14636,49.26646 299.19031,62.58243 M 219.01443,206.6973 v -6.97431"
       style="fill:none;stroke:#000000;stroke-width:0.22678;stroke-linecap:round;stroke-linejoin:round;stroke-miterlimit:10;stroke-dasharray:none;stroke-opacity:1"
       transform="matrix(1.3333333,0,0,-1.3333333,0,302.36267)" />
    <path
       id="path4"
       d="m 379.36621,114.11815 v 5.13815 M 138.83856,90.97337 V 79.86388 m 20.04398,-0.46289 V 64.24886 m 20.04397,34.67089 -20.04397,13.94858 M 339.27826,67.82858 319.23428,66.7485 M 178.92651,44.68381 V 37.81752 M 319.23428,79.40099 V 71.25401 M 178.92651,137.26294 V 124.02412 M 58.66267,114.11815 v 5.13815 m 60.13192,29.57903 v -6.98972 M 158.88254,56.2562 v -6.98974 m -80.17591,52.97071 -20.04396,4.90669 m 240.52764,-4.18149 -20.04395,9.48937 M 138.83856,67.82858 v -5.24615 m 60.1319,16.81856 V 67.24225 m 100.21985,46.8759 v -11.15578 m -120.2638,57.44534 v -11.10949 m 40.08792,-127.7592 v -6.97429 m 40.08796,21.47835 20.04397,16.49452 m 60.1319,84.72534 v -6.86627 m -200.4397,-39.4233 v -14.5195 m 60.1319,-43.34247 v -4.98384 m 100.21985,132.28015 v -8.57897 m -180.39572,-80.57473 20.04397,5.19986 m 80.17587,83.95384 V 149.25195 M 178.92651,67.82858 v -9.45849 m 160.35175,55.74806 v -7.63777 m -160.35175,77.07214 v -8.64072 m 80.17588,-37.64886 v -12.88393 m 0,-66.00892 20.04397,11.40266 m -20.04397,7.96181 -20.04398,9.38135 m -40.08795,-40.4108 20.04397,7.93095 m -60.13189,117.34407 v -3.71859 m 60.13189,-46.19701 -20.04397,13.94859 M 178.92651,90.97337 V 75.54352 m -60.13192,3.85747 v -8.14698 m 20.04397,66.00893 v -14.5195 m 120.26383,-8.62529 V 98.91975 M 239.05841,33.1114 v -4.98384 m -40.08795,38.45121 20.04397,9.19619 m 0,107.77756 v -8.65616 m 40.08796,-75.97661 20.04397,13.94858 M 219.01443,67.82858 V 56.67281 M 58.66267,114.11815 v -6.97429 m 140.30779,87.98105 v -6.32623 m 40.08795,-121.55643 20.04398,10.8472 m -20.04398,117.03546 v -0.3086 M 118.79459,125.69055 v -12.42103 m 220.48367,0.84863 v -8.65614 m 20.04398,-3.22484 20.04397,4.90669"
       style="fill:none;stroke:#000000;stroke-width:0.22678;stroke-linecap:round;stroke-linejoin:round;stroke-miterlimit:10;stroke-dasharray:none;stroke-opacity:1"
       transform="matrix(1.3333333,0,0,-1.3333333,0,302.36267)" />
    <path
       id="path5"
       d="m 319.23428,148.83533 v -12.65247 m -220.48367,-29.70248 20.04398,9.45849 m 120.26382,43.62021 20.04398,17.12714 m -60.13193,-50.99567 v -14.76637 m 60.13193,49.48353 v -14.51947 m -60.13193,16.34021 20.04397,13.68628 M 158.88254,79.40099 V 67.79773 M 279.14636,33.1114 259.10239,33.85204 m -100.21985,33.94569 20.04397,7.74579 m 40.08792,131.15378 v -6.97431 m 60.13193,-86.19118 -20.04397,10.8472 m 20.04397,47.60112 v -8.14697 m 20.04395,-96.00458 v -5.24615 m -120.2638,110.13833 -20.04397,22.40415 m 60.13189,-158.07889 20.04398,9.4585 m 20.04398,21.32406 V 56.71909 m -140.3078,18.9633 -20.04398,6.65027 M 198.97046,56.2562 v -8.91846 m 40.08795,63.58644 -20.04398,12.40561 M 118.79459,79.40099 v -6.98974 m 80.17587,122.71366 v -4.98386 M 299.19031,59.24959 279.14636,64.24886 m 0,95.07878 20.04395,24.22488 m -160.35175,-82.62689 -20.04397,15.21384 m 120.26382,55.84066 v -12.42105 m -60.1319,0.84863 v -9.89053 M 138.83856,67.82858 V 54.68234 m 100.21985,94.15299 v -15.1984 m 80.17587,-7.94638 v -9.55108 M 259.10239,90.97337 V 75.54352 M 178.92651,67.82858 V 56.71909 m -20.04397,76.96414 -20.04398,18.14551 m 140.3078,-72.42775 v -9.62824 m -40.08795,102.20738 v -9.55108 m 60.1319,-48.3109 v -13.19252 m -140.30777,47.9097 v -9.62824 m 80.17587,-59.8061 V 67.24225 M 98.75061,90.97337 V 80.14162 m 220.48367,68.69371 v -6.98972 m 0,-16.15506 v -9.75168 m -160.35174,9.75168 v -15.19841 m 60.13189,3.62601 V 98.87346 M 259.10239,44.68381 V 33.85204 m -40.08796,177.98341 20.04398,6.43423 m 60.1319,-57.86197 v -5.24612 m -160.35175,-32.41815 -20.04397,17.94495 m 120.26382,-14.99784 v -14.76637 m 0,-8.37842 V 87.77939 m -60.1319,-9.68994 -20.04397,12.29759 m 40.08792,104.42927 20.04397,4.90668"
       style="fill:none;stroke:#000000;stroke-width:0.22678;stroke-linecap:round;stroke-linejoin:round;stroke-miterlimit:10;stroke-dasharray:none;stroke-opacity:1"
       transform="matrix(1.3333333,0,0,-1.3333333,0,302.36267)" />
    <path
       id="path6"
       d="m 359.32224,97.56192 -20.04398,7.90009 M 299.19031,90.97337 v -14.5195 m 60.13193,26.09189 V 97.56192 M 219.01443,44.68381 v -8.65616 m -40.08792,124.38006 v -9.45849 M 198.97046,56.2562 v -9.75168 m -120.26383,51.0574 20.04398,7.90009 M 299.19031,90.97337 V 81.51488 M 118.79459,102.54576 V 93.6273 m 220.48367,-9.52021 -20.04398,6.01764 m -40.08792,12.42103 V 90.38704 m -80.1759,69.17204 -20.04395,17.12714 m 80.17588,6.8663 v -6.8663 M 78.70663,102.54576 v -4.98384 m 120.26383,12.69878 -20.04395,13.76342 m 60.1319,-76.68638 20.04398,10.60031 m 40.08792,79.32489 v -9.89053 m 20.04397,-10.60032 -20.04397,10.60032 m 0,19.8891 20.04397,24.71862 m -200.43969,-30.13452 20.04397,13.31598 M 98.75061,114.11815 v -7.63777 m 200.4397,-43.89795 20.04397,9.82882 M 178.92651,183.55252 v -2.28363 M 299.19031,67.82858 V 54.68234 m 60.13193,47.86342 V 96.21953 M 198.97046,33.1114 v -0.30859 m 80.1759,92.88774 v -15.19841 m -160.35177,38.34319 v -3.7186 m 160.35177,-75.34398 20.04395,11.74213 m -100.21985,54.08165 20.04397,13.65542 M 98.75061,114.11815 v -8.65614 m 140.3078,-58.7569 -20.04398,7.93095 m -100.21984,94.19927 v -8.14694 M 219.01443,44.68381 v -8.65616 m 0,8.65616 v -7.63779 m 60.13193,88.64453 v -12.15874 m -60.13193,-36.4916 20.04398,10.73918 m -80.17587,14.76637 v -12.8222 m 180.39572,1.24981 v -6.86628 m -160.35175,30.01106 v -15.1984 m 40.08792,38.34319 v -15.19841 m 160.35178,-7.94638 v -6.97429 m -220.48367,52.18378 -20.04398,24.22488 m 0,-23.14481 v -8.57897 M 239.05841,79.40099 V 66.57877 m -60.1319,47.53938 V 100.185 m 140.30777,2.36076 V 90.12473 M 178.92651,67.82858 V 53.3091 m 40.08792,37.66427 V 75.77496 m 100.21985,49.91559 v -12.42103"
       style="fill:none;stroke:#000000;stroke-width:0.22678;stroke-linecap:round;stroke-linejoin:round;stroke-miterlimit:10;stroke-dasharray:none;stroke-opacity:1"
       transform="matrix(1.3333333,0,0,-1.3333333,0,302.36267)" />
    <path
       id="path7"
       d="m 319.23428,92.99469 -20.04397,7.93094 m 40.08795,25.50555 20.04398,22.40415 m -180.39573,32.43356 20.04395,4.47467 m -40.08792,-96.43661 -20.04398,13.65542 m 160.35175,34.30057 v -11.1095 M 158.88254,33.1114 l 20.04397,0.74064 m 200.4397,80.26611 v 5.13815 m -100.21985,-29.94935 20.04395,13.65542 m -100.21985,45.87296 v -15.1984 M 359.32224,79.40099 339.27826,80.14162 M 279.14636,56.2562 v -3.7186 m 0,26.86339 v -9.62824 m -40.08795,32.77301 v -14.4732 m 0,60.76277 v -13.2388 m 40.08795,-33.05077 v -12.8222 m -20.04397,93.82896 v -2.28363 M 219.01443,90.97337 V 77.04021 m 40.08796,47.3388 -20.04398,12.2976 m -60.1319,-22.55846 v -15.1984 m 180.39573,26.7708 v -4.98384 m -100.21985,39.701 v -11.10949 m 0,-58.32485 V 78.08945 m -100.21985,93.89068 v -6.98974 m 100.21985,-50.87224 v -15.1984 m -100.21985,26.7708 v -12.15874 m -40.08795,-0.26229 -20.04398,17.12715 m 60.13193,18.43866 v -9.62824 m 160.35174,9.62824 v -3.7186 m -20.04397,-7.85379 v -14.5195 m 0,-78.05963 -20.04395,-1.0801 m 20.04395,36.26017 -20.04395,7.48347 m -160.35177,38.3432 v -9.75168 M 98.75061,90.97337 v -6.86628 m 140.3078,41.58346 v -14.4732 m 140.3078,8.03895 20.04398,6.43425 m -180.39576,21.52466 20.04398,15.21384 m -20.04398,-63.55559 -20.04397,12.34389 m 0,-8.67159 V 87.11591 m 80.1759,61.71942 v -15.1521 M 78.70663,125.69055 v -6.32625 m 300.65958,-12.22044 -20.04397,18.2381 M 239.05841,9.96663 219.01443,26.67715 m 80.17588,110.58579 v -9.4585 m 80.1759,-36.83107 -20.04397,5.24616 m -40.08796,-24.96552 -20.04397,5.19986 m -40.08792,14.5195 V 78.08945 m -100.21985,1.31154 v -9.62824 m 120.26382,98.48879 -20.04397,6.65026 M 219.01443,114.11815 V 98.87346 m -160.35176,8.2704 20.04396,18.2381"
       style="fill:none;stroke:#000000;stroke-width:0.22678;stroke-linecap:round;stroke-linejoin:round;stroke-miterlimit:10;stroke-dasharray:none;stroke-opacity:1"
       transform="matrix(1.3333333,0,0,-1.3333333,0,302.36267)" />
    <path
       id="path8"
       d="m 339.27826,105.46201 20.04398,15.2447 M 98.75061,67.82858 118.79459,66.7485 m 200.43969,35.79726 V 92.7941 M 299.19031,81.08284 319.23428,93.6273 m -120.26382,40.00963 -20.04395,15.66129 M 259.10239,44.68381 V 36.04308 M 138.83856,114.11815 V 102.96237 M 259.10239,44.68381 v -2.28363 m -40.08796,2.28363 V 37.04602 M 118.79459,102.54576 V 92.99469 M 239.05841,56.2562 v -9.55109 m -60.1319,10.01398 20.04395,7.48349 M 98.75061,90.97337 v -2.28361 m 140.3078,106.43515 v -4.98386 m 20.04398,-89.95605 -20.04398,10.73918 m -80.17587,28.28291 20.04397,11.74213 m 100.21985,21.03091 v -3.71859 m -140.3078,-65.29917 20.04398,9.48937 m 200.4397,13.23881 V 119.3643 M 198.97046,9.96663 219.01443,26.67715 m 60.13193,145.30298 v -12.65249 m -140.3078,-45.20949 v -13.19252 m 60.1319,71.0545 v -9.75168 M 158.88254,56.2562 V 52.5376 M 339.27826,90.97337 V 80.14162 m -40.08795,42.60182 20.04397,17.94495 m 0,1.15722 -20.04397,13.31598 m 20.04397,-52.61583 V 93.6273 m -80.17587,101.49761 v -6.32623 M 198.97046,87.77939 178.92651,100.185 M 279.14636,56.2562 V 43.60371 M 78.70663,102.54576 v -9.38135 m 80.17591,32.52614 V 112.86833 M 219.01443,90.97337 V 77.04021 m -40.08792,106.51231 v -6.8663 M 78.70663,125.69055 v -9.38136 m 120.26383,78.81572 v -9.38135 M 58.66267,90.97337 78.70663,96.21953 m -20.04396,17.89862 v -6.97429 m 160.35176,6.97429 V 98.87346 m -60.13189,14.65835 20.04397,10.8472 m 0,-33.40564 V 78.08945 m -40.08795,-15.50702 -20.04397,9.82882 m 240.52765,43.89794 -20.04398,18.67015 M 239.05841,102.54576 V 87.11591 m -80.17587,61.71942 v -15.1521 m 40.08792,38.2969 v -12.42105 m 100.21985,0.84863 v -5.24612 m -140.30777,16.81854 v -8.14697 m 60.13189,-64.9597 20.04398,12.34389"
       style="fill:none;stroke:#000000;stroke-width:0.22678;stroke-linecap:round;stroke-linejoin:round;stroke-miterlimit:10;stroke-dasharray:none;stroke-opacity:1"
       transform="matrix(1.3333333,0,0,-1.3333333,0,302.36267)" />
    <path
       id="path9"
       d="m 299.19031,160.40771 v -13.1462 M 138.83856,81.08284 118.79459,93.6273 m 0,42.55556 -20.04398,24.22485 m 140.3078,-72.33515 -20.04398,10.8009 m 60.13193,-50.76424 -20.04397,5.19988 m -40.08796,121.58726 -20.04397,15.24469 M 178.92651,37.81752 198.97046,43.83516 M 98.75061,114.11815 v -8.65614 m 140.3078,-17.68262 20.04398,12.40561 m 140.3078,2.36076 -20.04398,16.71054 M 178.92651,44.68381 v -8.64073 m -40.08795,31.7855 v -8.57899 m 60.1319,20.1514 V 64.20258 m 20.04397,26.77079 V 75.77496 m -60.13189,-27.66574 20.04397,5.19988 m 120.2638,37.66427 v -9.89053 m -20.04395,21.46292 V 87.34735 m -160.35177,38.3432 v -8.91846 m 160.35177,8.91846 v -13.23881 m 0,-44.65401 -20.04397,7.74579 M 239.05841,33.1114 v -6.32623 m 100.21985,101.83705 -20.04398,16.49451 M 78.70663,125.69055 v -0.30859 m 280.61561,-6.01766 20.04397,17.89864 m -40.08795,0 v -2.2836 m -180.39572,33.2822 20.04397,6.65026 m -60.13192,-81.91711 20.04397,7.93094 m 40.08795,20.90745 -20.04397,15.39901 m 20.04397,-37.04709 20.04395,10.73918 M 319.23428,79.40099 V 66.7485 m 20.04398,24.22487 v -2.28361 m -160.35175,-10.9552 20.04395,9.38135 m 60.13193,50.14703 v -13.23882 m 80.17587,-9.90597 v -7.63777 M 118.79459,102.54576 V 90.12473 m 100.21984,93.42779 v -8.65616 m 100.21985,-61.62684 20.04398,17.12715 m 20.04398,-4.70612 v -9.38136 m -20.04398,-2.19104 v -8.65614 M 219.01443,67.82858 V 56.67281 m 100.21985,45.87295 v -9.55107 m -40.08792,17.49745 20.04395,15.6613 m 0,-25.22781 20.04397,15.21384 m -100.21985,44.26824 v -11.15576 m 100.21985,-23.5614 v -8.91846 m -140.30777,20.49085 v -15.42986 m 0,-100.29406 20.04395,5.24615 m 40.08795,1.34239 -20.04398,7.90009 m 0,86.03688 20.04398,13.94859 M 198.97046,56.2562 v -9.55109"
       style="fill:none;stroke:#000000;stroke-width:0.22678;stroke-linecap:round;stroke-linejoin:round;stroke-miterlimit:10;stroke-dasharray:none;stroke-opacity:1"
       transform="matrix(1.3333333,0,0,-1.3333333,0,302.36267)" />
    <path
       id="path10"
       d="m 198.97046,125.69055 v -14.76637 m 80.1759,22.75905 20.04395,18.14551 m -40.08792,31.72378 v -10.83176 m -100.21985,-82.9972 20.04397,9.19619 m 0,84.63277 v -10.83176 m -60.13192,-70.175 V 92.7941 m 120.26382,69.43435 -20.04398,13.68628 M 299.19031,90.97337 V 79.86388 m -160.35175,80.54383 v -5.24612 m 240.52765,-41.04344 v -6.97429 M 158.88254,49.26646 138.83856,62.58243 M 239.05841,79.40099 V 64.20258 m 40.08795,84.63275 V 137.23209 M 198.97046,33.1114 v -9.38134 m 20.04397,159.82246 v -7.63779 M 118.79459,79.40099 v -3.7186 m 100.21984,136.15306 -20.04397,6.43423 m 120.26382,-142.58729 20.04398,6.65027 m -100.21985,89.64747 v -9.75168 m -40.08795,32.89646 v -0.3086 M 98.75061,137.26294 v -2.2836 M 259.10239,37.81752 239.05841,43.83516 M 138.83856,114.11815 V 100.92563 M 239.05841,56.2562 v -9.75168 m 0,125.47561 v -8.91845 M 198.97046,125.69055 V 110.2607 m 20.04397,3.85745 V 98.87346 m 20.04398,96.25145 v -9.38135 M 98.75061,88.68976 78.70663,93.16441 m 100.21988,20.95374 V 100.185 m 60.1319,-20.78401 V 66.16217 M 279.14636,56.2562 V 49.26646 M 118.79459,92.7941 98.75061,106.48038 M 118.79459,79.40099 V 66.7485 m -60.13192,52.5078 -20.04397,6.43425 m 140.30781,11.57239 v -12.88393 m -40.08795,22.8825 -20.04397,24.71862 m 120.26382,-36.3836 -20.04398,13.65542 M 98.75061,84.10709 118.79459,90.12473 M 38.6187,102.54576 58.66267,119.2563 m 200.43972,-5.13815 V 100.185 m -120.26383,37.07794 v -9.89053 m 20.04398,-47.97142 v -9.62824 m 80.17587,55.9178 V 110.2607 m -20.04398,-73.21468 -20.04397,9.4585 M 58.66267,114.11815 v 5.13815 m 80.17589,8.54814 20.04398,11.40265 m 120.26382,0 -20.04397,11.74213 M 178.92651,58.37009 158.88254,69.77275 m -80.17591,32.77301 v -0.30859"
       style="fill:none;stroke:#000000;stroke-width:0.22678;stroke-linecap:round;stroke-linejoin:round;stroke-miterlimit:10;stroke-dasharray:none;stroke-opacity:1"
       transform="matrix(1.3333333,0,0,-1.3333333,0,302.36267)" />
    <path
       id="path11"
       d="m 279.14636,148.83533 v -9.62824 m -20.04397,-1.94415 v -15.42986 m -20.04398,-11.57238 20.04398,13.76342 M 178.92651,44.68381 v -2.28363 m 20.04395,60.14558 V 87.77939 m 40.08795,45.85754 20.04398,15.66129 m -40.08796,-12.03528 v -15.19841 m 140.30781,-19.51877 v -9.38135 m -160.35178,55.67092 v -13.2388 m 0,-24.67235 20.04397,12.40561 m -80.17587,13.93315 v -11.1095 M 319.23428,79.40099 v -3.7186 m -20.04397,38.43576 V 102.96237 M 158.88254,56.2562 V 43.60371 m 160.35174,92.57915 20.04398,24.22485 m -80.17587,-14.51947 20.04397,17.94492 M 198.97046,79.40099 V 66.16217 m 140.3078,24.8112 V 82.33266 M 98.75061,126.43118 78.70663,148.83533 m 160.35178,0 v -12.15872 m 0,12.15872 v -12.82221 m -20.04398,24.39459 v -13.1925 M 239.05841,23.73006 259.10239,42.40018 M 178.92651,90.97337 V 78.08945 m 40.08792,59.17349 v -13.93315 m 0,-55.50121 V 54.63606 m -80.17587,82.62688 v -9.4585 m 40.08795,-3.42543 20.04395,12.2976 M 158.88254,56.2562 v -8.14698 m 100.21985,29.98023 20.04397,12.29759 m 0,-10.98605 V 67.79773 m -20.04397,113.47116 -20.04398,4.47467 M 78.70663,79.40099 98.75061,80.14162 m 80.1759,10.83175 V 77.73456 m 80.17588,94.9862 20.04397,22.40415 M 259.10239,67.82858 v -9.89053 m 0,33.03532 V 77.73456 m -140.3078,71.10077 v -12.65247 m 60.13192,24.22485 V 145.88824 M 158.88254,102.54576 V 90.38704 M 239.05841,33.1114 V 32.80281 M 138.83856,67.82858 v -5.24615 m -60.13193,39.96333 v -6.32623 m 120.26383,6.32623 v -14.4732 m 60.13193,95.47996 v -8.64072 m 0,-53.07872 20.04397,15.39901 M 158.88254,148.83533 V 137.23209 M 219.01443,21.53902 V 14.56473 M 118.79459,56.2562 138.83856,54.68234 m 120.26383,59.43581 V 100.185"
       style="fill:none;stroke:#000000;stroke-width:0.22678;stroke-linecap:round;stroke-linejoin:round;stroke-miterlimit:10;stroke-dasharray:none;stroke-opacity:1"
       transform="matrix(1.3333333,0,0,-1.3333333,0,302.36267)" />
    <path
       id="path12"
       d="m 138.83856,90.97337 v -9.45849 m 0,-22.26529 20.04398,4.99927 m 60.13189,110.6475 20.04398,15.24469 M 279.14636,56.2562 v -8.14698"
       style="fill:none;stroke:#000000;stroke-width:0.22678;stroke-linecap:round;stroke-linejoin:round;stroke-miterlimit:10;stroke-dasharray:none;stroke-opacity:1"
       transform="matrix(1.3333333,0,0,-1.3333333,0,302.36267)" />
    <path
       id="path13"
       d="M 379.36621,90.97337 178.92651,206.6973 M 279.14636,33.1114 78.70663,148.83533 m 0,-69.43434 200.43973,115.72392 M 259.10239,21.53902 58.66267,137.26294 M 359.32224,79.40099 158.88254,195.12491 m 0,-162.01351 200.4397,115.72393 M 339.27826,67.82858 138.83856,183.55252 M 299.19031,44.68381 98.75061,160.40771 M 319.23428,56.2562 118.79459,171.98013 M 399.41019,102.54576 198.97046,218.26968 M 38.6187,102.54576 239.05841,218.26968 M 98.75061,67.82858 299.19031,183.55252 M 198.97046,9.96663 399.41019,125.69055 M 118.79459,56.2562 319.23428,171.98013 M 239.05841,9.96663 38.6187,125.69055 M 58.66267,90.97337 259.10239,206.6973 M 178.92651,21.53902 379.36621,137.26294 M 138.83856,44.68381 339.27826,160.40771 M 4.16699,120.26588 l 12.51987,7.22835 m -5.15524,-2.97638 -0.36824,-0.2126 m 5.52348,3.18898 v 0 l -5.58045,-2.23991 0.85039,-1.47292 4.73006,3.71283"
       style="fill:none;stroke:#000000;stroke-width:0.3685;stroke-linecap:round;stroke-linejoin:round;stroke-miterlimit:10;stroke-dasharray:none;stroke-opacity:1"
       transform="matrix(1.3333333,0,0,-1.3333333,0,302.36267)" />
    <path
       id="path14"
       d="m 11.9568,123.7814 4.73006,3.71283 -5.58045,-2.23991 z"
       style="fill:#000000;fill-opacity:1;fill-rule:nonzero;stroke:none"
       transform="matrix(1.3333333,0,0,-1.3333333,0,302.36267)" />
    <path
       id="path15"
       d="m 4.16699,120.26588 12.37342,-7.14379 m -5.15523,2.97637 -0.36824,0.21261 m 5.52347,-3.18898 v 0 l -4.73005,3.71284 -0.85038,-1.47292 5.58043,-2.23992"
       style="fill:none;stroke:#000000;stroke-width:0.3685;stroke-linecap:round;stroke-linejoin:round;stroke-miterlimit:10;stroke-dasharray:none;stroke-opacity:1"
       transform="matrix(1.3333333,0,0,-1.3333333,0,302.36267)" />
    <path
       id="path16"
       d="m 10.95998,115.36201 5.58043,-2.23992 -4.73005,3.71284 z"
       style="fill:#000000;fill-opacity:1;fill-rule:nonzero;stroke:none"
       transform="matrix(1.3333333,0,0,-1.3333333,0,302.36267)" />
    <path
       id="path17"
       d="m 4.16699,120.26588 v 16.08974 m 0,-5.95276 v -0.4252 m 0,6.37796 v 0 l -0.8504,-5.95276 h 1.70079 l -0.85039,5.95276"
       style="fill:none;stroke:#000000;stroke-width:0.3685;stroke-linecap:round;stroke-linejoin:round;stroke-miterlimit:10;stroke-dasharray:none;stroke-opacity:1"
       transform="matrix(1.3333333,0,0,-1.3333333,0,302.36267)" />
    <path
       id="path18"
       d="m 5.01738,130.40286 -0.85039,5.95276 -0.8504,-5.95276 z"
       style="fill:#000000;fill-opacity:1;fill-rule:nonzero;stroke:none"
       transform="matrix(1.3333333,0,0,-1.3333333,0,302.36267)" />
    <path
       id="path19"
       d="m 230.5311,109.05742 h 11.90551 v 11.05511 H 230.5311 Z"
       style="fill:#ffffff;fill-opacity:1;fill-rule:nonzero;stroke:none"
       transform="matrix(1.3333333,0,0,-1.3333333,0,302.36267)" />
    <text
       id="text19"
       xml:space="preserve"
       transform="matrix(1.3333333,0,0,1.3333333,308.13069,153.28664)"
       clip-path="url(#clipPath20)"><tspan
         style="font-style:italic;font-variant:normal;font-weight:normal;font-stretch:normal;font-size:8.0057px;font-family:'Palatino Linotype';writing-mode:lr-tb;fill:#000000;fill-opacity:1;fill-rule:nonzero;stroke:none"
         x="0"
         y="0"
         id="tspan19">M</tspan></text>
    <text
       id="text20"
       xml:space="preserve"
       transform="matrix(1.3333333,0,0,1.3333333,318.51501,157.69608)"
       clip-path="url(#clipPath21)"><tspan
         style="font-style:italic;font-variant:normal;font-weight:normal;font-stretch:normal;font-size:4.80342px;font-family:'Palatino Linotype';writing-mode:lr-tb;fill:#000000;fill-opacity:1;fill-rule:nonzero;stroke:none"
         x="0"
         y="0"
         id="tspan20">u</tspan></text>
    <text
       id="text21"
       xml:space="preserve"
       transform="matrix(1.3333333,0,0,1.3333333,24.037547,155.38832)"
       clip-path="url(#clipPath22)"><tspan
         style="font-style:italic;font-variant:normal;font-weight:normal;font-stretch:normal;font-size:10.0071px;font-family:'Palatino Linotype';writing-mode:lr-tb;fill:#000000;fill-opacity:1;fill-rule:nonzero;stroke:none"
         x="0"
         y="0"
         id="tspan21">X</tspan></text>
    <text
       id="text22"
       xml:space="preserve"
       transform="matrix(1.3333333,0,0,1.3333333,14.8818,129.44893)"
       clip-path="url(#clipPath23)"><tspan
         style="font-style:italic;font-variant:normal;font-weight:normal;font-stretch:normal;font-size:10.0071px;font-family:'Palatino Linotype';writing-mode:lr-tb;fill:#000000;fill-opacity:1;fill-rule:nonzero;stroke:none"
         x="0"
         y="0"
         id="tspan22">Y</tspan></text>
    <text
       id="text23"
       xml:space="preserve"
       transform="matrix(1.3333333,0,0,1.3333333,1.3595867,114.97265)"
       clip-path="url(#clipPath24)"><tspan
         style="font-style:italic;font-variant:normal;font-weight:normal;font-stretch:normal;font-size:10.0071px;font-family:'Palatino Linotype';writing-mode:lr-tb;fill:#000000;fill-opacity:1;fill-rule:nonzero;stroke:none"
         x="0"
         y="0"
         id="tspan23">Z</tspan></text>
    <text
       id="text24"
       xml:space="preserve"
       transform="matrix(1.3333333,0,0,1.3333333,1.3595867,83.602587)"
       clip-path="url(#clipPath25)"><tspan
         style="font-variant:normal;font-weight:normal;font-stretch:normal;font-size:10.0916px;font-family:'Palatino Linotype';writing-mode:lr-tb;fill:#000000;fill-opacity:1;fill-rule:nonzero;stroke:none"
         x="0 6.1659737 12.261306 14.784208 19.830013 22.352917 27.398722 29.921623 34.96743 40.013233"
         y="0"
         sodipodi:role="line"
         id="tspan24">LP = 0.400</tspan></text>
  </g>
</svg>
