<?xml version="1.0" encoding="UTF-8" standalone="no"?>
<!-- Created with Inkscape (http://www.inkscape.org/) -->

<svg
   version="1.1"
   id="svg1"
   width="566.92932"
   height="268.34668"
   viewBox="0 0 566.92932 268.34668"
   sodipodi:docname="allg_platte_spannungen.pdf"
   xmlns:inkscape="http://www.inkscape.org/namespaces/inkscape"
   xmlns:sodipodi="http://sodipodi.sourceforge.net/DTD/sodipodi-0.dtd"
   xmlns="http://www.w3.org/2000/svg"
   xmlns:svg="http://www.w3.org/2000/svg">
  <defs
     id="defs1">
    <clipPath
       clipPathUnits="userSpaceOnUse"
       id="clipPath7">
      <path
         d="M -0.00426,-0.00201 V 201.26187 H 425.20111 V -0.00201 H -0.00426"
         transform="matrix(1,0,0,-1,-215.21047,116.88647)"
         clip-rule="evenodd"
         id="path7" />
    </clipPath>
    <clipPath
       clipPathUnits="userSpaceOnUse"
       id="clipPath8">
      <path
         d="M -0.00426,-0.00201 V 201.26187 H 425.20111 V -0.00201 H -0.00426"
         transform="matrix(1,0,0,-1,-232.39104,133.88098)"
         clip-rule="evenodd"
         id="path8" />
    </clipPath>
    <clipPath
       clipPathUnits="userSpaceOnUse"
       id="clipPath9">
      <path
         d="M -0.00426,-0.00201 V 201.26187 H 425.20111 V -0.00201 H -0.00426"
         transform="matrix(1,0,0,-1,-188.98654,136.53007)"
         clip-rule="evenodd"
         id="path9" />
    </clipPath>
    <clipPath
       clipPathUnits="userSpaceOnUse"
       id="clipPath10">
      <path
         d="M -0.00426,-0.00201 V 201.26187 H 425.20111 V -0.00201 H -0.00426"
         transform="matrix(1,0,0,-1,-154.02117,11.065513)"
         clip-rule="evenodd"
         id="path10" />
    </clipPath>
    <clipPath
       clipPathUnits="userSpaceOnUse"
       id="clipPath11">
      <path
         d="M -0.00426,-0.00201 V 201.26187 H 425.20111 V -0.00201 H -0.00426"
         transform="matrix(1,0,0,-1,-159.00189,6.9316477)"
         clip-rule="evenodd"
         id="path11" />
    </clipPath>
    <clipPath
       clipPathUnits="userSpaceOnUse"
       id="clipPath12">
      <path
         d="M -0.00426,-0.00201 V 201.26187 H 425.20111 V -0.00201 H -0.00426"
         transform="matrix(1,0,0,-1,-167.06857,11.065513)"
         clip-rule="evenodd"
         id="path12" />
    </clipPath>
    <clipPath
       clipPathUnits="userSpaceOnUse"
       id="clipPath13">
      <path
         d="M -0.00426,-0.00201 V 201.26187 H 425.20111 V -0.00201 H -0.00426"
         transform="matrix(1,0,0,-1,-275.77036,43.201199)"
         clip-rule="evenodd"
         id="path13" />
    </clipPath>
    <clipPath
       clipPathUnits="userSpaceOnUse"
       id="clipPath14">
      <path
         d="M -0.00426,-0.00201 V 201.26187 H 425.20111 V -0.00201 H -0.00426"
         transform="matrix(1,0,0,-1,-281.9925,39.067341)"
         clip-rule="evenodd"
         id="path14" />
    </clipPath>
    <clipPath
       clipPathUnits="userSpaceOnUse"
       id="clipPath15">
      <path
         d="M -0.00426,-0.00201 V 201.26187 H 425.20111 V -0.00201 H -0.00426"
         transform="matrix(1,0,0,-1,-290.86922,43.201199)"
         clip-rule="evenodd"
         id="path15" />
    </clipPath>
    <clipPath
       clipPathUnits="userSpaceOnUse"
       id="clipPath16">
      <path
         d="M -0.00426,-0.00201 V 201.26187 H 425.20111 V -0.00201 H -0.00426"
         transform="matrix(1,0,0,-1,-254.24103,11.065513)"
         clip-rule="evenodd"
         id="path16" />
    </clipPath>
    <clipPath
       clipPathUnits="userSpaceOnUse"
       id="clipPath17">
      <path
         d="M -0.00426,-0.00201 V 201.26187 H 425.20111 V -0.00201 H -0.00426"
         transform="matrix(1,0,0,-1,-259.22175,6.9316477)"
         clip-rule="evenodd"
         id="path17" />
    </clipPath>
    <clipPath
       clipPathUnits="userSpaceOnUse"
       id="clipPath18">
      <path
         d="M -0.00426,-0.00201 V 201.26187 H 425.20111 V -0.00201 H -0.00426"
         transform="matrix(1,0,0,-1,-267.04116,11.065513)"
         clip-rule="evenodd"
         id="path18" />
    </clipPath>
    <clipPath
       clipPathUnits="userSpaceOnUse"
       id="clipPath19">
      <path
         d="M -0.00426,-0.00201 V 201.26187 H 425.20111 V -0.00201 H -0.00426"
         transform="matrix(1,0,0,-1,-237.50265,45.185451)"
         clip-rule="evenodd"
         id="path19" />
    </clipPath>
    <clipPath
       clipPathUnits="userSpaceOnUse"
       id="clipPath20">
      <path
         d="M -0.00426,-0.00201 V 201.26187 H 425.20111 V -0.00201 H -0.00426"
         transform="matrix(1,0,0,-1,-242.48337,41.051601)"
         clip-rule="evenodd"
         id="path20" />
    </clipPath>
    <clipPath
       clipPathUnits="userSpaceOnUse"
       id="clipPath21">
      <path
         d="M -0.00426,-0.00201 V 201.26187 H 425.20111 V -0.00201 H -0.00426"
         transform="matrix(1,0,0,-1,-250.64956,45.185451)"
         clip-rule="evenodd"
         id="path21" />
    </clipPath>
    <clipPath
       clipPathUnits="userSpaceOnUse"
       id="clipPath22">
      <path
         d="M -0.00426,-0.00201 V 201.26187 H 425.20111 V -0.00201 H -0.00426"
         transform="matrix(1,0,0,-1,-175.55049,43.201199)"
         clip-rule="evenodd"
         id="path22" />
    </clipPath>
    <clipPath
       clipPathUnits="userSpaceOnUse"
       id="clipPath23">
      <path
         d="M -0.00426,-0.00201 V 201.26187 H 425.20111 V -0.00201 H -0.00426"
         transform="matrix(1,0,0,-1,-180.53124,39.067341)"
         clip-rule="evenodd"
         id="path23" />
    </clipPath>
    <clipPath
       clipPathUnits="userSpaceOnUse"
       id="clipPath24">
      <path
         d="M -0.00426,-0.00201 V 201.26187 H 425.20111 V -0.00201 H -0.00426"
         transform="matrix(1,0,0,-1,-188.69742,43.201199)"
         clip-rule="evenodd"
         id="path24" />
    </clipPath>
    <clipPath
       clipPathUnits="userSpaceOnUse"
       id="clipPath25">
      <path
         d="M -0.00426,-0.00201 V 201.26187 H 425.20111 V -0.00201 H -0.00426"
         transform="matrix(1,0,0,-1,-116.11635,22.034773)"
         clip-rule="evenodd"
         id="path25" />
    </clipPath>
    <clipPath
       clipPathUnits="userSpaceOnUse"
       id="clipPath26">
      <path
         d="M -0.00426,-0.00201 V 201.26187 H 425.20111 V -0.00201 H -0.00426"
         transform="matrix(1,0,0,-1,-122.33848,17.900908)"
         clip-rule="evenodd"
         id="path26" />
    </clipPath>
    <clipPath
       clipPathUnits="userSpaceOnUse"
       id="clipPath27">
      <path
         d="M -0.00426,-0.00201 V 201.26187 H 425.20111 V -0.00201 H -0.00426"
         transform="matrix(1,0,0,-1,-131.70977,22.034773)"
         clip-rule="evenodd"
         id="path27" />
    </clipPath>
    <clipPath
       clipPathUnits="userSpaceOnUse"
       id="clipPath28">
      <path
         d="M -0.00426,-0.00201 V 201.26187 H 425.20111 V -0.00201 H -0.00426"
         transform="matrix(1,0,0,-1,-87.496442,90.698542)"
         clip-rule="evenodd"
         id="path28" />
    </clipPath>
    <clipPath
       clipPathUnits="userSpaceOnUse"
       id="clipPath29">
      <path
         d="M -0.00426,-0.00201 V 201.26187 H 425.20111 V -0.00201 H -0.00426"
         transform="matrix(1,0,0,-1,-82.103342,82.097955)"
         clip-rule="evenodd"
         id="path29" />
    </clipPath>
    <clipPath
       clipPathUnits="userSpaceOnUse"
       id="clipPath30">
      <path
         d="M -0.00426,-0.00201 V 201.26187 H 425.20111 V -0.00201 H -0.00426"
         transform="matrix(1,0,0,-1,-59.869691,91.605322)"
         clip-rule="evenodd"
         id="path30" />
    </clipPath>
    <clipPath
       clipPathUnits="userSpaceOnUse"
       id="clipPath31">
      <path
         d="M -0.00426,-0.00201 V 201.26187 H 425.20111 V -0.00201 H -0.00426"
         transform="matrix(1,0,0,-1,-59.869691,114.75011)"
         clip-rule="evenodd"
         id="path31" />
    </clipPath>
    <clipPath
       clipPathUnits="userSpaceOnUse"
       id="clipPath32">
      <path
         d="M -0.00426,-0.00201 V 201.26187 H 425.20111 V -0.00201 H -0.00426"
         transform="matrix(1,0,0,-1,-124.4356,163.03943)"
         clip-rule="evenodd"
         id="path32" />
    </clipPath>
    <clipPath
       clipPathUnits="userSpaceOnUse"
       id="clipPath33">
      <path
         d="M -0.00426,-0.00201 V 201.26187 H 425.20111 V -0.00201 H -0.00426"
         transform="matrix(1,0,0,-1,-293.94742,163.03943)"
         clip-rule="evenodd"
         id="path33" />
    </clipPath>
  </defs>
  <sodipodi:namedview
     id="namedview1"
     pagecolor="#ffffff"
     bordercolor="#000000"
     borderopacity="0.25"
     inkscape:showpageshadow="2"
     inkscape:pageopacity="0.0"
     inkscape:pagecheckerboard="0"
     inkscape:deskcolor="#d1d1d1">
    <inkscape:page
       x="0"
       y="0"
       inkscape:label="1"
       id="page1"
       width="566.92932"
       height="268.34668"
       margin="0"
       bleed="0" />
  </sodipodi:namedview>
  <g
     id="layer-MC0"
     inkscape:groupmode="layer"
     inkscape:label="STABBEANSPR_DIAG">
    <path
       id="path1"
       d="m 262.70834,41.23334 v 3.5433 l 3.06861,-1.77165 47.04132,27.15933 v 7.08661 L 212.59842,19.38896 112.37857,77.25093 v -7.08661 l 47.04135,-27.15933 3.06857,1.77165 v -3.5433 l 50.10993,-28.93099 z"
       style="fill:#e0e0e0;fill-opacity:1;fill-rule:nonzero;stroke:none"
       transform="matrix(1.3333333,0,0,-1.3333333,0,268.34667)" />
    <path
       id="path2"
       d="m 162.48849,41.23334 v 3.5433 l -3.06857,-1.77165 z"
       style="fill:#e0e0e0;fill-opacity:1;fill-rule:nonzero;stroke:none"
       transform="matrix(1.3333333,0,0,-1.3333333,0,268.34667)" />
    <path
       id="path3"
       d="m 265.77695,43.00499 -3.06861,1.77165 v -3.5433 z"
       style="fill:#e0e0e0;fill-opacity:1;fill-rule:nonzero;stroke:none"
       transform="matrix(1.3333333,0,0,-1.3333333,0,268.34667)" />
  </g>
  <path
     id="path4"
     d="m 94.57463,94.14883 v -6.61879 m 0,6.61879 v -3.18896 m 0,3.18896 v 0 l 0.4252,-2.97638 h -0.8504 l 0.4252,2.97638 m 0,-6.61879 v 3.18897 m 0,-3.18897 v 0 l 0.4252,2.97638 h -0.8504 l 0.4252,-2.97638 v -7.08662 m 0,7.08662 v -3.18898 m 0,3.18898 v 0 l 0.4252,-2.97637 h -0.8504 l 0.4252,2.97637 m 0,-7.08662 v 3.18898 m 0,-3.18898 v 0 l 0.4252,2.97638 h -0.8504 l 0.4252,-2.97638 m 17.80394,-19.71847 v 46.28956 M 74.77614,105.5795 V 82.43472 m 0,23.14478 v -3.18898 m 0,3.18898 v 0 l 0.4252,-2.97638 h -0.85039 l 0.42519,2.97638 m 0,-23.14478 v 3.18897 m 0,-3.18897 v 0 l 0.4252,2.97637 h -0.85039 l 0.42519,-2.97637 m 0,46.28955 V 105.5795 m 0,23.14477 v -3.18896 m 0,3.18896 v 0 l 0.4252,-2.97636 h -0.85039 l 0.42519,2.97636 m 0,-23.14477 v 3.18898 m 0,-3.18898 v 0 l 0.4252,2.97638 h -0.85039 l 0.42519,-2.97638 m 137.82228,59.29696 100.21985,-57.86195 m -94.55054,61.13515 34.76776,20.07318 m 65.45209,-77.93515 34.76776,20.07318 m -103.05447,56.22537 100.21985,-57.86197 m -100.21985,57.86197 2.76172,-1.59448"
     style="fill:none;stroke:#000000;stroke-width:0.3685;stroke-linecap:round;stroke-linejoin:round;stroke-miterlimit:10;stroke-dasharray:none;stroke-opacity:1"
     transform="matrix(1.3333333,0,0,-1.3333333,0,268.34667)" />
  <path
     id="path5"
     d="m 250.20087,186.58624 v 0 l 2.79019,-1.11996 -0.42517,-0.73645 -2.36502,1.85641 m 100.21985,-57.86197 -2.76175,1.59452 m 2.76175,-1.59452 v 0 l -2.36503,1.85645 -0.4252,-0.73648 2.79023,-1.11997 M 212.47568,118.51604 v 1.67294 m 0,2.26772 v 2.83464 m 0,2.26771 v 2.83466 m 0,2.26773 v 2.83462 m 0,2.26773 v 2.83463 m 0,2.26773 v 2.83466 m 0,2.2677 v 2.83465 m 0,2.2677 v 2.83466 m 0,2.26773 v 2.83462 m 0,2.26773 v 1.53 m 0,-46.28956 v 0 m 0,46.28956 v 0 M 112.26936,60.6619 l 2.45487,1.41731 m 1.9639,1.13386 2.45488,1.41733 m 1.96389,1.13385 2.45488,1.41733 m 1.9639,1.13385 2.45488,1.41733 m 1.9639,1.13386 2.45486,1.41732 m 1.96393,1.13386 2.45487,1.41731 m 1.96389,1.13387 2.45487,1.41733 m 1.9639,1.13385 2.45489,1.41732 m 1.9639,1.13385 2.45486,1.41733 m 1.9639,1.13387 2.4549,1.41731 m 1.96389,1.13387 2.45487,1.41731 m 1.9639,1.13386 2.45486,1.41733 m 1.96393,1.13385 2.45486,1.41733 m 1.9639,1.13385 2.45486,1.41733 m 1.9639,1.13386 2.4549,1.41732 m 1.96389,1.13386 2.45487,1.41733 m 1.9639,1.13385 2.45489,1.41733 m 1.9639,1.13385 2.45486,1.41733 m 1.9639,1.13385 2.45487,1.41732 m 1.96392,1.13387 2.45487,1.41731 m 1.9639,1.13387 2.45486,1.41732 m 1.9639,1.13385 2.45489,1.41733 m 1.9639,1.13385 2.45487,1.41733 M 112.25583,60.65408 v 0 m 100.21985,57.86196 v 0 l 0.46768,-0.27001 m 1.9639,-1.13386 2.45486,-1.41732 m 1.9639,-1.13386 2.45489,-1.41733 m 1.9639,-1.13385 2.45487,-1.41733"
     style="fill:none;stroke:#000000;stroke-width:0.3685;stroke-linecap:round;stroke-linejoin:round;stroke-miterlimit:10;stroke-dasharray:none;stroke-opacity:1"
     transform="matrix(1.3333333,0,0,-1.3333333,0,268.34667)" />
  <path
     id="path6"
     d="m 228.16357,109.45863 2.4549,-1.41732 m 1.9639,-1.13387 2.45486,-1.41731 m 1.9639,-1.13387 2.45489,-1.41731 m 1.9639,-1.13387 2.45487,-1.41732 m 1.96389,-1.13385 2.45487,-1.41733 m 1.9639,-1.13385 2.45489,-1.41733 m 1.9639,-1.13386 2.45486,-1.41732 m 1.9639,-1.13386 2.45487,-1.41732 m 1.96392,-1.13386 2.45487,-1.41733 m 1.9639,-1.13385 2.45486,-1.41733 m 1.9639,-1.13385 2.45489,-1.41732 m 1.9639,-1.13387 2.45487,-1.41731 m 1.96389,-1.13387 2.4549,-1.41731 m 1.9639,-1.13387 2.45486,-1.41732 m 1.9639,-1.13385 2.45486,-1.41733 m 1.96393,-1.13385 2.45487,-1.41733 m 1.96389,-1.13387 2.45487,-1.41731 m 1.9639,-1.13386 2.45489,-1.41732 m 1.9639,-1.13386 2.45486,-1.41733 m 1.9639,-1.13385 0.57523,-0.33211 m -100.21985,57.86196 v 0 M 312.69553,60.65408 v 0 m -200.4397,0 v 46.28957 M 212.47568,2.79211 V 49.08168 L 112.25583,106.94365 212.47568,164.8056 M 112.25583,60.65408 212.47568,2.79211 m 100.21985,57.86197 v 46.28957 L 212.47568,49.08168 m 0,115.72392 100.21985,-57.86195 M 212.47568,2.79211 312.69553,60.65408"
     style="fill:none;stroke:#000000;stroke-width:0.3685;stroke-linecap:round;stroke-linejoin:round;stroke-miterlimit:10;stroke-dasharray:none;stroke-opacity:1"
     transform="matrix(1.3333333,0,0,-1.3333333,0,268.34667)" />
  <text
     id="text6"
     xml:space="preserve"
     transform="matrix(1.3333333,0,0,1.3333333,286.94729,112.49805)"
     clip-path="url(#clipPath7)"><tspan
       style="font-style:italic;font-variant:normal;font-weight:normal;font-stretch:normal;font-size:10.0071px;font-family:'Palatino Linotype';writing-mode:lr-tb;fill:#000000;fill-opacity:1;fill-rule:nonzero;stroke:none"
       x="0"
       y="0"
       id="tspan6">z</tspan></text>
  <text
     id="text7"
     xml:space="preserve"
     transform="matrix(1.3333333,0,0,1.3333333,309.85471,89.838693)"
     clip-path="url(#clipPath8)"><tspan
       style="font-style:italic;font-variant:normal;font-weight:normal;font-stretch:normal;font-size:10.0071px;font-family:'Palatino Linotype';writing-mode:lr-tb;fill:#000000;fill-opacity:1;fill-rule:nonzero;stroke:none"
       x="0"
       y="0"
       id="tspan7">x</tspan></text>
  <text
     id="text8"
     xml:space="preserve"
     transform="matrix(1.3333333,0,0,1.3333333,251.98205,86.306573)"
     clip-path="url(#clipPath9)"><tspan
       style="font-style:italic;font-variant:normal;font-weight:normal;font-stretch:normal;font-size:10.0071px;font-family:'Palatino Linotype';writing-mode:lr-tb;fill:#000000;fill-opacity:1;fill-rule:nonzero;stroke:none"
       x="0"
       y="0"
       id="tspan8">y</tspan></text>
  <text
     id="text9"
     xml:space="preserve"
     transform="matrix(1.3333333,0,0,1.3333333,205.36155,253.59265)"
     clip-path="url(#clipPath10)"><tspan
       style="font-style:italic;font-variant:normal;font-weight:normal;font-stretch:normal;font-size:10.0071px;font-family:'Palatino Linotype';writing-mode:lr-tb;fill:#000000;fill-opacity:1;fill-rule:nonzero;stroke:none"
       x="0"
       y="0"
       id="tspan9">τ</tspan></text>
  <text
     id="text10"
     xml:space="preserve"
     transform="matrix(1.3333333,0,0,1.3333333,212.00252,259.10447)"
     clip-path="url(#clipPath11)"><tspan
       style="font-style:italic;font-variant:normal;font-weight:normal;font-stretch:normal;font-size:6.00428px;font-family:'Palatino Linotype';writing-mode:lr-tb;fill:#000000;fill-opacity:1;fill-rule:nonzero;stroke:none"
       x="0 2.6659002 5.6680403"
       y="0"
       sodipodi:role="line"
       id="tspan10">zy </tspan></text>
  <text
     id="text11"
     xml:space="preserve"
     transform="matrix(1.3333333,0,0,1.3333333,222.75809,253.59265)"
     clip-path="url(#clipPath12)"><tspan
       style="font-style:italic;font-variant:normal;font-weight:normal;font-stretch:normal;font-size:10.0071px;font-family:'Palatino Linotype';writing-mode:lr-tb;fill:#000000;fill-opacity:1;fill-rule:nonzero;stroke:none"
       x="0 5.0035648"
       y="0"
       sodipodi:role="line"
       id="tspan11">dz</tspan></text>
  <text
     id="text12"
     xml:space="preserve"
     transform="matrix(1.3333333,0,0,1.3333333,367.6938,210.74507)"
     clip-path="url(#clipPath13)"><tspan
       style="font-style:italic;font-variant:normal;font-weight:normal;font-stretch:normal;font-size:10.0071px;font-family:'Palatino Linotype';writing-mode:lr-tb;fill:#000000;fill-opacity:1;fill-rule:nonzero;stroke:none"
       x="0"
       y="0"
       id="tspan12">σ</tspan></text>
  <text
     id="text13"
     xml:space="preserve"
     transform="matrix(1.3333333,0,0,1.3333333,375.98999,216.25688)"
     clip-path="url(#clipPath14)"><tspan
       style="font-style:italic;font-variant:normal;font-weight:normal;font-stretch:normal;font-size:6.00428px;font-family:'Palatino Linotype';writing-mode:lr-tb;fill:#000000;fill-opacity:1;fill-rule:nonzero;stroke:none"
       x="0 3.00214"
       y="0"
       sodipodi:role="line"
       id="tspan13">xx</tspan></text>
  <text
     id="text14"
     xml:space="preserve"
     transform="matrix(1.3333333,0,0,1.3333333,387.82562,210.74507)"
     clip-path="url(#clipPath15)"><tspan
       style="font-style:italic;font-variant:normal;font-weight:normal;font-stretch:normal;font-size:10.0071px;font-family:'Palatino Linotype';writing-mode:lr-tb;fill:#000000;fill-opacity:1;fill-rule:nonzero;stroke:none"
       x="0 5.0035648"
       y="0"
       sodipodi:role="line"
       id="tspan14">dz</tspan></text>
  <text
     id="text15"
     xml:space="preserve"
     transform="matrix(1.3333333,0,0,1.3333333,338.98803,253.59265)"
     clip-path="url(#clipPath16)"><tspan
       style="font-style:italic;font-variant:normal;font-weight:normal;font-stretch:normal;font-size:10.0071px;font-family:'Palatino Linotype';writing-mode:lr-tb;fill:#000000;fill-opacity:1;fill-rule:nonzero;stroke:none"
       x="0"
       y="0"
       id="tspan15">τ</tspan></text>
  <text
     id="text16"
     xml:space="preserve"
     transform="matrix(1.3333333,0,0,1.3333333,345.62899,259.10447)"
     clip-path="url(#clipPath17)"><tspan
       style="font-style:italic;font-variant:normal;font-weight:normal;font-stretch:normal;font-size:6.00428px;font-family:'Palatino Linotype';writing-mode:lr-tb;fill:#000000;fill-opacity:1;fill-rule:nonzero;stroke:none"
       x="0 2.6659002 5.6680403"
       y="0"
       sodipodi:role="line"
       id="tspan16">zx </tspan></text>
  <text
     id="text17"
     xml:space="preserve"
     transform="matrix(1.3333333,0,0,1.3333333,356.05487,253.59265)"
     clip-path="url(#clipPath18)"><tspan
       style="font-style:italic;font-variant:normal;font-weight:normal;font-stretch:normal;font-size:10.0071px;font-family:'Palatino Linotype';writing-mode:lr-tb;fill:#000000;fill-opacity:1;fill-rule:nonzero;stroke:none"
       x="0 5.0035648"
       y="0"
       sodipodi:role="line"
       id="tspan17">dz</tspan></text>
  <text
     id="text18"
     xml:space="preserve"
     transform="matrix(1.3333333,0,0,1.3333333,316.67019,208.0994)"
     clip-path="url(#clipPath19)"><tspan
       style="font-style:italic;font-variant:normal;font-weight:normal;font-stretch:normal;font-size:10.0071px;font-family:'Palatino Linotype';writing-mode:lr-tb;fill:#000000;fill-opacity:1;fill-rule:nonzero;stroke:none"
       x="0"
       y="0"
       id="tspan18">τ</tspan></text>
  <text
     id="text19"
     xml:space="preserve"
     transform="matrix(1.3333333,0,0,1.3333333,323.31115,213.6112)"
     clip-path="url(#clipPath20)"><tspan
       style="font-style:italic;font-variant:normal;font-weight:normal;font-stretch:normal;font-size:6.00428px;font-family:'Palatino Linotype';writing-mode:lr-tb;fill:#000000;fill-opacity:1;fill-rule:nonzero;stroke:none"
       x="0 3.00214 6.0042801"
       y="0"
       sodipodi:role="line"
       id="tspan19">yx </tspan></text>
  <text
     id="text20"
     xml:space="preserve"
     transform="matrix(1.3333333,0,0,1.3333333,334.1994,208.0994)"
     clip-path="url(#clipPath21)"><tspan
       style="font-style:italic;font-variant:normal;font-weight:normal;font-stretch:normal;font-size:10.0071px;font-family:'Palatino Linotype';writing-mode:lr-tb;fill:#000000;fill-opacity:1;fill-rule:nonzero;stroke:none"
       x="0 5.0035648"
       y="0"
       sodipodi:role="line"
       id="tspan20">dz</tspan></text>
  <text
     id="text21"
     xml:space="preserve"
     transform="matrix(1.3333333,0,0,1.3333333,234.06732,210.74507)"
     clip-path="url(#clipPath22)"><tspan
       style="font-style:italic;font-variant:normal;font-weight:normal;font-stretch:normal;font-size:10.0071px;font-family:'Palatino Linotype';writing-mode:lr-tb;fill:#000000;fill-opacity:1;fill-rule:nonzero;stroke:none"
       x="0"
       y="0"
       id="tspan21">τ</tspan></text>
  <text
     id="text22"
     xml:space="preserve"
     transform="matrix(1.3333333,0,0,1.3333333,240.70831,216.25688)"
     clip-path="url(#clipPath23)"><tspan
       style="font-style:italic;font-variant:normal;font-weight:normal;font-stretch:normal;font-size:6.00428px;font-family:'Palatino Linotype';writing-mode:lr-tb;fill:#000000;fill-opacity:1;fill-rule:nonzero;stroke:none"
       x="0 3.00214 6.0042801"
       y="0"
       sodipodi:role="line"
       id="tspan22">xy </tspan></text>
  <text
     id="text23"
     xml:space="preserve"
     transform="matrix(1.3333333,0,0,1.3333333,251.59655,210.74507)"
     clip-path="url(#clipPath24)"><tspan
       style="font-style:italic;font-variant:normal;font-weight:normal;font-stretch:normal;font-size:10.0071px;font-family:'Palatino Linotype';writing-mode:lr-tb;fill:#000000;fill-opacity:1;fill-rule:nonzero;stroke:none"
       x="0 5.0035648"
       y="0"
       sodipodi:role="line"
       id="tspan23">dz</tspan></text>
  <text
     id="text24"
     xml:space="preserve"
     transform="matrix(1.3333333,0,0,1.3333333,154.82179,238.96697)"
     clip-path="url(#clipPath25)"><tspan
       style="font-style:italic;font-variant:normal;font-weight:normal;font-stretch:normal;font-size:10.0071px;font-family:'Palatino Linotype';writing-mode:lr-tb;fill:#000000;fill-opacity:1;fill-rule:nonzero;stroke:none"
       x="0"
       y="0"
       id="tspan24">σ</tspan></text>
  <text
     id="text25"
     xml:space="preserve"
     transform="matrix(1.3333333,0,0,1.3333333,163.11797,244.47879)"
     clip-path="url(#clipPath26)"><tspan
       style="font-style:italic;font-variant:normal;font-weight:normal;font-stretch:normal;font-size:6.00428px;font-family:'Palatino Linotype';writing-mode:lr-tb;fill:#000000;fill-opacity:1;fill-rule:nonzero;stroke:none"
       x="0 3.00214"
       y="0"
       sodipodi:role="line"
       id="tspan25">yy</tspan></text>
  <text
     id="text26"
     xml:space="preserve"
     transform="matrix(1.3333333,0,0,1.3333333,175.61302,238.96697)"
     clip-path="url(#clipPath27)"><tspan
       style="font-style:italic;font-variant:normal;font-weight:normal;font-stretch:normal;font-size:10.0071px;font-family:'Palatino Linotype';writing-mode:lr-tb;fill:#000000;fill-opacity:1;fill-rule:nonzero;stroke:none"
       x="0 5.0035648"
       y="0"
       sodipodi:role="line"
       id="tspan26">dz</tspan></text>
  <text
     id="text27"
     xml:space="preserve"
     transform="matrix(1.3333333,0,0,1.3333333,116.66192,147.41528)"
     clip-path="url(#clipPath28)"><tspan
       style="font-style:italic;font-variant:normal;font-weight:normal;font-stretch:normal;font-size:10.0071px;font-family:'Palatino Linotype';writing-mode:lr-tb;fill:#000000;fill-opacity:1;fill-rule:nonzero;stroke:none"
       x="0"
       y="0"
       id="tspan27">z</tspan></text>
  <text
     id="text28"
     xml:space="preserve"
     transform="matrix(1.3333333,0,0,1.3333333,109.47112,158.88273)"
     clip-path="url(#clipPath29)"><tspan
       style="font-style:italic;font-variant:normal;font-weight:normal;font-stretch:normal;font-size:10.0071px;font-family:'Palatino Linotype';writing-mode:lr-tb;fill:#000000;fill-opacity:1;fill-rule:nonzero;stroke:none"
       x="0 5.0035648"
       y="0"
       sodipodi:role="line"
       id="tspan28">dz</tspan></text>
  <text
     id="text29"
     xml:space="preserve"
     transform="matrix(1.3333333,0,0,1.3333333,79.826253,146.20624)"
     clip-path="url(#clipPath30)"><tspan
       style="font-style:italic;font-variant:normal;font-weight:normal;font-stretch:normal;font-size:10.0071px;font-family:'Palatino Linotype';writing-mode:lr-tb;fill:#000000;fill-opacity:1;fill-rule:nonzero;stroke:none"
       x="0 5.0035648 7.9656754"
       y="0"
       sodipodi:role="line"
       id="tspan29">h/2</tspan></text>
  <text
     id="text30"
     xml:space="preserve"
     transform="matrix(1.3333333,0,0,1.3333333,79.826253,115.34652)"
     clip-path="url(#clipPath31)"><tspan
       style="font-style:italic;font-variant:normal;font-weight:normal;font-stretch:normal;font-size:10.0071px;font-family:'Palatino Linotype';writing-mode:lr-tb;fill:#000000;fill-opacity:1;fill-rule:nonzero;stroke:none"
       x="0 5.0035648 7.9656754"
       y="0"
       sodipodi:role="line"
       id="tspan30">h/2</tspan></text>
  <text
     id="text31"
     xml:space="preserve"
     transform="matrix(1.3333333,0,0,1.3333333,165.91413,50.96076)"
     clip-path="url(#clipPath32)"><tspan
       style="font-style:italic;font-variant:normal;font-weight:normal;font-stretch:normal;font-size:10.0071px;font-family:'Palatino Linotype';writing-mode:lr-tb;fill:#000000;fill-opacity:1;fill-rule:nonzero;stroke:none"
       x="0"
       y="0"
       id="tspan31">1</tspan></text>
  <text
     id="text32"
     xml:space="preserve"
     transform="matrix(1.3333333,0,0,1.3333333,391.92988,50.96076)"
     clip-path="url(#clipPath33)"><tspan
       style="font-style:italic;font-variant:normal;font-weight:normal;font-stretch:normal;font-size:10.0071px;font-family:'Palatino Linotype';writing-mode:lr-tb;fill:#000000;fill-opacity:1;fill-rule:nonzero;stroke:none"
       x="0"
       y="0"
       id="tspan32">1</tspan></text>
  <path
     id="path34"
     d="m 212.59842,141.73169 v -22.17687 m 0,5.95275 v 0.4252 m 0,-6.37795 v 0 l 0.8504,5.95275 h -1.70077 l 0.85037,-5.95275"
     style="fill:none;stroke:#000000;stroke-width:0.3685;stroke-linecap:round;stroke-linejoin:round;stroke-miterlimit:10;stroke-dasharray:none;stroke-opacity:1"
     transform="matrix(1.3333333,0,0,-1.3333333,0,268.34667)" />
  <path
     id="path35"
     d="m 211.74805,125.50757 0.85037,-5.95275 0.8504,5.95275 z"
     style="fill:#000000;fill-opacity:1;fill-rule:nonzero;stroke:none"
     transform="matrix(1.3333333,0,0,-1.3333333,0,268.34667)" />
  <path
     id="path36"
     d="m 212.59842,141.73169 19.20575,-11.08844 m -5.15524,2.97638 -0.36823,0.21261 m 5.52347,-3.18899 v 0 l -4.73004,3.71286 -0.85041,-1.47293 5.58045,-2.23993"
     style="fill:none;stroke:#000000;stroke-width:0.3685;stroke-linecap:round;stroke-linejoin:round;stroke-miterlimit:10;stroke-dasharray:none;stroke-opacity:1"
     transform="matrix(1.3333333,0,0,-1.3333333,0,268.34667)" />
  <path
     id="path37"
     d="m 226.22372,132.88318 5.58045,-2.23993 -4.73004,3.71286 z"
     style="fill:#000000;fill-opacity:1;fill-rule:nonzero;stroke:none"
     transform="matrix(1.3333333,0,0,-1.3333333,0,268.34667)" />
  <path
     id="path38"
     d="M 212.59842,141.73169 193.3927,130.64325 m 5.15524,2.97638 0.36823,0.21261 m -5.52347,-3.18899 v 0 l 5.58041,2.23993 -0.85037,1.4729 -4.73004,-3.71283"
     style="fill:none;stroke:#000000;stroke-width:0.3685;stroke-linecap:round;stroke-linejoin:round;stroke-miterlimit:10;stroke-dasharray:none;stroke-opacity:1"
     transform="matrix(1.3333333,0,0,-1.3333333,0,268.34667)" />
  <path
     id="path39"
     d="m 198.12274,134.35608 -4.73004,-3.71283 5.58041,2.23993 z"
     style="fill:#000000;fill-opacity:1;fill-rule:nonzero;stroke:none"
     transform="matrix(1.3333333,0,0,-1.3333333,0,268.34667)" />
  <path
     id="path40"
     d="M 112.37857,70.16432 212.59842,12.30235 M 112.37857,77.25093 212.59842,19.38896 m -50.10993,25.38768 24.54877,-14.17323 m -5.15524,2.97638 -0.36823,0.2126 m 5.52347,-3.18898 v 0 l -4.73004,3.71284 -0.8504,-1.47291 5.58044,-2.23993"
     style="fill:none;stroke:#000000;stroke-width:0.3685;stroke-linecap:round;stroke-linejoin:round;stroke-miterlimit:10;stroke-dasharray:none;stroke-opacity:1"
     transform="matrix(1.3333333,0,0,-1.3333333,0,268.34667)" />
  <path
     id="path41"
     d="m 181.45682,32.84334 5.58044,-2.23993 -4.73004,3.71284 z"
     style="fill:#000000;fill-opacity:1;fill-rule:nonzero;stroke:none"
     transform="matrix(1.3333333,0,0,-1.3333333,0,268.34667)" />
  <path
     id="path42"
     d="M 162.48849,44.77664 137.93976,30.60341 m 5.15524,2.97638 0.36823,0.2126 m -5.52347,-3.18898 v 0 l 5.58041,2.23991 -0.85037,1.47292 -4.73004,-3.71283"
     style="fill:none;stroke:#000000;stroke-width:0.3685;stroke-linecap:round;stroke-linejoin:round;stroke-miterlimit:10;stroke-dasharray:none;stroke-opacity:1"
     transform="matrix(1.3333333,0,0,-1.3333333,0,268.34667)" />
  <path
     id="path43"
     d="m 142.6698,34.31624 -4.73004,-3.71283 5.58041,2.23991 z"
     style="fill:#000000;fill-opacity:1;fill-rule:nonzero;stroke:none"
     transform="matrix(1.3333333,0,0,-1.3333333,0,268.34667)" />
  <path
     id="path44"
     d="M 162.48849,44.77664 V 16.43019 m 0,5.95274 v 0.42521 m 0,-6.37795 v 0 l 0.85041,5.95274 h -1.70078 l 0.85037,-5.95274"
     style="fill:none;stroke:#000000;stroke-width:0.3685;stroke-linecap:round;stroke-linejoin:round;stroke-miterlimit:10;stroke-dasharray:none;stroke-opacity:1"
     transform="matrix(1.3333333,0,0,-1.3333333,0,268.34667)" />
  <path
     id="path45"
     d="m 161.63812,22.38293 0.85037,-5.95274 0.85041,5.95274 z"
     style="fill:#000000;fill-opacity:1;fill-rule:nonzero;stroke:none"
     transform="matrix(1.3333333,0,0,-1.3333333,0,268.34667)" />
  <path
     id="path46"
     d="M 212.59842,12.30235 312.81827,70.16432 M 212.59842,19.38896 312.81827,77.25093 M 262.70834,44.77664 287.25711,30.60341 m -5.15524,2.97638 -0.36823,0.2126 m 5.52347,-3.18898 v 0 l -4.73004,3.71284 -0.8504,-1.47291 5.58044,-2.23993"
     style="fill:none;stroke:#000000;stroke-width:0.3685;stroke-linecap:round;stroke-linejoin:round;stroke-miterlimit:10;stroke-dasharray:none;stroke-opacity:1"
     transform="matrix(1.3333333,0,0,-1.3333333,0,268.34667)" />
  <path
     id="path47"
     d="m 281.67667,32.84334 5.58044,-2.23993 -4.73004,3.71284 z"
     style="fill:#000000;fill-opacity:1;fill-rule:nonzero;stroke:none"
     transform="matrix(1.3333333,0,0,-1.3333333,0,268.34667)" />
  <path
     id="path48"
     d="M 262.70834,44.77664 238.15961,30.60341 m 5.15524,2.97638 0.36822,0.2126 m -5.52346,-3.18898 v 0 l 5.58044,2.23991 -0.8504,1.47292 -4.73004,-3.71283"
     style="fill:none;stroke:#000000;stroke-width:0.3685;stroke-linecap:round;stroke-linejoin:round;stroke-miterlimit:10;stroke-dasharray:none;stroke-opacity:1"
     transform="matrix(1.3333333,0,0,-1.3333333,0,268.34667)" />
  <path
     id="path49"
     d="m 242.88965,34.31624 -4.73004,-3.71283 5.58044,2.23991 z"
     style="fill:#000000;fill-opacity:1;fill-rule:nonzero;stroke:none"
     transform="matrix(1.3333333,0,0,-1.3333333,0,268.34667)" />
  <path
     id="path50"
     d="M 262.70834,44.77664 V 16.43019 m 0,5.95274 v 0.42521 m 0,-6.37795 v 0 l 0.85041,5.95274 h -1.70078 l 0.85037,-5.95274"
     style="fill:none;stroke:#000000;stroke-width:0.3685;stroke-linecap:round;stroke-linejoin:round;stroke-miterlimit:10;stroke-dasharray:none;stroke-opacity:1"
     transform="matrix(1.3333333,0,0,-1.3333333,0,268.34667)" />
  <path
     id="path51"
     d="m 261.85797,22.38293 0.85037,-5.95274 0.85041,5.95274 z"
     style="fill:#000000;fill-opacity:1;fill-rule:nonzero;stroke:none"
     transform="matrix(1.3333333,0,0,-1.3333333,0,268.34667)" />
  <path
     id="path52"
     d="m 312.81827,77.25093 v -7.08661 m -200.4397,13.70542 0.88475,-0.51082 m 4.17328,-2.40944 2.45488,-1.41733 m 4.17329,-2.40945 2.45487,-1.41732 m 4.17329,-2.40945 2.45487,-1.41733 m 4.17331,-2.40944 2.45486,-1.41733 m 4.17328,-2.40945 2.45489,-1.41731 m 4.17328,-2.40946 2.45487,-1.41733 m 4.17331,-2.40943 2.45486,-1.41733 m 4.17328,-2.40946 2.4549,-1.41731 m 4.17327,-2.40945 2.45487,-1.41733 m 4.17331,-2.40944 2.45486,-1.41733 m 4.17328,-2.40945 2.4549,-1.41732 m 4.17328,-2.40945 2.45486,-1.41733 m 4.17331,-2.40944 2.45486,-1.41732 m 4.17328,-2.40946 2.4549,-1.41731 m 4.17328,-2.40946 2.36752,-1.36689 m -97.3712,56.2173 0.24548,-0.14174 m 6.38268,-3.68505 0.2455,-0.14172 m 6.38267,-3.68504 0.24548,-0.14173 m 6.38269,-3.68504 0.24549,-0.14174 m 6.38266,-3.68504 0.24548,-0.14172 m 6.38269,-3.68505 0.24549,-0.14174 m 6.38266,-3.68503 0.24551,-0.14173 m 6.38266,-3.68505 0.24548,-0.14172 m 6.38269,-3.68504 0.24549,-0.14173 m 6.38266,-3.68504 0.24551,-0.14174 m 6.38266,-3.68504 0.24548,-0.14173 m 6.38269,-3.68504 0.24549,-0.14172 m 6.38266,-3.68505 0.24548,-0.14174 m 6.38269,-3.68502 0.24548,-0.14174 m 6.38269,-3.68505 0.24549,-0.14172 m -95.88843,55.36121 v 0 M 212.59842,26.00777 v 0 m 1.62173,0.93631 2.45487,1.41731 m 4.17331,2.40945 2.45486,1.41733 m 4.17328,2.40944 2.4549,1.41733 m 4.17327,2.40945 2.45487,1.41732 m 4.17331,2.40945 2.45486,1.41733 m 4.17328,2.40944 2.4549,1.41732 m 4.17328,2.40946 2.45486,1.41731 m 4.17328,2.40946 2.45489,1.41732 m 4.17328,2.40944 2.45487,1.41733 m 4.17331,2.40944 2.45486,1.41733 m 4.17328,2.40945 2.4549,1.41733 m 4.17327,2.40944 2.45487,1.41733 m 4.17331,2.40945 2.45486,1.41731 m 4.17328,2.40946 2.4549,1.41733 m 4.17327,2.40944 2.45487,1.41732 m -90.83035,-52.44095 0.24548,0.14173"
     style="fill:none;stroke:#000000;stroke-width:0.3685;stroke-linecap:round;stroke-linejoin:round;stroke-miterlimit:10;stroke-dasharray:none;stroke-opacity:1"
     transform="matrix(1.3333333,0,0,-1.3333333,0,268.34667)" />
  <path
     id="path53"
     d="m 225.26709,33.32202 0.24548,0.14174 m 6.38269,3.68504 0.24549,0.14173 m 6.38266,3.68504 0.24551,0.14172 m 6.38266,3.68505 0.24548,0.14174 m 6.38269,3.68502 0.24549,0.14174 m 6.38266,3.68505 0.24548,0.14172 m 6.38269,3.68504 0.24549,0.14174 m 6.38266,3.68503 0.24551,0.14174 m 6.38266,3.68504 0.24548,0.14173 m 6.38269,3.68504 0.24549,0.14174 m 6.38266,3.68503 0.24548,0.14174 m 6.38269,3.68504 0.24548,0.14172 m 6.38269,3.68505 0.24549,0.14174 m 6.38266,3.68502 0.24548,0.14174 M 212.59842,26.00777 v 0 m 100.21985,57.86197 v 0 m -98.87461,57.08528 2.4549,-1.41733 m 4.17328,-2.40946 2.45486,-1.41732 m 4.17331,-2.40943 2.45487,-1.41732 m 4.17328,-2.40946 2.45489,-1.41733 m 4.17328,-2.40945 2.45486,-1.41731 m 4.17331,-2.40946 2.45487,-1.41733 m 4.17328,-2.40944 2.45486,-1.41732 m 4.17331,-2.40944 2.45486,-1.41733 m 4.17328,-2.40945 2.4549,-1.41732 m 4.17328,-2.40945 2.45486,-1.41733 m 4.17331,-2.40944 2.45487,-1.41733 m 4.17327,-2.40945 2.4549,-1.41731 m 4.17328,-2.40946 2.45486,-1.41733 m 4.17331,-2.40943 2.45487,-1.41733 m 4.17328,-2.40946 2.45489,-1.41731 m -90.83038,52.44095 0.24548,-0.14172 m 6.38269,-3.68506 0.24548,-0.14173 m 6.38266,-3.68502 0.24549,-0.14176 m 6.38269,-3.68503 0.24548,-0.14174 m 6.38266,-3.68504 0.24552,-0.14172 m 6.38266,-3.68505 0.24548,-0.14174 m 6.38266,-3.68502 0.24551,-0.14174 m 6.38266,-3.68505 0.24549,-0.14172 m 6.38269,-3.68504 0.24548,-0.14174 m 6.38266,-3.68503 0.24551,-0.14174 m 6.38266,-3.68504 0.24549,-0.14173 m 6.38269,-3.68504 0.24548,-0.14172 m 6.38266,-3.68505 0.24548,-0.14173 m 6.38269,-3.68505 0.24549,-0.14172 m 6.38269,-3.68504 0.24548,-0.14173 m -98.8038,57.04439 v 0 M 312.81827,83.86974 v 0 m -200.4397,0 1.16122,0.67042 m 4.1733,2.40946 2.45486,1.41732"
     style="fill:none;stroke:#000000;stroke-width:0.3685;stroke-linecap:round;stroke-linejoin:round;stroke-miterlimit:10;stroke-dasharray:none;stroke-opacity:1"
     transform="matrix(1.3333333,0,0,-1.3333333,0,268.34667)" />
  <path
     id="path54"
     d="m 124.34125,90.77638 2.45488,1.41733 m 4.17329,2.40945 2.45487,1.41732 m 4.17327,2.40945 2.4549,1.41733 m 4.17328,2.40944 2.45486,1.41733 m 4.17331,2.40944 2.45487,1.41732 m 4.17328,2.40946 2.45489,1.41731 m 4.17328,2.40945 2.45486,1.41733 m 4.17331,2.40944 2.45487,1.41733 m 4.17328,2.40945 2.45489,1.41732 m 4.17328,2.40945 2.45486,1.41733 m 4.17331,2.40944 2.45487,1.41733 m 4.17328,2.40945 2.45489,1.41733 m 4.17328,2.40945 2.45487,1.4173 m 4.17327,2.40945 2.09107,1.20728 m -97.09473,-56.05766 0.24549,0.14172 m 6.38269,3.68504 0.24548,0.14174 m 6.38269,3.68503 0.24548,0.14174 m 6.38266,3.68504 0.24549,0.14173 m 6.38269,3.68504 0.24548,0.14174 m 6.38266,3.68503 0.24551,0.14174 m 6.38266,3.68504 0.24549,0.14172 m 6.38269,3.68505 0.24548,0.14173 m 6.38266,3.68503 0.24552,0.14174 m 6.38266,3.68504 0.24548,0.14173 m 6.38269,3.68504 0.24548,0.14173 m 6.38266,3.68504 0.24549,0.14174 m 6.38269,3.68503 0.24548,0.14175 m 6.38269,3.68503 0.24548,0.14172 m 6.38266,3.68506 0.24549,0.14172 M 112.37857,83.86974 v 0 m 100.21985,57.86195 v 0 M 74.77614,128.72427 174.996,186.58624 m -100.21986,-57.86197 2.76173,1.59452 m -2.76173,-1.59452 v 0 l 2.36502,1.85645 0.4252,-0.73648 -2.79022,-1.11997 m 100.21986,57.86197 -2.76172,-1.59448 m 2.76172,1.59448 v 0 l -2.79022,-1.11996 0.4252,-0.73645 2.36502,1.85641 M 92.11975,81.86075 106.70927,73.43748 M 92.11975,88.94736 106.70927,80.52409 M 92.11975,95.56616 106.70927,87.1429 m 65.45208,101.07994 34.76779,-20.07318 M 71.9415,130.36087 106.70927,110.28769 M 71.9415,107.21608 99.56412,91.26816 M 71.9415,84.0713 106.70927,63.99811"
     style="fill:none;stroke:#000000;stroke-width:0.3685;stroke-linecap:round;stroke-linejoin:round;stroke-miterlimit:10;stroke-dasharray:none;stroke-opacity:1"
     transform="matrix(1.3333333,0,0,-1.3333333,0,268.34667)" />
</svg>
