<?xml version="1.0" encoding="UTF-8" standalone="no"?>
<!-- Created with Inkscape (http://www.inkscape.org/) -->

<svg
   version="1.1"
   id="svg1"
   width="566.92932"
   height="188.976"
   viewBox="0 0 566.92932 188.976"
   sodipodi:docname="allg_sandwich_kruemmung.pdf"
   xmlns:inkscape="http://www.inkscape.org/namespaces/inkscape"
   xmlns:sodipodi="http://sodipodi.sourceforge.net/DTD/sodipodi-0.dtd"
   xmlns="http://www.w3.org/2000/svg"
   xmlns:svg="http://www.w3.org/2000/svg">
  <defs
     id="defs1">
    <clipPath
       clipPathUnits="userSpaceOnUse"
       id="clipPath3">
      <path
         d="M -0.00426,-0.00142 V 141.7337 H 425.20111 V -0.00142 H -0.00426"
         transform="matrix(1,0,0,-1,-295.61952,83.258642)"
         clip-rule="evenodd"
         id="path3" />
    </clipPath>
    <clipPath
       clipPathUnits="userSpaceOnUse"
       id="clipPath4">
      <path
         d="M -0.00426,-0.00142 V 141.7337 H 425.20111 V -0.00142 H -0.00426"
         transform="matrix(1,0,0,-1,-301.55519,79.124782)"
         clip-rule="evenodd"
         id="path4" />
    </clipPath>
    <clipPath
       clipPathUnits="userSpaceOnUse"
       id="clipPath5">
      <path
         d="M -0.00426,-0.00142 V 141.7337 H 425.20111 V -0.00142 H -0.00426"
         transform="matrix(1,0,0,-1,-300.34392,70.195652)"
         clip-rule="evenodd"
         id="path5" />
    </clipPath>
    <clipPath
       clipPathUnits="userSpaceOnUse"
       id="clipPath6">
      <path
         d="M -0.00426,-0.00142 V 141.7337 H 425.20111 V -0.00142 H -0.00426"
         transform="matrix(1,0,0,-1,-165.15106,24.501638)"
         clip-rule="evenodd"
         id="path6" />
    </clipPath>
    <clipPath
       clipPathUnits="userSpaceOnUse"
       id="clipPath7">
      <path
         d="M -0.00426,-0.00142 V 141.7337 H 425.20111 V -0.00142 H -0.00426"
         transform="matrix(1,0,0,-1,-171.26766,20.367781)"
         clip-rule="evenodd"
         id="path7" />
    </clipPath>
    <clipPath
       clipPathUnits="userSpaceOnUse"
       id="clipPath8">
      <path
         d="M -0.00426,-0.00142 V 141.7337 H 425.20111 V -0.00142 H -0.00426"
         transform="matrix(1,0,0,-1,-217.78081,133.69218)"
         clip-rule="evenodd"
         id="path8" />
    </clipPath>
    <clipPath
       clipPathUnits="userSpaceOnUse"
       id="clipPath9">
      <path
         d="M -0.00426,-0.00142 V 141.7337 H 425.20111 V -0.00142 H -0.00426"
         transform="matrix(1,0,0,-1,-223.89742,129.55833)"
         clip-rule="evenodd"
         id="path9" />
    </clipPath>
    <clipPath
       clipPathUnits="userSpaceOnUse"
       id="clipPath10">
      <path
         d="M -0.00426,-0.00142 V 141.7337 H 425.20111 V -0.00142 H -0.00426"
         transform="matrix(1,0,0,-1,-141.51882,69.862292)"
         clip-rule="evenodd"
         id="path10" />
    </clipPath>
    <clipPath
       clipPathUnits="userSpaceOnUse"
       id="clipPath11">
      <path
         d="M -0.00426,-0.00142 V 141.7337 H 425.20111 V -0.00142 H -0.00426"
         transform="matrix(1,0,0,-1,-141.51882,55.689061)"
         clip-rule="evenodd"
         id="path11" />
    </clipPath>
    <clipPath
       clipPathUnits="userSpaceOnUse"
       id="clipPath12">
      <path
         d="M -0.00426,-0.00142 V 141.7337 H 425.20111 V -0.00142 H -0.00426"
         transform="matrix(1,0,0,-1,-332.27216,128.02289)"
         clip-rule="evenodd"
         id="path12" />
    </clipPath>
    <clipPath
       clipPathUnits="userSpaceOnUse"
       id="clipPath13">
      <path
         d="M -0.00426,-0.00142 V 141.7337 H 425.20111 V -0.00142 H -0.00426"
         transform="matrix(1,0,0,-1,-338.38876,123.88904)"
         clip-rule="evenodd"
         id="path13" />
    </clipPath>
    <clipPath
       clipPathUnits="userSpaceOnUse"
       id="clipPath14">
      <path
         d="M -0.00426,-0.00142 V 141.7337 H 425.20111 V -0.00142 H -0.00426"
         transform="matrix(1,0,0,-1,-264.3217,18.896978)"
         clip-rule="evenodd"
         id="path14" />
    </clipPath>
    <clipPath
       clipPathUnits="userSpaceOnUse"
       id="clipPath15">
      <path
         d="M -0.00426,-0.00142 V 141.7337 H 425.20111 V -0.00142 H -0.00426"
         transform="matrix(1,0,0,-1,-270.43831,14.76312)"
         clip-rule="evenodd"
         id="path15" />
    </clipPath>
    <clipPath
       clipPathUnits="userSpaceOnUse"
       id="clipPath18">
      <path
         d="M -0.00426,-0.00142 V 141.7337 H 425.20111 V -0.00142 H -0.00426"
         transform="matrix(1,0,0,-1,-376.07197,66.685449)"
         clip-rule="evenodd"
         id="path18" />
    </clipPath>
    <clipPath
       clipPathUnits="userSpaceOnUse"
       id="clipPath19">
      <path
         d="M -0.00426,-0.00142 V 141.7337 H 425.20111 V -0.00142 H -0.00426"
         transform="matrix(1,0,0,-1,-382.35944,62.551592)"
         clip-rule="evenodd"
         id="path19" />
    </clipPath>
  </defs>
  <sodipodi:namedview
     id="namedview1"
     pagecolor="#ffffff"
     bordercolor="#000000"
     borderopacity="0.25"
     inkscape:showpageshadow="2"
     inkscape:pageopacity="0.0"
     inkscape:pagecheckerboard="0"
     inkscape:deskcolor="#d1d1d1">
    <inkscape:page
       x="0"
       y="0"
       inkscape:label="1"
       id="page1"
       width="566.92932"
       height="188.976"
       margin="0"
       bleed="0" />
  </sodipodi:namedview>
  <g
     id="g1"
     inkscape:groupmode="layer"
     inkscape:label="1">
    <path
       id="path1"
       d="m 198.4252,125.23463 h 4.25199 m 2.83462,0 h 4.25198 m 2.83463,0 h 4.25198 m 2.83466,0 h 4.25195 m 2.83466,0 h 4.25195 m -32.59857,0 v 0 m 34.01575,0 v 0 m 0,-11.33857 v 3.74174 m 0,2.83464 v 4.25197 m 0,-10.82835 v 0 m 0,11.33857 v 0 m -34.0156,-11.33857 h 4.25199 m 2.83462,0 h 4.25198 m 2.83463,0 h 4.25198 m 2.83466,0 h 4.25195 m 2.83466,0 h 4.25195 m -32.59857,0 v 0 m 34.01575,0 v 0 m -34.01575,0 v 3.74174 m 0,2.83464 v 4.25197 m 0,-10.82835 v 0 m 0,11.33857 v 0 M 164.4093,17.00786 h 2.83481 m 2.83463,0 h 4.25198 m 2.83465,0 h 4.25196 m 2.83465,0 h 4.25196 m 2.83465,0 h 4.25196 m -31.18125,0 v 0 m 34.01575,0 v 0 m 0,-9.92125 v 4.25197 m 0,2.83465 v 2.83463 m 0,-11.33858 v 0 m 0,11.33858 v 0 M 164.4093,5.66928 h 2.83481 m 2.83463,0 h 4.25198 m 2.83465,0 h 4.25196 m 2.83465,0 h 4.25196 m 2.83465,0 h 4.25196 m -31.18125,0 v 0 m 34.01575,0 v 0 M 164.4093,7.08661 v 4.25197 m 0,2.83465 v 2.83463 m 0,-11.33858 v 0 m 0,11.33858 v 0 M 115.75189,71.3363 h 1.88591 m 2.83464,0 h 4.25197 m 2.83464,0 h 4.25199 m 2.83465,0 h 1.7991 m -20.6929,0 v 0 m 20.6929,0 v 0"
       style="fill:none;stroke:#000000;stroke-width:0.3685;stroke-linecap:round;stroke-linejoin:round;stroke-miterlimit:10;stroke-dasharray:none;stroke-opacity:1"
       transform="matrix(1.3333333,0,0,-1.3333333,0,188.976)" />
    <path
       id="path2"
       d="m 115.75189,57.92844 h 20.6929 m 210.48734,61.63691 -68.0315,-108.22677 m 34.01575,0 v 108.22677 h 34.01575 M 278.90063,11.33858 h 34.01575 m -16.74881,64.69949 h 10.48819 M 56.69276,42.7748 V 88.12912 M 198.42505,42.7748 V 88.12912 H 56.69276 m 0,-45.35432 H 198.42505 M 56.69276,5.66928 V 17.00786 M 198.42505,5.66928 V 17.00786 H 56.69276 m 0,-11.33858 H 198.42505 M 56.69276,113.89606 v 11.33857 m 141.73229,-11.33857 v 11.33857 H 56.69276 m 0,-11.33857 h 141.73229"
       style="fill:none;stroke:#000000;stroke-width:0.3685;stroke-linecap:round;stroke-linejoin:round;stroke-miterlimit:10;stroke-dasharray:none;stroke-opacity:1"
       transform="matrix(1.3333333,0,0,-1.3333333,0,188.976)" />
    <text
       id="text2"
       xml:space="preserve"
       transform="matrix(1.3333333,0,0,1.3333333,394.15935,77.96448)"
       clip-path="url(#clipPath3)"><tspan
         style="font-style:italic;font-variant:normal;font-weight:normal;font-stretch:normal;font-size:10.0071px;font-family:'Palatino Linotype';writing-mode:lr-tb;fill:#000000;fill-opacity:1;fill-rule:nonzero;stroke:none"
         x="0"
         y="0"
         id="tspan2">χ</tspan></text>
    <text
       id="text3"
       xml:space="preserve"
       transform="matrix(1.3333333,0,0,1.3333333,402.07357,83.476293)"
       clip-path="url(#clipPath4)"><tspan
         style="font-style:italic;font-variant:normal;font-weight:normal;font-stretch:normal;font-size:6.00428px;font-family:'Palatino Linotype';writing-mode:lr-tb;fill:#000000;fill-opacity:1;fill-rule:nonzero;stroke:none"
         x="0 3.00214"
         y="0"
         sodipodi:role="line"
         id="tspan3">xy</tspan></text>
    <text
       id="text4"
       xml:space="preserve"
       transform="matrix(1.3333333,0,0,1.3333333,400.45855,95.3818)"
       clip-path="url(#clipPath5)"><tspan
         style="font-style:italic;font-variant:normal;font-weight:normal;font-stretch:normal;font-size:6.00428px;font-family:'Palatino Linotype';writing-mode:lr-tb;fill:#000000;fill-opacity:1;fill-rule:nonzero;stroke:none"
         x="0"
         y="0"
         id="tspan4">2</tspan></text>
    <text
       id="text5"
       xml:space="preserve"
       transform="matrix(1.3333333,0,0,1.3333333,220.20141,156.30715)"
       clip-path="url(#clipPath6)"><tspan
         style="font-style:italic;font-variant:normal;font-weight:normal;font-stretch:normal;font-size:10.0071px;font-family:'Palatino Linotype';writing-mode:lr-tb;fill:#000000;fill-opacity:1;fill-rule:nonzero;stroke:none"
         x="0"
         y="0"
         id="tspan5">γ</tspan></text>
    <text
       id="text6"
       xml:space="preserve"
       transform="matrix(1.3333333,0,0,1.3333333,228.35688,161.81896)"
       clip-path="url(#clipPath7)"><tspan
         style="font-style:italic;font-variant:normal;font-weight:normal;font-stretch:normal;font-size:6.00428px;font-family:'Palatino Linotype';writing-mode:lr-tb;fill:#000000;fill-opacity:1;fill-rule:nonzero;stroke:none"
         x="0 3.00214 6.0042801"
         y="0"
         sodipodi:role="line"
         id="tspan6">xyb</tspan></text>
    <text
       id="text7"
       xml:space="preserve"
       transform="matrix(1.3333333,0,0,1.3333333,290.37441,10.71976)"
       clip-path="url(#clipPath8)"><tspan
         style="font-style:italic;font-variant:normal;font-weight:normal;font-stretch:normal;font-size:10.0071px;font-family:'Palatino Linotype';writing-mode:lr-tb;fill:#000000;fill-opacity:1;fill-rule:nonzero;stroke:none"
         x="0"
         y="0"
         id="tspan7">γ</tspan></text>
    <text
       id="text8"
       xml:space="preserve"
       transform="matrix(1.3333333,0,0,1.3333333,298.52988,16.23156)"
       clip-path="url(#clipPath9)"><tspan
         style="font-style:italic;font-variant:normal;font-weight:normal;font-stretch:normal;font-size:6.00428px;font-family:'Palatino Linotype';writing-mode:lr-tb;fill:#000000;fill-opacity:1;fill-rule:nonzero;stroke:none"
         x="0 3.00214 6.0042801"
         y="0"
         sodipodi:role="line"
         id="tspan8">xyt</tspan></text>
    <text
       id="text9"
       xml:space="preserve"
       transform="matrix(1.3333333,0,0,1.3333333,188.69175,95.82628)"
       clip-path="url(#clipPath10)"><tspan
         style="font-style:italic;font-variant:normal;font-weight:normal;font-stretch:normal;font-size:10.0071px;font-family:'Palatino Linotype';writing-mode:lr-tb;fill:#000000;fill-opacity:1;fill-rule:nonzero;stroke:none"
         x="0 5.0035648 8.8963385 12.789112 15.571095 20.014259 23.907034 31.692581"
         y="0"
         sodipodi:role="line"
         id="tspan9">verformt</tspan></text>
    <text
       id="text10"
       xml:space="preserve"
       transform="matrix(1.3333333,0,0,1.3333333,188.69175,114.72392)"
       clip-path="url(#clipPath11)"><tspan
         style="font-style:italic;font-variant:normal;font-weight:normal;font-stretch:normal;font-size:10.0071px;font-family:'Palatino Linotype';writing-mode:lr-tb;fill:#000000;fill-opacity:1;fill-rule:nonzero;stroke:none"
         x="0 5.5639644 11.127929 16.131493 20.024267 23.91704 26.699022 31.142189 35.034962 42.820511"
         y="0"
         sodipodi:role="line"
         id="tspan10">unverformt</tspan></text>
    <text
       id="text11"
       xml:space="preserve"
       transform="matrix(1.3333333,0,0,1.3333333,443.02953,18.278813)"
       clip-path="url(#clipPath12)"><tspan
         style="font-style:italic;font-variant:normal;font-weight:normal;font-stretch:normal;font-size:10.0071px;font-family:'Palatino Linotype';writing-mode:lr-tb;fill:#000000;fill-opacity:1;fill-rule:nonzero;stroke:none"
         x="0"
         y="0"
         id="tspan11">γ</tspan></text>
    <text
       id="text12"
       xml:space="preserve"
       transform="matrix(1.3333333,0,0,1.3333333,451.185,23.790613)"
       clip-path="url(#clipPath13)"><tspan
         style="font-style:italic;font-variant:normal;font-weight:normal;font-stretch:normal;font-size:6.00428px;font-family:'Palatino Linotype';writing-mode:lr-tb;fill:#000000;fill-opacity:1;fill-rule:nonzero;stroke:none"
         x="0 3.00214 6.0042801"
         y="0"
         sodipodi:role="line"
         id="tspan12">xyt</tspan></text>
    <text
       id="text13"
       xml:space="preserve"
       transform="matrix(1.3333333,0,0,1.3333333,352.42892,163.78003)"
       clip-path="url(#clipPath14)"><tspan
         style="font-style:italic;font-variant:normal;font-weight:normal;font-stretch:normal;font-size:10.0071px;font-family:'Palatino Linotype';writing-mode:lr-tb;fill:#000000;fill-opacity:1;fill-rule:nonzero;stroke:none"
         x="0"
         y="0"
         id="tspan13">γ</tspan></text>
    <text
       id="text14"
       xml:space="preserve"
       transform="matrix(1.3333333,0,0,1.3333333,360.58441,169.29184)"
       clip-path="url(#clipPath15)"><tspan
         style="font-style:italic;font-variant:normal;font-weight:normal;font-stretch:normal;font-size:6.00428px;font-family:'Palatino Linotype';writing-mode:lr-tb;fill:#000000;fill-opacity:1;fill-rule:nonzero;stroke:none"
         x="0 3.00214 6.0042801"
         y="0"
         sodipodi:role="line"
         id="tspan14">xyb</tspan></text>
    <path
       id="path16"
       d="m 373.07187,11.33858 -0.4252,2.97638 h 0.8504 l -0.4252,-2.97638 m 0,108.22677 -0.4252,-2.97638 h 0.8504 l -0.4252,2.97638 m 0,-108.22677 h -2.12598 m 2.12598,0 h 2.12598 m -2.12598,108.22677 h -2.12598 m 2.12598,0 h 2.12598 M 373.07187,11.33858 H 360.0325 m 13.03937,108.22677 H 360.0325 M 373.07187,11.33858 v 0 m 0,108.22677 v 0 m 0,-108.22677 v 108.22677"
       style="fill:none;stroke:#000000;stroke-width:0.3685;stroke-linecap:round;stroke-linejoin:round;stroke-miterlimit:10;stroke-dasharray:none;stroke-opacity:1"
       transform="matrix(1.3333333,0,0,-1.3333333,0,188.976)" />
    <path
       id="path17"
       d="m 323.64948,82.5265 c -3.21512,2.02103 -6.93552,3.09324 -10.7331,3.09324"
       style="fill:none;stroke:#000000;stroke-width:0.3685;stroke-linecap:round;stroke-linejoin:round;stroke-miterlimit:10;stroke-dasharray:none;stroke-opacity:1"
       transform="matrix(1.3333333,0,0,-1.3333333,0,188.976)" />
    <text
       id="text17"
       xml:space="preserve"
       transform="matrix(1.3333333,0,0,1.3333333,501.42928,100.06207)"
       clip-path="url(#clipPath18)"><tspan
         style="font-style:italic;font-variant:normal;font-weight:normal;font-stretch:normal;font-size:10.0071px;font-family:'Palatino Linotype';writing-mode:lr-tb;fill:#000000;fill-opacity:1;fill-rule:nonzero;stroke:none"
         x="0"
         y="0"
         id="tspan17">d</tspan></text>
    <text
       id="text18"
       xml:space="preserve"
       transform="matrix(1.3333333,0,0,1.3333333,509.81257,105.57388)"
       clip-path="url(#clipPath19)"><tspan
         style="font-style:italic;font-variant:normal;font-weight:normal;font-stretch:normal;font-size:6.00428px;font-family:'Palatino Linotype';writing-mode:lr-tb;fill:#000000;fill-opacity:1;fill-rule:nonzero;stroke:none"
         x="0"
         y="0"
         id="tspan18">v</tspan></text>
  </g>
</svg>
