<?xml version="1.0" encoding="UTF-8" standalone="no"?>
<!-- Created with Inkscape (http://www.inkscape.org/) -->

<svg
   version="1.1"
   id="svg1"
   width="566.92932"
   height="415.74799"
   viewBox="0 0 566.92932 415.74799"
   sodipodi:docname="allg_einfluss_querdehnzahl.pdf"
   xmlns:inkscape="http://www.inkscape.org/namespaces/inkscape"
   xmlns:sodipodi="http://sodipodi.sourceforge.net/DTD/sodipodi-0.dtd"
   xmlns="http://www.w3.org/2000/svg"
   xmlns:svg="http://www.w3.org/2000/svg">
  <defs
     id="defs1">
    <clipPath
       clipPathUnits="userSpaceOnUse"
       id="clipPath39">
      <path
         d="M -0.00426,-0.00311 V 311.81415 H 425.20111 V -0.00311 H -0.00426"
         transform="matrix(1,0,0,-1,-49.685271,247.34391)"
         clip-rule="evenodd"
         id="path39" />
    </clipPath>
    <clipPath
       clipPathUnits="userSpaceOnUse"
       id="clipPath40">
      <path
         d="M -0.00426,-0.00311 V 311.81415 H 425.20111 V -0.00311 H -0.00426"
         transform="matrix(1,0,0,-1,-58.772221,243.21004)"
         clip-rule="evenodd"
         id="path40" />
    </clipPath>
    <clipPath
       clipPathUnits="userSpaceOnUse"
       id="clipPath41">
      <path
         d="M -0.00426,-0.00311 V 311.81415 H 425.20111 V -0.00311 H -0.00426"
         transform="matrix(1,0,0,-1,-71.732092,270.71732)"
         clip-rule="evenodd"
         id="path41" />
    </clipPath>
    <clipPath
       clipPathUnits="userSpaceOnUse"
       id="clipPath42">
      <path
         d="M -0.00426,-0.00311 V 311.81415 H 425.20111 V -0.00311 H -0.00426"
         transform="matrix(1,0,0,-1,-88.912675,296.50161)"
         clip-rule="evenodd"
         id="path42" />
    </clipPath>
    <clipPath
       clipPathUnits="userSpaceOnUse"
       id="clipPath43">
      <path
         d="M -0.00426,-0.00311 V 311.81415 H 425.20111 V -0.00311 H -0.00426"
         transform="matrix(1,0,0,-1,-48.556011,285.0819)"
         clip-rule="evenodd"
         id="path43" />
    </clipPath>
    <clipPath
       clipPathUnits="userSpaceOnUse"
       id="clipPath44">
      <path
         d="M -0.00426,-0.00311 V 311.81415 H 425.20111 V -0.00311 H -0.00426"
         transform="matrix(1,0,0,-1,-142.39095,225.51727)"
         clip-rule="evenodd"
         id="path44" />
    </clipPath>
    <clipPath
       clipPathUnits="userSpaceOnUse"
       id="clipPath45">
      <path
         d="M -0.00426,-0.00311 V 311.81415 H 425.20111 V -0.00311 H -0.00426"
         transform="matrix(1,0,0,-1,-151.4779,221.38341)"
         clip-rule="evenodd"
         id="path45" />
    </clipPath>
    <clipPath
       clipPathUnits="userSpaceOnUse"
       id="clipPath46">
      <path
         d="M -0.00426,-0.00311 V 311.81415 H 425.20111 V -0.00311 H -0.00426"
         transform="matrix(1,0,0,-1,-77.927912,113.14819)"
         clip-rule="evenodd"
         id="path46" />
    </clipPath>
    <clipPath
       clipPathUnits="userSpaceOnUse"
       id="clipPath47">
      <path
         d="M -0.00426,-0.00311 V 311.81415 H 425.20111 V -0.00311 H -0.00426"
         transform="matrix(1,0,0,-1,-87.014852,109.01434)"
         clip-rule="evenodd"
         id="path47" />
    </clipPath>
    <clipPath
       clipPathUnits="userSpaceOnUse"
       id="clipPath48">
      <path
         d="M -0.00426,-0.00311 V 311.81415 H 425.20111 V -0.00311 H -0.00426"
         transform="matrix(1,0,0,-1,-51.315871,63.827619)"
         clip-rule="evenodd"
         id="path48" />
    </clipPath>
    <clipPath
       clipPathUnits="userSpaceOnUse"
       id="clipPath49">
      <path
         d="M -0.00426,-0.00311 V 311.81415 H 425.20111 V -0.00311 H -0.00426"
         transform="matrix(1,0,0,-1,-60.402821,59.693769)"
         clip-rule="evenodd"
         id="path49" />
    </clipPath>
    <clipPath
       clipPathUnits="userSpaceOnUse"
       id="clipPath50">
      <path
         d="M -0.00426,-0.00311 V 311.81415 H 425.20111 V -0.00311 H -0.00426"
         transform="matrix(1,0,0,-1,-139.80306,37.471658)"
         clip-rule="evenodd"
         id="path50" />
    </clipPath>
    <clipPath
       clipPathUnits="userSpaceOnUse"
       id="clipPath51">
      <path
         d="M -0.00426,-0.00311 V 311.81415 H 425.20111 V -0.00311 H -0.00426"
         transform="matrix(1,0,0,-1,-148.89001,33.337808)"
         clip-rule="evenodd"
         id="path51" />
    </clipPath>
    <clipPath
       clipPathUnits="userSpaceOnUse"
       id="clipPath52">
      <path
         d="M -0.00426,-0.00311 V 311.81415 H 425.20111 V -0.00311 H -0.00426"
         transform="matrix(1,0,0,-1,-110.33983,81.156122)"
         clip-rule="evenodd"
         id="path52" />
    </clipPath>
    <clipPath
       clipPathUnits="userSpaceOnUse"
       id="clipPath53">
      <path
         d="M -0.00426,-0.00311 V 311.81415 H 425.20111 V -0.00311 H -0.00426"
         transform="matrix(1,0,0,-1,-119.42679,77.022264)"
         clip-rule="evenodd"
         id="path53" />
    </clipPath>
    <clipPath
       clipPathUnits="userSpaceOnUse"
       id="clipPath54">
      <path
         d="M -0.00426,-0.00311 V 311.81415 H 425.20111 V -0.00311 H -0.00426"
         transform="matrix(1,0,0,-1,-116.32809,167.6413)"
         clip-rule="evenodd"
         id="path54" />
    </clipPath>
    <clipPath
       clipPathUnits="userSpaceOnUse"
       id="clipPath55">
      <path
         d="M -0.00426,-0.00311 V 311.81415 H 425.20111 V -0.00311 H -0.00426"
         transform="matrix(1,0,0,-1,-125.41503,163.50745)"
         clip-rule="evenodd"
         id="path55" />
    </clipPath>
    <clipPath
       clipPathUnits="userSpaceOnUse"
       id="clipPath56">
      <path
         d="M -0.00426,-0.00311 V 311.81415 H 425.20111 V -0.00311 H -0.00426"
         transform="matrix(1,0,0,-1,-81.907802,18.02082)"
         clip-rule="evenodd"
         id="path56" />
    </clipPath>
    <clipPath
       clipPathUnits="userSpaceOnUse"
       id="clipPath57">
      <path
         d="M -0.00426,-0.00311 V 311.81415 H 425.20111 V -0.00311 H -0.00426"
         transform="matrix(1,0,0,-1,-90.99475,13.886963)"
         clip-rule="evenodd"
         id="path57" />
    </clipPath>
    <clipPath
       clipPathUnits="userSpaceOnUse"
       id="clipPath58">
      <path
         d="M -0.00426,-0.00311 V 311.81415 H 425.20111 V -0.00311 H -0.00426"
         transform="matrix(1,0,0,-1,-99.160945,18.02082)"
         clip-rule="evenodd"
         id="path58" />
    </clipPath>
    <clipPath
       clipPathUnits="userSpaceOnUse"
       id="clipPath59">
      <path
         d="M -0.00426,-0.00311 V 311.81415 H 425.20111 V -0.00311 H -0.00426"
         transform="matrix(1,0,0,-1,-115.96779,13.886963)"
         clip-rule="evenodd"
         id="path59" />
    </clipPath>
    <clipPath
       clipPathUnits="userSpaceOnUse"
       id="clipPath60">
      <path
         d="M -0.00426,-0.00311 V 311.81415 H 425.20111 V -0.00311 H -0.00426"
         transform="matrix(1,0,0,-1,-355.01302,177.70366)"
         clip-rule="evenodd"
         id="path60" />
    </clipPath>
    <clipPath
       clipPathUnits="userSpaceOnUse"
       id="clipPath61">
      <path
         d="M -0.00426,-0.00311 V 311.81415 H 425.20111 V -0.00311 H -0.00426"
         transform="matrix(1,0,0,-1,-360.94868,173.56981)"
         clip-rule="evenodd"
         id="path61" />
    </clipPath>
    <clipPath
       clipPathUnits="userSpaceOnUse"
       id="clipPath62">
      <path
         d="M -0.00426,-0.00311 V 311.81415 H 425.20111 V -0.00311 H -0.00426"
         transform="matrix(1,0,0,-1,-344.94729,277.40683)"
         clip-rule="evenodd"
         id="path62" />
    </clipPath>
    <clipPath
       clipPathUnits="userSpaceOnUse"
       id="clipPath63">
      <path
         d="M -0.00426,-0.00311 V 311.81415 H 425.20111 V -0.00311 H -0.00426"
         transform="matrix(1,0,0,-1,-350.88296,273.27298)"
         clip-rule="evenodd"
         id="path63" />
    </clipPath>
    <clipPath
       clipPathUnits="userSpaceOnUse"
       id="clipPath64">
      <path
         d="M -0.00426,-0.00311 V 311.81415 H 425.20111 V -0.00311 H -0.00426"
         transform="matrix(1,0,0,-1,-341.56551,109.73136)"
         clip-rule="evenodd"
         id="path64" />
    </clipPath>
    <clipPath
       clipPathUnits="userSpaceOnUse"
       id="clipPath65">
      <path
         d="M -0.00426,-0.00311 V 311.81415 H 425.20111 V -0.00311 H -0.00426"
         transform="matrix(1,0,0,-1,-355.86941,105.59749)"
         clip-rule="evenodd"
         id="path65" />
    </clipPath>
    <clipPath
       clipPathUnits="userSpaceOnUse"
       id="clipPath66">
      <path
         d="M -0.00426,-0.00311 V 311.81415 H 425.20111 V -0.00311 H -0.00426"
         transform="matrix(1,0,0,-1,-230.30256,176.89726)"
         clip-rule="evenodd"
         id="path66" />
    </clipPath>
    <clipPath
       clipPathUnits="userSpaceOnUse"
       id="clipPath67">
      <path
         d="M -0.00426,-0.00311 V 311.81415 H 425.20111 V -0.00311 H -0.00426"
         transform="matrix(1,0,0,-1,-236.23822,172.76341)"
         clip-rule="evenodd"
         id="path67" />
    </clipPath>
    <clipPath
       clipPathUnits="userSpaceOnUse"
       id="clipPath68">
      <path
         d="M -0.00426,-0.00311 V 311.81415 H 425.20111 V -0.00311 H -0.00426"
         transform="matrix(1,0,0,-1,-227.71918,275.57927)"
         clip-rule="evenodd"
         id="path68" />
    </clipPath>
    <clipPath
       clipPathUnits="userSpaceOnUse"
       id="clipPath69">
      <path
         d="M -0.00426,-0.00311 V 311.81415 H 425.20111 V -0.00311 H -0.00426"
         transform="matrix(1,0,0,-1,-233.65486,271.4454)"
         clip-rule="evenodd"
         id="path69" />
    </clipPath>
    <clipPath
       clipPathUnits="userSpaceOnUse"
       id="clipPath70">
      <path
         d="M -0.00426,-0.00311 V 311.81415 H 425.20111 V -0.00311 H -0.00426"
         transform="matrix(1,0,0,-1,-19.64859,252.4673)"
         clip-rule="evenodd"
         id="path70" />
    </clipPath>
    <clipPath
       clipPathUnits="userSpaceOnUse"
       id="clipPath71">
      <path
         d="M -0.00426,-0.00311 V 311.81415 H 425.20111 V -0.00311 H -0.00426"
         transform="matrix(1,0,0,-1,-142.07641,286.52094)"
         clip-rule="evenodd"
         id="path71" />
    </clipPath>
    <clipPath
       clipPathUnits="userSpaceOnUse"
       id="clipPath72">
      <path
         d="M -0.00426,-0.00311 V 311.81415 H 425.20111 V -0.00311 H -0.00426"
         transform="matrix(1,0,0,-1,-19.669611,155.64799)"
         clip-rule="evenodd"
         id="path72" />
    </clipPath>
    <clipPath
       clipPathUnits="userSpaceOnUse"
       id="clipPath73">
      <path
         d="M -0.00426,-0.00311 V 311.81415 H 425.20111 V -0.00311 H -0.00426"
         transform="matrix(1,0,0,-1,-142.09743,189.70162)"
         clip-rule="evenodd"
         id="path73" />
    </clipPath>
    <clipPath
       clipPathUnits="userSpaceOnUse"
       id="clipPath74">
      <path
         d="M -0.00426,-0.00311 V 311.81415 H 425.20111 V -0.00311 H -0.00426"
         transform="matrix(1,0,0,-1,-142.09743,98.56777)"
         clip-rule="evenodd"
         id="path74" />
    </clipPath>
    <clipPath
       clipPathUnits="userSpaceOnUse"
       id="clipPath75">
      <path
         d="M -0.00426,-0.00311 V 311.81415 H 425.20111 V -0.00311 H -0.00426"
         transform="matrix(1,0,0,-1,-19.669611,64.514139)"
         clip-rule="evenodd"
         id="path75" />
    </clipPath>
    <clipPath
       clipPathUnits="userSpaceOnUse"
       id="clipPath76">
      <path
         d="M -0.00426,-0.00311 V 311.81415 H 425.20111 V -0.00311 H -0.00426"
         transform="matrix(1,0,0,-1,-195.31902,290.85889)"
         clip-rule="evenodd"
         id="path76" />
    </clipPath>
    <clipPath
       clipPathUnits="userSpaceOnUse"
       id="clipPath77">
      <path
         d="M -0.00426,-0.00311 V 311.81415 H 425.20111 V -0.00311 H -0.00426"
         transform="matrix(1,0,0,-1,-316.83081,290.85889)"
         clip-rule="evenodd"
         id="path77" />
    </clipPath>
    <clipPath
       clipPathUnits="userSpaceOnUse"
       id="clipPath78">
      <path
         d="M -0.00426,-0.00311 V 311.81415 H 425.20111 V -0.00311 H -0.00426"
         transform="matrix(1,0,0,-1,-310.12846,203.42563)"
         clip-rule="evenodd"
         id="path78" />
    </clipPath>
    <clipPath
       clipPathUnits="userSpaceOnUse"
       id="clipPath79">
      <path
         d="M -0.00426,-0.00311 V 311.81415 H 425.20111 V -0.00311 H -0.00426"
         transform="matrix(1,0,0,-1,-324.43238,199.29175)"
         clip-rule="evenodd"
         id="path79" />
    </clipPath>
    <clipPath
       clipPathUnits="userSpaceOnUse"
       id="clipPath80">
      <path
         d="M -0.00426,-0.00311 V 311.81415 H 425.20111 V -0.00311 H -0.00426"
         transform="matrix(1,0,0,-1,-263.26537,31.912321)"
         clip-rule="evenodd"
         id="path80" />
    </clipPath>
    <clipPath
       clipPathUnits="userSpaceOnUse"
       id="clipPath81">
      <path
         d="M -0.00426,-0.00311 V 311.81415 H 425.20111 V -0.00311 H -0.00426"
         transform="matrix(1,0,0,-1,-269.20104,27.778463)"
         clip-rule="evenodd"
         id="path81" />
    </clipPath>
    <clipPath
       clipPathUnits="userSpaceOnUse"
       id="clipPath82">
      <path
         d="M -0.00426,-0.00311 V 311.81415 H 425.20111 V -0.00311 H -0.00426"
         transform="matrix(1,0,0,-1,-267.98977,18.84933)"
         clip-rule="evenodd"
         id="path82" />
    </clipPath>
    <clipPath
       clipPathUnits="userSpaceOnUse"
       id="clipPath83">
      <path
         d="M -0.00426,-0.00311 V 311.81415 H 425.20111 V -0.00311 H -0.00426"
         transform="matrix(1,0,0,-1,-285.03925,66.377949)"
         clip-rule="evenodd"
         id="path83" />
    </clipPath>
    <clipPath
       clipPathUnits="userSpaceOnUse"
       id="clipPath84">
      <path
         d="M -0.00426,-0.00311 V 311.81415 H 425.20111 V -0.00311 H -0.00426"
         transform="matrix(1,0,0,-1,-290.97492,62.244092)"
         clip-rule="evenodd"
         id="path84" />
    </clipPath>
    <clipPath
       clipPathUnits="userSpaceOnUse"
       id="clipPath85">
      <path
         d="M -0.00426,-0.00311 V 311.81415 H 425.20111 V -0.00311 H -0.00426"
         transform="matrix(1,0,0,-1,-289.76365,53.314959)"
         clip-rule="evenodd"
         id="path85" />
    </clipPath>
    <clipPath
       clipPathUnits="userSpaceOnUse"
       id="clipPath86">
      <path
         d="M -0.00426,-0.00311 V 311.81415 H 425.20111 V -0.00311 H -0.00426"
         transform="matrix(1,0,0,-1,-386.57858,31.912321)"
         clip-rule="evenodd"
         id="path86" />
    </clipPath>
    <clipPath
       clipPathUnits="userSpaceOnUse"
       id="clipPath87">
      <path
         d="M -0.00426,-0.00311 V 311.81415 H 425.20111 V -0.00311 H -0.00426"
         transform="matrix(1,0,0,-1,-392.51422,27.778463)"
         clip-rule="evenodd"
         id="path87" />
    </clipPath>
    <clipPath
       clipPathUnits="userSpaceOnUse"
       id="clipPath88">
      <path
         d="M -0.00426,-0.00311 V 311.81415 H 425.20111 V -0.00311 H -0.00426"
         transform="matrix(1,0,0,-1,-391.30296,18.84933)"
         clip-rule="evenodd"
         id="path88" />
    </clipPath>
    <clipPath
       clipPathUnits="userSpaceOnUse"
       id="clipPath89">
      <path
         d="M -0.00426,-0.00311 V 311.81415 H 425.20111 V -0.00311 H -0.00426"
         transform="matrix(1,0,0,-1,-408.35244,66.377949)"
         clip-rule="evenodd"
         id="path89" />
    </clipPath>
    <clipPath
       clipPathUnits="userSpaceOnUse"
       id="clipPath90">
      <path
         d="M -0.00426,-0.00311 V 311.81415 H 425.20111 V -0.00311 H -0.00426"
         transform="matrix(1,0,0,-1,-414.28813,62.244092)"
         clip-rule="evenodd"
         id="path90" />
    </clipPath>
    <clipPath
       clipPathUnits="userSpaceOnUse"
       id="clipPath91">
      <path
         d="M -0.00426,-0.00311 V 311.81415 H 425.20111 V -0.00311 H -0.00426"
         transform="matrix(1,0,0,-1,-413.07686,53.314959)"
         clip-rule="evenodd"
         id="path91" />
    </clipPath>
  </defs>
  <sodipodi:namedview
     id="namedview1"
     pagecolor="#ffffff"
     bordercolor="#000000"
     borderopacity="0.25"
     inkscape:showpageshadow="2"
     inkscape:pageopacity="0.0"
     inkscape:pagecheckerboard="0"
     inkscape:deskcolor="#d1d1d1">
    <inkscape:page
       x="0"
       y="0"
       inkscape:label="1"
       id="page1"
       width="566.92932"
       height="415.74799"
       margin="0"
       bleed="0" />
  </sodipodi:namedview>
  <g
     id="g1"
     inkscape:groupmode="layer"
     inkscape:label="1">
    <path
       id="path1"
       d="m 311.70825,229.37354 7.01007,-2.92121 7.03824,-2.64252 3.53845,-1.12963 3.556,-0.95548 3.57712,-0.74646 3.60172,-0.50256 3.67016,-0.23667 3.69531,0.0128 3.71692,0.22662 3.7349,0.40479 7.50931,1.2016 7.53808,1.48666 m -26.31235,37.55304 7.01011,-2.9212 7.0382,-2.64252 3.53846,-1.12964 3.556,-0.95547 3.57711,-0.74643 3.60172,-0.5026 3.67016,-0.23663 3.69535,0.0128 3.71689,0.22662 3.73489,0.40482 7.50931,1.20157 7.53808,1.48666 m -90.06021,-25.94897 3.80969,-1.60767 3.82526,-1.56583 3.85629,-1.48214 3.90287,-1.35663 2.29385,-0.71292 2.31467,-0.64304 2.33532,-0.55963 2.35587,-0.46283 2.01865,-0.30881 2.02978,-0.22952 2.03723,-0.15073 2.04105,-0.0724 2.46261,0.0142 2.46045,0.1138 2.45578,0.19976 2.44867,0.2721 3.90613,0.55575 3.88763,0.66874 3.87534,0.74404 3.86914,0.78171 2.65393,-6.57089 m 29.22,38.3219 2.65393,-6.57089 m -34.52786,-25.18012 2.53424,4.73667 2.66223,4.6123 1.41913,2.22067 1.49915,2.14292"
       style="fill:none;stroke:#000000;stroke-width:0.3685;stroke-linecap:round;stroke-linejoin:round;stroke-miterlimit:10;stroke-dasharray:none;stroke-opacity:1"
       transform="matrix(1.3333333,0,0,-1.3333333,0,415.748)" />
    <path
       id="path2"
       d="m 378.00928,237.28406 1.59515,2.04968 1.70715,1.94086 2.16849,2.13351 2.32395,1.98248 2.45718,1.85309 2.56821,1.74521 5.3807,3.25311 5.55835,3.08051 m -29.22,-38.3219 2.53424,4.73666 2.66223,4.61231 1.41913,2.22064 1.49915,2.14295 1.59515,2.04965 1.70716,1.94085 2.16848,2.13352 2.32395,1.98251 2.45718,1.85306 2.56821,1.74521 5.3807,3.25311 5.55835,3.08054 m -92.71414,-19.37808 2.53421,4.73666 2.66226,4.6123 1.41913,2.22068 1.49915,2.14291 1.59512,2.04968 1.70715,1.94086 2.16852,2.13351 2.32395,1.98252 2.45715,1.85306 2.56824,1.7452 5.3807,3.25312 5.55835,3.0805 m -20.45691,-14.04791 2.56333,-1.21027 m 2.05063,-0.9682 2.56329,-1.21026 m 2.07449,-0.91431 2.61942,-1.0834 m 2.09555,-0.86676 2.33893,-0.96741 0.28793,-0.0961 m 2.15103,-0.71802 1.66443,-0.5556 1.04471,-0.27362 m 2.19373,-0.57453 0.88293,-0.23126 1.8927,-0.33398 m 2.23322,-0.39408 0.0171,-0.003 2.8088,-0.21878 m 2.26349,-0.092 2.22879,0.0342 0.6033,0.0527 m 2.2591,0.19739 0.2846,0.0248 2.52128,0.37473 m 2.2294,0.41202 1.57748,0.31442 1.1882,0.30264 m 2.19757,0.55969 2.74695,0.69965"
       style="fill:none;stroke:#000000;stroke-width:0.3685;stroke-linecap:round;stroke-linejoin:round;stroke-miterlimit:10;stroke-dasharray:none;stroke-opacity:1"
       transform="matrix(1.3333333,0,0,-1.3333333,0,415.748)" />
    <path
       id="path3"
       d="m 376.88513,239.96994 2.719,0.80139 m -56.47886,6.3053 v 0 m 58.18631,-5.80203 v 0 m -10.09008,-20.98856 1.33725,2.49942 m 2.33752,4.21326 1.41708,2.45502 m 2.65543,4.01959 0.36746,0.5253 1.34723,1.73111 m 3.25986,3.54315 0.86371,0.84976 1.23474,1.05334 m 3.80249,2.95627 2.3121,1.57117 m 4.15735,2.51349 1.22336,0.73962 1.22897,0.68112 m 4.21488,2.33594 0.1145,0.0635 m -29.46689,-27.25211 0.1272,0.23774 m 3.77066,6.3468 0.15265,0.23886 m 4.48349,5.83957 0.18719,0.21286 m 5.44876,4.94775 0.22632,0.17069 m 6.10571,4.11773 0.24259,0.14667 m 6.3764,3.69327 0.24793,0.13742 M 371.2215,220.28606 v 0 m 31.87393,31.75104 v 0 m -93.09857,-29.76495 6.82412,-2.47306 6.84546,-2.26516 3.43735,-0.98969 3.45071,-0.85977 3.46668,-0.70386 3.48532,-0.522 4.30988,-0.36856 4.33804,-0.0941 4.36215,0.14127 4.38223,0.33737 8.80875,1.10611 8.84091,1.41989 m -60.84021,12.37293 -1.71139,-7.10141 m 0.87759,3.6416 2.64615,-1.01639 m 4.49847,-1.72788 0.41248,-0.15844 2.26215,-0.77985 m 4.55575,-1.57056 0.76459,-0.26358 1.94522,-0.56613 m 4.6604,-1.22101 1.02768,-0.24936 1.74747,-0.32348 m 4.76455,-0.70471 1.19742,-0.14212 1.62689,-0.0793 m 4.81623,-0.065 0.94339,0.012 1.88723,0.12241 m 4.79779,0.43896 0.76975,0.0831 2.03613,0.31555 m 4.76206,0.73801 0.70214,0.1088 2.08719,0.39431 m 4.73514,0.89457 0.70078,0.13238"
       style="fill:none;stroke:#000000;stroke-width:0.3685;stroke-linecap:round;stroke-linejoin:round;stroke-miterlimit:10;stroke-dasharray:none;stroke-opacity:1"
       transform="matrix(1.3333333,0,0,-1.3333333,0,415.748)" />
    <path
       id="path4"
       d="m 315.63754,224.08423 0.26459,-0.10166 m 6.93546,-2.49047 0.26797,-0.0924 m 7.03485,-2.18823 0.27548,-0.0668 m 7.21006,-1.51159 0.28149,-0.0334 m 7.34149,-0.58615 0.28345,0.004 m 7.3595,0.32846 0.28183,0.0304 m 7.30145,0.98931 0.28012,0.0434 m 7.25861,1.27136 0.27853,0.0526 m -57.41797,6.18103 v 0 m 60.34705,-5.62769 v 0 m -47.25345,28.47644 1.26752,2.53546 m 1.014,2.02838 1.26752,2.53547 m 1.01401,2.02838 1.26751,2.53549 m 1.01401,2.02835 1.26752,2.53549 m 1.01401,2.02838 1.26751,2.53546 m 1.01401,2.02839 1.26749,2.53549 m 1.01401,2.02838 1.26751,2.53546 m 1.01401,2.02838 1.26752,2.53546 m 1.014,2.02838 1.26752,2.5355 m 1.01401,2.02838 1.26752,2.53546 m 1.014,2.02838 1.26752,2.53549 m 1.01401,2.02838 1.26749,2.53547 m 1.014,2.02838 0.10062,0.2012 m -28.32163,-56.65329 v 0 m 28.32163,56.65329 v 0 l 1.19928,-2.50809 m 0.9783,-2.04584 1.22284,-2.55731 m 0.97827,-2.04587 1.22284,-2.55731 m 0.9783,-2.04583 1.22284,-2.55732 m 0.97827,-2.04586 1.22287,-2.55732 m 0.97828,-2.04583 1.22283,-2.55732 m 0.97828,-2.04586 1.22287,-2.55732 m 0.97827,-2.04583 1.22284,-2.55732 m 0.97827,-2.04586 1.22287,-2.55732 m 0.97827,-2.04583 1.22284,-2.55735 m 0.97827,-2.04583 1.22287,-2.55731 m 0.97827,-2.04584 1.22284,-2.55731 m 0.9783,-2.04587 1.22284,-2.55731 m 0.97827,-2.04584 1.22284,-2.55731 m -29.81393,62.34921 v 0 m 29.86468,-62.45532 v 0"
       style="fill:none;stroke:#000000;stroke-width:0.3685;stroke-linecap:round;stroke-linejoin:round;stroke-miterlimit:10;stroke-dasharray:none;stroke-opacity:1"
       transform="matrix(1.3333333,0,0,-1.3333333,0,415.748)" />
    <path
       id="path5"
       d="m 343.52493,287.88321 c 4.88938,-2.44425 10.63327,-2.49463 15.56476,-0.13651"
       style="fill:none;stroke:#000000;stroke-width:0.3685;stroke-linecap:round;stroke-linejoin:round;stroke-miterlimit:10;stroke-dasharray:none;stroke-opacity:1"
       transform="matrix(1.3333333,0,0,-1.3333333,0,415.748)" />
    <path
       id="path6"
       d="m 308.74664,33.0356 1.7898,-6.85687 m 61.35852,15.51146 1.78979,-6.85688 -63.14831,-8.65458 m 61.35852,15.51146 -63.14832,-8.65459 m 6.39594,-2.67452 4.21261,0.57735 m 5.89762,0.80829 4.21258,0.57733 m 5.89765,0.80829 4.21258,0.57735 m 5.89762,0.80827 4.21258,0.57735 m 5.89765,0.80827 4.21258,0.57735 m 5.89761,0.80827 4.21259,0.57735 m -57.85291,-7.92885 0.28086,0.0385 m 9.82937,1.34713 0.28086,0.03849 m 9.82937,1.34713 0.28083,0.03849 m 9.82937,1.34713 0.28086,0.0385 m 9.82937,1.34712 0.28082,0.0385 m 9.82938,1.34714 0.28085,0.03848 m 9.82938,1.34714 0.0752,0.0103 m -63.14832,-8.65459 v 0 m 63.14832,8.65459 v 0 m 31.24151,17.68364 -1.55432,-6.91405 m -28.7923,-14.19803 28.7923,14.19803 M 308.74664,33.0356 342.40265,80.88356 404.03137,55.94539 m -32.13641,-14.2552 1.78979,-6.85688 m -1.78979,6.85688 32.13641,14.2552 m -28.34027,-16.32878 3.8526,1.79913 m 5.39359,2.51877 3.8526,1.79913 m 5.39361,2.51877 3.85257,1.79913 m -25.17019,-11.75428 0.25683,0.11993 m 8.98935,4.19797 0.25687,0.11993 m 8.98935,4.19797 0.25683,0.11993 m 8.98935,4.19797 0.25684,0.11994 M 372.78986,38.26175 v 0 m 30.46435,14.22661 v 0 M 310.39783,35.71654 v 2.83464 m 0,2.26771 v 0.1254 m 0,-7.08662 v 0 m 0,7.08662 v 0 m 63.28692,-14.66124 v 2.0634 m 0,2.26773 v 2.75549 m 0,-7.08662 v 0 m 0,7.08662 v 0 m 31.81446,25.14049 v 0.45047 m 0,2.26772 V 64.063 m 0,-5.55284 v 0 m 0,7.08663 v 0 m -31.81446,-39.31374 1.56897,1.58933 m 1.59314,1.61383 1.99146,2.01725 m 1.59314,1.61383 1.99145,2.01726 m 1.59314,1.61382 1.99146,2.01727"
       style="fill:none;stroke:#000000;stroke-width:0.3685;stroke-linecap:round;stroke-linejoin:round;stroke-miterlimit:10;stroke-dasharray:none;stroke-opacity:1"
       transform="matrix(1.3333333,0,0,-1.3333333,0,415.748)" />
    <path
       id="path7"
       d="m 387.60065,40.37946 1.99145,2.01727 m 1.59314,1.61381 1.99146,2.01728 m 1.59314,1.61381 1.99145,2.01728 m 1.59314,1.61381 1.99146,2.01727 m 1.59314,1.61382 1.99142,2.01727 m -30.2457,-30.63803 v 0 m 31.81446,32.22711 v 0 m -93.1482,-24.88626 2.81455,-0.33687 m 2.25165,-0.26948 2.81457,-0.33687 m 2.25165,-0.2695 2.81454,-0.33685 m 2.25165,-0.26951 2.81455,-0.33686 m 2.25164,-0.26949 2.81458,-0.33687 m 2.25165,-0.2695 2.81454,-0.33685 m 2.25165,-0.2695 2.81458,-0.33687 m 2.25164,-0.26949 2.81455,-0.33686 m 2.25165,-0.26949 2.81454,-0.33687 m 2.25165,-0.2695 2.81457,-0.33687 m 2.25165,-0.26948 2.81455,-0.33687 m 2.25164,-0.26949 2.81458,-0.33686 m 2.25165,-0.2695 0.53927,-0.06455 m -63.28692,7.57462 v 0 m 63.28692,-7.57462 v 0 m -63.28692,14.66124 0.53772,-0.06436 m 2.25164,-0.2695 2.81458,-0.33687 m 2.25165,-0.26949 2.81454,-0.33686 m 2.25165,-0.26949 2.81458,-0.33687 m 2.25161,-0.2695 2.81458,-0.33685 m 2.25165,-0.2695 2.81454,-0.33687 m 2.25165,-0.26949 2.81457,-0.33686 m 2.25165,-0.26949 2.81455,-0.33687 m 2.25164,-0.2695 2.81458,-0.33687 m 2.25162,-0.26948 2.81457,-0.33687 m 2.25165,-0.26949 2.81455,-0.33686 m 2.25164,-0.26951 2.81458,-0.33685 m 2.25165,-0.2695 2.81454,-0.33687 m -61.33218,7.34067 v 0 m 63.28692,-7.57462 v 0 l 1.61054,1.63144 m 1.59317,1.61382 1.99142,2.01727 m 1.59317,1.61382 1.99143,2.01727 m 1.59317,1.61382 1.99142,2.01727 m 1.59317,1.61381 1.99143,2.01728 m 1.59317,1.61381 1.99142,2.01728 m 1.59317,1.61381 1.99143,2.01727 m 1.59317,1.61382 1.99142,2.01727 m 1.59314,1.61382 1.99146,2.01727 m -30.2873,-30.68015 v 0 m 31.81446,32.22712 v 0 m -95.10138,-24.6525 0.3825,0.38747 m 1.59314,1.61381 1.99146,2.01727"
       style="fill:none;stroke:#000000;stroke-width:0.3685;stroke-linecap:round;stroke-linejoin:round;stroke-miterlimit:10;stroke-dasharray:none;stroke-opacity:1"
       transform="matrix(1.3333333,0,0,-1.3333333,0,415.748)" />
    <path
       id="path8"
       d="m 315.95807,46.57666 1.99145,2.01727 m 1.59314,1.61382 1.99146,2.01727 m 1.59314,1.61382 1.99145,2.01727 m 1.59314,1.61381 1.99146,2.01728 m 1.59314,1.61381 1.99142,2.01728 m 1.59317,1.61381 1.99143,2.01727 m 1.59317,1.61382 1.99142,2.01727 m 1.59317,1.61382 1.16205,1.17712 M 310.39783,40.94429 v 0 m 31.81445,32.22711 v 0 m 0.55795,-0.06679 2.81455,-0.33686 m 2.25165,-0.26949 2.81454,-0.33687 m 2.25165,-0.26948 2.81457,-0.33687 m 2.25165,-0.2695 2.81455,-0.33687 m 2.25164,-0.26949 2.81458,-0.33686 m 2.25165,-0.26949 2.81454,-0.33687 m 2.25165,-0.2695 2.81454,-0.33685 m 2.25165,-0.2695 2.81458,-0.33687 m 2.25165,-0.26949 2.81454,-0.33686 m 2.25165,-0.26949 2.81457,-0.33687 m 2.25165,-0.2695 2.81455,-0.33687 m 2.25164,-0.26948 2.81455,-0.33687 m 2.25165,-0.26949 1.93454,-0.23153 m -63.28693,7.57461 v 0 m 63.28693,-7.57461 v 0"
       style="fill:none;stroke:#000000;stroke-width:0.3685;stroke-linecap:round;stroke-linejoin:round;stroke-miterlimit:10;stroke-dasharray:none;stroke-opacity:1"
       transform="matrix(1.3333333,0,0,-1.3333333,0,415.748)" />
    <path
       id="path9"
       d="m 380.36292,38.12645 c 0.53713,-1.08925 1.25265,-2.08099 2.11694,-2.9342"
       style="fill:none;stroke:#000000;stroke-width:0.3685;stroke-linecap:round;stroke-linejoin:round;stroke-miterlimit:10;stroke-dasharray:none;stroke-opacity:1"
       transform="matrix(1.3333333,0,0,-1.3333333,0,415.748)" />
    <path
       id="path10"
       d="m 397.87521,53.21461 c -0.45425,1.02405 -1.09671,1.95376 -1.89395,2.74079"
       style="fill:none;stroke:#000000;stroke-width:0.3685;stroke-linecap:round;stroke-linejoin:round;stroke-miterlimit:10;stroke-dasharray:none;stroke-opacity:1"
       transform="matrix(1.3333333,0,0,-1.3333333,0,415.748)" />
    <path
       id="path11"
       d="m 373.06039,125.40527 0.7826,0.0939 0.77908,0.10042 0.77216,0.11342 0.76165,0.13292 2.32236,0.58597 2.19141,0.83015 2.06915,1.05806 1.95569,1.26968 1.85089,1.46506 1.75488,1.6441 1.66757,1.80689 1.58899,1.95343 2.97718,4.28125 2.76764,4.67194 2.62796,4.93243 2.5581,5.06262 m -29.42731,-30.00226 1.38279,0.19205 1.37558,0.21919 1.36114,0.27349 1.33954,0.35495 1.09515,0.37402 1.07233,0.44289 1.04678,0.50515 1.01844,0.56084 1.09045,0.6778 1.05243,0.73327 1.01437,0.78424 0.97635,0.83063 1.13501,1.06454 1.08252,1.11866 1.0336,1.1651 0.98834,1.20385 1.26603,1.67103 1.19934,1.71884 1.14163,1.75805 1.09283,1.78858 1.76605,3.08603 1.68003,3.13336 1.62265,3.16498 1.59393,3.18072 m -30.69342,-36.97485 1.93756,0.59718 1.91748,0.62535 1.87732,0.6817 1.81708,0.76622 2.15521,1.10363 2.03855,1.26733 1.92965,1.42017 1.82852,1.56204 1.73517,1.69302 1.64963,1.81311"
       style="fill:none;stroke:#000000;stroke-width:0.3685;stroke-linecap:round;stroke-linejoin:round;stroke-miterlimit:10;stroke-dasharray:none;stroke-opacity:1"
       transform="matrix(1.3333333,0,0,-1.3333333,0,415.748)" />
    <path
       id="path12"
       d="m 390.68045,129.96243 1.57184,1.92221 1.50183,2.02048 2.82477,4.29199 2.63809,4.55396 2.51361,4.72857 2.45142,4.81592 m -94.16922,-17.99258 0.78259,0.0939 0.77908,0.10043 0.77213,0.11341 0.76169,0.1329 2.32235,0.58597 2.19141,0.83017 2.06915,1.05804 1.95569,1.26972 1.85089,1.46503 1.75489,1.6441 1.66754,1.80691 1.58899,1.9534 2.9772,4.28125 2.76764,4.67194 2.62796,4.93243 2.5581,5.06266 m 32.98725,-42.38629 1.55804,0.35185 1.54437,0.37306 1.02805,0.28154 m 5.5015,2.23245 0.71746,0.38077 1.94999,1.27484 0.87442,0.6837 m 4.34121,4.06006 0.0251,0.0263 1.57132,1.86264 1.07364,1.41809 m 3.30795,4.94699 2.11218,3.69025 m 2.77643,5.26495 0.11575,0.22256 1.77686,3.58494 m -23.46176,-28.7394 0.26196,0.10825 m 8.25269,5.3946 0.20923,0.19126 m 6.2474,7.67508 0.15616,0.23657 m 5.0029,8.55984 0.1308,0.2515 m -27.07367,-24.33273 v 0 m 30.9075,31.93258 v 0 m -93.32205,-19.54858 -1.26615,-6.9726 m 93.74106,28.07715 1.69431,-3.11197 m -31.12162,-26.89029 -1.26611,-6.97259"
       style="fill:none;stroke:#000000;stroke-width:0.3685;stroke-linecap:round;stroke-linejoin:round;stroke-miterlimit:10;stroke-dasharray:none;stroke-opacity:1"
       transform="matrix(1.3333333,0,0,-1.3333333,0,415.748)" />
    <path
       id="path13"
       d="m 355.44901,188.61148 c 2.65063,-2.67407 5.76028,-2.63934 8.39657,0.0938"
       style="fill:none;stroke:#000000;stroke-width:0.3685;stroke-linecap:round;stroke-linejoin:round;stroke-miterlimit:10;stroke-dasharray:none;stroke-opacity:1"
       transform="matrix(1.3333333,0,0,-1.3333333,0,415.748)" />
    <path
       id="path14"
       d="m 310.01279,134.30298 8.12643,0.18146 8.10257,0.0135 4.03488,-0.10876 4.01999,-0.21375 4.00211,-0.33975 3.9812,-0.48672 3.89816,-0.6366 3.8779,-0.77917 3.86057,-0.90131 3.84613,-1.00314 7.6604,-2.23026 7.63726,-2.39316 m -64.31375,1.92511 8.12644,0.18145 8.1026,0.0134 4.03488,-0.10875 4.01999,-0.21376 4.00207,-0.33972 3.98123,-0.48672 3.89817,-0.63663 3.8779,-0.77914 3.86056,-0.90133 3.8461,-1.00314 7.6604,-2.23025 7.6373,-2.39316 m -32.35419,45.87259 8.12644,0.18142 8.10257,0.0135 4.03491,-0.10876 4.01996,-0.21375 4.0021,-0.33972 3.98121,-0.48672 3.89816,-0.63663 3.8779,-0.77915 3.86056,-0.90133 3.84613,-1.00315 7.6604,-2.23025 7.63727,-2.39316 m -42.88629,50.49845 0.12067,-0.42414 m 0.62048,-2.18118 0.7756,-2.72647 m 0.62052,-2.18115 0.7756,-2.72648 m 0.62052,-2.18118 0.7756,-2.72647 m 0.62051,-2.18118 0.77561,-2.72647 m 0.62048,-2.18116 0.77564,-2.72647 m 0.62048,-2.18118 0.77563,-2.72647 m 0.62049,-2.18118 0.77563,-2.72647 m 0.62049,-2.18116 0.7756,-2.72647 m 0.62051,-2.18118 0.19581,-0.68832 m -12.10587,42.55478 v 0 m 12.10587,-42.55478 v 0 m -29.42402,-29.98847 0.65824,2.75717 m 0.52655,2.20572 0.65823,2.75717"
       style="fill:none;stroke:#000000;stroke-width:0.3685;stroke-linecap:round;stroke-linejoin:round;stroke-miterlimit:10;stroke-dasharray:none;stroke-opacity:1"
       transform="matrix(1.3333333,0,0,-1.3333333,0,415.748)" />
    <path
       id="path15"
       d="m 344.65283,143.28851 0.65824,2.75717 m 0.52655,2.20575 0.65823,2.75718 m 0.52655,2.20571 0.65823,2.75718 m 0.52655,2.20572 0.65824,2.75717 m 0.52655,2.20575 0.65823,2.75717 m 0.52655,2.20572 0.65824,2.75717 m 0.52658,2.20572 0.6582,2.75717 m 0.52658,2.20575 0.6582,2.75717 m 0.52658,2.20572 0.65821,2.75717 m 0.52658,2.20572 0.6582,2.75717 m 0.52658,2.20575 0.65821,2.75717 m 0.52658,2.20572 0.6582,2.75717 m 0.52658,2.20572 0.6582,2.75717 m -17.2485,-72.25158 v 0 m 17.32144,72.55707 v 0 m -17.32144,-72.55707 0.78259,0.0939 0.77911,0.10043 0.77213,0.11341 0.47333,0.0826 m 2.20334,0.53351 0.40734,0.10278 2.19141,0.83014 m 2.08164,1.06616 1.9432,1.2616 0.40604,0.32138 m 1.755,1.43423 1.44474,1.35352 0.5798,0.62826 m 1.50668,1.69364 1.17008,1.43841 0.55975,0.80494 m 1.29468,1.86181 1.12274,1.6145 0.44247,0.74692 m 1.1558,1.95105 1.16937,1.974 0.25406,0.47684 m 1.06631,2.00137 1.30759,2.45419 m 1.047,2.07206 1.27838,2.52999 m -29.19458,-29.54168 v 0 m 29.42731,30.00229 v 0 m -43.3086,-18.13752 2.83396,0.0633 m 2.26715,0.0506 2.83392,0.0633 m 2.26767,0.008 2.83466,0.005 m 2.2677,0.004 0.92398,0.002 1.90997,-0.0515 m 2.26675,-0.0648 2.83066,-0.15052 m 2.26184,-0.15878 2.78772,-0.23663 m 2.2876,-0.2797 1.69363,-0.20703 1.11365,-0.18188 m 2.23807,-0.36551 0.54645,-0.0892 2.23626,-0.44931 m 2.21936,-0.46473 2.76044,-0.64447 m 2.1976,-0.55889 2.1709,-0.56623 0.56757,-0.16522 m 2.1773,-0.63391 2.72165,-0.79239"
       style="fill:none;stroke:#000000;stroke-width:0.3685;stroke-linecap:round;stroke-linejoin:round;stroke-miterlimit:10;stroke-dasharray:none;stroke-opacity:1"
       transform="matrix(1.3333333,0,0,-1.3333333,0,415.748)" />
    <path
       id="path16"
       d="m 383.79248,138.71396 0.0165,-0.005 2.68851,-0.84244 m 2.16397,-0.67807 2.70496,-0.84763 m -62.96778,8.87268 v 0 m 63.04764,-8.8977 v 0 m -62.86432,8.27499 0.80045,-2.71927 m 0.64035,-2.17541 0.80044,-2.7193 m 0.64038,-2.17542 0.80045,-2.71929 m 0.64035,-2.17542 0.80044,-2.71928 m 0.64039,-2.17543 0.80044,-2.71929 m 0.64035,-2.17543 0.80045,-2.71927 m 0.64035,-2.17543 0.80044,-2.71928 m 0.64038,-2.17543 0.80045,-2.71929 m 0.64035,-2.17541 0.80045,-2.71928 m 0.64038,-2.17544 0.80044,-2.71928 m 0.64035,-2.17543 0.80045,-2.71927 m 0.64035,-2.17543 0.80047,-2.71928 m 0.64035,-2.17543 0.80045,-2.71929 m -18.27347,62.07849 v 0 m 18.3844,-62.45533 v 0 m 0.0484,0.05801 1.81546,2.177 m 1.45236,1.74159 1.81546,2.17701 m 1.4524,1.74159 1.81546,2.177 m 1.45236,1.74161 1.81546,2.17699 m 1.45236,1.7416 1.81546,2.17699 m 1.45236,1.74161 1.81546,2.177 m 1.45237,1.74159 1.81546,2.177 m 1.45239,1.7416 1.81546,2.177 m 1.45236,1.74159 1.81546,2.177 m 1.45236,1.74159 1.81546,2.17701 m 1.45237,1.74159 1.81546,2.177 m 1.45236,1.74161 1.81546,2.177 m 1.45239,1.74158 1.81546,2.177 m 1.45236,1.74161 1.81546,2.177 M 346.78307,82.75817 v 0 m 44.66324,53.55763 v 0"
       style="fill:none;stroke:#000000;stroke-width:0.3685;stroke-linecap:round;stroke-linejoin:round;stroke-miterlimit:10;stroke-dasharray:none;stroke-opacity:1"
       transform="matrix(1.3333333,0,0,-1.3333333,0,415.748)" />
    <path
       id="path17"
       d="m 358.1297,96.36458 c -4.54239,3.78804 -10.67554,5.05946 -16.34943,3.38928"
       style="fill:none;stroke:#000000;stroke-width:0.3685;stroke-linecap:round;stroke-linejoin:round;stroke-miterlimit:10;stroke-dasharray:none;stroke-opacity:1"
       transform="matrix(1.3333333,0,0,-1.3333333,0,415.748)" />
    <path
       id="path18"
       d="m 309.37973,130.81668 4.25089,0.0949 m 5.95181,0.09 4.25195,0.007 m 5.95108,-0.11335 3.87814,-0.2062 0.36704,-0.0312 m 5.92264,-0.58826 1.69363,-0.20706 2.51245,-0.41031 m 5.84137,-1.14032 3.28281,-0.76645 0.85235,-0.22232 m 5.73865,-1.57997 4.08246,-1.18857 m 5.68552,-1.76307 2.78482,-0.87262 m -55.96277,9.0559 0.28339,0.006 m 9.92068,0.002 0.28336,-0.008 m 9.90313,-0.55722 0.28244,-0.024 m 9.81006,-1.44996 0.27789,-0.0558 m 9.65326,-2.28055 0.25086,-0.0654 m 9.53741,-2.81842 0.27051,-0.0848 m -57.55783,7.17747 v 0 m 63.04761,-8.8977 v 0 m -45.32498,101.44229 1.33722,2.49939 m 1.06979,1.99951 0.1272,0.23776 1.28225,2.2215 m 1.13367,1.96402 0.24634,0.42679 1.26108,1.97332 m 1.2897,1.86499 0.36749,0.52527 1.34723,1.73114 m 1.47904,1.7182 0.47601,0.54117 1.50687,1.48258 m 1.68072,1.52032 1.30487,1.11313 0.8938,0.67407 m 1.81946,1.35303 2.31213,1.5712 m 1.97415,1.19354 2.42575,1.46658 m 1.96183,1.13669 2.47934,1.37408 m 1.98346,1.09925 0.11453,0.0635 m -31.87393,-31.751 v 0 m 31.87393,31.751 v 0"
       style="fill:none;stroke:#000000;stroke-width:0.3685;stroke-linecap:round;stroke-linejoin:round;stroke-miterlimit:10;stroke-dasharray:none;stroke-opacity:1"
       transform="matrix(1.3333333,0,0,-1.3333333,0,415.748)" />
    <path
       id="path19"
       d="m 344.20029,188.19046 c -2.65067,2.67407 -5.76029,2.63931 -8.39658,-0.0938"
       style="fill:none;stroke:#000000;stroke-width:0.3685;stroke-linecap:round;stroke-linejoin:round;stroke-miterlimit:10;stroke-dasharray:none;stroke-opacity:1"
       transform="matrix(1.3333333,0,0,-1.3333333,0,415.748)" />
    <path
       id="path20"
       d="m 327.27792,222.64969 0.67908,-2.75211 m 0.54324,-2.20169 0.67908,-2.7521 m 0.54324,-2.20169 0.67908,-2.75211 m 0.54325,-2.20169 0.67907,-2.75211 m 0.54325,-2.20169 0.67907,-2.7521 m 0.54325,-2.20166 0.67907,-2.75211 m 0.54325,-2.20169 0.67907,-2.7521 m 0.54325,-2.2017 0.67907,-2.7521 m 0.54325,-2.20169 0.67908,-2.75211 m 0.54324,-2.20166 0.67908,-2.7521 m 0.54324,-2.20169 0.54675,-2.21582 m -12.94552,52.4653 v 0 m 12.94552,-52.4653 v 0 m 0.18585,0.79159 0.64795,2.75958 m 0.51837,2.20768 0.64795,2.75961 m 0.51838,2.20767 0.64794,2.75958 m 0.51835,2.20771 0.64795,2.75958 m 0.51837,2.20767 0.64795,2.75961 m 0.51834,2.20768 0.64795,2.75958 m 0.51837,2.2077 0.64795,2.75958 m 0.51837,2.20768 0.64795,2.75961 m 0.51834,2.20767 0.64795,2.75958 m 0.51837,2.20771 0.64795,2.75958 m 0.51834,2.20767 0.64795,2.75961 m 0.51837,2.20768 0.64795,2.75958 m 0.51837,2.2077 0.64795,2.75958 m 0.51834,2.20768 0.64795,2.75961 m 0.51837,2.20767 0.64795,2.75961 m 0.51834,2.20768 0.64795,2.75958 m 0.51837,2.20767 0.64795,2.75961 m -19.49475,-83.02758 v 0 m 19.75241,84.12493 v 0 M 409.25674,59.3744 h 9.49607 M 387.48285,24.90877 h 9.49606 m -207.0187,204.46477 7.0101,-2.92121 7.03823,-2.64252 3.53843,-1.12963 3.55603,-0.95548 3.57711,-0.74646 3.60169,-0.50256 3.67017,-0.23667 3.69534,0.0128 3.71692,0.22662 3.73486,0.40479 7.50934,1.2016 7.53808,1.48666 m -26.31234,37.55304 7.0101,-2.9212 7.03821,-2.64252 3.53845,-1.12964 3.556,-0.95547"
       style="fill:none;stroke:#000000;stroke-width:0.3685;stroke-linecap:round;stroke-linejoin:round;stroke-miterlimit:10;stroke-dasharray:none;stroke-opacity:1"
       transform="matrix(1.3333333,0,0,-1.3333333,0,415.748)" />
    <path
       id="path21"
       d="m 242.97693,253.47571 3.57712,-0.74643 3.60171,-0.5026 3.67017,-0.23663 3.69531,0.0128 3.71692,0.22662 3.73489,0.40482 7.50931,1.20157 7.53809,1.48666 m -90.06024,-25.94897 3.80972,-1.60767 3.82522,-1.56583 3.8563,-1.48214 3.90286,-1.35663 2.29388,-0.71292 2.31467,-0.64304 2.33533,-0.55963 2.35583,-0.46283 2.01868,-0.30881 2.02978,-0.22952 2.03724,-0.15073 2.04104,-0.0724 2.46262,0.0142 2.46045,0.1138 2.45578,0.19976 2.44867,0.2721 3.90612,0.55575 3.88764,0.66874 3.8753,0.74404 3.86917,0.78171 m -42.24932,21.67755 2.61654,-1.09036 m 2.09323,-0.87228 2.30033,-0.95856 0.32074,-0.12042 m 2.12301,-0.79709 2.65378,-0.99637 m 2.12619,-0.78787 2.70038,-0.86209 m 2.18106,-0.61902 2.02753,-0.54477 0.71969,-0.15021 m 2.21991,-0.46322 0.63749,-0.13303 2.16247,-0.30176 m 2.25208,-0.25323 2.82879,-0.18241 m 2.26764,0.006 1.45624,0.005 1.37582,0.0839 m 2.26352,0.13803 0.0775,0.005 2.7409,0.29706 m 2.24598,0.30805 2.79904,0.4479 m 2.23922,0.35831 1.21906,0.19504 1.56985,0.30963 m 2.22486,0.43878 2.78106,0.54849 m -57.22396,5.99182 v 0 m 58.18628,-5.80203 v 0 m -15.93696,-15.87552 2.65394,-6.57089 m 29.22,38.3219 2.65393,-6.57089"
       style="fill:none;stroke:#000000;stroke-width:0.3685;stroke-linecap:round;stroke-linejoin:round;stroke-miterlimit:10;stroke-dasharray:none;stroke-opacity:1"
       transform="matrix(1.3333333,0,0,-1.3333333,0,415.748)" />
    <path
       id="path22"
       d="m 248.14651,223.5715 31.87394,31.75101 m -29.22,-38.3219 31.87393,31.75101 m -92.71417,-19.37808 31.87396,31.751 m 30.86038,-37.62982 2.00827,2.00052 m 3.41403,3.40088 2.00827,2.00052 m 3.41406,3.40088 2.00827,2.00051 m 3.41404,3.40088 2.00827,2.00055 m 3.41406,3.40088 2.00827,2.00052 m 3.41403,3.40088 1.54129,1.53534 m -30.46029,-30.34284 0.20083,0.20005 m 5.22147,5.20135 0.20083,0.20004 m 5.2215,5.20136 0.20081,0.20007 m 5.22149,5.20136 0.20084,0.20004 m 5.2215,5.20136 0.2008,0.20004 m 5.2215,5.20135 0.20083,0.20008 m -28.72604,-28.6153 v 0 m 31.87393,31.75104 v 0 m -75.45022,-6.78803 1.18344,2.36731 m 1.01401,2.02838 1.26751,2.53547 m 1.01401,2.02838 1.26752,2.53546 m 1.014,2.02838 1.26752,2.53549 m 1.01401,2.02838 1.26749,2.53547 m 1.014,2.02838 1.26752,2.53546 m 1.01401,2.02838 1.26751,2.53549 m 1.01401,2.02838 1.26752,2.53546 m 1.01401,2.02839 1.26751,2.53546 m 1.01401,2.02838 1.26752,2.53549 m 1.01401,2.02838 1.26748,2.53546 m 1.01401,2.02838 1.26752,2.5355 m 1.01401,2.02838 1.02743,2.0552 m -28.32159,-56.65329 v 0 m 28.32159,56.65329 v 0 l 0.293,-0.6127 m 0.97827,-2.04587 1.22284,-2.55731 m 0.97827,-2.04584 1.22287,-2.55731 m 0.97827,-2.04586 1.22284,-2.55732 m 0.97827,-2.04583 1.22287,-2.55732 m 0.97828,-2.04586 1.22284,-2.55732 m 0.9783,-2.04583 1.22284,-2.55732 m 0.97827,-2.04586 1.22284,-2.55732 m 0.9783,-2.04583 1.22284,-2.55732 m 0.97827,-2.04586 1.22284,-2.55731 m 0.9783,-2.04584 1.22284,-2.55731 m 0.97827,-2.04587 1.22284,-2.55731 m 0.9783,-2.04584 1.22284,-2.55731 m 0.97827,-2.04587 1.22284,-2.55731 m -28.90762,60.45385 v 0 m 29.86469,-62.45532 v 0"
       style="fill:none;stroke:#000000;stroke-width:0.3685;stroke-linecap:round;stroke-linejoin:round;stroke-miterlimit:10;stroke-dasharray:none;stroke-opacity:1"
       transform="matrix(1.3333333,0,0,-1.3333333,0,415.748)" />
    <path
       id="path23"
       d="m 226.29684,286.05563 c 4.88938,-2.44424 10.63327,-2.49463 15.56473,-0.1365"
       style="fill:none;stroke:#000000;stroke-width:0.3685;stroke-linecap:round;stroke-linejoin:round;stroke-miterlimit:10;stroke-dasharray:none;stroke-opacity:1"
       transform="matrix(1.3333333,0,0,-1.3333333,0,415.748)" />
    <path
       id="path24"
       d="m 189.96021,229.37354 -1.7114,-7.10141 6.82416,-2.47306 6.84543,-2.26516 3.43737,-0.98969 3.45072,-0.85977 3.46667,-0.70386 3.48532,-0.522 4.30988,-0.36856 4.33804,-0.0941 4.36215,0.14127 4.38224,0.33737 8.80874,1.10611 8.84092,1.41989 m -60.84024,12.37293 -1.7114,-7.10141 m 0.87762,3.6416 2.64615,-1.01639 m 4.49848,-1.72791 0.41247,-0.15841 2.26212,-0.77985 m 4.55578,-1.57056 0.76459,-0.26358 1.94519,-0.56613 m 4.66043,-1.22101 1.02768,-0.24936 1.74747,-0.32348 m 4.76456,-0.70471 1.19741,-0.14212 1.6269,-0.0793 m 4.81622,-0.065 0.94336,0.012 1.88724,0.12241 m 4.79782,0.43899 0.76974,0.0831 2.03614,0.31555 m 4.76205,0.73801 0.70215,0.1088 2.08719,0.39431 m 4.73514,0.89457 0.70077,0.13238 m -55.58398,3.79816 0.26461,-0.10163 m 6.93546,-2.49047 0.26797,-0.0924 m 7.03486,-2.18823 0.27548,-0.0668 m 7.21005,-1.51159 0.28149,-0.0334 m 7.3415,-0.58615 0.28344,0.004 m 7.3595,0.32846 0.28183,0.0304 m 7.30145,0.98931 0.28012,0.0434 m 7.25861,1.27136 0.27853,0.0526 m -57.41797,6.18103 v 0 m 60.34705,-5.62769 v 0 m 0.27371,-94.88077 0.7826,0.0939 0.77911,0.10042 0.77212,0.11342 0.76169,0.13292 2.32236,0.58597 2.19138,0.83015 2.06918,1.05806 1.95566,1.26968 1.85089,1.46506 1.75488,1.6441"
       style="fill:none;stroke:#000000;stroke-width:0.3685;stroke-linecap:round;stroke-linejoin:round;stroke-miterlimit:10;stroke-dasharray:none;stroke-opacity:1"
       transform="matrix(1.3333333,0,0,-1.3333333,0,415.748)" />
    <path
       id="path25"
       d="m 264.98706,132.69897 1.66757,1.80689 1.58899,1.95343 2.97717,4.28125 2.76764,4.67194 2.62796,4.93243 2.55811,5.06262 m -29.42731,-30.00226 1.38281,0.19205 1.37558,0.21919 1.36115,0.27349 1.33951,0.35495 1.09515,0.37402 1.07236,0.44289 1.04675,0.50515 1.01843,0.56084 1.09046,0.6778 1.05243,0.73327 1.01437,0.78424 0.97635,0.83063 1.13501,1.06454 1.08252,1.11866 1.0336,1.1651 0.98834,1.20385 1.26602,1.67103 1.19934,1.71884 1.14164,1.75805 1.09283,1.78858 1.76608,3.08603 1.68,3.13336 1.62265,3.16498 1.59393,3.18072 m -30.69342,-36.97485 1.93756,0.59718 1.91748,0.62535 1.87732,0.6817 1.81708,0.76622 2.15521,1.10363 2.03854,1.26733 1.92966,1.42017 1.82852,1.56204 1.73517,1.69302 1.64963,1.81311 1.57184,1.92221 1.50183,2.02048 2.82477,4.29199 2.63809,4.55396 2.51361,4.72857 2.45141,4.81592 m -94.16922,-17.99258 0.7826,0.0939 0.77911,0.10043 0.77213,0.11341 0.76165,0.1329"
       style="fill:none;stroke:#000000;stroke-width:0.3685;stroke-linecap:round;stroke-linejoin:round;stroke-miterlimit:10;stroke-dasharray:none;stroke-opacity:1"
       transform="matrix(1.3333333,0,0,-1.3333333,0,415.748)" />
    <path
       id="path26"
       d="m 189.79507,134.74365 2.32236,0.58597 2.19141,0.83017 2.06918,1.05804 1.95566,1.26972 1.85092,1.46503 1.75485,1.6441 1.66758,1.80691 1.58898,1.9534 2.97718,4.28125 2.76764,4.67194 2.62796,4.93243 2.5581,5.06266 m 32.98725,-42.38629 1.55804,0.35185 1.54437,0.37306 1.02805,0.28154 m 5.50149,2.23245 0.7175,0.38077 1.94995,1.27484 0.87442,0.6837 m 4.34122,4.06006 0.0251,0.0263 1.57132,1.86264 1.07364,1.41809 m 3.30795,4.94699 2.11218,3.69025 m 2.77643,5.26495 0.11575,0.22256 1.77686,3.58494 m -23.46176,-28.7394 0.26199,0.10825 m 8.25265,5.3946 0.20923,0.19126 m 6.24741,7.67508 0.15616,0.23657 m 5.0029,8.55984 0.1308,0.2515 m -27.07367,-24.33273 v 0 m 30.90753,31.93258 v 0 m -93.32209,-19.54858 -1.26611,-6.9726 63.04761,-8.8977 m 1.26611,6.97259 -63.04761,8.89771 m 92.47492,21.10455 -63.04761,8.89774 m 63.04761,-8.89774 1.6943,-3.11197 m -31.12161,-26.89029 -1.26611,-6.97259 m -60.02054,12.04614 2.80682,-0.39612 m 4.77161,-0.6734 2.80686,-0.39612 m 4.7716,-0.6734 2.80683,-0.39612 m 4.7716,-0.6734 2.80686,-0.39611 m 4.7716,-0.67341 2.80683,-0.39613 m 4.7716,-0.6734 2.80686,-0.39612 m 4.7716,-0.6734 2.80683,-0.39612 m 4.7716,-0.6734 2.80686,-0.39612 m 4.7716,-0.6734 0.026,-0.004 m -63.04761,8.8977 0.14853,-0.021 m 7.29776,-1.02991 0.2807,-0.0396 m 7.29776,-1.02991 0.28067,-0.0396 m 7.29779,-1.02991 0.28067,-0.0396 m 7.29776,-1.02991 0.28067,-0.0396"
       style="fill:none;stroke:#000000;stroke-width:0.3685;stroke-linecap:round;stroke-linejoin:round;stroke-miterlimit:10;stroke-dasharray:none;stroke-opacity:1"
       transform="matrix(1.3333333,0,0,-1.3333333,0,415.748)" />
    <path
       id="path27"
       d="m 223.82663,125.48772 0.28067,-0.0396 m 7.29776,-1.0299 0.2807,-0.0396 m 7.29776,-1.02991 0.28067,-0.0396 m 7.29776,-1.02991 0.2807,-0.0396 m -60.77612,8.57713 v 0 m 63.04761,-8.8977 v 0 m -30.89075,7.93515 1.38281,0.19204 1.37555,0.21921 m 2.25531,0.51041 0.44537,0.11801 1.09516,0.37402 1.07236,0.4429 m 2.06451,1.06562 6.7e-4,3.9e-4 1.09045,0.67777 1.05243,0.73327 0.21143,0.16346 m 1.75714,1.43255 0.0222,0.0189 1.13501,1.06455 0.86886,0.89789 m 1.50296,1.69732 0.73264,0.8924 1.01455,1.33911 m 1.31086,1.85016 0.13995,0.20059 1.14163,1.75806 0.25748,0.42141 m 1.16592,1.9448 1.40796,2.46026 m 1.07291,1.99781 0.63464,1.18368 0.68051,1.3273 m 1.0329,2.0188 1.26999,2.53424 m -29.19412,-29.53689 v 0 m 29.42731,30.00228 v 0 m -11.25733,45.62336 0.67908,-2.75211 m 0.54324,-2.20166 0.67908,-2.7521 m 0.54324,-2.2017 0.67908,-2.7521 m 0.54324,-2.20169 0.67908,-2.75211 m 0.54324,-2.20169 0.67908,-2.7521 m 0.54324,-2.20166 0.67908,-2.75211 m 0.54324,-2.20169 0.67908,-2.75211 m 0.54328,-2.20169 0.67904,-2.7521 m 0.54328,-2.20169 0.67904,-2.75211 m 0.54328,-2.20169 0.25641,-1.03928 m -11.36249,46.0496 v 0 m 11.36249,-46.04957 v 0 m -29.00861,-28.23956 0.65512,2.75791 m 0.52408,2.20633 0.65509,2.7579 m 0.52408,2.20633 0.65509,2.75793 m 0.52408,2.20633 0.65509,2.75791 m 0.52408,2.20633 0.65509,2.7579 m 0.52407,2.20633 0.65509,2.7579 m 0.52408,2.20633 0.65509,2.75791 m 0.52408,2.20633 0.65509,2.7579 m 0.52408,2.20633 0.65509,2.7579"
       style="fill:none;stroke:#000000;stroke-width:0.3685;stroke-linecap:round;stroke-linejoin:round;stroke-miterlimit:10;stroke-dasharray:none;stroke-opacity:1"
       transform="matrix(1.3333333,0,0,-1.3333333,0,415.748)" />
    <path
       id="path28"
       d="m 229.25464,176.29498 0.65509,2.75794 m 0.52408,2.20633 0.65509,2.7579 m 0.52408,2.20633 0.65509,2.7579 m 0.52407,2.20633 0.6551,2.75791 m 0.52407,2.20633 0.65509,2.7579 m 0.52408,2.20633 0.65509,2.7579 m -17.58218,-74.01995 v 0 m 18.06482,76.05185 v 0"
       style="fill:none;stroke:#000000;stroke-width:0.3685;stroke-linecap:round;stroke-linejoin:round;stroke-miterlimit:10;stroke-dasharray:none;stroke-opacity:1"
       transform="matrix(1.3333333,0,0,-1.3333333,0,415.748)" />
    <path
       id="path29"
       d="m 232.1358,188.61148 c 2.65067,-2.67407 5.76032,-2.63934 8.39658,0.0938"
       style="fill:none;stroke:#000000;stroke-width:0.3685;stroke-linecap:round;stroke-linejoin:round;stroke-miterlimit:10;stroke-dasharray:none;stroke-opacity:1"
       transform="matrix(1.3333333,0,0,-1.3333333,0,415.748)" />
    <path
       id="path30"
       d="m 185.43347,33.0356 1.7898,-6.85687 m 61.35849,15.51146 1.78979,-6.85688 -63.14828,-8.65458 m 61.35849,15.51146 -63.14829,-8.65459 m 6.11304,-2.71329 4.21258,0.57735 m 5.89762,0.80829 4.21261,0.57733 m 5.89762,0.80829 4.21258,0.57734 m 5.89765,0.80828 4.21258,0.57734 m 5.89762,0.80828 4.21258,0.57734 m 5.89765,0.80829 4.21258,0.57733 m -57.8529,-7.92884 0.28085,0.03849 m 9.82934,1.34714 0.28086,0.03848 m 9.82937,1.34714 0.28086,0.03848 m 9.82937,1.34714 0.28083,0.0385 m 9.82937,1.34712 0.28086,0.0385 m 9.82937,1.34714 0.28082,0.03848 m 9.82938,1.34714 0.28085,0.03848 m -63.07104,-8.644 v 0 m 63.14828,8.65459 v 0 m 31.24152,17.68364 -1.55432,-6.91405 m -28.7923,-14.19803 28.7923,14.19803 M 185.43347,33.0356 219.08948,80.88356 280.71817,55.94539 m -32.13641,-14.2552 1.78979,-6.85688 m -1.78979,6.85688 32.13641,14.2552 m -28.81284,-16.54947 3.85257,1.79913 m 5.39362,2.51877 3.8526,1.79913 m 5.39359,2.51877 3.8526,1.79914 m 5.39361,2.51876 0.29709,0.13874 m -21.61472,-10.09389 0.25684,0.11993 m 8.98935,4.19797 0.25687,0.11994 m 8.98935,4.19796 0.25683,0.11994 M 249.47665,38.26175 v 0 m 30.46436,14.22661 v 0 M 187.08463,35.71654 v 2.83464 m 0,2.26771 v 0.1254 m 0,-7.08662 v 0 m 0,7.08662 v 0 m 63.28692,-14.66124 v 2.0634 m 0,2.26773 v 2.75549 m 0,-7.08662 v 0 m 0,7.08662 v 0 M 282.186,58.51016 v 0.45047 m 0,2.26772 V 64.063 m 0,-5.55284 v 0 m 0,7.08663 v 0 m -31.81445,-39.31374 1.49295,1.51233 m 1.59317,1.61381 1.99143,2.01728 m 1.59317,1.61381 1.99142,2.01728 m 1.59317,1.61381 1.99143,2.01727"
       style="fill:none;stroke:#000000;stroke-width:0.3685;stroke-linecap:round;stroke-linejoin:round;stroke-miterlimit:10;stroke-dasharray:none;stroke-opacity:1"
       transform="matrix(1.3333333,0,0,-1.3333333,0,415.748)" />
    <path
       id="path31"
       d="m 264.21143,40.30246 1.99145,2.01727 m 1.59314,1.61382 1.99146,2.01727 m 1.59314,1.61382 1.99145,2.01727 m 1.59314,1.61381 1.99146,2.01728 m 1.59313,1.61381 1.99146,2.01728 m 1.59314,1.61381 0.0516,0.05226 M 250.37155,26.28305 v 0 M 282.186,58.51016 v 0 m -93.1654,-24.8842 2.81454,-0.33687 m 2.25165,-0.26948 2.81458,-0.33687 m 2.25165,-0.2695 2.81454,-0.33685 m 2.25165,-0.26951 2.81454,-0.33686 m 2.25165,-0.26949 2.81458,-0.33687 m 2.25164,-0.26948 2.81455,-0.33687 m 2.25165,-0.2695 2.81457,-0.33687 m 2.25165,-0.26949 2.81454,-0.33686 m 2.25165,-0.26949 2.81455,-0.33687 m 2.25164,-0.2695 2.81458,-0.33687 m 2.25165,-0.26948 2.81454,-0.33687 m 2.25165,-0.26949 2.81458,-0.33686 m 2.25164,-0.2695 0.55649,-0.06661 m -63.28692,7.57462 v 0 m 63.28692,-7.57462 v 0 m -63.28692,14.66124 0.5205,-0.0623 m 2.25165,-0.2695 2.81458,-0.33686 m 2.25164,-0.2695 2.81455,-0.33686 m 2.25165,-0.26949 2.81457,-0.33687 m 2.25165,-0.26948 2.81454,-0.33687 m 2.25165,-0.2695 2.81455,-0.33687 m 2.25165,-0.26949 2.81457,-0.33686 m 2.25165,-0.26949 2.81454,-0.33687 m 2.25165,-0.2695 2.81458,-0.33685 m 2.25161,-0.2695 2.81458,-0.33687 m 2.25165,-0.26949 2.81454,-0.33686 m 2.25165,-0.26951 2.81457,-0.33685 m 2.25165,-0.2695 2.81455,-0.33687 m -61.31497,7.33861 v 0 m 63.28692,-7.57462 v 0 l 1.53455,1.55445 m 1.59314,1.61381 1.99145,2.01728 m 1.59314,1.61381 1.99146,2.01727 m 1.59314,1.61382 1.99145,2.01727 m 1.59314,1.61382 1.99146,2.01726 m 1.59314,1.61383 1.99142,2.01725 m 1.59317,1.61382 1.99143,2.01727 m 1.59317,1.61382 1.99142,2.01727 m 1.59317,1.61382 1.99142,2.01727 m 1.59317,1.61381 0.01,0.01017 M 250.37154,33.36967 v 0 m 31.81445,32.22712 v 0"
       style="fill:none;stroke:#000000;stroke-width:0.3685;stroke-linecap:round;stroke-linejoin:round;stroke-miterlimit:10;stroke-dasharray:none;stroke-opacity:1"
       transform="matrix(1.3333333,0,0,-1.3333333,0,415.748)" />
    <path
       id="path32"
       d="m 187.08463,40.94429 0.30648,0.31047 m 1.59317,1.61382 1.99143,2.01727 m 1.59317,1.61381 1.99142,2.01728 m 1.59317,1.61381 1.99143,2.01728 m 1.59317,1.61381 1.99142,2.01727 m 1.59317,1.61382 1.99143,2.01726 m 1.59314,1.61383 1.99145,2.01726 m 1.59314,1.61383 1.99146,2.01725 m 1.59314,1.61383 1.99145,2.01726 m 1.59314,1.61382 1.23807,1.25413 M 187.08463,40.94429 v 0 m 31.81445,32.22711 v 0 m 0.54074,-0.06473 2.81454,-0.33686 m 2.25165,-0.26949 2.81455,-0.33687 m 2.25164,-0.26948 2.81458,-0.33687 m 2.25165,-0.2695 2.81454,-0.33686 m 2.25165,-0.2695 2.81458,-0.33686 m 2.25164,-0.26949 2.81455,-0.33687 m 2.25165,-0.26948 2.81454,-0.33687 m 2.25165,-0.2695 2.81457,-0.33687 m 2.25165,-0.26949 2.81455,-0.33686 m 2.25164,-0.26949 2.81455,-0.33687 m 2.25165,-0.2695 2.81457,-0.33685 m 2.25165,-0.2695 2.81454,-0.33687 m 2.25165,-0.26949 1.95175,-0.23359 m -63.28692,7.57461 v 0 M 282.186,65.59679 v 0"
       style="fill:none;stroke:#000000;stroke-width:0.3685;stroke-linecap:round;stroke-linejoin:round;stroke-miterlimit:10;stroke-dasharray:none;stroke-opacity:1"
       transform="matrix(1.3333333,0,0,-1.3333333,0,415.748)" />
    <path
       id="path33"
       d="m 257.04974,38.12645 c 0.53711,-1.08925 1.25263,-2.08099 2.11692,-2.9342"
       style="fill:none;stroke:#000000;stroke-width:0.3685;stroke-linecap:round;stroke-linejoin:round;stroke-miterlimit:10;stroke-dasharray:none;stroke-opacity:1"
       transform="matrix(1.3333333,0,0,-1.3333333,0,415.748)" />
    <path
       id="path34"
       d="m 274.56201,53.21461 c -0.45425,1.02405 -1.09668,1.95376 -1.89392,2.74079"
       style="fill:none;stroke:#000000;stroke-width:0.3685;stroke-linecap:round;stroke-linejoin:round;stroke-miterlimit:10;stroke-dasharray:none;stroke-opacity:1"
       transform="matrix(1.3333333,0,0,-1.3333333,0,415.748)" />
    <path
       id="path35"
       d="m 285.94354,59.3744 h 9.49607 M 264.16965,24.90877 h 9.49606 M 54.88432,229.06827 v -7.08661 m 63.28693,-0.48801 v -7.08661 m 31.81447,39.31372 v -7.0866 m -31.81447,-32.22712 31.81447,32.22712 m -31.81447,-32.22712 -63.28693,7.57462 m 63.28693,-0.48801 -63.28693,7.57462 m 63.28693,-7.57462 31.81447,32.22711 m -95.1014,-24.65249 31.81446,32.22711 m 63.28694,-7.57462 -63.28694,7.57462 m -28.91526,-36.11743 2.81456,-0.33686 m 4.78475,-0.57266 2.81456,-0.33688 m 4.78474,-0.57266 2.81456,-0.33686 m 4.78475,-0.57269 2.81456,-0.33685 m 4.78476,-0.57266 2.81454,-0.33689 m 4.78476,-0.57266 2.81456,-0.33688 m 4.78474,-0.57267 2.81456,-0.33685 m 4.78475,-0.57269 2.81456,-0.33686 m -58.54282,7.00681 0.28147,-0.0337 m 7.31784,-0.87586 0.28146,-0.0337 m 7.31786,-0.87582 0.28144,-0.0337 m 7.31786,-0.87586 0.28145,-0.0337 m 7.31785,-0.87585 0.28147,-0.0337 m 7.31784,-0.87586 0.28146,-0.0337 m 7.31784,-0.87585 0.28147,-0.0337 m 7.31785,-0.87585 0.28145,-0.0337 m 7.31786,-0.87586 0.28144,-0.0337 m -61.442,7.35382 v 0 m 63.28693,-7.57461 v 0 l 1.38467,1.40262 m 3.38546,3.42938 1.99144,2.01724 m 3.38545,3.42938 1.99145,2.01728 m 3.38544,3.42935 1.99142,2.01727 m 3.38547,3.42935 1.99143,2.01728 m 3.38546,3.42935 1.99143,2.01727 m 3.38547,3.42935 0.15988,0.16199 m -28.83664,-29.21066 0.19914,0.20172 m 5.17775,5.2449 0.19914,0.20172 m 5.17775,5.24491 0.19916,0.20172 m 5.17773,5.2449 0.19913,0.20175 m 5.17777,5.24491 0.19912,0.20172 m 5.17777,5.2449 0.19913,0.20172 m -30.06142,-30.45132 v 0 m 31.81447,32.22711 v 0 M 54.90535,41.1151 v -7.08661 m 63.28693,-0.48801 v -7.08661 m 31.81446,39.31372 V 58.68098 M 118.19228,26.45387 150.00674,58.68098 M 118.19228,26.45387 54.90535,34.02849"
       style="fill:none;stroke:#000000;stroke-width:0.3685;stroke-linecap:round;stroke-linejoin:round;stroke-miterlimit:10;stroke-dasharray:none;stroke-opacity:1"
       transform="matrix(1.3333333,0,0,-1.3333333,0,415.748)" />
    <path
       id="path36"
       d="M 118.19228,33.54048 54.90535,41.1151 m 63.28693,-7.57462 31.81446,32.22711 M 54.90535,41.1151 86.7198,73.34221 M 150.00674,65.76759 86.7198,73.34221 M 58.4039,37.15306 61.21846,36.81619 m 4.78474,-0.57266 2.81456,-0.33687 m 4.78476,-0.57268 2.81456,-0.33686 m 4.78475,-0.57267 2.81456,-0.33686 m 4.78474,-0.57268 2.81456,-0.33687 m 4.78475,-0.57266 2.81456,-0.33687 m 4.78474,-0.57268 2.81456,-0.33687 m 4.78476,-0.57266 2.81454,-0.33687 m -58.5428,7.00681 0.28145,-0.03368 m 7.31786,-0.87585 0.28145,-0.03369 m 7.31785,-0.87586 0.28147,-0.03367 m 7.31784,-0.87586 0.28146,-0.03369 m 7.31786,-0.87586 0.28144,-0.03367 m 7.31786,-0.87586 0.28145,-0.03369 m 7.31785,-0.87585 0.28147,-0.03368 m 7.31784,-0.87585 0.28146,-0.03369 m 7.31784,-0.87584 0.28147,-0.03369 m -62.04137,7.42553 v 0 m 63.28693,-7.57461 v 0 m 1.94452,1.96972 1.99143,2.01728 m 3.38544,3.42936 1.99144,2.01728 m 3.38545,3.42935 1.99146,2.01727 m 3.38544,3.42937 1.99145,2.01726 m 3.38544,3.42936 1.99145,2.01728 m 3.38544,3.42935 1.99142,2.01727 m -30.66816,-31.06596 0.19914,0.20172 m 5.17773,5.2449 0.19916,0.20174 m 5.17774,5.2449 0.19915,0.20172 m 5.17774,5.24491 0.19916,0.20173 m 5.17773,5.24491 0.19916,0.20172 m 5.17773,5.2449 0.19916,0.20172 M 118.19228,29.99718 v 0 m 31.81446,32.22711 v 0 m -95.10139,70.02467 v -7.08662 m 63.28693,-0.48799 v -7.08663 m 31.81446,39.31374 v -7.08661 m -31.81446,-32.22713 31.81446,32.22713 m -31.81446,-32.22713 -63.28693,7.57462 m 63.28693,-0.48799 -63.28693,7.57461 m 63.28693,-7.57461 31.81446,32.22711 m -95.10139,-24.6525 31.81445,32.22711 m 63.28694,-7.57461 -63.28694,7.57461 m -31.81445,-35.77041 1.86798,-0.22357 m 4.78474,-0.57268 2.81456,-0.33687 m 4.78476,-0.57268 2.81456,-0.33685 m 4.78475,-0.57268 2.81456,-0.33687"
       style="fill:none;stroke:#000000;stroke-width:0.3685;stroke-linecap:round;stroke-linejoin:round;stroke-miterlimit:10;stroke-dasharray:none;stroke-opacity:1"
       transform="matrix(1.3333333,0,0,-1.3333333,0,415.748)" />
    <path
       id="path37"
       d="m 84.356,125.18079 2.81456,-0.33686 m 4.78475,-0.57267 2.81456,-0.33687 m 4.78474,-0.57267 2.81456,-0.33686 m 4.78476,-0.57268 2.81455,-0.33687 m 4.78475,-0.57266 2.81456,-0.33687 m -58.54281,7.00681 0.28145,-0.0337 m 7.31785,-0.87584 0.28147,-0.0337 m 7.31784,-0.87585 0.28146,-0.0337 m 7.31786,-0.87584 0.28144,-0.0337 m 7.31786,-0.87586 0.28145,-0.0337 m 7.31785,-0.87586 0.28147,-0.0337 m 7.31784,-0.87585 0.28146,-0.0337 m 7.31784,-0.87585 0.28147,-0.0337 m -57.59624,6.89353 v 0 m 63.28693,-7.57462 v 0 l 1.38792,1.40592 m 3.38545,3.42936 1.99144,2.01728 m 3.38544,3.42936 1.99145,2.01728 m 3.38544,3.42935 1.99146,2.01727 m 3.38543,3.42935 1.99146,2.01728 m 3.38544,3.42935 1.99145,2.01727 m 3.38544,3.42938 0.15664,0.15866 m -28.83338,-29.20738 0.19914,0.20174 m 5.17775,5.2449 0.19914,0.20172 m 5.17773,5.24491 0.19916,0.20172 m 5.17774,5.2449 0.19915,0.20175 m 5.17774,5.24491 0.19916,0.20172 m 5.17773,5.2449 0.19916,0.20172 m -30.06468,-30.45462 v 0 m 31.81446,32.22711 v 0 M 10.95456,234.32599 42.76903,266.5531 m 110.88475,-9.1644 25.44073,25.75071 m -88.72767,-18.17609 25.44073,25.7507 m -2.76355,-2.8194 63.28694,-7.57461 m -63.28694,7.57461 3.16638,-0.37896 m -3.16638,0.37896 v 0 l 3.00583,0.0685 -0.10106,-0.84436 -2.90477,0.77587 m 63.28694,-7.57461 -3.16638,0.37897 m 3.16638,-0.37897 v 0 l -2.90475,0.77588 -0.10108,-0.84436 3.00583,0.0685 M 10.97559,137.50677 42.79004,169.73389 m 110.88473,-9.1644 25.44074,25.7507 m -88.72766,-18.17609 25.44073,25.75071 m -2.76353,-2.8194 63.28694,-7.57462 m -63.28694,7.57462 3.16638,-0.37897 m -3.16638,0.37897 v 0"
       style="fill:none;stroke:#000000;stroke-width:0.3685;stroke-linecap:round;stroke-linejoin:round;stroke-miterlimit:10;stroke-dasharray:none;stroke-opacity:1"
       transform="matrix(1.3333333,0,0,-1.3333333,0,415.748)" />
    <path
       id="path38"
       d="m 113.06505,191.07541 v 0 l 3.00581,0.0685 -0.10106,-0.84436 -2.90475,0.77588 m 63.28694,-7.57462 -3.16638,0.37897 m 3.16638,-0.37897 v 0 l -2.90475,0.77591 -0.10108,-0.84439 3.00583,0.0685 M 153.67477,69.43568 179.11551,95.18638 M 90.38785,77.01029 115.82858,102.761 m -2.76353,-2.8194 63.28694,-7.57462 m -63.28694,7.57462 3.16638,-0.37898 m -3.16638,0.37898 v 0 l 3.00581,0.06847 -0.10106,-0.84437 -2.90475,0.7759 m 63.28694,-7.57462 -3.16638,0.37897 m 3.16638,-0.37897 v 0 l -2.90475,0.7759 -0.10108,-0.84438 3.00583,0.06848 M 10.97559,46.37291 42.79004,78.60002"
       style="fill:none;stroke:#000000;stroke-width:0.3685;stroke-linecap:round;stroke-linejoin:round;stroke-miterlimit:10;stroke-dasharray:none;stroke-opacity:1"
       transform="matrix(1.3333333,0,0,-1.3333333,0,415.748)" />
    <text
       id="text38"
       xml:space="preserve"
       transform="matrix(1.3333333,0,0,1.3333333,66.247027,85.956133)"
       clip-path="url(#clipPath39)"><tspan
         style="font-style:italic;font-variant:normal;font-weight:normal;font-stretch:normal;font-size:10.0071px;font-family:'Palatino Linotype';writing-mode:lr-tb;fill:#000000;fill-opacity:1;fill-rule:nonzero;stroke:none"
         x="0"
         y="0"
         id="tspan38">m</tspan></text>
    <text
       id="text39"
       xml:space="preserve"
       transform="matrix(1.3333333,0,0,1.3333333,78.36296,91.46796)"
       clip-path="url(#clipPath40)"><tspan
         style="font-style:italic;font-variant:normal;font-weight:normal;font-stretch:normal;font-size:6.00428px;font-family:'Palatino Linotype';writing-mode:lr-tb;fill:#000000;fill-opacity:1;fill-rule:nonzero;stroke:none"
         x="0 3.00214"
         y="0"
         sodipodi:role="line"
         id="tspan39">xx</tspan></text>
    <text
       id="text40"
       xml:space="preserve"
       transform="matrix(1.3333333,0,0,1.3333333,95.642787,54.791587)"
       clip-path="url(#clipPath41)"><tspan
         style="font-style:italic;font-variant:normal;font-weight:normal;font-stretch:normal;font-size:10.0071px;font-family:'Palatino Linotype';writing-mode:lr-tb;fill:#000000;fill-opacity:1;fill-rule:nonzero;stroke:none"
         x="0"
         y="0"
         id="tspan40">z</tspan></text>
    <text
       id="text41"
       xml:space="preserve"
       transform="matrix(1.3333333,0,0,1.3333333,118.55023,20.412533)"
       clip-path="url(#clipPath42)"><tspan
         style="font-style:italic;font-variant:normal;font-weight:normal;font-stretch:normal;font-size:10.0071px;font-family:'Palatino Linotype';writing-mode:lr-tb;fill:#000000;fill-opacity:1;fill-rule:nonzero;stroke:none"
         x="0"
         y="0"
         id="tspan41">x</tspan></text>
    <text
       id="text42"
       xml:space="preserve"
       transform="matrix(1.3333333,0,0,1.3333333,64.741347,35.638813)"
       clip-path="url(#clipPath43)"><tspan
         style="font-style:italic;font-variant:normal;font-weight:normal;font-stretch:normal;font-size:10.0071px;font-family:'Palatino Linotype';writing-mode:lr-tb;fill:#000000;fill-opacity:1;fill-rule:nonzero;stroke:none"
         x="0"
         y="0"
         id="tspan42">y</tspan></text>
    <text
       id="text43"
       xml:space="preserve"
       transform="matrix(1.3333333,0,0,1.3333333,189.8546,115.05831)"
       clip-path="url(#clipPath44)"><tspan
         style="font-style:italic;font-variant:normal;font-weight:normal;font-stretch:normal;font-size:10.0071px;font-family:'Palatino Linotype';writing-mode:lr-tb;fill:#000000;fill-opacity:1;fill-rule:nonzero;stroke:none"
         x="0"
         y="0"
         id="tspan43">m</tspan></text>
    <text
       id="text44"
       xml:space="preserve"
       transform="matrix(1.3333333,0,0,1.3333333,201.97053,120.57013)"
       clip-path="url(#clipPath45)"><tspan
         style="font-style:italic;font-variant:normal;font-weight:normal;font-stretch:normal;font-size:6.00428px;font-family:'Palatino Linotype';writing-mode:lr-tb;fill:#000000;fill-opacity:1;fill-rule:nonzero;stroke:none"
         x="0 3.00214"
         y="0"
         sodipodi:role="line"
         id="tspan44">xx</tspan></text>
    <text
       id="text45"
       xml:space="preserve"
       transform="matrix(1.3333333,0,0,1.3333333,103.90388,264.88375)"
       clip-path="url(#clipPath46)"><tspan
         style="font-style:italic;font-variant:normal;font-weight:normal;font-stretch:normal;font-size:10.0071px;font-family:'Palatino Linotype';writing-mode:lr-tb;fill:#000000;fill-opacity:1;fill-rule:nonzero;stroke:none"
         x="0"
         y="0"
         id="tspan45">m</tspan></text>
    <text
       id="text46"
       xml:space="preserve"
       transform="matrix(1.3333333,0,0,1.3333333,116.0198,270.39555)"
       clip-path="url(#clipPath47)"><tspan
         style="font-style:italic;font-variant:normal;font-weight:normal;font-stretch:normal;font-size:6.00428px;font-family:'Palatino Linotype';writing-mode:lr-tb;fill:#000000;fill-opacity:1;fill-rule:nonzero;stroke:none"
         x="0 3.00214"
         y="0"
         sodipodi:role="line"
         id="tspan46">yy</tspan></text>
    <text
       id="text47"
       xml:space="preserve"
       transform="matrix(1.3333333,0,0,1.3333333,68.42116,330.64451)"
       clip-path="url(#clipPath48)"><tspan
         style="font-style:italic;font-variant:normal;font-weight:normal;font-stretch:normal;font-size:10.0071px;font-family:'Palatino Linotype';writing-mode:lr-tb;fill:#000000;fill-opacity:1;fill-rule:nonzero;stroke:none"
         x="0"
         y="0"
         id="tspan47">m</tspan></text>
    <text
       id="text48"
       xml:space="preserve"
       transform="matrix(1.3333333,0,0,1.3333333,80.537093,336.15631)"
       clip-path="url(#clipPath49)"><tspan
         style="font-style:italic;font-variant:normal;font-weight:normal;font-stretch:normal;font-size:6.00428px;font-family:'Palatino Linotype';writing-mode:lr-tb;fill:#000000;fill-opacity:1;fill-rule:nonzero;stroke:none"
         x="0 3.00214"
         y="0"
         sodipodi:role="line"
         id="tspan48">xy</tspan></text>
    <text
       id="text49"
       xml:space="preserve"
       transform="matrix(1.3333333,0,0,1.3333333,186.40408,365.78579)"
       clip-path="url(#clipPath50)"><tspan
         style="font-style:italic;font-variant:normal;font-weight:normal;font-stretch:normal;font-size:10.0071px;font-family:'Palatino Linotype';writing-mode:lr-tb;fill:#000000;fill-opacity:1;fill-rule:nonzero;stroke:none"
         x="0"
         y="0"
         id="tspan49">m</tspan></text>
    <text
       id="text50"
       xml:space="preserve"
       transform="matrix(1.3333333,0,0,1.3333333,198.52001,371.29759)"
       clip-path="url(#clipPath51)"><tspan
         style="font-style:italic;font-variant:normal;font-weight:normal;font-stretch:normal;font-size:6.00428px;font-family:'Palatino Linotype';writing-mode:lr-tb;fill:#000000;fill-opacity:1;fill-rule:nonzero;stroke:none"
         x="0 3.00214"
         y="0"
         sodipodi:role="line"
         id="tspan50">xy</tspan></text>
    <text
       id="text51"
       xml:space="preserve"
       transform="matrix(1.3333333,0,0,1.3333333,147.11977,307.53984)"
       clip-path="url(#clipPath52)"><tspan
         style="font-style:italic;font-variant:normal;font-weight:normal;font-stretch:normal;font-size:10.0071px;font-family:'Palatino Linotype';writing-mode:lr-tb;fill:#000000;fill-opacity:1;fill-rule:nonzero;stroke:none"
         x="0"
         y="0"
         id="tspan51">m</tspan></text>
    <text
       id="text52"
       xml:space="preserve"
       transform="matrix(1.3333333,0,0,1.3333333,159.23572,313.05165)"
       clip-path="url(#clipPath53)"><tspan
         style="font-style:italic;font-variant:normal;font-weight:normal;font-stretch:normal;font-size:6.00428px;font-family:'Palatino Linotype';writing-mode:lr-tb;fill:#000000;fill-opacity:1;fill-rule:nonzero;stroke:none"
         x="0 3.00214"
         y="0"
         sodipodi:role="line"
         id="tspan52">yx</tspan></text>
    <text
       id="text53"
       xml:space="preserve"
       transform="matrix(1.3333333,0,0,1.3333333,155.10412,192.22627)"
       clip-path="url(#clipPath54)"><tspan
         style="font-style:italic;font-variant:normal;font-weight:normal;font-stretch:normal;font-size:10.0071px;font-family:'Palatino Linotype';writing-mode:lr-tb;fill:#000000;fill-opacity:1;fill-rule:nonzero;stroke:none"
         x="0"
         y="0"
         id="tspan53">m</tspan></text>
    <text
       id="text54"
       xml:space="preserve"
       transform="matrix(1.3333333,0,0,1.3333333,167.22004,197.73807)"
       clip-path="url(#clipPath55)"><tspan
         style="font-style:italic;font-variant:normal;font-weight:normal;font-stretch:normal;font-size:6.00428px;font-family:'Palatino Linotype';writing-mode:lr-tb;fill:#000000;fill-opacity:1;fill-rule:nonzero;stroke:none"
         x="0 3.00214"
         y="0"
         sodipodi:role="line"
         id="tspan54">yy</tspan></text>
    <text
       id="text55"
       xml:space="preserve"
       transform="matrix(1.3333333,0,0,1.3333333,109.2104,391.72024)"
       clip-path="url(#clipPath56)"><tspan
         style="font-style:italic;font-variant:normal;font-weight:normal;font-stretch:normal;font-size:10.0071px;font-family:'Palatino Linotype';writing-mode:lr-tb;fill:#000000;fill-opacity:1;fill-rule:nonzero;stroke:none"
         x="0"
         y="0"
         id="tspan55">m</tspan></text>
    <text
       id="text56"
       xml:space="preserve"
       transform="matrix(1.3333333,0,0,1.3333333,121.32633,397.23205)"
       clip-path="url(#clipPath57)"><tspan
         style="font-style:italic;font-variant:normal;font-weight:normal;font-stretch:normal;font-size:6.00428px;font-family:'Palatino Linotype';writing-mode:lr-tb;fill:#000000;fill-opacity:1;fill-rule:nonzero;stroke:none"
         x="0 3.00214 6.0042801"
         y="0"
         sodipodi:role="line"
         id="tspan56">yx </tspan></text>
    <text
       id="text57"
       xml:space="preserve"
       transform="matrix(1.3333333,0,0,1.3333333,132.21459,391.72024)"
       clip-path="url(#clipPath58)"><tspan
         style="font-style:italic;font-variant:normal;font-weight:normal;font-stretch:normal;font-size:10.0071px;font-family:'Palatino Linotype';writing-mode:lr-tb;fill:#000000;fill-opacity:1;fill-rule:nonzero;stroke:none"
         x="0 5.0035648 7.5053477"
         y="0"
         sodipodi:role="line"
         id="tspan57">= m</tspan></text>
    <text
       id="text58"
       xml:space="preserve"
       transform="matrix(1.3333333,0,0,1.3333333,154.62371,397.23205)"
       clip-path="url(#clipPath59)"><tspan
         style="font-style:italic;font-variant:normal;font-weight:normal;font-stretch:normal;font-size:6.00428px;font-family:'Palatino Linotype';writing-mode:lr-tb;fill:#000000;fill-opacity:1;fill-rule:nonzero;stroke:none"
         x="0 3.00214"
         y="0"
         sodipodi:role="line"
         id="tspan58">xy</tspan></text>
    <text
       id="text59"
       xml:space="preserve"
       transform="matrix(1.3333333,0,0,1.3333333,473.35068,178.80979)"
       clip-path="url(#clipPath60)"><tspan
         style="font-style:italic;font-variant:normal;font-weight:normal;font-stretch:normal;font-size:10.0071px;font-family:'Palatino Linotype';writing-mode:lr-tb;fill:#000000;fill-opacity:1;fill-rule:nonzero;stroke:none"
         x="0"
         y="0"
         id="tspan59"></tspan></text>
    <text
       id="text60"
       xml:space="preserve"
       transform="matrix(1.3333333,0,0,1.3333333,481.26489,184.32159)"
       clip-path="url(#clipPath61)"><tspan
         style="font-style:italic;font-variant:normal;font-weight:normal;font-stretch:normal;font-size:6.00428px;font-family:'Palatino Linotype';writing-mode:lr-tb;fill:#000000;fill-opacity:1;fill-rule:nonzero;stroke:none"
         x="0 3.00214"
         y="0"
         sodipodi:role="line"
         id="tspan60">yy</tspan></text>
    <text
       id="text61"
       xml:space="preserve"
       transform="matrix(1.3333333,0,0,1.3333333,459.92971,45.87224)"
       clip-path="url(#clipPath62)"><tspan
         style="font-style:italic;font-variant:normal;font-weight:normal;font-stretch:normal;font-size:10.0071px;font-family:'Palatino Linotype';writing-mode:lr-tb;fill:#000000;fill-opacity:1;fill-rule:nonzero;stroke:none"
         x="0"
         y="0"
         id="tspan61"></tspan></text>
    <text
       id="text62"
       xml:space="preserve"
       transform="matrix(1.3333333,0,0,1.3333333,467.84393,51.38404)"
       clip-path="url(#clipPath63)"><tspan
         style="font-style:italic;font-variant:normal;font-weight:normal;font-stretch:normal;font-size:6.00428px;font-family:'Palatino Linotype';writing-mode:lr-tb;fill:#000000;fill-opacity:1;fill-rule:nonzero;stroke:none"
         x="0 3.00214"
         y="0"
         sodipodi:role="line"
         id="tspan62">xx</tspan></text>
    <text
       id="text63"
       xml:space="preserve"
       transform="matrix(1.3333333,0,0,1.3333333,455.42067,269.43953)"
       clip-path="url(#clipPath64)"><tspan
         style="font-style:italic;font-variant:normal;font-weight:normal;font-stretch:normal;font-size:10.0071px;font-family:'Palatino Linotype';writing-mode:lr-tb;fill:#000000;fill-opacity:1;fill-rule:nonzero;stroke:none"
         x="0 4.9835505 7.4853334"
         y="0"
         sodipodi:role="line"
         id="tspan63"> </tspan></text>
    <text
       id="text64"
       xml:space="preserve"
       transform="matrix(1.3333333,0,0,1.3333333,474.49253,274.95135)"
       clip-path="url(#clipPath65)"><tspan
         style="font-style:italic;font-variant:normal;font-weight:normal;font-stretch:normal;font-size:6.00428px;font-family:'Palatino Linotype';writing-mode:lr-tb;fill:#000000;fill-opacity:1;fill-rule:nonzero;stroke:none"
         x="0 3.00214"
         y="0"
         sodipodi:role="line"
         id="tspan64">yy</tspan></text>
    <text
       id="text65"
       xml:space="preserve"
       transform="matrix(1.3333333,0,0,1.3333333,307.07007,179.88499)"
       clip-path="url(#clipPath66)"><tspan
         style="font-style:italic;font-variant:normal;font-weight:normal;font-stretch:normal;font-size:10.0071px;font-family:'Palatino Linotype';writing-mode:lr-tb;fill:#000000;fill-opacity:1;fill-rule:nonzero;stroke:none"
         x="0"
         y="0"
         id="tspan65"></tspan></text>
    <text
       id="text66"
       xml:space="preserve"
       transform="matrix(1.3333333,0,0,1.3333333,314.98428,185.39679)"
       clip-path="url(#clipPath67)"><tspan
         style="font-style:italic;font-variant:normal;font-weight:normal;font-stretch:normal;font-size:6.00428px;font-family:'Palatino Linotype';writing-mode:lr-tb;fill:#000000;fill-opacity:1;fill-rule:nonzero;stroke:none"
         x="0 3.00214"
         y="0"
         sodipodi:role="line"
         id="tspan66">yy</tspan></text>
    <text
       id="text67"
       xml:space="preserve"
       transform="matrix(1.3333333,0,0,1.3333333,303.62557,48.308987)"
       clip-path="url(#clipPath68)"><tspan
         style="font-style:italic;font-variant:normal;font-weight:normal;font-stretch:normal;font-size:10.0071px;font-family:'Palatino Linotype';writing-mode:lr-tb;fill:#000000;fill-opacity:1;fill-rule:nonzero;stroke:none"
         x="0"
         y="0"
         id="tspan67"></tspan></text>
    <text
       id="text68"
       xml:space="preserve"
       transform="matrix(1.3333333,0,0,1.3333333,311.5398,53.820813)"
       clip-path="url(#clipPath69)"><tspan
         style="font-style:italic;font-variant:normal;font-weight:normal;font-stretch:normal;font-size:6.00428px;font-family:'Palatino Linotype';writing-mode:lr-tb;fill:#000000;fill-opacity:1;fill-rule:nonzero;stroke:none"
         x="0 3.00214"
         y="0"
         sodipodi:role="line"
         id="tspan68">xx</tspan></text>
    <text
       id="text69"
       xml:space="preserve"
       transform="matrix(1.3333333,0,0,1.3333333,26.19812,79.124947)"
       clip-path="url(#clipPath70)"><tspan
         style="font-style:italic;font-variant:normal;font-weight:normal;font-stretch:normal;font-size:10.0071px;font-family:'Palatino Linotype';writing-mode:lr-tb;fill:#000000;fill-opacity:1;fill-rule:nonzero;stroke:none"
         x="0"
         y="0"
         id="tspan69">1</tspan></text>
    <text
       id="text70"
       xml:space="preserve"
       transform="matrix(1.3333333,0,0,1.3333333,189.43521,33.720093)"
       clip-path="url(#clipPath71)"><tspan
         style="font-style:italic;font-variant:normal;font-weight:normal;font-stretch:normal;font-size:10.0071px;font-family:'Palatino Linotype';writing-mode:lr-tb;fill:#000000;fill-opacity:1;fill-rule:nonzero;stroke:none"
         x="0"
         y="0"
         id="tspan70">1</tspan></text>
    <text
       id="text71"
       xml:space="preserve"
       transform="matrix(1.3333333,0,0,1.3333333,26.226147,208.21735)"
       clip-path="url(#clipPath72)"><tspan
         style="font-style:italic;font-variant:normal;font-weight:normal;font-stretch:normal;font-size:10.0071px;font-family:'Palatino Linotype';writing-mode:lr-tb;fill:#000000;fill-opacity:1;fill-rule:nonzero;stroke:none"
         x="0"
         y="0"
         id="tspan71">1</tspan></text>
    <text
       id="text72"
       xml:space="preserve"
       transform="matrix(1.3333333,0,0,1.3333333,189.46324,162.81251)"
       clip-path="url(#clipPath73)"><tspan
         style="font-style:italic;font-variant:normal;font-weight:normal;font-stretch:normal;font-size:10.0071px;font-family:'Palatino Linotype';writing-mode:lr-tb;fill:#000000;fill-opacity:1;fill-rule:nonzero;stroke:none"
         x="0"
         y="0"
         id="tspan72">1</tspan></text>
    <text
       id="text73"
       xml:space="preserve"
       transform="matrix(1.3333333,0,0,1.3333333,189.46324,284.32431)"
       clip-path="url(#clipPath74)"><tspan
         style="font-style:italic;font-variant:normal;font-weight:normal;font-stretch:normal;font-size:10.0071px;font-family:'Palatino Linotype';writing-mode:lr-tb;fill:#000000;fill-opacity:1;fill-rule:nonzero;stroke:none"
         x="0"
         y="0"
         id="tspan73">1</tspan></text>
    <text
       id="text74"
       xml:space="preserve"
       transform="matrix(1.3333333,0,0,1.3333333,26.226147,329.72915)"
       clip-path="url(#clipPath75)"><tspan
         style="font-style:italic;font-variant:normal;font-weight:normal;font-stretch:normal;font-size:10.0071px;font-family:'Palatino Linotype';writing-mode:lr-tb;fill:#000000;fill-opacity:1;fill-rule:nonzero;stroke:none"
         x="0"
         y="0"
         id="tspan74">1</tspan></text>
    <text
       id="text75"
       xml:space="preserve"
       transform="matrix(1.3333333,0,0,1.3333333,260.42535,27.93616)"
       clip-path="url(#clipPath76)"><tspan
         style="font-style:italic;font-variant:normal;font-weight:normal;font-stretch:normal;font-size:10.0071px;font-family:'Palatino Linotype';writing-mode:lr-tb;fill:#000000;fill-opacity:1;fill-rule:nonzero;stroke:none"
         x="0 4.4431658"
         y="0"
         sodipodi:role="line"
         id="tspan75">a)</tspan></text>
    <text
       id="text76"
       xml:space="preserve"
       transform="matrix(1.3333333,0,0,1.3333333,422.44107,27.93616)"
       clip-path="url(#clipPath77)"><tspan
         style="font-style:italic;font-variant:normal;font-weight:normal;font-stretch:normal;font-size:10.0071px;font-family:'Palatino Linotype';writing-mode:lr-tb;fill:#000000;fill-opacity:1;fill-rule:nonzero;stroke:none"
         x="0 4.6333013"
         y="0"
         sodipodi:role="line"
         id="tspan76">b)</tspan></text>
    <text
       id="text77"
       xml:space="preserve"
       transform="matrix(1.3333333,0,0,1.3333333,413.5046,144.51384)"
       clip-path="url(#clipPath78)"><tspan
         style="font-style:italic;font-variant:normal;font-weight:normal;font-stretch:normal;font-size:10.0071px;font-family:'Palatino Linotype';writing-mode:lr-tb;fill:#000000;fill-opacity:1;fill-rule:nonzero;stroke:none"
         x="0 4.9835505 7.4853334"
         y="0"
         sodipodi:role="line"
         id="tspan77"> </tspan></text>
    <text
       id="text78"
       xml:space="preserve"
       transform="matrix(1.3333333,0,0,1.3333333,432.57649,150.02567)"
       clip-path="url(#clipPath79)"><tspan
         style="font-style:italic;font-variant:normal;font-weight:normal;font-stretch:normal;font-size:6.00428px;font-family:'Palatino Linotype';writing-mode:lr-tb;fill:#000000;fill-opacity:1;fill-rule:nonzero;stroke:none"
         x="0 3.00214"
         y="0"
         sodipodi:role="line"
         id="tspan78">xx</tspan></text>
    <text
       id="text79"
       xml:space="preserve"
       transform="matrix(1.3333333,0,0,1.3333333,351.02048,373.19824)"
       clip-path="url(#clipPath80)"><tspan
         style="font-style:italic;font-variant:normal;font-weight:normal;font-stretch:normal;font-size:10.0071px;font-family:'Palatino Linotype';writing-mode:lr-tb;fill:#000000;fill-opacity:1;fill-rule:nonzero;stroke:none"
         x="0"
         y="0"
         id="tspan79"></tspan></text>
    <text
       id="text80"
       xml:space="preserve"
       transform="matrix(1.3333333,0,0,1.3333333,358.93471,378.71005)"
       clip-path="url(#clipPath81)"><tspan
         style="font-style:italic;font-variant:normal;font-weight:normal;font-stretch:normal;font-size:6.00428px;font-family:'Palatino Linotype';writing-mode:lr-tb;fill:#000000;fill-opacity:1;fill-rule:nonzero;stroke:none"
         x="0 3.00214"
         y="0"
         sodipodi:role="line"
         id="tspan80">xy</tspan></text>
    <text
       id="text81"
       xml:space="preserve"
       transform="matrix(1.3333333,0,0,1.3333333,357.31968,390.61556)"
       clip-path="url(#clipPath82)"><tspan
         style="font-style:italic;font-variant:normal;font-weight:normal;font-stretch:normal;font-size:6.00428px;font-family:'Palatino Linotype';writing-mode:lr-tb;fill:#000000;fill-opacity:1;fill-rule:nonzero;stroke:none"
         x="0"
         y="0"
         id="tspan81">4</tspan></text>
    <text
       id="text82"
       xml:space="preserve"
       transform="matrix(1.3333333,0,0,1.3333333,380.05233,327.24407)"
       clip-path="url(#clipPath83)"><tspan
         style="font-style:italic;font-variant:normal;font-weight:normal;font-stretch:normal;font-size:10.0071px;font-family:'Palatino Linotype';writing-mode:lr-tb;fill:#000000;fill-opacity:1;fill-rule:nonzero;stroke:none"
         x="0"
         y="0"
         id="tspan82"></tspan></text>
    <text
       id="text83"
       xml:space="preserve"
       transform="matrix(1.3333333,0,0,1.3333333,387.96655,332.75588)"
       clip-path="url(#clipPath84)"><tspan
         style="font-style:italic;font-variant:normal;font-weight:normal;font-stretch:normal;font-size:6.00428px;font-family:'Palatino Linotype';writing-mode:lr-tb;fill:#000000;fill-opacity:1;fill-rule:nonzero;stroke:none"
         x="0 3.00214"
         y="0"
         sodipodi:role="line"
         id="tspan83">xy</tspan></text>
    <text
       id="text84"
       xml:space="preserve"
       transform="matrix(1.3333333,0,0,1.3333333,386.35153,344.66139)"
       clip-path="url(#clipPath85)"><tspan
         style="font-style:italic;font-variant:normal;font-weight:normal;font-stretch:normal;font-size:6.00428px;font-family:'Palatino Linotype';writing-mode:lr-tb;fill:#000000;fill-opacity:1;fill-rule:nonzero;stroke:none"
         x="0"
         y="0"
         id="tspan84">4</tspan></text>
    <text
       id="text85"
       xml:space="preserve"
       transform="matrix(1.3333333,0,0,1.3333333,515.43809,373.19824)"
       clip-path="url(#clipPath86)"><tspan
         style="font-style:italic;font-variant:normal;font-weight:normal;font-stretch:normal;font-size:10.0071px;font-family:'Palatino Linotype';writing-mode:lr-tb;fill:#000000;fill-opacity:1;fill-rule:nonzero;stroke:none"
         x="0"
         y="0"
         id="tspan85"></tspan></text>
    <text
       id="text86"
       xml:space="preserve"
       transform="matrix(1.3333333,0,0,1.3333333,523.35228,378.71005)"
       clip-path="url(#clipPath87)"><tspan
         style="font-style:italic;font-variant:normal;font-weight:normal;font-stretch:normal;font-size:6.00428px;font-family:'Palatino Linotype';writing-mode:lr-tb;fill:#000000;fill-opacity:1;fill-rule:nonzero;stroke:none"
         x="0 3.00214"
         y="0"
         sodipodi:role="line"
         id="tspan86">xy</tspan></text>
    <text
       id="text87"
       xml:space="preserve"
       transform="matrix(1.3333333,0,0,1.3333333,521.73727,390.61556)"
       clip-path="url(#clipPath88)"><tspan
         style="font-style:italic;font-variant:normal;font-weight:normal;font-stretch:normal;font-size:6.00428px;font-family:'Palatino Linotype';writing-mode:lr-tb;fill:#000000;fill-opacity:1;fill-rule:nonzero;stroke:none"
         x="0"
         y="0"
         id="tspan87">4</tspan></text>
    <text
       id="text88"
       xml:space="preserve"
       transform="matrix(1.3333333,0,0,1.3333333,544.46991,327.24407)"
       clip-path="url(#clipPath89)"><tspan
         style="font-style:italic;font-variant:normal;font-weight:normal;font-stretch:normal;font-size:10.0071px;font-family:'Palatino Linotype';writing-mode:lr-tb;fill:#000000;fill-opacity:1;fill-rule:nonzero;stroke:none"
         x="0"
         y="0"
         id="tspan88"></tspan></text>
    <text
       id="text89"
       xml:space="preserve"
       transform="matrix(1.3333333,0,0,1.3333333,552.38416,332.75588)"
       clip-path="url(#clipPath90)"><tspan
         style="font-style:italic;font-variant:normal;font-weight:normal;font-stretch:normal;font-size:6.00428px;font-family:'Palatino Linotype';writing-mode:lr-tb;fill:#000000;fill-opacity:1;fill-rule:nonzero;stroke:none"
         x="0 3.00214"
         y="0"
         sodipodi:role="line"
         id="tspan89">xy</tspan></text>
    <text
       id="text90"
       xml:space="preserve"
       transform="matrix(1.3333333,0,0,1.3333333,550.76913,344.66139)"
       clip-path="url(#clipPath91)"><tspan
         style="font-style:italic;font-variant:normal;font-weight:normal;font-stretch:normal;font-size:6.00428px;font-family:'Palatino Linotype';writing-mode:lr-tb;fill:#000000;fill-opacity:1;fill-rule:nonzero;stroke:none"
         x="0"
         y="0"
         id="tspan90">4</tspan></text>
    <path
       id="path92"
       d="m 39.51906,266.94217 39.86188,-4.77097 m -68.42638,-27.84512 31.81447,32.22711 m -31.81447,-32.22711 2.24037,2.26944 m -2.24037,-2.26944 v 0 l 1.78842,2.41684 0.60518,-0.59741 -2.3936,-1.81943 m 31.81447,32.22711 -2.24037,-2.26944 m 2.24037,2.26944 v 0 l -2.3936,-1.81943 0.60518,-0.59744 1.78842,2.41687 M 7.70459,234.71506 47.56647,229.94412 m 21.55359,65.61841 v -22.17688 m 0,5.95276 v 0.4252 m 0,-6.37796 v 0 l 0.85038,5.95276 h -1.70077 l 0.85039,-5.95276"
       style="fill:none;stroke:#000000;stroke-width:0.3685;stroke-linecap:round;stroke-linejoin:round;stroke-miterlimit:10;stroke-dasharray:none;stroke-opacity:1"
       transform="matrix(1.3333333,0,0,-1.3333333,0,415.748)" />
    <path
       id="path93"
       d="m 68.26967,279.33841 0.85039,-5.95276 0.85038,5.95276 z"
       style="fill:#000000;fill-opacity:1;fill-rule:nonzero;stroke:none"
       transform="matrix(1.3333333,0,0,-1.3333333,0,415.748)" />
    <path
       id="path94"
       d="m 69.12006,295.56253 19.20573,-2.29868 m -5.91057,0.70743 -0.42219,0.0505 m 6.33276,-0.75797 v 0 l -5.80951,1.55179 -0.20212,-1.68872 6.01163,0.13693"
       style="fill:none;stroke:#000000;stroke-width:0.3685;stroke-linecap:round;stroke-linejoin:round;stroke-miterlimit:10;stroke-dasharray:none;stroke-opacity:1"
       transform="matrix(1.3333333,0,0,-1.3333333,0,415.748)" />
    <path
       id="path95"
       d="m 82.31416,293.12692 6.01163,0.13693 -5.80951,1.55179 z"
       style="fill:#000000;fill-opacity:1;fill-rule:nonzero;stroke:none"
       transform="matrix(1.3333333,0,0,-1.3333333,0,415.748)" />
    <path
       id="path96"
       d="m 69.12006,295.56253 -16.1579,-16.36746 m 4.18204,4.23627 0.2987,0.30261 m -4.48074,-4.53888 v 0 l 4.78721,3.63885 -1.21035,1.19486 -3.57686,-4.83371"
       style="fill:none;stroke:#000000;stroke-width:0.3685;stroke-linecap:round;stroke-linejoin:round;stroke-miterlimit:10;stroke-dasharray:none;stroke-opacity:1"
       transform="matrix(1.3333333,0,0,-1.3333333,0,415.748)" />
    <path
       id="path97"
       d="m 56.53902,284.02878 -3.57686,-4.83371 4.78721,3.63885 z"
       style="fill:#000000;fill-opacity:1;fill-rule:nonzero;stroke:none"
       transform="matrix(1.3333333,0,0,-1.3333333,0,415.748)" />
    <path
       id="path98"
       d="m 129.63928,229.5918 10.97708,11.09478 m -4.18673,-4.23162 -0.29905,-0.30225 m 4.48578,4.53387 v 0 l -4.79123,-3.63351 1.20902,-1.1962 3.58221,4.82971"
       style="fill:none;stroke:#000000;stroke-width:0.3685;stroke-linecap:round;stroke-linejoin:round;stroke-miterlimit:10;stroke-dasharray:none;stroke-opacity:1"
       transform="matrix(1.3333333,0,0,-1.3333333,0,415.748)" />
    <path
       id="path99"
       d="m 137.03415,235.85687 3.58221,4.82971 -4.79123,-3.63351 z"
       style="fill:#000000;fill-opacity:1;fill-rule:nonzero;stroke:none"
       transform="matrix(1.3333333,0,0,-1.3333333,0,415.748)" />
    <path
       id="path100"
       d="m 129.49243,229.44305 6.99326,7.05927 m -4.18943,-4.22897 -0.29925,-0.30207 m 4.48868,4.53104 v 0 l -4.79358,-3.63049 1.20828,-1.19696 3.5853,4.82745"
       style="fill:none;stroke:#000000;stroke-width:0.3685;stroke-linecap:round;stroke-linejoin:round;stroke-miterlimit:10;stroke-dasharray:none;stroke-opacity:1"
       transform="matrix(1.3333333,0,0,-1.3333333,0,415.748)" />
    <path
       id="path101"
       d="m 132.90039,231.67487 3.5853,4.82745 -4.79358,-3.63049 z"
       style="fill:#000000;fill-opacity:1;fill-rule:nonzero;stroke:none"
       transform="matrix(1.3333333,0,0,-1.3333333,0,415.748)" />
    <path
       id="path102"
       d="m 39.54007,170.12286 39.86188,-4.77093 m -68.42636,-27.84516 31.81445,32.22712 m -31.81445,-32.22712 2.24037,2.26944 m -2.24037,-2.26944 v 0 l 1.78842,2.41684 0.60518,-0.59741 -2.3936,-1.81943 m 31.81445,32.22712 -2.24037,-2.26944 m 2.24037,2.26944 v 0 l -2.3936,-1.81943 0.60518,-0.59741 1.78842,2.41684 M 7.72562,137.89575 47.58749,133.12482 m 0.7074,-76.7444 19.38938,-2.32065 m -13.4788,1.61323 0.42219,-0.05053 m -6.33277,0.75795 v 0 l 6.01164,0.13694 -0.20211,-1.68872 -5.80953,1.55178"
       style="fill:none;stroke:#000000;stroke-width:0.3685;stroke-linecap:round;stroke-linejoin:round;stroke-miterlimit:10;stroke-dasharray:none;stroke-opacity:1"
       transform="matrix(1.3333333,0,0,-1.3333333,0,415.748)" />
    <path
       id="path103"
       d="m 54.10442,54.82864 0.20211,1.68872 -6.01164,-0.13694 z"
       style="fill:#000000;fill-opacity:1;fill-rule:nonzero;stroke:none"
       transform="matrix(1.3333333,0,0,-1.3333333,0,415.748)" />
    <path
       id="path104"
       d="m 53.64961,55.73953 14.03466,-1.67976 m -8.12407,0.97233 0.42218,-0.05052 m -6.33277,0.75795 v 0 l 6.01164,0.13695 -0.20211,-1.68872 -5.80953,1.55177"
       style="fill:none;stroke:#000000;stroke-width:0.3685;stroke-linecap:round;stroke-linejoin:round;stroke-miterlimit:10;stroke-dasharray:none;stroke-opacity:1"
       transform="matrix(1.3333333,0,0,-1.3333333,0,415.748)" />
    <path
       id="path105"
       d="m 59.45914,54.18776 0.20211,1.68872 -6.01164,-0.13695 z"
       style="fill:#000000;fill-opacity:1;fill-rule:nonzero;stroke:none"
       transform="matrix(1.3333333,0,0,-1.3333333,0,415.748)" />
    <path
       id="path106"
       d="m 134.09952,46.11073 25.64596,-3.06949 m -5.91055,0.70742 -0.42218,0.05053 m 6.33273,-0.75795 v 0 l -5.80951,1.55179 -0.20211,-1.68873 6.01162,0.13694"
       style="fill:none;stroke:#000000;stroke-width:0.3685;stroke-linecap:round;stroke-linejoin:round;stroke-miterlimit:10;stroke-dasharray:none;stroke-opacity:1"
       transform="matrix(1.3333333,0,0,-1.3333333,0,415.748)" />
    <path
       id="path107"
       d="m 153.73386,42.9043 6.01162,0.13694 -5.80951,1.55179 z"
       style="fill:#000000;fill-opacity:1;fill-rule:nonzero;stroke:none"
       transform="matrix(1.3333333,0,0,-1.3333333,0,415.748)" />
    <path
       id="path108"
       d="m 139.45422,45.46985 14.38507,-1.72171 m -5.91058,0.70741 -0.42218,0.05054 m 6.33276,-0.75795 v 0 l -5.8095,1.55179 -0.20212,-1.68874 6.01162,0.13695"
       style="fill:none;stroke:#000000;stroke-width:0.3685;stroke-linecap:round;stroke-linejoin:round;stroke-miterlimit:10;stroke-dasharray:none;stroke-opacity:1"
       transform="matrix(1.3333333,0,0,-1.3333333,0,415.748)" />
    <path
       id="path109"
       d="m 147.82767,43.61119 6.01162,0.13695 -5.8095,1.55179 z"
       style="fill:#000000;fill-opacity:1;fill-rule:nonzero;stroke:none"
       transform="matrix(1.3333333,0,0,-1.3333333,0,415.748)" />
    <path
       id="path110"
       d="M 133.38077,81.22389 121.49158,69.18048 m 7.70718,7.80715 -0.29874,-0.3026 m 4.48075,4.53886 v 0 l -3.57685,-4.83371 -1.21035,1.19486 4.7872,3.63885"
       style="fill:none;stroke:#000000;stroke-width:0.3685;stroke-linecap:round;stroke-linejoin:round;stroke-miterlimit:10;stroke-dasharray:none;stroke-opacity:1"
       transform="matrix(1.3333333,0,0,-1.3333333,0,415.748)" />
    <path
       id="path111"
       d="m 128.59357,77.58504 1.21035,-1.19486 3.57685,4.83371 z"
       style="fill:#000000;fill-opacity:1;fill-rule:nonzero;stroke:none"
       transform="matrix(1.3333333,0,0,-1.3333333,0,415.748)" />
    <path
       id="path112"
       d="m 129.59204,77.38602 -3.92152,-3.9724 m -0.2605,-0.26387 -0.29872,-0.3026 m 4.48074,4.53887 v 0 l -3.57684,-4.83371 -1.21036,1.19487 4.7872,3.63884"
       style="fill:none;stroke:#000000;stroke-width:0.3685;stroke-linecap:round;stroke-linejoin:round;stroke-miterlimit:10;stroke-dasharray:none;stroke-opacity:1"
       transform="matrix(1.3333333,0,0,-1.3333333,0,415.748)" />
    <path
       id="path113"
       d="m 124.80484,73.74718 1.21036,-1.19487 3.57684,4.83371 z"
       style="fill:#000000;fill-opacity:1;fill-rule:nonzero;stroke:none"
       transform="matrix(1.3333333,0,0,-1.3333333,0,415.748)" />
    <path
       id="path114"
       d="M 86.54881,33.78448 68.40298,15.40331 m 4.18204,4.23626 0.29871,0.3026 m -4.48075,-4.53886 v 0 l 4.78722,3.63883 -1.21036,1.19486 -3.57686,-4.83369"
       style="fill:none;stroke:#000000;stroke-width:0.3685;stroke-linecap:round;stroke-linejoin:round;stroke-miterlimit:10;stroke-dasharray:none;stroke-opacity:1"
       transform="matrix(1.3333333,0,0,-1.3333333,0,415.748)" />
    <path
       id="path115"
       d="m 71.97984,20.237 -3.57686,-4.83369 4.78722,3.63883 z"
       style="fill:#000000;fill-opacity:1;fill-rule:nonzero;stroke:none"
       transform="matrix(1.3333333,0,0,-1.3333333,0,415.748)" />
    <path
       id="path116"
       d="M 82.76007,29.94661 72.58192,19.63644 m 4.18203,4.23627 0.29872,0.3026 m -4.48075,-4.53887 v 0 l 4.78722,3.63884 -1.21036,1.19486 -3.57686,-4.8337"
       style="fill:none;stroke:#000000;stroke-width:0.3685;stroke-linecap:round;stroke-linejoin:round;stroke-miterlimit:10;stroke-dasharray:none;stroke-opacity:1"
       transform="matrix(1.3333333,0,0,-1.3333333,0,415.748)" />
    <path
       id="path117"
       d="m 76.15878,24.47014 -3.57686,-4.8337 4.78722,3.63884 z"
       style="fill:#000000;fill-opacity:1;fill-rule:nonzero;stroke:none"
       transform="matrix(1.3333333,0,0,-1.3333333,0,415.748)" />
    <path
       id="path118"
       d="m 90.68701,124.42305 -15.49678,1.85477 m 5.91057,-0.70742 0.42218,-0.0505 m -6.33275,0.75795 v 0 l 5.80951,-1.55179 0.20212,1.68873 -6.01163,-0.13694"
       style="fill:none;stroke:#000000;stroke-width:0.3685;stroke-linecap:round;stroke-linejoin:round;stroke-miterlimit:10;stroke-dasharray:none;stroke-opacity:1"
       transform="matrix(1.3333333,0,0,-1.3333333,0,415.748)" />
    <path
       id="path119"
       d="m 81.20186,126.41476 -6.01163,-0.13694 5.80951,-1.55179 z"
       style="fill:#000000;fill-opacity:1;fill-rule:nonzero;stroke:none"
       transform="matrix(1.3333333,0,0,-1.3333333,0,415.748)" />
    <path
       id="path120"
       d="m 90.89459,124.39844 -9.86555,1.18713 m 5.91011,-0.71117 0.42215,-0.0508 m -6.33226,0.76196 v 0 l 5.80851,-1.55546 0.20319,1.68859 -6.0117,-0.13313"
       style="fill:none;stroke:#000000;stroke-width:0.3685;stroke-linecap:round;stroke-linejoin:round;stroke-miterlimit:10;stroke-dasharray:none;stroke-opacity:1"
       transform="matrix(1.3333333,0,0,-1.3333333,0,415.748)" />
    <path
       id="path121"
       d="m 87.04074,125.7187 -6.0117,-0.13313 5.80851,-1.55546 z"
       style="fill:#000000;fill-opacity:1;fill-rule:nonzero;stroke:none"
       transform="matrix(1.3333333,0,0,-1.3333333,0,415.748)" />
    <path
       id="path122"
       d="M 39.54007,78.989 79.40195,74.21806 M 10.97559,46.37291 42.79004,78.60002 m -31.81445,-32.22711 2.24037,2.26944 m -2.24037,-2.26944 v 0 l 1.78842,2.41685 0.60518,-0.59742 -2.3936,-1.81943 M 42.79004,78.60002 40.54967,76.3306 m 2.24037,2.26942 v 0 l -2.3936,-1.81941 0.60518,-0.59743 1.78842,2.41684 M 7.72562,46.7619 47.58749,41.99095 m 18.76487,195.17549 1.31715,1.33127 m 1.59494,1.61203 1.99368,2.01508 m 1.59496,1.61203 1.99368,2.01504 m 1.59494,1.61206 0.88773,0.89725 M 66.35236,237.16644 v 0 m 10.97708,11.09476 v 0 m -10.97708,-11.09476 4.48577,4.53388 m -4.48577,-4.53388 v 0 l 3.58221,4.82971 1.20903,-1.19619 -4.79124,-3.63352 m 4.18728,4.23215 0.7724,0.77972 m 1.59598,1.61103 1.99496,2.01379 m 1.59597,1.61102 1.03395,1.04371 m -6.99326,-7.05927 v 0 m 6.99326,7.05927 v 0 m -6.99326,-7.05927 4.48867,4.53104 m -4.48867,-4.53104 v 0 l 3.58528,4.82745 1.20827,-1.19696 -4.79355,-3.63049 m 36.46504,-82.89365 2.14959,-0.25729 m 2.25164,-0.2695 2.81456,-0.33685 m 2.25165,-0.2695 2.81456,-0.33686 m 2.25165,-0.2695 0.96313,-0.11526 m -15.49678,1.85476 v 0 m 15.49678,-1.85476 v 0 l -6.33274,0.75793 m 6.33274,-0.75793 v 0 l -5.8095,1.55179 -0.20212,-1.68876 6.01162,0.13697 m -15.70436,1.87936 2.46413,-0.29651 m 2.25147,-0.27093 2.81434,-0.33866 m 2.25148,-0.2709 0.0842,-0.0101 m -9.86557,1.18713 v 0 m 9.86557,-1.18713 v 0"
       style="fill:none;stroke:#000000;stroke-width:0.3685;stroke-linecap:round;stroke-linejoin:round;stroke-miterlimit:10;stroke-dasharray:none;stroke-opacity:1"
       transform="matrix(1.3333333,0,0,-1.3333333,0,415.748)" />
    <path
       id="path123"
       d="m 116.66267,157.34241 -6.33227,0.76196 m 6.33227,-0.76196 v 0 l -5.80853,1.55548 -0.20318,-1.6886 6.01171,0.13312"
       style="fill:none;stroke:#000000;stroke-width:0.3685;stroke-linecap:round;stroke-linejoin:round;stroke-miterlimit:10;stroke-dasharray:none;stroke-opacity:1"
       transform="matrix(1.3333333,0,0,-1.3333333,0,415.748)" />
  </g>
</svg>
