<?xml version="1.0" encoding="UTF-8" standalone="no"?>
<!-- Created with Inkscape (http://www.inkscape.org/) -->

<svg
   version="1.1"
   id="svg1"
   width="566.92932"
   height="268.34668"
   viewBox="0 0 566.92932 268.34668"
   sodipodi:docname="allg_platte_spannungen.pdf"
   xmlns:inkscape="http://www.inkscape.org/namespaces/inkscape"
   xmlns:sodipodi="http://sodipodi.sourceforge.net/DTD/sodipodi-0.dtd"
   xmlns="http://www.w3.org/2000/svg"
   xmlns:svg="http://www.w3.org/2000/svg">
  <defs
     id="defs1">
    <clipPath
       clipPathUnits="userSpaceOnUse"
       id="clipPath7">
      <path
         d="M -0.00426,-0.00201 V 201.26187 H 425.20111 V -0.00201 H -0.00426"
         transform="matrix(1,0,0,-1,-215.21041,116.88644)"
         clip-rule="evenodd"
         id="path7" />
    </clipPath>
    <clipPath
       clipPathUnits="userSpaceOnUse"
       id="clipPath8">
      <path
         d="M -0.00426,-0.00201 V 201.26187 H 425.20111 V -0.00201 H -0.00426"
         transform="matrix(1,0,0,-1,-232.39099,133.88096)"
         clip-rule="evenodd"
         id="path8" />
    </clipPath>
    <clipPath
       clipPathUnits="userSpaceOnUse"
       id="clipPath9">
      <path
         d="M -0.00426,-0.00201 V 201.26187 H 425.20111 V -0.00201 H -0.00426"
         transform="matrix(1,0,0,-1,-188.98647,136.53005)"
         clip-rule="evenodd"
         id="path9" />
    </clipPath>
    <clipPath
       clipPathUnits="userSpaceOnUse"
       id="clipPath10">
      <path
         d="M -0.00426,-0.00201 V 201.26187 H 425.20111 V -0.00201 H -0.00426"
         transform="matrix(1,0,0,-1,-154.02111,11.065498)"
         clip-rule="evenodd"
         id="path10" />
    </clipPath>
    <clipPath
       clipPathUnits="userSpaceOnUse"
       id="clipPath11">
      <path
         d="M -0.00426,-0.00201 V 201.26187 H 425.20111 V -0.00201 H -0.00426"
         transform="matrix(1,0,0,-1,-159.00183,6.9316402)"
         clip-rule="evenodd"
         id="path11" />
    </clipPath>
    <clipPath
       clipPathUnits="userSpaceOnUse"
       id="clipPath12">
      <path
         d="M -0.00426,-0.00201 V 201.26187 H 425.20111 V -0.00201 H -0.00426"
         transform="matrix(1,0,0,-1,-167.06851,11.065498)"
         clip-rule="evenodd"
         id="path12" />
    </clipPath>
    <clipPath
       clipPathUnits="userSpaceOnUse"
       id="clipPath13">
      <path
         d="M -0.00426,-0.00201 V 201.26187 H 425.20111 V -0.00201 H -0.00426"
         transform="matrix(1,0,0,-1,-275.7703,43.201191)"
         clip-rule="evenodd"
         id="path13" />
    </clipPath>
    <clipPath
       clipPathUnits="userSpaceOnUse"
       id="clipPath14">
      <path
         d="M -0.00426,-0.00201 V 201.26187 H 425.20111 V -0.00201 H -0.00426"
         transform="matrix(1,0,0,-1,-281.99245,39.067333)"
         clip-rule="evenodd"
         id="path14" />
    </clipPath>
    <clipPath
       clipPathUnits="userSpaceOnUse"
       id="clipPath15">
      <path
         d="M -0.00426,-0.00201 V 201.26187 H 425.20111 V -0.00201 H -0.00426"
         transform="matrix(1,0,0,-1,-290.86916,43.201191)"
         clip-rule="evenodd"
         id="path15" />
    </clipPath>
    <clipPath
       clipPathUnits="userSpaceOnUse"
       id="clipPath16">
      <path
         d="M -0.00426,-0.00201 V 201.26187 H 425.20111 V -0.00201 H -0.00426"
         transform="matrix(1,0,0,-1,-254.24097,11.065498)"
         clip-rule="evenodd"
         id="path16" />
    </clipPath>
    <clipPath
       clipPathUnits="userSpaceOnUse"
       id="clipPath17">
      <path
         d="M -0.00426,-0.00201 V 201.26187 H 425.20111 V -0.00201 H -0.00426"
         transform="matrix(1,0,0,-1,-259.2217,6.9316402)"
         clip-rule="evenodd"
         id="path17" />
    </clipPath>
    <clipPath
       clipPathUnits="userSpaceOnUse"
       id="clipPath18">
      <path
         d="M -0.00426,-0.00201 V 201.26187 H 425.20111 V -0.00201 H -0.00426"
         transform="matrix(1,0,0,-1,-267.0411,11.065498)"
         clip-rule="evenodd"
         id="path18" />
    </clipPath>
    <clipPath
       clipPathUnits="userSpaceOnUse"
       id="clipPath19">
      <path
         d="M -0.00426,-0.00201 V 201.26187 H 425.20111 V -0.00201 H -0.00426"
         transform="matrix(1,0,0,-1,-237.50257,45.185444)"
         clip-rule="evenodd"
         id="path19" />
    </clipPath>
    <clipPath
       clipPathUnits="userSpaceOnUse"
       id="clipPath20">
      <path
         d="M -0.00426,-0.00201 V 201.26187 H 425.20111 V -0.00201 H -0.00426"
         transform="matrix(1,0,0,-1,-242.48332,41.051579)"
         clip-rule="evenodd"
         id="path20" />
    </clipPath>
    <clipPath
       clipPathUnits="userSpaceOnUse"
       id="clipPath21">
      <path
         d="M -0.00426,-0.00201 V 201.26187 H 425.20111 V -0.00201 H -0.00426"
         transform="matrix(1,0,0,-1,-250.6495,45.185444)"
         clip-rule="evenodd"
         id="path21" />
    </clipPath>
    <clipPath
       clipPathUnits="userSpaceOnUse"
       id="clipPath22">
      <path
         d="M -0.00426,-0.00201 V 201.26187 H 425.20111 V -0.00201 H -0.00426"
         transform="matrix(1,0,0,-1,-175.55043,43.201191)"
         clip-rule="evenodd"
         id="path22" />
    </clipPath>
    <clipPath
       clipPathUnits="userSpaceOnUse"
       id="clipPath23">
      <path
         d="M -0.00426,-0.00201 V 201.26187 H 425.20111 V -0.00201 H -0.00426"
         transform="matrix(1,0,0,-1,-180.53116,39.067333)"
         clip-rule="evenodd"
         id="path23" />
    </clipPath>
    <clipPath
       clipPathUnits="userSpaceOnUse"
       id="clipPath24">
      <path
         d="M -0.00426,-0.00201 V 201.26187 H 425.20111 V -0.00201 H -0.00426"
         transform="matrix(1,0,0,-1,-188.69737,43.201191)"
         clip-rule="evenodd"
         id="path24" />
    </clipPath>
    <clipPath
       clipPathUnits="userSpaceOnUse"
       id="clipPath25">
      <path
         d="M -0.00426,-0.00201 V 201.26187 H 425.20111 V -0.00201 H -0.00426"
         transform="matrix(1,0,0,-1,-116.11629,22.034751)"
         clip-rule="evenodd"
         id="path25" />
    </clipPath>
    <clipPath
       clipPathUnits="userSpaceOnUse"
       id="clipPath26">
      <path
         d="M -0.00426,-0.00201 V 201.26187 H 425.20111 V -0.00201 H -0.00426"
         transform="matrix(1,0,0,-1,-122.33844,17.9009)"
         clip-rule="evenodd"
         id="path26" />
    </clipPath>
    <clipPath
       clipPathUnits="userSpaceOnUse"
       id="clipPath27">
      <path
         d="M -0.00426,-0.00201 V 201.26187 H 425.20111 V -0.00201 H -0.00426"
         transform="matrix(1,0,0,-1,-131.70971,22.034751)"
         clip-rule="evenodd"
         id="path27" />
    </clipPath>
    <clipPath
       clipPathUnits="userSpaceOnUse"
       id="clipPath28">
      <path
         d="M -0.00426,-0.00201 V 201.26187 H 425.20111 V -0.00201 H -0.00426"
         transform="matrix(1,0,0,-1,-87.496382,90.698535)"
         clip-rule="evenodd"
         id="path28" />
    </clipPath>
    <clipPath
       clipPathUnits="userSpaceOnUse"
       id="clipPath29">
      <path
         d="M -0.00426,-0.00201 V 201.26187 H 425.20111 V -0.00201 H -0.00426"
         transform="matrix(1,0,0,-1,-82.103282,82.09794)"
         clip-rule="evenodd"
         id="path29" />
    </clipPath>
    <clipPath
       clipPathUnits="userSpaceOnUse"
       id="clipPath30">
      <path
         d="M -0.00426,-0.00201 V 201.26187 H 425.20111 V -0.00201 H -0.00426"
         transform="matrix(1,0,0,-1,-59.869631,91.605315)"
         clip-rule="evenodd"
         id="path30" />
    </clipPath>
    <clipPath
       clipPathUnits="userSpaceOnUse"
       id="clipPath31">
      <path
         d="M -0.00426,-0.00201 V 201.26187 H 425.20111 V -0.00201 H -0.00426"
         transform="matrix(1,0,0,-1,-59.869631,114.75011)"
         clip-rule="evenodd"
         id="path31" />
    </clipPath>
    <clipPath
       clipPathUnits="userSpaceOnUse"
       id="clipPath32">
      <path
         d="M -0.00426,-0.00201 V 201.26187 H 425.20111 V -0.00201 H -0.00426"
         transform="matrix(1,0,0,-1,-124.43554,163.03941)"
         clip-rule="evenodd"
         id="path32" />
    </clipPath>
    <clipPath
       clipPathUnits="userSpaceOnUse"
       id="clipPath33">
      <path
         d="M -0.00426,-0.00201 V 201.26187 H 425.20111 V -0.00201 H -0.00426"
         transform="matrix(1,0,0,-1,-293.94735,163.03941)"
         clip-rule="evenodd"
         id="path33" />
    </clipPath>
  </defs>
  <sodipodi:namedview
     id="namedview1"
     pagecolor="#ffffff"
     bordercolor="#000000"
     borderopacity="0.25"
     inkscape:showpageshadow="2"
     inkscape:pageopacity="0.0"
     inkscape:pagecheckerboard="0"
     inkscape:deskcolor="#d1d1d1">
    <inkscape:page
       x="0"
       y="0"
       inkscape:label="1"
       id="page1"
       width="566.92932"
       height="268.34668"
       margin="0"
       bleed="0" />
  </sodipodi:namedview>
  <g
     id="layer-MC0"
     inkscape:groupmode="layer"
     inkscape:label="STABBEANSPR_DIAG">
    <path
       id="path1"
       d="m 262.70828,41.23332 v 3.54331 l 3.06861,-1.77166 47.04132,27.15934 v 7.08661 L 212.59836,19.38895 112.37851,77.25092 v -7.08661 l 47.04135,-27.15934 3.06857,1.77166 v -3.54331 l 50.10993,-28.93098 z"
       style="fill:#e0e0e0;fill-opacity:1;fill-rule:nonzero;stroke:none"
       transform="matrix(1.3333333,0,0,-1.3333333,0,268.34667)" />
    <path
       id="path2"
       d="m 162.48843,41.23332 v 3.54331 l -3.06857,-1.77166 z"
       style="fill:#e0e0e0;fill-opacity:1;fill-rule:nonzero;stroke:none"
       transform="matrix(1.3333333,0,0,-1.3333333,0,268.34667)" />
    <path
       id="path3"
       d="m 265.77689,43.00497 -3.06861,1.77166 v -3.54331 z"
       style="fill:#e0e0e0;fill-opacity:1;fill-rule:nonzero;stroke:none"
       transform="matrix(1.3333333,0,0,-1.3333333,0,268.34667)" />
  </g>
  <path
     id="path4"
     d="m 94.57457,94.14883 v -6.6188 m 0,6.6188 v -3.18898 m 0,3.18898 v 0 l 0.4252,-2.97638 h -0.85039 l 0.42519,2.97638 m 0,-6.6188 v 3.18898 m 0,-3.18898 v 0 l 0.4252,2.97638 h -0.85039 l 0.42519,-2.97638 v -7.08662 m 0,7.08662 v -3.18898 m 0,3.18898 v 0 l 0.4252,-2.97638 h -0.85039 l 0.42519,2.97638 m 0,-7.08662 v 3.18898 m 0,-3.18898 v 0 l 0.4252,2.97637 h -0.85039 l 0.42519,-2.97637 M 74.77609,105.57948 V 82.43471 m 0,23.14477 v -3.18898 m 0,3.18898 v 0 l 0.42519,-2.97638 h -0.85039 l 0.4252,2.97638 m 0,-23.14477 v 3.18896 m 0,-3.18896 v 0 l 0.42519,2.97638 h -0.85039 l 0.4252,-2.97638 m 0,46.28956 v -23.14479 m 0,23.14479 v -3.18898 m 0,3.18898 v 0 l 0.42519,-2.97638 h -0.85039 l 0.4252,2.97638 m 0,-23.14479 v 3.18898 m 0,-3.18898 v 0 l 0.42519,2.97638 h -0.85039 l 0.4252,-2.97638 m 143.49158,62.57015 34.76776,20.07318 m 65.45209,-77.93514 34.76776,20.0732 m -103.05447,56.22537 100.21984,-57.86197 m -100.21984,57.86197 2.76171,-1.59448 m -2.76171,1.59448 v 0 l 2.79019,-1.11996"
     style="fill:none;stroke:#000000;stroke-width:0.3685;stroke-linecap:round;stroke-linejoin:round;stroke-miterlimit:10;stroke-dasharray:none;stroke-opacity:1"
     transform="matrix(1.3333333,0,0,-1.3333333,0,268.34667)" />
  <path
     id="path5"
     d="m 252.991,185.46628 -0.42517,-0.73645 -2.36502,1.85641 m 100.21984,-57.86197 -2.76174,1.59449 m 2.76174,-1.59449 v 0 l -2.36502,1.85642 -0.4252,-0.73645 2.79022,-1.11997 M 212.47562,118.51602 v 1.67296 m 0,2.26772 v 2.83464 m 0,2.26771 v 2.83466 m 0,2.26773 v 2.83462 m 0,2.26773 v 2.83463 m 0,2.26773 v 2.83466 m 0,2.2677 v 2.83465 m 0,2.2677 v 2.83466 m 0,2.26773 v 2.83462 m 0,2.26773 v 1.53 m 0,-46.28958 v 0 m 0,46.28958 v 0 M 112.26935,60.66191 l 2.45488,1.41731 m 1.9639,1.13387 2.45486,1.41733 m 1.96391,1.13385 2.45487,1.41732 m 1.9639,1.13385 2.45488,1.41733 m 1.96391,1.13387 2.45486,1.41731 m 1.9639,1.13387 2.4549,1.41731 m 1.96389,1.13386 2.45487,1.41733 m 1.9639,1.13385 2.45486,1.41733 m 1.96393,1.13385 2.45486,1.41733 m 1.9639,1.13386 2.45486,1.41732 m 1.9639,1.13386 2.4549,1.41733 m 1.9639,1.13385 2.45486,1.41733 m 1.9639,1.13385 2.45489,1.41733 m 1.9639,1.13385 2.45486,1.41732 m 1.9639,1.13387 2.45487,1.41731 m 1.96392,1.13387 2.45487,1.41732 m 1.9639,1.13385 2.45486,1.41733 m 1.9639,1.13385 2.45489,1.41733 m 1.9639,1.13385 2.45487,1.41733 m 1.96389,1.13386 2.4549,1.41732 m 1.9639,1.13386 2.45486,1.41733 m 1.9639,1.13385 2.45486,1.41733 m 1.96393,1.13385 2.45487,1.41733 M 112.25577,60.65407 v 0 m 100.21985,57.86195 v 0 l 0.46771,-0.27002 m 1.9639,-1.13386 2.45489,-1.41733 m 1.9639,-1.13385 2.45486,-1.41733 m 1.9639,-1.13385 2.4549,-1.41733 m 1.96389,-1.13386 2.45487,-1.41731 m 1.9639,-1.13387 2.45486,-1.41733"
     style="fill:none;stroke:#000000;stroke-width:0.3685;stroke-linecap:round;stroke-linejoin:round;stroke-miterlimit:10;stroke-dasharray:none;stroke-opacity:1"
     transform="matrix(1.3333333,0,0,-1.3333333,0,268.34667)" />
  <path
     id="path6"
     d="m 237.00113,104.35623 2.45486,-1.41733 m 1.9639,-1.13385 2.45487,-1.41732 m 1.96389,-1.13385 2.4549,-1.41733 m 1.9639,-1.13387 2.45486,-1.41731 m 1.9639,-1.13387 2.45486,-1.41732 m 1.9639,-1.13385 2.4549,-1.41733 m 1.96389,-1.13385 2.45487,-1.41733 m 1.9639,-1.13385 2.45489,-1.41733 m 1.9639,-1.13386 2.45486,-1.41732 m 1.9639,-1.13386 2.45487,-1.41733 m 1.96392,-1.13385 2.45487,-1.41733 m 1.9639,-1.13385 2.45486,-1.41732 m 1.9639,-1.13387 2.45489,-1.41731 m 1.9639,-1.13387 2.45486,-1.41731 m 1.9639,-1.13387 2.4549,-1.41732 m 1.9639,-1.13385 2.45486,-1.41733 m 1.9639,-1.13385 2.45486,-1.41733 m 1.96393,-1.13386 0.57517,-0.33208 m -100.21985,57.86195 v 0 M 312.69547,60.65407 v 0 m -200.4397,0 v 46.28956 M 212.47562,2.7921 V 49.08168 L 112.25577,106.94363 212.47562,164.8056 M 112.25577,60.65407 212.47562,2.7921 m 100.21985,57.86197 v 46.28956 L 212.47562,49.08168 m 0,115.72392 100.21985,-57.86197 M 212.47562,2.7921 312.69547,60.65407"
     style="fill:none;stroke:#000000;stroke-width:0.3685;stroke-linecap:round;stroke-linejoin:round;stroke-miterlimit:10;stroke-dasharray:none;stroke-opacity:1"
     transform="matrix(1.3333333,0,0,-1.3333333,0,268.34667)" />
  <text
     id="text6"
     xml:space="preserve"
     transform="matrix(1.3333333,0,0,1.3333333,286.9472,112.49808)"
     clip-path="url(#clipPath7)"><tspan
       style="font-style:italic;font-variant:normal;font-weight:normal;font-stretch:normal;font-size:10.0071px;font-family:'Palatino Linotype';writing-mode:lr-tb;fill:#000000;fill-opacity:1;fill-rule:nonzero;stroke:none"
       x="0"
       y="0"
       id="tspan6">z</tspan></text>
  <text
     id="text7"
     xml:space="preserve"
     transform="matrix(1.3333333,0,0,1.3333333,309.85465,89.83872)"
     clip-path="url(#clipPath8)"><tspan
       style="font-style:italic;font-variant:normal;font-weight:normal;font-stretch:normal;font-size:10.0071px;font-family:'Palatino Linotype';writing-mode:lr-tb;fill:#000000;fill-opacity:1;fill-rule:nonzero;stroke:none"
       x="0"
       y="0"
       id="tspan7">x</tspan></text>
  <text
     id="text8"
     xml:space="preserve"
     transform="matrix(1.3333333,0,0,1.3333333,251.98196,86.3066)"
     clip-path="url(#clipPath9)"><tspan
       style="font-style:italic;font-variant:normal;font-weight:normal;font-stretch:normal;font-size:10.0071px;font-family:'Palatino Linotype';writing-mode:lr-tb;fill:#000000;fill-opacity:1;fill-rule:nonzero;stroke:none"
       x="0"
       y="0"
       id="tspan8">y</tspan></text>
  <text
     id="text9"
     xml:space="preserve"
     transform="matrix(1.3333333,0,0,1.3333333,205.36147,253.59267)"
     clip-path="url(#clipPath10)"><tspan
       style="font-style:italic;font-variant:normal;font-weight:normal;font-stretch:normal;font-size:10.0071px;font-family:'Palatino Linotype';writing-mode:lr-tb;fill:#000000;fill-opacity:1;fill-rule:nonzero;stroke:none"
       x="0"
       y="0"
       id="tspan9">τ</tspan></text>
  <text
     id="text10"
     xml:space="preserve"
     transform="matrix(1.3333333,0,0,1.3333333,212.00244,259.10448)"
     clip-path="url(#clipPath11)"><tspan
       style="font-style:italic;font-variant:normal;font-weight:normal;font-stretch:normal;font-size:6.00428px;font-family:'Palatino Linotype';writing-mode:lr-tb;fill:#000000;fill-opacity:1;fill-rule:nonzero;stroke:none"
       x="0 2.6659002 5.6680403"
       y="0"
       sodipodi:role="line"
       id="tspan10">zy </tspan></text>
  <text
     id="text11"
     xml:space="preserve"
     transform="matrix(1.3333333,0,0,1.3333333,222.75801,253.59267)"
     clip-path="url(#clipPath12)"><tspan
       style="font-style:italic;font-variant:normal;font-weight:normal;font-stretch:normal;font-size:10.0071px;font-family:'Palatino Linotype';writing-mode:lr-tb;fill:#000000;fill-opacity:1;fill-rule:nonzero;stroke:none"
       x="0 5.0035648"
       y="0"
       sodipodi:role="line"
       id="tspan11">dz</tspan></text>
  <text
     id="text12"
     xml:space="preserve"
     transform="matrix(1.3333333,0,0,1.3333333,367.69372,210.74508)"
     clip-path="url(#clipPath13)"><tspan
       style="font-style:italic;font-variant:normal;font-weight:normal;font-stretch:normal;font-size:10.0071px;font-family:'Palatino Linotype';writing-mode:lr-tb;fill:#000000;fill-opacity:1;fill-rule:nonzero;stroke:none"
       x="0"
       y="0"
       id="tspan12">σ</tspan></text>
  <text
     id="text13"
     xml:space="preserve"
     transform="matrix(1.3333333,0,0,1.3333333,375.98992,216.25689)"
     clip-path="url(#clipPath14)"><tspan
       style="font-style:italic;font-variant:normal;font-weight:normal;font-stretch:normal;font-size:6.00428px;font-family:'Palatino Linotype';writing-mode:lr-tb;fill:#000000;fill-opacity:1;fill-rule:nonzero;stroke:none"
       x="0 3.00214"
       y="0"
       sodipodi:role="line"
       id="tspan13">xx</tspan></text>
  <text
     id="text14"
     xml:space="preserve"
     transform="matrix(1.3333333,0,0,1.3333333,387.82554,210.74508)"
     clip-path="url(#clipPath15)"><tspan
       style="font-style:italic;font-variant:normal;font-weight:normal;font-stretch:normal;font-size:10.0071px;font-family:'Palatino Linotype';writing-mode:lr-tb;fill:#000000;fill-opacity:1;fill-rule:nonzero;stroke:none"
       x="0 5.0035648"
       y="0"
       sodipodi:role="line"
       id="tspan14">dz</tspan></text>
  <text
     id="text15"
     xml:space="preserve"
     transform="matrix(1.3333333,0,0,1.3333333,338.98795,253.59267)"
     clip-path="url(#clipPath16)"><tspan
       style="font-style:italic;font-variant:normal;font-weight:normal;font-stretch:normal;font-size:10.0071px;font-family:'Palatino Linotype';writing-mode:lr-tb;fill:#000000;fill-opacity:1;fill-rule:nonzero;stroke:none"
       x="0"
       y="0"
       id="tspan15">τ</tspan></text>
  <text
     id="text16"
     xml:space="preserve"
     transform="matrix(1.3333333,0,0,1.3333333,345.62893,259.10448)"
     clip-path="url(#clipPath17)"><tspan
       style="font-style:italic;font-variant:normal;font-weight:normal;font-stretch:normal;font-size:6.00428px;font-family:'Palatino Linotype';writing-mode:lr-tb;fill:#000000;fill-opacity:1;fill-rule:nonzero;stroke:none"
       x="0 2.6659002 5.6680403"
       y="0"
       sodipodi:role="line"
       id="tspan16">zx </tspan></text>
  <text
     id="text17"
     xml:space="preserve"
     transform="matrix(1.3333333,0,0,1.3333333,356.05479,253.59267)"
     clip-path="url(#clipPath18)"><tspan
       style="font-style:italic;font-variant:normal;font-weight:normal;font-stretch:normal;font-size:10.0071px;font-family:'Palatino Linotype';writing-mode:lr-tb;fill:#000000;fill-opacity:1;fill-rule:nonzero;stroke:none"
       x="0 5.0035648"
       y="0"
       sodipodi:role="line"
       id="tspan17">dz</tspan></text>
  <text
     id="text18"
     xml:space="preserve"
     transform="matrix(1.3333333,0,0,1.3333333,316.67009,208.09941)"
     clip-path="url(#clipPath19)"><tspan
       style="font-style:italic;font-variant:normal;font-weight:normal;font-stretch:normal;font-size:10.0071px;font-family:'Palatino Linotype';writing-mode:lr-tb;fill:#000000;fill-opacity:1;fill-rule:nonzero;stroke:none"
       x="0"
       y="0"
       id="tspan18">τ</tspan></text>
  <text
     id="text19"
     xml:space="preserve"
     transform="matrix(1.3333333,0,0,1.3333333,323.31108,213.61123)"
     clip-path="url(#clipPath20)"><tspan
       style="font-style:italic;font-variant:normal;font-weight:normal;font-stretch:normal;font-size:6.00428px;font-family:'Palatino Linotype';writing-mode:lr-tb;fill:#000000;fill-opacity:1;fill-rule:nonzero;stroke:none"
       x="0 3.00214 6.0042801"
       y="0"
       sodipodi:role="line"
       id="tspan19">yx </tspan></text>
  <text
     id="text20"
     xml:space="preserve"
     transform="matrix(1.3333333,0,0,1.3333333,334.19932,208.09941)"
     clip-path="url(#clipPath21)"><tspan
       style="font-style:italic;font-variant:normal;font-weight:normal;font-stretch:normal;font-size:10.0071px;font-family:'Palatino Linotype';writing-mode:lr-tb;fill:#000000;fill-opacity:1;fill-rule:nonzero;stroke:none"
       x="0 5.0035648"
       y="0"
       sodipodi:role="line"
       id="tspan20">dz</tspan></text>
  <text
     id="text21"
     xml:space="preserve"
     transform="matrix(1.3333333,0,0,1.3333333,234.06724,210.74508)"
     clip-path="url(#clipPath22)"><tspan
       style="font-style:italic;font-variant:normal;font-weight:normal;font-stretch:normal;font-size:10.0071px;font-family:'Palatino Linotype';writing-mode:lr-tb;fill:#000000;fill-opacity:1;fill-rule:nonzero;stroke:none"
       x="0"
       y="0"
       id="tspan21">τ</tspan></text>
  <text
     id="text22"
     xml:space="preserve"
     transform="matrix(1.3333333,0,0,1.3333333,240.70821,216.25689)"
     clip-path="url(#clipPath23)"><tspan
       style="font-style:italic;font-variant:normal;font-weight:normal;font-stretch:normal;font-size:6.00428px;font-family:'Palatino Linotype';writing-mode:lr-tb;fill:#000000;fill-opacity:1;fill-rule:nonzero;stroke:none"
       x="0 3.00214 6.0042801"
       y="0"
       sodipodi:role="line"
       id="tspan22">xy </tspan></text>
  <text
     id="text23"
     xml:space="preserve"
     transform="matrix(1.3333333,0,0,1.3333333,251.59649,210.74508)"
     clip-path="url(#clipPath24)"><tspan
       style="font-style:italic;font-variant:normal;font-weight:normal;font-stretch:normal;font-size:10.0071px;font-family:'Palatino Linotype';writing-mode:lr-tb;fill:#000000;fill-opacity:1;fill-rule:nonzero;stroke:none"
       x="0 5.0035648"
       y="0"
       sodipodi:role="line"
       id="tspan23">dz</tspan></text>
  <text
     id="text24"
     xml:space="preserve"
     transform="matrix(1.3333333,0,0,1.3333333,154.82171,238.967)"
     clip-path="url(#clipPath25)"><tspan
       style="font-style:italic;font-variant:normal;font-weight:normal;font-stretch:normal;font-size:10.0071px;font-family:'Palatino Linotype';writing-mode:lr-tb;fill:#000000;fill-opacity:1;fill-rule:nonzero;stroke:none"
       x="0"
       y="0"
       id="tspan24">σ</tspan></text>
  <text
     id="text25"
     xml:space="preserve"
     transform="matrix(1.3333333,0,0,1.3333333,163.11791,244.4788)"
     clip-path="url(#clipPath26)"><tspan
       style="font-style:italic;font-variant:normal;font-weight:normal;font-stretch:normal;font-size:6.00428px;font-family:'Palatino Linotype';writing-mode:lr-tb;fill:#000000;fill-opacity:1;fill-rule:nonzero;stroke:none"
       x="0 3.00214"
       y="0"
       sodipodi:role="line"
       id="tspan25">yy</tspan></text>
  <text
     id="text26"
     xml:space="preserve"
     transform="matrix(1.3333333,0,0,1.3333333,175.61294,238.967)"
     clip-path="url(#clipPath27)"><tspan
       style="font-style:italic;font-variant:normal;font-weight:normal;font-stretch:normal;font-size:10.0071px;font-family:'Palatino Linotype';writing-mode:lr-tb;fill:#000000;fill-opacity:1;fill-rule:nonzero;stroke:none"
       x="0 5.0035648"
       y="0"
       sodipodi:role="line"
       id="tspan26">dz</tspan></text>
  <text
     id="text27"
     xml:space="preserve"
     transform="matrix(1.3333333,0,0,1.3333333,116.66184,147.41529)"
     clip-path="url(#clipPath28)"><tspan
       style="font-style:italic;font-variant:normal;font-weight:normal;font-stretch:normal;font-size:10.0071px;font-family:'Palatino Linotype';writing-mode:lr-tb;fill:#000000;fill-opacity:1;fill-rule:nonzero;stroke:none"
       x="0"
       y="0"
       id="tspan27">z</tspan></text>
  <text
     id="text28"
     xml:space="preserve"
     transform="matrix(1.3333333,0,0,1.3333333,109.47104,158.88275)"
     clip-path="url(#clipPath29)"><tspan
       style="font-style:italic;font-variant:normal;font-weight:normal;font-stretch:normal;font-size:10.0071px;font-family:'Palatino Linotype';writing-mode:lr-tb;fill:#000000;fill-opacity:1;fill-rule:nonzero;stroke:none"
       x="0 5.0035648"
       y="0"
       sodipodi:role="line"
       id="tspan28">dz</tspan></text>
  <text
     id="text29"
     xml:space="preserve"
     transform="matrix(1.3333333,0,0,1.3333333,79.826173,146.20625)"
     clip-path="url(#clipPath30)"><tspan
       style="font-style:italic;font-variant:normal;font-weight:normal;font-stretch:normal;font-size:10.0071px;font-family:'Palatino Linotype';writing-mode:lr-tb;fill:#000000;fill-opacity:1;fill-rule:nonzero;stroke:none"
       x="0 5.0035648 7.9656754"
       y="0"
       sodipodi:role="line"
       id="tspan29">h/2</tspan></text>
  <text
     id="text30"
     xml:space="preserve"
     transform="matrix(1.3333333,0,0,1.3333333,79.826173,115.34653)"
     clip-path="url(#clipPath31)"><tspan
       style="font-style:italic;font-variant:normal;font-weight:normal;font-stretch:normal;font-size:10.0071px;font-family:'Palatino Linotype';writing-mode:lr-tb;fill:#000000;fill-opacity:1;fill-rule:nonzero;stroke:none"
       x="0 5.0035648 7.9656754"
       y="0"
       sodipodi:role="line"
       id="tspan30">h/2</tspan></text>
  <text
     id="text31"
     xml:space="preserve"
     transform="matrix(1.3333333,0,0,1.3333333,165.91405,50.960787)"
     clip-path="url(#clipPath32)"><tspan
       style="font-style:italic;font-variant:normal;font-weight:normal;font-stretch:normal;font-size:10.0071px;font-family:'Palatino Linotype';writing-mode:lr-tb;fill:#000000;fill-opacity:1;fill-rule:nonzero;stroke:none"
       x="0"
       y="0"
       id="tspan31">1</tspan></text>
  <text
     id="text32"
     xml:space="preserve"
     transform="matrix(1.3333333,0,0,1.3333333,391.92979,50.960787)"
     clip-path="url(#clipPath33)"><tspan
       style="font-style:italic;font-variant:normal;font-weight:normal;font-stretch:normal;font-size:10.0071px;font-family:'Palatino Linotype';writing-mode:lr-tb;fill:#000000;fill-opacity:1;fill-rule:nonzero;stroke:none"
       x="0"
       y="0"
       id="tspan32">1</tspan></text>
  <path
     id="path34"
     d="m 212.59836,141.73169 v -22.17688 m 0,5.95276 v 0.42518 m 0,-6.37794 v 0 l 0.8504,5.95276 h -1.70077 l 0.85037,-5.95276"
     style="fill:none;stroke:#000000;stroke-width:0.3685;stroke-linecap:round;stroke-linejoin:round;stroke-miterlimit:10;stroke-dasharray:none;stroke-opacity:1"
     transform="matrix(1.3333333,0,0,-1.3333333,0,268.34667)" />
  <path
     id="path35"
     d="m 211.74799,125.50757 0.85037,-5.95276 0.8504,5.95276 z"
     style="fill:#000000;fill-opacity:1;fill-rule:nonzero;stroke:none"
     transform="matrix(1.3333333,0,0,-1.3333333,0,268.34667)" />
  <path
     id="path36"
     d="m 212.59836,141.73169 19.20575,-11.08844 m -5.15525,2.97638 -0.36822,0.21258 m 5.52347,-3.18896 v 0 l -4.73004,3.71283 -0.85041,-1.4729 5.58045,-2.23993"
     style="fill:none;stroke:#000000;stroke-width:0.3685;stroke-linecap:round;stroke-linejoin:round;stroke-miterlimit:10;stroke-dasharray:none;stroke-opacity:1"
     transform="matrix(1.3333333,0,0,-1.3333333,0,268.34667)" />
  <path
     id="path37"
     d="m 226.22366,132.88318 5.58045,-2.23993 -4.73004,3.71283 z"
     style="fill:#000000;fill-opacity:1;fill-rule:nonzero;stroke:none"
     transform="matrix(1.3333333,0,0,-1.3333333,0,268.34667)" />
  <path
     id="path38"
     d="m 212.59836,141.73169 -19.20572,-11.08844 m 5.15524,2.97638 0.36823,0.21258 m -5.52347,-3.18896 v 0 l 5.58044,2.2399 -0.8504,1.47293 -4.73004,-3.71283"
     style="fill:none;stroke:#000000;stroke-width:0.3685;stroke-linecap:round;stroke-linejoin:round;stroke-miterlimit:10;stroke-dasharray:none;stroke-opacity:1"
     transform="matrix(1.3333333,0,0,-1.3333333,0,268.34667)" />
  <path
     id="path39"
     d="m 198.12268,134.35608 -4.73004,-3.71283 5.58044,2.2399 z"
     style="fill:#000000;fill-opacity:1;fill-rule:nonzero;stroke:none"
     transform="matrix(1.3333333,0,0,-1.3333333,0,268.34667)" />
  <path
     id="path40"
     d="M 112.37851,70.16431 212.59836,12.30234 M 112.37851,77.25092 212.59836,19.38895 M 162.48843,44.77663 187.0372,30.60339 m -5.15524,2.97638 -0.36823,0.2126 m 5.52347,-3.18898 v 0 l -4.73004,3.71285 -0.8504,-1.47292 5.58044,-2.23993"
     style="fill:none;stroke:#000000;stroke-width:0.3685;stroke-linecap:round;stroke-linejoin:round;stroke-miterlimit:10;stroke-dasharray:none;stroke-opacity:1"
     transform="matrix(1.3333333,0,0,-1.3333333,0,268.34667)" />
  <path
     id="path41"
     d="m 181.45676,32.84332 5.58044,-2.23993 -4.73004,3.71285 z"
     style="fill:#000000;fill-opacity:1;fill-rule:nonzero;stroke:none"
     transform="matrix(1.3333333,0,0,-1.3333333,0,268.34667)" />
  <path
     id="path42"
     d="M 162.48843,44.77663 137.9397,30.60339 m 5.15524,2.97638 0.36823,0.2126 m -5.52347,-3.18898 v 0 l 5.58041,2.23992 -0.85037,1.47293 -4.73004,-3.71285"
     style="fill:none;stroke:#000000;stroke-width:0.3685;stroke-linecap:round;stroke-linejoin:round;stroke-miterlimit:10;stroke-dasharray:none;stroke-opacity:1"
     transform="matrix(1.3333333,0,0,-1.3333333,0,268.34667)" />
  <path
     id="path43"
     d="m 142.66974,34.31624 -4.73004,-3.71285 5.58041,2.23992 z"
     style="fill:#000000;fill-opacity:1;fill-rule:nonzero;stroke:none"
     transform="matrix(1.3333333,0,0,-1.3333333,0,268.34667)" />
  <path
     id="path44"
     d="M 162.48843,44.77663 V 16.43018 m 0,5.95274 v 0.4252 m 0,-6.37794 v 0 l 0.85041,5.95274 h -1.70078 l 0.85037,-5.95274"
     style="fill:none;stroke:#000000;stroke-width:0.3685;stroke-linecap:round;stroke-linejoin:round;stroke-miterlimit:10;stroke-dasharray:none;stroke-opacity:1"
     transform="matrix(1.3333333,0,0,-1.3333333,0,268.34667)" />
  <path
     id="path45"
     d="m 161.63806,22.38292 0.85037,-5.95274 0.85041,5.95274 z"
     style="fill:#000000;fill-opacity:1;fill-rule:nonzero;stroke:none"
     transform="matrix(1.3333333,0,0,-1.3333333,0,268.34667)" />
  <path
     id="path46"
     d="M 212.59836,12.30234 312.81821,70.16431 M 212.59836,19.38895 312.81821,77.25092 M 262.70828,44.77663 287.25705,30.60339 m -5.15524,2.97638 -0.36823,0.2126 m 5.52347,-3.18898 v 0 l -4.73004,3.71285 -0.8504,-1.47292 5.58044,-2.23993"
     style="fill:none;stroke:#000000;stroke-width:0.3685;stroke-linecap:round;stroke-linejoin:round;stroke-miterlimit:10;stroke-dasharray:none;stroke-opacity:1"
     transform="matrix(1.3333333,0,0,-1.3333333,0,268.34667)" />
  <path
     id="path47"
     d="m 281.67661,32.84332 5.58044,-2.23993 -4.73004,3.71285 z"
     style="fill:#000000;fill-opacity:1;fill-rule:nonzero;stroke:none"
     transform="matrix(1.3333333,0,0,-1.3333333,0,268.34667)" />
  <path
     id="path48"
     d="M 262.70828,44.77663 238.15955,30.60339 m 5.15524,2.97638 0.36822,0.2126 m -5.52346,-3.18898 v 0 l 5.58044,2.23992 -0.8504,1.47293 -4.73004,-3.71285"
     style="fill:none;stroke:#000000;stroke-width:0.3685;stroke-linecap:round;stroke-linejoin:round;stroke-miterlimit:10;stroke-dasharray:none;stroke-opacity:1"
     transform="matrix(1.3333333,0,0,-1.3333333,0,268.34667)" />
  <path
     id="path49"
     d="m 242.88959,34.31624 -4.73004,-3.71285 5.58044,2.23992 z"
     style="fill:#000000;fill-opacity:1;fill-rule:nonzero;stroke:none"
     transform="matrix(1.3333333,0,0,-1.3333333,0,268.34667)" />
  <path
     id="path50"
     d="M 262.70828,44.77663 V 16.43018 m 0,5.95274 v 0.4252 m 0,-6.37794 v 0 l 0.85041,5.95274 h -1.70078 l 0.85037,-5.95274"
     style="fill:none;stroke:#000000;stroke-width:0.3685;stroke-linecap:round;stroke-linejoin:round;stroke-miterlimit:10;stroke-dasharray:none;stroke-opacity:1"
     transform="matrix(1.3333333,0,0,-1.3333333,0,268.34667)" />
  <path
     id="path51"
     d="m 261.85791,22.38292 0.85037,-5.95274 0.85041,5.95274 z"
     style="fill:#000000;fill-opacity:1;fill-rule:nonzero;stroke:none"
     transform="matrix(1.3333333,0,0,-1.3333333,0,268.34667)" />
  <path
     id="path52"
     d="m 112.37851,83.86972 0.88478,-0.51083 m 4.17329,-2.40946 2.45488,-1.41731 m 4.17328,-2.40945 2.45488,-1.41733 m 4.17328,-2.40944 2.4549,-1.41733 m 4.17328,-2.40945 2.45486,-1.41732 m 4.17331,-2.40945 2.45486,-1.41733 m 4.17328,-2.40944 2.4549,-1.41733 m 4.17328,-2.40945 2.45486,-1.41731 m 4.17331,-2.40946 2.45486,-1.41732 m 4.17328,-2.40944 2.4549,-1.41733 m 4.17328,-2.40946 2.45486,-1.41731 m 4.17331,-2.40945 2.45487,-1.41733 m 4.17327,-2.40944 2.4549,-1.41733 m 4.17328,-2.40945 2.45486,-1.41731 m 4.17331,-2.40946 2.45487,-1.41733 m 4.17328,-2.40944 2.36749,-1.36688 m -97.37116,56.21727 0.24549,-0.14172 m 6.38267,-3.68505 0.24549,-0.14172 m 6.38267,-3.68504 0.24548,-0.14174 m 6.38269,-3.68504 0.24549,-0.14173 m 6.38269,-3.68504 0.24548,-0.14173 m 6.38266,-3.68504 0.24548,-0.14174 m 6.3827,-3.68504 0.24548,-0.14172 m 6.38266,-3.68505 0.24551,-0.14172 m 6.38266,-3.68504 0.24549,-0.14174 m 6.38269,-3.68505 0.24548,-0.14172 m 6.38266,-3.68504 0.24551,-0.14173 m 6.38266,-3.68504 0.24549,-0.14174 m 6.38269,-3.68503 0.24548,-0.14174 m 6.38266,-3.68504 0.24548,-0.14172 m 6.38269,-3.68505 0.24549,-0.14174 m -95.88846,55.36124 v 0 M 212.59836,26.00775 v 0 m 1.62179,0.93634 2.45487,1.41731 m 4.17328,2.40946 2.45489,1.41733 m 4.17328,2.40944 2.45487,1.41732 m 4.1733,2.40946 2.45487,1.41731 m 4.17328,2.40945 2.45489,1.41733 m 4.17328,2.40944 2.45487,1.41733 m 4.17331,2.40945 2.45486,1.41732 m 4.17328,2.40945 2.45486,1.41733 m 4.17331,2.40944 2.45487,1.41733 m 4.17328,2.40945 2.45489,1.41731 m 4.17328,2.40946 2.45486,1.41733 m 4.17331,2.40943 2.45487,1.41733 m 4.17328,2.40946 2.45489,1.41731 m 4.17328,2.40945 2.45487,1.41733 m 4.1733,2.40944 2.45487,1.41733 m -90.83038,-52.44095 0.24548,0.14172 m 6.38269,3.68505 0.24548,0.14174"
     style="fill:none;stroke:#000000;stroke-width:0.3685;stroke-linecap:round;stroke-linejoin:round;stroke-miterlimit:10;stroke-dasharray:none;stroke-opacity:1"
     transform="matrix(1.3333333,0,0,-1.3333333,0,268.34667)" />
  <path
     id="path53"
     d="m 231.89526,37.14882 0.24549,0.14172 m 6.38266,3.68505 0.24548,0.14172 m 6.38269,3.68504 0.24548,0.14174 m 6.38266,3.68503 0.24552,0.14174 m 6.38266,3.68504 0.24548,0.14173 m 6.38266,3.68504 0.24552,0.14174 m 6.38266,3.68503 0.24548,0.14173 m 6.38269,3.68505 0.24548,0.14172 m 6.38266,3.68505 0.24552,0.14173 m 6.38266,3.68503 0.24548,0.14174 m 6.38269,3.68504 0.24548,0.14173 m 6.38266,3.68504 0.24549,0.14174 m 6.38269,3.68503 0.24548,0.14174 M 212.59836,26.00775 v 0 m 100.21985,57.86197 v 0 m -98.87455,57.08527 2.45487,-1.41733 m 4.17328,-2.40946 2.45489,-1.41732 m 4.17328,-2.40946 2.45487,-1.4173 m 4.17331,-2.40945 2.45486,-1.41733 m 4.17328,-2.40945 2.45489,-1.41733 m 4.17328,-2.40944 2.45487,-1.41733 m 4.17331,-2.40944 2.45486,-1.41732 m 4.17328,-2.40946 2.45486,-1.41731 m 4.17331,-2.40945 2.45487,-1.41733 m 4.17328,-2.40944 2.45489,-1.41733 m 4.17328,-2.40945 2.45487,-1.41732 m 4.1733,-2.40945 2.45487,-1.41733 m 4.17328,-2.40944 2.45489,-1.41733 m 4.17328,-2.40945 2.45487,-1.41731 m 4.17331,-2.40946 2.45486,-1.41733 m -90.83038,52.44097 0.24548,-0.14176 m 6.38269,-3.68502 0.24548,-0.14173 m 6.38266,-3.68506 0.24552,-0.14172 m 6.38266,-3.68504 0.24548,-0.14173 m 6.38269,-3.68504 0.24548,-0.14174 m 6.38266,-3.68503 0.24552,-0.14174 m 6.38266,-3.68504 0.24548,-0.14172 m 6.38266,-3.68505 0.24552,-0.14173 m 6.38266,-3.68503 0.24548,-0.14174 m 6.38269,-3.68505 0.24548,-0.14172 m 6.38266,-3.68504 0.24552,-0.14173 m 6.38266,-3.68504 0.24548,-0.14174 m 6.38269,-3.68504 0.24548,-0.14172 m 6.38266,-3.68505 0.24549,-0.14172 m 6.38269,-3.68505 0.24548,-0.14173 m -98.80383,57.04443 v 0 M 312.81821,83.86972 v 0 m -200.4397,0 1.16127,0.67046 m 4.17329,2.40945 2.45488,1.41733 m 4.17328,2.40944 2.45488,1.41733"
     style="fill:none;stroke:#000000;stroke-width:0.3685;stroke-linecap:round;stroke-linejoin:round;stroke-miterlimit:10;stroke-dasharray:none;stroke-opacity:1"
     transform="matrix(1.3333333,0,0,-1.3333333,0,268.34667)" />
  <path
     id="path54"
     d="m 130.96939,94.60318 2.4549,1.41731 m 4.17327,2.40946 2.45487,1.41732 m 4.17331,2.40944 2.45486,1.41733 m 4.17328,2.40944 2.4549,1.41733 m 4.17328,2.40945 2.45486,1.41732 m 4.17331,2.40945 2.45486,1.41733 m 4.17328,2.40944 2.4549,1.41732 m 4.17328,2.40946 2.45486,1.41731 m 4.17331,2.40946 2.45486,1.41732 m 4.17328,2.40946 2.4549,1.41733 m 4.17328,2.40942 2.45486,1.41733 m 4.17331,2.40945 2.45487,1.41733 m 4.17327,2.40945 2.09101,1.20725 m -97.09467,-56.05765 0.24549,0.14173 m 6.38267,3.68504 0.24548,0.14174 m 6.38268,3.68503 0.24548,0.14173 m 6.38269,3.68505 0.24549,0.14172 m 6.38269,3.68504 0.24548,0.14174 m 6.38266,3.68503 0.24548,0.14174 m 6.38269,3.68504 0.24549,0.14173 m 6.38266,3.68504 0.24551,0.14174 m 6.38266,3.68503 0.24549,0.14174 m 6.38269,3.68504 0.24548,0.14172 m 6.38266,3.68505 0.24551,0.14172 m 6.38266,3.68504 0.24549,0.14174 m 6.38269,3.68505 0.24548,0.14172 m 6.38266,3.68506 0.24548,0.14172 m 6.38269,3.68503 0.24549,0.14172 M 112.37851,83.86972 v 0 m 100.21985,57.86197 v 0 M 74.77609,128.72427 174.99594,186.58624 m -100.21985,-57.86197 2.76174,1.59449 m -2.76174,-1.59449 v 0 l 2.36502,1.85642 0.42519,-0.73645 -2.79021,-1.11997 m 100.21985,57.86197 -2.76172,-1.59448 m 2.76172,1.59448 v 0 l -2.79022,-1.11996 0.4252,-0.73645 2.36502,1.85641 M 92.11969,81.86073 106.70921,73.43747 m -14.58952,15.50987 14.58952,-8.42326 m -14.58952,15.04207 14.58952,-8.42327 m 65.45211,101.07993 34.76776,-20.07318 M 71.94144,130.36087 106.70921,110.28767 M 71.94144,107.21606 99.56406,91.26814 m -27.62262,-7.19685 34.76777,-20.0732"
     style="fill:none;stroke:#000000;stroke-width:0.3685;stroke-linecap:round;stroke-linejoin:round;stroke-miterlimit:10;stroke-dasharray:none;stroke-opacity:1"
     transform="matrix(1.3333333,0,0,-1.3333333,0,268.34667)" />
</svg>
