<?xml version="1.0" encoding="UTF-8" standalone="no"?>
<!-- Created with Inkscape (http://www.inkscape.org/) -->

<svg
   version="1.1"
   id="svg1"
   width="566.92932"
   height="222.992"
   viewBox="0 0 566.92932 222.992"
   sodipodi:docname="allg_balken_kin.pdf"
   xmlns:inkscape="http://www.inkscape.org/namespaces/inkscape"
   xmlns:sodipodi="http://sodipodi.sourceforge.net/DTD/sodipodi-0.dtd"
   xmlns="http://www.w3.org/2000/svg"
   xmlns:svg="http://www.w3.org/2000/svg">
  <defs
     id="defs1">
    <clipPath
       clipPathUnits="userSpaceOnUse"
       id="clipPath2">
      <path
         d="M -0.00426,-0.00168 V 167.24579 H 425.20111 V -0.00168 H -0.00426"
         transform="matrix(1,0,0,-1,-200.99785,93.327812)"
         clip-rule="evenodd"
         id="path2" />
    </clipPath>
    <clipPath
       clipPathUnits="userSpaceOnUse"
       id="clipPath3">
      <path
         d="M -0.00426,-0.00168 V 167.24579 H 425.20111 V -0.00168 H -0.00426"
         transform="matrix(1,0,0,-1,-228.19717,102.74129)"
         clip-rule="evenodd"
         id="path3" />
    </clipPath>
    <clipPath
       clipPathUnits="userSpaceOnUse"
       id="clipPath4">
      <path
         d="M -0.00426,-0.00168 V 167.24579 H 425.20111 V -0.00168 H -0.00426"
         transform="matrix(1,0,0,-1,-180.83764,99.922232)"
         clip-rule="evenodd"
         id="path4" />
    </clipPath>
    <clipPath
       clipPathUnits="userSpaceOnUse"
       id="clipPath5">
      <path
         d="M -0.00426,-0.00168 V 167.24579 H 425.20111 V -0.00168 H -0.00426"
         transform="matrix(1,0,0,-1,-168.43276,88.620025)"
         clip-rule="evenodd"
         id="path5" />
    </clipPath>
    <clipPath
       clipPathUnits="userSpaceOnUse"
       id="clipPath6">
      <path
         d="M -0.00426,-0.00168 V 167.24579 H 425.20111 V -0.00168 H -0.00426"
         transform="matrix(1,0,0,-1,-174.36843,84.48616)"
         clip-rule="evenodd"
         id="path6" />
    </clipPath>
    <clipPath
       clipPathUnits="userSpaceOnUse"
       id="clipPath7">
      <path
         d="M -0.00426,-0.00168 V 167.24579 H 425.20111 V -0.00168 H -0.00426"
         transform="matrix(1,0,0,-1,-78.217202,68.425622)"
         clip-rule="evenodd"
         id="path7" />
    </clipPath>
    <clipPath
       clipPathUnits="userSpaceOnUse"
       id="clipPath8">
      <path
         d="M -0.00426,-0.00168 V 167.24579 H 425.20111 V -0.00168 H -0.00426"
         transform="matrix(1,0,0,-1,-148.66629,120.86973)"
         clip-rule="evenodd"
         id="path8" />
    </clipPath>
    <clipPath
       clipPathUnits="userSpaceOnUse"
       id="clipPath9">
      <path
         d="M -0.00426,-0.00168 V 167.24579 H 425.20111 V -0.00168 H -0.00426"
         transform="matrix(1,0,0,-1,-121.21821,50.675371)"
         clip-rule="evenodd"
         id="path9" />
    </clipPath>
    <clipPath
       clipPathUnits="userSpaceOnUse"
       id="clipPath10">
      <path
         d="M -0.00426,-0.00168 V 167.24579 H 425.20111 V -0.00168 H -0.00426"
         transform="matrix(1,0,0,-1,-127.15387,46.541514)"
         clip-rule="evenodd"
         id="path10" />
    </clipPath>
  </defs>
  <sodipodi:namedview
     id="namedview1"
     pagecolor="#ffffff"
     bordercolor="#000000"
     borderopacity="0.25"
     inkscape:showpageshadow="2"
     inkscape:pageopacity="0.0"
     inkscape:pagecheckerboard="0"
     inkscape:deskcolor="#d1d1d1">
    <inkscape:page
       x="0"
       y="0"
       inkscape:label="1"
       id="page1"
       width="566.92932"
       height="222.992"
       margin="0"
       bleed="0" />
  </sodipodi:namedview>
  <g
     id="g1"
     inkscape:groupmode="layer"
     inkscape:label="1">
    <path
       id="path1"
       d="m 188.14334,92.51988 2.45487,1.41733 m 1.96392,1.13387 2.45487,1.41731 m 1.9639,1.13386 2.45486,1.41732 m 1.9639,1.13386 2.45489,1.41733 m 1.9639,1.13385 2.45487,1.41733 m 1.96389,1.13385 2.4549,1.41733 m 1.9639,1.13386 2.45486,1.41731 m 1.9639,1.13387 2.45486,1.41731 m 1.96393,1.13387 2.45487,1.41732 m 1.96389,1.13385 2.45487,1.41733 m 1.9639,1.13385 2.45489,1.41733 m 1.9639,1.13387 2.45486,1.41731 m 1.9639,1.13386 2.4549,1.41733 m 1.96389,1.13385 2.45487,1.41733 m 1.9639,1.13385 2.45486,1.41733 m 1.96393,1.13385 2.45486,1.41733 m 1.9639,1.13385 2.45486,1.41732 m 1.9639,1.13388 2.45487,1.4173 m 1.96392,1.13388 2.45487,1.4173 m 1.9639,1.13388 2.45486,1.41733 m 1.9639,1.13385 2.45489,1.41733 m 1.9639,1.13385 2.45487,1.41732 m 1.96389,1.13385 2.4549,1.41733 m 1.9639,1.13385 2.45486,1.41733 m 1.9639,1.13385 2.45486,1.41733 m 1.96393,1.13385 2.45487,1.41733 m 1.96389,1.13385 2.45487,1.41732 m 1.9639,1.13388 2.45489,1.4173 m 1.9639,1.13388 2.45486,1.41733 m 1.9639,1.13385 1.28455,0.74164 M 186.75186,91.71652 v 0 m 225.00876,-91.7182 13.44049,7.75987 M 186.75186,91.71652 v 69.43436 m 40.08795,-92.57915 v 69.43437 l -40.08795,23.14478 m 0,-69.43436 40.08795,-23.14479 m -40.08795,92.57915 10.55667,6.09491 m 80.17588,0 -50.6446,-29.23969 m 0,-69.43437 170.90845,98.67406"
       style="fill:none;stroke:#000000;stroke-width:0.3685;stroke-linecap:round;stroke-linejoin:round;stroke-miterlimit:10;stroke-dasharray:none;stroke-opacity:1"
       transform="matrix(1.3333333,0,0,-1.3333333,0,222.992)" />
    <text
       id="text1"
       xml:space="preserve"
       transform="matrix(1.3333333,0,0,1.3333333,267.99712,98.55492)"
       clip-path="url(#clipPath2)"><tspan
         style="font-style:italic;font-variant:normal;font-weight:normal;font-stretch:normal;font-size:10.0071px;font-family:'Palatino Linotype';writing-mode:lr-tb;fill:#000000;fill-opacity:1;fill-rule:nonzero;stroke:none"
         x="0"
         y="0"
         id="tspan1">z</tspan></text>
    <text
       id="text2"
       xml:space="preserve"
       transform="matrix(1.3333333,0,0,1.3333333,304.26289,86.003613)"
       clip-path="url(#clipPath3)"><tspan
         style="font-style:italic;font-variant:normal;font-weight:normal;font-stretch:normal;font-size:10.0071px;font-family:'Palatino Linotype';writing-mode:lr-tb;fill:#000000;fill-opacity:1;fill-rule:nonzero;stroke:none"
         x="0"
         y="0"
         id="tspan2">y</tspan></text>
    <text
       id="text3"
       xml:space="preserve"
       transform="matrix(1.3333333,0,0,1.3333333,241.11685,89.76236)"
       clip-path="url(#clipPath4)"><tspan
         style="font-style:italic;font-variant:normal;font-weight:normal;font-stretch:normal;font-size:10.0071px;font-family:'Palatino Linotype';writing-mode:lr-tb;fill:#000000;fill-opacity:1;fill-rule:nonzero;stroke:none"
         x="0"
         y="0"
         id="tspan3">x</tspan></text>
    <text
       id="text4"
       xml:space="preserve"
       transform="matrix(1.3333333,0,0,1.3333333,224.57701,104.83197)"
       clip-path="url(#clipPath5)"><tspan
         style="font-style:italic;font-variant:normal;font-weight:normal;font-stretch:normal;font-size:10.0071px;font-family:'Palatino Linotype';writing-mode:lr-tb;fill:#000000;fill-opacity:1;fill-rule:nonzero;stroke:none"
         x="0"
         y="0"
         id="tspan4">χ</tspan></text>
    <text
       id="text5"
       xml:space="preserve"
       transform="matrix(1.3333333,0,0,1.3333333,232.49124,110.34379)"
       clip-path="url(#clipPath6)"><tspan
         style="font-style:italic;font-variant:normal;font-weight:normal;font-stretch:normal;font-size:6.00428px;font-family:'Palatino Linotype';writing-mode:lr-tb;fill:#000000;fill-opacity:1;fill-rule:nonzero;stroke:none"
         x="0"
         y="0"
         id="tspan5">y</tspan></text>
    <text
       id="text6"
       xml:space="preserve"
       transform="matrix(1.3333333,0,0,1.3333333,104.2896,131.75784)"
       clip-path="url(#clipPath7)"><tspan
         style="font-style:italic;font-variant:normal;font-weight:normal;font-stretch:normal;font-size:10.0071px;font-family:'Palatino Linotype';writing-mode:lr-tb;fill:#000000;fill-opacity:1;fill-rule:nonzero;stroke:none"
         x="0"
         y="0"
         id="tspan6">ε</tspan></text>
    <text
       id="text7"
       xml:space="preserve"
       transform="matrix(1.3333333,0,0,1.3333333,198.22171,61.83236)"
       clip-path="url(#clipPath8)"><tspan
         style="font-style:italic;font-variant:normal;font-weight:normal;font-stretch:normal;font-size:10.0071px;font-family:'Palatino Linotype';writing-mode:lr-tb;fill:#000000;fill-opacity:1;fill-rule:nonzero;stroke:none"
         x="0"
         y="0"
         id="tspan7">ε</tspan></text>
    <text
       id="text8"
       xml:space="preserve"
       transform="matrix(1.3333333,0,0,1.3333333,161.62427,155.42484)"
       clip-path="url(#clipPath9)"><tspan
         style="font-style:italic;font-variant:normal;font-weight:normal;font-stretch:normal;font-size:10.0071px;font-family:'Palatino Linotype';writing-mode:lr-tb;fill:#000000;fill-opacity:1;fill-rule:nonzero;stroke:none"
         x="0"
         y="0"
         id="tspan8">χ</tspan></text>
    <text
       id="text9"
       xml:space="preserve"
       transform="matrix(1.3333333,0,0,1.3333333,169.53849,160.93665)"
       clip-path="url(#clipPath10)"><tspan
         style="font-style:italic;font-variant:normal;font-weight:normal;font-stretch:normal;font-size:6.00428px;font-family:'Palatino Linotype';writing-mode:lr-tb;fill:#000000;fill-opacity:1;fill-rule:nonzero;stroke:none"
         x="0"
         y="0"
         id="tspan9">z</tspan></text>
    <path
       id="path11"
       d="m 119.49284,99.17407 2.45487,1.41733 m 1.96391,1.13385 2.45487,1.41733 m 1.96389,1.13385 2.4549,1.41733 m 1.9639,1.13386 2.45486,1.41731 m 1.9639,1.13387 2.45489,1.41733 m 1.9639,1.13385 2.45487,1.41733 m 1.96389,1.13385 2.45487,1.41732 m 1.96393,1.13385 2.45486,1.41733 m 1.9639,1.13387 2.45486,1.41731 m 1.9639,1.13386 2.4549,1.41733 m 1.96389,1.13385 0.48185,0.2782 M 118.25627,98.46014 v 0 m 45.90618,26.50394 v 0 M 206.79584,114.8613 V 92.68443 m 0,5.95276 v 0.42519 m 0,-6.37795 v 0 l 0.8504,5.95276 h -1.70077 l 0.85037,-5.95276"
       style="fill:none;stroke:#000000;stroke-width:0.3685;stroke-linecap:round;stroke-linejoin:round;stroke-miterlimit:10;stroke-dasharray:none;stroke-opacity:1"
       transform="matrix(1.3333333,0,0,-1.3333333,0,222.992)" />
    <path
       id="path12"
       d="m 205.94547,98.63719 0.85037,-5.95276 0.8504,5.95276 z"
       style="fill:#000000;fill-opacity:1;fill-rule:nonzero;stroke:none"
       transform="matrix(1.3333333,0,0,-1.3333333,0,222.992)" />
    <path
       id="path13"
       d="m 206.79584,114.8613 19.20575,-11.08843 m -5.15525,2.97638 -0.36825,0.21259 m 5.5235,-3.18897 v 0 l -4.73004,3.71283 -0.85041,-1.47291 5.58045,-2.23992"
       style="fill:none;stroke:#000000;stroke-width:0.3685;stroke-linecap:round;stroke-linejoin:round;stroke-miterlimit:10;stroke-dasharray:none;stroke-opacity:1"
       transform="matrix(1.3333333,0,0,-1.3333333,0,222.992)" />
    <path
       id="path14"
       d="m 220.42114,106.01279 5.58045,-2.23992 -4.73004,3.71283 z"
       style="fill:#000000;fill-opacity:1;fill-rule:nonzero;stroke:none"
       transform="matrix(1.3333333,0,0,-1.3333333,0,222.992)" />
    <path
       id="path15"
       d="m 206.79584,114.8613 -19.20575,-11.08843 m 5.15524,2.97638 0.36826,0.21259 m -5.5235,-3.18897 v 0 l 5.58044,2.23992 -0.85037,1.47291 -4.73007,-3.71283"
       style="fill:none;stroke:#000000;stroke-width:0.3685;stroke-linecap:round;stroke-linejoin:round;stroke-miterlimit:10;stroke-dasharray:none;stroke-opacity:1"
       transform="matrix(1.3333333,0,0,-1.3333333,0,222.992)" />
    <path
       id="path16"
       d="m 192.32016,107.4857 -4.73007,-3.71283 5.58044,2.23992 z"
       style="fill:#000000;fill-opacity:1;fill-rule:nonzero;stroke:none"
       transform="matrix(1.3333333,0,0,-1.3333333,0,222.992)" />
    <path
       id="path17"
       d="m 164.16245,55.52972 13.99279,8.07874 -27.98559,53.27689 13.9928,8.07873"
       style="fill:none;stroke:#000000;stroke-width:0.3685;stroke-linecap:round;stroke-linejoin:round;stroke-miterlimit:10;stroke-dasharray:none;stroke-opacity:1"
       transform="matrix(1.3333333,0,0,-1.3333333,0,222.992)" />
    <path
       id="path18"
       d="m 164.16245,81.53795 c 1.41098,0 2.80081,0.34282 4.04995,0.99898"
       style="fill:none;stroke:#000000;stroke-width:0.3685;stroke-linecap:round;stroke-linejoin:round;stroke-miterlimit:10;stroke-dasharray:none;stroke-opacity:1"
       transform="matrix(1.3333333,0,0,-1.3333333,0,222.992)" />
    <path
       id="path19"
       d="M 164.16245,124.96408 V 55.52972 m -45.90618,8.21325 1.04932,0.60582 m 1.9639,1.13386 2.45488,1.41731 m 1.96389,1.13387 2.4549,1.41733 m 1.9639,1.13385 2.45486,1.41732 m 1.9639,1.13385 2.45486,1.41733 m 1.96393,1.13387 2.45487,1.41731 m 1.96389,1.13387 2.45487,1.41731 m 1.9639,1.13386 2.45489,1.41733 m 1.9639,1.13385 2.45486,1.41733 m 1.9639,1.13385 2.45489,1.41733 m 1.9639,1.13386 2.45487,1.41732 M 118.25627,63.74297 v 0 m 45.90618,26.50393 v 0 m -44.66961,8.92717 2.45487,1.41733 m 1.96391,1.13385 2.45487,1.41733 m 1.96389,1.13385 2.4549,1.41733 m 1.9639,1.13386 2.45486,1.41731 m 1.9639,1.13387 2.45489,1.41733 m 1.9639,1.13385 2.45487,1.41733 m 1.96389,1.13385 2.45487,1.41732 m 1.96393,1.13385 2.45486,1.41733 m 1.9639,1.13387 2.45486,1.41731 m 1.9639,1.13386 2.4549,1.41733 m 1.96389,1.13385 0.48185,0.2782 M 118.25627,98.46014 v 0 m 45.90618,26.50394 v 0 m -45.53508,-95.72404 2.45487,1.41732 m 1.9639,1.13385 2.45488,1.41733 m 1.9639,1.13387 2.45488,1.41731 m 1.9639,1.13387 2.45486,1.41731 m 1.9639,1.13386 2.45489,1.41733 m 1.9639,1.13385 2.45487,1.41733 m 1.96389,1.13385 2.4549,1.41733 m 1.9639,1.13386 2.45486,1.41732 m 1.9639,1.13386 2.45489,1.41731 m 1.9639,1.13387 2.45487,1.41733 m 1.96389,1.13385 1.34733,0.77787 M 118.25627,29.02579 v 0 m 45.90618,26.50393 v 0 M 118.25627,30.61418 v 2.83464 m 0,2.26772 v 2.83464 m 0,2.26771 v 2.83466 m 0,2.26771 v 2.83465 m 0,2.26771 v 2.83466 m 0,2.26771 v 2.83464 m 0,2.26772 V 64.063 m 0,2.26772 v 2.83464 m 0,2.26771 v 2.83465 m 0,2.26771 v 2.83466"
       style="fill:none;stroke:#000000;stroke-width:0.3685;stroke-linecap:round;stroke-linejoin:round;stroke-miterlimit:10;stroke-dasharray:none;stroke-opacity:1"
       transform="matrix(1.3333333,0,0,-1.3333333,0,222.992)" />
    <path
       id="path20"
       d="m 118.25627,81.6378 v 2.83464 m 0,2.26772 v 2.83465 m 0,2.26772 v 2.83464 m 0,2.26772 v 1.51525 m 0,-69.43435 v 0 m 0,69.43435 v 0 M 138.30026,52.17058 98.21231,75.31535 m 40.08795,-23.14477 19.32401,11.15671 m -78.73596,0.83136 19.324,11.1567 m -19.324,-11.1567 78.73596,-0.83136"
       style="fill:none;stroke:#000000;stroke-width:0.3685;stroke-linecap:round;stroke-linejoin:round;stroke-miterlimit:10;stroke-dasharray:none;stroke-opacity:1"
       transform="matrix(1.3333333,0,0,-1.3333333,0,222.992)" />
    <path
       id="path21"
       d="m 125.79845,59.38849 c 0.74879,1.29693 1.15048,2.76504 1.16629,4.26253"
       style="fill:none;stroke:#000000;stroke-width:0.3685;stroke-linecap:round;stroke-linejoin:round;stroke-miterlimit:10;stroke-dasharray:none;stroke-opacity:1"
       transform="matrix(1.3333333,0,0,-1.3333333,0,222.992)" />
  </g>
</svg>
