<?xml version="1.0" encoding="UTF-8" standalone="no"?>
<!-- Created with Inkscape (http://www.inkscape.org/) -->

<svg
   version="1.1"
   id="svg1"
   width="566.92932"
   height="151.18134"
   viewBox="0 0 566.92932 151.18134"
   sodipodi:docname="allg_platte_zu_Rost.pdf"
   xmlns:inkscape="http://www.inkscape.org/namespaces/inkscape"
   xmlns:sodipodi="http://sodipodi.sourceforge.net/DTD/sodipodi-0.dtd"
   xmlns="http://www.w3.org/2000/svg"
   xmlns:svg="http://www.w3.org/2000/svg">
  <defs
     id="defs1">
    <clipPath
       clipPathUnits="userSpaceOnUse"
       id="clipPath3">
      <path
         d="M -0.00426,-0.00113 V 113.38696 H 425.20111 V -0.00113 H -0.00426"
         transform="matrix(1,0,0,-1,-362.58303,38.264868)"
         clip-rule="evenodd"
         id="path3" />
    </clipPath>
    <clipPath
       clipPathUnits="userSpaceOnUse"
       id="clipPath4">
      <path
         d="M -0.00426,-0.00113 V 113.38696 H 425.20111 V -0.00113 H -0.00426"
         transform="matrix(1,0,0,-1,-371.66996,34.131011)"
         clip-rule="evenodd"
         id="path4" />
    </clipPath>
    <clipPath
       clipPathUnits="userSpaceOnUse"
       id="clipPath5">
      <path
         d="M -0.00426,-0.00113 V 113.38696 H 425.20111 V -0.00113 H -0.00426"
         transform="matrix(1,0,0,-1,-271.22676,81.238932)"
         clip-rule="evenodd"
         id="path5" />
    </clipPath>
    <clipPath
       clipPathUnits="userSpaceOnUse"
       id="clipPath6">
      <path
         d="M -0.00426,-0.00113 V 113.38696 H 425.20111 V -0.00113 H -0.00426"
         transform="matrix(1,0,0,-1,-288.40734,107.02321)"
         clip-rule="evenodd"
         id="path6" />
    </clipPath>
    <clipPath
       clipPathUnits="userSpaceOnUse"
       id="clipPath7">
      <path
         d="M -0.00426,-0.00113 V 113.38696 H 425.20111 V -0.00113 H -0.00426"
         transform="matrix(1,0,0,-1,-248.05069,95.603502)"
         clip-rule="evenodd"
         id="path7" />
    </clipPath>
    <clipPath
       clipPathUnits="userSpaceOnUse"
       id="clipPath8">
      <path
         d="M -0.00426,-0.00113 V 113.38696 H 425.20111 V -0.00113 H -0.00426"
         transform="matrix(1,0,0,-1,-65.109952,6.6319902)"
         clip-rule="evenodd"
         id="path8" />
    </clipPath>
    <clipPath
       clipPathUnits="userSpaceOnUse"
       id="clipPath9">
      <path
         d="M -0.00426,-0.00113 V 113.38696 H 425.20111 V -0.00113 H -0.00426"
         transform="matrix(1,0,0,-1,-80.1577,2.4981401)"
         clip-rule="evenodd"
         id="path9" />
    </clipPath>
    <clipPath
       clipPathUnits="userSpaceOnUse"
       id="clipPath10">
      <path
         d="M -0.00426,-0.00113 V 113.38696 H 425.20111 V -0.00113 H -0.00426"
         transform="matrix(1,0,0,-1,-174.37698,38.435691)"
         clip-rule="evenodd"
         id="path10" />
    </clipPath>
    <clipPath
       clipPathUnits="userSpaceOnUse"
       id="clipPath11">
      <path
         d="M -0.00426,-0.00113 V 113.38696 H 425.20111 V -0.00113 H -0.00426"
         transform="matrix(1,0,0,-1,-189.42471,34.301831)"
         clip-rule="evenodd"
         id="path11" />
    </clipPath>
    <clipPath
       clipPathUnits="userSpaceOnUse"
       id="clipPath12">
      <path
         d="M -0.00426,-0.00113 V 113.38696 H 425.20111 V -0.00113 H -0.00426"
         transform="matrix(1,0,0,-1,-119.07127,21.042573)"
         clip-rule="evenodd"
         id="path12" />
    </clipPath>
    <clipPath
       clipPathUnits="userSpaceOnUse"
       id="clipPath13">
      <path
         d="M -0.00426,-0.00113 V 113.38696 H 425.20111 V -0.00113 H -0.00426"
         transform="matrix(1,0,0,-1,-134.53116,16.908708)"
         clip-rule="evenodd"
         id="path13" />
    </clipPath>
    <clipPath
       clipPathUnits="userSpaceOnUse"
       id="clipPath14">
      <path
         d="M -0.00426,-0.00113 V 113.38696 H 425.20111 V -0.00113 H -0.00426"
         transform="matrix(1,0,0,-1,-280.9648,42.121051)"
         clip-rule="evenodd"
         id="path14" />
    </clipPath>
    <clipPath
       clipPathUnits="userSpaceOnUse"
       id="clipPath15">
      <path
         d="M -0.00426,-0.00113 V 113.38696 H 425.20111 V -0.00113 H -0.00426"
         transform="matrix(1,0,0,-1,-290.05174,37.987188)"
         clip-rule="evenodd"
         id="path15" />
    </clipPath>
    <clipPath
       clipPathUnits="userSpaceOnUse"
       id="clipPath16">
      <path
         d="M -0.00426,-0.00113 V 113.38696 H 425.20111 V -0.00113 H -0.00426"
         transform="matrix(1,0,0,-1,-316.9421,51.586671)"
         clip-rule="evenodd"
         id="path16" />
    </clipPath>
    <clipPath
       clipPathUnits="userSpaceOnUse"
       id="clipPath17">
      <path
         d="M -0.00426,-0.00113 V 113.38696 H 425.20111 V -0.00113 H -0.00426"
         transform="matrix(1,0,0,-1,-326.02905,47.452811)"
         clip-rule="evenodd"
         id="path17" />
    </clipPath>
    <clipPath
       clipPathUnits="userSpaceOnUse"
       id="clipPath18">
      <path
         d="M -0.00426,-0.00113 V 113.38696 H 425.20111 V -0.00113 H -0.00426"
         transform="matrix(1,0,0,-1,-62.375312,27.172368)"
         clip-rule="evenodd"
         id="path18" />
    </clipPath>
    <clipPath
       clipPathUnits="userSpaceOnUse"
       id="clipPath19">
      <path
         d="M -0.00426,-0.00113 V 113.38696 H 425.20111 V -0.00113 H -0.00426"
         transform="matrix(1,0,0,-1,-77.835182,23.038511)"
         clip-rule="evenodd"
         id="path19" />
    </clipPath>
    <clipPath
       clipPathUnits="userSpaceOnUse"
       id="clipPath20">
      <path
         d="M -0.00426,-0.00113 V 113.38696 H 425.20111 V -0.00113 H -0.00426"
         transform="matrix(1,0,0,-1,-247.7605,6.4970577)"
         clip-rule="evenodd"
         id="path20" />
    </clipPath>
    <clipPath
       clipPathUnits="userSpaceOnUse"
       id="clipPath21">
      <path
         d="M -0.00426,-0.00113 V 113.38696 H 425.20111 V -0.00113 H -0.00426"
         transform="matrix(1,0,0,-1,-256.84744,2.3632001)"
         clip-rule="evenodd"
         id="path21" />
    </clipPath>
    <clipPath
       clipPathUnits="userSpaceOnUse"
       id="clipPath22">
      <path
         d="M -0.00426,-0.00113 V 113.38696 H 425.20111 V -0.00113 H -0.00426"
         transform="matrix(1,0,0,-1,-265.01364,6.4970577)"
         clip-rule="evenodd"
         id="path22" />
    </clipPath>
    <clipPath
       clipPathUnits="userSpaceOnUse"
       id="clipPath23">
      <path
         d="M -0.00426,-0.00113 V 113.38696 H 425.20111 V -0.00113 H -0.00426"
         transform="matrix(1,0,0,-1,-281.82048,2.3632001)"
         clip-rule="evenodd"
         id="path23" />
    </clipPath>
    <clipPath
       clipPathUnits="userSpaceOnUse"
       id="clipPath24">
      <path
         d="M -0.00426,-0.00113 V 113.38696 H 425.20111 V -0.00113 H -0.00426"
         transform="matrix(1,0,0,-1,-341.57107,97.042542)"
         clip-rule="evenodd"
         id="path24" />
    </clipPath>
    <clipPath
       clipPathUnits="userSpaceOnUse"
       id="clipPath25">
      <path
         d="M -0.00426,-0.00113 V 113.38696 H 425.20111 V -0.00113 H -0.00426"
         transform="matrix(1,0,0,-1,-219.14326,62.988912)"
         clip-rule="evenodd"
         id="path25" />
    </clipPath>
    <clipPath
       clipPathUnits="userSpaceOnUse"
       id="clipPath26">
      <path
         d="M -0.00426,-0.00113 V 113.38696 H 425.20111 V -0.00113 H -0.00426"
         transform="matrix(1,0,0,-1,-153.36502,97.213362)"
         clip-rule="evenodd"
         id="path26" />
    </clipPath>
    <clipPath
       clipPathUnits="userSpaceOnUse"
       id="clipPath27">
      <path
         d="M -0.00426,-0.00113 V 113.38696 H 425.20111 V -0.00113 H -0.00426"
         transform="matrix(1,0,0,-1,-30.937201,63.159722)"
         clip-rule="evenodd"
         id="path27" />
    </clipPath>
    <clipPath
       clipPathUnits="userSpaceOnUse"
       id="clipPath28">
      <path
         d="M -0.00426,-0.00113 V 113.38696 H 425.20111 V -0.00113 H -0.00426"
         transform="matrix(1,0,0,-1,-109.78749,59.819432)"
         clip-rule="evenodd"
         id="path28" />
    </clipPath>
  </defs>
  <sodipodi:namedview
     id="namedview1"
     pagecolor="#ffffff"
     bordercolor="#000000"
     borderopacity="0.25"
     inkscape:showpageshadow="2"
     inkscape:pageopacity="0.0"
     inkscape:pagecheckerboard="0"
     inkscape:deskcolor="#d1d1d1">
    <inkscape:page
       x="0"
       y="0"
       inkscape:label="1"
       id="page1"
       width="566.92932"
       height="151.18134"
       margin="0"
       bleed="0" />
  </sodipodi:namedview>
  <g
     id="g1"
     inkscape:groupmode="layer"
     inkscape:label="1">
    <path
       id="path1"
       d="m 254.379,39.58987 v -7.0866 m 63.28692,-0.48801 v -7.08661 m 31.81446,39.31372 v -7.08662 m -31.81446,-32.2271 31.81446,32.2271 M 317.66592,24.92865 254.379,32.50327 m 63.28692,-0.48801 -63.28692,7.57461 m 63.28692,-7.57461 31.81446,32.22711 M 254.379,39.58987 286.19345,71.81699 m 63.28693,-7.57462 -63.28693,7.57462 m -27.57043,-36.27837 2.81454,-0.33687 m 4.78476,-0.57268 2.81455,-0.33686 m 4.78475,-0.57267 2.81455,-0.33686 m 4.78476,-0.57268 2.81454,-0.33687 m 4.78476,-0.57266 2.81458,-0.33687 m 4.78473,-0.57268 2.81457,-0.33687 m 4.78473,-0.57266 2.81458,-0.33687 m 4.78473,-0.57268 2.81457,-0.33685 m -58.54282,7.00681 0.28147,-0.03369 m 7.31784,-0.87586 0.28146,-0.03368 m 7.31784,-0.87585 0.28147,-0.03369 m 7.31784,-0.87586 0.28146,-0.03367 m 7.31784,-0.87586 0.28147,-0.03369 m 7.31784,-0.87585 0.28146,-0.03368 m 7.31787,-0.87585 0.28143,-0.03369 m 7.31787,-0.87584 0.28144,-0.03369 m 7.31787,-0.87586 0.28143,-0.03369 m -62.7868,7.51477 v 0 m 63.28692,-7.57462 v 0 m 1.03949,1.05298 1.99146,2.01728 m 3.38544,3.42936 1.99142,2.01728 m 3.38547,3.42935 1.99142,2.01727 m 3.38547,3.42937 1.99142,2.01726 m 3.38547,3.42936 1.99143,2.01728 m 3.38546,3.42935 1.99143,2.01727 m -25.29129,-25.61934 0.19916,0.20174 m 5.17773,5.2449 0.19913,0.20172 m 5.17776,5.24491 0.19913,0.20172 m 5.17776,5.2449 0.19913,0.20174 m 5.17777,5.2449 0.19912,0.20172 m 5.17777,5.24491 0.19913,0.20173 M 317.66592,28.47195 v 0 m 31.81446,32.22712 v 0 m 3.66803,7.21135 25.44073,25.7507 m -88.72766,-18.17609 25.44074,25.7507 m -2.76352,-2.81939 63.28692,-7.57463 m -63.28692,7.57463 3.16635,-0.37899 m -3.16635,0.37899 v 0 l 3.00579,0.06846 -0.10104,-0.84436 -2.90475,0.7759"
       style="fill:none;stroke:#000000;stroke-width:0.3685;stroke-linecap:round;stroke-linejoin:round;stroke-miterlimit:10;stroke-dasharray:none;stroke-opacity:1"
       transform="matrix(1.3333333,0,0,-1.3333333,0,151.18133)" />
    <path
       id="path2"
       d="m 375.82562,90.84171 -3.16638,0.37898 m 3.16638,-0.37898 v 0 l -2.90475,0.77589 -0.10108,-0.84436 3.00583,0.06847 M 210.44922,44.84769 242.2637,77.0748 M 143.48956,46.39775 v -7.08662 m 3.75507,10.89038 V 43.1149 m -45.85375,-7.56934 v -7.08662 m -7.14897,7.94226 v -7.08661 m 7.14897,6.23097 -7.14897,0.85564 m 0,-7.08661 7.14897,-0.85565 m 42.09868,10.85219 3.75507,3.80377 m -3.75507,3.28285 3.75507,3.80376 m -67.04199,3.77086 v -7.08663 m 0,7.08663 3.75506,3.80375 m 59.53186,-18.46499 -28.06897,3.35949 m -14.02971,-7.12506 14.02971,14.21167 m -7.14898,0.85564 -28.06897,3.3595 m 21.81234,-9.69727 -21.81234,2.61064 m 53.00271,20.88693 v -7.08662 m 0,7.08662 -7.14898,0.85564 M 94.24191,36.4012 l 14.0297,14.21167 m 35.21795,-4.21512 -28.06897,3.35948 m -14.02971,-21.29829 14.02971,14.21168 m 3.75505,10.89038 14.02971,14.21167 m -21.17868,-13.35603 14.0297,14.21167 m 21.18826,-18.4268 -28.06899,3.35949 m -7.19197,0.81208 -28.02597,3.35434 m 41.47458,-4.91526 7.77307,7.87389 m -8.4772,-1.50053 -7.07483,0.84677 m 47.28906,8.04893 25.44074,25.7507 m -88.72768,-18.17607 25.44074,25.75069 m -2.76354,-2.8194 63.28693,-7.57461 m -63.28693,7.57461 3.16638,-0.37896 m -3.16638,0.37896 v 0 l 3.00582,0.06848 -0.10106,-0.84437 -2.90476,0.77589 m 63.28693,-7.57461 -3.16638,0.37896 m 3.16638,-0.37896 v 0 l -2.90476,0.77589 -0.10104,-0.84436 3.0058,0.06847 M 22.24318,45.01851 54.05763,77.24562"
       style="fill:none;stroke:#000000;stroke-width:0.3685;stroke-linecap:round;stroke-linejoin:round;stroke-miterlimit:10;stroke-dasharray:none;stroke-opacity:1"
       transform="matrix(1.3333333,0,0,-1.3333333,0,151.18133)" />
    <text
       id="text2"
       xml:space="preserve"
       transform="matrix(1.3333333,0,0,1.3333333,483.44403,100.16151)"
       clip-path="url(#clipPath3)"><tspan
         style="font-style:italic;font-variant:normal;font-weight:normal;font-stretch:normal;font-size:10.0071px;font-family:'Palatino Linotype';writing-mode:lr-tb;fill:#000000;fill-opacity:1;fill-rule:nonzero;stroke:none"
         x="0"
         y="0"
         id="tspan2">m</tspan></text>
    <text
       id="text3"
       xml:space="preserve"
       transform="matrix(1.3333333,0,0,1.3333333,495.55993,105.67332)"
       clip-path="url(#clipPath4)"><tspan
         style="font-style:italic;font-variant:normal;font-weight:normal;font-stretch:normal;font-size:6.00428px;font-family:'Palatino Linotype';writing-mode:lr-tb;fill:#000000;fill-opacity:1;fill-rule:nonzero;stroke:none"
         x="0 3.00214"
         y="0"
         sodipodi:role="line"
         id="tspan3">xy</tspan></text>
    <text
       id="text4"
       xml:space="preserve"
       transform="matrix(1.3333333,0,0,1.3333333,361.63567,42.86276)"
       clip-path="url(#clipPath5)"><tspan
         style="font-style:italic;font-variant:normal;font-weight:normal;font-stretch:normal;font-size:10.0071px;font-family:'Palatino Linotype';writing-mode:lr-tb;fill:#000000;fill-opacity:1;fill-rule:nonzero;stroke:none"
         x="0"
         y="0"
         id="tspan4">z</tspan></text>
    <text
       id="text5"
       xml:space="preserve"
       transform="matrix(1.3333333,0,0,1.3333333,384.54311,8.48372)"
       clip-path="url(#clipPath6)"><tspan
         style="font-style:italic;font-variant:normal;font-weight:normal;font-stretch:normal;font-size:10.0071px;font-family:'Palatino Linotype';writing-mode:lr-tb;fill:#000000;fill-opacity:1;fill-rule:nonzero;stroke:none"
         x="0"
         y="0"
         id="tspan5">x</tspan></text>
    <text
       id="text6"
       xml:space="preserve"
       transform="matrix(1.3333333,0,0,1.3333333,330.73424,23.71)"
       clip-path="url(#clipPath7)"><tspan
         style="font-style:italic;font-variant:normal;font-weight:normal;font-stretch:normal;font-size:10.0071px;font-family:'Palatino Linotype';writing-mode:lr-tb;fill:#000000;fill-opacity:1;fill-rule:nonzero;stroke:none"
         x="0"
         y="0"
         id="tspan6">y</tspan></text>
    <text
       id="text7"
       xml:space="preserve"
       transform="matrix(1.3333333,0,0,1.3333333,86.813267,142.33868)"
       clip-path="url(#clipPath8)"><tspan
         style="font-style:italic;font-variant:normal;font-weight:normal;font-stretch:normal;font-size:10.0071px;font-family:'Palatino Linotype';writing-mode:lr-tb;fill:#000000;fill-opacity:1;fill-rule:nonzero;stroke:none"
         x="0 9.4467306"
         y="0"
         sodipodi:role="line"
         id="tspan7">Mx</tspan></text>
    <text
       id="text8"
       xml:space="preserve"
       transform="matrix(1.3333333,0,0,1.3333333,106.87693,147.85048)"
       clip-path="url(#clipPath9)"><tspan
         style="font-style:italic;font-variant:normal;font-weight:normal;font-stretch:normal;font-size:6.00428px;font-family:'Palatino Linotype';writing-mode:lr-tb;fill:#000000;fill-opacity:1;fill-rule:nonzero;stroke:none"
         x="0"
         y="0"
         id="tspan8">y</tspan></text>
    <text
       id="text9"
       xml:space="preserve"
       transform="matrix(1.3333333,0,0,1.3333333,232.50263,99.933747)"
       clip-path="url(#clipPath10)"><tspan
         style="font-style:italic;font-variant:normal;font-weight:normal;font-stretch:normal;font-size:10.0071px;font-family:'Palatino Linotype';writing-mode:lr-tb;fill:#000000;fill-opacity:1;fill-rule:nonzero;stroke:none"
         x="0 9.4467306"
         y="0"
         sodipodi:role="line"
         id="tspan9">Mx</tspan></text>
    <text
       id="text10"
       xml:space="preserve"
       transform="matrix(1.3333333,0,0,1.3333333,252.56628,105.44556)"
       clip-path="url(#clipPath11)"><tspan
         style="font-style:italic;font-variant:normal;font-weight:normal;font-stretch:normal;font-size:6.00428px;font-family:'Palatino Linotype';writing-mode:lr-tb;fill:#000000;fill-opacity:1;fill-rule:nonzero;stroke:none"
         x="0"
         y="0"
         id="tspan10">x</tspan></text>
    <text
       id="text11"
       xml:space="preserve"
       transform="matrix(1.3333333,0,0,1.3333333,158.76169,123.12457)"
       clip-path="url(#clipPath12)"><tspan
         style="font-style:italic;font-variant:normal;font-weight:normal;font-stretch:normal;font-size:10.0071px;font-family:'Palatino Linotype';writing-mode:lr-tb;fill:#000000;fill-opacity:1;fill-rule:nonzero;stroke:none"
         x="0 9.4467306"
         y="0"
         sodipodi:role="line"
         id="tspan11">My</tspan></text>
    <text
       id="text12"
       xml:space="preserve"
       transform="matrix(1.3333333,0,0,1.3333333,179.37487,128.63639)"
       clip-path="url(#clipPath13)"><tspan
         style="font-style:italic;font-variant:normal;font-weight:normal;font-stretch:normal;font-size:6.00428px;font-family:'Palatino Linotype';writing-mode:lr-tb;fill:#000000;fill-opacity:1;fill-rule:nonzero;stroke:none"
         x="0"
         y="0"
         id="tspan12">x</tspan></text>
    <text
       id="text13"
       xml:space="preserve"
       transform="matrix(1.3333333,0,0,1.3333333,374.61972,95.019933)"
       clip-path="url(#clipPath14)"><tspan
         style="font-style:italic;font-variant:normal;font-weight:normal;font-stretch:normal;font-size:10.0071px;font-family:'Palatino Linotype';writing-mode:lr-tb;fill:#000000;fill-opacity:1;fill-rule:nonzero;stroke:none"
         x="0"
         y="0"
         id="tspan13">m</tspan></text>
    <text
       id="text14"
       xml:space="preserve"
       transform="matrix(1.3333333,0,0,1.3333333,386.73565,100.53175)"
       clip-path="url(#clipPath15)"><tspan
         style="font-style:italic;font-variant:normal;font-weight:normal;font-stretch:normal;font-size:6.00428px;font-family:'Palatino Linotype';writing-mode:lr-tb;fill:#000000;fill-opacity:1;fill-rule:nonzero;stroke:none"
         x="0 3.00214"
         y="0"
         sodipodi:role="line"
         id="tspan14">yy</tspan></text>
    <text
       id="text15"
       xml:space="preserve"
       transform="matrix(1.3333333,0,0,1.3333333,422.58945,82.399107)"
       clip-path="url(#clipPath16)"><tspan
         style="font-style:italic;font-variant:normal;font-weight:normal;font-stretch:normal;font-size:10.0071px;font-family:'Palatino Linotype';writing-mode:lr-tb;fill:#000000;fill-opacity:1;fill-rule:nonzero;stroke:none"
         x="0"
         y="0"
         id="tspan15">m</tspan></text>
    <text
       id="text16"
       xml:space="preserve"
       transform="matrix(1.3333333,0,0,1.3333333,434.70539,87.91092)"
       clip-path="url(#clipPath17)"><tspan
         style="font-style:italic;font-variant:normal;font-weight:normal;font-stretch:normal;font-size:6.00428px;font-family:'Palatino Linotype';writing-mode:lr-tb;fill:#000000;fill-opacity:1;fill-rule:nonzero;stroke:none"
         x="0 3.00214"
         y="0"
         sodipodi:role="line"
         id="tspan16">xx</tspan></text>
    <text
       id="text17"
       xml:space="preserve"
       transform="matrix(1.3333333,0,0,1.3333333,83.16708,114.95151)"
       clip-path="url(#clipPath18)"><tspan
         style="font-style:italic;font-variant:normal;font-weight:normal;font-stretch:normal;font-size:10.0071px;font-family:'Palatino Linotype';writing-mode:lr-tb;fill:#000000;fill-opacity:1;fill-rule:nonzero;stroke:none"
         x="0 9.4467306"
         y="0"
         sodipodi:role="line"
         id="tspan17">My</tspan></text>
    <text
       id="text18"
       xml:space="preserve"
       transform="matrix(1.3333333,0,0,1.3333333,103.78024,120.46332)"
       clip-path="url(#clipPath19)"><tspan
         style="font-style:italic;font-variant:normal;font-weight:normal;font-stretch:normal;font-size:6.00428px;font-family:'Palatino Linotype';writing-mode:lr-tb;fill:#000000;fill-opacity:1;fill-rule:nonzero;stroke:none"
         x="0"
         y="0"
         id="tspan18">y</tspan></text>
    <text
       id="text19"
       xml:space="preserve"
       transform="matrix(1.3333333,0,0,1.3333333,330.34732,142.51859)"
       clip-path="url(#clipPath20)"><tspan
         style="font-style:italic;font-variant:normal;font-weight:normal;font-stretch:normal;font-size:10.0071px;font-family:'Palatino Linotype';writing-mode:lr-tb;fill:#000000;fill-opacity:1;fill-rule:nonzero;stroke:none"
         x="0"
         y="0"
         id="tspan19">m</tspan></text>
    <text
       id="text20"
       xml:space="preserve"
       transform="matrix(1.3333333,0,0,1.3333333,342.46325,148.0304)"
       clip-path="url(#clipPath21)"><tspan
         style="font-style:italic;font-variant:normal;font-weight:normal;font-stretch:normal;font-size:6.00428px;font-family:'Palatino Linotype';writing-mode:lr-tb;fill:#000000;fill-opacity:1;fill-rule:nonzero;stroke:none"
         x="0 3.00214 6.0042801"
         y="0"
         sodipodi:role="line"
         id="tspan20">yx </tspan></text>
    <text
       id="text21"
       xml:space="preserve"
       transform="matrix(1.3333333,0,0,1.3333333,353.35151,142.51859)"
       clip-path="url(#clipPath22)"><tspan
         style="font-style:italic;font-variant:normal;font-weight:normal;font-stretch:normal;font-size:10.0071px;font-family:'Palatino Linotype';writing-mode:lr-tb;fill:#000000;fill-opacity:1;fill-rule:nonzero;stroke:none"
         x="0 5.0035648 7.5053477"
         y="0"
         sodipodi:role="line"
         id="tspan21">= m</tspan></text>
    <text
       id="text22"
       xml:space="preserve"
       transform="matrix(1.3333333,0,0,1.3333333,375.76063,148.0304)"
       clip-path="url(#clipPath23)"><tspan
         style="font-style:italic;font-variant:normal;font-weight:normal;font-stretch:normal;font-size:6.00428px;font-family:'Palatino Linotype';writing-mode:lr-tb;fill:#000000;fill-opacity:1;fill-rule:nonzero;stroke:none"
         x="0 3.00214"
         y="0"
         sodipodi:role="line"
         id="tspan22">xy</tspan></text>
    <text
       id="text23"
       xml:space="preserve"
       transform="matrix(1.3333333,0,0,1.3333333,455.42808,21.79128)"
       clip-path="url(#clipPath24)"><tspan
         style="font-style:italic;font-variant:normal;font-weight:normal;font-stretch:normal;font-size:10.0071px;font-family:'Palatino Linotype';writing-mode:lr-tb;fill:#000000;fill-opacity:1;fill-rule:nonzero;stroke:none"
         x="0"
         y="0"
         id="tspan23">1</tspan></text>
    <text
       id="text24"
       xml:space="preserve"
       transform="matrix(1.3333333,0,0,1.3333333,292.191,67.19612)"
       clip-path="url(#clipPath25)"><tspan
         style="font-style:italic;font-variant:normal;font-weight:normal;font-stretch:normal;font-size:10.0071px;font-family:'Palatino Linotype';writing-mode:lr-tb;fill:#000000;fill-opacity:1;fill-rule:nonzero;stroke:none"
         x="0"
         y="0"
         id="tspan24">1</tspan></text>
    <text
       id="text25"
       xml:space="preserve"
       transform="matrix(1.3333333,0,0,1.3333333,204.48669,21.56352)"
       clip-path="url(#clipPath26)"><tspan
         style="font-style:italic;font-variant:normal;font-weight:normal;font-stretch:normal;font-size:10.0071px;font-family:'Palatino Linotype';writing-mode:lr-tb;fill:#000000;fill-opacity:1;fill-rule:nonzero;stroke:none"
         x="0"
         y="0"
         id="tspan25">1</tspan></text>
    <text
       id="text26"
       xml:space="preserve"
       transform="matrix(1.3333333,0,0,1.3333333,41.2496,66.968373)"
       clip-path="url(#clipPath27)"><tspan
         style="font-style:italic;font-variant:normal;font-weight:normal;font-stretch:normal;font-size:10.0071px;font-family:'Palatino Linotype';writing-mode:lr-tb;fill:#000000;fill-opacity:1;fill-rule:nonzero;stroke:none"
         x="0"
         y="0"
         id="tspan26">1</tspan></text>
    <text
       id="text27"
       xml:space="preserve"
       transform="matrix(1.3333333,0,0,1.3333333,146.38332,71.422093)"
       clip-path="url(#clipPath28)"><tspan
         style="font-style:italic;font-variant:normal;font-weight:normal;font-stretch:normal;font-size:10.0071px;font-family:'Palatino Linotype';writing-mode:lr-tb;fill:#000000;fill-opacity:1;fill-rule:nonzero;stroke:none"
         x="0"
         y="0"
         id="tspan27">b</tspan></text>
    <path
       id="path29"
       d="m 247.76855,54.85519 19.38935,-2.32064 m -13.47879,1.61323 0.42218,-0.05054 m -6.33274,0.75795 v 0 l 6.01163,0.13695 -0.20212,-1.68872 -5.80951,1.55177"
       style="fill:none;stroke:#000000;stroke-width:0.3685;stroke-linecap:round;stroke-linejoin:round;stroke-miterlimit:10;stroke-dasharray:none;stroke-opacity:1"
       transform="matrix(1.3333333,0,0,-1.3333333,0,151.18133)" />
    <path
       id="path30"
       d="m 253.57806,53.30342 0.20212,1.68872 -6.01163,-0.13695 z"
       style="fill:#000000;fill-opacity:1;fill-rule:nonzero;stroke:none"
       transform="matrix(1.3333333,0,0,-1.3333333,0,151.18133)" />
    <path
       id="path31"
       d="m 253.12326,54.21431 14.03464,-1.67976 m -8.12409,0.97233 0.42221,-0.05052 m -6.33276,0.75795 v 0 l 6.01163,0.13695 -0.20212,-1.68874 -5.80951,1.55179"
       style="fill:none;stroke:#000000;stroke-width:0.3685;stroke-linecap:round;stroke-linejoin:round;stroke-miterlimit:10;stroke-dasharray:none;stroke-opacity:1"
       transform="matrix(1.3333333,0,0,-1.3333333,0,151.18133)" />
    <path
       id="path32"
       d="m 258.93277,52.66252 0.20212,1.68874 -6.01163,-0.13695 z"
       style="fill:#000000;fill-opacity:1;fill-rule:nonzero;stroke:none"
       transform="matrix(1.3333333,0,0,-1.3333333,0,151.18133)" />
    <path
       id="path33"
       d="m 333.57315,44.58551 25.64597,-3.06949 m -5.91056,0.70741 -0.42218,0.05053 m 6.33274,-0.75794 v 0 l -5.80951,1.55177 -0.20212,-1.68872 6.01163,0.13695"
       style="fill:none;stroke:#000000;stroke-width:0.3685;stroke-linecap:round;stroke-linejoin:round;stroke-miterlimit:10;stroke-dasharray:none;stroke-opacity:1"
       transform="matrix(1.3333333,0,0,-1.3333333,0,151.18133)" />
    <path
       id="path34"
       d="m 353.20749,41.37907 6.01163,0.13695 -5.80951,1.55177 z"
       style="fill:#000000;fill-opacity:1;fill-rule:nonzero;stroke:none"
       transform="matrix(1.3333333,0,0,-1.3333333,0,151.18133)" />
    <path
       id="path35"
       d="m 338.92786,43.94461 14.38507,-1.72169 m -5.91059,0.70741 -0.42218,0.05054 m 6.33277,-0.75795 v 0 l -5.80951,1.55178 -0.20212,-1.68873 6.01163,0.13695"
       style="fill:none;stroke:#000000;stroke-width:0.3685;stroke-linecap:round;stroke-linejoin:round;stroke-miterlimit:10;stroke-dasharray:none;stroke-opacity:1"
       transform="matrix(1.3333333,0,0,-1.3333333,0,151.18133)" />
    <path
       id="path36"
       d="m 347.3013,42.08597 6.01163,0.13695 -5.80951,1.55178 z"
       style="fill:#000000;fill-opacity:1;fill-rule:nonzero;stroke:none"
       transform="matrix(1.3333333,0,0,-1.3333333,0,151.18133)" />
    <path
       id="path37"
       d="M 332.8544,79.69865 320.96521,67.65526 m 7.70718,7.80713 -0.29873,-0.30258 m 4.48074,4.53884 v 0 l -3.57684,-4.83369 -1.21036,1.19485 4.7872,3.63884"
       style="fill:none;stroke:#000000;stroke-width:0.3685;stroke-linecap:round;stroke-linejoin:round;stroke-miterlimit:10;stroke-dasharray:none;stroke-opacity:1"
       transform="matrix(1.3333333,0,0,-1.3333333,0,151.18133)" />
    <path
       id="path38"
       d="m 328.0672,76.05981 1.21036,-1.19485 3.57684,4.83369 z"
       style="fill:#000000;fill-opacity:1;fill-rule:nonzero;stroke:none"
       transform="matrix(1.3333333,0,0,-1.3333333,0,151.18133)" />
    <path
       id="path39"
       d="m 329.06567,75.86079 -3.9215,-3.97239 m -0.2605,-0.26389 -0.29874,-0.30258 m 4.48074,4.53886 v 0 l -3.57684,-4.83371 -1.21036,1.19486 4.7872,3.63885"
       style="fill:none;stroke:#000000;stroke-width:0.3685;stroke-linecap:round;stroke-linejoin:round;stroke-miterlimit:10;stroke-dasharray:none;stroke-opacity:1"
       transform="matrix(1.3333333,0,0,-1.3333333,0,151.18133)" />
    <path
       id="path40"
       d="m 324.27847,72.22194 1.21036,-1.19486 3.57684,4.83371 z"
       style="fill:#000000;fill-opacity:1;fill-rule:nonzero;stroke:none"
       transform="matrix(1.3333333,0,0,-1.3333333,0,151.18133)" />
    <path
       id="path41"
       d="M 286.02246,32.25926 267.87662,13.87808 m 4.18203,4.23627 0.29871,0.30258 m -4.48074,-4.53885 v 0 l 4.7872,3.63884 -1.21033,1.19486 -3.57687,-4.8337"
       style="fill:none;stroke:#000000;stroke-width:0.3685;stroke-linecap:round;stroke-linejoin:round;stroke-miterlimit:10;stroke-dasharray:none;stroke-opacity:1"
       transform="matrix(1.3333333,0,0,-1.3333333,0,151.18133)" />
    <path
       id="path42"
       d="m 271.45349,18.71178 -3.57687,-4.8337 4.7872,3.63884 z"
       style="fill:#000000;fill-opacity:1;fill-rule:nonzero;stroke:none"
       transform="matrix(1.3333333,0,0,-1.3333333,0,151.18133)" />
    <path
       id="path43"
       d="M 282.2337,28.42139 272.05557,18.11122 m 4.18201,4.23627 0.29874,0.3026 m -4.48075,-4.53887 v 0 l 4.7872,3.63884 -1.21035,1.19486 -3.57685,-4.8337"
       style="fill:none;stroke:#000000;stroke-width:0.3685;stroke-linecap:round;stroke-linejoin:round;stroke-miterlimit:10;stroke-dasharray:none;stroke-opacity:1"
       transform="matrix(1.3333333,0,0,-1.3333333,0,151.18133)" />
    <path
       id="path44"
       d="m 275.63242,22.94492 -3.57685,-4.8337 4.7872,3.63884 z"
       style="fill:#000000;fill-opacity:1;fill-rule:nonzero;stroke:none"
       transform="matrix(1.3333333,0,0,-1.3333333,0,151.18133)" />
    <path
       id="path45"
       d="m 239.01373,77.46378 39.86185,-4.77094 M 210.44922,44.84769 242.2637,77.0748 m -31.81448,-32.22711 2.24039,2.26944 m -2.24039,-2.26944 v 0 l 1.78842,2.41685 0.60519,-0.59743 -2.39361,-1.81942 m 31.81448,32.22711 -2.24038,-2.26943 m 2.24038,2.26943 v 0 l -2.39361,-1.81941 0.60516,-0.59743 1.78845,2.41684 m -35.06445,-31.83814 39.86188,-4.77093 m 43.09951,-8.70175 -15.49676,1.85475 m 5.91055,-0.70741 0.42218,-0.05054 m -6.33273,0.75795 v 0 l 5.80951,-1.55179 0.20212,1.68874 -6.01163,-0.13695"
       style="fill:none;stroke:#000000;stroke-width:0.3685;stroke-linecap:round;stroke-linejoin:round;stroke-miterlimit:10;stroke-dasharray:none;stroke-opacity:1"
       transform="matrix(1.3333333,0,0,-1.3333333,0,151.18133)" />
    <path
       id="path46"
       d="m 280.67551,33.75568 -6.01163,-0.13695 5.80951,-1.55179 z"
       style="fill:#000000;fill-opacity:1;fill-rule:nonzero;stroke:none"
       transform="matrix(1.3333333,0,0,-1.3333333,0,151.18133)" />
    <path
       id="path47"
       d="m 290.36823,31.73936 -9.86557,1.18712 m 5.91012,-0.71116 0.42215,-0.0508 m -6.33227,0.76196 v 0 l 5.80853,-1.55546 0.20318,1.6886 -6.01171,-0.13314"
       style="fill:none;stroke:#000000;stroke-width:0.3685;stroke-linecap:round;stroke-linejoin:round;stroke-miterlimit:10;stroke-dasharray:none;stroke-opacity:1"
       transform="matrix(1.3333333,0,0,-1.3333333,0,151.18133)" />
    <path
       id="path48"
       d="m 286.51437,33.05962 -6.01171,-0.13314 5.80853,-1.55546 z"
       style="fill:#000000;fill-opacity:1;fill-rule:nonzero;stroke:none"
       transform="matrix(1.3333333,0,0,-1.3333333,0,151.18133)" />
    <path
       id="path49"
       d="m 329.13394,40.11342 10.97708,11.09477 m -4.18673,-4.23161 -0.29905,-0.30226 m 4.48578,4.53387 v 0 l -4.79126,-3.63351 1.20905,-1.1962 3.58221,4.82971"
       style="fill:none;stroke:#000000;stroke-width:0.3685;stroke-linecap:round;stroke-linejoin:round;stroke-miterlimit:10;stroke-dasharray:none;stroke-opacity:1"
       transform="matrix(1.3333333,0,0,-1.3333333,0,151.18133)" />
    <path
       id="path50"
       d="m 336.52881,46.37848 3.58221,4.82971 -4.79126,-3.63351 z"
       style="fill:#000000;fill-opacity:1;fill-rule:nonzero;stroke:none"
       transform="matrix(1.3333333,0,0,-1.3333333,0,151.18133)" />
    <path
       id="path51"
       d="m 328.98709,39.96466 6.99323,7.05925 m -4.1894,-4.22896 -0.29925,-0.30206 m 4.48865,4.53102 v 0 l -4.79355,-3.63046 1.20828,-1.19698 3.58527,4.82744"
       style="fill:none;stroke:#000000;stroke-width:0.3685;stroke-linecap:round;stroke-linejoin:round;stroke-miterlimit:10;stroke-dasharray:none;stroke-opacity:1"
       transform="matrix(1.3333333,0,0,-1.3333333,0,151.18133)" />
    <path
       id="path52"
       d="m 332.39505,42.19647 3.58527,4.82744 -4.79355,-3.63046 z"
       style="fill:#000000;fill-opacity:1;fill-rule:nonzero;stroke:none"
       transform="matrix(1.3333333,0,0,-1.3333333,0,151.18133)" />
    <path
       id="path53"
       d="M 268.61472,106.08415 V 83.90729 m 0,5.95276 v 0.42518 m 0,-6.37794 v 0 l 0.85037,5.95276 h -1.70078 l 0.85041,-5.95276"
       style="fill:none;stroke:#000000;stroke-width:0.3685;stroke-linecap:round;stroke-linejoin:round;stroke-miterlimit:10;stroke-dasharray:none;stroke-opacity:1"
       transform="matrix(1.3333333,0,0,-1.3333333,0,151.18133)" />
    <path
       id="path54"
       d="m 267.76431,89.86005 0.85041,-5.95276 0.85037,5.95276 z"
       style="fill:#000000;fill-opacity:1;fill-rule:nonzero;stroke:none"
       transform="matrix(1.3333333,0,0,-1.3333333,0,151.18133)" />
    <path
       id="path55"
       d="m 268.61472,106.08415 19.20571,-2.29867 m -5.91055,0.70742 -0.42218,0.0505 m 6.33273,-0.75795 v 0 l -5.8095,1.55179 -0.20212,-1.68873 6.01162,0.13694"
       style="fill:none;stroke:#000000;stroke-width:0.3685;stroke-linecap:round;stroke-linejoin:round;stroke-miterlimit:10;stroke-dasharray:none;stroke-opacity:1"
       transform="matrix(1.3333333,0,0,-1.3333333,0,151.18133)" />
    <path
       id="path56"
       d="m 281.80881,103.64854 6.01162,0.13694 -5.8095,1.55179 z"
       style="fill:#000000;fill-opacity:1;fill-rule:nonzero;stroke:none"
       transform="matrix(1.3333333,0,0,-1.3333333,0,151.18133)" />
    <path
       id="path57"
       d="m 268.61472,106.08415 -16.1579,-16.36746 m 4.18203,4.23627 0.29871,0.30259 m -4.48074,-4.53886 v 0 l 4.7872,3.63884 -1.21036,1.19485 -3.57684,-4.83369"
       style="fill:none;stroke:#000000;stroke-width:0.3685;stroke-linecap:round;stroke-linejoin:round;stroke-miterlimit:10;stroke-dasharray:none;stroke-opacity:1"
       transform="matrix(1.3333333,0,0,-1.3333333,0,151.18133)" />
    <path
       id="path58"
       d="m 256.03366,94.55038 -3.57684,-4.83369 4.7872,3.63884 z"
       style="fill:#000000;fill-opacity:1;fill-rule:nonzero;stroke:none"
       transform="matrix(1.3333333,0,0,-1.3333333,0,151.18133)" />
    <path
       id="path59"
       d="m 59.56248,55.026 19.38938,-2.32065 m -13.47879,1.61324 0.42218,-0.05052 M 59.56248,55.026 v 0 l 6.01165,0.13696 -0.20212,-1.68873 -5.80953,1.55177"
       style="fill:none;stroke:#000000;stroke-width:0.3685;stroke-linecap:round;stroke-linejoin:round;stroke-miterlimit:10;stroke-dasharray:none;stroke-opacity:1"
       transform="matrix(1.3333333,0,0,-1.3333333,0,151.18133)" />
    <path
       id="path60"
       d="M 65.37201,53.47423 65.57413,55.16296 59.56248,55.026 Z"
       style="fill:#000000;fill-opacity:1;fill-rule:nonzero;stroke:none"
       transform="matrix(1.3333333,0,0,-1.3333333,0,151.18133)" />
    <path
       id="path61"
       d="m 64.91721,54.38512 14.03465,-1.67977 m -8.12407,0.97235 0.42218,-0.05053 m -6.33276,0.75795 v 0 l 6.01164,0.13694 -0.20212,-1.68872 -5.80952,1.55178"
       style="fill:none;stroke:#000000;stroke-width:0.3685;stroke-linecap:round;stroke-linejoin:round;stroke-miterlimit:10;stroke-dasharray:none;stroke-opacity:1"
       transform="matrix(1.3333333,0,0,-1.3333333,0,151.18133)" />
    <path
       id="path62"
       d="m 70.72673,52.83334 0.20212,1.68872 -6.01164,-0.13694 z"
       style="fill:#000000;fill-opacity:1;fill-rule:nonzero;stroke:none"
       transform="matrix(1.3333333,0,0,-1.3333333,0,151.18133)" />
    <path
       id="path63"
       d="m 145.3671,44.75632 25.64599,-3.06949 m -5.91058,0.70741 -0.42218,0.05054 m 6.33276,-0.75795 v 0 l -5.80951,1.55179 -0.20212,-1.68874 6.01163,0.13695"
       style="fill:none;stroke:#000000;stroke-width:0.3685;stroke-linecap:round;stroke-linejoin:round;stroke-miterlimit:10;stroke-dasharray:none;stroke-opacity:1"
       transform="matrix(1.3333333,0,0,-1.3333333,0,151.18133)" />
    <path
       id="path64"
       d="m 165.00146,41.54988 6.01163,0.13695 -5.80951,1.55179 z"
       style="fill:#000000;fill-opacity:1;fill-rule:nonzero;stroke:none"
       transform="matrix(1.3333333,0,0,-1.3333333,0,151.18133)" />
    <path
       id="path65"
       d="m 150.72183,44.11543 14.38504,-1.72171 m -5.91055,0.70743 -0.42218,0.05052 m 6.33273,-0.75795 v 0 l -5.80951,1.55179 -0.20211,-1.68872 6.01162,0.13693"
       style="fill:none;stroke:#000000;stroke-width:0.3685;stroke-linecap:round;stroke-linejoin:round;stroke-miterlimit:10;stroke-dasharray:none;stroke-opacity:1"
       transform="matrix(1.3333333,0,0,-1.3333333,0,151.18133)" />
    <path
       id="path66"
       d="m 159.09525,42.25679 6.01162,0.13693 -5.80951,1.55179 z"
       style="fill:#000000;fill-opacity:1;fill-rule:nonzero;stroke:none"
       transform="matrix(1.3333333,0,0,-1.3333333,0,151.18133)" />
    <path
       id="path67"
       d="m 144.64838,79.86948 -11.88919,-12.0434 m 7.70715,7.80713 -0.29871,-0.3026 m 4.48075,4.53887 v 0 l -3.57685,-4.8337 -1.21035,1.19486 4.7872,3.63884"
       style="fill:none;stroke:#000000;stroke-width:0.3685;stroke-linecap:round;stroke-linejoin:round;stroke-miterlimit:10;stroke-dasharray:none;stroke-opacity:1"
       transform="matrix(1.3333333,0,0,-1.3333333,0,151.18133)" />
    <path
       id="path68"
       d="m 139.86118,76.23064 1.21035,-1.19486 3.57685,4.8337 z"
       style="fill:#000000;fill-opacity:1;fill-rule:nonzero;stroke:none"
       transform="matrix(1.3333333,0,0,-1.3333333,0,151.18133)" />
    <path
       id="path69"
       d="m 140.85965,76.0316 -3.92154,-3.97238 m -0.2605,-0.26389 -0.2987,-0.30259 m 4.48074,4.53886 v 0 l -3.57684,-4.83369 -1.21036,1.19485 4.7872,3.63884"
       style="fill:none;stroke:#000000;stroke-width:0.3685;stroke-linecap:round;stroke-linejoin:round;stroke-miterlimit:10;stroke-dasharray:none;stroke-opacity:1"
       transform="matrix(1.3333333,0,0,-1.3333333,0,151.18133)" />
    <path
       id="path70"
       d="m 136.07245,72.39276 1.21036,-1.19485 3.57684,4.83369 z"
       style="fill:#000000;fill-opacity:1;fill-rule:nonzero;stroke:none"
       transform="matrix(1.3333333,0,0,-1.3333333,0,151.18133)" />
    <path
       id="path71"
       d="M 97.81641,32.43007 79.67058,14.04889 m 4.18204,4.23627 0.2987,0.30259 m -4.48074,-4.53886 v 0 l 4.78721,3.63884 -1.21035,1.19485 -3.57686,-4.83369"
       style="fill:none;stroke:#000000;stroke-width:0.3685;stroke-linecap:round;stroke-linejoin:round;stroke-miterlimit:10;stroke-dasharray:none;stroke-opacity:1"
       transform="matrix(1.3333333,0,0,-1.3333333,0,151.18133)" />
    <path
       id="path72"
       d="m 83.24744,18.88258 -3.57686,-4.83369 4.78721,3.63884 z"
       style="fill:#000000;fill-opacity:1;fill-rule:nonzero;stroke:none"
       transform="matrix(1.3333333,0,0,-1.3333333,0,151.18133)" />
    <path
       id="path73"
       d="M 96.02411,30.61453 83.85262,18.28516 m 4.18202,4.23626 0.2987,0.3026 m -4.48072,-4.53886 v 0 l 4.7872,3.63884 -1.21036,1.19485 -3.57684,-4.83369"
       style="fill:none;stroke:#000000;stroke-width:0.3685;stroke-linecap:round;stroke-linejoin:round;stroke-miterlimit:10;stroke-dasharray:none;stroke-opacity:1"
       transform="matrix(1.3333333,0,0,-1.3333333,0,151.18133)" />
    <path
       id="path74"
       d="m 87.42946,23.11885 -3.57684,-4.83369 4.7872,3.63884 z"
       style="fill:#000000;fill-opacity:1;fill-rule:nonzero;stroke:none"
       transform="matrix(1.3333333,0,0,-1.3333333,0,151.18133)" />
    <path
       id="path75"
       d="m 93.48232,32.9516 -9.86558,1.18712 m 5.91013,-0.71117 0.42215,-0.0508 m -6.33228,0.76197 v 0 l 5.80854,-1.55547 0.20318,1.6886 -6.01172,-0.13313"
       style="fill:none;stroke:#000000;stroke-width:0.3685;stroke-linecap:round;stroke-linejoin:round;stroke-miterlimit:10;stroke-dasharray:none;stroke-opacity:1"
       transform="matrix(1.3333333,0,0,-1.3333333,0,151.18133)" />
    <path
       id="path76"
       d="m 89.62846,34.27185 -6.01172,-0.13313 5.80854,-1.55547 z"
       style="fill:#000000;fill-opacity:1;fill-rule:nonzero;stroke:none"
       transform="matrix(1.3333333,0,0,-1.3333333,0,151.18133)" />
    <path
       id="path77"
       d="m 97.81866,32.43236 -20.04072,2.3986 m 5.91058,-0.70741 0.42218,-0.05052 m -6.33276,0.75793 v 0 l 5.80952,-1.55177 0.20212,1.68872 -6.01164,-0.13695"
       style="fill:none;stroke:#000000;stroke-width:0.3685;stroke-linecap:round;stroke-linejoin:round;stroke-miterlimit:10;stroke-dasharray:none;stroke-opacity:1"
       transform="matrix(1.3333333,0,0,-1.3333333,0,151.18133)" />
    <path
       id="path78"
       d="m 83.78958,34.96791 -6.01164,-0.13695 5.80952,-1.55177 z"
       style="fill:#000000;fill-opacity:1;fill-rule:nonzero;stroke:none"
       transform="matrix(1.3333333,0,0,-1.3333333,0,151.18133)" />
    <path
       id="path79"
       d="m 142.29831,41.65167 -6.98541,-7.06703 m 4.18472,4.23361 0.29892,0.3024 m -4.48364,-4.53601 v 0 l 4.78952,3.6358 -1.2096,1.19562 -3.57992,-4.83142"
       style="fill:none;stroke:#000000;stroke-width:0.3685;stroke-linecap:round;stroke-linejoin:round;stroke-miterlimit:10;stroke-dasharray:none;stroke-opacity:1"
       transform="matrix(1.3333333,0,0,-1.3333333,0,151.18133)" />
    <path
       id="path80"
       d="m 138.89282,39.41606 -3.57992,-4.83142 4.78952,3.6358 z"
       style="fill:#000000;fill-opacity:1;fill-rule:nonzero;stroke:none"
       transform="matrix(1.3333333,0,0,-1.3333333,0,151.18133)" />
    <path
       id="path81"
       d="M 145.36667,44.75951 131.18686,30.39578 m 4.18204,4.23627 0.2987,0.30258 m -4.48074,-4.53885 v 0 l 4.78723,3.63883 -1.21036,1.19487 -3.57687,-4.8337"
       style="fill:none;stroke:#000000;stroke-width:0.3685;stroke-linecap:round;stroke-linejoin:round;stroke-miterlimit:10;stroke-dasharray:none;stroke-opacity:1"
       transform="matrix(1.3333333,0,0,-1.3333333,0,151.18133)" />
    <path
       id="path82"
       d="m 134.76373,35.22948 -3.57687,-4.8337 4.78723,3.63883 z"
       style="fill:#000000;fill-opacity:1;fill-rule:nonzero;stroke:none"
       transform="matrix(1.3333333,0,0,-1.3333333,0,151.18133)" />
    <path
       id="path83"
       d="m 124.72815,59.18552 -7.07483,0.84677 m 7.07483,-0.84677 -3.16637,0.37898 m 3.16637,-0.37898 v 0 l -3.00581,-0.06847 0.10105,0.84436 2.90476,-0.77589 m -7.07483,0.84677 3.16638,-0.37897 m -3.16638,0.37897 v 0 l 2.90475,-0.7759 0.10106,0.84436 -3.00581,-0.06846 M 50.80766,77.6346 90.66954,72.86365 M 18.99321,45.40749 58.85509,40.63654"
       style="fill:none;stroke:#000000;stroke-width:0.3685;stroke-linecap:round;stroke-linejoin:round;stroke-miterlimit:10;stroke-dasharray:none;stroke-opacity:1"
       transform="matrix(1.3333333,0,0,-1.3333333,0,151.18133)" />
  </g>
</svg>
