<?xml version="1.0" encoding="UTF-8" standalone="no"?>
<!-- Created with Inkscape (http://www.inkscape.org/) -->

<svg
   version="1.1"
   id="svg1"
   width="566.92932"
   height="151.18134"
   viewBox="0 0 566.92932 151.18134"
   sodipodi:docname="allg_platte_zu_Rost.pdf"
   xmlns:inkscape="http://www.inkscape.org/namespaces/inkscape"
   xmlns:sodipodi="http://sodipodi.sourceforge.net/DTD/sodipodi-0.dtd"
   xmlns="http://www.w3.org/2000/svg"
   xmlns:svg="http://www.w3.org/2000/svg">
  <defs
     id="defs1">
    <clipPath
       clipPathUnits="userSpaceOnUse"
       id="clipPath3">
      <path
         d="M -0.00426,-0.00113 V 113.38696 H 425.20111 V -0.00113 H -0.00426"
         transform="matrix(1,0,0,-1,-362.58301,38.264853)"
         clip-rule="evenodd"
         id="path3" />
    </clipPath>
    <clipPath
       clipPathUnits="userSpaceOnUse"
       id="clipPath4">
      <path
         d="M -0.00426,-0.00113 V 113.38696 H 425.20111 V -0.00113 H -0.00426"
         transform="matrix(1,0,0,-1,-371.66996,34.130988)"
         clip-rule="evenodd"
         id="path4" />
    </clipPath>
    <clipPath
       clipPathUnits="userSpaceOnUse"
       id="clipPath5">
      <path
         d="M -0.00426,-0.00113 V 113.38696 H 425.20111 V -0.00113 H -0.00426"
         transform="matrix(1,0,0,-1,-271.22674,81.238902)"
         clip-rule="evenodd"
         id="path5" />
    </clipPath>
    <clipPath
       clipPathUnits="userSpaceOnUse"
       id="clipPath6">
      <path
         d="M -0.00426,-0.00113 V 113.38696 H 425.20111 V -0.00113 H -0.00426"
         transform="matrix(1,0,0,-1,-288.40732,107.02319)"
         clip-rule="evenodd"
         id="path6" />
    </clipPath>
    <clipPath
       clipPathUnits="userSpaceOnUse"
       id="clipPath7">
      <path
         d="M -0.00426,-0.00113 V 113.38696 H 425.20111 V -0.00113 H -0.00426"
         transform="matrix(1,0,0,-1,-248.05066,95.603482)"
         clip-rule="evenodd"
         id="path7" />
    </clipPath>
    <clipPath
       clipPathUnits="userSpaceOnUse"
       id="clipPath8">
      <path
         d="M -0.00426,-0.00113 V 113.38696 H 425.20111 V -0.00113 H -0.00426"
         transform="matrix(1,0,0,-1,-280.96477,42.121031)"
         clip-rule="evenodd"
         id="path8" />
    </clipPath>
    <clipPath
       clipPathUnits="userSpaceOnUse"
       id="clipPath9">
      <path
         d="M -0.00426,-0.00113 V 113.38696 H 425.20111 V -0.00113 H -0.00426"
         transform="matrix(1,0,0,-1,-290.05171,37.987173)"
         clip-rule="evenodd"
         id="path9" />
    </clipPath>
    <clipPath
       clipPathUnits="userSpaceOnUse"
       id="clipPath10">
      <path
         d="M -0.00426,-0.00113 V 113.38696 H 425.20111 V -0.00113 H -0.00426"
         transform="matrix(1,0,0,-1,-316.94208,51.586641)"
         clip-rule="evenodd"
         id="path10" />
    </clipPath>
    <clipPath
       clipPathUnits="userSpaceOnUse"
       id="clipPath11">
      <path
         d="M -0.00426,-0.00113 V 113.38696 H 425.20111 V -0.00113 H -0.00426"
         transform="matrix(1,0,0,-1,-326.02903,47.452791)"
         clip-rule="evenodd"
         id="path11" />
    </clipPath>
    <clipPath
       clipPathUnits="userSpaceOnUse"
       id="clipPath12">
      <path
         d="M -0.00426,-0.00113 V 113.38696 H 425.20111 V -0.00113 H -0.00426"
         transform="matrix(1,0,0,-1,-247.76047,6.4970427)"
         clip-rule="evenodd"
         id="path12" />
    </clipPath>
    <clipPath
       clipPathUnits="userSpaceOnUse"
       id="clipPath13">
      <path
         d="M -0.00426,-0.00113 V 113.38696 H 425.20111 V -0.00113 H -0.00426"
         transform="matrix(1,0,0,-1,-256.84743,2.3631776)"
         clip-rule="evenodd"
         id="path13" />
    </clipPath>
    <clipPath
       clipPathUnits="userSpaceOnUse"
       id="clipPath14">
      <path
         d="M -0.00426,-0.00113 V 113.38696 H 425.20111 V -0.00113 H -0.00426"
         transform="matrix(1,0,0,-1,-265.01362,6.4970427)"
         clip-rule="evenodd"
         id="path14" />
    </clipPath>
    <clipPath
       clipPathUnits="userSpaceOnUse"
       id="clipPath15">
      <path
         d="M -0.00426,-0.00113 V 113.38696 H 425.20111 V -0.00113 H -0.00426"
         transform="matrix(1,0,0,-1,-281.82046,2.3631776)"
         clip-rule="evenodd"
         id="path15" />
    </clipPath>
    <clipPath
       clipPathUnits="userSpaceOnUse"
       id="clipPath16">
      <path
         d="M -0.00426,-0.00113 V 113.38696 H 425.20111 V -0.00113 H -0.00426"
         transform="matrix(1,0,0,-1,-119.07126,21.042543)"
         clip-rule="evenodd"
         id="path16" />
    </clipPath>
    <clipPath
       clipPathUnits="userSpaceOnUse"
       id="clipPath17">
      <path
         d="M -0.00426,-0.00113 V 113.38696 H 425.20111 V -0.00113 H -0.00426"
         transform="matrix(1,0,0,-1,-128.80656,16.908678)"
         clip-rule="evenodd"
         id="path17" />
    </clipPath>
    <clipPath
       clipPathUnits="userSpaceOnUse"
       id="clipPath18">
      <path
         d="M -0.00426,-0.00113 V 113.38696 H 425.20111 V -0.00113 H -0.00426"
         transform="matrix(1,0,0,-1,-174.37695,38.435661)"
         clip-rule="evenodd"
         id="path18" />
    </clipPath>
    <clipPath
       clipPathUnits="userSpaceOnUse"
       id="clipPath19">
      <path
         d="M -0.00426,-0.00113 V 113.38696 H 425.20111 V -0.00113 H -0.00426"
         transform="matrix(1,0,0,-1,-180.68454,34.301801)"
         clip-rule="evenodd"
         id="path19" />
    </clipPath>
    <clipPath
       clipPathUnits="userSpaceOnUse"
       id="clipPath20">
      <path
         d="M -0.00426,-0.00113 V 113.38696 H 425.20111 V -0.00113 H -0.00426"
         transform="matrix(1,0,0,-1,-65.109932,6.6319677)"
         clip-rule="evenodd"
         id="path20" />
    </clipPath>
    <clipPath
       clipPathUnits="userSpaceOnUse"
       id="clipPath21">
      <path
         d="M -0.00426,-0.00113 V 113.38696 H 425.20111 V -0.00113 H -0.00426"
         transform="matrix(1,0,0,-1,-71.417522,2.4981101)"
         clip-rule="evenodd"
         id="path21" />
    </clipPath>
    <clipPath
       clipPathUnits="userSpaceOnUse"
       id="clipPath22">
      <path
         d="M -0.00426,-0.00113 V 113.38696 H 425.20111 V -0.00113 H -0.00426"
         transform="matrix(1,0,0,-1,-62.375282,27.172338)"
         clip-rule="evenodd"
         id="path22" />
    </clipPath>
    <clipPath
       clipPathUnits="userSpaceOnUse"
       id="clipPath23">
      <path
         d="M -0.00426,-0.00113 V 113.38696 H 425.20111 V -0.00113 H -0.00426"
         transform="matrix(1,0,0,-1,-72.110592,23.038488)"
         clip-rule="evenodd"
         id="path23" />
    </clipPath>
    <clipPath
       clipPathUnits="userSpaceOnUse"
       id="clipPath24">
      <path
         d="M -0.00426,-0.00113 V 113.38696 H 425.20111 V -0.00113 H -0.00426"
         transform="matrix(1,0,0,-1,-341.57105,97.042522)"
         clip-rule="evenodd"
         id="path24" />
    </clipPath>
    <clipPath
       clipPathUnits="userSpaceOnUse"
       id="clipPath25">
      <path
         d="M -0.00426,-0.00113 V 113.38696 H 425.20111 V -0.00113 H -0.00426"
         transform="matrix(1,0,0,-1,-219.14323,62.988891)"
         clip-rule="evenodd"
         id="path25" />
    </clipPath>
    <clipPath
       clipPathUnits="userSpaceOnUse"
       id="clipPath26">
      <path
         d="M -0.00426,-0.00113 V 113.38696 H 425.20111 V -0.00113 H -0.00426"
         transform="matrix(1,0,0,-1,-153.36501,97.213342)"
         clip-rule="evenodd"
         id="path26" />
    </clipPath>
    <clipPath
       clipPathUnits="userSpaceOnUse"
       id="clipPath27">
      <path
         d="M -0.00426,-0.00113 V 113.38696 H 425.20111 V -0.00113 H -0.00426"
         transform="matrix(1,0,0,-1,-30.937191,63.159702)"
         clip-rule="evenodd"
         id="path27" />
    </clipPath>
    <clipPath
       clipPathUnits="userSpaceOnUse"
       id="clipPath28">
      <path
         d="M -0.00426,-0.00113 V 113.38696 H 425.20111 V -0.00113 H -0.00426"
         transform="matrix(1,0,0,-1,-109.78747,59.819411)"
         clip-rule="evenodd"
         id="path28" />
    </clipPath>
  </defs>
  <sodipodi:namedview
     id="namedview1"
     pagecolor="#ffffff"
     bordercolor="#000000"
     borderopacity="0.25"
     inkscape:showpageshadow="2"
     inkscape:pageopacity="0.0"
     inkscape:pagecheckerboard="0"
     inkscape:deskcolor="#d1d1d1">
    <inkscape:page
       x="0"
       y="0"
       inkscape:label="1"
       id="page1"
       width="566.92932"
       height="151.18134"
       margin="0"
       bleed="0" />
  </sodipodi:namedview>
  <g
     id="g1"
     inkscape:groupmode="layer"
     inkscape:label="1">
    <path
       id="path1"
       d="m 254.37897,39.58986 v -7.08663 m 63.28692,-0.48799 v -7.08662 m 31.81446,39.31372 v -7.08661 m -31.81446,-32.22711 31.81446,32.22711 m -31.81446,-32.22711 -63.28692,7.57461 m 63.28692,-0.48799 -63.28692,7.57462 m 63.28692,-7.57462 31.81446,32.2271 m -95.10138,-24.65248 31.81445,32.2271 m 63.28693,-7.57462 -63.28693,7.57462 m -27.5704,-36.27837 2.81454,-0.33687 m 4.78476,-0.57266 2.81455,-0.33687 m 4.78475,-0.57268 2.81455,-0.33687 m 4.78476,-0.57266 2.81454,-0.33687 m 4.78476,-0.57267 2.81455,-0.33687 m 4.78476,-0.57266 2.81457,-0.33687 m 4.78473,-0.57268 2.81458,-0.33687 m 4.78473,-0.57266 2.81457,-0.33687 m -58.54282,7.00681 0.28147,-0.0337 m 7.31784,-0.87583 0.28146,-0.0337 m 7.31784,-0.87585 0.28147,-0.03368 m 7.31784,-0.87585 0.28146,-0.03369 m 7.31784,-0.87586 0.28147,-0.03367 m 7.31784,-0.87586 0.28146,-0.03369 m 7.31784,-0.87585 0.28146,-0.03368 m 7.31787,-0.87585 0.28144,-0.0337 m 7.31787,-0.87583 0.28143,-0.0337 m -62.78683,7.51476 v 0 m 63.28692,-7.57462 v 0 m 1.03952,1.05301 1.99146,2.01728 m 3.38544,3.42936 1.99145,2.01726 m 3.38544,3.42937 1.99142,2.01727 m 3.38547,3.42935 1.99142,2.01728 m 3.38547,3.42936 1.99143,2.01728 m 3.38546,3.42935 1.99143,2.01727 m -25.29129,-25.61934 0.19916,0.20174 m 5.17773,5.2449 0.19916,0.20172 m 5.17773,5.24491 0.19913,0.20172 m 5.17776,5.2449 0.19913,0.20174 m 5.17777,5.2449 0.19912,0.20172 m 5.17777,5.24491 0.19913,0.20172 M 317.66589,28.47192 v 0 m 31.81446,32.22712 v 0 m 3.66806,7.21136 25.44073,25.75069 m -88.72766,-18.17607 25.44074,25.75068 m -2.76355,-2.81939 63.28692,-7.57462 m -63.28692,7.57462 3.16638,-0.37897 m -3.16638,0.37897 v 0 l 3.00582,0.06848 -0.10107,-0.84438 -2.90475,0.7759"
       style="fill:none;stroke:#000000;stroke-width:0.3685;stroke-linecap:round;stroke-linejoin:round;stroke-miterlimit:10;stroke-dasharray:none;stroke-opacity:1"
       transform="matrix(1.3333333,0,0,-1.3333333,0,151.18133)" />
    <path
       id="path2"
       d="m 375.82559,90.84169 -3.16638,0.37897 m 3.16638,-0.37897 v 0 l -2.90475,0.77589 -0.10105,-0.84436 3.0058,0.06847 M 210.44922,44.84767 242.26367,77.07478 M 143.48956,46.39772 v -7.08661 m 3.75504,10.89038 v -7.08662 m -45.85373,-7.56934 v -7.08661 m -7.14897,7.94226 v -7.08662 m 7.14897,6.23097 -7.14897,0.85565 m 0,-7.08662 7.14897,-0.85564 m 42.09869,10.85219 3.75504,3.80376 m -3.75504,3.28285 3.75504,3.80377 m -67.04198,3.77085 v -7.08661 m 0,7.08661 3.75505,3.80377 m 59.53189,-18.465 -28.06898,3.35948 m -14.02971,-7.12506 14.02971,14.21169 m -7.14899,0.85563 -28.06897,3.35949 m 21.81235,-9.69727 -21.81235,2.61066 m 53.0027,20.88691 v -7.0866 m 0,7.0866 -7.14897,0.85566 M 94.2419,36.40118 108.27159,50.61285 m 35.21797,-4.21513 -28.06898,3.3595 m -14.02971,-21.2983 14.02971,14.21167 m 3.75505,10.89038 14.02969,14.21167 M 112.02666,54.41661 126.05635,68.6283 m 21.18825,-18.42681 -28.06897,3.35948 m -7.19197,0.81209 -28.02599,3.35434 m 41.4746,-4.91527 7.77305,7.87391 m -8.47719,-1.50054 -7.07482,0.84677 m 47.28904,8.04894 25.44074,25.7507 m -88.72766,-18.17609 25.44073,25.7507 m -2.76353,-2.81939 63.28694,-7.57462 m -63.28694,7.57462 3.16638,-0.37898 m -3.16638,0.37898 v 0 l 3.00581,0.06846 -0.10106,-0.84436 -2.90475,0.7759 m 63.28694,-7.57462 -3.16638,0.37897 m 3.16638,-0.37897 v 0 l -2.90476,0.77588 -0.10107,-0.84436 3.00583,0.06848 M 22.24316,45.01848 54.05762,77.24559"
       style="fill:none;stroke:#000000;stroke-width:0.3685;stroke-linecap:round;stroke-linejoin:round;stroke-miterlimit:10;stroke-dasharray:none;stroke-opacity:1"
       transform="matrix(1.3333333,0,0,-1.3333333,0,151.18133)" />
    <text
       id="text2"
       xml:space="preserve"
       transform="matrix(1.3333333,0,0,1.3333333,483.444,100.16153)"
       clip-path="url(#clipPath3)"><tspan
         style="font-style:italic;font-variant:normal;font-weight:normal;font-stretch:normal;font-size:10.0071px;font-family:'Palatino Linotype';writing-mode:lr-tb;fill:#000000;fill-opacity:1;fill-rule:nonzero;stroke:none"
         x="0"
         y="0"
         id="tspan2">m</tspan></text>
    <text
       id="text3"
       xml:space="preserve"
       transform="matrix(1.3333333,0,0,1.3333333,495.55993,105.67335)"
       clip-path="url(#clipPath4)"><tspan
         style="font-style:italic;font-variant:normal;font-weight:normal;font-stretch:normal;font-size:6.00428px;font-family:'Palatino Linotype';writing-mode:lr-tb;fill:#000000;fill-opacity:1;fill-rule:nonzero;stroke:none"
         x="0 3.00214"
         y="0"
         sodipodi:role="line"
         id="tspan3">xy</tspan></text>
    <text
       id="text4"
       xml:space="preserve"
       transform="matrix(1.3333333,0,0,1.3333333,361.63564,42.8628)"
       clip-path="url(#clipPath5)"><tspan
         style="font-style:italic;font-variant:normal;font-weight:normal;font-stretch:normal;font-size:10.0071px;font-family:'Palatino Linotype';writing-mode:lr-tb;fill:#000000;fill-opacity:1;fill-rule:nonzero;stroke:none"
         x="0"
         y="0"
         id="tspan4">z</tspan></text>
    <text
       id="text5"
       xml:space="preserve"
       transform="matrix(1.3333333,0,0,1.3333333,384.54308,8.4837467)"
       clip-path="url(#clipPath6)"><tspan
         style="font-style:italic;font-variant:normal;font-weight:normal;font-stretch:normal;font-size:10.0071px;font-family:'Palatino Linotype';writing-mode:lr-tb;fill:#000000;fill-opacity:1;fill-rule:nonzero;stroke:none"
         x="0"
         y="0"
         id="tspan5">x</tspan></text>
    <text
       id="text6"
       xml:space="preserve"
       transform="matrix(1.3333333,0,0,1.3333333,330.73421,23.710027)"
       clip-path="url(#clipPath7)"><tspan
         style="font-style:italic;font-variant:normal;font-weight:normal;font-stretch:normal;font-size:10.0071px;font-family:'Palatino Linotype';writing-mode:lr-tb;fill:#000000;fill-opacity:1;fill-rule:nonzero;stroke:none"
         x="0"
         y="0"
         id="tspan6">y</tspan></text>
    <text
       id="text7"
       xml:space="preserve"
       transform="matrix(1.3333333,0,0,1.3333333,374.61969,95.01996)"
       clip-path="url(#clipPath8)"><tspan
         style="font-style:italic;font-variant:normal;font-weight:normal;font-stretch:normal;font-size:10.0071px;font-family:'Palatino Linotype';writing-mode:lr-tb;fill:#000000;fill-opacity:1;fill-rule:nonzero;stroke:none"
         x="0"
         y="0"
         id="tspan7">m</tspan></text>
    <text
       id="text8"
       xml:space="preserve"
       transform="matrix(1.3333333,0,0,1.3333333,386.73561,100.53177)"
       clip-path="url(#clipPath9)"><tspan
         style="font-style:italic;font-variant:normal;font-weight:normal;font-stretch:normal;font-size:6.00428px;font-family:'Palatino Linotype';writing-mode:lr-tb;fill:#000000;fill-opacity:1;fill-rule:nonzero;stroke:none"
         x="0 3.00214"
         y="0"
         sodipodi:role="line"
         id="tspan8">yy</tspan></text>
    <text
       id="text9"
       xml:space="preserve"
       transform="matrix(1.3333333,0,0,1.3333333,422.58943,82.399147)"
       clip-path="url(#clipPath10)"><tspan
         style="font-style:italic;font-variant:normal;font-weight:normal;font-stretch:normal;font-size:10.0071px;font-family:'Palatino Linotype';writing-mode:lr-tb;fill:#000000;fill-opacity:1;fill-rule:nonzero;stroke:none"
         x="0"
         y="0"
         id="tspan9">m</tspan></text>
    <text
       id="text10"
       xml:space="preserve"
       transform="matrix(1.3333333,0,0,1.3333333,434.70536,87.910947)"
       clip-path="url(#clipPath11)"><tspan
         style="font-style:italic;font-variant:normal;font-weight:normal;font-stretch:normal;font-size:6.00428px;font-family:'Palatino Linotype';writing-mode:lr-tb;fill:#000000;fill-opacity:1;fill-rule:nonzero;stroke:none"
         x="0 3.00214"
         y="0"
         sodipodi:role="line"
         id="tspan10">xx</tspan></text>
    <text
       id="text11"
       xml:space="preserve"
       transform="matrix(1.3333333,0,0,1.3333333,330.34729,142.51861)"
       clip-path="url(#clipPath12)"><tspan
         style="font-style:italic;font-variant:normal;font-weight:normal;font-stretch:normal;font-size:10.0071px;font-family:'Palatino Linotype';writing-mode:lr-tb;fill:#000000;fill-opacity:1;fill-rule:nonzero;stroke:none"
         x="0"
         y="0"
         id="tspan11">m</tspan></text>
    <text
       id="text12"
       xml:space="preserve"
       transform="matrix(1.3333333,0,0,1.3333333,342.46323,148.03043)"
       clip-path="url(#clipPath13)"><tspan
         style="font-style:italic;font-variant:normal;font-weight:normal;font-stretch:normal;font-size:6.00428px;font-family:'Palatino Linotype';writing-mode:lr-tb;fill:#000000;fill-opacity:1;fill-rule:nonzero;stroke:none"
         x="0 3.00214 6.0042801"
         y="0"
         sodipodi:role="line"
         id="tspan12">yx </tspan></text>
    <text
       id="text13"
       xml:space="preserve"
       transform="matrix(1.3333333,0,0,1.3333333,353.35148,142.51861)"
       clip-path="url(#clipPath14)"><tspan
         style="font-style:italic;font-variant:normal;font-weight:normal;font-stretch:normal;font-size:10.0071px;font-family:'Palatino Linotype';writing-mode:lr-tb;fill:#000000;fill-opacity:1;fill-rule:nonzero;stroke:none"
         x="0 5.0035648 7.5053477"
         y="0"
         sodipodi:role="line"
         id="tspan13">= m</tspan></text>
    <text
       id="text14"
       xml:space="preserve"
       transform="matrix(1.3333333,0,0,1.3333333,375.7606,148.03043)"
       clip-path="url(#clipPath15)"><tspan
         style="font-style:italic;font-variant:normal;font-weight:normal;font-stretch:normal;font-size:6.00428px;font-family:'Palatino Linotype';writing-mode:lr-tb;fill:#000000;fill-opacity:1;fill-rule:nonzero;stroke:none"
         x="0 3.00214"
         y="0"
         sodipodi:role="line"
         id="tspan14">xy</tspan></text>
    <text
       id="text15"
       xml:space="preserve"
       transform="matrix(1.3333333,0,0,1.3333333,158.76167,123.12461)"
       clip-path="url(#clipPath16)"><tspan
         style="font-style:italic;font-variant:normal;font-weight:normal;font-stretch:normal;font-size:10.0071px;font-family:'Palatino Linotype';writing-mode:lr-tb;fill:#000000;fill-opacity:1;fill-rule:nonzero;stroke:none"
         x="0"
         y="0"
         id="tspan15">M</tspan></text>
    <text
       id="text16"
       xml:space="preserve"
       transform="matrix(1.3333333,0,0,1.3333333,171.74207,128.63643)"
       clip-path="url(#clipPath17)"><tspan
         style="font-style:italic;font-variant:normal;font-weight:normal;font-stretch:normal;font-size:6.00428px;font-family:'Palatino Linotype';writing-mode:lr-tb;fill:#000000;fill-opacity:1;fill-rule:nonzero;stroke:none"
         x="0"
         y="0"
         id="tspan16">x</tspan></text>
    <text
       id="text17"
       xml:space="preserve"
       transform="matrix(1.3333333,0,0,1.3333333,232.5026,99.933787)"
       clip-path="url(#clipPath18)"><tspan
         style="font-style:italic;font-variant:normal;font-weight:normal;font-stretch:normal;font-size:10.0071px;font-family:'Palatino Linotype';writing-mode:lr-tb;fill:#000000;fill-opacity:1;fill-rule:nonzero;stroke:none"
         x="0"
         y="0"
         id="tspan17">T</tspan></text>
    <text
       id="text18"
       xml:space="preserve"
       transform="matrix(1.3333333,0,0,1.3333333,240.91272,105.4456)"
       clip-path="url(#clipPath19)"><tspan
         style="font-style:italic;font-variant:normal;font-weight:normal;font-stretch:normal;font-size:6.00428px;font-family:'Palatino Linotype';writing-mode:lr-tb;fill:#000000;fill-opacity:1;fill-rule:nonzero;stroke:none"
         x="0"
         y="0"
         id="tspan18">x</tspan></text>
    <text
       id="text19"
       xml:space="preserve"
       transform="matrix(1.3333333,0,0,1.3333333,86.81324,142.33871)"
       clip-path="url(#clipPath20)"><tspan
         style="font-style:italic;font-variant:normal;font-weight:normal;font-stretch:normal;font-size:10.0071px;font-family:'Palatino Linotype';writing-mode:lr-tb;fill:#000000;fill-opacity:1;fill-rule:nonzero;stroke:none"
         x="0"
         y="0"
         id="tspan19">T</tspan></text>
    <text
       id="text20"
       xml:space="preserve"
       transform="matrix(1.3333333,0,0,1.3333333,95.22336,147.85052)"
       clip-path="url(#clipPath21)"><tspan
         style="font-style:italic;font-variant:normal;font-weight:normal;font-stretch:normal;font-size:6.00428px;font-family:'Palatino Linotype';writing-mode:lr-tb;fill:#000000;fill-opacity:1;fill-rule:nonzero;stroke:none"
         x="0"
         y="0"
         id="tspan20">y</tspan></text>
    <text
       id="text21"
       xml:space="preserve"
       transform="matrix(1.3333333,0,0,1.3333333,83.16704,114.95155)"
       clip-path="url(#clipPath22)"><tspan
         style="font-style:italic;font-variant:normal;font-weight:normal;font-stretch:normal;font-size:10.0071px;font-family:'Palatino Linotype';writing-mode:lr-tb;fill:#000000;fill-opacity:1;fill-rule:nonzero;stroke:none"
         x="0"
         y="0"
         id="tspan21">M</tspan></text>
    <text
       id="text22"
       xml:space="preserve"
       transform="matrix(1.3333333,0,0,1.3333333,96.147453,120.46335)"
       clip-path="url(#clipPath23)"><tspan
         style="font-style:italic;font-variant:normal;font-weight:normal;font-stretch:normal;font-size:6.00428px;font-family:'Palatino Linotype';writing-mode:lr-tb;fill:#000000;fill-opacity:1;fill-rule:nonzero;stroke:none"
         x="0"
         y="0"
         id="tspan22">y</tspan></text>
    <text
       id="text23"
       xml:space="preserve"
       transform="matrix(1.3333333,0,0,1.3333333,455.42805,21.791307)"
       clip-path="url(#clipPath24)"><tspan
         style="font-style:italic;font-variant:normal;font-weight:normal;font-stretch:normal;font-size:10.0071px;font-family:'Palatino Linotype';writing-mode:lr-tb;fill:#000000;fill-opacity:1;fill-rule:nonzero;stroke:none"
         x="0"
         y="0"
         id="tspan23">1</tspan></text>
    <text
       id="text24"
       xml:space="preserve"
       transform="matrix(1.3333333,0,0,1.3333333,292.19097,67.196147)"
       clip-path="url(#clipPath25)"><tspan
         style="font-style:italic;font-variant:normal;font-weight:normal;font-stretch:normal;font-size:10.0071px;font-family:'Palatino Linotype';writing-mode:lr-tb;fill:#000000;fill-opacity:1;fill-rule:nonzero;stroke:none"
         x="0"
         y="0"
         id="tspan24">1</tspan></text>
    <text
       id="text25"
       xml:space="preserve"
       transform="matrix(1.3333333,0,0,1.3333333,204.48667,21.563547)"
       clip-path="url(#clipPath26)"><tspan
         style="font-style:italic;font-variant:normal;font-weight:normal;font-stretch:normal;font-size:10.0071px;font-family:'Palatino Linotype';writing-mode:lr-tb;fill:#000000;fill-opacity:1;fill-rule:nonzero;stroke:none"
         x="0"
         y="0"
         id="tspan25">1</tspan></text>
    <text
       id="text26"
       xml:space="preserve"
       transform="matrix(1.3333333,0,0,1.3333333,41.249587,66.9684)"
       clip-path="url(#clipPath27)"><tspan
         style="font-style:italic;font-variant:normal;font-weight:normal;font-stretch:normal;font-size:10.0071px;font-family:'Palatino Linotype';writing-mode:lr-tb;fill:#000000;fill-opacity:1;fill-rule:nonzero;stroke:none"
         x="0"
         y="0"
         id="tspan26">1</tspan></text>
    <text
       id="text27"
       xml:space="preserve"
       transform="matrix(1.3333333,0,0,1.3333333,146.38329,71.42212)"
       clip-path="url(#clipPath28)"><tspan
         style="font-style:italic;font-variant:normal;font-weight:normal;font-stretch:normal;font-size:10.0071px;font-family:'Palatino Linotype';writing-mode:lr-tb;fill:#000000;fill-opacity:1;fill-rule:nonzero;stroke:none"
         x="0"
         y="0"
         id="tspan27">b</tspan></text>
    <path
       id="path29"
       d="m 247.76852,54.85516 19.38935,-2.32064 m -13.47876,1.61323 0.42218,-0.05052 m -6.33277,0.75793 v 0 l 6.01163,0.13697 -0.20212,-1.68874 -5.80951,1.55177"
       style="fill:none;stroke:#000000;stroke-width:0.3685;stroke-linecap:round;stroke-linejoin:round;stroke-miterlimit:10;stroke-dasharray:none;stroke-opacity:1"
       transform="matrix(1.3333333,0,0,-1.3333333,0,151.18133)" />
    <path
       id="path30"
       d="m 253.57803,53.30339 0.20212,1.68874 -6.01163,-0.13697 z"
       style="fill:#000000;fill-opacity:1;fill-rule:nonzero;stroke:none"
       transform="matrix(1.3333333,0,0,-1.3333333,0,151.18133)" />
    <path
       id="path31"
       d="m 253.12323,54.21428 14.03464,-1.67976 m -8.12406,0.97235 0.42218,-0.05054 m -6.33276,0.75795 v 0 l 6.01163,0.13695 -0.20212,-1.68872 -5.80951,1.55177"
       style="fill:none;stroke:#000000;stroke-width:0.3685;stroke-linecap:round;stroke-linejoin:round;stroke-miterlimit:10;stroke-dasharray:none;stroke-opacity:1"
       transform="matrix(1.3333333,0,0,-1.3333333,0,151.18133)" />
    <path
       id="path32"
       d="m 258.93274,52.66251 0.20212,1.68872 -6.01163,-0.13695 z"
       style="fill:#000000;fill-opacity:1;fill-rule:nonzero;stroke:none"
       transform="matrix(1.3333333,0,0,-1.3333333,0,151.18133)" />
    <path
       id="path33"
       d="m 333.57312,44.58548 25.646,-3.06949 m -5.91059,0.70741 -0.42218,0.05054 m 6.33277,-0.75795 v 0 l -5.80951,1.55179 -0.20212,-1.68872 6.01163,0.13693"
       style="fill:none;stroke:#000000;stroke-width:0.3685;stroke-linecap:round;stroke-linejoin:round;stroke-miterlimit:10;stroke-dasharray:none;stroke-opacity:1"
       transform="matrix(1.3333333,0,0,-1.3333333,0,151.18133)" />
    <path
       id="path34"
       d="m 353.20749,41.37906 6.01163,0.13693 -5.80951,1.55179 z"
       style="fill:#000000;fill-opacity:1;fill-rule:nonzero;stroke:none"
       transform="matrix(1.3333333,0,0,-1.3333333,0,151.18133)" />
    <path
       id="path35"
       d="m 338.92786,43.9446 14.38504,-1.72171 m -5.91056,0.70742 -0.42221,0.05052 m 6.33277,-0.75794 v 0 l -5.80951,1.55178 -0.20212,-1.68872 6.01163,0.13694"
       style="fill:none;stroke:#000000;stroke-width:0.3685;stroke-linecap:round;stroke-linejoin:round;stroke-miterlimit:10;stroke-dasharray:none;stroke-opacity:1"
       transform="matrix(1.3333333,0,0,-1.3333333,0,151.18133)" />
    <path
       id="path36"
       d="m 347.30127,42.08595 6.01163,0.13694 -5.80951,1.55178 z"
       style="fill:#000000;fill-opacity:1;fill-rule:nonzero;stroke:none"
       transform="matrix(1.3333333,0,0,-1.3333333,0,151.18133)" />
    <path
       id="path37"
       d="m 332.8544,79.69864 -11.88919,-12.0434 m 7.70715,7.80713 -0.2987,-0.3026 m 4.48074,4.53887 v 0 l -3.57684,-4.8337 -1.21036,1.19486 4.7872,3.63884"
       style="fill:none;stroke:#000000;stroke-width:0.3685;stroke-linecap:round;stroke-linejoin:round;stroke-miterlimit:10;stroke-dasharray:none;stroke-opacity:1"
       transform="matrix(1.3333333,0,0,-1.3333333,0,151.18133)" />
    <path
       id="path38"
       d="m 328.0672,76.0598 1.21036,-1.19486 3.57684,4.8337 z"
       style="fill:#000000;fill-opacity:1;fill-rule:nonzero;stroke:none"
       transform="matrix(1.3333333,0,0,-1.3333333,0,151.18133)" />
    <path
       id="path39"
       d="m 329.06567,75.86076 -3.92154,-3.97238 m -0.26049,-0.26388 -0.29871,-0.3026 m 4.48074,4.53886 v 0 l -3.57684,-4.83369 -1.21036,1.19485 4.7872,3.63884"
       style="fill:none;stroke:#000000;stroke-width:0.3685;stroke-linecap:round;stroke-linejoin:round;stroke-miterlimit:10;stroke-dasharray:none;stroke-opacity:1"
       transform="matrix(1.3333333,0,0,-1.3333333,0,151.18133)" />
    <path
       id="path40"
       d="m 324.27847,72.22192 1.21036,-1.19485 3.57684,4.83369 z"
       style="fill:#000000;fill-opacity:1;fill-rule:nonzero;stroke:none"
       transform="matrix(1.3333333,0,0,-1.3333333,0,151.18133)" />
    <path
       id="path41"
       d="M 286.02243,32.25923 267.87662,13.87805 m 4.182,4.23627 0.29874,0.3026 m -4.48074,-4.53887 v 0 l 4.7872,3.63884 -1.21036,1.19486 -3.57684,-4.8337"
       style="fill:none;stroke:#000000;stroke-width:0.3685;stroke-linecap:round;stroke-linejoin:round;stroke-miterlimit:10;stroke-dasharray:none;stroke-opacity:1"
       transform="matrix(1.3333333,0,0,-1.3333333,0,151.18133)" />
    <path
       id="path42"
       d="m 271.45346,18.71175 -3.57684,-4.8337 4.7872,3.63884 z"
       style="fill:#000000;fill-opacity:1;fill-rule:nonzero;stroke:none"
       transform="matrix(1.3333333,0,0,-1.3333333,0,151.18133)" />
    <path
       id="path43"
       d="M 282.2337,28.42136 272.05554,18.11119 m 4.18204,4.23628 0.29871,0.30258 m -4.48075,-4.53886 v 0 l 4.7872,3.63884 -1.21035,1.19486 -3.57685,-4.8337"
       style="fill:none;stroke:#000000;stroke-width:0.3685;stroke-linecap:round;stroke-linejoin:round;stroke-miterlimit:10;stroke-dasharray:none;stroke-opacity:1"
       transform="matrix(1.3333333,0,0,-1.3333333,0,151.18133)" />
    <path
       id="path44"
       d="m 275.63239,22.94489 -3.57685,-4.8337 4.7872,3.63884 z"
       style="fill:#000000;fill-opacity:1;fill-rule:nonzero;stroke:none"
       transform="matrix(1.3333333,0,0,-1.3333333,0,151.18133)" />
    <path
       id="path45"
       d="m 239.0137,77.46376 39.86188,-4.77095 m -68.42636,-27.84514 31.81445,32.22711 m -31.81445,-32.22711 2.24036,2.26943 m -2.24036,-2.26943 v 0 l 1.78842,2.41684 0.60516,-0.59743 -2.39358,-1.81941 m 31.81445,32.22711 -2.24035,-2.26944 m 2.24035,2.26944 v 0 l -2.39361,-1.81942 0.60519,-0.59743 1.78842,2.41685 M 207.19925,45.23665 247.06113,40.4657 m 43.09948,-8.70175 -15.49676,1.85476 m 5.91058,-0.70742 0.42218,-0.05053 m -6.33276,0.75795 v 0 l 5.80951,-1.55178 0.20212,1.68872 -6.01163,-0.13694"
       style="fill:none;stroke:#000000;stroke-width:0.3685;stroke-linecap:round;stroke-linejoin:round;stroke-miterlimit:10;stroke-dasharray:none;stroke-opacity:1"
       transform="matrix(1.3333333,0,0,-1.3333333,0,151.18133)" />
    <path
       id="path46"
       d="m 280.67548,33.75565 -6.01163,-0.13694 5.80951,-1.55178 z"
       style="fill:#000000;fill-opacity:1;fill-rule:nonzero;stroke:none"
       transform="matrix(1.3333333,0,0,-1.3333333,0,151.18133)" />
    <path
       id="path47"
       d="m 290.36823,31.73933 -9.86557,1.18714 m 5.91012,-0.71117 0.42215,-0.05079 m -6.33227,0.76196 v 0 l 5.80853,-1.55547 0.20318,1.6886 -6.01171,-0.13313"
       style="fill:none;stroke:#000000;stroke-width:0.3685;stroke-linecap:round;stroke-linejoin:round;stroke-miterlimit:10;stroke-dasharray:none;stroke-opacity:1"
       transform="matrix(1.3333333,0,0,-1.3333333,0,151.18133)" />
    <path
       id="path48"
       d="m 286.51437,33.0596 -6.01171,-0.13313 5.80853,-1.55547 z"
       style="fill:#000000;fill-opacity:1;fill-rule:nonzero;stroke:none"
       transform="matrix(1.3333333,0,0,-1.3333333,0,151.18133)" />
    <path
       id="path49"
       d="m 329.13391,40.1134 10.97708,11.09476 m -4.1867,-4.23161 -0.29908,-0.30226 m 4.48578,4.53387 v 0 l -4.79123,-3.6335 1.20902,-1.19621 3.58221,4.82971"
       style="fill:none;stroke:#000000;stroke-width:0.3685;stroke-linecap:round;stroke-linejoin:round;stroke-miterlimit:10;stroke-dasharray:none;stroke-opacity:1"
       transform="matrix(1.3333333,0,0,-1.3333333,0,151.18133)" />
    <path
       id="path50"
       d="m 336.52878,46.37845 3.58221,4.82971 -4.79123,-3.6335 z"
       style="fill:#000000;fill-opacity:1;fill-rule:nonzero;stroke:none"
       transform="matrix(1.3333333,0,0,-1.3333333,0,151.18133)" />
    <path
       id="path51"
       d="m 328.98706,39.96463 6.99326,7.05927 m -4.18943,-4.22896 -0.29925,-0.30207 m 4.48868,4.53103 v 0 l -4.79355,-3.63048 1.20825,-1.19696 3.5853,4.82744"
       style="fill:none;stroke:#000000;stroke-width:0.3685;stroke-linecap:round;stroke-linejoin:round;stroke-miterlimit:10;stroke-dasharray:none;stroke-opacity:1"
       transform="matrix(1.3333333,0,0,-1.3333333,0,151.18133)" />
    <path
       id="path52"
       d="m 332.39502,42.19646 3.5853,4.82744 -4.79355,-3.63048 z"
       style="fill:#000000;fill-opacity:1;fill-rule:nonzero;stroke:none"
       transform="matrix(1.3333333,0,0,-1.3333333,0,151.18133)" />
    <path
       id="path53"
       d="M 268.61469,106.08414 V 83.90726 m 0,5.95276 v 0.4252 m 0,-6.37796 v 0 l 0.8504,5.95276 h -1.70078 l 0.85038,-5.95276"
       style="fill:none;stroke:#000000;stroke-width:0.3685;stroke-linecap:round;stroke-linejoin:round;stroke-miterlimit:10;stroke-dasharray:none;stroke-opacity:1"
       transform="matrix(1.3333333,0,0,-1.3333333,0,151.18133)" />
    <path
       id="path54"
       d="m 267.76431,89.86002 0.85038,-5.95276 0.8504,5.95276 z"
       style="fill:#000000;fill-opacity:1;fill-rule:nonzero;stroke:none"
       transform="matrix(1.3333333,0,0,-1.3333333,0,151.18133)" />
    <path
       id="path55"
       d="m 268.61469,106.08414 19.20574,-2.29868 m -5.91058,0.70741 -0.42218,0.0505 m 6.33276,-0.75795 v 0 l -5.8095,1.55179 -0.20212,-1.68874 6.01162,0.13695"
       style="fill:none;stroke:#000000;stroke-width:0.3685;stroke-linecap:round;stroke-linejoin:round;stroke-miterlimit:10;stroke-dasharray:none;stroke-opacity:1"
       transform="matrix(1.3333333,0,0,-1.3333333,0,151.18133)" />
    <path
       id="path56"
       d="m 281.80881,103.64851 6.01162,0.13695 -5.8095,1.55179 z"
       style="fill:#000000;fill-opacity:1;fill-rule:nonzero;stroke:none"
       transform="matrix(1.3333333,0,0,-1.3333333,0,151.18133)" />
    <path
       id="path57"
       d="M 268.61469,106.08414 252.45682,89.71667 m 4.182,4.23627 0.29871,0.30258 m -4.48071,-4.53885 v 0 l 4.7872,3.63884 -1.21036,1.19486 -3.57684,-4.8337"
       style="fill:none;stroke:#000000;stroke-width:0.3685;stroke-linecap:round;stroke-linejoin:round;stroke-miterlimit:10;stroke-dasharray:none;stroke-opacity:1"
       transform="matrix(1.3333333,0,0,-1.3333333,0,151.18133)" />
    <path
       id="path58"
       d="m 256.03366,94.55037 -3.57684,-4.8337 4.7872,3.63884 z"
       style="fill:#000000;fill-opacity:1;fill-rule:nonzero;stroke:none"
       transform="matrix(1.3333333,0,0,-1.3333333,0,151.18133)" />
    <path
       id="path59"
       d="m 145.3671,44.7563 25.64596,-3.06949 m -5.91055,0.70742 -0.42218,0.05052 m 6.33273,-0.75794 v 0 l -5.80951,1.55178 -0.20212,-1.68872 6.01163,0.13694"
       style="fill:none;stroke:#000000;stroke-width:0.3685;stroke-linecap:round;stroke-linejoin:round;stroke-miterlimit:10;stroke-dasharray:none;stroke-opacity:1"
       transform="matrix(1.3333333,0,0,-1.3333333,0,151.18133)" />
    <path
       id="path60"
       d="m 165.00143,41.54987 6.01163,0.13694 -5.80951,1.55178 z"
       style="fill:#000000;fill-opacity:1;fill-rule:nonzero;stroke:none"
       transform="matrix(1.3333333,0,0,-1.3333333,0,151.18133)" />
    <path
       id="path61"
       d="m 150.7218,44.1154 14.38507,-1.72169 m -5.91058,0.70741 -0.42218,0.05054 m 6.33276,-0.75795 v 0 l -5.80951,1.55179 -0.20211,-1.68874 6.01162,0.13695"
       style="fill:none;stroke:#000000;stroke-width:0.3685;stroke-linecap:round;stroke-linejoin:round;stroke-miterlimit:10;stroke-dasharray:none;stroke-opacity:1"
       transform="matrix(1.3333333,0,0,-1.3333333,0,151.18133)" />
    <path
       id="path62"
       d="m 159.09525,42.25676 6.01162,0.13695 -5.80951,1.55179 z"
       style="fill:#000000;fill-opacity:1;fill-rule:nonzero;stroke:none"
       transform="matrix(1.3333333,0,0,-1.3333333,0,151.18133)" />
    <path
       id="path63"
       d="M 97.81639,32.43005 79.67056,14.04887 m 4.18202,4.23627 0.29873,0.30258 m -4.48075,-4.53885 v 0 l 4.7872,3.63884 -1.21034,1.19486 -3.57686,-4.8337"
       style="fill:none;stroke:#000000;stroke-width:0.3685;stroke-linecap:round;stroke-linejoin:round;stroke-miterlimit:10;stroke-dasharray:none;stroke-opacity:1"
       transform="matrix(1.3333333,0,0,-1.3333333,0,151.18133)" />
    <path
       id="path64"
       d="m 83.24742,18.88257 -3.57686,-4.8337 4.7872,3.63884 z"
       style="fill:#000000;fill-opacity:1;fill-rule:nonzero;stroke:none"
       transform="matrix(1.3333333,0,0,-1.3333333,0,151.18133)" />
    <path
       id="path65"
       d="M 96.02409,30.6145 83.85258,18.28514 m 4.18204,4.23627 0.29871,0.3026 m -4.48075,-4.53887 v 0 l 4.78722,3.63884 -1.21036,1.19486 -3.57686,-4.8337"
       style="fill:none;stroke:#000000;stroke-width:0.3685;stroke-linecap:round;stroke-linejoin:round;stroke-miterlimit:10;stroke-dasharray:none;stroke-opacity:1"
       transform="matrix(1.3333333,0,0,-1.3333333,0,151.18133)" />
    <path
       id="path66"
       d="m 87.42944,23.11884 -3.57686,-4.8337 4.78722,3.63884 z"
       style="fill:#000000;fill-opacity:1;fill-rule:nonzero;stroke:none"
       transform="matrix(1.3333333,0,0,-1.3333333,0,151.18133)" />
    <path
       id="path67"
       d="m 93.4823,32.95157 -9.86557,1.18713 m 5.91013,-0.71116 0.42215,-0.0508 m -6.33228,0.76196 v 0 l 5.80852,-1.55546 0.2032,1.6886 -6.01172,-0.13314"
       style="fill:none;stroke:#000000;stroke-width:0.3685;stroke-linecap:round;stroke-linejoin:round;stroke-miterlimit:10;stroke-dasharray:none;stroke-opacity:1"
       transform="matrix(1.3333333,0,0,-1.3333333,0,151.18133)" />
    <path
       id="path68"
       d="M 89.62845,34.27184 83.61673,34.1387 89.42525,32.58324 Z"
       style="fill:#000000;fill-opacity:1;fill-rule:nonzero;stroke:none"
       transform="matrix(1.3333333,0,0,-1.3333333,0,151.18133)" />
    <path
       id="path69"
       d="m 97.81863,32.43234 -20.04071,2.39861 m 5.91057,-0.70741 0.4222,-0.05054 m -6.33277,0.75795 v 0 l 5.80951,-1.55179 0.20212,1.68874 -6.01163,-0.13695"
       style="fill:none;stroke:#000000;stroke-width:0.3685;stroke-linecap:round;stroke-linejoin:round;stroke-miterlimit:10;stroke-dasharray:none;stroke-opacity:1"
       transform="matrix(1.3333333,0,0,-1.3333333,0,151.18133)" />
    <path
       id="path70"
       d="m 83.78955,34.9679 -6.01163,-0.13695 5.80951,-1.55179 z"
       style="fill:#000000;fill-opacity:1;fill-rule:nonzero;stroke:none"
       transform="matrix(1.3333333,0,0,-1.3333333,0,151.18133)" />
    <path
       id="path71"
       d="m 142.29828,41.65164 -6.98538,-7.06703 m 4.18472,4.23363 0.29889,0.3024 m -4.48361,-4.53603 v 0 l 4.78952,3.6358 -1.2096,1.19564 -3.57992,-4.83144"
       style="fill:none;stroke:#000000;stroke-width:0.3685;stroke-linecap:round;stroke-linejoin:round;stroke-miterlimit:10;stroke-dasharray:none;stroke-opacity:1"
       transform="matrix(1.3333333,0,0,-1.3333333,0,151.18133)" />
    <path
       id="path72"
       d="m 138.89282,39.41605 -3.57992,-4.83144 4.78952,3.6358 z"
       style="fill:#000000;fill-opacity:1;fill-rule:nonzero;stroke:none"
       transform="matrix(1.3333333,0,0,-1.3333333,0,151.18133)" />
    <path
       id="path73"
       d="M 145.36667,44.75948 131.18686,30.39575 m 4.18201,4.23627 0.29873,0.3026 m -4.48074,-4.53887 v 0 l 4.7872,3.63884 -1.21036,1.19486 -3.57684,-4.8337"
       style="fill:none;stroke:#000000;stroke-width:0.3685;stroke-linecap:round;stroke-linejoin:round;stroke-miterlimit:10;stroke-dasharray:none;stroke-opacity:1"
       transform="matrix(1.3333333,0,0,-1.3333333,0,151.18133)" />
    <path
       id="path74"
       d="m 134.7637,35.22945 -3.57684,-4.8337 4.7872,3.63884 z"
       style="fill:#000000;fill-opacity:1;fill-rule:nonzero;stroke:none"
       transform="matrix(1.3333333,0,0,-1.3333333,0,151.18133)" />
    <path
       id="path75"
       d="m 124.72813,59.1855 -7.07482,0.84677 m 7.07482,-0.84677 -3.16636,0.37897 m 3.16636,-0.37897 v 0 l -3.00581,-0.06848 0.10106,0.84438 2.90475,-0.7759 m -7.07482,0.84677 3.16636,-0.37898 m -3.16636,0.37898 v 0 l 2.90475,-0.77589 0.10106,0.84436 -3.00581,-0.06847 M 50.80765,77.63457 90.66953,72.86363 M 18.99319,45.40746 58.85507,40.63652 m 206.99191,7.0515 0.95591,0.96614 m 1.59494,1.61204 1.99368,2.01507 m 1.59494,1.61204 1.99368,2.01505 m 1.59497,1.61204 1.24897,1.26238 M 265.84698,47.68802 v 0 m 10.97709,11.09477 v 0 m -10.97709,-11.09477 4.48578,4.53387 m -4.48578,-4.53387 v 0 l 3.58222,4.82971 1.20904,-1.1962 -4.79126,-3.63351 m 4.18729,4.23218 0.28809,0.29081 m 1.59597,1.61103 1.99497,2.01379 m 1.59598,1.61102 1.51825,1.5326 m -6.99326,-7.05925 v 0 m 6.99326,7.05925 v 0 m -6.99326,-7.05925 4.48868,4.53102 m -4.48868,-4.53102 v 0 l 3.5853,4.82743 1.20825,-1.19696 -4.79355,-3.63047 m 36.44403,13.92563 2.27399,-0.27218 m 2.25165,-0.26948 2.81457,-0.33687 m 2.25165,-0.2695 2.81454,-0.33687 m 2.25165,-0.26948 0.83875,-0.10039 m -15.4968,1.85477 v 0 m 15.4968,-1.85477 v 0 l -6.33277,0.75795 m 6.33277,-0.75795 v 0 l -5.80954,1.55179 -0.20212,-1.68874 6.01166,0.13695 m -15.70438,1.87938 2.54553,-0.30631 m 2.2515,-0.27093 2.81433,-0.33864 m 2.25146,-0.27092 0.003,-3.4e-4 m -9.86557,1.18714 v 0 m 9.86557,-1.18714 v 0"
       style="fill:none;stroke:#000000;stroke-width:0.3685;stroke-linecap:round;stroke-linejoin:round;stroke-miterlimit:10;stroke-dasharray:none;stroke-opacity:1"
       transform="matrix(1.3333333,0,0,-1.3333333,0,151.18133)" />
    <path
       id="path76"
       d="m 316.13629,64.6833 -6.33227,0.76197 m 6.33227,-0.76197 v 0 l -5.80853,1.55547 -0.20319,-1.6886 6.01172,0.13313 m -182.93097,-0.47964 10.61389,-1.3466 m -5.90542,0.74922 -0.42182,0.05353 m 6.32724,-0.80275 v 0 l -5.7984,1.59286 -0.21405,-1.68726 6.01245,0.0944"
       style="fill:none;stroke:#000000;stroke-width:0.3685;stroke-linecap:round;stroke-linejoin:round;stroke-miterlimit:10;stroke-dasharray:none;stroke-opacity:1"
       transform="matrix(1.3333333,0,0,-1.3333333,0,151.18133)" />
    <path
       id="path77"
       d="m 137.80676,62.76266 6.01245,0.0944 -5.7984,1.59286 z"
       style="fill:#000000;fill-opacity:1;fill-rule:nonzero;stroke:none"
       transform="matrix(1.3333333,0,0,-1.3333333,0,151.18133)" />
    <path
       id="path78"
       d="m 133.20532,64.2034 16.44809,-2.0762 m -5.90588,0.74548 -0.42185,0.05325 m 6.32773,-0.79873 v 0 l -5.79938,1.58918 -0.21301,-1.68739 6.01239,0.09821"
       style="fill:none;stroke:#000000;stroke-width:0.3685;stroke-linecap:round;stroke-linejoin:round;stroke-miterlimit:10;stroke-dasharray:none;stroke-opacity:1"
       transform="matrix(1.3333333,0,0,-1.3333333,0,151.18133)" />
    <path
       id="path79"
       d="m 143.64102,62.02899 6.01239,0.09821 -5.79938,1.58918 z"
       style="fill:#000000;fill-opacity:1;fill-rule:nonzero;stroke:none"
       transform="matrix(1.3333333,0,0,-1.3333333,0,151.18133)" />
    <path
       id="path80"
       d="m 132.79541,67.82172 15.0993,15.09932 m -4.20922,-4.20923 -0.30066,-0.30066 m 4.50988,4.50989 v 0 l -4.81054,-3.60791 1.20263,-1.20264 3.60791,4.81055"
       style="fill:none;stroke:#000000;stroke-width:0.3685;stroke-linecap:round;stroke-linejoin:round;stroke-miterlimit:10;stroke-dasharray:none;stroke-opacity:1"
       transform="matrix(1.3333333,0,0,-1.3333333,0,151.18133)" />
    <path
       id="path81"
       d="m 144.2868,78.11049 3.60791,4.81055 -4.81054,-3.60791 z"
       style="fill:#000000;fill-opacity:1;fill-rule:nonzero;stroke:none"
       transform="matrix(1.3333333,0,0,-1.3333333,0,151.18133)" />
    <path
       id="path82"
       d="m 132.79541,67.82172 10.89008,10.89009 m -4.20923,-4.20923 -0.30066,-0.30066 m 4.50989,4.50989 v 0 l -4.81055,-3.60791 1.20264,-1.20264 3.60791,4.81055"
       style="fill:none;stroke:#000000;stroke-width:0.3685;stroke-linecap:round;stroke-linejoin:round;stroke-miterlimit:10;stroke-dasharray:none;stroke-opacity:1"
       transform="matrix(1.3333333,0,0,-1.3333333,0,151.18133)" />
    <path
       id="path83"
       d="m 140.07758,73.90126 3.60791,4.81055 -4.81055,-3.60791 z"
       style="fill:#000000;fill-opacity:1;fill-rule:nonzero;stroke:none"
       transform="matrix(1.3333333,0,0,-1.3333333,0,151.18133)" />
    <path
       id="path84"
       d="m 76.72543,52.9231 -14.38507,1.72171 m 5.91059,-0.70743 0.42218,-0.05052 m -6.33277,0.75795 v 0 l 5.80953,-1.55179 0.20212,1.68872 -6.01165,-0.13693"
       style="fill:none;stroke:#000000;stroke-width:0.3685;stroke-linecap:round;stroke-linejoin:round;stroke-miterlimit:10;stroke-dasharray:none;stroke-opacity:1"
       transform="matrix(1.3333333,0,0,-1.3333333,0,151.18133)" />
    <path
       id="path85"
       d="m 68.35201,54.78174 -6.01165,-0.13693 5.80953,-1.55179 z"
       style="fill:#000000;fill-opacity:1;fill-rule:nonzero;stroke:none"
       transform="matrix(1.3333333,0,0,-1.3333333,0,151.18133)" />
    <path
       id="path86"
       d="M 80.20262,52.50693 56.43416,55.3517 m 5.91057,-0.70743 0.42218,-0.05052 m -6.33275,0.75795 v 0 l 5.80951,-1.55179 0.20212,1.68872 -6.01163,-0.13693"
       style="fill:none;stroke:#000000;stroke-width:0.3685;stroke-linecap:round;stroke-linejoin:round;stroke-miterlimit:10;stroke-dasharray:none;stroke-opacity:1"
       transform="matrix(1.3333333,0,0,-1.3333333,0,151.18133)" />
    <path
       id="path87"
       d="M 62.44579,55.48863 56.43416,55.3517 62.24367,53.79991 Z"
       style="fill:#000000;fill-opacity:1;fill-rule:nonzero;stroke:none"
       transform="matrix(1.3333333,0,0,-1.3333333,0,151.18133)" />
    <path
       id="path88"
       d="m 87.09167,57.35229 5.04267,5.1016 m -4.18471,-4.23361 -0.29892,-0.3024 m 4.48363,4.53601 v 0 l -4.78952,-3.63581 1.20961,-1.19561 3.57991,4.83142"
       style="fill:none;stroke:#000000;stroke-width:0.3685;stroke-linecap:round;stroke-linejoin:round;stroke-miterlimit:10;stroke-dasharray:none;stroke-opacity:1"
       transform="matrix(1.3333333,0,0,-1.3333333,0,151.18133)" />
    <path
       id="path89"
       d="m 88.55443,57.62247 3.57991,4.83142 -4.78952,-3.63581 z"
       style="fill:#000000;fill-opacity:1;fill-rule:nonzero;stroke:none"
       transform="matrix(1.3333333,0,0,-1.3333333,0,151.18133)" />
    <path
       id="path90"
       d="m 87.08919,57.3526 9.17119,9.29015 M 92.07835,62.40648 91.77963,62.1039 m 4.48075,4.53885 v 0 l -4.7872,-3.63883 1.21035,-1.19487 3.57685,4.8337"
       style="fill:none;stroke:#000000;stroke-width:0.3685;stroke-linecap:round;stroke-linejoin:round;stroke-miterlimit:10;stroke-dasharray:none;stroke-opacity:1"
       transform="matrix(1.3333333,0,0,-1.3333333,0,151.18133)" />
    <path
       id="path91"
       d="m 92.68353,61.80905 3.57685,4.8337 -4.7872,-3.63883 z"
       style="fill:#000000;fill-opacity:1;fill-rule:nonzero;stroke:none"
       transform="matrix(1.3333333,0,0,-1.3333333,0,151.18133)" />
  </g>
</svg>
