<?xml version="1.0" encoding="UTF-8" standalone="no"?>
<!-- Created with Inkscape (http://www.inkscape.org/) -->

<svg
   version="1.1"
   id="svg1"
   width="566.92932"
   height="291.02399"
   viewBox="0 0 566.92932 291.02399"
   sodipodi:docname="allg_drill_deckel.pdf"
   xmlns:inkscape="http://www.inkscape.org/namespaces/inkscape"
   xmlns:sodipodi="http://sodipodi.sourceforge.net/DTD/sodipodi-0.dtd"
   xmlns="http://www.w3.org/2000/svg"
   xmlns:svg="http://www.w3.org/2000/svg">
  <defs
     id="defs1">
    <clipPath
       clipPathUnits="userSpaceOnUse"
       id="clipPath7">
      <path
         d="M -0.00426,-0.00218 V 218.2699 H 425.20111 V -0.00218 H -0.00426"
         transform="matrix(1,0,0,-1,-239.89387,137.09589)"
         clip-rule="evenodd"
         id="path7" />
    </clipPath>
    <clipPath
       clipPathUnits="userSpaceOnUse"
       id="clipPath8">
      <path
         d="M -0.00426,-0.00218 V 218.2699 H 425.20111 V -0.00218 H -0.00426"
         transform="matrix(1,0,0,-1,-248.98083,132.96204)"
         clip-rule="evenodd"
         id="path8" />
    </clipPath>
    <clipPath
       clipPathUnits="userSpaceOnUse"
       id="clipPath9">
      <path
         d="M -0.00426,-0.00218 V 218.2699 H 425.20111 V -0.00218 H -0.00426"
         transform="matrix(1,0,0,-1,-257.14702,137.09589)"
         clip-rule="evenodd"
         id="path9" />
    </clipPath>
    <clipPath
       clipPathUnits="userSpaceOnUse"
       id="clipPath10">
      <path
         d="M -0.00426,-0.00218 V 218.2699 H 425.20111 V -0.00218 H -0.00426"
         transform="matrix(1,0,0,-1,-269.30484,132.96204)"
         clip-rule="evenodd"
         id="path10" />
    </clipPath>
    <clipPath
       clipPathUnits="userSpaceOnUse"
       id="clipPath11">
      <path
         d="M -0.00426,-0.00218 V 218.2699 H 425.20111 V -0.00218 H -0.00426"
         transform="matrix(1,0,0,-1,-244.40104,49.126089)"
         clip-rule="evenodd"
         id="path11" />
    </clipPath>
    <clipPath
       clipPathUnits="userSpaceOnUse"
       id="clipPath12">
      <path
         d="M -0.00426,-0.00218 V 218.2699 H 425.20111 V -0.00218 H -0.00426"
         transform="matrix(1,0,0,-1,-253.48798,44.992231)"
         clip-rule="evenodd"
         id="path12" />
    </clipPath>
    <clipPath
       clipPathUnits="userSpaceOnUse"
       id="clipPath13">
      <path
         d="M -0.00426,-0.00218 V 218.2699 H 425.20111 V -0.00218 H -0.00426"
         transform="matrix(1,0,0,-1,-261.65419,49.126089)"
         clip-rule="evenodd"
         id="path13" />
    </clipPath>
    <clipPath
       clipPathUnits="userSpaceOnUse"
       id="clipPath14">
      <path
         d="M -0.00426,-0.00218 V 218.2699 H 425.20111 V -0.00218 H -0.00426"
         transform="matrix(1,0,0,-1,-273.81201,44.992231)"
         clip-rule="evenodd"
         id="path14" />
    </clipPath>
    <clipPath
       clipPathUnits="userSpaceOnUse"
       id="clipPath15">
      <path
         d="M -0.00426,-0.00218 V 218.2699 H 425.20111 V -0.00218 H -0.00426"
         transform="matrix(1,0,0,-1,-163.15336,130.23001)"
         clip-rule="evenodd"
         id="path15" />
    </clipPath>
    <clipPath
       clipPathUnits="userSpaceOnUse"
       id="clipPath16">
      <path
         d="M -0.00426,-0.00218 V 218.2699 H 425.20111 V -0.00218 H -0.00426"
         transform="matrix(1,0,0,-1,-172.24032,126.09615)"
         clip-rule="evenodd"
         id="path16" />
    </clipPath>
    <clipPath
       clipPathUnits="userSpaceOnUse"
       id="clipPath17">
      <path
         d="M -0.00426,-0.00218 V 218.2699 H 425.20111 V -0.00218 H -0.00426"
         transform="matrix(1,0,0,-1,-180.4065,130.23001)"
         clip-rule="evenodd"
         id="path17" />
    </clipPath>
    <clipPath
       clipPathUnits="userSpaceOnUse"
       id="clipPath18">
      <path
         d="M -0.00426,-0.00218 V 218.2699 H 425.20111 V -0.00218 H -0.00426"
         transform="matrix(1,0,0,-1,-192.56433,126.09615)"
         clip-rule="evenodd"
         id="path18" />
    </clipPath>
    <clipPath
       clipPathUnits="userSpaceOnUse"
       id="clipPath19">
      <path
         d="M -0.00426,-0.00218 V 218.2699 H 425.20111 V -0.00218 H -0.00426"
         transform="matrix(1,0,0,-1,-161.25078,45.093444)"
         clip-rule="evenodd"
         id="path19" />
    </clipPath>
    <clipPath
       clipPathUnits="userSpaceOnUse"
       id="clipPath20">
      <path
         d="M -0.00426,-0.00218 V 218.2699 H 425.20111 V -0.00218 H -0.00426"
         transform="matrix(1,0,0,-1,-170.33773,40.959579)"
         clip-rule="evenodd"
         id="path20" />
    </clipPath>
    <clipPath
       clipPathUnits="userSpaceOnUse"
       id="clipPath21">
      <path
         d="M -0.00426,-0.00218 V 218.2699 H 425.20111 V -0.00218 H -0.00426"
         transform="matrix(1,0,0,-1,-178.50393,45.093444)"
         clip-rule="evenodd"
         id="path21" />
    </clipPath>
    <clipPath
       clipPathUnits="userSpaceOnUse"
       id="clipPath22">
      <path
         d="M -0.00426,-0.00218 V 218.2699 H 425.20111 V -0.00218 H -0.00426"
         transform="matrix(1,0,0,-1,-190.66173,40.959579)"
         clip-rule="evenodd"
         id="path22" />
    </clipPath>
    <clipPath
       clipPathUnits="userSpaceOnUse"
       id="clipPath31">
      <path
         d="M -0.00426,-0.00218 V 218.2699 H 425.20111 V -0.00218 H -0.00426"
         transform="matrix(1,0,0,-1,-337.65747,109.3381)"
         clip-rule="evenodd"
         id="path31" />
    </clipPath>
    <clipPath
       clipPathUnits="userSpaceOnUse"
       id="clipPath32">
      <path
         d="M -0.00426,-0.00218 V 218.2699 H 425.20111 V -0.00218 H -0.00426"
         transform="matrix(1,0,0,-1,-343.94496,105.20425)"
         clip-rule="evenodd"
         id="path32" />
    </clipPath>
  </defs>
  <sodipodi:namedview
     id="namedview1"
     pagecolor="#ffffff"
     bordercolor="#000000"
     borderopacity="0.25"
     inkscape:showpageshadow="2"
     inkscape:pageopacity="0.0"
     inkscape:pagecheckerboard="0"
     inkscape:deskcolor="#d1d1d1">
    <inkscape:page
       x="0"
       y="0"
       inkscape:label="1"
       id="page1"
       width="566.92932"
       height="291.02399"
       margin="0"
       bleed="0" />
  </sodipodi:namedview>
  <g
     id="g1"
     inkscape:groupmode="layer"
     inkscape:label="1">
    <path
       id="path1"
       d="m 212.47568,148.81256 v 1.9906 m 0,2.2677 v 2.83466 m 0,2.26773 v 2.83462 m 0,2.26773 v 2.83463 m 0,2.26773 v 2.83466 m 0,2.2677 v 2.83465 m 0,2.2677 v 2.83466 m 0,2.26773 v 2.15915 m 0,-37.03165 v 0 m 0,37.03165 v 0 m -80.75376,-46.6232 2.4549,1.41733 m 1.9639,1.13388 2.45486,1.41729 m 1.9639,1.13388 2.45486,1.4173 m 1.96393,1.13388 2.45487,1.41733 m 1.96389,1.13385 2.45487,1.41733 m 1.9639,1.13385 2.45489,1.41733 m 1.9639,1.13385 2.45486,1.41732 m 1.9639,1.13385 2.4549,1.41733 m 1.96389,1.13385 2.45487,1.41733 m 1.9639,1.13385 2.45486,1.41733 m 1.96393,1.13385 2.45486,1.41733 m 1.9639,1.13388 2.45487,1.41729 m 1.96389,1.13389 2.4549,1.41729 m 1.9639,1.13388 2.45486,1.41733 m 1.9639,1.13385 2.45489,1.41733 m 1.9639,1.13385 2.45487,1.41733 m 1.96389,1.13385 2.45487,1.41732 m 1.96393,1.13385 2.45486,1.41733 m 1.9639,1.13385 1.21579,0.70194 M 130.4758,138.50156 v 0 m 81.99988,47.34265 v 0 m -100.06877,-94.80638 2.45486,1.41732 m 1.96391,1.13385 2.45487,1.41733 m 1.96391,1.13385 2.45487,1.41733 m 1.96389,1.13387 2.45488,1.41731 m 1.9639,1.13386 2.4549,1.41733 m 1.96389,1.13385 2.45487,1.41733 m 1.9639,1.13385 2.45486,1.41733 m 1.96393,1.13385 2.45486,1.41733 m 1.9639,1.13386 2.45487,1.41731 m 1.96389,1.13387 2.4549,1.41733 m 1.9639,1.13385 2.45486,1.41732 m 1.9639,1.13385 2.45489,1.41733 m 1.9639,1.13385 2.45486,1.41733 m 1.9639,1.13387 2.45487,1.41731 m 1.96393,1.13386 2.45486,1.41733 m 1.9639,1.13385 2.45486,1.41733 m 1.9639,1.13385 2.45489,1.41733 m 1.9639,1.13385 2.45487,1.41733 m 1.96389,1.13385 2.4549,1.41732"
       style="fill:none;stroke:#000000;stroke-width:0.3685;stroke-linecap:round;stroke-linejoin:round;stroke-miterlimit:10;stroke-dasharray:none;stroke-opacity:1"
       transform="matrix(1.3333333,0,0,-1.3333333,0,291.024)" />
    <path
       id="path2"
       d="m 196.36365,139.51028 2.45486,1.4173 m 1.9639,1.13388 2.45486,1.41733 m 1.96393,1.13385 2.45487,1.41733 m 1.96389,1.13385 2.45487,1.41733 M 112.25581,90.95059 v 0 m 100.21987,57.86197 v 0 m 0.65411,36.65399 2.45487,-1.41729 m 1.96389,-1.13389 2.45487,-1.41729 m 1.96393,-1.13388 2.45486,-1.41733 m 1.9639,-1.13385 2.45486,-1.41733 m 1.9639,-1.13385 2.4549,-1.41733 m 1.96389,-1.13385 2.45487,-1.41733 m 1.9639,-1.13385 2.45489,-1.41732 m 1.9639,-1.13385 2.45486,-1.41733 m 1.9639,-1.13385 2.45486,-1.41733 m 1.96393,-1.13385 2.45487,-1.41733 m 1.9639,-1.13388 2.45486,-1.41729 m 1.9639,-1.13389 2.45489,-1.41729 m 1.9639,-1.13388 2.45486,-1.41733 m 1.9639,-1.13385 2.45487,-1.41733 m 1.96389,-1.13385 2.4549,-1.41733 m 1.9639,-1.13385 2.45486,-1.41733 m 1.9639,-1.13385 2.45489,-1.41732 m 1.9639,-1.13385 2.45487,-1.41733 m 1.96389,-1.13385 1.80784,-1.04376 m -81.99988,47.34265 v 0 m 81.99988,-47.34265 v 0 m -81.99988,10.311 0.33014,-0.19061 m 1.96389,-1.13385 2.45487,-1.41733 m 1.9639,-1.13385 2.45489,-1.41733 m 1.9639,-1.13385 2.45486,-1.41733 m 1.9639,-1.13385 2.45487,-1.41732 m 1.96389,-1.13385 2.4549,-1.41733 m 1.9639,-1.13385 2.45486,-1.41733 m 1.9639,-1.13388 2.45489,-1.4173 m 1.9639,-1.13388 2.45487,-1.4173 m 1.96389,-1.13388 2.4549,-1.41731 m 1.9639,-1.13386 2.45486,-1.41733 m 1.9639,-1.13385 2.45486,-1.41733 m 1.9639,-1.13385 2.4549,-1.41733 m 1.96389,-1.13385 2.45487,-1.41733 m 1.9639,-1.13386 2.45486,-1.41731 m 1.96393,-1.13387 2.45486,-1.41733 m 1.9639,-1.13385 2.45487,-1.41733 m 1.96389,-1.13385 2.4549,-1.41732 m 1.9639,-1.13387 2.45486,-1.41731 m 1.9639,-1.13387 2.45489,-1.41731 m 1.9639,-1.13386 2.45486,-1.41733 m 1.9639,-1.13385 2.45487,-1.41733 m 1.96393,-1.13385 2.45486,-1.41733"
       style="fill:none;stroke:#000000;stroke-width:0.3685;stroke-linecap:round;stroke-linejoin:round;stroke-miterlimit:10;stroke-dasharray:none;stroke-opacity:1"
       transform="matrix(1.3333333,0,0,-1.3333333,0,291.024)" />
    <path
       id="path3"
       d="m 311.98276,91.36211 0.71277,-0.41152 m -100.21985,57.86197 v 0 M 312.69553,90.95059 v 0 m -100.21985,27.56545 v 1.67294 m 0,2.26772 v 2.83464 m 0,2.26771 v 0.21489 m 0,-9.2579 v 0 m 0,9.2579 v 0 m -81.99988,-47.34265 2.33353,1.34726 m 1.96389,1.13386 2.45487,1.41733 m 1.9639,1.13385 2.45489,1.41733 m 1.9639,1.13385 2.45486,1.41733 m 1.9639,1.13386 2.45487,1.41732 m 1.96392,1.13386 2.45487,1.41731 m 1.9639,1.13387 2.45486,1.41733 m 1.9639,1.13385 2.45489,1.41733 m 1.9639,1.13385 2.45487,1.41732 m 1.96389,1.13387 2.4549,1.41731 m 1.9639,1.13387 2.45486,1.41731 m 1.9639,1.13386 2.45486,1.41733 m 1.96393,1.13385 2.45487,1.41733 m 1.96389,1.13385 2.45487,1.41733 m 1.9639,1.13386 2.45489,1.41732 m 1.9639,1.13386 2.45486,1.41731 m 1.9639,1.13387 2.4549,1.41733 m 1.96389,1.13385 2.45487,1.41733 m 1.9639,1.13385 2.45486,1.41732 M 130.4758,80.43129 v 0 m 81.99988,47.34265 v 0 M 112.26936,60.6619 l 2.45487,1.41731 m 1.9639,1.13386 2.45488,1.41733 m 1.96389,1.13385 2.45488,1.41733 m 1.9639,1.13385 2.45488,1.41733 m 1.9639,1.13386 2.45486,1.41732 m 1.96393,1.13386 2.45487,1.41731 m 1.96389,1.13387 2.45487,1.41733 m 1.9639,1.13385 2.45489,1.41732 m 1.9639,1.13385 2.45486,1.41733 m 1.9639,1.13387 2.4549,1.41731 m 1.96389,1.13387 2.45487,1.41731 m 1.9639,1.13386 2.45486,1.41733 m 1.96393,1.13385 2.45486,1.41733 m 1.9639,1.13385 2.45486,1.41733 m 1.9639,1.13386 2.4549,1.41732 m 1.96389,1.13386 2.45487,1.41731 m 1.9639,1.13387 2.45489,1.41733 m 1.9639,1.13385 2.45486,1.41733 m 1.9639,1.13385 2.45487,1.41732 m 1.96392,1.13387 2.45487,1.41731 m 1.9639,1.13387 2.45486,1.41731"
       style="fill:none;stroke:#000000;stroke-width:0.3685;stroke-linecap:round;stroke-linejoin:round;stroke-miterlimit:10;stroke-dasharray:none;stroke-opacity:1"
       transform="matrix(1.3333333,0,0,-1.3333333,0,291.024)" />
    <path
       id="path4"
       d="m 205.06363,114.23669 2.45489,1.41733 m 1.9639,1.13385 2.45487,1.41733 M 112.25581,60.65407 v 0 m 100.21987,57.86197 v 0 m 0,9.2579 0.0577,-0.0333 m 1.96389,-1.13385 2.45487,-1.41733 m 1.9639,-1.13385 2.45486,-1.41732 m 1.9639,-1.13387 2.45489,-1.41731 m 1.9639,-1.13387 2.45487,-1.41731 m 1.96389,-1.13387 2.4549,-1.41732 m 1.9639,-1.13385 2.45486,-1.41733 m 1.9639,-1.13385 2.45489,-1.41733 m 1.9639,-1.13387 2.45487,-1.41731 m 1.96389,-1.13386 2.45487,-1.41732 m 1.9639,-1.13386 2.45489,-1.41733 m 1.9639,-1.13385 2.45486,-1.41733 m 1.9639,-1.13385 2.45486,-1.41733 m 1.96393,-1.13386 2.45487,-1.41731 m 1.9639,-1.13387 2.45486,-1.41731 m 1.9639,-1.13387 2.45489,-1.41732 m 1.9639,-1.13385 2.45486,-1.41733 m 1.9639,-1.13385 2.4549,-1.41733 m 1.9639,-1.13387 2.45486,-1.41731 m 1.9639,-1.13386 0.44034,-0.25423 m -81.99988,47.34265 v 0 M 294.47555,80.4313 v 0 m -81.99988,38.08475 0.46768,-0.27002 m 1.9639,-1.13385 2.45486,-1.41733 m 1.9639,-1.13387 2.45489,-1.41731 m 1.9639,-1.13386 2.45487,-1.41732 m 1.96389,-1.13386 2.4549,-1.41733 m 1.9639,-1.13385 2.45486,-1.41733 m 1.9639,-1.13385 2.45486,-1.41733 m 1.9639,-1.13386 2.4549,-1.41731 m 1.96389,-1.13387 2.45487,-1.41731 m 1.9639,-1.13387 2.45489,-1.41732 m 1.9639,-1.13385 2.45486,-1.41733 m 1.9639,-1.13385 2.45487,-1.41733 m 1.96389,-1.13387 2.4549,-1.41731 m 1.9639,-1.13386 2.45486,-1.41732 m 1.9639,-1.13386 2.45489,-1.41733 m 1.9639,-1.13385 2.45487,-1.41733 m 1.96389,-1.13385 2.45487,-1.41733 m 1.9639,-1.13386 2.45489,-1.41731 m 1.9639,-1.13387 2.45486,-1.41731 m 1.9639,-1.13387 2.4549,-1.41733 m 1.96389,-1.13385 2.45487,-1.41732 m 1.9639,-1.13385 2.45489,-1.41733 m 1.9639,-1.13387 2.45486,-1.41731 m 1.9639,-1.13386 0.57523,-0.33211"
       style="fill:none;stroke:#000000;stroke-width:0.3685;stroke-linecap:round;stroke-linejoin:round;stroke-miterlimit:10;stroke-dasharray:none;stroke-opacity:1"
       transform="matrix(1.3333333,0,0,-1.3333333,0,291.024)" />
    <path
       id="path5"
       d="m 212.47568,118.51604 v 0 M 312.69553,60.65407 v 0 M 212.47568,206.88281 v 0.0463 m 0,2.26773 v 2.83462 m 0,2.26773 v 1.84153 m 0,-9.25794 v 0 m 0,9.25794 v 0 m -98.70128,-66.24314 2.45486,1.41733 m 1.9639,1.13385 2.45488,1.41733 m 1.9639,1.13385 2.45488,1.41733 m 1.9639,1.13385 2.45488,1.41733 m 1.96389,1.13385 2.45487,1.41732 m 1.96393,1.13388 2.45486,1.4173 m 1.9639,1.13388 2.45486,1.41733 m 1.9639,1.13385 2.4549,1.41733 m 1.96389,1.13385 2.45487,1.41733 m 1.9639,1.13385 2.45489,1.41732 m 1.9639,1.13385 2.45486,1.41733 m 1.9639,1.13385 2.45486,1.41733 m 1.96393,1.13385 2.45487,1.41733 m 1.9639,1.13385 2.45486,1.41733 m 1.9639,1.13385 2.45489,1.41732 m 1.9639,1.13388 2.45486,1.4173 m 1.9639,1.13388 2.4549,1.41733 m 1.9639,1.13385 2.45486,1.41733 m 1.9639,1.13385 2.45486,1.41733 m 1.96393,1.13385 2.45486,1.41732 m 1.9639,1.13385 2.45487,1.41733 m 1.96389,1.13385 2.4549,1.41733 m 1.9639,1.13385 1.48822,0.85922 M 112.25581,149.02084 v 0 m 100.21987,57.86194 v 0 m 0.92654,-0.53491 2.45487,-1.41733 m 1.96389,-1.13388 2.4549,-1.4173 m 1.9639,-1.13388 2.45486,-1.41729 m 1.9639,-1.13388 2.45486,-1.41733 m 1.96393,-1.13385 2.45487,-1.41733 m 1.96389,-1.13385 2.45487,-1.41733 m 1.9639,-1.13385 2.45489,-1.41733 m 1.9639,-1.13385 2.45486,-1.41732 m 1.9639,-1.13385 2.4549,-1.41733 m 1.96389,-1.13385 2.45487,-1.41733 m 1.9639,-1.13385 2.45486,-1.41733 m 1.9639,-1.13388 2.45489,-1.4173 m 1.9639,-1.13388 2.45487,-1.41732 m 1.96389,-1.13385 2.4549,-1.41733 m 1.9639,-1.13385 2.45486,-1.41733 m 1.9639,-1.13385 2.45486,-1.41733 m 1.9639,-1.13385 2.4549,-1.41733 m 1.96389,-1.13385 2.45487,-1.41732"
       style="fill:none;stroke:#000000;stroke-width:0.3685;stroke-linecap:round;stroke-linejoin:round;stroke-miterlimit:10;stroke-dasharray:none;stroke-opacity:1"
       transform="matrix(1.3333333,0,0,-1.3333333,0,291.024)" />
    <path
       id="path6"
       d="m 292.94016,160.42664 2.45489,-1.41733 m 1.9639,-1.13385 2.45486,-1.41733 m 1.9639,-1.13388 2.45489,-1.4173 m 1.9639,-1.13388 2.45487,-1.4173 m 1.96389,-1.13388 2.08027,-1.20102 m -100.21985,57.86194 v 0 m 100.21985,-57.86194 v 0 M 112.25581,90.95059 v 37.03166 M 212.47568,33.08864 v 37.03165 l -100.21987,57.86196 m 0,-37.03166 100.21987,-57.86195 m -100.21987,94.89361 18.21999,10.51931 M 312.69553,90.95059 v 37.03166 L 212.47568,70.12029 m 81.99988,68.38127 18.21997,-10.51931 M 212.47568,33.08864 312.69553,90.95059 M 112.25581,60.65407 v 9.25792 M 212.47568,2.79211 v 9.25791 L 112.25581,69.91199 m 0,-9.25792 L 212.47568,2.79211 M 112.25581,69.91199 130.4758,80.43129 M 312.69553,60.65407 v 9.25792 L 212.47568,12.05002 m 81.99988,68.38127 18.21997,-10.5193 M 212.47568,2.79211 312.69553,60.65407 m -200.43972,88.3668 v 9.25791 M 212.47568,91.15891 v 9.2579 l -100.21987,57.86197 m 0,-9.25791 100.21987,-57.86196 m -100.21987,67.11987 100.21987,57.86197 m 100.21985,-67.11988 v 9.25791 L 212.47568,100.41681 m 0,115.72394 100.21985,-57.86197 M 212.47568,91.15891 312.69553,149.02087"
       style="fill:none;stroke:#000000;stroke-width:0.3685;stroke-linecap:round;stroke-linejoin:round;stroke-miterlimit:10;stroke-dasharray:none;stroke-opacity:1"
       transform="matrix(1.3333333,0,0,-1.3333333,0,291.024)" />
    <text
       id="text6"
       xml:space="preserve"
       transform="matrix(1.3333333,0,0,1.3333333,319.85849,108.22948)"
       clip-path="url(#clipPath7)"><tspan
         style="font-style:italic;font-variant:normal;font-weight:normal;font-stretch:normal;font-size:10.0071px;font-family:'Palatino Linotype';writing-mode:lr-tb;fill:#000000;fill-opacity:1;fill-rule:nonzero;stroke:none"
         x="0"
         y="0"
         id="tspan6">m</tspan></text>
    <text
       id="text7"
       xml:space="preserve"
       transform="matrix(1.3333333,0,0,1.3333333,331.97443,113.74128)"
       clip-path="url(#clipPath8)"><tspan
         style="font-style:italic;font-variant:normal;font-weight:normal;font-stretch:normal;font-size:6.00428px;font-family:'Palatino Linotype';writing-mode:lr-tb;fill:#000000;fill-opacity:1;fill-rule:nonzero;stroke:none"
         x="0 3.00214 6.0042801"
         y="0"
         sodipodi:role="line"
         id="tspan7">yx </tspan></text>
    <text
       id="text8"
       xml:space="preserve"
       transform="matrix(1.3333333,0,0,1.3333333,342.86268,108.22948)"
       clip-path="url(#clipPath9)"><tspan
         style="font-style:italic;font-variant:normal;font-weight:normal;font-stretch:normal;font-size:10.0071px;font-family:'Palatino Linotype';writing-mode:lr-tb;fill:#000000;fill-opacity:1;fill-rule:nonzero;stroke:none"
         x="0 2.9621105 5.4638929"
         y="0"
         sodipodi:role="line"
         id="tspan8">/ d</tspan></text>
    <text
       id="text9"
       xml:space="preserve"
       transform="matrix(1.3333333,0,0,1.3333333,359.07311,113.74128)"
       clip-path="url(#clipPath10)"><tspan
         style="font-style:italic;font-variant:normal;font-weight:normal;font-stretch:normal;font-size:6.00428px;font-family:'Palatino Linotype';writing-mode:lr-tb;fill:#000000;fill-opacity:1;fill-rule:nonzero;stroke:none"
         x="0"
         y="0"
         id="tspan9">v</tspan></text>
    <text
       id="text10"
       xml:space="preserve"
       transform="matrix(1.3333333,0,0,1.3333333,325.86804,225.52255)"
       clip-path="url(#clipPath11)"><tspan
         style="font-style:italic;font-variant:normal;font-weight:normal;font-stretch:normal;font-size:10.0071px;font-family:'Palatino Linotype';writing-mode:lr-tb;fill:#000000;fill-opacity:1;fill-rule:nonzero;stroke:none"
         x="0"
         y="0"
         id="tspan10">m</tspan></text>
    <text
       id="text11"
       xml:space="preserve"
       transform="matrix(1.3333333,0,0,1.3333333,337.98397,231.03436)"
       clip-path="url(#clipPath12)"><tspan
         style="font-style:italic;font-variant:normal;font-weight:normal;font-stretch:normal;font-size:6.00428px;font-family:'Palatino Linotype';writing-mode:lr-tb;fill:#000000;fill-opacity:1;fill-rule:nonzero;stroke:none"
         x="0 3.00214 6.0042801"
         y="0"
         sodipodi:role="line"
         id="tspan11">yx </tspan></text>
    <text
       id="text12"
       xml:space="preserve"
       transform="matrix(1.3333333,0,0,1.3333333,348.87224,225.52255)"
       clip-path="url(#clipPath13)"><tspan
         style="font-style:italic;font-variant:normal;font-weight:normal;font-stretch:normal;font-size:10.0071px;font-family:'Palatino Linotype';writing-mode:lr-tb;fill:#000000;fill-opacity:1;fill-rule:nonzero;stroke:none"
         x="0 2.9621105 5.4638929"
         y="0"
         sodipodi:role="line"
         id="tspan12">/ d</tspan></text>
    <text
       id="text13"
       xml:space="preserve"
       transform="matrix(1.3333333,0,0,1.3333333,365.08267,231.03436)"
       clip-path="url(#clipPath14)"><tspan
         style="font-style:italic;font-variant:normal;font-weight:normal;font-stretch:normal;font-size:6.00428px;font-family:'Palatino Linotype';writing-mode:lr-tb;fill:#000000;fill-opacity:1;fill-rule:nonzero;stroke:none"
         x="0"
         y="0"
         id="tspan13">v</tspan></text>
    <text
       id="text14"
       xml:space="preserve"
       transform="matrix(1.3333333,0,0,1.3333333,217.53781,117.38399)"
       clip-path="url(#clipPath15)"><tspan
         style="font-style:italic;font-variant:normal;font-weight:normal;font-stretch:normal;font-size:10.0071px;font-family:'Palatino Linotype';writing-mode:lr-tb;fill:#000000;fill-opacity:1;fill-rule:nonzero;stroke:none"
         x="0"
         y="0"
         id="tspan14">m</tspan></text>
    <text
       id="text15"
       xml:space="preserve"
       transform="matrix(1.3333333,0,0,1.3333333,229.65375,122.8958)"
       clip-path="url(#clipPath16)"><tspan
         style="font-style:italic;font-variant:normal;font-weight:normal;font-stretch:normal;font-size:6.00428px;font-family:'Palatino Linotype';writing-mode:lr-tb;fill:#000000;fill-opacity:1;fill-rule:nonzero;stroke:none"
         x="0 3.00214 6.0042801"
         y="0"
         sodipodi:role="line"
         id="tspan15">xy </tspan></text>
    <text
       id="text16"
       xml:space="preserve"
       transform="matrix(1.3333333,0,0,1.3333333,240.542,117.38399)"
       clip-path="url(#clipPath17)"><tspan
         style="font-style:italic;font-variant:normal;font-weight:normal;font-stretch:normal;font-size:10.0071px;font-family:'Palatino Linotype';writing-mode:lr-tb;fill:#000000;fill-opacity:1;fill-rule:nonzero;stroke:none"
         x="0 2.9621105 5.4638929"
         y="0"
         sodipodi:role="line"
         id="tspan16">/ d</tspan></text>
    <text
       id="text17"
       xml:space="preserve"
       transform="matrix(1.3333333,0,0,1.3333333,256.75243,122.8958)"
       clip-path="url(#clipPath18)"><tspan
         style="font-style:italic;font-variant:normal;font-weight:normal;font-stretch:normal;font-size:6.00428px;font-family:'Palatino Linotype';writing-mode:lr-tb;fill:#000000;fill-opacity:1;fill-rule:nonzero;stroke:none"
         x="0"
         y="0"
         id="tspan17">v</tspan></text>
    <text
       id="text18"
       xml:space="preserve"
       transform="matrix(1.3333333,0,0,1.3333333,215.00104,230.89941)"
       clip-path="url(#clipPath19)"><tspan
         style="font-style:italic;font-variant:normal;font-weight:normal;font-stretch:normal;font-size:10.0071px;font-family:'Palatino Linotype';writing-mode:lr-tb;fill:#000000;fill-opacity:1;fill-rule:nonzero;stroke:none"
         x="0"
         y="0"
         id="tspan18">m</tspan></text>
    <text
       id="text19"
       xml:space="preserve"
       transform="matrix(1.3333333,0,0,1.3333333,227.11697,236.41123)"
       clip-path="url(#clipPath20)"><tspan
         style="font-style:italic;font-variant:normal;font-weight:normal;font-stretch:normal;font-size:6.00428px;font-family:'Palatino Linotype';writing-mode:lr-tb;fill:#000000;fill-opacity:1;fill-rule:nonzero;stroke:none"
         x="0 3.00214 6.0042801"
         y="0"
         sodipodi:role="line"
         id="tspan19">xy </tspan></text>
    <text
       id="text20"
       xml:space="preserve"
       transform="matrix(1.3333333,0,0,1.3333333,238.00523,230.89941)"
       clip-path="url(#clipPath21)"><tspan
         style="font-style:italic;font-variant:normal;font-weight:normal;font-stretch:normal;font-size:10.0071px;font-family:'Palatino Linotype';writing-mode:lr-tb;fill:#000000;fill-opacity:1;fill-rule:nonzero;stroke:none"
         x="0 2.9621105 5.4638929"
         y="0"
         sodipodi:role="line"
         id="tspan20">/ d</tspan></text>
    <text
       id="text21"
       xml:space="preserve"
       transform="matrix(1.3333333,0,0,1.3333333,254.21564,236.41123)"
       clip-path="url(#clipPath22)"><tspan
         style="font-style:italic;font-variant:normal;font-weight:normal;font-stretch:normal;font-size:6.00428px;font-family:'Palatino Linotype';writing-mode:lr-tb;fill:#000000;fill-opacity:1;fill-rule:nonzero;stroke:none"
         x="0"
         y="0"
         id="tspan21">v</tspan></text>
    <path
       id="path23"
       d="m 351.16675,65.28304 -0.4252,2.97637 h 0.85037 l -0.42517,-2.97637 m 0,88.36677 -0.4252,-2.97638 h 0.85037 l -0.42517,2.97638 m 0,-88.36677 h -2.12601 m 2.12601,0 h 2.12597 m -2.12597,88.36677 h -2.12601 m 2.12601,0 h 2.12597 m -2.12597,-88.36677 h -35.63657 m 35.63657,88.36677 h -35.63657 m 35.63657,-88.36677 v 0 m 0,88.36677 v 0 m 0,-88.36677 v 88.36677 M 274.85999,43.43866 250.31122,29.26543 m 5.15524,2.97638 0.36823,0.2126 m -5.52347,-3.18898 v 0 l 5.58044,2.23993 -0.8504,1.47291 -4.73004,-3.71284"
       style="fill:none;stroke:#000000;stroke-width:0.3685;stroke-linecap:round;stroke-linejoin:round;stroke-miterlimit:10;stroke-dasharray:none;stroke-opacity:1"
       transform="matrix(1.3333333,0,0,-1.3333333,0,291.024)" />
    <path
       id="path24"
       d="m 255.04126,32.97827 -4.73004,-3.71284 5.58044,2.23993 z"
       style="fill:#000000;fill-opacity:1;fill-rule:nonzero;stroke:none"
       transform="matrix(1.3333333,0,0,-1.3333333,0,291.024)" />
    <path
       id="path25"
       d="m 274.85999,131.80545 -24.54877,-14.17323 m 19.39352,11.19685 -0.36822,-0.21258 m 5.52347,3.18896 v 0 l -4.73005,-3.71283 -0.8504,1.4729 5.58045,2.23993"
       style="fill:none;stroke:#000000;stroke-width:0.3685;stroke-linecap:round;stroke-linejoin:round;stroke-miterlimit:10;stroke-dasharray:none;stroke-opacity:1"
       transform="matrix(1.3333333,0,0,-1.3333333,0,291.024)" />
    <path
       id="path26"
       d="m 269.27954,129.56552 0.8504,-1.4729 4.73005,3.71283 z"
       style="fill:#000000;fill-opacity:1;fill-rule:nonzero;stroke:none"
       transform="matrix(1.3333333,0,0,-1.3333333,0,291.024)" />
    <path
       id="path27"
       d="m 150.09137,131.80545 24.54877,-14.17323 m -19.39353,11.19685 0.36823,-0.21258 m -5.52347,3.18896 v 0 l 5.58044,-2.2399 -0.8504,-1.47293 -4.73004,3.71283"
       style="fill:none;stroke:#000000;stroke-width:0.3685;stroke-linecap:round;stroke-linejoin:round;stroke-miterlimit:10;stroke-dasharray:none;stroke-opacity:1"
       transform="matrix(1.3333333,0,0,-1.3333333,0,291.024)" />
    <path
       id="path28"
       d="m 154.82141,128.09262 0.8504,1.47293 -5.58044,2.2399 z"
       style="fill:#000000;fill-opacity:1;fill-rule:nonzero;stroke:none"
       transform="matrix(1.3333333,0,0,-1.3333333,0,291.024)" />
    <path
       id="path29"
       d="m 150.09137,43.43866 24.54877,-14.17323 m -5.15525,2.97638 -0.36822,0.2126 m 5.52347,-3.18898 v 0 l -4.73004,3.71284 -0.85041,-1.47291 5.58045,-2.23993"
       style="fill:none;stroke:#000000;stroke-width:0.3685;stroke-linecap:round;stroke-linejoin:round;stroke-miterlimit:10;stroke-dasharray:none;stroke-opacity:1"
       transform="matrix(1.3333333,0,0,-1.3333333,0,291.024)" />
    <path
       id="path30"
       d="m 169.05969,31.50536 5.58045,-2.23993 -4.73004,3.71284 z"
       style="fill:#000000;fill-opacity:1;fill-rule:nonzero;stroke:none"
       transform="matrix(1.3333333,0,0,-1.3333333,0,291.024)" />
    <text
       id="text30"
       xml:space="preserve"
       transform="matrix(1.3333333,0,0,1.3333333,450.20995,145.23987)"
       clip-path="url(#clipPath31)"><tspan
         style="font-style:italic;font-variant:normal;font-weight:normal;font-stretch:normal;font-size:10.0071px;font-family:'Palatino Linotype';writing-mode:lr-tb;fill:#000000;fill-opacity:1;fill-rule:nonzero;stroke:none"
         x="0"
         y="0"
         id="tspan30">d</tspan></text>
    <text
       id="text31"
       xml:space="preserve"
       transform="matrix(1.3333333,0,0,1.3333333,458.59327,150.75167)"
       clip-path="url(#clipPath32)"><tspan
         style="font-style:italic;font-variant:normal;font-weight:normal;font-stretch:normal;font-size:6.00428px;font-family:'Palatino Linotype';writing-mode:lr-tb;fill:#000000;fill-opacity:1;fill-rule:nonzero;stroke:none"
         x="0"
         y="0"
         id="tspan31">v</tspan></text>
  </g>
</svg>
