<?xml version="1.0" encoding="UTF-8" standalone="no"?>
<!-- Created with Inkscape (http://www.inkscape.org/) -->

<svg
   version="1.1"
   id="svg1"
   width="566.92932"
   height="207.87466"
   viewBox="0 0 566.92932 207.87466"
   sodipodi:docname="allg_dehnung.pdf"
   xmlns:inkscape="http://www.inkscape.org/namespaces/inkscape"
   xmlns:sodipodi="http://sodipodi.sourceforge.net/DTD/sodipodi-0.dtd"
   xmlns="http://www.w3.org/2000/svg"
   xmlns:svg="http://www.w3.org/2000/svg">
  <defs
     id="defs1">
    <clipPath
       clipPathUnits="userSpaceOnUse"
       id="clipPath5">
      <path
         d="M -0.00426,-0.00156 V 155.90707 H 425.20111 V -0.00156 H -0.00426"
         transform="matrix(1,0,0,-1,-94.232192,19.596373)"
         clip-rule="evenodd"
         id="path5" />
    </clipPath>
    <clipPath
       clipPathUnits="userSpaceOnUse"
       id="clipPath6">
      <path
         d="M -0.00426,-0.00156 V 155.90707 H 425.20111 V -0.00156 H -0.00426"
         transform="matrix(1,0,0,-1,-108.17061,132.44706)"
         clip-rule="evenodd"
         id="path6" />
    </clipPath>
    <clipPath
       clipPathUnits="userSpaceOnUse"
       id="clipPath7">
      <path
         d="M -0.00426,-0.00156 V 155.90707 H 425.20111 V -0.00156 H -0.00426"
         transform="matrix(1,0,0,-1,-108.11157,122.24234)"
         clip-rule="evenodd"
         id="path7" />
    </clipPath>
    <clipPath
       clipPathUnits="userSpaceOnUse"
       id="clipPath8">
      <path
         d="M -0.00426,-0.00156 V 155.90707 H 425.20111 V -0.00156 H -0.00426"
         transform="matrix(1,0,0,-1,-306.77973,18.633538)"
         clip-rule="evenodd"
         id="path8" />
    </clipPath>
    <clipPath
       clipPathUnits="userSpaceOnUse"
       id="clipPath9">
      <path
         d="M -0.00426,-0.00156 V 155.90707 H 425.20111 V -0.00156 H -0.00426"
         transform="matrix(1,0,0,-1,-171.82998,22.855693)"
         clip-rule="evenodd"
         id="path9" />
    </clipPath>
    <clipPath
       clipPathUnits="userSpaceOnUse"
       id="clipPath10">
      <path
         d="M -0.00426,-0.00156 V 155.90707 H 425.20111 V -0.00156 H -0.00426"
         transform="matrix(1,0,0,-1,-306.06616,99.405013)"
         clip-rule="evenodd"
         id="path10" />
    </clipPath>
    <clipPath
       clipPathUnits="userSpaceOnUse"
       id="clipPath11">
      <path
         d="M -0.00426,-0.00156 V 155.90707 H 425.20111 V -0.00156 H -0.00426"
         transform="matrix(1,0,0,-1,-314.43335,99.405013)"
         clip-rule="evenodd"
         id="path11" />
    </clipPath>
    <clipPath
       clipPathUnits="userSpaceOnUse"
       id="clipPath12">
      <path
         d="M -0.00426,-0.00156 V 155.90707 H 425.20111 V -0.00156 H -0.00426"
         transform="matrix(1,0,0,-1,-306.06616,85.231792)"
         clip-rule="evenodd"
         id="path12" />
    </clipPath>
    <clipPath
       clipPathUnits="userSpaceOnUse"
       id="clipPath13">
      <path
         d="M -0.00426,-0.00156 V 155.90707 H 425.20111 V -0.00156 H -0.00426"
         transform="matrix(1,0,0,-1,-314.43335,85.231792)"
         clip-rule="evenodd"
         id="path13" />
    </clipPath>
    <clipPath
       clipPathUnits="userSpaceOnUse"
       id="clipPath14">
      <path
         d="M -0.00426,-0.00156 V 155.90707 H 425.20111 V -0.00156 H -0.00426"
         transform="matrix(1,0,0,-1,-323.02652,92.760613)"
         clip-rule="evenodd"
         id="path14" />
    </clipPath>
    <clipPath
       clipPathUnits="userSpaceOnUse"
       id="clipPath15">
      <path
         d="M -0.00426,-0.00156 V 155.90707 H 425.20111 V -0.00156 H -0.00426"
         transform="matrix(1,0,0,-1,-290.14462,92.760613)"
         clip-rule="evenodd"
         id="path15" />
    </clipPath>
    <clipPath
       clipPathUnits="userSpaceOnUse"
       id="clipPath17">
      <path
         d="M -0.00426,-0.00156 V 155.90707 H 425.20111 V -0.00156 H -0.00426"
         transform="matrix(1,0,0,-1,-285.20848,35.607373)"
         clip-rule="evenodd"
         id="path17" />
    </clipPath>
    <clipPath
       clipPathUnits="userSpaceOnUse"
       id="clipPath19">
      <path
         d="M -0.00426,-0.00156 V 155.90707 H 425.20111 V -0.00156 H -0.00426"
         transform="matrix(1,0,0,-1,-117.35358,58.101599)"
         clip-rule="evenodd"
         id="path19" />
    </clipPath>
    <clipPath
       clipPathUnits="userSpaceOnUse"
       id="clipPath20">
      <path
         d="M -0.00426,-0.00156 V 155.90707 H 425.20111 V -0.00156 H -0.00426"
         transform="matrix(1,0,0,-1,-145.61398,2.4944601)"
         clip-rule="evenodd"
         id="path20" />
    </clipPath>
    <clipPath
       clipPathUnits="userSpaceOnUse"
       id="clipPath22">
      <path
         d="M -0.00426,-0.00156 V 155.90707 H 425.20111 V -0.00156 H -0.00426"
         transform="matrix(1,0,0,-1,-219.69343,136.85163)"
         clip-rule="evenodd"
         id="path22" />
    </clipPath>
    <clipPath
       clipPathUnits="userSpaceOnUse"
       id="clipPath23">
      <path
         d="M -0.00426,-0.00156 V 155.90707 H 425.20111 V -0.00156 H -0.00426"
         transform="matrix(1,0,0,-1,-235.61499,143.49604)"
         clip-rule="evenodd"
         id="path23" />
    </clipPath>
    <clipPath
       clipPathUnits="userSpaceOnUse"
       id="clipPath24">
      <path
         d="M -0.00426,-0.00156 V 155.90707 H 425.20111 V -0.00156 H -0.00426"
         transform="matrix(1,0,0,-1,-243.98218,143.49604)"
         clip-rule="evenodd"
         id="path24" />
    </clipPath>
    <clipPath
       clipPathUnits="userSpaceOnUse"
       id="clipPath25">
      <path
         d="M -0.00426,-0.00156 V 155.90707 H 425.20111 V -0.00156 H -0.00426"
         transform="matrix(1,0,0,-1,-235.61499,129.32281)"
         clip-rule="evenodd"
         id="path25" />
    </clipPath>
    <clipPath
       clipPathUnits="userSpaceOnUse"
       id="clipPath26">
      <path
         d="M -0.00426,-0.00156 V 155.90707 H 425.20111 V -0.00156 H -0.00426"
         transform="matrix(1,0,0,-1,-243.98218,129.32281)"
         clip-rule="evenodd"
         id="path26" />
    </clipPath>
    <clipPath
       clipPathUnits="userSpaceOnUse"
       id="clipPath27">
      <path
         d="M -0.00426,-0.00156 V 155.90707 H 425.20111 V -0.00156 H -0.00426"
         transform="matrix(1,0,0,-1,-252.57535,136.85163)"
         clip-rule="evenodd"
         id="path27" />
    </clipPath>
  </defs>
  <sodipodi:namedview
     id="namedview1"
     pagecolor="#ffffff"
     bordercolor="#000000"
     borderopacity="0.25"
     inkscape:showpageshadow="2"
     inkscape:pageopacity="0.0"
     inkscape:pagecheckerboard="0"
     inkscape:deskcolor="#d1d1d1">
    <inkscape:page
       x="0"
       y="0"
       inkscape:label="1"
       id="page1"
       width="566.92932"
       height="207.87466"
       margin="0"
       bleed="0" />
  </sodipodi:namedview>
  <g
     id="layer-MC0"
     inkscape:groupmode="layer"
     inkscape:label="STABBEANSPR_DIAG">
    <path
       id="path1"
       d="M 166.4819,100.94333 V 44.25041 h 90.70865 v 56.69292 z"
       style="fill:#e0e0e0;fill-opacity:1;fill-rule:nonzero;stroke:none"
       transform="matrix(1.3333333,0,0,-1.3333333,0,207.87467)" />
  </g>
  <path
     id="path2"
     d="m 114.80315,20.84532 h 2.83465 m 4.8189,0 h 1.30447 m -11.5092,0 h 0.28346 m 7.37009,0 h 0.28346 m -9.18372,0 v 0 m 12.75591,0 v 0"
     style="fill:none;stroke:#000000;stroke-width:0.3685;stroke-linecap:round;stroke-linejoin:round;stroke-miterlimit:10;stroke-dasharray:none;stroke-opacity:1"
     transform="matrix(1.3333333,0,0,-1.3333333,0,207.87467)" />
  <path
     id="path3"
     d="m 112.42258,20.84532 c 0,0.78276 -0.63456,1.41731 -1.41732,1.41731 m 0,0 c -0.78277,0 -1.41732,-0.63455 -1.41732,-1.41731 m 0,0 c 0,-0.78277 0.63455,-1.41733 1.41732,-1.41733 m 0,0 c 0.78276,0 1.41732,0.63456 1.41732,1.41733"
     style="fill:none;stroke:#000000;stroke-width:0.3685;stroke-linecap:round;stroke-linejoin:round;stroke-miterlimit:10;stroke-dasharray:none;stroke-opacity:1"
     transform="matrix(1.3333333,0,0,-1.3333333,0,207.87467)" />
  <path
     id="path4"
     d="m 130.84778,88.87682 h 90.70868 V 32.1839 h -90.70868 v 56.69292 m 35.63412,12.06651 h 90.70865 V 44.25041 H 166.4819 v 56.69292 m 141.09656,-4.73239 h 11.33856 m -81.78973,44.09103 h 11.33856"
     style="fill:none;stroke:#000000;stroke-width:0.3685;stroke-linecap:round;stroke-linejoin:round;stroke-miterlimit:10;stroke-dasharray:none;stroke-opacity:1"
     transform="matrix(1.3333333,0,0,-1.3333333,0,207.87467)" />
  <text
     id="text4"
     xml:space="preserve"
     transform="matrix(1.3333333,0,0,1.3333333,125.64292,181.74617)"
     clip-path="url(#clipPath5)"><tspan
       style="font-style:italic;font-variant:normal;font-weight:normal;font-stretch:normal;font-size:10.0071px;font-family:'Palatino Linotype';writing-mode:lr-tb;fill:#000000;fill-opacity:1;fill-rule:nonzero;stroke:none"
       x="0 4.4431658 6.9449482"
       y="0"
       sodipodi:role="line"
       id="tspan4">z w</tspan></text>
  <text
     id="text5"
     xml:space="preserve"
     transform="matrix(1.3333333,0,0,1.3333333,144.22748,31.278587)"
     clip-path="url(#clipPath6)"><tspan
       style="font-style:italic;font-variant:normal;font-weight:normal;font-stretch:normal;font-size:10.0071px;font-family:'Palatino Linotype';writing-mode:lr-tb;fill:#000000;fill-opacity:1;fill-rule:nonzero;stroke:none"
       x="0"
       y="0"
       id="tspan5">y</tspan></text>
  <text
     id="text6"
     xml:space="preserve"
     transform="matrix(1.3333333,0,0,1.3333333,144.14875,44.88488)"
     clip-path="url(#clipPath7)"><tspan
       style="font-style:italic;font-variant:normal;font-weight:normal;font-stretch:normal;font-size:10.0071px;font-family:'Palatino Linotype';writing-mode:lr-tb;fill:#000000;fill-opacity:1;fill-rule:nonzero;stroke:none"
       x="0"
       y="0"
       id="tspan6">v</tspan></text>
  <text
     id="text7"
     xml:space="preserve"
     transform="matrix(1.3333333,0,0,1.3333333,409.03963,183.02995)"
     clip-path="url(#clipPath8)"><tspan
       style="font-style:italic;font-variant:normal;font-weight:normal;font-stretch:normal;font-size:10.0071px;font-family:'Palatino Linotype';writing-mode:lr-tb;fill:#000000;fill-opacity:1;fill-rule:nonzero;stroke:none"
       x="0 5.0035648 7.5053477 13.069312"
       y="0"
       sodipodi:role="line"
       id="tspan7">x u </tspan></text>
  <text
     id="text8"
     xml:space="preserve"
     transform="matrix(1.3333333,0,0,1.3333333,229.10663,177.40041)"
     clip-path="url(#clipPath9)"><tspan
       style="font-style:italic;font-variant:normal;font-weight:normal;font-stretch:normal;font-size:10.0071px;font-family:'Palatino Linotype';writing-mode:lr-tb;fill:#000000;fill-opacity:1;fill-rule:nonzero;stroke:none"
       x="0 5.0035648"
       y="0"
       sodipodi:role="line"
       id="tspan8">dx</tspan></text>
  <text
     id="text9"
     xml:space="preserve"
     transform="matrix(1.3333333,0,0,1.3333333,408.0882,75.334653)"
     clip-path="url(#clipPath10)"><tspan
       style="font-variant:normal;font-weight:normal;font-stretch:normal;font-size:10.616px;font-family:'Cambria Math';writing-mode:lr-tb;fill:#000000;fill-opacity:1;fill-rule:nonzero;stroke:none"
       x="0"
       y="0"
       id="tspan9">∂</tspan></text>
  <text
     id="text10"
     xml:space="preserve"
     transform="matrix(1.3333333,0,0,1.3333333,419.24445,75.334653)"
     clip-path="url(#clipPath11)"><tspan
       style="font-style:italic;font-variant:normal;font-weight:normal;font-stretch:normal;font-size:10.0071px;font-family:'Palatino Linotype';writing-mode:lr-tb;fill:#000000;fill-opacity:1;fill-rule:nonzero;stroke:none"
       x="0"
       y="0"
       id="tspan10">v</tspan></text>
  <text
     id="text11"
     xml:space="preserve"
     transform="matrix(1.3333333,0,0,1.3333333,408.0882,94.23228)"
     clip-path="url(#clipPath12)"><tspan
       style="font-variant:normal;font-weight:normal;font-stretch:normal;font-size:10.616px;font-family:'Cambria Math';writing-mode:lr-tb;fill:#000000;fill-opacity:1;fill-rule:nonzero;stroke:none"
       x="0"
       y="0"
       id="tspan11">∂</tspan></text>
  <text
     id="text12"
     xml:space="preserve"
     transform="matrix(1.3333333,0,0,1.3333333,419.24445,94.23228)"
     clip-path="url(#clipPath13)"><tspan
       style="font-style:italic;font-variant:normal;font-weight:normal;font-stretch:normal;font-size:10.0071px;font-family:'Palatino Linotype';writing-mode:lr-tb;fill:#000000;fill-opacity:1;fill-rule:nonzero;stroke:none"
       x="0"
       y="0"
       id="tspan12">y</tspan></text>
  <text
     id="text13"
     xml:space="preserve"
     transform="matrix(1.3333333,0,0,1.3333333,430.70201,84.193853)"
     clip-path="url(#clipPath14)"><tspan
       style="font-style:italic;font-variant:normal;font-weight:normal;font-stretch:normal;font-size:10.0071px;font-family:'Palatino Linotype';writing-mode:lr-tb;fill:#000000;fill-opacity:1;fill-rule:nonzero;stroke:none"
       x="0 5.0035648"
       y="0"
       sodipodi:role="line"
       id="tspan13">dy</tspan></text>
  <text
     id="text14"
     xml:space="preserve"
     transform="matrix(1.3333333,0,0,1.3333333,386.85949,84.193853)"
     clip-path="url(#clipPath15)"><tspan
       style="font-style:italic;font-variant:normal;font-weight:normal;font-stretch:normal;font-size:10.0071px;font-family:'Palatino Linotype';writing-mode:lr-tb;fill:#000000;fill-opacity:1;fill-rule:nonzero;stroke:none"
       x="0 5.0035648 7.5053477 12.508912"
       y="0"
       sodipodi:role="line"
       id="tspan14">v + </tspan></text>
  <path
     id="path16"
     d="m 281.46216,32.1839 -0.4252,2.97638 h 0.8504 l -0.4252,-2.97638 m 0,12.06651 -0.4252,-2.97638 h 0.8504 l -0.4252,2.97638 m 0,-12.06651 h -2.12598 m 2.12598,0 h 2.12597 m -2.12597,12.06651 h -2.12598 m 2.12598,0 h 2.12597 M 281.46216,32.1839 h -51.40177 m 51.40177,12.06651 H 265.69449 M 281.46216,32.1839 v 0 m 0,12.06651 v 0 m 0,-12.06651 v 12.06651"
     style="fill:none;stroke:#000000;stroke-width:0.3685;stroke-linecap:round;stroke-linejoin:round;stroke-miterlimit:10;stroke-dasharray:none;stroke-opacity:1"
     transform="matrix(1.3333333,0,0,-1.3333333,0,207.87467)" />
  <text
     id="text16"
     xml:space="preserve"
     transform="matrix(1.3333333,0,0,1.3333333,380.27796,160.39817)"
     clip-path="url(#clipPath17)"><tspan
       style="font-style:italic;font-variant:normal;font-weight:normal;font-stretch:normal;font-size:10.0071px;font-family:'Palatino Linotype';writing-mode:lr-tb;fill:#000000;fill-opacity:1;fill-rule:nonzero;stroke:none"
       x="0"
       y="0"
       id="tspan16">v</tspan></text>
  <path
     id="path18"
     d="m 281.46216,88.87682 -0.4252,2.97638 h 0.8504 l -0.4252,-2.97638 m 0,12.06651 -0.4252,-2.97638 h 0.8504 l -0.4252,2.97638 m 0,-12.06651 h -2.12598 m 2.12598,0 h 2.12597 m -2.12597,12.06651 h -2.12598 m 2.12598,0 h 2.12597 m -2.12597,-12.06651 h -51.40177 m 51.40177,12.06651 h -15.76767 m 15.76767,-12.06651 v 0 m 0,12.06651 v 0 m 0,-12.06651 v 12.06651"
     style="fill:none;stroke:#000000;stroke-width:0.3685;stroke-linecap:round;stroke-linejoin:round;stroke-miterlimit:10;stroke-dasharray:none;stroke-opacity:1"
     transform="matrix(1.3333333,0,0,-1.3333333,0,207.87467)" />
  <text
     id="text18"
     xml:space="preserve"
     transform="matrix(1.3333333,0,0,1.3333333,156.47144,130.40587)"
     clip-path="url(#clipPath19)"><tspan
       style="font-style:italic;font-variant:normal;font-weight:normal;font-stretch:normal;font-size:10.0071px;font-family:'Palatino Linotype';writing-mode:lr-tb;fill:#000000;fill-opacity:1;fill-rule:nonzero;stroke:none"
       x="0 5.0035648"
       y="0"
       sodipodi:role="line"
       id="tspan18">dy</tspan></text>
  <text
     id="text19"
     xml:space="preserve"
     transform="matrix(1.3333333,0,0,1.3333333,194.15197,204.54872)"
     clip-path="url(#clipPath20)"><tspan
       style="font-style:italic;font-variant:normal;font-weight:normal;font-stretch:normal;font-size:10.0071px;font-family:'Palatino Linotype';writing-mode:lr-tb;fill:#000000;fill-opacity:1;fill-rule:nonzero;stroke:none"
       x="0"
       y="0"
       id="tspan19">u</tspan></text>
  <path
     id="path21"
     d="m 130.84778,10.46544 2.97638,0.42518 v -0.85038 l -2.97638,0.4252 m 35.63412,0 -2.97638,0.42518 v -0.85038 l 2.97638,0.4252 m -35.63412,0 v 2.12598 m 0,-2.12598 V 8.33946 m 35.63412,2.12598 v 2.12598 m 0,-2.12598 V 8.33946 m -35.63412,2.12598 V 23.67996 M 166.4819,10.46544 V 35.74648 M 130.84778,10.46544 v 0 m 35.63412,0 v 0 m -35.63412,0 h 35.63412 m 55.07456,115.58073 2.97638,0.4252 v -0.85038 l -2.97638,0.42518 m 35.63409,0 -2.97638,0.4252 v -0.85038 l 2.97638,0.42518 m -35.63409,0 v 2.12598 m 0,-2.12598 v -2.12597 m 35.63409,2.12597 v 2.12598 m 0,-2.12598 v -2.12597 m -35.63409,2.12597 V 97.38075 m 35.63409,28.66542 v -16.5989 m -35.63409,16.5989 v 0 m 35.63409,0 v 0 m -35.63409,0 h 35.63409"
     style="fill:none;stroke:#000000;stroke-width:0.3685;stroke-linecap:round;stroke-linejoin:round;stroke-miterlimit:10;stroke-dasharray:none;stroke-opacity:1"
     transform="matrix(1.3333333,0,0,-1.3333333,0,207.87467)" />
  <text
     id="text21"
     xml:space="preserve"
     transform="matrix(1.3333333,0,0,1.3333333,292.92457,25.405827)"
     clip-path="url(#clipPath22)"><tspan
       style="font-style:italic;font-variant:normal;font-weight:normal;font-stretch:normal;font-size:10.0071px;font-family:'Palatino Linotype';writing-mode:lr-tb;fill:#000000;fill-opacity:1;fill-rule:nonzero;stroke:none"
       x="0 5.5639644 8.0657463 13.069312"
       y="0"
       sodipodi:role="line"
       id="tspan21">u + </tspan></text>
  <text
     id="text22"
     xml:space="preserve"
     transform="matrix(1.3333333,0,0,1.3333333,314.15331,16.546613)"
     clip-path="url(#clipPath23)"><tspan
       style="font-variant:normal;font-weight:normal;font-stretch:normal;font-size:10.616px;font-family:'Cambria Math';writing-mode:lr-tb;fill:#000000;fill-opacity:1;fill-rule:nonzero;stroke:none"
       x="0"
       y="0"
       id="tspan22">∂</tspan></text>
  <text
     id="text23"
     xml:space="preserve"
     transform="matrix(1.3333333,0,0,1.3333333,325.30956,16.546613)"
     clip-path="url(#clipPath24)"><tspan
       style="font-style:italic;font-variant:normal;font-weight:normal;font-stretch:normal;font-size:10.0071px;font-family:'Palatino Linotype';writing-mode:lr-tb;fill:#000000;fill-opacity:1;fill-rule:nonzero;stroke:none"
       x="0"
       y="0"
       id="tspan23">u</tspan></text>
  <text
     id="text24"
     xml:space="preserve"
     transform="matrix(1.3333333,0,0,1.3333333,314.15331,35.444253)"
     clip-path="url(#clipPath25)"><tspan
       style="font-variant:normal;font-weight:normal;font-stretch:normal;font-size:10.616px;font-family:'Cambria Math';writing-mode:lr-tb;fill:#000000;fill-opacity:1;fill-rule:nonzero;stroke:none"
       x="0"
       y="0"
       id="tspan24">∂</tspan></text>
  <text
     id="text25"
     xml:space="preserve"
     transform="matrix(1.3333333,0,0,1.3333333,325.30956,35.444253)"
     clip-path="url(#clipPath26)"><tspan
       style="font-style:italic;font-variant:normal;font-weight:normal;font-stretch:normal;font-size:10.0071px;font-family:'Palatino Linotype';writing-mode:lr-tb;fill:#000000;fill-opacity:1;fill-rule:nonzero;stroke:none"
       x="0"
       y="0"
       id="tspan25">x</tspan></text>
  <text
     id="text26"
     xml:space="preserve"
     transform="matrix(1.3333333,0,0,1.3333333,336.76712,25.405827)"
     clip-path="url(#clipPath27)"><tspan
       style="font-style:italic;font-variant:normal;font-weight:normal;font-stretch:normal;font-size:10.0071px;font-family:'Palatino Linotype';writing-mode:lr-tb;fill:#000000;fill-opacity:1;fill-rule:nonzero;stroke:none"
       x="0 5.0035648"
       y="0"
       sodipodi:role="line"
       id="tspan26">dx</tspan></text>
  <path
     id="path28"
     d="m 111.00526,20.84532 v 97.00331 m 0,-5.95274 v -0.4252 m 0,6.37794 v 0 l -0.8504,-5.95274 h 1.70079 l -0.85039,5.95274"
     style="fill:none;stroke:#000000;stroke-width:0.3685;stroke-linecap:round;stroke-linejoin:round;stroke-miterlimit:10;stroke-dasharray:none;stroke-opacity:1"
     transform="matrix(1.3333333,0,0,-1.3333333,0,207.87467)" />
  <path
     id="path29"
     d="m 111.85565,111.89589 -0.85039,5.95274 -0.8504,-5.95274 z"
     style="fill:#000000;fill-opacity:1;fill-rule:nonzero;stroke:none"
     transform="matrix(1.3333333,0,0,-1.3333333,0,207.87467)" />
  <path
     id="path30"
     d="m 111.00526,20.84532 h 191.25127 m -5.95276,0 h -0.4252 m 6.37796,0 v 0 l -5.95276,0.85039 v -1.70078 l 5.95276,0.85039"
     style="fill:none;stroke:#000000;stroke-width:0.3685;stroke-linecap:round;stroke-linejoin:round;stroke-miterlimit:10;stroke-dasharray:none;stroke-opacity:1"
     transform="matrix(1.3333333,0,0,-1.3333333,0,207.87467)" />
  <path
     id="path31"
     d="m 296.30377,19.99493 5.95276,0.85039 -5.95276,0.85039 z"
     style="fill:#000000;fill-opacity:1;fill-rule:nonzero;stroke:none"
     transform="matrix(1.3333333,0,0,-1.3333333,0,207.87467)" />
</svg>
