<?xml version="1.0" encoding="UTF-8" standalone="no"?>
<!-- Created with Inkscape (http://www.inkscape.org/) -->

<svg
   version="1.1"
   id="svg1"
   width="566.92932"
   height="253.228"
   viewBox="0 0 566.92932 253.228"
   sodipodi:docname="allg_platte_sg.pdf"
   xmlns:inkscape="http://www.inkscape.org/namespaces/inkscape"
   xmlns:sodipodi="http://sodipodi.sourceforge.net/DTD/sodipodi-0.dtd"
   xmlns="http://www.w3.org/2000/svg"
   xmlns:svg="http://www.w3.org/2000/svg">
  <defs
     id="defs1">
    <clipPath
       clipPathUnits="userSpaceOnUse"
       id="clipPath3">
      <path
         d="M -0.00426,-0.00189 V 189.92316 H 425.20111 V -0.00189 H -0.00426"
         transform="matrix(1,0,0,-1,-275.77027,53.363214)"
         clip-rule="evenodd"
         id="path3" />
    </clipPath>
    <clipPath
       clipPathUnits="userSpaceOnUse"
       id="clipPath4">
      <path
         d="M -0.00426,-0.00189 V 189.92316 H 425.20111 V -0.00189 H -0.00426"
         transform="matrix(1,0,0,-1,-281.76121,49.229349)"
         clip-rule="evenodd"
         id="path4" />
    </clipPath>
    <clipPath
       clipPathUnits="userSpaceOnUse"
       id="clipPath5">
      <path
         d="M -0.00426,-0.00189 V 189.92316 H 425.20111 V -0.00189 H -0.00426"
         transform="matrix(1,0,0,-1,-237.50256,53.363214)"
         clip-rule="evenodd"
         id="path5" />
    </clipPath>
    <clipPath
       clipPathUnits="userSpaceOnUse"
       id="clipPath6">
      <path
         d="M -0.00426,-0.00189 V 189.92316 H 425.20111 V -0.00189 H -0.00426"
         transform="matrix(1,0,0,-1,-243.4935,49.229349)"
         clip-rule="evenodd"
         id="path6" />
    </clipPath>
    <clipPath
       clipPathUnits="userSpaceOnUse"
       id="clipPath7">
      <path
         d="M -0.00426,-0.00189 V 189.92316 H 425.20111 V -0.00189 H -0.00426"
         transform="matrix(1,0,0,-1,-254.24094,21.227521)"
         clip-rule="evenodd"
         id="path7" />
    </clipPath>
    <clipPath
       clipPathUnits="userSpaceOnUse"
       id="clipPath8">
      <path
         d="M -0.00426,-0.00189 V 189.92316 H 425.20111 V -0.00189 H -0.00426"
         transform="matrix(1,0,0,-1,-260.05597,17.093663)"
         clip-rule="evenodd"
         id="path8" />
    </clipPath>
    <clipPath
       clipPathUnits="userSpaceOnUse"
       id="clipPath9">
      <path
         d="M -0.00426,-0.00189 V 189.92316 H 425.20111 V -0.00189 H -0.00426"
         transform="matrix(1,0,0,-1,-100.86856,40.603831)"
         clip-rule="evenodd"
         id="path9" />
    </clipPath>
    <clipPath
       clipPathUnits="userSpaceOnUse"
       id="clipPath10">
      <path
         d="M -0.00426,-0.00189 V 189.92316 H 425.20111 V -0.00189 H -0.00426"
         transform="matrix(1,0,0,-1,-109.95552,36.469973)"
         clip-rule="evenodd"
         id="path10" />
    </clipPath>
    <clipPath
       clipPathUnits="userSpaceOnUse"
       id="clipPath11">
      <path
         d="M -0.00426,-0.00189 V 189.92316 H 425.20111 V -0.00189 H -0.00426"
         transform="matrix(1,0,0,-1,-278.72374,20.289878)"
         clip-rule="evenodd"
         id="path11" />
    </clipPath>
    <clipPath
       clipPathUnits="userSpaceOnUse"
       id="clipPath12">
      <path
         d="M -0.00426,-0.00189 V 189.92316 H 425.20111 V -0.00189 H -0.00426"
         transform="matrix(1,0,0,-1,-287.81068,16.156028)"
         clip-rule="evenodd"
         id="path12" />
    </clipPath>
    <clipPath
       clipPathUnits="userSpaceOnUse"
       id="clipPath13">
      <path
         d="M -0.00426,-0.00189 V 189.92316 H 425.20111 V -0.00189 H -0.00426"
         transform="matrix(1,0,0,-1,-175.55041,53.363214)"
         clip-rule="evenodd"
         id="path13" />
    </clipPath>
    <clipPath
       clipPathUnits="userSpaceOnUse"
       id="clipPath14">
      <path
         d="M -0.00426,-0.00189 V 189.92316 H 425.20111 V -0.00189 H -0.00426"
         transform="matrix(1,0,0,-1,-181.54135,49.229349)"
         clip-rule="evenodd"
         id="path14" />
    </clipPath>
    <clipPath
       clipPathUnits="userSpaceOnUse"
       id="clipPath15">
      <path
         d="M -0.00426,-0.00189 V 189.92316 H 425.20111 V -0.00189 H -0.00426"
         transform="matrix(1,0,0,-1,-137.2827,53.363214)"
         clip-rule="evenodd"
         id="path15" />
    </clipPath>
    <clipPath
       clipPathUnits="userSpaceOnUse"
       id="clipPath16">
      <path
         d="M -0.00426,-0.00189 V 189.92316 H 425.20111 V -0.00189 H -0.00426"
         transform="matrix(1,0,0,-1,-143.27365,49.229349)"
         clip-rule="evenodd"
         id="path16" />
    </clipPath>
    <clipPath
       clipPathUnits="userSpaceOnUse"
       id="clipPath17">
      <path
         d="M -0.00426,-0.00189 V 189.92316 H 425.20111 V -0.00189 H -0.00426"
         transform="matrix(1,0,0,-1,-154.02108,21.227521)"
         clip-rule="evenodd"
         id="path17" />
    </clipPath>
    <clipPath
       clipPathUnits="userSpaceOnUse"
       id="clipPath18">
      <path
         d="M -0.00426,-0.00189 V 189.92316 H 425.20111 V -0.00189 H -0.00426"
         transform="matrix(1,0,0,-1,-159.83613,17.093663)"
         clip-rule="evenodd"
         id="path18" />
    </clipPath>
    <clipPath
       clipPathUnits="userSpaceOnUse"
       id="clipPath19">
      <path
         d="M -0.00426,-0.00189 V 189.92316 H 425.20111 V -0.00189 H -0.00426"
         transform="matrix(1,0,0,-1,-215.21038,116.88636)"
         clip-rule="evenodd"
         id="path19" />
    </clipPath>
    <clipPath
       clipPathUnits="userSpaceOnUse"
       id="clipPath20">
      <path
         d="M -0.00426,-0.00189 V 189.92316 H 425.20111 V -0.00189 H -0.00426"
         transform="matrix(1,0,0,-1,-232.39098,133.88088)"
         clip-rule="evenodd"
         id="path20" />
    </clipPath>
    <clipPath
       clipPathUnits="userSpaceOnUse"
       id="clipPath21">
      <path
         d="M -0.00426,-0.00189 V 189.92316 H 425.20111 V -0.00189 H -0.00426"
         transform="matrix(1,0,0,-1,-188.98645,136.52997)"
         clip-rule="evenodd"
         id="path21" />
    </clipPath>
    <clipPath
       clipPathUnits="userSpaceOnUse"
       id="clipPath22">
      <path
         d="M -0.00426,-0.00189 V 189.92316 H 425.20111 V -0.00189 H -0.00426"
         transform="matrix(1,0,0,-1,-106.83834,14.61903)"
         clip-rule="evenodd"
         id="path22" />
    </clipPath>
    <clipPath
       clipPathUnits="userSpaceOnUse"
       id="clipPath23">
      <path
         d="M -0.00426,-0.00189 V 189.92316 H 425.20111 V -0.00189 H -0.00426"
         transform="matrix(1,0,0,-1,-115.92528,10.485173)"
         clip-rule="evenodd"
         id="path23" />
    </clipPath>
    <clipPath
       clipPathUnits="userSpaceOnUse"
       id="clipPath24">
      <path
         d="M -0.00426,-0.00189 V 189.92316 H 425.20111 V -0.00189 H -0.00426"
         transform="matrix(1,0,0,-1,-318.14141,28.900223)"
         clip-rule="evenodd"
         id="path24" />
    </clipPath>
    <clipPath
       clipPathUnits="userSpaceOnUse"
       id="clipPath25">
      <path
         d="M -0.00426,-0.00189 V 189.92316 H 425.20111 V -0.00189 H -0.00426"
         transform="matrix(1,0,0,-1,-327.22836,24.766358)"
         clip-rule="evenodd"
         id="path25" />
    </clipPath>
    <clipPath
       clipPathUnits="userSpaceOnUse"
       id="clipPath26">
      <path
         d="M -0.00426,-0.00189 V 189.92316 H 425.20111 V -0.00189 H -0.00426"
         transform="matrix(1,0,0,-1,-293.94733,163.03933)"
         clip-rule="evenodd"
         id="path26" />
    </clipPath>
    <clipPath
       clipPathUnits="userSpaceOnUse"
       id="clipPath27">
      <path
         d="M -0.00426,-0.00189 V 189.92316 H 425.20111 V -0.00189 H -0.00426"
         transform="matrix(1,0,0,-1,-124.43551,163.03933)"
         clip-rule="evenodd"
         id="path27" />
    </clipPath>
  </defs>
  <sodipodi:namedview
     id="namedview1"
     pagecolor="#ffffff"
     bordercolor="#000000"
     borderopacity="0.25"
     inkscape:showpageshadow="2"
     inkscape:pageopacity="0.0"
     inkscape:pagecheckerboard="0"
     inkscape:deskcolor="#d1d1d1">
    <inkscape:page
       x="0"
       y="0"
       inkscape:label="1"
       id="page1"
       width="566.92932"
       height="253.228"
       margin="0"
       bleed="0" />
  </sodipodi:namedview>
  <g
     id="g1"
     inkscape:groupmode="layer"
     inkscape:label="1">
    <path
       id="path1"
       d="m 218.26764,168.14954 34.76776,20.07321 m 65.45209,-77.93517 34.76776,20.0732 m -103.05447,56.22537 100.21984,-57.86197 m -100.21984,57.86197 2.76171,-1.59448 m -2.76171,1.59448 v 0 l 2.79022,-1.11996 -0.4252,-0.73645 -2.36502,1.85641 m 100.21984,-57.86197 -2.76175,1.59448 m 2.76175,-1.59448 v 0 l -2.36502,1.85642 -0.4252,-0.73645 2.79022,-1.11997 M 212.59836,118.53012 v 1.65886 m 0,2.26772 v 2.83464 m 0,2.26771 v 2.83466 m 0,2.26773 v 2.83462 m 0,2.26773 v 2.83463 m 0,2.26773 v 2.83466 m 0,2.2677 v 2.83465 m 0,2.2677 v 2.83466 m 0,2.26773 v 2.83462 m 0,2.26773 v 1.5441 m 0,-46.28958 v 0 m 0,46.28958 v 0 M 112.37848,60.66815 l 2.37031,1.3685 m 1.96392,1.13387 2.45486,1.41732 m 1.9639,1.13385 2.45488,1.41733 m 1.9639,1.13385 2.45488,1.41733 m 1.96389,1.13387 2.4549,1.41731 m 1.9639,1.13386 2.45486,1.41732 m 1.9639,1.13386 2.45486,1.41733 m 1.96393,1.13385 2.45487,1.41733 m 1.96389,1.13385 2.45487,1.41733 m 1.9639,1.13386 2.45489,1.41731 m 1.9639,1.13387 2.45486,1.41731 m 1.9639,1.13387 2.4549,1.41733 m 1.96389,1.13385 2.45487,1.41732 m 1.9639,1.13385 2.45486,1.41733 m 1.96393,1.13387 2.45486,1.41731 m 1.9639,1.13386 2.45487,1.41732 m 1.96389,1.13386 2.4549,1.41733 m 1.9639,1.13385 2.45486,1.41733 m 1.9639,1.13385 2.45489,1.41733 m 1.9639,1.13386 2.45487,1.41731 m 1.96389,1.13387 2.45487,1.41731 m 1.96393,1.13387 2.45486,1.41733 m 1.9639,1.13385 2.45486,1.41732 M 112.37848,60.66815 v 0 m 100.21988,57.86197 v 0"
       style="fill:none;stroke:#000000;stroke-width:0.3685;stroke-linecap:round;stroke-linejoin:round;stroke-miterlimit:10;stroke-dasharray:none;stroke-opacity:1"
       transform="matrix(1.3333333,0,0,-1.3333333,0,253.228)" />
    <path
       id="path2"
       d="m 212.59836,118.53012 0.38177,-0.22043 m 1.9639,-1.13385 2.45487,-1.41733 m 1.96389,-1.13385 2.45487,-1.41732 m 1.9639,-1.13387 2.45489,-1.41731 m 1.9639,-1.13387 2.45486,-1.41731 m 1.9639,-1.13386 2.4549,-1.41733 m 1.96389,-1.13385 2.45487,-1.41733 m 1.9639,-1.13385 2.45489,-1.41733 m 1.9639,-1.13386 2.45486,-1.41732 m 1.9639,-1.13386 2.45486,-1.41731 m 1.9639,-1.13387 2.4549,-1.41733 m 1.96389,-1.13385 2.45487,-1.41733 m 1.9639,-1.13385 2.45486,-1.41732 m 1.9639,-1.13387 2.45489,-1.41731 m 1.9639,-1.13387 2.45487,-1.41731 m 1.96389,-1.13387 2.4549,-1.41732 m 1.9639,-1.13385 2.45486,-1.41733 m 1.9639,-1.13385 2.45489,-1.41733 m 1.9639,-1.13386 2.45487,-1.41732 m 1.96389,-1.13386 2.45487,-1.41731 m 1.9639,-1.13387 2.45489,-1.41733 m 1.9639,-1.13385 2.45486,-1.41733 m 1.9639,-1.13386 2.4549,-1.41731 m 1.96389,-1.13387 0.66114,-0.3817 m -100.21985,57.86197 v 0 M 312.81821,60.66815 v 0 m -200.43973,0 v 46.28957 M 212.59836,2.80618 V 49.09576 L 112.37848,106.95772 212.59836,164.8197 M 112.37848,60.66815 212.59836,2.80618 m 100.21985,57.86197 v 46.28957 L 212.59836,49.09576 m 0,115.72394 100.21985,-57.86198 M 212.59836,2.80618 312.81821,60.66815"
       style="fill:none;stroke:#000000;stroke-width:0.3685;stroke-linecap:round;stroke-linejoin:round;stroke-miterlimit:10;stroke-dasharray:none;stroke-opacity:1"
       transform="matrix(1.3333333,0,0,-1.3333333,0,253.228)" />
    <text
       id="text2"
       xml:space="preserve"
       transform="matrix(1.3333333,0,0,1.3333333,367.69369,182.07705)"
       clip-path="url(#clipPath3)"><tspan
         style="font-style:italic;font-variant:normal;font-weight:normal;font-stretch:normal;font-size:10.0071px;font-family:'Palatino Linotype';writing-mode:lr-tb;fill:#000000;fill-opacity:1;fill-rule:nonzero;stroke:none"
         x="0"
         y="0"
         id="tspan2">n</tspan></text>
    <text
       id="text3"
       xml:space="preserve"
       transform="matrix(1.3333333,0,0,1.3333333,375.68161,187.58887)"
       clip-path="url(#clipPath4)"><tspan
         style="font-style:italic;font-variant:normal;font-weight:normal;font-stretch:normal;font-size:6.00428px;font-family:'Palatino Linotype';writing-mode:lr-tb;fill:#000000;fill-opacity:1;fill-rule:nonzero;stroke:none"
         x="0 3.00214"
         y="0"
         sodipodi:role="line"
         id="tspan3">xx</tspan></text>
    <text
       id="text4"
       xml:space="preserve"
       transform="matrix(1.3333333,0,0,1.3333333,316.67007,182.07705)"
       clip-path="url(#clipPath5)"><tspan
         style="font-style:italic;font-variant:normal;font-weight:normal;font-stretch:normal;font-size:10.0071px;font-family:'Palatino Linotype';writing-mode:lr-tb;fill:#000000;fill-opacity:1;fill-rule:nonzero;stroke:none"
         x="0"
         y="0"
         id="tspan4">n</tspan></text>
    <text
       id="text5"
       xml:space="preserve"
       transform="matrix(1.3333333,0,0,1.3333333,324.65799,187.58887)"
       clip-path="url(#clipPath6)"><tspan
         style="font-style:italic;font-variant:normal;font-weight:normal;font-stretch:normal;font-size:6.00428px;font-family:'Palatino Linotype';writing-mode:lr-tb;fill:#000000;fill-opacity:1;fill-rule:nonzero;stroke:none"
         x="0 3.00214"
         y="0"
         sodipodi:role="line"
         id="tspan5">yx</tspan></text>
    <text
       id="text6"
       xml:space="preserve"
       transform="matrix(1.3333333,0,0,1.3333333,338.98791,224.92464)"
       clip-path="url(#clipPath7)"><tspan
         style="font-style:italic;font-variant:normal;font-weight:normal;font-stretch:normal;font-size:10.0071px;font-family:'Palatino Linotype';writing-mode:lr-tb;fill:#000000;fill-opacity:1;fill-rule:nonzero;stroke:none"
         x="0"
         y="0"
         id="tspan6">v</tspan></text>
    <text
       id="text7"
       xml:space="preserve"
       transform="matrix(1.3333333,0,0,1.3333333,346.74129,230.43645)"
       clip-path="url(#clipPath8)"><tspan
         style="font-style:italic;font-variant:normal;font-weight:normal;font-stretch:normal;font-size:6.00428px;font-family:'Palatino Linotype';writing-mode:lr-tb;fill:#000000;fill-opacity:1;fill-rule:nonzero;stroke:none"
         x="0 2.6659002"
         y="0"
         sodipodi:role="line"
         id="tspan7">zx</tspan></text>
    <text
       id="text8"
       xml:space="preserve"
       transform="matrix(1.3333333,0,0,1.3333333,134.49141,199.08956)"
       clip-path="url(#clipPath9)"><tspan
         style="font-style:italic;font-variant:normal;font-weight:normal;font-stretch:normal;font-size:10.0071px;font-family:'Palatino Linotype';writing-mode:lr-tb;fill:#000000;fill-opacity:1;fill-rule:nonzero;stroke:none"
         x="0"
         y="0"
         id="tspan8">m</tspan></text>
    <text
       id="text9"
       xml:space="preserve"
       transform="matrix(1.3333333,0,0,1.3333333,146.60735,204.60137)"
       clip-path="url(#clipPath10)"><tspan
         style="font-style:italic;font-variant:normal;font-weight:normal;font-stretch:normal;font-size:6.00428px;font-family:'Palatino Linotype';writing-mode:lr-tb;fill:#000000;fill-opacity:1;fill-rule:nonzero;stroke:none"
         x="0 3.00214"
         y="0"
         sodipodi:role="line"
         id="tspan9">yy</tspan></text>
    <text
       id="text10"
       xml:space="preserve"
       transform="matrix(1.3333333,0,0,1.3333333,371.63164,226.17483)"
       clip-path="url(#clipPath11)"><tspan
         style="font-style:italic;font-variant:normal;font-weight:normal;font-stretch:normal;font-size:10.0071px;font-family:'Palatino Linotype';writing-mode:lr-tb;fill:#000000;fill-opacity:1;fill-rule:nonzero;stroke:none"
         x="0"
         y="0"
         id="tspan10">m</tspan></text>
    <text
       id="text11"
       xml:space="preserve"
       transform="matrix(1.3333333,0,0,1.3333333,383.74757,231.68663)"
       clip-path="url(#clipPath12)"><tspan
         style="font-style:italic;font-variant:normal;font-weight:normal;font-stretch:normal;font-size:6.00428px;font-family:'Palatino Linotype';writing-mode:lr-tb;fill:#000000;fill-opacity:1;fill-rule:nonzero;stroke:none"
         x="0 3.00214"
         y="0"
         sodipodi:role="line"
         id="tspan11">xx</tspan></text>
    <text
       id="text12"
       xml:space="preserve"
       transform="matrix(1.3333333,0,0,1.3333333,234.06721,182.07705)"
       clip-path="url(#clipPath13)"><tspan
         style="font-style:italic;font-variant:normal;font-weight:normal;font-stretch:normal;font-size:10.0071px;font-family:'Palatino Linotype';writing-mode:lr-tb;fill:#000000;fill-opacity:1;fill-rule:nonzero;stroke:none"
         x="0"
         y="0"
         id="tspan12">n</tspan></text>
    <text
       id="text13"
       xml:space="preserve"
       transform="matrix(1.3333333,0,0,1.3333333,242.05513,187.58887)"
       clip-path="url(#clipPath14)"><tspan
         style="font-style:italic;font-variant:normal;font-weight:normal;font-stretch:normal;font-size:6.00428px;font-family:'Palatino Linotype';writing-mode:lr-tb;fill:#000000;fill-opacity:1;fill-rule:nonzero;stroke:none"
         x="0 3.00214"
         y="0"
         sodipodi:role="line"
         id="tspan13">xy</tspan></text>
    <text
       id="text14"
       xml:space="preserve"
       transform="matrix(1.3333333,0,0,1.3333333,183.04359,182.07705)"
       clip-path="url(#clipPath15)"><tspan
         style="font-style:italic;font-variant:normal;font-weight:normal;font-stretch:normal;font-size:10.0071px;font-family:'Palatino Linotype';writing-mode:lr-tb;fill:#000000;fill-opacity:1;fill-rule:nonzero;stroke:none"
         x="0"
         y="0"
         id="tspan14">n</tspan></text>
    <text
       id="text15"
       xml:space="preserve"
       transform="matrix(1.3333333,0,0,1.3333333,191.03153,187.58887)"
       clip-path="url(#clipPath16)"><tspan
         style="font-style:italic;font-variant:normal;font-weight:normal;font-stretch:normal;font-size:6.00428px;font-family:'Palatino Linotype';writing-mode:lr-tb;fill:#000000;fill-opacity:1;fill-rule:nonzero;stroke:none"
         x="0 3.00214"
         y="0"
         sodipodi:role="line"
         id="tspan15">yy</tspan></text>
    <text
       id="text16"
       xml:space="preserve"
       transform="matrix(1.3333333,0,0,1.3333333,205.36144,224.92464)"
       clip-path="url(#clipPath17)"><tspan
         style="font-style:italic;font-variant:normal;font-weight:normal;font-stretch:normal;font-size:10.0071px;font-family:'Palatino Linotype';writing-mode:lr-tb;fill:#000000;fill-opacity:1;fill-rule:nonzero;stroke:none"
         x="0"
         y="0"
         id="tspan16">v</tspan></text>
    <text
       id="text17"
       xml:space="preserve"
       transform="matrix(1.3333333,0,0,1.3333333,213.11483,230.43645)"
       clip-path="url(#clipPath18)"><tspan
         style="font-style:italic;font-variant:normal;font-weight:normal;font-stretch:normal;font-size:6.00428px;font-family:'Palatino Linotype';writing-mode:lr-tb;fill:#000000;fill-opacity:1;fill-rule:nonzero;stroke:none"
         x="0 2.6659002"
         y="0"
         sodipodi:role="line"
         id="tspan17">zy</tspan></text>
    <text
       id="text18"
       xml:space="preserve"
       transform="matrix(1.3333333,0,0,1.3333333,286.94717,97.37952)"
       clip-path="url(#clipPath19)"><tspan
         style="font-style:italic;font-variant:normal;font-weight:normal;font-stretch:normal;font-size:10.0071px;font-family:'Palatino Linotype';writing-mode:lr-tb;fill:#000000;fill-opacity:1;fill-rule:nonzero;stroke:none"
         x="0"
         y="0"
         id="tspan18">z</tspan></text>
    <text
       id="text19"
       xml:space="preserve"
       transform="matrix(1.3333333,0,0,1.3333333,309.85463,74.72016)"
       clip-path="url(#clipPath20)"><tspan
         style="font-style:italic;font-variant:normal;font-weight:normal;font-stretch:normal;font-size:10.0071px;font-family:'Palatino Linotype';writing-mode:lr-tb;fill:#000000;fill-opacity:1;fill-rule:nonzero;stroke:none"
         x="0"
         y="0"
         id="tspan19">x</tspan></text>
    <text
       id="text20"
       xml:space="preserve"
       transform="matrix(1.3333333,0,0,1.3333333,251.98193,71.18804)"
       clip-path="url(#clipPath21)"><tspan
         style="font-style:italic;font-variant:normal;font-weight:normal;font-stretch:normal;font-size:10.0071px;font-family:'Palatino Linotype';writing-mode:lr-tb;fill:#000000;fill-opacity:1;fill-rule:nonzero;stroke:none"
         x="0"
         y="0"
         id="tspan20">y</tspan></text>
    <text
       id="text21"
       xml:space="preserve"
       transform="matrix(1.3333333,0,0,1.3333333,142.45111,233.73596)"
       clip-path="url(#clipPath22)"><tspan
         style="font-style:italic;font-variant:normal;font-weight:normal;font-stretch:normal;font-size:10.0071px;font-family:'Palatino Linotype';writing-mode:lr-tb;fill:#000000;fill-opacity:1;fill-rule:nonzero;stroke:none"
         x="0"
         y="0"
         id="tspan21">m</tspan></text>
    <text
       id="text22"
       xml:space="preserve"
       transform="matrix(1.3333333,0,0,1.3333333,154.56704,239.24777)"
       clip-path="url(#clipPath23)"><tspan
         style="font-style:italic;font-variant:normal;font-weight:normal;font-stretch:normal;font-size:6.00428px;font-family:'Palatino Linotype';writing-mode:lr-tb;fill:#000000;fill-opacity:1;fill-rule:nonzero;stroke:none"
         x="0 3.00214"
         y="0"
         sodipodi:role="line"
         id="tspan22">yx</tspan></text>
    <text
       id="text23"
       xml:space="preserve"
       transform="matrix(1.3333333,0,0,1.3333333,424.18853,214.69437)"
       clip-path="url(#clipPath24)"><tspan
         style="font-style:italic;font-variant:normal;font-weight:normal;font-stretch:normal;font-size:10.0071px;font-family:'Palatino Linotype';writing-mode:lr-tb;fill:#000000;fill-opacity:1;fill-rule:nonzero;stroke:none"
         x="0"
         y="0"
         id="tspan23">m</tspan></text>
    <text
       id="text24"
       xml:space="preserve"
       transform="matrix(1.3333333,0,0,1.3333333,436.30447,220.20619)"
       clip-path="url(#clipPath25)"><tspan
         style="font-style:italic;font-variant:normal;font-weight:normal;font-stretch:normal;font-size:6.00428px;font-family:'Palatino Linotype';writing-mode:lr-tb;fill:#000000;fill-opacity:1;fill-rule:nonzero;stroke:none"
         x="0 3.00214"
         y="0"
         sodipodi:role="line"
         id="tspan24">xy</tspan></text>
    <text
       id="text25"
       xml:space="preserve"
       transform="matrix(1.3333333,0,0,1.3333333,391.92976,35.842227)"
       clip-path="url(#clipPath26)"><tspan
         style="font-style:italic;font-variant:normal;font-weight:normal;font-stretch:normal;font-size:10.0071px;font-family:'Palatino Linotype';writing-mode:lr-tb;fill:#000000;fill-opacity:1;fill-rule:nonzero;stroke:none"
         x="0"
         y="0"
         id="tspan25">1</tspan></text>
    <text
       id="text26"
       xml:space="preserve"
       transform="matrix(1.3333333,0,0,1.3333333,165.91401,35.842227)"
       clip-path="url(#clipPath27)"><tspan
         style="font-style:italic;font-variant:normal;font-weight:normal;font-stretch:normal;font-size:10.0071px;font-family:'Palatino Linotype';writing-mode:lr-tb;fill:#000000;fill-opacity:1;fill-rule:nonzero;stroke:none"
         x="0"
         y="0"
         id="tspan26">1</tspan></text>
    <path
       id="path28"
       d="m 262.70825,54.93864 24.54877,-14.17321 m -5.15524,2.97638 -0.36823,0.21258 m 5.52347,-3.18896 v 0 l -4.73004,3.71283 -0.85041,-1.47292 5.58045,-2.23991"
       style="fill:none;stroke:#000000;stroke-width:0.3685;stroke-linecap:round;stroke-linejoin:round;stroke-miterlimit:10;stroke-dasharray:none;stroke-opacity:1"
       transform="matrix(1.3333333,0,0,-1.3333333,0,253.228)" />
    <path
       id="path29"
       d="m 281.67657,43.00534 5.58045,-2.23991 -4.73004,3.71283 z"
       style="fill:#000000;fill-opacity:1;fill-rule:nonzero;stroke:none"
       transform="matrix(1.3333333,0,0,-1.3333333,0,253.228)" />
    <path
       id="path30"
       d="M 262.70825,54.93864 238.15952,40.76543 m 5.15524,2.97638 0.36822,0.21258 m -5.52346,-3.18896 v 0 l 5.58044,2.23991 -0.8504,1.47292 -4.73004,-3.71283"
       style="fill:none;stroke:#000000;stroke-width:0.3685;stroke-linecap:round;stroke-linejoin:round;stroke-miterlimit:10;stroke-dasharray:none;stroke-opacity:1"
       transform="matrix(1.3333333,0,0,-1.3333333,0,253.228)" />
    <path
       id="path31"
       d="m 242.88956,44.47826 -4.73004,-3.71283 5.58044,2.23991 z"
       style="fill:#000000;fill-opacity:1;fill-rule:nonzero;stroke:none"
       transform="matrix(1.3333333,0,0,-1.3333333,0,253.228)" />
    <path
       id="path32"
       d="M 262.70825,54.93864 V 26.59219 m 0,5.95276 v 0.42519 m 0,-6.37795 v 0 l 0.8504,5.95276 h -1.70077 l 0.85037,-5.95276"
       style="fill:none;stroke:#000000;stroke-width:0.3685;stroke-linecap:round;stroke-linejoin:round;stroke-miterlimit:10;stroke-dasharray:none;stroke-opacity:1"
       transform="matrix(1.3333333,0,0,-1.3333333,0,253.228)" />
    <path
       id="path33"
       d="m 261.85788,32.54495 0.85037,-5.95276 0.8504,5.95276 z"
       style="fill:#000000;fill-opacity:1;fill-rule:nonzero;stroke:none"
       transform="matrix(1.3333333,0,0,-1.3333333,0,253.228)" />
    <path
       id="path34"
       d="m 321.77255,20.83786 -24.54873,14.17323 m 5.15524,-2.97638 0.36822,-0.2126 m -5.52346,3.18898 v 0 l 4.73004,-3.71284 0.85037,1.47291 -5.58041,2.23993"
       style="fill:none;stroke:#000000;stroke-width:0.3685;stroke-linecap:round;stroke-linejoin:round;stroke-miterlimit:10;stroke-dasharray:none;stroke-opacity:1"
       transform="matrix(1.3333333,0,0,-1.3333333,0,253.228)" />
    <path
       id="path35"
       d="m 302.80423,32.77116 -5.58041,2.23993 4.73004,-3.71284 z"
       style="fill:#000000;fill-opacity:1;fill-rule:nonzero;stroke:none"
       transform="matrix(1.3333333,0,0,-1.3333333,0,253.228)" />
    <path
       id="path36"
       d="m 314.65341,24.9481 -12.27435,7.08661 m 5.15521,-2.97638 0.36826,-0.2126 m -5.52347,3.18898 v 0 l 4.73004,-3.71284 0.85037,1.47291 -5.58041,2.23993"
       style="fill:none;stroke:#000000;stroke-width:0.3685;stroke-linecap:round;stroke-linejoin:round;stroke-miterlimit:10;stroke-dasharray:none;stroke-opacity:1"
       transform="matrix(1.3333333,0,0,-1.3333333,0,253.228)" />
    <path
       id="path37"
       d="m 307.95947,29.79478 -5.58041,2.23993 4.73004,-3.71284 z"
       style="fill:#000000;fill-opacity:1;fill-rule:nonzero;stroke:none"
       transform="matrix(1.3333333,0,0,-1.3333333,0,253.228)" />
    <path
       id="path38"
       d="M 300.66064,42.74968 276.11188,28.57645 m 5.15524,2.97638 0.36823,0.2126 m -5.52347,-3.18898 v 0 l 5.58044,2.23991 -0.8504,1.47292 -4.73004,-3.71283"
       style="fill:none;stroke:#000000;stroke-width:0.3685;stroke-linecap:round;stroke-linejoin:round;stroke-miterlimit:10;stroke-dasharray:none;stroke-opacity:1"
       transform="matrix(1.3333333,0,0,-1.3333333,0,253.228)" />
    <path
       id="path39"
       d="m 280.84192,32.28928 -4.73004,-3.71283 5.58044,2.23991 z"
       style="fill:#000000;fill-opacity:1;fill-rule:nonzero;stroke:none"
       transform="matrix(1.3333333,0,0,-1.3333333,0,253.228)" />
    <path
       id="path40"
       d="m 295.5054,39.7733 -14.23828,-8.22047 m 5.15524,2.97638 0.36823,0.2126 m -5.52347,-3.18898 v 0 l 5.58044,2.23991 -0.8504,1.47292 -4.73004,-3.71283"
       style="fill:none;stroke:#000000;stroke-width:0.3685;stroke-linecap:round;stroke-linejoin:round;stroke-miterlimit:10;stroke-dasharray:none;stroke-opacity:1"
       transform="matrix(1.3333333,0,0,-1.3333333,0,253.228)" />
    <path
       id="path41"
       d="m 285.99716,35.26566 -4.73004,-3.71283 5.58044,2.23991 z"
       style="fill:#000000;fill-opacity:1;fill-rule:nonzero;stroke:none"
       transform="matrix(1.3333333,0,0,-1.3333333,0,253.228)" />
    <path
       id="path42"
       d="m 162.4884,54.93864 24.54877,-14.17321 m -5.15524,2.97638 -0.36823,0.21258 m 5.52347,-3.18896 v 0 l -4.73004,3.71283 -0.8504,-1.47292 5.58044,-2.23991"
       style="fill:none;stroke:#000000;stroke-width:0.3685;stroke-linecap:round;stroke-linejoin:round;stroke-miterlimit:10;stroke-dasharray:none;stroke-opacity:1"
       transform="matrix(1.3333333,0,0,-1.3333333,0,253.228)" />
    <path
       id="path43"
       d="m 181.45673,43.00534 5.58044,-2.23991 -4.73004,3.71283 z"
       style="fill:#000000;fill-opacity:1;fill-rule:nonzero;stroke:none"
       transform="matrix(1.3333333,0,0,-1.3333333,0,253.228)" />
    <path
       id="path44"
       d="M 162.4884,54.93864 137.93967,40.76543 m 5.15524,2.97638 0.36822,0.21258 m -5.52346,-3.18896 v 0 l 5.58044,2.23991 -0.8504,1.47292 -4.73004,-3.71283"
       style="fill:none;stroke:#000000;stroke-width:0.3685;stroke-linecap:round;stroke-linejoin:round;stroke-miterlimit:10;stroke-dasharray:none;stroke-opacity:1"
       transform="matrix(1.3333333,0,0,-1.3333333,0,253.228)" />
    <path
       id="path45"
       d="m 142.66971,44.47826 -4.73004,-3.71283 5.58044,2.23991 z"
       style="fill:#000000;fill-opacity:1;fill-rule:nonzero;stroke:none"
       transform="matrix(1.3333333,0,0,-1.3333333,0,253.228)" />
    <path
       id="path46"
       d="M 162.4884,54.93864 V 26.59219 m 0,5.95276 v 0.42519 m 0,-6.37795 v 0 l 0.85041,5.95276 h -1.70078 l 0.85037,-5.95276"
       style="fill:none;stroke:#000000;stroke-width:0.3685;stroke-linecap:round;stroke-linejoin:round;stroke-miterlimit:10;stroke-dasharray:none;stroke-opacity:1"
       transform="matrix(1.3333333,0,0,-1.3333333,0,253.228)" />
    <path
       id="path47"
       d="m 161.63803,32.54495 0.85037,-5.95276 0.85041,5.95276 z"
       style="fill:#000000;fill-opacity:1;fill-rule:nonzero;stroke:none"
       transform="matrix(1.3333333,0,0,-1.3333333,0,253.228)" />
    <path
       id="path48"
       d="M 122.96492,32.11975 98.41617,17.94652 m 5.15524,2.97638 0.36823,0.2126 m -5.52347,-3.18898 v 0 l 5.58044,2.23991 -0.85039,1.47293 -4.73005,-3.71284"
       style="fill:none;stroke:#000000;stroke-width:0.3685;stroke-linecap:round;stroke-linejoin:round;stroke-miterlimit:10;stroke-dasharray:none;stroke-opacity:1"
       transform="matrix(1.3333333,0,0,-1.3333333,0,253.228)" />
    <path
       id="path49"
       d="m 103.14622,21.65936 -4.73005,-3.71284 5.58044,2.23991 z"
       style="fill:#000000;fill-opacity:1;fill-rule:nonzero;stroke:none"
       transform="matrix(1.3333333,0,0,-1.3333333,0,253.228)" />
    <path
       id="path50"
       d="M 117.80969,29.14337 103.57141,20.9229 m 5.15524,2.97638 0.36823,0.2126 m -5.52347,-3.18898 v 0 l 5.58043,2.23991 -0.85039,1.47292 -4.73004,-3.71283"
       style="fill:none;stroke:#000000;stroke-width:0.3685;stroke-linecap:round;stroke-linejoin:round;stroke-miterlimit:10;stroke-dasharray:none;stroke-opacity:1"
       transform="matrix(1.3333333,0,0,-1.3333333,0,253.228)" />
    <path
       id="path51"
       d="m 108.30145,24.63573 -4.73004,-3.71283 5.58043,2.23991 z"
       style="fill:#000000;fill-opacity:1;fill-rule:nonzero;stroke:none"
       transform="matrix(1.3333333,0,0,-1.3333333,0,253.228)" />
    <path
       id="path52"
       d="m 137.57144,32.33235 -24.54877,14.17323 m 5.15525,-2.97637 0.36822,-0.21261 m -5.52347,3.18898 v 0 l 4.73005,-3.71284 0.85038,1.47292 -5.58043,2.23992"
       style="fill:none;stroke:#000000;stroke-width:0.3685;stroke-linecap:round;stroke-linejoin:round;stroke-miterlimit:10;stroke-dasharray:none;stroke-opacity:1"
       transform="matrix(1.3333333,0,0,-1.3333333,0,253.228)" />
    <path
       id="path53"
       d="m 118.6031,44.26566 -5.58043,2.23992 4.73005,-3.71284 z"
       style="fill:#000000;fill-opacity:1;fill-rule:nonzero;stroke:none"
       transform="matrix(1.3333333,0,0,-1.3333333,0,253.228)" />
    <path
       id="path54"
       d="m 130.4523,36.44258 -12.27438,7.08663 m 5.15524,-2.97638 0.36823,-0.2126 m -5.52347,3.18898 v 0 l 4.73004,-3.71285 0.85039,1.47292 -5.58043,2.23993"
       style="fill:none;stroke:#000000;stroke-width:0.3685;stroke-linecap:round;stroke-linejoin:round;stroke-miterlimit:10;stroke-dasharray:none;stroke-opacity:1"
       transform="matrix(1.3333333,0,0,-1.3333333,0,253.228)" />
    <path
       id="path55"
       d="m 123.75835,41.28928 -5.58043,2.23993 4.73004,-3.71285 z"
       style="fill:#000000;fill-opacity:1;fill-rule:nonzero;stroke:none"
       transform="matrix(1.3333333,0,0,-1.3333333,0,253.228)" />
    <path
       id="path56"
       d="m 212.59836,141.7316 v -22.17688 m 0,5.95276 v 0.4252 m 0,-6.37796 v 0 l 0.85037,5.95276 h -1.70077 l 0.8504,-5.95276"
       style="fill:none;stroke:#000000;stroke-width:0.3685;stroke-linecap:round;stroke-linejoin:round;stroke-miterlimit:10;stroke-dasharray:none;stroke-opacity:1"
       transform="matrix(1.3333333,0,0,-1.3333333,0,253.228)" />
    <path
       id="path57"
       d="m 211.74796,125.50748 0.8504,-5.95276 0.85037,5.95276 z"
       style="fill:#000000;fill-opacity:1;fill-rule:nonzero;stroke:none"
       transform="matrix(1.3333333,0,0,-1.3333333,0,253.228)" />
    <path
       id="path58"
       d="m 212.59836,141.7316 19.20572,-11.08844 m -5.15525,2.97638 -0.36822,0.21258 m 5.52347,-3.18896 v 0 l -4.73004,3.71283 -0.85038,-1.4729 5.58042,-2.23993"
       style="fill:none;stroke:#000000;stroke-width:0.3685;stroke-linecap:round;stroke-linejoin:round;stroke-miterlimit:10;stroke-dasharray:none;stroke-opacity:1"
       transform="matrix(1.3333333,0,0,-1.3333333,0,253.228)" />
    <path
       id="path59"
       d="m 226.22366,132.88309 5.58042,-2.23993 -4.73004,3.71283 z"
       style="fill:#000000;fill-opacity:1;fill-rule:nonzero;stroke:none"
       transform="matrix(1.3333333,0,0,-1.3333333,0,253.228)" />
    <path
       id="path60"
       d="m 212.59836,141.7316 -19.20575,-11.08844 m 5.15524,2.97638 0.36823,0.21258 m -5.52347,-3.18896 v 0 l 5.58044,2.23993 -0.8504,1.4729 -4.73004,-3.71283"
       style="fill:none;stroke:#000000;stroke-width:0.3685;stroke-linecap:round;stroke-linejoin:round;stroke-miterlimit:10;stroke-dasharray:none;stroke-opacity:1"
       transform="matrix(1.3333333,0,0,-1.3333333,0,253.228)" />
    <path
       id="path61"
       d="m 198.12265,134.35599 -4.73004,-3.71283 5.58044,2.23993 z"
       style="fill:#000000;fill-opacity:1;fill-rule:nonzero;stroke:none"
       transform="matrix(1.3333333,0,0,-1.3333333,0,253.228)" />
    <path
       id="path62"
       d="m 112.37848,83.86963 0.88478,-0.51082 m 4.17328,-2.40945 2.45488,-1.41732 m 4.17328,-2.40945 2.45488,-1.41733 m 4.17329,-2.40944 2.45487,-1.41733 m 4.1733,-2.40945 2.45487,-1.41731 m 4.17328,-2.40946 2.45489,-1.41732 m 4.17328,-2.40944 2.45487,-1.41733 m 4.17331,-2.40946 2.45486,-1.41731 m 4.17328,-2.40945 2.45489,-1.41733 m 4.17328,-2.40944 2.45487,-1.41733 m 4.17331,-2.40945 2.45486,-1.41732 m 4.17328,-2.40945 2.45486,-1.41733 m 4.17331,-2.40944 2.45487,-1.41732 m 4.17328,-2.40944 2.45489,-1.41733 m 4.17328,-2.40946 2.45487,-1.41732 m 4.1733,-2.40944 2.36753,-1.3669 m -97.3712,56.21729 0.24548,-0.14173 m 6.38268,-3.68504 0.24548,-0.14173 m 6.38269,-3.68504 0.24548,-0.14174 m 6.38266,-3.68503 0.24552,-0.14173 m 6.38266,-3.68505 0.24548,-0.14172 m 6.38269,-3.68505 0.24548,-0.14173 m 6.38266,-3.68505 0.24549,-0.14172 m 6.38269,-3.68504 0.24548,-0.14173 m 6.38269,-3.68504 0.24549,-0.14174 m 6.38266,-3.68503 0.24548,-0.14174 m 6.38269,-3.68504 0.24548,-0.14172 m 6.38269,-3.68505 0.24549,-0.14174 m 6.38266,-3.68502 0.24548,-0.14174 m 6.38269,-3.68505 0.24548,-0.14172 m 6.38269,-3.68504 0.24549,-0.14174 m -95.88846,55.36122 v 0 M 212.59836,26.00766 v 0 m 1.62182,0.93637 2.45487,1.41733 m 4.17328,2.40944 2.45489,1.41733 m 4.17328,2.40945 2.45487,1.41733 m 4.17331,2.40944 2.45486,1.41732 m 4.17328,2.40944 2.45489,1.41733 m 4.17328,2.40946 2.45487,1.41731 m 4.17331,2.40945 2.45486,1.41733 m 4.17328,2.40944 2.45486,1.41733 m 4.17331,2.40945 2.45487,1.41731 m 4.17328,2.40946 2.45489,1.41733 m 4.17328,2.40944 2.45487,1.41732 m 4.1733,2.40946 2.45487,1.41731 m 4.17328,2.40946 2.45489,1.41732 m 4.17328,2.40944 2.45487,1.41733 m 4.17331,2.40945 2.45486,1.41732 m -90.83038,-52.44095 0.24548,0.14174 m 6.38269,3.68504 0.24548,0.14172"
       style="fill:none;stroke:#000000;stroke-width:0.3685;stroke-linecap:round;stroke-linejoin:round;stroke-miterlimit:10;stroke-dasharray:none;stroke-opacity:1"
       transform="matrix(1.3333333,0,0,-1.3333333,0,253.228)" />
    <path
       id="path63"
       d="m 231.89529,37.14876 0.24549,0.14174 m 6.38266,3.68502 0.24548,0.14174 m 6.38269,3.68505 0.24548,0.14172 m 6.38266,3.68504 0.24552,0.14174 m 6.38266,3.68503 0.24548,0.14174 m 6.38266,3.68504 0.24552,0.14173 m 6.38266,3.68504 0.24548,0.14172 m 6.38269,3.68505 0.24548,0.14174 m 6.38266,3.68504 0.24552,0.14172 m 6.38266,3.68505 0.24548,0.14174 m 6.38269,3.68502 0.24548,0.14174 m 6.38266,3.68505 0.24549,0.14172 m 6.38269,3.68504 0.24548,0.14173 M 212.59836,26.00766 v 0 m 100.21985,57.86197 v 0 m -98.87461,57.08527 2.4549,-1.41733 m 4.17328,-2.40943 2.45486,-1.41732 m 4.17331,-2.40946 2.45487,-1.41733 m 4.17327,-2.40945 2.4549,-1.4173 m 4.17328,-2.40947 2.45486,-1.41731 m 4.17331,-2.40946 2.45487,-1.41732 m 4.17328,-2.40944 2.45486,-1.41733 m 4.17331,-2.40945 2.45486,-1.41732 m 4.17328,-2.40945 2.4549,-1.41733 m 4.17328,-2.40944 2.45486,-1.41733 m 4.17331,-2.40945 2.45486,-1.41731 m 4.17328,-2.40946 2.4549,-1.41733 m 4.17328,-2.40943 2.45486,-1.41733 m 4.17328,-2.40946 2.4549,-1.41731 m 4.17327,-2.40945 2.45487,-1.41733 m -90.83035,52.44095 0.24548,-0.14173 m 6.38266,-3.68502 0.24551,-0.14176 m 6.38266,-3.68503 0.24549,-0.14172 m 6.38269,-3.68506 0.24548,-0.14172 m 6.38266,-3.68505 0.24548,-0.14173 m 6.38269,-3.68503 0.24549,-0.14174 m 6.38266,-3.68505 0.24551,-0.14172 m 6.38266,-3.68504 0.24548,-0.14174 m 6.3827,-3.68503 0.24548,-0.14174 m 6.38266,-3.68504 0.24548,-0.14173 m 6.38269,-3.68504 0.24549,-0.14172 m 6.38269,-3.68505 0.24548,-0.14173 m 6.38266,-3.68503 0.24548,-0.14174 m 6.38269,-3.68504 0.24549,-0.14173 m 6.38269,-3.68504 0.24548,-0.14174 m -98.8038,57.04442 v 0 M 312.81821,83.86963 v 0 m -200.43973,0 1.16135,0.6705 m 4.17327,2.40944 2.45488,1.41733 m 4.17328,2.40945 2.45488,1.41731"
       style="fill:none;stroke:#000000;stroke-width:0.3685;stroke-linecap:round;stroke-linejoin:round;stroke-miterlimit:10;stroke-dasharray:none;stroke-opacity:1"
       transform="matrix(1.3333333,0,0,-1.3333333,0,253.228)" />
    <path
       id="path64"
       d="m 130.96942,94.60312 2.4549,1.41733 m 4.17328,2.40944 2.45486,1.41732 m 4.17331,2.40946 2.45486,1.41731 m 4.17328,2.40946 2.4549,1.41732 m 4.17328,2.40944 2.45486,1.41733 m 4.17331,2.40945 2.45486,1.41732 m 4.17328,2.40945 2.4549,1.41733 m 4.17328,2.40944 2.45486,1.41733 m 4.17331,2.40945 2.45487,1.41731 m 4.17327,2.40946 2.4549,1.41733 m 4.17328,2.40945 2.45486,1.41733 m 4.17331,2.40942 2.45487,1.41733 m 4.17328,2.40945 2.09097,1.20722 m -97.09464,-56.05762 0.24549,0.14174 m 6.38267,3.68504 0.24549,0.14173 m 6.38267,3.68504 0.24548,0.14174 m 6.38269,3.68503 0.24549,0.14174 m 6.38269,3.68504 0.24548,0.14172 m 6.38266,3.68505 0.24548,0.14172 m 6.3827,3.68504 0.24548,0.14174 m 6.38266,3.68503 0.24551,0.14174 m 6.38266,3.68504 0.24549,0.14173 m 6.38269,3.68504 0.24548,0.14174 m 6.38266,3.68503 0.24551,0.14174 m 6.38266,3.68504 0.24549,0.14172 m 6.38269,3.68505 0.24548,0.14172 m 6.38266,3.68506 0.24548,0.14172 m 6.38269,3.68503 0.24549,0.14175 m -96.16501,-55.5209 v 0 m 100.21988,57.86197 v 0 m -137.8223,-13.00742 100.21985,57.86197 m -100.21985,-57.86197 2.76174,1.59448 m -2.76174,-1.59448 v 0 l 2.36502,1.85642 0.42519,-0.73645 -2.79021,-1.11997 m 100.21985,57.86197 -2.76172,-1.59448 m 2.76172,1.59448 v 0 l -2.79019,-1.11996 0.42517,-0.73645 2.36502,1.85641 m -2.83462,1.6366 34.76776,-20.07321 M 71.94142,130.36078 106.7092,110.28758"
       style="fill:none;stroke:#000000;stroke-width:0.3685;stroke-linecap:round;stroke-linejoin:round;stroke-miterlimit:10;stroke-dasharray:none;stroke-opacity:1"
       transform="matrix(1.3333333,0,0,-1.3333333,0,253.228)" />
  </g>
</svg>
