<?xml version="1.0" encoding="UTF-8" standalone="no"?>
<!-- Created with Inkscape (http://www.inkscape.org/) -->

<svg
   version="1.1"
   id="svg1"
   width="566.92932"
   height="253.228"
   viewBox="0 0 566.92932 253.228"
   sodipodi:docname="allg_platte_sg.pdf"
   xmlns:inkscape="http://www.inkscape.org/namespaces/inkscape"
   xmlns:sodipodi="http://sodipodi.sourceforge.net/DTD/sodipodi-0.dtd"
   xmlns="http://www.w3.org/2000/svg"
   xmlns:svg="http://www.w3.org/2000/svg">
  <defs
     id="defs1">
    <clipPath
       clipPathUnits="userSpaceOnUse"
       id="clipPath3">
      <path
         d="M -0.00426,-0.00189 V 189.92316 H 425.20111 V -0.00189 H -0.00426"
         transform="matrix(1,0,0,-1,-318.14145,28.900298)"
         clip-rule="evenodd"
         id="path3" />
    </clipPath>
    <clipPath
       clipPathUnits="userSpaceOnUse"
       id="clipPath4">
      <path
         d="M -0.00426,-0.00189 V 189.92316 H 425.20111 V -0.00189 H -0.00426"
         transform="matrix(1,0,0,-1,-327.2284,24.766441)"
         clip-rule="evenodd"
         id="path4" />
    </clipPath>
    <clipPath
       clipPathUnits="userSpaceOnUse"
       id="clipPath5">
      <path
         d="M -0.00426,-0.00189 V 189.92316 H 425.20111 V -0.00189 H -0.00426"
         transform="matrix(1,0,0,-1,-275.7703,53.363289)"
         clip-rule="evenodd"
         id="path5" />
    </clipPath>
    <clipPath
       clipPathUnits="userSpaceOnUse"
       id="clipPath6">
      <path
         d="M -0.00426,-0.00189 V 189.92316 H 425.20111 V -0.00189 H -0.00426"
         transform="matrix(1,0,0,-1,-281.76124,49.229431)"
         clip-rule="evenodd"
         id="path6" />
    </clipPath>
    <clipPath
       clipPathUnits="userSpaceOnUse"
       id="clipPath7">
      <path
         d="M -0.00426,-0.00189 V 189.92316 H 425.20111 V -0.00189 H -0.00426"
         transform="matrix(1,0,0,-1,-237.50257,53.363289)"
         clip-rule="evenodd"
         id="path7" />
    </clipPath>
    <clipPath
       clipPathUnits="userSpaceOnUse"
       id="clipPath8">
      <path
         d="M -0.00426,-0.00189 V 189.92316 H 425.20111 V -0.00189 H -0.00426"
         transform="matrix(1,0,0,-1,-243.49353,49.229431)"
         clip-rule="evenodd"
         id="path8" />
    </clipPath>
    <clipPath
       clipPathUnits="userSpaceOnUse"
       id="clipPath9">
      <path
         d="M -0.00426,-0.00189 V 189.92316 H 425.20111 V -0.00189 H -0.00426"
         transform="matrix(1,0,0,-1,-254.24097,21.227603)"
         clip-rule="evenodd"
         id="path9" />
    </clipPath>
    <clipPath
       clipPathUnits="userSpaceOnUse"
       id="clipPath10">
      <path
         d="M -0.00426,-0.00189 V 189.92316 H 425.20111 V -0.00189 H -0.00426"
         transform="matrix(1,0,0,-1,-260.05602,17.093738)"
         clip-rule="evenodd"
         id="path10" />
    </clipPath>
    <clipPath
       clipPathUnits="userSpaceOnUse"
       id="clipPath11">
      <path
         d="M -0.00426,-0.00189 V 189.92316 H 425.20111 V -0.00189 H -0.00426"
         transform="matrix(1,0,0,-1,-106.83835,14.619113)"
         clip-rule="evenodd"
         id="path11" />
    </clipPath>
    <clipPath
       clipPathUnits="userSpaceOnUse"
       id="clipPath12">
      <path
         d="M -0.00426,-0.00189 V 189.92316 H 425.20111 V -0.00189 H -0.00426"
         transform="matrix(1,0,0,-1,-115.92531,10.485248)"
         clip-rule="evenodd"
         id="path12" />
    </clipPath>
    <clipPath
       clipPathUnits="userSpaceOnUse"
       id="clipPath13">
      <path
         d="M -0.00426,-0.00189 V 189.92316 H 425.20111 V -0.00189 H -0.00426"
         transform="matrix(1,0,0,-1,-100.86858,40.603914)"
         clip-rule="evenodd"
         id="path13" />
    </clipPath>
    <clipPath
       clipPathUnits="userSpaceOnUse"
       id="clipPath14">
      <path
         d="M -0.00426,-0.00189 V 189.92316 H 425.20111 V -0.00189 H -0.00426"
         transform="matrix(1,0,0,-1,-109.95553,36.470048)"
         clip-rule="evenodd"
         id="path14" />
    </clipPath>
    <clipPath
       clipPathUnits="userSpaceOnUse"
       id="clipPath15">
      <path
         d="M -0.00426,-0.00189 V 189.92316 H 425.20111 V -0.00189 H -0.00426"
         transform="matrix(1,0,0,-1,-278.72376,20.289961)"
         clip-rule="evenodd"
         id="path15" />
    </clipPath>
    <clipPath
       clipPathUnits="userSpaceOnUse"
       id="clipPath16">
      <path
         d="M -0.00426,-0.00189 V 189.92316 H 425.20111 V -0.00189 H -0.00426"
         transform="matrix(1,0,0,-1,-287.81071,16.15611)"
         clip-rule="evenodd"
         id="path16" />
    </clipPath>
    <clipPath
       clipPathUnits="userSpaceOnUse"
       id="clipPath17">
      <path
         d="M -0.00426,-0.00189 V 189.92316 H 425.20111 V -0.00189 H -0.00426"
         transform="matrix(1,0,0,-1,-175.55043,53.363289)"
         clip-rule="evenodd"
         id="path17" />
    </clipPath>
    <clipPath
       clipPathUnits="userSpaceOnUse"
       id="clipPath18">
      <path
         d="M -0.00426,-0.00189 V 189.92316 H 425.20111 V -0.00189 H -0.00426"
         transform="matrix(1,0,0,-1,-181.54137,49.229431)"
         clip-rule="evenodd"
         id="path18" />
    </clipPath>
    <clipPath
       clipPathUnits="userSpaceOnUse"
       id="clipPath19">
      <path
         d="M -0.00426,-0.00189 V 189.92316 H 425.20111 V -0.00189 H -0.00426"
         transform="matrix(1,0,0,-1,-137.28271,53.363289)"
         clip-rule="evenodd"
         id="path19" />
    </clipPath>
    <clipPath
       clipPathUnits="userSpaceOnUse"
       id="clipPath20">
      <path
         d="M -0.00426,-0.00189 V 189.92316 H 425.20111 V -0.00189 H -0.00426"
         transform="matrix(1,0,0,-1,-143.27367,49.229431)"
         clip-rule="evenodd"
         id="path20" />
    </clipPath>
    <clipPath
       clipPathUnits="userSpaceOnUse"
       id="clipPath21">
      <path
         d="M -0.00426,-0.00189 V 189.92316 H 425.20111 V -0.00189 H -0.00426"
         transform="matrix(1,0,0,-1,-154.02111,21.227603)"
         clip-rule="evenodd"
         id="path21" />
    </clipPath>
    <clipPath
       clipPathUnits="userSpaceOnUse"
       id="clipPath22">
      <path
         d="M -0.00426,-0.00189 V 189.92316 H 425.20111 V -0.00189 H -0.00426"
         transform="matrix(1,0,0,-1,-159.83614,17.093738)"
         clip-rule="evenodd"
         id="path22" />
    </clipPath>
    <clipPath
       clipPathUnits="userSpaceOnUse"
       id="clipPath23">
      <path
         d="M -0.00426,-0.00189 V 189.92316 H 425.20111 V -0.00189 H -0.00426"
         transform="matrix(1,0,0,-1,-215.21041,116.88644)"
         clip-rule="evenodd"
         id="path23" />
    </clipPath>
    <clipPath
       clipPathUnits="userSpaceOnUse"
       id="clipPath24">
      <path
         d="M -0.00426,-0.00189 V 189.92316 H 425.20111 V -0.00189 H -0.00426"
         transform="matrix(1,0,0,-1,-232.39099,133.88096)"
         clip-rule="evenodd"
         id="path24" />
    </clipPath>
    <clipPath
       clipPathUnits="userSpaceOnUse"
       id="clipPath25">
      <path
         d="M -0.00426,-0.00189 V 189.92316 H 425.20111 V -0.00189 H -0.00426"
         transform="matrix(1,0,0,-1,-188.98647,136.53005)"
         clip-rule="evenodd"
         id="path25" />
    </clipPath>
    <clipPath
       clipPathUnits="userSpaceOnUse"
       id="clipPath26">
      <path
         d="M -0.00426,-0.00189 V 189.92316 H 425.20111 V -0.00189 H -0.00426"
         transform="matrix(1,0,0,-1,-293.94735,163.03941)"
         clip-rule="evenodd"
         id="path26" />
    </clipPath>
    <clipPath
       clipPathUnits="userSpaceOnUse"
       id="clipPath27">
      <path
         d="M -0.00426,-0.00189 V 189.92316 H 425.20111 V -0.00189 H -0.00426"
         transform="matrix(1,0,0,-1,-124.43554,163.03941)"
         clip-rule="evenodd"
         id="path27" />
    </clipPath>
  </defs>
  <sodipodi:namedview
     id="namedview1"
     pagecolor="#ffffff"
     bordercolor="#000000"
     borderopacity="0.25"
     inkscape:showpageshadow="2"
     inkscape:pageopacity="0.0"
     inkscape:pagecheckerboard="0"
     inkscape:deskcolor="#d1d1d1">
    <inkscape:page
       x="0"
       y="0"
       inkscape:label="1"
       id="page1"
       width="566.92932"
       height="253.228"
       margin="0"
       bleed="0" />
  </sodipodi:namedview>
  <g
     id="g1"
     inkscape:groupmode="layer"
     inkscape:label="1">
    <path
       id="path1"
       d="m 218.26767,168.14963 34.76776,20.07318 m 65.45209,-77.93515 34.76776,20.07318 m -103.05447,56.2254 100.21984,-57.86197 m -100.21984,57.86197 2.76171,-1.59451 m -2.76171,1.59451 v 0 l 2.79019,-1.11996 -0.42517,-0.73645 -2.36502,1.85641 m 100.21984,-57.86197 -2.76174,1.59449 m 2.76174,-1.59449 v 0 l -2.36502,1.85642 -0.4252,-0.73645 2.79022,-1.11997 M 212.59836,118.5302 v 1.65878 m 0,2.26772 v 2.83464 m 0,2.26771 v 2.83466 m 0,2.26773 v 2.83462 m 0,2.26773 v 2.83463 m 0,2.26773 v 2.83466 m 0,2.2677 v 2.83465 m 0,2.2677 v 2.83466 m 0,2.26773 v 2.83462 m 0,2.26773 v 1.54416 m 0,-46.28956 v 0 m 0,46.28956 v 0 M 112.37851,60.66823 l 2.37027,1.36847 m 1.9639,1.13386 2.45486,1.41733 m 1.96391,1.13385 2.45487,1.41733 m 1.96391,1.13386 2.45487,1.41732 m 1.96389,1.13386 2.4549,1.41731 m 1.9639,1.13387 2.45486,1.41733 m 1.9639,1.13385 2.45489,1.41733 m 1.9639,1.13385 2.45487,1.41732 m 1.96389,1.13387 2.45487,1.41731 m 1.9639,1.13387 2.45489,1.41731 m 1.9639,1.13387 2.45486,1.41732 m 1.9639,1.13385 2.4549,1.41733 m 1.96389,1.13385 2.45487,1.41733 m 1.9639,1.13386 2.45489,1.41732 m 1.9639,1.13386 2.45486,1.41731 m 1.9639,1.13387 2.45487,1.41733 m 1.96389,1.13385 2.4549,1.41733 m 1.9639,1.13385 2.45486,1.41732 m 1.9639,1.13387 2.45489,1.41731 m 1.9639,1.13387 2.45487,1.41731 m 1.96389,1.13387 2.4549,1.41732 m 1.9639,1.13385 2.45486,1.41733 m 1.9639,1.13385 2.45486,1.41733 M 112.37851,60.66823 v 0 m 100.21985,57.86197 v 0"
       style="fill:none;stroke:#000000;stroke-width:0.3685;stroke-linecap:round;stroke-linejoin:round;stroke-miterlimit:10;stroke-dasharray:none;stroke-opacity:1"
       transform="matrix(1.3333333,0,0,-1.3333333,0,253.228)" />
    <path
       id="path2"
       d="m 212.59836,118.5302 0.3818,-0.22043 m 1.9639,-1.13385 2.45487,-1.41733 m 1.96389,-1.13386 2.4549,-1.41732 m 1.9639,-1.13386 2.45486,-1.41733 m 1.9639,-1.13385 2.45489,-1.41733 m 1.9639,-1.13385 2.45487,-1.41733 m 1.96389,-1.13386 2.45487,-1.41731 m 1.9639,-1.13387 2.45489,-1.41731 m 1.9639,-1.13387 2.45486,-1.41733 m 1.9639,-1.13385 2.4549,-1.41732 m 1.96389,-1.13385 2.45487,-1.41733 m 1.9639,-1.13387 2.45486,-1.41731 m 1.9639,-1.13386 2.45489,-1.41732 m 1.9639,-1.13386 2.45486,-1.41733 m 1.9639,-1.13385 2.4549,-1.41733 m 1.9639,-1.13385 2.45486,-1.41733 m 1.9639,-1.13386 2.45486,-1.41731 m 1.96393,-1.13387 2.45486,-1.41731 m 1.9639,-1.13387 2.45487,-1.41733 m 1.96389,-1.13385 2.4549,-1.41732 m 1.9639,-1.13385 2.45486,-1.41733 m 1.9639,-1.13387 2.45489,-1.41731 m 1.9639,-1.13387 2.45487,-1.41732 m 1.96389,-1.13385 0.66111,-0.3817 M 212.59836,118.5302 v 0 M 312.81821,60.66823 v 0 m -200.4397,0 v 46.28958 M 212.59836,2.80627 v 46.28957 l -100.21985,57.86197 100.21985,57.86195 M 112.37851,60.66823 212.59836,2.80627 m 100.21985,57.86196 v 46.28958 L 212.59836,49.09584 m 0,115.72392 100.21985,-57.86195 M 212.59836,2.80627 312.81821,60.66823"
       style="fill:none;stroke:#000000;stroke-width:0.3685;stroke-linecap:round;stroke-linejoin:round;stroke-miterlimit:10;stroke-dasharray:none;stroke-opacity:1"
       transform="matrix(1.3333333,0,0,-1.3333333,0,253.228)" />
    <text
       id="text2"
       xml:space="preserve"
       transform="matrix(1.3333333,0,0,1.3333333,424.18859,214.69427)"
       clip-path="url(#clipPath3)"><tspan
         style="font-style:italic;font-variant:normal;font-weight:normal;font-stretch:normal;font-size:10.0071px;font-family:'Palatino Linotype';writing-mode:lr-tb;fill:#000000;fill-opacity:1;fill-rule:nonzero;stroke:none"
         x="0"
         y="0"
         id="tspan2">m</tspan></text>
    <text
       id="text3"
       xml:space="preserve"
       transform="matrix(1.3333333,0,0,1.3333333,436.30452,220.20608)"
       clip-path="url(#clipPath4)"><tspan
         style="font-style:italic;font-variant:normal;font-weight:normal;font-stretch:normal;font-size:6.00428px;font-family:'Palatino Linotype';writing-mode:lr-tb;fill:#000000;fill-opacity:1;fill-rule:nonzero;stroke:none"
         x="0 3.00214"
         y="0"
         sodipodi:role="line"
         id="tspan3">yx</tspan></text>
    <text
       id="text4"
       xml:space="preserve"
       transform="matrix(1.3333333,0,0,1.3333333,367.69372,182.07695)"
       clip-path="url(#clipPath5)"><tspan
         style="font-style:italic;font-variant:normal;font-weight:normal;font-stretch:normal;font-size:10.0071px;font-family:'Palatino Linotype';writing-mode:lr-tb;fill:#000000;fill-opacity:1;fill-rule:nonzero;stroke:none"
         x="0"
         y="0"
         id="tspan4">n</tspan></text>
    <text
       id="text5"
       xml:space="preserve"
       transform="matrix(1.3333333,0,0,1.3333333,375.68164,187.58876)"
       clip-path="url(#clipPath6)"><tspan
         style="font-style:italic;font-variant:normal;font-weight:normal;font-stretch:normal;font-size:6.00428px;font-family:'Palatino Linotype';writing-mode:lr-tb;fill:#000000;fill-opacity:1;fill-rule:nonzero;stroke:none"
         x="0 3.00214"
         y="0"
         sodipodi:role="line"
         id="tspan5">xx</tspan></text>
    <text
       id="text6"
       xml:space="preserve"
       transform="matrix(1.3333333,0,0,1.3333333,316.67009,182.07695)"
       clip-path="url(#clipPath7)"><tspan
         style="font-style:italic;font-variant:normal;font-weight:normal;font-stretch:normal;font-size:10.0071px;font-family:'Palatino Linotype';writing-mode:lr-tb;fill:#000000;fill-opacity:1;fill-rule:nonzero;stroke:none"
         x="0"
         y="0"
         id="tspan6">n</tspan></text>
    <text
       id="text7"
       xml:space="preserve"
       transform="matrix(1.3333333,0,0,1.3333333,324.65803,187.58876)"
       clip-path="url(#clipPath8)"><tspan
         style="font-style:italic;font-variant:normal;font-weight:normal;font-stretch:normal;font-size:6.00428px;font-family:'Palatino Linotype';writing-mode:lr-tb;fill:#000000;fill-opacity:1;fill-rule:nonzero;stroke:none"
         x="0 3.00214"
         y="0"
         sodipodi:role="line"
         id="tspan7">yx</tspan></text>
    <text
       id="text8"
       xml:space="preserve"
       transform="matrix(1.3333333,0,0,1.3333333,338.98795,224.92453)"
       clip-path="url(#clipPath9)"><tspan
         style="font-style:italic;font-variant:normal;font-weight:normal;font-stretch:normal;font-size:10.0071px;font-family:'Palatino Linotype';writing-mode:lr-tb;fill:#000000;fill-opacity:1;fill-rule:nonzero;stroke:none"
         x="0"
         y="0"
         id="tspan8">v</tspan></text>
    <text
       id="text9"
       xml:space="preserve"
       transform="matrix(1.3333333,0,0,1.3333333,346.74135,230.43635)"
       clip-path="url(#clipPath10)"><tspan
         style="font-style:italic;font-variant:normal;font-weight:normal;font-stretch:normal;font-size:6.00428px;font-family:'Palatino Linotype';writing-mode:lr-tb;fill:#000000;fill-opacity:1;fill-rule:nonzero;stroke:none"
         x="0 2.6659002"
         y="0"
         sodipodi:role="line"
         id="tspan9">zx</tspan></text>
    <text
       id="text10"
       xml:space="preserve"
       transform="matrix(1.3333333,0,0,1.3333333,142.45113,233.73585)"
       clip-path="url(#clipPath11)"><tspan
         style="font-style:italic;font-variant:normal;font-weight:normal;font-stretch:normal;font-size:10.0071px;font-family:'Palatino Linotype';writing-mode:lr-tb;fill:#000000;fill-opacity:1;fill-rule:nonzero;stroke:none"
         x="0"
         y="0"
         id="tspan10">m</tspan></text>
    <text
       id="text11"
       xml:space="preserve"
       transform="matrix(1.3333333,0,0,1.3333333,154.56707,239.24767)"
       clip-path="url(#clipPath12)"><tspan
         style="font-style:italic;font-variant:normal;font-weight:normal;font-stretch:normal;font-size:6.00428px;font-family:'Palatino Linotype';writing-mode:lr-tb;fill:#000000;fill-opacity:1;fill-rule:nonzero;stroke:none"
         x="0 3.00214"
         y="0"
         sodipodi:role="line"
         id="tspan11">xy</tspan></text>
    <text
       id="text12"
       xml:space="preserve"
       transform="matrix(1.3333333,0,0,1.3333333,134.49144,199.08945)"
       clip-path="url(#clipPath13)"><tspan
         style="font-style:italic;font-variant:normal;font-weight:normal;font-stretch:normal;font-size:10.0071px;font-family:'Palatino Linotype';writing-mode:lr-tb;fill:#000000;fill-opacity:1;fill-rule:nonzero;stroke:none"
         x="0"
         y="0"
         id="tspan12">m</tspan></text>
    <text
       id="text13"
       xml:space="preserve"
       transform="matrix(1.3333333,0,0,1.3333333,146.60737,204.60127)"
       clip-path="url(#clipPath14)"><tspan
         style="font-style:italic;font-variant:normal;font-weight:normal;font-stretch:normal;font-size:6.00428px;font-family:'Palatino Linotype';writing-mode:lr-tb;fill:#000000;fill-opacity:1;fill-rule:nonzero;stroke:none"
         x="0 3.00214"
         y="0"
         sodipodi:role="line"
         id="tspan13">yy</tspan></text>
    <text
       id="text14"
       xml:space="preserve"
       transform="matrix(1.3333333,0,0,1.3333333,371.63167,226.17472)"
       clip-path="url(#clipPath15)"><tspan
         style="font-style:italic;font-variant:normal;font-weight:normal;font-stretch:normal;font-size:10.0071px;font-family:'Palatino Linotype';writing-mode:lr-tb;fill:#000000;fill-opacity:1;fill-rule:nonzero;stroke:none"
         x="0"
         y="0"
         id="tspan14">m</tspan></text>
    <text
       id="text15"
       xml:space="preserve"
       transform="matrix(1.3333333,0,0,1.3333333,383.7476,231.68652)"
       clip-path="url(#clipPath16)"><tspan
         style="font-style:italic;font-variant:normal;font-weight:normal;font-stretch:normal;font-size:6.00428px;font-family:'Palatino Linotype';writing-mode:lr-tb;fill:#000000;fill-opacity:1;fill-rule:nonzero;stroke:none"
         x="0 3.00214"
         y="0"
         sodipodi:role="line"
         id="tspan15">xx</tspan></text>
    <text
       id="text16"
       xml:space="preserve"
       transform="matrix(1.3333333,0,0,1.3333333,234.06724,182.07695)"
       clip-path="url(#clipPath17)"><tspan
         style="font-style:italic;font-variant:normal;font-weight:normal;font-stretch:normal;font-size:10.0071px;font-family:'Palatino Linotype';writing-mode:lr-tb;fill:#000000;fill-opacity:1;fill-rule:nonzero;stroke:none"
         x="0"
         y="0"
         id="tspan16">n</tspan></text>
    <text
       id="text17"
       xml:space="preserve"
       transform="matrix(1.3333333,0,0,1.3333333,242.05516,187.58876)"
       clip-path="url(#clipPath18)"><tspan
         style="font-style:italic;font-variant:normal;font-weight:normal;font-stretch:normal;font-size:6.00428px;font-family:'Palatino Linotype';writing-mode:lr-tb;fill:#000000;fill-opacity:1;fill-rule:nonzero;stroke:none"
         x="0 3.00214"
         y="0"
         sodipodi:role="line"
         id="tspan17">xy</tspan></text>
    <text
       id="text18"
       xml:space="preserve"
       transform="matrix(1.3333333,0,0,1.3333333,183.04361,182.07695)"
       clip-path="url(#clipPath19)"><tspan
         style="font-style:italic;font-variant:normal;font-weight:normal;font-stretch:normal;font-size:10.0071px;font-family:'Palatino Linotype';writing-mode:lr-tb;fill:#000000;fill-opacity:1;fill-rule:nonzero;stroke:none"
         x="0"
         y="0"
         id="tspan18">n</tspan></text>
    <text
       id="text19"
       xml:space="preserve"
       transform="matrix(1.3333333,0,0,1.3333333,191.03156,187.58876)"
       clip-path="url(#clipPath20)"><tspan
         style="font-style:italic;font-variant:normal;font-weight:normal;font-stretch:normal;font-size:6.00428px;font-family:'Palatino Linotype';writing-mode:lr-tb;fill:#000000;fill-opacity:1;fill-rule:nonzero;stroke:none"
         x="0 3.00214"
         y="0"
         sodipodi:role="line"
         id="tspan19">yy</tspan></text>
    <text
       id="text20"
       xml:space="preserve"
       transform="matrix(1.3333333,0,0,1.3333333,205.36147,224.92453)"
       clip-path="url(#clipPath21)"><tspan
         style="font-style:italic;font-variant:normal;font-weight:normal;font-stretch:normal;font-size:10.0071px;font-family:'Palatino Linotype';writing-mode:lr-tb;fill:#000000;fill-opacity:1;fill-rule:nonzero;stroke:none"
         x="0"
         y="0"
         id="tspan20">v</tspan></text>
    <text
       id="text21"
       xml:space="preserve"
       transform="matrix(1.3333333,0,0,1.3333333,213.11485,230.43635)"
       clip-path="url(#clipPath22)"><tspan
         style="font-style:italic;font-variant:normal;font-weight:normal;font-stretch:normal;font-size:6.00428px;font-family:'Palatino Linotype';writing-mode:lr-tb;fill:#000000;fill-opacity:1;fill-rule:nonzero;stroke:none"
         x="0 2.6659002"
         y="0"
         sodipodi:role="line"
         id="tspan21">zy</tspan></text>
    <text
       id="text22"
       xml:space="preserve"
       transform="matrix(1.3333333,0,0,1.3333333,286.9472,97.379413)"
       clip-path="url(#clipPath23)"><tspan
         style="font-style:italic;font-variant:normal;font-weight:normal;font-stretch:normal;font-size:10.0071px;font-family:'Palatino Linotype';writing-mode:lr-tb;fill:#000000;fill-opacity:1;fill-rule:nonzero;stroke:none"
         x="0"
         y="0"
         id="tspan22">z</tspan></text>
    <text
       id="text23"
       xml:space="preserve"
       transform="matrix(1.3333333,0,0,1.3333333,309.85465,74.720053)"
       clip-path="url(#clipPath24)"><tspan
         style="font-style:italic;font-variant:normal;font-weight:normal;font-stretch:normal;font-size:10.0071px;font-family:'Palatino Linotype';writing-mode:lr-tb;fill:#000000;fill-opacity:1;fill-rule:nonzero;stroke:none"
         x="0"
         y="0"
         id="tspan23">x</tspan></text>
    <text
       id="text24"
       xml:space="preserve"
       transform="matrix(1.3333333,0,0,1.3333333,251.98196,71.187933)"
       clip-path="url(#clipPath25)"><tspan
         style="font-style:italic;font-variant:normal;font-weight:normal;font-stretch:normal;font-size:10.0071px;font-family:'Palatino Linotype';writing-mode:lr-tb;fill:#000000;fill-opacity:1;fill-rule:nonzero;stroke:none"
         x="0"
         y="0"
         id="tspan24">y</tspan></text>
    <text
       id="text25"
       xml:space="preserve"
       transform="matrix(1.3333333,0,0,1.3333333,391.92979,35.84212)"
       clip-path="url(#clipPath26)"><tspan
         style="font-style:italic;font-variant:normal;font-weight:normal;font-stretch:normal;font-size:10.0071px;font-family:'Palatino Linotype';writing-mode:lr-tb;fill:#000000;fill-opacity:1;fill-rule:nonzero;stroke:none"
         x="0"
         y="0"
         id="tspan25">1</tspan></text>
    <text
       id="text26"
       xml:space="preserve"
       transform="matrix(1.3333333,0,0,1.3333333,165.91405,35.84212)"
       clip-path="url(#clipPath27)"><tspan
         style="font-style:italic;font-variant:normal;font-weight:normal;font-stretch:normal;font-size:10.0071px;font-family:'Palatino Linotype';writing-mode:lr-tb;fill:#000000;fill-opacity:1;fill-rule:nonzero;stroke:none"
         x="0"
         y="0"
         id="tspan26">1</tspan></text>
    <path
       id="path28"
       d="M 262.70828,54.93874 287.25705,40.7655 m -5.15524,2.97638 -0.36823,0.2126 m 5.52347,-3.18898 v 0 l -4.73004,3.71285 -0.8504,-1.47293 5.58044,-2.23992"
       style="fill:none;stroke:#000000;stroke-width:0.3685;stroke-linecap:round;stroke-linejoin:round;stroke-miterlimit:10;stroke-dasharray:none;stroke-opacity:1"
       transform="matrix(1.3333333,0,0,-1.3333333,0,253.228)" />
    <path
       id="path29"
       d="m 281.67661,43.00542 5.58044,-2.23992 -4.73004,3.71285 z"
       style="fill:#000000;fill-opacity:1;fill-rule:nonzero;stroke:none"
       transform="matrix(1.3333333,0,0,-1.3333333,0,253.228)" />
    <path
       id="path30"
       d="M 262.70828,54.93874 238.15955,40.7655 m 5.15524,2.97638 0.36822,0.2126 m -5.52346,-3.18898 v 0 l 5.58044,2.23992 -0.8504,1.47291 -4.73004,-3.71283"
       style="fill:none;stroke:#000000;stroke-width:0.3685;stroke-linecap:round;stroke-linejoin:round;stroke-miterlimit:10;stroke-dasharray:none;stroke-opacity:1"
       transform="matrix(1.3333333,0,0,-1.3333333,0,253.228)" />
    <path
       id="path31"
       d="m 242.88959,44.47833 -4.73004,-3.71283 5.58044,2.23992 z"
       style="fill:#000000;fill-opacity:1;fill-rule:nonzero;stroke:none"
       transform="matrix(1.3333333,0,0,-1.3333333,0,253.228)" />
    <path
       id="path32"
       d="M 262.70828,54.93874 V 26.59227 m 0,5.95276 v 0.4252 m 0,-6.37796 v 0 l 0.85041,5.95276 h -1.70078 l 0.85037,-5.95276"
       style="fill:none;stroke:#000000;stroke-width:0.3685;stroke-linecap:round;stroke-linejoin:round;stroke-miterlimit:10;stroke-dasharray:none;stroke-opacity:1"
       transform="matrix(1.3333333,0,0,-1.3333333,0,253.228)" />
    <path
       id="path33"
       d="m 261.85791,32.54503 0.85037,-5.95276 0.85041,5.95276 z"
       style="fill:#000000;fill-opacity:1;fill-rule:nonzero;stroke:none"
       transform="matrix(1.3333333,0,0,-1.3333333,0,253.228)" />
    <path
       id="path34"
       d="m 321.77258,20.83794 -24.54873,14.17323 m 5.15521,-2.97638 0.36825,-0.2126 m -5.52346,3.18898 v 0 l 4.73004,-3.71285 0.85037,1.47292 -5.58041,2.23993"
       style="fill:none;stroke:#000000;stroke-width:0.3685;stroke-linecap:round;stroke-linejoin:round;stroke-miterlimit:10;stroke-dasharray:none;stroke-opacity:1"
       transform="matrix(1.3333333,0,0,-1.3333333,0,253.228)" />
    <path
       id="path35"
       d="m 302.80426,32.77124 -5.58041,2.23993 4.73004,-3.71285 z"
       style="fill:#000000;fill-opacity:1;fill-rule:nonzero;stroke:none"
       transform="matrix(1.3333333,0,0,-1.3333333,0,253.228)" />
    <path
       id="path36"
       d="m 314.65344,24.94818 -12.27438,7.08661 m 5.15524,-2.97638 0.36823,-0.2126 m -5.52347,3.18898 v 0 l 4.73004,-3.71284 0.8504,1.47291 -5.58044,2.23993"
       style="fill:none;stroke:#000000;stroke-width:0.3685;stroke-linecap:round;stroke-linejoin:round;stroke-miterlimit:10;stroke-dasharray:none;stroke-opacity:1"
       transform="matrix(1.3333333,0,0,-1.3333333,0,253.228)" />
    <path
       id="path37"
       d="m 307.9595,29.79486 -5.58044,2.23993 4.73004,-3.71284 z"
       style="fill:#000000;fill-opacity:1;fill-rule:nonzero;stroke:none"
       transform="matrix(1.3333333,0,0,-1.3333333,0,253.228)" />
    <path
       id="path38"
       d="M 300.66068,42.74976 276.11191,28.57652 m 5.15524,2.97638 0.36823,0.2126 m -5.52347,-3.18898 v 0 l 5.58044,2.23992 -0.8504,1.47291 -4.73004,-3.71283"
       style="fill:none;stroke:#000000;stroke-width:0.3685;stroke-linecap:round;stroke-linejoin:round;stroke-miterlimit:10;stroke-dasharray:none;stroke-opacity:1"
       transform="matrix(1.3333333,0,0,-1.3333333,0,253.228)" />
    <path
       id="path39"
       d="m 280.84195,32.28935 -4.73004,-3.71283 5.58044,2.23992 z"
       style="fill:#000000;fill-opacity:1;fill-rule:nonzero;stroke:none"
       transform="matrix(1.3333333,0,0,-1.3333333,0,253.228)" />
    <path
       id="path40"
       d="M 295.50543,39.77338 281.26715,31.5529 m 5.15524,2.97638 0.36823,0.2126 m -5.52347,-3.18898 v 0 l 5.58045,2.23992 -0.85041,1.47291 -4.73004,-3.71283"
       style="fill:none;stroke:#000000;stroke-width:0.3685;stroke-linecap:round;stroke-linejoin:round;stroke-miterlimit:10;stroke-dasharray:none;stroke-opacity:1"
       transform="matrix(1.3333333,0,0,-1.3333333,0,253.228)" />
    <path
       id="path41"
       d="m 285.99719,35.26573 -4.73004,-3.71283 5.58045,2.23992 z"
       style="fill:#000000;fill-opacity:1;fill-rule:nonzero;stroke:none"
       transform="matrix(1.3333333,0,0,-1.3333333,0,253.228)" />
    <path
       id="path42"
       d="M 162.48843,54.93874 187.0372,40.7655 m -5.15524,2.97638 -0.36823,0.2126 m 5.52347,-3.18898 v 0 l -4.73004,3.71285 -0.8504,-1.47293 5.58044,-2.23992"
       style="fill:none;stroke:#000000;stroke-width:0.3685;stroke-linecap:round;stroke-linejoin:round;stroke-miterlimit:10;stroke-dasharray:none;stroke-opacity:1"
       transform="matrix(1.3333333,0,0,-1.3333333,0,253.228)" />
    <path
       id="path43"
       d="m 181.45676,43.00542 5.58044,-2.23992 -4.73004,3.71285 z"
       style="fill:#000000;fill-opacity:1;fill-rule:nonzero;stroke:none"
       transform="matrix(1.3333333,0,0,-1.3333333,0,253.228)" />
    <path
       id="path44"
       d="M 162.48843,54.93874 137.9397,40.7655 m 5.15524,2.97638 0.36823,0.2126 M 137.9397,40.7655 v 0 l 5.58041,2.23992 -0.85037,1.47291 -4.73004,-3.71283"
       style="fill:none;stroke:#000000;stroke-width:0.3685;stroke-linecap:round;stroke-linejoin:round;stroke-miterlimit:10;stroke-dasharray:none;stroke-opacity:1"
       transform="matrix(1.3333333,0,0,-1.3333333,0,253.228)" />
    <path
       id="path45"
       d="m 142.66974,44.47833 -4.73004,-3.71283 5.58041,2.23992 z"
       style="fill:#000000;fill-opacity:1;fill-rule:nonzero;stroke:none"
       transform="matrix(1.3333333,0,0,-1.3333333,0,253.228)" />
    <path
       id="path46"
       d="M 162.48843,54.93874 V 26.59227 m 0,5.95276 v 0.4252 m 0,-6.37796 v 0 l 0.85041,5.95276 h -1.70078 l 0.85037,-5.95276"
       style="fill:none;stroke:#000000;stroke-width:0.3685;stroke-linecap:round;stroke-linejoin:round;stroke-miterlimit:10;stroke-dasharray:none;stroke-opacity:1"
       transform="matrix(1.3333333,0,0,-1.3333333,0,253.228)" />
    <path
       id="path47"
       d="m 161.63806,32.54503 0.85037,-5.95276 0.85041,5.95276 z"
       style="fill:#000000;fill-opacity:1;fill-rule:nonzero;stroke:none"
       transform="matrix(1.3333333,0,0,-1.3333333,0,253.228)" />
    <path
       id="path48"
       d="M 122.96495,32.11983 98.4162,17.94661 m 5.15524,2.97636 0.36823,0.2126 M 98.4162,17.94661 v 0 l 5.58043,2.23991 -0.85039,1.47292 -4.73004,-3.71283"
       style="fill:none;stroke:#000000;stroke-width:0.3685;stroke-linecap:round;stroke-linejoin:round;stroke-miterlimit:10;stroke-dasharray:none;stroke-opacity:1"
       transform="matrix(1.3333333,0,0,-1.3333333,0,253.228)" />
    <path
       id="path49"
       d="m 103.14624,21.65944 -4.73004,-3.71283 5.58043,2.23991 z"
       style="fill:#000000;fill-opacity:1;fill-rule:nonzero;stroke:none"
       transform="matrix(1.3333333,0,0,-1.3333333,0,253.228)" />
    <path
       id="path50"
       d="m 117.80971,29.14345 -14.23827,-8.22048 m 5.15523,2.97638 0.36824,0.2126 m -5.52347,-3.18898 v 0 l 5.58043,2.23993 -0.85039,1.47292 -4.73004,-3.71285"
       style="fill:none;stroke:#000000;stroke-width:0.3685;stroke-linecap:round;stroke-linejoin:round;stroke-miterlimit:10;stroke-dasharray:none;stroke-opacity:1"
       transform="matrix(1.3333333,0,0,-1.3333333,0,253.228)" />
    <path
       id="path51"
       d="m 108.30148,24.63582 -4.73004,-3.71285 5.58043,2.23993 z"
       style="fill:#000000;fill-opacity:1;fill-rule:nonzero;stroke:none"
       transform="matrix(1.3333333,0,0,-1.3333333,0,253.228)" />
    <path
       id="path52"
       d="m 137.57147,32.33243 -24.54876,14.17323 m 5.15524,-2.97638 0.36822,-0.2126 m -5.52346,3.18898 v 0 l 4.73004,-3.71284 0.85038,1.47291 -5.58042,2.23993"
       style="fill:none;stroke:#000000;stroke-width:0.3685;stroke-linecap:round;stroke-linejoin:round;stroke-miterlimit:10;stroke-dasharray:none;stroke-opacity:1"
       transform="matrix(1.3333333,0,0,-1.3333333,0,253.228)" />
    <path
       id="path53"
       d="m 118.60313,44.26573 -5.58042,2.23993 4.73004,-3.71284 z"
       style="fill:#000000;fill-opacity:1;fill-rule:nonzero;stroke:none"
       transform="matrix(1.3333333,0,0,-1.3333333,0,253.228)" />
    <path
       id="path54"
       d="m 130.45233,36.44267 -12.27438,7.08661 m 5.15523,-2.97638 0.36824,-0.2126 m -5.52347,3.18898 v 0 l 4.73004,-3.71284 0.85039,1.47291 -5.58043,2.23993"
       style="fill:none;stroke:#000000;stroke-width:0.3685;stroke-linecap:round;stroke-linejoin:round;stroke-miterlimit:10;stroke-dasharray:none;stroke-opacity:1"
       transform="matrix(1.3333333,0,0,-1.3333333,0,253.228)" />
    <path
       id="path55"
       d="m 123.75838,41.28935 -5.58043,2.23993 4.73004,-3.71284 z"
       style="fill:#000000;fill-opacity:1;fill-rule:nonzero;stroke:none"
       transform="matrix(1.3333333,0,0,-1.3333333,0,253.228)" />
    <path
       id="path56"
       d="m 212.59836,141.73169 v -22.1769 m 0,5.95276 v 0.4252 m 0,-6.37796 v 0 l 0.8504,5.95276 h -1.70077 l 0.85037,-5.95276"
       style="fill:none;stroke:#000000;stroke-width:0.3685;stroke-linecap:round;stroke-linejoin:round;stroke-miterlimit:10;stroke-dasharray:none;stroke-opacity:1"
       transform="matrix(1.3333333,0,0,-1.3333333,0,253.228)" />
    <path
       id="path57"
       d="m 211.74799,125.50755 0.85037,-5.95276 0.8504,5.95276 z"
       style="fill:#000000;fill-opacity:1;fill-rule:nonzero;stroke:none"
       transform="matrix(1.3333333,0,0,-1.3333333,0,253.228)" />
    <path
       id="path58"
       d="m 212.59836,141.73169 19.20575,-11.08844 m -5.15525,2.97638 -0.36822,0.21258 m 5.52347,-3.18896 v 0 l -4.73004,3.71283 -0.85041,-1.47293 5.58045,-2.2399"
       style="fill:none;stroke:#000000;stroke-width:0.3685;stroke-linecap:round;stroke-linejoin:round;stroke-miterlimit:10;stroke-dasharray:none;stroke-opacity:1"
       transform="matrix(1.3333333,0,0,-1.3333333,0,253.228)" />
    <path
       id="path59"
       d="m 226.22366,132.88315 5.58045,-2.2399 -4.73004,3.71283 z"
       style="fill:#000000;fill-opacity:1;fill-rule:nonzero;stroke:none"
       transform="matrix(1.3333333,0,0,-1.3333333,0,253.228)" />
    <path
       id="path60"
       d="m 212.59836,141.73169 -19.20572,-11.08844 m 5.15524,2.97638 0.36823,0.21258 m -5.52347,-3.18896 v 0 l 5.58044,2.2399 -0.8504,1.47293 -4.73004,-3.71283"
       style="fill:none;stroke:#000000;stroke-width:0.3685;stroke-linecap:round;stroke-linejoin:round;stroke-miterlimit:10;stroke-dasharray:none;stroke-opacity:1"
       transform="matrix(1.3333333,0,0,-1.3333333,0,253.228)" />
    <path
       id="path61"
       d="m 198.12268,134.35608 -4.73004,-3.71283 5.58044,2.2399 z"
       style="fill:#000000;fill-opacity:1;fill-rule:nonzero;stroke:none"
       transform="matrix(1.3333333,0,0,-1.3333333,0,253.228)" />
    <path
       id="path62"
       d="m 112.37851,83.86971 0.88478,-0.51082 m 4.17329,-2.40946 2.45488,-1.41733 m 4.17328,-2.40943 2.45488,-1.41733 m 4.17328,-2.40946 2.4549,-1.41731 m 4.17328,-2.40945 2.45486,-1.41733 m 4.17331,-2.40944 2.45486,-1.41733 m 4.17328,-2.40945 2.4549,-1.41732 m 4.17328,-2.40945 2.45486,-1.41733 m 4.17331,-2.40944 2.45486,-1.41732 m 4.17328,-2.40946 2.4549,-1.41731 m 4.17328,-2.40946 2.45486,-1.41732 m 4.17328,-2.40944 2.4549,-1.41733 m 4.17327,-2.40946 2.45487,-1.41731 m 4.17331,-2.40945 2.45486,-1.41733 m 4.17328,-2.40944 2.4549,-1.41733 m 4.17328,-2.40945 2.36749,-1.36687 m -97.37117,56.21727 0.2455,-0.14174 m 6.38267,-3.68503 0.24549,-0.14173 m 6.38267,-3.68505 0.24548,-0.14172 m 6.38269,-3.68504 0.24549,-0.14173 m 6.38266,-3.68504 0.24551,-0.14174 m 6.38266,-3.68504 0.24548,-0.14173 m 6.3827,-3.68504 0.24548,-0.14172 m 6.38266,-3.68505 0.24548,-0.14174 m 6.38269,-3.68504 0.24549,-0.14172 m 6.38269,-3.68505 0.24548,-0.14172 m 6.38266,-3.68504 0.24548,-0.14174 m 6.38269,-3.68503 0.24549,-0.14174 m 6.38269,-3.68504 0.24548,-0.14173 m 6.38266,-3.68504 0.24548,-0.14174 m 6.38269,-3.68503 0.24549,-0.14174 m -95.88846,55.36123 v 0 M 212.59836,26.00775 v 0 m 1.62179,0.93633 2.45487,1.41732 m 4.17331,2.40946 2.45486,1.41731 m 4.17328,2.40946 2.4549,1.41732 m 4.17327,2.40944 2.45487,1.41733 m 4.17328,2.40945 2.45489,1.41732 m 4.17328,2.40945 2.45487,1.41733 m 4.17331,2.40944 2.45486,1.41733 m 4.17328,2.40945 2.45486,1.41731 m 4.17331,2.40946 2.45487,1.41733 m 4.17328,2.40944 2.45489,1.41732 m 4.17328,2.40946 2.45486,1.41731 m 4.17331,2.40945 2.45487,1.41733 m 4.17328,2.40944 2.45489,1.41733 m 4.17328,2.40945 2.45487,1.41732 m 4.1733,2.40945 2.45487,1.41733 m -90.83038,-52.44095 0.24548,0.14172 m 6.38269,3.68505 0.24548,0.14174"
       style="fill:none;stroke:#000000;stroke-width:0.3685;stroke-linecap:round;stroke-linejoin:round;stroke-miterlimit:10;stroke-dasharray:none;stroke-opacity:1"
       transform="matrix(1.3333333,0,0,-1.3333333,0,253.228)" />
    <path
       id="path63"
       d="m 231.89526,37.1488 0.24549,0.14174 m 6.38266,3.68505 0.24548,0.14172 m 6.38269,3.68504 0.24548,0.14173 m 6.38269,3.68504 0.24549,0.14174 m 6.38266,3.68503 0.24548,0.14174 m 6.38269,3.68504 0.24549,0.14172 m 6.38266,3.68505 0.24548,0.14173 m 6.38269,3.68503 0.24548,0.14174 m 6.38266,3.68505 0.24552,0.14172 m 6.38266,3.68504 0.24548,0.14174 m 6.38269,3.68503 0.24548,0.14174 m 6.38266,3.68504 0.24552,0.14173 m 6.38266,3.68504 0.24548,0.14174 M 212.59836,26.00775 v 0 m 100.21985,57.86196 v 0 m -98.87455,57.08528 2.45487,-1.41733 m 4.17328,-2.40946 2.45489,-1.41732 m 4.17328,-2.40946 2.45487,-1.4173 m 4.17331,-2.40945 2.45486,-1.41733 m 4.17328,-2.40945 2.45489,-1.41733 m 4.17328,-2.40945 2.45487,-1.41732 m 4.17331,-2.40945 2.45486,-1.41731 m 4.17328,-2.40946 2.45486,-1.41733 m 4.17331,-2.40943 2.45487,-1.41733 m 4.17328,-2.40946 2.45489,-1.41731 m 4.17328,-2.40945 2.45487,-1.41733 m 4.1733,-2.40944 2.45487,-1.41733 m 4.17328,-2.40945 2.45489,-1.41732 m 4.17328,-2.40945 2.45487,-1.41733 m 4.17328,-2.40944 2.45489,-1.41733 m -90.83038,52.44097 0.24548,-0.14176 m 6.38269,-3.68502 0.24548,-0.14173 m 6.38266,-3.68506 0.24552,-0.14172 m 6.38266,-3.68504 0.24548,-0.14174 m 6.38269,-3.68503 0.24548,-0.14174 m 6.38266,-3.68504 0.24549,-0.14173 m 6.38269,-3.68504 0.24548,-0.14174 m 6.38266,-3.68503 0.24552,-0.14173 m 6.38266,-3.68505 0.24548,-0.14172 m 6.38269,-3.68505 0.24548,-0.14173 m 6.38266,-3.68503 0.24549,-0.14174 m 6.38269,-3.68504 0.24548,-0.14173 m 6.38269,-3.68504 0.24548,-0.14172 m 6.38266,-3.68505 0.24549,-0.14174 m 6.38269,-3.68503 0.24548,-0.14173 m -98.80383,57.04443 v 0 M 312.81821,83.86971 v 0 m -200.4397,0 1.16128,0.67047 m 4.17328,2.40945 2.45488,1.41731 m 4.1733,2.40946 2.45486,1.41733"
       style="fill:none;stroke:#000000;stroke-width:0.3685;stroke-linecap:round;stroke-linejoin:round;stroke-miterlimit:10;stroke-dasharray:none;stroke-opacity:1"
       transform="matrix(1.3333333,0,0,-1.3333333,0,253.228)" />
    <path
       id="path64"
       d="m 130.96942,94.60316 2.45487,1.41733 m 4.17327,2.40946 2.4549,1.41731 m 4.17328,2.40945 2.45486,1.41733 m 4.17328,2.40944 2.4549,1.41733 m 4.17328,2.40944 2.45486,1.41733 m 4.17331,2.40945 2.45486,1.41731 m 4.17328,2.40946 2.4549,1.41732 m 4.17328,2.40944 2.45486,1.41733 m 4.17331,2.40946 2.45486,1.41731 m 4.17328,2.40947 2.4549,1.4173 m 4.17328,2.40945 2.45486,1.41733 m 4.17331,2.40945 2.45487,1.41733 m 4.17327,2.40945 2.09101,1.20725 m -97.09467,-56.05765 0.24549,0.14173 m 6.38267,3.68504 0.24548,0.14172 m 6.38268,3.68505 0.24548,0.14173 m 6.38269,3.68503 0.24549,0.14174 m 6.38269,3.68504 0.24548,0.14173 m 6.38266,3.68504 0.24548,0.14174 m 6.38269,3.68503 0.24549,0.14174 m 6.38269,3.68504 0.24548,0.14172 m 6.38266,3.68505 0.24549,0.14174 m 6.38269,3.68502 0.24548,0.14174 m 6.38266,3.68505 0.24551,0.14172 m 6.38266,3.68504 0.24549,0.14173 m 6.38269,3.68506 0.24548,0.14172 m 6.38266,3.68503 0.24551,0.14175 m 6.38266,3.68503 0.24549,0.14172 M 112.37851,83.86971 v 0 m 100.21985,57.86198 v 0 M 74.77609,128.72427 174.99594,186.58624 m -100.21985,-57.86197 2.76174,1.59449 m -2.76174,-1.59449 v 0 l 2.36502,1.85642 0.42519,-0.73645 -2.79021,-1.11997 m 100.21985,57.86197 -2.76172,-1.59451 m 2.76172,1.59451 v 0 l -2.79022,-1.11996 0.4252,-0.73645 2.36502,1.85641 m -2.83462,1.63657 34.76776,-20.07318 M 71.94144,130.36084 106.70921,110.28766"
       style="fill:none;stroke:#000000;stroke-width:0.3685;stroke-linecap:round;stroke-linejoin:round;stroke-miterlimit:10;stroke-dasharray:none;stroke-opacity:1"
       transform="matrix(1.3333333,0,0,-1.3333333,0,253.228)" />
  </g>
</svg>
