<?xml version="1.0" encoding="UTF-8" standalone="no"?>
<!-- Created with Inkscape (http://www.inkscape.org/) -->

<svg
   version="1.1"
   id="svg1"
   width="566.92932"
   height="222.992"
   viewBox="0 0 566.92932 222.992"
   sodipodi:docname="allg_balken_kin.pdf"
   xmlns:inkscape="http://www.inkscape.org/namespaces/inkscape"
   xmlns:sodipodi="http://sodipodi.sourceforge.net/DTD/sodipodi-0.dtd"
   xmlns="http://www.w3.org/2000/svg"
   xmlns:svg="http://www.w3.org/2000/svg">
  <defs
     id="defs1">
    <clipPath
       clipPathUnits="userSpaceOnUse"
       id="clipPath2">
      <path
         d="M -0.00426,-0.00168 V 167.24579 H 425.20111 V -0.00168 H -0.00426"
         transform="matrix(1,0,0,-1,-200.99787,93.327842)"
         clip-rule="evenodd"
         id="path2" />
    </clipPath>
    <clipPath
       clipPathUnits="userSpaceOnUse"
       id="clipPath3">
      <path
         d="M -0.00426,-0.00168 V 167.24579 H 425.20111 V -0.00168 H -0.00426"
         transform="matrix(1,0,0,-1,-228.1972,102.74132)"
         clip-rule="evenodd"
         id="path3" />
    </clipPath>
    <clipPath
       clipPathUnits="userSpaceOnUse"
       id="clipPath4">
      <path
         d="M -0.00426,-0.00168 V 167.24579 H 425.20111 V -0.00168 H -0.00426"
         transform="matrix(1,0,0,-1,-180.83769,99.922272)"
         clip-rule="evenodd"
         id="path4" />
    </clipPath>
    <clipPath
       clipPathUnits="userSpaceOnUse"
       id="clipPath5">
      <path
         d="M -0.00426,-0.00168 V 167.24579 H 425.20111 V -0.00168 H -0.00426"
         transform="matrix(1,0,0,-1,-168.43278,88.620055)"
         clip-rule="evenodd"
         id="path5" />
    </clipPath>
    <clipPath
       clipPathUnits="userSpaceOnUse"
       id="clipPath6">
      <path
         d="M -0.00426,-0.00168 V 167.24579 H 425.20111 V -0.00168 H -0.00426"
         transform="matrix(1,0,0,-1,-174.36846,84.486205)"
         clip-rule="evenodd"
         id="path6" />
    </clipPath>
    <clipPath
       clipPathUnits="userSpaceOnUse"
       id="clipPath7">
      <path
         d="M -0.00426,-0.00168 V 167.24579 H 425.20111 V -0.00168 H -0.00426"
         transform="matrix(1,0,0,-1,-78.217232,68.425659)"
         clip-rule="evenodd"
         id="path7" />
    </clipPath>
    <clipPath
       clipPathUnits="userSpaceOnUse"
       id="clipPath8">
      <path
         d="M -0.00426,-0.00168 V 167.24579 H 425.20111 V -0.00168 H -0.00426"
         transform="matrix(1,0,0,-1,-148.66632,120.86977)"
         clip-rule="evenodd"
         id="path8" />
    </clipPath>
    <clipPath
       clipPathUnits="userSpaceOnUse"
       id="clipPath9">
      <path
         d="M -0.00426,-0.00168 V 167.24579 H 425.20111 V -0.00168 H -0.00426"
         transform="matrix(1,0,0,-1,-121.21824,50.675409)"
         clip-rule="evenodd"
         id="path9" />
    </clipPath>
    <clipPath
       clipPathUnits="userSpaceOnUse"
       id="clipPath10">
      <path
         d="M -0.00426,-0.00168 V 167.24579 H 425.20111 V -0.00168 H -0.00426"
         transform="matrix(1,0,0,-1,-127.1539,46.541551)"
         clip-rule="evenodd"
         id="path10" />
    </clipPath>
  </defs>
  <sodipodi:namedview
     id="namedview1"
     pagecolor="#ffffff"
     bordercolor="#000000"
     borderopacity="0.25"
     inkscape:showpageshadow="2"
     inkscape:pageopacity="0.0"
     inkscape:pagecheckerboard="0"
     inkscape:deskcolor="#d1d1d1">
    <inkscape:page
       x="0"
       y="0"
       inkscape:label="1"
       id="page1"
       width="566.92932"
       height="222.992"
       margin="0"
       bleed="0" />
  </sodipodi:namedview>
  <g
     id="g1"
     inkscape:groupmode="layer"
     inkscape:label="1">
    <path
       id="path1"
       d="m 188.14334,92.51991 2.45487,1.41732 m 1.96389,1.13386 2.4549,1.41731 m 1.9639,1.13387 2.45486,1.41733 m 1.9639,1.13385 2.45486,1.41732 m 1.9639,1.13385 2.4549,1.41733 m 1.96389,1.13387 2.45487,1.41731 m 1.9639,1.13387 2.45489,1.41731 m 1.9639,1.13386 2.45486,1.41733 m 1.9639,1.13385 2.4549,1.41733 m 1.96389,1.13385 2.45487,1.41733 m 1.9639,1.13386 2.45486,1.41732 m 1.9639,1.13386 2.45489,1.41731 m 1.9639,1.13387 2.45486,1.41733 m 1.9639,1.13385 2.4549,1.41732 m 1.9639,1.13387 2.45486,1.41733 m 1.9639,1.13385 2.45486,1.41733 m 1.9639,1.13385 2.45489,1.41732 m 1.9639,1.13385 2.45487,1.41733 m 1.96389,1.13385 2.4549,1.41733 m 1.9639,1.13385 2.45486,1.41733 m 1.9639,1.13385 2.45486,1.41733 m 1.9639,1.13388 2.4549,1.41729 m 1.96389,1.13388 2.45487,1.4173 m 1.9639,1.13388 2.45489,1.41733 m 1.9639,1.13385 2.45486,1.41733 m 1.9639,1.13385 2.4549,1.41733 m 1.96389,1.13385 2.45487,1.41732 m 1.9639,1.13385 2.45486,1.41733 m 1.9639,1.13385 2.45489,1.41733 m 1.9639,1.13385 1.28452,0.74164 M 186.75189,91.71655 v 0 m 225.0087,-91.71823 13.44052,7.75989 M 186.75189,91.71655 v 69.43436 m 40.08795,-92.57913 v 69.43435 l -40.08795,23.14478 m 0,-69.43436 40.08795,-23.14477 m -40.08795,92.57913 10.55661,6.09488 m 80.17587,0 -50.64453,-29.23966 m 0,-69.43435 170.90836,98.67401"
       style="fill:none;stroke:#000000;stroke-width:0.3685;stroke-linecap:round;stroke-linejoin:round;stroke-miterlimit:10;stroke-dasharray:none;stroke-opacity:1"
       transform="matrix(1.3333333,0,0,-1.3333333,0,222.992)" />
    <text
       id="text1"
       xml:space="preserve"
       transform="matrix(1.3333333,0,0,1.3333333,267.99715,98.55488)"
       clip-path="url(#clipPath2)"><tspan
         style="font-style:italic;font-variant:normal;font-weight:normal;font-stretch:normal;font-size:10.0071px;font-family:'Palatino Linotype';writing-mode:lr-tb;fill:#000000;fill-opacity:1;fill-rule:nonzero;stroke:none"
         x="0"
         y="0"
         id="tspan1">z</tspan></text>
    <text
       id="text2"
       xml:space="preserve"
       transform="matrix(1.3333333,0,0,1.3333333,304.26292,86.003573)"
       clip-path="url(#clipPath3)"><tspan
         style="font-style:italic;font-variant:normal;font-weight:normal;font-stretch:normal;font-size:10.0071px;font-family:'Palatino Linotype';writing-mode:lr-tb;fill:#000000;fill-opacity:1;fill-rule:nonzero;stroke:none"
         x="0"
         y="0"
         id="tspan2">y</tspan></text>
    <text
       id="text3"
       xml:space="preserve"
       transform="matrix(1.3333333,0,0,1.3333333,241.11691,89.762307)"
       clip-path="url(#clipPath4)"><tspan
         style="font-style:italic;font-variant:normal;font-weight:normal;font-stretch:normal;font-size:10.0071px;font-family:'Palatino Linotype';writing-mode:lr-tb;fill:#000000;fill-opacity:1;fill-rule:nonzero;stroke:none"
         x="0"
         y="0"
         id="tspan3">x</tspan></text>
    <text
       id="text4"
       xml:space="preserve"
       transform="matrix(1.3333333,0,0,1.3333333,224.57704,104.83193)"
       clip-path="url(#clipPath5)"><tspan
         style="font-style:italic;font-variant:normal;font-weight:normal;font-stretch:normal;font-size:10.0071px;font-family:'Palatino Linotype';writing-mode:lr-tb;fill:#000000;fill-opacity:1;fill-rule:nonzero;stroke:none"
         x="0"
         y="0"
         id="tspan4">χ</tspan></text>
    <text
       id="text5"
       xml:space="preserve"
       transform="matrix(1.3333333,0,0,1.3333333,232.49127,110.34373)"
       clip-path="url(#clipPath6)"><tspan
         style="font-style:italic;font-variant:normal;font-weight:normal;font-stretch:normal;font-size:6.00428px;font-family:'Palatino Linotype';writing-mode:lr-tb;fill:#000000;fill-opacity:1;fill-rule:nonzero;stroke:none"
         x="0"
         y="0"
         id="tspan5">y</tspan></text>
    <text
       id="text6"
       xml:space="preserve"
       transform="matrix(1.3333333,0,0,1.3333333,104.28964,131.75779)"
       clip-path="url(#clipPath7)"><tspan
         style="font-style:italic;font-variant:normal;font-weight:normal;font-stretch:normal;font-size:10.0071px;font-family:'Palatino Linotype';writing-mode:lr-tb;fill:#000000;fill-opacity:1;fill-rule:nonzero;stroke:none"
         x="0"
         y="0"
         id="tspan6">ε</tspan></text>
    <text
       id="text7"
       xml:space="preserve"
       transform="matrix(1.3333333,0,0,1.3333333,198.22175,61.832307)"
       clip-path="url(#clipPath8)"><tspan
         style="font-style:italic;font-variant:normal;font-weight:normal;font-stretch:normal;font-size:10.0071px;font-family:'Palatino Linotype';writing-mode:lr-tb;fill:#000000;fill-opacity:1;fill-rule:nonzero;stroke:none"
         x="0"
         y="0"
         id="tspan7">ε</tspan></text>
    <text
       id="text8"
       xml:space="preserve"
       transform="matrix(1.3333333,0,0,1.3333333,161.62432,155.42479)"
       clip-path="url(#clipPath9)"><tspan
         style="font-style:italic;font-variant:normal;font-weight:normal;font-stretch:normal;font-size:10.0071px;font-family:'Palatino Linotype';writing-mode:lr-tb;fill:#000000;fill-opacity:1;fill-rule:nonzero;stroke:none"
         x="0"
         y="0"
         id="tspan8">χ</tspan></text>
    <text
       id="text9"
       xml:space="preserve"
       transform="matrix(1.3333333,0,0,1.3333333,169.53853,160.9366)"
       clip-path="url(#clipPath10)"><tspan
         style="font-style:italic;font-variant:normal;font-weight:normal;font-stretch:normal;font-size:6.00428px;font-family:'Palatino Linotype';writing-mode:lr-tb;fill:#000000;fill-opacity:1;fill-rule:nonzero;stroke:none"
         x="0"
         y="0"
         id="tspan9">z</tspan></text>
    <path
       id="path11"
       d="m 119.49283,99.17409 2.45488,1.41733 m 1.9639,1.13385 2.45488,1.41732 m 1.96389,1.13387 2.45487,1.41731 m 1.9639,1.13387 2.45489,1.41731 m 1.9639,1.13386 2.45486,1.41733 m 1.9639,1.13385 2.4549,1.41733 m 1.96389,1.13385 2.45487,1.41733 m 1.9639,1.13386 2.45489,1.41732 m 1.9639,1.13386 2.45486,1.41731 m 1.9639,1.13387 2.45486,1.41733 m 1.9639,1.13385 0.48191,0.27821 M 118.2563,98.46017 v 0 m 45.90618,26.50394 v 0 m 42.63339,-10.10277 V 92.68446 m 0,5.95276 v 0.4252 m 0,-6.37796 v 0 l 0.8504,5.95276 h -1.7008 l 0.8504,-5.95276"
       style="fill:none;stroke:#000000;stroke-width:0.3685;stroke-linecap:round;stroke-linejoin:round;stroke-miterlimit:10;stroke-dasharray:none;stroke-opacity:1"
       transform="matrix(1.3333333,0,0,-1.3333333,0,222.992)" />
    <path
       id="path12"
       d="m 205.94547,98.63722 0.8504,-5.95276 0.8504,5.95276 z"
       style="fill:#000000;fill-opacity:1;fill-rule:nonzero;stroke:none"
       transform="matrix(1.3333333,0,0,-1.3333333,0,222.992)" />
    <path
       id="path13"
       d="m 206.79587,114.86134 19.20572,-11.08844 m -5.15522,2.97638 -0.36825,0.2126 m 5.52347,-3.18898 v 0 l -4.73004,3.71285 -0.85038,-1.47292 5.58042,-2.23993"
       style="fill:none;stroke:#000000;stroke-width:0.3685;stroke-linecap:round;stroke-linejoin:round;stroke-miterlimit:10;stroke-dasharray:none;stroke-opacity:1"
       transform="matrix(1.3333333,0,0,-1.3333333,0,222.992)" />
    <path
       id="path14"
       d="m 220.42117,106.01283 5.58042,-2.23993 -4.73004,3.71285 z"
       style="fill:#000000;fill-opacity:1;fill-rule:nonzero;stroke:none"
       transform="matrix(1.3333333,0,0,-1.3333333,0,222.992)" />
    <path
       id="path15"
       d="M 206.79587,114.86134 187.59012,103.7729 m 5.15524,2.97638 0.36823,0.2126 m -5.52347,-3.18898 v 0 l 5.58044,2.23992 -0.8504,1.47291 -4.73004,-3.71283"
       style="fill:none;stroke:#000000;stroke-width:0.3685;stroke-linecap:round;stroke-linejoin:round;stroke-miterlimit:10;stroke-dasharray:none;stroke-opacity:1"
       transform="matrix(1.3333333,0,0,-1.3333333,0,222.992)" />
    <path
       id="path16"
       d="m 192.32016,107.48573 -4.73004,-3.71283 5.58044,2.23992 z"
       style="fill:#000000;fill-opacity:1;fill-rule:nonzero;stroke:none"
       transform="matrix(1.3333333,0,0,-1.3333333,0,222.992)" />
    <path
       id="path17"
       d="m 164.16248,55.52975 13.99276,8.07876 -27.98556,53.27687 13.9928,8.07873"
       style="fill:none;stroke:#000000;stroke-width:0.3685;stroke-linecap:round;stroke-linejoin:round;stroke-miterlimit:10;stroke-dasharray:none;stroke-opacity:1"
       transform="matrix(1.3333333,0,0,-1.3333333,0,222.992)" />
    <path
       id="path18"
       d="m 164.16248,81.53798 c 1.41098,0 2.80081,0.34283 4.04992,0.99898"
       style="fill:none;stroke:#000000;stroke-width:0.3685;stroke-linecap:round;stroke-linejoin:round;stroke-miterlimit:10;stroke-dasharray:none;stroke-opacity:1"
       transform="matrix(1.3333333,0,0,-1.3333333,0,222.992)" />
    <path
       id="path19"
       d="M 164.16248,124.96411 V 55.52975 m -45.90618,8.21325 1.04929,0.6058 m 1.9639,1.13387 2.45488,1.41732 m 1.96389,1.13385 2.45487,1.41733 m 1.9639,1.13385 2.45489,1.41733 m 1.9639,1.13385 2.45486,1.41733 m 1.9639,1.13386 2.4549,1.41732 m 1.96389,1.13386 2.45487,1.41733 m 1.9639,1.13385 2.45486,1.41733 m 1.96393,1.13385 2.45486,1.41733 m 1.9639,1.13386 2.45486,1.41731 m 1.9639,1.13387 2.4549,1.41731 M 118.2563,63.743 v 0 m 45.90618,26.50393 v 0 m -44.66965,8.92716 2.45488,1.41733 m 1.9639,1.13385 2.45488,1.41732 m 1.96389,1.13387 2.45487,1.41731 m 1.9639,1.13387 2.45489,1.41731 m 1.9639,1.13386 2.45486,1.41733 m 1.9639,1.13385 2.4549,1.41733 m 1.96389,1.13385 2.45487,1.41733 m 1.9639,1.13386 2.45489,1.41732 m 1.9639,1.13386 2.45486,1.41731 m 1.9639,1.13387 2.45486,1.41733 m 1.9639,1.13385 0.48191,0.27821 M 118.2563,98.46017 v 0 m 45.90618,26.50394 v 0 m -45.53511,-95.72406 2.45486,1.41733 m 1.96391,1.13385 2.45487,1.41733 m 1.96389,1.13386 2.4549,1.41732 m 1.9639,1.13386 2.45486,1.41733 m 1.9639,1.13385 2.45489,1.41733 m 1.9639,1.13385 2.45487,1.41732 m 1.96389,1.13385 2.45487,1.41733 m 1.9639,1.13387 2.45489,1.41731 m 1.9639,1.13387 2.45486,1.41732 m 1.9639,1.13385 2.4549,1.41733 m 1.96389,1.13385 1.34736,0.77789 M 118.2563,29.02582 v 0 m 45.90618,26.50393 v 0 M 118.2563,30.61418 v 2.83464 m 0,2.26772 v 2.83464 m 0,2.26771 v 2.83466 m 0,2.26771 v 2.83465 m 0,2.26771 v 2.83466 m 0,2.26771 v 2.83464 m 0,2.26772 V 64.063 m 0,2.26772 v 2.83464 m 0,2.26771 v 2.83465 m 0,2.26771 v 2.83466"
       style="fill:none;stroke:#000000;stroke-width:0.3685;stroke-linecap:round;stroke-linejoin:round;stroke-miterlimit:10;stroke-dasharray:none;stroke-opacity:1"
       transform="matrix(1.3333333,0,0,-1.3333333,0,222.992)" />
    <path
       id="path20"
       d="m 118.2563,81.6378 v 2.83464 m 0,2.26772 v 2.83465 m 0,2.26772 v 2.83464 m 0,2.26772 v 1.51528 m 0,-69.43435 v 0 m 0,69.43435 v 0 M 138.30026,52.17061 98.21233,75.3154 m 40.08793,-23.14479 19.32401,11.15672 M 78.88834,64.15868 98.21233,75.3154 M 78.88834,64.15868 157.62427,63.32733"
       style="fill:none;stroke:#000000;stroke-width:0.3685;stroke-linecap:round;stroke-linejoin:round;stroke-miterlimit:10;stroke-dasharray:none;stroke-opacity:1"
       transform="matrix(1.3333333,0,0,-1.3333333,0,222.992)" />
    <path
       id="path21"
       d="m 125.79848,59.38852 c 0.74878,1.29694 1.15048,2.76504 1.16629,4.26253"
       style="fill:none;stroke:#000000;stroke-width:0.3685;stroke-linecap:round;stroke-linejoin:round;stroke-miterlimit:10;stroke-dasharray:none;stroke-opacity:1"
       transform="matrix(1.3333333,0,0,-1.3333333,0,222.992)" />
  </g>
</svg>
