<?xml version="1.0" encoding="UTF-8" standalone="no"?>
<!-- Created with Inkscape (http://www.inkscape.org/) -->

<svg
   version="1.1"
   id="svg1"
   width="566.92932"
   height="181.41733"
   viewBox="0 0 566.92932 181.41733"
   sodipodi:docname="allg_qs_analyse.pdf"
   xmlns:inkscape="http://www.inkscape.org/namespaces/inkscape"
   xmlns:sodipodi="http://sodipodi.sourceforge.net/DTD/sodipodi-0.dtd"
   xmlns="http://www.w3.org/2000/svg"
   xmlns:svg="http://www.w3.org/2000/svg">
  <defs
     id="defs1">
    <clipPath
       clipPathUnits="userSpaceOnUse"
       id="clipPath1">
      <path
         d="M 262.34039,-0.00136 V 136.06436 H -0.00426 V -0.00136 h 262.34465"
         transform="matrix(1,0,0,-1,-219.23038,11.718063)"
         clip-rule="evenodd"
         id="path1" />
    </clipPath>
    <clipPath
       clipPathUnits="userSpaceOnUse"
       id="clipPath2">
      <path
         d="M 262.34039,-0.00136 V 136.06436 H -0.00426 V -0.00136 h 262.34465"
         transform="matrix(1,0,0,-1,-199.77477,31.378053)"
         clip-rule="evenodd"
         id="path2" />
    </clipPath>
    <clipPath
       clipPathUnits="userSpaceOnUse"
       id="clipPath3">
      <path
         d="M 262.34039,-0.00136 V 136.06436 H -0.00426 V -0.00136 h 262.34465"
         transform="matrix(1,0,0,-1,-23.109441,64.972842)"
         clip-rule="evenodd"
         id="path3" />
    </clipPath>
    <clipPath
       clipPathUnits="userSpaceOnUse"
       id="clipPath4">
      <path
         d="M 262.34039,-0.00136 V 136.06436 H -0.00426 V -0.00136 h 262.34465"
         transform="matrix(1,0,0,-1,-2.38771,56.468899)"
         clip-rule="evenodd"
         id="path4" />
    </clipPath>
    <clipPath
       clipPathUnits="userSpaceOnUse"
       id="clipPath5">
      <path
         d="M 262.34039,-0.00136 V 136.06436 H -0.00426 V -0.00136 h 262.34465"
         transform="matrix(1,0,0,-1,-103.50396,127.29172)"
         clip-rule="evenodd"
         id="path5" />
    </clipPath>
    <clipPath
       clipPathUnits="userSpaceOnUse"
       id="clipPath6">
      <path
         d="M 262.34039,-0.00136 V 136.06436 H -0.00426 V -0.00136 h 262.34465"
         transform="matrix(1,0,0,-1,-392.27778,104.81587)"
         clip-rule="evenodd"
         id="path6" />
    </clipPath>
    <clipPath
       clipPathUnits="userSpaceOnUse"
       id="clipPath7">
      <path
         d="M 262.34039,-0.00136 V 136.06436 H -0.00426 V -0.00136 h 262.34465"
         transform="matrix(1,0,0,-1,-408.66333,121.50513)"
         clip-rule="evenodd"
         id="path7" />
    </clipPath>
    <clipPath
       clipPathUnits="userSpaceOnUse"
       id="clipPath8">
      <path
         d="M 262.34039,-0.00136 V 136.06436 H -0.00426 V -0.00136 h 262.34465"
         transform="matrix(1,0,0,-1,-343.93077,117.0939)"
         clip-rule="evenodd"
         id="path8" />
    </clipPath>
    <clipPath
       clipPathUnits="userSpaceOnUse"
       id="clipPath9">
      <path
         d="M 262.34039,-0.00136 V 136.06436 H -0.00426 V -0.00136 h 262.34465"
         transform="matrix(1,0,0,-1,-353.66607,112.96004)"
         clip-rule="evenodd"
         id="path9" />
    </clipPath>
    <clipPath
       clipPathUnits="userSpaceOnUse"
       id="clipPath10">
      <path
         d="M 262.34039,-0.00136 V 136.06436 H -0.00426 V -0.00136 h 262.34465"
         transform="matrix(1,0,0,-1,-104.09551,70.566862)"
         clip-rule="evenodd"
         id="path10" />
    </clipPath>
    <clipPath
       clipPathUnits="userSpaceOnUse"
       id="clipPath27">
      <path
         d="M 211.37518,136.06436 V -0.00136 H 425.20111 V 136.06436 H 211.37518"
         transform="matrix(1,0,0,-1,-150.82659,28.671438)"
         clip-rule="evenodd"
         id="path27" />
    </clipPath>
    <clipPath
       clipPathUnits="userSpaceOnUse"
       id="clipPath28">
      <path
         d="M 211.37518,136.06436 V -0.00136 H 425.20111 V 136.06436 H 211.37518"
         transform="matrix(1,0,0,-1,-250.2417,55.070659)"
         clip-rule="evenodd"
         id="path28" />
    </clipPath>
    <clipPath
       clipPathUnits="userSpaceOnUse"
       id="clipPath29">
      <path
         d="M 211.37518,136.06436 V -0.00136 H 425.20111 V 136.06436 H 211.37518"
         transform="matrix(1,0,0,-1,-259.977,50.936801)"
         clip-rule="evenodd"
         id="path29" />
    </clipPath>
    <clipPath
       clipPathUnits="userSpaceOnUse"
       id="clipPath30">
      <path
         d="M 211.37518,136.06436 V -0.00136 H 425.20111 V 136.06436 H 211.37518"
         transform="matrix(1,0,0,-1,-281.7891,34.585758)"
         clip-rule="evenodd"
         id="path30" />
    </clipPath>
    <clipPath
       clipPathUnits="userSpaceOnUse"
       id="clipPath31">
      <path
         d="M 211.37518,136.06436 V -0.00136 H 425.20111 V 136.06436 H 211.37518"
         transform="matrix(1,0,0,-1,-291.48367,30.451901)"
         clip-rule="evenodd"
         id="path31" />
    </clipPath>
    <clipPath
       clipPathUnits="userSpaceOnUse"
       id="clipPath32">
      <path
         d="M 211.37518,136.06436 V -0.00136 H 425.20111 V 136.06436 H 211.37518"
         transform="matrix(1,0,0,-1,-295.63416,104.66756)"
         clip-rule="evenodd"
         id="path32" />
    </clipPath>
    <clipPath
       clipPathUnits="userSpaceOnUse"
       id="clipPath33">
      <path
         d="M 211.37518,136.06436 V -0.00136 H 425.20111 V 136.06436 H 211.37518"
         transform="matrix(1,0,0,-1,-351.71677,69.065691)"
         clip-rule="evenodd"
         id="path33" />
    </clipPath>
    <clipPath
       clipPathUnits="userSpaceOnUse"
       id="clipPath34">
      <path
         d="M 211.37518,136.06436 V -0.00136 H 425.20111 V 136.06436 H 211.37518"
         transform="matrix(1,0,0,-1,-361.41134,64.931832)"
         clip-rule="evenodd"
         id="path34" />
    </clipPath>
    <clipPath
       clipPathUnits="userSpaceOnUse"
       id="clipPath35">
      <path
         d="M 211.37518,136.06436 V -0.00136 H 425.20111 V 136.06436 H 211.37518"
         transform="matrix(1,0,0,-1,-278.25682,79.085792)"
         clip-rule="evenodd"
         id="path35" />
    </clipPath>
    <clipPath
       clipPathUnits="userSpaceOnUse"
       id="clipPath36">
      <path
         d="M 211.37518,136.06436 V -0.00136 H 425.20111 V 136.06436 H 211.37518"
         transform="matrix(1,0,0,-1,-292.0653,90.768282)"
         clip-rule="evenodd"
         id="path36" />
    </clipPath>
    <clipPath
       clipPathUnits="userSpaceOnUse"
       id="clipPath37">
      <path
         d="M 211.37518,136.06436 V -0.00136 H 425.20111 V 136.06436 H 211.37518"
         transform="matrix(1,0,0,-1,-365.88323,104.70507)"
         clip-rule="evenodd"
         id="path37" />
    </clipPath>
    <clipPath
       clipPathUnits="userSpaceOnUse"
       id="clipPath38">
      <path
         d="M 211.37518,136.06436 V -0.00136 H 425.20111 V 136.06436 H 211.37518"
         transform="matrix(1,0,0,-1,-249.76924,88.672532)"
         clip-rule="evenodd"
         id="path38" />
    </clipPath>
    <clipPath
       clipPathUnits="userSpaceOnUse"
       id="clipPath39">
      <path
         d="M 211.37518,136.06436 V -0.00136 H 425.20111 V 136.06436 H 211.37518"
         transform="matrix(1,0,0,-1,-259.50456,84.538682)"
         clip-rule="evenodd"
         id="path39" />
    </clipPath>
    <clipPath
       clipPathUnits="userSpaceOnUse"
       id="clipPath40">
      <path
         d="M 211.37518,136.06436 V -0.00136 H 425.20111 V 136.06436 H 211.37518"
         transform="matrix(1,0,0,-1,-274.96518,111.61285)"
         clip-rule="evenodd"
         id="path40" />
    </clipPath>
    <clipPath
       clipPathUnits="userSpaceOnUse"
       id="clipPath41">
      <path
         d="M 211.37518,136.06436 V -0.00136 H 425.20111 V 136.06436 H 211.37518"
         transform="matrix(1,0,0,-1,-377.15495,10.762923)"
         clip-rule="evenodd"
         id="path41" />
    </clipPath>
    <clipPath
       clipPathUnits="userSpaceOnUse"
       id="clipPath42">
      <path
         d="M 211.37518,136.06436 V -0.00136 H 425.20111 V 136.06436 H 211.37518"
         transform="matrix(1,0,0,-1,-308.67292,51.861581)"
         clip-rule="evenodd"
         id="path42" />
    </clipPath>
    <clipPath
       clipPathUnits="userSpaceOnUse"
       id="clipPath43">
      <path
         d="M 211.37518,136.06436 V -0.00136 H 425.20111 V 136.06436 H 211.37518"
         transform="matrix(1,0,0,-1,-315.76458,51.861581)"
         clip-rule="evenodd"
         id="path43" />
    </clipPath>
    <clipPath
       clipPathUnits="userSpaceOnUse"
       id="clipPath53">
      <path
         d="M -0.00426,-0.00136 V 136.06436 H 425.20111 V -0.00136 H -0.00426"
         transform="matrix(1,0,0,-1,-5.7696502,124.99971)"
         clip-rule="evenodd"
         id="path53" />
    </clipPath>
    <clipPath
       clipPathUnits="userSpaceOnUse"
       id="clipPath54">
      <path
         d="M -0.00426,-0.00136 V 136.06436 H 425.20111 V -0.00136 H -0.00426"
         transform="matrix(1,0,0,-1,-237.97438,124.99971)"
         clip-rule="evenodd"
         id="path54" />
    </clipPath>
  </defs>
  <sodipodi:namedview
     id="namedview1"
     pagecolor="#ffffff"
     bordercolor="#000000"
     borderopacity="0.25"
     inkscape:showpageshadow="2"
     inkscape:pageopacity="0.0"
     inkscape:pagecheckerboard="0"
     inkscape:deskcolor="#d1d1d1">
    <inkscape:page
       x="0"
       y="0"
       inkscape:label="1"
       id="page1"
       width="566.92932"
       height="181.41733"
       margin="0"
       bleed="0" />
  </sodipodi:namedview>
  <g
     id="g1"
     inkscape:groupmode="layer"
     inkscape:label="1">
    <text
       id="text1"
       xml:space="preserve"
       transform="matrix(1.3333333,0,0,1.3333333,292.30717,165.79325)"
       clip-path="url(#clipPath1)"><tspan
         style="font-style:italic;font-variant:normal;font-weight:normal;font-stretch:normal;font-size:10.0071px;font-family:'Palatino Linotype';writing-mode:lr-tb;fill:#000000;fill-opacity:1;fill-rule:nonzero;stroke:none"
         x="0"
         y="0"
         id="tspan1">ε</tspan></text>
    <text
       id="text2"
       xml:space="preserve"
       transform="matrix(1.3333333,0,0,1.3333333,266.36635,139.57993)"
       clip-path="url(#clipPath2)"><tspan
         style="font-style:italic;font-variant:normal;font-weight:normal;font-stretch:normal;font-size:10.0071px;font-family:'Palatino Linotype';writing-mode:lr-tb;fill:#000000;fill-opacity:1;fill-rule:nonzero;stroke:none"
         x="0 6.1043491"
         y="0"
         sodipodi:role="line"
         id="tspan2">χ+</tspan></text>
    <text
       id="text3"
       xml:space="preserve"
       transform="matrix(1.3333333,0,0,1.3333333,30.812587,94.78688)"
       clip-path="url(#clipPath3)"><tspan
         style="font-style:italic;font-variant:normal;font-weight:normal;font-stretch:normal;font-size:10.0071px;font-family:'Palatino Linotype';writing-mode:lr-tb;fill:#000000;fill-opacity:1;fill-rule:nonzero;stroke:none"
         x="0"
         y="0"
         id="tspan3">d</tspan></text>
    <text
       id="text4"
       xml:space="preserve"
       transform="matrix(1.3333333,0,0,1.3333333,3.1836133,106.12547)"
       clip-path="url(#clipPath4)"><tspan
         style="font-style:italic;font-variant:normal;font-weight:normal;font-stretch:normal;font-size:10.0071px;font-family:'Palatino Linotype';writing-mode:lr-tb;fill:#000000;fill-opacity:1;fill-rule:nonzero;stroke:none"
         x="0"
         y="0"
         id="tspan4">h</tspan></text>
    <text
       id="text5"
       xml:space="preserve"
       transform="matrix(1.3333333,0,0,1.3333333,138.00528,11.69504)"
       clip-path="url(#clipPath5)"><tspan
         style="font-style:italic;font-variant:normal;font-weight:normal;font-stretch:normal;font-size:10.0071px;font-family:'Palatino Linotype';writing-mode:lr-tb;fill:#000000;fill-opacity:1;fill-rule:nonzero;stroke:none"
         x="0"
         y="0"
         id="tspan5">b</tspan></text>
    <text
       id="text6"
       xml:space="preserve"
       transform="matrix(1.3333333,0,0,1.3333333,523.03703,41.66284)"
       clip-path="url(#clipPath6)"><tspan
         style="font-variant:normal;font-weight:normal;font-stretch:normal;font-size:10.0916px;font-family:'Palatino Linotype';writing-mode:lr-tb;fill:#000000;fill-opacity:1;fill-rule:nonzero;stroke:none"
         x="0 5.9944162 11.040221 16.086027 18.608929"
         y="0"
         sodipodi:role="line"
         id="tspan6">γ=0.5</tspan></text>
    <text
       id="text7"
       xml:space="preserve"
       transform="matrix(1.3333333,0,0,1.3333333,544.88443,19.410493)"
       clip-path="url(#clipPath7)"><tspan
         style="font-variant:normal;font-weight:normal;font-stretch:normal;font-size:10.0916px;font-family:'Palatino Linotype';writing-mode:lr-tb;fill:#000000;fill-opacity:1;fill-rule:nonzero;stroke:none"
         x="0 5.9944162 11.040221"
         y="0"
         sodipodi:role="line"
         id="tspan7">γ=1</tspan></text>
    <text
       id="text8"
       xml:space="preserve"
       transform="matrix(1.3333333,0,0,1.3333333,458.57435,25.292133)"
       clip-path="url(#clipPath8)"><tspan
         style="font-style:italic;font-variant:normal;font-weight:normal;font-stretch:normal;font-size:10.0071px;font-family:'Palatino Linotype';writing-mode:lr-tb;fill:#000000;fill-opacity:1;fill-rule:nonzero;stroke:none"
         x="0"
         y="0"
         id="tspan8">M</tspan></text>
    <text
       id="text9"
       xml:space="preserve"
       transform="matrix(1.3333333,0,0,1.3333333,471.55475,30.803947)"
       clip-path="url(#clipPath9)"><tspan
         style="font-style:italic;font-variant:normal;font-weight:normal;font-stretch:normal;font-size:6.00428px;font-family:'Palatino Linotype';writing-mode:lr-tb;fill:#000000;fill-opacity:1;fill-rule:nonzero;stroke:none"
         x="0"
         y="0"
         id="tspan9">y</tspan></text>
    <text
       id="text10"
       xml:space="preserve"
       transform="matrix(1.3333333,0,0,1.3333333,138.79401,87.328187)"
       clip-path="url(#clipPath10)"><tspan
         style="font-style:italic;font-variant:normal;font-weight:normal;font-stretch:normal;font-size:10.0071px;font-family:'Palatino Linotype';writing-mode:lr-tb;fill:#000000;fill-opacity:1;fill-rule:nonzero;stroke:none"
         x="0"
         y="0"
         id="tspan10">M</tspan></text>
    <path
       id="path11"
       d="m 33.14531,32.4877 -0.4252,2.97638 h 0.8504 l -0.4252,-2.97638 m 0,70.86615 -0.4252,-2.97638 h 0.8504 l -0.4252,2.97638 m 0,-70.86615 h -2.12598 m 2.12598,0 h 2.12598 m -2.12598,70.86615 h -2.12598 m 2.12598,0 h 2.12598 M 33.14531,32.4877 H 53.55309 M 33.14531,103.35385 H 53.55309 M 33.14531,32.4877 v 0 m 0,70.86615 v 0 m 0,-70.86615 v 70.86615 m 32.55626,-68.8414 h 80.9899 v 4.0495 h -80.9899 v -4.0495 h 80.9899 v 4.0495 h -80.9899 v -4.0495"
       style="fill:none;stroke:#000000;stroke-width:0.3685;stroke-linecap:round;stroke-linejoin:round;stroke-miterlimit:10;stroke-dasharray:none;stroke-opacity:1"
       transform="matrix(1.3333333,0,0,-1.3333333,0,181.41733)" />
    <path
       id="path12"
       d="m 138.59247,32.4877 c 0,1.11824 -0.9065,2.02475 -2.02475,2.02475 m 0,0 c -1.11823,0 -2.02475,-0.90651 -2.02475,-2.02475 m 0,0 c 0,-1.11824 0.90652,-2.02475 2.02475,-2.02475 m 0,0 c 1.11825,0 2.02475,0.90651 2.02475,2.02475"
       style="fill:none;stroke:#000000;stroke-width:0.3685;stroke-linecap:round;stroke-linejoin:round;stroke-miterlimit:10;stroke-dasharray:none;stroke-opacity:1"
       transform="matrix(1.3333333,0,0,-1.3333333,0,181.41733)" />
    <path
       id="path13"
       d="m 77.85005,32.4877 c 0,1.11824 -0.90651,2.02475 -2.02475,2.02475 m 0,0 c -1.11822,0 -2.02473,-0.90651 -2.02473,-2.02475 m 0,0 c 0,-1.11824 0.90651,-2.02475 2.02473,-2.02475 m 0,0 c 1.11824,0 2.02475,0.90651 2.02475,2.02475"
       style="fill:none;stroke:#000000;stroke-width:0.3685;stroke-linecap:round;stroke-linejoin:round;stroke-miterlimit:10;stroke-dasharray:none;stroke-opacity:1"
       transform="matrix(1.3333333,0,0,-1.3333333,0,181.41733)" />
    <path
       id="path14"
       d="m 65.70157,103.35385 h 80.9899 M 65.70157,22.36397 h 80.9899 m 0,80.98988 V 22.36397 m -80.9899,80.98988 V 22.36397"
       style="fill:none;stroke:#000000;stroke-width:0.3685;stroke-linecap:round;stroke-linejoin:round;stroke-miterlimit:10;stroke-dasharray:none;stroke-opacity:1"
       transform="matrix(1.3333333,0,0,-1.3333333,0,181.41733)" />
    <path
       id="path15"
       d="m 198.02289,56.32523 c 2.12863,0 4.22607,0.51156 6.11563,1.49162"
       style="fill:none;stroke:#000000;stroke-width:0.3685;stroke-linecap:round;stroke-linejoin:round;stroke-miterlimit:10;stroke-dasharray:none;stroke-opacity:1"
       transform="matrix(1.3333333,0,0,-1.3333333,0,181.41733)" />
    <path
       id="path16"
       d="M 198.02289,103.35385 V 22.36397 m -20.24747,80.98988 h 20.24747 m 0,-80.98988 h 26.62955 l -46.87702,80.98988 M 148.81891,22.36397 h 4.25195 m 2.83466,0 h 4.25198 m 2.83463,0 h 4.25198 m 2.83463,0 h 4.25198 m 2.83465,0 h 4.25196 m 2.83465,0 h 4.25196 m 2.83465,0 h 4.25196 m 2.83465,0 h 4.25199 m 2.83462,0 h 4.25198 m 2.83463,0 h 4.25198 m 2.83466,0 h 4.25195 m -77.24554,0 v 0 m 77.96097,0 v 0 m -75.83353,80.98988 h 4.25195 m 2.83466,0 h 4.25198 m 2.83463,0 h 4.25198 m 2.83463,0 h 4.25198 m 2.83465,0 h 4.25196 m 2.83465,0 h 4.25196 m 2.83465,0 h 4.25196 m -48.89908,0 v 0 m 51.33142,0 v 0 M 111.10387,62.8589 H 96.36298 m 5.95275,0 h 0.42519 m -6.37794,0 v 0 l 5.95275,-0.85039 v 1.70078 L 96.36298,62.8589"
       style="fill:none;stroke:#000000;stroke-width:0.3685;stroke-linecap:round;stroke-linejoin:round;stroke-miterlimit:10;stroke-dasharray:none;stroke-opacity:1"
       transform="matrix(1.3333333,0,0,-1.3333333,0,181.41733)" />
    <path
       id="path17"
       d="m 102.31573,63.70929 -5.95275,-0.85039 5.95275,-0.85039 z"
       style="fill:#000000;fill-opacity:1;fill-rule:nonzero;stroke:none"
       transform="matrix(1.3333333,0,0,-1.3333333,0,181.41733)" />
    <path
       id="path18"
       d="m 117.17812,62.8589 h -14.74091 m 5.95276,0 h 0.4252 m -6.37796,0 v 0 l 5.95276,-0.85039 v 1.70078 l -5.95276,-0.85039"
       style="fill:none;stroke:#000000;stroke-width:0.3685;stroke-linecap:round;stroke-linejoin:round;stroke-miterlimit:10;stroke-dasharray:none;stroke-opacity:1"
       transform="matrix(1.3333333,0,0,-1.3333333,0,181.41733)" />
    <path
       id="path19"
       d="m 108.38997,63.70929 -5.95276,-0.85039 5.95276,-0.85039 z"
       style="fill:#000000;fill-opacity:1;fill-rule:nonzero;stroke:none"
       transform="matrix(1.3333333,0,0,-1.3333333,0,181.41733)" />
    <path
       id="path20"
       d="m 12.42358,22.36397 -0.4252,2.97638 h 0.85039 l -0.42519,-2.97638 m 0,80.98988 -0.4252,-2.97638 h 0.85039 l -0.42519,2.97638 m 0,-80.98988 h -2.12599 m 2.12599,0 h 2.12598 m -2.12598,80.98988 h -2.12599 m 2.12599,0 h 2.12598 M 12.42358,22.36397 H 53.55309 M 12.42358,103.35385 H 53.55309 M 12.42358,22.36397 v 0 m 0,80.98988 v 0 m 0,-80.98988 v 80.98988 m 53.27799,20.619 2.97638,0.42521 v -0.85039 l -2.97638,0.42518 m 80.9899,0 -2.97638,0.42521 v -0.85039 l 2.97638,0.42518 m -80.9899,0 v 2.126 m 0,-2.126 v -2.12597 m 80.9899,2.12597 v 2.126 m 0,-2.126 v -2.12597 m -80.9899,2.12597 v -8.47052 m 80.9899,8.47052 v -8.47052 m -80.9899,8.47052 v 0 m 80.9899,0 v 0 m -80.9899,0 h 80.9899 m 132.64972,-76.87377 -4.9827,-17.09682 h 4.9827 v 17.09682 m 69.53064,29.57641 -11.61194,-8.6665 h 11.61194 v 8.6665 m -57.72019,-20.88553 2.25372,1.71929 m 1.80301,1.37541 2.25373,1.71928 m 1.80298,1.37541 2.25372,1.71927 m 1.80301,1.37543 2.25372,1.71927 m 1.80298,1.37543 2.25375,1.71927 m 1.80298,1.37542 2.25372,1.71927 m 1.80298,1.37543 2.25376,1.71927 m 1.80298,1.37543 2.25372,1.71926 m 1.80298,1.37542 2.25375,1.71928 m 1.80298,1.37541 2.25372,1.71929 m 1.80301,1.37541 1.81122,1.3817 M 289.4826,54.51674 v 0 m 44.04746,33.60187 v 0 m -38.37814,-33.60187 0.33902,0.25862"
       style="fill:none;stroke:#000000;stroke-width:0.3685;stroke-linecap:round;stroke-linejoin:round;stroke-miterlimit:10;stroke-dasharray:none;stroke-opacity:1"
       transform="matrix(1.3333333,0,0,-1.3333333,0,181.41733)" />
    <path
       id="path21"
       d="m 297.29391,56.15079 2.25373,1.71927 m 1.80301,1.37542 2.25372,1.71927 m 1.80298,1.37543 2.25372,1.71927 m 1.80301,1.37543 2.25372,1.71926 m 1.80298,1.37542 2.25376,1.71928 m 1.80297,1.37541 2.25373,1.71929 m 1.80298,1.37541 2.25375,1.71928 m 1.80298,1.37541 2.25372,1.71929 m 1.80298,1.37541 2.25375,1.71927 m 1.80298,1.37543 2.25373,1.71927 m 1.803,1.37542 1.33823,1.02088 M 295.15192,54.51674 v 0 m 44.04742,33.60187 v 0 m -5.66928,0 h 0.95813 m -0.95813,0 v 0 m 3.1181,0 v 0 m -66.64343,-65.75702 8.44296,32.15515 h 14.15305 l 44.04742,33.60187 h 42.15738 M 302.79309,62.29205 h 19.55499 m -16.57861,0 h 0.21262 m -3.189,0 v 0 l 2.97638,0.4252 v -0.85038 l -2.97638,0.42518"
       style="fill:none;stroke:#000000;stroke-width:0.3685;stroke-linecap:round;stroke-linejoin:round;stroke-miterlimit:10;stroke-dasharray:none;stroke-opacity:1"
       transform="matrix(1.3333333,0,0,-1.3333333,0,181.41733)" />
    <path
       id="path22"
       d="m 305.76947,61.86687 v 0.85038 l -2.97638,-0.4252 z"
       style="fill:#000000;fill-opacity:1;fill-rule:nonzero;stroke:none"
       transform="matrix(1.3333333,0,0,-1.3333333,0,181.41733)" />
    <path
       id="path23"
       d="m 319.3717,62.29205 h -0.21258 m 3.18896,0 v 0 l -2.97638,0.4252 v -0.85038 l 2.97638,0.42518"
       style="fill:none;stroke:#000000;stroke-width:0.3685;stroke-linecap:round;stroke-linejoin:round;stroke-miterlimit:10;stroke-dasharray:none;stroke-opacity:1"
       transform="matrix(1.3333333,0,0,-1.3333333,0,181.41733)" />
    <path
       id="path24"
       d="m 319.3717,61.86687 2.97638,0.42518 -2.97638,0.4252 z"
       style="fill:#000000;fill-opacity:1;fill-rule:nonzero;stroke:none"
       transform="matrix(1.3333333,0,0,-1.3333333,0,181.41733)" />
    <path
       id="path25"
       d="m 270.00473,54.51674 h -2.83466 m 2.83466,33.60187 h -2.83466 m 3.92527,-64.92505 2.25372,1.71928 m 1.80298,1.37541 2.25375,1.71929 m 1.80298,1.37541 2.25372,1.71928 m 1.80301,1.37542 2.25373,1.71928 m 1.80297,1.37541 2.25373,1.71927 m 1.80301,1.37543 2.25372,1.71927 m 1.80298,1.37542 2.25375,1.71927 m 1.80298,1.37543 2.25372,1.71927 m 1.80298,1.37543 2.25376,1.71926 m 1.80297,1.37542 2.25373,1.71928 m 1.80298,1.37541 2.25375,1.71929 m 1.80298,1.37541 2.25372,1.71928 m 1.80301,1.37542 2.25372,1.71928 m 1.80298,1.37541 2.25373,1.71929 m 1.803,1.37541 2.25373,1.71927 m 1.80298,1.37542 2.25375,1.71927 m 1.80298,1.37543 2.25372,1.71927 m 1.80298,1.37543 2.25375,1.71926 m 1.80298,1.37543 2.25373,1.71927 m 1.80297,1.37541 2.25376,1.71929 m 1.80298,1.37541 2.25372,1.71928 m 1.80301,1.37541 2.25372,1.71929 m 1.80298,1.37541 2.25372,1.71928 m 1.80301,1.37542 2.25372,1.71927 m 1.80298,1.37542 2.25376,1.71927 m 1.80298,1.37543 2.25372,1.71927 m 1.80298,1.37542 2.25375,1.71927 m 1.80298,1.37543 2.25372,1.71927 m -112.87573,-86.108 v 0 m 113.91315,86.89938 v 0 m -113.49582,-85.30995 0.71988,2.7417 m 0.57592,2.19337 0.71988,2.74172 m 0.57593,2.19336 0.71988,2.74171 m 0.57593,2.19336 0.71988,2.74172 m 0.5759,2.19337 0.7199,2.7417 m 0.5759,2.19337 0.71991,2.74172 m 0.5759,2.19336 0.71991,2.74171 m 0.5759,2.19338 0.71987,2.7417 m 0.57593,2.19337 0.71988,2.74172 m 0.57593,2.19335 0.71988,2.74172 m 0.57593,2.19336 0.71988,2.74171 m 0.57592,2.19338 0.71988,2.7417 m 0.5759,2.19337 0.71991,2.74172 m 0.5759,2.19336 0.71991,2.74171 m 0.57589,2.19337 0.71991,2.7417 m 0.5759,2.19338 0.71988,2.74171 m 0.57593,2.19336 0.71988,2.74172 m 0.57592,2.19336 0.71988,2.74171"
       style="fill:none;stroke:#000000;stroke-width:0.3685;stroke-linecap:round;stroke-linejoin:round;stroke-miterlimit:10;stroke-dasharray:none;stroke-opacity:1"
       transform="matrix(1.3333333,0,0,-1.3333333,0,181.41733)" />
    <path
       id="path26"
       d="m 270.00473,22.36159 v 0 m 23.56067,89.73106 v 0"
       style="fill:none;stroke:#000000;stroke-width:0.3685;stroke-linecap:round;stroke-linejoin:round;stroke-miterlimit:10;stroke-dasharray:none;stroke-opacity:1"
       transform="matrix(1.3333333,0,0,-1.3333333,0,181.41733)" />
    <text
       id="text26"
       xml:space="preserve"
       transform="matrix(1.3333333,0,0,1.3333333,201.10211,143.18875)"
       clip-path="url(#clipPath27)"><tspan
         style="font-style:italic;font-variant:normal;font-weight:normal;font-stretch:normal;font-size:10.0071px;font-family:'Palatino Linotype';writing-mode:lr-tb;fill:#000000;fill-opacity:1;fill-rule:nonzero;stroke:none"
         x="0 6.1043491"
         y="0"
         sodipodi:role="line"
         id="tspan26">χ+</tspan></text>
    <text
       id="text27"
       xml:space="preserve"
       transform="matrix(1.3333333,0,0,1.3333333,333.65559,107.98979)"
       clip-path="url(#clipPath28)"><tspan
         style="font-style:italic;font-variant:normal;font-weight:normal;font-stretch:normal;font-size:10.0071px;font-family:'Palatino Linotype';writing-mode:lr-tb;fill:#000000;fill-opacity:1;fill-rule:nonzero;stroke:none"
         x="0"
         y="0"
         id="tspan27">M</tspan></text>
    <text
       id="text28"
       xml:space="preserve"
       transform="matrix(1.3333333,0,0,1.3333333,346.63599,113.5016)"
       clip-path="url(#clipPath29)"><tspan
         style="font-style:italic;font-variant:normal;font-weight:normal;font-stretch:normal;font-size:6.00428px;font-family:'Palatino Linotype';writing-mode:lr-tb;fill:#000000;fill-opacity:1;fill-rule:nonzero;stroke:none"
         x="0"
         y="0"
         id="tspan28">r</tspan></text>
    <text
       id="text29"
       xml:space="preserve"
       transform="matrix(1.3333333,0,0,1.3333333,375.71879,135.30299)"
       clip-path="url(#clipPath30)"><tspan
         style="font-style:italic;font-variant:normal;font-weight:normal;font-stretch:normal;font-size:10.0071px;font-family:'Palatino Linotype';writing-mode:lr-tb;fill:#000000;fill-opacity:1;fill-rule:nonzero;stroke:none"
         x="0 6.1143565"
         y="0"
         sodipodi:role="line"
         id="tspan29">EI</tspan></text>
    <text
       id="text30"
       xml:space="preserve"
       transform="matrix(1.3333333,0,0,1.3333333,388.64488,140.8148)"
       clip-path="url(#clipPath31)"><tspan
         style="font-variant:normal;font-weight:normal;font-stretch:normal;font-size:6.05497px;font-family:'Palatino Linotype';writing-mode:lr-tb;fill:#000000;fill-opacity:1;fill-rule:nonzero;stroke:none"
         x="0"
         y="0"
         id="tspan30">I</tspan></text>
    <text
       id="text31"
       xml:space="preserve"
       transform="matrix(1.3333333,0,0,1.3333333,394.17887,41.860587)"
       clip-path="url(#clipPath32)"><tspan
         style="font-variant:normal;font-weight:normal;font-stretch:normal;font-size:10.0916px;font-family:'Palatino Linotype';writing-mode:lr-tb;fill:#000000;fill-opacity:1;fill-rule:nonzero;stroke:none"
         x="0"
         y="0"
         id="tspan31">I</tspan></text>
    <text
       id="text32"
       xml:space="preserve"
       transform="matrix(1.3333333,0,0,1.3333333,468.95568,89.329747)"
       clip-path="url(#clipPath33)"><tspan
         style="font-style:italic;font-variant:normal;font-weight:normal;font-stretch:normal;font-size:10.0071px;font-family:'Palatino Linotype';writing-mode:lr-tb;fill:#000000;fill-opacity:1;fill-rule:nonzero;stroke:none"
         x="0 6.1143565"
         y="0"
         sodipodi:role="line"
         id="tspan32">EI</tspan></text>
    <text
       id="text33"
       xml:space="preserve"
       transform="matrix(1.3333333,0,0,1.3333333,481.88177,94.84156)"
       clip-path="url(#clipPath34)"><tspan
         style="font-variant:normal;font-weight:normal;font-stretch:normal;font-size:6.05497px;font-family:'Palatino Linotype';writing-mode:lr-tb;fill:#000000;fill-opacity:1;fill-rule:nonzero;stroke:none"
         x="0 2.040525"
         y="0"
         sodipodi:role="line"
         id="tspan33">II</tspan></text>
    <text
       id="text34"
       xml:space="preserve"
       transform="matrix(1.3333333,0,0,1.3333333,371.00908,75.969613)"
       clip-path="url(#clipPath35)"><tspan
         style="font-variant:normal;font-weight:normal;font-stretch:normal;font-size:10.0916px;font-family:'Palatino Linotype';writing-mode:lr-tb;fill:#000000;fill-opacity:1;fill-rule:nonzero;stroke:none"
         x="0 5.9944162 11.040221 16.086027 18.608929"
         y="0"
         sodipodi:role="line"
         id="tspan34">γ=0.5</tspan></text>
    <text
       id="text35"
       xml:space="preserve"
       transform="matrix(1.3333333,0,0,1.3333333,389.42039,60.39296)"
       clip-path="url(#clipPath36)"><tspan
         style="font-variant:normal;font-weight:normal;font-stretch:normal;font-size:10.0916px;font-family:'Palatino Linotype';writing-mode:lr-tb;fill:#000000;fill-opacity:1;fill-rule:nonzero;stroke:none"
         x="0 5.9944162 11.040221"
         y="0"
         sodipodi:role="line"
         id="tspan35">γ=1</tspan></text>
    <text
       id="text36"
       xml:space="preserve"
       transform="matrix(1.3333333,0,0,1.3333333,487.84429,41.810573)"
       clip-path="url(#clipPath37)"><tspan
         style="font-variant:normal;font-weight:normal;font-stretch:normal;font-size:10.0916px;font-family:'Palatino Linotype';writing-mode:lr-tb;fill:#000000;fill-opacity:1;fill-rule:nonzero;stroke:none"
         x="0 3.4008725"
         y="0"
         sodipodi:role="line"
         id="tspan36">II</tspan></text>
    <text
       id="text37"
       xml:space="preserve"
       transform="matrix(1.3333333,0,0,1.3333333,333.02565,63.187293)"
       clip-path="url(#clipPath38)"><tspan
         style="font-style:italic;font-variant:normal;font-weight:normal;font-stretch:normal;font-size:10.0071px;font-family:'Palatino Linotype';writing-mode:lr-tb;fill:#000000;fill-opacity:1;fill-rule:nonzero;stroke:none"
         x="0"
         y="0"
         id="tspan37">M</tspan></text>
    <text
       id="text38"
       xml:space="preserve"
       transform="matrix(1.3333333,0,0,1.3333333,346.00607,68.699093)"
       clip-path="url(#clipPath39)"><tspan
         style="font-style:italic;font-variant:normal;font-weight:normal;font-stretch:normal;font-size:6.00428px;font-family:'Palatino Linotype';writing-mode:lr-tb;fill:#000000;fill-opacity:1;fill-rule:nonzero;stroke:none"
         x="0"
         y="0"
         id="tspan38">y</tspan></text>
    <text
       id="text39"
       xml:space="preserve"
       transform="matrix(1.3333333,0,0,1.3333333,366.62023,32.6002)"
       clip-path="url(#clipPath40)"><tspan
         style="font-style:italic;font-variant:normal;font-weight:normal;font-stretch:normal;font-size:10.0071px;font-family:'Palatino Linotype';writing-mode:lr-tb;fill:#000000;fill-opacity:1;fill-rule:nonzero;stroke:none"
         x="0"
         y="0"
         id="tspan39">M</tspan></text>
    <text
       id="text40"
       xml:space="preserve"
       transform="matrix(1.3333333,0,0,1.3333333,502.87325,167.06677)"
       clip-path="url(#clipPath41)"><tspan
         style="font-style:italic;font-variant:normal;font-weight:normal;font-stretch:normal;font-size:10.0071px;font-family:'Palatino Linotype';writing-mode:lr-tb;fill:#000000;fill-opacity:1;fill-rule:nonzero;stroke:none"
         x="0"
         y="0"
         id="tspan40">χ</tspan></text>
    <text
       id="text41"
       xml:space="preserve"
       transform="matrix(1.3333333,0,0,1.3333333,411.56388,112.26856)"
       clip-path="url(#clipPath42)"><tspan
         style="font-variant:normal;font-weight:normal;font-stretch:normal;font-size:10.0916px;font-family:'Palatino Linotype';writing-mode:lr-tb;fill:#000000;fill-opacity:1;fill-rule:nonzero;stroke:none"
         x="0"
         y="0"
         id="tspan41">Δ</tspan></text>
    <text
       id="text42"
       xml:space="preserve"
       transform="matrix(1.3333333,0,0,1.3333333,421.01943,112.26856)"
       clip-path="url(#clipPath43)"><tspan
         style="font-style:italic;font-variant:normal;font-weight:normal;font-stretch:normal;font-size:10.0071px;font-family:'Palatino Linotype';writing-mode:lr-tb;fill:#000000;fill-opacity:1;fill-rule:nonzero;stroke:none"
         x="0"
         y="0"
         id="tspan42">χ</tspan></text>
    <path
       id="path44"
       d="m 302.66306,82.39288 h 11.87356 V 69.3045 m 0,-1.2756 v 0 m 0,2.55118 v 0 m 1.27561,-1.27558 v 0 m -2.55118,0 v 0"
       style="fill:none;stroke:#000000;stroke-width:0.3685;stroke-linecap:round;stroke-linejoin:round;stroke-miterlimit:10;stroke-dasharray:none;stroke-opacity:1"
       transform="matrix(1.3333333,0,0,-1.3333333,0,181.41733)" />
    <path
       id="path45"
       d="m 314.53662,68.0289 c 0.7045,0 1.27561,0.57111 1.27561,1.2756 m 0,0 c 0,0.70449 -0.57111,1.27559 -1.27561,1.27559 m 0,0 c -0.7045,0 -1.2756,-0.5711 -1.2756,-1.27559 m 0,0 c 0,-0.70449 0.5711,-1.2756 1.2756,-1.2756"
       style="fill:none;stroke:#000000;stroke-width:0.3685;stroke-linecap:round;stroke-linejoin:round;stroke-miterlimit:10;stroke-dasharray:none;stroke-opacity:1"
       transform="matrix(1.3333333,0,0,-1.3333333,0,181.41733)" />
    <path
       id="path46"
       d="m 308.67624,94.07536 h 11.33859 V 77.80844 m 0,-1.27559 v 0 m 0,2.55116 v 0 m 1.27558,-1.27557 v 0 m -2.55118,0 v 0"
       style="fill:none;stroke:#000000;stroke-width:0.3685;stroke-linecap:round;stroke-linejoin:round;stroke-miterlimit:10;stroke-dasharray:none;stroke-opacity:1"
       transform="matrix(1.3333333,0,0,-1.3333333,0,181.41733)" />
    <path
       id="path47"
       d="m 320.01483,76.53285 c 0.70447,0 1.27558,0.57109 1.27558,1.27559 m 0,0 c 0,0.70448 -0.57111,1.27559 -1.27558,1.27559 m 0,0 c -0.7045,0 -1.2756,-0.57111 -1.2756,-1.27559 m 0,0 c 0,-0.7045 0.5711,-1.27559 1.2756,-1.27559"
       style="fill:none;stroke:#000000;stroke-width:0.3685;stroke-linecap:round;stroke-linejoin:round;stroke-miterlimit:10;stroke-dasharray:none;stroke-opacity:1"
       transform="matrix(1.3333333,0,0,-1.3333333,0,181.41733)" />
    <path
       id="path48"
       d="m 270.00473,22.36159 h 123.21976 m -5.95276,0 h -0.4252 m 6.37796,0 v 0 l -5.95276,0.85039 V 21.5112 l 5.95276,0.85039"
       style="fill:none;stroke:#000000;stroke-width:0.3685;stroke-linecap:round;stroke-linejoin:round;stroke-miterlimit:10;stroke-dasharray:none;stroke-opacity:1"
       transform="matrix(1.3333333,0,0,-1.3333333,0,181.41733)" />
    <path
       id="path49"
       d="m 387.27173,21.5112 5.95276,0.85039 -5.95276,0.85039 z"
       style="fill:#000000;fill-opacity:1;fill-rule:nonzero;stroke:none"
       transform="matrix(1.3333333,0,0,-1.3333333,0,181.41733)" />
    <path
       id="path50"
       d="m 270.00473,22.36159 v 96.46534 m 0,-5.95275 v -0.42521 m 0,6.37796 v 0 l -0.8504,-5.95275 h 1.70077 l -0.85037,5.95275"
       style="fill:none;stroke:#000000;stroke-width:0.3685;stroke-linecap:round;stroke-linejoin:round;stroke-miterlimit:10;stroke-dasharray:none;stroke-opacity:1"
       transform="matrix(1.3333333,0,0,-1.3333333,0,181.41733)" />
    <path
       id="path51"
       d="m 270.8551,112.87418 -0.85037,5.95275 -0.8504,-5.95275 z"
       style="fill:#000000;fill-opacity:1;fill-rule:nonzero;stroke:none"
       transform="matrix(1.3333333,0,0,-1.3333333,0,181.41733)" />
    <path
       id="path52"
       d="m 270.00473,54.51674 h 3.53857 m 2.83466,0 h 2.06973 m -8.44296,0 v 0 m 8.44296,0 v 0"
       style="fill:none;stroke:#000000;stroke-width:0.3685;stroke-linecap:round;stroke-linejoin:round;stroke-miterlimit:10;stroke-dasharray:none;stroke-opacity:1"
       transform="matrix(1.3333333,0,0,-1.3333333,0,181.41733)" />
    <text
       id="text52"
       xml:space="preserve"
       transform="matrix(1.3333333,0,0,1.3333333,7.6928667,14.751053)"
       clip-path="url(#clipPath53)"><tspan
         style="font-style:italic;font-variant:normal;font-weight:normal;font-stretch:normal;font-size:10.0071px;font-family:'Palatino Linotype';writing-mode:lr-tb;fill:#000000;fill-opacity:1;fill-rule:nonzero;stroke:none"
         x="0 4.4431658"
         y="0"
         sodipodi:role="line"
         id="tspan52">a)</tspan></text>
    <text
       id="text53"
       xml:space="preserve"
       transform="matrix(1.3333333,0,0,1.3333333,317.29917,14.751053)"
       clip-path="url(#clipPath54)"><tspan
         style="font-style:italic;font-variant:normal;font-weight:normal;font-stretch:normal;font-size:10.0071px;font-family:'Palatino Linotype';writing-mode:lr-tb;fill:#000000;fill-opacity:1;fill-rule:nonzero;stroke:none"
         x="0 4.6333013"
         y="0"
         sodipodi:role="line"
         id="tspan53">b)</tspan></text>
  </g>
</svg>
