<?xml version="1.0" encoding="UTF-8" standalone="no"?>
<!-- Created with Inkscape (http://www.inkscape.org/) -->

<svg
   version="1.1"
   id="svg1"
   width="566.92932"
   height="291.02399"
   viewBox="0 0 566.92932 291.02399"
   sodipodi:docname="allg_sandwich.pdf"
   xmlns:inkscape="http://www.inkscape.org/namespaces/inkscape"
   xmlns:sodipodi="http://sodipodi.sourceforge.net/DTD/sodipodi-0.dtd"
   xmlns="http://www.w3.org/2000/svg"
   xmlns:svg="http://www.w3.org/2000/svg">
  <defs
     id="defs1">
    <clipPath
       clipPathUnits="userSpaceOnUse"
       id="clipPath7">
      <path
         d="M -0.00426,-0.00218 V 218.2699 H 425.20111 V -0.00218 H -0.00426"
         transform="matrix(1,0,0,-1,-275.64751,123.14334)"
         clip-rule="evenodd"
         id="path7" />
    </clipPath>
    <clipPath
       clipPathUnits="userSpaceOnUse"
       id="clipPath8">
      <path
         d="M -0.00426,-0.00218 V 218.2699 H 425.20111 V -0.00218 H -0.00426"
         transform="matrix(1,0,0,-1,-281.63847,119.00949)"
         clip-rule="evenodd"
         id="path8" />
    </clipPath>
    <clipPath
       clipPathUnits="userSpaceOnUse"
       id="clipPath9">
      <path
         d="M -0.00426,-0.00218 V 218.2699 H 425.20111 V -0.00218 H -0.00426"
         transform="matrix(1,0,0,-1,-237.37981,123.14334)"
         clip-rule="evenodd"
         id="path9" />
    </clipPath>
    <clipPath
       clipPathUnits="userSpaceOnUse"
       id="clipPath10">
      <path
         d="M -0.00426,-0.00218 V 218.2699 H 425.20111 V -0.00218 H -0.00426"
         transform="matrix(1,0,0,-1,-243.37075,119.00949)"
         clip-rule="evenodd"
         id="path10" />
    </clipPath>
    <clipPath
       clipPathUnits="userSpaceOnUse"
       id="clipPath11">
      <path
         d="M -0.00426,-0.00218 V 218.2699 H 425.20111 V -0.00218 H -0.00426"
         transform="matrix(1,0,0,-1,-175.42765,123.14334)"
         clip-rule="evenodd"
         id="path11" />
    </clipPath>
    <clipPath
       clipPathUnits="userSpaceOnUse"
       id="clipPath12">
      <path
         d="M -0.00426,-0.00218 V 218.2699 H 425.20111 V -0.00218 H -0.00426"
         transform="matrix(1,0,0,-1,-181.41861,119.00949)"
         clip-rule="evenodd"
         id="path12" />
    </clipPath>
    <clipPath
       clipPathUnits="userSpaceOnUse"
       id="clipPath13">
      <path
         d="M -0.00426,-0.00218 V 218.2699 H 425.20111 V -0.00218 H -0.00426"
         transform="matrix(1,0,0,-1,-137.15994,123.14334)"
         clip-rule="evenodd"
         id="path13" />
    </clipPath>
    <clipPath
       clipPathUnits="userSpaceOnUse"
       id="clipPath14">
      <path
         d="M -0.00426,-0.00218 V 218.2699 H 425.20111 V -0.00218 H -0.00426"
         transform="matrix(1,0,0,-1,-143.15089,119.00949)"
         clip-rule="evenodd"
         id="path14" />
    </clipPath>
    <clipPath
       clipPathUnits="userSpaceOnUse"
       id="clipPath15">
      <path
         d="M -0.00426,-0.00218 V 218.2699 H 425.20111 V -0.00218 H -0.00426"
         transform="matrix(1,0,0,-1,-275.64751,34.776563)"
         clip-rule="evenodd"
         id="path15" />
    </clipPath>
    <clipPath
       clipPathUnits="userSpaceOnUse"
       id="clipPath16">
      <path
         d="M -0.00426,-0.00218 V 218.2699 H 425.20111 V -0.00218 H -0.00426"
         transform="matrix(1,0,0,-1,-281.63847,30.642698)"
         clip-rule="evenodd"
         id="path16" />
    </clipPath>
    <clipPath
       clipPathUnits="userSpaceOnUse"
       id="clipPath17">
      <path
         d="M -0.00426,-0.00218 V 218.2699 H 425.20111 V -0.00218 H -0.00426"
         transform="matrix(1,0,0,-1,-175.42765,34.776563)"
         clip-rule="evenodd"
         id="path17" />
    </clipPath>
    <clipPath
       clipPathUnits="userSpaceOnUse"
       id="clipPath18">
      <path
         d="M -0.00426,-0.00218 V 218.2699 H 425.20111 V -0.00218 H -0.00426"
         transform="matrix(1,0,0,-1,-181.41861,30.642698)"
         clip-rule="evenodd"
         id="path18" />
    </clipPath>
    <clipPath
       clipPathUnits="userSpaceOnUse"
       id="clipPath19">
      <path
         d="M -0.00426,-0.00218 V 218.2699 H 425.20111 V -0.00218 H -0.00426"
         transform="matrix(1,0,0,-1,-137.15994,34.776563)"
         clip-rule="evenodd"
         id="path19" />
    </clipPath>
    <clipPath
       clipPathUnits="userSpaceOnUse"
       id="clipPath20">
      <path
         d="M -0.00426,-0.00218 V 218.2699 H 425.20111 V -0.00218 H -0.00426"
         transform="matrix(1,0,0,-1,-143.15089,30.642698)"
         clip-rule="evenodd"
         id="path20" />
    </clipPath>
    <clipPath
       clipPathUnits="userSpaceOnUse"
       id="clipPath21">
      <path
         d="M -0.00426,-0.00218 V 218.2699 H 425.20111 V -0.00218 H -0.00426"
         transform="matrix(1,0,0,-1,-237.37981,34.776563)"
         clip-rule="evenodd"
         id="path21" />
    </clipPath>
    <clipPath
       clipPathUnits="userSpaceOnUse"
       id="clipPath22">
      <path
         d="M -0.00426,-0.00218 V 218.2699 H 425.20111 V -0.00218 H -0.00426"
         transform="matrix(1,0,0,-1,-243.37075,30.642698)"
         clip-rule="evenodd"
         id="path22" />
    </clipPath>
    <clipPath
       clipPathUnits="userSpaceOnUse"
       id="clipPath23">
      <path
         d="M -0.00426,-0.00218 V 218.2699 H 425.20111 V -0.00218 H -0.00426"
         transform="matrix(1,0,0,-1,-153.89832,59.296704)"
         clip-rule="evenodd"
         id="path23" />
    </clipPath>
    <clipPath
       clipPathUnits="userSpaceOnUse"
       id="clipPath24">
      <path
         d="M -0.00426,-0.00218 V 218.2699 H 425.20111 V -0.00218 H -0.00426"
         transform="matrix(1,0,0,-1,-159.71337,55.162839)"
         clip-rule="evenodd"
         id="path24" />
    </clipPath>
    <clipPath
       clipPathUnits="userSpaceOnUse"
       id="clipPath25">
      <path
         d="M -0.00426,-0.00218 V 218.2699 H 425.20111 V -0.00218 H -0.00426"
         transform="matrix(1,0,0,-1,-254.11819,59.296704)"
         clip-rule="evenodd"
         id="path25" />
    </clipPath>
    <clipPath
       clipPathUnits="userSpaceOnUse"
       id="clipPath26">
      <path
         d="M -0.00426,-0.00218 V 218.2699 H 425.20111 V -0.00218 H -0.00426"
         transform="matrix(1,0,0,-1,-259.93321,55.162839)"
         clip-rule="evenodd"
         id="path26" />
    </clipPath>
    <clipPath
       clipPathUnits="userSpaceOnUse"
       id="clipPath47">
      <path
         d="M -0.00426,-0.00218 V 218.2699 H 425.20111 V -0.00218 H -0.00426"
         transform="matrix(1,0,0,-1,-337.65741,109.33806)"
         clip-rule="evenodd"
         id="path47" />
    </clipPath>
    <clipPath
       clipPathUnits="userSpaceOnUse"
       id="clipPath48">
      <path
         d="M -0.00426,-0.00218 V 218.2699 H 425.20111 V -0.00218 H -0.00426"
         transform="matrix(1,0,0,-1,-343.94488,105.20419)"
         clip-rule="evenodd"
         id="path48" />
    </clipPath>
  </defs>
  <sodipodi:namedview
     id="namedview1"
     pagecolor="#ffffff"
     bordercolor="#000000"
     borderopacity="0.25"
     inkscape:showpageshadow="2"
     inkscape:pageopacity="0.0"
     inkscape:pagecheckerboard="0"
     inkscape:deskcolor="#d1d1d1">
    <inkscape:page
       x="0"
       y="0"
       inkscape:label="1"
       id="page1"
       width="566.92932"
       height="291.02399"
       margin="0"
       bleed="0" />
  </sodipodi:namedview>
  <g
     id="g1"
     inkscape:groupmode="layer"
     inkscape:label="1">
    <path
       id="path1"
       d="m 212.47559,148.75583 v 2.04733 m 0,2.2677 v 2.83466 m 0,2.26773 v 2.83462 m 0,2.26773 v 2.83463 m 0,2.26773 v 2.83466 m 0,2.2677 v 2.83465 m 0,2.2677 v 2.83466 m 0,2.26773 v 2.10242 m 0,-37.03165 v 0 m 0,37.03165 v 0 m -80.7291,-46.60898 2.45486,1.41733 m 1.9639,1.13385 2.45487,1.41732 m 1.96393,1.13385 2.45486,1.41733 m 1.9639,1.13385 2.45486,1.41733 m 1.9639,1.13385 2.45489,1.41733 m 1.9639,1.13388 2.45487,1.4173 m 1.96389,1.13388 2.4549,1.41732 m 1.9639,1.13385 2.45486,1.41733 m 1.9639,1.13385 2.45486,1.41733 m 1.96393,1.13385 2.45487,1.41733 m 1.96389,1.13385 2.45487,1.41733 m 1.9639,1.13385 2.45489,1.41732 m 1.9639,1.13385 2.45486,1.41733 m 1.9639,1.13385 2.4549,1.41733 m 1.96389,1.13388 2.45487,1.4173 m 1.9639,1.13388 2.45486,1.4173 m 1.96393,1.13388 2.45486,1.41732 m 1.9639,1.13385 2.45487,1.41733 m 1.96389,1.13385 1.19117,0.68772 m -81.99988,-47.34266 v 0 m 81.99988,47.34266 v 0 M 112.43146,90.9953 l 2.45486,1.41733 m 1.96391,1.13386 2.45487,1.41732 m 1.9639,1.13386 2.45488,1.41731 m 1.96389,1.13387 2.4549,1.41733 m 1.9639,1.13385 2.45486,1.41733 m 1.9639,1.13385 2.45486,1.41732 m 1.96393,1.13387 2.45487,1.41731 m 1.96389,1.13387 2.45487,1.41731 m 1.9639,1.13386 2.45489,1.41733 m 1.9639,1.13385 2.45486,1.41733 m 1.9639,1.13385 2.4549,1.41733 m 1.96389,1.13386 2.45487,1.41732 m 1.9639,1.13386 2.45486,1.41731 m 1.96393,1.13387 2.45486,1.41733 m 1.9639,1.13385 2.45487,1.41734 m 1.96389,1.13385 2.4549,1.41733 m 1.9639,1.13385 2.45486,1.41733 m 1.9639,1.13385 2.45489,1.41732 m 1.9639,1.13385 2.45487,1.41733"
       style="fill:none;stroke:#000000;stroke-width:0.3685;stroke-linecap:round;stroke-linejoin:round;stroke-miterlimit:10;stroke-dasharray:none;stroke-opacity:1"
       transform="matrix(1.3333333,0,0,-1.3333333,0,291.024)" />
    <path
       id="path2"
       d="m 196.38818,139.46774 2.45487,1.41733 m 1.96393,1.13385 2.45486,1.41733 m 1.9639,1.13385 2.45486,1.41733 m 1.9639,1.13388 2.4549,1.41729 M 112.25574,90.89386 v 0 m 100.21985,57.86197 v 0 m 0.6296,36.66815 2.45487,-1.41733 m 1.9639,-1.13385 2.45489,-1.41733 m 1.9639,-1.13385 2.45486,-1.41732 m 1.9639,-1.13388 2.4549,-1.4173 m 1.96389,-1.13388 2.45487,-1.4173 m 1.9639,-1.13388 2.45486,-1.41733 m 1.9639,-1.13385 2.45489,-1.41733 m 1.9639,-1.13385 2.45487,-1.41732 m 1.96389,-1.13385 2.4549,-1.41733 m 1.9639,-1.13385 2.45486,-1.41733 m 1.9639,-1.13385 2.45486,-1.41733 m 1.9639,-1.13385 2.4549,-1.41733 m 1.96389,-1.13385 2.45487,-1.41732 m 1.9639,-1.13388 2.45489,-1.4173 m 1.9639,-1.13388 2.45486,-1.41733 m 1.9639,-1.13385 2.45486,-1.41733 m 1.96393,-1.13385 2.45487,-1.41733 m 1.9639,-1.13385 2.45486,-1.41732 m 1.9639,-1.13385 1.83233,-1.0579 m -81.99987,47.34266 v 0 m 81.99987,-47.34266 v 0 m -81.99987,10.31101 0.30563,-0.17645 m 1.9639,-1.13388 2.45486,-1.4173 m 1.9639,-1.13388 2.45489,-1.41733 m 1.9639,-1.13385 2.45487,-1.41733 m 1.96389,-1.13385 2.4549,-1.41733 m 1.9639,-1.13385 2.45486,-1.41732 m 1.9639,-1.13385 2.45486,-1.41733 m 1.96393,-1.13385 2.45487,-1.41733 m 1.96389,-1.13385 2.45487,-1.41733 m 1.9639,-1.13386 2.45489,-1.41733 m 1.9639,-1.13385 2.45486,-1.41733 m 1.9639,-1.13386 2.45487,-1.41732 m 1.96389,-1.13386 2.4549,-1.41732 m 1.9639,-1.13386 2.45486,-1.41733 m 1.9639,-1.13385 2.45489,-1.41733 m 1.9639,-1.13385 2.45487,-1.41732 m 1.96389,-1.13387 2.45487,-1.41731 m 1.96393,-1.13387 2.45486,-1.41731 m 1.9639,-1.13387 2.45486,-1.41732 m 1.9639,-1.13385 2.4549,-1.41733 m 1.96389,-1.13385 2.45487,-1.41733 m 1.9639,-1.13386 2.45489,-1.41732 m 1.9639,-1.13386 2.45486,-1.41732"
       style="fill:none;stroke:#000000;stroke-width:0.3685;stroke-linecap:round;stroke-linejoin:round;stroke-miterlimit:10;stroke-dasharray:none;stroke-opacity:1"
       transform="matrix(1.3333333,0,0,-1.3333333,0,291.024)" />
    <path
       id="path3"
       d="m 311.95816,91.31952 0.73727,-0.42568 m -100.21984,57.86199 v 0 M 312.69543,90.89386 v 0 m -100.21984,27.56543 v 1.72969 m 0,2.26772 v 2.83464 m 0,2.26771 v 0.15816 m 0,-9.25792 v 0 m 0,9.25792 v 0 m -81.99988,-47.34267 2.35815,1.3615 m 1.9639,1.13385 2.4549,1.41733 m 1.96389,1.13385 2.45487,1.41732 m 1.96389,1.13387 2.45487,1.41731 m 1.96393,1.13387 2.45486,1.41733 m 1.9639,1.13385 2.45486,1.41732 m 1.9639,1.13385 2.4549,1.41733 m 1.96389,1.13385 2.45487,1.41733 m 1.9639,1.13386 2.45489,1.41732 m 1.9639,1.13386 2.45486,1.41733 m 1.9639,1.13385 2.45487,1.41733 m 1.96392,1.13385 2.45487,1.41733 m 1.9639,1.13386 2.45486,1.41731 m 1.9639,1.13387 2.45489,1.41731 m 1.9639,1.13387 2.45487,1.41733 m 1.96389,1.13385 2.4549,1.41732 m 1.9639,1.13385 2.45486,1.41733 m 1.9639,1.13387 2.45486,1.41731 m 1.96393,1.13386 2.45487,1.41732 M 130.47571,80.37454 v 0 m 81.99988,47.34267 v 0 M 112.2939,60.61937 l 2.45488,1.41733 m 1.9639,1.13385 2.45488,1.41733 m 1.96389,1.13385 2.45488,1.41732 m 1.9639,1.13387 2.45487,1.41731 m 1.96392,1.13387 2.45487,1.41732 m 1.9639,1.13385 2.45486,1.41733 m 1.9639,1.13385 2.45489,1.41733 m 1.9639,1.13385 2.45487,1.41733 m 1.96389,1.13386 2.4549,1.41732 m 1.9639,1.13386 2.45486,1.41733 m 1.9639,1.13385 2.45486,1.41733 m 1.96393,1.13385 2.45487,1.41733 m 1.96389,1.13386 2.45487,1.41731 m 1.9639,1.13387 2.45489,1.41731 m 1.9639,1.13387 2.45486,1.41732 m 1.9639,1.13385 2.4549,1.41733 m 1.96389,1.13385 2.45487,1.41733 m 1.9639,1.13387 2.45486,1.41731 m 1.96393,1.13386 2.45486,1.41732 m 1.9639,1.13386 2.45487,1.41733 m 1.96389,1.13385 2.4549,1.41733"
       style="fill:none;stroke:#000000;stroke-width:0.3685;stroke-linecap:round;stroke-linejoin:round;stroke-miterlimit:10;stroke-dasharray:none;stroke-opacity:1"
       transform="matrix(1.3333333,0,0,-1.3333333,0,291.024)" />
    <path
       id="path4"
       d="m 205.0882,114.19417 2.45486,1.41733 m 1.9639,1.13386 2.45489,1.41731 M 112.25574,60.59732 v 0 m 100.21985,57.86197 v 0 m 0,9.25792 0.0332,-0.0192 m 1.9639,-1.13386 2.45486,-1.41731 m 1.9639,-1.13387 2.45489,-1.41731 m 1.9639,-1.13387 2.45487,-1.41733 m 1.96389,-1.13385 2.45487,-1.41732 m 1.96393,-1.13385 2.45486,-1.41733 m 1.9639,-1.13387 2.45486,-1.41731 m 1.9639,-1.13386 2.4549,-1.41732 m 1.96389,-1.13386 2.45487,-1.41733 m 1.9639,-1.13385 2.45489,-1.41733 m 1.9639,-1.13385 2.45486,-1.41733 m 1.9639,-1.13386 2.45487,-1.41731 m 1.96389,-1.13387 2.4549,-1.41733 m 1.9639,-1.13385 2.45486,-1.41733 m 1.9639,-1.13385 2.45486,-1.41732 m 1.96393,-1.13385 2.45487,-1.41733 m 1.96389,-1.13387 2.45487,-1.41731 m 1.9639,-1.13386 2.45489,-1.41733 m 1.9639,-1.13385 2.45486,-1.41733 m 1.9639,-1.13385 0.46484,-0.26839 m -81.99987,47.34267 v 0 m 81.99987,-47.34267 v 0 m -81.99987,38.08475 0.44317,-0.25586 m 1.9639,-1.13387 2.45486,-1.41731 m 1.9639,-1.13386 2.4549,-1.41733 m 1.96389,-1.13385 2.45487,-1.41733 m 1.9639,-1.13385 2.45489,-1.41733 m 1.9639,-1.13386 2.45486,-1.41731 m 1.9639,-1.13387 2.4549,-1.41731 m 1.96389,-1.13387 2.45487,-1.41733 m 1.9639,-1.13385 2.45486,-1.41732 m 1.9639,-1.13385 2.45489,-1.41733 m 1.9639,-1.13387 2.45487,-1.41731 m 1.96389,-1.13387 2.45487,-1.41731 m 1.96393,-1.13386 2.45486,-1.41733 m 1.9639,-1.13385 2.45486,-1.41733 m 1.9639,-1.13385 2.4549,-1.41733 m 1.96389,-1.13386 2.45487,-1.41732 m 1.9639,-1.13386 2.45489,-1.41733 m 1.9639,-1.13385 2.45486,-1.41733 m 1.9639,-1.13385 2.45487,-1.41732 m 1.96392,-1.13385 2.45487,-1.41733 m 1.9639,-1.13387 2.45486,-1.41731 m 1.9639,-1.13387 2.45489,-1.41732 m 1.9639,-1.13385 2.45487,-1.41733 m 1.96389,-1.13385 0.59973,-0.34627"
       style="fill:none;stroke:#000000;stroke-width:0.3685;stroke-linecap:round;stroke-linejoin:round;stroke-miterlimit:10;stroke-dasharray:none;stroke-opacity:1"
       transform="matrix(1.3333333,0,0,-1.3333333,0,291.024)" />
    <path
       id="path5"
       d="m 212.47559,118.45929 v 0 M 312.69543,60.59732 v 0 M 212.47559,206.82608 v 0.10306 m 0,2.26773 v 2.83462 m 0,2.26773 v 1.78476 m 0,-9.2579 v 0 m 0,9.2579 v 0 m -98.67666,-66.22888 2.45488,1.41733 m 1.9639,1.13385 2.45488,1.41733 m 1.9639,1.13385 2.45488,1.41733 m 1.9639,1.13385 2.45489,1.41732 m 1.9639,1.13385 2.45486,1.41733 m 1.9639,1.13385 2.45487,1.41733 m 1.96389,1.13385 2.4549,1.41733 m 1.9639,1.13385 2.45486,1.41733 m 1.9639,1.13388 2.45489,1.41729 m 1.9639,1.13388 2.45487,1.4173 m 1.96389,1.13388 2.4549,1.41733 m 1.9639,1.13385 2.45486,1.41733 m 1.9639,1.13385 2.45486,1.41733 m 1.9639,1.13385 2.4549,1.41732 m 1.96389,1.13385 2.45487,1.41733 m 1.9639,1.13385 2.45489,1.41733 m 1.9639,1.13385 2.45486,1.41733 m 1.9639,1.13385 2.4549,1.41733 m 1.96389,1.13388 2.45487,1.41729 m 1.9639,1.13389 2.45486,1.41732 m 1.9639,1.13385 2.45489,1.41733 m 1.9639,1.13385 2.45487,1.41733 m 1.96389,1.13385 1.4636,0.845 M 112.25574,148.96411 v 0 m 100.21985,57.86197 v 0 m 0.90203,-0.52078 2.45487,-1.41733 m 1.9639,-1.13385 2.45489,-1.41733 m 1.9639,-1.13385 2.45486,-1.41733 m 1.9639,-1.13385 2.4549,-1.41732 m 1.96389,-1.13388 2.45487,-1.4173 m 1.9639,-1.13388 2.45489,-1.41733 m 1.9639,-1.13385 2.45486,-1.41733 m 1.9639,-1.13385 2.45487,-1.41733 m 1.96389,-1.13385 2.4549,-1.41732 m 1.9639,-1.13385 2.45486,-1.41733 m 1.9639,-1.13385 2.45486,-1.41733 m 1.9639,-1.13385 2.4549,-1.41733 m 1.96389,-1.13385 2.45487,-1.41733 m 1.9639,-1.13388 2.45489,-1.41729 m 1.9639,-1.13388 2.45486,-1.4173 m 1.9639,-1.13388 2.4549,-1.41733 m 1.96389,-1.13385 2.45487,-1.41733 m 1.9639,-1.13385 2.45486,-1.41733"
       style="fill:none;stroke:#000000;stroke-width:0.3685;stroke-linecap:round;stroke-linejoin:round;stroke-miterlimit:10;stroke-dasharray:none;stroke-opacity:1"
       transform="matrix(1.3333333,0,0,-1.3333333,0,291.024)" />
    <path
       id="path6"
       d="m 292.91556,160.38403 2.45489,-1.41732 m 1.9639,-1.13385 2.45487,-1.41733 m 1.96389,-1.13385 2.4549,-1.41733 m 1.9639,-1.13385 2.45486,-1.41733 m 1.9639,-1.13385 2.10476,-1.21521 m -100.21984,57.86197 v 0 m 100.21984,-57.86197 v 0 M 112.25574,90.89386 v 37.03165 M 212.47559,33.03189 v 37.03166 l -100.21985,57.86196 m 0,-37.03165 100.21985,-57.86197 m -100.21985,94.89362 18.21997,10.51931 M 312.69543,90.89386 v 37.03165 L 212.47559,70.06355 m 81.99987,68.38127 18.21997,-10.51931 M 212.47559,33.03189 312.69543,90.89386 M 112.25574,60.59732 v 9.25792 M 212.47559,2.73537 v 9.25792 L 112.25574,69.85524 m 0,-9.25792 100.21985,-57.86195 m -100.21985,67.11987 18.21997,10.5193 M 312.69543,60.59732 v 9.25792 L 212.47559,11.99329 m 81.99987,68.38125 18.21997,-10.5193 M 212.47559,2.73537 312.69543,60.59732 m -200.43969,88.36679 v 9.25794 M 212.47559,91.10216 v 9.25792 l -100.21985,57.86197 m 0,-9.25794 100.21985,-57.86195 m -100.21985,67.11989 100.21985,57.86193 m 100.21984,-67.11987 v 9.25794 L 212.47559,100.36008 m 0,115.7239 100.21984,-57.86193 M 212.47559,91.10216 312.69543,148.96411"
       style="fill:none;stroke:#000000;stroke-width:0.3685;stroke-linecap:round;stroke-linejoin:round;stroke-miterlimit:10;stroke-dasharray:none;stroke-opacity:1"
       transform="matrix(1.3333333,0,0,-1.3333333,0,291.024)" />
    <text
       id="text6"
       xml:space="preserve"
       transform="matrix(1.3333333,0,0,1.3333333,367.53001,126.83288)"
       clip-path="url(#clipPath7)"><tspan
         style="font-style:italic;font-variant:normal;font-weight:normal;font-stretch:normal;font-size:10.0071px;font-family:'Palatino Linotype';writing-mode:lr-tb;fill:#000000;fill-opacity:1;fill-rule:nonzero;stroke:none"
         x="0"
         y="0"
         id="tspan6">n</tspan></text>
    <text
       id="text7"
       xml:space="preserve"
       transform="matrix(1.3333333,0,0,1.3333333,375.51795,132.34468)"
       clip-path="url(#clipPath8)"><tspan
         style="font-style:italic;font-variant:normal;font-weight:normal;font-stretch:normal;font-size:6.00428px;font-family:'Palatino Linotype';writing-mode:lr-tb;fill:#000000;fill-opacity:1;fill-rule:nonzero;stroke:none"
         x="0 3.00214 6.0042801"
         y="0"
         sodipodi:role="line"
         id="tspan7">xxt</tspan></text>
    <text
       id="text8"
       xml:space="preserve"
       transform="matrix(1.3333333,0,0,1.3333333,316.5064,126.83288)"
       clip-path="url(#clipPath9)"><tspan
         style="font-style:italic;font-variant:normal;font-weight:normal;font-stretch:normal;font-size:10.0071px;font-family:'Palatino Linotype';writing-mode:lr-tb;fill:#000000;fill-opacity:1;fill-rule:nonzero;stroke:none"
         x="0"
         y="0"
         id="tspan8">n</tspan></text>
    <text
       id="text9"
       xml:space="preserve"
       transform="matrix(1.3333333,0,0,1.3333333,324.49432,132.34468)"
       clip-path="url(#clipPath10)"><tspan
         style="font-style:italic;font-variant:normal;font-weight:normal;font-stretch:normal;font-size:6.00428px;font-family:'Palatino Linotype';writing-mode:lr-tb;fill:#000000;fill-opacity:1;fill-rule:nonzero;stroke:none"
         x="0 3.00214 6.0042801"
         y="0"
         sodipodi:role="line"
         id="tspan9">yxt</tspan></text>
    <text
       id="text10"
       xml:space="preserve"
       transform="matrix(1.3333333,0,0,1.3333333,233.90353,126.83288)"
       clip-path="url(#clipPath11)"><tspan
         style="font-style:italic;font-variant:normal;font-weight:normal;font-stretch:normal;font-size:10.0071px;font-family:'Palatino Linotype';writing-mode:lr-tb;fill:#000000;fill-opacity:1;fill-rule:nonzero;stroke:none"
         x="0"
         y="0"
         id="tspan10">n</tspan></text>
    <text
       id="text11"
       xml:space="preserve"
       transform="matrix(1.3333333,0,0,1.3333333,241.89147,132.34468)"
       clip-path="url(#clipPath12)"><tspan
         style="font-style:italic;font-variant:normal;font-weight:normal;font-stretch:normal;font-size:6.00428px;font-family:'Palatino Linotype';writing-mode:lr-tb;fill:#000000;fill-opacity:1;fill-rule:nonzero;stroke:none"
         x="0 3.00214 6.0042801"
         y="0"
         sodipodi:role="line"
         id="tspan11">xyt</tspan></text>
    <text
       id="text12"
       xml:space="preserve"
       transform="matrix(1.3333333,0,0,1.3333333,182.87992,126.83288)"
       clip-path="url(#clipPath13)"><tspan
         style="font-style:italic;font-variant:normal;font-weight:normal;font-stretch:normal;font-size:10.0071px;font-family:'Palatino Linotype';writing-mode:lr-tb;fill:#000000;fill-opacity:1;fill-rule:nonzero;stroke:none"
         x="0"
         y="0"
         id="tspan12">n</tspan></text>
    <text
       id="text13"
       xml:space="preserve"
       transform="matrix(1.3333333,0,0,1.3333333,190.86785,132.34468)"
       clip-path="url(#clipPath14)"><tspan
         style="font-style:italic;font-variant:normal;font-weight:normal;font-stretch:normal;font-size:6.00428px;font-family:'Palatino Linotype';writing-mode:lr-tb;fill:#000000;fill-opacity:1;fill-rule:nonzero;stroke:none"
         x="0 3.00214 6.0042801"
         y="0"
         sodipodi:role="line"
         id="tspan13">yyt</tspan></text>
    <text
       id="text14"
       xml:space="preserve"
       transform="matrix(1.3333333,0,0,1.3333333,367.53001,244.65525)"
       clip-path="url(#clipPath15)"><tspan
         style="font-style:italic;font-variant:normal;font-weight:normal;font-stretch:normal;font-size:10.0071px;font-family:'Palatino Linotype';writing-mode:lr-tb;fill:#000000;fill-opacity:1;fill-rule:nonzero;stroke:none"
         x="0"
         y="0"
         id="tspan14">n</tspan></text>
    <text
       id="text15"
       xml:space="preserve"
       transform="matrix(1.3333333,0,0,1.3333333,375.51795,250.16707)"
       clip-path="url(#clipPath16)"><tspan
         style="font-style:italic;font-variant:normal;font-weight:normal;font-stretch:normal;font-size:6.00428px;font-family:'Palatino Linotype';writing-mode:lr-tb;fill:#000000;fill-opacity:1;fill-rule:nonzero;stroke:none"
         x="0 3.00214 6.0042801"
         y="0"
         sodipodi:role="line"
         id="tspan15">xxb</tspan></text>
    <text
       id="text16"
       xml:space="preserve"
       transform="matrix(1.3333333,0,0,1.3333333,233.90353,244.65525)"
       clip-path="url(#clipPath17)"><tspan
         style="font-style:italic;font-variant:normal;font-weight:normal;font-stretch:normal;font-size:10.0071px;font-family:'Palatino Linotype';writing-mode:lr-tb;fill:#000000;fill-opacity:1;fill-rule:nonzero;stroke:none"
         x="0"
         y="0"
         id="tspan16">n</tspan></text>
    <text
       id="text17"
       xml:space="preserve"
       transform="matrix(1.3333333,0,0,1.3333333,241.89147,250.16707)"
       clip-path="url(#clipPath18)"><tspan
         style="font-style:italic;font-variant:normal;font-weight:normal;font-stretch:normal;font-size:6.00428px;font-family:'Palatino Linotype';writing-mode:lr-tb;fill:#000000;fill-opacity:1;fill-rule:nonzero;stroke:none"
         x="0 3.00214 6.0042801"
         y="0"
         sodipodi:role="line"
         id="tspan17">xyb</tspan></text>
    <text
       id="text18"
       xml:space="preserve"
       transform="matrix(1.3333333,0,0,1.3333333,182.87992,244.65525)"
       clip-path="url(#clipPath19)"><tspan
         style="font-style:italic;font-variant:normal;font-weight:normal;font-stretch:normal;font-size:10.0071px;font-family:'Palatino Linotype';writing-mode:lr-tb;fill:#000000;fill-opacity:1;fill-rule:nonzero;stroke:none"
         x="0"
         y="0"
         id="tspan18">n</tspan></text>
    <text
       id="text19"
       xml:space="preserve"
       transform="matrix(1.3333333,0,0,1.3333333,190.86785,250.16707)"
       clip-path="url(#clipPath20)"><tspan
         style="font-style:italic;font-variant:normal;font-weight:normal;font-stretch:normal;font-size:6.00428px;font-family:'Palatino Linotype';writing-mode:lr-tb;fill:#000000;fill-opacity:1;fill-rule:nonzero;stroke:none"
         x="0 3.00214 6.0042801"
         y="0"
         sodipodi:role="line"
         id="tspan19">yyb</tspan></text>
    <text
       id="text20"
       xml:space="preserve"
       transform="matrix(1.3333333,0,0,1.3333333,316.5064,244.65525)"
       clip-path="url(#clipPath21)"><tspan
         style="font-style:italic;font-variant:normal;font-weight:normal;font-stretch:normal;font-size:10.0071px;font-family:'Palatino Linotype';writing-mode:lr-tb;fill:#000000;fill-opacity:1;fill-rule:nonzero;stroke:none"
         x="0"
         y="0"
         id="tspan20">n</tspan></text>
    <text
       id="text21"
       xml:space="preserve"
       transform="matrix(1.3333333,0,0,1.3333333,324.49432,250.16707)"
       clip-path="url(#clipPath22)"><tspan
         style="font-style:italic;font-variant:normal;font-weight:normal;font-stretch:normal;font-size:6.00428px;font-family:'Palatino Linotype';writing-mode:lr-tb;fill:#000000;fill-opacity:1;fill-rule:nonzero;stroke:none"
         x="0 3.00214 6.0042801"
         y="0"
         sodipodi:role="line"
         id="tspan21">yxb</tspan></text>
    <text
       id="text22"
       xml:space="preserve"
       transform="matrix(1.3333333,0,0,1.3333333,205.19776,211.96173)"
       clip-path="url(#clipPath23)"><tspan
         style="font-style:italic;font-variant:normal;font-weight:normal;font-stretch:normal;font-size:10.0071px;font-family:'Palatino Linotype';writing-mode:lr-tb;fill:#000000;fill-opacity:1;fill-rule:nonzero;stroke:none"
         x="0"
         y="0"
         id="tspan22">v</tspan></text>
    <text
       id="text23"
       xml:space="preserve"
       transform="matrix(1.3333333,0,0,1.3333333,212.95116,217.47355)"
       clip-path="url(#clipPath24)"><tspan
         style="font-style:italic;font-variant:normal;font-weight:normal;font-stretch:normal;font-size:6.00428px;font-family:'Palatino Linotype';writing-mode:lr-tb;fill:#000000;fill-opacity:1;fill-rule:nonzero;stroke:none"
         x="0 2.6659002"
         y="0"
         sodipodi:role="line"
         id="tspan23">zy</tspan></text>
    <text
       id="text24"
       xml:space="preserve"
       transform="matrix(1.3333333,0,0,1.3333333,338.82424,211.96173)"
       clip-path="url(#clipPath25)"><tspan
         style="font-style:italic;font-variant:normal;font-weight:normal;font-stretch:normal;font-size:10.0071px;font-family:'Palatino Linotype';writing-mode:lr-tb;fill:#000000;fill-opacity:1;fill-rule:nonzero;stroke:none"
         x="0"
         y="0"
         id="tspan24">v</tspan></text>
    <text
       id="text25"
       xml:space="preserve"
       transform="matrix(1.3333333,0,0,1.3333333,346.57761,217.47355)"
       clip-path="url(#clipPath26)"><tspan
         style="font-style:italic;font-variant:normal;font-weight:normal;font-stretch:normal;font-size:6.00428px;font-family:'Palatino Linotype';writing-mode:lr-tb;fill:#000000;fill-opacity:1;fill-rule:nonzero;stroke:none"
         x="0 2.6659002"
         y="0"
         sodipodi:role="line"
         id="tspan25">zx</tspan></text>
    <path
       id="path27"
       d="m 351.16666,65.28297 -0.4252,2.97638 h 0.8504 l -0.4252,-2.97638 m 0,88.36681 -0.4252,-2.97638 h 0.8504 l -0.4252,2.97638 m 0,-88.36681 h -2.12598 m 2.12598,0 h 2.12597 m -2.12597,88.36681 h -2.12598 m 2.12598,0 h 2.12597 m -2.12597,-88.36681 h -35.63657 m 35.63657,88.36681 h -35.63657 m 35.63657,-88.36681 v 0 m 0,88.36681 v 0 m 0,-88.36681 v 88.36681 m -88.58115,-28.931 24.54877,-14.17322 m -5.15525,2.97638 -0.36825,0.21259 m 5.5235,-3.18897 v 0 l -4.73004,3.71283 -0.85041,-1.47291 5.58045,-2.23992"
       style="fill:none;stroke:#000000;stroke-width:0.3685;stroke-linecap:round;stroke-linejoin:round;stroke-miterlimit:10;stroke-dasharray:none;stroke-opacity:1"
       transform="matrix(1.3333333,0,0,-1.3333333,0,291.024)" />
    <path
       id="path28"
       d="m 281.55383,112.78548 5.58045,-2.23992 -4.73004,3.71283 z"
       style="fill:#000000;fill-opacity:1;fill-rule:nonzero;stroke:none"
       transform="matrix(1.3333333,0,0,-1.3333333,0,291.024)" />
    <path
       id="path29"
       d="m 262.58551,124.71878 -24.54874,-14.17322 m 5.15525,2.97638 0.36822,0.21259 m -5.52347,-3.18897 v 0 l 5.58045,2.23992 -0.8504,1.47291 -4.73005,-3.71283"
       style="fill:none;stroke:#000000;stroke-width:0.3685;stroke-linecap:round;stroke-linejoin:round;stroke-miterlimit:10;stroke-dasharray:none;stroke-opacity:1"
       transform="matrix(1.3333333,0,0,-1.3333333,0,291.024)" />
    <path
       id="path30"
       d="m 242.76682,114.25839 -4.73005,-3.71283 5.58045,2.23992 z"
       style="fill:#000000;fill-opacity:1;fill-rule:nonzero;stroke:none"
       transform="matrix(1.3333333,0,0,-1.3333333,0,291.024)" />
    <path
       id="path31"
       d="m 162.36566,124.71878 24.54877,-14.17322 m -5.15524,2.97638 -0.36826,0.21259 m 5.5235,-3.18897 v 0 l -4.73004,3.71283 -0.85041,-1.47291 5.58045,-2.23992"
       style="fill:none;stroke:#000000;stroke-width:0.3685;stroke-linecap:round;stroke-linejoin:round;stroke-miterlimit:10;stroke-dasharray:none;stroke-opacity:1"
       transform="matrix(1.3333333,0,0,-1.3333333,0,291.024)" />
    <path
       id="path32"
       d="m 181.33398,112.78548 5.58045,-2.23992 -4.73004,3.71283 z"
       style="fill:#000000;fill-opacity:1;fill-rule:nonzero;stroke:none"
       transform="matrix(1.3333333,0,0,-1.3333333,0,291.024)" />
    <path
       id="path33"
       d="m 162.36566,124.71878 -24.54873,-14.17322 m 5.15521,2.97638 0.36825,0.21259 m -5.52346,-3.18897 v 0 l 5.58041,2.23992 -0.85037,1.47291 -4.73004,-3.71283"
       style="fill:none;stroke:#000000;stroke-width:0.3685;stroke-linecap:round;stroke-linejoin:round;stroke-miterlimit:10;stroke-dasharray:none;stroke-opacity:1"
       transform="matrix(1.3333333,0,0,-1.3333333,0,291.024)" />
    <path
       id="path34"
       d="m 142.54697,114.25839 -4.73004,-3.71283 5.58041,2.23992 z"
       style="fill:#000000;fill-opacity:1;fill-rule:nonzero;stroke:none"
       transform="matrix(1.3333333,0,0,-1.3333333,0,291.024)" />
    <path
       id="path35"
       d="m 262.58551,36.35199 24.54877,-14.17322 m -5.15525,2.97638 -0.36825,0.2126 m 5.5235,-3.18898 v 0 l -4.73004,3.71283 -0.85041,-1.47291 5.58045,-2.23992"
       style="fill:none;stroke:#000000;stroke-width:0.3685;stroke-linecap:round;stroke-linejoin:round;stroke-miterlimit:10;stroke-dasharray:none;stroke-opacity:1"
       transform="matrix(1.3333333,0,0,-1.3333333,0,291.024)" />
    <path
       id="path36"
       d="m 281.55383,24.41869 5.58045,-2.23992 -4.73004,3.71283 z"
       style="fill:#000000;fill-opacity:1;fill-rule:nonzero;stroke:none"
       transform="matrix(1.3333333,0,0,-1.3333333,0,291.024)" />
    <path
       id="path37"
       d="M 262.58551,36.35199 238.03677,22.17877 m 5.15525,2.97638 0.36822,0.2126 m -5.52347,-3.18898 v 0 l 5.58045,2.23992 -0.8504,1.47291 -4.73005,-3.71283"
       style="fill:none;stroke:#000000;stroke-width:0.3685;stroke-linecap:round;stroke-linejoin:round;stroke-miterlimit:10;stroke-dasharray:none;stroke-opacity:1"
       transform="matrix(1.3333333,0,0,-1.3333333,0,291.024)" />
    <path
       id="path38"
       d="m 242.76682,25.8916 -4.73005,-3.71283 5.58045,2.23992 z"
       style="fill:#000000;fill-opacity:1;fill-rule:nonzero;stroke:none"
       transform="matrix(1.3333333,0,0,-1.3333333,0,291.024)" />
    <path
       id="path39"
       d="m 162.36566,36.35199 24.54877,-14.17322 m -5.15524,2.97638 -0.36826,0.2126 m 5.5235,-3.18898 v 0 l -4.73004,3.71283 -0.85041,-1.47291 5.58045,-2.23992"
       style="fill:none;stroke:#000000;stroke-width:0.3685;stroke-linecap:round;stroke-linejoin:round;stroke-miterlimit:10;stroke-dasharray:none;stroke-opacity:1"
       transform="matrix(1.3333333,0,0,-1.3333333,0,291.024)" />
    <path
       id="path40"
       d="m 181.33398,24.41869 5.58045,-2.23992 -4.73004,3.71283 z"
       style="fill:#000000;fill-opacity:1;fill-rule:nonzero;stroke:none"
       transform="matrix(1.3333333,0,0,-1.3333333,0,291.024)" />
    <path
       id="path41"
       d="M 162.36566,36.35199 137.81693,22.17877 m 5.15521,2.97638 0.36825,0.2126 m -5.52346,-3.18898 v 0 l 5.58041,2.23992 -0.85037,1.47291 -4.73004,-3.71283"
       style="fill:none;stroke:#000000;stroke-width:0.3685;stroke-linecap:round;stroke-linejoin:round;stroke-miterlimit:10;stroke-dasharray:none;stroke-opacity:1"
       transform="matrix(1.3333333,0,0,-1.3333333,0,291.024)" />
    <path
       id="path42"
       d="m 142.54697,25.8916 -4.73004,-3.71283 5.58041,2.23992 z"
       style="fill:#000000;fill-opacity:1;fill-rule:nonzero;stroke:none"
       transform="matrix(1.3333333,0,0,-1.3333333,0,291.024)" />
    <path
       id="path43"
       d="M 162.36566,80.5354 V 64.66138 m 0,5.95276 v 0.4252 m 0,-6.37796 v 0 l 0.8504,5.95276 h -1.70077 l 0.85037,-5.95276"
       style="fill:none;stroke:#000000;stroke-width:0.3685;stroke-linecap:round;stroke-linejoin:round;stroke-miterlimit:10;stroke-dasharray:none;stroke-opacity:1"
       transform="matrix(1.3333333,0,0,-1.3333333,0,291.024)" />
    <path
       id="path44"
       d="m 161.51529,70.61414 0.85037,-5.95276 0.8504,5.95276 z"
       style="fill:#000000;fill-opacity:1;fill-rule:nonzero;stroke:none"
       transform="matrix(1.3333333,0,0,-1.3333333,0,291.024)" />
    <path
       id="path45"
       d="M 262.58551,80.5354 V 64.66138 m 0,5.95276 v 0.4252 m 0,-6.37796 v 0 l 0.8504,5.95276 h -1.70077 l 0.85037,-5.95276"
       style="fill:none;stroke:#000000;stroke-width:0.3685;stroke-linecap:round;stroke-linejoin:round;stroke-miterlimit:10;stroke-dasharray:none;stroke-opacity:1"
       transform="matrix(1.3333333,0,0,-1.3333333,0,291.024)" />
    <path
       id="path46"
       d="m 261.73514,70.61414 0.85037,-5.95276 0.8504,5.95276 z"
       style="fill:#000000;fill-opacity:1;fill-rule:nonzero;stroke:none"
       transform="matrix(1.3333333,0,0,-1.3333333,0,291.024)" />
    <text
       id="text46"
       xml:space="preserve"
       transform="matrix(1.3333333,0,0,1.3333333,450.20987,145.23992)"
       clip-path="url(#clipPath47)"><tspan
         style="font-style:italic;font-variant:normal;font-weight:normal;font-stretch:normal;font-size:10.0071px;font-family:'Palatino Linotype';writing-mode:lr-tb;fill:#000000;fill-opacity:1;fill-rule:nonzero;stroke:none"
         x="0"
         y="0"
         id="tspan46">d</tspan></text>
    <text
       id="text47"
       xml:space="preserve"
       transform="matrix(1.3333333,0,0,1.3333333,458.59316,150.75175)"
       clip-path="url(#clipPath48)"><tspan
         style="font-style:italic;font-variant:normal;font-weight:normal;font-stretch:normal;font-size:6.00428px;font-family:'Palatino Linotype';writing-mode:lr-tb;fill:#000000;fill-opacity:1;fill-rule:nonzero;stroke:none"
         x="0"
         y="0"
         id="tspan47">v</tspan></text>
  </g>
</svg>
