<?xml version="1.0" encoding="UTF-8" standalone="no"?>
<!-- Created with Inkscape (http://www.inkscape.org/) -->

<svg
   version="1.1"
   id="svg1"
   width="566.92932"
   height="151.18134"
   viewBox="0 0 566.92932 151.18134"
   sodipodi:docname="allg_stat_system.pdf"
   xmlns:inkscape="http://www.inkscape.org/namespaces/inkscape"
   xmlns:sodipodi="http://sodipodi.sourceforge.net/DTD/sodipodi-0.dtd"
   xmlns="http://www.w3.org/2000/svg"
   xmlns:svg="http://www.w3.org/2000/svg">
  <defs
     id="defs1">
    <clipPath
       clipPathUnits="userSpaceOnUse"
       id="clipPath34">
      <path
         d="M -0.00426,-0.00113 V 113.38696 H 425.20111 V -0.00113 H -0.00426"
         transform="matrix(1,0,0,-1,-112.34883,21.159671)"
         clip-rule="evenodd"
         id="path34" />
    </clipPath>
    <clipPath
       clipPathUnits="userSpaceOnUse"
       id="clipPath35">
      <path
         d="M -0.00426,-0.00113 V 113.38696 H 425.20111 V -0.00113 H -0.00426"
         transform="matrix(1,0,0,-1,-112.34883,5.8053401)"
         clip-rule="evenodd"
         id="path35" />
    </clipPath>
    <clipPath
       clipPathUnits="userSpaceOnUse"
       id="clipPath36">
      <path
         d="M -0.00426,-0.00113 V 113.38696 H 425.20111 V -0.00113 H -0.00426"
         transform="matrix(1,0,0,-1,-140.86113,5.8053401)"
         clip-rule="evenodd"
         id="path36" />
    </clipPath>
    <clipPath
       clipPathUnits="userSpaceOnUse"
       id="clipPath37">
      <path
         d="M -0.00426,-0.00113 V 113.38696 H 425.20111 V -0.00113 H -0.00426"
         transform="matrix(1,0,0,-1,-158.87421,5.8053401)"
         clip-rule="evenodd"
         id="path37" />
    </clipPath>
    <clipPath
       clipPathUnits="userSpaceOnUse"
       id="clipPath38">
      <path
         d="M -0.00426,-0.00113 V 113.38696 H 425.20111 V -0.00113 H -0.00426"
         transform="matrix(1,0,0,-1,-187.57248,5.8053401)"
         clip-rule="evenodd"
         id="path38" />
    </clipPath>
    <clipPath
       clipPathUnits="userSpaceOnUse"
       id="clipPath39">
      <path
         d="M -0.00426,-0.00113 V 113.38696 H 425.20111 V -0.00113 H -0.00426"
         transform="matrix(1,0,0,-1,-242.8732,5.8053401)"
         clip-rule="evenodd"
         id="path39" />
    </clipPath>
    <clipPath
       clipPathUnits="userSpaceOnUse"
       id="clipPath41">
      <path
         d="M -0.00426,-0.00113 V 113.38696 H 425.20111 V -0.00113 H -0.00426"
         transform="matrix(1,0,0,-1,-370.57863,11.77252)"
         clip-rule="evenodd"
         id="path41" />
    </clipPath>
    <clipPath
       clipPathUnits="userSpaceOnUse"
       id="clipPath42">
      <path
         d="M -0.00426,-0.00113 V 113.38696 H 425.20111 V -0.00113 H -0.00426"
         transform="matrix(1,0,0,-1,-373.57414,7.6386627)"
         clip-rule="evenodd"
         id="path42" />
    </clipPath>
    <clipPath
       clipPathUnits="userSpaceOnUse"
       id="clipPath55">
      <path
         d="M -0.00426,-0.00113 V 113.38696 H 425.20111 V -0.00113 H -0.00426"
         transform="matrix(1,0,0,-1,-35.621641,97.815693)"
         clip-rule="evenodd"
         id="path55" />
    </clipPath>
    <clipPath
       clipPathUnits="userSpaceOnUse"
       id="clipPath56">
      <path
         d="M -0.00426,-0.00113 V 113.38696 H 425.20111 V -0.00113 H -0.00426"
         transform="matrix(1,0,0,-1,-13.9329,73.816222)"
         clip-rule="evenodd"
         id="path56" />
    </clipPath>
    <clipPath
       clipPathUnits="userSpaceOnUse"
       id="clipPath57">
      <path
         d="M -0.00426,-0.00113 V 113.38696 H 425.20111 V -0.00113 H -0.00426"
         transform="matrix(1,0,0,-1,-7.2641002,104.75414)"
         clip-rule="evenodd"
         id="path57" />
    </clipPath>
  </defs>
  <sodipodi:namedview
     id="namedview1"
     pagecolor="#ffffff"
     bordercolor="#000000"
     borderopacity="0.25"
     inkscape:showpageshadow="2"
     inkscape:pageopacity="0.0"
     inkscape:pagecheckerboard="0"
     inkscape:deskcolor="#d1d1d1">
    <inkscape:page
       x="0"
       y="0"
       inkscape:label="1"
       id="page1"
       width="566.92932"
       height="151.18134"
       margin="0"
       bleed="0" />
  </sodipodi:namedview>
  <path
     id="path1"
     d="M 26.15561,81.66649 H 401.7764 V 93.00508 H 26.15561 V 81.66649"
     style="fill:none;stroke:#4c4c4c;stroke-width:0.70866;stroke-linecap:round;stroke-linejoin:round;stroke-miterlimit:10;stroke-dasharray:none;stroke-opacity:1"
     transform="matrix(1.3333333,0,0,-1.3333333,0,151.18133)" />
  <path
     id="path2"
     d="m 19.68372,100.70703 c 0,1.13092 -0.9168,2.04773 -2.04773,2.04773 m 0,0 c -1.13092,0 -2.04772,-0.91681 -2.04772,-2.04773 m 0,0 c 0,-1.13093 0.9168,-2.04773 2.04772,-2.04773 m 0,0 c 1.13093,0 2.04773,0.9168 2.04773,2.04773"
     style="fill:none;stroke:#000000;stroke-width:0.51024;stroke-linecap:round;stroke-linejoin:round;stroke-miterlimit:10;stroke-dasharray:none;stroke-opacity:1"
     transform="matrix(1.3333333,0,0,-1.3333333,0,151.18133)" />
  <path
     id="path3"
     d="m 26.18584,40.56413 h 7.08662 l -7.08662,7.08661 m 0,-7.08661 h -7.08661 l 7.08661,7.08661 M 23.3512,40.56413 21.8479,39.06084 m 4.33794,1.50329 -1.5033,-1.50329 m 4.33795,1.50329 -1.50331,-1.50329 m 4.33795,1.50329 -1.50329,-1.50329 m -9.83528,1.50329 -1.50332,-1.50329 m 382.76316,1.50329 h 7.08661 l -7.08661,7.08661 m 0,-7.08661 h -7.08661 l 7.08661,7.08661 m -7.08661,-8.85826 h 14.17322"
     style="fill:none;stroke:#000000;stroke-width:0.3685;stroke-linecap:round;stroke-linejoin:round;stroke-miterlimit:10;stroke-dasharray:none;stroke-opacity:1"
     transform="matrix(1.3333333,0,0,-1.3333333,0,151.18133)" />
  <path
     id="path4"
     d="M 61.2307,93.00508 V 81.66649 m 0,5.95276 v 0.4252 m 0,-6.37796 v 0 l 0.85039,5.95276 h -1.70078 l 0.85039,-5.95276"
     style="fill:none;stroke:#4c4c4c;stroke-width:0.3685;stroke-linecap:round;stroke-linejoin:round;stroke-miterlimit:10;stroke-dasharray:none;stroke-opacity:1"
     transform="matrix(1.3333333,0,0,-1.3333333,0,151.18133)" />
  <path
     id="path5"
     d="m 60.38031,87.61925 0.85039,-5.95276 0.85039,5.95276 z"
     style="fill:#4c4c4c;fill-opacity:1;fill-rule:nonzero;stroke:none"
     transform="matrix(1.3333333,0,0,-1.3333333,0,151.18133)" />
  <path
     id="path6"
     d="M 104.86935,93.00508 V 81.66649 m 0,5.95276 v 0.4252 m 0,-6.37796 v 0 l 0.85041,5.95276 h -1.70079 l 0.85038,-5.95276"
     style="fill:none;stroke:#4c4c4c;stroke-width:0.3685;stroke-linecap:round;stroke-linejoin:round;stroke-miterlimit:10;stroke-dasharray:none;stroke-opacity:1"
     transform="matrix(1.3333333,0,0,-1.3333333,0,151.18133)" />
  <path
     id="path7"
     d="m 104.01897,87.61925 0.85038,-5.95276 0.85041,5.95276 z"
     style="fill:#4c4c4c;fill-opacity:1;fill-rule:nonzero;stroke:none"
     transform="matrix(1.3333333,0,0,-1.3333333,0,151.18133)" />
  <path
     id="path8"
     d="M 148.50803,93.00508 V 81.66649 m 0,5.95276 v 0.4252 m 0,-6.37796 v 0 l 0.8504,5.95276 h -1.70081 l 0.85041,-5.95276"
     style="fill:none;stroke:#4c4c4c;stroke-width:0.3685;stroke-linecap:round;stroke-linejoin:round;stroke-miterlimit:10;stroke-dasharray:none;stroke-opacity:1"
     transform="matrix(1.3333333,0,0,-1.3333333,0,151.18133)" />
  <path
     id="path9"
     d="m 147.65762,87.61925 0.85041,-5.95276 0.8504,5.95276 z"
     style="fill:#4c4c4c;fill-opacity:1;fill-rule:nonzero;stroke:none"
     transform="matrix(1.3333333,0,0,-1.3333333,0,151.18133)" />
  <path
     id="path10"
     d="M 192.14667,93.00508 V 81.66649 m 0,5.95276 v 0.4252 m 0,-6.37796 v 0 l 0.8504,5.95276 h -1.70077 l 0.85037,-5.95276"
     style="fill:none;stroke:#4c4c4c;stroke-width:0.3685;stroke-linecap:round;stroke-linejoin:round;stroke-miterlimit:10;stroke-dasharray:none;stroke-opacity:1"
     transform="matrix(1.3333333,0,0,-1.3333333,0,151.18133)" />
  <path
     id="path11"
     d="m 191.2963,87.61925 0.85037,-5.95276 0.8504,5.95276 z"
     style="fill:#4c4c4c;fill-opacity:1;fill-rule:nonzero;stroke:none"
     transform="matrix(1.3333333,0,0,-1.3333333,0,151.18133)" />
  <path
     id="path12"
     d="M 235.78534,93.00508 V 81.66649 m 0,5.95276 v 0.4252 m 0,-6.37796 v 0 l 0.8504,5.95276 h -1.70077 l 0.85037,-5.95276"
     style="fill:none;stroke:#4c4c4c;stroke-width:0.3685;stroke-linecap:round;stroke-linejoin:round;stroke-miterlimit:10;stroke-dasharray:none;stroke-opacity:1"
     transform="matrix(1.3333333,0,0,-1.3333333,0,151.18133)" />
  <path
     id="path13"
     d="m 234.93497,87.61925 0.85037,-5.95276 0.8504,5.95276 z"
     style="fill:#4c4c4c;fill-opacity:1;fill-rule:nonzero;stroke:none"
     transform="matrix(1.3333333,0,0,-1.3333333,0,151.18133)" />
  <path
     id="path14"
     d="M 279.42398,93.00508 V 81.66649 m 0,5.95276 v 0.4252 m 0,-6.37796 v 0 l 0.8504,5.95276 h -1.70077 l 0.85037,-5.95276"
     style="fill:none;stroke:#4c4c4c;stroke-width:0.3685;stroke-linecap:round;stroke-linejoin:round;stroke-miterlimit:10;stroke-dasharray:none;stroke-opacity:1"
     transform="matrix(1.3333333,0,0,-1.3333333,0,151.18133)" />
  <path
     id="path15"
     d="m 278.57361,87.61925 0.85037,-5.95276 0.8504,5.95276 z"
     style="fill:#4c4c4c;fill-opacity:1;fill-rule:nonzero;stroke:none"
     transform="matrix(1.3333333,0,0,-1.3333333,0,151.18133)" />
  <path
     id="path16"
     d="M 323.06265,93.00508 V 81.66649 m 0,5.95276 v 0.4252 m 0,-6.37796 v 0 l 0.85041,5.95276 h -1.70078 l 0.85037,-5.95276"
     style="fill:none;stroke:#4c4c4c;stroke-width:0.3685;stroke-linecap:round;stroke-linejoin:round;stroke-miterlimit:10;stroke-dasharray:none;stroke-opacity:1"
     transform="matrix(1.3333333,0,0,-1.3333333,0,151.18133)" />
  <path
     id="path17"
     d="m 322.21228,87.61925 0.85037,-5.95276 0.85041,5.95276 z"
     style="fill:#4c4c4c;fill-opacity:1;fill-rule:nonzero;stroke:none"
     transform="matrix(1.3333333,0,0,-1.3333333,0,151.18133)" />
  <path
     id="path18"
     d="M 366.70132,93.00508 V 81.66649 m 0,5.95276 v 0.4252 m 0,-6.37796 v 0 l 0.85038,5.95276 h -1.70078 l 0.8504,-5.95276"
     style="fill:none;stroke:#4c4c4c;stroke-width:0.3685;stroke-linecap:round;stroke-linejoin:round;stroke-miterlimit:10;stroke-dasharray:none;stroke-opacity:1"
     transform="matrix(1.3333333,0,0,-1.3333333,0,151.18133)" />
  <path
     id="path19"
     d="m 365.85092,87.61925 0.8504,-5.95276 0.85038,5.95276 z"
     style="fill:#4c4c4c;fill-opacity:1;fill-rule:nonzero;stroke:none"
     transform="matrix(1.3333333,0,0,-1.3333333,0,151.18133)" />
  <path
     id="path20"
     d="m 348.12061,47.65074 h 53.65579 m -53.65579,-1.41731 h 3.37545 m 2.83466,0 h 4.25195 m 2.83466,0 h 4.25195 m 2.83466,0 h 4.25198 m 2.83463,0 h 4.25198 m 2.83462,0 h 4.25199 m 2.83465,0 h 4.25196 m 2.83465,0 h 4.25196 m -52.98175,0 v 0 m 53.65579,0 v 0 m -107.31159,1.41731 h 53.6558 m -53.6558,-1.41731 h 0.33835 m 2.83463,0 h 4.25198 m 2.83463,0 h 4.25198 m 2.83466,0 h 4.25195 m 2.83465,0 h 4.25196 m 2.83465,0 h 4.25196 m 2.83465,0 h 4.25199 m 2.83462,0 h 4.25198 m 2.83463,0 h 0.87653 m -53.6558,0 v 0 m 53.6558,0 v 0 m -107.31159,1.41731 h 53.65579 m -53.51992,-1.41731 h 4.25198 m 2.83462,0 h 4.25199 m 2.83462,0 h 4.25199 m 2.83462,0 h 4.25199 m 2.83465,0 h 4.25195 m 2.83466,0 h 4.25195 m 2.83466,0 h 4.25195 m 2.83466,0 h 3.91363 m -53.65579,0 v 0 m 53.65579,0 v 0 m -107.31158,1.41731 h 53.65579 m -53.65579,-1.41731 h 1.35071 m 2.83465,0 h 4.25196 m 2.83465,0 h 4.25199 m 2.83462,0 h 4.25198 m 2.83463,0 h 4.25198 m 2.83466,0 h 4.25195 m 2.83466,0 h 4.25195 m 2.83466,0 h 4.25195 m -50.957,0 v 0 m 53.65579,0 v 0 m -107.31158,1.41731 h 53.65579 m -52.50754,-1.41731 h 4.25195 m 2.83466,0 h 4.25195 m 2.83466,0 h 4.25195 m 2.83466,0 h 4.25198"
     style="fill:none;stroke:#000000;stroke-width:0.3685;stroke-linecap:round;stroke-linejoin:round;stroke-miterlimit:10;stroke-dasharray:none;stroke-opacity:1"
     transform="matrix(1.3333333,0,0,-1.3333333,0,151.18133)" />
  <path
     id="path21"
     d="m 162.99213,46.23343 h 4.25198 m 2.83463,0 h 4.25198 m 2.83465,0 h 4.25196 m 2.83465,0 h 2.90125 m -53.65579,0 v 0 m 53.65579,0 v 0 M 26.15561,47.65074 H 79.84164 M 28.34645,46.23343 h 4.25198 m 2.83464,0 h 4.25197 m 2.83464,0 h 4.25197 m 2.83466,0 h 4.25197 m 2.83464,0 h 4.25197 m 2.83464,0 h 4.25196 m 2.83466,0 h 4.25197 m 2.83464,0 h 1.88888 m -53.68603,0 v 0 m 53.68603,0 v 0 m 0,1.41731 h 53.6558 m -53.6558,-1.41731 h 2.36309 m 2.83464,0 h 4.25197 m 2.83465,0 h 4.25197 m 2.83464,0 h 4.25197 m 2.83464,0 h 4.25197 m 2.83465,0 h 4.25197 m 2.83464,0 h 4.25197 m 2.83464,0 h 4.25199 m -51.9694,0 v 0 m 53.6558,0 v 0"
     style="fill:none;stroke:#000000;stroke-width:0.3685;stroke-linecap:round;stroke-linejoin:round;stroke-miterlimit:10;stroke-dasharray:none;stroke-opacity:1"
     transform="matrix(1.3333333,0,0,-1.3333333,0,151.18133)" />
  <g
     id="layer-MC0"
     inkscape:groupmode="layer"
     inkscape:label="STABBEANSPR_DIAG">
    <path
       id="path22"
       d="m 29.02049,47.65074 -0.04307,0.49223 -0.12789,0.47728 -0.20881,0.44782 -0.28342,0.40475 -0.34938,0.34938 -0.40476,0.28342 -0.44781,0.20882 -0.47728,0.12788 -0.49223,0.04308 -0.49224,-0.04308 -0.47726,-0.12788 -0.44782,-0.20882 -0.40475,-0.28342 -0.3494,-0.34938 -0.2834,-0.40475 -0.20883,-0.44782 -0.12788,-0.47728 -0.04306,-0.49223 0.04306,-0.49223 0.12788,-0.47727 0.20883,-0.44781 0.2834,-0.40476 0.3494,-0.34939 0.40475,-0.28342 0.44782,-0.20881 0.47726,-0.12789 0.49224,-0.04306 0.49223,0.04306 0.47728,0.12789 0.44781,0.20881 0.40476,0.28342 0.34938,0.34939 0.28342,0.40476 0.20881,0.44781 0.12789,0.47727 z"
       style="fill:#e0e0e0;fill-opacity:1;fill-rule:nonzero;stroke:none"
       transform="matrix(1.3333333,0,0,-1.3333333,0,151.18133)" />
    <path
       id="path23"
       d="m 404.61105,47.65074 -0.0431,0.49223 -0.12787,0.47728 -0.20883,0.44782 -0.28338,0.40475 -0.3494,0.34938 -0.40475,0.28342 -0.44782,0.20882 -0.47729,0.12788 -0.49222,0.04308 -0.49222,-0.04308 -0.4773,-0.12788 -0.44781,-0.20882 -0.40475,-0.28342 -0.3494,-0.34938 -0.28339,-0.40475 -0.20883,-0.44782 -0.1279,-0.47728 -0.0431,-0.49223 0.0431,-0.49223 0.1279,-0.47727 0.20883,-0.44781 0.28339,-0.40476 0.3494,-0.34939 0.40475,-0.28342 0.44781,-0.20881 0.4773,-0.12789 0.49222,-0.04306 0.49222,0.04306 0.47729,0.12789 0.44782,0.20881 0.40475,0.28342 0.3494,0.34939 0.28338,0.40476 0.20883,0.44781 0.12787,0.47727 z"
       style="fill:#e0e0e0;fill-opacity:1;fill-rule:nonzero;stroke:none"
       transform="matrix(1.3333333,0,0,-1.3333333,0,151.18133)" />
    <path
       id="path24"
       d="m 350.95526,47.65074 -0.0431,0.49223 -0.12787,0.47728 -0.20883,0.44782 -0.28342,0.40475 -0.34936,0.34938 -0.40476,0.28342 -0.44781,0.20882 -0.4773,0.12788 -0.49221,0.04308 -0.49225,-0.04308 -0.47727,-0.12788 -0.44781,-0.20882 -0.40476,-0.28342 -0.34939,-0.34938 -0.28339,-0.40475 -0.20883,-0.44782 -0.1279,-0.47728 -0.0431,-0.49223 0.0431,-0.49223 0.1279,-0.47727 0.20883,-0.44781 0.28339,-0.40476 0.34939,-0.34939 0.40476,-0.28342 0.44781,-0.20881 0.47727,-0.12789 0.49225,-0.04306 0.49221,0.04306 0.4773,0.12789 0.44781,0.20881 0.40476,0.28342 0.34936,0.34939 0.28342,0.40476 0.20883,0.44781 0.12787,0.47727 z"
       style="fill:#e0e0e0;fill-opacity:1;fill-rule:nonzero;stroke:none"
       transform="matrix(1.3333333,0,0,-1.3333333,0,151.18133)" />
    <path
       id="path25"
       d="m 297.29947,47.65074 -0.0431,0.49223 -0.12787,0.47728 -0.20883,0.44782 -0.28342,0.40475 -0.34936,0.34938 -0.40476,0.28342 -0.44781,0.20882 -0.4773,0.12788 -0.49222,0.04308 -0.49225,-0.04308 -0.47726,-0.12788 -0.44781,-0.20882 -0.40476,-0.28342 -0.3494,-0.34938 -0.28341,-0.40475 -0.2088,-0.44782 -0.1279,-0.47728 -0.0431,-0.49223 0.0431,-0.49223 0.1279,-0.47727 0.2088,-0.44781 0.28341,-0.40476 0.3494,-0.34939 0.40476,-0.28342 0.44781,-0.20881 0.47726,-0.12789 0.49225,-0.04306 0.49222,0.04306 0.4773,0.12789 0.44781,0.20881 0.40476,0.28342 0.34936,0.34939 0.28342,0.40476 0.20883,0.44781 0.12787,0.47727 z"
       style="fill:#e0e0e0;fill-opacity:1;fill-rule:nonzero;stroke:none"
       transform="matrix(1.3333333,0,0,-1.3333333,0,151.18133)" />
    <path
       id="path26"
       d="m 243.64368,47.65074 -0.0431,0.49223 -0.1279,0.47728 -0.20883,0.44782 -0.28339,0.40475 -0.3494,0.34938 -0.40475,0.28342 -0.44782,0.20882 -0.47729,0.12788 -0.49222,0.04308 -0.49222,-0.04308 -0.47729,-0.12788 -0.44782,-0.20882 -0.40475,-0.28342 -0.3494,-0.34938 -0.28338,-0.40475 -0.20884,-0.44782 -0.12786,-0.47728 -0.0431,-0.49223 0.0431,-0.49223 0.12786,-0.47727 0.20884,-0.44781 0.28338,-0.40476 0.3494,-0.34939 0.40475,-0.28342 0.44782,-0.20881 0.47729,-0.12789 0.49222,-0.04306 0.49222,0.04306 0.47729,0.12789 0.44782,0.20881 0.40475,0.28342 0.3494,0.34939 0.28339,0.40476 0.20883,0.44781 0.1279,0.47727 z"
       style="fill:#e0e0e0;fill-opacity:1;fill-rule:nonzero;stroke:none"
       transform="matrix(1.3333333,0,0,-1.3333333,0,151.18133)" />
    <path
       id="path27"
       d="m 189.98788,47.65074 -0.0431,0.49223 -0.12789,0.47728 -0.20884,0.44782 -0.28338,0.40475 -0.3494,0.34938 -0.40475,0.28342 -0.44782,0.20882 -0.47729,0.12788 -0.49222,0.04308 -0.49222,-0.04308 -0.47729,-0.12788 -0.44782,-0.20882 -0.40475,-0.28342 -0.3494,-0.34938 -0.28339,-0.40475 -0.20883,-0.44782 -0.1279,-0.47728 -0.0431,-0.49223 0.0431,-0.49223 0.1279,-0.47727 0.20883,-0.44781 0.28339,-0.40476 0.54694,-0.50087 0.20721,-0.13194 0.44782,-0.20881 0.47729,-0.12789 0.49222,-0.04306 0.49222,0.04306 0.47729,0.12789 0.44782,0.20881 0.40475,0.28342 0.3494,0.34939 0.28338,0.40476 0.20884,0.44781 0.12789,0.47727 z"
       style="fill:#e0e0e0;fill-opacity:1;fill-rule:nonzero;stroke:none"
       transform="matrix(1.3333333,0,0,-1.3333333,0,151.18133)" />
    <path
       id="path28"
       d="m 136.33209,47.65074 -0.0431,0.49223 -0.12787,0.47728 -0.20883,0.44782 -0.28342,0.40475 -0.34936,0.34938 -0.40476,0.28342 -0.44781,0.20882 -0.4773,0.12788 -0.49221,0.04308 -0.49222,-0.04308 -0.4773,-0.12788 -0.44781,-0.20882 -0.40476,-0.28342 -0.34939,-0.34938 -0.28339,-0.40475 -0.20883,-0.44782 -0.1279,-0.47728 -0.0431,-0.49223 0.0431,-0.49223 0.1279,-0.47727 0.20883,-0.44781 0.28339,-0.40476 0.34939,-0.34939 0.40476,-0.28342 0.44781,-0.20881 0.4773,-0.12789 0.49222,-0.04306 0.49221,0.04306 0.4773,0.12789 0.44781,0.20881 0.40476,0.28342 0.34936,0.34939 0.28342,0.40476 0.20883,0.44781 0.12787,0.47727 z"
       style="fill:#e0e0e0;fill-opacity:1;fill-rule:nonzero;stroke:none"
       transform="matrix(1.3333333,0,0,-1.3333333,0,151.18133)" />
    <path
       id="path29"
       d="m 82.67628,47.65074 -0.04306,0.49223 -0.12789,0.47728 -0.20882,0.44782 -0.2834,0.40475 -0.3494,0.34938 -0.40475,0.28342 -0.44782,0.20882 -0.47728,0.12788 -0.49222,0.04308 -0.49223,-0.04308 -0.47728,-0.12788 -0.44781,-0.20882 -0.40476,-0.28342 -0.34939,-0.34938 -0.28341,-0.40475 -0.20881,-0.44782 -0.1279,-0.47728 -0.04306,-0.49223 0.04306,-0.49223 0.1279,-0.47727 0.20881,-0.44781 0.28341,-0.40476 0.34939,-0.34939 0.40476,-0.28342 0.44781,-0.20881 0.47728,-0.12789 0.49223,-0.04306 0.49222,0.04306 0.47728,0.12789 0.44782,0.20881 0.40475,0.28342 0.3494,0.34939 0.2834,0.40476 0.20882,0.44781 0.12789,0.47727 z"
       style="fill:#e0e0e0;fill-opacity:1;fill-rule:nonzero;stroke:none"
       transform="matrix(1.3333333,0,0,-1.3333333,0,151.18133)" />
  </g>
  <path
     id="path30"
     d="M 17.63599,100.70703 H 34.1339 m -5.95276,0 h -0.4252 m 6.37796,0 v 0 l -5.95276,0.85039 v -1.70078 l 5.95276,0.85039"
     style="fill:none;stroke:#000000;stroke-width:0.3685;stroke-linecap:round;stroke-linejoin:round;stroke-miterlimit:10;stroke-dasharray:none;stroke-opacity:1"
     transform="matrix(1.3333333,0,0,-1.3333333,0,151.18133)" />
  <path
     id="path31"
     d="m 28.18114,99.85664 5.95276,0.85039 -5.95276,0.85039 z"
     style="fill:#000000;fill-opacity:1;fill-rule:nonzero;stroke:none"
     transform="matrix(1.3333333,0,0,-1.3333333,0,151.18133)" />
  <path
     id="path32"
     d="M 17.63599,100.70703 V 84.61729 m 0,5.95276 v 0.4252 m 0,-6.37796 v 0 l 0.8504,5.95276 h -1.70078 l 0.85038,-5.95276"
     style="fill:none;stroke:#000000;stroke-width:0.3685;stroke-linecap:round;stroke-linejoin:round;stroke-miterlimit:10;stroke-dasharray:none;stroke-opacity:1"
     transform="matrix(1.3333333,0,0,-1.3333333,0,151.18133)" />
  <path
     id="path33"
     d="m 16.78561,90.57005 0.85038,-5.95276 0.8504,5.95276 z"
     style="fill:#000000;fill-opacity:1;fill-rule:nonzero;stroke:none"
     transform="matrix(1.3333333,0,0,-1.3333333,0,151.18133)" />
  <text
     id="text33"
     xml:space="preserve"
     transform="matrix(1.3333333,0,0,1.3333333,149.79843,122.96844)"
     clip-path="url(#clipPath34)"><tspan
       style="font-variant:normal;font-weight:normal;font-stretch:normal;font-size:10.0916px;font-family:'Palatino Linotype';writing-mode:lr-tb;fill:#000000;fill-opacity:1;fill-rule:nonzero;stroke:none"
       x="0 5.2980952 8.5879602 13.633765 17.619951 21.606136 26.440018 30.426205 32.949108 38.2472 41.537067 46.58287"
       y="0"
       sodipodi:role="line"
       id="tspan33">Starrer Stab</tspan></text>
  <text
     id="text34"
     xml:space="preserve"
     transform="matrix(1.3333333,0,0,1.3333333,149.79843,143.44088)"
     clip-path="url(#clipPath35)"><tspan
       style="font-variant:normal;font-weight:normal;font-stretch:normal;font-size:10.0916px;font-family:'Palatino Linotype';writing-mode:lr-tb;fill:#000000;fill-opacity:1;fill-rule:nonzero;stroke:none"
       x="0 5.6109352 10.444817 16.61079 21.444672 25.430857"
       y="0"
       sodipodi:role="line"
       id="tspan34">Feder </tspan></text>
  <text
     id="text35"
     xml:space="preserve"
     transform="matrix(1.3333333,0,0,1.3333333,187.81484,143.44088)"
     clip-path="url(#clipPath36)"><tspan
       style="font-variant:normal;font-weight:normal;font-stretch:normal;font-size:10.0916px;font-family:'Palatino Linotype';writing-mode:lr-tb;fill:#000000;fill-opacity:1;fill-rule:nonzero;stroke:none"
       x="0 8.9108915 11.84755 15.137415"
       y="0"
       sodipodi:role="line"
       id="tspan35">mit </tspan></text>
  <text
     id="text36"
     xml:space="preserve"
     transform="matrix(1.3333333,0,0,1.3333333,211.83227,143.44088)"
     clip-path="url(#clipPath37)"><tspan
       style="font-variant:normal;font-weight:normal;font-stretch:normal;font-size:10.0916px;font-family:'Palatino Linotype';writing-mode:lr-tb;fill:#000000;fill-opacity:1;fill-rule:nonzero;stroke:none"
       x="0 2.9366586 5.8733172 11.746634 16.580515 21.62632 25.612507"
       y="0"
       sodipodi:role="line"
       id="tspan36">linear </tspan></text>
  <text
     id="text37"
     xml:space="preserve"
     transform="matrix(1.3333333,0,0,1.3333333,250.09664,143.44088)"
     clip-path="url(#clipPath38)"><tspan
       style="font-variant:normal;font-weight:normal;font-stretch:normal;font-size:10.0916px;font-family:'Palatino Linotype';writing-mode:lr-tb;fill:#000000;fill-opacity:1;fill-rule:nonzero;stroke:none"
       x="0 4.8338814 7.7705398 12.816344 17.095188 20.385052 23.321711 27.600554 32.081226 37.954544 42.788425 51.699318"
       y="0"
       sodipodi:role="line"
       id="tspan37">elastischem </tspan></text>
  <text
     id="text38"
     xml:space="preserve"
     transform="matrix(1.3333333,0,0,1.3333333,323.83093,143.44088)"
     clip-path="url(#clipPath39)"><tspan
       style="font-variant:normal;font-weight:normal;font-stretch:normal;font-size:10.0916px;font-family:'Palatino Linotype';writing-mode:lr-tb;fill:#000000;fill-opacity:1;fill-rule:nonzero;stroke:none"
       x="0 6.1659737 9.1026325 13.936513 19.547449 24.38133 30.08309 34.916969 38.903156 44.776474 49.822277 52.758938 56.048801 60.882683"
       y="0"
       sodipodi:role="line"
       id="tspan38">Biegeverhalten</tspan></text>
  <path
     id="path40"
     d="m 348.12061,5.71086 2.97637,0.42519 V 5.28566 l -2.97637,0.4252 m 53.65579,0 -2.97638,0.42519 V 5.28566 l 2.97638,0.4252 m -53.65579,0 v 2.12598 m 0,-2.12598 V 3.58487 m 53.65579,2.12599 v 2.12598 m 0,-2.12598 V 3.58487 M 348.12061,5.71086 V 19.88408 M 401.7764,5.71086 V 19.88408 M 348.12061,5.71086 v 0 m 53.65579,0 v 0 m -53.65579,0 h 53.65579"
     style="fill:none;stroke:#000000;stroke-width:0.3685;stroke-linecap:round;stroke-linejoin:round;stroke-miterlimit:10;stroke-dasharray:none;stroke-opacity:1"
     transform="matrix(1.3333333,0,0,-1.3333333,0,151.18133)" />
  <text
     id="text40"
     xml:space="preserve"
     transform="matrix(1.3333333,0,0,1.3333333,494.10483,135.48464)"
     clip-path="url(#clipPath41)"><tspan
       style="font-style:italic;font-variant:normal;font-weight:normal;font-stretch:normal;font-size:10.0071px;font-family:'Palatino Linotype';writing-mode:lr-tb;fill:#000000;fill-opacity:1;fill-rule:nonzero;stroke:none"
       x="0"
       y="0"
       id="tspan40">l</tspan></text>
  <text
     id="text41"
     xml:space="preserve"
     transform="matrix(1.3333333,0,0,1.3333333,498.09884,140.99645)"
     clip-path="url(#clipPath42)"><tspan
       style="font-style:italic;font-variant:normal;font-weight:normal;font-stretch:normal;font-size:6.00428px;font-family:'Palatino Linotype';writing-mode:lr-tb;fill:#000000;fill-opacity:1;fill-rule:nonzero;stroke:none"
       x="0 3.6686151"
       y="0"
       sodipodi:role="line"
       id="tspan41">El</tspan></text>
  <path
     id="path43"
     d="m 112.34883,24.46677 -19.13338,0.19125 0.22161,22.49376 m 0.01256,1.27553 v 0 m -0.02514,-2.55106 v 0 m -1.26295,1.28809 v 0 m 2.55104,-0.02513 v 0"
     style="fill:none;stroke:#000000;stroke-width:0.3685;stroke-linecap:round;stroke-linejoin:round;stroke-miterlimit:10;stroke-dasharray:none;stroke-opacity:1"
     transform="matrix(1.3333333,0,0,-1.3333333,0,151.18133)" />
  <path
     id="path44"
     d="m 93.44962,48.42731 c -0.70446,0.0069 -1.28115,-0.55851 -1.28809,-1.26297 m 0,0 c -0.0069,-0.70446 0.5585,-1.28115 1.26295,-1.28809 m 0,0 c 0.70446,-0.0069 1.28116,0.5585 1.28811,1.26296 m 0,0 c 0.0069,0.70446 -0.55852,1.28115 -1.26297,1.2881"
     style="fill:none;stroke:#000000;stroke-width:0.3685;stroke-linecap:round;stroke-linejoin:round;stroke-miterlimit:10;stroke-dasharray:none;stroke-opacity:1"
     transform="matrix(1.3333333,0,0,-1.3333333,0,151.18133)" />
  <path
     id="path45"
     d="M 112.34883,9.11243 H 79.84164 V 44.8161 m 0,1.27559 v 0 m 0,-2.55118 v 0 m -1.2756,1.27559 v 0 m 2.55118,0 v 0"
     style="fill:none;stroke:#000000;stroke-width:0.3685;stroke-linecap:round;stroke-linejoin:round;stroke-miterlimit:10;stroke-dasharray:none;stroke-opacity:1"
     transform="matrix(1.3333333,0,0,-1.3333333,0,151.18133)" />
  <path
     id="path46"
     d="m 79.84164,46.09169 c -0.70449,0 -1.2756,-0.57111 -1.2756,-1.27559 m 0,0 c 0,-0.7045 0.57111,-1.27559 1.2756,-1.27559 m 0,0 c 0.70449,0 1.27559,0.57109 1.27559,1.27559 m 0,0 c 0,0.70448 -0.5711,1.27559 -1.27559,1.27559"
     style="fill:none;stroke:#000000;stroke-width:0.3685;stroke-linecap:round;stroke-linejoin:round;stroke-miterlimit:10;stroke-dasharray:none;stroke-opacity:1"
     transform="matrix(1.3333333,0,0,-1.3333333,0,151.18133)" />
  <path
     id="path47"
     d="m 29.02049,47.65074 c 0,1.56554 -1.26912,2.83466 -2.83465,2.83466 m 0,0 c -1.56552,0 -2.83464,-1.26912 -2.83464,-2.83466 m 0,0 c 0,-1.56552 1.26912,-2.83464 2.83464,-2.83464 m 0,0 c 1.56553,0 2.83465,1.26912 2.83465,2.83464"
     style="fill:none;stroke:#000000;stroke-width:0.3685;stroke-linecap:round;stroke-linejoin:round;stroke-miterlimit:10;stroke-dasharray:none;stroke-opacity:1"
     transform="matrix(1.3333333,0,0,-1.3333333,0,151.18133)" />
  <path
     id="path48"
     d="m 404.61105,47.65074 c 0,1.56554 -1.26913,2.83466 -2.83465,2.83466 m 0,0 c -1.56552,0 -2.83466,-1.26912 -2.83466,-2.83466 m 0,0 c 0,-1.56552 1.26914,-2.83464 2.83466,-2.83464 m 0,0 c 1.56552,0 2.83465,1.26912 2.83465,2.83464"
     style="fill:none;stroke:#000000;stroke-width:0.3685;stroke-linecap:round;stroke-linejoin:round;stroke-miterlimit:10;stroke-dasharray:none;stroke-opacity:1"
     transform="matrix(1.3333333,0,0,-1.3333333,0,151.18133)" />
  <path
     id="path49"
     d="m 350.95526,47.65074 c 0,1.56554 -1.26913,2.83466 -2.83465,2.83466 m 0,0 c -1.56553,0 -2.83466,-1.26912 -2.83466,-2.83466 m 0,0 c 0,-1.56552 1.26913,-2.83464 2.83466,-2.83464 m 0,0 c 1.56552,0 2.83465,1.26912 2.83465,2.83464"
     style="fill:none;stroke:#000000;stroke-width:0.3685;stroke-linecap:round;stroke-linejoin:round;stroke-miterlimit:10;stroke-dasharray:none;stroke-opacity:1"
     transform="matrix(1.3333333,0,0,-1.3333333,0,151.18133)" />
  <path
     id="path50"
     d="m 297.29947,47.65074 c 0,1.56554 -1.26914,2.83466 -2.83466,2.83466 m 0,0 c -1.56552,0 -2.83465,-1.26912 -2.83465,-2.83466 m 0,0 c 0,-1.56552 1.26913,-2.83464 2.83465,-2.83464 m 0,0 c 1.56552,0 2.83466,1.26912 2.83466,2.83464"
     style="fill:none;stroke:#000000;stroke-width:0.3685;stroke-linecap:round;stroke-linejoin:round;stroke-miterlimit:10;stroke-dasharray:none;stroke-opacity:1"
     transform="matrix(1.3333333,0,0,-1.3333333,0,151.18133)" />
  <path
     id="path51"
     d="m 243.64368,47.65074 c 0,1.56554 -1.26914,2.83466 -2.83466,2.83466 m 0,0 c -1.56552,0 -2.83465,-1.26912 -2.83465,-2.83466 m 0,0 c 0,-1.56552 1.26913,-2.83464 2.83465,-2.83464 m 0,0 c 1.56552,0 2.83466,1.26912 2.83466,2.83464"
     style="fill:none;stroke:#000000;stroke-width:0.3685;stroke-linecap:round;stroke-linejoin:round;stroke-miterlimit:10;stroke-dasharray:none;stroke-opacity:1"
     transform="matrix(1.3333333,0,0,-1.3333333,0,151.18133)" />
  <path
     id="path52"
     d="m 189.98788,47.65074 c 0,1.56554 -1.26913,2.83466 -2.83465,2.83466 m 0,0 c -1.56552,0 -2.83466,-1.26912 -2.83466,-2.83466 m 0,0 c 0,-1.56552 1.26914,-2.83464 2.83466,-2.83464 m 0,0 c 1.56552,0 2.83465,1.26912 2.83465,2.83464"
     style="fill:none;stroke:#000000;stroke-width:0.3685;stroke-linecap:round;stroke-linejoin:round;stroke-miterlimit:10;stroke-dasharray:none;stroke-opacity:1"
     transform="matrix(1.3333333,0,0,-1.3333333,0,151.18133)" />
  <path
     id="path53"
     d="m 136.33209,47.65074 c 0,1.56554 -1.26913,2.83466 -2.83465,2.83466 m 0,0 c -1.56552,0 -2.83466,-1.26912 -2.83466,-2.83466 m 0,0 c 0,-1.56552 1.26914,-2.83464 2.83466,-2.83464 m 0,0 c 1.56552,0 2.83465,1.26912 2.83465,2.83464"
     style="fill:none;stroke:#000000;stroke-width:0.3685;stroke-linecap:round;stroke-linejoin:round;stroke-miterlimit:10;stroke-dasharray:none;stroke-opacity:1"
     transform="matrix(1.3333333,0,0,-1.3333333,0,151.18133)" />
  <path
     id="path54"
     d="m 82.67628,47.65074 c 0,1.56554 -1.26911,2.83466 -2.83464,2.83466 m 0,0 c -1.56553,0 -2.83465,-1.26912 -2.83465,-2.83466 m 0,0 c 0,-1.56552 1.26912,-2.83464 2.83465,-2.83464 m 0,0 c 1.56553,0 2.83464,1.26912 2.83464,2.83464"
     style="fill:none;stroke:#000000;stroke-width:0.3685;stroke-linecap:round;stroke-linejoin:round;stroke-miterlimit:10;stroke-dasharray:none;stroke-opacity:1"
     transform="matrix(1.3333333,0,0,-1.3333333,0,151.18133)" />
  <text
     id="text54"
     xml:space="preserve"
     transform="matrix(1.3333333,0,0,1.3333333,47.49552,20.760413)"
     clip-path="url(#clipPath55)"><tspan
       style="font-style:italic;font-variant:normal;font-weight:normal;font-stretch:normal;font-size:10.0071px;font-family:'Palatino Linotype';writing-mode:lr-tb;fill:#000000;fill-opacity:1;fill-rule:nonzero;stroke:none"
       x="0"
       y="0"
       id="tspan54">X</tspan></text>
  <text
     id="text55"
     xml:space="preserve"
     transform="matrix(1.3333333,0,0,1.3333333,18.5772,52.759707)"
     clip-path="url(#clipPath56)"><tspan
       style="font-style:italic;font-variant:normal;font-weight:normal;font-stretch:normal;font-size:10.0071px;font-family:'Palatino Linotype';writing-mode:lr-tb;fill:#000000;fill-opacity:1;fill-rule:nonzero;stroke:none"
       x="0"
       y="0"
       id="tspan55">Z</tspan></text>
  <text
     id="text56"
     xml:space="preserve"
     transform="matrix(1.3333333,0,0,1.3333333,9.6854667,11.509147)"
     clip-path="url(#clipPath57)"><tspan
       style="font-style:italic;font-variant:normal;font-weight:normal;font-stretch:normal;font-size:10.0071px;font-family:'Palatino Linotype';writing-mode:lr-tb;fill:#000000;fill-opacity:1;fill-rule:nonzero;stroke:none"
       x="0"
       y="0"
       id="tspan56">Y</tspan></text>
</svg>
