<?xml version="1.0" encoding="UTF-8" standalone="no"?>
<!-- Created with Inkscape (http://www.inkscape.org/) -->

<svg
   version="1.1"
   id="svg1"
   width="566.92932"
   height="151.18134"
   viewBox="0 0 566.92932 151.18134"
   sodipodi:docname="allg_balken_normal.pdf"
   xmlns:inkscape="http://www.inkscape.org/namespaces/inkscape"
   xmlns:sodipodi="http://sodipodi.sourceforge.net/DTD/sodipodi-0.dtd"
   xmlns="http://www.w3.org/2000/svg"
   xmlns:svg="http://www.w3.org/2000/svg">
  <defs
     id="defs1">
    <clipPath
       clipPathUnits="userSpaceOnUse"
       id="clipPath3">
      <path
         d="M -0.00426,-0.00113 V 113.38696 H 425.20111 V -0.00113 H -0.00426"
         transform="matrix(1,0,0,-1,-151.1203,42.252981)"
         clip-rule="evenodd"
         id="path3" />
    </clipPath>
    <clipPath
       clipPathUnits="userSpaceOnUse"
       id="clipPath4">
      <path
         d="M -0.00426,-0.00113 V 113.38696 H 425.20111 V -0.00113 H -0.00426"
         transform="matrix(1,0,0,-1,-159.67449,38.119121)"
         clip-rule="evenodd"
         id="path4" />
    </clipPath>
    <clipPath
       clipPathUnits="userSpaceOnUse"
       id="clipPath5">
      <path
         d="M -0.00426,-0.00113 V 113.38696 H 425.20111 V -0.00113 H -0.00426"
         transform="matrix(1,0,0,-1,-189.92217,44.269851)"
         clip-rule="evenodd"
         id="path5" />
    </clipPath>
    <clipPath
       clipPathUnits="userSpaceOnUse"
       id="clipPath6">
      <path
         d="M -0.00426,-0.00113 V 113.38696 H 425.20111 V -0.00113 H -0.00426"
         transform="matrix(1,0,0,-1,-196.14432,40.135991)"
         clip-rule="evenodd"
         id="path6" />
    </clipPath>
    <clipPath
       clipPathUnits="userSpaceOnUse"
       id="clipPath7">
      <path
         d="M -0.00426,-0.00113 V 113.38696 H 425.20111 V -0.00113 H -0.00426"
         transform="matrix(1,0,0,-1,-201.83358,44.269851)"
         clip-rule="evenodd"
         id="path7" />
    </clipPath>
    <clipPath
       clipPathUnits="userSpaceOnUse"
       id="clipPath8">
      <path
         d="M -0.00426,-0.00113 V 113.38696 H 425.20111 V -0.00113 H -0.00426"
         transform="matrix(1,0,0,-1,-250.21297,38.642411)"
         clip-rule="evenodd"
         id="path8" />
    </clipPath>
    <clipPath
       clipPathUnits="userSpaceOnUse"
       id="clipPath9">
      <path
         d="M -0.00426,-0.00113 V 113.38696 H 425.20111 V -0.00113 H -0.00426"
         transform="matrix(1,0,0,-1,-259.9483,34.508553)"
         clip-rule="evenodd"
         id="path9" />
    </clipPath>
    <clipPath
       clipPathUnits="userSpaceOnUse"
       id="clipPath10">
      <path
         d="M -0.00426,-0.00113 V 113.38696 H 425.20111 V -0.00113 H -0.00426"
         transform="matrix(1,0,0,-1,-192.70186,6.6193227)"
         clip-rule="evenodd"
         id="path10" />
    </clipPath>
    <clipPath
       clipPathUnits="userSpaceOnUse"
       id="clipPath11">
      <path
         d="M -0.00426,-0.00113 V 113.38696 H 425.20111 V -0.00113 H -0.00426"
         transform="matrix(1,0,0,-1,-202.43716,2.4854726)"
         clip-rule="evenodd"
         id="path11" />
    </clipPath>
    <clipPath
       clipPathUnits="userSpaceOnUse"
       id="clipPath12">
      <path
         d="M -0.00426,-0.00113 V 113.38696 H 425.20111 V -0.00113 H -0.00426"
         transform="matrix(1,0,0,-1,-173.27139,64.669041)"
         clip-rule="evenodd"
         id="path12" />
    </clipPath>
  </defs>
  <sodipodi:namedview
     id="namedview1"
     pagecolor="#ffffff"
     bordercolor="#000000"
     borderopacity="0.25"
     inkscape:showpageshadow="2"
     inkscape:pageopacity="0.0"
     inkscape:pagecheckerboard="0"
     inkscape:deskcolor="#d1d1d1">
    <inkscape:page
       x="0"
       y="0"
       inkscape:label="1"
       id="page1"
       width="566.92932"
       height="151.18134"
       margin="0"
       bleed="0" />
  </sodipodi:namedview>
  <g
     id="g1"
     inkscape:groupmode="layer"
     inkscape:label="1">
    <path
       id="path1"
       d="m 208.2132,60.13274 c 0,0.78276 -0.63459,1.41732 -1.41733,1.41732 m 0,0 c -0.78278,0 -1.41733,-0.63456 -1.41733,-1.41732 m 0,0 c 0,-0.78276 0.63455,-1.41733 1.41733,-1.41733 m 0,0 c 0.78274,0 1.41733,0.63457 1.41733,1.41733"
       style="fill:none;stroke:#000000;stroke-width:0.3685;stroke-linecap:round;stroke-linejoin:round;stroke-miterlimit:10;stroke-dasharray:none;stroke-opacity:1"
       transform="matrix(1.3333333,0,0,-1.3333333,0,151.18133)" />
    <path
       id="path2"
       d="m 186.75189,36.93126 1.0564,0.60991 m 1.9639,1.13386 2.45486,1.41732 m 1.9639,1.13386 2.45489,1.41731 m 1.9639,1.13387 2.45487,1.41733 m 1.96389,1.13385 2.4549,1.41733 m 1.9639,1.13385 2.45486,1.41732 m 1.9639,1.13387 2.45486,1.41731 m 1.96393,1.13387 2.45487,1.41731 m 1.96389,1.13386 2.45487,1.41733 m 1.9639,1.13385 2.45489,1.41733 m 1.9639,1.13385 2.45486,1.41733 m 1.9639,1.13386 2.4549,1.41732 m 1.96389,1.13386 2.45487,1.41733 m 1.9639,1.13385 2.45486,1.41733 m 1.96393,1.13385 2.45486,1.41733 m 1.9639,1.13386 2.45486,1.41731 m 1.9639,1.13387 2.4549,1.41731 m 1.9639,1.13387 2.45486,1.41732 m 1.9639,1.13385 2.45486,1.41733 m 1.9639,1.13385 2.45489,1.41733 m 1.9639,1.13387 2.45487,1.41731 m 1.96389,1.13386 2.4549,1.41732 m 1.9639,1.13386 2.45486,1.41733 m 1.9639,1.13385 2.45489,1.41733 m 1.9639,1.13385 2.45487,1.41733 m 1.96389,1.13386 2.45487,1.41731 m 1.9639,1.13387 2.45489,1.41731 m 1.9639,1.13387 2.45486,1.41733 m 1.9639,1.13385 2.4549,1.41732 m 1.96389,1.13385 2.45487,1.41733 m 1.9639,1.13387 1.26037,0.72767 M 186.75189,36.93126 v 0 69.43436 m 40.08795,-92.57915 v 69.43436 l -40.08795,23.14479 m 0,-69.43436 40.08795,-23.14479 m -40.08795,92.57915 12.16135,7.02134 m 80.17587,0 -52.24927,-30.16613 m 0,-69.43436 172.5131,99.60049"
       style="fill:none;stroke:#000000;stroke-width:0.3685;stroke-linecap:round;stroke-linejoin:round;stroke-miterlimit:10;stroke-dasharray:none;stroke-opacity:1"
       transform="matrix(1.3333333,0,0,-1.3333333,0,151.18133)" />
    <text
       id="text2"
       xml:space="preserve"
       transform="matrix(1.3333333,0,0,1.3333333,201.49373,94.844027)"
       clip-path="url(#clipPath3)"><tspan
         style="font-style:italic;font-variant:normal;font-weight:normal;font-stretch:normal;font-size:10.0071px;font-family:'Palatino Linotype';writing-mode:lr-tb;fill:#000000;fill-opacity:1;fill-rule:nonzero;stroke:none"
         x="0"
         y="0"
         id="tspan2">N</tspan></text>
    <text
       id="text3"
       xml:space="preserve"
       transform="matrix(1.3333333,0,0,1.3333333,212.89932,100.35584)"
       clip-path="url(#clipPath4)"><tspan
         style="font-style:italic;font-variant:normal;font-weight:normal;font-stretch:normal;font-size:6.00428px;font-family:'Palatino Linotype';writing-mode:lr-tb;fill:#000000;fill-opacity:1;fill-rule:nonzero;stroke:none"
         x="0"
         y="0"
         id="tspan3">x</tspan></text>
    <text
       id="text4"
       xml:space="preserve"
       transform="matrix(1.3333333,0,0,1.3333333,253.22956,92.154867)"
       clip-path="url(#clipPath5)"><tspan
         style="font-style:italic;font-variant:normal;font-weight:normal;font-stretch:normal;font-size:10.0071px;font-family:'Palatino Linotype';writing-mode:lr-tb;fill:#000000;fill-opacity:1;fill-rule:nonzero;stroke:none"
         x="0"
         y="0"
         id="tspan4">σ</tspan></text>
    <text
       id="text5"
       xml:space="preserve"
       transform="matrix(1.3333333,0,0,1.3333333,261.52576,97.66668)"
       clip-path="url(#clipPath6)"><tspan
         style="font-style:italic;font-variant:normal;font-weight:normal;font-stretch:normal;font-size:6.00428px;font-family:'Palatino Linotype';writing-mode:lr-tb;fill:#000000;fill-opacity:1;fill-rule:nonzero;stroke:none"
         x="0"
         y="0"
         id="tspan5">x</tspan></text>
    <text
       id="text6"
       xml:space="preserve"
       transform="matrix(1.3333333,0,0,1.3333333,269.11143,92.154867)"
       clip-path="url(#clipPath7)"><tspan
         style="font-style:italic;font-variant:normal;font-weight:normal;font-stretch:normal;font-size:10.0071px;font-family:'Palatino Linotype';writing-mode:lr-tb;fill:#000000;fill-opacity:1;fill-rule:nonzero;stroke:none"
         x="0 5.0035648"
         y="0"
         sodipodi:role="line"
         id="tspan6">dA</tspan></text>
    <text
       id="text7"
       xml:space="preserve"
       transform="matrix(1.3333333,0,0,1.3333333,333.61729,99.65812)"
       clip-path="url(#clipPath8)"><tspan
         style="font-style:italic;font-variant:normal;font-weight:normal;font-stretch:normal;font-size:10.0071px;font-family:'Palatino Linotype';writing-mode:lr-tb;fill:#000000;fill-opacity:1;fill-rule:nonzero;stroke:none"
         x="0"
         y="0"
         id="tspan7">M</tspan></text>
    <text
       id="text8"
       xml:space="preserve"
       transform="matrix(1.3333333,0,0,1.3333333,346.59772,105.16993)"
       clip-path="url(#clipPath9)"><tspan
         style="font-style:italic;font-variant:normal;font-weight:normal;font-stretch:normal;font-size:6.00428px;font-family:'Palatino Linotype';writing-mode:lr-tb;fill:#000000;fill-opacity:1;fill-rule:nonzero;stroke:none"
         x="0"
         y="0"
         id="tspan8">y</tspan></text>
    <text
       id="text9"
       xml:space="preserve"
       transform="matrix(1.3333333,0,0,1.3333333,256.93581,142.35557)"
       clip-path="url(#clipPath10)"><tspan
         style="font-style:italic;font-variant:normal;font-weight:normal;font-stretch:normal;font-size:10.0071px;font-family:'Palatino Linotype';writing-mode:lr-tb;fill:#000000;fill-opacity:1;fill-rule:nonzero;stroke:none"
         x="0"
         y="0"
         id="tspan9">M</tspan></text>
    <text
       id="text10"
       xml:space="preserve"
       transform="matrix(1.3333333,0,0,1.3333333,269.9162,147.86737)"
       clip-path="url(#clipPath11)"><tspan
         style="font-style:italic;font-variant:normal;font-weight:normal;font-stretch:normal;font-size:6.00428px;font-family:'Palatino Linotype';writing-mode:lr-tb;fill:#000000;fill-opacity:1;fill-rule:nonzero;stroke:none"
         x="0"
         y="0"
         id="tspan10">z</tspan></text>
    <text
       id="text11"
       xml:space="preserve"
       transform="matrix(1.3333333,0,0,1.3333333,231.02852,64.955947)"
       clip-path="url(#clipPath12)"><tspan
         style="font-style:italic;font-variant:normal;font-weight:normal;font-stretch:normal;font-size:8.0057px;font-family:'Palatino Linotype';writing-mode:lr-tb;fill:#000000;fill-opacity:1;fill-rule:nonzero;stroke:none"
         x="0 4.0028501"
         y="0"
         sodipodi:role="line"
         id="tspan11">dA</tspan></text>
    <path
       id="path13"
       d="m 184.70447,67.31471 h 11.27096 V 58.39484 M 180.2746,44.82068 161.06888,33.73224 m 5.15521,2.97638 0.36826,0.2126 m -5.52347,-3.18898 v 0 l 5.58041,2.23991 -0.85037,1.47292 -4.73004,-3.71283"
       style="fill:none;stroke:#000000;stroke-width:0.3685;stroke-linecap:round;stroke-linejoin:round;stroke-miterlimit:10;stroke-dasharray:none;stroke-opacity:1"
       transform="matrix(1.3333333,0,0,-1.3333333,0,151.18133)" />
    <path
       id="path14"
       d="m 165.79892,37.44507 -4.73004,-3.71283 5.58041,2.23991 z"
       style="fill:#000000;fill-opacity:1;fill-rule:nonzero;stroke:none"
       transform="matrix(1.3333333,0,0,-1.3333333,0,151.18133)" />
    <path
       id="path15"
       d="m 194.01151,59.5287 v -5.38583 m 0,5.38583 3.92782,-2.26771 v -5.38584 m -3.92782,2.26772 3.92782,-2.26772 m -1.9639,3.82677 -9.60287,-5.54421 m 5.15524,2.97637 0.36823,0.2126 m -5.52347,-3.18897 v 0 l 5.58044,2.23992 -0.8504,1.47291 -4.73004,-3.71283"
       style="fill:none;stroke:#000000;stroke-width:0.3685;stroke-linecap:round;stroke-linejoin:round;stroke-miterlimit:10;stroke-dasharray:none;stroke-opacity:1"
       transform="matrix(1.3333333,0,0,-1.3333333,0,151.18133)" />
    <path
       id="path16"
       d="m 191.1026,53.87054 -4.73004,-3.71283 5.58044,2.23992 z"
       style="fill:#000000;fill-opacity:1;fill-rule:nonzero;stroke:none"
       transform="matrix(1.3333333,0,0,-1.3333333,0,151.18133)" />
    <path
       id="path17"
       d="M 230.42038,46.49312 249.6261,35.40468 m -5.15524,2.97638 -0.36823,0.2126 m 5.52347,-3.18898 v 0 l -4.73004,3.71284 -0.85038,-1.47291 5.58042,-2.23993"
       style="fill:none;stroke:#000000;stroke-width:0.3685;stroke-linecap:round;stroke-linejoin:round;stroke-miterlimit:10;stroke-dasharray:none;stroke-opacity:1"
       transform="matrix(1.3333333,0,0,-1.3333333,0,151.18133)" />
    <path
       id="path18"
       d="m 244.04568,37.64461 5.58042,-2.23993 -4.73004,3.71284 z"
       style="fill:#000000;fill-opacity:1;fill-rule:nonzero;stroke:none"
       transform="matrix(1.3333333,0,0,-1.3333333,0,151.18133)" />
    <path
       id="path19"
       d="m 232.62976,45.21753 11.8411,-6.83647 m -5.15522,2.97638 -0.36825,0.2126 m 5.52347,-3.18898 v 0 l -4.73005,3.71284 -0.85037,-1.47291 5.58042,-2.23993"
       style="fill:none;stroke:#000000;stroke-width:0.3685;stroke-linecap:round;stroke-linejoin:round;stroke-miterlimit:10;stroke-dasharray:none;stroke-opacity:1"
       transform="matrix(1.3333333,0,0,-1.3333333,0,151.18133)" />
    <path
       id="path20"
       d="m 238.89044,40.62099 5.58042,-2.23993 -4.73005,3.71284 z"
       style="fill:#000000;fill-opacity:1;fill-rule:nonzero;stroke:none"
       transform="matrix(1.3333333,0,0,-1.3333333,0,151.18133)" />
    <path
       id="path21"
       d="M 206.79587,32.4467 V 10.26984 m 0,5.95276 v 0.42518 m 0,-6.37794 v 0 l 0.8504,5.95276 h -1.7008 l 0.8504,-5.95276"
       style="fill:none;stroke:#000000;stroke-width:0.3685;stroke-linecap:round;stroke-linejoin:round;stroke-miterlimit:10;stroke-dasharray:none;stroke-opacity:1"
       transform="matrix(1.3333333,0,0,-1.3333333,0,151.18133)" />
    <path
       id="path22"
       d="m 205.94547,16.2226 0.8504,-5.95276 0.8504,5.95276 z"
       style="fill:#000000;fill-opacity:1;fill-rule:nonzero;stroke:none"
       transform="matrix(1.3333333,0,0,-1.3333333,0,151.18133)" />
    <path
       id="path23"
       d="M 206.79587,30.46245 V 16.2226 m 0,5.95275 v 0.42519 m 0,-6.37794 v 0 l 0.8504,5.95275 h -1.7008 l 0.8504,-5.95275"
       style="fill:none;stroke:#000000;stroke-width:0.3685;stroke-linecap:round;stroke-linejoin:round;stroke-miterlimit:10;stroke-dasharray:none;stroke-opacity:1"
       transform="matrix(1.3333333,0,0,-1.3333333,0,151.18133)" />
    <path
       id="path24"
       d="m 205.94547,22.17535 0.8504,-5.95275 0.8504,5.95275 z"
       style="fill:#000000;fill-opacity:1;fill-rule:nonzero;stroke:none"
       transform="matrix(1.3333333,0,0,-1.3333333,0,151.18133)" />
  </g>
</svg>
