<?xml version="1.0" encoding="UTF-8" standalone="no"?>
<!-- Created with Inkscape (http://www.inkscape.org/) -->

<svg
   version="1.1"
   id="svg1"
   width="566.92932"
   height="139.84267"
   viewBox="0 0 566.92932 139.84267"
   sodipodi:docname="allg_faktor_drill.pdf"
   xmlns:inkscape="http://www.inkscape.org/namespaces/inkscape"
   xmlns:sodipodi="http://sodipodi.sourceforge.net/DTD/sodipodi-0.dtd"
   xmlns="http://www.w3.org/2000/svg"
   xmlns:svg="http://www.w3.org/2000/svg">
  <defs
     id="defs1">
    <clipPath
       clipPathUnits="userSpaceOnUse"
       id="clipPath7">
      <path
         d="M 377.99442,104.8819 H 17.00787 V 0.19855 H 377.99442 V 104.8819"
         transform="matrix(1,0,0,-1,-123.92697,2.1984126)"
         clip-rule="evenodd"
         id="path7" />
    </clipPath>
    <clipPath
       clipPathUnits="userSpaceOnUse"
       id="clipPath8">
      <path
         d="M 377.99442,104.8819 H 17.00787 V 0.19855 H 377.99442 V 104.8819"
         transform="matrix(1,0,0,-1,-254.0653,2.0275926)"
         clip-rule="evenodd"
         id="path8" />
    </clipPath>
    <clipPath
       clipPathUnits="userSpaceOnUse"
       id="clipPath9">
      <path
         d="M 377.99442,104.8819 H 17.00787 V 0.19855 H 377.99442 V 104.8819"
         transform="matrix(1,0,0,-1,-49.026441,95.793673)"
         clip-rule="evenodd"
         id="path9" />
    </clipPath>
    <clipPath
       clipPathUnits="userSpaceOnUse"
       id="clipPath10">
      <path
         d="M 377.99442,104.8819 H 17.00787 V 0.19855 H 377.99442 V 104.8819"
         transform="matrix(1,0,0,-1,-179.16477,95.622862)"
         clip-rule="evenodd"
         id="path10" />
    </clipPath>
    <clipPath
       clipPathUnits="userSpaceOnUse"
       id="clipPath11">
      <path
         d="M 377.99442,104.8819 H 17.00787 V 0.19855 H 377.99442 V 104.8819"
         transform="matrix(1,0,0,-1,-302.30178,95.622862)"
         clip-rule="evenodd"
         id="path11" />
    </clipPath>
  </defs>
  <sodipodi:namedview
     id="namedview1"
     pagecolor="#ffffff"
     bordercolor="#000000"
     borderopacity="0.25"
     inkscape:showpageshadow="2"
     inkscape:pageopacity="0.0"
     inkscape:pagecheckerboard="0"
     inkscape:deskcolor="#d1d1d1">
    <inkscape:page
       x="0"
       y="0"
       inkscape:label="1"
       id="page1"
       width="566.92932"
       height="139.84267"
       margin="0"
       bleed="0" />
  </sodipodi:namedview>
  <g
     id="g1"
     inkscape:groupmode="layer"
     inkscape:label="1">
    <path
       id="path1"
       d="m 255.69989,62.20575 v -7.08661 m 3.75507,10.89038 v -7.08661 m -45.85373,-7.56933 v -7.08663 m -7.14899,7.94226 V 45.1226 m 7.14899,6.23098 -7.14899,0.85563 m 0,-7.08661 7.14899,-0.85565 m 42.09866,10.85219 3.75507,3.80377 m -3.75507,3.28284 3.75507,3.80377 m -67.042,3.77084 v -7.0866 m 0,7.0866 3.75507,3.80378 m 59.53186,-18.465 -28.06897,3.35948 m -14.02969,-7.12504 14.02969,14.21167 m -7.14899,0.85563 -28.06897,3.35948 m 21.81235,-9.69726 -21.81235,2.61066 m 53.00272,20.88693 v -7.08663 m 0,7.08663 -7.14899,0.85564 m -31.81445,-32.22712 14.02969,14.21167 m 35.21796,-4.21513 -28.06897,3.3595 m -14.02969,-21.2983 14.02969,14.21167 m 3.75507,10.8904 14.02969,14.21167 M 224.237,70.22466 238.26669,84.43633 m 21.18827,-18.42681 -28.06897,3.3595 m -7.19199,0.81207 -28.02597,3.35434 m 41.47458,-4.91525 7.77307,7.87388 M 48.24493,55.73952 v -7.08663 m 63.28693,-0.48799 v -7.08662 m 31.81445,39.31373 V 73.30539 M 111.53186,41.07828 143.34631,73.30539 M 111.53186,41.07828 48.24493,48.65289 m 63.28693,-0.48799 -63.28693,7.57462 m 63.28693,-7.57462 31.81445,32.22711 M 48.24493,55.73952 80.05939,87.96663 m 63.28692,-7.57462 -63.28692,7.57462 M 52.43616,51.69456 55.25072,51.35771 m 4.78476,-0.57268 2.81456,-0.33686 m 4.78474,-0.57267 2.81456,-0.33686 m 4.78475,-0.57268 2.81456,-0.33687 m 4.78474,-0.57266 2.81456,-0.33687 m 4.78476,-0.57268 2.81454,-0.33687 m 4.78476,-0.57266 2.81456,-0.33687 m 4.78475,-0.57268 2.81456,-0.33686 m -58.54282,7.00682 0.28146,-0.03369 m 7.31785,-0.87586 0.28146,-0.03369 m 7.31785,-0.87584 0.28145,-0.03369 m 7.31786,-0.87586 0.28145,-0.03367 m 7.31785,-0.87586 0.28145,-0.03369 m 7.31786,-0.87585 0.28146,-0.03368 m 7.31784,-0.87585 0.28146,-0.03369 m 7.31785,-0.87586 0.28146,-0.03367 m 7.31786,-0.87586 0.28144,-0.03369"
       style="fill:none;stroke:#000000;stroke-width:0.3685;stroke-linecap:round;stroke-linejoin:round;stroke-miterlimit:10;stroke-dasharray:none;stroke-opacity:1"
       transform="matrix(1.3333333,0,0,-1.3333333,0,139.84267)" />
    <path
       id="path2"
       d="m 48.24493,52.19621 v 0 m 63.28693,-7.57461 v 0 m 3.2971,3.33986 1.99144,2.01725 m 3.38544,3.42937 1.99144,2.01727 m 3.38545,3.42936 1.99144,2.01727 m 3.38546,3.42937 1.99145,2.01727 m 3.38544,3.42935 1.99145,2.01727 m 3.38544,3.42937 1.6329,1.65408 m -30.30964,-30.70279 0.19914,0.20173 m 5.17773,5.2449 0.19916,0.20174 m 5.17774,5.2449 0.19914,0.20172 m 5.17775,5.2449 0.19916,0.20174 m 5.17773,5.2449 0.19916,0.20173 m 5.17773,5.2449 0.19916,0.20174 M 111.53186,44.6216 v 0 m 31.81445,32.22709 v 0 m -57.58819,-41.34246 7.45765,-4.04796 7.45688,-3.91942 7.45533,-3.66234 7.453,-3.27676 3.72539,-1.4536 3.72451,-1.30902 3.72355,-1.14835 3.72247,-0.9716 3.72131,-0.77883 3.72006,-0.56994 3.71869,-0.34502 3.71726,-0.10402 3.7189,0.14794 3.71747,0.38934 3.71609,0.61465 3.71482,0.82389 3.71368,1.01701 3.71259,1.19405 3.71164,1.35498 3.71072,1.49983 7.41928,3.36984 7.41693,3.75609 7.41541,4.01361 7.41461,4.14235 m -5.19034,-2.91476 -0.37073,-0.20821 m 5.56107,3.12297 v 0 l -5.60672,-2.17329 0.83279,-1.48294 4.77393,3.65623"
       style="fill:none;stroke:#000000;stroke-width:0.3685;stroke-linecap:round;stroke-linejoin:round;stroke-miterlimit:10;stroke-dasharray:none;stroke-opacity:1"
       transform="matrix(1.3333333,0,0,-1.3333333,0,139.84267)" />
    <path
       id="path3"
       d="m 199.96243,32.58672 4.77393,3.65623 -5.60672,-2.17329 z"
       style="fill:#000000;fill-opacity:1;fill-rule:nonzero;stroke:none"
       transform="matrix(1.3333333,0,0,-1.3333333,0,139.84267)" />
    <path
       id="path4"
       d="m 215.89645,35.3354 7.45765,-4.04794 7.45687,-3.91942 7.45536,-3.66235 7.453,-3.27675 3.72537,-1.45361 3.72452,-1.30901 3.72354,-1.14835 3.72247,-0.97161 3.72132,-0.77881 3.72006,-0.56995 3.71869,-0.34502 3.71725,-0.10401 3.71891,0.14791 3.71743,0.38935 3.7161,0.61465 3.71484,0.82389 3.71366,1.01701 3.71261,1.19404 3.71161,1.355 3.71076,1.49983 7.41928,3.36983 7.41693,3.7561 7.41537,4.0136 7.41461,4.14236 m -5.1903,-2.91478 -0.37073,-0.20819 m 5.56103,3.12297 v 0 l -5.60669,-2.17329 0.83277,-1.48294 4.77392,3.65623"
       style="fill:none;stroke:#000000;stroke-width:0.3685;stroke-linecap:round;stroke-linejoin:round;stroke-miterlimit:10;stroke-dasharray:none;stroke-opacity:1"
       transform="matrix(1.3333333,0,0,-1.3333333,0,139.84267)" />
    <path
       id="path5"
       d="m 330.10074,32.41591 4.77392,3.65623 -5.60669,-2.17329 z"
       style="fill:#000000;fill-opacity:1;fill-rule:nonzero;stroke:none"
       transform="matrix(1.3333333,0,0,-1.3333333,0,139.84267)" />
    <path
       id="path6"
       d="m 331.45386,52.94208 0.4852,0.28012 m 1.96389,1.13385 2.45487,1.41733 m 1.9639,1.13385 2.45486,1.41732 m 1.96393,1.13387 2.45486,1.41731 m 1.9639,1.13387 2.45487,1.41731 m 1.96389,1.13387 2.4549,1.41732 m 1.9639,1.13385 2.45486,1.41733 m 1.9639,1.13387 2.45489,1.41731 m 1.9639,1.13386 2.45487,1.41732 m 1.96389,1.13386 2.45487,1.41733 m 1.96393,1.13385 2.45486,1.41733 M 331.45386,52.94208 v 0 34.71718 m 20.04397,-46.28957 v 34.71718 l -20.04397,11.57239 m 0,-34.71718 20.04397,-11.57239 m -20.04397,46.28957 29.8305,17.22264 M 377.99442,91.38466 351.49783,76.08687 m 0,-34.71718 26.49659,15.29779"
       style="fill:none;stroke:#000000;stroke-width:0.3685;stroke-linecap:round;stroke-linejoin:round;stroke-miterlimit:10;stroke-dasharray:none;stroke-opacity:1"
       transform="matrix(1.3333333,0,0,-1.3333333,0,139.84267)" />
    <text
       id="text6"
       xml:space="preserve"
       transform="matrix(1.3333333,0,0,1.3333333,165.23596,136.91145)"
       clip-path="url(#clipPath7)"><tspan
         style="font-variant:normal;font-weight:normal;font-stretch:normal;font-size:10.0916px;font-family:'Palatino Linotype';writing-mode:lr-tb;fill:#000000;fill-opacity:1;fill-rule:nonzero;stroke:none"
         x="0 5.6109352 10.65674 16.267675 19.557541 25.067558 29.053745 31.576647"
         y="0"
         sodipodi:role="line"
         id="tspan6">Faktor 2</tspan></text>
    <text
       id="text7"
       xml:space="preserve"
       transform="matrix(1.3333333,0,0,1.3333333,338.75373,137.13921)"
       clip-path="url(#clipPath8)"><tspan
         style="font-variant:normal;font-weight:normal;font-stretch:normal;font-size:10.0916px;font-family:'Palatino Linotype';writing-mode:lr-tb;fill:#000000;fill-opacity:1;fill-rule:nonzero;stroke:none"
         x="0 5.6109352 10.65674 16.267675 19.557541 25.067558 29.053745 31.576647"
         y="0"
         sodipodi:role="line"
         id="tspan7">Faktor 2</tspan></text>
    <text
       id="text8"
       xml:space="preserve"
       transform="matrix(1.3333333,0,0,1.3333333,65.368587,12.117773)"
       clip-path="url(#clipPath9)"><tspan
         style="font-variant:normal;font-weight:normal;font-stretch:normal;font-size:10.0916px;font-family:'Palatino Linotype';writing-mode:lr-tb;fill:#000000;fill-opacity:1;fill-rule:nonzero;stroke:none"
         x="0 6.0953326 9.031991 14.077796 17.367661 20.657526"
         y="0"
         sodipodi:role="line"
         id="tspan8">Platte</tspan></text>
    <text
       id="text9"
       xml:space="preserve"
       transform="matrix(1.3333333,0,0,1.3333333,238.88636,12.34552)"
       clip-path="url(#clipPath10)"><tspan
         style="font-variant:normal;font-weight:normal;font-stretch:normal;font-size:10.0916px;font-family:'Palatino Linotype';writing-mode:lr-tb;fill:#000000;fill-opacity:1;fill-rule:nonzero;stroke:none"
         x="0 6.1861567 10.172343 15.218148 20.829082 25.662964 29.649151 33.635338 39.145355 43.424198"
         y="0"
         sodipodi:role="line"
         id="tspan9">Trägerrost</tspan></text>
    <text
       id="text10"
       xml:space="preserve"
       transform="matrix(1.3333333,0,0,1.3333333,403.06903,12.34552)"
       clip-path="url(#clipPath11)"><tspan
         style="font-variant:normal;font-weight:normal;font-stretch:normal;font-size:10.0916px;font-family:'Palatino Linotype';writing-mode:lr-tb;fill:#000000;fill-opacity:1;fill-rule:nonzero;stroke:none"
         x="0 6.1659737 11.211779 14.148438 19.759373 24.593254"
         y="0"
         sodipodi:role="line"
         id="tspan10">Balken</tspan></text>
  </g>
</svg>
