<?xml version="1.0" encoding="UTF-8" standalone="no"?>
<!-- Created with Inkscape (http://www.inkscape.org/) -->

<svg
   version="1.1"
   id="svg1"
   width="566.92932"
   height="268.34668"
   viewBox="0 0 566.92932 268.34668"
   sodipodi:docname="allg_platte_kin.pdf"
   xmlns:inkscape="http://www.inkscape.org/namespaces/inkscape"
   xmlns:sodipodi="http://sodipodi.sourceforge.net/DTD/sodipodi-0.dtd"
   xmlns="http://www.w3.org/2000/svg"
   xmlns:svg="http://www.w3.org/2000/svg">
  <defs
     id="defs1">
    <clipPath
       clipPathUnits="userSpaceOnUse"
       id="clipPath3">
      <path
         d="M -0.00426,-0.00201 V 201.26187 H 425.20111 V -0.00201 H -0.00426"
         transform="matrix(1,0,0,-1,-291.90433,61.164014)"
         clip-rule="evenodd"
         id="path3" />
    </clipPath>
    <clipPath
       clipPathUnits="userSpaceOnUse"
       id="clipPath4">
      <path
         d="M -0.00426,-0.00201 V 201.26187 H 425.20111 V -0.00201 H -0.00426"
         transform="matrix(1,0,0,-1,-298.02091,57.030149)"
         clip-rule="evenodd"
         id="path4" />
    </clipPath>
    <clipPath
       clipPathUnits="userSpaceOnUse"
       id="clipPath5">
      <path
         d="M -0.00426,-0.00201 V 201.26187 H 425.20111 V -0.00201 H -0.00426"
         transform="matrix(1,0,0,-1,-323.56511,51.824084)"
         clip-rule="evenodd"
         id="path5" />
    </clipPath>
    <clipPath
       clipPathUnits="userSpaceOnUse"
       id="clipPath6">
      <path
         d="M -0.00426,-0.00201 V 201.26187 H 425.20111 V -0.00201 H -0.00426"
         transform="matrix(1,0,0,-1,-329.50077,47.690219)"
         clip-rule="evenodd"
         id="path6" />
    </clipPath>
    <clipPath
       clipPathUnits="userSpaceOnUse"
       id="clipPath7">
      <path
         d="M -0.00426,-0.00201 V 201.26187 H 425.20111 V -0.00201 H -0.00426"
         transform="matrix(1,0,0,-1,-362.82447,20.479911)"
         clip-rule="evenodd"
         id="path7" />
    </clipPath>
    <clipPath
       clipPathUnits="userSpaceOnUse"
       id="clipPath8">
      <path
         d="M -0.00426,-0.00201 V 201.26187 H 425.20111 V -0.00201 H -0.00426"
         transform="matrix(1,0,0,-1,-368.76014,16.346053)"
         clip-rule="evenodd"
         id="path8" />
    </clipPath>
    <clipPath
       clipPathUnits="userSpaceOnUse"
       id="clipPath9">
      <path
         d="M -0.00426,-0.00201 V 201.26187 H 425.20111 V -0.00201 H -0.00426"
         transform="matrix(1,0,0,-1,-365.67393,54.305481)"
         clip-rule="evenodd"
         id="path9" />
    </clipPath>
    <clipPath
       clipPathUnits="userSpaceOnUse"
       id="clipPath10">
      <path
         d="M -0.00426,-0.00201 V 201.26187 H 425.20111 V -0.00201 H -0.00426"
         transform="matrix(1,0,0,-1,-370.62954,50.171624)"
         clip-rule="evenodd"
         id="path10" />
    </clipPath>
    <clipPath
       clipPathUnits="userSpaceOnUse"
       id="clipPath11">
      <path
         d="M -0.00426,-0.00201 V 201.26187 H 425.20111 V -0.00201 H -0.00426"
         transform="matrix(1,0,0,-1,-50.569402,56.690721)"
         clip-rule="evenodd"
         id="path11" />
    </clipPath>
    <clipPath
       clipPathUnits="userSpaceOnUse"
       id="clipPath12">
      <path
         d="M -0.00426,-0.00201 V 201.26187 H 425.20111 V -0.00201 H -0.00426"
         transform="matrix(1,0,0,-1,-55.525012,52.556864)"
         clip-rule="evenodd"
         id="path12" />
    </clipPath>
    <clipPath
       clipPathUnits="userSpaceOnUse"
       id="clipPath13">
      <path
         d="M -0.00426,-0.00201 V 201.26187 H 425.20111 V -0.00201 H -0.00426"
         transform="matrix(1,0,0,-1,-50.088761,20.479911)"
         clip-rule="evenodd"
         id="path13" />
    </clipPath>
    <clipPath
       clipPathUnits="userSpaceOnUse"
       id="clipPath14">
      <path
         d="M -0.00426,-0.00201 V 201.26187 H 425.20111 V -0.00201 H -0.00426"
         transform="matrix(1,0,0,-1,-56.024422,16.346053)"
         clip-rule="evenodd"
         id="path14" />
    </clipPath>
    <clipPath
       clipPathUnits="userSpaceOnUse"
       id="clipPath15">
      <path
         d="M -0.00426,-0.00201 V 201.26187 H 425.20111 V -0.00201 H -0.00426"
         transform="matrix(1,0,0,-1,-89.111905,51.824084)"
         clip-rule="evenodd"
         id="path15" />
    </clipPath>
    <clipPath
       clipPathUnits="userSpaceOnUse"
       id="clipPath16">
      <path
         d="M -0.00426,-0.00201 V 201.26187 H 425.20111 V -0.00201 H -0.00426"
         transform="matrix(1,0,0,-1,-95.04757,47.690219)"
         clip-rule="evenodd"
         id="path16" />
    </clipPath>
    <clipPath
       clipPathUnits="userSpaceOnUse"
       id="clipPath17">
      <path
         d="M -0.00426,-0.00201 V 201.26187 H 425.20111 V -0.00201 H -0.00426"
         transform="matrix(1,0,0,-1,-122.2402,59.460284)"
         clip-rule="evenodd"
         id="path17" />
    </clipPath>
    <clipPath
       clipPathUnits="userSpaceOnUse"
       id="clipPath18">
      <path
         d="M -0.00426,-0.00201 V 201.26187 H 425.20111 V -0.00201 H -0.00426"
         transform="matrix(1,0,0,-1,-128.35681,55.326419)"
         clip-rule="evenodd"
         id="path18" />
    </clipPath>
    <clipPath
       clipPathUnits="userSpaceOnUse"
       id="clipPath19">
      <path
         d="M -0.00426,-0.00201 V 201.26187 H 425.20111 V -0.00201 H -0.00426"
         transform="matrix(1,0,0,-1,-215.21038,148.06746)"
         clip-rule="evenodd"
         id="path19" />
    </clipPath>
    <clipPath
       clipPathUnits="userSpaceOnUse"
       id="clipPath20">
      <path
         d="M -0.00426,-0.00201 V 201.26187 H 425.20111 V -0.00201 H -0.00426"
         transform="matrix(1,0,0,-1,-232.39098,165.06198)"
         clip-rule="evenodd"
         id="path20" />
    </clipPath>
    <clipPath
       clipPathUnits="userSpaceOnUse"
       id="clipPath21">
      <path
         d="M -0.00426,-0.00201 V 201.26187 H 425.20111 V -0.00201 H -0.00426"
         transform="matrix(1,0,0,-1,-188.98645,167.71107)"
         clip-rule="evenodd"
         id="path21" />
    </clipPath>
  </defs>
  <sodipodi:namedview
     id="namedview1"
     pagecolor="#ffffff"
     bordercolor="#000000"
     borderopacity="0.25"
     inkscape:showpageshadow="2"
     inkscape:pageopacity="0.0"
     inkscape:pagecheckerboard="0"
     inkscape:deskcolor="#d1d1d1">
    <inkscape:page
       x="0"
       y="0"
       inkscape:label="1"
       id="page1"
       width="566.92932"
       height="268.34668"
       margin="0"
       bleed="0" />
  </sodipodi:namedview>
  <g
     id="g1"
     inkscape:groupmode="layer"
     inkscape:label="1">
    <path
       id="path1"
       d="m 212.59836,149.71121 v 1.09195 m 0,2.2677 v 2.83466 m 0,2.26773 v 2.83462 m 0,2.26773 v 2.83463 m 0,2.26773 v 2.83466 m 0,2.2677 v 2.83465 m 0,2.2677 v 2.83466 m 0,2.26773 v 2.83462 m 0,2.26773 v 2.83463 m 0,2.26773 v 2.11102 m 0,-46.28958 v 0 m 0,46.28958 v 0 M 112.37848,91.84924 l 2.12483,1.22678 m 1.96391,1.13386 2.45487,1.41732 m 1.9639,1.13386 2.45488,1.41733 m 1.96389,1.13385 2.45488,1.41733 m 1.9639,1.13385 2.4549,1.41733 m 1.96389,1.13386 2.45487,1.41731 m 1.9639,1.13387 2.45486,1.41731 m 1.9639,1.13387 2.45489,1.41733 m 1.9639,1.13385 2.45487,1.41732 m 1.96389,1.13385 2.4549,1.41733 m 1.9639,1.13387 2.45486,1.41731 m 1.9639,1.13386 2.45489,1.41732 m 1.9639,1.13386 2.45487,1.41733 m 1.96389,1.13385 2.45487,1.41733 m 1.9639,1.13385 2.45489,1.41734 m 1.9639,1.13385 2.45486,1.41733 m 1.9639,1.13385 2.4549,1.41733 m 1.96389,1.13385 2.45487,1.41733 m 1.9639,1.13385 2.45489,1.41732 m 1.9639,1.13385 2.45486,1.41733 m 1.9639,1.13385 2.45486,1.41733 m 1.9639,1.13388 2.4549,1.4173 m 1.9639,1.13388 2.45486,1.4173 M 112.37848,91.84924 v 0 m 100.21988,57.86197 v 0 l 0.62726,-0.36215 m 1.96389,-1.13385 2.45487,-1.41733 m 1.9639,-1.13385 2.45486,-1.41733 m 1.9639,-1.13385 2.45489,-1.41732 m 1.9639,-1.13385 2.45487,-1.41733 m 1.96389,-1.13385 2.4549,-1.41733 m 1.9639,-1.13388 2.45486,-1.4173 m 1.9639,-1.13388 2.45489,-1.4173 m 1.9639,-1.13388 2.45487,-1.41732 m 1.96389,-1.13385 2.45487,-1.41733 m 1.9639,-1.13385 2.45489,-1.41733 m 1.9639,-1.13385 2.45486,-1.41733 m 1.9639,-1.13386 2.45487,-1.41732"
       style="fill:none;stroke:#000000;stroke-width:0.3685;stroke-linecap:round;stroke-linejoin:round;stroke-miterlimit:10;stroke-dasharray:none;stroke-opacity:1"
       transform="matrix(1.3333333,0,0,-1.3333333,0,268.34667)" />
    <path
       id="path2"
       d="m 268.21481,117.60103 2.45487,-1.41731 m 1.9639,-1.13387 2.45486,-1.41733 m 1.9639,-1.13385 2.45489,-1.41733 m 1.9639,-1.13385 2.45486,-1.41732 m 1.9639,-1.13387 2.4549,-1.41731 m 1.9639,-1.13387 2.45486,-1.41731 m 1.9639,-1.13386 2.45486,-1.41733 m 1.96393,-1.13385 2.45486,-1.41733 m 1.9639,-1.13385 2.45487,-1.41733 m 1.96389,-1.13386 2.4549,-1.41732 m 1.9639,-1.13386 0.41565,-0.23998 m -100.21985,57.86197 v 0 M 312.81821,91.84924 v 0 m -200.43973,0 v 46.28958 M 212.59836,33.98729 v 46.28957 l -100.21988,57.86196 100.21988,57.86197 M 112.37848,91.84924 212.59836,33.98729 m 100.21985,57.86195 v 46.28958 L 212.59836,80.27686 m 0,115.72393 100.21985,-57.86197 M 212.59836,33.98729 312.81821,91.84924"
       style="fill:none;stroke:#000000;stroke-width:0.3685;stroke-linecap:round;stroke-linejoin:round;stroke-miterlimit:10;stroke-dasharray:none;stroke-opacity:1"
       transform="matrix(1.3333333,0,0,-1.3333333,0,268.34667)" />
    <text
       id="text2"
       xml:space="preserve"
       transform="matrix(1.3333333,0,0,1.3333333,389.20576,186.79465)"
       clip-path="url(#clipPath3)"><tspan
         style="font-style:italic;font-variant:normal;font-weight:normal;font-stretch:normal;font-size:10.0071px;font-family:'Palatino Linotype';writing-mode:lr-tb;fill:#000000;fill-opacity:1;fill-rule:nonzero;stroke:none"
         x="0"
         y="0"
         id="tspan2">γ</tspan></text>
    <text
       id="text3"
       xml:space="preserve"
       transform="matrix(1.3333333,0,0,1.3333333,397.36121,192.30647)"
       clip-path="url(#clipPath4)"><tspan
         style="font-style:italic;font-variant:normal;font-weight:normal;font-stretch:normal;font-size:6.00428px;font-family:'Palatino Linotype';writing-mode:lr-tb;fill:#000000;fill-opacity:1;fill-rule:nonzero;stroke:none"
         x="0 3.00214"
         y="0"
         sodipodi:role="line"
         id="tspan3">xy</tspan></text>
    <text
       id="text4"
       xml:space="preserve"
       transform="matrix(1.3333333,0,0,1.3333333,431.42013,199.24789)"
       clip-path="url(#clipPath5)"><tspan
         style="font-style:italic;font-variant:normal;font-weight:normal;font-stretch:normal;font-size:10.0071px;font-family:'Palatino Linotype';writing-mode:lr-tb;fill:#000000;fill-opacity:1;fill-rule:nonzero;stroke:none"
         x="0"
         y="0"
         id="tspan4">χ</tspan></text>
    <text
       id="text5"
       xml:space="preserve"
       transform="matrix(1.3333333,0,0,1.3333333,439.33435,204.75971)"
       clip-path="url(#clipPath6)"><tspan
         style="font-style:italic;font-variant:normal;font-weight:normal;font-stretch:normal;font-size:6.00428px;font-family:'Palatino Linotype';writing-mode:lr-tb;fill:#000000;fill-opacity:1;fill-rule:nonzero;stroke:none"
         x="0 3.00214"
         y="0"
         sodipodi:role="line"
         id="tspan5">xy</tspan></text>
    <text
       id="text6"
       xml:space="preserve"
       transform="matrix(1.3333333,0,0,1.3333333,483.76595,241.04012)"
       clip-path="url(#clipPath7)"><tspan
         style="font-style:italic;font-variant:normal;font-weight:normal;font-stretch:normal;font-size:10.0071px;font-family:'Palatino Linotype';writing-mode:lr-tb;fill:#000000;fill-opacity:1;fill-rule:nonzero;stroke:none"
         x="0"
         y="0"
         id="tspan6">χ</tspan></text>
    <text
       id="text7"
       xml:space="preserve"
       transform="matrix(1.3333333,0,0,1.3333333,491.68017,246.55193)"
       clip-path="url(#clipPath8)"><tspan
         style="font-style:italic;font-variant:normal;font-weight:normal;font-stretch:normal;font-size:6.00428px;font-family:'Palatino Linotype';writing-mode:lr-tb;fill:#000000;fill-opacity:1;fill-rule:nonzero;stroke:none"
         x="0 3.00214"
         y="0"
         sodipodi:role="line"
         id="tspan7">xx</tspan></text>
    <text
       id="text8"
       xml:space="preserve"
       transform="matrix(1.3333333,0,0,1.3333333,487.56523,195.93936)"
       clip-path="url(#clipPath9)"><tspan
         style="font-style:italic;font-variant:normal;font-weight:normal;font-stretch:normal;font-size:10.0071px;font-family:'Palatino Linotype';writing-mode:lr-tb;fill:#000000;fill-opacity:1;fill-rule:nonzero;stroke:none"
         x="0"
         y="0"
         id="tspan8">ε</tspan></text>
    <text
       id="text9"
       xml:space="preserve"
       transform="matrix(1.3333333,0,0,1.3333333,494.17271,201.45117)"
       clip-path="url(#clipPath10)"><tspan
         style="font-style:italic;font-variant:normal;font-weight:normal;font-stretch:normal;font-size:6.00428px;font-family:'Palatino Linotype';writing-mode:lr-tb;fill:#000000;fill-opacity:1;fill-rule:nonzero;stroke:none"
         x="0 3.00214"
         y="0"
         sodipodi:role="line"
         id="tspan9">xx</tspan></text>
    <text
       id="text10"
       xml:space="preserve"
       transform="matrix(1.3333333,0,0,1.3333333,67.425867,192.75904)"
       clip-path="url(#clipPath11)"><tspan
         style="font-style:italic;font-variant:normal;font-weight:normal;font-stretch:normal;font-size:10.0071px;font-family:'Palatino Linotype';writing-mode:lr-tb;fill:#000000;fill-opacity:1;fill-rule:nonzero;stroke:none"
         x="0"
         y="0"
         id="tspan10">ε</tspan></text>
    <text
       id="text11"
       xml:space="preserve"
       transform="matrix(1.3333333,0,0,1.3333333,74.033347,198.27085)"
       clip-path="url(#clipPath12)"><tspan
         style="font-style:italic;font-variant:normal;font-weight:normal;font-stretch:normal;font-size:6.00428px;font-family:'Palatino Linotype';writing-mode:lr-tb;fill:#000000;fill-opacity:1;fill-rule:nonzero;stroke:none"
         x="0 3.00214"
         y="0"
         sodipodi:role="line"
         id="tspan11">yy</tspan></text>
    <text
       id="text12"
       xml:space="preserve"
       transform="matrix(1.3333333,0,0,1.3333333,66.785013,241.04012)"
       clip-path="url(#clipPath13)"><tspan
         style="font-style:italic;font-variant:normal;font-weight:normal;font-stretch:normal;font-size:10.0071px;font-family:'Palatino Linotype';writing-mode:lr-tb;fill:#000000;fill-opacity:1;fill-rule:nonzero;stroke:none"
         x="0"
         y="0"
         id="tspan12">χ</tspan></text>
    <text
       id="text13"
       xml:space="preserve"
       transform="matrix(1.3333333,0,0,1.3333333,74.699227,246.55193)"
       clip-path="url(#clipPath14)"><tspan
         style="font-style:italic;font-variant:normal;font-weight:normal;font-stretch:normal;font-size:6.00428px;font-family:'Palatino Linotype';writing-mode:lr-tb;fill:#000000;fill-opacity:1;fill-rule:nonzero;stroke:none"
         x="0 3.00214"
         y="0"
         sodipodi:role="line"
         id="tspan13">yy</tspan></text>
    <text
       id="text14"
       xml:space="preserve"
       transform="matrix(1.3333333,0,0,1.3333333,118.81587,199.24789)"
       clip-path="url(#clipPath15)"><tspan
         style="font-style:italic;font-variant:normal;font-weight:normal;font-stretch:normal;font-size:10.0071px;font-family:'Palatino Linotype';writing-mode:lr-tb;fill:#000000;fill-opacity:1;fill-rule:nonzero;stroke:none"
         x="0"
         y="0"
         id="tspan14">χ</tspan></text>
    <text
       id="text15"
       xml:space="preserve"
       transform="matrix(1.3333333,0,0,1.3333333,126.73009,204.75971)"
       clip-path="url(#clipPath16)"><tspan
         style="font-style:italic;font-variant:normal;font-weight:normal;font-stretch:normal;font-size:6.00428px;font-family:'Palatino Linotype';writing-mode:lr-tb;fill:#000000;fill-opacity:1;fill-rule:nonzero;stroke:none"
         x="0 3.00214"
         y="0"
         sodipodi:role="line"
         id="tspan15">yx</tspan></text>
    <text
       id="text16"
       xml:space="preserve"
       transform="matrix(1.3333333,0,0,1.3333333,162.98693,189.06629)"
       clip-path="url(#clipPath17)"><tspan
         style="font-style:italic;font-variant:normal;font-weight:normal;font-stretch:normal;font-size:10.0071px;font-family:'Palatino Linotype';writing-mode:lr-tb;fill:#000000;fill-opacity:1;fill-rule:nonzero;stroke:none"
         x="0"
         y="0"
         id="tspan16">γ</tspan></text>
    <text
       id="text17"
       xml:space="preserve"
       transform="matrix(1.3333333,0,0,1.3333333,171.14241,194.57811)"
       clip-path="url(#clipPath18)"><tspan
         style="font-style:italic;font-variant:normal;font-weight:normal;font-stretch:normal;font-size:6.00428px;font-family:'Palatino Linotype';writing-mode:lr-tb;fill:#000000;fill-opacity:1;fill-rule:nonzero;stroke:none"
         x="0 3.00214"
         y="0"
         sodipodi:role="line"
         id="tspan17">yx</tspan></text>
    <text
       id="text18"
       xml:space="preserve"
       transform="matrix(1.3333333,0,0,1.3333333,286.94717,70.923387)"
       clip-path="url(#clipPath19)"><tspan
         style="font-style:italic;font-variant:normal;font-weight:normal;font-stretch:normal;font-size:10.0071px;font-family:'Palatino Linotype';writing-mode:lr-tb;fill:#000000;fill-opacity:1;fill-rule:nonzero;stroke:none"
         x="0"
         y="0"
         id="tspan18">z</tspan></text>
    <text
       id="text19"
       xml:space="preserve"
       transform="matrix(1.3333333,0,0,1.3333333,309.85463,48.264027)"
       clip-path="url(#clipPath20)"><tspan
         style="font-style:italic;font-variant:normal;font-weight:normal;font-stretch:normal;font-size:10.0071px;font-family:'Palatino Linotype';writing-mode:lr-tb;fill:#000000;fill-opacity:1;fill-rule:nonzero;stroke:none"
         x="0"
         y="0"
         id="tspan19">x</tspan></text>
    <text
       id="text20"
       xml:space="preserve"
       transform="matrix(1.3333333,0,0,1.3333333,251.98193,44.731907)"
       clip-path="url(#clipPath21)"><tspan
         style="font-style:italic;font-variant:normal;font-weight:normal;font-stretch:normal;font-size:10.0071px;font-family:'Palatino Linotype';writing-mode:lr-tb;fill:#000000;fill-opacity:1;fill-rule:nonzero;stroke:none"
         x="0"
         y="0"
         id="tspan20">y</tspan></text>
    <path
       id="path22"
       d="m 359.91553,6.85231 -13.99277,8.07874 27.98557,30.13209 -13.9928,8.07874 M 65.28114,6.85231 79.27393,14.93105 51.28835,45.06314 65.28114,53.14188"
       style="fill:none;stroke:#000000;stroke-width:0.3685;stroke-linecap:round;stroke-linejoin:round;stroke-miterlimit:10;stroke-dasharray:none;stroke-opacity:1"
       transform="matrix(1.3333333,0,0,-1.3333333,0,268.34667)" />
    <path
       id="path23"
       d="m 314.00937,47.79208 c 2.19855,0 4.31576,0.83153 5.9267,2.3277"
       style="fill:none;stroke:#000000;stroke-width:0.3685;stroke-linecap:round;stroke-linejoin:round;stroke-miterlimit:10;stroke-dasharray:none;stroke-opacity:1"
       transform="matrix(1.3333333,0,0,-1.3333333,0,268.34667)" />
    <path
       id="path24"
       d="m 353.98886,23.61584 c 1.61093,-1.49617 3.72812,-2.32769 5.92667,-2.32769"
       style="fill:none;stroke:#000000;stroke-width:0.3685;stroke-linecap:round;stroke-linejoin:round;stroke-miterlimit:10;stroke-dasharray:none;stroke-opacity:1"
       transform="matrix(1.3333333,0,0,-1.3333333,0,268.34667)" />
    <path
       id="path25"
       d="m 105.26062,50.11978 c 1.61093,-1.49617 3.72813,-2.3277 5.92668,-2.3277"
       style="fill:none;stroke:#000000;stroke-width:0.3685;stroke-linecap:round;stroke-linejoin:round;stroke-miterlimit:10;stroke-dasharray:none;stroke-opacity:1"
       transform="matrix(1.3333333,0,0,-1.3333333,0,268.34667)" />
    <path
       id="path26"
       d="m 65.28114,21.28815 c 2.19855,0 4.31574,0.83152 5.92667,2.32769"
       style="fill:none;stroke:#000000;stroke-width:0.3685;stroke-linecap:round;stroke-linejoin:round;stroke-miterlimit:10;stroke-dasharray:none;stroke-opacity:1"
       transform="matrix(1.3333333,0,0,-1.3333333,0,268.34667)" />
    <path
       id="path27"
       d="M 314.00937,79.64581 V 33.35625 m -13.99277,38.21083 27.98557,-30.1321 m -27.98557,30.1321 13.99277,8.07873 m 0,-46.28956 13.9928,8.07873 m 31.91336,11.7069 V 6.85231 m -66.08054,14.85625 2.45487,1.41733 m 1.96389,1.13385 2.45487,1.41732 m 1.9639,1.13385 2.45489,1.41733 m 1.9639,1.13385 2.45486,1.41733 m 1.9639,1.13386 2.4549,1.41732 m 1.96389,1.13386 2.45487,1.41733 m 1.9639,1.13385 2.45489,1.41733 m 1.9639,1.13385 2.45486,1.41733 m 1.9639,1.13386 2.45487,1.41731 m 1.96389,1.13387 2.4549,1.41731 m 1.9639,1.13387 2.45486,1.41733 m 1.9639,1.13385 1.76285,1.01777 M 292.65198,21.02554 v 0 m 51.55237,29.76378 v 0 m -65.54517,8.44705 2.00549,1.15787 m 1.9639,1.13385 2.45487,1.41733 m 1.96389,1.13386 2.45487,1.41732 m 1.96393,1.13386 2.45486,1.41732 m 1.9639,1.13386 2.45486,1.41733 m 1.9639,1.13385 2.45489,1.41733 m 1.9639,1.13385 2.45487,1.41732 m 1.96389,1.13387 2.4549,1.41731 m 1.9639,1.13387 2.45486,1.41731 m 1.9639,1.13387 2.45486,1.41732 m 1.96393,1.13385 2.45487,1.41733 m 1.96389,1.13385 2.45487,1.41733 m -50.612,-29.22086 v 0 m 51.55237,29.76378 v 0 m -16.20218,-9.35434 0.28039,-0.16186 m 1.9639,-1.13387 2.45487,-1.41733 m 1.96389,-1.13385 2.4549,-1.41732 m 1.9639,-1.13385 2.45486,-1.41733 m 1.9639,-1.13385 2.45486,-1.41733 m 1.96393,-1.13386 2.45487,-1.41732 m 1.96389,-1.13386 2.45487,-1.41733 m 1.9639,-1.13385 2.45489,-1.41733 m 1.9639,-1.13385 2.45486,-1.41733 m 1.9639,-1.13386 2.4549,-1.41731 m 1.96389,-1.13387 2.45487,-1.41731 m -44.46814,25.67367 v 0 m 45.90616,-26.50393 v 0 m -45.90616,-19.78563 2.33029,-1.34539 m 1.9639,-1.13386 2.45489,-1.41733 m 1.9639,-1.13385 2.45487,-1.41733 m 1.96389,-1.13385 2.45487,-1.41732"
       style="fill:none;stroke:#000000;stroke-width:0.3685;stroke-linecap:round;stroke-linejoin:round;stroke-miterlimit:10;stroke-dasharray:none;stroke-opacity:1"
       transform="matrix(1.3333333,0,0,-1.3333333,0,268.34667)" />
    <path
       id="path28"
       d="m 331.55988,23.22345 2.45489,-1.41731 m 1.9639,-1.13387 2.45486,-1.41731 m 1.9639,-1.13387 2.4549,-1.41732 m 1.96389,-1.13385 2.45487,-1.41733 m 1.9639,-1.13385 2.45489,-1.41733 m 1.9639,-1.13387 2.45486,-1.41731 m 1.9639,-1.13386 1.84299,-1.06406 m -45.90616,26.50394 v 0 M 359.91553,6.85231 v 0 M 111.1873,79.64581 V 33.35625 m 13.99278,38.21083 -27.98556,-30.1321 m 27.98556,30.1321 -13.99278,8.07873 m 0,-46.28956 -13.99278,8.07873 M 65.28114,53.14188 V 6.85231 m 16.72835,43.34976 2.45487,-1.41733 m 1.96389,-1.13385 2.45488,-1.41732 m 1.9639,-1.13387 2.45488,-1.41731 m 1.9639,-1.13387 2.45488,-1.41731 m 1.9639,-1.13387 2.45488,-1.41732 m 1.96389,-1.13385 2.45488,-1.41733 m 1.9639,-1.13385 2.45487,-1.41733 m 1.96391,-1.13386 2.45486,-1.41732 m 1.9639,-1.13386 2.45488,-1.41733 m 1.9639,-1.13385 2.45488,-1.41733 m 1.9639,-1.13385 2.45489,-1.41733 m 1.9639,-1.13385 1.92868,-1.11354 M 80.99234,50.78932 v 0 m 51.55237,-29.76378 v 0 m -37.55959,67.97461 0.68566,-0.39586 m 1.96389,-1.13386 2.45488,-1.41733 m 1.9639,-1.13385 2.45488,-1.41733 m 1.9639,-1.13385 2.45488,-1.41733 m 1.9639,-1.13386 2.45488,-1.41731 m 1.96389,-1.13387 2.45488,-1.41731 m 1.9639,-1.13387 2.45487,-1.41732 m 1.96391,-1.13385 2.45486,-1.41733 m 1.9639,-1.13385 2.4549,-1.41733 m 1.96389,-1.13387 2.45487,-1.41731 m 1.9639,-1.13386 2.45489,-1.41733 m 1.9639,-1.13385 2.45486,-1.41733 m 1.9639,-1.13385 0.2963,-0.17107 M 94.98512,89.00015 v 0 m 51.55239,-29.76378 v 0 m -81.25637,-6.09449 1.18332,0.68319 m 1.9639,1.13387 2.45488,1.41731 m 1.9639,1.13387 2.45486,1.41731 m 1.96391,1.13386 2.45487,1.41733 m 1.9639,1.13385 2.45488,1.41733 m 1.96389,1.13385 2.45488,1.41733 m 1.9639,1.13386 2.45488,1.41732"
       style="fill:none;stroke:#000000;stroke-width:0.3685;stroke-linecap:round;stroke-linejoin:round;stroke-miterlimit:10;stroke-dasharray:none;stroke-opacity:1"
       transform="matrix(1.3333333,0,0,-1.3333333,0,268.34667)" />
    <path
       id="path29"
       d="m 94.94101,70.26602 2.45488,1.41733 m 1.9639,1.13385 2.45488,1.41733 m 1.96389,1.13385 2.45487,1.41733 m 1.96391,1.13385 2.45487,1.41732 m -45.37107,-26.195 v 0 m 45.90616,26.50393 v 0 M 66.37845,7.48584 68.83333,8.90317 m 1.9639,1.13386 2.45488,1.41732 m 1.96389,1.13386 2.45488,1.41733 m 1.9639,1.13385 2.45488,1.41733 m 1.9639,1.13385 2.45486,1.41732 m 1.96392,1.13387 2.45486,1.41731 m 1.9639,1.13387 2.45488,1.41731 m 1.9639,1.13387 2.45488,1.41732 m 1.96389,1.13385 2.45488,1.41733 m 1.9639,1.13385 2.45488,1.41733 m 1.9639,1.13387 0.62109,0.35858 M 65.28114,6.85231 v 0 m 45.90616,26.50394 v 0 m 101.41106,139.55644 v -22.17688 m 0,5.95276 v 0.4252 m 0,-6.37796 v 0 l 0.85037,5.95276 h -1.70077 l 0.8504,-5.95276"
       style="fill:none;stroke:#000000;stroke-width:0.3685;stroke-linecap:round;stroke-linejoin:round;stroke-miterlimit:10;stroke-dasharray:none;stroke-opacity:1"
       transform="matrix(1.3333333,0,0,-1.3333333,0,268.34667)" />
    <path
       id="path30"
       d="m 211.74796,156.68857 0.8504,-5.95276 0.85037,5.95276 z"
       style="fill:#000000;fill-opacity:1;fill-rule:nonzero;stroke:none"
       transform="matrix(1.3333333,0,0,-1.3333333,0,268.34667)" />
    <path
       id="path31"
       d="m 212.59836,172.91269 19.20572,-11.08844 m -5.15525,2.97638 -0.36822,0.21261 m 5.52347,-3.18899 v 0 l -4.73004,3.71286 -0.85038,-1.47293 5.58042,-2.23993"
       style="fill:none;stroke:#000000;stroke-width:0.3685;stroke-linecap:round;stroke-linejoin:round;stroke-miterlimit:10;stroke-dasharray:none;stroke-opacity:1"
       transform="matrix(1.3333333,0,0,-1.3333333,0,268.34667)" />
    <path
       id="path32"
       d="m 226.22366,164.06418 5.58042,-2.23993 -4.73004,3.71286 z"
       style="fill:#000000;fill-opacity:1;fill-rule:nonzero;stroke:none"
       transform="matrix(1.3333333,0,0,-1.3333333,0,268.34667)" />
    <path
       id="path33"
       d="m 212.59836,172.91269 -19.20575,-11.08844 m 5.15524,2.97638 0.36823,0.21261 m -5.52347,-3.18899 v 0 l 5.58044,2.23993 -0.8504,1.4729 -4.73004,-3.71283"
       style="fill:none;stroke:#000000;stroke-width:0.3685;stroke-linecap:round;stroke-linejoin:round;stroke-miterlimit:10;stroke-dasharray:none;stroke-opacity:1"
       transform="matrix(1.3333333,0,0,-1.3333333,0,268.34667)" />
    <path
       id="path34"
       d="m 198.12265,165.53708 -4.73004,-3.71283 5.58044,2.23993 z"
       style="fill:#000000;fill-opacity:1;fill-rule:nonzero;stroke:none"
       transform="matrix(1.3333333,0,0,-1.3333333,0,268.34667)" />
    <path
       id="path35"
       d="m 112.37848,115.05072 1.13026,-0.65254 m 4.17328,-2.40946 2.45488,-1.41732 m 4.1733,-2.40944 2.45486,-1.41733 m 4.17329,-2.40944 2.45487,-1.41733 m 4.17331,-2.40945 2.45486,-1.41732 m 4.17328,-2.40945 2.4549,-1.41733 m 4.17328,-2.40944 2.45486,-1.41732 m 4.17331,-2.40946 2.45486,-1.41731 m 4.17328,-2.40946 2.4549,-1.41732 m 4.17328,-2.40944 2.45486,-1.41733 m 4.17331,-2.40945 2.45486,-1.41732 m 4.17328,-2.40945 2.4549,-1.41733 m 4.17328,-2.40944 2.45486,-1.41733 m 4.17328,-2.40945 2.4549,-1.41731 m 4.17327,-2.40946 2.45487,-1.41733 m 4.17331,-2.40943 2.12204,-1.22516 m -97.12572,56.07554 0.24548,-0.14172 m 6.38268,-3.68504 0.24548,-0.14174 m 6.38269,-3.68503 0.24549,-0.14174 m 6.38266,-3.68504 0.24551,-0.14173 m 6.38266,-3.68504 0.24548,-0.14174 m 6.38269,-3.68503 0.24549,-0.14174 m 6.38266,-3.68504 0.24551,-0.14172 m 6.38266,-3.68505 0.24548,-0.14172 m 6.3827,-3.68504 0.24548,-0.14174 m 6.38266,-3.68503 0.24548,-0.14174 m 6.38269,-3.68504 0.24549,-0.14173 m 6.38269,-3.68504 0.24548,-0.14174 m 6.38266,-3.68503 0.24548,-0.14174 m 6.38269,-3.68504 0.24549,-0.14172 m 6.38269,-3.68505 0.24548,-0.14173 m -96.13394,55.50294 v 0 M 212.59836,57.18877 v 0 m 1.37634,0.79463 2.45487,1.41733 m 4.17327,2.40944 2.4549,1.41732 m 4.17328,2.40946 2.45486,1.41731 m 4.17331,2.40945 2.45487,1.41733 m 4.17328,2.40944 2.45489,1.41733 m 4.17328,2.40945 2.45486,1.41732 m 4.17331,2.40945 2.45487,1.41733 m 4.17328,2.40944 2.45486,1.41733 M 267,88.59758 l 2.45486,1.41731 m 4.17328,2.40946 2.4549,1.41732 m 4.17328,2.40944 2.45486,1.41733 m 4.17331,2.40946 2.45487,1.41731 m 4.17327,2.40945 2.4549,1.41733 m 4.17328,2.40944 2.45486,1.41733 m 4.17331,2.40944 2.45487,1.41732 m -90.83039,-52.44094 0.24549,0.14174 m 6.38269,3.68504 0.24548,0.14172"
       style="fill:none;stroke:#000000;stroke-width:0.3685;stroke-linecap:round;stroke-linejoin:round;stroke-miterlimit:10;stroke-dasharray:none;stroke-opacity:1"
       transform="matrix(1.3333333,0,0,-1.3333333,0,268.34667)" />
    <path
       id="path36"
       d="m 231.64978,68.18813 0.24551,0.14173 m 6.38266,3.68503 0.24549,0.14174 m 6.38269,3.68504 0.24548,0.14173 m 6.38266,3.68504 0.24552,0.14174 m 6.38266,3.68503 0.24548,0.14174 m 6.38266,3.68504 0.24551,0.14172 m 6.38266,3.68505 0.24549,0.14172 m 6.38269,3.68504 0.24548,0.14174 m 6.38266,3.68503 0.24551,0.14174 m 6.38266,3.68504 0.24549,0.14173 m 6.38269,3.68504 0.24548,0.14174 m 6.38266,3.68503 0.24548,0.14174 m 6.38269,3.68504 0.24549,0.14172 M 212.59836,57.18877 v 0 m 100.21985,57.86195 v 0 m -98.62912,56.94354 2.45489,-1.41733 m 4.17328,-2.40942 2.45487,-1.41733 m 4.1733,-2.40945 2.45487,-1.41733 m 4.17328,-2.40945 2.45489,-1.41733 m 4.17328,-2.40943 2.45487,-1.41732 m 4.17331,-2.40946 2.45486,-1.41733 m 4.17328,-2.40945 2.45486,-1.41733 m 4.17331,-2.40942 2.45487,-1.41733 m 4.17328,-2.40945 2.45489,-1.41733 m 4.17328,-2.40946 2.45486,-1.41729 m 4.17331,-2.40946 2.45487,-1.41733 m 4.17328,-2.40945 2.45489,-1.41733 m 4.17328,-2.40944 2.45487,-1.41732 m 4.1733,-2.40946 2.45487,-1.41731 m 4.17328,-2.40946 2.45486,-1.41732 m -90.83035,52.44094 0.24548,-0.14172 m 6.38266,-3.68506 0.24552,-0.14172 m 6.38266,-3.68503 0.24548,-0.14172 m 6.38269,-3.68506 0.24548,-0.14173 m 6.38266,-3.68502 0.24552,-0.14176 m 6.38266,-3.68503 0.24548,-0.14172 m 6.38266,-3.68506 0.24551,-0.14172 m 6.38266,-3.68503 0.24549,-0.14175 m 6.38269,-3.68503 0.24548,-0.14173 m 6.38266,-3.68505 0.24549,-0.14173 m 6.38269,-3.68503 0.24548,-0.14175 m 6.38269,-3.68503 0.24548,-0.14174 m 6.38266,-3.68504 0.24549,-0.14172 m 6.38269,-3.68505 0.24548,-0.14174 m 6.38269,-3.68502 0.24548,-0.14174 m -99.04928,57.18614 v 0 m 100.21985,-57.86197 v 0 m -200.43973,0 0.91585,0.52878 m 4.17329,2.40944 2.45488,1.41733 m 4.17328,2.40945 2.45488,1.41731"
       style="fill:none;stroke:#000000;stroke-width:0.3685;stroke-linecap:round;stroke-linejoin:round;stroke-miterlimit:10;stroke-dasharray:none;stroke-opacity:1"
       transform="matrix(1.3333333,0,0,-1.3333333,0,268.34667)" />
    <path
       id="path37"
       d="m 130.72394,125.64249 2.45489,1.41732 m 4.17328,2.40946 2.45487,1.41733 m 4.17331,2.40942 2.45486,1.41733 m 4.17328,2.40945 2.45489,1.41733 m 4.17328,2.40945 2.45487,1.41733 m 4.17331,2.40943 2.45486,1.41732 m 4.17328,2.40946 2.45489,1.41733 m 4.17328,2.40945 2.45487,1.4173 m 4.17331,2.40945 2.45486,1.41733 m 4.17328,2.40946 2.4549,1.41732 m 4.17327,2.40946 2.45487,1.41729 m 4.17328,2.40946 2.45489,1.41733 m 4.17328,2.40945 2.33646,1.34894 m -97.34012,-56.19934 0.24548,0.14174 m 6.38268,3.68503 0.24548,0.14173 m 6.38268,3.68505 0.24548,0.14172 m 6.38269,3.68504 0.24548,0.14173 m 6.38266,3.68506 0.24552,0.14172 m 6.38266,3.68503 0.24548,0.14175 m 6.38269,3.68503 0.24549,0.14172 m 6.38265,3.68506 0.24552,0.14173 m 6.38266,3.68502 0.24548,0.14176 m 6.38269,3.68503 0.24549,0.14172 m 6.38266,3.68506 0.24548,0.14172 m 6.38269,3.68503 0.24548,0.14175 m 6.38269,3.68503 0.24549,0.14173 m 6.38266,3.68506 0.24548,0.14172 m 6.38269,3.68503 0.24548,0.14175 m -95.91952,-55.37918 v 0 m 100.21988,57.86197 v 0"
       style="fill:none;stroke:#000000;stroke-width:0.3685;stroke-linecap:round;stroke-linejoin:round;stroke-miterlimit:10;stroke-dasharray:none;stroke-opacity:1"
       transform="matrix(1.3333333,0,0,-1.3333333,0,268.34667)" />
  </g>
</svg>
