<?xml version="1.0" encoding="UTF-8" standalone="no"?>
<!-- Created with Inkscape (http://www.inkscape.org/) -->

<svg
   version="1.1"
   id="svg1"
   width="566.92932"
   height="359.05466"
   viewBox="0 0 566.92932 359.05466"
   sodipodi:docname="allg_torsion_balken_vs_platte.pdf"
   xmlns:inkscape="http://www.inkscape.org/namespaces/inkscape"
   xmlns:sodipodi="http://sodipodi.sourceforge.net/DTD/sodipodi-0.dtd"
   xmlns="http://www.w3.org/2000/svg"
   xmlns:svg="http://www.w3.org/2000/svg">
  <defs
     id="defs1">
    <clipPath
       clipPathUnits="userSpaceOnUse"
       id="clipPath4">
      <path
         d="M -0.00426,-0.00269 V 269.29404 H 425.20111 V -0.00269 H -0.00426"
         transform="matrix(1,0,0,-1,-163.97946,121.77623)"
         clip-rule="evenodd"
         id="path4" />
    </clipPath>
    <clipPath
       clipPathUnits="userSpaceOnUse"
       id="clipPath5">
      <path
         d="M -0.00426,-0.00269 V 269.29404 H 425.20111 V -0.00269 H -0.00426"
         transform="matrix(1,0,0,-1,-180.35284,146.84786)"
         clip-rule="evenodd"
         id="path5" />
    </clipPath>
    <clipPath
       clipPathUnits="userSpaceOnUse"
       id="clipPath6">
      <path
         d="M -0.00426,-0.00269 V 269.29404 H 425.20111 V -0.00269 H -0.00426"
         transform="matrix(1,0,0,-1,-139.34296,132.25415)"
         clip-rule="evenodd"
         id="path6" />
    </clipPath>
    <clipPath
       clipPathUnits="userSpaceOnUse"
       id="clipPath7">
      <path
         d="M -0.00426,-0.00269 V 269.29404 H 425.20111 V -0.00269 H -0.00426"
         transform="matrix(1,0,0,-1,-190.29847,171.52274)"
         clip-rule="evenodd"
         id="path7" />
    </clipPath>
    <clipPath
       clipPathUnits="userSpaceOnUse"
       id="clipPath8">
      <path
         d="M -0.00426,-0.00269 V 269.29404 H 425.20111 V -0.00269 H -0.00426"
         transform="matrix(1,0,0,-1,-164.84293,177.41393)"
         clip-rule="evenodd"
         id="path8" />
    </clipPath>
    <clipPath
       clipPathUnits="userSpaceOnUse"
       id="clipPath9">
      <path
         d="M -0.00426,-0.00269 V 269.29404 H 425.20111 V -0.00269 H -0.00426"
         transform="matrix(1,0,0,-1,-211.48243,191.78381)"
         clip-rule="evenodd"
         id="path9" />
    </clipPath>
    <clipPath
       clipPathUnits="userSpaceOnUse"
       id="clipPath10">
      <path
         d="M -0.00426,-0.00269 V 269.29404 H 425.20111 V -0.00269 H -0.00426"
         transform="matrix(1,0,0,-1,-185.32755,248.16496)"
         clip-rule="evenodd"
         id="path10" />
    </clipPath>
    <clipPath
       clipPathUnits="userSpaceOnUse"
       id="clipPath11">
      <path
         d="M -0.00426,-0.00269 V 269.29404 H 425.20111 V -0.00269 H -0.00426"
         transform="matrix(1,0,0,-1,-56.842171,124.46925)"
         clip-rule="evenodd"
         id="path11" />
    </clipPath>
    <clipPath
       clipPathUnits="userSpaceOnUse"
       id="clipPath12">
      <path
         d="M -0.00426,-0.00269 V 269.29404 H 425.20111 V -0.00269 H -0.00426"
         transform="matrix(1,0,0,-1,-352.78534,77.687564)"
         clip-rule="evenodd"
         id="path12" />
    </clipPath>
    <clipPath
       clipPathUnits="userSpaceOnUse"
       id="clipPath13">
      <path
         d="M -0.00426,-0.00269 V 269.29404 H 425.20111 V -0.00269 H -0.00426"
         transform="matrix(1,0,0,-1,-355.78083,73.553699)"
         clip-rule="evenodd"
         id="path13" />
    </clipPath>
    <clipPath
       clipPathUnits="userSpaceOnUse"
       id="clipPath14">
      <path
         d="M -0.00426,-0.00269 V 269.29404 H 425.20111 V -0.00269 H -0.00426"
         transform="matrix(1,0,0,-1,-190.7163,57.324404)"
         clip-rule="evenodd"
         id="path14" />
    </clipPath>
    <clipPath
       clipPathUnits="userSpaceOnUse"
       id="clipPath15">
      <path
         d="M -0.00426,-0.00269 V 269.29404 H 425.20111 V -0.00269 H -0.00426"
         transform="matrix(1,0,0,-1,-193.71178,53.190539)"
         clip-rule="evenodd"
         id="path15" />
    </clipPath>
    <clipPath
       clipPathUnits="userSpaceOnUse"
       id="clipPath16">
      <path
         d="M -0.00426,-0.00269 V 269.29404 H 425.20111 V -0.00269 H -0.00426"
         transform="matrix(1,0,0,-1,-190.56993,216.25647)"
         clip-rule="evenodd"
         id="path16" />
    </clipPath>
    <clipPath
       clipPathUnits="userSpaceOnUse"
       id="clipPath17">
      <path
         d="M -0.00426,-0.00269 V 269.29404 H 425.20111 V -0.00269 H -0.00426"
         transform="matrix(1,0,0,-1,-194.03785,212.12261)"
         clip-rule="evenodd"
         id="path17" />
    </clipPath>
    <clipPath
       clipPathUnits="userSpaceOnUse"
       id="clipPath18">
      <path
         d="M -0.00426,-0.00269 V 269.29404 H 425.20111 V -0.00269 H -0.00426"
         transform="matrix(1,0,0,-1,-4.9719601,217.81579)"
         clip-rule="evenodd"
         id="path18" />
    </clipPath>
    <clipPath
       clipPathUnits="userSpaceOnUse"
       id="clipPath19">
      <path
         d="M -0.00426,-0.00269 V 269.29404 H 425.20111 V -0.00269 H -0.00426"
         transform="matrix(1,0,0,-1,-4.9719601,58.111979)"
         clip-rule="evenodd"
         id="path19" />
    </clipPath>
    <clipPath
       clipPathUnits="userSpaceOnUse"
       id="clipPath20">
      <path
         d="M -0.00426,-0.00269 V 269.29404 H 425.20111 V -0.00269 H -0.00426"
         transform="matrix(1,0,0,-1,-374.2453,40.974531)"
         clip-rule="evenodd"
         id="path20" />
    </clipPath>
    <clipPath
       clipPathUnits="userSpaceOnUse"
       id="clipPath21">
      <path
         d="M -0.00426,-0.00269 V 269.29404 H 425.20111 V -0.00269 H -0.00426"
         transform="matrix(1,0,0,-1,-380.01009,36.840673)"
         clip-rule="evenodd"
         id="path21" />
    </clipPath>
    <clipPath
       clipPathUnits="userSpaceOnUse"
       id="clipPath22">
      <path
         d="M -0.00426,-0.00269 V 269.29404 H 425.20111 V -0.00269 H -0.00426"
         transform="matrix(1,0,0,-1,-43.771881,215.08485)"
         clip-rule="evenodd"
         id="path22" />
    </clipPath>
    <clipPath
       clipPathUnits="userSpaceOnUse"
       id="clipPath23">
      <path
         d="M -0.00426,-0.00269 V 269.29404 H 425.20111 V -0.00269 H -0.00426"
         transform="matrix(1,0,0,-1,-49.536661,210.95098)"
         clip-rule="evenodd"
         id="path23" />
    </clipPath>
    <clipPath
       clipPathUnits="userSpaceOnUse"
       id="clipPath24">
      <path
         d="M -0.00426,-0.00269 V 269.29404 H 425.20111 V -0.00269 H -0.00426"
         transform="matrix(1,0,0,-1,-75.147512,188.86769)"
         clip-rule="evenodd"
         id="path24" />
    </clipPath>
    <clipPath
       clipPathUnits="userSpaceOnUse"
       id="clipPath25">
      <path
         d="M -0.00426,-0.00269 V 269.29404 H 425.20111 V -0.00269 H -0.00426"
         transform="matrix(1,0,0,-1,-80.912305,184.73384)"
         clip-rule="evenodd"
         id="path25" />
    </clipPath>
  </defs>
  <sodipodi:namedview
     id="namedview1"
     pagecolor="#ffffff"
     bordercolor="#000000"
     borderopacity="0.25"
     inkscape:showpageshadow="2"
     inkscape:pageopacity="0.0"
     inkscape:pagecheckerboard="0"
     inkscape:deskcolor="#d1d1d1">
    <inkscape:page
       x="0"
       y="0"
       inkscape:label="1"
       id="page1"
       width="566.92932"
       height="359.05466"
       margin="0"
       bleed="0" />
  </sodipodi:namedview>
  <g
     id="g1"
     inkscape:groupmode="layer"
     inkscape:label="1">
    <path
       id="path1"
       d="m 56.09132,201.40768 v 26.573 l 263.19024,-36.6524 V 164.75525 L 56.09132,201.40768 m 0,-133.13079 105.27611,91.63107 L 424.55765,123.25552 319.28156,31.62445 56.09132,68.27689 161.36743,159.90796 424.55765,123.25552 319.28156,31.62445 56.09132,68.27689 m -49.578,166.60815 38.70955,-5.39078 M 6.51332,208.31201 45.22287,202.92123 M 6.51332,75.18121 45.22287,69.79045 M 6.51332,48.6082 45.22287,43.21744 m 66.56654,123.59488 38.70955,-5.39078 m -94.40764,39.98614 1.3387,1.1652 m 1.71054,1.48883 2.13817,1.86102 m 1.71053,1.48883 2.13818,1.86105 m 1.71053,1.48883 2.13817,1.86103 m 1.71054,1.48883 2.13816,1.86105 m 1.71053,1.4888 2.13817,1.86105 m 1.71054,1.48884 2.13817,1.86102 m 1.71052,1.48883 2.13817,1.86105 m 1.71054,1.48883 2.13817,1.86103 m 1.71053,1.48883 2.13816,1.86102 m 1.71054,1.48883 2.13817,1.86105 m 1.71053,1.48883 2.13817,1.86103 m 1.71054,1.48883 2.13817,1.86102 m 1.71052,1.48883 2.13817,1.86105 m 1.71054,1.48883 2.13817,1.86103 m 1.71052,1.48883 2.13817,1.86105 m 1.71054,1.48883 2.13817,1.86103 m 1.71053,1.48883 2.13817,1.86102 m 1.71054,1.48883 2.13817,1.86102 m 1.71054,1.48883 2.13815,1.86106 m 1.71054,1.48883 1.82092,1.5849 m -77.9955,-67.88636 v 0 m 105.27611,-68.07272 v 2.1611 m 0,2.26773 v 2.83463 m 0,2.26773 v 2.83466 m 0,2.2677 v 2.83465 m 0,2.2677 v 2.83466 m 0,2.26773 v 1.73471 m 0,-26.573 v 0 m 0,26.573 v 0 M 57.40649,42.84857 l 2.13817,1.86104 m 1.71053,1.48883 2.13817,1.86104 m 1.71054,1.48883 2.13817,1.86104"
       style="fill:none;stroke:#000000;stroke-width:0.3685;stroke-linecap:round;stroke-linejoin:round;stroke-miterlimit:10;stroke-dasharray:none;stroke-opacity:1"
       transform="matrix(1.3333333,0,0,-1.3333333,0,359.05467)" />
    <path
       id="path2"
       d="m 68.95261,52.89818 2.13816,1.86102 m 1.71053,1.48883 2.13817,1.86104 m 1.71054,1.48883 2.13817,1.86104 m 1.71052,1.48883 2.13817,1.86104 m 1.71054,1.48883 2.13817,1.86104 m 1.71053,1.48881 2.13816,1.86104 m 1.71055,1.48883 2.13816,1.86104 m 1.71053,1.48883 2.13817,1.86104 m 1.71054,1.48883 2.13817,1.86104 m 1.71052,1.48881 2.13817,1.86104 m 1.71054,1.48883 2.13817,1.86104 m 1.71052,1.48883 2.13817,1.86104 m 1.71054,1.48883 2.13817,1.86104 m 1.71053,1.48881 2.13817,1.86104 m 1.71054,1.48883 2.13817,1.86104 m 1.71052,1.48883 2.13817,1.86104 m 1.71054,1.48883 2.13818,1.86104 m 1.71051,1.48881 2.13819,1.86104 m 1.71054,1.48883 2.13815,1.86104 m 1.71054,1.48883 2.13815,1.86104 m 1.71055,1.48883 2.13818,1.86102 m 1.71051,1.48883 2.13818,1.86104 m 1.71054,1.48883 2.13816,1.86104 m 1.71054,1.48883 2.13815,1.86102 m 1.71054,1.48883 0.046,0.04 M 56.09132,41.70387 v 0 m 105.27611,91.63109 v 0 m 1.41843,-0.19754 2.80755,-0.39099 m 2.24604,-0.31278 2.80755,-0.39099 m 2.24604,-0.3128 2.80755,-0.39096 m 2.24607,-0.31281 2.80752,-0.39099 m 2.24606,-0.31277 2.80756,-0.39099 m 2.24603,-0.31278 2.80756,-0.39099 m 2.24603,-0.31281 2.80756,-0.39099 m 2.24603,-0.31277 2.80756,-0.39099 m 2.24603,-0.31279 2.80756,-0.39098 m 2.24603,-0.31279 2.80755,-0.39099 m 2.24607,-0.31279 2.80752,-0.39098 m 2.24607,-0.31279 2.80755,-0.39099 m 2.24604,-0.31279 2.80755,-0.39099 m 2.24603,-0.31277 2.80756,-0.39099 m 2.24603,-0.31279 2.80756,-0.39099 m 2.24603,-0.31278 2.80756,-0.39099 m 2.24603,-0.31279 2.80756,-0.39099 m 2.24603,-0.31279 2.80756,-0.39098 m 2.24606,-0.31279 2.80752,-0.39099 m 2.24607,-0.31279 2.80752,-0.39097 m 2.24607,-0.31279 2.80752,-0.391 m 2.24607,-0.31279 2.80755,-0.39097 m 2.24603,-0.31279 2.80756,-0.39099"
       style="fill:none;stroke:#000000;stroke-width:0.3685;stroke-linecap:round;stroke-linejoin:round;stroke-miterlimit:10;stroke-dasharray:none;stroke-opacity:1"
       transform="matrix(1.3333333,0,0,-1.3333333,0,359.05467)" />
    <path
       id="path3"
       d="m 279.01849,116.95061 2.80756,-0.39098 m 2.24603,-0.31279 2.80756,-0.39099 m 2.24603,-0.31279 2.80756,-0.39099 m 2.24603,-0.31278 2.80756,-0.39099 m 2.24606,-0.31279 2.80753,-0.39099 m 2.24606,-0.31277 2.80755,-0.39099 m 2.24604,-0.31279 2.80755,-0.39099 m 2.24604,-0.31279 2.80755,-0.39098 m 2.24604,-0.31279 2.80755,-0.39099 m 2.24603,-0.31279 2.80756,-0.39098 m 2.24603,-0.31279 2.80756,-0.39099 m 2.24606,-0.31279 2.80753,-0.39097 m 2.24606,-0.31279 2.80756,-0.391 m 2.24603,-0.31279 2.80756,-0.39097 m 2.24603,-0.31279 2.80755,-0.39099 m 2.24604,-0.31279 2.80755,-0.39099 m 2.24604,-0.31278 2.80755,-0.39099 m 2.24604,-0.31279 2.80755,-0.39099 m 2.24603,-0.31279 2.80756,-0.39098 m 2.24606,-0.31279 2.80753,-0.39099 m 2.24606,-0.31279 2.80756,-0.39097 m 2.24603,-0.31279 2.80756,-0.391 m 2.24603,-0.31278 2.80756,-0.39098 m 2.24603,-0.31279 2.80756,-0.39099 m 2.24603,-0.31279 2.80755,-0.39098 m 2.24604,-0.31279 2.80755,-0.39099 m 2.24607,-0.31279 2.80752,-0.39097 m 2.24607,-0.31279 2.80755,-0.391 m 2.24603,-0.31279 2.80756,-0.39099 m -261.95923,36.48102 v 0 M 424.55765,96.68251 v 0 M 56.09132,201.40768 v 26.573 m 263.19024,-63.22543 v 26.57303 l -263.19024,36.6524 m 0,-26.573 263.19024,-36.65243 m -263.19024,63.22543 47.46543,41.31336 m 305.30067,0 -89.57586,-77.96576 m 0,-26.57303 105.91955,92.19113 M 56.09132,41.70387 v 26.57302 l 105.27611,91.63107 M 319.28156,5.05144 V 31.62445 L 56.09132,68.27689 m 0,-26.57302 263.19024,-36.65243 m 105.27609,91.63107 v 26.57301 L 319.28156,31.62445 M 161.36743,159.90796 424.55765,123.25552 M 319.28156,5.05144 424.55765,96.68251"
       style="fill:none;stroke:#000000;stroke-width:0.3685;stroke-linecap:round;stroke-linejoin:round;stroke-miterlimit:10;stroke-dasharray:none;stroke-opacity:1"
       transform="matrix(1.3333333,0,0,-1.3333333,0,359.05467)" />
    <text
       id="text3"
       xml:space="preserve"
       transform="matrix(1.3333333,0,0,1.3333333,218.63928,196.68637)"
       clip-path="url(#clipPath4)"><tspan
         style="font-style:italic;font-variant:normal;font-weight:normal;font-stretch:normal;font-size:10.0071px;font-family:'Palatino Linotype';writing-mode:lr-tb;fill:#000000;fill-opacity:1;fill-rule:nonzero;stroke:none"
         x="0"
         y="0"
         id="tspan3">z</tspan></text>
    <text
       id="text4"
       xml:space="preserve"
       transform="matrix(1.3333333,0,0,1.3333333,240.47045,163.25752)"
       clip-path="url(#clipPath5)"><tspan
         style="font-style:italic;font-variant:normal;font-weight:normal;font-stretch:normal;font-size:10.0071px;font-family:'Palatino Linotype';writing-mode:lr-tb;fill:#000000;fill-opacity:1;fill-rule:nonzero;stroke:none"
         x="0"
         y="0"
         id="tspan4">x</tspan></text>
    <text
       id="text5"
       xml:space="preserve"
       transform="matrix(1.3333333,0,0,1.3333333,185.79061,182.71581)"
       clip-path="url(#clipPath6)"><tspan
         style="font-style:italic;font-variant:normal;font-weight:normal;font-stretch:normal;font-size:10.0071px;font-family:'Palatino Linotype';writing-mode:lr-tb;fill:#000000;fill-opacity:1;fill-rule:nonzero;stroke:none"
         x="0"
         y="0"
         id="tspan5">y</tspan></text>
    <text
       id="text6"
       xml:space="preserve"
       transform="matrix(1.3333333,0,0,1.3333333,253.73129,130.35768)"
       clip-path="url(#clipPath7)"><tspan
         style="font-style:italic;font-variant:normal;font-weight:normal;font-stretch:normal;font-size:10.0071px;font-family:'Palatino Linotype';writing-mode:lr-tb;fill:#000000;fill-opacity:1;fill-rule:nonzero;stroke:none"
         x="0"
         y="0"
         id="tspan6">z</tspan></text>
    <text
       id="text7"
       xml:space="preserve"
       transform="matrix(1.3333333,0,0,1.3333333,219.79057,122.50276)"
       clip-path="url(#clipPath8)"><tspan
         style="font-style:italic;font-variant:normal;font-weight:normal;font-stretch:normal;font-size:10.0071px;font-family:'Palatino Linotype';writing-mode:lr-tb;fill:#000000;fill-opacity:1;fill-rule:nonzero;stroke:none"
         x="0"
         y="0"
         id="tspan7">x</tspan></text>
    <text
       id="text8"
       xml:space="preserve"
       transform="matrix(1.3333333,0,0,1.3333333,281.97657,103.34292)"
       clip-path="url(#clipPath9)"><tspan
         style="font-style:italic;font-variant:normal;font-weight:normal;font-stretch:normal;font-size:10.0071px;font-family:'Palatino Linotype';writing-mode:lr-tb;fill:#000000;fill-opacity:1;fill-rule:nonzero;stroke:none"
         x="0"
         y="0"
         id="tspan8">y</tspan></text>
    <text
       id="text9"
       xml:space="preserve"
       transform="matrix(1.3333333,0,0,1.3333333,247.1034,28.168067)"
       clip-path="url(#clipPath10)"><tspan
         style="font-style:italic;font-variant:normal;font-weight:normal;font-stretch:normal;font-size:10.0071px;font-family:'Palatino Linotype';writing-mode:lr-tb;fill:#000000;fill-opacity:1;fill-rule:nonzero;stroke:none"
         x="0"
         y="0"
         id="tspan9">b</tspan></text>
    <text
       id="text10"
       xml:space="preserve"
       transform="matrix(1.3333333,0,0,1.3333333,75.78956,193.09567)"
       clip-path="url(#clipPath11)"><tspan
         style="font-style:italic;font-variant:normal;font-weight:normal;font-stretch:normal;font-size:10.0071px;font-family:'Palatino Linotype';writing-mode:lr-tb;fill:#000000;fill-opacity:1;fill-rule:nonzero;stroke:none"
         x="0"
         y="0"
         id="tspan10">1</tspan></text>
    <text
       id="text11"
       xml:space="preserve"
       transform="matrix(1.3333333,0,0,1.3333333,470.38044,255.47125)"
       clip-path="url(#clipPath12)"><tspan
         style="font-style:italic;font-variant:normal;font-weight:normal;font-stretch:normal;font-size:10.0071px;font-family:'Palatino Linotype';writing-mode:lr-tb;fill:#000000;fill-opacity:1;fill-rule:nonzero;stroke:none"
         x="0"
         y="0"
         id="tspan11">i</tspan></text>
    <text
       id="text12"
       xml:space="preserve"
       transform="matrix(1.3333333,0,0,1.3333333,474.37443,260.98307)"
       clip-path="url(#clipPath13)"><tspan
         style="font-style:italic;font-variant:normal;font-weight:normal;font-stretch:normal;font-size:6.00428px;font-family:'Palatino Linotype';writing-mode:lr-tb;fill:#000000;fill-opacity:1;fill-rule:nonzero;stroke:none"
         x="0 3.00214"
         y="0"
         sodipodi:role="line"
         id="tspan12">xy</tspan></text>
    <text
       id="text13"
       xml:space="preserve"
       transform="matrix(1.3333333,0,0,1.3333333,254.2884,282.62213)"
       clip-path="url(#clipPath14)"><tspan
         style="font-style:italic;font-variant:normal;font-weight:normal;font-stretch:normal;font-size:10.0071px;font-family:'Palatino Linotype';writing-mode:lr-tb;fill:#000000;fill-opacity:1;fill-rule:nonzero;stroke:none"
         x="0"
         y="0"
         id="tspan13">i</tspan></text>
    <text
       id="text14"
       xml:space="preserve"
       transform="matrix(1.3333333,0,0,1.3333333,258.28237,288.13395)"
       clip-path="url(#clipPath15)"><tspan
         style="font-style:italic;font-variant:normal;font-weight:normal;font-stretch:normal;font-size:6.00428px;font-family:'Palatino Linotype';writing-mode:lr-tb;fill:#000000;fill-opacity:1;fill-rule:nonzero;stroke:none"
         x="0 3.00214"
         y="0"
         sodipodi:role="line"
         id="tspan14">yx</tspan></text>
    <text
       id="text15"
       xml:space="preserve"
       transform="matrix(1.3333333,0,0,1.3333333,254.09324,70.71272)"
       clip-path="url(#clipPath16)"><tspan
         style="font-style:italic;font-variant:normal;font-weight:normal;font-stretch:normal;font-size:10.0071px;font-family:'Palatino Linotype';writing-mode:lr-tb;fill:#000000;fill-opacity:1;fill-rule:nonzero;stroke:none"
         x="0"
         y="0"
         id="tspan15">I</tspan></text>
    <text
       id="text16"
       xml:space="preserve"
       transform="matrix(1.3333333,0,0,1.3333333,258.71713,76.224533)"
       clip-path="url(#clipPath17)"><tspan
         style="font-style:italic;font-variant:normal;font-weight:normal;font-stretch:normal;font-size:6.00428px;font-family:'Palatino Linotype';writing-mode:lr-tb;fill:#000000;fill-opacity:1;fill-rule:nonzero;stroke:none"
         x="0"
         y="0"
         id="tspan16">t</tspan></text>
    <text
       id="text17"
       xml:space="preserve"
       transform="matrix(1.3333333,0,0,1.3333333,6.62928,68.633627)"
       clip-path="url(#clipPath18)"><tspan
         style="font-style:italic;font-variant:normal;font-weight:normal;font-stretch:normal;font-size:10.0071px;font-family:'Palatino Linotype';writing-mode:lr-tb;fill:#000000;fill-opacity:1;fill-rule:nonzero;stroke:none"
         x="0"
         y="0"
         id="tspan17">t</tspan></text>
    <text
       id="text18"
       xml:space="preserve"
       transform="matrix(1.3333333,0,0,1.3333333,6.62928,281.57203)"
       clip-path="url(#clipPath19)"><tspan
         style="font-style:italic;font-variant:normal;font-weight:normal;font-stretch:normal;font-size:10.0071px;font-family:'Palatino Linotype';writing-mode:lr-tb;fill:#000000;fill-opacity:1;fill-rule:nonzero;stroke:none"
         x="0"
         y="0"
         id="tspan18">t</tspan></text>
    <text
       id="text19"
       xml:space="preserve"
       transform="matrix(1.3333333,0,0,1.3333333,498.99372,304.42196)"
       clip-path="url(#clipPath20)"><tspan
         style="font-style:italic;font-variant:normal;font-weight:normal;font-stretch:normal;font-size:10.0071px;font-family:'Palatino Linotype';writing-mode:lr-tb;fill:#000000;fill-opacity:1;fill-rule:nonzero;stroke:none"
         x="0"
         y="0"
         id="tspan19">q</tspan></text>
    <text
       id="text20"
       xml:space="preserve"
       transform="matrix(1.3333333,0,0,1.3333333,506.68011,309.93377)"
       clip-path="url(#clipPath21)"><tspan
         style="font-style:italic;font-variant:normal;font-weight:normal;font-stretch:normal;font-size:6.00428px;font-family:'Palatino Linotype';writing-mode:lr-tb;fill:#000000;fill-opacity:1;fill-rule:nonzero;stroke:none"
         x="0 3.00214"
         y="0"
         sodipodi:role="line"
         id="tspan20">yx</tspan></text>
    <text
       id="text21"
       xml:space="preserve"
       transform="matrix(1.3333333,0,0,1.3333333,58.362507,72.27488)"
       clip-path="url(#clipPath22)"><tspan
         style="font-style:italic;font-variant:normal;font-weight:normal;font-stretch:normal;font-size:10.0071px;font-family:'Palatino Linotype';writing-mode:lr-tb;fill:#000000;fill-opacity:1;fill-rule:nonzero;stroke:none"
         x="0"
         y="0"
         id="tspan21">q</tspan></text>
    <text
       id="text22"
       xml:space="preserve"
       transform="matrix(1.3333333,0,0,1.3333333,66.04888,77.786707)"
       clip-path="url(#clipPath23)"><tspan
         style="font-style:italic;font-variant:normal;font-weight:normal;font-stretch:normal;font-size:6.00428px;font-family:'Palatino Linotype';writing-mode:lr-tb;fill:#000000;fill-opacity:1;fill-rule:nonzero;stroke:none"
         x="0 2.6659002"
         y="0"
         sodipodi:role="line"
         id="tspan22">zx</tspan></text>
    <text
       id="text23"
       xml:space="preserve"
       transform="matrix(1.3333333,0,0,1.3333333,100.19668,107.23109)"
       clip-path="url(#clipPath24)"><tspan
         style="font-style:italic;font-variant:normal;font-weight:normal;font-stretch:normal;font-size:10.0071px;font-family:'Palatino Linotype';writing-mode:lr-tb;fill:#000000;fill-opacity:1;fill-rule:nonzero;stroke:none"
         x="0"
         y="0"
         id="tspan23">q</tspan></text>
    <text
       id="text24"
       xml:space="preserve"
       transform="matrix(1.3333333,0,0,1.3333333,107.88307,112.74289)"
       clip-path="url(#clipPath25)"><tspan
         style="font-style:italic;font-variant:normal;font-weight:normal;font-stretch:normal;font-size:6.00428px;font-family:'Palatino Linotype';writing-mode:lr-tb;fill:#000000;fill-opacity:1;fill-rule:nonzero;stroke:none"
         x="0 3.00214"
         y="0"
         sodipodi:role="line"
         id="tspan24">yx</tspan></text>
    <path
       id="path26"
       d="m 161.36743,146.62146 v -22.17688 m 0,5.95276 v 0.4252 m 0,-6.37796 v 0 l 0.85037,5.95276 h -1.70077 l 0.8504,-5.95276"
       style="fill:none;stroke:#000000;stroke-width:0.3685;stroke-linecap:round;stroke-linejoin:round;stroke-miterlimit:10;stroke-dasharray:none;stroke-opacity:1"
       transform="matrix(1.3333333,0,0,-1.3333333,0,359.05467)" />
    <path
       id="path27"
       d="m 160.51703,130.39734 0.8504,-5.95276 0.85037,5.95276 z"
       style="fill:#000000;fill-opacity:1;fill-rule:nonzero;stroke:none"
       transform="matrix(1.3333333,0,0,-1.3333333,0,359.05467)" />
    <path
       id="path28"
       d="m 161.36743,146.62146 21.96491,-3.05887 m -5.89588,0.82105 -0.42114,0.0587 m 6.31702,-0.8797 v 0 l -5.77857,1.66333 -0.23459,-1.68454 6.01316,0.0212"
       style="fill:none;stroke:#000000;stroke-width:0.3685;stroke-linecap:round;stroke-linejoin:round;stroke-miterlimit:10;stroke-dasharray:none;stroke-opacity:1"
       transform="matrix(1.3333333,0,0,-1.3333333,0,359.05467)" />
    <path
       id="path29"
       d="m 177.31918,143.54138 6.01316,0.0212 -5.77857,1.66333 -0.23459,-1.68454 z"
       style="fill:#000000;fill-opacity:1;fill-rule:nonzero;stroke:none"
       transform="matrix(1.3333333,0,0,-1.3333333,0,359.05467)" />
    <path
       id="path30"
       d="m 161.36743,146.62146 -16.72796,-14.55985 m 4.49014,3.90821 0.32071,0.27914 m -4.81085,-4.18735 v 0 l 5.04846,3.26676 -1.11664,1.28287 -3.93182,-4.54963"
       style="fill:none;stroke:#000000;stroke-width:0.3685;stroke-linecap:round;stroke-linejoin:round;stroke-miterlimit:10;stroke-dasharray:none;stroke-opacity:1"
       transform="matrix(1.3333333,0,0,-1.3333333,0,359.05467)" />
    <path
       id="path31"
       d="m 148.57129,136.61124 -3.93182,-4.54963 5.04846,3.26676 z"
       style="fill:#000000;fill-opacity:1;fill-rule:nonzero;stroke:none"
       transform="matrix(1.3333333,0,0,-1.3333333,0,359.05467)" />
    <path
       id="path32"
       d="m 67.07378,220.78195 21.9649,-3.05887 m -16.06904,2.23783 0.42112,-0.0587 m -6.31698,0.8797 v 0 l 6.01315,0.0212 -0.23459,-1.68451 -5.77856,1.6633"
       style="fill:none;stroke:#000000;stroke-width:0.3685;stroke-linecap:round;stroke-linejoin:round;stroke-miterlimit:10;stroke-dasharray:none;stroke-opacity:1"
       transform="matrix(1.3333333,0,0,-1.3333333,0,359.05467)" />
    <path
       id="path33"
       d="m 72.85234,219.11865 0.23459,1.68451 -6.01315,-0.0212 5.77856,-1.6633 z"
       style="fill:#000000;fill-opacity:1;fill-rule:nonzero;stroke:none"
       transform="matrix(1.3333333,0,0,-1.3333333,0,359.05467)" />
    <path
       id="path34"
       d="m 103.07643,215.76816 21.96491,-3.05887 m -16.06905,2.23779 0.42114,-0.0587 m -6.317,0.87973 v 0 l 6.01315,0.0212 -0.23458,-1.68454 -5.77857,1.66333"
       style="fill:none;stroke:#000000;stroke-width:0.3685;stroke-linecap:round;stroke-linejoin:round;stroke-miterlimit:10;stroke-dasharray:none;stroke-opacity:1"
       transform="matrix(1.3333333,0,0,-1.3333333,0,359.05467)" />
    <path
       id="path35"
       d="m 108.855,214.10483 0.23458,1.68454 -6.01315,-0.0212 5.77857,-1.66333 z"
       style="fill:#000000;fill-opacity:1;fill-rule:nonzero;stroke:none"
       transform="matrix(1.3333333,0,0,-1.3333333,0,359.05467)" />
    <path
       id="path36"
       d="m 139.0791,210.75436 21.96491,-3.05889 m -16.06906,2.23782 0.42114,-0.0587 m -6.31699,0.87973 v 0 l 6.01315,0.0212 -0.23458,-1.68451 -5.77857,1.66333"
       style="fill:none;stroke:#000000;stroke-width:0.3685;stroke-linecap:round;stroke-linejoin:round;stroke-miterlimit:10;stroke-dasharray:none;stroke-opacity:1"
       transform="matrix(1.3333333,0,0,-1.3333333,0,359.05467)" />
    <path
       id="path37"
       d="m 144.85767,209.09103 0.23458,1.68451 -6.01315,-0.0212 5.77857,-1.66333 z"
       style="fill:#000000;fill-opacity:1;fill-rule:nonzero;stroke:none"
       transform="matrix(1.3333333,0,0,-1.3333333,0,359.05467)" />
    <path
       id="path38"
       d="m 175.08176,205.74054 21.9649,-3.05887 m -16.06903,2.23779 0.42111,-0.0586 m -6.31698,0.8797 v 0 l 6.01315,0.0212 -0.23459,-1.68454 -5.77856,1.66333"
       style="fill:none;stroke:#000000;stroke-width:0.3685;stroke-linecap:round;stroke-linejoin:round;stroke-miterlimit:10;stroke-dasharray:none;stroke-opacity:1"
       transform="matrix(1.3333333,0,0,-1.3333333,0,359.05467)" />
    <path
       id="path39"
       d="m 180.86032,204.07721 0.23459,1.68454 -6.01315,-0.0212 5.77856,-1.66333 z"
       style="fill:#000000;fill-opacity:1;fill-rule:nonzero;stroke:none"
       transform="matrix(1.3333333,0,0,-1.3333333,0,359.05467)" />
    <path
       id="path40"
       d="m 211.08441,200.72675 21.96491,-3.0589 m -16.06903,2.23782 0.42111,-0.0587 m -6.31699,0.87973 v 0 l 6.01315,0.0212 -0.23458,-1.6845 -5.77857,1.66333"
       style="fill:none;stroke:#000000;stroke-width:0.3685;stroke-linecap:round;stroke-linejoin:round;stroke-miterlimit:10;stroke-dasharray:none;stroke-opacity:1"
       transform="matrix(1.3333333,0,0,-1.3333333,0,359.05467)" />
    <path
       id="path41"
       d="m 216.86298,199.06342 0.23458,1.6845 -6.01315,-0.0212 5.77857,-1.66333 z"
       style="fill:#000000;fill-opacity:1;fill-rule:nonzero;stroke:none"
       transform="matrix(1.3333333,0,0,-1.3333333,0,359.05467)" />
    <path
       id="path42"
       d="m 247.08707,195.71292 21.9649,-3.05887 m -16.06903,2.23783 0.42114,-0.0587 m -6.31701,0.8797 v 0 l 6.01315,0.0212 -0.23459,-1.68454 -5.77856,1.66333"
       style="fill:none;stroke:#000000;stroke-width:0.3685;stroke-linecap:round;stroke-linejoin:round;stroke-miterlimit:10;stroke-dasharray:none;stroke-opacity:1"
       transform="matrix(1.3333333,0,0,-1.3333333,0,359.05467)" />
    <path
       id="path43"
       d="m 252.86563,194.04959 0.23459,1.68454 -6.01315,-0.0212 5.77856,-1.66333 z"
       style="fill:#000000;fill-opacity:1;fill-rule:nonzero;stroke:none"
       transform="matrix(1.3333333,0,0,-1.3333333,0,359.05467)" />
    <path
       id="path44"
       d="m 283.08972,190.69913 21.96491,-3.05887 m -16.06903,2.23779 0.42114,-0.0587 m -6.31702,0.87973 v 0 l 6.01315,0.0212 -0.23458,-1.68451 -5.77857,1.66333"
       style="fill:none;stroke:#000000;stroke-width:0.3685;stroke-linecap:round;stroke-linejoin:round;stroke-miterlimit:10;stroke-dasharray:none;stroke-opacity:1"
       transform="matrix(1.3333333,0,0,-1.3333333,0,359.05467)" />
    <path
       id="path45"
       d="m 288.86829,189.0358 0.23458,1.68451 -6.01315,-0.0212 5.77857,-1.66333 z"
       style="fill:#000000;fill-opacity:1;fill-rule:nonzero;stroke:none"
       transform="matrix(1.3333333,0,0,-1.3333333,0,359.05467)" />
    <path
       id="path46"
       d="m 68.62277,205.33182 21.96491,-3.05887 m -5.89586,0.82104 -0.42114,0.0587 m 6.317,-0.8797 v 0 l -5.77857,1.66333 -0.23459,-1.68454 6.01316,0.0212"
       style="fill:none;stroke:#000000;stroke-width:0.3685;stroke-linecap:round;stroke-linejoin:round;stroke-miterlimit:10;stroke-dasharray:none;stroke-opacity:1"
       transform="matrix(1.3333333,0,0,-1.3333333,0,359.05467)" />
    <path
       id="path47"
       d="m 84.57452,202.25174 6.01316,0.0212 -5.77857,1.66333 -0.23459,-1.68454 z"
       style="fill:#000000;fill-opacity:1;fill-rule:nonzero;stroke:none"
       transform="matrix(1.3333333,0,0,-1.3333333,0,359.05467)" />
    <path
       id="path48"
       d="m 104.62543,200.31802 21.9649,-3.0589 m -5.89586,0.82108 -0.42112,0.0587 m 6.31698,-0.87973 v 0 l -5.77856,1.66333 -0.23459,-1.6845 6.01315,0.0212"
       style="fill:none;stroke:#000000;stroke-width:0.3685;stroke-linecap:round;stroke-linejoin:round;stroke-miterlimit:10;stroke-dasharray:none;stroke-opacity:1"
       transform="matrix(1.3333333,0,0,-1.3333333,0,359.05467)" />
    <path
       id="path49"
       d="m 120.57718,197.23795 6.01315,0.0212 -5.77856,1.66333 -0.23459,-1.6845 z"
       style="fill:#000000;fill-opacity:1;fill-rule:nonzero;stroke:none"
       transform="matrix(1.3333333,0,0,-1.3333333,0,359.05467)" />
    <path
       id="path50"
       d="m 140.62808,195.3042 21.96491,-3.05887 m -5.89585,0.82108 -0.42114,0.0586 m 6.31699,-0.8797 v 0 l -5.77857,1.66333 -0.23459,-1.68451 6.01316,0.0212"
       style="fill:none;stroke:#000000;stroke-width:0.3685;stroke-linecap:round;stroke-linejoin:round;stroke-miterlimit:10;stroke-dasharray:none;stroke-opacity:1"
       transform="matrix(1.3333333,0,0,-1.3333333,0,359.05467)" />
    <path
       id="path51"
       d="m 156.57983,192.22415 6.01316,0.0212 -5.77857,1.66333 -0.23459,-1.68451 z"
       style="fill:#000000;fill-opacity:1;fill-rule:nonzero;stroke:none"
       transform="matrix(1.3333333,0,0,-1.3333333,0,359.05467)" />
    <path
       id="path52"
       d="m 176.63077,190.29041 21.96487,-3.0589 m -5.89584,0.82107 -0.42114,0.0587 m 6.31698,-0.87973 v 0 l -5.77856,1.66336 -0.23459,-1.68454 6.01315,0.0212"
       style="fill:none;stroke:#000000;stroke-width:0.3685;stroke-linecap:round;stroke-linejoin:round;stroke-miterlimit:10;stroke-dasharray:none;stroke-opacity:1"
       transform="matrix(1.3333333,0,0,-1.3333333,0,359.05467)" />
    <path
       id="path53"
       d="m 192.58249,187.21033 6.01315,0.0212 -5.77856,1.66336 -0.23459,-1.68454 z"
       style="fill:#000000;fill-opacity:1;fill-rule:nonzero;stroke:none"
       transform="matrix(1.3333333,0,0,-1.3333333,0,359.05467)" />
    <path
       id="path54"
       d="m 212.63342,185.27658 21.96491,-3.05887 m -5.89588,0.82108 -0.42114,0.0587 m 6.31702,-0.87973 v 0 l -5.77857,1.66333 -0.23459,-1.68451 6.01316,0.0212"
       style="fill:none;stroke:#000000;stroke-width:0.3685;stroke-linecap:round;stroke-linejoin:round;stroke-miterlimit:10;stroke-dasharray:none;stroke-opacity:1"
       transform="matrix(1.3333333,0,0,-1.3333333,0,359.05467)" />
    <path
       id="path55"
       d="m 228.58517,182.19653 6.01316,0.0212 -5.77857,1.66333 -0.23459,-1.68451 z"
       style="fill:#000000;fill-opacity:1;fill-rule:nonzero;stroke:none"
       transform="matrix(1.3333333,0,0,-1.3333333,0,359.05467)" />
    <path
       id="path56"
       d="m 248.63608,180.26279 21.9649,-3.05887 m -5.89587,0.82104 -0.42114,0.0587 m 6.31701,-0.8797 v 0 l -5.77856,1.66333 -0.23459,-1.68454 6.01315,0.0212"
       style="fill:none;stroke:#000000;stroke-width:0.3685;stroke-linecap:round;stroke-linejoin:round;stroke-miterlimit:10;stroke-dasharray:none;stroke-opacity:1"
       transform="matrix(1.3333333,0,0,-1.3333333,0,359.05467)" />
    <path
       id="path57"
       d="m 264.58783,177.18271 6.01315,0.0212 -5.77856,1.66333 -0.23459,-1.68454 z"
       style="fill:#000000;fill-opacity:1;fill-rule:nonzero;stroke:none"
       transform="matrix(1.3333333,0,0,-1.3333333,0,359.05467)" />
    <path
       id="path58"
       d="m 284.63873,175.24896 21.96491,-3.05887 m -5.89588,0.82108 -0.42111,0.0587 m 6.31699,-0.87973 v 0 l -5.77857,1.66333 -0.23459,-1.68451 6.01316,0.0212"
       style="fill:none;stroke:#000000;stroke-width:0.3685;stroke-linecap:round;stroke-linejoin:round;stroke-miterlimit:10;stroke-dasharray:none;stroke-opacity:1"
       transform="matrix(1.3333333,0,0,-1.3333333,0,359.05467)" />
    <path
       id="path59"
       d="m 300.59048,172.16891 6.01316,0.0212 -5.77857,1.66333 -0.23459,-1.68451 z"
       style="fill:#000000;fill-opacity:1;fill-rule:nonzero;stroke:none"
       transform="matrix(1.3333333,0,0,-1.3333333,0,359.05467)" />
    <path
       id="path60"
       d="m 61.70642,221.52942 v -15.23441 m 0,5.95276 v 0.42517 m 0,-6.37793 v 0 l 0.8504,5.95276 h -1.70077 l 0.85037,-5.95276"
       style="fill:none;stroke:#000000;stroke-width:0.3685;stroke-linecap:round;stroke-linejoin:round;stroke-miterlimit:10;stroke-dasharray:none;stroke-opacity:1"
       transform="matrix(1.3333333,0,0,-1.3333333,0,359.05467)" />
    <path
       id="path61"
       d="m 60.85605,212.24777 0.85037,-5.95276 0.8504,5.95276 z"
       style="fill:#000000;fill-opacity:1;fill-rule:nonzero;stroke:none"
       transform="matrix(1.3333333,0,0,-1.3333333,0,359.05467)" />
    <path
       id="path62"
       d="m 313.66644,186.44095 v -15.23444 m 0,5.95276 v 0.4252 m 0,-6.37796 v 0 l 0.85041,5.95276 h -1.70078 l 0.85037,-5.95276"
       style="fill:none;stroke:#000000;stroke-width:0.3685;stroke-linecap:round;stroke-linejoin:round;stroke-miterlimit:10;stroke-dasharray:none;stroke-opacity:1"
       transform="matrix(1.3333333,0,0,-1.3333333,0,359.05467)" />
    <path
       id="path63"
       d="m 312.81607,177.15927 0.85037,-5.95276 0.85041,5.95276 z"
       style="fill:#000000;fill-opacity:1;fill-rule:nonzero;stroke:none"
       transform="matrix(1.3333333,0,0,-1.3333333,0,359.05467)" />
    <path
       id="path64"
       d="m 67.07378,61.07816 21.9649,-3.05889 m -16.06904,2.23781 0.42112,-0.05864 m -6.31698,0.87972 v 0 l 6.01315,0.02119 -0.23459,-1.68452 -5.77856,1.66333"
       style="fill:none;stroke:#000000;stroke-width:0.3685;stroke-linecap:round;stroke-linejoin:round;stroke-miterlimit:10;stroke-dasharray:none;stroke-opacity:1"
       transform="matrix(1.3333333,0,0,-1.3333333,0,359.05467)" />
    <path
       id="path65"
       d="m 72.85234,59.41483 0.23459,1.68452 -6.01315,-0.02119 z"
       style="fill:#000000;fill-opacity:1;fill-rule:nonzero;stroke:none"
       transform="matrix(1.3333333,0,0,-1.3333333,0,359.05467)" />
    <path
       id="path66"
       d="m 103.07643,56.06435 21.96491,-3.05889 m -16.06905,2.23781 0.42114,-0.05864 m -6.317,0.87972 v 0 l 6.01315,0.02119 -0.23458,-1.68452 -5.77857,1.66333"
       style="fill:none;stroke:#000000;stroke-width:0.3685;stroke-linecap:round;stroke-linejoin:round;stroke-miterlimit:10;stroke-dasharray:none;stroke-opacity:1"
       transform="matrix(1.3333333,0,0,-1.3333333,0,359.05467)" />
    <path
       id="path67"
       d="m 108.855,54.40102 0.23458,1.68452 -6.01315,-0.02119 z"
       style="fill:#000000;fill-opacity:1;fill-rule:nonzero;stroke:none"
       transform="matrix(1.3333333,0,0,-1.3333333,0,359.05467)" />
    <path
       id="path68"
       d="m 139.0791,51.05054 21.96491,-3.05889 m -16.06906,2.23781 0.42114,-0.05864 m -6.31699,0.87972 v 0 l 6.01315,0.02119 -0.23458,-1.68452 -5.77857,1.66333"
       style="fill:none;stroke:#000000;stroke-width:0.3685;stroke-linecap:round;stroke-linejoin:round;stroke-miterlimit:10;stroke-dasharray:none;stroke-opacity:1"
       transform="matrix(1.3333333,0,0,-1.3333333,0,359.05467)" />
    <path
       id="path69"
       d="m 144.85767,49.38721 0.23458,1.68452 -6.01315,-0.02119 z"
       style="fill:#000000;fill-opacity:1;fill-rule:nonzero;stroke:none"
       transform="matrix(1.3333333,0,0,-1.3333333,0,359.05467)" />
    <path
       id="path70"
       d="m 175.08176,46.03673 21.9649,-3.05889 m -16.06903,2.23783 0.42111,-0.05866 m -6.31698,0.87972 v 0 l 6.01315,0.02119 -0.23459,-1.68452 -5.77856,1.66333"
       style="fill:none;stroke:#000000;stroke-width:0.3685;stroke-linecap:round;stroke-linejoin:round;stroke-miterlimit:10;stroke-dasharray:none;stroke-opacity:1"
       transform="matrix(1.3333333,0,0,-1.3333333,0,359.05467)" />
    <path
       id="path71"
       d="m 180.86032,44.3734 0.23459,1.68452 -6.01315,-0.02119 z"
       style="fill:#000000;fill-opacity:1;fill-rule:nonzero;stroke:none"
       transform="matrix(1.3333333,0,0,-1.3333333,0,359.05467)" />
    <path
       id="path72"
       d="m 211.08441,41.02292 21.96491,-3.05887 m -16.06903,2.23781 0.42111,-0.05866 m -6.31699,0.87972 v 0 l 6.01315,0.02119 -0.23458,-1.68451 -5.77857,1.66332"
       style="fill:none;stroke:#000000;stroke-width:0.3685;stroke-linecap:round;stroke-linejoin:round;stroke-miterlimit:10;stroke-dasharray:none;stroke-opacity:1"
       transform="matrix(1.3333333,0,0,-1.3333333,0,359.05467)" />
    <path
       id="path73"
       d="m 216.86298,39.3596 0.23458,1.68451 -6.01315,-0.02119 z"
       style="fill:#000000;fill-opacity:1;fill-rule:nonzero;stroke:none"
       transform="matrix(1.3333333,0,0,-1.3333333,0,359.05467)" />
    <path
       id="path74"
       d="m 247.08707,36.00911 21.9649,-3.05887 m -16.06903,2.23781 0.42114,-0.05866 m -6.31701,0.87972 v 0 l 6.01315,0.02121 -0.23459,-1.68453 -5.77856,1.66332"
       style="fill:none;stroke:#000000;stroke-width:0.3685;stroke-linecap:round;stroke-linejoin:round;stroke-miterlimit:10;stroke-dasharray:none;stroke-opacity:1"
       transform="matrix(1.3333333,0,0,-1.3333333,0,359.05467)" />
    <path
       id="path75"
       d="m 252.86563,34.34579 0.23459,1.68453 -6.01315,-0.02121 z"
       style="fill:#000000;fill-opacity:1;fill-rule:nonzero;stroke:none"
       transform="matrix(1.3333333,0,0,-1.3333333,0,359.05467)" />
    <path
       id="path76"
       d="m 283.08972,30.99532 21.96491,-3.05889 m -16.06903,2.23781 0.42114,-0.05865 m -6.31702,0.87973 v 0 l 6.01315,0.02119 -0.23458,-1.68452 -5.77857,1.66333"
       style="fill:none;stroke:#000000;stroke-width:0.3685;stroke-linecap:round;stroke-linejoin:round;stroke-miterlimit:10;stroke-dasharray:none;stroke-opacity:1"
       transform="matrix(1.3333333,0,0,-1.3333333,0,359.05467)" />
    <path
       id="path77"
       d="m 288.86829,29.33199 0.23458,1.68452 -6.01315,-0.02119 z"
       style="fill:#000000;fill-opacity:1;fill-rule:nonzero;stroke:none"
       transform="matrix(1.3333333,0,0,-1.3333333,0,359.05467)" />
    <path
       id="path78"
       d="m 68.62277,45.62801 21.96491,-3.05889 m -5.89586,0.82108 -0.42114,0.05864 m 6.317,-0.87972 v 0 l -5.77857,1.66333 -0.23459,-1.68451 6.01316,0.02118"
       style="fill:none;stroke:#000000;stroke-width:0.3685;stroke-linecap:round;stroke-linejoin:round;stroke-miterlimit:10;stroke-dasharray:none;stroke-opacity:1"
       transform="matrix(1.3333333,0,0,-1.3333333,0,359.05467)" />
    <path
       id="path79"
       d="m 84.57452,42.54794 6.01316,0.02118 -5.77857,1.66333 z"
       style="fill:#000000;fill-opacity:1;fill-rule:nonzero;stroke:none"
       transform="matrix(1.3333333,0,0,-1.3333333,0,359.05467)" />
    <path
       id="path80"
       d="m 104.62543,40.6142 21.9649,-3.05889 m -5.89586,0.82108 -0.42112,0.05864 m 6.31698,-0.87972 v 0 l -5.77856,1.66335 -0.23459,-1.68453 6.01315,0.02118"
       style="fill:none;stroke:#000000;stroke-width:0.3685;stroke-linecap:round;stroke-linejoin:round;stroke-miterlimit:10;stroke-dasharray:none;stroke-opacity:1"
       transform="matrix(1.3333333,0,0,-1.3333333,0,359.05467)" />
    <path
       id="path81"
       d="m 120.57718,37.53413 6.01315,0.02118 -5.77856,1.66335 z"
       style="fill:#000000;fill-opacity:1;fill-rule:nonzero;stroke:none"
       transform="matrix(1.3333333,0,0,-1.3333333,0,359.05467)" />
    <path
       id="path82"
       d="m 140.62808,35.60039 21.96491,-3.05889 m -5.89585,0.82108 -0.42114,0.05865 m 6.31699,-0.87973 v 0 l -5.77857,1.66335 -0.23459,-1.68453 6.01316,0.02118"
       style="fill:none;stroke:#000000;stroke-width:0.3685;stroke-linecap:round;stroke-linejoin:round;stroke-miterlimit:10;stroke-dasharray:none;stroke-opacity:1"
       transform="matrix(1.3333333,0,0,-1.3333333,0,359.05467)" />
    <path
       id="path83"
       d="m 156.57983,32.52032 6.01316,0.02118 -5.77857,1.66335 z"
       style="fill:#000000;fill-opacity:1;fill-rule:nonzero;stroke:none"
       transform="matrix(1.3333333,0,0,-1.3333333,0,359.05467)" />
    <path
       id="path84"
       d="m 176.63077,30.58658 21.96487,-3.05887 m -5.89584,0.82106 -0.42114,0.05865 m 6.31698,-0.87971 v 0 l -5.77856,1.66333 -0.23459,-1.68452 6.01315,0.02119"
       style="fill:none;stroke:#000000;stroke-width:0.3685;stroke-linecap:round;stroke-linejoin:round;stroke-miterlimit:10;stroke-dasharray:none;stroke-opacity:1"
       transform="matrix(1.3333333,0,0,-1.3333333,0,359.05467)" />
    <path
       id="path85"
       d="m 192.58249,27.50652 6.01315,0.02119 -5.77856,1.66333 z"
       style="fill:#000000;fill-opacity:1;fill-rule:nonzero;stroke:none"
       transform="matrix(1.3333333,0,0,-1.3333333,0,359.05467)" />
    <path
       id="path86"
       d="m 212.63342,25.57277 21.96491,-3.05887 m -5.89588,0.82106 -0.42114,0.05866 m 6.31702,-0.87972 v 0 l -5.77857,1.66333 -0.23459,-1.68452 6.01316,0.02119"
       style="fill:none;stroke:#000000;stroke-width:0.3685;stroke-linecap:round;stroke-linejoin:round;stroke-miterlimit:10;stroke-dasharray:none;stroke-opacity:1"
       transform="matrix(1.3333333,0,0,-1.3333333,0,359.05467)" />
    <path
       id="path87"
       d="m 228.58517,22.49271 6.01316,0.02119 -5.77857,1.66333 z"
       style="fill:#000000;fill-opacity:1;fill-rule:nonzero;stroke:none"
       transform="matrix(1.3333333,0,0,-1.3333333,0,359.05467)" />
    <path
       id="path88"
       d="m 248.63608,20.55898 21.9649,-3.05889 m -5.89587,0.82106 -0.42114,0.05866 m 6.31701,-0.87972 v 0 l -5.77856,1.66333 -0.23459,-1.68452 6.01315,0.02119"
       style="fill:none;stroke:#000000;stroke-width:0.3685;stroke-linecap:round;stroke-linejoin:round;stroke-miterlimit:10;stroke-dasharray:none;stroke-opacity:1"
       transform="matrix(1.3333333,0,0,-1.3333333,0,359.05467)" />
    <path
       id="path89"
       d="m 264.58783,17.4789 6.01315,0.02119 -5.77856,1.66333 z"
       style="fill:#000000;fill-opacity:1;fill-rule:nonzero;stroke:none"
       transform="matrix(1.3333333,0,0,-1.3333333,0,359.05467)" />
    <path
       id="path90"
       d="m 284.63873,15.54517 21.96491,-3.05889 m -5.89588,0.82108 -0.42111,0.05864 m 6.31699,-0.87972 v 0 l -5.77857,1.66333 -0.23459,-1.68452 6.01316,0.02119"
       style="fill:none;stroke:#000000;stroke-width:0.3685;stroke-linecap:round;stroke-linejoin:round;stroke-miterlimit:10;stroke-dasharray:none;stroke-opacity:1"
       transform="matrix(1.3333333,0,0,-1.3333333,0,359.05467)" />
    <path
       id="path91"
       d="m 300.59048,12.46509 6.01316,0.02119 -5.77857,1.66333 z"
       style="fill:#000000;fill-opacity:1;fill-rule:nonzero;stroke:none"
       transform="matrix(1.3333333,0,0,-1.3333333,0,359.05467)" />
    <path
       id="path92"
       d="m 335.32715,23.85274 -10.69086,-9.30518 m 4.49017,3.90817 0.32071,0.27916 m -4.81088,-4.18733 v 0 l 5.04849,3.26673 -1.11663,1.28289 -3.93186,-4.54962"
       style="fill:none;stroke:#000000;stroke-width:0.3685;stroke-linecap:round;stroke-linejoin:round;stroke-miterlimit:10;stroke-dasharray:none;stroke-opacity:1"
       transform="matrix(1.3333333,0,0,-1.3333333,0,359.05467)" />
    <path
       id="path93"
       d="m 328.56815,19.09718 -3.93186,-4.54962 5.04849,3.26673 z"
       style="fill:#000000;fill-opacity:1;fill-rule:nonzero;stroke:none"
       transform="matrix(1.3333333,0,0,-1.3333333,0,359.05467)" />
    <path
       id="path94"
       d="m 352.4325,38.74103 -10.69086,-9.30518 m 4.49017,3.90817 0.32071,0.27916 m -4.81088,-4.18733 v 0 l 5.04846,3.26673 -1.11661,1.28289 -3.93185,-4.54962"
       style="fill:none;stroke:#000000;stroke-width:0.3685;stroke-linecap:round;stroke-linejoin:round;stroke-miterlimit:10;stroke-dasharray:none;stroke-opacity:1"
       transform="matrix(1.3333333,0,0,-1.3333333,0,359.05467)" />
    <path
       id="path95"
       d="m 345.67349,33.98547 -3.93185,-4.54962 5.04846,3.26673 z"
       style="fill:#000000;fill-opacity:1;fill-rule:nonzero;stroke:none"
       transform="matrix(1.3333333,0,0,-1.3333333,0,359.05467)" />
    <path
       id="path96"
       d="m 369.53781,53.62932 -10.69083,-9.30518 m 4.49015,3.90818 0.32074,0.27915 m -4.81089,-4.18733 v 0 l 5.04847,3.26673 -1.11661,1.28289 -3.93186,-4.54962"
       style="fill:none;stroke:#000000;stroke-width:0.3685;stroke-linecap:round;stroke-linejoin:round;stroke-miterlimit:10;stroke-dasharray:none;stroke-opacity:1"
       transform="matrix(1.3333333,0,0,-1.3333333,0,359.05467)" />
    <path
       id="path97"
       d="m 362.77884,48.87376 -3.93186,-4.54962 5.04847,3.26673 z"
       style="fill:#000000;fill-opacity:1;fill-rule:nonzero;stroke:none"
       transform="matrix(1.3333333,0,0,-1.3333333,0,359.05467)" />
    <path
       id="path98"
       d="m 386.64316,68.51761 -10.69083,-9.30518 m 4.49014,3.90818 0.32074,0.27916 m -4.81088,-4.18734 v 0 l 5.04846,3.26673 -1.1166,1.28289 -3.93186,-4.54962"
       style="fill:none;stroke:#000000;stroke-width:0.3685;stroke-linecap:round;stroke-linejoin:round;stroke-miterlimit:10;stroke-dasharray:none;stroke-opacity:1"
       transform="matrix(1.3333333,0,0,-1.3333333,0,359.05467)" />
    <path
       id="path99"
       d="m 379.88419,63.76205 -3.93186,-4.54962 5.04846,3.26673 z"
       style="fill:#000000;fill-opacity:1;fill-rule:nonzero;stroke:none"
       transform="matrix(1.3333333,0,0,-1.3333333,0,359.05467)" />
    <path
       id="path100"
       d="m 403.7485,83.4059 -10.69082,-9.30518 m 4.49014,3.90818 0.32074,0.27916 m -4.81088,-4.18734 v 0 l 5.04846,3.26673 -1.11664,1.28289 -3.93182,-4.54962"
       style="fill:none;stroke:#000000;stroke-width:0.3685;stroke-linecap:round;stroke-linejoin:round;stroke-miterlimit:10;stroke-dasharray:none;stroke-opacity:1"
       transform="matrix(1.3333333,0,0,-1.3333333,0,359.05467)" />
    <path
       id="path101"
       d="m 396.9895,78.65034 -3.93182,-4.54962 5.04846,3.26673 z"
       style="fill:#000000;fill-opacity:1;fill-rule:nonzero;stroke:none"
       transform="matrix(1.3333333,0,0,-1.3333333,0,359.05467)" />
    <path
       id="path102"
       d="M 420.85385,98.29419 410.16302,88.989 m 4.49015,3.90819 0.32071,0.27914 M 410.16302,88.989 v 0 l 5.04847,3.26674 -1.11664,1.28288 -3.93183,-4.54962"
       style="fill:none;stroke:#000000;stroke-width:0.3685;stroke-linecap:round;stroke-linejoin:round;stroke-miterlimit:10;stroke-dasharray:none;stroke-opacity:1"
       transform="matrix(1.3333333,0,0,-1.3333333,0,359.05467)" />
    <path
       id="path103"
       d="m 414.09485,93.53862 -3.93183,-4.54962 5.04847,3.26674 z"
       style="fill:#000000;fill-opacity:1;fill-rule:nonzero;stroke:none"
       transform="matrix(1.3333333,0,0,-1.3333333,0,359.05467)" />
    <path
       id="path104"
       d="m 335.32715,40.75493 -10.69086,-9.30519 m 6.20072,5.397 -0.32074,-0.27914 m 4.81088,4.18733 v 0 l -3.93186,-4.54964 -1.1166,1.2829 5.04846,3.26674"
       style="fill:none;stroke:#000000;stroke-width:0.3685;stroke-linecap:round;stroke-linejoin:round;stroke-miterlimit:10;stroke-dasharray:none;stroke-opacity:1"
       transform="matrix(1.3333333,0,0,-1.3333333,0,359.05467)" />
    <path
       id="path105"
       d="m 330.27869,37.48819 1.1166,-1.2829 3.93186,4.54964 z"
       style="fill:#000000;fill-opacity:1;fill-rule:nonzero;stroke:none"
       transform="matrix(1.3333333,0,0,-1.3333333,0,359.05467)" />
    <path
       id="path106"
       d="m 352.4325,55.6432 -10.69086,-9.30517 m 6.20068,5.397 -0.32071,-0.27914 m 4.81089,4.18731 v 0 l -3.93186,-4.54962 -1.11661,1.2829 5.04847,3.26672"
       style="fill:none;stroke:#000000;stroke-width:0.3685;stroke-linecap:round;stroke-linejoin:round;stroke-miterlimit:10;stroke-dasharray:none;stroke-opacity:1"
       transform="matrix(1.3333333,0,0,-1.3333333,0,359.05467)" />
    <path
       id="path107"
       d="m 347.38403,52.37648 1.11661,-1.2829 3.93186,4.54962 z"
       style="fill:#000000;fill-opacity:1;fill-rule:nonzero;stroke:none"
       transform="matrix(1.3333333,0,0,-1.3333333,0,359.05467)" />
    <path
       id="path108"
       d="m 369.53781,70.53149 -10.69083,-9.30517 m 6.20069,5.397 -0.32071,-0.27914 m 4.81085,4.18731 v 0 l -3.93182,-4.54962 -1.11661,1.2829 5.04843,3.26672"
       style="fill:none;stroke:#000000;stroke-width:0.3685;stroke-linecap:round;stroke-linejoin:round;stroke-miterlimit:10;stroke-dasharray:none;stroke-opacity:1"
       transform="matrix(1.3333333,0,0,-1.3333333,0,359.05467)" />
    <path
       id="path109"
       d="m 364.48938,67.26477 1.11661,-1.2829 3.93182,4.54962 z"
       style="fill:#000000;fill-opacity:1;fill-rule:nonzero;stroke:none"
       transform="matrix(1.3333333,0,0,-1.3333333,0,359.05467)" />
    <path
       id="path110"
       d="m 386.64316,85.41978 -10.69083,-9.30517 m 6.20069,5.397 -0.32074,-0.27916 m 4.81088,4.18733 v 0 l -3.93183,-4.54962 -1.11663,1.2829 5.04846,3.26672"
       style="fill:none;stroke:#000000;stroke-width:0.3685;stroke-linecap:round;stroke-linejoin:round;stroke-miterlimit:10;stroke-dasharray:none;stroke-opacity:1"
       transform="matrix(1.3333333,0,0,-1.3333333,0,359.05467)" />
    <path
       id="path111"
       d="m 381.5947,82.15306 1.11663,-1.2829 3.93183,4.54962 z"
       style="fill:#000000;fill-opacity:1;fill-rule:nonzero;stroke:none"
       transform="matrix(1.3333333,0,0,-1.3333333,0,359.05467)" />
    <path
       id="path112"
       d="M 403.7485,100.30807 393.05768,91.0029 m 6.20068,5.397 -0.32074,-0.27916 m 4.81088,4.18733 v 0 l -3.93182,-4.54962 -1.11664,1.2829 5.04846,3.26672"
       style="fill:none;stroke:#000000;stroke-width:0.3685;stroke-linecap:round;stroke-linejoin:round;stroke-miterlimit:10;stroke-dasharray:none;stroke-opacity:1"
       transform="matrix(1.3333333,0,0,-1.3333333,0,359.05467)" />
    <path
       id="path113"
       d="m 398.70004,97.04135 1.11664,-1.2829 3.93182,4.54962 z"
       style="fill:#000000;fill-opacity:1;fill-rule:nonzero;stroke:none"
       transform="matrix(1.3333333,0,0,-1.3333333,0,359.05467)" />
    <path
       id="path114"
       d="m 420.85385,115.19637 -10.69083,-9.30518 m 6.20069,5.397 -0.32074,-0.27916 m 4.81088,4.18734 v 0 l -3.93185,-4.54963 -1.11661,1.28289 5.04846,3.26674"
       style="fill:none;stroke:#000000;stroke-width:0.3685;stroke-linecap:round;stroke-linejoin:round;stroke-miterlimit:10;stroke-dasharray:none;stroke-opacity:1"
       transform="matrix(1.3333333,0,0,-1.3333333,0,359.05467)" />
    <path
       id="path115"
       d="m 415.80539,111.92963 1.11661,-1.28289 3.93185,4.54963 z"
       style="fill:#000000;fill-opacity:1;fill-rule:nonzero;stroke:none"
       transform="matrix(1.3333333,0,0,-1.3333333,0,359.05467)" />
    <path
       id="path116"
       d="M 187.68646,196.36798 V 174.1911 m 0,5.95276 v 0.4252 m 0,-6.37796 v 0 l 0.85037,5.95276 h -1.70077 l 0.8504,-5.95276"
       style="fill:none;stroke:#000000;stroke-width:0.3685;stroke-linecap:round;stroke-linejoin:round;stroke-miterlimit:10;stroke-dasharray:none;stroke-opacity:1"
       transform="matrix(1.3333333,0,0,-1.3333333,0,359.05467)" />
    <path
       id="path117"
       d="m 186.83606,180.14386 0.8504,-5.95276 0.85037,5.95276 z"
       style="fill:#000000;fill-opacity:1;fill-rule:nonzero;stroke:none"
       transform="matrix(1.3333333,0,0,-1.3333333,0,359.05467)" />
    <path
       id="path118"
       d="m 187.68646,196.36798 21.96488,-3.0589 m -5.89585,0.82108 -0.42114,0.0587 m 6.31699,-0.87973 v 0 l -5.77857,1.66336 -0.23459,-1.68454 6.01316,0.0212"
       style="fill:none;stroke:#000000;stroke-width:0.3685;stroke-linecap:round;stroke-linejoin:round;stroke-miterlimit:10;stroke-dasharray:none;stroke-opacity:1"
       transform="matrix(1.3333333,0,0,-1.3333333,0,359.05467)" />
    <path
       id="path119"
       d="m 203.63818,193.2879 6.01316,0.0212 -5.77857,1.66336 -0.23459,-1.68454 z"
       style="fill:#000000;fill-opacity:1;fill-rule:nonzero;stroke:none"
       transform="matrix(1.3333333,0,0,-1.3333333,0,359.05467)" />
    <path
       id="path120"
       d="m 187.68646,196.36798 -16.72799,-14.55984 m 4.49017,3.90817 0.32071,0.27917 m -4.81088,-4.18734 v 0 l 5.04846,3.26672 -1.11661,1.2829 -3.93185,-4.54962"
       style="fill:none;stroke:#000000;stroke-width:0.3685;stroke-linecap:round;stroke-linejoin:round;stroke-miterlimit:10;stroke-dasharray:none;stroke-opacity:1"
       transform="matrix(1.3333333,0,0,-1.3333333,0,359.05467)" />
    <path
       id="path121"
       d="m 174.89032,186.35776 -3.93185,-4.54962 5.04846,3.26672 z"
       style="fill:#000000;fill-opacity:1;fill-rule:nonzero;stroke:none"
       transform="matrix(1.3333333,0,0,-1.3333333,0,359.05467)" />
    <path
       id="path122"
       d="m 56.09132,262.76938 263.19024,-36.65244 m -263.19024,36.65244 3.1585,-0.43985 m -3.1585,0.43985 v 0 l 3.00658,0.0106 -0.11729,-0.84226 -2.88929,0.83167 m 263.19024,-36.65244 -3.15848,0.43988 m 3.15848,-0.43988 v 0 l -2.88929,0.8317 -0.11728,-0.84229 3.00657,0.0106 M 10.2354,74.66287 115.51149,166.29395 M 10.2354,74.66287 12.64084,76.75655 M 10.2354,74.66287 v 0 l 1.96591,2.27481 0.55832,-0.64143 -2.52423,-1.63338 m 105.27609,91.63108 -2.40544,-2.09366 m 2.40544,2.09366 v 0 l -2.52423,-1.63337 0.5583,-0.64141 1.96593,2.27478 M 10.2354,74.66287 V 48.08986 m 0,26.57301 v -3.18896 m 0,3.18896 v 0 l 0.4252,-2.97638 H 9.8102 l 0.4252,2.97638 m 0,-26.57301 v 3.18898 m 0,-3.18898 v 0 l 0.4252,2.97638 H 9.8102 l 0.4252,-2.97638 m 0,186.27684 v -26.57303 m 0,26.57303 v -3.189 m 0,3.189 v 0 l 0.4252,-2.97638 H 9.8102 l 0.4252,2.97638 m 0,-26.57303 v 3.189 m 0,-3.189 v 0 l 0.4252,2.97638 H 9.8102 l 0.4252,-2.97638 m 45.85592,28.27048 v 29.43686 m 263.19024,-66.0893 v 29.43689"
       style="fill:none;stroke:#000000;stroke-width:0.3685;stroke-linecap:round;stroke-linejoin:round;stroke-miterlimit:10;stroke-dasharray:none;stroke-opacity:1"
       transform="matrix(1.3333333,0,0,-1.3333333,0,359.05467)" />
  </g>
</svg>
