<?xml version="1.0" encoding="UTF-8" standalone="no"?>
<!-- Created with Inkscape (http://www.inkscape.org/) -->

<svg
   version="1.1"
   id="svg1"
   width="566.92932"
   height="226.772"
   viewBox="0 0 566.92932 226.772"
   sodipodi:docname="allg_feder.pdf"
   xmlns:inkscape="http://www.inkscape.org/namespaces/inkscape"
   xmlns:sodipodi="http://sodipodi.sourceforge.net/DTD/sodipodi-0.dtd"
   xmlns="http://www.w3.org/2000/svg"
   xmlns:svg="http://www.w3.org/2000/svg">
  <defs
     id="defs1">
    <clipPath
       clipPathUnits="userSpaceOnUse"
       id="clipPath21">
      <path
         d="M -0.00426,-0.00169 V 170.08044 H 425.20111 V -0.00169 H -0.00426"
         transform="matrix(1,0,0,-1,-201.27069,155.94514)"
         clip-rule="evenodd"
         id="path21" />
    </clipPath>
    <clipPath
       clipPathUnits="userSpaceOnUse"
       id="clipPath22">
      <path
         d="M -0.00426,-0.00169 V 170.08044 H 425.20111 V -0.00169 H -0.00426"
         transform="matrix(1,0,0,-1,-204.26617,151.81128)"
         clip-rule="evenodd"
         id="path22" />
    </clipPath>
    <clipPath
       clipPathUnits="userSpaceOnUse"
       id="clipPath26">
      <path
         d="M -0.00426,-0.00169 V 170.08044 H 425.20111 V -0.00169 H -0.00426"
         transform="matrix(1,0,0,-1,-137.74842,13.302488)"
         clip-rule="evenodd"
         id="path26" />
    </clipPath>
    <clipPath
       clipPathUnits="userSpaceOnUse"
       id="clipPath27">
      <path
         d="M -0.00426,-0.00169 V 170.08044 H 425.20111 V -0.00169 H -0.00426"
         transform="matrix(1,0,0,-1,-117.13818,95.507213)"
         clip-rule="evenodd"
         id="path27" />
    </clipPath>
  </defs>
  <sodipodi:namedview
     id="namedview1"
     pagecolor="#ffffff"
     bordercolor="#000000"
     borderopacity="0.25"
     inkscape:showpageshadow="2"
     inkscape:pageopacity="0.0"
     inkscape:pagecheckerboard="0"
     inkscape:deskcolor="#d1d1d1">
    <inkscape:page
       x="0"
       y="0"
       inkscape:label="1"
       id="page1"
       width="566.92932"
       height="226.772"
       margin="0"
       bleed="0" />
  </sodipodi:namedview>
  <path
     id="path1"
     d="M -0.00426,121.12711 H 425.20111 M 0,118.29245 h 4.25197 m 2.83464,0 h 4.25197 m 2.83465,0 h 4.25197 m 2.83464,0 h 4.25197 m 2.83464,0 h 4.25198 m 2.83464,0 h 4.25197 m 2.83464,0 h 4.25197 m 2.83466,0 h 4.25197 m 2.83464,0 h 4.25197 m 2.83464,0 h 4.25196 m 2.83466,0 h 4.25197 m 2.83464,0 h 4.25197 m 2.83464,0 h 4.25197 m 2.83465,0 h 4.25197 m 2.83464,0 h 4.25197 m 2.83464,0 h 4.25197 m 2.83465,0 h 4.25197 m 2.83464,0 h 4.25197 m 2.83464,0 h 4.25199 m 2.83465,0 h 4.25195 m 2.83466,0 h 4.25195 m 2.83466,0 h 4.25195 m 2.83466,0 h 4.25198 m 2.83463,0 h 4.25198 m 2.83463,0 h 4.25198 m 2.83465,0 h 4.25196 m 2.83465,0 h 4.25196 m 2.83465,0 h 4.25196 m 2.83465,0 h 4.25199 m 2.83462,0 h 4.25198 m 2.83463,0 h 4.25198 m 2.83466,0 h 4.25195 m 2.83466,0 h 4.25195 m 2.83466,0 h 4.25195 m 2.83466,0 h 4.25198 m 2.83462,0 h 4.25199 m 2.83462,0 h 4.25199 m 2.83462,0 h 4.25199 m 2.83465,0 h 4.25195 m 2.83466,0 h 4.25195 m 2.83466,0 h 4.25195 m 2.83466,0 h 4.25198 m 2.83463,0 h 4.25198 m 2.83463,0 h 4.25198 m 2.83466,0 h 4.25195 m 2.83465,0 h 4.25196 m 2.83465,0 h 4.25196 m 2.83465,0 h 4.25199 m 2.83462,0 h 4.25198"
     style="fill:none;stroke:#000000;stroke-width:0.3685;stroke-linecap:round;stroke-linejoin:round;stroke-miterlimit:10;stroke-dasharray:none;stroke-opacity:1"
     transform="matrix(1.3333333,0,0,-1.3333333,0,226.772)" />
  <path
     id="path2"
     d="m 347.24408,118.29245 h 4.25198 m 2.83466,0 h 4.25195 m 2.83466,0 h 4.25195 m 2.83466,0 h 4.25198 m 2.83463,0 h 4.25198 m 2.83462,0 h 4.25199 m 2.83465,0 h 4.25196 m 2.83465,0 h 4.25196 m 2.83465,0 h 4.25195 m 2.83466,0 h 4.25198 m 2.83463,0 h 4.25198 m 2.83463,0 h 0.004 M 214.22452,51.99541 V 29.31824 m 28.34647,22.67717 V 29.31824 m 28.34643,22.67717 V 29.31824 m -5.66928,22.67717 h 5.66928 m 0,-22.67717 h 8.50394 l -14.17322,22.67717 m -51.02362,0 v 1.86287 m 0,2.26771 v 2.83464 m 0,2.26772 V 64.063 m 0,2.26772 v 0.12138 m 0,-14.45669 v 0 m 0,14.45669 v 0 m 28.34647,-14.45669 v 1.86287 m 0,2.26771 v 2.83464 m 0,2.26772 V 64.063 m 0,2.26772 v 0.12138 m 0,-14.45669 v 0 m 0,14.45669 v 0 m 28.34643,-14.45669 v 1.86287 m 0,2.26771 v 2.83464 m 0,2.26772 V 64.063 m 0,2.26772 v 0.12138 m 0,-14.45669 v 0 m 0,14.45669 v 0 M 147.07935,77.68634 h 59.18366 m 11.68249,0 h 59.52753 m -65.19684,5.6693 v 2.83464 m 82.23215,-8.50394 h 59.18368 m 11.68247,0 h 59.52755 m -65.19684,5.6693 v 2.83464 M 10.10286,51.99541 V 29.31824 h 5.6693 L 4.43358,51.99541 h 5.66928 m 113.38583,0 V 29.31824 m -5.66928,22.67717 h 5.66928 m 0,-22.67717 h 8.50396 l -14.17324,22.67717"
     style="fill:none;stroke:#000000;stroke-width:0.3685;stroke-linecap:round;stroke-linejoin:round;stroke-miterlimit:10;stroke-dasharray:none;stroke-opacity:1"
     transform="matrix(1.3333333,0,0,-1.3333333,0,226.772)" />
  <path
     id="path3"
     d="m 10.10286,51.99541 v 1.86287 m 0,2.26771 v 2.83464 m 0,2.26772 V 64.063 m 0,2.26772 v 0.12138 m 0,-14.45669 v 0 m 0,14.45669 v 0 M 123.48869,51.99541 v 1.86287 m 0,2.26771 v 2.83464 m 0,2.26772 V 64.063 m 0,2.26772 v 0.12138 m 0,-14.45669 v 0 m 0,14.45669 v 0 M -0.00426,77.68634 h 58.83852 m 11.68248,0 h 59.52757 m -65.19685,5.6693 v 2.83464 m 76.56285,-14.17322 v -5.6693 m -5.69672,5.6693 v -5.6693 m 147.42902,5.6693 v -5.6693 m 5.69671,5.6693 v -5.6693 M 95.14224,51.99541 V 29.31824 m -5.66929,22.67717 h 5.66929 m 0,-22.67717 h 8.50394 L 89.47295,51.99541 m 5.66929,0 v 1.86287 m 0,2.26771 v 2.83464 m 0,2.26772 V 64.063 m 0,2.26772 v 0.12138 m 0,-14.45669 v 0 m 0,14.45669 v 0 M 66.79579,51.99541 V 29.31824 M 61.1265,51.99541 h 5.66929 m 0,-22.67717 h 8.50394 L 61.1265,51.99541 m 5.66929,0 v 1.86287 m 0,2.26771 v 2.83464 m 0,2.26772 V 64.063 m 0,2.26772 v 0.12138 m 0,-14.45669 v 0 m 0,14.45669 v 0 M 38.44933,51.99541 V 29.31824 m -5.6693,22.67717 h 5.6693 m 0,-22.67717 h 8.50393 L 32.78003,51.99541 m 5.6693,0 v 1.86287 m 0,2.26771 v 2.83464 m 0,2.26772 V 64.063 m 0,2.26772 v 0.12138 m 0,-14.45669 v 0 m 0,14.45669 v 0 M 200.05157,51.99541 h 14.17322"
     style="fill:none;stroke:#000000;stroke-width:0.3685;stroke-linecap:round;stroke-linejoin:round;stroke-miterlimit:10;stroke-dasharray:none;stroke-opacity:1"
     transform="matrix(1.3333333,0,0,-1.3333333,0,226.772)" />
  <path
     id="path4"
     d="m 214.22479,29.31824 h 17.00788 l -31.1811,22.67717 m 31.1811,0 h 11.33859 m 0,-22.67717 h 11.33859 l -22.67718,22.67717 m -45.35434,0 V 29.31824 m 0,22.67717 v 1.86287 m 0,2.26771 v 2.83464 m 0,2.26772 V 64.063 m 0,2.26772 v 0.12138 m 0,-14.45669 v 0 m 0,14.45669 v 0 M 174.53976,51.99541 h 11.33857 m 0,-22.67717 h 11.33859 l -22.67716,22.67717 m -17.00787,0 V 29.31824 m -5.66931,22.67717 h 5.66931 m 0,-22.67717 h 8.50394 l -14.17325,22.67717 m 5.66931,0 v 1.86287 m 0,2.26771 v 2.83464 m 0,2.26772 V 64.063 m 0,2.26772 v 0.12138 m 0,-14.45669 v 0 m 0,14.45669 v 0 M 304.96088,51.99541 V 29.31824 h 5.66931 L 299.2916,51.99541 h 5.66928 m 113.38583,0 V 29.31824 m -5.66928,22.67717 h 5.66928 m -113.38583,0 v 1.86287 m 0,2.26771 v 2.83464 m 0,2.26772 V 64.063 m 0,2.26772 v 0.12138 m 0,-14.45669 v 0 m 0,14.45669 v 0 M 418.34671,51.99541 v 1.86287 m 0,2.26771 v 2.83464 m 0,2.26772 V 64.063 m 0,2.26772 v 0.12138 m 0,-14.45669 v 0 m 0,14.45669 v 0 M 390.00024,51.99541 V 29.31824 m -5.66928,22.67717 h 5.66928 m 0,-22.67717 h 8.50394 l -14.17322,22.67717 m 5.66928,0 v 1.86287 m 0,2.26771 v 2.83464 m 0,2.26772 V 64.063"
     style="fill:none;stroke:#000000;stroke-width:0.3685;stroke-linecap:round;stroke-linejoin:round;stroke-miterlimit:10;stroke-dasharray:none;stroke-opacity:1"
     transform="matrix(1.3333333,0,0,-1.3333333,0,226.772)" />
  <path
     id="path5"
     d="m 390.00024,66.33072 v 0.12138 m 0,-14.45669 v 0 m 0,14.45669 v 0 M 361.65381,51.99541 V 29.31824 m -5.66931,22.67717 h 5.66931 m 0,-22.67717 h 8.50394 L 355.9845,51.99541 m 5.66931,0 v 1.86287 m 0,2.26771 v 2.83464 m 0,2.26772 V 64.063 m 0,2.26772 v 0.12138 m 0,-14.45669 v 0 m 0,14.45669 v 0 M 333.30734,51.99541 V 29.31824 m -5.66928,22.67717 h 5.66928 m 0,-22.67717 h 8.50394 l -14.17322,22.67717 m 5.66928,0 v 1.86287 m 0,2.26771 v 2.83464 m 0,2.26772 V 64.063 m 0,2.26772 v 0.12138 m 0,-14.45669 v 0 m 0,14.45669 v 0 m 85.03937,-37.13386 h 5.66928 l -11.33856,22.67717"
     style="fill:none;stroke:#000000;stroke-width:0.3685;stroke-linecap:round;stroke-linejoin:round;stroke-miterlimit:10;stroke-dasharray:none;stroke-opacity:1"
     transform="matrix(1.3333333,0,0,-1.3333333,0,226.772)" />
  <path
     id="path6"
     d="m 147.07962,77.68634 c -3.13107,0 -5.66931,-2.53822 -5.66931,-5.66928"
     style="fill:none;stroke:#000000;stroke-width:0.3685;stroke-linecap:round;stroke-linejoin:round;stroke-miterlimit:10;stroke-dasharray:none;stroke-opacity:1"
     transform="matrix(1.3333333,0,0,-1.3333333,0,226.772)" />
  <path
     id="path7"
     d="m 283.14261,72.01706 c 0,3.13106 -2.53824,5.66928 -5.66931,5.66928"
     style="fill:none;stroke:#000000;stroke-width:0.3685;stroke-linecap:round;stroke-linejoin:round;stroke-miterlimit:10;stroke-dasharray:none;stroke-opacity:1"
     transform="matrix(1.3333333,0,0,-1.3333333,0,226.772)" />
  <path
     id="path8"
     d="m 206.26328,77.68634 c 3.32098,0 6.01318,2.6922 6.01318,6.0132"
     style="fill:none;stroke:#000000;stroke-width:0.3685;stroke-linecap:round;stroke-linejoin:round;stroke-miterlimit:10;stroke-dasharray:none;stroke-opacity:1"
     transform="matrix(1.3333333,0,0,-1.3333333,0,226.772)" />
  <path
     id="path9"
     d="m 212.27646,83.35564 c 0,-3.13106 2.53824,-5.6693 5.66931,-5.6693"
     style="fill:none;stroke:#000000;stroke-width:0.3685;stroke-linecap:round;stroke-linejoin:round;stroke-miterlimit:10;stroke-dasharray:none;stroke-opacity:1"
     transform="matrix(1.3333333,0,0,-1.3333333,0,226.772)" />
  <path
     id="path10"
     d="m 294.50861,77.68634 c -3.13105,0 -5.66929,-2.53822 -5.66929,-5.66928"
     style="fill:none;stroke:#000000;stroke-width:0.3685;stroke-linecap:round;stroke-linejoin:round;stroke-miterlimit:10;stroke-dasharray:none;stroke-opacity:1"
     transform="matrix(1.3333333,0,0,-1.3333333,0,226.772)" />
  <path
     id="path11"
     d="m 425.20111,77.67847 c -0.0995,0.0052 -0.19916,0.0079 -0.2988,0.0079"
     style="fill:none;stroke:#000000;stroke-width:0.3685;stroke-linecap:round;stroke-linejoin:round;stroke-miterlimit:10;stroke-dasharray:none;stroke-opacity:1"
     transform="matrix(1.3333333,0,0,-1.3333333,0,226.772)" />
  <path
     id="path12"
     d="m 353.69229,77.68634 c 3.32099,0 6.01318,2.6922 6.01318,6.0132"
     style="fill:none;stroke:#000000;stroke-width:0.3685;stroke-linecap:round;stroke-linejoin:round;stroke-miterlimit:10;stroke-dasharray:none;stroke-opacity:1"
     transform="matrix(1.3333333,0,0,-1.3333333,0,226.772)" />
  <path
     id="path13"
     d="m 359.70547,83.35564 c 0,-3.13106 2.53821,-5.6693 5.66929,-5.6693"
     style="fill:none;stroke:#000000;stroke-width:0.3685;stroke-linecap:round;stroke-linejoin:round;stroke-miterlimit:10;stroke-dasharray:none;stroke-opacity:1"
     transform="matrix(1.3333333,0,0,-1.3333333,0,226.772)" />
  <path
     id="path14"
     d="m 135.71359,72.01706 c 0,3.13106 -2.53821,5.66928 -5.66928,5.66928"
     style="fill:none;stroke:#000000;stroke-width:0.3685;stroke-linecap:round;stroke-linejoin:round;stroke-miterlimit:10;stroke-dasharray:none;stroke-opacity:1"
     transform="matrix(1.3333333,0,0,-1.3333333,0,226.772)" />
  <path
     id="path15"
     d="m 58.83426,77.68634 c 3.321,0 6.0132,2.6922 6.0132,6.0132"
     style="fill:none;stroke:#000000;stroke-width:0.3685;stroke-linecap:round;stroke-linejoin:round;stroke-miterlimit:10;stroke-dasharray:none;stroke-opacity:1"
     transform="matrix(1.3333333,0,0,-1.3333333,0,226.772)" />
  <path
     id="path16"
     d="m 64.84746,83.35564 c 0,-3.13106 2.53822,-5.6693 5.66928,-5.6693"
     style="fill:none;stroke:#000000;stroke-width:0.3685;stroke-linecap:round;stroke-linejoin:round;stroke-miterlimit:10;stroke-dasharray:none;stroke-opacity:1"
     transform="matrix(1.3333333,0,0,-1.3333333,0,226.772)" />
  <g
     id="layer-MC0"
     inkscape:groupmode="layer"
     inkscape:label="STABBEANSPR_DIAG">
    <path
       id="path17"
       d="m 70.51674,121.12711 -0.08612,0.98445 -0.25577,0.95456 -0.41765,0.89563 -0.56682,0.80951 -0.69877,0.69877 -0.80951,0.56682 -0.89563,0.41765 -0.95456,0.25577 -0.98445,0.0861 -0.98447,-0.0861 -0.95456,-0.25577 -0.89563,-0.41765 -0.80949,-0.56682 -0.69879,-0.69877 -0.56682,-0.80951 -0.41763,-0.89563 -0.25579,-0.95456 -0.08612,-0.98445 0.08612,-0.98447 0.25579,-0.95454 0.41763,-0.89565 0.56682,-0.80949 0.69879,-0.6988 0.80949,-0.56681 0.89563,-0.41764 0.95456,-0.25578 0.98447,-0.0861 0.98445,0.0861 0.95456,0.25578 0.89563,0.41764 0.80951,0.56681 0.69877,0.6988 0.56682,0.80949 0.41765,0.89565 0.25577,0.95454 z"
       style="fill:#e0e0e0;fill-opacity:1;fill-rule:nonzero;stroke:none"
       transform="matrix(1.3333333,0,0,-1.3333333,0,226.772)" />
    <path
       id="path18"
       d="m 217.94577,121.12711 -0.0862,0.98445 -0.25577,0.95456 -0.41763,0.89563 -0.56684,0.80951 -0.69876,0.69877 -0.80951,0.56682 -0.89563,0.41765 -0.95455,0.25577 -0.98447,0.0861 -0.98447,-0.0861 -0.95453,-0.25577 -0.89563,-0.41765 -0.80951,-0.56682 -0.69879,-0.69877 -0.5668,-0.80951 -0.41766,-0.89563 -0.25577,-0.95456 -0.0861,-0.98445 0.0861,-0.98447 0.25577,-0.95454 0.41766,-0.89565 0.5668,-0.80949 0.69879,-0.6988 0.80951,-0.56681 0.89563,-0.41764 0.95453,-0.25578 0.98447,-0.0861 0.98447,0.0861 0.95455,0.25578 0.89563,0.41764 0.80951,0.56681 0.69876,0.6988 0.56684,0.80949 0.41763,0.89565 0.25577,0.95454 z"
       style="fill:#e0e0e0;fill-opacity:1;fill-rule:nonzero;stroke:none"
       transform="matrix(1.3333333,0,0,-1.3333333,0,226.772)" />
    <path
       id="path19"
       d="m 365.37476,121.12711 -0.0861,0.98445 -0.25577,0.95456 -0.41767,0.89563 -0.5668,0.80951 -0.69879,0.69877 -0.80951,0.56682 -0.89563,0.41765 -0.95453,0.25577 -0.98447,0.0861 -0.98446,-0.0861 -0.95456,-0.25577 -0.89563,-0.41765 -0.80951,-0.56682 -0.69876,-0.69877 -0.56683,-0.80951 -0.41764,-0.89563 -0.25577,-0.95456 -0.0862,-0.98445 0.0862,-0.98447 0.25577,-0.95454 0.41764,-0.89565 0.56683,-0.80949 0.69876,-0.6988 0.80951,-0.56681 0.89563,-0.41764 0.95456,-0.25578 0.98446,-0.0861 0.98447,0.0861 0.95453,0.25578 0.89563,0.41764 0.80951,0.56681 0.69879,0.6988 0.5668,0.80949 0.41767,0.89565 0.25577,0.95454 z"
       style="fill:#e0e0e0;fill-opacity:1;fill-rule:nonzero;stroke:none"
       transform="matrix(1.3333333,0,0,-1.3333333,0,226.772)" />
  </g>
  <path
     id="path20"
     d="m 141.41031,147.70279 2.97638,0.4252 v -0.85037 l -2.97638,0.42517 m 141.7323,0 -2.97638,0.4252 v -0.85037 l 2.97638,0.42517 m -141.7323,0 v 2.12598 m 0,-2.12598 v -2.12598 m 141.7323,2.12598 v 2.12598 m 0,-2.12598 v -2.12598 m -141.7323,2.12598 v -17.00787 m 141.7323,17.00787 v -17.00787 m -141.7323,17.00787 v 0 m 141.7323,0 v 0 m -141.7323,0 h 141.7323"
     style="fill:none;stroke:#000000;stroke-width:0.3685;stroke-linecap:round;stroke-linejoin:round;stroke-miterlimit:10;stroke-dasharray:none;stroke-opacity:1"
     transform="matrix(1.3333333,0,0,-1.3333333,0,226.772)" />
  <text
     id="text20"
     xml:space="preserve"
     transform="matrix(1.3333333,0,0,1.3333333,268.36091,18.845147)"
     clip-path="url(#clipPath21)"><tspan
       style="font-style:italic;font-variant:normal;font-weight:normal;font-stretch:normal;font-size:10.0071px;font-family:'Palatino Linotype';writing-mode:lr-tb;fill:#000000;fill-opacity:1;fill-rule:nonzero;stroke:none"
       x="0"
       y="0"
       id="tspan20">l</tspan></text>
  <text
     id="text21"
     xml:space="preserve"
     transform="matrix(1.3333333,0,0,1.3333333,272.35488,24.35696)"
     clip-path="url(#clipPath22)"><tspan
       style="font-style:italic;font-variant:normal;font-weight:normal;font-stretch:normal;font-size:6.00428px;font-family:'Palatino Linotype';writing-mode:lr-tb;fill:#000000;fill-opacity:1;fill-rule:nonzero;stroke:none"
       x="0 3.6686151 5.3378048 8.6761847 11.342085 14.680465"
       y="0"
       sodipodi:role="line"
       id="tspan21">Einzug</tspan></text>
  <path
     id="path23"
     d="m 70.51674,121.12711 c 0,3.13105 -2.53822,5.66928 -5.66928,5.66928 m 0,0 c -3.13108,0 -5.6693,-2.53823 -5.6693,-5.66928 m 0,0 c 0,-3.13108 2.53822,-5.6693 5.6693,-5.6693 m 0,0 c 3.13106,0 5.66928,2.53822 5.66928,5.6693"
     style="fill:none;stroke:#000000;stroke-width:0.3685;stroke-linecap:round;stroke-linejoin:round;stroke-miterlimit:10;stroke-dasharray:none;stroke-opacity:1"
     transform="matrix(1.3333333,0,0,-1.3333333,0,226.772)" />
  <path
     id="path24"
     d="m 217.94577,121.12711 c 0,3.13105 -2.53824,5.66928 -5.66931,5.66928 m 0,0 c -3.13104,0 -5.66928,-2.53823 -5.66928,-5.66928 m 0,0 c 0,-3.13108 2.53824,-5.6693 5.66928,-5.6693 m 0,0 c 3.13107,0 5.66931,2.53822 5.66931,5.6693"
     style="fill:none;stroke:#000000;stroke-width:0.3685;stroke-linecap:round;stroke-linejoin:round;stroke-miterlimit:10;stroke-dasharray:none;stroke-opacity:1"
     transform="matrix(1.3333333,0,0,-1.3333333,0,226.772)" />
  <path
     id="path25"
     d="m 365.37476,121.12711 c 0,3.13105 -2.53824,5.66928 -5.66929,5.66928 m 0,0 c -3.13107,0 -5.66931,-2.53823 -5.66931,-5.66928 m 0,0 c 0,-3.13108 2.53824,-5.6693 5.66931,-5.6693 m 0,0 c 3.13105,0 5.66929,2.53822 5.66929,5.6693"
     style="fill:none;stroke:#000000;stroke-width:0.3685;stroke-linecap:round;stroke-linejoin:round;stroke-miterlimit:10;stroke-dasharray:none;stroke-opacity:1"
     transform="matrix(1.3333333,0,0,-1.3333333,0,226.772)" />
  <text
     id="text25"
     xml:space="preserve"
     transform="matrix(1.3333333,0,0,1.3333333,183.66455,209.03535)"
     clip-path="url(#clipPath26)"><tspan
       style="font-variant:normal;font-weight:normal;font-stretch:normal;font-size:10.0916px;font-family:'Palatino Linotype';writing-mode:lr-tb;fill:#000000;fill-opacity:1;fill-rule:nonzero;stroke:none"
       x="0 7.8109059 12.644788 18.518105 24.391422 30.476662 36.349979 41.960915 46.239758 51.073639 56.654297 61.488178 67.361496 72.195381 74.718277 80.884254 85.718132 89.996979 92.519882 100.45189 106.53712 111.37101 115.35719 119.63604 124.11671 129.99004 135.86334 138.8 142.08987 145.37973"
       y="0"
       sodipodi:role="line"
       id="tspan25">Dehnungsebene des Querschnitts</tspan></text>
  <text
     id="text26"
     xml:space="preserve"
     transform="matrix(1.3333333,0,0,1.3333333,156.18424,99.429053)"
     clip-path="url(#clipPath27)"><tspan
       style="font-variant:normal;font-weight:normal;font-stretch:normal;font-size:10.0916px;font-family:'Palatino Linotype';writing-mode:lr-tb;fill:#000000;fill-opacity:1;fill-rule:nonzero;stroke:none"
       x="0 8.3861275 14.471369 23.382261 28.216141 32.202328 35.138985 39.417828 43.898502 49.77182 54.605701 57.128605 60.529476 66.402794 69.692657 74.526543 80.137474 84.123657 89.169464 92.459328 95.395988 100.90601 106.77933 109.30223 115.4682 120.30209 124.28827 126.81117 134.13768 138.12387 144.20911 153.12 162.03088 168.11613 173.98944 179.60039 184.43427"
       y="0"
       sodipodi:role="line"
       id="tspan26">Numerische Integration der Krümmungen</tspan></text>
</svg>
