<?xml version="1.0" encoding="UTF-8" standalone="no"?>
<!-- Created with Inkscape (http://www.inkscape.org/) -->

<svg
   version="1.1"
   id="svg1"
   width="566.92932"
   height="207.87466"
   viewBox="0 0 566.92932 207.87466"
   sodipodi:docname="allg_dehnung.pdf"
   xmlns:inkscape="http://www.inkscape.org/namespaces/inkscape"
   xmlns:sodipodi="http://sodipodi.sourceforge.net/DTD/sodipodi-0.dtd"
   xmlns="http://www.w3.org/2000/svg"
   xmlns:svg="http://www.w3.org/2000/svg">
  <defs
     id="defs1">
    <clipPath
       clipPathUnits="userSpaceOnUse"
       id="clipPath4">
      <path
         d="M -0.00426,-0.00156 V 155.90707 H 425.20111 V -0.00156 H -0.00426"
         transform="matrix(1,0,0,-1,-94.232365,19.59695)"
         clip-rule="evenodd"
         id="path4" />
    </clipPath>
    <clipPath
       clipPathUnits="userSpaceOnUse"
       id="clipPath5">
      <path
         d="M -0.00426,-0.00156 V 155.90707 H 425.20111 V -0.00156 H -0.00426"
         transform="matrix(1,0,0,-1,-285.8839,9.0698677)"
         clip-rule="evenodd"
         id="path5" />
    </clipPath>
    <clipPath
       clipPathUnits="userSpaceOnUse"
       id="clipPath6">
      <path
         d="M -0.00426,-0.00156 V 155.90707 H 425.20111 V -0.00156 H -0.00426"
         transform="matrix(1,0,0,-1,-116.03362,110.1649)"
         clip-rule="evenodd"
         id="path6" />
    </clipPath>
    <clipPath
       clipPathUnits="userSpaceOnUse"
       id="clipPath7">
      <path
         d="M -0.00426,-0.00156 V 155.90707 H 425.20111 V -0.00156 H -0.00426"
         transform="matrix(1,0,0,-1,-115.97457,99.960172)"
         clip-rule="evenodd"
         id="path7" />
    </clipPath>
    <clipPath
       clipPathUnits="userSpaceOnUse"
       id="clipPath8">
      <path
         d="M -0.00426,-0.00156 V 155.90707 H 425.20111 V -0.00156 H -0.00426"
         transform="matrix(1,0,0,-1,-171.83014,22.856263)"
         clip-rule="evenodd"
         id="path8" />
    </clipPath>
    <clipPath
       clipPathUnits="userSpaceOnUse"
       id="clipPath9">
      <path
         d="M -0.00426,-0.00156 V 155.90707 H 425.20111 V -0.00156 H -0.00426"
         transform="matrix(1,0,0,-1,-306.06633,99.405592)"
         clip-rule="evenodd"
         id="path9" />
    </clipPath>
    <clipPath
       clipPathUnits="userSpaceOnUse"
       id="clipPath10">
      <path
         d="M -0.00426,-0.00156 V 155.90707 H 425.20111 V -0.00156 H -0.00426"
         transform="matrix(1,0,0,-1,-314.43352,99.405592)"
         clip-rule="evenodd"
         id="path10" />
    </clipPath>
    <clipPath
       clipPathUnits="userSpaceOnUse"
       id="clipPath11">
      <path
         d="M -0.00426,-0.00156 V 155.90707 H 425.20111 V -0.00156 H -0.00426"
         transform="matrix(1,0,0,-1,-306.06633,85.232362)"
         clip-rule="evenodd"
         id="path11" />
    </clipPath>
    <clipPath
       clipPathUnits="userSpaceOnUse"
       id="clipPath12">
      <path
         d="M -0.00426,-0.00156 V 155.90707 H 425.20111 V -0.00156 H -0.00426"
         transform="matrix(1,0,0,-1,-314.43352,85.232362)"
         clip-rule="evenodd"
         id="path12" />
    </clipPath>
    <clipPath
       clipPathUnits="userSpaceOnUse"
       id="clipPath13">
      <path
         d="M -0.00426,-0.00156 V 155.90707 H 425.20111 V -0.00156 H -0.00426"
         transform="matrix(1,0,0,-1,-323.02669,92.761183)"
         clip-rule="evenodd"
         id="path13" />
    </clipPath>
    <clipPath
       clipPathUnits="userSpaceOnUse"
       id="clipPath14">
      <path
         d="M -0.00426,-0.00156 V 155.90707 H 425.20111 V -0.00156 H -0.00426"
         transform="matrix(1,0,0,-1,-290.1448,92.761183)"
         clip-rule="evenodd"
         id="path14" />
    </clipPath>
    <clipPath
       clipPathUnits="userSpaceOnUse"
       id="clipPath16">
      <path
         d="M -0.00426,-0.00156 V 155.90707 H 425.20111 V -0.00156 H -0.00426"
         transform="matrix(1,0,0,-1,-285.20866,35.607943)"
         clip-rule="evenodd"
         id="path16" />
    </clipPath>
    <clipPath
       clipPathUnits="userSpaceOnUse"
       id="clipPath18">
      <path
         d="M -0.00426,-0.00156 V 155.90707 H 425.20111 V -0.00156 H -0.00426"
         transform="matrix(1,0,0,-1,-117.35376,58.102169)"
         clip-rule="evenodd"
         id="path18" />
    </clipPath>
    <clipPath
       clipPathUnits="userSpaceOnUse"
       id="clipPath19">
      <path
         d="M -0.00426,-0.00156 V 155.90707 H 425.20111 V -0.00156 H -0.00426"
         transform="matrix(1,0,0,-1,-145.61416,2.4950376)"
         clip-rule="evenodd"
         id="path19" />
    </clipPath>
    <clipPath
       clipPathUnits="userSpaceOnUse"
       id="clipPath21">
      <path
         d="M -0.00426,-0.00156 V 155.90707 H 425.20111 V -0.00156 H -0.00426"
         transform="matrix(1,0,0,-1,-219.69361,136.8522)"
         clip-rule="evenodd"
         id="path21" />
    </clipPath>
    <clipPath
       clipPathUnits="userSpaceOnUse"
       id="clipPath22">
      <path
         d="M -0.00426,-0.00156 V 155.90707 H 425.20111 V -0.00156 H -0.00426"
         transform="matrix(1,0,0,-1,-235.61515,143.49662)"
         clip-rule="evenodd"
         id="path22" />
    </clipPath>
    <clipPath
       clipPathUnits="userSpaceOnUse"
       id="clipPath23">
      <path
         d="M -0.00426,-0.00156 V 155.90707 H 425.20111 V -0.00156 H -0.00426"
         transform="matrix(1,0,0,-1,-243.98233,143.49662)"
         clip-rule="evenodd"
         id="path23" />
    </clipPath>
    <clipPath
       clipPathUnits="userSpaceOnUse"
       id="clipPath24">
      <path
         d="M -0.00426,-0.00156 V 155.90707 H 425.20111 V -0.00156 H -0.00426"
         transform="matrix(1,0,0,-1,-235.61515,129.32339)"
         clip-rule="evenodd"
         id="path24" />
    </clipPath>
    <clipPath
       clipPathUnits="userSpaceOnUse"
       id="clipPath25">
      <path
         d="M -0.00426,-0.00156 V 155.90707 H 425.20111 V -0.00156 H -0.00426"
         transform="matrix(1,0,0,-1,-243.98233,129.32339)"
         clip-rule="evenodd"
         id="path25" />
    </clipPath>
    <clipPath
       clipPathUnits="userSpaceOnUse"
       id="clipPath26">
      <path
         d="M -0.00426,-0.00156 V 155.90707 H 425.20111 V -0.00156 H -0.00426"
         transform="matrix(1,0,0,-1,-252.5755,136.8522)"
         clip-rule="evenodd"
         id="path26" />
    </clipPath>
  </defs>
  <sodipodi:namedview
     id="namedview1"
     pagecolor="#ffffff"
     bordercolor="#000000"
     borderopacity="0.25"
     inkscape:showpageshadow="2"
     inkscape:pageopacity="0.0"
     inkscape:pagecheckerboard="0"
     inkscape:deskcolor="#d1d1d1">
    <inkscape:page
       x="0"
       y="0"
       inkscape:label="1"
       id="page1"
       width="566.92932"
       height="207.87466"
       margin="0"
       bleed="0" />
  </sodipodi:namedview>
  <g
     id="g1"
     inkscape:groupmode="layer"
     inkscape:label="1">
    <path
       id="path1"
       d="m 114.80315,20.84589 h 2.83465 m 4.8189,0 h 1.30464 m -11.50937,0 h 0.28346 m 7.37009,0 h 0.28346 m -9.18355,0 v 0 m 12.75591,0 v 0"
       style="fill:none;stroke:#000000;stroke-width:0.3685;stroke-linecap:round;stroke-linejoin:round;stroke-miterlimit:10;stroke-dasharray:none;stroke-opacity:1"
       transform="matrix(1.3333333,0,0,-1.3333333,0,207.87467)" />
    <path
       id="path2"
       d="m 112.42276,20.84589 c 0,0.78277 -0.63457,1.41732 -1.41733,1.41732 m 0,0 c -0.78276,0 -1.41733,-0.63455 -1.41733,-1.41732 m 0,0 c 0,-0.78276 0.63457,-1.41732 1.41733,-1.41732 m 0,0 c 0.78276,0 1.41733,0.63456 1.41733,1.41732"
       style="fill:none;stroke:#000000;stroke-width:0.3685;stroke-linecap:round;stroke-linejoin:round;stroke-miterlimit:10;stroke-dasharray:none;stroke-opacity:1"
       transform="matrix(1.3333333,0,0,-1.3333333,0,207.87467)" />
    <path
       id="path3"
       d="m 130.84796,88.8774 h 90.70865 V 32.18448 H 130.84796 V 88.8774 m 35.6341,12.06651 h 90.70867 V 44.25099 h -90.70867 v 56.69292 m 141.09655,-4.73239 h 11.3386 m -81.78977,44.09103 h 11.33859"
       style="fill:none;stroke:#000000;stroke-width:0.3685;stroke-linecap:round;stroke-linejoin:round;stroke-miterlimit:10;stroke-dasharray:none;stroke-opacity:1"
       transform="matrix(1.3333333,0,0,-1.3333333,0,207.87467)" />
    <text
       id="text3"
       xml:space="preserve"
       transform="matrix(1.3333333,0,0,1.3333333,125.64315,181.7454)"
       clip-path="url(#clipPath4)"><tspan
         style="font-style:italic;font-variant:normal;font-weight:normal;font-stretch:normal;font-size:10.0071px;font-family:'Palatino Linotype';writing-mode:lr-tb;fill:#000000;fill-opacity:1;fill-rule:nonzero;stroke:none"
         x="0 4.4431658 6.9449482"
         y="0"
         sodipodi:role="line"
         id="tspan3">z w</tspan></text>
    <text
       id="text4"
       xml:space="preserve"
       transform="matrix(1.3333333,0,0,1.3333333,381.17852,195.78151)"
       clip-path="url(#clipPath5)"><tspan
         style="font-style:italic;font-variant:normal;font-weight:normal;font-stretch:normal;font-size:10.0071px;font-family:'Palatino Linotype';writing-mode:lr-tb;fill:#000000;fill-opacity:1;fill-rule:nonzero;stroke:none"
         x="0 5.0035648 7.5053477 13.069312"
         y="0"
         sodipodi:role="line"
         id="tspan4">x u </tspan></text>
    <text
       id="text5"
       xml:space="preserve"
       transform="matrix(1.3333333,0,0,1.3333333,154.71149,60.988133)"
       clip-path="url(#clipPath6)"><tspan
         style="font-style:italic;font-variant:normal;font-weight:normal;font-stretch:normal;font-size:10.0071px;font-family:'Palatino Linotype';writing-mode:lr-tb;fill:#000000;fill-opacity:1;fill-rule:nonzero;stroke:none"
         x="0"
         y="0"
         id="tspan5">y</tspan></text>
    <text
       id="text6"
       xml:space="preserve"
       transform="matrix(1.3333333,0,0,1.3333333,154.63276,74.59444)"
       clip-path="url(#clipPath7)"><tspan
         style="font-style:italic;font-variant:normal;font-weight:normal;font-stretch:normal;font-size:10.0071px;font-family:'Palatino Linotype';writing-mode:lr-tb;fill:#000000;fill-opacity:1;fill-rule:nonzero;stroke:none"
         x="0"
         y="0"
         id="tspan6">v</tspan></text>
    <text
       id="text7"
       xml:space="preserve"
       transform="matrix(1.3333333,0,0,1.3333333,229.10685,177.39965)"
       clip-path="url(#clipPath8)"><tspan
         style="font-style:italic;font-variant:normal;font-weight:normal;font-stretch:normal;font-size:10.0071px;font-family:'Palatino Linotype';writing-mode:lr-tb;fill:#000000;fill-opacity:1;fill-rule:nonzero;stroke:none"
         x="0 5.0035648"
         y="0"
         sodipodi:role="line"
         id="tspan7">dx</tspan></text>
    <text
       id="text8"
       xml:space="preserve"
       transform="matrix(1.3333333,0,0,1.3333333,408.08843,75.33388)"
       clip-path="url(#clipPath9)"><tspan
         style="font-variant:normal;font-weight:normal;font-stretch:normal;font-size:10.616px;font-family:'Cambria Math';writing-mode:lr-tb;fill:#000000;fill-opacity:1;fill-rule:nonzero;stroke:none"
         x="0"
         y="0"
         id="tspan8">∂</tspan></text>
    <text
       id="text9"
       xml:space="preserve"
       transform="matrix(1.3333333,0,0,1.3333333,419.24468,75.33388)"
       clip-path="url(#clipPath10)"><tspan
         style="font-style:italic;font-variant:normal;font-weight:normal;font-stretch:normal;font-size:10.0071px;font-family:'Palatino Linotype';writing-mode:lr-tb;fill:#000000;fill-opacity:1;fill-rule:nonzero;stroke:none"
         x="0"
         y="0"
         id="tspan9">v</tspan></text>
    <text
       id="text10"
       xml:space="preserve"
       transform="matrix(1.3333333,0,0,1.3333333,408.08843,94.23152)"
       clip-path="url(#clipPath11)"><tspan
         style="font-variant:normal;font-weight:normal;font-stretch:normal;font-size:10.616px;font-family:'Cambria Math';writing-mode:lr-tb;fill:#000000;fill-opacity:1;fill-rule:nonzero;stroke:none"
         x="0"
         y="0"
         id="tspan10">∂</tspan></text>
    <text
       id="text11"
       xml:space="preserve"
       transform="matrix(1.3333333,0,0,1.3333333,419.24468,94.23152)"
       clip-path="url(#clipPath12)"><tspan
         style="font-style:italic;font-variant:normal;font-weight:normal;font-stretch:normal;font-size:10.0071px;font-family:'Palatino Linotype';writing-mode:lr-tb;fill:#000000;fill-opacity:1;fill-rule:nonzero;stroke:none"
         x="0"
         y="0"
         id="tspan11">y</tspan></text>
    <text
       id="text12"
       xml:space="preserve"
       transform="matrix(1.3333333,0,0,1.3333333,430.70224,84.193093)"
       clip-path="url(#clipPath13)"><tspan
         style="font-style:italic;font-variant:normal;font-weight:normal;font-stretch:normal;font-size:10.0071px;font-family:'Palatino Linotype';writing-mode:lr-tb;fill:#000000;fill-opacity:1;fill-rule:nonzero;stroke:none"
         x="0 5.0035648"
         y="0"
         sodipodi:role="line"
         id="tspan12">dy</tspan></text>
    <text
       id="text13"
       xml:space="preserve"
       transform="matrix(1.3333333,0,0,1.3333333,386.85973,84.193093)"
       clip-path="url(#clipPath14)"><tspan
         style="font-style:italic;font-variant:normal;font-weight:normal;font-stretch:normal;font-size:10.0071px;font-family:'Palatino Linotype';writing-mode:lr-tb;fill:#000000;fill-opacity:1;fill-rule:nonzero;stroke:none"
         x="0 5.0035648 7.5053477 12.508912"
         y="0"
         sodipodi:role="line"
         id="tspan13">v + </tspan></text>
    <path
       id="path15"
       d="m 281.46231,32.18448 -0.42517,2.97638 h 0.85037 l -0.4252,-2.97638 m 0,12.06651 -0.42517,-2.97638 h 0.85037 l -0.4252,2.97638 m 0,-12.06651 h -2.12598 m 2.12598,0 h 2.12601 m -2.12601,12.06651 h -2.12598 m 2.12598,0 h 2.12601 m -2.12601,-12.06651 h -51.40176 m 51.40176,12.06651 h -15.76764 m 15.76764,-12.06651 v 0 m 0,12.06651 v 0 m 0,-12.06651 v 12.06651"
       style="fill:none;stroke:#000000;stroke-width:0.3685;stroke-linecap:round;stroke-linejoin:round;stroke-miterlimit:10;stroke-dasharray:none;stroke-opacity:1"
       transform="matrix(1.3333333,0,0,-1.3333333,0,207.87467)" />
    <text
       id="text15"
       xml:space="preserve"
       transform="matrix(1.3333333,0,0,1.3333333,380.2782,160.39741)"
       clip-path="url(#clipPath16)"><tspan
         style="font-style:italic;font-variant:normal;font-weight:normal;font-stretch:normal;font-size:10.0071px;font-family:'Palatino Linotype';writing-mode:lr-tb;fill:#000000;fill-opacity:1;fill-rule:nonzero;stroke:none"
         x="0"
         y="0"
         id="tspan15">v</tspan></text>
    <path
       id="path17"
       d="m 281.46231,88.8774 -0.42517,2.97638 h 0.85037 l -0.4252,-2.97638 m 0,12.06651 -0.42517,-2.97638 h 0.85037 l -0.4252,2.97638 m 0,-12.06651 h -2.12598 m 2.12598,0 h 2.12601 m -2.12601,12.06651 h -2.12598 m 2.12598,0 h 2.12601 M 281.46231,88.8774 h -51.40176 m 51.40176,12.06651 H 265.69467 M 281.46231,88.8774 v 0 m 0,12.06651 v 0 m 0,-12.06651 v 12.06651"
       style="fill:none;stroke:#000000;stroke-width:0.3685;stroke-linecap:round;stroke-linejoin:round;stroke-miterlimit:10;stroke-dasharray:none;stroke-opacity:1"
       transform="matrix(1.3333333,0,0,-1.3333333,0,207.87467)" />
    <text
       id="text17"
       xml:space="preserve"
       transform="matrix(1.3333333,0,0,1.3333333,156.47167,130.40511)"
       clip-path="url(#clipPath18)"><tspan
         style="font-style:italic;font-variant:normal;font-weight:normal;font-stretch:normal;font-size:10.0071px;font-family:'Palatino Linotype';writing-mode:lr-tb;fill:#000000;fill-opacity:1;fill-rule:nonzero;stroke:none"
         x="0 5.0035648"
         y="0"
         sodipodi:role="line"
         id="tspan17">dy</tspan></text>
    <text
       id="text18"
       xml:space="preserve"
       transform="matrix(1.3333333,0,0,1.3333333,194.15221,204.54795)"
       clip-path="url(#clipPath19)"><tspan
         style="font-style:italic;font-variant:normal;font-weight:normal;font-stretch:normal;font-size:10.0071px;font-family:'Palatino Linotype';writing-mode:lr-tb;fill:#000000;fill-opacity:1;fill-rule:nonzero;stroke:none"
         x="0"
         y="0"
         id="tspan18">u</tspan></text>
    <path
       id="path20"
       d="m 130.84796,10.466 2.97638,0.4252 v -0.85038 l -2.97638,0.42518 m 35.6341,0 -2.97638,0.4252 v -0.85038 l 2.97638,0.42518 m -35.6341,0 v 2.126 m 0,-2.126 V 8.34003 m 35.6341,2.12597 v 2.126 m 0,-2.126 V 8.34003 M 130.84796,10.466 V 23.68054 M 166.48206,10.466 V 35.74706 M 130.84796,10.466 v 0 m 35.6341,0 v 0 m -35.6341,0 h 35.6341 m 55.07455,115.58075 2.97638,0.42519 v -0.85039 l -2.97638,0.4252 m 35.63412,0 -2.97637,0.42519 v -0.85039 l 2.97637,0.4252 m -35.63412,0 v 2.12598 m 0,-2.12598 v -2.12597 m 35.63412,2.12597 v 2.12598 m 0,-2.12598 v -2.12597 m -35.63412,2.12597 V 97.38133 m 35.63412,28.66542 v -16.5989 m -35.63412,16.5989 v 0 m 35.63412,0 v 0 m -35.63412,0 h 35.63412"
       style="fill:none;stroke:#000000;stroke-width:0.3685;stroke-linecap:round;stroke-linejoin:round;stroke-miterlimit:10;stroke-dasharray:none;stroke-opacity:1"
       transform="matrix(1.3333333,0,0,-1.3333333,0,207.87467)" />
    <text
       id="text20"
       xml:space="preserve"
       transform="matrix(1.3333333,0,0,1.3333333,292.9248,25.405067)"
       clip-path="url(#clipPath21)"><tspan
         style="font-style:italic;font-variant:normal;font-weight:normal;font-stretch:normal;font-size:10.0071px;font-family:'Palatino Linotype';writing-mode:lr-tb;fill:#000000;fill-opacity:1;fill-rule:nonzero;stroke:none"
         x="0 5.5639644 8.0657463 13.069312"
         y="0"
         sodipodi:role="line"
         id="tspan20">u + </tspan></text>
    <text
       id="text21"
       xml:space="preserve"
       transform="matrix(1.3333333,0,0,1.3333333,314.15353,16.54584)"
       clip-path="url(#clipPath22)"><tspan
         style="font-variant:normal;font-weight:normal;font-stretch:normal;font-size:10.616px;font-family:'Cambria Math';writing-mode:lr-tb;fill:#000000;fill-opacity:1;fill-rule:nonzero;stroke:none"
         x="0"
         y="0"
         id="tspan21">∂</tspan></text>
    <text
       id="text22"
       xml:space="preserve"
       transform="matrix(1.3333333,0,0,1.3333333,325.30976,16.54584)"
       clip-path="url(#clipPath23)"><tspan
         style="font-style:italic;font-variant:normal;font-weight:normal;font-stretch:normal;font-size:10.0071px;font-family:'Palatino Linotype';writing-mode:lr-tb;fill:#000000;fill-opacity:1;fill-rule:nonzero;stroke:none"
         x="0"
         y="0"
         id="tspan22">u</tspan></text>
    <text
       id="text23"
       xml:space="preserve"
       transform="matrix(1.3333333,0,0,1.3333333,314.15353,35.44348)"
       clip-path="url(#clipPath24)"><tspan
         style="font-variant:normal;font-weight:normal;font-stretch:normal;font-size:10.616px;font-family:'Cambria Math';writing-mode:lr-tb;fill:#000000;fill-opacity:1;fill-rule:nonzero;stroke:none"
         x="0"
         y="0"
         id="tspan23">∂</tspan></text>
    <text
       id="text24"
       xml:space="preserve"
       transform="matrix(1.3333333,0,0,1.3333333,325.30976,35.44348)"
       clip-path="url(#clipPath25)"><tspan
         style="font-style:italic;font-variant:normal;font-weight:normal;font-stretch:normal;font-size:10.0071px;font-family:'Palatino Linotype';writing-mode:lr-tb;fill:#000000;fill-opacity:1;fill-rule:nonzero;stroke:none"
         x="0"
         y="0"
         id="tspan24">x</tspan></text>
    <text
       id="text25"
       xml:space="preserve"
       transform="matrix(1.3333333,0,0,1.3333333,336.76732,25.405067)"
       clip-path="url(#clipPath26)"><tspan
         style="font-style:italic;font-variant:normal;font-weight:normal;font-stretch:normal;font-size:10.0071px;font-family:'Palatino Linotype';writing-mode:lr-tb;fill:#000000;fill-opacity:1;fill-rule:nonzero;stroke:none"
         x="0 5.0035648"
         y="0"
         sodipodi:role="line"
         id="tspan25">dx</tspan></text>
    <path
       id="path27"
       d="m 111.00543,20.84589 v 97.00332 m 0,-5.95276 v -0.42518 m 0,6.37794 v 0 l -0.8504,-5.95276 h 1.70079 l -0.85039,5.95276"
       style="fill:none;stroke:#000000;stroke-width:0.3685;stroke-linecap:round;stroke-linejoin:round;stroke-miterlimit:10;stroke-dasharray:none;stroke-opacity:1"
       transform="matrix(1.3333333,0,0,-1.3333333,0,207.87467)" />
    <path
       id="path28"
       d="m 111.85582,111.89645 -0.85039,5.95276 -0.8504,-5.95276 z"
       style="fill:#000000;fill-opacity:1;fill-rule:nonzero;stroke:none"
       transform="matrix(1.3333333,0,0,-1.3333333,0,207.87467)" />
    <path
       id="path29"
       d="m 111.00543,20.84589 h 191.25125 m -5.95276,0 h -0.42517 m 6.37793,0 v 0 l -5.95276,0.8504 v -1.70078 l 5.95276,0.85038"
       style="fill:none;stroke:#000000;stroke-width:0.3685;stroke-linecap:round;stroke-linejoin:round;stroke-miterlimit:10;stroke-dasharray:none;stroke-opacity:1"
       transform="matrix(1.3333333,0,0,-1.3333333,0,207.87467)" />
    <path
       id="path30"
       d="m 296.30392,19.99551 5.95276,0.85038 -5.95276,0.8504 z"
       style="fill:#000000;fill-opacity:1;fill-rule:nonzero;stroke:none"
       transform="matrix(1.3333333,0,0,-1.3333333,0,207.87467)" />
  </g>
</svg>
