<?xml version="1.0" encoding="UTF-8" standalone="no"?>
<!-- Created with Inkscape (http://www.inkscape.org/) -->

<svg
   version="1.1"
   id="svg1"
   width="566.92932"
   height="113.38587"
   viewBox="0 0 566.92932 113.38587"
   sodipodi:docname="jag_abbruchkrit.pdf"
   xmlns:inkscape="http://www.inkscape.org/namespaces/inkscape"
   xmlns:sodipodi="http://sodipodi.sourceforge.net/DTD/sodipodi-0.dtd"
   xmlns="http://www.w3.org/2000/svg"
   xmlns:svg="http://www.w3.org/2000/svg">
  <defs
     id="defs1">
    <clipPath
       clipPathUnits="userSpaceOnUse"
       id="clipPath35">
      <path
         d="M -0.00426,-8.5e-4 V 85.04022 H 425.20111 V -8.5e-4 H -0.00426"
         transform="matrix(1,0,0,-1,-195.23347,8.3306002)"
         clip-rule="evenodd"
         id="path35" />
    </clipPath>
    <clipPath
       clipPathUnits="userSpaceOnUse"
       id="clipPath36">
      <path
         d="M -0.00426,-8.5e-4 V 85.04022 H 425.20111 V -8.5e-4 H -0.00426"
         transform="matrix(1,0,0,-1,-198.22896,4.1967426)"
         clip-rule="evenodd"
         id="path36" />
    </clipPath>
    <clipPath
       clipPathUnits="userSpaceOnUse"
       id="clipPath37">
      <path
         d="M -0.00426,-8.5e-4 V 85.04022 H 425.20111 V -8.5e-4 H -0.00426"
         transform="matrix(1,0,0,-1,-208.20358,76.299902)"
         clip-rule="evenodd"
         id="path37" />
    </clipPath>
    <clipPath
       clipPathUnits="userSpaceOnUse"
       id="clipPath38">
      <path
         d="M -0.00426,-8.5e-4 V 85.04022 H 425.20111 V -8.5e-4 H -0.00426"
         transform="matrix(1,0,0,-1,-211.19905,72.166042)"
         clip-rule="evenodd"
         id="path38" />
    </clipPath>
    <clipPath
       clipPathUnits="userSpaceOnUse"
       id="clipPath40">
      <path
         d="M -0.00426,-8.5e-4 V 85.04022 H 425.20111 V -8.5e-4 H -0.00426"
         transform="matrix(1,0,0,-1,-151.41363,25.889601)"
         clip-rule="evenodd"
         id="path40" />
    </clipPath>
    <clipPath
       clipPathUnits="userSpaceOnUse"
       id="clipPath41">
      <path
         d="M -0.00426,-8.5e-4 V 85.04022 H 425.20111 V -8.5e-4 H -0.00426"
         transform="matrix(1,0,0,-1,-159.57579,21.755741)"
         clip-rule="evenodd"
         id="path41" />
    </clipPath>
  </defs>
  <sodipodi:namedview
     id="namedview1"
     pagecolor="#ffffff"
     bordercolor="#000000"
     borderopacity="0.25"
     inkscape:showpageshadow="2"
     inkscape:pageopacity="0.0"
     inkscape:pagecheckerboard="0"
     inkscape:deskcolor="#d1d1d1">
    <inkscape:page
       x="0"
       y="0"
       inkscape:label="1"
       id="page1"
       width="566.92932"
       height="113.38587"
       margin="0"
       bleed="0" />
  </sodipodi:namedview>
  <path
     id="path1"
     d="M -0.00426,42.16501 H 425.20111 M 0,41.0743 h 4.25197 m 2.83464,0 h 4.25197 m 2.83465,0 h 4.25197 m 2.83464,0 h 4.25197 m 2.83464,0 h 4.25198 m 2.83464,0 h 4.25197 m 2.83464,0 h 4.25197 m 2.83466,0 h 4.25197 m 2.83464,0 h 4.25197 m 2.83464,0 h 4.25196 m 2.83466,0 h 4.25197 m 2.83464,0 h 4.25197 m 2.83464,0 h 4.25197 m 2.83465,0 h 4.25197 m 2.83464,0 h 4.25197 m 2.83464,0 h 4.25197 m 2.83465,0 h 4.25197 m 2.83464,0 h 4.25197 m 2.83464,0 h 4.25199 m 2.83465,0 h 4.25195 m 2.83466,0 h 4.25195 m 2.83466,0 h 4.25195 m 2.83466,0 h 4.25198 m 2.83463,0 h 4.25198 m 2.83463,0 h 4.25198 m 2.83465,0 h 4.25196 m 2.83465,0 h 4.25196 m 2.83465,0 h 4.25196 m 2.83465,0 h 4.25199 m 2.83462,0 h 4.25198 m 2.83463,0 h 4.25198 m 2.83466,0 h 4.25195 m 2.83466,0 h 4.25195 m 2.83466,0 h 4.25195 m 2.83466,0 h 4.25198 m 2.83462,0 h 4.25199 m 2.83462,0 h 4.25199 m 2.83462,0 h 4.25199 m 2.83465,0 h 4.25195 m 2.83466,0 h 4.25195 m 2.83466,0 h 4.25195 m 2.83466,0 h 4.25198 m 2.83463,0 h 4.25198 m 2.83463,0 h 4.25198 m 2.83466,0 h 4.25195 m 2.83465,0 h 4.25196 m 2.83465,0 h 4.25196 m 2.83465,0 h 4.25199 m 2.83462,0 h 4.25198"
     style="fill:none;stroke:#000000;stroke-width:0.3685;stroke-linecap:round;stroke-linejoin:round;stroke-miterlimit:10;stroke-dasharray:none;stroke-opacity:1"
     transform="matrix(1.3333333,0,0,-1.3333333,0,113.38587)" />
  <path
     id="path2"
     d="m 347.24408,41.0743 h 4.25198 m 2.83466,0 h 4.25195 m 2.83466,0 h 4.25195 m 2.83466,0 h 4.25198 m 2.83463,0 h 4.25198 m 2.83462,0 h 4.25199 m 2.83465,0 h 4.25196 m 2.83465,0 h 4.25196 m 2.83465,0 h 4.25195 m 2.83466,0 h 4.25198 m 2.83463,0 h 4.25198 m 2.83463,0 h 0.004 m -215.48035,1.09071 v 0 m 5.66929,0 v 0 m 22.67718,0 v 0 m 5.66928,0 v 0 m -62.36221,0 v 0 m 5.66931,0 v 0 m -34.01575,0 v 0 m 5.66928,0 v 0 m -34.01574,0 v 0 m 5.66928,0 v 0 m 136.06299,0 v 0 m 5.66931,0 v 0 m 22.67715,0 v 0 m 5.66928,0 v 0 m 22.67719,0 v 0 m 5.66928,0 v 0 m -232.44095,0 v 0 m 5.6693,0 v 0 m -34.01575,0 v 0 m 5.6693,0 v 0 m -34.01577,0 v 0 m 5.6693,0 v 0 m -34.01575,0 v 0 m 5.6693,0 v 0 m 334.48817,0 v 0 m 5.66931,0 v 0 m 22.67716,0 v 0 m 5.66928,0 v 0 m 22.67719,0 v 0 m 5.66928,0 v 0 M 141.73206,28.34645 v 4.25198 m 0,2.83464 v 4.25197 m 0,2.83464 v 4.25197 m 0,2.83466 v 4.25197 m 0,2.83464 v 4.25197 m 0,2.83464 v 4.05128 m 0,-39.68504 v 0 m 0,39.68504 v 0"
     style="fill:none;stroke:#000000;stroke-width:0.3685;stroke-linecap:round;stroke-linejoin:round;stroke-miterlimit:10;stroke-dasharray:none;stroke-opacity:1"
     transform="matrix(1.3333333,0,0,-1.3333333,0,113.38587)" />
  <path
     id="path3"
     d="m 283.4646,28.34645 v 4.25198 m 0,2.83464 v 4.25197 m 0,2.83464 v 4.25197 m 0,2.83466 v 4.25197 m 0,2.83464 v 4.25197 m 0,2.83464 v 4.05128 m 0,-39.68504 v 0 m 0,39.68504 v 0"
     style="fill:none;stroke:#000000;stroke-width:0.3685;stroke-linecap:round;stroke-linejoin:round;stroke-miterlimit:10;stroke-dasharray:none;stroke-opacity:1"
     transform="matrix(1.3333333,0,0,-1.3333333,0,113.38587)" />
  <g
     id="layer-MC0"
     inkscape:groupmode="layer"
     inkscape:label="STABBEANSPR_DIAG">
    <path
       id="path4"
       d="m 212.55542,42.16501 -0.0431,0.49223 -0.1279,0.47728 -0.20883,0.44782 -0.28339,0.40475 -0.34939,0.34938 -0.40476,0.28342 -0.44781,0.20881 -0.47727,0.12789 -0.49225,0.04306 -0.49221,-0.04306 -0.4773,-0.12789 -0.44781,-0.20881 -0.40476,-0.28342 -0.34936,-0.34938 -0.28342,-0.40475 -0.20883,-0.44782 -0.12787,-0.47728 -0.0431,-0.49223 0.0431,-0.49223 0.12787,-0.47727 0.20883,-0.44783 0.28342,-0.40474 0.5469,-0.50087 0.20722,-0.13194 0.44781,-0.20882 0.4773,-0.12788 0.49221,-0.04306 0.49225,0.04306 0.47727,0.12788 0.44781,0.20882 0.40476,0.28342 0.34939,0.34939 0.28339,0.40474 0.20883,0.44783 0.1279,0.47727 z"
       style="fill:#e0e0e0;fill-opacity:1;fill-rule:nonzero;stroke:none"
       transform="matrix(1.3333333,0,0,-1.3333333,0,113.38587)" />
    <path
       id="path5"
       d="m 218.2247,42.16501 -0.0431,0.49223 -0.1279,0.47728 -0.2088,0.44782 -0.28342,0.40475 -0.34939,0.34938 -0.40476,0.28342 -0.44781,0.20881 -0.47727,0.12789 -0.49224,0.04306 -0.49222,-0.04306 -0.47727,-0.12789 -0.44781,-0.20881 -0.40476,-0.28342 -0.34939,-0.34938 -0.28342,-0.40475 -0.20883,-0.44782 -0.12787,-0.47728 -0.0431,-0.49223 0.0431,-0.49223 0.12787,-0.47727 0.20883,-0.44783 0.28342,-0.40474 0.5469,-0.50087 0.20725,-0.13194 0.44781,-0.20882 0.47727,-0.12788 0.49222,-0.04306 0.49224,0.04306 0.47727,0.12788 0.44781,0.20882 0.40476,0.28342 0.34939,0.34939 0.28342,0.40474 0.2088,0.44783 0.1279,0.47727 z"
       style="fill:#e0e0e0;fill-opacity:1;fill-rule:nonzero;stroke:none"
       transform="matrix(1.3333333,0,0,-1.3333333,0,113.38587)" />
    <path
       id="path6"
       d="m 240.90186,42.16501 -0.0431,0.49223 -0.12787,0.47728 -0.20884,0.44782 -0.28341,0.40475 -0.34937,0.34938 -0.40475,0.28342 -0.44782,0.20881 -0.47729,0.12789 -0.49222,0.04306 -0.49225,-0.04306 -0.47726,-0.12789 -0.44782,-0.20881 -0.40475,-0.28342 -0.3494,-0.34938 -0.28341,-0.40475 -0.20881,-0.44782 -0.1279,-0.47728 -0.0431,-0.49223 0.0431,-0.49223 0.1279,-0.47727 0.20881,-0.44783 0.28341,-0.40474 0.54691,-0.50087 0.20724,-0.13194 0.44782,-0.20882 0.47726,-0.12788 0.49225,-0.04306 0.49222,0.04306 0.47729,0.12788 0.44782,0.20882 0.40475,0.28342 0.34937,0.34939 0.28341,0.40474 0.20884,0.44783 0.12787,0.47727 z"
       style="fill:#e0e0e0;fill-opacity:1;fill-rule:nonzero;stroke:none"
       transform="matrix(1.3333333,0,0,-1.3333333,0,113.38587)" />
    <path
       id="path7"
       d="m 246.57117,42.16501 -0.0431,0.49223 -0.1279,0.47728 -0.20883,0.44782 -0.28339,0.40475 -0.3494,0.34938 -0.40475,0.28342 -0.44782,0.20881 -0.47726,0.12789 -0.49225,0.04306 -0.49222,-0.04306 -0.47729,-0.12789 -0.44782,-0.20881 -0.40475,-0.28342 -0.34937,-0.34938 -0.28341,-0.40475 -0.20884,-0.44782 -0.12786,-0.47728 -0.0431,-0.49223 0.0431,-0.49223 0.12786,-0.47727 0.20884,-0.44783 0.28341,-0.40474 0.54691,-0.50087 0.20721,-0.13194 0.44782,-0.20882 0.47729,-0.12788 0.49222,-0.04306 0.49225,0.04306 0.47726,0.12788 0.44782,0.20882 0.40475,0.28342 0.3494,0.34939 0.28339,0.40474 0.20883,0.44783 0.1279,0.47727 z"
       style="fill:#e0e0e0;fill-opacity:1;fill-rule:nonzero;stroke:none"
       transform="matrix(1.3333333,0,0,-1.3333333,0,113.38587)" />
    <path
       id="path8"
       d="m 184.20895,42.16501 -0.0431,0.49223 -0.1279,0.47728 -0.2088,0.44782 -0.28341,0.40475 -0.3494,0.34938 -0.40475,0.28342 -0.44782,0.20881 -0.47726,0.12789 -0.49225,0.04306 -0.49222,-0.04306 -0.47726,-0.12789 -0.44782,-0.20881 -0.40475,-0.28342 -0.3494,-0.34938 -0.28342,-0.40475 -0.20883,-0.44782 -0.12787,-0.47728 -0.0431,-0.49223 0.0431,-0.49223 0.12787,-0.47727 0.20883,-0.44783 0.28342,-0.40474 0.54691,-0.50087 0.20724,-0.13194 0.44782,-0.20882 0.47726,-0.12788 0.49222,-0.04306 0.49225,0.04306 0.47726,0.12788 0.44782,0.20882 0.40475,0.28342 0.3494,0.34939 0.28341,0.40474 0.2088,0.44783 0.1279,0.47727 z"
       style="fill:#e0e0e0;fill-opacity:1;fill-rule:nonzero;stroke:none"
       transform="matrix(1.3333333,0,0,-1.3333333,0,113.38587)" />
    <path
       id="path9"
       d="m 189.87823,42.16501 -0.0431,0.49223 -0.12786,0.47728 -0.20884,0.44782 -0.28341,0.40475 -0.3494,0.34938 -0.40472,0.28342 -0.44785,0.20881 -0.47726,0.12789 -0.49222,0.04306 -0.49225,-0.04306 -0.47726,-0.12789 -0.44782,-0.20881 -0.40475,-0.28342 -0.3494,-0.34938 -0.28342,-0.40475 -0.2088,-0.44782 -0.1279,-0.47728 -0.0431,-0.49223 0.0431,-0.49223 0.1279,-0.47727 0.2088,-0.44783 0.28342,-0.40474 0.54691,-0.50087 0.20724,-0.13194 0.44782,-0.20882 0.47726,-0.12788 0.49225,-0.04306 0.49222,0.04306 0.47726,0.12788 0.44785,0.20882 0.40472,0.28342 0.3494,0.34939 0.28341,0.40474 0.20884,0.44783 0.12786,0.47727 z"
       style="fill:#e0e0e0;fill-opacity:1;fill-rule:nonzero;stroke:none"
       transform="matrix(1.3333333,0,0,-1.3333333,0,113.38587)" />
    <path
       id="path10"
       d="m 155.86249,42.16501 -0.0431,0.49223 -0.12787,0.47728 -0.20883,0.44782 -0.28342,0.40475 -0.3494,0.34938 -0.40472,0.28342 -0.44785,0.20881 -0.47726,0.12789 -0.49222,0.04306 -0.49225,-0.04306 -0.47726,-0.12789 -0.44782,-0.20881 -0.40475,-0.28342 -0.3494,-0.34938 -0.28341,-0.40475 -0.2088,-0.44782 -0.1279,-0.47728 -0.0431,-0.49223 0.0431,-0.49223 0.1279,-0.47727 0.2088,-0.44783 0.28341,-0.40474 0.54691,-0.50087 0.20724,-0.13194 0.44782,-0.20882 0.47726,-0.12788 0.49225,-0.04306 0.49222,0.04306 0.47726,0.12788 0.44785,0.20882 0.40472,0.28342 0.3494,0.34939 0.28342,0.40474 0.20883,0.44783 0.12787,0.47727 z"
       style="fill:#e0e0e0;fill-opacity:1;fill-rule:nonzero;stroke:none"
       transform="matrix(1.3333333,0,0,-1.3333333,0,113.38587)" />
    <path
       id="path11"
       d="m 161.5318,42.16501 -0.0431,0.49223 -0.1279,0.47728 -0.20883,0.44782 -0.28339,0.40475 -0.34939,0.34938 -0.40476,0.28342 -0.44781,0.20881 -0.4773,0.12789 -0.49222,0.04306 -0.49221,-0.04306 -0.4773,-0.12789 -0.44781,-0.20881 -0.40476,-0.28342 -0.34939,-0.34938 -0.28339,-0.40475 -0.20883,-0.44782 -0.1279,-0.47728 -0.0431,-0.49223 0.0431,-0.49223 0.1279,-0.47727 0.20883,-0.44783 0.28339,-0.40474 0.54693,-0.50087 0.20722,-0.13194 0.44781,-0.20882 0.4773,-0.12788 0.49221,-0.04306 0.49222,0.04306 0.4773,0.12788 0.44781,0.20882 0.40476,0.28342 0.34939,0.34939 0.28339,0.40474 0.20883,0.44783 0.1279,0.47727 z"
       style="fill:#e0e0e0;fill-opacity:1;fill-rule:nonzero;stroke:none"
       transform="matrix(1.3333333,0,0,-1.3333333,0,113.38587)" />
    <path
       id="path12"
       d="m 127.51604,42.16501 -0.0431,0.49223 -0.12789,0.47728 -0.20883,0.44782 -0.2834,0.40475 -0.3494,0.34938 -0.40475,0.28342 -0.44782,0.20881 -0.47726,0.12789 -0.49223,0.04306 -0.49224,-0.04306 -0.47728,-0.12789 -0.44781,-0.20881 -0.40476,-0.28342 -0.34938,-0.34938 -0.28341,-0.40475 -0.20882,-0.44782 -0.12788,-0.47728 -0.0431,-0.49223 0.0431,-0.49223 0.12788,-0.47727 0.20882,-0.44783 0.28341,-0.40474 0.54691,-0.50087 0.20723,-0.13194 0.44781,-0.20882 0.47728,-0.12788 0.49224,-0.04306 0.49223,0.04306 0.47726,0.12788 0.44782,0.20882 0.40475,0.28342 0.3494,0.34939 0.2834,0.40474 0.20883,0.44783 0.12789,0.47727 z"
       style="fill:#e0e0e0;fill-opacity:1;fill-rule:nonzero;stroke:none"
       transform="matrix(1.3333333,0,0,-1.3333333,0,113.38587)" />
    <path
       id="path13"
       d="m 133.18533,42.16501 -0.0431,0.49223 -0.1279,0.47728 -0.2088,0.44782 -0.28341,0.40475 -0.3494,0.34938 -0.40475,0.28342 -0.44782,0.20881 -0.47726,0.12789 -0.49225,0.04306 -0.49222,-0.04306 -0.47726,-0.12789 -0.44785,-0.20881 -0.40472,-0.28342 -0.3494,-0.34938 -0.28342,-0.40475 -0.20883,-0.44782 -0.12788,-0.47728 -0.0431,-0.49223 0.0431,-0.49223 0.12788,-0.47727 0.20883,-0.44783 0.28342,-0.40474 0.54691,-0.50087 0.20721,-0.13194 0.44785,-0.20882 0.47726,-0.12788 0.49222,-0.04306 0.49225,0.04306 0.47726,0.12788 0.44782,0.20882 0.40475,0.28342 0.3494,0.34939 0.28341,0.40474 0.2088,0.44783 0.1279,0.47727 z"
       style="fill:#e0e0e0;fill-opacity:1;fill-rule:nonzero;stroke:none"
       transform="matrix(1.3333333,0,0,-1.3333333,0,113.38587)" />
    <path
       id="path14"
       d="m 269.24832,42.16501 -0.0431,0.49223 -0.1279,0.47728 -0.2088,0.44782 -0.28342,0.40475 -0.34939,0.34938 -0.40476,0.28342 -0.44781,0.20881 -0.47727,0.12789 -0.49224,0.04306 -0.49222,-0.04306 -0.4773,-0.12789 -0.44781,-0.20881 -0.40476,-0.28342 -0.34936,-0.34938 -0.28342,-0.40475 -0.20883,-0.44782 -0.12787,-0.47728 -0.0431,-0.49223 0.0431,-0.49223 0.12787,-0.47727 0.20883,-0.44783 0.28342,-0.40474 0.5469,-0.50087 0.20722,-0.13194 0.44781,-0.20882 0.4773,-0.12788 0.49222,-0.04306 0.49224,0.04306 0.47727,0.12788 0.44781,0.20882 0.40476,0.28342 0.34939,0.34939 0.28342,0.40474 0.2088,0.44783 0.1279,0.47727 z"
       style="fill:#e0e0e0;fill-opacity:1;fill-rule:nonzero;stroke:none"
       transform="matrix(1.3333333,0,0,-1.3333333,0,113.38587)" />
    <path
       id="path15"
       d="m 274.9176,42.16501 -0.0431,0.49223 -0.12787,0.47728 -0.20883,0.44782 -0.28341,0.40475 -0.3494,0.34938 -0.40476,0.28342 -0.44781,0.20881 -0.47726,0.12789 -0.49222,0.04306 -0.49225,-0.04306 -0.47727,-0.12789 -0.44781,-0.20881 -0.40476,-0.28342 -0.34939,-0.34938 -0.28342,-0.40475 -0.2088,-0.44782 -0.1279,-0.47728 -0.0431,-0.49223 0.0431,-0.49223 0.1279,-0.47727 0.2088,-0.44783 0.28342,-0.40474 0.5469,-0.50087 0.20725,-0.13194 0.44781,-0.20882 0.47727,-0.12788 0.49225,-0.04306 0.49222,0.04306 0.47726,0.12788 0.44781,0.20882 0.40476,0.28342 0.3494,0.34939 0.28341,0.40474 0.20883,0.44783 0.12787,0.47727 z"
       style="fill:#e0e0e0;fill-opacity:1;fill-rule:nonzero;stroke:none"
       transform="matrix(1.3333333,0,0,-1.3333333,0,113.38587)" />
    <path
       id="path16"
       d="m 297.59479,42.16501 -0.0431,0.49223 -0.12787,0.47728 -0.20883,0.44782 -0.28339,0.40475 -0.3494,0.34938 -0.40475,0.28342 -0.44782,0.20881 -0.47729,0.12789 -0.49222,0.04306 -0.49222,-0.04306 -0.47729,-0.12789 -0.44782,-0.20881 -0.40475,-0.28342 -0.3494,-0.34938 -0.28338,-0.40475 -0.20883,-0.44782 -0.1279,-0.47728 -0.0431,-0.49223 0.0431,-0.49223 0.1279,-0.47727 0.20883,-0.44783 0.28338,-0.40474 0.54691,-0.50087 0.20724,-0.13194 0.44782,-0.20882 0.47729,-0.12788 0.49222,-0.04306 0.49222,0.04306 0.47729,0.12788 0.44782,0.20882 0.40475,0.28342 0.3494,0.34939 0.28339,0.40474 0.20883,0.44783 0.12787,0.47727 z"
       style="fill:#e0e0e0;fill-opacity:1;fill-rule:nonzero;stroke:none"
       transform="matrix(1.3333333,0,0,-1.3333333,0,113.38587)" />
    <path
       id="path17"
       d="m 303.26407,42.16501 -0.0431,0.49223 -0.1279,0.47728 -0.2088,0.44782 -0.28342,0.40475 -0.34939,0.34938 -0.40476,0.28342 -0.44781,0.20881 -0.47727,0.12789 -0.49225,0.04306 -0.49222,-0.04306 -0.47726,-0.12789 -0.44785,-0.20881 -0.40472,-0.28342 -0.34939,-0.34938 -0.28342,-0.40475 -0.20883,-0.44782 -0.12787,-0.47728 -0.0431,-0.49223 0.0431,-0.49223 0.12787,-0.47727 0.20883,-0.44783 0.28342,-0.40474 0.5469,-0.50087 0.20721,-0.13194 0.44785,-0.20882 0.47726,-0.12788 0.49222,-0.04306 0.49225,0.04306 0.47727,0.12788 0.44781,0.20882 0.40476,0.28342 0.34939,0.34939 0.28342,0.40474 0.2088,0.44783 0.1279,0.47727 z"
       style="fill:#e0e0e0;fill-opacity:1;fill-rule:nonzero;stroke:none"
       transform="matrix(1.3333333,0,0,-1.3333333,0,113.38587)" />
    <path
       id="path18"
       d="m 325.94122,42.16501 -0.0431,0.49223 -0.12787,0.47728 -0.20883,0.44782 -0.28341,0.40475 -0.3494,0.34938 -0.40475,0.28342 -0.44782,0.20881 -0.47726,0.12789 -0.49222,0.04306 -0.49225,-0.04306 -0.47727,-0.12789 -0.44781,-0.20881 -0.40475,-0.28342 -0.3494,-0.34938 -0.28342,-0.40475 -0.2088,-0.44782 -0.1279,-0.47728 -0.0431,-0.49223 0.0431,-0.49223 0.1279,-0.47727 0.2088,-0.44783 0.28342,-0.40474 0.54691,-0.50087 0.20724,-0.13194 0.44781,-0.20882 0.47727,-0.12788 0.49225,-0.04306 0.49222,0.04306 0.47726,0.12788 0.44782,0.20882 0.40475,0.28342 0.3494,0.34939 0.28341,0.40474 0.20883,0.44783 0.12787,0.47727 z"
       style="fill:#e0e0e0;fill-opacity:1;fill-rule:nonzero;stroke:none"
       transform="matrix(1.3333333,0,0,-1.3333333,0,113.38587)" />
    <path
       id="path19"
       d="m 331.61053,42.16501 -0.0431,0.49223 -0.12789,0.47728 -0.20884,0.44782 -0.28338,0.40475 -0.3494,0.34938 -0.40475,0.28342 -0.44782,0.20881 -0.47729,0.12789 -0.49222,0.04306 -0.49222,-0.04306 -0.47729,-0.12789 -0.44782,-0.20881 -0.40475,-0.28342 -0.3494,-0.34938 -0.28339,-0.40475 -0.20883,-0.44782 -0.1279,-0.47728 -0.0431,-0.49223 0.0431,-0.49223 0.1279,-0.47727 0.20883,-0.44783 0.28339,-0.40474 0.54694,-0.50087 0.20721,-0.13194 0.44782,-0.20882 0.47729,-0.12788 0.49222,-0.04306 0.49222,0.04306 0.47729,0.12788 0.44782,0.20882 0.40475,0.28342 0.3494,0.34939 0.28338,0.40474 0.20884,0.44783 0.12789,0.47727 z"
       style="fill:#e0e0e0;fill-opacity:1;fill-rule:nonzero;stroke:none"
       transform="matrix(1.3333333,0,0,-1.3333333,0,113.38587)" />
    <path
       id="path20"
       d="m 99.16959,42.16501 -0.04308,0.49223 -0.12788,0.47728 -0.20882,0.44782 -0.28342,0.40475 -0.34938,0.34938 -0.40475,0.28342 -0.44782,0.20881 -0.47728,0.12789 -0.49223,0.04306 -0.49223,-0.04306 -0.47727,-0.12789 -0.44781,-0.20881 -0.40476,-0.28342 -0.34939,-0.34938 -0.2834,-0.40475 -0.20884,-0.44782 -0.12788,-0.47728 -0.04306,-0.49223 0.04306,-0.49223 0.12788,-0.47727 0.20884,-0.44783 0.2834,-0.40474 0.5469,-0.50087 0.20725,-0.13194 0.44781,-0.20882 0.47727,-0.12788 0.49223,-0.04306 0.49223,0.04306 0.47728,0.12788 0.44782,0.20882 0.40475,0.28342 0.34938,0.34939 0.28342,0.40474 0.20882,0.44783 0.12788,0.47727 z"
       style="fill:#e0e0e0;fill-opacity:1;fill-rule:nonzero;stroke:none"
       transform="matrix(1.3333333,0,0,-1.3333333,0,113.38587)" />
    <path
       id="path21"
       d="m 104.83887,42.16501 -0.0431,0.49223 -0.12789,0.47728 -0.20881,0.44782 -0.28342,0.40475 -0.3494,0.34938 -0.40474,0.28342 -0.44783,0.20881 -0.47726,0.12789 -0.49223,0.04306 -0.49224,-0.04306 -0.47728,-0.12789 -0.44781,-0.20881 -0.40476,-0.28342 -0.34938,-0.34938 -0.28341,-0.40475 -0.20882,-0.44782 -0.12788,-0.47728 -0.04306,-0.49223 0.04306,-0.49223 0.12788,-0.47727 0.20882,-0.44783 0.28341,-0.40474 0.54691,-0.50087 0.20723,-0.13194 0.44781,-0.20882 0.47728,-0.12788 0.49224,-0.04306 0.49223,0.04306 0.47726,0.12788 0.44783,0.20882 0.40474,0.28342 0.3494,0.34939 0.28342,0.40474 0.20881,0.44783 0.12789,0.47727 z"
       style="fill:#e0e0e0;fill-opacity:1;fill-rule:nonzero;stroke:none"
       transform="matrix(1.3333333,0,0,-1.3333333,0,113.38587)" />
    <path
       id="path22"
       d="m 70.82312,42.16501 -0.04306,0.49223 -0.12788,0.47728 -0.20882,0.44782 -0.28342,0.40475 -0.34939,0.34938 -0.40474,0.28342 -0.44783,0.20881 -0.47727,0.12789 -0.49223,0.04306 -0.49223,-0.04306 -0.47728,-0.12789 -0.44782,-0.20881 -0.40475,-0.28342 -0.34938,-0.34938 -0.28342,-0.40475 -0.20882,-0.44782 -0.12788,-0.47728 -0.04306,-0.49223 0.04306,-0.49223 0.12788,-0.47727 0.20882,-0.44783 0.28342,-0.40474 0.5469,-0.50087 0.20723,-0.13194 0.44782,-0.20882 0.47728,-0.12788 0.49223,-0.04306 0.49223,0.04306 0.47727,0.12788 0.44783,0.20882 0.40474,0.28342 0.34939,0.34939 0.28342,0.40474 0.20882,0.44783 0.12788,0.47727 z"
       style="fill:#e0e0e0;fill-opacity:1;fill-rule:nonzero;stroke:none"
       transform="matrix(1.3333333,0,0,-1.3333333,0,113.38587)" />
    <path
       id="path23"
       d="m 76.49242,42.16501 -0.04306,0.49223 -0.1279,0.47728 -0.20882,0.44782 -0.2834,0.40475 -0.3494,0.34938 -0.40475,0.28342 -0.44782,0.20881 -0.47728,0.12789 -0.49221,0.04306 -0.49224,-0.04306 -0.47728,-0.12789 -0.44781,-0.20881 -0.40476,-0.28342 -0.34939,-0.34938 -0.2834,-0.40475 -0.20882,-0.44782 -0.1279,-0.47728 -0.04306,-0.49223 0.04306,-0.49223 0.1279,-0.47727 0.20882,-0.44783 0.2834,-0.40474 0.54692,-0.50087 0.20723,-0.13194 0.44781,-0.20882 0.47728,-0.12788 0.49224,-0.04306 0.49221,0.04306 0.47728,0.12788 0.44782,0.20882 0.40475,0.28342 0.3494,0.34939 0.2834,0.40474 0.20882,0.44783 0.1279,0.47727 z"
       style="fill:#e0e0e0;fill-opacity:1;fill-rule:nonzero;stroke:none"
       transform="matrix(1.3333333,0,0,-1.3333333,0,113.38587)" />
    <path
       id="path24"
       d="m 42.47667,42.16501 -0.04308,0.49223 -0.12788,0.47728 -0.20882,0.44782 -0.28341,0.40475 -0.34938,0.34938 -0.40476,0.28342 -0.44781,0.20881 -0.47728,0.12789 -0.49224,0.04306 -0.49223,-0.04306 -0.47726,-0.12789 -0.44782,-0.20881 -0.40475,-0.28342 -0.3494,-0.34938 -0.2834,-0.40475 -0.20883,-0.44782 -0.12789,-0.47728 -0.04306,-0.49223 0.04306,-0.49223 0.12789,-0.47727 0.20883,-0.44783 0.2834,-0.40474 0.54691,-0.50087 0.20724,-0.13194 0.44782,-0.20882 0.47726,-0.12788 0.49223,-0.04306 0.49224,0.04306 0.47728,0.12788 0.44781,0.20882 0.40476,0.28342 0.34938,0.34939 0.28341,0.40474 0.20882,0.44783 0.12788,0.47727 z"
       style="fill:#e0e0e0;fill-opacity:1;fill-rule:nonzero;stroke:none"
       transform="matrix(1.3333333,0,0,-1.3333333,0,113.38587)" />
    <path
       id="path25"
       d="m 48.14595,42.16501 -0.04306,0.49223 -0.12788,0.47728 -0.20882,0.44782 -0.28342,0.40475 -0.34938,0.34938 -0.40475,0.28342 -0.44782,0.20881 -0.47728,0.12789 -0.49223,0.04306 -0.49223,-0.04306 -0.47728,-0.12789 -0.44782,-0.20881 -0.40475,-0.28342 -0.34938,-0.34938 -0.28342,-0.40475 -0.20882,-0.44782 -0.12788,-0.47728 -0.04306,-0.49223 0.04306,-0.49223 0.12788,-0.47727 0.20882,-0.44783 0.28342,-0.40474 0.5469,-0.50087 0.20723,-0.13194 0.44782,-0.20882 0.47728,-0.12788 0.49223,-0.04306 0.49223,0.04306 0.47728,0.12788 0.44782,0.20882 0.40475,0.28342 0.34938,0.34939 0.28342,0.40474 0.20882,0.44783 0.12788,0.47727 z"
       style="fill:#e0e0e0;fill-opacity:1;fill-rule:nonzero;stroke:none"
       transform="matrix(1.3333333,0,0,-1.3333333,0,113.38587)" />
    <path
       id="path26"
       d="m 14.1302,42.16501 -0.04306,0.49223 -0.12788,0.47728 -0.20882,0.44782 -0.28341,0.40475 -0.3494,0.34938 -0.40475,0.28342 -0.44782,0.20881 -0.47726,0.12789 -0.49224,0.04306 L 10.80333,44.95659 10.32605,44.8287 9.87823,44.61989 9.47348,44.33647 9.1241,43.98709 8.84068,43.58234 8.63187,43.13452 8.50398,42.65724 8.46091,42.16501 8.50398,41.67278 8.63187,41.19551 8.84068,40.74768 9.1241,40.34294 l 0.54691,-0.50087 0.20722,-0.13194 0.44782,-0.20882 0.47728,-0.12788 0.49223,-0.04306 0.49224,0.04306 0.47726,0.12788 0.44782,0.20882 0.40475,0.28342 0.3494,0.34939 0.28341,0.40474 0.20882,0.44783 0.12788,0.47727 z"
       style="fill:#e0e0e0;fill-opacity:1;fill-rule:nonzero;stroke:none"
       transform="matrix(1.3333333,0,0,-1.3333333,0,113.38587)" />
    <path
       id="path27"
       d="m 19.7995,42.16501 -0.04306,0.49223 -0.1279,0.47728 -0.20882,0.44782 -0.2834,0.40475 -0.34939,0.34938 -0.40476,0.28342 -0.44781,0.20881 -0.47728,0.12789 -0.49222,0.04306 -0.49223,-0.04306 -0.47728,-0.12789 -0.44782,-0.20881 -0.40475,-0.28342 -0.3494,-0.34938 -0.2834,-0.40475 -0.20882,-0.44782 -0.1279,-0.47728 -0.04306,-0.49223 0.04306,-0.49223 0.1279,-0.47727 0.20882,-0.44783 0.2834,-0.40474 0.54692,-0.50087 0.20723,-0.13194 0.44782,-0.20882 0.47728,-0.12788 0.49223,-0.04306 0.49222,0.04306 0.47728,0.12788 0.44781,0.20882 0.40476,0.28342 0.34939,0.34939 0.2834,0.40474 0.20882,0.44783 0.1279,0.47727 z"
       style="fill:#e0e0e0;fill-opacity:1;fill-rule:nonzero;stroke:none"
       transform="matrix(1.3333333,0,0,-1.3333333,0,113.38587)" />
    <path
       id="path28"
       d="m 354.28769,42.16501 -0.0431,0.49223 -0.1279,0.47728 -0.2088,0.44782 -0.28342,0.40475 -0.34939,0.34938 -0.40476,0.28342 -0.44781,0.20881 -0.47727,0.12789 -0.49225,0.04306 -0.49221,-0.04306 -0.47727,-0.12789 -0.44781,-0.20881 -0.40476,-0.28342 -0.34939,-0.34938 -0.28342,-0.40475 -0.20883,-0.44782 -0.12787,-0.47728 -0.0431,-0.49223 0.0431,-0.49223 0.12787,-0.47727 0.20883,-0.44783 0.28342,-0.40474 0.5469,-0.50087 0.20725,-0.13194 0.44781,-0.20882 0.47727,-0.12788 0.49221,-0.04306 0.49225,0.04306 0.47727,0.12788 0.44781,0.20882 0.40476,0.28342 0.34939,0.34939 0.28342,0.40474 0.2088,0.44783 0.1279,0.47727 z"
       style="fill:#e0e0e0;fill-opacity:1;fill-rule:nonzero;stroke:none"
       transform="matrix(1.3333333,0,0,-1.3333333,0,113.38587)" />
    <path
       id="path29"
       d="m 359.95697,42.16501 -0.0431,0.49223 -0.12787,0.47728 -0.20883,0.44782 -0.28342,0.40475 -0.34939,0.34938 -0.40473,0.28342 -0.44784,0.20881 -0.47727,0.12789 -0.49222,0.04306 -0.49224,-0.04306 -0.47727,-0.12789 -0.44781,-0.20881 -0.40476,-0.28342 -0.34939,-0.34938 -0.28342,-0.40475 -0.2088,-0.44782 -0.1279,-0.47728 -0.0431,-0.49223 0.0431,-0.49223 0.1279,-0.47727 0.2088,-0.44783 0.28342,-0.40474 0.5469,-0.50087 0.20725,-0.13194 0.44781,-0.20882 0.47727,-0.12788 0.49224,-0.04306 0.49222,0.04306 0.47727,0.12788 0.44784,0.20882 0.40473,0.28342 0.34939,0.34939 0.28342,0.40474 0.20883,0.44783 0.12787,0.47727 z"
       style="fill:#e0e0e0;fill-opacity:1;fill-rule:nonzero;stroke:none"
       transform="matrix(1.3333333,0,0,-1.3333333,0,113.38587)" />
    <path
       id="path30"
       d="m 382.63416,42.16501 -0.0431,0.49223 -0.12789,0.47728 -0.20884,0.44782 -0.28338,0.40475 -0.3494,0.34938 -0.40475,0.28342 -0.44782,0.20881 -0.47726,0.12789 -0.49225,0.04306 -0.49222,-0.04306 -0.47729,-0.12789 -0.44782,-0.20881 -0.40475,-0.28342 -0.34937,-0.34938 -0.28341,-0.40475 -0.20884,-0.44782 -0.12787,-0.47728 -0.0431,-0.49223 0.0431,-0.49223 0.12787,-0.47727 0.20884,-0.44783 0.28341,-0.40474 0.54691,-0.50087 0.20721,-0.13194 0.44782,-0.20882 0.47729,-0.12788 0.49222,-0.04306 0.49225,0.04306 0.47726,0.12788 0.44782,0.20882 0.40475,0.28342 0.3494,0.34939 0.28338,0.40474 0.20884,0.44783 0.12789,0.47727 z"
       style="fill:#e0e0e0;fill-opacity:1;fill-rule:nonzero;stroke:none"
       transform="matrix(1.3333333,0,0,-1.3333333,0,113.38587)" />
    <path
       id="path31"
       d="m 388.30344,42.16501 -0.0431,0.49223 -0.1279,0.47728 -0.2088,0.44782 -0.28342,0.40475 -0.3494,0.34938 -0.40475,0.28342 -0.44782,0.20881 -0.47726,0.12789 -0.49225,0.04306 -0.49222,-0.04306 -0.47726,-0.12789 -0.44782,-0.20881 -0.40475,-0.28342 -0.3494,-0.34938 -0.28341,-0.40475 -0.20884,-0.44782 -0.12786,-0.47728 -0.0431,-0.49223 0.0431,-0.49223 0.12786,-0.47727 0.20884,-0.44783 0.28341,-0.40474 0.54691,-0.50087 0.20724,-0.13194 0.44782,-0.20882 0.47726,-0.12788 0.49222,-0.04306 0.49225,0.04306 0.47726,0.12788 0.44782,0.20882 0.40475,0.28342 0.3494,0.34939 0.28342,0.40474 0.2088,0.44783 0.1279,0.47727 z"
       style="fill:#e0e0e0;fill-opacity:1;fill-rule:nonzero;stroke:none"
       transform="matrix(1.3333333,0,0,-1.3333333,0,113.38587)" />
    <path
       id="path32"
       d="m 410.98059,42.16501 -0.0431,0.49223 -0.12787,0.47728 -0.20883,0.44782 -0.28342,0.40475 -0.34936,0.34938 -0.40476,0.28342 -0.44781,0.20881 -0.4773,0.12789 -0.49221,0.04306 -0.49225,-0.04306 -0.47727,-0.12789 -0.44781,-0.20881 -0.40476,-0.28342 -0.34939,-0.34938 -0.28342,-0.40475 -0.2088,-0.44782 -0.1279,-0.47728 -0.0431,-0.49223 0.0431,-0.49223 0.1279,-0.47727 0.2088,-0.44783 0.28342,-0.40474 0.5469,-0.50087 0.20725,-0.13194 0.44781,-0.20882 0.47727,-0.12788 0.49225,-0.04306 0.49221,0.04306 0.4773,0.12788 0.44781,0.20882 0.40476,0.28342 0.34936,0.34939 0.28342,0.40474 0.20883,0.44783 0.12787,0.47727 z"
       style="fill:#e0e0e0;fill-opacity:1;fill-rule:nonzero;stroke:none"
       transform="matrix(1.3333333,0,0,-1.3333333,0,113.38587)" />
    <path
       id="path33"
       d="m 416.6499,42.16501 -0.0431,0.49223 -0.1279,0.47728 -0.20883,0.44782 -0.28339,0.40475 -0.34939,0.34938 -0.40476,0.28342 -0.44781,0.20881 -0.47726,0.12789 -0.49225,0.04306 -0.49222,-0.04306 -0.4773,-0.12789 -0.44781,-0.20881 -0.40476,-0.28342 -0.34936,-0.34938 -0.28342,-0.40475 -0.20883,-0.44782 -0.12787,-0.47728 -0.0431,-0.49223 0.0431,-0.49223 0.12787,-0.47727 0.20883,-0.44783 0.28342,-0.40474 0.5469,-0.50087 0.20722,-0.13194 0.44781,-0.20882 0.4773,-0.12788 0.49222,-0.04306 0.49225,0.04306 0.47726,0.12788 0.44781,0.20882 0.40476,0.28342 0.34939,0.34939 0.28339,0.40474 0.20883,0.44783 0.1279,0.47727 z"
       style="fill:#e0e0e0;fill-opacity:1;fill-rule:nonzero;stroke:none"
       transform="matrix(1.3333333,0,0,-1.3333333,0,113.38587)" />
  </g>
  <path
     id="path34"
     d="m 184.20895,19.27249 2.97638,0.4252 v -0.85038 l -2.97638,0.42518 m 28.34647,0 -2.97638,0.4252 v -0.85038 l 2.97638,0.42518 m -28.34647,0 v 2.12599 m 0,-2.12599 v -2.12598 m 28.34647,2.12598 v 2.12599 m 0,-2.12599 v -2.12598 m -28.34647,2.12598 v 0 m 28.34647,0 v 0 m -28.34647,0 h 28.34647"
     style="fill:none;stroke:#000000;stroke-width:0.3685;stroke-linecap:round;stroke-linejoin:round;stroke-miterlimit:10;stroke-dasharray:none;stroke-opacity:1"
     transform="matrix(1.3333333,0,0,-1.3333333,0,113.38587)" />
  <text
     id="text34"
     xml:space="preserve"
     transform="matrix(1.3333333,0,0,1.3333333,260.31129,102.2784)"
     clip-path="url(#clipPath35)"><tspan
       style="font-style:italic;font-variant:normal;font-weight:normal;font-stretch:normal;font-size:10.0071px;font-family:'Palatino Linotype';writing-mode:lr-tb;fill:#000000;fill-opacity:1;fill-rule:nonzero;stroke:none"
       x="0"
       y="0"
       id="tspan34">l</tspan></text>
  <text
     id="text35"
     xml:space="preserve"
     transform="matrix(1.3333333,0,0,1.3333333,264.30528,107.79021)"
     clip-path="url(#clipPath36)"><tspan
       style="font-style:italic;font-variant:normal;font-weight:normal;font-stretch:normal;font-size:6.00428px;font-family:'Palatino Linotype';writing-mode:lr-tb;fill:#000000;fill-opacity:1;fill-rule:nonzero;stroke:none"
       x="0 3.6686151"
       y="0"
       sodipodi:role="line"
       id="tspan35">El</tspan></text>
  <text
     id="text36"
     xml:space="preserve"
     transform="matrix(1.3333333,0,0,1.3333333,277.60476,11.652667)"
     clip-path="url(#clipPath37)"><tspan
       style="font-style:italic;font-variant:normal;font-weight:normal;font-stretch:normal;font-size:10.0071px;font-family:'Palatino Linotype';writing-mode:lr-tb;fill:#000000;fill-opacity:1;fill-rule:nonzero;stroke:none"
       x="0"
       y="0"
       id="tspan36">l</tspan></text>
  <text
     id="text37"
     xml:space="preserve"
     transform="matrix(1.3333333,0,0,1.3333333,281.59873,17.16448)"
     clip-path="url(#clipPath38)"><tspan
       style="font-style:italic;font-variant:normal;font-weight:normal;font-stretch:normal;font-size:6.00428px;font-family:'Palatino Linotype';writing-mode:lr-tb;fill:#000000;fill-opacity:1;fill-rule:nonzero;stroke:none"
       x="0 3.00214"
       y="0"
       sodipodi:role="line"
       id="tspan37">pl</tspan></text>
  <path
     id="path39"
     d="m 141.73233,67.83081 2.97638,0.4252 v -0.8504 l -2.97638,0.4252 m 141.73227,0 -2.97638,0.4252 v -0.8504 l 2.97638,0.4252 m -141.73227,0 v 2.12598 m 0,-2.12598 v -2.12598 m 141.73227,2.12598 v 2.12598 m 0,-2.12598 v -2.12598 m -141.73227,2.12598 v 0 m 141.73227,0 v 0 m -141.73227,0 H 283.4646"
     style="fill:none;stroke:#000000;stroke-width:0.3685;stroke-linecap:round;stroke-linejoin:round;stroke-miterlimit:10;stroke-dasharray:none;stroke-opacity:1"
     transform="matrix(1.3333333,0,0,-1.3333333,0,113.38587)" />
  <text
     id="text39"
     xml:space="preserve"
     transform="matrix(1.3333333,0,0,1.3333333,201.88483,78.8664)"
     clip-path="url(#clipPath40)"><tspan
       style="font-variant:normal;font-weight:normal;font-stretch:normal;font-size:10.0916px;font-family:'Palatino Linotype';writing-mode:lr-tb;fill:#000000;fill-opacity:1;fill-rule:nonzero;stroke:none"
       x="0"
       y="0"
       id="tspan39">Θ</tspan></text>
  <text
     id="text40"
     xml:space="preserve"
     transform="matrix(1.3333333,0,0,1.3333333,212.76772,84.378213)"
     clip-path="url(#clipPath41)"><tspan
       style="font-style:italic;font-variant:normal;font-weight:normal;font-stretch:normal;font-size:6.00428px;font-family:'Palatino Linotype';writing-mode:lr-tb;fill:#000000;fill-opacity:1;fill-rule:nonzero;stroke:none"
       x="0"
       y="0"
       id="tspan40">i</tspan></text>
  <path
     id="path42"
     d="m 212.55542,42.16501 c 0,1.56554 -1.26913,2.83464 -2.83466,2.83464 m 0,0 c -1.56552,0 -2.83465,-1.2691 -2.83465,-2.83464 m 0,0 c 0,-1.56554 1.26913,-2.83464 2.83465,-2.83464 m 0,0 c 1.56553,0 2.83466,1.2691 2.83466,2.83464"
     style="fill:none;stroke:#000000;stroke-width:0.3685;stroke-linecap:round;stroke-linejoin:round;stroke-miterlimit:10;stroke-dasharray:none;stroke-opacity:1"
     transform="matrix(1.3333333,0,0,-1.3333333,0,113.38587)" />
  <path
     id="path43"
     d="m 218.2247,42.16501 c 0,1.56554 -1.2691,2.83464 -2.83465,2.83464 m 0,0 c -1.56553,0 -2.83463,-1.2691 -2.83463,-2.83464 m 0,0 c 0,-1.56554 1.2691,-2.83464 2.83463,-2.83464 m 0,0 c 1.56555,0 2.83465,1.2691 2.83465,2.83464"
     style="fill:none;stroke:#000000;stroke-width:0.3685;stroke-linecap:round;stroke-linejoin:round;stroke-miterlimit:10;stroke-dasharray:none;stroke-opacity:1"
     transform="matrix(1.3333333,0,0,-1.3333333,0,113.38587)" />
  <path
     id="path44"
     d="m 240.90186,42.16501 c 0,1.56554 -1.26911,2.83464 -2.83463,2.83464 m 0,0 c -1.56555,0 -2.83466,-1.2691 -2.83466,-2.83464 m 0,0 c 0,-1.56554 1.26911,-2.83464 2.83466,-2.83464 m 0,0 c 1.56552,0 2.83463,1.2691 2.83463,2.83464"
     style="fill:none;stroke:#000000;stroke-width:0.3685;stroke-linecap:round;stroke-linejoin:round;stroke-miterlimit:10;stroke-dasharray:none;stroke-opacity:1"
     transform="matrix(1.3333333,0,0,-1.3333333,0,113.38587)" />
  <path
     id="path45"
     d="m 246.57117,42.16501 c 0,1.56554 -1.26914,2.83464 -2.83466,2.83464 m 0,0 c -1.56552,0 -2.83465,-1.2691 -2.83465,-2.83464 m 0,0 c 0,-1.56554 1.26913,-2.83464 2.83465,-2.83464 m 0,0 c 1.56552,0 2.83466,1.2691 2.83466,2.83464"
     style="fill:none;stroke:#000000;stroke-width:0.3685;stroke-linecap:round;stroke-linejoin:round;stroke-miterlimit:10;stroke-dasharray:none;stroke-opacity:1"
     transform="matrix(1.3333333,0,0,-1.3333333,0,113.38587)" />
  <path
     id="path46"
     d="m 184.20895,42.16501 c 0,1.56554 -1.2691,2.83464 -2.83465,2.83464 m 0,0 c -1.56552,0 -2.83463,-1.2691 -2.83463,-2.83464 m 0,0 c 0,-1.56554 1.26911,-2.83464 2.83463,-2.83464 m 0,0 c 1.56555,0 2.83465,1.2691 2.83465,2.83464"
     style="fill:none;stroke:#000000;stroke-width:0.3685;stroke-linecap:round;stroke-linejoin:round;stroke-miterlimit:10;stroke-dasharray:none;stroke-opacity:1"
     transform="matrix(1.3333333,0,0,-1.3333333,0,113.38587)" />
  <path
     id="path47"
     d="m 189.87823,42.16501 c 0,1.56554 -1.2691,2.83464 -2.83462,2.83464 m 0,0 c -1.56555,0 -2.83466,-1.2691 -2.83466,-2.83464 m 0,0 c 0,-1.56554 1.26911,-2.83464 2.83466,-2.83464 m 0,0 c 1.56552,0 2.83462,1.2691 2.83462,2.83464"
     style="fill:none;stroke:#000000;stroke-width:0.3685;stroke-linecap:round;stroke-linejoin:round;stroke-miterlimit:10;stroke-dasharray:none;stroke-opacity:1"
     transform="matrix(1.3333333,0,0,-1.3333333,0,113.38587)" />
  <path
     id="path48"
     d="m 155.86249,42.16501 c 0,1.56554 -1.26911,2.83464 -2.83463,2.83464 m 0,0 c -1.56555,0 -2.83465,-1.2691 -2.83465,-2.83464 m 0,0 c 0,-1.56554 1.2691,-2.83464 2.83465,-2.83464 m 0,0 c 1.56552,0 2.83463,1.2691 2.83463,2.83464"
     style="fill:none;stroke:#000000;stroke-width:0.3685;stroke-linecap:round;stroke-linejoin:round;stroke-miterlimit:10;stroke-dasharray:none;stroke-opacity:1"
     transform="matrix(1.3333333,0,0,-1.3333333,0,113.38587)" />
  <path
     id="path49"
     d="m 161.5318,42.16501 c 0,1.56554 -1.26914,2.83464 -2.83466,2.83464 m 0,0 c -1.56552,0 -2.83465,-1.2691 -2.83465,-2.83464 m 0,0 c 0,-1.56554 1.26913,-2.83464 2.83465,-2.83464 m 0,0 c 1.56552,0 2.83466,1.2691 2.83466,2.83464"
     style="fill:none;stroke:#000000;stroke-width:0.3685;stroke-linecap:round;stroke-linejoin:round;stroke-miterlimit:10;stroke-dasharray:none;stroke-opacity:1"
     transform="matrix(1.3333333,0,0,-1.3333333,0,113.38587)" />
  <path
     id="path50"
     d="m 127.51604,42.16501 c 0,1.56554 -1.26912,2.83464 -2.83464,2.83464 m 0,0 c -1.56554,0 -2.83466,-1.2691 -2.83466,-2.83464 m 0,0 c 0,-1.56554 1.26912,-2.83464 2.83466,-2.83464 m 0,0 c 1.56552,0 2.83464,1.2691 2.83464,2.83464"
     style="fill:none;stroke:#000000;stroke-width:0.3685;stroke-linecap:round;stroke-linejoin:round;stroke-miterlimit:10;stroke-dasharray:none;stroke-opacity:1"
     transform="matrix(1.3333333,0,0,-1.3333333,0,113.38587)" />
  <path
     id="path51"
     d="m 133.18533,42.16501 c 0,1.56554 -1.2691,2.83464 -2.83465,2.83464 m 0,0 c -1.56552,0 -2.83464,-1.2691 -2.83464,-2.83464 m 0,0 c 0,-1.56554 1.26912,-2.83464 2.83464,-2.83464 m 0,0 c 1.56555,0 2.83465,1.2691 2.83465,2.83464"
     style="fill:none;stroke:#000000;stroke-width:0.3685;stroke-linecap:round;stroke-linejoin:round;stroke-miterlimit:10;stroke-dasharray:none;stroke-opacity:1"
     transform="matrix(1.3333333,0,0,-1.3333333,0,113.38587)" />
  <path
     id="path52"
     d="m 269.24832,42.16501 c 0,1.56554 -1.2691,2.83464 -2.83465,2.83464 m 0,0 c -1.56553,0 -2.83463,-1.2691 -2.83463,-2.83464 m 0,0 c 0,-1.56554 1.2691,-2.83464 2.83463,-2.83464 m 0,0 c 1.56555,0 2.83465,1.2691 2.83465,2.83464"
     style="fill:none;stroke:#000000;stroke-width:0.3685;stroke-linecap:round;stroke-linejoin:round;stroke-miterlimit:10;stroke-dasharray:none;stroke-opacity:1"
     transform="matrix(1.3333333,0,0,-1.3333333,0,113.38587)" />
  <path
     id="path53"
     d="m 274.9176,42.16501 c 0,1.56554 -1.2691,2.83464 -2.83462,2.83464 m 0,0 c -1.56555,0 -2.83466,-1.2691 -2.83466,-2.83464 m 0,0 c 0,-1.56554 1.26911,-2.83464 2.83466,-2.83464 m 0,0 c 1.56552,0 2.83462,1.2691 2.83462,2.83464"
     style="fill:none;stroke:#000000;stroke-width:0.3685;stroke-linecap:round;stroke-linejoin:round;stroke-miterlimit:10;stroke-dasharray:none;stroke-opacity:1"
     transform="matrix(1.3333333,0,0,-1.3333333,0,113.38587)" />
  <path
     id="path54"
     d="m 297.59479,42.16501 c 0,1.56554 -1.26914,2.83464 -2.83466,2.83464 m 0,0 c -1.56552,0 -2.83465,-1.2691 -2.83465,-2.83464 m 0,0 c 0,-1.56554 1.26913,-2.83464 2.83465,-2.83464 m 0,0 c 1.56552,0 2.83466,1.2691 2.83466,2.83464"
     style="fill:none;stroke:#000000;stroke-width:0.3685;stroke-linecap:round;stroke-linejoin:round;stroke-miterlimit:10;stroke-dasharray:none;stroke-opacity:1"
     transform="matrix(1.3333333,0,0,-1.3333333,0,113.38587)" />
  <path
     id="path55"
     d="m 303.26407,42.16501 c 0,1.56554 -1.26911,2.83464 -2.83466,2.83464 m 0,0 c -1.56552,0 -2.83462,-1.2691 -2.83462,-2.83464 m 0,0 c 0,-1.56554 1.2691,-2.83464 2.83462,-2.83464 m 0,0 c 1.56555,0 2.83466,1.2691 2.83466,2.83464"
     style="fill:none;stroke:#000000;stroke-width:0.3685;stroke-linecap:round;stroke-linejoin:round;stroke-miterlimit:10;stroke-dasharray:none;stroke-opacity:1"
     transform="matrix(1.3333333,0,0,-1.3333333,0,113.38587)" />
  <path
     id="path56"
     d="m 325.94122,42.16501 c 0,1.56554 -1.2691,2.83464 -2.83462,2.83464 m 0,0 c -1.56555,0 -2.83466,-1.2691 -2.83466,-2.83464 m 0,0 c 0,-1.56554 1.26911,-2.83464 2.83466,-2.83464 m 0,0 c 1.56552,0 2.83462,1.2691 2.83462,2.83464"
     style="fill:none;stroke:#000000;stroke-width:0.3685;stroke-linecap:round;stroke-linejoin:round;stroke-miterlimit:10;stroke-dasharray:none;stroke-opacity:1"
     transform="matrix(1.3333333,0,0,-1.3333333,0,113.38587)" />
  <path
     id="path57"
     d="m 331.61053,42.16501 c 0,1.56554 -1.26913,2.83464 -2.83465,2.83464 m 0,0 c -1.56552,0 -2.83466,-1.2691 -2.83466,-2.83464 m 0,0 c 0,-1.56554 1.26914,-2.83464 2.83466,-2.83464 m 0,0 c 1.56552,0 2.83465,1.2691 2.83465,2.83464"
     style="fill:none;stroke:#000000;stroke-width:0.3685;stroke-linecap:round;stroke-linejoin:round;stroke-miterlimit:10;stroke-dasharray:none;stroke-opacity:1"
     transform="matrix(1.3333333,0,0,-1.3333333,0,113.38587)" />
  <path
     id="path58"
     d="m 99.16959,42.16501 c 0,1.56554 -1.26912,2.83464 -2.83466,2.83464 m 0,0 c -1.56552,0 -2.83464,-1.2691 -2.83464,-2.83464 m 0,0 c 0,-1.56554 1.26912,-2.83464 2.83464,-2.83464 m 0,0 c 1.56554,0 2.83466,1.2691 2.83466,2.83464"
     style="fill:none;stroke:#000000;stroke-width:0.3685;stroke-linecap:round;stroke-linejoin:round;stroke-miterlimit:10;stroke-dasharray:none;stroke-opacity:1"
     transform="matrix(1.3333333,0,0,-1.3333333,0,113.38587)" />
  <path
     id="path59"
     d="m 104.83887,42.16501 c 0,1.56554 -1.26911,2.83464 -2.83464,2.83464 m 0,0 c -1.56554,0 -2.83464,-1.2691 -2.83464,-2.83464 m 0,0 c 0,-1.56554 1.2691,-2.83464 2.83464,-2.83464 m 0,0 c 1.56553,0 2.83464,1.2691 2.83464,2.83464"
     style="fill:none;stroke:#000000;stroke-width:0.3685;stroke-linecap:round;stroke-linejoin:round;stroke-miterlimit:10;stroke-dasharray:none;stroke-opacity:1"
     transform="matrix(1.3333333,0,0,-1.3333333,0,113.38587)" />
  <path
     id="path60"
     d="m 70.82312,42.16501 c 0,1.56554 -1.2691,2.83464 -2.83464,2.83464 m 0,0 c -1.56554,0 -2.83464,-1.2691 -2.83464,-2.83464 m 0,0 c 0,-1.56554 1.2691,-2.83464 2.83464,-2.83464 m 0,0 c 1.56554,0 2.83464,1.2691 2.83464,2.83464"
     style="fill:none;stroke:#000000;stroke-width:0.3685;stroke-linecap:round;stroke-linejoin:round;stroke-miterlimit:10;stroke-dasharray:none;stroke-opacity:1"
     transform="matrix(1.3333333,0,0,-1.3333333,0,113.38587)" />
  <path
     id="path61"
     d="m 76.49242,42.16501 c 0,1.56554 -1.26912,2.83464 -2.83464,2.83464 m 0,0 c -1.56554,0 -2.83466,-1.2691 -2.83466,-2.83464 m 0,0 c 0,-1.56554 1.26912,-2.83464 2.83466,-2.83464 m 0,0 c 1.56552,0 2.83464,1.2691 2.83464,2.83464"
     style="fill:none;stroke:#000000;stroke-width:0.3685;stroke-linecap:round;stroke-linejoin:round;stroke-miterlimit:10;stroke-dasharray:none;stroke-opacity:1"
     transform="matrix(1.3333333,0,0,-1.3333333,0,113.38587)" />
  <path
     id="path62"
     d="m 42.47667,42.16501 c 0,1.56554 -1.26912,2.83464 -2.83466,2.83464 m 0,0 c -1.56552,0 -2.83464,-1.2691 -2.83464,-2.83464 m 0,0 c 0,-1.56554 1.26912,-2.83464 2.83464,-2.83464 m 0,0 c 1.56554,0 2.83466,1.2691 2.83466,2.83464"
     style="fill:none;stroke:#000000;stroke-width:0.3685;stroke-linecap:round;stroke-linejoin:round;stroke-miterlimit:10;stroke-dasharray:none;stroke-opacity:1"
     transform="matrix(1.3333333,0,0,-1.3333333,0,113.38587)" />
  <path
     id="path63"
     d="m 48.14595,42.16501 c 0,1.56554 -1.2691,2.83464 -2.83464,2.83464 m 0,0 c -1.56554,0 -2.83464,-1.2691 -2.83464,-2.83464 m 0,0 c 0,-1.56554 1.2691,-2.83464 2.83464,-2.83464 m 0,0 c 1.56554,0 2.83464,1.2691 2.83464,2.83464"
     style="fill:none;stroke:#000000;stroke-width:0.3685;stroke-linecap:round;stroke-linejoin:round;stroke-miterlimit:10;stroke-dasharray:none;stroke-opacity:1"
     transform="matrix(1.3333333,0,0,-1.3333333,0,113.38587)" />
  <path
     id="path64"
     d="m 14.1302,42.16501 c 0,1.56554 -1.26912,2.83464 -2.83464,2.83464 m 0,0 c -1.56553,0 -2.83465,-1.2691 -2.83465,-2.83464 m 0,0 c 0,-1.56554 1.26912,-2.83464 2.83465,-2.83464 m 0,0 c 1.56552,0 2.83464,1.2691 2.83464,2.83464"
     style="fill:none;stroke:#000000;stroke-width:0.3685;stroke-linecap:round;stroke-linejoin:round;stroke-miterlimit:10;stroke-dasharray:none;stroke-opacity:1"
     transform="matrix(1.3333333,0,0,-1.3333333,0,113.38587)" />
  <path
     id="path65"
     d="m 19.7995,42.16501 c 0,1.56554 -1.26912,2.83464 -2.83464,2.83464 m 0,0 c -1.56554,0 -2.83466,-1.2691 -2.83466,-2.83464 m 0,0 c 0,-1.56554 1.26912,-2.83464 2.83466,-2.83464 m 0,0 c 1.56552,0 2.83464,1.2691 2.83464,2.83464"
     style="fill:none;stroke:#000000;stroke-width:0.3685;stroke-linecap:round;stroke-linejoin:round;stroke-miterlimit:10;stroke-dasharray:none;stroke-opacity:1"
     transform="matrix(1.3333333,0,0,-1.3333333,0,113.38587)" />
  <path
     id="path66"
     d="m 354.28769,42.16501 c 0,1.56554 -1.2691,2.83464 -2.83466,2.83464 m 0,0 c -1.56552,0 -2.83462,-1.2691 -2.83462,-2.83464 m 0,0 c 0,-1.56554 1.2691,-2.83464 2.83462,-2.83464 m 0,0 c 1.56556,0 2.83466,1.2691 2.83466,2.83464"
     style="fill:none;stroke:#000000;stroke-width:0.3685;stroke-linecap:round;stroke-linejoin:round;stroke-miterlimit:10;stroke-dasharray:none;stroke-opacity:1"
     transform="matrix(1.3333333,0,0,-1.3333333,0,113.38587)" />
  <path
     id="path67"
     d="m 359.95697,42.16501 c 0,1.56554 -1.2691,2.83464 -2.83463,2.83464 m 0,0 c -1.56555,0 -2.83465,-1.2691 -2.83465,-2.83464 m 0,0 c 0,-1.56554 1.2691,-2.83464 2.83465,-2.83464 m 0,0 c 1.56553,0 2.83463,1.2691 2.83463,2.83464"
     style="fill:none;stroke:#000000;stroke-width:0.3685;stroke-linecap:round;stroke-linejoin:round;stroke-miterlimit:10;stroke-dasharray:none;stroke-opacity:1"
     transform="matrix(1.3333333,0,0,-1.3333333,0,113.38587)" />
  <path
     id="path68"
     d="m 382.63416,42.16501 c 0,1.56554 -1.26914,2.83464 -2.83466,2.83464 m 0,0 c -1.56552,0 -2.83466,-1.2691 -2.83466,-2.83464 m 0,0 c 0,-1.56554 1.26914,-2.83464 2.83466,-2.83464 m 0,0 c 1.56552,0 2.83466,1.2691 2.83466,2.83464"
     style="fill:none;stroke:#000000;stroke-width:0.3685;stroke-linecap:round;stroke-linejoin:round;stroke-miterlimit:10;stroke-dasharray:none;stroke-opacity:1"
     transform="matrix(1.3333333,0,0,-1.3333333,0,113.38587)" />
  <path
     id="path69"
     d="m 388.30344,42.16501 c 0,1.56554 -1.26911,2.83464 -2.83466,2.83464 m 0,0 c -1.56552,0 -2.83462,-1.2691 -2.83462,-2.83464 m 0,0 c 0,-1.56554 1.2691,-2.83464 2.83462,-2.83464 m 0,0 c 1.56555,0 2.83466,1.2691 2.83466,2.83464"
     style="fill:none;stroke:#000000;stroke-width:0.3685;stroke-linecap:round;stroke-linejoin:round;stroke-miterlimit:10;stroke-dasharray:none;stroke-opacity:1"
     transform="matrix(1.3333333,0,0,-1.3333333,0,113.38587)" />
  <path
     id="path70"
     d="m 410.98059,42.16501 c 0,1.56554 -1.2691,2.83464 -2.83462,2.83464 m 0,0 c -1.56556,0 -2.83466,-1.2691 -2.83466,-2.83464 m 0,0 c 0,-1.56554 1.2691,-2.83464 2.83466,-2.83464 m 0,0 c 1.56552,0 2.83462,1.2691 2.83462,2.83464"
     style="fill:none;stroke:#000000;stroke-width:0.3685;stroke-linecap:round;stroke-linejoin:round;stroke-miterlimit:10;stroke-dasharray:none;stroke-opacity:1"
     transform="matrix(1.3333333,0,0,-1.3333333,0,113.38587)" />
  <path
     id="path71"
     d="m 416.6499,42.16501 c 0,1.56554 -1.26913,2.83464 -2.83465,2.83464 m 0,0 c -1.56552,0 -2.83466,-1.2691 -2.83466,-2.83464 m 0,0 c 0,-1.56554 1.26914,-2.83464 2.83466,-2.83464 m 0,0 c 1.56552,0 2.83465,1.2691 2.83465,2.83464"
     style="fill:none;stroke:#000000;stroke-width:0.3685;stroke-linecap:round;stroke-linejoin:round;stroke-miterlimit:10;stroke-dasharray:none;stroke-opacity:1"
     transform="matrix(1.3333333,0,0,-1.3333333,0,113.38587)" />
</svg>
