<?xml version="1.0" encoding="UTF-8" standalone="no"?>
<!-- Created with Inkscape (http://www.inkscape.org/) -->

<svg
   version="1.1"
   id="svg1"
   width="566.92932"
   height="181.41733"
   viewBox="0 0 566.92932 181.41733"
   sodipodi:docname="jag_qs_hebelarm.pdf"
   xmlns:inkscape="http://www.inkscape.org/namespaces/inkscape"
   xmlns:sodipodi="http://sodipodi.sourceforge.net/DTD/sodipodi-0.dtd"
   xmlns="http://www.w3.org/2000/svg"
   xmlns:svg="http://www.w3.org/2000/svg">
  <defs
     id="defs1">
    <clipPath
       clipPathUnits="userSpaceOnUse"
       id="clipPath19">
      <path
         d="M -0.00426,-0.00136 V 136.06436 H 425.20111 V -0.00136 H -0.00426"
         transform="matrix(1,0,0,-1,-18.29656,90.681402)"
         clip-rule="evenodd"
         id="path19" />
    </clipPath>
    <clipPath
       clipPathUnits="userSpaceOnUse"
       id="clipPath20">
      <path
         d="M -0.00426,-0.00136 V 136.06436 H 425.20111 V -0.00136 H -0.00426"
         transform="matrix(1,0,0,-1,-28.03186,86.547542)"
         clip-rule="evenodd"
         id="path20" />
    </clipPath>
    <clipPath
       clipPathUnits="userSpaceOnUse"
       id="clipPath22">
      <path
         d="M -0.00426,-0.00136 V 136.06436 H 425.20111 V -0.00136 H -0.00426"
         transform="matrix(0,1,1,0,-66.758492,-393.6555)"
         clip-rule="evenodd"
         id="path22" />
    </clipPath>
    <clipPath
       clipPathUnits="userSpaceOnUse"
       id="clipPath24">
      <path
         d="M -0.00426,-0.00136 V 136.06436 H 425.20111 V -0.00136 H -0.00426"
         transform="matrix(1,0,0,-1,-166.85214,9.0934077)"
         clip-rule="evenodd"
         id="path24" />
    </clipPath>
    <clipPath
       clipPathUnits="userSpaceOnUse"
       id="clipPath25">
      <path
         d="M -0.00426,-0.00136 V 136.06436 H 425.20111 V -0.00136 H -0.00426"
         transform="matrix(1,0,0,-1,-256.39152,9.0934077)"
         clip-rule="evenodd"
         id="path25" />
    </clipPath>
    <clipPath
       clipPathUnits="userSpaceOnUse"
       id="clipPath26">
      <path
         d="M -0.00426,-0.00136 V 136.06436 H 425.20111 V -0.00136 H -0.00426"
         transform="matrix(1,0,0,-1,-275.09857,49.835209)"
         clip-rule="evenodd"
         id="path26" />
    </clipPath>
    <clipPath
       clipPathUnits="userSpaceOnUse"
       id="clipPath27">
      <path
         d="M -0.00426,-0.00136 V 136.06436 H 425.20111 V -0.00136 H -0.00426"
         transform="matrix(1,0,0,-1,-278.52628,45.701351)"
         clip-rule="evenodd"
         id="path27" />
    </clipPath>
    <clipPath
       clipPathUnits="userSpaceOnUse"
       id="clipPath28">
      <path
         d="M -0.00426,-0.00136 V 136.06436 H 425.20111 V -0.00136 H -0.00426"
         transform="matrix(1,0,0,-1,-237.41298,120.06299)"
         clip-rule="evenodd"
         id="path28" />
    </clipPath>
    <clipPath
       clipPathUnits="userSpaceOnUse"
       id="clipPath29">
      <path
         d="M -0.00426,-0.00136 V 136.06436 H 425.20111 V -0.00136 H -0.00426"
         transform="matrix(1,0,0,-1,-240.84069,115.92913)"
         clip-rule="evenodd"
         id="path29" />
    </clipPath>
    <clipPath
       clipPathUnits="userSpaceOnUse"
       id="clipPath31">
      <path
         d="M -0.00426,-0.00136 V 136.06436 H 425.20111 V -0.00136 H -0.00426"
         transform="matrix(0,1,1,0,-98.099082,-286.23123)"
         clip-rule="evenodd"
         id="path31" />
    </clipPath>
    <clipPath
       clipPathUnits="userSpaceOnUse"
       id="clipPath33">
      <path
         d="M -0.00426,-0.00136 V 136.06436 H 425.20111 V -0.00136 H -0.00426"
         transform="matrix(1,0,0,-1,-56.234641,42.434921)"
         clip-rule="evenodd"
         id="path33" />
    </clipPath>
    <clipPath
       clipPathUnits="userSpaceOnUse"
       id="clipPath34">
      <path
         d="M -0.00426,-0.00136 V 136.06436 H 425.20111 V -0.00136 H -0.00426"
         transform="matrix(1,0,0,-1,-82.075705,66.665091)"
         clip-rule="evenodd"
         id="path34" />
    </clipPath>
    <clipPath
       clipPathUnits="userSpaceOnUse"
       id="clipPath35">
      <path
         d="M -0.00426,-0.00136 V 136.06436 H 425.20111 V -0.00136 H -0.00426"
         transform="matrix(1,0,0,-1,-47.259411,67.105682)"
         clip-rule="evenodd"
         id="path35" />
    </clipPath>
  </defs>
  <sodipodi:namedview
     id="namedview1"
     pagecolor="#ffffff"
     bordercolor="#000000"
     borderopacity="0.25"
     inkscape:showpageshadow="2"
     inkscape:pageopacity="0.0"
     inkscape:pagecheckerboard="0"
     inkscape:deskcolor="#d1d1d1">
    <inkscape:page
       x="0"
       y="0"
       inkscape:label="1"
       id="page1"
       width="566.92932"
       height="181.41733"
       margin="0"
       bleed="0" />
  </sodipodi:namedview>
  <g
     id="layer-MC0"
     inkscape:groupmode="layer"
     inkscape:label="STABBEANSPR_DIAG">
    <path
       id="path1"
       d="m 59.76765,32.76271 h 42.51969 v 7.937 H 59.76765 Z m 0,73.70079 v -7.93701 h 42.51969 v 7.93701 z"
       style="fill:#909090;fill-opacity:1;fill-rule:nonzero;stroke:none"
       transform="matrix(1.3333333,0,0,-1.3333333,0,181.41733)" />
    <path
       id="path2"
       d="m 59.76765,106.4635 h 42.51969 v 5.66928 H 59.76765 Z m 1.64893,-34.8853 0.31618,-0.31618 0.25648,-0.36628 0.18897,-0.40526 0.11574,-0.43193 0.03897,-0.44545 -0.03897,-0.44545 -0.11574,-0.43192 -0.18897,-0.40526 -0.25648,-0.36628 -0.31618,-0.3162 -0.36629,-0.25646 -0.40527,-0.18898 -0.43192,-0.11573 -0.44545,-0.03898 V 40.69971 h 42.51969 V 98.52649 H 59.76765 V 72.17836 l 0.44545,-0.03897 0.43192,-0.11574 0.40527,-0.18896 z m 40.87076,-44.48479 v 5.6693 H 59.76765 v -5.6693 z"
       style="fill:#e0e0e0;fill-opacity:1;fill-rule:nonzero;stroke:none"
       transform="matrix(1.3333333,0,0,-1.3333333,0,181.41733)" />
  </g>
  <path
     id="path3"
     d="m 59.76765,12.92018 v 1.53652 m 0,5.95275 v 4.25197 m 0,5.95276 v 4.25197 m 0,5.95274 v 4.25197 m 0,5.95276 v 4.25197 m 0,5.95276 v 4.25197 m 0,5.95275 v 4.25197 m 0,5.95276 v 4.25197 m 0,5.95276 v 4.25197 m 0,5.95274 v 4.25197 m 0,5.95276 v 4.25197 m 0,5.95276 v 3.84932 m 0,-109.01468 v 0.28346 m 0,9.92126 v 0.28347 m 0,9.92126 v 0.28346 m 0,9.92127 v 0.28346 m 0,9.92126 v 0.28347 m 0,9.92126 v 0.28346 m 0,9.92125 v 0.28347 m 0,9.92126 v 0.28346 m 0,9.92127 v 0.28346 m 0,9.92127 v 0.28346 m 0,9.92126 v 0.28347 m 0,-106.70188 v 0 m 0,113.38584 v 0"
     style="fill:none;stroke:#000000;stroke-width:0.3685;stroke-linecap:round;stroke-linejoin:round;stroke-miterlimit:10;stroke-dasharray:none;stroke-opacity:1"
     transform="matrix(1.3333333,0,0,-1.3333333,0,181.41733)" />
  <path
     id="path4"
     d="M 42.37112,90.85942 C 30.7263,85.76053 25.41978,72.18706 30.51869,60.54224 m 0,0 C 32.88417,55.13997 37.233,50.85175 42.66792,48.56232"
     style="fill:none;stroke:#000000;stroke-width:0.51024;stroke-linecap:round;stroke-linejoin:round;stroke-miterlimit:10;stroke-dasharray:none;stroke-opacity:1"
     transform="matrix(1.3333333,0,0,-1.3333333,0,181.41733)" />
  <path
     id="path5"
     d="m 39.93501,89.41008 2.43611,1.44934 m -5.11583,-3.04361 -0.36541,-0.21739 m 5.48124,3.261 v 0 l -5.55062,-2.31277 0.86959,-1.46166 4.68103,3.77443"
     style="fill:none;stroke:#000000;stroke-width:0.3685;stroke-linecap:round;stroke-linejoin:round;stroke-miterlimit:10;stroke-dasharray:none;stroke-opacity:1"
     transform="matrix(1.3333333,0,0,-1.3333333,0,181.41733)" />
  <path
     id="path6"
     d="m 37.69009,87.08499 4.68103,3.77443 -5.55062,-2.31277 z"
     style="fill:#000000;fill-opacity:1;fill-rule:nonzero;stroke:none"
     transform="matrix(1.3333333,0,0,-1.3333333,0,181.41733)" />
  <path
     id="path7"
     d="m 62.33292,69.6131 c 0,1.41676 -1.14852,2.56526 -2.56527,2.56526 m 0,0 c -1.41674,0 -2.56526,-1.1485 -2.56526,-2.56526 m 0,0 c 0,-1.41675 1.14852,-2.56526 2.56526,-2.56526 m 0,0 c 1.41675,0 2.56527,1.14851 2.56527,2.56526"
     style="fill:none;stroke:#000000;stroke-width:0.3685;stroke-linecap:round;stroke-linejoin:round;stroke-miterlimit:10;stroke-dasharray:none;stroke-opacity:1"
     transform="matrix(1.3333333,0,0,-1.3333333,0,181.41733)" />
  <path
     id="path8"
     d="m 59.76765,112.13278 h 42.51969 M 59.76765,27.09341 h 42.51969 m -42.51969,13.6063 h 42.51969 m -42.51969,-7.937 h 42.51969 M 59.76765,98.52649 h 42.51969 m -42.51969,7.93701 h 42.51969 m 0,5.66928 V 27.09341 m 69.02937,85.03937 V 27.09341 m 90.70865,85.03937 V 27.09341 m 0,13.6063 h 39.68506 v -7.937 h -39.68506 m -107.71652,79.37007 h 17.00787 m 73.70081,0 h 17.00784 m 79.37009,0 V 27.09341 m 14.17321,9.63781 h 19.84253 m -5.95275,0 h -0.42521 m 6.37796,0 v 0 l -5.95275,0.85038 v -1.70077 l 5.95275,0.85039"
     style="fill:none;stroke:#000000;stroke-width:0.3685;stroke-linecap:round;stroke-linejoin:round;stroke-miterlimit:10;stroke-dasharray:none;stroke-opacity:1"
     transform="matrix(1.3333333,0,0,-1.3333333,0,181.41733)" />
  <path
     id="path9"
     d="m 369.45844,35.88083 5.95275,0.85039 -5.95275,0.85038 z"
     style="fill:#000000;fill-opacity:1;fill-rule:nonzero;stroke:none"
     transform="matrix(1.3333333,0,0,-1.3333333,0,181.41733)" />
  <path
     id="path10"
     d="m 375.41119,101.04376 h -19.84253 m 5.95276,0 h 0.4252 m -6.37796,0 v 0 l 5.95276,-0.8504 v 1.70077 l -5.95276,-0.85037"
     style="fill:none;stroke:#000000;stroke-width:0.3685;stroke-linecap:round;stroke-linejoin:round;stroke-miterlimit:10;stroke-dasharray:none;stroke-opacity:1"
     transform="matrix(1.3333333,0,0,-1.3333333,0,181.41733)" />
  <path
     id="path11"
     d="m 361.52142,101.89413 -5.95276,-0.85037 5.95276,-0.8504 z"
     style="fill:#000000;fill-opacity:1;fill-rule:nonzero;stroke:none"
     transform="matrix(1.3333333,0,0,-1.3333333,0,181.41733)" />
  <path
     id="path12"
     d="m 102.28734,36.73122 h 1.17723 m 2.83464,0 h 4.25197 m 2.83465,0 h 4.25197 m 2.83464,0 h 4.25197 m 2.83464,0 h 4.25199 m 2.83465,0 h 4.25195 m 2.83466,0 h 4.25195 m 2.83466,0 h 4.25195 m 2.83466,0 h 4.25198 m 2.83463,0 h 4.25198 m 2.83463,0 h 4.25198 m 2.83465,0 h 4.25196 m 2.83465,0 h 4.25196 m 2.83465,0 h 4.25196 m 2.83465,0 h 4.25199 m 2.83462,0 h 4.25198 m 2.83463,0 h 4.25198 m 2.83466,0 h 4.25195 m 2.83466,0 h 4.25195 m 2.83466,0 h 4.25195 m 2.83466,0 h 4.25198 m 2.83462,0 h 4.25199 m 2.83462,0 h 4.25199 m 2.83462,0 h 4.25199 m 2.83465,0 h 4.25195 m 2.83466,0 h 4.25195 m 2.83466,0 h 4.25195 m 2.83466,0 h 4.25198 m 2.83463,0 h 4.25198 m 2.83463,0 h 4.25198 m 2.83466,0 h 4.25195 m 2.83465,0 h 4.25196 m 2.83465,0 h 4.25196 m 2.83465,0 h 4.25199 m 2.83462,0 h 4.25198 m 2.83463,0 h 4.25198 m 2.83466,0 h 4.25195 m 2.83466,0 h 4.25195 m 2.83466,0 h 4.25198 m -270.46858,0 v 0 m 273.12385,0 v 0 M 102.28734,27.09341 h 1.17723 m 2.83464,0 h 4.25197 m 2.83465,0 h 4.25197 m 2.83464,0 h 4.25197 m 2.83464,0 h 4.25199 m 2.83465,0 h 4.25195 m 2.83466,0 h 4.25195 m 2.83466,0 h 4.25195 m 2.83466,0 h 4.25198"
     style="fill:none;stroke:#000000;stroke-width:0.3685;stroke-linecap:round;stroke-linejoin:round;stroke-miterlimit:10;stroke-dasharray:none;stroke-opacity:1"
     transform="matrix(1.3333333,0,0,-1.3333333,0,181.41733)" />
  <path
     id="path13"
     d="m 162.99213,27.09341 h 4.25198 m 2.83463,0 h 4.25198 m 2.83465,0 h 4.25196 m 2.83465,0 h 4.25196 m 2.83465,0 h 4.25196 m 2.83465,0 h 4.25199 m 2.83462,0 h 4.25198 m 2.83463,0 h 4.25198 m 2.83466,0 h 4.25195 m 2.83466,0 h 4.25195 m 2.83466,0 h 4.25195 m 2.83466,0 h 4.25198 m 2.83462,0 h 4.25199 m 2.83462,0 h 4.25199 m 2.83462,0 h 4.25199 m 2.83465,0 h 4.25195 m 2.83466,0 h 4.25195 m 2.83466,0 h 4.25195 m 2.83466,0 h 4.25198 m 2.83463,0 h 4.25198 m 2.83463,0 h 4.25198 m 2.83466,0 h 4.25195 m 2.83465,0 h 4.25196 m 2.83465,0 h 4.25196 m 2.83465,0 h 4.25199 m 2.83462,0 h 4.25198 m 2.83463,0 h 4.25198 m 2.83466,0 h 4.25195 m 2.83466,0 h 4.25195 m 2.83466,0 h 4.25198 m -270.46858,0 v 0 m 273.12385,0 v 0 m -273.12385,85.03937 h 1.17723 m 2.83464,0 h 4.25197 m 2.83465,0 h 4.25197 m 2.83464,0 h 4.25197 m 2.83464,0 h 4.25199 m 2.83465,0 h 4.25195 m 2.83466,0 h 4.25195 m 2.83466,0 h 4.25195 m 2.83466,0 h 4.25198 m 2.83463,0 h 4.25198 m 2.83463,0 h 4.25198 m 2.83465,0 h 4.25196 m 2.83465,0 h 4.25196 m 2.83465,0 h 4.25196 m 2.83465,0 h 4.25199 m 2.83462,0 h 4.25198 m 2.83463,0 h 4.25198 m 2.83466,0 h 4.25195"
     style="fill:none;stroke:#000000;stroke-width:0.3685;stroke-linecap:round;stroke-linejoin:round;stroke-miterlimit:10;stroke-dasharray:none;stroke-opacity:1"
     transform="matrix(1.3333333,0,0,-1.3333333,0,181.41733)" />
  <path
     id="path14"
     d="m 226.77167,112.13278 h 4.25195 m 2.83466,0 h 4.25195 m 2.83466,0 h 4.25198 m 2.83462,0 h 4.25199 m 2.83462,0 h 4.25199 m 2.83462,0 h 4.25199 m 2.83465,0 h 4.25195 m 2.83466,0 h 4.25195 m 2.83466,0 h 4.25195 m 2.83466,0 h 4.25198 m 2.83463,0 h 4.25198 m 2.83463,0 h 4.25198 m 2.83466,0 h 4.25195 m 2.83465,0 h 4.25196 m 2.83465,0 h 4.25196 m 2.83465,0 h 4.25199 m 2.83462,0 h 4.25198 m 2.83463,0 h 4.25198 m 2.83466,0 h 4.25195 m 2.83466,0 h 4.25195 m 2.83466,0 h 4.25198 m -270.46858,0 v 0 m 273.12385,0 v 0 M 171.31671,27.09341 h 45.35434 l -62.36221,85.03937 m 17.00787,-23.19255 h 3.01401 m 2.83465,0 h 4.25196 m 2.83465,0 h 4.25196 m 2.83465,0 h 4.25196 m 2.83465,0 h 4.25199 m 2.83462,0 h 4.25198 m 2.83463,0 h 4.25198 m 2.83466,0 h 4.25195 m 2.83466,0 h 4.25195 m 2.83466,0 h 4.25195 m 2.83466,0 h 4.25198 m 2.83462,0 h 4.25199 m 2.83462,0 h 4.25199 m 2.83462,0 h 4.25199 m 2.83465,0 h 4.25195 m 2.83466,0 h 4.25195 m 2.83466,0 h 2.93216 m -115.08002,0 v 0 m 115.08002,0 v 0 m -41.37921,2.83464 v 20.35791 m 0,-20.35791 h 17.00784 M 59.76765,69.6131 H 79.1002 m -5.95275,0 h -0.42521 m 6.37796,0 v 0 l -5.95275,0.8504"
     style="fill:none;stroke:#000000;stroke-width:0.3685;stroke-linecap:round;stroke-linejoin:round;stroke-miterlimit:10;stroke-dasharray:none;stroke-opacity:1"
     transform="matrix(1.3333333,0,0,-1.3333333,0,181.41733)" />
  <path
     id="path15"
     d="M 73.14745,70.4635 V 68.76271 L 79.1002,69.6131"
     style="fill:none;stroke:#000000;stroke-width:0.3685;stroke-linecap:round;stroke-linejoin:round;stroke-miterlimit:10;stroke-dasharray:none;stroke-opacity:1"
     transform="matrix(1.3333333,0,0,-1.3333333,0,181.41733)" />
  <path
     id="path16"
     d="m 73.14745,68.76271 5.95275,0.85039 -5.95275,0.8504 z"
     style="fill:#000000;fill-opacity:1;fill-rule:nonzero;stroke:none"
     transform="matrix(1.3333333,0,0,-1.3333333,0,181.41733)" />
  <path
     id="path17"
     d="M 59.76765,69.6131 V 52.5425 m 0,5.95275 v 0.42521 m 0,-6.37796 v 0 l 0.85041,5.95275 h -1.70079 l 0.85038,-5.95275"
     style="fill:none;stroke:#000000;stroke-width:0.3685;stroke-linecap:round;stroke-linejoin:round;stroke-miterlimit:10;stroke-dasharray:none;stroke-opacity:1"
     transform="matrix(1.3333333,0,0,-1.3333333,0,181.41733)" />
  <path
     id="path18"
     d="m 58.91727,58.49525 0.85038,-5.95275 0.85041,5.95275 z"
     style="fill:#000000;fill-opacity:1;fill-rule:nonzero;stroke:none"
     transform="matrix(1.3333333,0,0,-1.3333333,0,181.41733)" />
  <text
     id="text18"
     xml:space="preserve"
     transform="matrix(1.3333333,0,0,1.3333333,24.395413,60.5088)"
     clip-path="url(#clipPath19)"><tspan
       style="font-style:italic;font-variant:normal;font-weight:normal;font-stretch:normal;font-size:10.0071px;font-family:'Palatino Linotype';writing-mode:lr-tb;fill:#000000;fill-opacity:1;fill-rule:nonzero;stroke:none"
       x="0"
       y="0"
       id="tspan18">M</tspan></text>
  <text
     id="text19"
     xml:space="preserve"
     transform="matrix(1.3333333,0,0,1.3333333,37.375813,66.020613)"
     clip-path="url(#clipPath20)"><tspan
       style="font-style:italic;font-variant:normal;font-weight:normal;font-stretch:normal;font-size:6.00428px;font-family:'Palatino Linotype';writing-mode:lr-tb;fill:#000000;fill-opacity:1;fill-rule:nonzero;stroke:none"
       x="0"
       y="0"
       id="tspan19">y</tspan></text>
  <path
     id="path21"
     d="m 396.65564,36.73122 -0.4252,2.97638 h 0.8504 l -0.4252,-2.97638 m 0,64.31254 -0.4252,-2.97638 h 0.8504 l -0.4252,2.97638 m 0,-64.31254 h -2.12598 m 2.12598,0 h 2.12598 m -2.12598,64.31254 h -2.12598 m 2.12598,0 h 2.12598 m -2.12598,-64.31254 h -2.83466 m 2.83466,64.31254 h -2.83466 m 2.83466,-64.31254 v 0 m 0,64.31254 v 0"
     style="fill:none;stroke:#000000;stroke-width:0.3685;stroke-linecap:round;stroke-linejoin:round;stroke-miterlimit:10;stroke-dasharray:none;stroke-opacity:1"
     transform="matrix(1.3333333,0,0,-1.3333333,0,181.41733)" />
  <text
     id="text21"
     xml:space="preserve"
     transform="matrix(0,-1.3333333,1.3333333,0,524.87399,92.406013)"
     clip-path="url(#clipPath22)"><tspan
       style="font-style:italic;font-variant:normal;font-weight:normal;font-stretch:normal;font-size:10.0071px;font-family:'Palatino Linotype';writing-mode:lr-tb;fill:#000000;fill-opacity:1;fill-rule:nonzero;stroke:none"
       x="0"
       y="0"
       id="tspan21">z</tspan></text>
  <path
     id="path23"
     d="m 396.65564,36.73122 v 64.31254"
     style="fill:none;stroke:#000000;stroke-width:0.3685;stroke-linecap:round;stroke-linejoin:round;stroke-miterlimit:10;stroke-dasharray:none;stroke-opacity:1"
     transform="matrix(1.3333333,0,0,-1.3333333,0,181.41733)" />
  <text
     id="text23"
     xml:space="preserve"
     transform="matrix(1.3333333,0,0,1.3333333,222.46952,169.29279)"
     clip-path="url(#clipPath24)"><tspan
       style="font-style:italic;font-variant:normal;font-weight:normal;font-stretch:normal;font-size:18.0128px;font-family:'Palatino Linotype';writing-mode:lr-tb;fill:#000000;fill-opacity:1;fill-rule:nonzero;stroke:none"
       x="0"
       y="0"
       id="tspan23">ε</tspan></text>
  <text
     id="text24"
     xml:space="preserve"
     transform="matrix(1.3333333,0,0,1.3333333,341.85535,169.29279)"
     clip-path="url(#clipPath25)"><tspan
       style="font-style:italic;font-variant:normal;font-weight:normal;font-stretch:normal;font-size:18.0128px;font-family:'Palatino Linotype';writing-mode:lr-tb;fill:#000000;fill-opacity:1;fill-rule:nonzero;stroke:none"
       x="0"
       y="0"
       id="tspan24">σ</tspan></text>
  <text
     id="text25"
     xml:space="preserve"
     transform="matrix(1.3333333,0,0,1.3333333,366.79808,114.97039)"
     clip-path="url(#clipPath26)"><tspan
       style="font-style:italic;font-variant:normal;font-weight:normal;font-stretch:normal;font-size:10.0071px;font-family:'Palatino Linotype';writing-mode:lr-tb;fill:#000000;fill-opacity:1;fill-rule:nonzero;stroke:none"
       x="0"
       y="0"
       id="tspan25">f</tspan></text>
  <text
     id="text26"
     xml:space="preserve"
     transform="matrix(1.3333333,0,0,1.3333333,371.36837,120.4822)"
     clip-path="url(#clipPath27)"><tspan
       style="font-style:italic;font-variant:normal;font-weight:normal;font-stretch:normal;font-size:6.00428px;font-family:'Palatino Linotype';writing-mode:lr-tb;fill:#000000;fill-opacity:1;fill-rule:nonzero;stroke:none"
       x="0 2.335665"
       y="0"
       sodipodi:role="line"
       id="tspan26">su</tspan></text>
  <text
     id="text27"
     xml:space="preserve"
     transform="matrix(1.3333333,0,0,1.3333333,316.55063,21.333347)"
     clip-path="url(#clipPath28)"><tspan
       style="font-style:italic;font-variant:normal;font-weight:normal;font-stretch:normal;font-size:10.0071px;font-family:'Palatino Linotype';writing-mode:lr-tb;fill:#000000;fill-opacity:1;fill-rule:nonzero;stroke:none"
       x="0"
       y="0"
       id="tspan27">f</tspan></text>
  <text
     id="text28"
     xml:space="preserve"
     transform="matrix(1.3333333,0,0,1.3333333,321.12091,26.84516)"
     clip-path="url(#clipPath29)"><tspan
       style="font-style:italic;font-variant:normal;font-weight:normal;font-stretch:normal;font-size:6.00428px;font-family:'Palatino Linotype';writing-mode:lr-tb;fill:#000000;fill-opacity:1;fill-rule:nonzero;stroke:none"
       x="0 2.443742"
       y="0"
       sodipodi:role="line"
       id="tspan28">cc</tspan></text>
  <path
     id="path30"
     d="m 289.23138,88.94023 -0.4252,2.97638 h 0.85038 l -0.42518,-2.97638 m 0,23.19255 -0.4252,-2.97636 h 0.85038 l -0.42518,2.97636 m 0,-23.19255 h -2.126 m 2.126,0 h 2.12598 m -2.12598,23.19255 h -2.126 m 2.126,0 h 2.12598 m -2.12598,-23.19255 h -2.83465 m 2.83465,23.19255 h -2.83465 m 2.83465,-23.19255 v 0 m 0,23.19255 v 0"
     style="fill:none;stroke:#000000;stroke-width:0.3685;stroke-linecap:round;stroke-linejoin:round;stroke-miterlimit:10;stroke-dasharray:none;stroke-opacity:1"
     transform="matrix(1.3333333,0,0,-1.3333333,0,181.41733)" />
  <text
     id="text30"
     xml:space="preserve"
     transform="matrix(0,-1.3333333,1.3333333,0,381.64163,50.61856)"
     clip-path="url(#clipPath31)"><tspan
       style="font-style:italic;font-variant:normal;font-weight:normal;font-stretch:normal;font-size:10.0071px;font-family:'Palatino Linotype';writing-mode:lr-tb;fill:#000000;fill-opacity:1;fill-rule:nonzero;stroke:none"
       x="0"
       y="0"
       id="tspan30">x</tspan></text>
  <path
     id="path32"
     d="m 289.23138,88.94023 v 23.19255"
     style="fill:none;stroke:#000000;stroke-width:0.3685;stroke-linecap:round;stroke-linejoin:round;stroke-miterlimit:10;stroke-dasharray:none;stroke-opacity:1"
     transform="matrix(1.3333333,0,0,-1.3333333,0,181.41733)" />
  <text
     id="text32"
     xml:space="preserve"
     transform="matrix(1.3333333,0,0,1.3333333,74.97952,124.83744)"
     clip-path="url(#clipPath33)"><tspan
       style="font-style:italic;font-variant:normal;font-weight:normal;font-stretch:normal;font-size:10.0071px;font-family:'Palatino Linotype';writing-mode:lr-tb;fill:#000000;fill-opacity:1;fill-rule:nonzero;stroke:none"
       x="0"
       y="0"
       id="tspan32">Z</tspan></text>
  <text
     id="text33"
     xml:space="preserve"
     transform="matrix(1.3333333,0,0,1.3333333,109.43427,92.530547)"
     clip-path="url(#clipPath34)"><tspan
       style="font-style:italic;font-variant:normal;font-weight:normal;font-stretch:normal;font-size:10.0071px;font-family:'Palatino Linotype';writing-mode:lr-tb;fill:#000000;fill-opacity:1;fill-rule:nonzero;stroke:none"
       x="0"
       y="0"
       id="tspan33">X</tspan></text>
  <text
     id="text34"
     xml:space="preserve"
     transform="matrix(1.3333333,0,0,1.3333333,63.012547,91.943093)"
     clip-path="url(#clipPath35)"><tspan
       style="font-style:italic;font-variant:normal;font-weight:normal;font-stretch:normal;font-size:10.0071px;font-family:'Palatino Linotype';writing-mode:lr-tb;fill:#000000;fill-opacity:1;fill-rule:nonzero;stroke:none"
       x="0"
       y="0"
       id="tspan34">Y</tspan></text>
</svg>
