<?xml version="1.0" encoding="UTF-8" standalone="no"?>
<!-- Created with Inkscape (http://www.inkscape.org/) -->

<svg
   version="1.1"
   id="svg1"
   width="566.92932"
   height="132.28346"
   viewBox="0 0 566.92932 132.28346"
   sodipodi:docname="jag_plast_feld_C.pdf"
   xmlns:inkscape="http://www.inkscape.org/namespaces/inkscape"
   xmlns:sodipodi="http://sodipodi.sourceforge.net/DTD/sodipodi-0.dtd"
   xmlns="http://www.w3.org/2000/svg"
   xmlns:svg="http://www.w3.org/2000/svg">
  <defs
     id="defs1">
    <clipPath
       clipPathUnits="userSpaceOnUse"
       id="clipPath18">
      <path
         d="M -0.00426,-9.9e-4 V 99.21359 H 425.20111 V -9.9e-4 H -0.00426"
         transform="matrix(1,0,0,-1,-212.26407,44.998411)"
         clip-rule="evenodd"
         id="path18" />
    </clipPath>
    <clipPath
       clipPathUnits="userSpaceOnUse"
       id="clipPath19">
      <path
         d="M -0.00426,-9.9e-4 V 99.21359 H 425.20111 V -9.9e-4 H -0.00426"
         transform="matrix(1,0,0,-1,-223.49209,40.864551)"
         clip-rule="evenodd"
         id="path19" />
    </clipPath>
    <clipPath
       clipPathUnits="userSpaceOnUse"
       id="clipPath21">
      <path
         d="M -0.00426,-9.9e-4 V 99.21359 H 425.20111 V -9.9e-4 H -0.00426"
         transform="matrix(1,0,0,-1,-376.17422,20.233941)"
         clip-rule="evenodd"
         id="path21" />
    </clipPath>
    <clipPath
       clipPathUnits="userSpaceOnUse"
       id="clipPath22">
      <path
         d="M -0.00426,-9.9e-4 V 99.21359 H 425.20111 V -9.9e-4 H -0.00426"
         transform="matrix(1,0,0,-1,-284.6743,19.31726)"
         clip-rule="evenodd"
         id="path22" />
    </clipPath>
    <clipPath
       clipPathUnits="userSpaceOnUse"
       id="clipPath23">
      <path
         d="M -0.00426,-9.9e-4 V 99.21359 H 425.20111 V -9.9e-4 H -0.00426"
         transform="matrix(1,0,0,-1,-340.02955,7.8687727)"
         clip-rule="evenodd"
         id="path23" />
    </clipPath>
    <clipPath
       clipPathUnits="userSpaceOnUse"
       id="clipPath24">
      <path
         d="M -0.00426,-9.9e-4 V 99.21359 H 425.20111 V -9.9e-4 H -0.00426"
         transform="matrix(1,0,0,-1,-354.67075,77.097852)"
         clip-rule="evenodd"
         id="path24" />
    </clipPath>
    <clipPath
       clipPathUnits="userSpaceOnUse"
       id="clipPath25">
      <path
         d="M -0.00426,-9.9e-4 V 99.21359 H 425.20111 V -9.9e-4 H -0.00426"
         transform="matrix(1,0,0,-1,-380.33221,77.097852)"
         clip-rule="evenodd"
         id="path25" />
    </clipPath>
    <clipPath
       clipPathUnits="userSpaceOnUse"
       id="clipPath26">
      <path
         d="M -0.00426,-9.9e-4 V 99.21359 H 425.20111 V -9.9e-4 H -0.00426"
         transform="matrix(1,0,0,-1,-270.04713,77.097852)"
         clip-rule="evenodd"
         id="path26" />
    </clipPath>
    <clipPath
       clipPathUnits="userSpaceOnUse"
       id="clipPath27">
      <path
         d="M -0.00426,-9.9e-4 V 99.21359 H 425.20111 V -9.9e-4 H -0.00426"
         transform="matrix(1,0,0,-1,-309.42946,77.097852)"
         clip-rule="evenodd"
         id="path27" />
    </clipPath>
    <clipPath
       clipPathUnits="userSpaceOnUse"
       id="clipPath28">
      <path
         d="M -0.00426,-9.9e-4 V 99.21359 H 425.20111 V -9.9e-4 H -0.00426"
         transform="matrix(1,0,0,-1,-212.26407,26.100771)"
         clip-rule="evenodd"
         id="path28" />
    </clipPath>
    <clipPath
       clipPathUnits="userSpaceOnUse"
       id="clipPath29">
      <path
         d="M -0.00426,-9.9e-4 V 99.21359 H 425.20111 V -9.9e-4 H -0.00426"
         transform="matrix(1,0,0,-1,-221.35101,21.966913)"
         clip-rule="evenodd"
         id="path29" />
    </clipPath>
    <clipPath
       clipPathUnits="userSpaceOnUse"
       id="clipPath31">
      <path
         d="M -0.00426,-9.9e-4 V 99.21359 H 425.20111 V -9.9e-4 H -0.00426"
         transform="matrix(1,0,0,-1,-44.374001,83.540412)"
         clip-rule="evenodd"
         id="path31" />
    </clipPath>
    <clipPath
       clipPathUnits="userSpaceOnUse"
       id="clipPath32">
      <path
         d="M -0.00426,-9.9e-4 V 99.21359 H 425.20111 V -9.9e-4 H -0.00426"
         transform="matrix(1,0,0,-1,-9.4765802,87.613662)"
         clip-rule="evenodd"
         id="path32" />
    </clipPath>
    <clipPath
       clipPathUnits="userSpaceOnUse"
       id="clipPath33">
      <path
         d="M -0.00426,-9.9e-4 V 99.21359 H 425.20111 V -9.9e-4 H -0.00426"
         transform="matrix(1,0,0,-1,-17.073801,55.424631)"
         clip-rule="evenodd"
         id="path33" />
    </clipPath>
  </defs>
  <sodipodi:namedview
     id="namedview1"
     pagecolor="#ffffff"
     bordercolor="#000000"
     borderopacity="0.25"
     inkscape:showpageshadow="2"
     inkscape:pageopacity="0.0"
     inkscape:pagecheckerboard="0"
     inkscape:deskcolor="#d1d1d1">
    <inkscape:page
       x="0"
       y="0"
       inkscape:label="1"
       id="page1"
       width="566.92932"
       height="132.28346"
       margin="0"
       bleed="0" />
  </sodipodi:namedview>
  <g
     id="layer-MC0"
     inkscape:groupmode="layer"
     inkscape:label="STABBEANSPR_DIAG">
    <path
       id="path1"
       d="m 144.60269,32.85316 9.48007,4.76348 H 37.09479 l 18.14764,-9.15686 10.7849,-4.47626 8.7953,-2.70401 8.00734,-1.51477 8.30916,-0.60936 8.79472,0.32283 9.45182,1.33939 10.33454,2.49812 11.54801,3.88313 z m 16.45658,8.26899 -6.97651,-3.50551 h 34.19312 v 18.89764 z"
       style="fill:#dcdcdc;fill-opacity:1;fill-rule:nonzero;stroke:none"
       transform="matrix(1.3333333,0,0,-1.3333333,0,132.28347)" />
  </g>
  <path
     id="path2"
     d="m 257.95148,37.61664 v 0"
     style="fill:none;stroke:#000000;stroke-width:0.51024;stroke-linecap:round;stroke-linejoin:round;stroke-miterlimit:10;stroke-dasharray:none;stroke-opacity:1"
     transform="matrix(1.3333333,0,0,-1.3333333,0,132.28347)" />
  <path
     id="path3"
     d="m 299.3989,27.31158 c -1.14283,-3.38491 -1.59891,-6.96379 -1.34162,-10.52714"
     style="fill:none;stroke:#1d1d1d;stroke-width:0.3685;stroke-linecap:round;stroke-linejoin:round;stroke-miterlimit:10;stroke-dasharray:none;stroke-opacity:1"
     transform="matrix(1.3333333,0,0,-1.3333333,0,132.28347)" />
  <path
     id="path4"
     d="m 347.25903,15.56238 c 0.20468,3.39349 -0.23669,6.795 -1.30069,10.02388"
     style="fill:none;stroke:#1d1d1d;stroke-width:0.3685;stroke-linecap:round;stroke-linejoin:round;stroke-miterlimit:10;stroke-dasharray:none;stroke-opacity:1"
     transform="matrix(1.3333333,0,0,-1.3333333,0,132.28347)" />
  <path
     id="path5"
     d="m 388.67627,38.85039 c -0.15616,-2.58899 0.18057,-5.1841 0.99231,-7.64751"
     style="fill:none;stroke:#1d1d1d;stroke-width:0.3685;stroke-linecap:round;stroke-linejoin:round;stroke-miterlimit:10;stroke-dasharray:none;stroke-opacity:1"
     transform="matrix(1.3333333,0,0,-1.3333333,0,132.28347)" />
  <path
     id="path6"
     d="m 257.95148,37.61664 66.89764,-18.89763 84.28345,18.89763"
     style="fill:none;stroke:#1d1d1d;stroke-width:0.3685;stroke-linecap:round;stroke-linejoin:round;stroke-miterlimit:10;stroke-dasharray:none;stroke-opacity:1"
     transform="matrix(1.3333333,0,0,-1.3333333,0,132.28347)" />
  <path
     id="path7"
     d="m 37.09479,37.61664 h 151.18109 m -151.18109,0 h 151.18109 m 69.6756,0 h 151.18109 m -151.18109,0 -6.68131,-6.68132 m 6.68131,6.68132 6.68133,-6.68132 m -13.36264,0 h 13.36264 m -13.36264,-2.4567 h 13.36264 m 144.49976,9.13802 -6.68131,-6.68132 m 6.68131,6.68132 6.68133,-6.68132 m -13.36264,0 h 13.36264 m -13.36264,-2.4567 2.4567,2.4567 m 0,-2.4567 2.45669,2.4567 m 0,-2.4567 2.4567,2.4567 m 0,-2.4567 2.4567,2.4567 m 0,-2.4567 2.45666,2.4567 m -156.78323,6.68132 h 151.18109"
     style="fill:none;stroke:#000000;stroke-width:0.3685;stroke-linecap:round;stroke-linejoin:round;stroke-miterlimit:10;stroke-dasharray:none;stroke-opacity:1"
     transform="matrix(1.3333333,0,0,-1.3333333,0,132.28347)" />
  <path
     id="path8"
     d="M 316.15619,18.71901 H 293.668 m 56.12601,0 h -15.87403"
     style="fill:none;stroke:#1d1d1d;stroke-width:0.3685;stroke-linecap:round;stroke-linejoin:round;stroke-miterlimit:10;stroke-dasharray:none;stroke-opacity:1"
     transform="matrix(1.3333333,0,0,-1.3333333,0,132.28347)" />
  <path
     id="path9"
     d="m 23.12344,87.39552 c 0,1.50791 -1.22239,2.7303 -2.7303,2.7303 m 0,0 c -1.5079,0 -2.73031,-1.22239 -2.73031,-2.7303 m 0,0 c 0,-1.5079 1.22241,-2.7303 2.73031,-2.7303 m 0,0 c 1.50791,0 2.7303,1.2224 2.7303,2.7303"
     style="fill:none;stroke:#000000;stroke-width:0.3685;stroke-linecap:round;stroke-linejoin:round;stroke-miterlimit:10;stroke-dasharray:none;stroke-opacity:1"
     transform="matrix(1.3333333,0,0,-1.3333333,0,132.28347)" />
  <path
     id="path10"
     d="m 410.94519,40.7562 h -3.62521 l -2.12143,-3.67438 0.57263,0.07785 1.5488,-2.68257 h 3.62521 l 2.36249,4.0919 -0.97171,-0.22165 z"
     style="fill:#ffffff;fill-opacity:1;fill-rule:nonzero;stroke:none"
     transform="matrix(1.3333333,0,0,-1.3333333,0,132.28347)" />
  <path
     id="path11"
     d="m 326.66174,21.85855 h -3.62524 l -2.1214,-3.67436 0.5726,0.07783 1.5488,-2.68257 h 3.62524 l 2.36246,4.09191 -0.97171,-0.22165 z"
     style="fill:#ffffff;fill-opacity:1;fill-rule:nonzero;stroke:none"
     transform="matrix(1.3333333,0,0,-1.3333333,0,132.28347)" />
  <path
     id="path12"
     d="m 412.75781,37.61664 c 0,2.00216 -1.62307,3.62524 -3.62524,3.62524 m 0,0 c -2.00214,0 -3.62522,-1.62308 -3.62522,-3.62524 m 0,0 c 0,-2.00215 1.62308,-3.62523 3.62522,-3.62523 m 0,0 c 2.00217,0 3.62524,1.62308 3.62524,3.62523"
     style="fill:none;stroke:#1d1d1d;stroke-width:0.51024;stroke-linecap:round;stroke-linejoin:round;stroke-miterlimit:10;stroke-dasharray:none;stroke-opacity:1"
     transform="matrix(1.3333333,0,0,-1.3333333,0,132.28347)" />
  <path
     id="path13"
     d="m 328.47437,18.71901 c 0,2.00217 -1.62308,3.62524 -3.62525,3.62524 m 0,0 c -2.00217,0 -3.62524,-1.62307 -3.62524,-3.62524 m 0,0 c 0,-2.00217 1.62307,-3.62524 3.62524,-3.62524 m 0,0 c 2.00217,0 3.62525,1.62307 3.62525,3.62524"
     style="fill:none;stroke:#1d1d1d;stroke-width:0.51024;stroke-linecap:round;stroke-linejoin:round;stroke-miterlimit:10;stroke-dasharray:none;stroke-opacity:1"
     transform="matrix(1.3333333,0,0,-1.3333333,0,132.28347)" />
  <path
     id="path14"
     d="m 20.39314,87.39552 h 21.9972 m -5.95276,0 h -0.42519 m 6.37795,0 v 0 l -5.95276,0.85039 v -1.70077 l 5.95276,0.85038"
     style="fill:none;stroke:#000000;stroke-width:0.3685;stroke-linecap:round;stroke-linejoin:round;stroke-miterlimit:10;stroke-dasharray:none;stroke-opacity:1"
     transform="matrix(1.3333333,0,0,-1.3333333,0,132.28347)" />
  <path
     id="path15"
     d="m 36.43758,86.54514 5.95276,0.85038 -5.95276,0.85039 z"
     style="fill:#000000;fill-opacity:1;fill-rule:nonzero;stroke:none"
     transform="matrix(1.3333333,0,0,-1.3333333,0,132.28347)" />
  <path
     id="path16"
     d="M 20.39314,87.39552 V 65.94255 m 0,5.95276 v 0.42519 m 0,-6.37795 v 0 l 0.85039,5.95276 h -1.70077 l 0.85038,-5.95276"
     style="fill:none;stroke:#000000;stroke-width:0.3685;stroke-linecap:round;stroke-linejoin:round;stroke-miterlimit:10;stroke-dasharray:none;stroke-opacity:1"
     transform="matrix(1.3333333,0,0,-1.3333333,0,132.28347)" />
  <path
     id="path17"
     d="m 19.54276,71.89531 0.85038,-5.95276 0.85039,5.95276 z"
     style="fill:#000000;fill-opacity:1;fill-rule:nonzero;stroke:none"
     transform="matrix(1.3333333,0,0,-1.3333333,0,132.28347)" />
  <text
     id="text17"
     xml:space="preserve"
     transform="matrix(1.3333333,0,0,1.3333333,283.01875,72.285587)"
     clip-path="url(#clipPath18)"><tspan
       style="font-style:italic;font-variant:normal;font-weight:normal;font-stretch:normal;font-size:10.0071px;font-family:'Palatino Linotype';writing-mode:lr-tb;fill:#000000;fill-opacity:1;fill-rule:nonzero;stroke:none"
       x="0 7.7855473"
       y="0"
       sodipodi:role="line"
       id="tspan17">m'</tspan></text>
  <text
     id="text18"
     xml:space="preserve"
     transform="matrix(1.3333333,0,0,1.3333333,297.98944,77.7974)"
     clip-path="url(#clipPath19)"><tspan
       style="font-style:italic;font-variant:normal;font-weight:normal;font-stretch:normal;font-size:6.00428px;font-family:'Palatino Linotype';writing-mode:lr-tb;fill:#000000;fill-opacity:1;fill-rule:nonzero;stroke:none"
       x="0"
       y="0"
       id="tspan18">u</tspan></text>
  <path
     id="path20"
     d="m 208.1394,37.61664 -0.4252,2.97638 h 0.85038 l -0.42518,-2.97638 m 0,18.89764 -0.4252,-2.97638 h 0.85038 l -0.42518,2.97638 m 0,-18.89764 h -2.126 m 2.126,0 h 2.12598 m -2.12598,18.89764 h -2.126 m 2.126,0 h 2.12598 M 208.1394,37.61664 H 193.02127 M 208.1394,56.51428 H 193.02127 M 208.1394,37.61664 v 0 m 0,18.89764 v 0 m 0,-18.89764 v 18.89764"
     style="fill:none;stroke:#000000;stroke-width:0.3685;stroke-linecap:round;stroke-linejoin:round;stroke-miterlimit:10;stroke-dasharray:none;stroke-opacity:1"
     transform="matrix(1.3333333,0,0,-1.3333333,0,132.28347)" />
  <text
     id="text20"
     xml:space="preserve"
     transform="matrix(1.3333333,0,0,1.3333333,501.56561,105.30488)"
     clip-path="url(#clipPath21)"><tspan
       style="font-style:italic;font-variant:normal;font-weight:normal;font-stretch:normal;font-size:10.0071px;font-family:'Palatino Linotype';writing-mode:lr-tb;fill:#1d1d1d;fill-opacity:1;fill-rule:nonzero;stroke:none"
       x="0 5.0035648 7.5053477 12.508912 17.512478 22.516043"
       y="0"
       sodipodi:role="line"
       id="tspan20">0.414w</tspan></text>
  <text
     id="text21"
     xml:space="preserve"
     transform="matrix(1.3333333,0,0,1.3333333,379.56573,106.52712)"
     clip-path="url(#clipPath22)"><tspan
       style="font-style:italic;font-variant:normal;font-weight:normal;font-stretch:normal;font-size:10.0071px;font-family:'Palatino Linotype';writing-mode:lr-tb;fill:#1d1d1d;fill-opacity:1;fill-rule:nonzero;stroke:none"
       x="0"
       y="0"
       id="tspan21">w</tspan></text>
  <text
     id="text22"
     xml:space="preserve"
     transform="matrix(1.3333333,0,0,1.3333333,453.37272,121.79177)"
     clip-path="url(#clipPath23)"><tspan
       style="font-style:italic;font-variant:normal;font-weight:normal;font-stretch:normal;font-size:10.0071px;font-family:'Palatino Linotype';writing-mode:lr-tb;fill:#1d1d1d;fill-opacity:1;fill-rule:nonzero;stroke:none"
       x="0 5.0035648 7.5053477 12.508912 17.512478 22.516043 25.017824"
       y="0"
       sodipodi:role="line"
       id="tspan22">0.414 w</tspan></text>
  <text
     id="text23"
     xml:space="preserve"
     transform="matrix(1.3333333,0,0,1.3333333,472.89432,29.486333)"
     clip-path="url(#clipPath24)"><tspan
       style="font-variant:normal;font-weight:normal;font-stretch:normal;font-size:10.0916px;font-family:'Palatino Linotype';writing-mode:lr-tb;fill:#000000;fill-opacity:1;fill-rule:nonzero;stroke:none"
       x="0 5.045805 7.5687075 12.614512 17.660318"
       y="0"
       sodipodi:role="line"
       id="tspan23">0.586</tspan></text>
  <text
     id="text24"
     xml:space="preserve"
     transform="matrix(1.3333333,0,0,1.3333333,507.1096,29.486333)"
     clip-path="url(#clipPath25)"><tspan
       style="font-style:italic;font-variant:normal;font-weight:normal;font-stretch:normal;font-size:10.0071px;font-family:'Palatino Linotype';writing-mode:lr-tb;fill:#000000;fill-opacity:1;fill-rule:nonzero;stroke:none"
       x="0"
       y="0"
       id="tspan24">l</tspan></text>
  <text
     id="text25"
     xml:space="preserve"
     transform="matrix(1.3333333,0,0,1.3333333,360.06283,29.486333)"
     clip-path="url(#clipPath26)"><tspan
       style="font-variant:normal;font-weight:normal;font-stretch:normal;font-size:10.0916px;font-family:'Palatino Linotype';writing-mode:lr-tb;fill:#000000;fill-opacity:1;fill-rule:nonzero;stroke:none"
       x="0 5.045805 7.5687075 10.929214 13.452116 18.497921 21.020824 26.066629 31.112434"
       y="0"
       sodipodi:role="line"
       id="tspan25">1 - 0.586</tspan></text>
  <text
     id="text26"
     xml:space="preserve"
     transform="matrix(1.3333333,0,0,1.3333333,412.5726,29.486333)"
     clip-path="url(#clipPath27)"><tspan
       style="font-style:italic;font-variant:normal;font-weight:normal;font-stretch:normal;font-size:10.0071px;font-family:'Palatino Linotype';writing-mode:lr-tb;fill:#000000;fill-opacity:1;fill-rule:nonzero;stroke:none"
       x="0"
       y="0"
       id="tspan26">l</tspan></text>
  <text
     id="text27"
     xml:space="preserve"
     transform="matrix(1.3333333,0,0,1.3333333,283.01875,97.48244)"
     clip-path="url(#clipPath28)"><tspan
       style="font-style:italic;font-variant:normal;font-weight:normal;font-stretch:normal;font-size:10.0071px;font-family:'Palatino Linotype';writing-mode:lr-tb;fill:#000000;fill-opacity:1;fill-rule:nonzero;stroke:none"
       x="0"
       y="0"
       id="tspan27">m</tspan></text>
  <text
     id="text28"
     xml:space="preserve"
     transform="matrix(1.3333333,0,0,1.3333333,295.13467,102.99425)"
     clip-path="url(#clipPath29)"><tspan
       style="font-style:italic;font-variant:normal;font-weight:normal;font-stretch:normal;font-size:6.00428px;font-family:'Palatino Linotype';writing-mode:lr-tb;fill:#000000;fill-opacity:1;fill-rule:nonzero;stroke:none"
       x="0"
       y="0"
       id="tspan28">u</tspan></text>
  <path
     id="path30"
     d="m 208.1394,19.31679 -0.4252,2.97638 h 0.85038 l -0.42518,-2.97638 m 0,18.29985 -0.4252,-2.97637 h 0.85038 l -0.42518,2.97637 m 0,-18.29985 h -2.126 m 2.126,0 h 2.12598 m -2.12598,18.29985 h -2.126 m 2.126,0 h 2.12598 M 208.1394,19.31679 H 193.02127 M 208.1394,37.61664 H 193.02127 M 208.1394,19.31679 v 0 m 0,18.29985 v 0 m 0,-18.29985 v 18.29985 m 49.81208,36.43114 2.97638,0.42518 v -0.85039 l -2.97638,0.42521 m 66.89764,0 -2.97638,0.42518 v -0.85039 l 2.97638,0.42521 2.97638,0.42518 v -0.85039 l -2.97638,0.42521 m 84.28345,0 -2.97635,0.42518 v -0.85039 l 2.97635,0.42521 m -151.18109,0 v 2.12597 m 0,-2.12597 v -2.126 m 66.89764,2.126 v 2.12597 m 0,-2.12597 v -2.126 m 0,2.126 v 2.12597 m 0,-2.12597 v -2.126 m 84.28345,2.126 v 2.12597 m 0,-2.12597 v -2.126 m -151.18109,2.126 V 58.92966 m 66.89764,15.11812 V 58.92966 m 84.28345,15.11812 V 58.92966 M 257.95148,74.04778 v 0 m 151.18109,0 v 0 m -151.18109,0 h 66.89764 84.28345"
     style="fill:none;stroke:#000000;stroke-width:0.3685;stroke-linecap:round;stroke-linejoin:round;stroke-miterlimit:10;stroke-dasharray:none;stroke-opacity:1"
     transform="matrix(1.3333333,0,0,-1.3333333,0,132.28347)" />
  <text
     id="text30"
     xml:space="preserve"
     transform="matrix(1.3333333,0,0,1.3333333,59.165333,20.896253)"
     clip-path="url(#clipPath31)"><tspan
       style="font-style:italic;font-variant:normal;font-weight:normal;font-stretch:normal;font-size:10.0071px;font-family:'Palatino Linotype';writing-mode:lr-tb;fill:#000000;fill-opacity:1;fill-rule:nonzero;stroke:none"
       x="0"
       y="0"
       id="tspan30">X</tspan></text>
  <text
     id="text31"
     xml:space="preserve"
     transform="matrix(1.3333333,0,0,1.3333333,12.63544,15.465253)"
     clip-path="url(#clipPath32)"><tspan
       style="font-style:italic;font-variant:normal;font-weight:normal;font-stretch:normal;font-size:10.0071px;font-family:'Palatino Linotype';writing-mode:lr-tb;fill:#000000;fill-opacity:1;fill-rule:nonzero;stroke:none"
       x="0"
       y="0"
       id="tspan31">Y</tspan></text>
  <text
     id="text32"
     xml:space="preserve"
     transform="matrix(1.3333333,0,0,1.3333333,22.765067,58.38396)"
     clip-path="url(#clipPath33)"><tspan
       style="font-style:italic;font-variant:normal;font-weight:normal;font-stretch:normal;font-size:10.0071px;font-family:'Palatino Linotype';writing-mode:lr-tb;fill:#000000;fill-opacity:1;fill-rule:nonzero;stroke:none"
       x="0"
       y="0"
       id="tspan32">Z</tspan></text>
</svg>
