<?xml version="1.0" encoding="UTF-8" standalone="no"?>
<!-- Created with Inkscape (http://www.inkscape.org/) -->

<svg
   version="1.1"
   id="svg1"
   width="566.92932"
   height="170.07867"
   viewBox="0 0 566.92932 170.07867"
   sodipodi:docname="jag_system_qs.pdf"
   xmlns:inkscape="http://www.inkscape.org/namespaces/inkscape"
   xmlns:sodipodi="http://sodipodi.sourceforge.net/DTD/sodipodi-0.dtd"
   xmlns="http://www.w3.org/2000/svg"
   xmlns:svg="http://www.w3.org/2000/svg">
  <defs
     id="defs1">
    <clipPath
       clipPathUnits="userSpaceOnUse"
       id="clipPath20">
      <path
         d="M -0.00426,-0.00128 V 127.56033 H 425.20111 V -0.00128 H -0.00426"
         transform="matrix(1,0,0,-1,-161.38066,60.643122)"
         clip-rule="evenodd"
         id="path20" />
    </clipPath>
    <clipPath
       clipPathUnits="userSpaceOnUse"
       id="clipPath21">
      <path
         d="M -0.00426,-0.00128 V 127.56033 H 425.20111 V -0.00128 H -0.00426"
         transform="matrix(1,0,0,-1,-205.89645,60.643122)"
         clip-rule="evenodd"
         id="path21" />
    </clipPath>
    <clipPath
       clipPathUnits="userSpaceOnUse"
       id="clipPath22">
      <path
         d="M -0.00426,-0.00128 V 127.56033 H 425.20111 V -0.00128 H -0.00426"
         transform="matrix(1,0,0,-1,-216.47704,60.643122)"
         clip-rule="evenodd"
         id="path22" />
    </clipPath>
    <clipPath
       clipPathUnits="userSpaceOnUse"
       id="clipPath24">
      <path
         d="M -0.00426,-0.00128 V 127.56033 H 425.20111 V -0.00128 H -0.00426"
         transform="matrix(1,0,0,-1,-203.77788,8.5768702)"
         clip-rule="evenodd"
         id="path24" />
    </clipPath>
    <clipPath
       clipPathUnits="userSpaceOnUse"
       id="clipPath26">
      <path
         d="M -0.00426,-0.00128 V 127.56033 H 425.20111 V -0.00128 H -0.00426"
         transform="matrix(1,0,0,-1,-103.76242,80.482472)"
         clip-rule="evenodd"
         id="path26" />
    </clipPath>
    <clipPath
       clipPathUnits="userSpaceOnUse"
       id="clipPath27">
      <path
         d="M -0.00426,-0.00128 V 127.56033 H 425.20111 V -0.00128 H -0.00426"
         transform="matrix(1,0,0,-1,-96.165205,112.67151)"
         clip-rule="evenodd"
         id="path27" />
    </clipPath>
    <clipPath
       clipPathUnits="userSpaceOnUse"
       id="clipPath28">
      <path
         d="M -0.00426,-0.00128 V 127.56033 H 425.20111 V -0.00128 H -0.00426"
         transform="matrix(1,0,0,-1,-131.06262,108.59825)"
         clip-rule="evenodd"
         id="path28" />
    </clipPath>
  </defs>
  <sodipodi:namedview
     id="namedview1"
     pagecolor="#ffffff"
     bordercolor="#000000"
     borderopacity="0.25"
     inkscape:showpageshadow="2"
     inkscape:pageopacity="0.0"
     inkscape:pagecheckerboard="0"
     inkscape:deskcolor="#d1d1d1">
    <inkscape:page
       x="0"
       y="0"
       inkscape:label="1"
       id="page1"
       width="566.92932"
       height="170.07867"
       margin="0"
       bleed="0" />
  </sodipodi:namedview>
  <g
     id="layer-MC0"
     inkscape:groupmode="layer"
     inkscape:label="STABBEANSPR_DIAG">
    <path
       id="path1"
       d="m 138.33075,49.44115 -0.41797,0.1949 -0.44546,0.11935 -0.45942,0.04019 -0.45941,-0.04019 -0.44546,-0.11935 -0.41797,-0.1949 -0.37775,-0.26451 -0.32611,-0.32612 -0.26449,-0.37776 -0.19492,-0.41797 -0.11935,-0.44545 -0.0402,-0.45941 0.0402,-0.45942 0.11935,-0.44545 0.19492,-0.41797 0.26449,-0.37776 0.32611,-0.3261 0.37775,-0.26451 0.41797,-0.1949 0.44546,-0.11937 0.45941,-0.04019 0.45942,0.04019 0.44546,0.11937 0.41797,0.1949 0.37775,0.26451 0.32611,0.3261 0.26452,0.37776 0.19489,0.41797 0.11935,0.44545 0.0402,0.45942 -0.0402,0.45941 -0.11935,0.44545 -0.19489,0.41797 -0.26452,0.37776 -0.32611,0.32612 z m 36.01303,0.31425 -0.44546,-0.11935 -0.41797,-0.1949 -0.37778,-0.26451 -0.32608,-0.32612 -0.26453,-0.37776 -0.19488,-0.41797 -0.11936,-0.44545 -0.0402,-0.45941 0.0402,-0.45942 0.11936,-0.44545 0.19488,-0.41797 0.26453,-0.37776 0.32608,-0.3261 0.37778,-0.26451 0.41797,-0.1949 0.44546,-0.11937 0.45941,-0.04019 0.45941,0.04019 0.44547,0.11937 0.41794,0.1949 0.37777,0.26451 0.32612,0.3261 0.26449,0.37776 0.19492,0.41797 0.11935,0.44545 0.0402,0.45942 -0.0402,0.45941 -0.11935,0.44545 -0.19492,0.41797 -0.26449,0.37776 -0.32612,0.32612 -0.37777,0.26451 -0.41794,0.1949 -0.44547,0.11935 -0.45941,0.04019 z m 39.15955,-0.11935 -0.44544,0.11935 -0.45944,0.04019 -0.45941,-0.04019 -0.44544,-0.11935 -0.41797,-0.1949 -0.37777,-0.26451 -0.32611,-0.32612 -0.2645,-0.37776 -0.19491,-0.41797 -0.11936,-0.44545 -0.0402,-0.45941 0.0402,-0.45942 0.11936,-0.44545 0.19491,-0.41797 0.2645,-0.37776 0.32611,-0.3261 0.37777,-0.26451 0.41797,-0.1949 0.44544,-0.11937 0.45941,-0.04019 0.45944,0.04019 0.44544,0.11937 0.41797,0.1949 0.37777,0.26451 0.32608,0.3261 0.26453,0.37776 0.19488,0.41797 0.11939,0.44545 0.0402,0.45942 -0.0402,0.45941 -0.11939,0.44545 -0.19488,0.41797 -0.26453,0.37776 -0.32608,0.32612 -0.37777,0.26451 z m 36.89041,0.15954 -0.45941,-0.04019 -0.44547,-0.11935 -0.41797,-0.1949 -0.37774,-0.26451 -0.32612,-0.32612 -0.26452,-0.37776 -0.19489,-0.41797 -0.11935,-0.44545 -0.0402,-0.45941 0.0402,-0.45942 0.11935,-0.44545 0.19489,-0.41797 0.26452,-0.37776 0.32612,-0.3261 0.37774,-0.26451 0.41797,-0.1949 0.44547,-0.11937 0.45941,-0.04019 0.45941,0.04019 0.44546,0.11937 0.41797,0.1949 0.37775,0.26451 0.32611,0.3261 0.26453,0.37776 0.19488,0.41797 0.11936,0.44545 0.0402,0.45942 -0.0402,0.45941 -0.11936,0.44545 -0.19488,0.41797 -0.26453,0.37776 -0.32611,0.32612 -0.37775,0.26451 -0.41797,0.1949 -0.44546,0.11935 z m 39.1181,-0.35444 -0.41797,0.1949 -0.44543,0.11935 -0.45944,0.04019 -0.45942,-0.04019 -0.44543,-0.11935 -0.41797,-0.1949 -0.37778,-0.26451 -0.32608,-0.32612 -0.26452,-0.37776 -0.19492,-0.41797 -0.11935,-0.44545 -0.0402,-0.45941 0.0402,-0.45942 0.11935,-0.44545 0.19492,-0.41797 0.26452,-0.37776 0.32608,-0.3261 0.37778,-0.26451 0.41797,-0.1949 0.44543,-0.11937 0.45942,-0.04019 0.45944,0.04019 0.44543,0.11937 0.41797,0.1949 0.37778,0.26451 0.32608,0.3261 0.26452,0.37776 0.19492,0.41797 0.11935,0.44545 0.0402,0.45942 -0.0402,0.45941 -0.11935,0.44545 -0.19492,0.41797 -0.26452,0.37776 -0.32608,0.32612 z"
       style="fill:#909090;fill-opacity:1;fill-rule:nonzero;stroke:none"
       transform="matrix(1.3333333,0,0,-1.3333333,0,170.07867)" />
    <path
       id="path2"
       d="m 138.33075,78.11856 0.37775,0.26451 0.32611,0.3261 0.26452,0.37777 0.19489,0.41796 0.11935,0.44546 0.0402,0.45941 -0.0402,0.45942 -0.11935,0.44546 -0.19489,0.41795 -0.26452,0.37778 -0.32611,0.3261 -0.37775,0.26451 -0.41797,0.1949 -0.44546,0.11935 -0.45942,0.04021 -0.45941,-0.04021 -0.44546,-0.11935 -0.41797,-0.1949 -0.37775,-0.26451 -0.32611,-0.3261 -0.26449,-0.37778 -0.19492,-0.41795 -0.11935,-0.44546 -0.0402,-0.45942 0.0402,-0.45941 0.11935,-0.44546 0.19492,-0.41796 0.26449,-0.37777 0.32611,-0.3261 0.37775,-0.26451 0.41797,-0.1949 0.44546,-0.11935 0.45941,-0.04021 0.45942,0.04021 0.44546,0.11935 z m 36.01303,-0.31425 0.45941,-0.04021 0.45941,0.04021 0.44547,0.11935 0.41794,0.1949 0.37777,0.26451 0.32612,0.3261 0.26449,0.37777 0.19492,0.41796 0.11935,0.44546 0.0402,0.45941 -0.0402,0.45942 -0.11935,0.44546 -0.19492,0.41795 -0.26449,0.37778 -0.32612,0.3261 -0.37777,0.26451 -0.41794,0.1949 -0.44547,0.11935 -0.45941,0.04021 -0.45941,-0.04021 -0.44546,-0.11935 -0.41797,-0.1949 -0.37778,-0.26451 -0.32608,-0.3261 -0.26453,-0.37778 -0.19488,-0.41795 -0.11936,-0.44546 -0.0402,-0.45942 0.0402,-0.45941 0.11936,-0.44546 0.19488,-0.41796 0.26453,-0.37777 0.32608,-0.3261 0.37778,-0.26451 0.41797,-0.1949 z m 39.15955,0.11935 0.41797,0.1949 0.37777,0.26451 0.32608,0.3261 0.26453,0.37777 0.19488,0.41796 0.11939,0.44546 0.0402,0.45941 -0.0402,0.45942 -0.11939,0.44546 -0.19488,0.41795 -0.26453,0.37778 -0.32608,0.3261 -0.37777,0.26451 -0.41797,0.1949 -0.44544,0.11935 -0.45944,0.04021 -0.45941,-0.04021 -0.44544,-0.11935 -0.41797,-0.1949 -0.37777,-0.26451 -0.32611,-0.3261 -0.2645,-0.37778 -0.19491,-0.41795 -0.11936,-0.44546 -0.0402,-0.45942 0.0402,-0.45941 0.11936,-0.44546 0.19491,-0.41796 0.2645,-0.37777 0.32611,-0.3261 0.37777,-0.26451 0.41797,-0.1949 0.44544,-0.11935 0.45941,-0.04021 0.45944,0.04021 z m 36.89041,-0.15956 0.45941,0.04021 0.44546,0.11935 0.41797,0.1949 0.37775,0.26451 0.32611,0.3261 0.26453,0.37777 0.19488,0.41796 0.11936,0.44546 0.0402,0.45941 -0.0402,0.45942 -0.11936,0.44546 -0.19488,0.41795 -0.26453,0.37778 -0.32611,0.3261 -0.37775,0.26451 -0.41797,0.1949 -0.44546,0.11935 -0.45941,0.04021 -0.45941,-0.04021 -0.44547,-0.11935 -0.41797,-0.1949 -0.37774,-0.26451 -0.32612,-0.3261 -0.26452,-0.37778 -0.19489,-0.41795 -0.11935,-0.44546 -0.0402,-0.45942 0.0402,-0.45941 0.11935,-0.44546 0.19489,-0.41796 0.26452,-0.37777 0.32612,-0.3261 0.37774,-0.26451 0.41797,-0.1949 0.44547,-0.11935 z m 39.1181,0.35446 0.37778,0.26451 0.32608,0.3261 0.26452,0.37777 0.19492,0.41796 0.11935,0.44546 0.0402,0.45941 -0.0402,0.45942 -0.11935,0.44546 -0.19492,0.41795 -0.26452,0.37778 -0.32608,0.3261 -0.37778,0.26451 -0.41797,0.1949 -0.44543,0.11935 -0.45944,0.04021 -0.45942,-0.04021 -0.44543,-0.11935 -0.41797,-0.1949 -0.37778,-0.26451 -0.32608,-0.3261 -0.26452,-0.37778 -0.19492,-0.41795 -0.11935,-0.44546 -0.0402,-0.45942 0.0402,-0.45941 0.11935,-0.44546 0.19492,-0.41796 0.26452,-0.37777 0.32608,-0.3261 0.37778,-0.26451 0.41797,-0.1949 0.44543,-0.11935 0.45942,-0.04021 0.45944,0.04021 0.44543,0.11935 z"
       style="fill:#909090;fill-opacity:1;fill-rule:nonzero;stroke:none"
       transform="matrix(1.3333333,0,0,-1.3333333,0,170.07867)" />
    <path
       id="path3"
       d="m 118.11026,88.34679 h 188.97638 v 3.77952 H 118.11026 Z m 95.49561,-38.75855 0.0916,-0.03172 0.0992,-0.05728 0.12458,-0.05809 0.11261,-0.07885 0.0992,-0.05728 0.0733,-0.0635 0.0927,-0.06488 0.11545,-0.11545 0.0987,-0.08554 0.0485,-0.06169 0.0634,-0.06344 0.11005,-0.15713 0.0889,-0.1131 0.0272,-0.05279 0.0383,-0.05474 0.0957,-0.2053 0.0692,-0.13424 0.0112,-0.03826 0.0187,-0.04017 0.0724,-0.27003 0.0394,-0.13414 0.002,-0.01996 0.006,-0.02132 0.0402,-0.45941 -0.0459,-0.48073 -0.0413,-0.15409 -0.0724,-0.27005 -0.0187,-0.04016 -0.0112,-0.03827 -0.0692,-0.13424 -0.0957,-0.2053 -0.0383,-0.05472 -0.0272,-0.0528 -0.0889,-0.11309 -0.11005,-0.15715 -0.0634,-0.06342 -0.0485,-0.06171 -0.0987,-0.08554 -0.11545,-0.11543 -0.0927,-0.0649 -0.0733,-0.0635 -0.0992,-0.05728 -0.61881,-0.43329 h 36.16202 l -0.88397,0.61897 -0.12842,0.1284 -0.1977,0.1977 -0.0254,0.0363 -0.0275,0.02885 -0.0817,0.12706 -0.12994,0.18555 -0.0282,0.06056 -0.0321,0.04996 -0.0535,0.13359 -0.0811,0.17386 -0.0232,0.08664 -0.0292,0.07286 -0.0247,0.12826 -0.0422,0.15769 -0.01,0.1127 -0.0184,0.09523 V 47.013 l -0.012,0.13693 0.012,0.13694 v 0.11454 l 0.0184,0.09523 0.01,0.1127 0.0422,0.1577 0.0247,0.12825 0.0292,0.07288 0.0232,0.08662 0.0811,0.17388 0.0535,0.13357 0.0321,0.04998 0.0282,0.06054 0.12994,0.18557 0.0817,0.12704 0.0275,0.02887 0.0254,0.03628 0.1977,0.1977 0.0965,0.10118 0.0163,0.01163 0.0156,0.01561 0.37774,0.26451 0.4393,0.2006 0.15409,0.04129 0.27005,0.07236 0.0441,0.0039 0.0388,0.0094 0.15088,0.0072 0.22565,0.01974 0.0666,-0.0058 0.0593,0.0028 0.14243,-0.02047 0.1911,-0.01673 0.0866,-0.02321 0.0777,-0.01117 0.12344,-0.04272 0.15768,-0.04225 0.10254,-0.04781 0.0916,-0.03172 0.0992,-0.05728 0.12457,-0.05809 0.11258,-0.07885 0.0992,-0.05728 0.0733,-0.0635 0.0927,-0.06488 0.11545,-0.11545 0.0987,-0.08554 0.0485,-0.06169 0.0634,-0.06344 0.11005,-0.15713 0.0889,-0.1131 0.0272,-0.05279 0.0383,-0.05474 0.0957,-0.2053 0.0692,-0.13424 0.0113,-0.03826 0.0187,-0.04017 0.0724,-0.27003 0.0394,-0.13414 0.002,-0.01996 0.006,-0.02132 0.0402,-0.45941 -0.0459,-0.48073 -0.0413,-0.15409 -0.0724,-0.27005 -0.0187,-0.04016 -0.0113,-0.03827 -0.0692,-0.13424 -0.0957,-0.2053 -0.0383,-0.05472 -0.0272,-0.0528 -0.0889,-0.11309 -0.11005,-0.15715 -0.0634,-0.06342 -0.0485,-0.06171 -0.0987,-0.08554 -0.11545,-0.11543 -0.0927,-0.0649 -0.0733,-0.0635 -0.0992,-0.05728 -0.6188,-0.43329 h 36.16202 l -0.88398,0.61897 -0.12841,0.1284 -0.19767,0.1977 -0.0254,0.0363 -0.0275,0.02885 -0.0817,0.12706 -0.12991,0.18555 -0.0282,0.06056 -0.0321,0.04996 -0.0535,0.13359 -0.0811,0.17386 -0.0232,0.08664 -0.0292,0.07286 -0.0247,0.12826 -0.0423,0.15769 -0.01,0.1127 -0.0183,0.09523 v 0.11456 l -0.012,0.13693 0.012,0.13694 v 0.11454 l 0.0183,0.09523 0.01,0.1127 0.0423,0.1577 0.0247,0.12825 0.0292,0.07288 0.0232,0.08662 0.0811,0.17388 0.0535,0.13357 0.0321,0.04998 0.0282,0.06054 0.12991,0.18557 0.0817,0.12704 0.0275,0.02887 0.0254,0.03628 0.19767,0.1977 0.0965,0.10118 0.0164,0.01163 0.0156,0.01561 0.37778,0.26451 0.43927,0.2006 0.15408,0.04129 0.27005,0.07236 0.0442,0.0039 0.0388,0.0094 0.15085,0.0072 0.22565,0.01974 0.0666,-0.0058 0.0594,0.0028 0.1424,-0.02047 0.19113,-0.01673 0.0866,-0.02321 0.0777,-0.01117 0.12345,-0.04272 0.15768,-0.04225 0.10254,-0.04781 0.0916,-0.03172 0.0992,-0.05728 0.12457,-0.05809 0.11261,-0.07885 0.0992,-0.05728 0.0733,-0.0635 0.0927,-0.06488 0.11545,-0.11545 0.0987,-0.08554 0.0485,-0.06169 0.0634,-0.06344 0.11004,-0.15713 0.089,-0.1131 0.0272,-0.05279 0.0383,-0.05474 0.0957,-0.2053 0.0692,-0.13424 0.0112,-0.03826 0.0187,-0.04017 0.0724,-0.27003 0.0394,-0.13414 0.002,-0.01996 0.006,-0.02132 0.0402,-0.45941 -0.0459,-0.48073 -0.0413,-0.15409 -0.0724,-0.27005 -0.0187,-0.04016 -0.0112,-0.03827 -0.0692,-0.13424 -0.0957,-0.2053 -0.0383,-0.05472 -0.0272,-0.0528 -0.089,-0.11309 -0.11004,-0.15715 -0.0634,-0.06342 -0.0485,-0.06171 -0.0987,-0.08554 -0.11545,-0.11543 -0.0927,-0.0649 -0.0733,-0.0635 -0.0992,-0.05728 -0.6188,-0.43329 h 18.08099 v 38.55119 h -18.08099 l 0.6188,-0.4333 0.0992,-0.05727 0.0733,-0.06352 0.0927,-0.06488 0.11545,-0.11545 0.0987,-0.08554 0.0485,-0.06169 0.0634,-0.06342 0.11004,-0.15715 0.089,-0.1131 0.0272,-0.05279 0.0383,-0.05474 0.0957,-0.20529 0.0692,-0.13424 0.0112,-0.03827 0.0187,-0.04015 0.0724,-0.27005 0.0394,-0.13412 0.002,-0.01998 0.006,-0.02131 0.0402,-0.45942 -0.0459,-0.48072 -0.0413,-0.1541 -0.0724,-0.27005 -0.0187,-0.04015 -0.0112,-0.03827 -0.0692,-0.13424 -0.0957,-0.2053 -0.0383,-0.05473 -0.0272,-0.05279 -0.089,-0.1131 -0.11004,-0.15715 -0.0634,-0.06342 -0.0485,-0.06169 -0.0987,-0.08554 -0.11545,-0.11545 -0.0927,-0.06488 -0.0733,-0.06352 -0.0992,-0.05727 -0.11261,-0.07884 -0.12457,-0.05809 -0.0992,-0.05728 -0.0916,-0.03172 -0.10254,-0.04781 -0.15768,-0.04225 -0.12345,-0.04273 -0.0777,-0.01117 -0.0866,-0.0232 -0.19113,-0.01673 -0.1424,-0.02047 -0.0594,0.0028 -0.0666,-0.0058 -0.22565,0.01974 -0.15085,0.0072 -0.0388,0.0094 -0.0442,0.0039 -0.27005,0.07235 -0.13583,0.03296 -0.0182,0.0083 -0.0213,0.0057 -0.41797,0.1949 -0.39337,0.28012 -0.11282,0.11281 -0.19767,0.19768 -0.0254,0.0363 -0.0275,0.02887 -0.0817,0.12704 -0.12991,0.18556 -0.0282,0.06055 -0.0321,0.04997 -0.0535,0.13358 -0.0811,0.17386 -0.0232,0.08664 -0.0292,0.07286 -0.0247,0.12826 -0.0423,0.1577 -0.01,0.1127 -0.0183,0.09523 v 0.11455 l -0.012,0.13693 0.012,0.13694 v 0.11454 l 0.0183,0.09523 0.01,0.11271 0.0423,0.1577 0.0247,0.12826 0.0292,0.07286 0.0232,0.08664 0.0811,0.17386 0.0535,0.13358 0.0321,0.04997 0.0282,0.06054 0.12991,0.18557 0.0817,0.12706 0.0275,0.02885 0.0254,0.0363 0.19767,0.19768 0.0965,0.10118 0.0164,0.01163 0.0156,0.01561 0.88398,0.61897 h -36.16202 l 0.6188,-0.4333 0.0992,-0.05727 0.0733,-0.06352 0.0927,-0.06488 0.11545,-0.11545 0.0987,-0.08554 0.0485,-0.06169 0.0634,-0.06342 0.11005,-0.15715 0.0889,-0.1131 0.0272,-0.05279 0.0383,-0.05474 0.0957,-0.20529 0.0692,-0.13424 0.0113,-0.03827 0.0187,-0.04015 0.0724,-0.27005 0.0394,-0.13412 0.002,-0.01998 0.006,-0.02131 0.0402,-0.45942 -0.0459,-0.48072 -0.0413,-0.1541 -0.0724,-0.27005 -0.0187,-0.04015 -0.0113,-0.03827 -0.0692,-0.13424 -0.0957,-0.2053 -0.0383,-0.05473 -0.0272,-0.05279 -0.0889,-0.1131 -0.11005,-0.15715 -0.0634,-0.06342 -0.0485,-0.06169 -0.0987,-0.08554 -0.11545,-0.11545 -0.0927,-0.06488 -0.0733,-0.06352 -0.0992,-0.05727 -0.11258,-0.07884 -0.12457,-0.05809 -0.0992,-0.05728 -0.0916,-0.03172 -0.10254,-0.04781 -0.15768,-0.04225 -0.12344,-0.04273 -0.0777,-0.01117 -0.0866,-0.0232 -0.1911,-0.01673 -0.14243,-0.02047 -0.0593,0.0028 -0.0666,-0.0058 -0.22565,0.01974 -0.15088,0.0072 -0.0388,0.0094 -0.0441,0.0039 -0.27005,0.07235 -0.13587,0.03296 -0.0182,0.0083 -0.0213,0.0057 -0.41797,0.1949 -0.39337,0.28012 -0.11279,0.11281 -0.1977,0.19768 -0.0254,0.0363 -0.0275,0.02887 -0.0817,0.12704 -0.12994,0.18556 -0.0282,0.06055 -0.0321,0.04997 -0.0535,0.13358 -0.0811,0.17386 -0.0232,0.08664 -0.0292,0.07286 -0.0247,0.12826 -0.0422,0.1577 -0.01,0.1127 -0.0184,0.09523 v 0.11455 l -0.012,0.13693 0.012,0.13694 v 0.11454 l 0.0184,0.09523 0.01,0.11271 0.0422,0.1577 0.0247,0.12826 0.0292,0.07286 0.0232,0.08664 0.0811,0.17386 0.0535,0.13358 0.0321,0.04997 0.0282,0.06054 0.12994,0.18557 0.0817,0.12706 0.0275,0.02885 0.0254,0.0363 0.1977,0.19768 0.0965,0.10118 0.0163,0.01163 0.0156,0.01561 0.88397,0.61897 h -36.16202 l 0.61881,-0.4333 0.0992,-0.05727 0.0733,-0.06352 0.0927,-0.06488 0.11545,-0.11545 0.0987,-0.08554 0.0485,-0.06169 0.0634,-0.06342 0.11005,-0.15715 0.0889,-0.1131 0.0272,-0.05279 0.0383,-0.05474 0.0957,-0.20529 0.0692,-0.13424 0.0112,-0.03827 0.0187,-0.04015 0.0724,-0.27005 0.0394,-0.13412 0.002,-0.01998 0.006,-0.02131 0.0402,-0.45942 -0.0459,-0.48072 -0.0413,-0.1541 -0.0724,-0.27005 -0.0187,-0.04015 -0.0112,-0.03827 -0.0692,-0.13424 -0.0957,-0.2053 -0.0383,-0.05473 -0.0272,-0.05279 -0.0889,-0.1131 -0.11005,-0.15715 -0.0634,-0.06342 -0.0485,-0.06169 -0.0987,-0.08554 -0.11545,-0.11545 -0.0927,-0.06488 -0.0733,-0.06352 -0.0992,-0.05727 -0.11261,-0.07884 -0.12458,-0.05809 -0.0992,-0.05728 -0.0916,-0.03172 -0.10254,-0.04781 -0.15769,-0.04225 -0.12344,-0.04273 -0.0777,-0.01117 -0.0866,-0.0232 -0.19113,-0.01673 -0.14243,-0.02047 -0.0593,0.0028 -0.0666,-0.0058 -0.22565,0.01974 -0.15085,0.0072 -0.0387,0.0094 -0.0442,0.0039 -0.27005,0.07235 -0.13584,0.03296 -0.0182,0.0083 -0.0213,0.0057 -0.41797,0.1949 -0.39337,0.28012 -0.11282,0.11281 -0.19769,0.19768 -0.0254,0.0363 -0.0275,0.02887 -0.0817,0.12704 -0.12991,0.18556 -0.0282,0.06055 -0.0321,0.04997 -0.0535,0.13358 -0.0811,0.17386 -0.0232,0.08664 -0.0292,0.07286 -0.0247,0.12826 -0.0423,0.1577 -0.01,0.1127 -0.0183,0.09523 v 0.11455 l -0.012,0.13693 0.012,0.13694 v 0.11454 l 0.0183,0.09523 0.01,0.11271 0.0423,0.1577 0.0247,0.12826 0.0292,0.07286 0.0232,0.08664 0.0811,0.17386 0.0535,0.13358 0.0321,0.04997 0.0282,0.06054 0.12991,0.18557 0.0817,0.12706 0.0275,0.02885 0.0254,0.0363 0.19769,0.19768 0.0965,0.10118 0.0163,0.01163 0.0156,0.01561 0.88397,0.61897 h -36.16202 l 0.61881,-0.4333 0.0992,-0.05727 0.0733,-0.06352 0.0927,-0.06488 0.11545,-0.11545 0.0987,-0.08554 0.0485,-0.06169 0.0634,-0.06342 0.11001,-0.15715 0.089,-0.1131 0.0272,-0.05279 0.0383,-0.05474 0.0957,-0.20529 0.0692,-0.13424 0.0112,-0.03827 0.0187,-0.04015 0.0724,-0.27005 0.0394,-0.13412 0.002,-0.01998 0.006,-0.02131 0.0402,-0.45942 -0.0459,-0.48072 -0.0413,-0.1541 -0.0724,-0.27005 -0.0187,-0.04015 -0.0112,-0.03827 -0.0692,-0.13424 -0.0957,-0.2053 -0.0383,-0.05473 -0.0272,-0.05279 -0.089,-0.1131 -0.11001,-0.15715 -0.0634,-0.06342 -0.0485,-0.06169 -0.0987,-0.08554 -0.11545,-0.11545 -0.0927,-0.06488 -0.0733,-0.06352 -0.0992,-0.05727 -0.11261,-0.07884 -0.12458,-0.05809 -0.0992,-0.05728 -0.0916,-0.03172 -0.10251,-0.04781 -0.15772,-0.04225 -0.12344,-0.04273 -0.0777,-0.01117 -0.0866,-0.0232 -0.1911,-0.01673 -0.14242,-0.02047 -0.0593,0.0028 -0.0666,-0.0058 -0.22568,0.01974 -0.15084,0.0072 -0.0388,0.0094 -0.0441,0.0039 -0.27005,0.07235 -0.13586,0.03296 -0.0182,0.0083 -0.0213,0.0057 -0.41797,0.1949 -0.39337,0.28012 -0.1128,0.11281 -0.19769,0.19768 -0.0254,0.0363 -0.0275,0.02887 -0.0816,0.12704 -0.12995,0.18556 -0.0282,0.06055 -0.0321,0.04997 -0.0535,0.13358 -0.0811,0.17386 -0.0232,0.08664 -0.0292,0.07286 -0.0247,0.12826 -0.0422,0.1577 -0.01,0.1127 -0.0183,0.09523 v 0.11455 l -0.012,0.13693 0.012,0.13694 v 0.11454 l 0.0183,0.09523 0.01,0.11271 0.0422,0.1577 0.0247,0.12826 0.0292,0.07286 0.0232,0.08664 0.0811,0.17386 0.0535,0.13358 0.0321,0.04997 0.0282,0.06054 0.12995,0.18557 0.0816,0.12706 0.0275,0.02885 0.0254,0.0363 0.19769,0.19768 0.0965,0.10118 0.0163,0.01163 0.0156,0.01561 0.884,0.61897 h -36.16205 l 0.61881,-0.4333 0.0992,-0.05727 0.0733,-0.06352 0.0927,-0.06488 0.11544,-0.11545 0.0987,-0.08554 0.0485,-0.06169 0.0634,-0.06342 0.11004,-0.15715 0.0889,-0.1131 0.0272,-0.05279 0.0383,-0.05474 0.0957,-0.20529 0.0692,-0.13424 0.0113,-0.03827 0.0187,-0.04015 0.0724,-0.27005 0.0394,-0.13412 0.002,-0.01998 0.006,-0.02131 0.0402,-0.45942 -0.0459,-0.48072 -0.0413,-0.1541 -0.0724,-0.27005 -0.0187,-0.04015 -0.0113,-0.03827 -0.0692,-0.13424 -0.0957,-0.2053 -0.0383,-0.05473 -0.0272,-0.05279 -0.0889,-0.1131 -0.11004,-0.15715 -0.0634,-0.06342 -0.0485,-0.06169 -0.0987,-0.08554 -0.11544,-0.11545 -0.0927,-0.06488 -0.0733,-0.06352 -0.0992,-0.05727 -0.11258,-0.07884 -0.12457,-0.05809 -0.0992,-0.05728 -0.0916,-0.03172 -0.10254,-0.04781 -0.15768,-0.04225 -0.12345,-0.04273 -0.0777,-0.01117 -0.0866,-0.0232 -0.19111,-0.01673 -0.14242,-0.02047 -0.0593,0.0028 -0.0666,-0.0058 -0.22564,0.01974 -0.15088,0.0072 -0.0388,0.0094 -0.0441,0.0039 -0.27005,0.07235 -0.13586,0.03296 -0.0182,0.0083 -0.0213,0.0057 -0.41797,0.1949 -0.39334,0.28012 -0.11283,0.11281 -0.19769,0.19768 -0.0254,0.0363 -0.0275,0.02887 -0.0817,0.12704 -0.12991,0.18556 -0.0283,0.06055 -0.0321,0.04997 -0.0535,0.13358 -0.0811,0.17386 -0.0232,0.08664 -0.0292,0.07286 -0.0247,0.12826 -0.0422,0.1577 -0.01,0.1127 -0.0184,0.09523 v 0.11455 l -0.012,0.13693 0.012,0.13694 v 0.11454 l 0.0184,0.09523 0.01,0.11271 0.0422,0.1577 0.0247,0.12826 0.0292,0.07286 0.0232,0.08664 0.0811,0.17386 0.0535,0.13358 0.0321,0.04997 0.0283,0.06054 0.12991,0.18557 0.0817,0.12706 0.0275,0.02885 0.0254,0.0363 0.19769,0.19768 0.0965,0.10118 0.0164,0.01163 0.0156,0.01561 0.88397,0.61897 H 118.11403 V 44.50434 h 18.08102 l -0.88397,0.61897 -0.12842,0.1284 -0.19769,0.1977 -0.0254,0.0363 -0.0275,0.02885 -0.0817,0.12706 -0.12991,0.18555 -0.0283,0.06056 -0.0321,0.04996 -0.0535,0.13359 -0.0811,0.17386 -0.0232,0.08664 -0.0292,0.07286 -0.0247,0.12826 -0.0422,0.15769 -0.01,0.1127 -0.0184,0.09523 v 0.11456 l -0.012,0.13693 0.012,0.13694 v 0.11454 l 0.0184,0.09523 0.01,0.1127 0.0422,0.1577 0.0247,0.12825 0.0292,0.07288 0.0232,0.08662 0.0811,0.17388 0.0535,0.13357 0.0321,0.04998 0.0283,0.06054 0.12991,0.18557 0.0817,0.12704 0.0275,0.02887 0.0254,0.03628 0.19769,0.1977 0.0965,0.10118 0.0164,0.01163 0.0156,0.01561 0.37775,0.26451 0.4393,0.2006 0.15408,0.04129 0.27005,0.07236 0.0441,0.0039 0.0388,0.0094 0.15088,0.0072 0.22564,0.01974 0.0666,-0.0058 0.0593,0.0028 0.14242,-0.02047 0.19111,-0.01673 0.0866,-0.02321 0.0777,-0.01117 0.12345,-0.04272 0.15768,-0.04225 0.10254,-0.04781 0.0916,-0.03172 0.0992,-0.05728 0.12457,-0.05809 0.11258,-0.07885 0.0992,-0.05728 0.0733,-0.0635 0.0927,-0.06488 0.11544,-0.11545 0.0987,-0.08554 0.0485,-0.06169 0.0634,-0.06344 0.11004,-0.15713 0.0889,-0.1131 0.0272,-0.05279 0.0383,-0.05474 0.0957,-0.2053 0.0692,-0.13424 0.0113,-0.03826 0.0187,-0.04017 0.0724,-0.27003 0.0394,-0.13414 0.002,-0.01996 0.006,-0.02132 0.0402,-0.45941 -0.0459,-0.48073 -0.0413,-0.15409 -0.0724,-0.27005 -0.0187,-0.04016 -0.0113,-0.03827 -0.0692,-0.13424 -0.0957,-0.2053 -0.0383,-0.05472 -0.0272,-0.0528 -0.0889,-0.11309 -0.11004,-0.15715 -0.0634,-0.06342 -0.0485,-0.06171 -0.0987,-0.08554 -0.11544,-0.11543 -0.0927,-0.0649 -0.0733,-0.0635 -0.0992,-0.05728 -0.61881,-0.43329 h 36.16205 l -0.884,0.61897 -0.12839,0.1284 -0.19769,0.1977 -0.0254,0.0363 -0.0275,0.02885 -0.0816,0.12706 -0.12995,0.18555 -0.0282,0.06056 -0.0321,0.04996 -0.0535,0.13359 -0.0811,0.17386 -0.0232,0.08664 -0.0292,0.07286 -0.0247,0.12826 -0.0422,0.15769 -0.01,0.1127 -0.0183,0.09523 v 0.11456 l -0.012,0.13693 0.012,0.13694 v 0.11454 l 0.0183,0.09523 0.01,0.1127 0.0422,0.1577 0.0247,0.12825 0.0292,0.07288 0.0232,0.08662 0.0811,0.17388 0.0535,0.13357 0.0321,0.04998 0.0282,0.06054 0.12995,0.18557 0.0816,0.12704 0.0275,0.02887 0.0254,0.03628 0.19769,0.1977 0.0965,0.10118 0.0163,0.01163 0.0156,0.01561 0.37778,0.26451 0.43927,0.2006 0.15411,0.04129 0.27005,0.07236 0.0441,0.0039 0.0388,0.0094 0.15084,0.0072 0.22568,0.01974 0.0666,-0.0058 0.0593,0.0028 0.14242,-0.02047 0.1911,-0.01673 0.0866,-0.02321 0.0777,-0.01117 0.12344,-0.04272 0.15772,-0.04225 0.10251,-0.04781 0.0916,-0.03172 0.0992,-0.05728 0.12458,-0.05809 0.11261,-0.07885 0.0992,-0.05728 0.0733,-0.0635 0.0927,-0.06488 0.11545,-0.11545 0.0987,-0.08554 0.0485,-0.06169 0.0634,-0.06344 0.11001,-0.15713 0.089,-0.1131 0.0272,-0.05279 0.0383,-0.05474 0.0957,-0.2053 0.0692,-0.13424 0.0112,-0.03826 0.0187,-0.04017 0.0724,-0.27003 0.0394,-0.13414 0.002,-0.01996 0.006,-0.02132 0.0402,-0.45941 -0.0459,-0.48073 -0.0413,-0.15409 -0.0724,-0.27005 -0.0187,-0.04016 -0.0112,-0.03827 -0.0692,-0.13424 -0.0957,-0.2053 -0.0383,-0.05472 -0.0272,-0.0528 -0.089,-0.11309 -0.11001,-0.15715 -0.0634,-0.06342 -0.0485,-0.06171 -0.0987,-0.08554 -0.11545,-0.11543 -0.0927,-0.0649 -0.0733,-0.0635 -0.0992,-0.05728 -0.61881,-0.43329 h 36.16202 l -0.88397,0.61897 -0.12842,0.1284 -0.19769,0.1977 -0.0254,0.0363 -0.0275,0.02885 -0.0817,0.12706 -0.12991,0.18555 -0.0282,0.06056 -0.0321,0.04996 -0.0535,0.13359 -0.0811,0.17386 -0.0232,0.08664 -0.0292,0.07286 -0.0247,0.12826 -0.0423,0.15769 -0.01,0.1127 -0.0183,0.09523 v 0.11456 l -0.012,0.13693 0.012,0.13694 v 0.11454 l 0.0183,0.09523 0.01,0.1127 0.0423,0.1577 0.0247,0.12825 0.0292,0.07288 0.0232,0.08662 0.0811,0.17388 0.0535,0.13357 0.0321,0.04998 0.0282,0.06054 0.12991,0.18557 0.0817,0.12704 0.0275,0.02887 0.0254,0.03628 0.19769,0.1977 0.0965,0.10118 0.0163,0.01163 0.0156,0.01561 0.37777,0.26451 0.43927,0.2006 0.15409,0.04129 0.27005,0.07236 0.0442,0.0039 0.0387,0.0094 0.15085,0.0072 0.22565,0.01974 0.0666,-0.0058 0.0593,0.0028 0.14243,-0.02047 0.19113,-0.01673 0.009,0.0193 0.27853,-0.0964 0.15769,-0.04225 0.10254,-0.04781 z M 307.08664,35.4334 v 3.77952 H 118.11026 V 35.4334 Z"
       style="fill:#e0e0e0;fill-opacity:1;fill-rule:nonzero;stroke:none"
       transform="matrix(1.3333333,0,0,-1.3333333,0,170.07867)" />
  </g>
  <path
     id="path4"
     d="m 139.65356,47.14993 c 0,1.46117 -1.1845,2.64566 -2.64566,2.64566 m 0,0 c -1.46115,0 -2.64566,-1.18449 -2.64566,-2.64566 m 0,0 c 0,-1.46116 1.18451,-2.64567 2.64566,-2.64567 m 0,0 c 1.46116,0 2.64566,1.18451 2.64566,2.64567"
     style="fill:none;stroke:#000000;stroke-width:0.51024;stroke-linecap:round;stroke-linejoin:round;stroke-miterlimit:10;stroke-dasharray:none;stroke-opacity:1"
     transform="matrix(1.3333333,0,0,-1.3333333,0,170.07867)" />
  <path
     id="path5"
     d="m 177.44885,47.14993 c 0,1.46117 -1.18451,2.64566 -2.64566,2.64566 m 0,0 c -1.46118,0 -2.64569,-1.18449 -2.64569,-2.64566 m 0,0 c 0,-1.46116 1.18451,-2.64567 2.64569,-2.64567 m 0,0 c 1.46115,0 2.64566,1.18451 2.64566,2.64567"
     style="fill:none;stroke:#000000;stroke-width:0.51024;stroke-linecap:round;stroke-linejoin:round;stroke-miterlimit:10;stroke-dasharray:none;stroke-opacity:1"
     transform="matrix(1.3333333,0,0,-1.3333333,0,170.07867)" />
  <path
     id="path6"
     d="m 215.24414,47.14993 c 0,1.46117 -1.18451,2.64566 -2.64569,2.64566 m 0,0 c -1.46115,0 -2.64566,-1.18449 -2.64566,-2.64566 m 0,0 c 0,-1.46116 1.18451,-2.64567 2.64566,-2.64567 m 0,0 c 1.46118,0 2.64569,1.18451 2.64569,2.64567"
     style="fill:none;stroke:#000000;stroke-width:0.51024;stroke-linecap:round;stroke-linejoin:round;stroke-miterlimit:10;stroke-dasharray:none;stroke-opacity:1"
     transform="matrix(1.3333333,0,0,-1.3333333,0,170.07867)" />
  <path
     id="path7"
     d="m 253.0394,47.14993 c 0,1.46117 -1.18451,2.64566 -2.64566,2.64566 m 0,0 c -1.46115,0 -2.64566,-1.18449 -2.64566,-2.64566 m 0,0 c 0,-1.46116 1.18451,-2.64567 2.64566,-2.64567 m 0,0 c 1.46115,0 2.64566,1.18451 2.64566,2.64567"
     style="fill:none;stroke:#000000;stroke-width:0.51024;stroke-linecap:round;stroke-linejoin:round;stroke-miterlimit:10;stroke-dasharray:none;stroke-opacity:1"
     transform="matrix(1.3333333,0,0,-1.3333333,0,170.07867)" />
  <path
     id="path8"
     d="m 290.83469,47.14993 c 0,1.46117 -1.18451,2.64566 -2.64569,2.64566 m 0,0 c -1.46116,0 -2.64567,-1.18449 -2.64567,-2.64566 m 0,0 c 0,-1.46116 1.18451,-2.64567 2.64567,-2.64567 m 0,0 c 1.46118,0 2.64569,1.18451 2.64569,2.64567"
     style="fill:none;stroke:#000000;stroke-width:0.51024;stroke-linecap:round;stroke-linejoin:round;stroke-miterlimit:10;stroke-dasharray:none;stroke-opacity:1"
     transform="matrix(1.3333333,0,0,-1.3333333,0,170.07867)" />
  <path
     id="path9"
     d="m 139.65356,80.40977 c 0,1.46117 -1.1845,2.64568 -2.64566,2.64568 m 0,0 c -1.46115,0 -2.64566,-1.18451 -2.64566,-2.64568 m 0,0 c 0,-1.46116 1.18451,-2.64567 2.64566,-2.64567 m 0,0 c 1.46116,0 2.64566,1.18451 2.64566,2.64567"
     style="fill:none;stroke:#000000;stroke-width:0.51024;stroke-linecap:round;stroke-linejoin:round;stroke-miterlimit:10;stroke-dasharray:none;stroke-opacity:1"
     transform="matrix(1.3333333,0,0,-1.3333333,0,170.07867)" />
  <path
     id="path10"
     d="m 177.44885,80.40977 c 0,1.46117 -1.18451,2.64568 -2.64566,2.64568 m 0,0 c -1.46118,0 -2.64569,-1.18451 -2.64569,-2.64568 m 0,0 c 0,-1.46116 1.18451,-2.64567 2.64569,-2.64567 m 0,0 c 1.46115,0 2.64566,1.18451 2.64566,2.64567"
     style="fill:none;stroke:#000000;stroke-width:0.51024;stroke-linecap:round;stroke-linejoin:round;stroke-miterlimit:10;stroke-dasharray:none;stroke-opacity:1"
     transform="matrix(1.3333333,0,0,-1.3333333,0,170.07867)" />
  <path
     id="path11"
     d="m 215.24414,80.40977 c 0,1.46117 -1.18451,2.64568 -2.64569,2.64568 m 0,0 c -1.46115,0 -2.64566,-1.18451 -2.64566,-2.64568 m 0,0 c 0,-1.46116 1.18451,-2.64567 2.64566,-2.64567 m 0,0 c 1.46118,0 2.64569,1.18451 2.64569,2.64567"
     style="fill:none;stroke:#000000;stroke-width:0.51024;stroke-linecap:round;stroke-linejoin:round;stroke-miterlimit:10;stroke-dasharray:none;stroke-opacity:1"
     transform="matrix(1.3333333,0,0,-1.3333333,0,170.07867)" />
  <path
     id="path12"
     d="m 253.0394,80.40977 c 0,1.46117 -1.18451,2.64568 -2.64566,2.64568 m 0,0 c -1.46115,0 -2.64566,-1.18451 -2.64566,-2.64568 m 0,0 c 0,-1.46116 1.18451,-2.64567 2.64566,-2.64567 m 0,0 c 1.46115,0 2.64566,1.18451 2.64566,2.64567"
     style="fill:none;stroke:#000000;stroke-width:0.51024;stroke-linecap:round;stroke-linejoin:round;stroke-miterlimit:10;stroke-dasharray:none;stroke-opacity:1"
     transform="matrix(1.3333333,0,0,-1.3333333,0,170.07867)" />
  <path
     id="path13"
     d="m 290.83469,80.40977 c 0,1.46117 -1.18451,2.64568 -2.64569,2.64568 m 0,0 c -1.46116,0 -2.64567,-1.18451 -2.64567,-2.64568 m 0,0 c 0,-1.46116 1.18451,-2.64567 2.64567,-2.64567 m 0,0 c 1.46118,0 2.64569,1.18451 2.64569,2.64567"
     style="fill:none;stroke:#000000;stroke-width:0.51024;stroke-linecap:round;stroke-linejoin:round;stroke-miterlimit:10;stroke-dasharray:none;stroke-opacity:1"
     transform="matrix(1.3333333,0,0,-1.3333333,0,170.07867)" />
  <path
     id="path14"
     d="M 118.11026,92.12631 H 307.08664 M 118.11026,35.4334 H 307.08664 M 118.11026,44.50426 H 307.08664 M 118.11026,39.21292 H 307.08664 M 118.11026,30.61418 v 4.25197 m 0,5.95274 v 4.25197 m 0,5.95276 v 4.25197 m 0,5.95276 v 4.25197 m 0,5.95275 v 4.25197 m 0,5.95276 v 4.25197 m 0,5.95276 v 4.25197 m 0,-68.59844 v 0.28347 m 0,9.92126 v 0.28346 m 0,9.92127 v 0.28346 m 0,9.92126 v 0.28347 m 0,9.92126 v 0.28346 m 0,9.92125 v 0.28347 m 0,9.92126 v 0.28346 m 0,9.92127 v 0.28346 m 0,-73.22803 v 0 m 0,75.59056 v 0 M 307.08664,30.61418 v 4.25197 m 0,5.95274 v 4.25197 m 0,5.95276 v 4.25197 m 0,5.95276 v 4.25197 m 0,5.95275 v 4.25197 m 0,5.95276 v 4.25197 m 0,5.95276 v 4.25197 m 0,-68.59844 v 0.28347 m 0,9.92126 v 0.28346 m 0,9.92127 v 0.28346 m 0,9.92126 v 0.28347 m 0,9.92126 v 0.28346 m 0,9.92125 v 0.28347 m 0,9.92126 v 0.28346 m 0,9.92127 v 0.28346 m 0,-73.22803 v 0 m 0,75.59056 v 0 M 118.11026,83.05545 h 188.97638 m -188.97638,5.29134 h 188.97638"
     style="fill:none;stroke:#000000;stroke-width:0.3685;stroke-linecap:round;stroke-linejoin:round;stroke-miterlimit:10;stroke-dasharray:none;stroke-opacity:1"
     transform="matrix(1.3333333,0,0,-1.3333333,0,170.07867)" />
  <path
     id="path15"
     d="m 109.81207,112.45335 c 0,1.50792 -1.22241,2.73032 -2.73031,2.73032 m 0,0 c -1.50791,0 -2.7303,-1.2224 -2.7303,-2.73032 m 0,0 c 0,-1.5079 1.22239,-2.7303 2.7303,-2.7303 m 0,0 c 1.5079,0 2.73031,1.2224 2.73031,2.7303"
     style="fill:none;stroke:#000000;stroke-width:0.3685;stroke-linecap:round;stroke-linejoin:round;stroke-miterlimit:10;stroke-dasharray:none;stroke-opacity:1"
     transform="matrix(1.3333333,0,0,-1.3333333,0,170.07867)" />
  <path
     id="path16"
     d="m 107.08176,112.45335 h 21.99719 m -5.95274,0 H 122.701 m 6.37795,0 v 0 l -5.95274,0.85041 v -1.70078 l 5.95274,0.85037"
     style="fill:none;stroke:#000000;stroke-width:0.3685;stroke-linecap:round;stroke-linejoin:round;stroke-miterlimit:10;stroke-dasharray:none;stroke-opacity:1"
     transform="matrix(1.3333333,0,0,-1.3333333,0,170.07867)" />
  <path
     id="path17"
     d="m 123.12621,111.60298 5.95274,0.85037 -5.95274,0.85041 z"
     style="fill:#000000;fill-opacity:1;fill-rule:nonzero;stroke:none"
     transform="matrix(1.3333333,0,0,-1.3333333,0,170.07867)" />
  <path
     id="path18"
     d="M 107.08176,112.45335 V 91.00038 m 0,5.95276 v 0.4252 m 0,-6.37796 v 0 l 0.8504,5.95276 h -1.70079 l 0.85039,-5.95276"
     style="fill:none;stroke:#000000;stroke-width:0.3685;stroke-linecap:round;stroke-linejoin:round;stroke-miterlimit:10;stroke-dasharray:none;stroke-opacity:1"
     transform="matrix(1.3333333,0,0,-1.3333333,0,170.07867)" />
  <path
     id="path19"
     d="m 106.23137,96.95314 0.85039,-5.95276 0.8504,5.95276 z"
     style="fill:#000000;fill-opacity:1;fill-rule:nonzero;stroke:none"
     transform="matrix(1.3333333,0,0,-1.3333333,0,170.07867)" />
  <text
     id="text19"
     xml:space="preserve"
     transform="matrix(1.3333333,0,0,1.3333333,215.17421,89.221173)"
     clip-path="url(#clipPath20)"><tspan
       style="font-style:italic;font-variant:normal;font-weight:normal;font-stretch:normal;font-size:10.0071px;font-family:'Palatino Linotype';writing-mode:lr-tb;fill:#000000;fill-opacity:1;fill-rule:nonzero;stroke:none"
       x="0 4.4431658 7.2251477 10.00713 13.899903 16.401686 21.965651 26.408815 31.41238 35.305153 40.869118"
       y="0"
       sodipodi:role="line"
       id="tspan19">alle Lagen </tspan></text>
  <text
     id="text20"
     xml:space="preserve"
     transform="matrix(1.3333333,0,0,1.3333333,274.52859,89.221173)"
     clip-path="url(#clipPath21)"><tspan
       style="font-variant:normal;font-weight:normal;font-stretch:normal;font-size:10.616px;font-family:'Cambria Math';writing-mode:lr-tb;fill:#000000;fill-opacity:1;fill-rule:nonzero;stroke:none"
       x="0"
       y="0"
       id="tspan20">⊘</tspan></text>
  <text
     id="text21"
     xml:space="preserve"
     transform="matrix(1.3333333,0,0,1.3333333,288.63604,89.221173)"
     clip-path="url(#clipPath22)"><tspan
       style="font-style:italic;font-variant:normal;font-weight:normal;font-stretch:normal;font-size:10.0071px;font-family:'Palatino Linotype';writing-mode:lr-tb;fill:#000000;fill-opacity:1;fill-rule:nonzero;stroke:none"
       x="0 5.0035648 10.00713 12.508912 16.401686 18.903469 23.907034 26.408815 31.41238 36.415947 41.41951 49.205059"
       y="0"
       sodipodi:role="line"
       id="tspan21">14 s = 200mm</tspan></text>
  <path
     id="path23"
     d="m 118.11026,5.54118 2.97638,0.4252 V 5.116 l -2.97638,0.42518 m 188.97638,0 -2.97638,0.4252 V 5.116 l 2.97638,0.42518 m -188.97638,0 v 2.12598 m 0,-2.12598 V 3.41521 m 188.97638,2.12597 v 2.12598 m 0,-2.12598 V 3.41521 M 118.11026,5.54118 V 16.53575 M 307.08664,5.54118 V 16.53575 M 118.11026,5.54118 v 0 m 188.97638,0 v 0"
     style="fill:none;stroke:#000000;stroke-width:0.3685;stroke-linecap:round;stroke-linejoin:round;stroke-miterlimit:10;stroke-dasharray:none;stroke-opacity:1"
     transform="matrix(1.3333333,0,0,-1.3333333,0,170.07867)" />
  <text
     id="text23"
     xml:space="preserve"
     transform="matrix(1.3333333,0,0,1.3333333,271.70383,158.64284)"
     clip-path="url(#clipPath24)"><tspan
       style="font-variant:normal;font-weight:normal;font-stretch:normal;font-size:10.0916px;font-family:'Palatino Linotype';writing-mode:lr-tb;fill:#000000;fill-opacity:1;fill-rule:nonzero;stroke:none"
       x="0 5.045805 7.5687075 12.614512"
       y="0"
       sodipodi:role="line"
       id="tspan23">1.00</tspan></text>
  <path
     id="path25"
     d="m 118.11026,5.54118 h 20.21863 168.75775"
     style="fill:none;stroke:#000000;stroke-width:0.3685;stroke-linecap:round;stroke-linejoin:round;stroke-miterlimit:10;stroke-dasharray:none;stroke-opacity:1"
     transform="matrix(1.3333333,0,0,-1.3333333,0,170.07867)" />
  <text
     id="text25"
     xml:space="preserve"
     transform="matrix(1.3333333,0,0,1.3333333,138.34989,62.768707)"
     clip-path="url(#clipPath26)"><tspan
       style="font-style:italic;font-variant:normal;font-weight:normal;font-stretch:normal;font-size:10.0071px;font-family:'Palatino Linotype';writing-mode:lr-tb;fill:#000000;fill-opacity:1;fill-rule:nonzero;stroke:none"
       x="0"
       y="0"
       id="tspan25">Z</tspan></text>
  <text
     id="text26"
     xml:space="preserve"
     transform="matrix(1.3333333,0,0,1.3333333,128.22027,19.849987)"
     clip-path="url(#clipPath27)"><tspan
       style="font-style:italic;font-variant:normal;font-weight:normal;font-stretch:normal;font-size:10.0071px;font-family:'Palatino Linotype';writing-mode:lr-tb;fill:#000000;fill-opacity:1;fill-rule:nonzero;stroke:none"
       x="0"
       y="0"
       id="tspan26">X</tspan></text>
  <text
     id="text27"
     xml:space="preserve"
     transform="matrix(1.3333333,0,0,1.3333333,174.75016,25.281)"
     clip-path="url(#clipPath28)"><tspan
       style="font-style:italic;font-variant:normal;font-weight:normal;font-stretch:normal;font-size:10.0071px;font-family:'Palatino Linotype';writing-mode:lr-tb;fill:#000000;fill-opacity:1;fill-rule:nonzero;stroke:none"
       x="0"
       y="0"
       id="tspan27">Y</tspan></text>
</svg>
