<?xml version="1.0" encoding="UTF-8" standalone="no"?>
<!-- Created with Inkscape (http://www.inkscape.org/) -->

<svg
   version="1.1"
   id="svg1"
   width="566.92932"
   height="151.18134"
   viewBox="0 0 566.92932 151.18134"
   sodipodi:docname="jag_b500a_lpa_0504.pdf"
   xmlns:inkscape="http://www.inkscape.org/namespaces/inkscape"
   xmlns:sodipodi="http://sodipodi.sourceforge.net/DTD/sodipodi-0.dtd"
   xmlns="http://www.w3.org/2000/svg"
   xmlns:svg="http://www.w3.org/2000/svg">
  <defs
     id="defs1">
    <clipPath
       clipPathUnits="userSpaceOnUse"
       id="clipPath5">
      <path
         d="M -0.00426,-0.00113 V 113.38696 H 425.20111 V -0.00113 H -0.00426"
         transform="matrix(1,0,0,-1,-294.70629,1.6939525)"
         clip-rule="evenodd"
         id="path5" />
    </clipPath>
    <clipPath
       clipPathUnits="userSpaceOnUse"
       id="clipPath6">
      <path
         d="M -0.00426,-0.00113 V 113.38696 H 425.20111 V -0.00113 H -0.00426"
         transform="matrix(1,0,0,-1,-122.50078,1.6939525)"
         clip-rule="evenodd"
         id="path6" />
    </clipPath>
    <clipPath
       clipPathUnits="userSpaceOnUse"
       id="clipPath7">
      <path
         d="M -0.00426,-0.00113 V 113.38696 H 425.20111 V -0.00113 H -0.00426"
         transform="matrix(1,0,0,-1,-114.49491,44.792321)"
         clip-rule="evenodd"
         id="path7" />
    </clipPath>
    <clipPath
       clipPathUnits="userSpaceOnUse"
       id="clipPath8">
      <path
         d="M -0.00426,-0.00113 V 113.38696 H 425.20111 V -0.00113 H -0.00426"
         transform="matrix(1,0,0,-1,-300.70355,44.792321)"
         clip-rule="evenodd"
         id="path8" />
    </clipPath>
    <clipPath
       clipPathUnits="userSpaceOnUse"
       id="clipPath9">
      <path
         d="M -0.00426,-0.00113 V 113.38696 H 425.20111 V -0.00113 H -0.00426"
         transform="matrix(1,0,0,-1,-205.04128,99.991072)"
         clip-rule="evenodd"
         id="path9" />
    </clipPath>
    <clipPath
       clipPathUnits="userSpaceOnUse"
       id="clipPath10">
      <path
         d="M -0.00426,-0.00113 V 113.38696 H 425.20111 V -0.00113 H -0.00426"
         transform="matrix(1,0,0,-1,-16.49932,69.203361)"
         clip-rule="evenodd"
         id="path10" />
    </clipPath>
    <clipPath
       clipPathUnits="userSpaceOnUse"
       id="clipPath11">
      <path
         d="M -0.00426,-0.00113 V 113.38696 H 425.20111 V -0.00113 H -0.00426"
         transform="matrix(1,0,0,-1,-26.193891,65.069502)"
         clip-rule="evenodd"
         id="path11" />
    </clipPath>
    <clipPath
       clipPathUnits="userSpaceOnUse"
       id="clipPath12">
      <path
         d="M -0.00426,-0.00113 V 113.38696 H 425.20111 V -0.00113 H -0.00426"
         transform="matrix(1,0,0,-1,-11.24341,55.030131)"
         clip-rule="evenodd"
         id="path12" />
    </clipPath>
    <clipPath
       clipPathUnits="userSpaceOnUse"
       id="clipPath13">
      <path
         d="M -0.00426,-0.00113 V 113.38696 H 425.20111 V -0.00113 H -0.00426"
         transform="matrix(1,0,0,-1,-19.51113,31.408083)"
         clip-rule="evenodd"
         id="path13" />
    </clipPath>
    <clipPath
       clipPathUnits="userSpaceOnUse"
       id="clipPath14">
      <path
         d="M -0.00426,-0.00113 V 113.38696 H 425.20111 V -0.00113 H -0.00426"
         transform="matrix(1,0,0,-1,-23.508321,27.274233)"
         clip-rule="evenodd"
         id="path14" />
    </clipPath>
    <clipPath
       clipPathUnits="userSpaceOnUse"
       id="clipPath15">
      <path
         d="M -0.00426,-0.00113 V 113.38696 H 425.20111 V -0.00113 H -0.00426"
         transform="matrix(1,0,0,-1,-13.78278,17.23486)"
         clip-rule="evenodd"
         id="path15" />
    </clipPath>
  </defs>
  <sodipodi:namedview
     id="namedview1"
     pagecolor="#ffffff"
     bordercolor="#000000"
     borderopacity="0.25"
     inkscape:showpageshadow="2"
     inkscape:pageopacity="0.0"
     inkscape:pagecheckerboard="0"
     inkscape:deskcolor="#d1d1d1">
    <inkscape:page
       x="0"
       y="0"
       inkscape:label="1"
       id="page1"
       width="566.92932"
       height="151.18134"
       margin="0"
       bleed="0" />
  </sodipodi:namedview>
  <g
     id="g1"
     inkscape:groupmode="layer"
     inkscape:label="1">
    <path
       id="path1"
       d="m 60.67255,35.12856 h 302.36221 m -302.36221,0 7.19934,-3.73057 7.20508,-3.64439 7.21656,-3.47206 7.23377,-3.21359 7.25673,-2.86893 7.28543,-2.43811 3.65526,-1.03058 3.66459,-0.89056 3.67462,-0.73978 3.6854,-0.57823 5.68764,-0.55983 5.71305,-0.17799 5.73679,0.17836 5.75885,0.50927 5.77918,0.81473 5.79782,1.09474 5.81479,1.34929 5.83004,1.57839 5.8436,1.78201 5.85547,1.9602 5.86563,2.11295 5.87411,2.2402 11.76691,4.76043 11.78046,4.96405 m 151.18109,0 -7.19934,-3.73057 -7.20508,-3.64439 -7.21655,-3.47206 -7.2338,-3.21359 -7.25671,-2.86893 -7.28543,-2.43811 -3.65525,-1.03058 -3.66461,-0.89056 -3.67462,-0.73978 -3.68539,-0.57823 -5.68762,-0.55983 -5.71308,-0.17799 -5.73678,0.17836 -5.75885,0.50927 -5.77918,0.81473 -5.79782,1.09474 -5.81479,1.34929 -5.83002,1.57839 -5.84359,1.78201 -5.85547,1.9602 -5.86566,2.11295 -5.87412,2.2402 -11.76688,4.76043 -11.78045,4.96405 M 60.67255,72.92384 h 302.36221"
       style="fill:none;stroke:#000000;stroke-width:0.3685;stroke-linecap:round;stroke-linejoin:round;stroke-miterlimit:10;stroke-dasharray:none;stroke-opacity:1"
       transform="matrix(1.3333333,0,0,-1.3333333,0,151.18133)" />
    <path
       id="path2"
       d="m 60.67255,72.92384 7.32179,-3.21406 7.31587,-3.12039 7.30403,-2.93308 7.28626,-2.65208 7.26256,-2.27747 7.23294,-1.80914 3.60351,-0.69971 3.59389,-0.54748 3.58351,-0.38361 3.57242,-0.20798 2.9947,-0.03222 2.98659,0.09603 2.97875,0.22022 2.97114,0.34021 5.92059,1.02393 5.89335,1.45431 5.86822,1.85159 5.84522,2.21579 5.82425,2.54685 5.80538,2.84482 5.78867,3.10966 5.77402,3.34143 5.76141,3.54007 5.75098,3.7056 11.47891,7.77537 11.46216,8.04024 m 151.18109,-24.2289 -7.32181,-3.21406 -7.31586,-3.12039 -7.30401,-2.93308 -7.28626,-2.65208 -7.26257,-2.27747 -7.23294,-1.80914 -3.60352,-0.69971 -3.59387,-0.54748 -3.58352,-0.38361 -3.57242,-0.20798 -2.99472,-0.03222 -2.98658,0.09603 -2.97876,0.22022 -2.97113,0.34021 -5.92059,1.02393 -5.89334,1.45431 -5.86822,1.85159 -5.84519,2.21579 -5.82428,2.54685 -5.80539,2.84482 -5.78866,3.10966 -5.77399,3.34143 -5.76145,3.54007 -5.75097,3.7056"
       style="fill:none;stroke:#000000;stroke-width:0.3685;stroke-linecap:round;stroke-linejoin:round;stroke-miterlimit:10;stroke-dasharray:none;stroke-opacity:1"
       transform="matrix(1.3333333,0,0,-1.3333333,0,151.18133)" />
    <path
       id="path3"
       d="m 234.79471,81.33713 -11.47888,7.77537 -11.46216,8.04024 M 60.67255,71.22305 h 0.27234 m 2.83464,0 h 4.25196 m 2.83466,0 h 4.25197 m 2.83464,0 h 4.25197 m 2.83464,0 h 4.25197 m 2.83465,0 h 4.25197 m 2.83464,0 h 4.25197 m 2.83464,0 h 4.25197 m 2.83465,0 h 4.25197 m 2.83464,0 h 4.25197 m 2.83464,0 h 4.25199 m 2.83465,0 h 4.25195 m 2.83466,0 h 4.25195 m 2.83466,0 h 4.25195 m 2.83466,0 h 4.25198 m 2.83463,0 h 4.25198 m 2.83463,0 h 4.25198 m 2.83465,0 h 4.25196 m 2.83465,0 h 4.25196 m 2.83465,0 h 4.25196 m 2.83465,0 h 4.25199 m 2.83462,0 h 4.25198 m 2.83463,0 h 4.25198 m 2.83466,0 h 4.25195 m 2.83466,0 h 4.25195 m 2.83466,0 h 4.25195 m 2.83466,0 h 4.25198 m 2.83462,0 h 4.25199 m 2.83462,0 h 4.25199 m 2.83462,0 h 4.25199 m 2.83465,0 h 4.25195 m 2.83466,0 h 4.25195 m 2.83466,0 h 4.25195 m 2.83466,0 h 4.25198 m 2.83463,0 h 4.25198 m 2.83463,0 h 4.25198 m 2.83466,0 h 4.25195 m 2.83465,0 h 4.25196 m 2.83465,0 h 4.25196 m 2.83465,0 h 4.25199 m 2.83462,0 h 4.25198 m 2.83463,0 h 4.25198 m 2.83466,0 h 4.25195 m 2.83466,0 h 1.61743 m -302.36221,0 v 0 m 302.36221,0 v 0 M 60.67255,33.42776 h 0.27234 m 2.83464,0 h 4.25196"
       style="fill:none;stroke:#000000;stroke-width:0.3685;stroke-linecap:round;stroke-linejoin:round;stroke-miterlimit:10;stroke-dasharray:none;stroke-opacity:1"
       transform="matrix(1.3333333,0,0,-1.3333333,0,151.18133)" />
    <path
       id="path4"
       d="m 70.86615,33.42776 h 4.25197 m 2.83464,0 h 4.25197 m 2.83464,0 h 4.25197 m 2.83465,0 h 4.25197 m 2.83464,0 h 4.25197 m 2.83464,0 h 4.25197 m 2.83465,0 h 4.25197 m 2.83464,0 h 4.25197 m 2.83464,0 h 4.25199 m 2.83465,0 h 4.25195 m 2.83466,0 h 4.25195 m 2.83466,0 h 4.25195 m 2.83466,0 h 4.25198 m 2.83463,0 h 4.25198 m 2.83463,0 h 4.25198 m 2.83465,0 h 4.25196 m 2.83465,0 h 4.25196 m 2.83465,0 h 4.25196 m 2.83465,0 h 4.25199 m 2.83462,0 h 4.25198 m 2.83463,0 h 4.25198 m 2.83466,0 h 4.25195 m 2.83466,0 h 4.25195 m 2.83466,0 h 4.25195 m 2.83466,0 h 4.25198 m 2.83462,0 h 4.25199 m 2.83462,0 h 4.25199 m 2.83462,0 h 4.25199 m 2.83465,0 h 4.25195 m 2.83466,0 h 4.25195 m 2.83466,0 h 4.25195 m 2.83466,0 h 4.25198 m 2.83463,0 h 4.25198 m 2.83463,0 h 4.25198 m 2.83466,0 h 4.25195 m 2.83465,0 h 4.25196 m 2.83465,0 h 4.25196 m 2.83465,0 h 4.25199 m 2.83462,0 h 4.25198 m 2.83463,0 h 4.25198 m 2.83466,0 h 4.25195 m 2.83466,0 h 1.61743 m -302.36221,0 v 0 m 302.36221,0 v 0"
       style="fill:none;stroke:#000000;stroke-width:0.3685;stroke-linecap:round;stroke-linejoin:round;stroke-miterlimit:10;stroke-dasharray:none;stroke-opacity:1"
       transform="matrix(1.3333333,0,0,-1.3333333,0,151.18133)" />
    <text
       id="text4"
       xml:space="preserve"
       transform="matrix(1.3333333,0,0,1.3333333,392.94171,148.92273)"
       clip-path="url(#clipPath5)"><tspan
         style="font-style:italic;font-variant:normal;font-weight:normal;font-stretch:normal;font-size:10.0071px;font-family:'Palatino Linotype';writing-mode:lr-tb;fill:#000000;fill-opacity:1;fill-rule:nonzero;stroke:none"
         x="0 5.0035648"
         y="0"
         sodipodi:role="line"
         id="tspan4">43</tspan></text>
    <text
       id="text5"
       xml:space="preserve"
       transform="matrix(1.3333333,0,0,1.3333333,163.33437,148.92273)"
       clip-path="url(#clipPath6)"><tspan
         style="font-style:italic;font-variant:normal;font-weight:normal;font-stretch:normal;font-size:10.0071px;font-family:'Palatino Linotype';writing-mode:lr-tb;fill:#000000;fill-opacity:1;fill-rule:nonzero;stroke:none"
         x="0 5.0035648"
         y="0"
         sodipodi:role="line"
         id="tspan5">43</tspan></text>
    <text
       id="text6"
       xml:space="preserve"
       transform="matrix(1.3333333,0,0,1.3333333,152.65988,91.45824)"
       clip-path="url(#clipPath7)"><tspan
         style="font-style:italic;font-variant:normal;font-weight:normal;font-stretch:normal;font-size:10.0071px;font-family:'Palatino Linotype';writing-mode:lr-tb;fill:#000000;fill-opacity:1;fill-rule:nonzero;stroke:none"
         x="0 5.0035648"
         y="0"
         sodipodi:role="line"
         id="tspan6">70</tspan></text>
    <text
       id="text7"
       xml:space="preserve"
       transform="matrix(1.3333333,0,0,1.3333333,400.93805,91.45824)"
       clip-path="url(#clipPath8)"><tspan
         style="font-style:italic;font-variant:normal;font-weight:normal;font-stretch:normal;font-size:10.0071px;font-family:'Palatino Linotype';writing-mode:lr-tb;fill:#000000;fill-opacity:1;fill-rule:nonzero;stroke:none"
         x="0 5.0035648"
         y="0"
         sodipodi:role="line"
         id="tspan7">70</tspan></text>
    <text
       id="text8"
       xml:space="preserve"
       transform="matrix(1.3333333,0,0,1.3333333,273.38837,17.859907)"
       clip-path="url(#clipPath9)"><tspan
         style="font-style:italic;font-variant:normal;font-weight:normal;font-stretch:normal;font-size:10.0071px;font-family:'Palatino Linotype';writing-mode:lr-tb;fill:#000000;fill-opacity:1;fill-rule:nonzero;stroke:none"
         x="0 5.0035648 10.00713"
         y="0"
         sodipodi:role="line"
         id="tspan8">116</tspan></text>
    <text
       id="text9"
       xml:space="preserve"
       transform="matrix(1.3333333,0,0,1.3333333,21.999093,58.910187)"
       clip-path="url(#clipPath10)"><tspan
         style="font-style:italic;font-variant:normal;font-weight:normal;font-stretch:normal;font-size:10.0071px;font-family:'Palatino Linotype';writing-mode:lr-tb;fill:#000000;fill-opacity:1;fill-rule:nonzero;stroke:none"
         x="0"
         y="0"
         id="tspan9">M</tspan></text>
    <text
       id="text10"
       xml:space="preserve"
       transform="matrix(1.3333333,0,0,1.3333333,34.925187,64.422)"
       clip-path="url(#clipPath11)"><tspan
         style="font-style:italic;font-variant:normal;font-weight:normal;font-stretch:normal;font-size:6.00428px;font-family:'Palatino Linotype';writing-mode:lr-tb;fill:#000000;fill-opacity:1;fill-rule:nonzero;stroke:none"
         x="0"
         y="0"
         id="tspan10">y</tspan></text>
    <text
       id="text11"
       xml:space="preserve"
       transform="matrix(1.3333333,0,0,1.3333333,14.991213,77.807827)"
       clip-path="url(#clipPath12)"><tspan
         style="font-variant:normal;font-weight:normal;font-stretch:normal;font-size:10.0916px;font-family:'Palatino Linotype';writing-mode:lr-tb;fill:#000000;fill-opacity:1;fill-rule:nonzero;stroke:none"
         x="0 5.6109352 13.997063"
         y="0"
         sodipodi:role="line"
         id="tspan11">kNm</tspan></text>
    <text
       id="text12"
       xml:space="preserve"
       transform="matrix(1.3333333,0,0,1.3333333,26.01484,109.30389)"
       clip-path="url(#clipPath13)"><tspan
         style="font-style:italic;font-variant:normal;font-weight:normal;font-stretch:normal;font-size:10.0071px;font-family:'Palatino Linotype';writing-mode:lr-tb;fill:#000000;fill-opacity:1;fill-rule:nonzero;stroke:none"
         x="0"
         y="0"
         id="tspan12">e</tspan></text>
    <text
       id="text13"
       xml:space="preserve"
       transform="matrix(1.3333333,0,0,1.3333333,31.344427,114.81569)"
       clip-path="url(#clipPath14)"><tspan
         style="font-style:italic;font-variant:normal;font-weight:normal;font-stretch:normal;font-size:6.00428px;font-family:'Palatino Linotype';writing-mode:lr-tb;fill:#000000;fill-opacity:1;fill-rule:nonzero;stroke:none"
         x="0"
         y="0"
         id="tspan13">z</tspan></text>
    <text
       id="text14"
       xml:space="preserve"
       transform="matrix(1.3333333,0,0,1.3333333,18.37704,128.20152)"
       clip-path="url(#clipPath15)"><tspan
         style="font-variant:normal;font-weight:normal;font-stretch:normal;font-size:10.0916px;font-family:'Palatino Linotype';writing-mode:lr-tb;fill:#000000;fill-opacity:1;fill-rule:nonzero;stroke:none"
         x="0 8.9108915"
         y="0"
         sodipodi:role="line"
         id="tspan14">mm</tspan></text>
  </g>
</svg>
