<?xml version="1.0" encoding="UTF-8" standalone="no"?>
<svg
   width="170.07874pt"
   height="153.070866pt"
   viewBox="0 0 170.07874 153.070866"
   version="1.1"
   id="svg48"
   sodipodi:docname="jag_stress_strain_b500a_bearb.svg"
   inkscape:version="1.3.2 (091e20e, 2023-11-25, custom)"
   xml:space="preserve"
   xmlns:inkscape="http://www.inkscape.org/namespaces/inkscape"
   xmlns:sodipodi="http://sodipodi.sourceforge.net/DTD/sodipodi-0.dtd"
   xmlns:xlink="http://www.w3.org/1999/xlink"
   xmlns="http://www.w3.org/2000/svg"
   xmlns:svg="http://www.w3.org/2000/svg"
   xmlns:rdf="http://www.w3.org/1999/02/22-rdf-syntax-ns#"
   xmlns:cc="http://creativecommons.org/ns#"
   xmlns:dc="http://purl.org/dc/elements/1.1/"><sodipodi:namedview
     id="namedview48"
     pagecolor="#ffffff"
     bordercolor="#000000"
     borderopacity="0.25"
     inkscape:showpageshadow="2"
     inkscape:pageopacity="0.0"
     inkscape:pagecheckerboard="0"
     inkscape:deskcolor="#d1d1d1"
     inkscape:document-units="pt"
     showgrid="false"
     inkscape:zoom="2.8167239"
     inkscape:cx="85.915414"
     inkscape:cy="91.418261"
     inkscape:window-width="1920"
     inkscape:window-height="1009"
     inkscape:window-x="-8"
     inkscape:window-y="-1"
     inkscape:window-maximized="1"
     inkscape:current-layer="layer1" /><metadata
     id="metadata1"><rdf:RDF><cc:Work><dc:type
           rdf:resource="http://purl.org/dc/dcmitype/StillImage" /><dc:date>2024-10-02T11:10:21.354435</dc:date><dc:format>image/svg+xml</dc:format><dc:creator><cc:Agent><dc:title>Matplotlib v3.9.1, https://matplotlib.org/</dc:title></cc:Agent></dc:creator></cc:Work></rdf:RDF></metadata><defs
     id="defs1"><rect
       x="130.54014"
       y="19.329982"
       width="22.875142"
       height="20.714038"
       id="rect6" /><rect
       x="129.78702"
       y="52.621494"
       width="37.153732"
       height="30.221286"
       id="rect4" /><rect
       x="125.51936"
       y="52.621494"
       width="33.890228"
       height="22.439085"
       id="rect3" /><rect
       x="137.06714"
       y="52.621494"
       width="16.348135"
       height="12.397536"
       id="rect2" /><rect
       x="27.61426"
       y="11.547781"
       width="114.22262"
       height="122.5069"
       id="rect52" /><rect
       x="63.261758"
       y="18.827904"
       width="126.52352"
       height="89.620825"
       id="rect51" /><rect
       x="91.629134"
       y="46.442164"
       width="83.595895"
       height="50.960861"
       id="rect49" /><style
       type="text/css"
       id="style1">*{stroke-linejoin: round; stroke-linecap: butt}</style><rect
       x="27.61426"
       y="11.547781"
       width="114.22262"
       height="122.5069"
       id="rect52-4" /><rect
       x="27.61426"
       y="11.547781"
       width="114.22262"
       height="122.5069"
       id="rect52-1" /><rect
       x="63.261758"
       y="18.827904"
       width="126.52352"
       height="89.620825"
       id="rect51-8" /><rect
       x="91.629134"
       y="46.442164"
       width="83.595895"
       height="50.960861"
       id="rect49-9" /><style
       type="text/css"
       id="style1-4">*{stroke-linejoin: round; stroke-linecap: butt}</style><rect
       x="27.61426"
       y="11.547781"
       width="114.22262"
       height="122.5069"
       id="rect52-4-9" /><path
       id="mcf8dd7c26b"
       d="M 0,0 V -3.5"
       style="stroke:#000000;stroke-width:0.5" /><path
       id="CMR17-30"
       d="m 2688,2038 c 0,392 -6,1061 -275,1575 -237,450 -615,611 -947,611 -308,0 -698,-142 -941,-604 C 269,3137 243,2539 243,2038 c 0,-367 7,-926 205,-1415 275,-662 768,-751 1018,-751 294,0 742,121 1004,732 192,444 218,964 218,1434 z M 1466,-26 c -410,0 -653,354 -743,842 -70,380 -70,933 -70,1293 0,495 0,906 83,1298 122,547 480,714 730,714 262,0 601,-174 723,-701 83,-366 89,-797 89,-1311 0,-418 0,-933 -76,-1312 C 2067,96 1690,-26 1466,-26 Z"
       transform="scale(0.015625)" /><path
       id="CMMI12-3a"
       d="M 1178,307 C 1178,492 1024,620 870,620 685,620 557,467 557,313 557,128 710,0 864,0 c 186,0 314,153 314,307 z"
       transform="scale(0.015625)" /><path
       id="CMR17-35"
       d="m 730,3750 c 64,-26 326,-109 595,-109 595,0 921,320 1107,499 0,51 0,84 -38,84 -7,0 -20,0 -71,-26 -224,-96 -486,-166 -806,-166 -192,0 -480,23 -794,159 -70,33 -83,33 -89,33 -32,0 -39,-7 -39,-134 V 2231 c 0,-118 0,-151 64,-151 32,0 45,13 77,59 205,296 486,421 806,421 224,0 704,-145 704,-1267 0,-206 0,-577 -192,-871 C 1894,159 1645,25 1370,25 947,25 518,319 403,812 c 26,-6 77,-19 103,-19 83,0 243,45 243,243 0,173 -122,244 -243,244 -148,0 -244,-90 -244,-269 0,-557 442,-1139 1120,-1139 660,0 1287,569 1287,1395 0,787 -499,1395 -1120,1395 -327,0 -602,-122 -819,-358 z"
       transform="scale(0.015625)" /><path
       id="CMR17-31"
       d="m 1702,4083 c 0,134 -6,141 -96,141 -249,-297 -627,-391 -985,-404 -19,0 -51,0 -58,-12 -6,-13 -6,-26 -6,-160 198,0 531,38 787,191 V 467 C 1344,243 1331,166 781,166 H 589 V 0 c 307,6 627,12 934,12 307,0 627,-6 935,-12 v 166 h -192 c -551,0 -564,70 -564,301 z"
       transform="scale(0.015625)" /><path
       id="CMMI12-22"
       d="m 890,1427 c 204,-83 422,-83 544,-83 166,0 499,0 499,210 0,129 -122,174 -448,174 -160,0 -352,-20 -576,-116 -199,96 -275,241 -275,379 0,388 627,613 1196,613 109,0 340,0 608,-194 39,-25 58,-44 103,-44 77,0 160,82 160,157 0,113 -371,357 -813,357 -717,0 -1395,-426 -1395,-889 0,-232 153,-379 262,-483 C 384,1288 166,953 166,649 c 0,-428 397,-777 1012,-777 844,0 1184,554 1184,641 0,31 -26,55 -58,55 -32,0 -45,-18 -70,-55 -71,-118 -237,-366 -999,-366 -397,0 -921,99 -921,539 0,211 160,527 576,741 z m 198,90 c 173,82 339,82 384,82 179,0 211,-18 314,-54 -109,-73 -122,-73 -352,-73 -116,0 -218,0 -346,45 z"
       transform="scale(0.015625)" /><path
       id="CMMI12-73"
       d="m 1459,1290 c 109,-19 282,-57 320,-63 83,-26 371,-128 371,-434 C 2150,595 1971,64 1229,64 1094,64 614,83 486,447 742,414 870,614 870,755 870,889 781,960 653,960 512,960 326,851 326,563 c 0,-387 384,-627 896,-627 973,0 1261,729 1261,1062 0,95 0,273 -205,477 -160,152 -313,184 -659,254 -173,38 -448,95 -448,382 0,128 115,576 723,576 269,0 532,-98 596,-319 -282,0 -295,-244 -295,-250 0,-135 122,-173 179,-173 90,0 269,70 269,339 0,262 -243,532 -742,532 -839,0 -1063,-647 -1063,-909 0,-483 474,-585 621,-617 z"
       transform="scale(0.015625)" /><path
       id="CMR17-5b"
       d="m 1504,-1600 v 224 H 902 v 5951 h 602 v 225 H 678 v -6400 z"
       transform="scale(0.015625)" /><path
       id="CMR17-2d"
       d="m 1632,1254 v 282 H 26 v -282 z"
       transform="scale(0.015625)" /><path
       id="CMR17-5d"
       d="M 915,4800 H 90 V 4575 H 691 V -1376 H 90 v -224 h 825 z"
       transform="scale(0.015625)" /><path
       id="m2a111149c2"
       d="M 0,0 H 3.5"
       style="stroke:#000000;stroke-width:0.5" /><path
       id="CMR17-32"
       d="M 2669,990 H 2554 C 2490,537 2438,460 2413,422 2381,371 1920,371 1830,371 H 602 c 230,249 678,702 1222,1225 390,370 845,804 845,1437 0,755 -602,1191 -1274,1191 -704,0 -1133,-621 -1133,-1197 0,-250 186,-282 263,-282 64,0 256,38 256,262 0,199 -167,257 -256,257 -39,0 -77,-7 -103,-20 122,544 493,813 884,813 556,0 921,-441 921,-1024 0,-556 -326,-1035 -691,-1450 L 262,147 V 0 h 2253 z"
       transform="scale(0.015625)" /><path
       id="CMR17-34"
       d="m 2150,4147 c 0,134 -6,141 -121,141 L 128,1254 V 1088 H 1779 V 460 c 0,-230 -13,-294 -461,-294 H 1197 V 0 c 205,12 550,12 768,12 217,0 563,0 768,-12 v 166 h -122 c -448,0 -461,64 -461,294 v 628 h 653 v 166 H 2150 Z M 1798,3723 V 1254 H 256 Z"
       transform="scale(0.015625)" /><path
       id="CMR17-36"
       d="m 678,2198 c 0,1514 717,1878 1133,1878 135,0 461,-27 589,-294 -102,0 -294,0 -294,-224 0,-173 140,-230 230,-230 58,0 230,25 230,243 0,416 -320,653 -761,653 -762,0 -1562,-813 -1562,-2213 0,-1754 723,-2139 1235,-2139 621,0 1210,559 1210,1423 0,806 -518,1393 -1171,1393 -391,0 -679,-258 -839,-709 z M 1478,25 c -787,0 -787,1187 -787,1425 0,464 218,1135 813,1135 109,0 422,0 634,-445 115,-251 115,-516 115,-838 0,-348 0,-606 -135,-864 C 1978,173 1773,25 1478,25 Z"
       transform="scale(0.015625)" /><path
       id="CMMI12-1b"
       d="m 3251,2406 c 83,0 295,0 295,205 0,141 -122,141 -237,141 H 1894 C 934,2752 243,1685 243,932 c 0,-543 352,-996 928,-996 755,0 1581,810 1581,1768 0,249 -58,491 -211,702 z M 1178,64 c -327,0 -564,248 -564,689 0,383 231,1653 1172,1653 275,0 582,-134 582,-626 0,-223 -102,-759 -326,-1129 C 1811,274 1466,64 1178,64 Z"
       transform="scale(0.015625)" /><path
       id="CMR17-4e"
       d="m 1312,4275 c -45,70 -51,77 -173,77 H 326 v -167 h 122 c 256,0 371,-32 390,-38 V 624 C 838,465 838,166 326,166 V 0 c 148,12 416,12 576,12 160,0 429,0 576,-12 V 166 C 966,166 966,465 966,624 v 3433 c 45,-38 45,-50 90,-114 L 3430,76 c 45,-76 64,-76 96,-76 64,0 64,19 64,140 v 3586 c 0,159 0,459 512,459 v 167 c -147,-13 -416,-13 -576,-13 -160,0 -428,0 -576,13 v -167 c 512,0 512,-300 512,-459 V 777 Z"
       transform="scale(0.015625)" /><path
       id="CMR17-2f"
       d="m 2605,4575 c 32,83 32,96 32,109 0,77 -58,116 -109,116 -77,0 -102,-52 -128,-129 L 326,-1376 c -32,-84 -32,-96 -32,-109 0,-77 58,-115 109,-115 77,0 103,51 128,128 z"
       transform="scale(0.015625)" /><path
       id="CMR17-6d"
       d="m 4326,1954 c 0,322 -57,862 -819,862 -435,0 -736,-296 -851,-643 h -6 c -77,527 -455,643 -813,643 -506,0 -768,-392 -864,-650 h -7 v 650 l -755,-71 v -167 c 378,0 435,-38 435,-347 V 443 C 646,198 621,166 211,166 V 0 c 154,12 435,12 602,12 166,0 454,0 608,-12 v 166 c -410,0 -435,26 -435,277 v 1235 c 0,591 358,1035 806,1035 474,0 525,-424 525,-733 V 443 c 0,-245 -26,-277 -435,-277 V 0 c 153,12 435,12 601,12 167,0 455,0 608,-12 v 166 c -409,0 -435,26 -435,277 v 1235 c 0,591 358,1035 806,1035 474,0 525,-424 525,-733 V 443 c 0,-245 -25,-277 -435,-277 V 0 c 154,12 435,12 602,12 166,0 454,0 608,-12 v 166 c -410,0 -436,26 -436,277 z"
       transform="scale(0.015625)" /><clipPath
       id="pd5e15e0b0d-9"><rect
         x="39.442827"
         y="8.64"
         width="121.995913"
         height="111.243679"
         id="rect48-6" /></clipPath><style
       type="text/css"
       id="style1-41">*{stroke-linejoin: round; stroke-linecap: butt}</style><path
       id="m54107c0745"
       d="M 0 0  L 0 -3.5  "
       style="stroke: #000000; stroke-width: 0.5" /><path
       id="CMR17-30-4"
       d="M 2688 2038  C 2688 2430 2682 3099 2413 3613  C 2176 4063 1798 4224 1466 4224  C 1158 4224 768 4082 525 3620  C 269 3137 243 2539 243 2038  C 243 1671 250 1112 448 623  C 723 -39 1216 -128 1466 -128  C 1760 -128 2208 -7 2470 604  C 2662 1048 2688 1568 2688 2038  z M 1466 -26  C 1056 -26 813 328 723 816  C 653 1196 653 1749 653 2109  C 653 2604 653 3015 736 3407  C 858 3954 1216 4121 1466 4121  C 1728 4121 2067 3947 2189 3420  C 2272 3054 2278 2623 2278 2109  C 2278 1691 2278 1176 2202 797  C 2067 96 1690 -26 1466 -26  z "
       transform="scale(0.015625)" /><path
       id="CMMI12-3a-2"
       d="M 1178 307  C 1178 492 1024 620 870 620  C 685 620 557 467 557 313  C 557 128 710 0 864 0  C 1050 0 1178 153 1178 307  z "
       transform="scale(0.015625)" /><path
       id="CMR17-35-4"
       d="M 730 3750  C 794 3724 1056 3641 1325 3641  C 1920 3641 2246 3961 2432 4140  C 2432 4191 2432 4224 2394 4224  C 2387 4224 2374 4224 2323 4198  C 2099 4102 1837 4032 1517 4032  C 1325 4032 1037 4055 723 4191  C 653 4224 640 4224 634 4224  C 602 4224 595 4217 595 4090  L 595 2231  C 595 2113 595 2080 659 2080  C 691 2080 704 2093 736 2139  C 941 2435 1222 2560 1542 2560  C 1766 2560 2246 2415 2246 1293  C 2246 1087 2246 716 2054 422  C 1894 159 1645 25 1370 25  C 947 25 518 319 403 812  C 429 806 480 793 506 793  C 589 793 749 838 749 1036  C 749 1209 627 1280 506 1280  C 358 1280 262 1190 262 1011  C 262 454 704 -128 1382 -128  C 2042 -128 2669 441 2669 1267  C 2669 2054 2170 2662 1549 2662  C 1222 2662 947 2540 730 2304  L 730 3750  z "
       transform="scale(0.015625)" /><path
       id="CMR17-31-4"
       d="M 1702 4083  C 1702 4217 1696 4224 1606 4224  C 1357 3927 979 3833 621 3820  C 602 3820 570 3820 563 3808  C 557 3795 557 3782 557 3648  C 755 3648 1088 3686 1344 3839  L 1344 467  C 1344 243 1331 166 781 166  L 589 166  L 589 0  C 896 6 1216 12 1523 12  C 1830 12 2150 6 2458 0  L 2458 166  L 2266 166  C 1715 166 1702 236 1702 467  L 1702 4083  z "
       transform="scale(0.015625)" /><path
       id="CMMI12-22-5"
       d="M 890 1427  C 1094 1344 1312 1344 1434 1344  C 1600 1344 1933 1344 1933 1554  C 1933 1683 1811 1728 1485 1728  C 1325 1728 1133 1708 909 1612  C 710 1708 634 1853 634 1991  C 634 2379 1261 2604 1830 2604  C 1939 2604 2170 2604 2438 2410  C 2477 2385 2496 2366 2541 2366  C 2618 2366 2701 2448 2701 2523  C 2701 2636 2330 2880 1888 2880  C 1171 2880 493 2454 493 1991  C 493 1759 646 1612 755 1508  C 384 1288 166 953 166 649  C 166 221 563 -128 1178 -128  C 2022 -128 2362 426 2362 513  C 2362 544 2336 568 2304 568  C 2272 568 2259 550 2234 513  C 2163 395 1997 147 1235 147  C 838 147 314 246 314 686  C 314 897 474 1213 890 1427  z M 1088 1517  C 1261 1599 1427 1599 1472 1599  C 1651 1599 1683 1581 1786 1545  C 1677 1472 1664 1472 1434 1472  C 1318 1472 1216 1472 1088 1517  z "
       transform="scale(0.015625)" /><path
       id="CMMI12-73-3"
       d="M 1459 1290  C 1568 1271 1741 1233 1779 1227  C 1862 1201 2150 1099 2150 793  C 2150 595 1971 64 1229 64  C 1094 64 614 83 486 447  C 742 414 870 614 870 755  C 870 889 781 960 653 960  C 512 960 326 851 326 563  C 326 176 710 -64 1222 -64  C 2195 -64 2483 665 2483 998  C 2483 1093 2483 1271 2278 1475  C 2118 1627 1965 1659 1619 1729  C 1446 1767 1171 1824 1171 2111  C 1171 2239 1286 2687 1894 2687  C 2163 2687 2426 2589 2490 2368  C 2208 2368 2195 2124 2195 2118  C 2195 1983 2317 1945 2374 1945  C 2464 1945 2643 2015 2643 2284  C 2643 2546 2400 2816 1901 2816  C 1062 2816 838 2169 838 1907  C 838 1424 1312 1322 1459 1290  z "
       transform="scale(0.015625)" /><path
       id="CMR17-5b-3"
       d="M 1504 -1600  L 1504 -1376  L 902 -1376  L 902 4575  L 1504 4575  L 1504 4800  L 678 4800  L 678 -1600  L 1504 -1600  z "
       transform="scale(0.015625)" /><path
       id="CMR17-2d-9"
       d="M 1632 1254  L 1632 1536  L 26 1536  L 26 1254  L 1632 1254  z "
       transform="scale(0.015625)" /><path
       id="CMR17-5d-7"
       d="M 915 4800  L 90 4800  L 90 4575  L 691 4575  L 691 -1376  L 90 -1376  L 90 -1600  L 915 -1600  L 915 4800  z "
       transform="scale(0.015625)" /><path
       id="m7c42eedb03"
       d="M 0 0  L 3.5 0  "
       style="stroke: #000000; stroke-width: 0.5" /><path
       id="CMR17-32-2"
       d="M 2669 990  L 2554 990  C 2490 537 2438 460 2413 422  C 2381 371 1920 371 1830 371  L 602 371  C 832 620 1280 1073 1824 1596  C 2214 1966 2669 2400 2669 3033  C 2669 3788 2067 4224 1395 4224  C 691 4224 262 3603 262 3027  C 262 2777 448 2745 525 2745  C 589 2745 781 2783 781 3007  C 781 3206 614 3264 525 3264  C 486 3264 448 3257 422 3244  C 544 3788 915 4057 1306 4057  C 1862 4057 2227 3616 2227 3033  C 2227 2477 1901 1998 1536 1583  L 262 147  L 262 0  L 2515 0  L 2669 990  z "
       transform="scale(0.015625)" /><path
       id="CMR17-34-7"
       d="M 2150 4147  C 2150 4281 2144 4288 2029 4288  L 128 1254  L 128 1088  L 1779 1088  L 1779 460  C 1779 230 1766 166 1318 166  L 1197 166  L 1197 0  C 1402 12 1747 12 1965 12  C 2182 12 2528 12 2733 0  L 2733 166  L 2611 166  C 2163 166 2150 230 2150 460  L 2150 1088  L 2803 1088  L 2803 1254  L 2150 1254  L 2150 4147  z M 1798 3723  L 1798 1254  L 256 1254  L 1798 3723  z "
       transform="scale(0.015625)" /><path
       id="CMR17-36-3"
       d="M 678 2198  C 678 3712 1395 4076 1811 4076  C 1946 4076 2272 4049 2400 3782  C 2298 3782 2106 3782 2106 3558  C 2106 3385 2246 3328 2336 3328  C 2394 3328 2566 3353 2566 3571  C 2566 3987 2246 4224 1805 4224  C 1043 4224 243 3411 243 2011  C 243 257 966 -128 1478 -128  C 2099 -128 2688 431 2688 1295  C 2688 2101 2170 2688 1517 2688  C 1126 2688 838 2430 678 1979  L 678 2198  z M 1478 25  C 691 25 691 1212 691 1450  C 691 1914 909 2585 1504 2585  C 1613 2585 1926 2585 2138 2140  C 2253 1889 2253 1624 2253 1302  C 2253 954 2253 696 2118 438  C 1978 173 1773 25 1478 25  z "
       transform="scale(0.015625)" /><path
       id="CMMI12-1b-0"
       d="M 3251 2406  C 3334 2406 3546 2406 3546 2611  C 3546 2752 3424 2752 3309 2752  L 1894 2752  C 934 2752 243 1685 243 932  C 243 389 595 -64 1171 -64  C 1926 -64 2752 746 2752 1704  C 2752 1953 2694 2195 2541 2406  L 3251 2406  z M 1178 64  C 851 64 614 312 614 753  C 614 1136 845 2406 1786 2406  C 2061 2406 2368 2272 2368 1780  C 2368 1557 2266 1021 2042 651  C 1811 274 1466 64 1178 64  z "
       transform="scale(0.015625)" /><path
       id="CMR17-4e-9"
       d="M 1312 4275  C 1267 4345 1261 4352 1139 4352  L 326 4352  L 326 4185  L 448 4185  C 704 4185 819 4153 838 4147  L 838 624  C 838 465 838 166 326 166  L 326 0  C 474 12 742 12 902 12  C 1062 12 1331 12 1478 0  L 1478 166  C 966 166 966 465 966 624  L 966 4057  C 1011 4019 1011 4007 1056 3943  L 3430 76  C 3475 0 3494 0 3526 0  C 3590 0 3590 19 3590 140  L 3590 3726  C 3590 3885 3590 4185 4102 4185  L 4102 4352  C 3955 4339 3686 4339 3526 4339  C 3366 4339 3098 4339 2950 4352  L 2950 4185  C 3462 4185 3462 3885 3462 3726  L 3462 777  L 1312 4275  z "
       transform="scale(0.015625)" /><path
       id="CMR17-2f-9"
       d="M 2605 4575  C 2637 4658 2637 4671 2637 4684  C 2637 4761 2579 4800 2528 4800  C 2451 4800 2426 4748 2400 4671  L 326 -1376  C 294 -1460 294 -1472 294 -1485  C 294 -1562 352 -1600 403 -1600  C 480 -1600 506 -1549 531 -1472  L 2605 4575  z "
       transform="scale(0.015625)" /><path
       id="CMR17-6d-6"
       d="M 4326 1954  C 4326 2276 4269 2816 3507 2816  C 3072 2816 2771 2520 2656 2173  L 2650 2173  C 2573 2700 2195 2816 1837 2816  C 1331 2816 1069 2424 973 2166  L 966 2166  L 966 2816  L 211 2745  L 211 2578  C 589 2578 646 2540 646 2231  L 646 443  C 646 198 621 166 211 166  L 211 0  C 365 12 646 12 813 12  C 979 12 1267 12 1421 0  L 1421 166  C 1011 166 986 192 986 443  L 986 1678  C 986 2269 1344 2713 1792 2713  C 2266 2713 2317 2289 2317 1980  L 2317 443  C 2317 198 2291 166 1882 166  L 1882 0  C 2035 12 2317 12 2483 12  C 2650 12 2938 12 3091 0  L 3091 166  C 2682 166 2656 192 2656 443  L 2656 1678  C 2656 2269 3014 2713 3462 2713  C 3936 2713 3987 2289 3987 1980  L 3987 443  C 3987 198 3962 166 3552 166  L 3552 0  C 3706 12 3987 12 4154 12  C 4320 12 4608 12 4762 0  L 4762 166  C 4352 166 4326 192 4326 443  L 4326 1954  z "
       transform="scale(0.015625)" /><clipPath
       id="p7df313a46c"><rect
         x="39.442827"
         y="8.64"
         width="121.995913"
         height="111.243679"
         id="rect50" /></clipPath><style
       type="text/css"
       id="style1-3">*{stroke-linejoin: round; stroke-linecap: butt}</style><path
       id="ma3aac74172"
       d="M 0 0  L 0 -3.5  "
       style="stroke: #000000; stroke-width: 0.5" /><path
       id="CMR17-30-9"
       d="M 2688 2038  C 2688 2430 2682 3099 2413 3613  C 2176 4063 1798 4224 1466 4224  C 1158 4224 768 4082 525 3620  C 269 3137 243 2539 243 2038  C 243 1671 250 1112 448 623  C 723 -39 1216 -128 1466 -128  C 1760 -128 2208 -7 2470 604  C 2662 1048 2688 1568 2688 2038  z M 1466 -26  C 1056 -26 813 328 723 816  C 653 1196 653 1749 653 2109  C 653 2604 653 3015 736 3407  C 858 3954 1216 4121 1466 4121  C 1728 4121 2067 3947 2189 3420  C 2272 3054 2278 2623 2278 2109  C 2278 1691 2278 1176 2202 797  C 2067 96 1690 -26 1466 -26  z "
       transform="scale(0.015625)" /><path
       id="CMMI12-3a-9"
       d="M 1178 307  C 1178 492 1024 620 870 620  C 685 620 557 467 557 313  C 557 128 710 0 864 0  C 1050 0 1178 153 1178 307  z "
       transform="scale(0.015625)" /><path
       id="CMR17-35-1"
       d="M 730 3750  C 794 3724 1056 3641 1325 3641  C 1920 3641 2246 3961 2432 4140  C 2432 4191 2432 4224 2394 4224  C 2387 4224 2374 4224 2323 4198  C 2099 4102 1837 4032 1517 4032  C 1325 4032 1037 4055 723 4191  C 653 4224 640 4224 634 4224  C 602 4224 595 4217 595 4090  L 595 2231  C 595 2113 595 2080 659 2080  C 691 2080 704 2093 736 2139  C 941 2435 1222 2560 1542 2560  C 1766 2560 2246 2415 2246 1293  C 2246 1087 2246 716 2054 422  C 1894 159 1645 25 1370 25  C 947 25 518 319 403 812  C 429 806 480 793 506 793  C 589 793 749 838 749 1036  C 749 1209 627 1280 506 1280  C 358 1280 262 1190 262 1011  C 262 454 704 -128 1382 -128  C 2042 -128 2669 441 2669 1267  C 2669 2054 2170 2662 1549 2662  C 1222 2662 947 2540 730 2304  L 730 3750  z "
       transform="scale(0.015625)" /><path
       id="CMR17-31-8"
       d="M 1702 4083  C 1702 4217 1696 4224 1606 4224  C 1357 3927 979 3833 621 3820  C 602 3820 570 3820 563 3808  C 557 3795 557 3782 557 3648  C 755 3648 1088 3686 1344 3839  L 1344 467  C 1344 243 1331 166 781 166  L 589 166  L 589 0  C 896 6 1216 12 1523 12  C 1830 12 2150 6 2458 0  L 2458 166  L 2266 166  C 1715 166 1702 236 1702 467  L 1702 4083  z "
       transform="scale(0.015625)" /><path
       id="CMMI12-22-6"
       d="M 890 1427  C 1094 1344 1312 1344 1434 1344  C 1600 1344 1933 1344 1933 1554  C 1933 1683 1811 1728 1485 1728  C 1325 1728 1133 1708 909 1612  C 710 1708 634 1853 634 1991  C 634 2379 1261 2604 1830 2604  C 1939 2604 2170 2604 2438 2410  C 2477 2385 2496 2366 2541 2366  C 2618 2366 2701 2448 2701 2523  C 2701 2636 2330 2880 1888 2880  C 1171 2880 493 2454 493 1991  C 493 1759 646 1612 755 1508  C 384 1288 166 953 166 649  C 166 221 563 -128 1178 -128  C 2022 -128 2362 426 2362 513  C 2362 544 2336 568 2304 568  C 2272 568 2259 550 2234 513  C 2163 395 1997 147 1235 147  C 838 147 314 246 314 686  C 314 897 474 1213 890 1427  z M 1088 1517  C 1261 1599 1427 1599 1472 1599  C 1651 1599 1683 1581 1786 1545  C 1677 1472 1664 1472 1434 1472  C 1318 1472 1216 1472 1088 1517  z "
       transform="scale(0.015625)" /><path
       id="CMMI12-73-6"
       d="M 1459 1290  C 1568 1271 1741 1233 1779 1227  C 1862 1201 2150 1099 2150 793  C 2150 595 1971 64 1229 64  C 1094 64 614 83 486 447  C 742 414 870 614 870 755  C 870 889 781 960 653 960  C 512 960 326 851 326 563  C 326 176 710 -64 1222 -64  C 2195 -64 2483 665 2483 998  C 2483 1093 2483 1271 2278 1475  C 2118 1627 1965 1659 1619 1729  C 1446 1767 1171 1824 1171 2111  C 1171 2239 1286 2687 1894 2687  C 2163 2687 2426 2589 2490 2368  C 2208 2368 2195 2124 2195 2118  C 2195 1983 2317 1945 2374 1945  C 2464 1945 2643 2015 2643 2284  C 2643 2546 2400 2816 1901 2816  C 1062 2816 838 2169 838 1907  C 838 1424 1312 1322 1459 1290  z "
       transform="scale(0.015625)" /><path
       id="CMR17-5b-4"
       d="M 1504 -1600  L 1504 -1376  L 902 -1376  L 902 4575  L 1504 4575  L 1504 4800  L 678 4800  L 678 -1600  L 1504 -1600  z "
       transform="scale(0.015625)" /><path
       id="CMR17-2d-8"
       d="M 1632 1254  L 1632 1536  L 26 1536  L 26 1254  L 1632 1254  z "
       transform="scale(0.015625)" /><path
       id="CMR17-5d-0"
       d="M 915 4800  L 90 4800  L 90 4575  L 691 4575  L 691 -1376  L 90 -1376  L 90 -1600  L 915 -1600  L 915 4800  z "
       transform="scale(0.015625)" /><path
       id="mc096606694"
       d="M 0 0  L 3.5 0  "
       style="stroke: #000000; stroke-width: 0.5" /><path
       id="CMR17-32-4"
       d="M 2669 990  L 2554 990  C 2490 537 2438 460 2413 422  C 2381 371 1920 371 1830 371  L 602 371  C 832 620 1280 1073 1824 1596  C 2214 1966 2669 2400 2669 3033  C 2669 3788 2067 4224 1395 4224  C 691 4224 262 3603 262 3027  C 262 2777 448 2745 525 2745  C 589 2745 781 2783 781 3007  C 781 3206 614 3264 525 3264  C 486 3264 448 3257 422 3244  C 544 3788 915 4057 1306 4057  C 1862 4057 2227 3616 2227 3033  C 2227 2477 1901 1998 1536 1583  L 262 147  L 262 0  L 2515 0  L 2669 990  z "
       transform="scale(0.015625)" /><path
       id="CMR17-34-4"
       d="M 2150 4147  C 2150 4281 2144 4288 2029 4288  L 128 1254  L 128 1088  L 1779 1088  L 1779 460  C 1779 230 1766 166 1318 166  L 1197 166  L 1197 0  C 1402 12 1747 12 1965 12  C 2182 12 2528 12 2733 0  L 2733 166  L 2611 166  C 2163 166 2150 230 2150 460  L 2150 1088  L 2803 1088  L 2803 1254  L 2150 1254  L 2150 4147  z M 1798 3723  L 1798 1254  L 256 1254  L 1798 3723  z "
       transform="scale(0.015625)" /><path
       id="CMR17-36-8"
       d="M 678 2198  C 678 3712 1395 4076 1811 4076  C 1946 4076 2272 4049 2400 3782  C 2298 3782 2106 3782 2106 3558  C 2106 3385 2246 3328 2336 3328  C 2394 3328 2566 3353 2566 3571  C 2566 3987 2246 4224 1805 4224  C 1043 4224 243 3411 243 2011  C 243 257 966 -128 1478 -128  C 2099 -128 2688 431 2688 1295  C 2688 2101 2170 2688 1517 2688  C 1126 2688 838 2430 678 1979  L 678 2198  z M 1478 25  C 691 25 691 1212 691 1450  C 691 1914 909 2585 1504 2585  C 1613 2585 1926 2585 2138 2140  C 2253 1889 2253 1624 2253 1302  C 2253 954 2253 696 2118 438  C 1978 173 1773 25 1478 25  z "
       transform="scale(0.015625)" /><path
       id="CMMI12-1b-1"
       d="M 3251 2406  C 3334 2406 3546 2406 3546 2611  C 3546 2752 3424 2752 3309 2752  L 1894 2752  C 934 2752 243 1685 243 932  C 243 389 595 -64 1171 -64  C 1926 -64 2752 746 2752 1704  C 2752 1953 2694 2195 2541 2406  L 3251 2406  z M 1178 64  C 851 64 614 312 614 753  C 614 1136 845 2406 1786 2406  C 2061 2406 2368 2272 2368 1780  C 2368 1557 2266 1021 2042 651  C 1811 274 1466 64 1178 64  z "
       transform="scale(0.015625)" /><path
       id="CMR17-4e-95"
       d="M 1312 4275  C 1267 4345 1261 4352 1139 4352  L 326 4352  L 326 4185  L 448 4185  C 704 4185 819 4153 838 4147  L 838 624  C 838 465 838 166 326 166  L 326 0  C 474 12 742 12 902 12  C 1062 12 1331 12 1478 0  L 1478 166  C 966 166 966 465 966 624  L 966 4057  C 1011 4019 1011 4007 1056 3943  L 3430 76  C 3475 0 3494 0 3526 0  C 3590 0 3590 19 3590 140  L 3590 3726  C 3590 3885 3590 4185 4102 4185  L 4102 4352  C 3955 4339 3686 4339 3526 4339  C 3366 4339 3098 4339 2950 4352  L 2950 4185  C 3462 4185 3462 3885 3462 3726  L 3462 777  L 1312 4275  z "
       transform="scale(0.015625)" /><path
       id="CMR17-2f-7"
       d="M 2605 4575  C 2637 4658 2637 4671 2637 4684  C 2637 4761 2579 4800 2528 4800  C 2451 4800 2426 4748 2400 4671  L 326 -1376  C 294 -1460 294 -1472 294 -1485  C 294 -1562 352 -1600 403 -1600  C 480 -1600 506 -1549 531 -1472  L 2605 4575  z "
       transform="scale(0.015625)" /><path
       id="CMR17-6d-9"
       d="M 4326 1954  C 4326 2276 4269 2816 3507 2816  C 3072 2816 2771 2520 2656 2173  L 2650 2173  C 2573 2700 2195 2816 1837 2816  C 1331 2816 1069 2424 973 2166  L 966 2166  L 966 2816  L 211 2745  L 211 2578  C 589 2578 646 2540 646 2231  L 646 443  C 646 198 621 166 211 166  L 211 0  C 365 12 646 12 813 12  C 979 12 1267 12 1421 0  L 1421 166  C 1011 166 986 192 986 443  L 986 1678  C 986 2269 1344 2713 1792 2713  C 2266 2713 2317 2289 2317 1980  L 2317 443  C 2317 198 2291 166 1882 166  L 1882 0  C 2035 12 2317 12 2483 12  C 2650 12 2938 12 3091 0  L 3091 166  C 2682 166 2656 192 2656 443  L 2656 1678  C 2656 2269 3014 2713 3462 2713  C 3936 2713 3987 2289 3987 1980  L 3987 443  C 3987 198 3962 166 3552 166  L 3552 0  C 3706 12 3987 12 4154 12  C 4320 12 4608 12 4762 0  L 4762 166  C 4352 166 4326 192 4326 443  L 4326 1954  z "
       transform="scale(0.015625)" /><clipPath
       id="pd035d358b7"><rect
         x="39.442827"
         y="8.64"
         width="121.995913"
         height="111.243679"
         id="rect48-5" /></clipPath><style
       type="text/css"
       id="style1-8">*{stroke-linejoin: round; stroke-linecap: butt}</style><path
       id="ma3aac74172-3"
       d="M 0 0  L 0 -3.5  "
       style="stroke: #000000; stroke-width: 0.5" /><path
       id="CMR17-30-3"
       d="M 2688 2038  C 2688 2430 2682 3099 2413 3613  C 2176 4063 1798 4224 1466 4224  C 1158 4224 768 4082 525 3620  C 269 3137 243 2539 243 2038  C 243 1671 250 1112 448 623  C 723 -39 1216 -128 1466 -128  C 1760 -128 2208 -7 2470 604  C 2662 1048 2688 1568 2688 2038  z M 1466 -26  C 1056 -26 813 328 723 816  C 653 1196 653 1749 653 2109  C 653 2604 653 3015 736 3407  C 858 3954 1216 4121 1466 4121  C 1728 4121 2067 3947 2189 3420  C 2272 3054 2278 2623 2278 2109  C 2278 1691 2278 1176 2202 797  C 2067 96 1690 -26 1466 -26  z "
       transform="scale(0.015625)" /><path
       id="CMMI12-3a-5"
       d="M 1178 307  C 1178 492 1024 620 870 620  C 685 620 557 467 557 313  C 557 128 710 0 864 0  C 1050 0 1178 153 1178 307  z "
       transform="scale(0.015625)" /><path
       id="CMR17-35-6"
       d="M 730 3750  C 794 3724 1056 3641 1325 3641  C 1920 3641 2246 3961 2432 4140  C 2432 4191 2432 4224 2394 4224  C 2387 4224 2374 4224 2323 4198  C 2099 4102 1837 4032 1517 4032  C 1325 4032 1037 4055 723 4191  C 653 4224 640 4224 634 4224  C 602 4224 595 4217 595 4090  L 595 2231  C 595 2113 595 2080 659 2080  C 691 2080 704 2093 736 2139  C 941 2435 1222 2560 1542 2560  C 1766 2560 2246 2415 2246 1293  C 2246 1087 2246 716 2054 422  C 1894 159 1645 25 1370 25  C 947 25 518 319 403 812  C 429 806 480 793 506 793  C 589 793 749 838 749 1036  C 749 1209 627 1280 506 1280  C 358 1280 262 1190 262 1011  C 262 454 704 -128 1382 -128  C 2042 -128 2669 441 2669 1267  C 2669 2054 2170 2662 1549 2662  C 1222 2662 947 2540 730 2304  L 730 3750  z "
       transform="scale(0.015625)" /><path
       id="CMR17-31-9"
       d="M 1702 4083  C 1702 4217 1696 4224 1606 4224  C 1357 3927 979 3833 621 3820  C 602 3820 570 3820 563 3808  C 557 3795 557 3782 557 3648  C 755 3648 1088 3686 1344 3839  L 1344 467  C 1344 243 1331 166 781 166  L 589 166  L 589 0  C 896 6 1216 12 1523 12  C 1830 12 2150 6 2458 0  L 2458 166  L 2266 166  C 1715 166 1702 236 1702 467  L 1702 4083  z "
       transform="scale(0.015625)" /><path
       id="CMMI12-22-7"
       d="M 890 1427  C 1094 1344 1312 1344 1434 1344  C 1600 1344 1933 1344 1933 1554  C 1933 1683 1811 1728 1485 1728  C 1325 1728 1133 1708 909 1612  C 710 1708 634 1853 634 1991  C 634 2379 1261 2604 1830 2604  C 1939 2604 2170 2604 2438 2410  C 2477 2385 2496 2366 2541 2366  C 2618 2366 2701 2448 2701 2523  C 2701 2636 2330 2880 1888 2880  C 1171 2880 493 2454 493 1991  C 493 1759 646 1612 755 1508  C 384 1288 166 953 166 649  C 166 221 563 -128 1178 -128  C 2022 -128 2362 426 2362 513  C 2362 544 2336 568 2304 568  C 2272 568 2259 550 2234 513  C 2163 395 1997 147 1235 147  C 838 147 314 246 314 686  C 314 897 474 1213 890 1427  z M 1088 1517  C 1261 1599 1427 1599 1472 1599  C 1651 1599 1683 1581 1786 1545  C 1677 1472 1664 1472 1434 1472  C 1318 1472 1216 1472 1088 1517  z "
       transform="scale(0.015625)" /><path
       id="CMMI12-73-2"
       d="M 1459 1290  C 1568 1271 1741 1233 1779 1227  C 1862 1201 2150 1099 2150 793  C 2150 595 1971 64 1229 64  C 1094 64 614 83 486 447  C 742 414 870 614 870 755  C 870 889 781 960 653 960  C 512 960 326 851 326 563  C 326 176 710 -64 1222 -64  C 2195 -64 2483 665 2483 998  C 2483 1093 2483 1271 2278 1475  C 2118 1627 1965 1659 1619 1729  C 1446 1767 1171 1824 1171 2111  C 1171 2239 1286 2687 1894 2687  C 2163 2687 2426 2589 2490 2368  C 2208 2368 2195 2124 2195 2118  C 2195 1983 2317 1945 2374 1945  C 2464 1945 2643 2015 2643 2284  C 2643 2546 2400 2816 1901 2816  C 1062 2816 838 2169 838 1907  C 838 1424 1312 1322 1459 1290  z "
       transform="scale(0.015625)" /><path
       id="CMR17-5b-9"
       d="M 1504 -1600  L 1504 -1376  L 902 -1376  L 902 4575  L 1504 4575  L 1504 4800  L 678 4800  L 678 -1600  L 1504 -1600  z "
       transform="scale(0.015625)" /><path
       id="CMR17-2d-86"
       d="M 1632 1254  L 1632 1536  L 26 1536  L 26 1254  L 1632 1254  z "
       transform="scale(0.015625)" /><path
       id="CMR17-5d-5"
       d="M 915 4800  L 90 4800  L 90 4575  L 691 4575  L 691 -1376  L 90 -1376  L 90 -1600  L 915 -1600  L 915 4800  z "
       transform="scale(0.015625)" /><path
       id="mc096606694-8"
       d="M 0 0  L 3.5 0  "
       style="stroke: #000000; stroke-width: 0.5" /><path
       id="CMR17-32-7"
       d="M 2669 990  L 2554 990  C 2490 537 2438 460 2413 422  C 2381 371 1920 371 1830 371  L 602 371  C 832 620 1280 1073 1824 1596  C 2214 1966 2669 2400 2669 3033  C 2669 3788 2067 4224 1395 4224  C 691 4224 262 3603 262 3027  C 262 2777 448 2745 525 2745  C 589 2745 781 2783 781 3007  C 781 3206 614 3264 525 3264  C 486 3264 448 3257 422 3244  C 544 3788 915 4057 1306 4057  C 1862 4057 2227 3616 2227 3033  C 2227 2477 1901 1998 1536 1583  L 262 147  L 262 0  L 2515 0  L 2669 990  z "
       transform="scale(0.015625)" /><path
       id="CMR17-34-6"
       d="M 2150 4147  C 2150 4281 2144 4288 2029 4288  L 128 1254  L 128 1088  L 1779 1088  L 1779 460  C 1779 230 1766 166 1318 166  L 1197 166  L 1197 0  C 1402 12 1747 12 1965 12  C 2182 12 2528 12 2733 0  L 2733 166  L 2611 166  C 2163 166 2150 230 2150 460  L 2150 1088  L 2803 1088  L 2803 1254  L 2150 1254  L 2150 4147  z M 1798 3723  L 1798 1254  L 256 1254  L 1798 3723  z "
       transform="scale(0.015625)" /><path
       id="CMR17-36-1"
       d="M 678 2198  C 678 3712 1395 4076 1811 4076  C 1946 4076 2272 4049 2400 3782  C 2298 3782 2106 3782 2106 3558  C 2106 3385 2246 3328 2336 3328  C 2394 3328 2566 3353 2566 3571  C 2566 3987 2246 4224 1805 4224  C 1043 4224 243 3411 243 2011  C 243 257 966 -128 1478 -128  C 2099 -128 2688 431 2688 1295  C 2688 2101 2170 2688 1517 2688  C 1126 2688 838 2430 678 1979  L 678 2198  z M 1478 25  C 691 25 691 1212 691 1450  C 691 1914 909 2585 1504 2585  C 1613 2585 1926 2585 2138 2140  C 2253 1889 2253 1624 2253 1302  C 2253 954 2253 696 2118 438  C 1978 173 1773 25 1478 25  z "
       transform="scale(0.015625)" /><path
       id="CMMI12-1b-4"
       d="M 3251 2406  C 3334 2406 3546 2406 3546 2611  C 3546 2752 3424 2752 3309 2752  L 1894 2752  C 934 2752 243 1685 243 932  C 243 389 595 -64 1171 -64  C 1926 -64 2752 746 2752 1704  C 2752 1953 2694 2195 2541 2406  L 3251 2406  z M 1178 64  C 851 64 614 312 614 753  C 614 1136 845 2406 1786 2406  C 2061 2406 2368 2272 2368 1780  C 2368 1557 2266 1021 2042 651  C 1811 274 1466 64 1178 64  z "
       transform="scale(0.015625)" /><path
       id="CMR17-4e-2"
       d="M 1312 4275  C 1267 4345 1261 4352 1139 4352  L 326 4352  L 326 4185  L 448 4185  C 704 4185 819 4153 838 4147  L 838 624  C 838 465 838 166 326 166  L 326 0  C 474 12 742 12 902 12  C 1062 12 1331 12 1478 0  L 1478 166  C 966 166 966 465 966 624  L 966 4057  C 1011 4019 1011 4007 1056 3943  L 3430 76  C 3475 0 3494 0 3526 0  C 3590 0 3590 19 3590 140  L 3590 3726  C 3590 3885 3590 4185 4102 4185  L 4102 4352  C 3955 4339 3686 4339 3526 4339  C 3366 4339 3098 4339 2950 4352  L 2950 4185  C 3462 4185 3462 3885 3462 3726  L 3462 777  L 1312 4275  z "
       transform="scale(0.015625)" /><path
       id="CMR17-2f-93"
       d="M 2605 4575  C 2637 4658 2637 4671 2637 4684  C 2637 4761 2579 4800 2528 4800  C 2451 4800 2426 4748 2400 4671  L 326 -1376  C 294 -1460 294 -1472 294 -1485  C 294 -1562 352 -1600 403 -1600  C 480 -1600 506 -1549 531 -1472  L 2605 4575  z "
       transform="scale(0.015625)" /><path
       id="CMR17-6d-5"
       d="M 4326 1954  C 4326 2276 4269 2816 3507 2816  C 3072 2816 2771 2520 2656 2173  L 2650 2173  C 2573 2700 2195 2816 1837 2816  C 1331 2816 1069 2424 973 2166  L 966 2166  L 966 2816  L 211 2745  L 211 2578  C 589 2578 646 2540 646 2231  L 646 443  C 646 198 621 166 211 166  L 211 0  C 365 12 646 12 813 12  C 979 12 1267 12 1421 0  L 1421 166  C 1011 166 986 192 986 443  L 986 1678  C 986 2269 1344 2713 1792 2713  C 2266 2713 2317 2289 2317 1980  L 2317 443  C 2317 198 2291 166 1882 166  L 1882 0  C 2035 12 2317 12 2483 12  C 2650 12 2938 12 3091 0  L 3091 166  C 2682 166 2656 192 2656 443  L 2656 1678  C 2656 2269 3014 2713 3462 2713  C 3936 2713 3987 2289 3987 1980  L 3987 443  C 3987 198 3962 166 3552 166  L 3552 0  C 3706 12 3987 12 4154 12  C 4320 12 4608 12 4762 0  L 4762 166  C 4352 166 4326 192 4326 443  L 4326 1954  z "
       transform="scale(0.015625)" /><clipPath
       id="pd035d358b7-3"><rect
         x="39.442827"
         y="8.64"
         width="121.995913"
         height="111.243679"
         id="rect48-3" /></clipPath><rect
       x="27.61426"
       y="11.547781"
       width="114.22262"
       height="122.5069"
       id="rect52-4-0" /><rect
       x="27.61426"
       y="11.547781"
       width="114.22262"
       height="122.5069"
       id="rect52-4-97" /><rect
       x="27.61426"
       y="11.547781"
       width="114.22262"
       height="122.5069"
       id="rect52-4-97-6" /><rect
       x="27.61426"
       y="11.547781"
       width="114.22262"
       height="122.5069"
       id="rect52-4-1" /><rect
       x="27.61426"
       y="11.547781"
       width="114.22262"
       height="122.5069"
       id="rect52-4-1-6" /><style
       type="text/css"
       id="style1-2">*{stroke-linejoin: round; stroke-linecap: butt}</style><path
       id="ma3aac74172-6"
       d="M 0 0  L 0 -3.5  "
       style="stroke: #000000; stroke-width: 0.5" /><path
       id="CMR17-30-40"
       d="M 2688 2038  C 2688 2430 2682 3099 2413 3613  C 2176 4063 1798 4224 1466 4224  C 1158 4224 768 4082 525 3620  C 269 3137 243 2539 243 2038  C 243 1671 250 1112 448 623  C 723 -39 1216 -128 1466 -128  C 1760 -128 2208 -7 2470 604  C 2662 1048 2688 1568 2688 2038  z M 1466 -26  C 1056 -26 813 328 723 816  C 653 1196 653 1749 653 2109  C 653 2604 653 3015 736 3407  C 858 3954 1216 4121 1466 4121  C 1728 4121 2067 3947 2189 3420  C 2272 3054 2278 2623 2278 2109  C 2278 1691 2278 1176 2202 797  C 2067 96 1690 -26 1466 -26  z "
       transform="scale(0.015625)" /><path
       id="CMMI12-3a-59"
       d="M 1178 307  C 1178 492 1024 620 870 620  C 685 620 557 467 557 313  C 557 128 710 0 864 0  C 1050 0 1178 153 1178 307  z "
       transform="scale(0.015625)" /><path
       id="CMR17-35-45"
       d="M 730 3750  C 794 3724 1056 3641 1325 3641  C 1920 3641 2246 3961 2432 4140  C 2432 4191 2432 4224 2394 4224  C 2387 4224 2374 4224 2323 4198  C 2099 4102 1837 4032 1517 4032  C 1325 4032 1037 4055 723 4191  C 653 4224 640 4224 634 4224  C 602 4224 595 4217 595 4090  L 595 2231  C 595 2113 595 2080 659 2080  C 691 2080 704 2093 736 2139  C 941 2435 1222 2560 1542 2560  C 1766 2560 2246 2415 2246 1293  C 2246 1087 2246 716 2054 422  C 1894 159 1645 25 1370 25  C 947 25 518 319 403 812  C 429 806 480 793 506 793  C 589 793 749 838 749 1036  C 749 1209 627 1280 506 1280  C 358 1280 262 1190 262 1011  C 262 454 704 -128 1382 -128  C 2042 -128 2669 441 2669 1267  C 2669 2054 2170 2662 1549 2662  C 1222 2662 947 2540 730 2304  L 730 3750  z "
       transform="scale(0.015625)" /><path
       id="CMR17-31-5"
       d="M 1702 4083  C 1702 4217 1696 4224 1606 4224  C 1357 3927 979 3833 621 3820  C 602 3820 570 3820 563 3808  C 557 3795 557 3782 557 3648  C 755 3648 1088 3686 1344 3839  L 1344 467  C 1344 243 1331 166 781 166  L 589 166  L 589 0  C 896 6 1216 12 1523 12  C 1830 12 2150 6 2458 0  L 2458 166  L 2266 166  C 1715 166 1702 236 1702 467  L 1702 4083  z "
       transform="scale(0.015625)" /><path
       id="CMMI12-22-8"
       d="M 890 1427  C 1094 1344 1312 1344 1434 1344  C 1600 1344 1933 1344 1933 1554  C 1933 1683 1811 1728 1485 1728  C 1325 1728 1133 1708 909 1612  C 710 1708 634 1853 634 1991  C 634 2379 1261 2604 1830 2604  C 1939 2604 2170 2604 2438 2410  C 2477 2385 2496 2366 2541 2366  C 2618 2366 2701 2448 2701 2523  C 2701 2636 2330 2880 1888 2880  C 1171 2880 493 2454 493 1991  C 493 1759 646 1612 755 1508  C 384 1288 166 953 166 649  C 166 221 563 -128 1178 -128  C 2022 -128 2362 426 2362 513  C 2362 544 2336 568 2304 568  C 2272 568 2259 550 2234 513  C 2163 395 1997 147 1235 147  C 838 147 314 246 314 686  C 314 897 474 1213 890 1427  z M 1088 1517  C 1261 1599 1427 1599 1472 1599  C 1651 1599 1683 1581 1786 1545  C 1677 1472 1664 1472 1434 1472  C 1318 1472 1216 1472 1088 1517  z "
       transform="scale(0.015625)" /><path
       id="CMMI12-73-7"
       d="M 1459 1290  C 1568 1271 1741 1233 1779 1227  C 1862 1201 2150 1099 2150 793  C 2150 595 1971 64 1229 64  C 1094 64 614 83 486 447  C 742 414 870 614 870 755  C 870 889 781 960 653 960  C 512 960 326 851 326 563  C 326 176 710 -64 1222 -64  C 2195 -64 2483 665 2483 998  C 2483 1093 2483 1271 2278 1475  C 2118 1627 1965 1659 1619 1729  C 1446 1767 1171 1824 1171 2111  C 1171 2239 1286 2687 1894 2687  C 2163 2687 2426 2589 2490 2368  C 2208 2368 2195 2124 2195 2118  C 2195 1983 2317 1945 2374 1945  C 2464 1945 2643 2015 2643 2284  C 2643 2546 2400 2816 1901 2816  C 1062 2816 838 2169 838 1907  C 838 1424 1312 1322 1459 1290  z "
       transform="scale(0.015625)" /><path
       id="CMR17-5b-5"
       d="M 1504 -1600  L 1504 -1376  L 902 -1376  L 902 4575  L 1504 4575  L 1504 4800  L 678 4800  L 678 -1600  L 1504 -1600  z "
       transform="scale(0.015625)" /><path
       id="CMR17-2d-4"
       d="M 1632 1254  L 1632 1536  L 26 1536  L 26 1254  L 1632 1254  z "
       transform="scale(0.015625)" /><path
       id="CMR17-5d-3"
       d="M 915 4800  L 90 4800  L 90 4575  L 691 4575  L 691 -1376  L 90 -1376  L 90 -1600  L 915 -1600  L 915 4800  z "
       transform="scale(0.015625)" /><path
       id="mc096606694-4"
       d="M 0 0  L 3.5 0  "
       style="stroke: #000000; stroke-width: 0.5" /><path
       id="CMR17-32-6"
       d="M 2669 990  L 2554 990  C 2490 537 2438 460 2413 422  C 2381 371 1920 371 1830 371  L 602 371  C 832 620 1280 1073 1824 1596  C 2214 1966 2669 2400 2669 3033  C 2669 3788 2067 4224 1395 4224  C 691 4224 262 3603 262 3027  C 262 2777 448 2745 525 2745  C 589 2745 781 2783 781 3007  C 781 3206 614 3264 525 3264  C 486 3264 448 3257 422 3244  C 544 3788 915 4057 1306 4057  C 1862 4057 2227 3616 2227 3033  C 2227 2477 1901 1998 1536 1583  L 262 147  L 262 0  L 2515 0  L 2669 990  z "
       transform="scale(0.015625)" /><path
       id="CMR17-34-3"
       d="M 2150 4147  C 2150 4281 2144 4288 2029 4288  L 128 1254  L 128 1088  L 1779 1088  L 1779 460  C 1779 230 1766 166 1318 166  L 1197 166  L 1197 0  C 1402 12 1747 12 1965 12  C 2182 12 2528 12 2733 0  L 2733 166  L 2611 166  C 2163 166 2150 230 2150 460  L 2150 1088  L 2803 1088  L 2803 1254  L 2150 1254  L 2150 4147  z M 1798 3723  L 1798 1254  L 256 1254  L 1798 3723  z "
       transform="scale(0.015625)" /><path
       id="CMR17-36-4"
       d="M 678 2198  C 678 3712 1395 4076 1811 4076  C 1946 4076 2272 4049 2400 3782  C 2298 3782 2106 3782 2106 3558  C 2106 3385 2246 3328 2336 3328  C 2394 3328 2566 3353 2566 3571  C 2566 3987 2246 4224 1805 4224  C 1043 4224 243 3411 243 2011  C 243 257 966 -128 1478 -128  C 2099 -128 2688 431 2688 1295  C 2688 2101 2170 2688 1517 2688  C 1126 2688 838 2430 678 1979  L 678 2198  z M 1478 25  C 691 25 691 1212 691 1450  C 691 1914 909 2585 1504 2585  C 1613 2585 1926 2585 2138 2140  C 2253 1889 2253 1624 2253 1302  C 2253 954 2253 696 2118 438  C 1978 173 1773 25 1478 25  z "
       transform="scale(0.015625)" /><path
       id="CMMI12-1b-5"
       d="M 3251 2406  C 3334 2406 3546 2406 3546 2611  C 3546 2752 3424 2752 3309 2752  L 1894 2752  C 934 2752 243 1685 243 932  C 243 389 595 -64 1171 -64  C 1926 -64 2752 746 2752 1704  C 2752 1953 2694 2195 2541 2406  L 3251 2406  z M 1178 64  C 851 64 614 312 614 753  C 614 1136 845 2406 1786 2406  C 2061 2406 2368 2272 2368 1780  C 2368 1557 2266 1021 2042 651  C 1811 274 1466 64 1178 64  z "
       transform="scale(0.015625)" /><path
       id="CMR17-4e-7"
       d="M 1312 4275  C 1267 4345 1261 4352 1139 4352  L 326 4352  L 326 4185  L 448 4185  C 704 4185 819 4153 838 4147  L 838 624  C 838 465 838 166 326 166  L 326 0  C 474 12 742 12 902 12  C 1062 12 1331 12 1478 0  L 1478 166  C 966 166 966 465 966 624  L 966 4057  C 1011 4019 1011 4007 1056 3943  L 3430 76  C 3475 0 3494 0 3526 0  C 3590 0 3590 19 3590 140  L 3590 3726  C 3590 3885 3590 4185 4102 4185  L 4102 4352  C 3955 4339 3686 4339 3526 4339  C 3366 4339 3098 4339 2950 4352  L 2950 4185  C 3462 4185 3462 3885 3462 3726  L 3462 777  L 1312 4275  z "
       transform="scale(0.015625)" /><path
       id="CMR17-2f-5"
       d="M 2605 4575  C 2637 4658 2637 4671 2637 4684  C 2637 4761 2579 4800 2528 4800  C 2451 4800 2426 4748 2400 4671  L 326 -1376  C 294 -1460 294 -1472 294 -1485  C 294 -1562 352 -1600 403 -1600  C 480 -1600 506 -1549 531 -1472  L 2605 4575  z "
       transform="scale(0.015625)" /><path
       id="CMR17-6d-0"
       d="M 4326 1954  C 4326 2276 4269 2816 3507 2816  C 3072 2816 2771 2520 2656 2173  L 2650 2173  C 2573 2700 2195 2816 1837 2816  C 1331 2816 1069 2424 973 2166  L 966 2166  L 966 2816  L 211 2745  L 211 2578  C 589 2578 646 2540 646 2231  L 646 443  C 646 198 621 166 211 166  L 211 0  C 365 12 646 12 813 12  C 979 12 1267 12 1421 0  L 1421 166  C 1011 166 986 192 986 443  L 986 1678  C 986 2269 1344 2713 1792 2713  C 2266 2713 2317 2289 2317 1980  L 2317 443  C 2317 198 2291 166 1882 166  L 1882 0  C 2035 12 2317 12 2483 12  C 2650 12 2938 12 3091 0  L 3091 166  C 2682 166 2656 192 2656 443  L 2656 1678  C 2656 2269 3014 2713 3462 2713  C 3936 2713 3987 2289 3987 1980  L 3987 443  C 3987 198 3962 166 3552 166  L 3552 0  C 3706 12 3987 12 4154 12  C 4320 12 4608 12 4762 0  L 4762 166  C 4352 166 4326 192 4326 443  L 4326 1954  z "
       transform="scale(0.015625)" /><clipPath
       id="pd035d358b7-7"><rect
         x="39.442827"
         y="8.64"
         width="121.995913"
         height="111.243679"
         id="rect48-0" /></clipPath><rect
       x="27.61426"
       y="11.547781"
       width="114.22262"
       height="122.5069"
       id="rect52-4-0-7" /><style
       type="text/css"
       id="style1-0">*{stroke-linejoin: round; stroke-linecap: butt}</style><path
       id="m0386a6be28"
       d="M 0 0  L 0 -3.5  "
       style="stroke: #000000; stroke-width: 0.5" /><path
       id="CMR17-30-46"
       d="M 2688 2038  C 2688 2430 2682 3099 2413 3613  C 2176 4063 1798 4224 1466 4224  C 1158 4224 768 4082 525 3620  C 269 3137 243 2539 243 2038  C 243 1671 250 1112 448 623  C 723 -39 1216 -128 1466 -128  C 1760 -128 2208 -7 2470 604  C 2662 1048 2688 1568 2688 2038  z M 1466 -26  C 1056 -26 813 328 723 816  C 653 1196 653 1749 653 2109  C 653 2604 653 3015 736 3407  C 858 3954 1216 4121 1466 4121  C 1728 4121 2067 3947 2189 3420  C 2272 3054 2278 2623 2278 2109  C 2278 1691 2278 1176 2202 797  C 2067 96 1690 -26 1466 -26  z "
       transform="scale(0.015625)" /><path
       id="CMMI12-3a-4"
       d="M 1178 307  C 1178 492 1024 620 870 620  C 685 620 557 467 557 313  C 557 128 710 0 864 0  C 1050 0 1178 153 1178 307  z "
       transform="scale(0.015625)" /><path
       id="CMR17-35-40"
       d="M 730 3750  C 794 3724 1056 3641 1325 3641  C 1920 3641 2246 3961 2432 4140  C 2432 4191 2432 4224 2394 4224  C 2387 4224 2374 4224 2323 4198  C 2099 4102 1837 4032 1517 4032  C 1325 4032 1037 4055 723 4191  C 653 4224 640 4224 634 4224  C 602 4224 595 4217 595 4090  L 595 2231  C 595 2113 595 2080 659 2080  C 691 2080 704 2093 736 2139  C 941 2435 1222 2560 1542 2560  C 1766 2560 2246 2415 2246 1293  C 2246 1087 2246 716 2054 422  C 1894 159 1645 25 1370 25  C 947 25 518 319 403 812  C 429 806 480 793 506 793  C 589 793 749 838 749 1036  C 749 1209 627 1280 506 1280  C 358 1280 262 1190 262 1011  C 262 454 704 -128 1382 -128  C 2042 -128 2669 441 2669 1267  C 2669 2054 2170 2662 1549 2662  C 1222 2662 947 2540 730 2304  L 730 3750  z "
       transform="scale(0.015625)" /><path
       id="CMR17-31-1"
       d="M 1702 4083  C 1702 4217 1696 4224 1606 4224  C 1357 3927 979 3833 621 3820  C 602 3820 570 3820 563 3808  C 557 3795 557 3782 557 3648  C 755 3648 1088 3686 1344 3839  L 1344 467  C 1344 243 1331 166 781 166  L 589 166  L 589 0  C 896 6 1216 12 1523 12  C 1830 12 2150 6 2458 0  L 2458 166  L 2266 166  C 1715 166 1702 236 1702 467  L 1702 4083  z "
       transform="scale(0.015625)" /><path
       id="CMMI12-22-0"
       d="M 890 1427  C 1094 1344 1312 1344 1434 1344  C 1600 1344 1933 1344 1933 1554  C 1933 1683 1811 1728 1485 1728  C 1325 1728 1133 1708 909 1612  C 710 1708 634 1853 634 1991  C 634 2379 1261 2604 1830 2604  C 1939 2604 2170 2604 2438 2410  C 2477 2385 2496 2366 2541 2366  C 2618 2366 2701 2448 2701 2523  C 2701 2636 2330 2880 1888 2880  C 1171 2880 493 2454 493 1991  C 493 1759 646 1612 755 1508  C 384 1288 166 953 166 649  C 166 221 563 -128 1178 -128  C 2022 -128 2362 426 2362 513  C 2362 544 2336 568 2304 568  C 2272 568 2259 550 2234 513  C 2163 395 1997 147 1235 147  C 838 147 314 246 314 686  C 314 897 474 1213 890 1427  z M 1088 1517  C 1261 1599 1427 1599 1472 1599  C 1651 1599 1683 1581 1786 1545  C 1677 1472 1664 1472 1434 1472  C 1318 1472 1216 1472 1088 1517  z "
       transform="scale(0.015625)" /><path
       id="CMMI12-73-31"
       d="M 1459 1290  C 1568 1271 1741 1233 1779 1227  C 1862 1201 2150 1099 2150 793  C 2150 595 1971 64 1229 64  C 1094 64 614 83 486 447  C 742 414 870 614 870 755  C 870 889 781 960 653 960  C 512 960 326 851 326 563  C 326 176 710 -64 1222 -64  C 2195 -64 2483 665 2483 998  C 2483 1093 2483 1271 2278 1475  C 2118 1627 1965 1659 1619 1729  C 1446 1767 1171 1824 1171 2111  C 1171 2239 1286 2687 1894 2687  C 2163 2687 2426 2589 2490 2368  C 2208 2368 2195 2124 2195 2118  C 2195 1983 2317 1945 2374 1945  C 2464 1945 2643 2015 2643 2284  C 2643 2546 2400 2816 1901 2816  C 1062 2816 838 2169 838 1907  C 838 1424 1312 1322 1459 1290  z "
       transform="scale(0.015625)" /><path
       id="CMR17-5b-2"
       d="M 1504 -1600  L 1504 -1376  L 902 -1376  L 902 4575  L 1504 4575  L 1504 4800  L 678 4800  L 678 -1600  L 1504 -1600  z "
       transform="scale(0.015625)" /><path
       id="CMR17-2d-93"
       d="M 1632 1254  L 1632 1536  L 26 1536  L 26 1254  L 1632 1254  z "
       transform="scale(0.015625)" /><path
       id="CMR17-5d-05"
       d="M 915 4800  L 90 4800  L 90 4575  L 691 4575  L 691 -1376  L 90 -1376  L 90 -1600  L 915 -1600  L 915 4800  z "
       transform="scale(0.015625)" /><path
       id="m2758bda0a2"
       d="M 0 0  L 3.5 0  "
       style="stroke: #000000; stroke-width: 0.5" /><path
       id="CMR17-32-74"
       d="M 2669 990  L 2554 990  C 2490 537 2438 460 2413 422  C 2381 371 1920 371 1830 371  L 602 371  C 832 620 1280 1073 1824 1596  C 2214 1966 2669 2400 2669 3033  C 2669 3788 2067 4224 1395 4224  C 691 4224 262 3603 262 3027  C 262 2777 448 2745 525 2745  C 589 2745 781 2783 781 3007  C 781 3206 614 3264 525 3264  C 486 3264 448 3257 422 3244  C 544 3788 915 4057 1306 4057  C 1862 4057 2227 3616 2227 3033  C 2227 2477 1901 1998 1536 1583  L 262 147  L 262 0  L 2515 0  L 2669 990  z "
       transform="scale(0.015625)" /><path
       id="CMR17-34-62"
       d="M 2150 4147  C 2150 4281 2144 4288 2029 4288  L 128 1254  L 128 1088  L 1779 1088  L 1779 460  C 1779 230 1766 166 1318 166  L 1197 166  L 1197 0  C 1402 12 1747 12 1965 12  C 2182 12 2528 12 2733 0  L 2733 166  L 2611 166  C 2163 166 2150 230 2150 460  L 2150 1088  L 2803 1088  L 2803 1254  L 2150 1254  L 2150 4147  z M 1798 3723  L 1798 1254  L 256 1254  L 1798 3723  z "
       transform="scale(0.015625)" /><path
       id="CMR17-36-18"
       d="M 678 2198  C 678 3712 1395 4076 1811 4076  C 1946 4076 2272 4049 2400 3782  C 2298 3782 2106 3782 2106 3558  C 2106 3385 2246 3328 2336 3328  C 2394 3328 2566 3353 2566 3571  C 2566 3987 2246 4224 1805 4224  C 1043 4224 243 3411 243 2011  C 243 257 966 -128 1478 -128  C 2099 -128 2688 431 2688 1295  C 2688 2101 2170 2688 1517 2688  C 1126 2688 838 2430 678 1979  L 678 2198  z M 1478 25  C 691 25 691 1212 691 1450  C 691 1914 909 2585 1504 2585  C 1613 2585 1926 2585 2138 2140  C 2253 1889 2253 1624 2253 1302  C 2253 954 2253 696 2118 438  C 1978 173 1773 25 1478 25  z "
       transform="scale(0.015625)" /><path
       id="CMMI12-1b-7"
       d="M 3251 2406  C 3334 2406 3546 2406 3546 2611  C 3546 2752 3424 2752 3309 2752  L 1894 2752  C 934 2752 243 1685 243 932  C 243 389 595 -64 1171 -64  C 1926 -64 2752 746 2752 1704  C 2752 1953 2694 2195 2541 2406  L 3251 2406  z M 1178 64  C 851 64 614 312 614 753  C 614 1136 845 2406 1786 2406  C 2061 2406 2368 2272 2368 1780  C 2368 1557 2266 1021 2042 651  C 1811 274 1466 64 1178 64  z "
       transform="scale(0.015625)" /><path
       id="CMR17-4e-97"
       d="M 1312 4275  C 1267 4345 1261 4352 1139 4352  L 326 4352  L 326 4185  L 448 4185  C 704 4185 819 4153 838 4147  L 838 624  C 838 465 838 166 326 166  L 326 0  C 474 12 742 12 902 12  C 1062 12 1331 12 1478 0  L 1478 166  C 966 166 966 465 966 624  L 966 4057  C 1011 4019 1011 4007 1056 3943  L 3430 76  C 3475 0 3494 0 3526 0  C 3590 0 3590 19 3590 140  L 3590 3726  C 3590 3885 3590 4185 4102 4185  L 4102 4352  C 3955 4339 3686 4339 3526 4339  C 3366 4339 3098 4339 2950 4352  L 2950 4185  C 3462 4185 3462 3885 3462 3726  L 3462 777  L 1312 4275  z "
       transform="scale(0.015625)" /><path
       id="CMR17-2f-72"
       d="M 2605 4575  C 2637 4658 2637 4671 2637 4684  C 2637 4761 2579 4800 2528 4800  C 2451 4800 2426 4748 2400 4671  L 326 -1376  C 294 -1460 294 -1472 294 -1485  C 294 -1562 352 -1600 403 -1600  C 480 -1600 506 -1549 531 -1472  L 2605 4575  z "
       transform="scale(0.015625)" /><path
       id="CMR17-6d-02"
       d="M 4326 1954  C 4326 2276 4269 2816 3507 2816  C 3072 2816 2771 2520 2656 2173  L 2650 2173  C 2573 2700 2195 2816 1837 2816  C 1331 2816 1069 2424 973 2166  L 966 2166  L 966 2816  L 211 2745  L 211 2578  C 589 2578 646 2540 646 2231  L 646 443  C 646 198 621 166 211 166  L 211 0  C 365 12 646 12 813 12  C 979 12 1267 12 1421 0  L 1421 166  C 1011 166 986 192 986 443  L 986 1678  C 986 2269 1344 2713 1792 2713  C 2266 2713 2317 2289 2317 1980  L 2317 443  C 2317 198 2291 166 1882 166  L 1882 0  C 2035 12 2317 12 2483 12  C 2650 12 2938 12 3091 0  L 3091 166  C 2682 166 2656 192 2656 443  L 2656 1678  C 2656 2269 3014 2713 3462 2713  C 3936 2713 3987 2289 3987 1980  L 3987 443  C 3987 198 3962 166 3552 166  L 3552 0  C 3706 12 3987 12 4154 12  C 4320 12 4608 12 4762 0  L 4762 166  C 4352 166 4326 192 4326 443  L 4326 1954  z "
       transform="scale(0.015625)" /><clipPath
       id="p1b38e929f9"><rect
         x="34.015748"
         y="15.307087"
         width="119.055118"
         height="107.149606"
         id="rect48-69" /></clipPath></defs><defs
     id="defs48"><clipPath
       id="pd5e15e0b0d"><rect
         x="39.442827"
         y="8.64"
         width="121.995913"
         height="111.243679"
         id="rect48" /></clipPath></defs><g
     id="figure_1"
     sodipodi:insensitive="true"><g
       id="patch_1"><path
         d="M 0,153.07087 H 170.07874 V 0 H 0 Z"
         style="fill:#ffffff"
         id="path1" /></g><g
       id="axes_1"><g
         id="patch_2"><path
           d="M 34.015748,122.45669 H 153.07087 V 15.307087 H 34.015748 Z"
           style="fill:#ffffff"
           id="path2" /></g><g
         id="matplotlib.axis_1"><g
           id="xtick_1"><g
             id="line2d_1"><path
               d="M 35.107997,122.45669 V 15.307087"
               clip-path="url(#p1b38e929f9)"
               style="fill:none;stroke:#808080;stroke-width:0.2;stroke-dasharray:0.74, 0.32;stroke-dashoffset:0;stroke-opacity:0.7"
               id="path3" /></g><g
             id="line2d_2"><defs
               id="defs3"><path
                 id="path4"
                 d="M 0,0 V -3.5"
                 style="stroke:#000000;stroke-width:0.5" /></defs><g
               id="g3"><use
                 xlink:href="#m0386a6be28"
                 x="35.107998"
                 y="122.4567"
                 style="stroke:#000000;stroke-width:0.5"
                 id="use3" /></g></g><g
             id="text_1"><!-- $\mathdefault{0.00}$ --><g
               transform="matrix(0.08,0,0,-0.08,27.580561,131.49149)"
               id="g7"><defs
                 id="defs4"><path
                   id="path5"
                   d="m 2688,2038 c 0,392 -6,1061 -275,1575 -237,450 -615,611 -947,611 -308,0 -698,-142 -941,-604 C 269,3137 243,2539 243,2038 c 0,-367 7,-926 205,-1415 275,-662 768,-751 1018,-751 294,0 742,121 1004,732 192,444 218,964 218,1434 z M 1466,-26 c -410,0 -653,354 -743,842 -70,380 -70,933 -70,1293 0,495 0,906 83,1298 122,547 480,714 730,714 262,0 601,-174 723,-701 83,-366 89,-797 89,-1311 0,-418 0,-933 -76,-1312 C 2067,96 1690,-26 1466,-26 Z"
                   transform="scale(0.015625)" /><path
                   id="path6"
                   d="M 1178,307 C 1178,492 1024,620 870,620 685,620 557,467 557,313 557,128 710,0 864,0 c 186,0 314,153 314,307 z"
                   transform="scale(0.015625)" /></defs><use
                 xlink:href="#CMR17-30-46"
                 transform="scale(0.996264)"
                 id="use4" /><use
                 xlink:href="#CMMI12-3a-4"
                 transform="matrix(0.996264,0,0,0.996264,45.690477,0)"
                 id="use5" /><use
                 xlink:href="#CMR17-30-46"
                 transform="matrix(0.996264,0,0,0.996264,72.787654,0)"
                 id="use6" /><use
                 xlink:href="#CMR17-30-46"
                 transform="matrix(0.996264,0,0,0.996264,118.47813,0)"
                 id="use7" /></g></g></g><g
           id="xtick_2"><g
             id="line2d_3"><path
               d="M 78.797948,122.45669 V 15.307087"
               clip-path="url(#p1b38e929f9)"
               style="fill:none;stroke:#808080;stroke-width:0.2;stroke-dasharray:0.74, 0.32;stroke-dashoffset:0;stroke-opacity:0.7"
               id="path7" /></g><g
             id="line2d_4"><g
               id="g8"><use
                 xlink:href="#m0386a6be28"
                 x="78.797951"
                 y="122.4567"
                 style="stroke:#000000;stroke-width:0.5"
                 id="use8" /></g></g><g
             id="text_2"><!-- $\mathdefault{0.05}$ --><g
               transform="matrix(0.08,0,0,-0.08,71.270512,131.49149)"
               id="g12"><defs
                 id="defs8"><path
                   id="path12"
                   d="m 730,3750 c 64,-26 326,-109 595,-109 595,0 921,320 1107,499 0,51 0,84 -38,84 -7,0 -20,0 -71,-26 -224,-96 -486,-166 -806,-166 -192,0 -480,23 -794,159 -70,33 -83,33 -89,33 -32,0 -39,-7 -39,-134 V 2231 c 0,-118 0,-151 64,-151 32,0 45,13 77,59 205,296 486,421 806,421 224,0 704,-145 704,-1267 0,-206 0,-577 -192,-871 C 1894,159 1645,25 1370,25 947,25 518,319 403,812 c 26,-6 77,-19 103,-19 83,0 243,45 243,243 0,173 -122,244 -243,244 -148,0 -244,-90 -244,-269 0,-557 442,-1139 1120,-1139 660,0 1287,569 1287,1395 0,787 -499,1395 -1120,1395 -327,0 -602,-122 -819,-358 z"
                   transform="scale(0.015625)" /></defs><use
                 xlink:href="#CMR17-30-46"
                 transform="scale(0.996264)"
                 id="use9" /><use
                 xlink:href="#CMMI12-3a-4"
                 transform="matrix(0.996264,0,0,0.996264,45.690477,0)"
                 id="use10" /><use
                 xlink:href="#CMR17-30-46"
                 transform="matrix(0.996264,0,0,0.996264,72.787654,0)"
                 id="use11" /><use
                 xlink:href="#CMR17-35-40"
                 transform="matrix(0.996264,0,0,0.996264,118.47813,0)"
                 id="use12" /></g></g></g><g
           id="xtick_3"><g
             id="line2d_5"><path
               d="M 122.4879,122.45669 V 15.307087"
               clip-path="url(#p1b38e929f9)"
               style="fill:none;stroke:#808080;stroke-width:0.2;stroke-dasharray:0.74, 0.32;stroke-dashoffset:0;stroke-opacity:0.7"
               id="path16" /></g><g
             id="line2d_6"><g
               id="g13"><use
                 xlink:href="#m0386a6be28"
                 x="122.4879"
                 y="122.4567"
                 style="stroke:#000000;stroke-width:0.5"
                 id="use13" /></g></g><g
             id="text_3"><!-- $\mathdefault{0.10}$ --><g
               transform="matrix(0.08,0,0,-0.08,114.96046,131.49149)"
               id="g17"><defs
                 id="defs13"><path
                   id="path17"
                   d="m 1702,4083 c 0,134 -6,141 -96,141 -249,-297 -627,-391 -985,-404 -19,0 -51,0 -58,-12 -6,-13 -6,-26 -6,-160 198,0 531,38 787,191 V 467 C 1344,243 1331,166 781,166 H 589 V 0 c 307,6 627,12 934,12 307,0 627,-6 935,-12 v 166 h -192 c -551,0 -564,70 -564,301 z"
                   transform="scale(0.015625)" /></defs><use
                 xlink:href="#CMR17-30-46"
                 transform="scale(0.996264)"
                 id="use14" /><use
                 xlink:href="#CMMI12-3a-4"
                 transform="matrix(0.996264,0,0,0.996264,45.690477,0)"
                 id="use15" /><use
                 xlink:href="#CMR17-31-1"
                 transform="matrix(0.996264,0,0,0.996264,72.787654,0)"
                 id="use16" /><use
                 xlink:href="#CMR17-30-46"
                 transform="matrix(0.996264,0,0,0.996264,118.47813,0)"
                 id="use17" /></g></g></g><g
           id="text_4"><!-- $\varepsilon_s$ [-] --><g
             transform="matrix(0.1,0,0,-0.1,83.002969,144.51322)"
             id="g22"><defs
               id="defs17"><path
                 id="path18"
                 d="m 890,1427 c 204,-83 422,-83 544,-83 166,0 499,0 499,210 0,129 -122,174 -448,174 -160,0 -352,-20 -576,-116 -199,96 -275,241 -275,379 0,388 627,613 1196,613 109,0 340,0 608,-194 39,-25 58,-44 103,-44 77,0 160,82 160,157 0,113 -371,357 -813,357 -717,0 -1395,-426 -1395,-889 0,-232 153,-379 262,-483 C 384,1288 166,953 166,649 c 0,-428 397,-777 1012,-777 844,0 1184,554 1184,641 0,31 -26,55 -58,55 -32,0 -45,-18 -70,-55 -71,-118 -237,-366 -999,-366 -397,0 -921,99 -921,539 0,211 160,527 576,741 z m 198,90 c 173,82 339,82 384,82 179,0 211,-18 314,-54 -109,-73 -122,-73 -352,-73 -116,0 -218,0 -346,45 z"
                 transform="scale(0.015625)" /><path
                 id="path19"
                 d="m 1459,1290 c 109,-19 282,-57 320,-63 83,-26 371,-128 371,-434 C 2150,595 1971,64 1229,64 1094,64 614,83 486,447 742,414 870,614 870,755 870,889 781,960 653,960 512,960 326,851 326,563 c 0,-387 384,-627 896,-627 973,0 1261,729 1261,1062 0,95 0,273 -205,477 -160,152 -313,184 -659,254 -173,38 -448,95 -448,382 0,128 115,576 723,576 269,0 532,-98 596,-319 -282,0 -295,-244 -295,-250 0,-135 122,-173 179,-173 90,0 269,70 269,339 0,262 -243,532 -742,532 -839,0 -1063,-647 -1063,-909 0,-483 474,-585 621,-617 z"
                 transform="scale(0.015625)" /><path
                 id="path20"
                 d="m 1504,-1600 v 224 H 902 v 5951 h 602 v 225 H 678 v -6400 z"
                 transform="scale(0.015625)" /><path
                 id="path21"
                 d="m 1632,1254 v 282 H 26 v -282 z"
                 transform="scale(0.015625)" /><path
                 id="path22"
                 d="M 915,4800 H 90 V 4575 H 691 V -1376 H 90 v -224 h 825 z"
                 transform="scale(0.015625)" /></defs><use
               xlink:href="#CMMI12-22-0"
               transform="scale(0.996264)"
               id="use18" /><use
               xlink:href="#CMMI12-73-31"
               transform="matrix(0.697382,0,0,0.697382,45.650192,-14.943915)"
               id="use19" /><use
               xlink:href="#CMR17-5b-2"
               transform="matrix(0.996264,0,0,0.996264,108.38918,0)"
               id="use20" /><use
               xlink:href="#CMR17-2d-93"
               transform="matrix(0.996264,0,0,0.996264,133.26024,0)"
               id="use21" /><use
               xlink:href="#CMR17-5d-05"
               transform="matrix(0.996264,0,0,0.996264,163.3362,0)"
               id="use22" /></g></g></g><g
         id="matplotlib.axis_2"><g
           id="ytick_1"><g
             id="line2d_7"><path
               d="M 34.015748,118.33555 H 153.07087"
               clip-path="url(#p1b38e929f9)"
               style="fill:none;stroke:#808080;stroke-width:0.2;stroke-dasharray:0.74, 0.32;stroke-dashoffset:0;stroke-opacity:0.7"
               id="path23" /></g><g
             id="line2d_8"><defs
               id="defs22"><path
                 id="path24"
                 d="M 0,0 H 3.5"
                 style="stroke:#000000;stroke-width:0.5" /></defs><g
               id="g23"><use
                 xlink:href="#m2758bda0a2"
                 x="34.015747"
                 y="118.33556"
                 style="stroke:#000000;stroke-width:0.5"
                 id="use23" /></g></g><g
             id="text_5"><!-- $\mathdefault{0}$ --><g
               transform="matrix(0.08,0,0,-0.08,26.281565,121.10295)"
               id="g24"><use
                 xlink:href="#CMR17-30-46"
                 transform="scale(0.996264)"
                 id="use24" /></g></g></g><g
           id="ytick_2"><g
             id="line2d_9"><path
               d="M 34.015748,90.861296 H 153.07087"
               clip-path="url(#p1b38e929f9)"
               style="fill:none;stroke:#808080;stroke-width:0.2;stroke-dasharray:0.74, 0.32;stroke-dashoffset:0;stroke-opacity:0.7"
               id="path25" /></g><g
             id="line2d_10"><g
               id="g25"><use
                 xlink:href="#m2758bda0a2"
                 x="34.015747"
                 y="90.861298"
                 style="stroke:#000000;stroke-width:0.5"
                 id="use25" /></g></g><g
             id="text_6"><!-- $\mathdefault{200}$ --><g
               transform="matrix(0.08,0,0,-0.08,17.813199,93.628697)"
               id="g28"><defs
                 id="defs25"><path
                   id="path26"
                   d="M 2669,990 H 2554 C 2490,537 2438,460 2413,422 2381,371 1920,371 1830,371 H 602 c 230,249 678,702 1222,1225 390,370 845,804 845,1437 0,755 -602,1191 -1274,1191 -704,0 -1133,-621 -1133,-1197 0,-250 186,-282 263,-282 64,0 256,38 256,262 0,199 -167,257 -256,257 -39,0 -77,-7 -103,-20 122,544 493,813 884,813 556,0 921,-441 921,-1024 0,-556 -326,-1035 -691,-1450 L 262,147 V 0 h 2253 z"
                   transform="scale(0.015625)" /></defs><use
                 xlink:href="#CMR17-32-74"
                 transform="scale(0.996264)"
                 id="use26" /><use
                 xlink:href="#CMR17-30-46"
                 transform="matrix(0.996264,0,0,0.996264,45.690477,0)"
                 id="use27" /><use
                 xlink:href="#CMR17-30-46"
                 transform="matrix(0.996264,0,0,0.996264,91.380954,0)"
                 id="use28" /></g></g></g><g
           id="ytick_3"><g
             id="line2d_11"><path
               d="M 34.015748,63.387038 H 153.07087"
               clip-path="url(#p1b38e929f9)"
               style="fill:none;stroke:#808080;stroke-width:0.2;stroke-dasharray:0.74, 0.32;stroke-dashoffset:0;stroke-opacity:0.7"
               id="path28" /></g><g
             id="line2d_12"><g
               id="g29"><use
                 xlink:href="#m2758bda0a2"
                 x="34.015747"
                 y="63.387039"
                 style="stroke:#000000;stroke-width:0.5"
                 id="use29" /></g></g><g
             id="text_7"><!-- $\mathdefault{400}$ --><g
               transform="matrix(0.08,0,0,-0.08,17.813199,66.154439)"
               id="g32"><defs
                 id="defs29"><path
                   id="path27"
                   d="m 2150,4147 c 0,134 -6,141 -121,141 L 128,1254 V 1088 H 1779 V 460 c 0,-230 -13,-294 -461,-294 H 1197 V 0 c 205,12 550,12 768,12 217,0 563,0 768,-12 v 166 h -122 c -448,0 -461,64 -461,294 v 628 h 653 v 166 H 2150 Z M 1798,3723 V 1254 H 256 Z"
                   transform="scale(0.015625)" /></defs><use
                 xlink:href="#CMR17-34-62"
                 transform="scale(0.996264)"
                 id="use30" /><use
                 xlink:href="#CMR17-30-46"
                 transform="matrix(0.996264,0,0,0.996264,45.690477,0)"
                 id="use31" /><use
                 xlink:href="#CMR17-30-46"
                 transform="matrix(0.996264,0,0,0.996264,91.380954,0)"
                 id="use32" /></g></g></g><g
           id="ytick_4"><g
             id="line2d_13"><path
               d="M 34.015748,35.91278 H 153.07087"
               clip-path="url(#p1b38e929f9)"
               style="fill:none;stroke:#808080;stroke-width:0.2;stroke-dasharray:0.74, 0.32;stroke-dashoffset:0;stroke-opacity:0.7"
               id="path32" /></g><g
             id="line2d_14"><g
               id="g33"><use
                 xlink:href="#m2758bda0a2"
                 x="34.015747"
                 y="35.912781"
                 style="stroke:#000000;stroke-width:0.5"
                 id="use33" /></g></g><g
             id="text_8"><!-- $\mathdefault{600}$ --><g
               transform="matrix(0.08,0,0,-0.08,17.813199,38.680181)"
               id="g36"><defs
                 id="defs33"><path
                   id="path29"
                   d="m 678,2198 c 0,1514 717,1878 1133,1878 135,0 461,-27 589,-294 -102,0 -294,0 -294,-224 0,-173 140,-230 230,-230 58,0 230,25 230,243 0,416 -320,653 -761,653 -762,0 -1562,-813 -1562,-2213 0,-1754 723,-2139 1235,-2139 621,0 1210,559 1210,1423 0,806 -518,1393 -1171,1393 -391,0 -679,-258 -839,-709 z M 1478,25 c -787,0 -787,1187 -787,1425 0,464 218,1135 813,1135 109,0 422,0 634,-445 115,-251 115,-516 115,-838 0,-348 0,-606 -135,-864 C 1978,173 1773,25 1478,25 Z"
                   transform="scale(0.015625)" /></defs><use
                 xlink:href="#CMR17-36-18"
                 transform="scale(0.996264)"
                 id="use34" /><use
                 xlink:href="#CMR17-30-46"
                 transform="matrix(0.996264,0,0,0.996264,45.690477,0)"
                 id="use35" /><use
                 xlink:href="#CMR17-30-46"
                 transform="matrix(0.996264,0,0,0.996264,91.380954,0)"
                 id="use36" /></g></g></g><g
           id="text_9"><!-- $\sigma$ [N/mm$^2$] --><g
             transform="matrix(0,-0.1,-0.1,0,11.322539,93.09842)"
             id="g44"><defs
               id="defs36"><path
                 id="path30"
                 d="m 3251,2406 c 83,0 295,0 295,205 0,141 -122,141 -237,141 H 1894 C 934,2752 243,1685 243,932 c 0,-543 352,-996 928,-996 755,0 1581,810 1581,1768 0,249 -58,491 -211,702 z M 1178,64 c -327,0 -564,248 -564,689 0,383 231,1653 1172,1653 275,0 582,-134 582,-626 0,-223 -102,-759 -326,-1129 C 1811,274 1466,64 1178,64 Z"
                 transform="scale(0.015625)" /><path
                 id="path31"
                 d="m 1312,4275 c -45,70 -51,77 -173,77 H 326 v -167 h 122 c 256,0 371,-32 390,-38 V 624 C 838,465 838,166 326,166 V 0 c 148,12 416,12 576,12 160,0 429,0 576,-12 V 166 C 966,166 966,465 966,624 v 3433 c 45,-38 45,-50 90,-114 L 3430,76 c 45,-76 64,-76 96,-76 64,0 64,19 64,140 v 3586 c 0,159 0,459 512,459 v 167 c -147,-13 -416,-13 -576,-13 -160,0 -428,0 -576,13 v -167 c 512,0 512,-300 512,-459 V 777 Z"
                 transform="scale(0.015625)" /><path
                 id="path33"
                 d="m 2605,4575 c 32,83 32,96 32,109 0,77 -58,116 -109,116 -77,0 -102,-52 -128,-129 L 326,-1376 c -32,-84 -32,-96 -32,-109 0,-77 58,-115 109,-115 77,0 103,51 128,128 z"
                 transform="scale(0.015625)" /><path
                 id="path34"
                 d="m 4326,1954 c 0,322 -57,862 -819,862 -435,0 -736,-296 -851,-643 h -6 c -77,527 -455,643 -813,643 -506,0 -768,-392 -864,-650 h -7 v 650 l -755,-71 v -167 c 378,0 435,-38 435,-347 V 443 C 646,198 621,166 211,166 V 0 c 154,12 435,12 602,12 166,0 454,0 608,-12 v 166 c -410,0 -435,26 -435,277 v 1235 c 0,591 358,1035 806,1035 474,0 525,-424 525,-733 V 443 c 0,-245 -26,-277 -435,-277 V 0 c 153,12 435,12 601,12 167,0 455,0 608,-12 v 166 c -409,0 -435,26 -435,277 v 1235 c 0,591 358,1035 806,1035 474,0 525,-424 525,-733 V 443 c 0,-245 -25,-277 -435,-277 V 0 c 154,12 435,12 602,12 166,0 454,0 608,-12 v 166 c -410,0 -436,26 -436,277 z"
                 transform="scale(0.015625)" /></defs><use
               xlink:href="#CMMI12-1b-7"
               transform="scale(0.996264)"
               id="use37" /><use
               xlink:href="#CMR17-5b-2"
               transform="matrix(0.996264,0,0,0.996264,89.09602,0)"
               id="use38" /><use
               xlink:href="#CMR17-4e-97"
               transform="matrix(0.996264,0,0,0.996264,113.96708,0)"
               id="use39" /><use
               xlink:href="#CMR17-2f-72"
               transform="matrix(0.996264,0,0,0.996264,183.03951,0)"
               id="use40" /><use
               xlink:href="#CMR17-6d-02"
               transform="matrix(0.996264,0,0,0.996264,228.72998,0)"
               id="use41" /><use
               xlink:href="#CMR17-6d-02"
               transform="matrix(0.996264,0,0,0.996264,305.64958,0)"
               id="use42" /><use
               xlink:href="#CMR17-32-74"
               transform="matrix(0.697382,0,0,0.697382,382.56916,36.153639)"
               id="use43" /><use
               xlink:href="#CMR17-5d-05"
               transform="matrix(0.996264,0,0,0.996264,415.05048,0)"
               id="use44" /></g></g></g><g
         id="line2d_15"><path
           d="M 35.107997,118.33555 37.537158,40.033919 56.952973,35.91278"
           clip-path="url(#p1b38e929f9)"
           style="fill:none;stroke:#000000;stroke-width:0.7;stroke-linecap:square"
           id="path44" /></g><g
         id="patch_3"><path
           d="M 34.015748,122.45669 V 15.307087"
           style="fill:none;stroke:#000000;stroke-width:0.5;stroke-linecap:square;stroke-linejoin:miter"
           id="path45" /></g><g
         id="patch_4"><path
           d="M 153.07087,122.45669 V 15.307087"
           style="fill:none;stroke:#000000;stroke-width:0.5;stroke-linecap:square;stroke-linejoin:miter"
           id="path46" /></g><g
         id="patch_5"><path
           d="M 34.015748,122.45669 H 153.07087"
           style="fill:none;stroke:#000000;stroke-width:0.5;stroke-linecap:square;stroke-linejoin:miter"
           id="path47" /></g><g
         id="patch_6"><path
           d="M 34.015748,15.307087 H 153.07087"
           style="fill:none;stroke:#000000;stroke-width:0.5;stroke-linecap:square;stroke-linejoin:miter"
           id="path48" /></g></g></g><g
     inkscape:groupmode="layer"
     id="layer1"
     inkscape:label="beschriftung"><text
       xml:space="preserve"
       transform="matrix(0.75,0,0,0.75,38.327562,32.95527)"
       id="text52-2-4"
       style="font-style:italic;font-variant:normal;font-weight:normal;font-stretch:normal;font-size:11.3386px;line-height:0;font-family:'Palatino Linotype';-inkscape-font-specification:'Palatino Linotype, Italic';font-variant-ligatures:normal;font-variant-caps:normal;font-variant-numeric:normal;font-variant-east-asian:normal;letter-spacing:0px;white-space:pre;shape-inside:url(#rect52-4-97);display:inline;fill:#000000;fill-opacity:1;stroke:none;stroke-linecap:butt;stroke-linejoin:round"
       inkscape:highlight-color="#000000"><tspan
         x="27.615234"
         y="14.045072"
         id="tspan2">E<tspan
   style="font-size:65%;baseline-shift:sub"
   id="tspan1">sh</tspan></tspan></text><text
       xml:space="preserve"
       transform="matrix(0.75,0,0,0.75,19.938708,98.343012)"
       id="text52-2-4-0"
       style="font-style:italic;font-variant:normal;font-weight:normal;font-stretch:normal;font-size:11.3386px;line-height:0;font-family:'Palatino Linotype';-inkscape-font-specification:'Palatino Linotype, Italic';font-variant-ligatures:normal;font-variant-caps:normal;font-variant-numeric:normal;font-variant-east-asian:normal;letter-spacing:0px;white-space:pre;shape-inside:url(#rect52-4-97-6);display:inline;fill:#000000;fill-opacity:1;stroke:none;stroke-linecap:butt;stroke-linejoin:round"
       inkscape:highlight-color="#000000"><tspan
         x="27.615234"
         y="14.045072"
         id="tspan4">E<tspan
   style="font-size:65%;baseline-shift:sub"
   id="tspan3">s</tspan></tspan></text><path
       style="fill:none;stroke:#000000;stroke-width:0.35;stroke-dasharray:0.35, 0.7;stroke-dashoffset:0;stroke-opacity:1"
       d="M 57.993647,54.238587 V 97.506932"
       id="path70" /><text
       xml:space="preserve"
       transform="matrix(0.75,0,0,0.75,21.559143,66.230212)"
       id="text52-2-3"
       style="font-style:italic;font-variant:normal;font-weight:normal;font-stretch:normal;font-size:11.3386px;line-height:0;font-family:'Palatino Linotype';-inkscape-font-specification:'Palatino Linotype, Italic';font-variant-ligatures:normal;font-variant-position:sub;font-variant-caps:normal;font-variant-numeric:normal;font-variant-east-asian:normal;letter-spacing:0px;white-space:pre;shape-inside:url(#rect52-4-0);display:inline;fill:#000000;fill-opacity:1;stroke:none;stroke-width:1.00157;stroke-linecap:butt;stroke-linejoin:round;stroke-dasharray:none"
       inkscape:highlight-color="#000000"><tspan
         x="27.615234"
         y="14.045072"
         id="tspan7"><tspan
           style="font-variant-position:normal;baseline-shift:baseline"
           id="tspan5"></tspan><tspan
           style="font-size:65%;baseline-shift:sub"
           id="tspan6">sy</tspan></tspan></text><text
       xml:space="preserve"
       transform="matrix(0.75,0,0,0.75,43.401607,66.212629)"
       id="text52-2-3-3"
       style="font-style:italic;font-variant:normal;font-weight:normal;font-stretch:normal;font-size:11.3386px;line-height:0;font-family:'Palatino Linotype';-inkscape-font-specification:'Palatino Linotype, Italic';font-variant-ligatures:normal;font-variant-position:sub;font-variant-caps:normal;font-variant-numeric:normal;font-variant-east-asian:normal;letter-spacing:0px;white-space:pre;shape-inside:url(#rect52-4-0-7);display:inline;fill:#000000;fill-opacity:1;stroke:none;stroke-width:1.00157;stroke-linecap:butt;stroke-linejoin:round;stroke-dasharray:none"
       inkscape:highlight-color="#000000"><tspan
         x="27.615234"
         y="14.045072"
         id="tspan10"><tspan
           style="baseline-shift:baseline"
           id="tspan8"></tspan><tspan
           style="font-size:65%;baseline-shift:sub"
           id="tspan9">su</tspan></tspan></text><path
       style="fill:none;stroke:#000000;stroke-width:0.35;stroke-linecap:butt;stroke-linejoin:round;stroke-dasharray:0.35, 0.7;stroke-dashoffset:0;stroke-opacity:1"
       d="M 38.235196,54.63657 V 97.904922"
       id="path70-4" /><path
       style="fill:none;fill-opacity:1;stroke:#000000;stroke-width:0.274395;stroke-dasharray:none;stroke-dashoffset:0;stroke-opacity:1"
       d="M 45.282973,41.223203 57.002998,38.702755"
       id="path75" /><path
       style="fill:none;fill-opacity:1;stroke:#000000;stroke-width:0.274395;stroke-dasharray:none;stroke-dashoffset:0;stroke-opacity:1"
       d="m 57.002998,38.702755 0.02168,2.621233 -11.741705,-0.100785"
       id="path76" /><path
       style="fill:none;fill-opacity:1;stroke:#000000;stroke-width:0.2;stroke-dasharray:none;stroke-dashoffset:0;stroke-opacity:1"
       d="M 36.733431,113.02508 38.858196,99.427932"
       id="path77" /><path
       style="fill:none;fill-opacity:1;stroke:#000000;stroke-width:0.2;stroke-dasharray:none;stroke-dashoffset:0;stroke-opacity:1"
       d="m 36.739013,113.02506 2.017957,0.003"
       id="path78" /><path
       style="fill:none;fill-opacity:1;stroke:#000000;stroke-width:0.2;stroke-dasharray:none;stroke-dashoffset:0;stroke-opacity:1"
       d="M 38.858196,99.427932 38.670837,113.02657"
       id="path79" /><path
       style="fill:none;stroke:#000000;stroke-width:0.290724;stroke-dasharray:0.290724, 0.581447;stroke-dashoffset:0;stroke-opacity:1"
       d="M 80.674878,35.867418 H 110.52834"
       id="path80" /><path
       style="fill:none;stroke:#000000;stroke-width:0.290724;stroke-linecap:butt;stroke-linejoin:round;stroke-dasharray:0.290724, 0.581447;stroke-dashoffset:0;stroke-opacity:1"
       d="M 80.674879,40.146021 H 110.52834"
       id="path80-9" /><text
       xml:space="preserve"
       transform="scale(0.75)"
       id="text2"
       style="font-style:italic;font-variant:normal;font-weight:normal;font-stretch:normal;font-size:11.3386px;line-height:0px;font-family:'Palatino Linotype';-inkscape-font-specification:'Palatino Linotype, Italic';font-variant-ligatures:normal;font-variant-position:normal;font-variant-caps:normal;font-variant-numeric:normal;font-variant-east-asian:normal;letter-spacing:0px;white-space:pre;shape-inside:url(#rect2);display:inline;fill:none;stroke:#000000;stroke-width:1.00157;stroke-dasharray:none" /><text
       xml:space="preserve"
       transform="scale(0.75)"
       id="text3"
       style="font-style:italic;font-variant:normal;font-weight:normal;font-stretch:normal;font-size:11.3386px;line-height:0px;font-family:'Palatino Linotype';-inkscape-font-specification:'Palatino Linotype, Italic';font-variant-ligatures:normal;font-variant-position:normal;font-variant-caps:normal;font-variant-numeric:normal;font-variant-east-asian:normal;letter-spacing:0px;white-space:pre;shape-inside:url(#rect3);display:inline;fill:none;stroke:#000000;stroke-width:1.00157;stroke-dasharray:none" /><text
       xml:space="preserve"
       transform="matrix(0.75,0,0,0.75,3.5692875,11.835682)"
       id="text4"
       style="font-style:italic;font-variant:normal;font-weight:normal;font-stretch:normal;font-size:11.3386px;line-height:0px;font-family:'Palatino Linotype';-inkscape-font-specification:'Palatino Linotype, Italic';font-variant-ligatures:normal;font-variant-position:normal;font-variant-caps:normal;font-variant-numeric:normal;font-variant-east-asian:normal;letter-spacing:0px;white-space:pre;shape-inside:url(#rect4);display:inline;fill:#000000;fill-opacity:1;stroke:none;stroke-width:1.00157;stroke-dasharray:none"><tspan
         x="129.78711"
         y="55.119291"
         id="tspan12">f<tspan
   style="font-size:65%;baseline-shift:sub"
   id="tspan11">sy</tspan></tspan></text><text
       xml:space="preserve"
       transform="matrix(0.75,0,0,0.75,2.7830123,10.045791)"
       id="text6"
       style="font-style:italic;font-variant:normal;font-weight:normal;font-stretch:normal;line-height:0px;font-family:'Palatino Linotype';-inkscape-font-specification:'Palatino Linotype, Italic';font-variant-ligatures:normal;font-variant-position:normal;font-variant-caps:normal;font-variant-numeric:normal;font-variant-east-asian:normal;letter-spacing:0px;baseline-shift:baseline;white-space:pre;shape-inside:url(#rect6);display:inline;fill:#000000;fill-opacity:1;stroke:none;stroke-width:1.00157;stroke-dasharray:none"><tspan
         x="130.54102"
         y="21.973999"
         id="tspan14">f<tspan
   style="font-size:65%;baseline-shift:sub"
   id="tspan13">su</tspan></tspan></text><path
       style="fill:none;fill-opacity:1;stroke:#000000;stroke-width:0.204094;stroke-dasharray:none;stroke-opacity:1"
       d="m 105.38298,33.143249 -1.45532,2.621955"
       id="path8" /><path
       style="fill:none;fill-opacity:1;stroke:#000000;stroke-width:0.204094;stroke-dasharray:none;stroke-opacity:1"
       d="m 103.92766,35.765204 -1.53532,-2.617312 2.99064,-0.0046"
       id="path9" /><path
       style="fill:none;fill-opacity:1;stroke:#000000;stroke-width:0.204094;stroke-dasharray:none;stroke-opacity:1"
       d="m 103.84766,40.342573 -1.45532,2.621955"
       id="path10" /><path
       style="fill:none;fill-opacity:1;stroke:#000000;stroke-width:0.204094;stroke-dasharray:none;stroke-opacity:1"
       d="m 102.39234,42.964585 2.99064,-0.0047 -1.53532,-2.617312"
       id="path11" /><path
       style="fill:none;fill-opacity:1;stroke:#000000;stroke-width:0.204094;stroke-dasharray:none;stroke-opacity:1"
       d="m 58.001792,74.376805 2.617312,-1.535316 0.0046,2.990642 -2.621912,-1.455325"
       id="path13" /><path
       style="fill:none;fill-opacity:1;stroke:#000000;stroke-width:0.204094;stroke-dasharray:none;stroke-opacity:1"
       d="m 40.865297,76.230114 -0.0046,-2.990642"
       id="path14" /><path
       style="fill:none;fill-opacity:1;stroke:#000000;stroke-width:0.204094;stroke-dasharray:none;stroke-opacity:1"
       d="m 40.860697,73.239472 -2.617356,1.535316 2.621955,1.455326"
       id="path15" /></g></svg>
