<?xml version="1.0" encoding="UTF-8" standalone="no"?>
<!-- Created with Inkscape (http://www.inkscape.org/) -->

<svg
   version="1.1"
   id="svg1"
   width="566.92932"
   height="170.07867"
   viewBox="0 0 566.92932 170.07867"
   sodipodi:docname="jag_system_qs.pdf"
   xmlns:inkscape="http://www.inkscape.org/namespaces/inkscape"
   xmlns:sodipodi="http://sodipodi.sourceforge.net/DTD/sodipodi-0.dtd"
   xmlns="http://www.w3.org/2000/svg"
   xmlns:svg="http://www.w3.org/2000/svg">
  <defs
     id="defs1">
    <clipPath
       clipPathUnits="userSpaceOnUse"
       id="clipPath16">
      <path
         d="M -0.00426,-0.00128 V 127.56033 H 425.20111 V -0.00128 H -0.00426"
         transform="matrix(1,0,0,-1,-161.38134,60.643122)"
         clip-rule="evenodd"
         id="path16" />
    </clipPath>
    <clipPath
       clipPathUnits="userSpaceOnUse"
       id="clipPath17">
      <path
         d="M -0.00426,-0.00128 V 127.56033 H 425.20111 V -0.00128 H -0.00426"
         transform="matrix(1,0,0,-1,-205.89712,60.643122)"
         clip-rule="evenodd"
         id="path17" />
    </clipPath>
    <clipPath
       clipPathUnits="userSpaceOnUse"
       id="clipPath18">
      <path
         d="M -0.00426,-0.00128 V 127.56033 H 425.20111 V -0.00128 H -0.00426"
         transform="matrix(1,0,0,-1,-216.4777,60.643122)"
         clip-rule="evenodd"
         id="path18" />
    </clipPath>
    <clipPath
       clipPathUnits="userSpaceOnUse"
       id="clipPath20">
      <path
         d="M -0.00426,-0.00128 V 127.56033 H 425.20111 V -0.00128 H -0.00426"
         transform="matrix(1,0,0,-1,-203.77855,7.5649702)"
         clip-rule="evenodd"
         id="path20" />
    </clipPath>
    <clipPath
       clipPathUnits="userSpaceOnUse"
       id="clipPath22">
      <path
         d="M -0.00426,-0.00128 V 127.56033 H 425.20111 V -0.00128 H -0.00426"
         transform="matrix(1,0,0,-1,-103.7631,80.482472)"
         clip-rule="evenodd"
         id="path22" />
    </clipPath>
    <clipPath
       clipPathUnits="userSpaceOnUse"
       id="clipPath23">
      <path
         d="M -0.00426,-0.00128 V 127.56033 H 425.20111 V -0.00128 H -0.00426"
         transform="matrix(1,0,0,-1,-96.165872,112.67151)"
         clip-rule="evenodd"
         id="path23" />
    </clipPath>
    <clipPath
       clipPathUnits="userSpaceOnUse"
       id="clipPath24">
      <path
         d="M -0.00426,-0.00128 V 127.56033 H 425.20111 V -0.00128 H -0.00426"
         transform="matrix(1,0,0,-1,-131.06329,108.59825)"
         clip-rule="evenodd"
         id="path24" />
    </clipPath>
  </defs>
  <sodipodi:namedview
     id="namedview1"
     pagecolor="#ffffff"
     bordercolor="#000000"
     borderopacity="0.25"
     inkscape:showpageshadow="2"
     inkscape:pageopacity="0.0"
     inkscape:pagecheckerboard="0"
     inkscape:deskcolor="#d1d1d1">
    <inkscape:page
       x="0"
       y="0"
       inkscape:label="1"
       id="page1"
       width="566.92932"
       height="170.07867"
       margin="0"
       bleed="0" />
  </sodipodi:namedview>
  <g
     id="g1"
     inkscape:groupmode="layer"
     inkscape:label="1">
    <path
       id="path1"
       d="m 289.51251,43.18143 c 0,0.73057 -0.59225,1.32283 -1.32284,1.32283 m 0,0 c -0.73056,0 -1.32282,-0.59226 -1.32282,-1.32283 m 0,0 c 0,-0.73059 0.59226,-1.32283 1.32282,-1.32283 m 0,0 c 0.73059,0 1.32284,0.59224 1.32284,1.32283"
       style="fill:none;stroke:#000000;stroke-width:0.51024;stroke-linecap:round;stroke-linejoin:round;stroke-miterlimit:10;stroke-dasharray:none;stroke-opacity:1"
       transform="matrix(1.3333333,0,0,-1.3333333,0,170.07867)" />
    <path
       id="path2"
       d="m 251.71725,43.18143 c 0,0.73057 -0.59225,1.32283 -1.32284,1.32283 m 0,0 c -0.73059,0 -1.32285,-0.59226 -1.32285,-1.32283 m 0,0 c 0,-0.73059 0.59226,-1.32283 1.32285,-1.32283 m 0,0 c 0.73059,0 1.32284,0.59224 1.32284,1.32283"
       style="fill:none;stroke:#000000;stroke-width:0.51024;stroke-linecap:round;stroke-linejoin:round;stroke-miterlimit:10;stroke-dasharray:none;stroke-opacity:1"
       transform="matrix(1.3333333,0,0,-1.3333333,0,170.07867)" />
    <path
       id="path3"
       d="m 213.92197,43.18143 c 0,0.73057 -0.59226,1.32283 -1.32285,1.32283 m 0,0 c -0.73056,0 -1.32281,-0.59226 -1.32281,-1.32283 m 0,0 c 0,-0.73059 0.59225,-1.32283 1.32281,-1.32283 m 0,0 c 0.73059,0 1.32285,0.59224 1.32285,1.32283"
       style="fill:none;stroke:#000000;stroke-width:0.51024;stroke-linecap:round;stroke-linejoin:round;stroke-miterlimit:10;stroke-dasharray:none;stroke-opacity:1"
       transform="matrix(1.3333333,0,0,-1.3333333,0,170.07867)" />
    <path
       id="path4"
       d="m 176.12668,43.18143 c 0,0.73057 -0.59226,1.32283 -1.32282,1.32283 m 0,0 c -0.73059,0 -1.32284,-0.59226 -1.32284,-1.32283 m 0,0 c 0,-0.73059 0.59225,-1.32283 1.32284,-1.32283 m 0,0 c 0.73056,0 1.32282,0.59224 1.32282,1.32283"
       style="fill:none;stroke:#000000;stroke-width:0.51024;stroke-linecap:round;stroke-linejoin:round;stroke-miterlimit:10;stroke-dasharray:none;stroke-opacity:1"
       transform="matrix(1.3333333,0,0,-1.3333333,0,170.07867)" />
    <path
       id="path5"
       d="m 138.33142,43.18143 c 0,0.73057 -0.59225,1.32283 -1.32284,1.32283 m 0,0 c -0.7306,0 -1.32285,-0.59226 -1.32285,-1.32283 m 0,0 c 0,-0.73059 0.59225,-1.32283 1.32285,-1.32283 m 0,0 c 0.73059,0 1.32284,0.59224 1.32284,1.32283"
       style="fill:none;stroke:#000000;stroke-width:0.51024;stroke-linecap:round;stroke-linejoin:round;stroke-miterlimit:10;stroke-dasharray:none;stroke-opacity:1"
       transform="matrix(1.3333333,0,0,-1.3333333,0,170.07867)" />
    <path
       id="path6"
       d="m 289.51251,84.37828 c 0,0.73058 -0.59225,1.32283 -1.32284,1.32283 m 0,0 c -0.73056,0 -1.32282,-0.59225 -1.32282,-1.32283 m 0,0 c 0,-0.73057 0.59226,-1.32283 1.32282,-1.32283 m 0,0 c 0.73059,0 1.32284,0.59226 1.32284,1.32283"
       style="fill:none;stroke:#000000;stroke-width:0.51024;stroke-linecap:round;stroke-linejoin:round;stroke-miterlimit:10;stroke-dasharray:none;stroke-opacity:1"
       transform="matrix(1.3333333,0,0,-1.3333333,0,170.07867)" />
    <path
       id="path7"
       d="m 251.71725,84.37828 c 0,0.73058 -0.59225,1.32283 -1.32284,1.32283 m 0,0 c -0.73059,0 -1.32285,-0.59225 -1.32285,-1.32283 m 0,0 c 0,-0.73057 0.59226,-1.32283 1.32285,-1.32283 m 0,0 c 0.73059,0 1.32284,0.59226 1.32284,1.32283"
       style="fill:none;stroke:#000000;stroke-width:0.51024;stroke-linecap:round;stroke-linejoin:round;stroke-miterlimit:10;stroke-dasharray:none;stroke-opacity:1"
       transform="matrix(1.3333333,0,0,-1.3333333,0,170.07867)" />
    <path
       id="path8"
       d="m 213.92197,84.37828 c 0,0.73058 -0.59226,1.32283 -1.32285,1.32283 m 0,0 c -0.73056,0 -1.32281,-0.59225 -1.32281,-1.32283 m 0,0 c 0,-0.73057 0.59225,-1.32283 1.32281,-1.32283 m 0,0 c 0.73059,0 1.32285,0.59226 1.32285,1.32283"
       style="fill:none;stroke:#000000;stroke-width:0.51024;stroke-linecap:round;stroke-linejoin:round;stroke-miterlimit:10;stroke-dasharray:none;stroke-opacity:1"
       transform="matrix(1.3333333,0,0,-1.3333333,0,170.07867)" />
    <path
       id="path9"
       d="m 176.12668,84.37828 c 0,0.73058 -0.59226,1.32283 -1.32282,1.32283 m 0,0 c -0.73059,0 -1.32284,-0.59225 -1.32284,-1.32283 m 0,0 c 0,-0.73057 0.59225,-1.32283 1.32284,-1.32283 m 0,0 c 0.73056,0 1.32282,0.59226 1.32282,1.32283"
       style="fill:none;stroke:#000000;stroke-width:0.51024;stroke-linecap:round;stroke-linejoin:round;stroke-miterlimit:10;stroke-dasharray:none;stroke-opacity:1"
       transform="matrix(1.3333333,0,0,-1.3333333,0,170.07867)" />
    <path
       id="path10"
       d="m 138.33142,84.37828 c 0,0.73058 -0.59225,1.32283 -1.32284,1.32283 m 0,0 c -0.7306,0 -1.32285,-0.59225 -1.32285,-1.32283 m 0,0 c 0,-0.73057 0.59225,-1.32283 1.32285,-1.32283 m 0,0 c 0.73059,0 1.32284,0.59226 1.32284,1.32283"
       style="fill:none;stroke:#000000;stroke-width:0.51024;stroke-linecap:round;stroke-linejoin:round;stroke-miterlimit:10;stroke-dasharray:none;stroke-opacity:1"
       transform="matrix(1.3333333,0,0,-1.3333333,0,170.07867)" />
    <path
       id="path11"
       d="m 109.81273,112.45335 c 0,1.50792 -1.2224,2.73032 -2.7303,2.73032 m 0,0 c -1.50791,0 -2.7303,-1.2224 -2.7303,-2.73032 m 0,0 c 0,-1.5079 1.22239,-2.7303 2.7303,-2.7303 m 0,0 c 1.5079,0 2.7303,1.2224 2.7303,2.7303"
       style="fill:none;stroke:#000000;stroke-width:0.3685;stroke-linecap:round;stroke-linejoin:round;stroke-miterlimit:10;stroke-dasharray:none;stroke-opacity:1"
       transform="matrix(1.3333333,0,0,-1.3333333,0,170.07867)" />
    <path
       id="path12"
       d="M 118.11093,92.12631 H 307.08731 M 118.11093,35.4334 h 188.97638 m 0,56.69291 V 35.4334 M 118.11093,92.12631 V 35.4334 m 5.6693,3.77952 h 177.6378 m -177.6378,49.13387 h 177.6378 M 123.78023,41.8586 h 177.6378 v -2.64568 m -177.6378,2.64568 v -2.64568 m 0,46.48819 h 177.6378 m 0,2.64568 v -2.64568 m -177.6378,2.64568 v -2.64568 m -16.6978,26.75224 h 21.99719 m -5.95276,0 h -0.42518 m 6.37794,0 v 0 l -5.95276,0.85041 v -1.70078 l 5.95276,0.85037"
       style="fill:none;stroke:#000000;stroke-width:0.3685;stroke-linecap:round;stroke-linejoin:round;stroke-miterlimit:10;stroke-dasharray:none;stroke-opacity:1"
       transform="matrix(1.3333333,0,0,-1.3333333,0,170.07867)" />
    <path
       id="path13"
       d="m 123.12686,111.60298 5.95276,0.85037 -5.95276,0.85041 z"
       style="fill:#000000;fill-opacity:1;fill-rule:nonzero;stroke:none"
       transform="matrix(1.3333333,0,0,-1.3333333,0,170.07867)" />
    <path
       id="path14"
       d="M 107.08243,112.45335 V 91.00038 m 0,5.95276 v 0.4252 m 0,-6.37796 v 0 l 0.85039,5.95276 h -1.70078 l 0.85039,-5.95276"
       style="fill:none;stroke:#000000;stroke-width:0.3685;stroke-linecap:round;stroke-linejoin:round;stroke-miterlimit:10;stroke-dasharray:none;stroke-opacity:1"
       transform="matrix(1.3333333,0,0,-1.3333333,0,170.07867)" />
    <path
       id="path15"
       d="m 106.23204,96.95314 0.85039,-5.95276 0.85039,5.95276 z"
       style="fill:#000000;fill-opacity:1;fill-rule:nonzero;stroke:none"
       transform="matrix(1.3333333,0,0,-1.3333333,0,170.07867)" />
    <text
       id="text15"
       xml:space="preserve"
       transform="matrix(1.3333333,0,0,1.3333333,215.17511,89.221173)"
       clip-path="url(#clipPath16)"><tspan
         style="font-style:italic;font-variant:normal;font-weight:normal;font-stretch:normal;font-size:10.0071px;font-family:'Palatino Linotype';writing-mode:lr-tb;fill:#000000;fill-opacity:1;fill-rule:nonzero;stroke:none"
         x="0 4.4431658 7.2251477 10.00713 13.899903 16.401686 21.965651 26.408815 31.41238 35.305153 40.869118"
         y="0"
         sodipodi:role="line"
         id="tspan15">alle Lagen </tspan></text>
    <text
       id="text16"
       xml:space="preserve"
       transform="matrix(1.3333333,0,0,1.3333333,274.52948,89.221173)"
       clip-path="url(#clipPath17)"><tspan
         style="font-variant:normal;font-weight:normal;font-stretch:normal;font-size:10.616px;font-family:'Cambria Math';writing-mode:lr-tb;fill:#000000;fill-opacity:1;fill-rule:nonzero;stroke:none"
         x="0"
         y="0"
         id="tspan16">⊘</tspan></text>
    <text
       id="text17"
       xml:space="preserve"
       transform="matrix(1.3333333,0,0,1.3333333,288.63693,89.221173)"
       clip-path="url(#clipPath18)"><tspan
         style="font-style:italic;font-variant:normal;font-weight:normal;font-stretch:normal;font-size:10.0071px;font-family:'Palatino Linotype';writing-mode:lr-tb;fill:#000000;fill-opacity:1;fill-rule:nonzero;stroke:none"
         x="0 5.0035648 10.00713 12.508912 16.401686 18.903469 23.907034 26.408815 31.41238 36.415947 41.41951 49.205059"
         y="0"
         sodipodi:role="line"
         id="tspan17">14 s = 200mm</tspan></text>
    <path
       id="path19"
       d="m 118.11093,5.54118 2.97638,0.4252 V 5.116 l -2.97638,0.42518 m 188.97638,0 -2.97638,0.4252 V 5.116 l 2.97638,0.42518 m -188.97638,0 v 2.12598 m 0,-2.12598 V 3.41521 m 188.97638,2.12597 v 2.12598 m 0,-2.12598 V 3.41521 M 118.11093,5.54118 V 16.53575 M 307.08731,5.54118 V 16.53575 M 118.11093,5.54118 v 0 m 188.97638,0 v 0"
       style="fill:none;stroke:#000000;stroke-width:0.3685;stroke-linecap:round;stroke-linejoin:round;stroke-miterlimit:10;stroke-dasharray:none;stroke-opacity:1"
       transform="matrix(1.3333333,0,0,-1.3333333,0,170.07867)" />
    <text
       id="text19"
       xml:space="preserve"
       transform="matrix(1.3333333,0,0,1.3333333,271.70472,159.99204)"
       clip-path="url(#clipPath20)"><tspan
         style="font-variant:normal;font-weight:normal;font-stretch:normal;font-size:10.0916px;font-family:'Palatino Linotype';writing-mode:lr-tb;fill:#000000;fill-opacity:1;fill-rule:nonzero;stroke:none"
         x="0 5.045805 7.5687075 12.614512"
         y="0"
         sodipodi:role="line"
         id="tspan19">1.00</tspan></text>
    <path
       id="path21"
       d="m 118.11093,5.54118 h 40.18439 148.79199"
       style="fill:none;stroke:#000000;stroke-width:0.3685;stroke-linecap:round;stroke-linejoin:round;stroke-miterlimit:10;stroke-dasharray:none;stroke-opacity:1"
       transform="matrix(1.3333333,0,0,-1.3333333,0,170.07867)" />
    <text
       id="text21"
       xml:space="preserve"
       transform="matrix(1.3333333,0,0,1.3333333,138.35079,62.768707)"
       clip-path="url(#clipPath22)"><tspan
         style="font-style:italic;font-variant:normal;font-weight:normal;font-stretch:normal;font-size:10.0071px;font-family:'Palatino Linotype';writing-mode:lr-tb;fill:#000000;fill-opacity:1;fill-rule:nonzero;stroke:none"
         x="0"
         y="0"
         id="tspan21">Z</tspan></text>
    <text
       id="text22"
       xml:space="preserve"
       transform="matrix(1.3333333,0,0,1.3333333,128.22116,19.849987)"
       clip-path="url(#clipPath23)"><tspan
         style="font-style:italic;font-variant:normal;font-weight:normal;font-stretch:normal;font-size:10.0071px;font-family:'Palatino Linotype';writing-mode:lr-tb;fill:#000000;fill-opacity:1;fill-rule:nonzero;stroke:none"
         x="0"
         y="0"
         id="tspan22">X</tspan></text>
    <text
       id="text23"
       xml:space="preserve"
       transform="matrix(1.3333333,0,0,1.3333333,174.75105,25.281)"
       clip-path="url(#clipPath24)"><tspan
         style="font-style:italic;font-variant:normal;font-weight:normal;font-stretch:normal;font-size:10.0071px;font-family:'Palatino Linotype';writing-mode:lr-tb;fill:#000000;fill-opacity:1;fill-rule:nonzero;stroke:none"
         x="0"
         y="0"
         id="tspan23">Y</tspan></text>
  </g>
</svg>
