<?xml version="1.0" encoding="UTF-8" standalone="no"?>
<!-- Created with Inkscape (http://www.inkscape.org/) -->

<svg
   version="1.1"
   id="svg1"
   width="566.92932"
   height="151.18134"
   viewBox="0 0 566.92932 151.18134"
   sodipodi:docname="jag_makro_detail.pdf"
   xmlns:inkscape="http://www.inkscape.org/namespaces/inkscape"
   xmlns:sodipodi="http://sodipodi.sourceforge.net/DTD/sodipodi-0.dtd"
   xmlns="http://www.w3.org/2000/svg"
   xmlns:svg="http://www.w3.org/2000/svg">
  <defs
     id="defs1">
    <clipPath
       clipPathUnits="userSpaceOnUse"
       id="clipPath25">
      <path
         d="M -0.00426,-0.00113 V 113.38696 H 425.20111 V -0.00113 H -0.00426"
         transform="matrix(1,0,0,-1,-88.240195,11.897163)"
         clip-rule="evenodd"
         id="path25" />
    </clipPath>
    <clipPath
       clipPathUnits="userSpaceOnUse"
       id="clipPath26">
      <path
         d="M -0.00426,-0.00113 V 113.38696 H 425.20111 V -0.00113 H -0.00426"
         transform="matrix(1,0,0,-1,-144.9331,11.897163)"
         clip-rule="evenodd"
         id="path26" />
    </clipPath>
    <clipPath
       clipPathUnits="userSpaceOnUse"
       id="clipPath28">
      <path
         d="M -0.00426,-0.00113 V 113.38696 H 425.20111 V -0.00113 H -0.00426"
         transform="matrix(1,0,0,-1,-159.12895,70.375232)"
         clip-rule="evenodd"
         id="path28" />
    </clipPath>
    <clipPath
       clipPathUnits="userSpaceOnUse"
       id="clipPath46">
      <path
         d="M -0.00426,-0.00113 V 113.38696 H 425.20111 V -0.00113 H -0.00426"
         transform="matrix(1,0,0,-1,-67.372772,90.591622)"
         clip-rule="evenodd"
         id="path46" />
    </clipPath>
    <clipPath
       clipPathUnits="userSpaceOnUse"
       id="clipPath47">
      <path
         d="M -0.00426,-0.00113 V 113.38696 H 425.20111 V -0.00113 H -0.00426"
         transform="matrix(1,0,0,-1,-15.02664,96.701502)"
         clip-rule="evenodd"
         id="path47" />
    </clipPath>
    <clipPath
       clipPathUnits="userSpaceOnUse"
       id="clipPath48">
      <path
         d="M -0.00426,-0.00113 V 113.38696 H 425.20111 V -0.00113 H -0.00426"
         transform="matrix(1,0,0,-1,-26.42248,48.417951)"
         clip-rule="evenodd"
         id="path48" />
    </clipPath>
  </defs>
  <sodipodi:namedview
     id="namedview1"
     pagecolor="#ffffff"
     bordercolor="#000000"
     borderopacity="0.25"
     inkscape:showpageshadow="2"
     inkscape:pageopacity="0.0"
     inkscape:pagecheckerboard="0"
     inkscape:deskcolor="#d1d1d1">
    <inkscape:page
       x="0"
       y="0"
       inkscape:label="1"
       id="page1"
       width="566.92932"
       height="151.18134"
       margin="0"
       bleed="0" />
  </sodipodi:namedview>
  <path
     id="path1"
     d="M -0.00426,38.99309 H 425.20111 M 0,37.03276 h 4.25197 m 2.83464,0 h 4.25197 m 2.83465,0 h 4.25197 m 2.83464,0 h 4.25197 m 2.83464,0 h 4.25198 m 2.83464,0 h 4.25197 m 2.83464,0 h 4.25197 m 2.83466,0 h 4.25197 m 2.83464,0 h 4.25197 m 2.83464,0 h 4.25196 m 2.83466,0 h 4.25197 m 2.83464,0 h 4.25197 m 2.83464,0 h 4.25197 m 2.83465,0 h 4.25197 m 2.83464,0 h 4.25197 m 2.83464,0 h 4.25197 m 2.83465,0 h 4.25197 m 2.83464,0 h 4.25197 m 2.83464,0 h 4.25199 m 2.83465,0 h 4.25195 m 2.83466,0 h 4.25195 m 2.83466,0 h 4.25195 m 2.83466,0 h 4.25198 m 2.83463,0 h 4.25198 m 2.83463,0 h 4.25198 m 2.83465,0 h 4.25196 m 2.83465,0 h 4.25196 m 2.83465,0 h 4.25196 m 2.83465,0 h 4.25199 m 2.83462,0 h 4.25198 m 2.83463,0 h 4.25198 m 2.83466,0 h 4.25195 m 2.83466,0 h 4.25195 m 2.83466,0 h 4.25195 m 2.83466,0 h 4.25198 m 2.83462,0 h 4.25199 m 2.83462,0 h 4.25199 m 2.83462,0 h 4.25199 m 2.83465,0 h 4.25195 m 2.83466,0 h 4.25195 m 2.83466,0 h 4.25195 m 2.83466,0 h 4.25198 m 2.83463,0 h 4.25198 m 2.83463,0 h 4.25198 m 2.83466,0 h 4.25195 m 2.83465,0 h 4.25196 m 2.83465,0 h 4.25196 m 2.83465,0 h 4.25199 m 2.83462,0 h 4.25198"
     style="fill:none;stroke:#000000;stroke-width:0.3685;stroke-linecap:round;stroke-linejoin:round;stroke-miterlimit:10;stroke-dasharray:none;stroke-opacity:1"
     transform="matrix(1.3333333,0,0,-1.3333333,0,151.18133)" />
  <path
     id="path2"
     d="m 347.24408,37.03276 h 4.25198 m 2.83466,0 h 4.25195 m 2.83466,0 h 4.25195 m 2.83466,0 h 4.25198 m 2.83463,0 h 4.25198 m 2.83462,0 h 4.25199 m 2.83465,0 h 4.25196 m 2.83465,0 h 4.25196 m 2.83465,0 h 4.25195 m 2.83466,0 h 4.25198 m 2.83463,0 h 4.25198 m 2.83463,0 h 0.004"
     style="fill:none;stroke:#000000;stroke-width:0.3685;stroke-linecap:round;stroke-linejoin:round;stroke-miterlimit:10;stroke-dasharray:none;stroke-opacity:1"
     transform="matrix(1.3333333,0,0,-1.3333333,0,151.18133)" />
  <path
     id="path3"
     d="m 35.49693,96.37428 c 0,2.26186 -1.8336,4.09546 -4.09546,4.09546 m 0,0 c -2.26185,0 -4.09545,-1.8336 -4.09545,-4.09546 m 0,0 c 0,-2.26185 1.8336,-4.09546 4.09545,-4.09546 m 0,0 c 2.26186,0 4.09546,1.83361 4.09546,4.09546"
     style="fill:none;stroke:#000000;stroke-width:0.3685;stroke-linecap:round;stroke-linejoin:round;stroke-miterlimit:10;stroke-dasharray:none;stroke-opacity:1"
     transform="matrix(1.3333333,0,0,-1.3333333,0,151.18133)" />
  <path
     id="path4"
     d="m 122.57257,38.99309 v 0 m 5.66931,0 v 0 m 51.02362,0 v 0 m 5.66928,0 v 0 m 51.02362,0 v 0 m 5.66932,0 v 0 m 51.02359,0 v 0 m 5.66931,0 v 0 m 51.02362,0 v 0 m 5.66928,0 v 0 m 51.02362,0 v 0 m 5.66928,0 v 0 m -345.82675,0 v 0 m 5.66928,0 v 0 m -62.3622,0 v 0 m 5.66928,0 v 0 m 16.54544,57.38119 h 32.99581 m -5.95276,0 h -0.4252 m 6.37796,0 v 0 l -5.95276,0.85039 V 95.5239 l 5.95276,0.85038"
     style="fill:none;stroke:#000000;stroke-width:0.3685;stroke-linecap:round;stroke-linejoin:round;stroke-miterlimit:10;stroke-dasharray:none;stroke-opacity:1"
     transform="matrix(1.3333333,0,0,-1.3333333,0,151.18133)" />
  <path
     id="path5"
     d="m 58.44452,95.5239 5.95276,0.85038 -5.95276,0.85039 z"
     style="fill:#000000;fill-opacity:1;fill-rule:nonzero;stroke:none"
     transform="matrix(1.3333333,0,0,-1.3333333,0,151.18133)" />
  <path
     id="path6"
     d="M 31.40147,96.37428 V 64.19482 m 0,5.95276 v 0.42519 m 0,-6.37795 v 0 l 0.85041,5.95276 h -1.70079 l 0.85038,-5.95276"
     style="fill:none;stroke:#000000;stroke-width:0.3685;stroke-linecap:round;stroke-linejoin:round;stroke-miterlimit:10;stroke-dasharray:none;stroke-opacity:1"
     transform="matrix(1.3333333,0,0,-1.3333333,0,151.18133)" />
  <path
     id="path7"
     d="m 30.55109,70.14758 0.85038,-5.95276 0.85041,5.95276 z"
     style="fill:#000000;fill-opacity:1;fill-rule:nonzero;stroke:none"
     transform="matrix(1.3333333,0,0,-1.3333333,0,151.18133)" />
  <g
     id="layer-MC0"
     inkscape:groupmode="layer"
     inkscape:label="STABBEANSPR_DIAG">
    <path
       id="path8"
       d="m 125.40723,38.99309 -0.0431,0.49223 -0.12788,0.47728 -0.20882,0.44782 -0.2834,0.40475 -0.3494,0.34938 -0.40475,0.28342 -0.44782,0.20881 -0.47728,0.12789 -0.49223,0.04307 -0.49222,-0.04307 -0.47728,-0.12789 -0.44781,-0.20881 -0.40476,-0.28342 -0.34939,-0.34938 -0.2834,-0.40475 -0.20884,-0.44782 -0.12788,-0.47728 -0.0431,-0.49223 0.0431,-0.49224 0.12788,-0.47726 0.20884,-0.44781 0.2834,-0.40476 0.5469,-0.50087 0.20725,-0.13194 0.44781,-0.20882 0.47728,-0.12788 0.49222,-0.04306 0.49223,0.04306 0.47728,0.12788 0.44782,0.20882 0.40475,0.28341 0.3494,0.3494 0.2834,0.40476 0.20882,0.44781 0.12788,0.47726 z"
       style="fill:#e0e0e0;fill-opacity:1;fill-rule:nonzero;stroke:none"
       transform="matrix(1.3333333,0,0,-1.3333333,0,151.18133)" />
    <path
       id="path9"
       d="m 131.07651,38.99309 -0.0431,0.49223 -0.12787,0.47728 -0.20883,0.44782 -0.28342,0.40475 -0.3494,0.34938 -0.40472,0.28342 -0.44785,0.20881 -0.47726,0.12789 -0.49222,0.04307 -0.49225,-0.04307 -0.47726,-0.12789 -0.44783,-0.20881 -0.40474,-0.28342 -0.3494,-0.34938 -0.28341,-0.40475 -0.20882,-0.44782 -0.12788,-0.47728 -0.0431,-0.49223 0.0431,-0.49224 0.12788,-0.47726 0.20882,-0.44781 0.28341,-0.40476 0.54691,-0.50087 0.20723,-0.13194 0.44783,-0.20882 0.47726,-0.12788 0.49225,-0.04306 0.49222,0.04306 0.47726,0.12788 0.44785,0.20882 0.40472,0.28341 0.3494,0.3494 0.28342,0.40476 0.20883,0.44781 0.12787,0.47726 z"
       style="fill:#e0e0e0;fill-opacity:1;fill-rule:nonzero;stroke:none"
       transform="matrix(1.3333333,0,0,-1.3333333,0,151.18133)" />
    <path
       id="path10"
       d="m 182.10013,38.99309 -0.0431,0.49223 -0.12787,0.47728 -0.20883,0.44782 -0.28342,0.40475 -0.34936,0.34938 -0.40476,0.28342 -0.44781,0.20881 -0.4773,0.12789 -0.49222,0.04307 -0.49225,-0.04307 -0.47726,-0.12789 -0.44781,-0.20881 -0.40476,-0.28342 -0.3494,-0.34938 -0.28341,-0.40475 -0.2088,-0.44782 -0.1279,-0.47728 -0.0431,-0.49223 0.0431,-0.49224 0.1279,-0.47726 0.2088,-0.44781 0.28341,-0.40476 0.54691,-0.50087 0.20725,-0.13194 0.44781,-0.20882 0.47726,-0.12788 0.49225,-0.04306 0.49222,0.04306 0.4773,0.12788 0.44781,0.20882 0.40476,0.28341 0.34936,0.3494 0.28342,0.40476 0.20883,0.44781 0.12787,0.47726 z"
       style="fill:#e0e0e0;fill-opacity:1;fill-rule:nonzero;stroke:none"
       transform="matrix(1.3333333,0,0,-1.3333333,0,151.18133)" />
    <path
       id="path11"
       d="m 187.76944,38.99309 -0.0431,0.49223 -0.1279,0.47728 -0.20883,0.44782 -0.28339,0.40475 -0.34939,0.34938 -0.40476,0.28342 -0.44781,0.20881 -0.47727,0.12789 -0.49225,0.04307 -0.49221,-0.04307 -0.4773,-0.12789 -0.44781,-0.20881 -0.40476,-0.28342 -0.34936,-0.34938 -0.28342,-0.40475 -0.20883,-0.44782 -0.12787,-0.47728 -0.0431,-0.49223 0.0431,-0.49224 0.12787,-0.47726 0.20883,-0.44781 0.28342,-0.40476 0.5469,-0.50087 0.20722,-0.13194 0.44781,-0.20882 0.4773,-0.12788 0.49221,-0.04306 0.49225,0.04306 0.47727,0.12788 0.44781,0.20882 0.40476,0.28341 0.34939,0.3494 0.28339,0.40476 0.20883,0.44781 0.1279,0.47726 z"
       style="fill:#e0e0e0;fill-opacity:1;fill-rule:nonzero;stroke:none"
       transform="matrix(1.3333333,0,0,-1.3333333,0,151.18133)" />
    <path
       id="path12"
       d="m 238.79306,38.99309 -0.0431,0.49223 -0.1279,0.47728 -0.2088,0.44782 -0.28342,0.40475 -0.34939,0.34938 -0.40476,0.28342 -0.44781,0.20881 -0.47727,0.12789 -0.49225,0.04307 -0.49221,-0.04307 -0.4773,-0.12789 -0.44781,-0.20881 -0.40476,-0.28342 -0.34936,-0.34938 -0.28342,-0.40475 -0.20883,-0.44782 -0.12787,-0.47728 -0.0431,-0.49223 0.0431,-0.49224 0.12787,-0.47726 0.20883,-0.44781 0.28342,-0.40476 0.5469,-0.50087 0.20722,-0.13194 0.44781,-0.20882 0.4773,-0.12788 0.49221,-0.04306 0.49225,0.04306 0.47727,0.12788 0.44781,0.20882 0.40476,0.28341 0.34939,0.3494 0.28342,0.40476 0.2088,0.44781 0.1279,0.47726 z"
       style="fill:#e0e0e0;fill-opacity:1;fill-rule:nonzero;stroke:none"
       transform="matrix(1.3333333,0,0,-1.3333333,0,151.18133)" />
    <path
       id="path13"
       d="m 244.46234,38.99309 -0.0431,0.49223 -0.1279,0.47728 -0.2088,0.44782 -0.28342,0.40475 -0.34939,0.34938 -0.40476,0.28342 -0.44781,0.20881 -0.47727,0.12789 -0.49221,0.04307 -0.49225,-0.04307 -0.47727,-0.12789 -0.44781,-0.20881 -0.40476,-0.28342 -0.34939,-0.34938 -0.28342,-0.40475 -0.2088,-0.44782 -0.1279,-0.47728 -0.0431,-0.49223 0.0431,-0.49224 0.1279,-0.47726 0.2088,-0.44781 0.28342,-0.40476 0.5469,-0.50087 0.20725,-0.13194 0.44781,-0.20882 0.47727,-0.12788 0.49225,-0.04306 0.49221,0.04306 0.47727,0.12788 0.44781,0.20882 0.40476,0.28341 0.34939,0.3494 0.28342,0.40476 0.2088,0.44781 0.1279,0.47726 z"
       style="fill:#e0e0e0;fill-opacity:1;fill-rule:nonzero;stroke:none"
       transform="matrix(1.3333333,0,0,-1.3333333,0,151.18133)" />
    <path
       id="path14"
       d="m 295.48596,38.99309 -0.0431,0.49223 -0.1279,0.47728 -0.2088,0.44782 -0.28342,0.40475 -0.34939,0.34938 -0.40476,0.28342 -0.44781,0.20881 -0.47727,0.12789 -0.49224,0.04307 -0.49222,-0.04307 -0.47727,-0.12789 -0.44784,-0.20881 -0.40473,-0.28342 -0.34939,-0.34938 -0.28342,-0.40475 -0.20883,-0.44782 -0.12787,-0.47728 -0.0431,-0.49223 0.0431,-0.49224 0.12787,-0.47726 0.20883,-0.44781 0.28342,-0.40476 0.5469,-0.50087 0.20722,-0.13194 0.44784,-0.20882 0.47727,-0.12788 0.49222,-0.04306 0.49224,0.04306 0.47727,0.12788 0.44781,0.20882 0.40476,0.28341 0.34939,0.3494 0.28342,0.40476 0.2088,0.44781 0.1279,0.47726 z"
       style="fill:#e0e0e0;fill-opacity:1;fill-rule:nonzero;stroke:none"
       transform="matrix(1.3333333,0,0,-1.3333333,0,151.18133)" />
    <path
       id="path15"
       d="m 301.15524,38.99309 -0.0431,0.49223 -0.12787,0.47728 -0.20883,0.44782 -0.28341,0.40475 -0.3494,0.34938 -0.40475,0.28342 -0.44782,0.20881 -0.47726,0.12789 -0.49222,0.04307 -0.49225,-0.04307 -0.47727,-0.12789 -0.44781,-0.20881 -0.40475,-0.28342 -0.3494,-0.34938 -0.28342,-0.40475 -0.2088,-0.44782 -0.1279,-0.47728 -0.0431,-0.49223 0.0431,-0.49224 0.1279,-0.47726 0.2088,-0.44781 0.28342,-0.40476 0.5469,-0.50087 0.20725,-0.13194 0.44781,-0.20882 0.47727,-0.12788 0.49225,-0.04306 0.49222,0.04306 0.47726,0.12788 0.44782,0.20882 0.40475,0.28341 0.3494,0.3494 0.28341,0.40476 0.20883,0.44781 0.12787,0.47726 z"
       style="fill:#e0e0e0;fill-opacity:1;fill-rule:nonzero;stroke:none"
       transform="matrix(1.3333333,0,0,-1.3333333,0,151.18133)" />
    <path
       id="path16"
       d="m 352.17886,38.99309 -0.0431,0.49223 -0.12787,0.47728 -0.20883,0.44782 -0.28341,0.40475 -0.3494,0.34938 -0.40472,0.28342 -0.44782,0.20881 -0.47729,0.12789 -0.49222,0.04307 -0.49225,-0.04307 -0.47726,-0.12789 -0.44782,-0.20881 -0.40475,-0.28342 -0.3494,-0.34938 -0.28342,-0.40475 -0.2088,-0.44782 -0.1279,-0.47728 -0.0431,-0.49223 0.0431,-0.49224 0.1279,-0.47726 0.2088,-0.44781 0.28342,-0.40476 0.54691,-0.50087 0.20724,-0.13194 0.44782,-0.20882 0.47726,-0.12788 0.49225,-0.04306 0.49222,0.04306 0.47729,0.12788 0.44782,0.20882 0.40472,0.28341 0.3494,0.3494 0.28341,0.40476 0.20883,0.44781 0.12787,0.47726 z"
       style="fill:#e0e0e0;fill-opacity:1;fill-rule:nonzero;stroke:none"
       transform="matrix(1.3333333,0,0,-1.3333333,0,151.18133)" />
    <path
       id="path17"
       d="m 357.84818,38.99309 -0.0431,0.49223 -0.12789,0.47728 -0.20884,0.44782 -0.28338,0.40475 -0.3494,0.34938 -0.40475,0.28342 -0.44782,0.20881 -0.47726,0.12789 -0.49225,0.04307 -0.49222,-0.04307 -0.47729,-0.12789 -0.44782,-0.20881 -0.40475,-0.28342 -0.34937,-0.34938 -0.28342,-0.40475 -0.20883,-0.44782 -0.12787,-0.47728 -0.0431,-0.49223 0.0431,-0.49224 0.12787,-0.47726 0.20883,-0.44781 0.28342,-0.40476 0.54691,-0.50087 0.20721,-0.13194 0.44782,-0.20882 0.47729,-0.12788 0.49222,-0.04306 0.49225,0.04306 0.47726,0.12788 0.44782,0.20882 0.40475,0.28341 0.3494,0.3494 0.28338,0.40476 0.20884,0.44781 0.12789,0.47726 z"
       style="fill:#e0e0e0;fill-opacity:1;fill-rule:nonzero;stroke:none"
       transform="matrix(1.3333333,0,0,-1.3333333,0,151.18133)" />
    <path
       id="path18"
       d="m 408.8718,38.99309 -0.0431,0.49223 -0.1279,0.47728 -0.20881,0.44782 -0.28341,0.40475 -0.3494,0.34938 -0.40475,0.28342 -0.44782,0.20881 -0.47726,0.12789 -0.49225,0.04307 -0.49222,-0.04307 -0.47729,-0.12789 -0.44782,-0.20881 -0.40475,-0.28342 -0.34937,-0.34938 -0.28341,-0.40475 -0.20884,-0.44782 -0.12787,-0.47728 -0.0431,-0.49223 0.0431,-0.49224 0.12787,-0.47726 0.20884,-0.44781 0.28341,-0.40476 0.54691,-0.50087 0.20721,-0.13194 0.44782,-0.20882 0.47729,-0.12788 0.49222,-0.04306 0.49225,0.04306 0.47726,0.12788 0.44782,0.20882 0.40475,0.28341 0.3494,0.3494 0.28341,0.40476 0.20881,0.44781 0.1279,0.47726 z"
       style="fill:#e0e0e0;fill-opacity:1;fill-rule:nonzero;stroke:none"
       transform="matrix(1.3333333,0,0,-1.3333333,0,151.18133)" />
    <path
       id="path19"
       d="m 414.54108,38.99309 -0.0431,0.49223 -0.1279,0.47728 -0.2088,0.44782 -0.28342,0.40475 -0.3494,0.34938 -0.40475,0.28342 -0.44782,0.20881 -0.47726,0.12789 -0.49225,0.04307 -0.49222,-0.04307 -0.47726,-0.12789 -0.44782,-0.20881 -0.40475,-0.28342 -0.3494,-0.34938 -0.28341,-0.40475 -0.2088,-0.44782 -0.1279,-0.47728 -0.0431,-0.49223 0.0431,-0.49224 0.1279,-0.47726 0.2088,-0.44781 0.28341,-0.40476 0.54691,-0.50087 0.20724,-0.13194 0.44782,-0.20882 0.47726,-0.12788 0.49222,-0.04306 0.49225,0.04306 0.47726,0.12788 0.44782,0.20882 0.40475,0.28341 0.3494,0.3494 0.28342,0.40476 0.2088,0.44781 0.1279,0.47726 z"
       style="fill:#e0e0e0;fill-opacity:1;fill-rule:nonzero;stroke:none"
       transform="matrix(1.3333333,0,0,-1.3333333,0,151.18133)" />
    <path
       id="path20"
       d="m 68.71431,38.99309 -0.04306,0.49223 -0.12788,0.47728 -0.20884,0.44782 -0.2834,0.40475 -0.34939,0.34938 -0.40476,0.28342 -0.44781,0.20881 -0.47728,0.12789 -0.49222,0.04307 -0.49223,-0.04307 -0.47728,-0.12789 -0.44782,-0.20881 -0.40475,-0.28342 -0.3494,-0.34938 -0.2834,-0.40475 -0.20882,-0.44782 -0.1279,-0.47728 -0.04306,-0.49223 0.04306,-0.49224 0.1279,-0.47726 0.20882,-0.44781 0.2834,-0.40476 0.54692,-0.50087 0.20723,-0.13194 0.44782,-0.20882 0.47728,-0.12788 0.49223,-0.04306 0.49222,0.04306 0.47728,0.12788 0.44781,0.20882 0.40476,0.28341 0.34939,0.3494 0.2834,0.40476 0.20884,0.44781 0.12788,0.47726 z"
       style="fill:#e0e0e0;fill-opacity:1;fill-rule:nonzero;stroke:none"
       transform="matrix(1.3333333,0,0,-1.3333333,0,151.18133)" />
    <path
       id="path21"
       d="m 74.38361,38.99309 -0.04308,0.49223 -0.12788,0.47728 -0.20882,0.44782 -0.28342,0.40475 -0.34938,0.34938 -0.40475,0.28342 -0.44782,0.20881 -0.47728,0.12789 -0.49223,0.04307 -0.49223,-0.04307 -0.47727,-0.12789 -0.44781,-0.20881 -0.40476,-0.28342 -0.34939,-0.34938 -0.2834,-0.40475 -0.20884,-0.44782 -0.12788,-0.47728 -0.04306,-0.49223 0.04306,-0.49224 0.12788,-0.47726 0.20884,-0.44781 0.2834,-0.40476 0.5469,-0.50087 0.20725,-0.13194 0.44781,-0.20882 0.47727,-0.12788 0.49223,-0.04306 0.49223,0.04306 0.47728,0.12788 0.44782,0.20882 0.40475,0.28341 0.34938,0.3494 0.28342,0.40476 0.20882,0.44781 0.12788,0.47726 z"
       style="fill:#e0e0e0;fill-opacity:1;fill-rule:nonzero;stroke:none"
       transform="matrix(1.3333333,0,0,-1.3333333,0,151.18133)" />
    <path
       id="path22"
       d="m 12.02139,38.99309 -0.04306,0.49223 -0.12788,0.47728 -0.20883,0.44782 -0.2834,0.40475 -0.3494,0.34938 -0.40476,0.28342 -0.44781,0.20881 L 9.67897,41.78467 9.18675,41.82774 8.69452,41.78467 8.21724,41.65678 7.76942,41.44797 7.36467,41.16455 7.01527,40.81517 6.73187,40.41042 6.52306,39.9626 6.39516,39.48532 6.3521,38.99309 l 0.04306,-0.49224 0.1279,-0.47726 0.20881,-0.44781 0.2834,-0.40476 0.54692,-0.50087 0.20723,-0.13194 0.44782,-0.20882 0.47728,-0.12788 0.49223,-0.04306 0.49222,0.04306 0.47728,0.12788 0.44781,0.20882 0.40476,0.28341 0.3494,0.3494 0.2834,0.40476 0.20883,0.44781 0.12788,0.47726 z"
       style="fill:#e0e0e0;fill-opacity:1;fill-rule:nonzero;stroke:none"
       transform="matrix(1.3333333,0,0,-1.3333333,0,151.18133)" />
    <path
       id="path23"
       d="m 17.69069,38.99309 -0.04308,0.49223 -0.12788,0.47728 -0.20882,0.44782 -0.28341,0.40475 -0.34938,0.34938 -0.40476,0.28342 -0.44781,0.20881 -0.47728,0.12789 -0.49224,0.04307 -0.49223,-0.04307 -0.47726,-0.12789 -0.44782,-0.20881 -0.40475,-0.28342 -0.3494,-0.34938 -0.2834,-0.40475 -0.20883,-0.44782 -0.12789,-0.47728 -0.04306,-0.49223 0.04306,-0.49224 0.12789,-0.47726 0.20883,-0.44781 0.2834,-0.40476 0.54691,-0.50087 0.20724,-0.13194 0.44782,-0.20882 0.47726,-0.12788 0.49223,-0.04306 0.49224,0.04306 0.47728,0.12788 0.44781,0.20882 0.40476,0.28341 0.34938,0.3494 0.28341,0.40476 0.20882,0.44781 0.12788,0.47726 z"
       style="fill:#e0e0e0;fill-opacity:1;fill-rule:nonzero;stroke:none"
       transform="matrix(1.3333333,0,0,-1.3333333,0,151.18133)" />
  </g>
  <path
     id="path24"
     d="m 68.71431,8.86147 2.97638,0.4252 V 8.43628 l -2.97638,0.42519 m 56.69292,0 -2.97638,0.4252 V 8.43628 l 2.97638,0.42519 2.97638,0.4252 V 8.43628 l -2.97638,0.42519 m 56.6929,0 -2.97638,0.4252 V 8.43628 l 2.97638,0.42519 m -113.38582,0 v 2.12599 m 0,-2.12599 V 6.73549 m 56.69292,2.12598 v 2.12599 m 0,-2.12599 V 6.73549 m 0,2.12598 v 2.12599 m 0,-2.12599 V 6.73549 m 56.6929,2.12598 v 2.12599 m 0,-2.12599 V 6.73549 M 68.71431,8.86147 V 21.98521 M 125.40723,8.86147 v 1.77166 11.35208 M 182.10013,8.86147 V 21.98521 M 68.71431,8.86147 v 0 m 113.38582,0 v 0"
     style="fill:none;stroke:#000000;stroke-width:0.3685;stroke-linecap:round;stroke-linejoin:round;stroke-miterlimit:10;stroke-dasharray:none;stroke-opacity:1"
     transform="matrix(1.3333333,0,0,-1.3333333,0,151.18133)" />
  <text
     id="text24"
     xml:space="preserve"
     transform="matrix(1.3333333,0,0,1.3333333,117.65359,135.31845)"
     clip-path="url(#clipPath25)"><tspan
       style="font-variant:normal;font-weight:normal;font-stretch:normal;font-size:10.0916px;font-family:'Palatino Linotype';writing-mode:lr-tb;fill:#000000;fill-opacity:1;fill-rule:nonzero;stroke:none"
       x="0 5.045805 7.5687075 12.614512"
       y="0"
       sodipodi:role="line"
       id="tspan24">0.10</tspan></text>
  <text
     id="text25"
     xml:space="preserve"
     transform="matrix(1.3333333,0,0,1.3333333,193.24413,135.31845)"
     clip-path="url(#clipPath26)"><tspan
       style="font-variant:normal;font-weight:normal;font-stretch:normal;font-size:10.0916px;font-family:'Palatino Linotype';writing-mode:lr-tb;fill:#000000;fill-opacity:1;fill-rule:nonzero;stroke:none"
       x="0 5.045805 7.5687075 12.614512"
       y="0"
       sodipodi:role="line"
       id="tspan25">0.10</tspan></text>
  <path
     id="path27"
     d="m 68.71431,8.86147 h 56.69292 56.6929 m -28.34644,58.47808 2.97638,0.42519 v -0.85039 l -2.97638,0.4252 m 28.34644,0 -2.97638,0.42519 v -0.85039 l 2.97638,0.4252 m -28.34644,0 v 2.12598 m 0,-2.12598 v -2.12597 m 28.34644,2.12597 v 2.12598 m 0,-2.12598 v -2.12597 m -28.34644,2.12597 V 67.22577 56.00096 m 28.34644,11.33859 V 56.00096 m -28.34644,11.33859 v 0 m 28.34644,0 v 0"
     style="fill:none;stroke:#000000;stroke-width:0.3685;stroke-linecap:round;stroke-linejoin:round;stroke-miterlimit:10;stroke-dasharray:none;stroke-opacity:1"
     transform="matrix(1.3333333,0,0,-1.3333333,0,151.18133)" />
  <text
     id="text27"
     xml:space="preserve"
     transform="matrix(1.3333333,0,0,1.3333333,212.17193,57.347693)"
     clip-path="url(#clipPath28)"><tspan
       style="font-variant:normal;font-weight:normal;font-stretch:normal;font-size:10.0916px;font-family:'Palatino Linotype';writing-mode:lr-tb;fill:#000000;fill-opacity:1;fill-rule:nonzero;stroke:none"
       x="0 5.045805 7.5687075 12.614512"
       y="0"
       sodipodi:role="line"
       id="tspan27">0.05</tspan></text>
  <path
     id="path29"
     d="m 153.75369,67.33955 h 28.34644"
     style="fill:none;stroke:#000000;stroke-width:0.3685;stroke-linecap:round;stroke-linejoin:round;stroke-miterlimit:10;stroke-dasharray:none;stroke-opacity:1"
     transform="matrix(1.3333333,0,0,-1.3333333,0,151.18133)" />
  <path
     id="path30"
     d="m 125.40723,38.99309 c 0,1.56553 -1.26912,2.83465 -2.83466,2.83465 m 0,0 c -1.56552,0 -2.83464,-1.26912 -2.83464,-2.83465 m 0,0 c 0,-1.56552 1.26912,-2.83464 2.83464,-2.83464 m 0,0 c 1.56554,0 2.83466,1.26912 2.83466,2.83464"
     style="fill:none;stroke:#000000;stroke-width:0.3685;stroke-linecap:round;stroke-linejoin:round;stroke-miterlimit:10;stroke-dasharray:none;stroke-opacity:1"
     transform="matrix(1.3333333,0,0,-1.3333333,0,151.18133)" />
  <path
     id="path31"
     d="m 131.07651,38.99309 c 0,1.56553 -1.26911,2.83465 -2.83463,2.83465 m 0,0 c -1.56555,0 -2.83465,-1.26912 -2.83465,-2.83465 m 0,0 c 0,-1.56552 1.2691,-2.83464 2.83465,-2.83464 m 0,0 c 1.56552,0 2.83463,1.26912 2.83463,2.83464"
     style="fill:none;stroke:#000000;stroke-width:0.3685;stroke-linecap:round;stroke-linejoin:round;stroke-miterlimit:10;stroke-dasharray:none;stroke-opacity:1"
     transform="matrix(1.3333333,0,0,-1.3333333,0,151.18133)" />
  <path
     id="path32"
     d="m 182.10013,38.99309 c 0,1.56553 -1.26911,2.83465 -2.83463,2.83465 m 0,0 c -1.56555,0 -2.83465,-1.26912 -2.83465,-2.83465 m 0,0 c 0,-1.56552 1.2691,-2.83464 2.83465,-2.83464 m 0,0 c 1.56552,0 2.83463,1.26912 2.83463,2.83464"
     style="fill:none;stroke:#000000;stroke-width:0.3685;stroke-linecap:round;stroke-linejoin:round;stroke-miterlimit:10;stroke-dasharray:none;stroke-opacity:1"
     transform="matrix(1.3333333,0,0,-1.3333333,0,151.18133)" />
  <path
     id="path33"
     d="m 187.76944,38.99309 c 0,1.56553 -1.26913,2.83465 -2.83466,2.83465 m 0,0 c -1.56552,0 -2.83465,-1.26912 -2.83465,-2.83465 m 0,0 c 0,-1.56552 1.26913,-2.83464 2.83465,-2.83464 m 0,0 c 1.56553,0 2.83466,1.26912 2.83466,2.83464"
     style="fill:none;stroke:#000000;stroke-width:0.3685;stroke-linecap:round;stroke-linejoin:round;stroke-miterlimit:10;stroke-dasharray:none;stroke-opacity:1"
     transform="matrix(1.3333333,0,0,-1.3333333,0,151.18133)" />
  <path
     id="path34"
     d="m 238.79306,38.99309 c 0,1.56553 -1.26913,2.83465 -2.83466,2.83465 m 0,0 c -1.56552,0 -2.83465,-1.26912 -2.83465,-2.83465 m 0,0 c 0,-1.56552 1.26913,-2.83464 2.83465,-2.83464 m 0,0 c 1.56553,0 2.83466,1.26912 2.83466,2.83464"
     style="fill:none;stroke:#000000;stroke-width:0.3685;stroke-linecap:round;stroke-linejoin:round;stroke-miterlimit:10;stroke-dasharray:none;stroke-opacity:1"
     transform="matrix(1.3333333,0,0,-1.3333333,0,151.18133)" />
  <path
     id="path35"
     d="m 244.46234,38.99309 c 0,1.56553 -1.2691,2.83465 -2.83462,2.83465 m 0,0 c -1.56556,0 -2.83466,-1.26912 -2.83466,-2.83465 m 0,0 c 0,-1.56552 1.2691,-2.83464 2.83466,-2.83464 m 0,0 c 1.56552,0 2.83462,1.26912 2.83462,2.83464"
     style="fill:none;stroke:#000000;stroke-width:0.3685;stroke-linecap:round;stroke-linejoin:round;stroke-miterlimit:10;stroke-dasharray:none;stroke-opacity:1"
     transform="matrix(1.3333333,0,0,-1.3333333,0,151.18133)" />
  <path
     id="path36"
     d="m 295.48596,38.99309 c 0,1.56553 -1.2691,2.83465 -2.83465,2.83465 m 0,0 c -1.56553,0 -2.83463,-1.26912 -2.83463,-2.83465 m 0,0 c 0,-1.56552 1.2691,-2.83464 2.83463,-2.83464 m 0,0 c 1.56555,0 2.83465,1.26912 2.83465,2.83464"
     style="fill:none;stroke:#000000;stroke-width:0.3685;stroke-linecap:round;stroke-linejoin:round;stroke-miterlimit:10;stroke-dasharray:none;stroke-opacity:1"
     transform="matrix(1.3333333,0,0,-1.3333333,0,151.18133)" />
  <path
     id="path37"
     d="m 301.15524,38.99309 c 0,1.56553 -1.2691,2.83465 -2.83462,2.83465 m 0,0 c -1.56555,0 -2.83466,-1.26912 -2.83466,-2.83465 m 0,0 c 0,-1.56552 1.26911,-2.83464 2.83466,-2.83464 m 0,0 c 1.56552,0 2.83462,1.26912 2.83462,2.83464"
     style="fill:none;stroke:#000000;stroke-width:0.3685;stroke-linecap:round;stroke-linejoin:round;stroke-miterlimit:10;stroke-dasharray:none;stroke-opacity:1"
     transform="matrix(1.3333333,0,0,-1.3333333,0,151.18133)" />
  <path
     id="path38"
     d="m 352.17886,38.99309 c 0,1.56553 -1.2691,2.83465 -2.83462,2.83465 m 0,0 c -1.56555,0 -2.83466,-1.26912 -2.83466,-2.83465 m 0,0 c 0,-1.56552 1.26911,-2.83464 2.83466,-2.83464 m 0,0 c 1.56552,0 2.83462,1.26912 2.83462,2.83464"
     style="fill:none;stroke:#000000;stroke-width:0.3685;stroke-linecap:round;stroke-linejoin:round;stroke-miterlimit:10;stroke-dasharray:none;stroke-opacity:1"
     transform="matrix(1.3333333,0,0,-1.3333333,0,151.18133)" />
  <path
     id="path39"
     d="m 357.84818,38.99309 c 0,1.56553 -1.26914,2.83465 -2.83466,2.83465 m 0,0 c -1.56552,0 -2.83466,-1.26912 -2.83466,-2.83465 m 0,0 c 0,-1.56552 1.26914,-2.83464 2.83466,-2.83464 m 0,0 c 1.56552,0 2.83466,1.26912 2.83466,2.83464"
     style="fill:none;stroke:#000000;stroke-width:0.3685;stroke-linecap:round;stroke-linejoin:round;stroke-miterlimit:10;stroke-dasharray:none;stroke-opacity:1"
     transform="matrix(1.3333333,0,0,-1.3333333,0,151.18133)" />
  <path
     id="path40"
     d="m 408.8718,38.99309 c 0,1.56553 -1.26914,2.83465 -2.83466,2.83465 m 0,0 c -1.56552,0 -2.83466,-1.26912 -2.83466,-2.83465 m 0,0 c 0,-1.56552 1.26914,-2.83464 2.83466,-2.83464 m 0,0 c 1.56552,0 2.83466,1.26912 2.83466,2.83464"
     style="fill:none;stroke:#000000;stroke-width:0.3685;stroke-linecap:round;stroke-linejoin:round;stroke-miterlimit:10;stroke-dasharray:none;stroke-opacity:1"
     transform="matrix(1.3333333,0,0,-1.3333333,0,151.18133)" />
  <path
     id="path41"
     d="m 414.54108,38.99309 c 0,1.56553 -1.26911,2.83465 -2.83466,2.83465 m 0,0 c -1.56552,0 -2.83462,-1.26912 -2.83462,-2.83465 m 0,0 c 0,-1.56552 1.2691,-2.83464 2.83462,-2.83464 m 0,0 c 1.56555,0 2.83466,1.26912 2.83466,2.83464"
     style="fill:none;stroke:#000000;stroke-width:0.3685;stroke-linecap:round;stroke-linejoin:round;stroke-miterlimit:10;stroke-dasharray:none;stroke-opacity:1"
     transform="matrix(1.3333333,0,0,-1.3333333,0,151.18133)" />
  <path
     id="path42"
     d="m 68.71431,38.99309 c 0,1.56553 -1.26912,2.83465 -2.83464,2.83465 m 0,0 c -1.56554,0 -2.83466,-1.26912 -2.83466,-2.83465 m 0,0 c 0,-1.56552 1.26912,-2.83464 2.83466,-2.83464 m 0,0 c 1.56552,0 2.83464,1.26912 2.83464,2.83464"
     style="fill:none;stroke:#000000;stroke-width:0.3685;stroke-linecap:round;stroke-linejoin:round;stroke-miterlimit:10;stroke-dasharray:none;stroke-opacity:1"
     transform="matrix(1.3333333,0,0,-1.3333333,0,151.18133)" />
  <path
     id="path43"
     d="m 74.38361,38.99309 c 0,1.56553 -1.26912,2.83465 -2.83466,2.83465 m 0,0 c -1.56552,0 -2.83464,-1.26912 -2.83464,-2.83465 m 0,0 c 0,-1.56552 1.26912,-2.83464 2.83464,-2.83464 m 0,0 c 1.56554,0 2.83466,1.26912 2.83466,2.83464"
     style="fill:none;stroke:#000000;stroke-width:0.3685;stroke-linecap:round;stroke-linejoin:round;stroke-miterlimit:10;stroke-dasharray:none;stroke-opacity:1"
     transform="matrix(1.3333333,0,0,-1.3333333,0,151.18133)" />
  <path
     id="path44"
     d="m 12.02139,38.99309 c 0,1.56553 -1.26912,2.83465 -2.83464,2.83465 m 0,0 c -1.56553,0 -2.83465,-1.26912 -2.83465,-2.83465 m 0,0 c 0,-1.56552 1.26912,-2.83464 2.83465,-2.83464 m 0,0 c 1.56552,0 2.83464,1.26912 2.83464,2.83464"
     style="fill:none;stroke:#000000;stroke-width:0.3685;stroke-linecap:round;stroke-linejoin:round;stroke-miterlimit:10;stroke-dasharray:none;stroke-opacity:1"
     transform="matrix(1.3333333,0,0,-1.3333333,0,151.18133)" />
  <path
     id="path45"
     d="m 17.69069,38.99309 c 0,1.56553 -1.26912,2.83465 -2.83466,2.83465 m 0,0 c -1.56552,0 -2.83464,-1.26912 -2.83464,-2.83465 m 0,0 c 0,-1.56552 1.26912,-2.83464 2.83464,-2.83464 m 0,0 c 1.56554,0 2.83466,1.26912 2.83466,2.83464"
     style="fill:none;stroke:#000000;stroke-width:0.3685;stroke-linecap:round;stroke-linejoin:round;stroke-miterlimit:10;stroke-dasharray:none;stroke-opacity:1"
     transform="matrix(1.3333333,0,0,-1.3333333,0,151.18133)" />
  <text
     id="text45"
     xml:space="preserve"
     transform="matrix(1.3333333,0,0,1.3333333,89.83036,30.392507)"
     clip-path="url(#clipPath46)"><tspan
       style="font-style:italic;font-variant:normal;font-weight:normal;font-stretch:normal;font-size:10.0071px;font-family:'Palatino Linotype';writing-mode:lr-tb;fill:#000000;fill-opacity:1;fill-rule:nonzero;stroke:none"
       x="0"
       y="0"
       id="tspan45">X</tspan></text>
  <text
     id="text46"
     xml:space="preserve"
     transform="matrix(1.3333333,0,0,1.3333333,20.03552,22.246)"
     clip-path="url(#clipPath47)"><tspan
       style="font-style:italic;font-variant:normal;font-weight:normal;font-stretch:normal;font-size:10.0071px;font-family:'Palatino Linotype';writing-mode:lr-tb;fill:#000000;fill-opacity:1;fill-rule:nonzero;stroke:none"
       x="0"
       y="0"
       id="tspan46">Y</tspan></text>
  <text
     id="text47"
     xml:space="preserve"
     transform="matrix(1.3333333,0,0,1.3333333,35.229973,86.624067)"
     clip-path="url(#clipPath48)"><tspan
       style="font-style:italic;font-variant:normal;font-weight:normal;font-stretch:normal;font-size:10.0071px;font-family:'Palatino Linotype';writing-mode:lr-tb;fill:#000000;fill-opacity:1;fill-rule:nonzero;stroke:none"
       x="0"
       y="0"
       id="tspan47">Z</tspan></text>
</svg>
