<?xml version="1.0" encoding="UTF-8" standalone="no"?>
<!-- Created with Inkscape (http://www.inkscape.org/) -->

<svg
   version="1.1"
   id="svg1"
   width="566.92932"
   height="170.07867"
   viewBox="0 0 566.92932 170.07867"
   sodipodi:docname="jag_system_qs.pdf"
   xmlns:inkscape="http://www.inkscape.org/namespaces/inkscape"
   xmlns:sodipodi="http://sodipodi.sourceforge.net/DTD/sodipodi-0.dtd"
   xmlns="http://www.w3.org/2000/svg"
   xmlns:svg="http://www.w3.org/2000/svg">
  <defs
     id="defs1">
    <clipPath
       clipPathUnits="userSpaceOnUse"
       id="clipPath20">
      <path
         d="M -0.00426,-0.00128 V 127.56033 H 425.20111 V -0.00128 H -0.00426"
         transform="matrix(1,0,0,-1,-161.38066,60.643122)"
         clip-rule="evenodd"
         id="path20" />
    </clipPath>
    <clipPath
       clipPathUnits="userSpaceOnUse"
       id="clipPath21">
      <path
         d="M -0.00426,-0.00128 V 127.56033 H 425.20111 V -0.00128 H -0.00426"
         transform="matrix(1,0,0,-1,-205.89645,60.643122)"
         clip-rule="evenodd"
         id="path21" />
    </clipPath>
    <clipPath
       clipPathUnits="userSpaceOnUse"
       id="clipPath22">
      <path
         d="M -0.00426,-0.00128 V 127.56033 H 425.20111 V -0.00128 H -0.00426"
         transform="matrix(1,0,0,-1,-216.47704,60.643122)"
         clip-rule="evenodd"
         id="path22" />
    </clipPath>
    <clipPath
       clipPathUnits="userSpaceOnUse"
       id="clipPath24">
      <path
         d="M -0.00426,-0.00128 V 127.56033 H 425.20111 V -0.00128 H -0.00426"
         transform="matrix(1,0,0,-1,-203.77788,8.5768702)"
         clip-rule="evenodd"
         id="path24" />
    </clipPath>
    <clipPath
       clipPathUnits="userSpaceOnUse"
       id="clipPath26">
      <path
         d="M -0.00426,-0.00128 V 127.56033 H 425.20111 V -0.00128 H -0.00426"
         transform="matrix(1,0,0,-1,-103.76242,80.482472)"
         clip-rule="evenodd"
         id="path26" />
    </clipPath>
    <clipPath
       clipPathUnits="userSpaceOnUse"
       id="clipPath27">
      <path
         d="M -0.00426,-0.00128 V 127.56033 H 425.20111 V -0.00128 H -0.00426"
         transform="matrix(1,0,0,-1,-96.165205,112.67151)"
         clip-rule="evenodd"
         id="path27" />
    </clipPath>
    <clipPath
       clipPathUnits="userSpaceOnUse"
       id="clipPath28">
      <path
         d="M -0.00426,-0.00128 V 127.56033 H 425.20111 V -0.00128 H -0.00426"
         transform="matrix(1,0,0,-1,-131.06262,108.59825)"
         clip-rule="evenodd"
         id="path28" />
    </clipPath>
  </defs>
  <sodipodi:namedview
     id="namedview1"
     pagecolor="#ffffff"
     bordercolor="#000000"
     borderopacity="0.25"
     inkscape:showpageshadow="2"
     inkscape:pageopacity="0.0"
     inkscape:pagecheckerboard="0"
     inkscape:deskcolor="#d1d1d1">
    <inkscape:page
       x="0"
       y="0"
       inkscape:label="1"
       id="page1"
       width="566.92932"
       height="170.07867"
       margin="0"
       bleed="0" />
  </sodipodi:namedview>
  <g
     id="layer-MC0"
     inkscape:groupmode="layer"
     inkscape:label="STABBEANSPR_DIAG">
    <path
       id="path1"
       d="m 138.33075,49.44115 -0.41797,0.1949 -0.44546,0.11935 -0.45942,0.04019 -0.45941,-0.04019 -0.44546,-0.11935 -0.41797,-0.1949 -0.37775,-0.26451 -0.32611,-0.32612 -0.26449,-0.37776 -0.19492,-0.41797 -0.11935,-0.44545 -0.0402,-0.45941 0.0402,-0.45942 0.11935,-0.44545 0.19492,-0.41797 0.26449,-0.37776 0.32611,-0.3261 0.37775,-0.26451 0.41797,-0.1949 0.44546,-0.11937 0.45941,-0.04019 0.45942,0.04019 0.44546,0.11937 0.41797,0.1949 0.37775,0.26451 0.32611,0.3261 0.26452,0.37776 0.19489,0.41797 0.11935,0.44545 0.0402,0.45942 -0.0402,0.45941 -0.11935,0.44545 -0.19489,0.41797 -0.26452,0.37776 -0.32611,0.32612 z m 36.01303,0.31425 -0.44546,-0.11935 -0.41797,-0.1949 -0.37778,-0.26451 -0.32608,-0.32612 -0.26453,-0.37776 -0.19488,-0.41797 -0.11936,-0.44545 -0.0402,-0.45941 0.0402,-0.45942 0.11936,-0.44545 0.19488,-0.41797 0.26453,-0.37776 0.32608,-0.3261 0.37778,-0.26451 0.41797,-0.1949 0.44546,-0.11937 0.45941,-0.04019 0.45941,0.04019 0.44547,0.11937 0.41794,0.1949 0.37777,0.26451 0.32612,0.3261 0.26449,0.37776 0.19492,0.41797 0.11935,0.44545 0.0402,0.45942 -0.0402,0.45941 -0.11935,0.44545 -0.19492,0.41797 -0.26449,0.37776 -0.32612,0.32612 -0.37777,0.26451 -0.41794,0.1949 -0.44547,0.11935 -0.45941,0.04019 z m 39.15955,-0.11935 -0.44544,0.11935 -0.45944,0.04019 -0.45941,-0.04019 -0.44544,-0.11935 -0.41797,-0.1949 -0.37777,-0.26451 -0.32611,-0.32612 -0.2645,-0.37776 -0.19491,-0.41797 -0.11936,-0.44545 -0.0402,-0.45941 0.0402,-0.45942 0.11936,-0.44545 0.19491,-0.41797 0.2645,-0.37776 0.32611,-0.3261 0.37777,-0.26451 0.41797,-0.1949 0.44544,-0.11937 0.45941,-0.04019 0.45944,0.04019 0.44544,0.11937 0.41797,0.1949 0.37777,0.26451 0.32608,0.3261 0.26453,0.37776 0.19488,0.41797 0.11939,0.44545 0.0402,0.45942 -0.0402,0.45941 -0.11939,0.44545 -0.19488,0.41797 -0.26453,0.37776 -0.32608,0.32612 -0.37777,0.26451 z m 36.89041,0.15954 -0.45941,-0.04019 -0.44547,-0.11935 -0.41797,-0.1949 -0.37774,-0.26451 -0.32612,-0.32612 -0.26452,-0.37776 -0.19489,-0.41797 -0.11935,-0.44545 -0.0402,-0.45941 0.0402,-0.45942 0.11935,-0.44545 0.19489,-0.41797 0.26452,-0.37776 0.32612,-0.3261 0.37774,-0.26451 0.41797,-0.1949 0.44547,-0.11937 0.45941,-0.04019 0.45941,0.04019 0.44546,0.11937 0.41797,0.1949 0.37775,0.26451 0.32611,0.3261 0.26453,0.37776 0.19488,0.41797 0.11936,0.44545 0.0402,0.45942 -0.0402,0.45941 -0.11936,0.44545 -0.19488,0.41797 -0.26453,0.37776 -0.32611,0.32612 -0.37775,0.26451 -0.41797,0.1949 -0.44546,0.11935 z m 39.1181,-0.35444 -0.41797,0.1949 -0.44543,0.11935 -0.45944,0.04019 -0.45942,-0.04019 -0.44543,-0.11935 -0.41797,-0.1949 -0.37778,-0.26451 -0.32608,-0.32612 -0.26452,-0.37776 -0.19492,-0.41797 -0.11935,-0.44545 -0.0402,-0.45941 0.0402,-0.45942 0.11935,-0.44545 0.19492,-0.41797 0.26452,-0.37776 0.32608,-0.3261 0.37778,-0.26451 0.41797,-0.1949 0.44543,-0.11937 0.45942,-0.04019 0.45944,0.04019 0.44543,0.11937 0.41797,0.1949 0.37778,0.26451 0.32608,0.3261 0.26452,0.37776 0.19492,0.41797 0.11935,0.44545 0.0402,0.45942 -0.0402,0.45941 -0.11935,0.44545 -0.19492,0.41797 -0.26452,0.37776 -0.32608,0.32612 z"
       style="fill:#909090;fill-opacity:1;fill-rule:nonzero;stroke:none"
       transform="matrix(1.3333333,0,0,-1.3333333,0,170.07867)" />
    <path
       id="path2"
       d="m 138.33075,78.11856 0.37775,0.26451 0.32611,0.3261 0.26452,0.37777 0.19489,0.41796 0.11935,0.44546 0.0402,0.45941 -0.0402,0.45942 -0.11935,0.44546 -0.19489,0.41795 -0.26452,0.37778 -0.32611,0.3261 -0.37775,0.26451 -0.41797,0.1949 -0.44546,0.11935 -0.45942,0.04021 -0.45941,-0.04021 -0.44546,-0.11935 -0.41797,-0.1949 -0.37775,-0.26451 -0.32611,-0.3261 -0.26449,-0.37778 -0.19492,-0.41795 -0.11935,-0.44546 -0.0402,-0.45942 0.0402,-0.45941 0.11935,-0.44546 0.19492,-0.41796 0.26449,-0.37777 0.32611,-0.3261 0.37775,-0.26451 0.41797,-0.1949 0.44546,-0.11935 0.45941,-0.04021 0.45942,0.04021 0.44546,0.11935 z m 36.01303,-0.31425 0.45941,-0.04021 0.45941,0.04021 0.44547,0.11935 0.41794,0.1949 0.37777,0.26451 0.32612,0.3261 0.26449,0.37777 0.19492,0.41796 0.11935,0.44546 0.0402,0.45941 -0.0402,0.45942 -0.11935,0.44546 -0.19492,0.41795 -0.26449,0.37778 -0.32612,0.3261 -0.37777,0.26451 -0.41794,0.1949 -0.44547,0.11935 -0.45941,0.04021 -0.45941,-0.04021 -0.44546,-0.11935 -0.41797,-0.1949 -0.37778,-0.26451 -0.32608,-0.3261 -0.26453,-0.37778 -0.19488,-0.41795 -0.11936,-0.44546 -0.0402,-0.45942 0.0402,-0.45941 0.11936,-0.44546 0.19488,-0.41796 0.26453,-0.37777 0.32608,-0.3261 0.37778,-0.26451 0.41797,-0.1949 z m 39.15955,0.11935 0.41797,0.1949 0.37777,0.26451 0.32608,0.3261 0.26453,0.37777 0.19488,0.41796 0.11939,0.44546 0.0402,0.45941 -0.0402,0.45942 -0.11939,0.44546 -0.19488,0.41795 -0.26453,0.37778 -0.32608,0.3261 -0.37777,0.26451 -0.41797,0.1949 -0.44544,0.11935 -0.45944,0.04021 -0.45941,-0.04021 -0.44544,-0.11935 -0.41797,-0.1949 -0.37777,-0.26451 -0.32611,-0.3261 -0.2645,-0.37778 -0.19491,-0.41795 -0.11936,-0.44546 -0.0402,-0.45942 0.0402,-0.45941 0.11936,-0.44546 0.19491,-0.41796 0.2645,-0.37777 0.32611,-0.3261 0.37777,-0.26451 0.41797,-0.1949 0.44544,-0.11935 0.45941,-0.04021 0.45944,0.04021 z m 36.89041,-0.15956 0.45941,0.04021 0.44546,0.11935 0.41797,0.1949 0.37775,0.26451 0.32611,0.3261 0.26453,0.37777 0.19488,0.41796 0.11936,0.44546 0.0402,0.45941 -0.0402,0.45942 -0.11936,0.44546 -0.19488,0.41795 -0.26453,0.37778 -0.32611,0.3261 -0.37775,0.26451 -0.41797,0.1949 -0.44546,0.11935 -0.45941,0.04021 -0.45941,-0.04021 -0.44547,-0.11935 -0.41797,-0.1949 -0.37774,-0.26451 -0.32612,-0.3261 -0.26452,-0.37778 -0.19489,-0.41795 -0.11935,-0.44546 -0.0402,-0.45942 0.0402,-0.45941 0.11935,-0.44546 0.19489,-0.41796 0.26452,-0.37777 0.32612,-0.3261 0.37774,-0.26451 0.41797,-0.1949 0.44547,-0.11935 z m 39.1181,0.35446 0.37778,0.26451 0.32608,0.3261 0.26452,0.37777 0.19492,0.41796 0.11935,0.44546 0.0402,0.45941 -0.0402,0.45942 -0.11935,0.44546 -0.19492,0.41795 -0.26452,0.37778 -0.32608,0.3261 -0.37778,0.26451 -0.41797,0.1949 -0.44543,0.11935 -0.45944,0.04021 -0.45942,-0.04021 -0.44543,-0.11935 -0.41797,-0.1949 -0.37778,-0.26451 -0.32608,-0.3261 -0.26452,-0.37778 -0.19492,-0.41795 -0.11935,-0.44546 -0.0402,-0.45942 0.0402,-0.45941 0.11935,-0.44546 0.19492,-0.41796 0.26452,-0.37777 0.32608,-0.3261 0.37778,-0.26451 0.41797,-0.1949 0.44543,-0.11935 0.45942,-0.04021 0.45944,0.04021 0.44543,0.11935 z"
       style="fill:#909090;fill-opacity:1;fill-rule:nonzero;stroke:none"
       transform="matrix(1.3333333,0,0,-1.3333333,0,170.07867)" />
    <path
       id="path3"
       d="M 118.11026,35.4334 H 307.08664 V 92.12631 H 118.11026 Z m 16.5484,46.17478 0.0581,0.12442 0.26449,0.37778 0.0624,0.06238 0.0249,0.03653 0.0574,0.04576 0.18142,0.18143 0.88397,0.61897 h -12.41172 v 5.29134 h 177.6378 v -5.29134 h -12.57855 l 0.95077,-0.54893 0.10004,-0.07004 0.32608,-0.3261 0.1102,-0.15736 0.0491,-0.05289 0.0265,-0.05507 0.0787,-0.11246 0.19492,-0.41795 0.0228,-0.08522 0.0192,-0.03982 0.011,-0.07259 0.0664,-0.24783 0.0402,-0.45942 -0.0402,-0.45941 -0.0664,-0.24783 -0.011,-0.07259 -0.0192,-0.03981 -0.0228,-0.08523 -0.19492,-0.41796 -0.0787,-0.11245 -0.0265,-0.05507 -0.0491,-0.05289 -0.1102,-0.15736 -0.32608,-0.3261 -0.0351,-0.02458 -0.0159,-0.01718 -0.049,-0.02828 -0.27774,-0.19447 -0.30728,-0.14329 -0.049,-0.02828 -0.0229,-0.0052 -0.0389,-0.01811 -0.44543,-0.11935 -0.19138,-0.01676 -0.0703,-0.01605 -0.0609,0.0046 -0.13678,-0.01198 -0.45942,0.04021 -0.0852,0.02282 -0.0441,0.0033 -0.0683,0.02681 -0.24783,0.06641 -0.41797,0.1949 -0.37778,0.26451 -0.18142,0.18143 -0.0574,0.04576 -0.0249,0.03653 -0.0624,0.06238 -0.26452,0.37777 -0.058,0.12442 -0.0344,0.0505 -0.0213,0.06894 -0.0812,0.1741 -0.11935,0.44546 -0.004,0.04271 -0.007,0.02239 v 0.05656 l -0.0295,0.33775 0.0295,0.33776 v 0.05656 l 0.007,0.0224 0.004,0.0427 0.11935,0.44546 0.0812,0.1741 0.0213,0.06894 0.0344,0.05049 0.058,0.12442 0.26452,0.37778 0.0624,0.06238 0.0249,0.03653 0.0574,0.04576 0.18142,0.18143 0.88398,0.61897 h -36.32883 l 0.95074,-0.54893 0.10004,-0.07004 0.32611,-0.3261 0.1102,-0.15736 0.049,-0.05289 0.0265,-0.05507 0.0788,-0.11246 0.19488,-0.41795 0.0228,-0.08522 0.0192,-0.03982 0.0109,-0.07259 0.0664,-0.24783 0.0402,-0.45942 -0.0402,-0.45941 -0.0664,-0.24783 -0.0109,-0.07259 -0.0192,-0.03981 -0.0228,-0.08523 -0.19488,-0.41796 -0.0788,-0.11245 -0.0265,-0.05507 -0.049,-0.05289 -0.1102,-0.15736 -0.32611,-0.3261 -0.0351,-0.02458 -0.016,-0.01718 -0.049,-0.02828 -0.27771,-0.19447 -0.30728,-0.14329 -0.049,-0.02828 -0.0229,-0.0052 -0.0388,-0.01811 -0.44546,-0.11935 -0.19138,-0.01676 -0.0703,-0.01605 -0.0609,0.0046 -0.13678,-0.01198 -0.45941,0.04021 -0.0852,0.02282 -0.0441,0.0033 -0.0683,0.02681 -0.24783,0.06641 -0.41797,0.1949 -0.37774,0.26451 -0.18143,0.18143 -0.0574,0.04576 -0.0249,0.03653 -0.0624,0.06238 -0.26452,0.37777 -0.058,0.12442 -0.0344,0.0505 -0.0213,0.06894 -0.0812,0.1741 -0.11935,0.44546 -0.004,0.04271 -0.007,0.02239 v 0.05656 l -0.0295,0.33775 0.0295,0.33776 v 0.05656 l 0.007,0.0224 0.004,0.0427 0.11935,0.44546 0.0812,0.1741 0.0213,0.06894 0.0344,0.05049 0.058,0.12442 0.26452,0.37778 0.0624,0.06238 0.0249,0.03653 0.0574,0.04576 0.18143,0.18143 0.88397,0.61897 h -36.32886 l 0.95078,-0.54893 0.10003,-0.07004 0.32608,-0.3261 0.1102,-0.15736 0.0491,-0.05289 0.0265,-0.05507 0.0787,-0.11246 0.19488,-0.41795 0.0229,-0.08522 0.0192,-0.03982 0.011,-0.07259 0.0664,-0.24783 0.0402,-0.45942 -0.0402,-0.45941 -0.0664,-0.24783 -0.011,-0.07259 -0.0192,-0.03981 -0.0229,-0.08523 -0.19488,-0.41796 -0.0787,-0.11245 -0.0265,-0.05507 -0.0491,-0.05289 -0.1102,-0.15736 -0.32608,-0.3261 -0.0351,-0.02458 -0.0159,-0.01718 -0.049,-0.02828 -0.27774,-0.19447 -0.30729,-0.14329 -0.049,-0.02828 -0.0229,-0.0052 -0.0388,-0.01811 -0.44544,-0.11935 -0.19137,-0.01676 -0.0704,-0.01605 -0.0609,0.0046 -0.13678,-0.01198 -0.45941,0.04021 -0.0852,0.02282 -0.0441,0.0033 -0.0683,0.02681 -0.24784,0.06641 -0.41797,0.1949 -0.37777,0.26451 -0.18143,0.18143 -0.0574,0.04576 -0.0249,0.03653 -0.0624,0.06238 -0.2645,0.37777 -0.058,0.12442 -0.0345,0.0505 -0.0212,0.06894 -0.0812,0.1741 -0.11936,0.44546 -0.004,0.04271 -0.007,0.02239 v 0.05656 l -0.0295,0.33775 0.0295,0.33776 v 0.05656 l 0.007,0.0224 0.004,0.0427 0.11936,0.44546 0.0812,0.1741 0.0212,0.06894 0.0345,0.05049 0.058,0.12442 0.2645,0.37778 0.0624,0.06238 0.0249,0.03653 0.0574,0.04576 0.18143,0.18143 0.88397,0.61897 h -36.32883 l 0.95075,-0.54893 0.10003,-0.07004 0.32612,-0.3261 0.11016,-0.15736 0.0491,-0.05289 0.0265,-0.05507 0.0787,-0.11246 0.19492,-0.41795 0.0228,-0.08522 0.0192,-0.03982 0.0109,-0.07259 0.0664,-0.24783 0.0402,-0.45942 -0.0402,-0.45941 -0.0664,-0.24783 -0.0109,-0.07259 -0.0192,-0.03981 -0.0228,-0.08523 -0.19492,-0.41796 -0.0787,-0.11245 -0.0265,-0.05507 -0.0491,-0.05289 -0.11016,-0.15736 -0.32612,-0.3261 -0.0351,-0.02458 -0.0159,-0.01718 -0.049,-0.02828 -0.27774,-0.19447 -0.30728,-0.14329 -0.049,-0.02828 -0.0228,-0.0052 -0.0388,-0.01811 -0.44547,-0.11935 -0.19137,-0.01676 -0.0703,-0.01605 -0.0609,0.0046 -0.13675,-0.01198 -0.45941,0.04021 -0.0852,0.02282 -0.0441,0.0033 -0.0683,0.02681 -0.24783,0.06641 -0.41797,0.1949 -0.37778,0.26451 -0.18143,0.18143 -0.0574,0.04576 -0.0249,0.03653 -0.0624,0.06238 -0.26453,0.37777 -0.058,0.12442 -0.0344,0.0505 -0.0213,0.06894 -0.0812,0.1741 -0.11936,0.44546 -0.004,0.04271 -0.007,0.02239 v 0.05656 l -0.0296,0.33775 0.0296,0.33776 v 0.05656 l 0.007,0.0224 0.004,0.0427 0.11936,0.44546 0.0812,0.1741 0.0213,0.06894 0.0344,0.05049 0.058,0.12442 0.26453,0.37778 0.0624,0.06238 0.0249,0.03653 0.0574,0.04576 0.18143,0.18143 0.884,0.61897 h -36.32886 l 0.95075,-0.54893 0.10004,-0.07004 0.32611,-0.3261 0.1102,-0.15736 0.049,-0.05289 0.0265,-0.05507 0.0788,-0.11246 0.19489,-0.41795 0.0228,-0.08522 0.0192,-0.03982 0.0109,-0.07259 0.0664,-0.24783 0.0402,-0.45942 -0.0402,-0.45941 -0.0664,-0.24783 -0.0109,-0.07259 -0.0192,-0.03981 -0.0228,-0.08523 -0.19489,-0.41796 -0.0788,-0.11245 -0.0265,-0.05507 -0.049,-0.05289 -0.1102,-0.15736 -0.32611,-0.3261 -0.0351,-0.02458 -0.016,-0.01718 -0.049,-0.02828 -0.27771,-0.19447 -0.30728,-0.14329 -0.049,-0.02828 -0.0229,-0.0052 -0.0388,-0.01811 -0.44546,-0.11935 -0.19138,-0.01676 -0.0703,-0.01605 -0.061,0.0046 -0.13678,-0.01198 -0.45941,0.04021 -0.0852,0.02282 -0.0441,0.0033 -0.0683,0.02681 -0.24783,0.06641 -0.41797,0.1949 -0.37775,0.26451 -0.18142,0.18143 -0.0574,0.04576 -0.0249,0.03653 -0.0624,0.06238 -0.26449,0.37777 -0.0581,0.12442 -0.0344,0.0505 -0.0213,0.06894 -0.0812,0.1741 -0.11935,0.44546 -0.004,0.04271 -0.007,0.02239 v 0.05656 l -0.0295,0.33775 0.0295,0.33776 v 0.05656 l 0.007,0.0224 0.004,0.0427 0.11935,0.44546 0.0812,0.1741 0.0213,0.06894 0.0344,0.05049 z m 0.64865,-36.48495 -0.18142,0.18143 -0.0574,0.04576 -0.0249,0.03651 -0.0624,0.0624 -0.26449,0.37776 -0.0581,0.12443 -0.0344,0.05049 -0.0213,0.06894 -0.0812,0.17411 -0.11935,0.44545 -0.004,0.04271 -0.007,0.0224 v 0.05654 l -0.0295,0.33777 0.0295,0.33776 v 0.05656 l 0.007,0.02239 0.004,0.0427 0.11935,0.44545 0.0812,0.17412 0.0213,0.06893 0.0344,0.0505 0.0581,0.12442 0.26449,0.37776 0.0624,0.0624 0.0249,0.03653 0.0574,0.04576 0.18142,0.18143 0.37775,0.26451 0.41797,0.1949 0.24783,0.0664 0.0683,0.02681 0.0441,0.0033 0.0852,0.02283 0.45941,0.04019 0.13678,-0.01196 0.061,0.0046 0.0703,-0.01607 0.19138,-0.01674 0.44546,-0.11935 0.0388,-0.01811 0.0229,-0.0052 0.049,-0.02829 0.30728,-0.14328 0.27771,-0.19448 0.049,-0.02827 0.016,-0.01718 0.0351,-0.02458 0.32611,-0.32612 0.1102,-0.15734 0.049,-0.05289 0.0265,-0.05507 0.0788,-0.11246 0.19489,-0.41797 0.0228,-0.08522 0.0192,-0.03982 0.0109,-0.07257 0.0664,-0.24784 0.0402,-0.45941 -0.0402,-0.45942 -0.0664,-0.24784 -0.0109,-0.07257 -0.0192,-0.03982 -0.0228,-0.08522 -0.19489,-0.41797 -0.0788,-0.11246 -0.0265,-0.05505 -0.049,-0.05289 -0.1102,-0.15736 -0.32611,-0.3261 -0.0351,-0.0246 -0.55151,-0.59437 h 35.86468 l -0.884,0.61897 -0.18143,0.18143 -0.0574,0.04576 -0.0249,0.03651 -0.0624,0.0624 -0.26453,0.37776 -0.058,0.12443 -0.0344,0.05049 -0.0213,0.06894 -0.0812,0.17411 -0.11936,0.44545 -0.004,0.04271 -0.007,0.0224 v 0.05654 l -0.0296,0.33777 0.0296,0.33776 v 0.05656 l 0.007,0.02239 0.004,0.0427 0.11936,0.44545 0.0812,0.17412 0.0213,0.06893 0.0344,0.0505 0.058,0.12442 0.26453,0.37776 0.0624,0.0624 0.0249,0.03653 0.0574,0.04576 0.18143,0.18143 0.37778,0.26451 0.41797,0.1949 0.24783,0.0664 0.0683,0.02681 0.0441,0.0033 0.0852,0.02283 0.45941,0.04019 0.13675,-0.01196 0.0609,0.0046 0.0703,-0.01607 0.19137,-0.01674 0.44547,-0.11935 0.0388,-0.01811 0.0228,-0.0052 0.049,-0.02829 0.30728,-0.14328 0.27774,-0.19448 0.049,-0.02827 0.0159,-0.01718 0.0351,-0.02458 0.32612,-0.32612 0.11016,-0.15734 0.0491,-0.05289 0.0265,-0.05507 0.0787,-0.11246 0.19492,-0.41797 0.0228,-0.08522 0.0192,-0.03982 0.0109,-0.07257 0.0664,-0.24784 0.0402,-0.45941 -0.0402,-0.45942 -0.0664,-0.24784 -0.0109,-0.07257 -0.0192,-0.03982 -0.0228,-0.08522 -0.19492,-0.41797 -0.0787,-0.11246 -0.0265,-0.05505 -0.0491,-0.05289 -0.11016,-0.15736 -0.32612,-0.3261 -0.0351,-0.0246 -0.55148,-0.59437 h 35.86465 l -0.88397,0.61897 -0.18143,0.18143 -0.0574,0.04576 -0.0249,0.03651 -0.0624,0.0624 -0.2645,0.37776 -0.058,0.12443 -0.0345,0.05049 -0.0212,0.06894 -0.0812,0.17411 -0.11936,0.44545 -0.004,0.04271 -0.007,0.0224 v 0.05654 l -0.0295,0.33777 0.0295,0.33776 v 0.05656 l 0.007,0.02239 0.004,0.0427 0.11936,0.44545 0.0812,0.17412 0.0212,0.06893 0.0345,0.0505 0.058,0.12442 0.2645,0.37776 0.0624,0.0624 0.0249,0.03653 0.0574,0.04576 0.18143,0.18143 0.37777,0.26451 0.41797,0.1949 0.24784,0.0664 0.0683,0.02681 0.0441,0.0033 0.0852,0.02283 0.45941,0.04019 0.13678,-0.01196 0.0609,0.0046 0.0704,-0.01607 0.19137,-0.01674 0.44544,-0.11935 0.0388,-0.01811 0.0229,-0.0052 0.049,-0.02829 0.30729,-0.14328 0.27774,-0.19448 0.049,-0.02827 0.0159,-0.01718 0.0351,-0.02458 0.32608,-0.32612 0.1102,-0.15734 0.0491,-0.05289 0.0265,-0.05507 0.0787,-0.11246 0.19488,-0.41797 0.0229,-0.08522 0.0192,-0.03982 0.011,-0.07257 0.0664,-0.24784 0.0402,-0.45941 -0.0402,-0.45942 -0.0664,-0.24784 -0.011,-0.07257 -0.0192,-0.03982 -0.0229,-0.08522 -0.19488,-0.41797 -0.0787,-0.11246 -0.0265,-0.05505 -0.0491,-0.05289 -0.1102,-0.15736 -0.32608,-0.3261 -0.0351,-0.0246 -0.55152,-0.59437 h 35.86469 l -0.88397,0.61897 -0.18143,0.18143 -0.0574,0.04576 -0.0249,0.03651 -0.0624,0.0624 -0.26452,0.37776 -0.058,0.12443 -0.0344,0.05049 -0.0213,0.06894 -0.0812,0.17411 -0.11935,0.44545 -0.004,0.04271 -0.007,0.0224 v 0.05654 l -0.0295,0.33777 0.0295,0.33776 v 0.05656 l 0.007,0.02239 0.004,0.0427 0.11935,0.44545 0.0812,0.17412 0.0213,0.06893 0.0344,0.0505 0.058,0.12442 0.26452,0.37776 0.0624,0.0624 0.0249,0.03653 0.0574,0.04576 0.18143,0.18143 0.37774,0.26451 0.41797,0.1949 0.24783,0.0664 0.0683,0.02681 0.0441,0.0033 0.0852,0.02283 0.45941,0.04019 0.13678,-0.01196 0.0609,0.0046 0.0703,-0.01607 0.19138,-0.01674 0.44546,-0.11935 0.0388,-0.01811 0.0229,-0.0052 0.049,-0.02829 0.30728,-0.14328 0.27771,-0.19448 0.049,-0.02827 0.016,-0.01718 0.0351,-0.02458 0.32611,-0.32612 0.1102,-0.15734 0.049,-0.05289 0.0265,-0.05507 0.0788,-0.11246 0.19488,-0.41797 0.0228,-0.08522 0.0192,-0.03982 0.0109,-0.07257 0.0664,-0.24784 0.0402,-0.45941 -0.0402,-0.45942 -0.0664,-0.24784 -0.0109,-0.07257 -0.0192,-0.03982 -0.0228,-0.08522 -0.19488,-0.41797 -0.0788,-0.11246 -0.0265,-0.05505 -0.049,-0.05289 -0.1102,-0.15736 -0.32611,-0.3261 -0.0351,-0.0246 -0.55151,-0.59437 h 35.86466 l -0.88398,0.61897 -0.18142,0.18143 -0.0574,0.04576 -0.0249,0.03651 -0.0624,0.0624 -0.26452,0.37776 -0.058,0.12443 -0.0344,0.05049 -0.0213,0.06894 -0.0812,0.17411 -0.11935,0.44545 -0.004,0.04271 -0.007,0.0224 v 0.05654 l -0.0295,0.33777 0.0295,0.33776 v 0.05656 l 0.007,0.02239 0.004,0.0427 0.11935,0.44545 0.0812,0.17412 0.0213,0.06893 0.0344,0.0505 0.058,0.12442 0.26452,0.37776 0.0624,0.0624 0.0249,0.03653 0.0574,0.04576 0.18142,0.18143 0.37778,0.26451 0.41797,0.1949 0.24783,0.0664 0.0683,0.02681 0.0441,0.0033 0.0852,0.02283 0.45942,0.04019 0.13678,-0.01196 0.0609,0.0046 0.0703,-0.01607 0.19138,-0.01674 0.44543,-0.11935 0.0389,-0.01811 0.0229,-0.0052 0.049,-0.02829 0.30728,-0.14328 0.27774,-0.19448 0.049,-0.02827 0.0159,-0.01718 0.0351,-0.02458 0.32608,-0.32612 0.1102,-0.15734 0.0491,-0.05289 0.0265,-0.05507 0.0787,-0.11246 0.19492,-0.41797 0.0228,-0.08522 0.0192,-0.03982 0.011,-0.07257 0.0664,-0.24784 0.0402,-0.45941 -0.0402,-0.45942 -0.0664,-0.24784 -0.011,-0.07257 -0.0192,-0.03982 -0.0228,-0.08522 -0.19492,-0.41797 -0.0787,-0.11246 -0.0265,-0.05505 -0.0491,-0.05289 -0.1102,-0.15736 -0.32608,-0.3261 -0.0351,-0.0246 -0.55151,-0.59437 h 12.11438 v -5.29134 h -177.6378 v 5.29134 h 12.41172 l -0.88397,0.61897 z"
       style="fill:#e0e0e0;fill-opacity:1;fill-rule:nonzero;stroke:none"
       transform="matrix(1.3333333,0,0,-1.3333333,0,170.07867)" />
  </g>
  <path
     id="path4"
     d="m 139.65356,47.14993 c 0,1.46117 -1.1845,2.64566 -2.64566,2.64566 m 0,0 c -1.46115,0 -2.64566,-1.18449 -2.64566,-2.64566 m 0,0 c 0,-1.46116 1.18451,-2.64567 2.64566,-2.64567 m 0,0 c 1.46116,0 2.64566,1.18451 2.64566,2.64567"
     style="fill:none;stroke:#000000;stroke-width:0.51024;stroke-linecap:round;stroke-linejoin:round;stroke-miterlimit:10;stroke-dasharray:none;stroke-opacity:1"
     transform="matrix(1.3333333,0,0,-1.3333333,0,170.07867)" />
  <path
     id="path5"
     d="m 177.44885,47.14993 c 0,1.46117 -1.18451,2.64566 -2.64566,2.64566 m 0,0 c -1.46118,0 -2.64569,-1.18449 -2.64569,-2.64566 m 0,0 c 0,-1.46116 1.18451,-2.64567 2.64569,-2.64567 m 0,0 c 1.46115,0 2.64566,1.18451 2.64566,2.64567"
     style="fill:none;stroke:#000000;stroke-width:0.51024;stroke-linecap:round;stroke-linejoin:round;stroke-miterlimit:10;stroke-dasharray:none;stroke-opacity:1"
     transform="matrix(1.3333333,0,0,-1.3333333,0,170.07867)" />
  <path
     id="path6"
     d="m 215.24414,47.14993 c 0,1.46117 -1.18451,2.64566 -2.64569,2.64566 m 0,0 c -1.46115,0 -2.64566,-1.18449 -2.64566,-2.64566 m 0,0 c 0,-1.46116 1.18451,-2.64567 2.64566,-2.64567 m 0,0 c 1.46118,0 2.64569,1.18451 2.64569,2.64567"
     style="fill:none;stroke:#000000;stroke-width:0.51024;stroke-linecap:round;stroke-linejoin:round;stroke-miterlimit:10;stroke-dasharray:none;stroke-opacity:1"
     transform="matrix(1.3333333,0,0,-1.3333333,0,170.07867)" />
  <path
     id="path7"
     d="m 253.0394,47.14993 c 0,1.46117 -1.18451,2.64566 -2.64566,2.64566 m 0,0 c -1.46115,0 -2.64566,-1.18449 -2.64566,-2.64566 m 0,0 c 0,-1.46116 1.18451,-2.64567 2.64566,-2.64567 m 0,0 c 1.46115,0 2.64566,1.18451 2.64566,2.64567"
     style="fill:none;stroke:#000000;stroke-width:0.51024;stroke-linecap:round;stroke-linejoin:round;stroke-miterlimit:10;stroke-dasharray:none;stroke-opacity:1"
     transform="matrix(1.3333333,0,0,-1.3333333,0,170.07867)" />
  <path
     id="path8"
     d="m 290.83469,47.14993 c 0,1.46117 -1.18451,2.64566 -2.64569,2.64566 m 0,0 c -1.46116,0 -2.64567,-1.18449 -2.64567,-2.64566 m 0,0 c 0,-1.46116 1.18451,-2.64567 2.64567,-2.64567 m 0,0 c 1.46118,0 2.64569,1.18451 2.64569,2.64567"
     style="fill:none;stroke:#000000;stroke-width:0.51024;stroke-linecap:round;stroke-linejoin:round;stroke-miterlimit:10;stroke-dasharray:none;stroke-opacity:1"
     transform="matrix(1.3333333,0,0,-1.3333333,0,170.07867)" />
  <path
     id="path9"
     d="m 139.65356,80.40977 c 0,1.46117 -1.1845,2.64568 -2.64566,2.64568 m 0,0 c -1.46115,0 -2.64566,-1.18451 -2.64566,-2.64568 m 0,0 c 0,-1.46116 1.18451,-2.64567 2.64566,-2.64567 m 0,0 c 1.46116,0 2.64566,1.18451 2.64566,2.64567"
     style="fill:none;stroke:#000000;stroke-width:0.51024;stroke-linecap:round;stroke-linejoin:round;stroke-miterlimit:10;stroke-dasharray:none;stroke-opacity:1"
     transform="matrix(1.3333333,0,0,-1.3333333,0,170.07867)" />
  <path
     id="path10"
     d="m 177.44885,80.40977 c 0,1.46117 -1.18451,2.64568 -2.64566,2.64568 m 0,0 c -1.46118,0 -2.64569,-1.18451 -2.64569,-2.64568 m 0,0 c 0,-1.46116 1.18451,-2.64567 2.64569,-2.64567 m 0,0 c 1.46115,0 2.64566,1.18451 2.64566,2.64567"
     style="fill:none;stroke:#000000;stroke-width:0.51024;stroke-linecap:round;stroke-linejoin:round;stroke-miterlimit:10;stroke-dasharray:none;stroke-opacity:1"
     transform="matrix(1.3333333,0,0,-1.3333333,0,170.07867)" />
  <path
     id="path11"
     d="m 215.24414,80.40977 c 0,1.46117 -1.18451,2.64568 -2.64569,2.64568 m 0,0 c -1.46115,0 -2.64566,-1.18451 -2.64566,-2.64568 m 0,0 c 0,-1.46116 1.18451,-2.64567 2.64566,-2.64567 m 0,0 c 1.46118,0 2.64569,1.18451 2.64569,2.64567"
     style="fill:none;stroke:#000000;stroke-width:0.51024;stroke-linecap:round;stroke-linejoin:round;stroke-miterlimit:10;stroke-dasharray:none;stroke-opacity:1"
     transform="matrix(1.3333333,0,0,-1.3333333,0,170.07867)" />
  <path
     id="path12"
     d="m 253.0394,80.40977 c 0,1.46117 -1.18451,2.64568 -2.64566,2.64568 m 0,0 c -1.46115,0 -2.64566,-1.18451 -2.64566,-2.64568 m 0,0 c 0,-1.46116 1.18451,-2.64567 2.64566,-2.64567 m 0,0 c 1.46115,0 2.64566,1.18451 2.64566,2.64567"
     style="fill:none;stroke:#000000;stroke-width:0.51024;stroke-linecap:round;stroke-linejoin:round;stroke-miterlimit:10;stroke-dasharray:none;stroke-opacity:1"
     transform="matrix(1.3333333,0,0,-1.3333333,0,170.07867)" />
  <path
     id="path13"
     d="m 290.83469,80.40977 c 0,1.46117 -1.18451,2.64568 -2.64569,2.64568 m 0,0 c -1.46116,0 -2.64567,-1.18451 -2.64567,-2.64568 m 0,0 c 0,-1.46116 1.18451,-2.64567 2.64567,-2.64567 m 0,0 c 1.46118,0 2.64569,1.18451 2.64569,2.64567"
     style="fill:none;stroke:#000000;stroke-width:0.51024;stroke-linecap:round;stroke-linejoin:round;stroke-miterlimit:10;stroke-dasharray:none;stroke-opacity:1"
     transform="matrix(1.3333333,0,0,-1.3333333,0,170.07867)" />
  <path
     id="path14"
     d="M 118.11026,92.12631 H 307.08664 M 118.11026,35.4334 h 188.97638"
     style="fill:none;stroke:#000000;stroke-width:0.3685;stroke-linecap:round;stroke-linejoin:round;stroke-miterlimit:10;stroke-dasharray:none;stroke-opacity:1"
     transform="matrix(1.3333333,0,0,-1.3333333,0,170.07867)" />
  <path
     id="path15"
     d="m 109.81207,112.45335 c 0,1.50792 -1.22241,2.73032 -2.73031,2.73032 m 0,0 c -1.50791,0 -2.7303,-1.2224 -2.7303,-2.73032 m 0,0 c 0,-1.5079 1.22239,-2.7303 2.7303,-2.7303 m 0,0 c 1.5079,0 2.73031,1.2224 2.73031,2.7303"
     style="fill:none;stroke:#000000;stroke-width:0.3685;stroke-linecap:round;stroke-linejoin:round;stroke-miterlimit:10;stroke-dasharray:none;stroke-opacity:1"
     transform="matrix(1.3333333,0,0,-1.3333333,0,170.07867)" />
  <path
     id="path16"
     d="M 307.08664,92.12631 V 35.4334 M 118.11026,92.12631 V 35.4334 m 5.6693,9.07086 h 177.6378 m -177.6378,-5.29134 h 177.6378 m -177.6378,43.84253 h 177.6378 m -177.6378,5.29134 h 177.6378 v -5.29134 m 0,-38.55119 v -5.29134 m -177.6378,49.13387 v -5.29134 m 0,-38.55119 v -5.29134 m -16.6978,73.24043 h 21.99719 m -5.95274,0 H 122.701 m 6.37795,0 v 0 l -5.95274,0.85041 v -1.70078 l 5.95274,0.85037"
     style="fill:none;stroke:#000000;stroke-width:0.3685;stroke-linecap:round;stroke-linejoin:round;stroke-miterlimit:10;stroke-dasharray:none;stroke-opacity:1"
     transform="matrix(1.3333333,0,0,-1.3333333,0,170.07867)" />
  <path
     id="path17"
     d="m 123.12621,111.60298 5.95274,0.85037 -5.95274,0.85041 z"
     style="fill:#000000;fill-opacity:1;fill-rule:nonzero;stroke:none"
     transform="matrix(1.3333333,0,0,-1.3333333,0,170.07867)" />
  <path
     id="path18"
     d="M 107.08176,112.45335 V 91.00038 m 0,5.95276 v 0.4252 m 0,-6.37796 v 0 l 0.8504,5.95276 h -1.70079 l 0.85039,-5.95276"
     style="fill:none;stroke:#000000;stroke-width:0.3685;stroke-linecap:round;stroke-linejoin:round;stroke-miterlimit:10;stroke-dasharray:none;stroke-opacity:1"
     transform="matrix(1.3333333,0,0,-1.3333333,0,170.07867)" />
  <path
     id="path19"
     d="m 106.23137,96.95314 0.85039,-5.95276 0.8504,5.95276 z"
     style="fill:#000000;fill-opacity:1;fill-rule:nonzero;stroke:none"
     transform="matrix(1.3333333,0,0,-1.3333333,0,170.07867)" />
  <text
     id="text19"
     xml:space="preserve"
     transform="matrix(1.3333333,0,0,1.3333333,215.17421,89.221173)"
     clip-path="url(#clipPath20)"><tspan
       style="font-style:italic;font-variant:normal;font-weight:normal;font-stretch:normal;font-size:10.0071px;font-family:'Palatino Linotype';writing-mode:lr-tb;fill:#000000;fill-opacity:1;fill-rule:nonzero;stroke:none"
       x="0 4.4431658 7.2251477 10.00713 13.899903 16.401686 21.965651 26.408815 31.41238 35.305153 40.869118"
       y="0"
       sodipodi:role="line"
       id="tspan19">alle Lagen </tspan></text>
  <text
     id="text20"
     xml:space="preserve"
     transform="matrix(1.3333333,0,0,1.3333333,274.52859,89.221173)"
     clip-path="url(#clipPath21)"><tspan
       style="font-variant:normal;font-weight:normal;font-stretch:normal;font-size:10.616px;font-family:'Cambria Math';writing-mode:lr-tb;fill:#000000;fill-opacity:1;fill-rule:nonzero;stroke:none"
       x="0"
       y="0"
       id="tspan20">⊘</tspan></text>
  <text
     id="text21"
     xml:space="preserve"
     transform="matrix(1.3333333,0,0,1.3333333,288.63604,89.221173)"
     clip-path="url(#clipPath22)"><tspan
       style="font-style:italic;font-variant:normal;font-weight:normal;font-stretch:normal;font-size:10.0071px;font-family:'Palatino Linotype';writing-mode:lr-tb;fill:#000000;fill-opacity:1;fill-rule:nonzero;stroke:none"
       x="0 5.0035648 10.00713 12.508912 16.401686 18.903469 23.907034 26.408815 31.41238 36.415947 41.41951 49.205059"
       y="0"
       sodipodi:role="line"
       id="tspan21">14 s = 200mm</tspan></text>
  <path
     id="path23"
     d="m 118.11026,5.54118 2.97638,0.4252 V 5.116 l -2.97638,0.42518 m 188.97638,0 -2.97638,0.4252 V 5.116 l 2.97638,0.42518 m -188.97638,0 v 2.12598 m 0,-2.12598 V 3.41521 m 188.97638,2.12597 v 2.12598 m 0,-2.12598 V 3.41521 M 118.11026,5.54118 V 16.53575 M 307.08664,5.54118 V 16.53575 M 118.11026,5.54118 v 0 m 188.97638,0 v 0"
     style="fill:none;stroke:#000000;stroke-width:0.3685;stroke-linecap:round;stroke-linejoin:round;stroke-miterlimit:10;stroke-dasharray:none;stroke-opacity:1"
     transform="matrix(1.3333333,0,0,-1.3333333,0,170.07867)" />
  <text
     id="text23"
     xml:space="preserve"
     transform="matrix(1.3333333,0,0,1.3333333,271.70383,158.64284)"
     clip-path="url(#clipPath24)"><tspan
       style="font-variant:normal;font-weight:normal;font-stretch:normal;font-size:10.0916px;font-family:'Palatino Linotype';writing-mode:lr-tb;fill:#000000;fill-opacity:1;fill-rule:nonzero;stroke:none"
       x="0 5.045805 7.5687075 12.614512"
       y="0"
       sodipodi:role="line"
       id="tspan23">1.00</tspan></text>
  <path
     id="path25"
     d="m 118.11026,5.54118 h 20.21863 168.75775"
     style="fill:none;stroke:#000000;stroke-width:0.3685;stroke-linecap:round;stroke-linejoin:round;stroke-miterlimit:10;stroke-dasharray:none;stroke-opacity:1"
     transform="matrix(1.3333333,0,0,-1.3333333,0,170.07867)" />
  <text
     id="text25"
     xml:space="preserve"
     transform="matrix(1.3333333,0,0,1.3333333,138.34989,62.768707)"
     clip-path="url(#clipPath26)"><tspan
       style="font-style:italic;font-variant:normal;font-weight:normal;font-stretch:normal;font-size:10.0071px;font-family:'Palatino Linotype';writing-mode:lr-tb;fill:#000000;fill-opacity:1;fill-rule:nonzero;stroke:none"
       x="0"
       y="0"
       id="tspan25">Z</tspan></text>
  <text
     id="text26"
     xml:space="preserve"
     transform="matrix(1.3333333,0,0,1.3333333,128.22027,19.849987)"
     clip-path="url(#clipPath27)"><tspan
       style="font-style:italic;font-variant:normal;font-weight:normal;font-stretch:normal;font-size:10.0071px;font-family:'Palatino Linotype';writing-mode:lr-tb;fill:#000000;fill-opacity:1;fill-rule:nonzero;stroke:none"
       x="0"
       y="0"
       id="tspan26">X</tspan></text>
  <text
     id="text27"
     xml:space="preserve"
     transform="matrix(1.3333333,0,0,1.3333333,174.75016,25.281)"
     clip-path="url(#clipPath28)"><tspan
       style="font-style:italic;font-variant:normal;font-weight:normal;font-stretch:normal;font-size:10.0071px;font-family:'Palatino Linotype';writing-mode:lr-tb;fill:#000000;fill-opacity:1;fill-rule:nonzero;stroke:none"
       x="0"
       y="0"
       id="tspan27">Y</tspan></text>
</svg>
