<?xml version="1.0" encoding="UTF-8" standalone="no"?>
<!-- Created with Inkscape (http://www.inkscape.org/) -->

<svg
   version="1.1"
   id="svg1"
   width="566.92932"
   height="181.41733"
   viewBox="0 0 566.92932 181.41733"
   sodipodi:docname="jag_qs_fliessen.pdf"
   xmlns:inkscape="http://www.inkscape.org/namespaces/inkscape"
   xmlns:sodipodi="http://sodipodi.sourceforge.net/DTD/sodipodi-0.dtd"
   xmlns="http://www.w3.org/2000/svg"
   xmlns:svg="http://www.w3.org/2000/svg">
  <defs
     id="defs1">
    <clipPath
       clipPathUnits="userSpaceOnUse"
       id="clipPath21">
      <path
         d="M -0.00426,-0.00136 V 136.06436 H 425.20111 V -0.00136 H -0.00426"
         transform="matrix(0,1,1,0,-66.758492,-393.6558)"
         clip-rule="evenodd"
         id="path21" />
    </clipPath>
    <clipPath
       clipPathUnits="userSpaceOnUse"
       id="clipPath23">
      <path
         d="M -0.00426,-0.00136 V 136.06436 H 425.20111 V -0.00136 H -0.00426"
         transform="matrix(1,0,0,-1,-166.85244,9.0934077)"
         clip-rule="evenodd"
         id="path23" />
    </clipPath>
    <clipPath
       clipPathUnits="userSpaceOnUse"
       id="clipPath24">
      <path
         d="M -0.00426,-0.00136 V 136.06436 H 425.20111 V -0.00136 H -0.00426"
         transform="matrix(1,0,0,-1,-256.39182,9.0934077)"
         clip-rule="evenodd"
         id="path24" />
    </clipPath>
    <clipPath
       clipPathUnits="userSpaceOnUse"
       id="clipPath25">
      <path
         d="M -0.00426,-0.00136 V 136.06436 H 425.20111 V -0.00136 H -0.00426"
         transform="matrix(1,0,0,-1,-237.41328,120.06299)"
         clip-rule="evenodd"
         id="path25" />
    </clipPath>
    <clipPath
       clipPathUnits="userSpaceOnUse"
       id="clipPath26">
      <path
         d="M -0.00426,-0.00136 V 136.06436 H 425.20111 V -0.00136 H -0.00426"
         transform="matrix(1,0,0,-1,-240.841,115.92913)"
         clip-rule="evenodd"
         id="path26" />
    </clipPath>
    <clipPath
       clipPathUnits="userSpaceOnUse"
       id="clipPath28">
      <path
         d="M -0.00426,-0.00136 V 136.06436 H 425.20111 V -0.00136 H -0.00426"
         transform="matrix(0,1,1,0,-98.099082,-286.23153)"
         clip-rule="evenodd"
         id="path28" />
    </clipPath>
    <clipPath
       clipPathUnits="userSpaceOnUse"
       id="clipPath30">
      <path
         d="M -0.00426,-0.00136 V 136.06436 H 425.20111 V -0.00136 H -0.00426"
         transform="matrix(1,0,0,-1,-275.09887,49.835209)"
         clip-rule="evenodd"
         id="path30" />
    </clipPath>
    <clipPath
       clipPathUnits="userSpaceOnUse"
       id="clipPath31">
      <path
         d="M -0.00426,-0.00136 V 136.06436 H 425.20111 V -0.00136 H -0.00426"
         transform="matrix(1,0,0,-1,-278.52658,45.701351)"
         clip-rule="evenodd"
         id="path31" />
    </clipPath>
    <clipPath
       clipPathUnits="userSpaceOnUse"
       id="clipPath32">
      <path
         d="M -0.00426,-0.00136 V 136.06436 H 425.20111 V -0.00136 H -0.00426"
         transform="matrix(1,0,0,-1,-184.6582,79.122112)"
         clip-rule="evenodd"
         id="path32" />
    </clipPath>
    <clipPath
       clipPathUnits="userSpaceOnUse"
       id="clipPath33">
      <path
         d="M -0.00426,-0.00136 V 136.06436 H 425.20111 V -0.00136 H -0.00426"
         transform="matrix(1,0,0,-1,-190.59387,74.988252)"
         clip-rule="evenodd"
         id="path33" />
    </clipPath>
    <clipPath
       clipPathUnits="userSpaceOnUse"
       id="clipPath34">
      <path
         d="M -0.00426,-0.00136 V 136.06436 H 425.20111 V -0.00136 H -0.00426"
         transform="matrix(1,0,0,-1,-18.29685,90.681402)"
         clip-rule="evenodd"
         id="path34" />
    </clipPath>
    <clipPath
       clipPathUnits="userSpaceOnUse"
       id="clipPath35">
      <path
         d="M -0.00426,-0.00136 V 136.06436 H 425.20111 V -0.00136 H -0.00426"
         transform="matrix(1,0,0,-1,-28.032151,86.547542)"
         clip-rule="evenodd"
         id="path35" />
    </clipPath>
    <clipPath
       clipPathUnits="userSpaceOnUse"
       id="clipPath36">
      <path
         d="M -0.00426,-0.00136 V 136.06436 H 425.20111 V -0.00136 H -0.00426"
         transform="matrix(1,0,0,-1,-56.234941,42.434921)"
         clip-rule="evenodd"
         id="path36" />
    </clipPath>
    <clipPath
       clipPathUnits="userSpaceOnUse"
       id="clipPath37">
      <path
         d="M -0.00426,-0.00136 V 136.06436 H 425.20111 V -0.00136 H -0.00426"
         transform="matrix(1,0,0,-1,-82.076005,66.665091)"
         clip-rule="evenodd"
         id="path37" />
    </clipPath>
    <clipPath
       clipPathUnits="userSpaceOnUse"
       id="clipPath38">
      <path
         d="M -0.00426,-0.00136 V 136.06436 H 425.20111 V -0.00136 H -0.00426"
         transform="matrix(1,0,0,-1,-47.259701,67.105682)"
         clip-rule="evenodd"
         id="path38" />
    </clipPath>
  </defs>
  <sodipodi:namedview
     id="namedview1"
     pagecolor="#ffffff"
     bordercolor="#000000"
     borderopacity="0.25"
     inkscape:showpageshadow="2"
     inkscape:pageopacity="0.0"
     inkscape:pagecheckerboard="0"
     inkscape:deskcolor="#d1d1d1">
    <inkscape:page
       x="0"
       y="0"
       inkscape:label="1"
       id="page1"
       width="566.92932"
       height="181.41733"
       margin="0"
       bleed="0" />
  </sodipodi:namedview>
  <g
     id="layer-MC0"
     inkscape:groupmode="layer"
     inkscape:label="STABBEANSPR_DIAG">
    <path
       id="path1"
       d="m 59.76794,34.74696 h 42.5197 v 3.96851 h -42.5197 z m 0,69.73229 v -3.96851 h 42.5197 v 3.96851 z"
       style="fill:#909090;fill-opacity:1;fill-rule:nonzero;stroke:none"
       transform="matrix(1.3333333,0,0,-1.3333333,0,181.41733)" />
    <path
       id="path2"
       d="m 59.76794,104.47925 h 42.5197 v 7.65353 h -42.5197 z m 2.5263,-34.4207 0.03897,-0.44545 -0.03897,-0.44545 -0.11573,-0.43192 -0.18898,-0.40526 -0.25648,-0.36628 -0.31618,-0.3162 -0.36629,-0.25646 -0.40526,-0.18898 -0.43191,-0.11573 -0.44547,-0.03898 V 38.71547 h 42.5197 v 61.79527 H 59.76794 V 72.17836 l 0.44547,-0.03897 0.43191,-0.11574 0.40526,-0.18896 0.36629,-0.25649 0.31618,-0.31618 0.25648,-0.36628 0.18898,-0.40526 z m 39.9934,-42.96514 v 7.65355 h -42.5197 v -7.65355 z"
       style="fill:#e0e0e0;fill-opacity:1;fill-rule:nonzero;stroke:none"
       transform="matrix(1.3333333,0,0,-1.3333333,0,181.41733)" />
  </g>
  <path
     id="path3"
     d="M 171.31702,112.13278 V 27.09341 m 90.70865,85.03937 V 27.09341 m -107.71653,85.03937 h 17.00788 m 73.70077,0 h 17.00788 m 79.37008,0 V 27.09341 m 14.17322,9.63781 h 19.84253 m -5.95276,0 h -0.4252 m 6.37796,0 v 0 l -5.95276,0.85038 v -1.70077 l 5.95276,0.85039"
     style="fill:none;stroke:#000000;stroke-width:0.3685;stroke-linecap:round;stroke-linejoin:round;stroke-miterlimit:10;stroke-dasharray:none;stroke-opacity:1"
     transform="matrix(1.3333333,0,0,-1.3333333,0,181.41733)" />
  <path
     id="path4"
     d="m 369.45874,35.88083 5.95276,0.85039 -5.95276,0.85038 z"
     style="fill:#000000;fill-opacity:1;fill-rule:nonzero;stroke:none"
     transform="matrix(1.3333333,0,0,-1.3333333,0,181.41733)" />
  <path
     id="path5"
     d="m 375.4115,101.04376 h -19.84253 m 5.95276,0 h 0.4252 m -6.37796,0 v 0 l 5.95276,-0.8504 v 1.70077 l -5.95276,-0.85037"
     style="fill:none;stroke:#000000;stroke-width:0.3685;stroke-linecap:round;stroke-linejoin:round;stroke-miterlimit:10;stroke-dasharray:none;stroke-opacity:1"
     transform="matrix(1.3333333,0,0,-1.3333333,0,181.41733)" />
  <path
     id="path6"
     d="m 361.52173,101.89413 -5.95276,-0.85037 5.95276,-0.8504 z"
     style="fill:#000000;fill-opacity:1;fill-rule:nonzero;stroke:none"
     transform="matrix(1.3333333,0,0,-1.3333333,0,181.41733)" />
  <path
     id="path7"
     d="m 102.28764,36.73122 h 1.17693 m 2.83464,0 h 4.25197 m 2.83465,0 h 4.25197 m 2.83464,0 h 4.25197 m 2.83464,0 h 4.25199 m 2.83465,0 h 4.25195 m 2.83466,0 h 4.25195 m 2.83466,0 h 4.25195 m 2.83466,0 h 4.25198 m 2.83463,0 h 4.25198 m 2.83463,0 h 4.25198 m 2.83465,0 h 4.25196 m 2.83465,0 h 4.25196 m 2.83465,0 h 4.25196 m 2.83465,0 h 4.25199 m 2.83462,0 h 4.25198 m 2.83463,0 h 4.25198 m 2.83466,0 h 4.25195 m 2.83466,0 h 4.25195 m 2.83466,0 h 4.25195 m 2.83466,0 h 4.25198 m 2.83462,0 h 4.25199 m 2.83462,0 h 4.25199 m 2.83462,0 h 4.25199 m 2.83465,0 h 4.25195 m 2.83466,0 h 4.25195 m 2.83466,0 h 4.25195 m 2.83466,0 h 4.25198 m 2.83463,0 h 4.25198 m 2.83463,0 h 4.25198 m 2.83466,0 h 4.25195 m 2.83465,0 h 4.25196 m 2.83465,0 h 4.25196 m 2.83465,0 h 4.25199 m 2.83462,0 h 4.25198 m 2.83463,0 h 4.25198 m 2.83466,0 h 4.25195 m 2.83466,0 h 4.25195 m 2.83466,0 h 4.25198 m -270.46828,0 v 0 m 273.12386,0 v 0 M 102.28764,27.09341 h 1.17693 m 2.83464,0 h 4.25197 m 2.83465,0 h 4.25197 m 2.83464,0 h 4.25197 m 2.83464,0 h 4.25199 m 2.83465,0 h 4.25195 m 2.83466,0 h 4.25195 m 2.83466,0 h 4.25195 m 2.83466,0 h 4.25198"
     style="fill:none;stroke:#000000;stroke-width:0.3685;stroke-linecap:round;stroke-linejoin:round;stroke-miterlimit:10;stroke-dasharray:none;stroke-opacity:1"
     transform="matrix(1.3333333,0,0,-1.3333333,0,181.41733)" />
  <path
     id="path8"
     d="m 162.99213,27.09341 h 4.25198 m 2.83463,0 h 4.25198 m 2.83465,0 h 4.25196 m 2.83465,0 h 4.25196 m 2.83465,0 h 4.25196 m 2.83465,0 h 4.25199 m 2.83462,0 h 4.25198 m 2.83463,0 h 4.25198 m 2.83466,0 h 4.25195 m 2.83466,0 h 4.25195 m 2.83466,0 h 4.25195 m 2.83466,0 h 4.25198 m 2.83462,0 h 4.25199 m 2.83462,0 h 4.25199 m 2.83462,0 h 4.25199 m 2.83465,0 h 4.25195 m 2.83466,0 h 4.25195 m 2.83466,0 h 4.25195 m 2.83466,0 h 4.25198 m 2.83463,0 h 4.25198 m 2.83463,0 h 4.25198 m 2.83466,0 h 4.25195 m 2.83465,0 h 4.25196 m 2.83465,0 h 4.25196 m 2.83465,0 h 4.25199 m 2.83462,0 h 4.25198 m 2.83463,0 h 4.25198 m 2.83466,0 h 4.25195 m 2.83466,0 h 4.25195 m 2.83466,0 h 4.25198 m -270.46828,0 v 0 m 273.12386,0 v 0 m -273.12386,85.03937 h 1.17693 m 2.83464,0 h 4.25197 m 2.83465,0 h 4.25197 m 2.83464,0 h 4.25197 m 2.83464,0 h 4.25199 m 2.83465,0 h 4.25195 m 2.83466,0 h 4.25195 m 2.83466,0 h 4.25195 m 2.83466,0 h 4.25198 m 2.83463,0 h 4.25198 m 2.83463,0 h 4.25198 m 2.83465,0 h 4.25196 m 2.83465,0 h 4.25196 m 2.83465,0 h 4.25196 m 2.83465,0 h 4.25199 m 2.83462,0 h 4.25198 m 2.83463,0 h 4.25198 m 2.83466,0 h 4.25195"
     style="fill:none;stroke:#000000;stroke-width:0.3685;stroke-linecap:round;stroke-linejoin:round;stroke-miterlimit:10;stroke-dasharray:none;stroke-opacity:1"
     transform="matrix(1.3333333,0,0,-1.3333333,0,181.41733)" />
  <path
     id="path9"
     d="m 226.77167,112.13278 h 4.25195 m 2.83466,0 h 4.25195 m 2.83466,0 h 4.25198 m 2.83462,0 h 4.25199 m 2.83462,0 h 4.25199 m 2.83462,0 h 4.25199 m 2.83465,0 h 4.25195 m 2.83466,0 h 4.25195 m 2.83466,0 h 4.25195 m 2.83466,0 h 4.25198 m 2.83463,0 h 4.25198 m 2.83463,0 h 4.25198 m 2.83466,0 h 4.25195 m 2.83465,0 h 4.25196 m 2.83465,0 h 4.25196 m 2.83465,0 h 4.25199 m 2.83462,0 h 4.25198 m 2.83463,0 h 4.25198 m 2.83466,0 h 4.25195 m 2.83466,0 h 4.25195 m 2.83466,0 h 4.25198 m -270.46828,0 v 0 m 273.12386,0 v 0 M 171.31702,27.09341 h 45.35434 l -62.36222,85.03937 m 17.00788,-23.19255 h 3.0137 m 2.83465,0 h 4.25196 m 2.83465,0 h 4.25196 m 2.83465,0 h 4.25196 m 2.83465,0 h 4.25199 m 2.83462,0 h 4.25198 m 2.83463,0 h 4.25198 m 2.83466,0 h 4.25195 m 2.83466,0 h 4.25195 m 2.83466,0 h 4.25195 m 2.83466,0 h 4.25198 m 2.83462,0 h 4.25199 m 2.83462,0 h 4.25199 m 2.83462,0 h 4.25199 m 2.83465,0 h 4.25195 m 2.83466,0 h 4.25195 m 2.83466,0 h 2.93246 m -115.08001,0 v 0 m 115.08001,0 v 0 m -41.37924,2.83464 v 20.35791 m 0,-20.35791 h 17.00788"
     style="fill:none;stroke:#000000;stroke-width:0.3685;stroke-linecap:round;stroke-linejoin:round;stroke-miterlimit:10;stroke-dasharray:none;stroke-opacity:1"
     transform="matrix(1.3333333,0,0,-1.3333333,0,181.41733)" />
  <path
     id="path10"
     d="m 171.31702,72.6062 c 3.47412,0 6.85778,1.10771 9.65933,3.16219"
     style="fill:none;stroke:#000000;stroke-width:0.3685;stroke-linecap:round;stroke-linejoin:round;stroke-miterlimit:10;stroke-dasharray:none;stroke-opacity:1"
     transform="matrix(1.3333333,0,0,-1.3333333,0,181.41733)" />
  <path
     id="path11"
     d="m 59.76794,12.92018 v 1.53652 m 0,5.95275 v 4.25197 m 0,5.95276 v 4.25197 m 0,5.95274 v 4.25197 m 0,5.95276 v 4.25197 m 0,5.95276 v 4.25197 m 0,5.95275 v 4.25197 m 0,5.95276 v 4.25197 m 0,5.95276 v 4.25197 m 0,5.95274 v 4.25197 m 0,5.95276 v 4.25197 m 0,5.95276 v 3.84932 m 0,-109.01468 v 0.28346 m 0,9.92126 v 0.28347 m 0,9.92126 v 0.28346 m 0,9.92127 v 0.28346 m 0,9.92126 v 0.28347 m 0,9.92126 v 0.28346 m 0,9.92125 v 0.28347 m 0,9.92126 v 0.28346 m 0,9.92127 v 0.28346 m 0,9.92127 v 0.28346 m 0,9.92126 v 0.28347 m 0,-106.70188 v 0 m 0,113.38584 v 0"
     style="fill:none;stroke:#000000;stroke-width:0.3685;stroke-linecap:round;stroke-linejoin:round;stroke-miterlimit:10;stroke-dasharray:none;stroke-opacity:1"
     transform="matrix(1.3333333,0,0,-1.3333333,0,181.41733)" />
  <path
     id="path12"
     d="M 42.37141,90.85942 C 30.72659,85.76053 25.42009,72.18706 30.51898,60.54224 m 0,0 c 2.36548,-5.40227 6.71431,-9.69049 12.14923,-11.97992"
     style="fill:none;stroke:#000000;stroke-width:0.51024;stroke-linecap:round;stroke-linejoin:round;stroke-miterlimit:10;stroke-dasharray:none;stroke-opacity:1"
     transform="matrix(1.3333333,0,0,-1.3333333,0,181.41733)" />
  <path
     id="path13"
     d="m 39.9353,89.41008 2.43611,1.44934 m -5.11583,-3.04361 -0.36541,-0.21739 m 5.48124,3.261 v 0 l -5.55062,-2.31277 0.86959,-1.46166 4.68103,3.77443"
     style="fill:none;stroke:#000000;stroke-width:0.3685;stroke-linecap:round;stroke-linejoin:round;stroke-miterlimit:10;stroke-dasharray:none;stroke-opacity:1"
     transform="matrix(1.3333333,0,0,-1.3333333,0,181.41733)" />
  <path
     id="path14"
     d="m 37.69038,87.08499 4.68103,3.77443 -5.55062,-2.31277 z"
     style="fill:#000000;fill-opacity:1;fill-rule:nonzero;stroke:none"
     transform="matrix(1.3333333,0,0,-1.3333333,0,181.41733)" />
  <path
     id="path15"
     d="m 62.33321,69.6131 c 0,1.41676 -1.1485,2.56526 -2.56527,2.56526 m 0,0 c -1.41674,0 -2.56524,-1.1485 -2.56524,-2.56526 m 0,0 c 0,-1.41675 1.1485,-2.56526 2.56524,-2.56526 m 0,0 c 1.41677,0 2.56527,1.14851 2.56527,2.56526"
     style="fill:none;stroke:#000000;stroke-width:0.3685;stroke-linecap:round;stroke-linejoin:round;stroke-miterlimit:10;stroke-dasharray:none;stroke-opacity:1"
     transform="matrix(1.3333333,0,0,-1.3333333,0,181.41733)" />
  <path
     id="path16"
     d="m 59.76794,112.13278 h 42.5197 M 59.76794,27.09341 h 42.5197 m 0,85.03937 V 27.09341 m -42.5197,73.41733 h 42.5197 m -42.5197,3.96851 h 42.5197 M 59.76794,38.71547 h 42.5197 m -42.5197,-3.96851 h 42.5197 m 199.42305,0 h -39.68502 m 0,3.96851 h 39.68502 V 34.74696 M 59.76794,69.6131 h 19.33255 m -5.95275,0 h -0.42519 m 6.37794,0 v 0 l -5.95275,0.8504 v -1.70079 l 5.95275,0.85039"
     style="fill:none;stroke:#000000;stroke-width:0.3685;stroke-linecap:round;stroke-linejoin:round;stroke-miterlimit:10;stroke-dasharray:none;stroke-opacity:1"
     transform="matrix(1.3333333,0,0,-1.3333333,0,181.41733)" />
  <path
     id="path17"
     d="m 73.14774,68.76271 5.95275,0.85039 -5.95275,0.8504 z"
     style="fill:#000000;fill-opacity:1;fill-rule:nonzero;stroke:none"
     transform="matrix(1.3333333,0,0,-1.3333333,0,181.41733)" />
  <path
     id="path18"
     d="M 59.76794,69.6131 V 52.5425 m 0,5.95275 v 0.42521 m 0,-6.37796 v 0 l 0.85041,5.95275 h -1.70078 l 0.85037,-5.95275"
     style="fill:none;stroke:#000000;stroke-width:0.3685;stroke-linecap:round;stroke-linejoin:round;stroke-miterlimit:10;stroke-dasharray:none;stroke-opacity:1"
     transform="matrix(1.3333333,0,0,-1.3333333,0,181.41733)" />
  <path
     id="path19"
     d="m 58.91757,58.49525 0.85037,-5.95275 0.85041,5.95275 z"
     style="fill:#000000;fill-opacity:1;fill-rule:nonzero;stroke:none"
     transform="matrix(1.3333333,0,0,-1.3333333,0,181.41733)" />
  <path
     id="path20"
     d="m 396.65594,36.73122 -0.4252,2.97638 h 0.85038 l -0.42518,-2.97638 m 0,64.31254 -0.4252,-2.97638 h 0.85038 l -0.42518,2.97638 m 0,-64.31254 h -2.126 m 2.126,0 h 2.12598 m -2.12598,64.31254 h -2.126 m 2.126,0 h 2.12598 m -2.12598,-64.31254 h -2.83465 m 2.83465,64.31254 h -2.83465 m 2.83465,-64.31254 v 0 m 0,64.31254 v 0"
     style="fill:none;stroke:#000000;stroke-width:0.3685;stroke-linecap:round;stroke-linejoin:round;stroke-miterlimit:10;stroke-dasharray:none;stroke-opacity:1"
     transform="matrix(1.3333333,0,0,-1.3333333,0,181.41733)" />
  <text
     id="text20"
     xml:space="preserve"
     transform="matrix(0,-1.3333333,1.3333333,0,524.87439,92.406013)"
     clip-path="url(#clipPath21)"><tspan
       style="font-style:italic;font-variant:normal;font-weight:normal;font-stretch:normal;font-size:10.0071px;font-family:'Palatino Linotype';writing-mode:lr-tb;fill:#000000;fill-opacity:1;fill-rule:nonzero;stroke:none"
       x="0"
       y="0"
       id="tspan20">z</tspan></text>
  <path
     id="path22"
     d="m 396.65594,36.73122 v 64.31254"
     style="fill:none;stroke:#000000;stroke-width:0.3685;stroke-linecap:round;stroke-linejoin:round;stroke-miterlimit:10;stroke-dasharray:none;stroke-opacity:1"
     transform="matrix(1.3333333,0,0,-1.3333333,0,181.41733)" />
  <text
     id="text22"
     xml:space="preserve"
     transform="matrix(1.3333333,0,0,1.3333333,222.46992,169.29279)"
     clip-path="url(#clipPath23)"><tspan
       style="font-style:italic;font-variant:normal;font-weight:normal;font-stretch:normal;font-size:18.0128px;font-family:'Palatino Linotype';writing-mode:lr-tb;fill:#000000;fill-opacity:1;fill-rule:nonzero;stroke:none"
       x="0"
       y="0"
       id="tspan22">ε</tspan></text>
  <text
     id="text23"
     xml:space="preserve"
     transform="matrix(1.3333333,0,0,1.3333333,341.85575,169.29279)"
     clip-path="url(#clipPath24)"><tspan
       style="font-style:italic;font-variant:normal;font-weight:normal;font-stretch:normal;font-size:18.0128px;font-family:'Palatino Linotype';writing-mode:lr-tb;fill:#000000;fill-opacity:1;fill-rule:nonzero;stroke:none"
       x="0"
       y="0"
       id="tspan23">σ</tspan></text>
  <text
     id="text24"
     xml:space="preserve"
     transform="matrix(1.3333333,0,0,1.3333333,316.55103,21.333347)"
     clip-path="url(#clipPath25)"><tspan
       style="font-style:italic;font-variant:normal;font-weight:normal;font-stretch:normal;font-size:10.0071px;font-family:'Palatino Linotype';writing-mode:lr-tb;fill:#000000;fill-opacity:1;fill-rule:nonzero;stroke:none"
       x="0"
       y="0"
       id="tspan24">f</tspan></text>
  <text
     id="text25"
     xml:space="preserve"
     transform="matrix(1.3333333,0,0,1.3333333,321.12132,26.84516)"
     clip-path="url(#clipPath26)"><tspan
       style="font-style:italic;font-variant:normal;font-weight:normal;font-stretch:normal;font-size:6.00428px;font-family:'Palatino Linotype';writing-mode:lr-tb;fill:#000000;fill-opacity:1;fill-rule:nonzero;stroke:none"
       x="0 2.443742"
       y="0"
       sodipodi:role="line"
       id="tspan25">cc</tspan></text>
  <path
     id="path27"
     d="m 289.23166,88.94023 -0.4252,2.97638 h 0.8504 l -0.4252,-2.97638 m 0,23.19255 -0.4252,-2.97636 h 0.8504 l -0.4252,2.97636 m 0,-23.19255 h -2.12598 m 2.12598,0 h 2.12598 m -2.12598,23.19255 h -2.12598 m 2.12598,0 h 2.12598 m -2.12598,-23.19255 h -2.83463 m 2.83463,23.19255 h -2.83463 m 2.83463,-23.19255 v 0 m 0,23.19255 v 0"
     style="fill:none;stroke:#000000;stroke-width:0.3685;stroke-linecap:round;stroke-linejoin:round;stroke-miterlimit:10;stroke-dasharray:none;stroke-opacity:1"
     transform="matrix(1.3333333,0,0,-1.3333333,0,181.41733)" />
  <text
     id="text27"
     xml:space="preserve"
     transform="matrix(0,-1.3333333,1.3333333,0,381.64203,50.61856)"
     clip-path="url(#clipPath28)"><tspan
       style="font-style:italic;font-variant:normal;font-weight:normal;font-stretch:normal;font-size:10.0071px;font-family:'Palatino Linotype';writing-mode:lr-tb;fill:#000000;fill-opacity:1;fill-rule:nonzero;stroke:none"
       x="0"
       y="0"
       id="tspan27">x</tspan></text>
  <path
     id="path29"
     d="m 289.23166,88.94023 v 23.19255"
     style="fill:none;stroke:#000000;stroke-width:0.3685;stroke-linecap:round;stroke-linejoin:round;stroke-miterlimit:10;stroke-dasharray:none;stroke-opacity:1"
     transform="matrix(1.3333333,0,0,-1.3333333,0,181.41733)" />
  <text
     id="text29"
     xml:space="preserve"
     transform="matrix(1.3333333,0,0,1.3333333,366.79849,114.97039)"
     clip-path="url(#clipPath30)"><tspan
       style="font-style:italic;font-variant:normal;font-weight:normal;font-stretch:normal;font-size:10.0071px;font-family:'Palatino Linotype';writing-mode:lr-tb;fill:#000000;fill-opacity:1;fill-rule:nonzero;stroke:none"
       x="0"
       y="0"
       id="tspan29">f</tspan></text>
  <text
     id="text30"
     xml:space="preserve"
     transform="matrix(1.3333333,0,0,1.3333333,371.36877,120.4822)"
     clip-path="url(#clipPath31)"><tspan
       style="font-style:italic;font-variant:normal;font-weight:normal;font-stretch:normal;font-size:6.00428px;font-family:'Palatino Linotype';writing-mode:lr-tb;fill:#000000;fill-opacity:1;fill-rule:nonzero;stroke:none"
       x="0 2.335665"
       y="0"
       sodipodi:role="line"
       id="tspan30">sy</tspan></text>
  <text
     id="text31"
     xml:space="preserve"
     transform="matrix(1.3333333,0,0,1.3333333,246.21093,75.921187)"
     clip-path="url(#clipPath32)"><tspan
       style="font-style:italic;font-variant:normal;font-weight:normal;font-stretch:normal;font-size:10.0071px;font-family:'Palatino Linotype';writing-mode:lr-tb;fill:#000000;fill-opacity:1;fill-rule:nonzero;stroke:none"
       x="0"
       y="0"
       id="tspan31">χ</tspan></text>
  <text
     id="text32"
     xml:space="preserve"
     transform="matrix(1.3333333,0,0,1.3333333,254.12516,81.433)"
     clip-path="url(#clipPath33)"><tspan
       style="font-style:italic;font-variant:normal;font-weight:normal;font-stretch:normal;font-size:6.00428px;font-family:'Palatino Linotype';writing-mode:lr-tb;fill:#000000;fill-opacity:1;fill-rule:nonzero;stroke:none"
       x="0"
       y="0"
       id="tspan32">y</tspan></text>
  <text
     id="text33"
     xml:space="preserve"
     transform="matrix(1.3333333,0,0,1.3333333,24.3958,60.5088)"
     clip-path="url(#clipPath34)"><tspan
       style="font-style:italic;font-variant:normal;font-weight:normal;font-stretch:normal;font-size:10.0071px;font-family:'Palatino Linotype';writing-mode:lr-tb;fill:#000000;fill-opacity:1;fill-rule:nonzero;stroke:none"
       x="0"
       y="0"
       id="tspan33">M</tspan></text>
  <text
     id="text34"
     xml:space="preserve"
     transform="matrix(1.3333333,0,0,1.3333333,37.3762,66.020613)"
     clip-path="url(#clipPath35)"><tspan
       style="font-style:italic;font-variant:normal;font-weight:normal;font-stretch:normal;font-size:6.00428px;font-family:'Palatino Linotype';writing-mode:lr-tb;fill:#000000;fill-opacity:1;fill-rule:nonzero;stroke:none"
       x="0"
       y="0"
       id="tspan34">y</tspan></text>
  <text
     id="text35"
     xml:space="preserve"
     transform="matrix(1.3333333,0,0,1.3333333,74.97992,124.83744)"
     clip-path="url(#clipPath36)"><tspan
       style="font-style:italic;font-variant:normal;font-weight:normal;font-stretch:normal;font-size:10.0071px;font-family:'Palatino Linotype';writing-mode:lr-tb;fill:#000000;fill-opacity:1;fill-rule:nonzero;stroke:none"
       x="0"
       y="0"
       id="tspan35">Z</tspan></text>
  <text
     id="text36"
     xml:space="preserve"
     transform="matrix(1.3333333,0,0,1.3333333,109.43467,92.530547)"
     clip-path="url(#clipPath37)"><tspan
       style="font-style:italic;font-variant:normal;font-weight:normal;font-stretch:normal;font-size:10.0071px;font-family:'Palatino Linotype';writing-mode:lr-tb;fill:#000000;fill-opacity:1;fill-rule:nonzero;stroke:none"
       x="0"
       y="0"
       id="tspan36">X</tspan></text>
  <text
     id="text37"
     xml:space="preserve"
     transform="matrix(1.3333333,0,0,1.3333333,63.012933,91.943093)"
     clip-path="url(#clipPath38)"><tspan
       style="font-style:italic;font-variant:normal;font-weight:normal;font-stretch:normal;font-size:10.0071px;font-family:'Palatino Linotype';writing-mode:lr-tb;fill:#000000;fill-opacity:1;fill-rule:nonzero;stroke:none"
       x="0"
       y="0"
       id="tspan37">Y</tspan></text>
</svg>
