<?xml version="1.0" encoding="UTF-8" standalone="no"?>
<!-- Created with Inkscape (http://www.inkscape.org/) -->

<svg
   version="1.1"
   id="svg1"
   width="566.92932"
   height="158.74001"
   viewBox="0 0 566.92932 158.74001"
   sodipodi:docname="jag_q_w_b500a.pdf"
   xmlns:inkscape="http://www.inkscape.org/namespaces/inkscape"
   xmlns:sodipodi="http://sodipodi.sourceforge.net/DTD/sodipodi-0.dtd"
   xmlns="http://www.w3.org/2000/svg"
   xmlns:svg="http://www.w3.org/2000/svg">
  <defs
     id="defs1">
    <clipPath
       clipPathUnits="userSpaceOnUse"
       id="clipPath6">
      <path
         d="M -0.00426,-0.00119 V 119.0563 H 425.20111 V -0.00119 H -0.00426"
         transform="matrix(1,0,0,-1,-363.14681,8.6562677)"
         clip-rule="evenodd"
         id="path6" />
    </clipPath>
    <clipPath
       clipPathUnits="userSpaceOnUse"
       id="clipPath7">
      <path
         d="M -0.00426,-0.00119 V 119.0563 H 425.20111 V -0.00119 H -0.00426"
         transform="matrix(1,0,0,-1,-371.73116,4.5224101)"
         clip-rule="evenodd"
         id="path7" />
    </clipPath>
    <clipPath
       clipPathUnits="userSpaceOnUse"
       id="clipPath8">
      <path
         d="M -0.00426,-0.00119 V 119.0563 H 425.20111 V -0.00119 H -0.00426"
         transform="matrix(1,0,0,-1,-288.04345,69.305672)"
         clip-rule="evenodd"
         id="path8" />
    </clipPath>
    <clipPath
       clipPathUnits="userSpaceOnUse"
       id="clipPath9">
      <path
         d="M -0.00426,-0.00119 V 119.0563 H 425.20111 V -0.00119 H -0.00426"
         transform="matrix(1,0,0,-1,-288.04345,57.967081)"
         clip-rule="evenodd"
         id="path9" />
    </clipPath>
    <clipPath
       clipPathUnits="userSpaceOnUse"
       id="clipPath10">
      <path
         d="M -0.00426,-0.00119 V 119.0563 H 425.20111 V -0.00119 H -0.00426"
         transform="matrix(1,0,0,-1,-100.98393,90.236672)"
         clip-rule="evenodd"
         id="path10" />
    </clipPath>
    <clipPath
       clipPathUnits="userSpaceOnUse"
       id="clipPath11">
      <path
         d="M -0.00426,-0.00119 V 119.0563 H 425.20111 V -0.00119 H -0.00426"
         transform="matrix(1,0,0,-1,-90.142495,76.525332)"
         clip-rule="evenodd"
         id="path11" />
    </clipPath>
    <clipPath
       clipPathUnits="userSpaceOnUse"
       id="clipPath12">
      <path
         d="M -0.00426,-0.00119 V 119.0563 H 425.20111 V -0.00119 H -0.00426"
         transform="matrix(1,0,0,-1,-65.153872,123.1125)"
         clip-rule="evenodd"
         id="path12" />
    </clipPath>
    <clipPath
       clipPathUnits="userSpaceOnUse"
       id="clipPath13">
      <path
         d="M -0.00426,-0.00119 V 119.0563 H 425.20111 V -0.00119 H -0.00426"
         transform="matrix(1,0,0,-1,-50.128831,8.6562677)"
         clip-rule="evenodd"
         id="path13" />
    </clipPath>
    <clipPath
       clipPathUnits="userSpaceOnUse"
       id="clipPath14">
      <path
         d="M -0.00426,-0.00119 V 119.0563 H 425.20111 V -0.00119 H -0.00426"
         transform="matrix(1,0,0,-1,-30.061281,97.894292)"
         clip-rule="evenodd"
         id="path14" />
    </clipPath>
    <clipPath
       clipPathUnits="userSpaceOnUse"
       id="clipPath15">
      <path
         d="M -0.00426,-0.00119 V 119.0563 H 425.20111 V -0.00119 H -0.00426"
         transform="matrix(1,0,0,-1,-24.805371,83.721062)"
         clip-rule="evenodd"
         id="path15" />
    </clipPath>
    <clipPath
       clipPathUnits="userSpaceOnUse"
       id="clipPath16">
      <path
         d="M -0.00426,-0.00119 V 119.0563 H 425.20111 V -0.00119 H -0.00426"
         transform="matrix(1,0,0,-1,-80.897875,8.6562677)"
         clip-rule="evenodd"
         id="path16" />
    </clipPath>
  </defs>
  <sodipodi:namedview
     id="namedview1"
     pagecolor="#ffffff"
     bordercolor="#000000"
     borderopacity="0.25"
     inkscape:showpageshadow="2"
     inkscape:pageopacity="0.0"
     inkscape:pagecheckerboard="0"
     inkscape:deskcolor="#d1d1d1">
    <inkscape:page
       x="0"
       y="0"
       inkscape:label="1"
       id="page1"
       width="566.92932"
       height="158.74001"
       margin="0"
       bleed="0" />
  </sodipodi:namedview>
  <g
     id="g1"
     inkscape:groupmode="layer"
     inkscape:label="1">
    <path
       id="path1"
       d="m 93.82114,91.29465 c 0,0.78276 -0.63456,1.41731 -1.41733,1.41731 m 0,0 c -0.78276,0 -1.41731,-0.63455 -1.41731,-1.41731 m 0,0 c 0,-0.78278 0.63455,-1.41733 1.41731,-1.41733 m 0,0 c 0.78277,0 1.41733,0.63455 1.41733,1.41733"
       style="fill:none;stroke:#000000;stroke-width:0.3685;stroke-linecap:round;stroke-linejoin:round;stroke-miterlimit:10;stroke-dasharray:none;stroke-opacity:1"
       transform="matrix(1.3333333,0,0,-1.3333333,0,158.74)" />
    <path
       id="path2"
       d="m 88.97229,84.98059 c 0,0.78278 -0.63457,1.41733 -1.41733,1.41733 m 0,0 c -0.78276,0 -1.41733,-0.63455 -1.41733,-1.41733 m 0,0 c 0,-0.78276 0.63457,-1.41731 1.41733,-1.41731 m 0,0 c 0.78276,0 1.41733,0.63455 1.41733,1.41731"
       style="fill:none;stroke:#000000;stroke-width:0.3685;stroke-linecap:round;stroke-linejoin:round;stroke-miterlimit:10;stroke-dasharray:none;stroke-opacity:1"
       transform="matrix(1.3333333,0,0,-1.3333333,0,158.74)" />
    <path
       id="path3"
       d="m 56.82727,19.688 0.42354,0.90242 0.42352,0.90235 0.42354,0.90254 0.42352,0.90237 0.42354,0.90239 0.42352,0.90239 0.42354,0.90238 0.42353,0.90239 0.42352,0.90252 0.42354,0.90239 0.42353,0.90238 0.42353,0.90239 0.42354,0.90239 0.42352,0.90252 0.42352,0.90238 0.42354,0.90281 0.42352,0.90253 0.42354,0.90253 0.42352,0.90111 0.42354,0.90252 0.42353,0.90253 0.42353,0.90253 0.42353,0.90252 0.42353,0.90253 0.42353,0.90253 0.42352,0.90252 0.42354,0.90253 0.42354,0.90253 0.42352,0.90252 0.42354,0.90253 0.42352,0.90111 0.42352,0.90253 0.42354,0.90252 0.42352,0.90253 0.42354,0.90253 0.42354,0.90252 0.42352,0.90253 0.42353,0.90253 0.42354,0.90252 0.42352,0.90253 0.42354,0.90253 0.42352,0.90252 0.42354,0.90111 0.42352,0.90253 0.42354,0.90253 0.42352,0.90252 0.42354,0.90253 0.42352,0.90253 0.42354,0.90252 0.42352,0.90253"
       style="fill:none;stroke:#000000;stroke-width:0.3685;stroke-linecap:round;stroke-linejoin:round;stroke-miterlimit:10;stroke-dasharray:none;stroke-opacity:1"
       transform="matrix(1.3333333,0,0,-1.3333333,0,158.74)" />
    <path
       id="path4"
       d="m 78.00378,64.80867 0.42353,0.90253 0.42354,0.90252 0.42352,0.90253 0.42354,0.90253 0.42352,0.90252 0.42354,0.90111 0.42352,0.90253 0.42354,0.90253 0.42352,0.90252 0.42354,0.90253 0.42352,0.90253 0.42353,0.90252 0.42353,0.90253 0.42354,0.90253 0.42353,0.90252 0.42353,0.90253 0.42353,0.90253 0.42352,0.90111 0.42354,0.90252 0.42352,0.90253 0.42354,0.90253 0.42354,0.90252 0.42352,0.74333 0.42352,0.65098 0.42354,0.65095 0.42352,0.64954 0.42354,0.65095 0.42353,0.65096 0.42353,0.64953 0.42353,0.52446 0.42353,0.36528 0.42353,0.36527 0.42354,0.36528 0.42352,0.3667 M 56.82727,19.688 l 0.69904,1.48537 m 0.96563,2.05185 1.20705,2.56482 m 0.96562,2.05185 1.20705,2.56482 m 0.96564,2.05185 1.20703,2.5648 m 0.96563,2.05185 1.20705,2.56482 m 0.96562,2.05185 1.20705,2.56482 m 0.96564,2.05185 1.20703,2.56482 m 0.96563,2.05185 1.20704,2.5648 m 0.96563,2.05185 1.20705,2.56482 m 0.96562,2.05185 1.20705,2.56482 m 0.96564,2.05185 1.20703,2.56482 m 0.96563,2.05185 1.20705,2.5648 m 0.96562,2.05185 1.20705,2.56482 m 0.96562,2.05185 1.20705,2.56482 m 0.96563,2.05185 0.81827,1.73872 M 56.82727,19.688 v 0"
       style="fill:none;stroke:#000000;stroke-width:0.3685;stroke-linecap:round;stroke-linejoin:round;stroke-miterlimit:10;stroke-dasharray:none;stroke-opacity:1"
       transform="matrix(1.3333333,0,0,-1.3333333,0,158.74)" />
    <path
       id="path5"
       d="m 87.55496,84.98059 v 0 m 0.34743,0.35851 1.97269,2.03561 m 1.57815,1.62848 1.9727,2.0356 m 1.57816,1.62849 1.97269,2.0356 m 1.57815,1.6285 0.33273,0.34332 M 87.55496,84.98059 v 0 m 11.3327,11.69411 v 0 M 271.03555,61.08519 h 11.3386 m -11.3386,11.05513 h 2.22431 m 2.2677,0 h 2.83465 m 2.2677,0 h 1.74424 m -11.3386,0 v 0 m 11.3386,0 v 0 M 56.82727,96.6747 H 53.99263 M 56.82727,19.688 v -2.83464 m 0,2.83464 h -2.83464 m 44.89503,0 v -2.83464"
       style="fill:none;stroke:#000000;stroke-width:0.3685;stroke-linecap:round;stroke-linejoin:round;stroke-miterlimit:10;stroke-dasharray:none;stroke-opacity:1"
       transform="matrix(1.3333333,0,0,-1.3333333,0,158.74)" />
    <text
       id="text5"
       xml:space="preserve"
       transform="matrix(1.3333333,0,0,1.3333333,484.19573,147.19831)"
       clip-path="url(#clipPath6)"><tspan
         style="font-style:italic;font-variant:normal;font-weight:normal;font-stretch:normal;font-size:10.0071px;font-family:'Palatino Linotype';writing-mode:lr-tb;fill:#000000;fill-opacity:1;fill-rule:nonzero;stroke:none"
         x="0"
         y="0"
         id="tspan5">w</tspan></text>
    <text
       id="text6"
       xml:space="preserve"
       transform="matrix(1.3333333,0,0,1.3333333,495.64153,152.71012)"
       clip-path="url(#clipPath7)"><tspan
         style="font-style:italic;font-variant:normal;font-weight:normal;font-stretch:normal;font-size:6.00428px;font-family:'Palatino Linotype';writing-mode:lr-tb;fill:#000000;fill-opacity:1;fill-rule:nonzero;stroke:none"
         x="0"
         y="0"
         id="tspan6">m</tspan></text>
    <text
       id="text7"
       xml:space="preserve"
       transform="matrix(1.3333333,0,0,1.3333333,384.05792,66.33244)"
       clip-path="url(#clipPath8)"><tspan
         style="font-style:italic;font-variant:normal;font-weight:normal;font-stretch:normal;font-size:8.0057px;font-family:'Palatino Linotype';writing-mode:lr-tb;fill:#000000;fill-opacity:1;fill-rule:nonzero;stroke:none"
         x="0 4.8914828 8.8943329 12.897182 16.900032 22.680147 24.681574 28.236103 32.687275 36.241802 38.467388 42.470238 45.136135 47.361721 50.475937 53.734257"
         y="0"
         sodipodi:role="line"
         id="tspan7">B500A analytisch</tspan></text>
    <text
       id="text8"
       xml:space="preserve"
       transform="matrix(1.3333333,0,0,1.3333333,384.05792,81.45056)"
       clip-path="url(#clipPath9)"><tspan
         style="font-style:italic;font-variant:normal;font-weight:normal;font-stretch:normal;font-size:8.0057px;font-family:'Palatino Linotype';writing-mode:lr-tb;fill:#000000;fill-opacity:1;fill-rule:nonzero;stroke:none"
         x="0 4.8914828 8.8943329 12.897182 16.900032 22.680147 24.681574 30.910007 35.361176 39.812347"
         y="0"
         sodipodi:role="line"
         id="tspan8">B500A NLFE</tspan></text>
    <text
       id="text9"
       xml:space="preserve"
       transform="matrix(1.3333333,0,0,1.3333333,134.64523,38.42444)"
       clip-path="url(#clipPath10)"><tspan
         style="font-style:italic;font-variant:normal;font-weight:normal;font-stretch:normal;font-size:8.0057px;font-family:'Palatino Linotype';writing-mode:lr-tb;fill:#000000;fill-opacity:1;fill-rule:nonzero;stroke:none"
         x="0 4.451169 9.3426523 11.344077 15.346927 17.348352 21.351202 23.352627 27.355476 31.358326"
         y="0"
         sodipodi:role="line"
         id="tspan9">LP = 0.504</tspan></text>
    <text
       id="text10"
       xml:space="preserve"
       transform="matrix(1.3333333,0,0,1.3333333,120.18999,56.706227)"
       clip-path="url(#clipPath11)"><tspan
         style="font-style:italic;font-variant:normal;font-weight:normal;font-stretch:normal;font-size:8.0057px;font-family:'Palatino Linotype';writing-mode:lr-tb;fill:#000000;fill-opacity:1;fill-rule:nonzero;stroke:none"
         x="0 4.451169 9.3426523 11.344077 15.346927 17.348352 21.351202 23.352627 27.355476 31.358326"
         y="0"
         sodipodi:role="line"
         id="tspan10">LP = 0.462</tspan></text>
    <text
       id="text11"
       xml:space="preserve"
       transform="matrix(1.3333333,0,0,1.3333333,86.871827,-5.41)"
       clip-path="url(#clipPath12)"><tspan
         style="font-style:italic;font-variant:normal;font-weight:normal;font-stretch:normal;font-size:10.0071px;font-family:'Palatino Linotype';writing-mode:lr-tb;fill:#000000;fill-opacity:1;fill-rule:nonzero;stroke:none"
         x="0"
         y="0"
         id="tspan11">q</tspan></text>
    <text
       id="text12"
       xml:space="preserve"
       transform="matrix(1.3333333,0,0,1.3333333,66.83844,147.19831)"
       clip-path="url(#clipPath13)"><tspan
         style="font-variant:normal;font-weight:normal;font-stretch:normal;font-size:10.0916px;font-family:'Palatino Linotype';writing-mode:lr-tb;fill:#000000;fill-opacity:1;fill-rule:nonzero;stroke:none"
         x="0"
         y="0"
         id="tspan12">0</tspan></text>
    <text
       id="text13"
       xml:space="preserve"
       transform="matrix(1.3333333,0,0,1.3333333,40.081707,28.21428)"
       clip-path="url(#clipPath14)"><tspan
         style="font-variant:normal;font-weight:normal;font-stretch:normal;font-size:10.0916px;font-family:'Palatino Linotype';writing-mode:lr-tb;fill:#000000;fill-opacity:1;fill-rule:nonzero;stroke:none"
         x="0 5.045805 10.09161 12.614512"
         y="0"
         sodipodi:role="line"
         id="tspan13">16.2</tspan></text>
    <text
       id="text14"
       xml:space="preserve"
       transform="matrix(1.3333333,0,0,1.3333333,33.073827,47.11192)"
       clip-path="url(#clipPath15)"><tspan
         style="font-variant:normal;font-weight:normal;font-stretch:normal;font-size:10.0916px;font-family:'Palatino Linotype';writing-mode:lr-tb;fill:#000000;fill-opacity:1;fill-rule:nonzero;stroke:none"
         x="0 5.6109352 13.997063 17.226377 26.13727"
         y="0"
         sodipodi:role="line"
         id="tspan14">kN/m'</tspan></text>
    <text
       id="text15"
       xml:space="preserve"
       transform="matrix(1.3333333,0,0,1.3333333,107.86383,147.19831)"
       clip-path="url(#clipPath16)"><tspan
         style="font-variant:normal;font-weight:normal;font-stretch:normal;font-size:10.0916px;font-family:'Palatino Linotype';writing-mode:lr-tb;fill:#000000;fill-opacity:1;fill-rule:nonzero;stroke:none"
         x="0 5.045805 10.09161 12.614512 21.525404"
         y="0"
         sodipodi:role="line"
         id="tspan15">50 mm</tspan></text>
    <path
       id="path17"
       d="m 260.92175,19.688 h 123.21979 m -5.95276,0 h -0.4252 m 6.37796,0 v 0 l -5.95276,0.85041 v -1.70079 l 5.95276,0.85038"
       style="fill:none;stroke:#000000;stroke-width:0.3685;stroke-linecap:round;stroke-linejoin:round;stroke-miterlimit:10;stroke-dasharray:none;stroke-opacity:1"
       transform="matrix(1.3333333,0,0,-1.3333333,0,158.74)" />
    <path
       id="path18"
       d="m 378.18878,18.83762 5.95276,0.85038 -5.95276,0.85041 z"
       style="fill:#000000;fill-opacity:1;fill-rule:nonzero;stroke:none"
       transform="matrix(1.3333333,0,0,-1.3333333,0,158.74)" />
    <path
       id="path19"
       d="m 56.82727,19.688 h 327.31427 m -5.95276,0 h -0.4252 m 6.37796,0 v 0 l -5.95276,0.85041 v -1.70079 l 5.95276,0.85038"
       style="fill:none;stroke:#000000;stroke-width:0.3685;stroke-linecap:round;stroke-linejoin:round;stroke-miterlimit:10;stroke-dasharray:none;stroke-opacity:1"
       transform="matrix(1.3333333,0,0,-1.3333333,0,158.74)" />
    <path
       id="path20"
       d="m 378.18878,18.83762 5.95276,0.85038 -5.95276,0.85041 z"
       style="fill:#000000;fill-opacity:1;fill-rule:nonzero;stroke:none"
       transform="matrix(1.3333333,0,0,-1.3333333,0,158.74)" />
    <path
       id="path21"
       d="m 56.82727,19.688 v 99.3683"
       style="fill:none;stroke:#000000;stroke-width:0.3685;stroke-linecap:round;stroke-linejoin:round;stroke-miterlimit:10;stroke-dasharray:none;stroke-opacity:1"
       transform="matrix(1.3333333,0,0,-1.3333333,0,158.74)" />
  </g>
</svg>
