<?xml version="1.0" encoding="UTF-8" standalone="no"?>
<!-- Created with Inkscape (http://www.inkscape.org/) -->

<svg
   version="1.1"
   id="svg1"
   width="566.92932"
   height="158.74001"
   viewBox="0 0 566.92932 158.74001"
   sodipodi:docname="jag_q_w_b500c.pdf"
   xmlns:inkscape="http://www.inkscape.org/namespaces/inkscape"
   xmlns:sodipodi="http://sodipodi.sourceforge.net/DTD/sodipodi-0.dtd"
   xmlns="http://www.w3.org/2000/svg"
   xmlns:svg="http://www.w3.org/2000/svg">
  <defs
     id="defs1">
    <clipPath
       clipPathUnits="userSpaceOnUse"
       id="clipPath12">
      <path
         d="M -0.00426,-0.00119 V 119.0563 H 425.20111 V -0.00119 H -0.00426"
         transform="matrix(1,0,0,-1,-65.153882,108.93927)"
         clip-rule="evenodd"
         id="path12" />
    </clipPath>
    <clipPath
       clipPathUnits="userSpaceOnUse"
       id="clipPath13">
      <path
         d="M -0.00426,-0.00119 V 119.0563 H 425.20111 V -0.00119 H -0.00426"
         transform="matrix(1,0,0,-1,-363.14681,8.6562677)"
         clip-rule="evenodd"
         id="path13" />
    </clipPath>
    <clipPath
       clipPathUnits="userSpaceOnUse"
       id="clipPath14">
      <path
         d="M -0.00426,-0.00119 V 119.0563 H 425.20111 V -0.00119 H -0.00426"
         transform="matrix(1,0,0,-1,-371.73116,4.5224101)"
         clip-rule="evenodd"
         id="path14" />
    </clipPath>
    <clipPath
       clipPathUnits="userSpaceOnUse"
       id="clipPath15">
      <path
         d="M -0.00426,-0.00119 V 119.0563 H 425.20111 V -0.00119 H -0.00426"
         transform="matrix(1,0,0,-1,-288.04345,69.305662)"
         clip-rule="evenodd"
         id="path15" />
    </clipPath>
    <clipPath
       clipPathUnits="userSpaceOnUse"
       id="clipPath16">
      <path
         d="M -0.00426,-0.00119 V 119.0563 H 425.20111 V -0.00119 H -0.00426"
         transform="matrix(1,0,0,-1,-288.04345,57.967081)"
         clip-rule="evenodd"
         id="path16" />
    </clipPath>
    <clipPath
       clipPathUnits="userSpaceOnUse"
       id="clipPath17">
      <path
         d="M -0.00426,-0.00119 V 119.0563 H 425.20111 V -0.00119 H -0.00426"
         transform="matrix(1,0,0,-1,-84.804692,67.834811)"
         clip-rule="evenodd"
         id="path17" />
    </clipPath>
    <clipPath
       clipPathUnits="userSpaceOnUse"
       id="clipPath18">
      <path
         d="M -0.00426,-0.00119 V 119.0563 H 425.20111 V -0.00119 H -0.00426"
         transform="matrix(1,0,0,-1,-113.48458,94.418862)"
         clip-rule="evenodd"
         id="path18" />
    </clipPath>
    <clipPath
       clipPathUnits="userSpaceOnUse"
       id="clipPath19">
      <path
         d="M -0.00426,-0.00119 V 119.0563 H 425.20111 V -0.00119 H -0.00426"
         transform="matrix(1,0,0,-1,-175.39128,98.956632)"
         clip-rule="evenodd"
         id="path19" />
    </clipPath>
    <clipPath
       clipPathUnits="userSpaceOnUse"
       id="clipPath20">
      <path
         d="M -0.00426,-0.00119 V 119.0563 H 425.20111 V -0.00119 H -0.00426"
         transform="matrix(1,0,0,-1,-304.48834,104.04455)"
         clip-rule="evenodd"
         id="path20" />
    </clipPath>
  </defs>
  <sodipodi:namedview
     id="namedview1"
     pagecolor="#ffffff"
     bordercolor="#000000"
     borderopacity="0.25"
     inkscape:showpageshadow="2"
     inkscape:pageopacity="0.0"
     inkscape:pagecheckerboard="0"
     inkscape:deskcolor="#d1d1d1">
    <inkscape:page
       x="0"
       y="0"
       inkscape:label="1"
       id="page1"
       width="566.92932"
       height="158.74001"
       margin="0"
       bleed="0" />
  </sodipodi:namedview>
  <g
     id="g1"
     inkscape:groupmode="layer"
     inkscape:label="1">
    <path
       id="path1"
       d="m 56.82729,19.688 26.9541,57.2742 29.08586,26.78342 196.50171,13.3513 M 56.82729,19.688 l 0.6571,1.38735 m 0.97072,2.04945 0.82017,1.73163 M 56.82729,19.688 v 0 m 2.44799,5.16843 v 0 l 0.39304,0.82979 m 0.97073,2.04944 1.08423,2.28904 m -2.448,-5.16827 v 0 m 2.448,5.16827 v 0 l 0.13161,0.27796 m 0.97047,2.04957 1.21308,2.56197 m -2.31516,-4.8895 v 0 m 2.44716,5.16829 v 0 m 0.83571,1.76421 1.2135,2.56175 m -2.04921,-4.32596 v 0 m 2.448,5.16785 v 0 m 0.57382,1.21167 1.21323,2.56189 m -1.78705,-3.77356 v 0 m 2.44801,5.16928 v 0 m 0.30776,0.64969 1.2135,2.56177 m -1.52126,-3.21146 v 0 m 2.44802,5.16786 v 0 m 0.04649,0.09821 1.21316,2.56192 m 0.97052,2.04954 0.21697,0.45818 m -2.44714,-5.16785 v 0 m 2.44714,5.16785 v 0 l 0.99574,2.10265 m 0.9706,2.04951 0.48167,1.01712 m -2.44801,-5.16928 v 0 m 2.44801,5.16928 v 0 l 0.72977,1.54057 m 0.97079,2.04941 0.74744,1.57788 m -2.448,-5.16786 v 0 m 2.448,5.16786 v 0 l 0.46791,0.98805 m 0.97058,2.04952 1.00951,2.1317 m -2.448,-5.16927 v 0 m 2.448,5.16927 v 0 l 0.20421,0.43123 m 0.97052,2.04953 1.21316,2.56193 m -2.38789,-5.04269 v 0 m 2.44717,5.16786 v 0 l 1.61742,1.24284 M 83.75279,76.5401 v 0 m 2.59877,1.99693 v 0 m 0.584,0.59835 1.97994,2.02858 m -2.56394,-2.62693 v 0 m 2.56914,2.63225 v 0"
       style="fill:none;stroke:#000000;stroke-width:0.3685;stroke-linecap:round;stroke-linejoin:round;stroke-miterlimit:10;stroke-dasharray:none;stroke-opacity:1"
       transform="matrix(1.3333333,0,0,-1.3333333,0,158.74)" />
    <path
       id="path2"
       d="m 90.56081,82.55562 0.94935,0.80247 M 88.9207,81.16928 v 0 m 2.58946,2.18881 v 0 l 1.35922,1.48397 m -1.35922,-1.48397 v 0 m 2.56067,2.79569 v 0 m 0.29517,0.31904 1.92503,2.08075 m -2.2202,-2.39979 v 0 m 2.56149,2.76871 v 0 m 1.19924,1.29646 1.36314,1.47366 m -2.56238,-2.77012 v 0 m 2.56238,2.77012 v 0 l 0.5611,0.60648 m 1.54004,1.66459 0.46037,0.49761 M 99.1947,91.69261 v 0 m 2.56151,2.76868 v 0 l 1.28629,1.2525 m -1.28629,-1.2525 v 0 m 2.57335,2.50577 v 0 m 0.35234,0.31257 2.12047,1.88117 m -2.47281,-2.19374 v 0 m 2.58101,2.28971 v 0 m 1.58882,1.40906 0.99301,0.88066 m -2.58183,-2.28972 v 0 m 2.58183,2.28972 v 0 l 1.12721,1 m -1.12721,-1 v 0 m 2.58099,2.28972 v 0 m 1.24274,-0.91003 0.8224,-0.60224 m -2.06514,1.51227 v 0 m 2.06514,-1.51227 v 0 l 1.9511,1.74245 m -1.9511,-1.74245 v 0 m 2.53525,2.26413 v 0 m 0.56693,-0.0523 1.65321,-0.1524 m -2.22014,0.20466 v 0 m 2.22014,-0.20466 v 0 l 0.2793,0.0684 m -0.2793,-0.0684 v 0 m 2.34468,0.5742 v 0 m 1.6892,0.37575 0.59193,0.13167 m -2.28113,-0.50742 v 0 m 2.28113,0.50742 v 0 l 2.26079,-0.0114 m -2.26079,0.0114 v 0 m 2.26079,-0.0114 v 0 l 0.11061,-6.2e-4 m -0.11061,6.2e-4 v 0 m 2.25573,-0.0128 v 0 m 2.21055,0.16542 0.0308,0.002"
       style="fill:none;stroke:#000000;stroke-width:0.3685;stroke-linecap:round;stroke-linejoin:round;stroke-miterlimit:10;stroke-dasharray:none;stroke-opacity:1"
       transform="matrix(1.3333333,0,0,-1.3333333,0,158.74)" />
    <path
       id="path3"
       d="m 128.03625,105.44086 v 0 m 2.24134,0.16771 v 0 l 0.0992,0.005 m -0.0992,-0.005 v 0 m 2.18539,0.10945 v 0 m 0.0355,-0.0105 2.13385,-0.63333 m -2.16934,0.64386 v 0 m 2.16934,-0.64386 v 0 m 0.99228,0.35632 1.37863,0.49504 m -2.37091,-0.85136 v 0 m 2.37091,0.85136 v 0 l 0.46515,-0.10797 m -0.46515,0.10797 v 0 m 2.13715,-0.49603 v 0 m 0.90778,0.34267 1.42669,0.53854 m -2.33447,-0.88121 v 0 m 2.33447,0.88121 v 0 l 2.1829,-0.16913 m -2.1829,0.16913 v 0 m 2.1829,-0.16913 v 0 l 1.28341,0.22296 m -1.28341,-0.22296 v 0 m 2.29892,0.39938 v 0 l 0.79412,-0.11236 m -0.79412,0.11236 v 0 m 2.28027,-0.32263 v 0 m 2.14557,0.16674 0.0856,0.007 m -2.23117,-0.17339 v 0 m 2.23117,0.17339 v 0 m 0.9147,0.11275 1.34525,0.16583 m -2.25995,-0.27858 v 0 m 2.25995,0.27858 v 0 l 1.168,0.0223 m -1.168,-0.0223 v 0 m 2.23202,0.0426 v 0 l 1.14514,-0.002 m -1.14514,0.002 v 0 m 2.27774,-0.004 v 0 m 1.31906,0.13157 1.00358,0.10011 m -2.32264,-0.23168 v 0 m 2.32264,0.23168 v 0 l 0.62109,0.15571 m -0.62109,-0.15571 v 0 m 2.19387,0.55003 v 0 l 0.78336,-0.17343 m -0.78336,0.17343 v 0 m 2.20829,-0.48892 v 0 l 0.40738,0.0771 m -0.40738,-0.0771 v 0 m 2.26757,0.42923 v 0"
       style="fill:none;stroke:#000000;stroke-width:0.3685;stroke-linecap:round;stroke-linejoin:round;stroke-miterlimit:10;stroke-dasharray:none;stroke-opacity:1"
       transform="matrix(1.3333333,0,0,-1.3333333,0,158.74)" />
    <path
       id="path4"
       d="m 166.23019,107.43068 0.51877,-0.0267 m -0.51877,0.0267 v 0 m 2.20914,-0.11369 v 0 l 0.73596,0.094 m -0.73596,-0.094 v 0 m 2.293,0.29278 v 0 l 0.68866,-10e-4 m -0.68866,10e-4 v 0 m 2.20575,-0.004 v 0 m 1.17963,0.0507 1.06759,0.0459 m -2.24722,-0.0966 v 0 m 2.24722,0.0966 v 0 m 1.66239,0.20624 0.60608,0.0752 m -2.26847,-0.28142 v 0 m 2.26847,0.28142 v 0 m 1.45803,-0.004 0.87815,-0.003 m -2.33618,0.007 v 0 m 2.33618,-0.007 v 0 l 1.49188,0.002 m -1.49188,-0.002 v 0 m 2.25909,0.003 v 0 m 1.63602,0 h 0.62225 m -2.25827,0 v 0 m 2.25827,0 v 0 l 1.68445,-0.4635 m -1.68445,0.4635 v 0 m 2.31925,-0.63817 v 0 l 1.45089,0.46588 m -1.45089,-0.46588 v 0 m 2.21762,0.71207 v 0 h 2.37686 m -2.37686,0 v 0 m 2.37686,0 v 0 l 0.33618,2.1e-4 m -0.33618,-2.1e-4 v 0 m 2.37598,0.001 v 0 m 0.29275,0 h 2.08325 m -2.376,0 v 0 m 2.376,0 v 0 h 0.75141 m -0.75141,0 v 0 m 2.37601,0 v 0 m 0.65308,0.0685 1.73141,0.18163 m -2.38449,-0.25014 v 0 m 2.38449,0.25014 v 0 l 0.34235,-0.0133 m -0.34235,0.0133 v 0 m 2.23367,-0.0867 v 0 m 1.47589,0.0678 0.81373,0.0374 m -2.28962,-0.10518 v 0"
       style="fill:none;stroke:#000000;stroke-width:0.3685;stroke-linecap:round;stroke-linejoin:round;stroke-miterlimit:10;stroke-dasharray:none;stroke-opacity:1"
       transform="matrix(1.3333333,0,0,-1.3333333,0,158.74)" />
    <path
       id="path5"
       d="m 205.25681,108.32326 v 0 l 2.01791,0.0927 m -2.01791,-0.0927 v 0 m 2.28961,0.10518 v 0 m 0.24136,0.003 2.02622,0.0267 m -2.26758,-0.0298 v 0 m 2.26758,0.0298 v 0 m 0.0179,-0.003 2.28271,-0.38641 m -2.30059,0.38943 v 0 m 2.30059,-0.38943 v 0 l 1.24887,0.1129 m -1.24887,-0.1129 v 0 m 2.26422,0.20466 v 0 m 1.23591,0.0449 0.99609,0.0361 m -2.232,-0.081 v 0 m 2.232,0.081 v 0 l 0.78696,0.0369 m -0.78696,-0.0369 v 0 m 2.24301,0.10518 v 0 m 1.50183,-0.0131 1.26892,-0.0111 m -2.77075,0.0241 v 0 m 2.77075,-0.0241 v 0 m 1.06809,0.0181 1.1893,0.0202 m -2.25739,-0.0384 v 0 m 2.25739,0.0384 v 0 l 1.87869,0.0278 m -1.87869,-0.0278 v 0 m 2.59793,0.0384 v 0 h 0.8587 m -0.8587,0 v 0 m 2.4946,0 v 0 m 1.49634,0.0611 0.8009,0.0327 m -2.29724,-0.0938 v 0 m 2.29724,0.0938 v 0 l 2.30908,0.0853 m -2.30908,-0.0853 v 0 m 2.30908,0.0853 v 0 l 0.0487,0.002 m -0.0487,-0.002 v 0 m 2.30908,0.0867 v 0 m 0.0674,0.002 2.24169,0.0828 m -2.30908,-0.0853 v 0 m 2.30908,0.0853 v 0 l 0.59067,0.0218 m -0.59067,-0.0218 v 0 m 2.30909,0.0853 v 0 m 0.54947,0.0203 1.76046,0.065 m -2.30993,-0.0853 v 0 m 2.30993,0.0853 v 0 m 0.21427,0.004 2.1279,0.0374"
       style="fill:none;stroke:#000000;stroke-width:0.3685;stroke-linecap:round;stroke-linejoin:round;stroke-miterlimit:10;stroke-dasharray:none;stroke-opacity:1"
       transform="matrix(1.3333333,0,0,-1.3333333,0,158.74)" />
    <path
       id="path6"
       d="m 242.81799,109.03391 v 0 m 2.34217,0.0412 v 0 l 2.53177,0.001 m -2.53177,-0.001 v 0 m 2.75631,0.001 v 0 m 2.04044,0.001 0.58798,3.2e-4 m -2.62842,-0.001 v 0 m 2.62842,0.001 v 0 h 2.30551 m -2.30551,0 v 0 m 2.58267,0 v 0 m 1.99054,0 h 0.68195 m -2.67249,0 v 0 m 2.67249,0 v 0 m 1.35943,-0.28283 0.86069,-0.1791 m -2.22012,0.46193 v 0 m 2.22012,-0.46193 v 0 l 1.8909,0.0568 m -1.8909,-0.0568 v 0 m 2.65131,0.0796 v 0 m 1.90842,0.26861 v 0 m 1.32983,0.0864 0.90137,0.0586 m -2.2312,-0.14498 v 0 m 2.2312,0.14498 v 0 m 1.55737,0.0608 0.77203,0.0301 m -2.3294,-0.091 v 0 m 2.3294,0.091 v 0 m 0.0232,7.3e-4 2.31048,0.0718 m -2.33365,-0.0725 v 0 m 2.33365,0.0725 v 0 l 0.46127,0.0146 m -0.46127,-0.0146 v 0 m 2.33365,0.0739 v 0 m 0.45605,0.0142 1.8776,0.0583 m -2.33365,-0.0725 v 0 m 2.33365,0.0725 v 0 l 0.95535,0.0297 m -0.95535,-0.0297 v 0 m 2.33365,0.0725 v 0 m 0.88827,0.0276 1.44538,0.0449 m -2.33365,-0.0725 v 0 m 2.33365,0.0725 v 0 l 1.32675,0.042 m -1.32675,-0.042 v 0 m 2.33365,0.0739 v 0 m 1.32055,0.041 1.01309,0.0315 m -2.33364,-0.0725 v 0 m 2.33364,0.0725 v 0 m 0.43497,0.007 2.07657,0.0352 m -2.51154,-0.0426 v 0"
       style="fill:none;stroke:#000000;stroke-width:0.3685;stroke-linecap:round;stroke-linejoin:round;stroke-miterlimit:10;stroke-dasharray:none;stroke-opacity:1"
       transform="matrix(1.3333333,0,0,-1.3333333,0,158.74)" />
    <path
       id="path7"
       d="m 285.98758,109.75308 v 0 l 2.57935,2e-5 m -2.57935,-2e-5 v 0 m 2.76309,0 v 0 m 1.48282,0.008 1.35062,0.007 m -2.83344,-0.0156 v 0 m 2.83344,0.0156 v 0 l 2.60818,-0.0123 m -2.60818,0.0123 v 0 m 2.70044,-0.0128 v 0 m -23.249,-37.61562 h 11.3386 m -11.3386,-11.05513 h 2.22431 m 2.2677,0 h 2.83465 m 2.2677,0 h 1.74424 m -11.3386,0 v 0 m 11.3386,0 v 0"
       style="fill:none;stroke:#000000;stroke-width:0.3685;stroke-linecap:round;stroke-linejoin:round;stroke-miterlimit:10;stroke-dasharray:none;stroke-opacity:1"
       transform="matrix(1.3333333,0,0,-1.3333333,0,158.74)" />
    <path
       id="path8"
       d="m 113.49072,103.83621 c 0,0.78276 -0.63455,1.41731 -1.41733,1.41731 m 0,0 c -0.78276,0 -1.41731,-0.63455 -1.41731,-1.41731 m 0,0 c 0,-0.78277 0.63455,-1.41733 1.41731,-1.41733 m 0,0 c 0.78278,0 1.41733,0.63456 1.41733,1.41733"
       style="fill:none;stroke:#000000;stroke-width:0.3685;stroke-linecap:round;stroke-linejoin:round;stroke-miterlimit:10;stroke-dasharray:none;stroke-opacity:1"
       transform="matrix(1.3333333,0,0,-1.3333333,0,158.74)" />
    <path
       id="path9"
       d="m 85.1701,76.5401 c 0,0.78276 -0.63455,1.41733 -1.41731,1.41733 m 0,0 c -0.78277,0 -1.41733,-0.63457 -1.41733,-1.41733 m 0,0 c 0,-0.78276 0.63456,-1.41733 1.41733,-1.41733 m 0,0 c 0.78276,0 1.41731,0.63457 1.41731,1.41733"
       style="fill:none;stroke:#000000;stroke-width:0.3685;stroke-linecap:round;stroke-linejoin:round;stroke-miterlimit:10;stroke-dasharray:none;stroke-opacity:1"
       transform="matrix(1.3333333,0,0,-1.3333333,0,158.74)" />
    <path
       id="path10"
       d="m 180.41666,108.23897 c 0,0.78276 -0.63456,1.41733 -1.4173,1.41733 m 0,0 c -0.78278,0 -1.41733,-0.63457 -1.41733,-1.41733 m 0,0 c 0,-0.78276 0.63455,-1.41733 1.41733,-1.41733 m 0,0 c 0.78274,0 1.4173,0.63457 1.4173,1.41733"
       style="fill:none;stroke:#000000;stroke-width:0.3685;stroke-linecap:round;stroke-linejoin:round;stroke-miterlimit:10;stroke-dasharray:none;stroke-opacity:1"
       transform="matrix(1.3333333,0,0,-1.3333333,0,158.74)" />
    <path
       id="path11"
       d="m 295.70184,109.75594 c 0,0.78276 -0.63455,1.41732 -1.41729,1.41732 m 0,0 c -0.78278,0 -1.41733,-0.63456 -1.41733,-1.41732 m 0,0 c 0,-0.78276 0.63455,-1.41733 1.41733,-1.41733 m 0,0 c 0.78274,0 1.41729,0.63457 1.41729,1.41733"
       style="fill:none;stroke:#000000;stroke-width:0.3685;stroke-linecap:round;stroke-linejoin:round;stroke-miterlimit:10;stroke-dasharray:none;stroke-opacity:1"
       transform="matrix(1.3333333,0,0,-1.3333333,0,158.74)" />
    <text
       id="text11"
       xml:space="preserve"
       transform="matrix(1.3333333,0,0,1.3333333,86.87184,13.48764)"
       clip-path="url(#clipPath12)"><tspan
         style="font-style:italic;font-variant:normal;font-weight:normal;font-stretch:normal;font-size:10.0071px;font-family:'Palatino Linotype';writing-mode:lr-tb;fill:#000000;fill-opacity:1;fill-rule:nonzero;stroke:none"
         x="0"
         y="0"
         id="tspan11">q</tspan></text>
    <text
       id="text12"
       xml:space="preserve"
       transform="matrix(1.3333333,0,0,1.3333333,484.19573,147.19831)"
       clip-path="url(#clipPath13)"><tspan
         style="font-style:italic;font-variant:normal;font-weight:normal;font-stretch:normal;font-size:10.0071px;font-family:'Palatino Linotype';writing-mode:lr-tb;fill:#000000;fill-opacity:1;fill-rule:nonzero;stroke:none"
         x="0"
         y="0"
         id="tspan12">w</tspan></text>
    <text
       id="text13"
       xml:space="preserve"
       transform="matrix(1.3333333,0,0,1.3333333,495.64153,152.71012)"
       clip-path="url(#clipPath14)"><tspan
         style="font-style:italic;font-variant:normal;font-weight:normal;font-stretch:normal;font-size:6.00428px;font-family:'Palatino Linotype';writing-mode:lr-tb;fill:#000000;fill-opacity:1;fill-rule:nonzero;stroke:none"
         x="0"
         y="0"
         id="tspan13">m</tspan></text>
    <text
       id="text14"
       xml:space="preserve"
       transform="matrix(1.3333333,0,0,1.3333333,384.05792,66.332453)"
       clip-path="url(#clipPath15)"><tspan
         style="font-style:italic;font-variant:normal;font-weight:normal;font-stretch:normal;font-size:8.0057px;font-family:'Palatino Linotype';writing-mode:lr-tb;fill:#000000;fill-opacity:1;fill-rule:nonzero;stroke:none"
         x="0 4.8914828 8.8943329 12.897182 16.900032 22.239834 24.241261 27.79579 32.24696 35.801491 38.027077 42.029926 44.695824 46.92141 50.035625 53.293945"
         y="0"
         sodipodi:role="line"
         id="tspan14">B500C analytisch</tspan></text>
    <text
       id="text15"
       xml:space="preserve"
       transform="matrix(1.3333333,0,0,1.3333333,384.05792,81.45056)"
       clip-path="url(#clipPath16)"><tspan
         style="font-style:italic;font-variant:normal;font-weight:normal;font-stretch:normal;font-size:8.0057px;font-family:'Palatino Linotype';writing-mode:lr-tb;fill:#000000;fill-opacity:1;fill-rule:nonzero;stroke:none"
         x="0 4.8914828 8.8943329 12.897182 16.900032 22.239834 24.241261 30.469694 34.920864 39.372032"
         y="0"
         sodipodi:role="line"
         id="tspan15">B500C NLFE</tspan></text>
    <text
       id="text16"
       xml:space="preserve"
       transform="matrix(1.3333333,0,0,1.3333333,113.07292,68.293587)"
       clip-path="url(#clipPath17)"><tspan
         style="font-style:italic;font-variant:normal;font-weight:normal;font-stretch:normal;font-size:8.0057px;font-family:'Palatino Linotype';writing-mode:lr-tb;fill:#000000;fill-opacity:1;fill-rule:nonzero;stroke:none"
         x="0 4.451169 9.3426523 11.344077 15.346927 17.348352 21.351202 23.352627 27.355476 31.358326"
         y="0"
         sodipodi:role="line"
         id="tspan16">LP = 0.433</tspan></text>
    <text
       id="text17"
       xml:space="preserve"
       transform="matrix(1.3333333,0,0,1.3333333,151.31277,32.848187)"
       clip-path="url(#clipPath18)"><tspan
         style="font-style:italic;font-variant:normal;font-weight:normal;font-stretch:normal;font-size:8.0057px;font-family:'Palatino Linotype';writing-mode:lr-tb;fill:#000000;fill-opacity:1;fill-rule:nonzero;stroke:none"
         x="0 4.451169 9.3426523 11.344077 15.346927 17.348352 21.351202 23.352627 27.355476 31.358326"
         y="0"
         sodipodi:role="line"
         id="tspan17">LP = 0.597</tspan></text>
    <text
       id="text18"
       xml:space="preserve"
       transform="matrix(1.3333333,0,0,1.3333333,233.85503,26.797827)"
       clip-path="url(#clipPath19)"><tspan
         style="font-style:italic;font-variant:normal;font-weight:normal;font-stretch:normal;font-size:8.0057px;font-family:'Palatino Linotype';writing-mode:lr-tb;fill:#000000;fill-opacity:1;fill-rule:nonzero;stroke:none"
         x="0 4.451169 9.3426523 11.344077 15.346927 17.348352 21.351202 23.352627 27.355476 31.358326"
         y="0"
         sodipodi:role="line"
         id="tspan18">LP = 0.619</tspan></text>
    <text
       id="text19"
       xml:space="preserve"
       transform="matrix(1.3333333,0,0,1.3333333,405.98444,20.013933)"
       clip-path="url(#clipPath20)"><tspan
         style="font-style:italic;font-variant:normal;font-weight:normal;font-stretch:normal;font-size:8.0057px;font-family:'Palatino Linotype';writing-mode:lr-tb;fill:#000000;fill-opacity:1;fill-rule:nonzero;stroke:none"
         x="0 4.451169 9.3426523 11.344077 15.346927 17.348352 21.351202 23.352627 27.355476 31.358326"
         y="0"
         sodipodi:role="line"
         id="tspan19">LP = 0.634</tspan></text>
    <path
       id="path21"
       d="m 56.82729,19.688 v 96.46535 m 0,-5.95276 v -0.4252 m 0,6.37796 v 0 l -0.85041,-5.95276 h 1.70078 l -0.85037,5.95276"
       style="fill:none;stroke:#000000;stroke-width:0.3685;stroke-linecap:round;stroke-linejoin:round;stroke-miterlimit:10;stroke-dasharray:none;stroke-opacity:1"
       transform="matrix(1.3333333,0,0,-1.3333333,0,158.74)" />
    <path
       id="path22"
       d="m 57.67766,110.20059 -0.85037,5.95276 -0.85041,-5.95276 z"
       style="fill:#000000;fill-opacity:1;fill-rule:nonzero;stroke:none"
       transform="matrix(1.3333333,0,0,-1.3333333,0,158.74)" />
    <path
       id="path23"
       d="m 260.92178,19.688 h 123.21976 m -5.95276,0 h -0.4252 m 6.37796,0 v 0 l -5.95276,0.85039 v -1.70077 l 5.95276,0.85038"
       style="fill:none;stroke:#000000;stroke-width:0.3685;stroke-linecap:round;stroke-linejoin:round;stroke-miterlimit:10;stroke-dasharray:none;stroke-opacity:1"
       transform="matrix(1.3333333,0,0,-1.3333333,0,158.74)" />
    <path
       id="path24"
       d="m 378.18878,18.83762 5.95276,0.85038 -5.95276,0.85039 z"
       style="fill:#000000;fill-opacity:1;fill-rule:nonzero;stroke:none"
       transform="matrix(1.3333333,0,0,-1.3333333,0,158.74)" />
    <path
       id="path25"
       d="m 56.82729,19.688 h 327.31425 m -5.95276,0 h -0.4252 m 6.37796,0 v 0 l -5.95276,0.85039 v -1.70077 l 5.95276,0.85038"
       style="fill:none;stroke:#000000;stroke-width:0.3685;stroke-linecap:round;stroke-linejoin:round;stroke-miterlimit:10;stroke-dasharray:none;stroke-opacity:1"
       transform="matrix(1.3333333,0,0,-1.3333333,0,158.74)" />
    <path
       id="path26"
       d="m 378.18878,18.83762 5.95276,0.85038 -5.95276,0.85039 z"
       style="fill:#000000;fill-opacity:1;fill-rule:nonzero;stroke:none"
       transform="matrix(1.3333333,0,0,-1.3333333,0,158.74)" />
  </g>
</svg>
