<?xml version="1.0" encoding="UTF-8" standalone="no"?>
<!-- Created with Inkscape (http://www.inkscape.org/) -->

<svg
   version="1.1"
   id="svg1"
   width="566.92932"
   height="132.28346"
   viewBox="0 0 566.92932 132.28346"
   sodipodi:docname="jag_plast_rot_A.pdf"
   xmlns:inkscape="http://www.inkscape.org/namespaces/inkscape"
   xmlns:sodipodi="http://sodipodi.sourceforge.net/DTD/sodipodi-0.dtd"
   xmlns="http://www.w3.org/2000/svg"
   xmlns:svg="http://www.w3.org/2000/svg">
  <defs
     id="defs1">
    <clipPath
       clipPathUnits="userSpaceOnUse"
       id="clipPath74">
      <path
         d="M -0.00426,-9.9e-4 V 99.21359 H 425.20111 V -9.9e-4 H -0.00426"
         transform="matrix(1,0,0,-1,-327.34252,8.1112477)"
         clip-rule="evenodd"
         id="path74" />
    </clipPath>
    <clipPath
       clipPathUnits="userSpaceOnUse"
       id="clipPath76">
      <path
         d="M -0.00426,-9.9e-4 V 99.21359 H 425.20111 V -9.9e-4 H -0.00426"
         transform="matrix(1,0,0,-1,-390.49832,67.847971)"
         clip-rule="evenodd"
         id="path76" />
    </clipPath>
    <clipPath
       clipPathUnits="userSpaceOnUse"
       id="clipPath77">
      <path
         d="M -0.00426,-9.9e-4 V 99.21359 H 425.20111 V -9.9e-4 H -0.00426"
         transform="matrix(1,0,0,-1,-399.58526,63.714121)"
         clip-rule="evenodd"
         id="path77" />
    </clipPath>
    <clipPath
       clipPathUnits="userSpaceOnUse"
       id="clipPath78">
      <path
         d="M -0.00426,-9.9e-4 V 99.21359 H 425.20111 V -9.9e-4 H -0.00426"
         transform="matrix(1,0,0,-1,-405.81129,67.847971)"
         clip-rule="evenodd"
         id="path78" />
    </clipPath>
    <clipPath
       clipPathUnits="userSpaceOnUse"
       id="clipPath79">
      <path
         d="M -0.00426,-9.9e-4 V 99.21359 H 425.20111 V -9.9e-4 H -0.00426"
         transform="matrix(1,0,0,-1,-420.97076,63.714121)"
         clip-rule="evenodd"
         id="path79" />
    </clipPath>
    <clipPath
       clipPathUnits="userSpaceOnUse"
       id="clipPath80">
      <path
         d="M -0.00426,-9.9e-4 V 99.21359 H 425.20111 V -9.9e-4 H -0.00426"
         transform="matrix(1,0,0,-1,-355.26177,84.094972)"
         clip-rule="evenodd"
         id="path80" />
    </clipPath>
    <clipPath
       clipPathUnits="userSpaceOnUse"
       id="clipPath81">
      <path
         d="M -0.00426,-9.9e-4 V 99.21359 H 425.20111 V -9.9e-4 H -0.00426"
         transform="matrix(1,0,0,-1,-361.02654,79.961112)"
         clip-rule="evenodd"
         id="path81" />
    </clipPath>
    <clipPath
       clipPathUnits="userSpaceOnUse"
       id="clipPath82">
      <path
         d="M -0.00426,-9.9e-4 V 99.21359 H 425.20111 V -9.9e-4 H -0.00426"
         transform="matrix(1,0,0,-1,-366.29474,84.094972)"
         clip-rule="evenodd"
         id="path82" />
    </clipPath>
    <clipPath
       clipPathUnits="userSpaceOnUse"
       id="clipPath83">
      <path
         d="M -0.00426,-9.9e-4 V 99.21359 H 425.20111 V -9.9e-4 H -0.00426"
         transform="matrix(1,0,0,-1,-378.06054,79.961112)"
         clip-rule="evenodd"
         id="path83" />
    </clipPath>
    <clipPath
       clipPathUnits="userSpaceOnUse"
       id="clipPath84">
      <path
         d="M -0.00426,-9.9e-4 V 99.21359 H 425.20111 V -9.9e-4 H -0.00426"
         transform="matrix(1,0,0,-1,-250.24006,67.847971)"
         clip-rule="evenodd"
         id="path84" />
    </clipPath>
    <clipPath
       clipPathUnits="userSpaceOnUse"
       id="clipPath85">
      <path
         d="M -0.00426,-9.9e-4 V 99.21359 H 425.20111 V -9.9e-4 H -0.00426"
         transform="matrix(1,0,0,-1,-259.327,63.714121)"
         clip-rule="evenodd"
         id="path85" />
    </clipPath>
    <clipPath
       clipPathUnits="userSpaceOnUse"
       id="clipPath86">
      <path
         d="M -0.00426,-9.9e-4 V 99.21359 H 425.20111 V -9.9e-4 H -0.00426"
         transform="matrix(1,0,0,-1,-226.812,46.169711)"
         clip-rule="evenodd"
         id="path86" />
    </clipPath>
    <clipPath
       clipPathUnits="userSpaceOnUse"
       id="clipPath87">
      <path
         d="M -0.00426,-9.9e-4 V 99.21359 H 425.20111 V -9.9e-4 H -0.00426"
         transform="matrix(1,0,0,-1,-233.39602,42.035851)"
         clip-rule="evenodd"
         id="path87" />
    </clipPath>
    <clipPath
       clipPathUnits="userSpaceOnUse"
       id="clipPath88">
      <path
         d="M -0.00426,-9.9e-4 V 99.21359 H 425.20111 V -9.9e-4 H -0.00426"
         transform="matrix(1,0,0,-1,-232.68034,84.094972)"
         clip-rule="evenodd"
         id="path88" />
    </clipPath>
    <clipPath
       clipPathUnits="userSpaceOnUse"
       id="clipPath89">
      <path
         d="M -0.00426,-9.9e-4 V 99.21359 H 425.20111 V -9.9e-4 H -0.00426"
         transform="matrix(1,0,0,-1,-238.44511,79.961112)"
         clip-rule="evenodd"
         id="path89" />
    </clipPath>
    <clipPath
       clipPathUnits="userSpaceOnUse"
       id="clipPath91">
      <path
         d="M -0.00426,-9.9e-4 V 99.21359 H 425.20111 V -9.9e-4 H -0.00426"
         transform="matrix(1,0,0,-1,-187.08424,8.7183802)"
         clip-rule="evenodd"
         id="path91" />
    </clipPath>
    <clipPath
       clipPathUnits="userSpaceOnUse"
       id="clipPath93">
      <path
         d="M -0.00426,-9.9e-4 V 99.21359 H 425.20111 V -9.9e-4 H -0.00426"
         transform="matrix(1,0,0,-1,-81.836875,25.680891)"
         clip-rule="evenodd"
         id="path93" />
    </clipPath>
    <clipPath
       clipPathUnits="userSpaceOnUse"
       id="clipPath94">
      <path
         d="M -0.00426,-9.9e-4 V 99.21359 H 425.20111 V -9.9e-4 H -0.00426"
         transform="matrix(1,0,0,-1,-88.420892,21.547033)"
         clip-rule="evenodd"
         id="path94" />
    </clipPath>
    <clipPath
       clipPathUnits="userSpaceOnUse"
       id="clipPath95">
      <path
         d="M -0.00426,-9.9e-4 V 99.21359 H 425.20111 V -9.9e-4 H -0.00426"
         transform="matrix(1,0,0,-1,-92.422052,84.094972)"
         clip-rule="evenodd"
         id="path95" />
    </clipPath>
    <clipPath
       clipPathUnits="userSpaceOnUse"
       id="clipPath96">
      <path
         d="M -0.00426,-9.9e-4 V 99.21359 H 425.20111 V -9.9e-4 H -0.00426"
         transform="matrix(1,0,0,-1,-98.186845,79.961112)"
         clip-rule="evenodd"
         id="path96" />
    </clipPath>
    <clipPath
       clipPathUnits="userSpaceOnUse"
       id="clipPath98">
      <path
         d="M -0.00426,-9.9e-4 V 99.21359 H 425.20111 V -9.9e-4 H -0.00426"
         transform="matrix(1,0,0,-1,-46.825961,8.7183802)"
         clip-rule="evenodd"
         id="path98" />
    </clipPath>
    <clipPath
       clipPathUnits="userSpaceOnUse"
       id="clipPath100">
      <path
         d="M -0.00426,-9.9e-4 V 99.21359 H 425.20111 V -9.9e-4 H -0.00426"
         transform="matrix(1,0,0,-1,-367.07027,46.169711)"
         clip-rule="evenodd"
         id="path100" />
    </clipPath>
    <clipPath
       clipPathUnits="userSpaceOnUse"
       id="clipPath101">
      <path
         d="M -0.00426,-9.9e-4 V 99.21359 H 425.20111 V -9.9e-4 H -0.00426"
         transform="matrix(1,0,0,-1,-373.65429,42.035851)"
         clip-rule="evenodd"
         id="path101" />
    </clipPath>
    <clipPath
       clipPathUnits="userSpaceOnUse"
       id="clipPath102">
      <path
         d="M -0.00426,-9.9e-4 V 99.21359 H 425.20111 V -9.9e-4 H -0.00426"
         transform="matrix(1,0,0,-1,-87.430135,46.800691)"
         clip-rule="evenodd"
         id="path102" />
    </clipPath>
  </defs>
  <sodipodi:namedview
     id="namedview1"
     pagecolor="#ffffff"
     bordercolor="#000000"
     borderopacity="0.25"
     inkscape:showpageshadow="2"
     inkscape:pageopacity="0.0"
     inkscape:pagecheckerboard="0"
     inkscape:deskcolor="#d1d1d1">
    <inkscape:page
       x="0"
       y="0"
       inkscape:label="1"
       id="page1"
       width="566.92932"
       height="132.28346"
       margin="0"
       bleed="0" />
  </sodipodi:namedview>
  <g
     id="g1"
     inkscape:groupmode="layer"
     inkscape:label="1">
    <path
       id="path1"
       d="m 290.80875,57.42838 h 90.70868"
       style="fill:none;stroke:#000000;stroke-width:0.51024;stroke-linecap:round;stroke-linejoin:round;stroke-miterlimit:10;stroke-dasharray:none;stroke-opacity:1"
       transform="matrix(1.3333333,0,0,-1.3333333,0,132.28347)" />
    <path
       id="path2"
       d="m 290.80875,57.42838 -4.00879,-4.00879 m 4.00879,4.00879 4.00879,-4.00879 m -8.01758,0 h 8.01758 m -8.01758,-1.47402 h 8.01758 m 86.69989,5.48281 -4.00882,-4.00879 m 4.00882,4.00879 4.00878,-4.00879 m -8.0176,0 h 8.0176 m -8.0176,-1.47402 1.47403,1.47402 m 0,-1.47402 1.47403,1.47402 m 0,-1.47402 1.47399,1.47402 m 0,-1.47402 1.47403,1.47402 m 0,-1.47402 1.474,1.47402"
       style="fill:none;stroke:#000000;stroke-width:0.3685;stroke-linecap:round;stroke-linejoin:round;stroke-miterlimit:10;stroke-dasharray:none;stroke-opacity:1"
       transform="matrix(1.3333333,0,0,-1.3333333,0,132.28347)" />
    <path
       id="path3"
       d="m 290.80875,57.42838 h 90.70868 m -90.70868,0 v 0"
       style="fill:none;stroke:#000000;stroke-width:0.51024;stroke-linecap:round;stroke-linejoin:round;stroke-miterlimit:10;stroke-dasharray:none;stroke-opacity:1"
       transform="matrix(1.3333333,0,0,-1.3333333,0,132.28347)" />
    <path
       id="path4"
       d="m 388.67612,48.69962 c 4.82077,2.40063 6.78268,8.25474 4.38202,13.07551 m 0,0 c -0.99936,2.00684 -2.6597,3.60802 -4.70148,4.53394"
       style="fill:none;stroke:#979797;stroke-width:0.51024;stroke-linecap:round;stroke-linejoin:round;stroke-miterlimit:10;stroke-dasharray:none;stroke-opacity:1"
       transform="matrix(1.3333333,0,0,-1.3333333,0,132.28347)" />
    <path
       id="path5"
       d="m 390.56955,50.06143 -2.56824,-1.86644 m 4.81543,3.49959 0.34397,0.24997 m -5.1594,-3.74956 v 0 l 5.31537,2.81166 -0.99988,1.37583 -4.31549,-4.18749"
       style="fill:none;stroke:#979797;stroke-width:0.3685;stroke-linecap:round;stroke-linejoin:round;stroke-miterlimit:10;stroke-dasharray:none;stroke-opacity:1"
       transform="matrix(1.3333333,0,0,-1.3333333,0,132.28347)" />
    <path
       id="path6"
       d="m 392.3168,52.38248 -4.31549,-4.18749 5.31537,2.81166 z"
       style="fill:#979797;fill-opacity:1;fill-rule:nonzero;stroke:none"
       transform="matrix(1.3333333,0,0,-1.3333333,0,132.28347)" />
    <path
       id="path7"
       d="m 302.14734,75.34335 v -8.8441 m 0,5.95276 v 0.42519 m 0,-6.37795 v 0 l 0.8504,5.95276 h -1.7008 l 0.8504,-5.95276"
       style="fill:none;stroke:#4c4c4c;stroke-width:0.3685;stroke-linecap:round;stroke-linejoin:round;stroke-miterlimit:10;stroke-dasharray:none;stroke-opacity:1"
       transform="matrix(1.3333333,0,0,-1.3333333,0,132.28347)" />
    <path
       id="path8"
       d="m 301.29694,72.45201 0.8504,-5.95276 0.8504,5.95276 z"
       style="fill:#4c4c4c;fill-opacity:1;fill-rule:nonzero;stroke:none"
       transform="matrix(1.3333333,0,0,-1.3333333,0,132.28347)" />
    <path
       id="path9"
       d="m 313.48593,75.34335 v -8.8441 m 0,5.95276 v 0.42519 m 0,-6.37795 v 0 l 0.85037,5.95276 h -1.70077 l 0.8504,-5.95276"
       style="fill:none;stroke:#4c4c4c;stroke-width:0.3685;stroke-linecap:round;stroke-linejoin:round;stroke-miterlimit:10;stroke-dasharray:none;stroke-opacity:1"
       transform="matrix(1.3333333,0,0,-1.3333333,0,132.28347)" />
    <path
       id="path10"
       d="m 312.63553,72.45201 0.8504,-5.95276 0.85037,5.95276 z"
       style="fill:#4c4c4c;fill-opacity:1;fill-rule:nonzero;stroke:none"
       transform="matrix(1.3333333,0,0,-1.3333333,0,132.28347)" />
    <path
       id="path11"
       d="m 324.82449,75.34335 v -8.8441 m 0,5.95276 v 0.42519 m 0,-6.37795 v 0 l 0.85041,5.95276 h -1.70078 l 0.85037,-5.95276"
       style="fill:none;stroke:#4c4c4c;stroke-width:0.3685;stroke-linecap:round;stroke-linejoin:round;stroke-miterlimit:10;stroke-dasharray:none;stroke-opacity:1"
       transform="matrix(1.3333333,0,0,-1.3333333,0,132.28347)" />
    <path
       id="path12"
       d="m 323.97412,72.45201 0.85037,-5.95276 0.85041,5.95276 z"
       style="fill:#4c4c4c;fill-opacity:1;fill-rule:nonzero;stroke:none"
       transform="matrix(1.3333333,0,0,-1.3333333,0,132.28347)" />
    <path
       id="path13"
       d="m 336.16309,75.34335 v -8.8441 m 0,5.95276 v 0.42519 m 0,-6.37795 v 0 l 0.8504,5.95276 h -1.70081 l 0.85041,-5.95276"
       style="fill:none;stroke:#4c4c4c;stroke-width:0.3685;stroke-linecap:round;stroke-linejoin:round;stroke-miterlimit:10;stroke-dasharray:none;stroke-opacity:1"
       transform="matrix(1.3333333,0,0,-1.3333333,0,132.28347)" />
    <path
       id="path14"
       d="m 335.31268,72.45201 0.85041,-5.95276 0.8504,5.95276 z"
       style="fill:#4c4c4c;fill-opacity:1;fill-rule:nonzero;stroke:none"
       transform="matrix(1.3333333,0,0,-1.3333333,0,132.28347)" />
    <path
       id="path15"
       d="m 347.50168,75.34335 v -8.8441 m 0,5.95276 v 0.42519 m 0,-6.37795 v 0 l 0.85037,5.95276 h -1.70077 l 0.8504,-5.95276"
       style="fill:none;stroke:#4c4c4c;stroke-width:0.3685;stroke-linecap:round;stroke-linejoin:round;stroke-miterlimit:10;stroke-dasharray:none;stroke-opacity:1"
       transform="matrix(1.3333333,0,0,-1.3333333,0,132.28347)" />
    <path
       id="path16"
       d="m 346.65128,72.45201 0.8504,-5.95276 0.85037,5.95276 z"
       style="fill:#4c4c4c;fill-opacity:1;fill-rule:nonzero;stroke:none"
       transform="matrix(1.3333333,0,0,-1.3333333,0,132.28347)" />
    <path
       id="path17"
       d="m 358.84024,75.34335 v -8.8441 m 0,5.95276 v 0.42519 m 0,-6.37795 v 0 l 0.8504,5.95276 h -1.70077 l 0.85037,-5.95276"
       style="fill:none;stroke:#4c4c4c;stroke-width:0.3685;stroke-linecap:round;stroke-linejoin:round;stroke-miterlimit:10;stroke-dasharray:none;stroke-opacity:1"
       transform="matrix(1.3333333,0,0,-1.3333333,0,132.28347)" />
    <path
       id="path18"
       d="m 357.98987,72.45201 0.85037,-5.95276 0.8504,5.95276 z"
       style="fill:#4c4c4c;fill-opacity:1;fill-rule:nonzero;stroke:none"
       transform="matrix(1.3333333,0,0,-1.3333333,0,132.28347)" />
    <path
       id="path19"
       d="m 370.17883,75.34335 v -8.8441 m 0,5.95276 v 0.42519 m 0,-6.37795 v 0 l 0.85041,5.95276 h -1.70078 l 0.85037,-5.95276"
       style="fill:none;stroke:#4c4c4c;stroke-width:0.3685;stroke-linecap:round;stroke-linejoin:round;stroke-miterlimit:10;stroke-dasharray:none;stroke-opacity:1"
       transform="matrix(1.3333333,0,0,-1.3333333,0,132.28347)" />
    <path
       id="path20"
       d="m 369.32846,72.45201 0.85037,-5.95276 0.85041,5.95276 z"
       style="fill:#4c4c4c;fill-opacity:1;fill-rule:nonzero;stroke:none"
       transform="matrix(1.3333333,0,0,-1.3333333,0,132.28347)" />
    <path
       id="path21"
       d="m 290.80875,66.49925 h 90.70868 v 8.8441 h -90.70868 v -8.8441"
       style="fill:none;stroke:#4c4c4c;stroke-width:0.51024;stroke-linecap:round;stroke-linejoin:round;stroke-miterlimit:10;stroke-dasharray:none;stroke-opacity:1"
       transform="matrix(1.3333333,0,0,-1.3333333,0,132.28347)" />
    <path
       id="path22"
       d="M 381.51743,57.42838 356.85858,48.83063"
       style="fill:none;stroke:#1d1d1d;stroke-width:0.3685;stroke-linecap:round;stroke-linejoin:round;stroke-miterlimit:10;stroke-dasharray:none;stroke-opacity:1"
       transform="matrix(1.3333333,0,0,-1.3333333,0,132.28347)" />
    <path
       id="path23"
       d="m 367.35651,57.42838 c 0,-1.58733 0.26687,-3.16337 0.78949,-4.66219"
       style="fill:none;stroke:#1d1d1d;stroke-width:0.3685;stroke-linecap:round;stroke-linejoin:round;stroke-miterlimit:10;stroke-dasharray:none;stroke-opacity:1"
       transform="matrix(1.3333333,0,0,-1.3333333,0,132.28347)" />
    <path
       id="path24"
       d="m 150.55048,57.42838 h 90.70868"
       style="fill:none;stroke:#000000;stroke-width:0.51024;stroke-linecap:round;stroke-linejoin:round;stroke-miterlimit:10;stroke-dasharray:none;stroke-opacity:1"
       transform="matrix(1.3333333,0,0,-1.3333333,0,132.28347)" />
    <path
       id="path25"
       d="m 150.55048,57.42838 -4.00879,-4.00879 m 4.00879,4.00879 4.00879,-4.00879 m -8.01758,0 h 8.01758 m -8.01758,-1.47402 h 8.01758 m 86.69989,5.48281 -4.00879,-4.00879 m 4.00879,4.00879 4.00878,-4.00879 m -8.01757,0 h 8.01757 m -8.01757,-1.47402 1.474,1.47402 m 0,-1.47402 1.47402,1.47402 m 0,-1.47402 1.474,1.47402 m 0,-1.47402 1.47403,1.47402 m 0,-1.47402 1.474,1.47402"
       style="fill:none;stroke:#000000;stroke-width:0.3685;stroke-linecap:round;stroke-linejoin:round;stroke-miterlimit:10;stroke-dasharray:none;stroke-opacity:1"
       transform="matrix(1.3333333,0,0,-1.3333333,0,132.28347)" />
    <path
       id="path26"
       d="m 150.55048,57.42838 h 90.70868 m -90.70868,0 v 0"
       style="fill:none;stroke:#000000;stroke-width:0.51024;stroke-linecap:round;stroke-linejoin:round;stroke-miterlimit:10;stroke-dasharray:none;stroke-opacity:1"
       transform="matrix(1.3333333,0,0,-1.3333333,0,132.28347)" />
    <path
       id="path27"
       d="m 248.41785,48.69962 c 4.82077,2.40063 6.78268,8.25474 4.38205,13.07551 m 0,0 c -0.99939,2.00684 -2.65973,3.60802 -4.70151,4.53394"
       style="fill:none;stroke:#979797;stroke-width:0.51024;stroke-linecap:round;stroke-linejoin:round;stroke-miterlimit:10;stroke-dasharray:none;stroke-opacity:1"
       transform="matrix(1.3333333,0,0,-1.3333333,0,132.28347)" />
    <path
       id="path28"
       d="m 250.31128,50.06143 -2.56821,-1.86644 m 4.8154,3.49959 0.34397,0.24997 m -5.15937,-3.74956 v 0 l 5.31534,2.81166 -0.99988,1.37583 -4.31546,-4.18749"
       style="fill:none;stroke:#979797;stroke-width:0.3685;stroke-linecap:round;stroke-linejoin:round;stroke-miterlimit:10;stroke-dasharray:none;stroke-opacity:1"
       transform="matrix(1.3333333,0,0,-1.3333333,0,132.28347)" />
    <path
       id="path29"
       d="m 252.05853,52.38248 -4.31546,-4.18749 5.31534,2.81166 z"
       style="fill:#979797;fill-opacity:1;fill-rule:nonzero;stroke:none"
       transform="matrix(1.3333333,0,0,-1.3333333,0,132.28347)" />
    <path
       id="path30"
       d="m 161.88907,75.34335 v -8.8441 m 0,5.95276 v 0.42519 m 0,-6.37795 v 0 l 0.8504,5.95276 h -1.70077 l 0.85037,-5.95276"
       style="fill:none;stroke:#4c4c4c;stroke-width:0.3685;stroke-linecap:round;stroke-linejoin:round;stroke-miterlimit:10;stroke-dasharray:none;stroke-opacity:1"
       transform="matrix(1.3333333,0,0,-1.3333333,0,132.28347)" />
    <path
       id="path31"
       d="m 161.0387,72.45201 0.85037,-5.95276 0.8504,5.95276 z"
       style="fill:#4c4c4c;fill-opacity:1;fill-rule:nonzero;stroke:none"
       transform="matrix(1.3333333,0,0,-1.3333333,0,132.28347)" />
    <path
       id="path32"
       d="m 173.22766,75.34335 v -8.8441 m 0,5.95276 v 0.42519 m 0,-6.37795 v 0 l 0.85037,5.95276 h -1.70077 l 0.8504,-5.95276"
       style="fill:none;stroke:#4c4c4c;stroke-width:0.3685;stroke-linecap:round;stroke-linejoin:round;stroke-miterlimit:10;stroke-dasharray:none;stroke-opacity:1"
       transform="matrix(1.3333333,0,0,-1.3333333,0,132.28347)" />
    <path
       id="path33"
       d="m 172.37726,72.45201 0.8504,-5.95276 0.85037,5.95276 z"
       style="fill:#4c4c4c;fill-opacity:1;fill-rule:nonzero;stroke:none"
       transform="matrix(1.3333333,0,0,-1.3333333,0,132.28347)" />
    <path
       id="path34"
       d="m 184.56622,75.34335 v -8.8441 m 0,5.95276 v 0.42519 m 0,-6.37795 v 0 l 0.85041,5.95276 h -1.70078 l 0.85037,-5.95276"
       style="fill:none;stroke:#4c4c4c;stroke-width:0.3685;stroke-linecap:round;stroke-linejoin:round;stroke-miterlimit:10;stroke-dasharray:none;stroke-opacity:1"
       transform="matrix(1.3333333,0,0,-1.3333333,0,132.28347)" />
    <path
       id="path35"
       d="m 183.71585,72.45201 0.85037,-5.95276 0.85041,5.95276 z"
       style="fill:#4c4c4c;fill-opacity:1;fill-rule:nonzero;stroke:none"
       transform="matrix(1.3333333,0,0,-1.3333333,0,132.28347)" />
    <path
       id="path36"
       d="m 195.90482,75.34335 v -8.8441 m 0,5.95276 v 0.42519 m 0,-6.37795 v 0 l 0.8504,5.95276 h -1.70078 l 0.85038,-5.95276"
       style="fill:none;stroke:#4c4c4c;stroke-width:0.3685;stroke-linecap:round;stroke-linejoin:round;stroke-miterlimit:10;stroke-dasharray:none;stroke-opacity:1"
       transform="matrix(1.3333333,0,0,-1.3333333,0,132.28347)" />
    <path
       id="path37"
       d="m 195.05444,72.45201 0.85038,-5.95276 0.8504,5.95276 z"
       style="fill:#4c4c4c;fill-opacity:1;fill-rule:nonzero;stroke:none"
       transform="matrix(1.3333333,0,0,-1.3333333,0,132.28347)" />
    <path
       id="path38"
       d="m 207.24341,75.34335 v -8.8441 m 0,5.95276 v 0.42519 m 0,-6.37795 v 0 l 0.85037,5.95276 h -1.70077 l 0.8504,-5.95276"
       style="fill:none;stroke:#4c4c4c;stroke-width:0.3685;stroke-linecap:round;stroke-linejoin:round;stroke-miterlimit:10;stroke-dasharray:none;stroke-opacity:1"
       transform="matrix(1.3333333,0,0,-1.3333333,0,132.28347)" />
    <path
       id="path39"
       d="m 206.39301,72.45201 0.8504,-5.95276 0.85037,5.95276 z"
       style="fill:#4c4c4c;fill-opacity:1;fill-rule:nonzero;stroke:none"
       transform="matrix(1.3333333,0,0,-1.3333333,0,132.28347)" />
    <path
       id="path40"
       d="m 218.58197,75.34335 v -8.8441 m 0,5.95276 v 0.42519 m 0,-6.37795 v 0 l 0.8504,5.95276 h -1.70077 l 0.85037,-5.95276"
       style="fill:none;stroke:#4c4c4c;stroke-width:0.3685;stroke-linecap:round;stroke-linejoin:round;stroke-miterlimit:10;stroke-dasharray:none;stroke-opacity:1"
       transform="matrix(1.3333333,0,0,-1.3333333,0,132.28347)" />
    <path
       id="path41"
       d="m 217.7316,72.45201 0.85037,-5.95276 0.8504,5.95276 z"
       style="fill:#4c4c4c;fill-opacity:1;fill-rule:nonzero;stroke:none"
       transform="matrix(1.3333333,0,0,-1.3333333,0,132.28347)" />
    <path
       id="path42"
       d="m 229.92056,75.34335 v -8.8441 m 0,5.95276 v 0.42519 m 0,-6.37795 v 0 l 0.85041,5.95276 h -1.70078 l 0.85037,-5.95276"
       style="fill:none;stroke:#4c4c4c;stroke-width:0.3685;stroke-linecap:round;stroke-linejoin:round;stroke-miterlimit:10;stroke-dasharray:none;stroke-opacity:1"
       transform="matrix(1.3333333,0,0,-1.3333333,0,132.28347)" />
    <path
       id="path43"
       d="m 229.07019,72.45201 0.85037,-5.95276 0.85041,5.95276 z"
       style="fill:#4c4c4c;fill-opacity:1;fill-rule:nonzero;stroke:none"
       transform="matrix(1.3333333,0,0,-1.3333333,0,132.28347)" />
    <path
       id="path44"
       d="m 150.55048,66.49925 h 90.70868 v 8.8441 h -90.70868 v -8.8441"
       style="fill:none;stroke:#4c4c4c;stroke-width:0.51024;stroke-linecap:round;stroke-linejoin:round;stroke-miterlimit:10;stroke-dasharray:none;stroke-opacity:1"
       transform="matrix(1.3333333,0,0,-1.3333333,0,132.28347)" />
    <path
       id="path45"
       d="M 241.25916,57.42838 216.60031,48.83063"
       style="fill:none;stroke:#1d1d1d;stroke-width:0.3685;stroke-linecap:round;stroke-linejoin:round;stroke-miterlimit:10;stroke-dasharray:none;stroke-opacity:1"
       transform="matrix(1.3333333,0,0,-1.3333333,0,132.28347)" />
    <path
       id="path46"
       d="m 227.09824,57.42838 c 0,-1.58733 0.26687,-3.16337 0.78949,-4.66219"
       style="fill:none;stroke:#1d1d1d;stroke-width:0.3685;stroke-linecap:round;stroke-linejoin:round;stroke-miterlimit:10;stroke-dasharray:none;stroke-opacity:1"
       transform="matrix(1.3333333,0,0,-1.3333333,0,132.28347)" />
    <path
       id="path47"
       d="m 10.29221,57.42838 h 90.70866"
       style="fill:none;stroke:#000000;stroke-width:0.51024;stroke-linecap:round;stroke-linejoin:round;stroke-miterlimit:10;stroke-dasharray:none;stroke-opacity:1"
       transform="matrix(1.3333333,0,0,-1.3333333,0,132.28347)" />
    <path
       id="path48"
       d="M 10.29221,57.42838 6.2834,53.41959 m 4.00881,4.00879 4.00878,-4.00879 m -8.01759,0 h 8.01759 M 6.2834,51.94557 h 8.01759 m 86.69988,5.48281 -4.00879,-4.00879 m 4.00879,4.00879 4.00879,-4.00879 m -8.01758,0 h 8.01758 m -8.01758,-1.47402 1.47401,1.47402 m 0,-1.47402 1.47402,1.47402 m 0,-1.47402 1.47401,1.47402 m 0,-1.47402 1.47402,1.47402 m 0,-1.47402 1.47401,1.47402"
       style="fill:none;stroke:#000000;stroke-width:0.3685;stroke-linecap:round;stroke-linejoin:round;stroke-miterlimit:10;stroke-dasharray:none;stroke-opacity:1"
       transform="matrix(1.3333333,0,0,-1.3333333,0,132.28347)" />
    <path
       id="path49"
       d="m 10.29221,57.42838 h 90.70866 m -90.70866,0 v 0"
       style="fill:none;stroke:#000000;stroke-width:0.51024;stroke-linecap:round;stroke-linejoin:round;stroke-miterlimit:10;stroke-dasharray:none;stroke-opacity:1"
       transform="matrix(1.3333333,0,0,-1.3333333,0,132.28347)" />
    <path
       id="path50"
       d="m 108.15958,48.69962 c 4.82077,2.40063 6.78267,8.25474 4.38203,13.07551 m 0,0 c -0.99937,2.00684 -2.65971,3.60802 -4.70149,4.53394"
       style="fill:none;stroke:#979797;stroke-width:0.51024;stroke-linecap:round;stroke-linejoin:round;stroke-miterlimit:10;stroke-dasharray:none;stroke-opacity:1"
       transform="matrix(1.3333333,0,0,-1.3333333,0,132.28347)" />
    <path
       id="path51"
       d="m 110.05301,50.06143 -2.56822,-1.86644 m 4.81541,3.49959 0.34395,0.24997 m -5.15936,-3.74956 v 0 l 5.31535,2.81166 -0.99988,1.37583 -4.31547,-4.18749"
       style="fill:none;stroke:#979797;stroke-width:0.3685;stroke-linecap:round;stroke-linejoin:round;stroke-miterlimit:10;stroke-dasharray:none;stroke-opacity:1"
       transform="matrix(1.3333333,0,0,-1.3333333,0,132.28347)" />
    <path
       id="path52"
       d="m 111.80026,52.38248 -4.31547,-4.18749 5.31535,2.81166 z"
       style="fill:#979797;fill-opacity:1;fill-rule:nonzero;stroke:none"
       transform="matrix(1.3333333,0,0,-1.3333333,0,132.28347)" />
    <path
       id="path53"
       d="m 21.63078,75.34335 v -8.8441 m 0,5.95276 v 0.42519 m 0,-6.37795 v 0 l 0.85041,5.95276 H 20.7804 l 0.85038,-5.95276"
       style="fill:none;stroke:#4c4c4c;stroke-width:0.3685;stroke-linecap:round;stroke-linejoin:round;stroke-miterlimit:10;stroke-dasharray:none;stroke-opacity:1"
       transform="matrix(1.3333333,0,0,-1.3333333,0,132.28347)" />
    <path
       id="path54"
       d="m 20.7804,72.45201 0.85038,-5.95276 0.85041,5.95276 z"
       style="fill:#4c4c4c;fill-opacity:1;fill-rule:nonzero;stroke:none"
       transform="matrix(1.3333333,0,0,-1.3333333,0,132.28347)" />
    <path
       id="path55"
       d="m 32.96938,75.34335 v -8.8441 m 0,5.95276 v 0.42519 m 0,-6.37795 v 0 l 0.85038,5.95276 h -1.70077 l 0.85039,-5.95276"
       style="fill:none;stroke:#4c4c4c;stroke-width:0.3685;stroke-linecap:round;stroke-linejoin:round;stroke-miterlimit:10;stroke-dasharray:none;stroke-opacity:1"
       transform="matrix(1.3333333,0,0,-1.3333333,0,132.28347)" />
    <path
       id="path56"
       d="m 32.11899,72.45201 0.85039,-5.95276 0.85038,5.95276 z"
       style="fill:#4c4c4c;fill-opacity:1;fill-rule:nonzero;stroke:none"
       transform="matrix(1.3333333,0,0,-1.3333333,0,132.28347)" />
    <path
       id="path57"
       d="m 44.30795,75.34335 v -8.8441 m 0,5.95276 v 0.42519 m 0,-6.37795 v 0 l 0.85039,5.95276 h -1.70077 l 0.85038,-5.95276"
       style="fill:none;stroke:#4c4c4c;stroke-width:0.3685;stroke-linecap:round;stroke-linejoin:round;stroke-miterlimit:10;stroke-dasharray:none;stroke-opacity:1"
       transform="matrix(1.3333333,0,0,-1.3333333,0,132.28347)" />
    <path
       id="path58"
       d="m 43.45757,72.45201 0.85038,-5.95276 0.85039,5.95276 z"
       style="fill:#4c4c4c;fill-opacity:1;fill-rule:nonzero;stroke:none"
       transform="matrix(1.3333333,0,0,-1.3333333,0,132.28347)" />
    <path
       id="path59"
       d="m 55.64653,75.34335 v -8.8441 m 0,5.95276 v 0.42519 m 0,-6.37795 v 0 l 0.8504,5.95276 h -1.70077 l 0.85037,-5.95276"
       style="fill:none;stroke:#4c4c4c;stroke-width:0.3685;stroke-linecap:round;stroke-linejoin:round;stroke-miterlimit:10;stroke-dasharray:none;stroke-opacity:1"
       transform="matrix(1.3333333,0,0,-1.3333333,0,132.28347)" />
    <path
       id="path60"
       d="m 54.79616,72.45201 0.85037,-5.95276 0.8504,5.95276 z"
       style="fill:#4c4c4c;fill-opacity:1;fill-rule:nonzero;stroke:none"
       transform="matrix(1.3333333,0,0,-1.3333333,0,132.28347)" />
    <path
       id="path61"
       d="m 66.98512,75.34335 v -8.8441 m 0,5.95276 v 0.42519 m 0,-6.37795 v 0 l 0.85039,5.95276 h -1.70077 l 0.85038,-5.95276"
       style="fill:none;stroke:#4c4c4c;stroke-width:0.3685;stroke-linecap:round;stroke-linejoin:round;stroke-miterlimit:10;stroke-dasharray:none;stroke-opacity:1"
       transform="matrix(1.3333333,0,0,-1.3333333,0,132.28347)" />
    <path
       id="path62"
       d="m 66.13474,72.45201 0.85038,-5.95276 0.85039,5.95276 z"
       style="fill:#4c4c4c;fill-opacity:1;fill-rule:nonzero;stroke:none"
       transform="matrix(1.3333333,0,0,-1.3333333,0,132.28347)" />
    <path
       id="path63"
       d="m 78.3237,75.34335 v -8.8441 m 0,5.95276 v 0.42519 m 0,-6.37795 v 0 l 0.8504,5.95276 h -1.70079 l 0.85039,-5.95276"
       style="fill:none;stroke:#4c4c4c;stroke-width:0.3685;stroke-linecap:round;stroke-linejoin:round;stroke-miterlimit:10;stroke-dasharray:none;stroke-opacity:1"
       transform="matrix(1.3333333,0,0,-1.3333333,0,132.28347)" />
    <path
       id="path64"
       d="m 77.47331,72.45201 0.85039,-5.95276 0.8504,5.95276 z"
       style="fill:#4c4c4c;fill-opacity:1;fill-rule:nonzero;stroke:none"
       transform="matrix(1.3333333,0,0,-1.3333333,0,132.28347)" />
    <path
       id="path65"
       d="m 89.66229,75.34335 v -8.8441 m 0,5.95276 v 0.42519 m 0,-6.37795 v 0 l 0.85039,5.95276 H 88.8119 l 0.85039,-5.95276"
       style="fill:none;stroke:#4c4c4c;stroke-width:0.3685;stroke-linecap:round;stroke-linejoin:round;stroke-miterlimit:10;stroke-dasharray:none;stroke-opacity:1"
       transform="matrix(1.3333333,0,0,-1.3333333,0,132.28347)" />
    <path
       id="path66"
       d="m 88.8119,72.45201 0.85039,-5.95276 0.85039,5.95276 z"
       style="fill:#4c4c4c;fill-opacity:1;fill-rule:nonzero;stroke:none"
       transform="matrix(1.3333333,0,0,-1.3333333,0,132.28347)" />
    <path
       id="path67"
       d="m 10.29221,66.49925 h 90.70866 v 8.8441 H 10.29221 v -8.8441"
       style="fill:none;stroke:#4c4c4c;stroke-width:0.51024;stroke-linecap:round;stroke-linejoin:round;stroke-miterlimit:10;stroke-dasharray:none;stroke-opacity:1"
       transform="matrix(1.3333333,0,0,-1.3333333,0,132.28347)" />
    <path
       id="path68"
       d="m 10.29221,36.93956 h 90.70866"
       style="fill:none;stroke:#000000;stroke-width:0.51024;stroke-linecap:round;stroke-linejoin:round;stroke-miterlimit:10;stroke-dasharray:none;stroke-opacity:1"
       transform="matrix(1.3333333,0,0,-1.3333333,0,132.28347)" />
    <path
       id="path69"
       d="M 10.29221,36.93956 6.2834,32.93077 m 4.00881,4.00879 4.00878,-4.00879 m -8.01759,0 h 8.01759 M 6.2834,31.45676 h 8.01759 m 86.69988,5.4828 -4.00879,-4.00879 m 4.00879,4.00879 4.00879,-4.00879 m -8.01758,0 h 8.01758 m -8.01758,-1.47401 1.47401,1.47401 m 0,-1.47401 1.47402,1.47401 m 0,-1.47401 1.47401,1.47401 m 0,-1.47401 1.47402,1.47401 m 0,-1.47401 1.47401,1.47401"
       style="fill:none;stroke:#000000;stroke-width:0.3685;stroke-linecap:round;stroke-linejoin:round;stroke-miterlimit:10;stroke-dasharray:none;stroke-opacity:1"
       transform="matrix(1.3333333,0,0,-1.3333333,0,132.28347)" />
    <path
       id="path70"
       d="m 10.29221,36.93956 h 90.70866 m -90.70866,0 v 0"
       style="fill:none;stroke:#000000;stroke-width:0.51024;stroke-linecap:round;stroke-linejoin:round;stroke-miterlimit:10;stroke-dasharray:none;stroke-opacity:1"
       transform="matrix(1.3333333,0,0,-1.3333333,0,132.28347)" />
    <path
       id="path71"
       d="M 101.00087,36.93956 76.34204,28.34181"
       style="fill:none;stroke:#1d1d1d;stroke-width:0.3685;stroke-linecap:round;stroke-linejoin:round;stroke-miterlimit:10;stroke-dasharray:none;stroke-opacity:1"
       transform="matrix(1.3333333,0,0,-1.3333333,0,132.28347)" />
    <path
       id="path72"
       d="m 86.83997,36.93956 c 0,-1.58733 0.26687,-3.16336 0.78947,-4.6622"
       style="fill:none;stroke:#1d1d1d;stroke-width:0.3685;stroke-linecap:round;stroke-linejoin:round;stroke-miterlimit:10;stroke-dasharray:none;stroke-opacity:1"
       transform="matrix(1.3333333,0,0,-1.3333333,0,132.28347)" />
    <path
       id="path73"
       d="m 55.64653,51.98586 v -10.09134 0 l 1.95592,3.40158 m -3.91181,0 1.95589,-3.40158 m 235.16222,-36.21183 2.97638,0.4252 V 5.25751 l -2.97638,0.42518 m 90.70868,0 -2.97638,0.4252 V 5.25751 l 2.97638,0.42518 m -90.70868,0 v 2.126 m 0,-2.126 V 3.55672 m 90.70868,2.12597 v 2.126 m 0,-2.126 V 3.55672 m -90.70868,2.12597 v 0.42005 8.65083 m 90.70868,-9.07088 v 9.07088 M 290.80875,5.68269 v 0 m 90.70868,0 v 0"
       style="fill:none;stroke:#000000;stroke-width:0.3685;stroke-linecap:round;stroke-linejoin:round;stroke-miterlimit:10;stroke-dasharray:none;stroke-opacity:1"
       transform="matrix(1.3333333,0,0,-1.3333333,0,132.28347)" />
    <text
       id="text73"
       xml:space="preserve"
       transform="matrix(1.3333333,0,0,1.3333333,436.45668,121.46847)"
       clip-path="url(#clipPath74)"><tspan
         style="font-variant:normal;font-weight:normal;font-stretch:normal;font-size:10.0916px;font-family:'Palatino Linotype';writing-mode:lr-tb;fill:#000000;fill-opacity:1;fill-rule:nonzero;stroke:none"
         x="0 5.045805 7.5687075 12.614512"
         y="0"
         sodipodi:role="line"
         id="tspan73">8.00</tspan></text>
    <path
       id="path75"
       d="m 290.80875,5.68269 h 90.70868"
       style="fill:none;stroke:#000000;stroke-width:0.3685;stroke-linecap:round;stroke-linejoin:round;stroke-miterlimit:10;stroke-dasharray:none;stroke-opacity:1"
       transform="matrix(1.3333333,0,0,-1.3333333,0,132.28347)" />
    <text
       id="text75"
       xml:space="preserve"
       transform="matrix(1.3333333,0,0,1.3333333,520.66441,41.819507)"
       clip-path="url(#clipPath76)"><tspan
         style="font-style:italic;font-variant:normal;font-weight:normal;font-stretch:normal;font-size:10.0071px;font-family:'Palatino Linotype';writing-mode:lr-tb;fill:#979797;fill-opacity:1;fill-rule:nonzero;stroke:none"
         x="0"
         y="0"
         id="tspan75">m</tspan></text>
    <text
       id="text76"
       xml:space="preserve"
       transform="matrix(1.3333333,0,0,1.3333333,532.78033,47.331307)"
       clip-path="url(#clipPath77)"><tspan
         style="font-style:italic;font-variant:normal;font-weight:normal;font-stretch:normal;font-size:6.00428px;font-family:'Palatino Linotype';writing-mode:lr-tb;fill:#979797;fill-opacity:1;fill-rule:nonzero;stroke:none"
         x="0"
         y="0"
         id="tspan76">u</tspan></text>
    <text
       id="text77"
       xml:space="preserve"
       transform="matrix(1.3333333,0,0,1.3333333,541.0817,41.819507)"
       clip-path="url(#clipPath78)"><tspan
         style="font-style:italic;font-variant:normal;font-weight:normal;font-stretch:normal;font-size:10.0071px;font-family:'Palatino Linotype';writing-mode:lr-tb;fill:#979797;fill-opacity:1;fill-rule:nonzero;stroke:none"
         x="0 3.3323743 5.834157"
         y="0"
         sodipodi:role="line"
         id="tspan77">- m</tspan></text>
    <text
       id="text78"
       xml:space="preserve"
       transform="matrix(1.3333333,0,0,1.3333333,561.29433,47.331307)"
       clip-path="url(#clipPath79)"><tspan
         style="font-style:italic;font-variant:normal;font-weight:normal;font-stretch:normal;font-size:6.00428px;font-family:'Palatino Linotype';writing-mode:lr-tb;fill:#979797;fill-opacity:1;fill-rule:nonzero;stroke:none"
         x="0"
         y="0"
         id="tspan78">y</tspan></text>
    <text
       id="text79"
       xml:space="preserve"
       transform="matrix(1.3333333,0,0,1.3333333,473.68235,20.15684)"
       clip-path="url(#clipPath80)"><tspan
         style="font-style:italic;font-variant:normal;font-weight:normal;font-stretch:normal;font-size:10.0071px;font-family:'Palatino Linotype';writing-mode:lr-tb;fill:#4c4c4c;fill-opacity:1;fill-rule:nonzero;stroke:none"
         x="0"
         y="0"
         id="tspan79">q</tspan></text>
    <text
       id="text80"
       xml:space="preserve"
       transform="matrix(1.3333333,0,0,1.3333333,481.36871,25.668653)"
       clip-path="url(#clipPath81)"><tspan
         style="font-style:italic;font-variant:normal;font-weight:normal;font-stretch:normal;font-size:6.00428px;font-family:'Palatino Linotype';writing-mode:lr-tb;fill:#4c4c4c;fill-opacity:1;fill-rule:nonzero;stroke:none"
         x="0 3.3383796"
         y="0"
         sodipodi:role="line"
         id="tspan80">u </tspan></text>
    <text
       id="text81"
       xml:space="preserve"
       transform="matrix(1.3333333,0,0,1.3333333,488.39297,20.15684)"
       clip-path="url(#clipPath82)"><tspan
         style="font-style:italic;font-variant:normal;font-weight:normal;font-stretch:normal;font-size:10.0071px;font-family:'Palatino Linotype';writing-mode:lr-tb;fill:#4c4c4c;fill-opacity:1;fill-rule:nonzero;stroke:none"
         x="0 3.3323743 5.834157"
         y="0"
         sodipodi:role="line"
         id="tspan81">- q</tspan></text>
    <text
       id="text82"
       xml:space="preserve"
       transform="matrix(1.3333333,0,0,1.3333333,504.08071,25.668653)"
       clip-path="url(#clipPath83)"><tspan
         style="font-style:italic;font-variant:normal;font-weight:normal;font-stretch:normal;font-size:6.00428px;font-family:'Palatino Linotype';writing-mode:lr-tb;fill:#4c4c4c;fill-opacity:1;fill-rule:nonzero;stroke:none"
         x="0"
         y="0"
         id="tspan82">y</tspan></text>
    <text
       id="text83"
       xml:space="preserve"
       transform="matrix(1.3333333,0,0,1.3333333,333.6534,41.819507)"
       clip-path="url(#clipPath84)"><tspan
         style="font-style:italic;font-variant:normal;font-weight:normal;font-stretch:normal;font-size:10.0071px;font-family:'Palatino Linotype';writing-mode:lr-tb;fill:#979797;fill-opacity:1;fill-rule:nonzero;stroke:none"
         x="0"
         y="0"
         id="tspan83">m</tspan></text>
    <text
       id="text84"
       xml:space="preserve"
       transform="matrix(1.3333333,0,0,1.3333333,345.76933,47.331307)"
       clip-path="url(#clipPath85)"><tspan
         style="font-style:italic;font-variant:normal;font-weight:normal;font-stretch:normal;font-size:6.00428px;font-family:'Palatino Linotype';writing-mode:lr-tb;fill:#979797;fill-opacity:1;fill-rule:nonzero;stroke:none"
         x="0"
         y="0"
         id="tspan84">u</tspan></text>
    <text
       id="text85"
       xml:space="preserve"
       transform="matrix(1.3333333,0,0,1.3333333,302.41599,70.723853)"
       clip-path="url(#clipPath86)"><tspan
         style="font-style:italic;font-variant:normal;font-weight:normal;font-stretch:normal;font-size:10.0071px;font-family:'Palatino Linotype';writing-mode:lr-tb;fill:#1d1d1d;fill-opacity:1;fill-rule:nonzero;stroke:none"
         x="0"
         y="0"
         id="tspan85">α</tspan></text>
    <text
       id="text86"
       xml:space="preserve"
       transform="matrix(1.3333333,0,0,1.3333333,311.19469,76.235667)"
       clip-path="url(#clipPath87)"><tspan
         style="font-style:italic;font-variant:normal;font-weight:normal;font-stretch:normal;font-size:6.00428px;font-family:'Palatino Linotype';writing-mode:lr-tb;fill:#1d1d1d;fill-opacity:1;fill-rule:nonzero;stroke:none"
         x="0 3.3383796 7.67347"
         y="0"
         sodipodi:role="line"
         id="tspan86">SA2</tspan></text>
    <text
       id="text87"
       xml:space="preserve"
       transform="matrix(1.3333333,0,0,1.3333333,310.24044,20.15684)"
       clip-path="url(#clipPath88)"><tspan
         style="font-style:italic;font-variant:normal;font-weight:normal;font-stretch:normal;font-size:10.0071px;font-family:'Palatino Linotype';writing-mode:lr-tb;fill:#4c4c4c;fill-opacity:1;fill-rule:nonzero;stroke:none"
         x="0"
         y="0"
         id="tspan87">q</tspan></text>
    <text
       id="text88"
       xml:space="preserve"
       transform="matrix(1.3333333,0,0,1.3333333,317.9268,25.668653)"
       clip-path="url(#clipPath89)"><tspan
         style="font-style:italic;font-variant:normal;font-weight:normal;font-stretch:normal;font-size:6.00428px;font-family:'Palatino Linotype';writing-mode:lr-tb;fill:#4c4c4c;fill-opacity:1;fill-rule:nonzero;stroke:none"
         x="0"
         y="0"
         id="tspan88">u</tspan></text>
    <path
       id="path90"
       d="m 150.55048,5.68269 2.97638,0.4252 V 5.25751 l -2.97638,0.42518 m 90.70868,0 -2.97638,0.4252 V 5.25751 l 2.97638,0.42518 m -90.70868,0 v 2.126 m 0,-2.126 V 3.55672 m 90.70868,2.12597 v 2.126 m 0,-2.126 V 3.55672 m -90.70868,2.12597 v 0.3501 8.72078 m 90.70868,-9.07088 v 9.07088 M 150.55048,5.68269 v 0 m 90.70868,0 v 0"
       style="fill:none;stroke:#000000;stroke-width:0.3685;stroke-linecap:round;stroke-linejoin:round;stroke-miterlimit:10;stroke-dasharray:none;stroke-opacity:1"
       transform="matrix(1.3333333,0,0,-1.3333333,0,132.28347)" />
    <text
       id="text90"
       xml:space="preserve"
       transform="matrix(1.3333333,0,0,1.3333333,249.44565,120.65896)"
       clip-path="url(#clipPath91)"><tspan
         style="font-variant:normal;font-weight:normal;font-stretch:normal;font-size:10.0916px;font-family:'Palatino Linotype';writing-mode:lr-tb;fill:#000000;fill-opacity:1;fill-rule:nonzero;stroke:none"
         x="0 5.045805 7.5687075 12.614512"
         y="0"
         sodipodi:role="line"
         id="tspan90">8.00</tspan></text>
    <path
       id="path92"
       d="m 150.55048,5.68269 h 90.70868"
       style="fill:none;stroke:#000000;stroke-width:0.3685;stroke-linecap:round;stroke-linejoin:round;stroke-miterlimit:10;stroke-dasharray:none;stroke-opacity:1"
       transform="matrix(1.3333333,0,0,-1.3333333,0,132.28347)" />
    <text
       id="text92"
       xml:space="preserve"
       transform="matrix(1.3333333,0,0,1.3333333,109.11583,98.04228)"
       clip-path="url(#clipPath93)"><tspan
         style="font-style:italic;font-variant:normal;font-weight:normal;font-stretch:normal;font-size:10.0071px;font-family:'Palatino Linotype';writing-mode:lr-tb;fill:#1d1d1d;fill-opacity:1;fill-rule:nonzero;stroke:none"
         x="0"
         y="0"
         id="tspan92">α</tspan></text>
    <text
       id="text93"
       xml:space="preserve"
       transform="matrix(1.3333333,0,0,1.3333333,117.89452,103.55409)"
       clip-path="url(#clipPath94)"><tspan
         style="font-style:italic;font-variant:normal;font-weight:normal;font-stretch:normal;font-size:6.00428px;font-family:'Palatino Linotype';writing-mode:lr-tb;fill:#1d1d1d;fill-opacity:1;fill-rule:nonzero;stroke:none"
         x="0 3.3383796 7.67347 10.67561 12.17668 15.17882 16.67989"
         y="0"
         sodipodi:role="line"
         id="tspan93">SA1 = 0</tspan></text>
    <text
       id="text94"
       xml:space="preserve"
       transform="matrix(1.3333333,0,0,1.3333333,123.2294,20.15684)"
       clip-path="url(#clipPath95)"><tspan
         style="font-style:italic;font-variant:normal;font-weight:normal;font-stretch:normal;font-size:10.0071px;font-family:'Palatino Linotype';writing-mode:lr-tb;fill:#4c4c4c;fill-opacity:1;fill-rule:nonzero;stroke:none"
         x="0"
         y="0"
         id="tspan94">q</tspan></text>
    <text
       id="text95"
       xml:space="preserve"
       transform="matrix(1.3333333,0,0,1.3333333,130.91579,25.668653)"
       clip-path="url(#clipPath96)"><tspan
         style="font-style:italic;font-variant:normal;font-weight:normal;font-stretch:normal;font-size:6.00428px;font-family:'Palatino Linotype';writing-mode:lr-tb;fill:#4c4c4c;fill-opacity:1;fill-rule:nonzero;stroke:none"
         x="0"
         y="0"
         id="tspan95">y</tspan></text>
    <path
       id="path97"
       d="m 10.29221,5.68269 2.97638,0.4252 V 5.25751 l -2.97638,0.42518 m 90.70866,0 -2.97638,0.4252 V 5.25751 l 2.97638,0.42518 m -90.70866,0 v 2.126 m 0,-2.126 V 3.55672 m 90.70866,2.12597 v 2.126 m 0,-2.126 V 3.55672 M 10.29221,5.68269 v 9.07088 m 90.70866,-9.07088 v 9.07088 M 10.29221,5.68269 v 0 m 90.70866,0 v 0"
       style="fill:none;stroke:#000000;stroke-width:0.3685;stroke-linecap:round;stroke-linejoin:round;stroke-miterlimit:10;stroke-dasharray:none;stroke-opacity:1"
       transform="matrix(1.3333333,0,0,-1.3333333,0,132.28347)" />
    <text
       id="text97"
       xml:space="preserve"
       transform="matrix(1.3333333,0,0,1.3333333,62.434613,120.65896)"
       clip-path="url(#clipPath98)"><tspan
         style="font-variant:normal;font-weight:normal;font-stretch:normal;font-size:10.0916px;font-family:'Palatino Linotype';writing-mode:lr-tb;fill:#000000;fill-opacity:1;fill-rule:nonzero;stroke:none"
         x="0 5.045805 7.5687075 12.614512"
         y="0"
         sodipodi:role="line"
         id="tspan97">8.00</tspan></text>
    <path
       id="path99"
       d="m 10.29221,5.68269 h 19.83941 70.86925"
       style="fill:none;stroke:#000000;stroke-width:0.3685;stroke-linecap:round;stroke-linejoin:round;stroke-miterlimit:10;stroke-dasharray:none;stroke-opacity:1"
       transform="matrix(1.3333333,0,0,-1.3333333,0,132.28347)" />
    <text
       id="text99"
       xml:space="preserve"
       transform="matrix(1.3333333,0,0,1.3333333,489.42701,70.723853)"
       clip-path="url(#clipPath100)"><tspan
         style="font-style:italic;font-variant:normal;font-weight:normal;font-stretch:normal;font-size:10.0071px;font-family:'Palatino Linotype';writing-mode:lr-tb;fill:#1d1d1d;fill-opacity:1;fill-rule:nonzero;stroke:none"
         x="0"
         y="0"
         id="tspan99">α</tspan></text>
    <text
       id="text100"
       xml:space="preserve"
       transform="matrix(1.3333333,0,0,1.3333333,498.20571,76.235667)"
       clip-path="url(#clipPath101)"><tspan
         style="font-style:italic;font-variant:normal;font-weight:normal;font-stretch:normal;font-size:6.00428px;font-family:'Palatino Linotype';writing-mode:lr-tb;fill:#1d1d1d;fill-opacity:1;fill-rule:nonzero;stroke:none"
         x="0 3.3383796 7.67347"
         y="0"
         sodipodi:role="line"
         id="tspan100">SA3</tspan></text>
    <text
       id="text101"
       xml:space="preserve"
       transform="matrix(1.3333333,0,0,1.3333333,116.57351,69.882547)"
       clip-path="url(#clipPath102)"><tspan
         style="font-style:italic;font-variant:normal;font-weight:normal;font-stretch:normal;font-size:10.0071px;font-family:'Palatino Linotype';writing-mode:lr-tb;fill:#000000;fill-opacity:1;fill-rule:nonzero;stroke:none"
         x="0"
         y="0"
         id="tspan101">B</tspan></text>
  </g>
</svg>
