<?xml version="1.0" encoding="utf-8" standalone="no"?>
<!DOCTYPE svg PUBLIC "-//W3C//DTD SVG 1.1//EN"
  "http://www.w3.org/Graphics/SVG/1.1/DTD/svg11.dtd">
<svg xmlns:xlink="http://www.w3.org/1999/xlink" width="396.850394pt" height="153.070866pt" viewBox="0 0 396.850394 153.070866" xmlns="http://www.w3.org/2000/svg" version="1.1">
 <metadata>
  <rdf:RDF xmlns:dc="http://purl.org/dc/elements/1.1/" xmlns:cc="http://creativecommons.org/ns#" xmlns:rdf="http://www.w3.org/1999/02/22-rdf-syntax-ns#">
   <cc:Work>
    <dc:type rdf:resource="http://purl.org/dc/dcmitype/StillImage"/>
    <dc:date>2024-11-28T12:43:14.030685</dc:date>
    <dc:format>image/svg+xml</dc:format>
    <dc:creator>
     <cc:Agent>
      <dc:title>Matplotlib v3.9.2, https://matplotlib.org/</dc:title>
     </cc:Agent>
    </dc:creator>
   </cc:Work>
  </rdf:RDF>
 </metadata>
 <defs>
  <style type="text/css">*{stroke-linejoin: round; stroke-linecap: butt}</style>
 </defs>
 <g id="figure_1">
  <g id="patch_1">
   <path d="M 0 153.070866 
L 396.850394 153.070866 
L 396.850394 0 
L 0 0 
z
" style="fill: #ffffff"/>
  </g>
  <g id="axes_1">
   <g id="patch_2">
    <path d="M 79.370079 122.456693 
L 357.165354 122.456693 
L 357.165354 15.307087 
L 79.370079 15.307087 
z
" style="fill: #ffffff"/>
   </g>
   <g id="matplotlib.axis_1">
    <g id="xtick_1">
     <g id="line2d_1">
      <path d="M 91.997137 122.456693 
L 91.997137 15.307087 
" clip-path="url(#pef057521b2)" style="fill: none; stroke-dasharray: 0.74,0.32; stroke-dashoffset: 0; stroke: #808080; stroke-opacity: 0.7; stroke-width: 0.2"/>
     </g>
     <g id="line2d_2">
      <defs>
       <path id="mac430908a1" d="M 0 0 
L 0 -3.5 
" style="stroke: #000000; stroke-width: 0.5"/>
      </defs>
      <g>
       <use xlink:href="#mac430908a1" x="91.997137" y="122.456693" style="stroke: #000000; stroke-width: 0.5"/>
      </g>
     </g>
     <g id="text_1">
      <!-- $\mathdefault{0}$ -->
      <g transform="translate(89.880045 131.491495) scale(0.08 -0.08)">
       <defs>
        <path id="CMR17-30" d="M 2688 2025 
C 2688 2416 2682 3080 2413 3591 
C 2176 4039 1798 4198 1466 4198 
C 1158 4198 768 4058 525 3597 
C 269 3118 243 2524 243 2025 
C 243 1661 250 1106 448 619 
C 723 -39 1216 -128 1466 -128 
C 1760 -128 2208 -7 2470 600 
C 2662 1042 2688 1559 2688 2025 
z
M 1466 -26 
C 1056 -26 813 325 723 812 
C 653 1188 653 1738 653 2096 
C 653 2588 653 2997 736 3387 
C 858 3929 1216 4096 1466 4096 
C 1728 4096 2067 3923 2189 3400 
C 2272 3036 2278 2607 2278 2096 
C 2278 1680 2278 1169 2202 792 
C 2067 95 1690 -26 1466 -26 
z
" transform="scale(0.015625)"/>
       </defs>
       <use xlink:href="#CMR17-30" transform="scale(0.996264)"/>
      </g>
     </g>
    </g>
    <g id="xtick_2">
     <g id="line2d_3">
      <path d="M 142.856786 122.456693 
L 142.856786 15.307087 
" clip-path="url(#pef057521b2)" style="fill: none; stroke-dasharray: 0.74,0.32; stroke-dashoffset: 0; stroke: #808080; stroke-opacity: 0.7; stroke-width: 0.2"/>
     </g>
     <g id="line2d_4">
      <g>
       <use xlink:href="#mac430908a1" x="142.856786" y="122.456693" style="stroke: #000000; stroke-width: 0.5"/>
      </g>
     </g>
     <g id="text_2">
      <!-- $\mathdefault{10}$ -->
      <g transform="translate(138.622603 131.491495) scale(0.08 -0.08)">
       <defs>
        <path id="CMR17-31" d="M 1702 4058 
C 1702 4192 1696 4192 1606 4192 
C 1357 3916 979 3827 621 3827 
C 602 3827 570 3827 563 3808 
C 557 3795 557 3782 557 3648 
C 755 3648 1088 3686 1344 3839 
L 1344 461 
C 1344 236 1331 160 781 160 
L 589 160 
L 589 0 
C 896 0 1216 0 1523 0 
C 1830 0 2150 0 2458 0 
L 2458 160 
L 2266 160 
C 1715 160 1702 230 1702 458 
L 1702 4058 
z
" transform="scale(0.015625)"/>
       </defs>
       <use xlink:href="#CMR17-31" transform="scale(0.996264)"/>
       <use xlink:href="#CMR17-30" transform="translate(45.690477 0) scale(0.996264)"/>
      </g>
     </g>
    </g>
    <g id="xtick_3">
     <g id="line2d_5">
      <path d="M 193.716435 122.456693 
L 193.716435 15.307087 
" clip-path="url(#pef057521b2)" style="fill: none; stroke-dasharray: 0.74,0.32; stroke-dashoffset: 0; stroke: #808080; stroke-opacity: 0.7; stroke-width: 0.2"/>
     </g>
     <g id="line2d_6">
      <g>
       <use xlink:href="#mac430908a1" x="193.716435" y="122.456693" style="stroke: #000000; stroke-width: 0.5"/>
      </g>
     </g>
     <g id="text_3">
      <!-- $\mathdefault{20}$ -->
      <g transform="translate(189.482252 131.491495) scale(0.08 -0.08)">
       <defs>
        <path id="CMR17-32" d="M 2669 989 
L 2554 989 
C 2490 536 2438 459 2413 420 
C 2381 369 1920 369 1830 369 
L 602 369 
C 832 619 1280 1072 1824 1597 
C 2214 1967 2669 2402 2669 3035 
C 2669 3790 2067 4224 1395 4224 
C 691 4224 262 3604 262 3030 
C 262 2780 448 2748 525 2748 
C 589 2748 781 2787 781 3010 
C 781 3207 614 3264 525 3264 
C 486 3264 448 3258 422 3245 
C 544 3790 915 4058 1306 4058 
C 1862 4058 2227 3617 2227 3035 
C 2227 2479 1901 2000 1536 1584 
L 262 146 
L 262 0 
L 2515 0 
L 2669 989 
z
" transform="scale(0.015625)"/>
       </defs>
       <use xlink:href="#CMR17-32" transform="scale(0.996264)"/>
       <use xlink:href="#CMR17-30" transform="translate(45.690477 0) scale(0.996264)"/>
      </g>
     </g>
    </g>
    <g id="xtick_4">
     <g id="line2d_7">
      <path d="M 244.576084 122.456693 
L 244.576084 15.307087 
" clip-path="url(#pef057521b2)" style="fill: none; stroke-dasharray: 0.74,0.32; stroke-dashoffset: 0; stroke: #808080; stroke-opacity: 0.7; stroke-width: 0.2"/>
     </g>
     <g id="line2d_8">
      <g>
       <use xlink:href="#mac430908a1" x="244.576084" y="122.456693" style="stroke: #000000; stroke-width: 0.5"/>
      </g>
     </g>
     <g id="text_4">
      <!-- $\mathdefault{30}$ -->
      <g transform="translate(240.341901 131.491495) scale(0.08 -0.08)">
       <defs>
        <path id="CMR17-33" d="M 1414 2157 
C 1984 2157 2234 1662 2234 1090 
C 2234 320 1824 25 1453 25 
C 1114 25 563 194 390 693 
C 422 680 454 680 486 680 
C 640 680 755 782 755 948 
C 755 1133 614 1216 486 1216 
C 378 1216 211 1165 211 926 
C 211 335 787 -128 1466 -128 
C 2176 -128 2720 430 2720 1085 
C 2720 1707 2208 2157 1600 2227 
C 2086 2328 2554 2756 2554 3329 
C 2554 3820 2048 4179 1472 4179 
C 890 4179 378 3829 378 3329 
C 378 3110 544 3072 627 3072 
C 762 3072 877 3155 877 3321 
C 877 3486 762 3569 627 3569 
C 602 3569 570 3569 544 3557 
C 730 3959 1235 4032 1459 4032 
C 1683 4032 2106 3925 2106 3320 
C 2106 3143 2080 2828 1862 2550 
C 1670 2304 1453 2304 1242 2284 
C 1210 2284 1062 2269 1037 2269 
C 992 2263 966 2257 966 2208 
C 966 2163 973 2157 1101 2157 
L 1414 2157 
z
" transform="scale(0.015625)"/>
       </defs>
       <use xlink:href="#CMR17-33" transform="scale(0.996264)"/>
       <use xlink:href="#CMR17-30" transform="translate(45.690477 0) scale(0.996264)"/>
      </g>
     </g>
    </g>
    <g id="xtick_5">
     <g id="line2d_9">
      <path d="M 295.435732 122.456693 
L 295.435732 15.307087 
" clip-path="url(#pef057521b2)" style="fill: none; stroke-dasharray: 0.74,0.32; stroke-dashoffset: 0; stroke: #808080; stroke-opacity: 0.7; stroke-width: 0.2"/>
     </g>
     <g id="line2d_10">
      <g>
       <use xlink:href="#mac430908a1" x="295.435732" y="122.456693" style="stroke: #000000; stroke-width: 0.5"/>
      </g>
     </g>
     <g id="text_5">
      <!-- $\mathdefault{40}$ -->
      <g transform="translate(291.20155 131.491495) scale(0.08 -0.08)">
       <defs>
        <path id="CMR17-34" d="M 2150 4122 
C 2150 4256 2144 4256 2029 4256 
L 128 1254 
L 128 1088 
L 1779 1088 
L 1779 457 
C 1779 224 1766 160 1318 160 
L 1197 160 
L 1197 0 
C 1402 0 1747 0 1965 0 
C 2182 0 2528 0 2733 0 
L 2733 160 
L 2611 160 
C 2163 160 2150 224 2150 457 
L 2150 1088 
L 2803 1088 
L 2803 1254 
L 2150 1254 
L 2150 4122 
z
M 1798 3703 
L 1798 1254 
L 256 1254 
L 1798 3703 
z
" transform="scale(0.015625)"/>
       </defs>
       <use xlink:href="#CMR17-34" transform="scale(0.996264)"/>
       <use xlink:href="#CMR17-30" transform="translate(45.690477 0) scale(0.996264)"/>
      </g>
     </g>
    </g>
    <g id="xtick_6">
     <g id="line2d_11">
      <path d="M 346.295381 122.456693 
L 346.295381 15.307087 
" clip-path="url(#pef057521b2)" style="fill: none; stroke-dasharray: 0.74,0.32; stroke-dashoffset: 0; stroke: #808080; stroke-opacity: 0.7; stroke-width: 0.2"/>
     </g>
     <g id="line2d_12">
      <g>
       <use xlink:href="#mac430908a1" x="346.295381" y="122.456693" style="stroke: #000000; stroke-width: 0.5"/>
      </g>
     </g>
     <g id="text_6">
      <!-- $\mathdefault{50}$ -->
      <g transform="translate(342.061199 131.491495) scale(0.08 -0.08)">
       <defs>
        <path id="CMR17-35" d="M 730 3692 
C 794 3666 1056 3584 1325 3584 
C 1920 3584 2246 3911 2432 4100 
C 2432 4157 2432 4192 2394 4192 
C 2387 4192 2374 4192 2323 4163 
C 2099 4058 1837 3973 1517 3973 
C 1325 3973 1037 3999 723 4139 
C 653 4171 640 4171 634 4171 
C 602 4171 595 4164 595 4037 
L 595 2203 
C 595 2089 595 2057 659 2057 
C 691 2057 704 2070 736 2114 
C 941 2401 1222 2522 1542 2522 
C 1766 2522 2246 2382 2246 1289 
C 2246 1085 2246 715 2054 421 
C 1894 159 1645 25 1370 25 
C 947 25 518 320 403 814 
C 429 807 480 795 506 795 
C 589 795 749 840 749 1038 
C 749 1210 627 1280 506 1280 
C 358 1280 262 1190 262 1011 
C 262 454 704 -128 1382 -128 
C 2042 -128 2669 440 2669 1264 
C 2669 2030 2170 2624 1549 2624 
C 1222 2624 947 2503 730 2274 
L 730 3692 
z
" transform="scale(0.015625)"/>
       </defs>
       <use xlink:href="#CMR17-35" transform="scale(0.996264)"/>
       <use xlink:href="#CMR17-30" transform="translate(45.690477 0) scale(0.996264)"/>
      </g>
     </g>
    </g>
    <g id="text_7">
     <!-- $w$ [m] -->
     <g transform="translate(205.988507 144.51322) scale(0.1 -0.1)">
      <defs>
       <path id="CMMI12-77" d="M 2202 390 
C 2342 6 2739 -64 2982 -64 
C 3469 -64 3757 358 3936 798 
C 4083 1169 4320 2012 4320 2389 
C 4320 2778 4122 2816 4064 2816 
C 3910 2816 3770 2663 3770 2535 
C 3770 2459 3814 2414 3846 2389 
C 3904 2331 4070 2159 4070 1827 
C 4070 1609 3891 1009 3757 709 
C 3578 319 3341 64 3008 64 
C 2650 64 2534 332 2534 626 
C 2534 811 2592 1035 2618 1143 
L 2886 2216 
C 2918 2344 2976 2567 2976 2593 
C 2976 2689 2899 2753 2803 2753 
C 2618 2753 2573 2593 2534 2440 
C 2470 2191 2202 1111 2176 971 
C 2150 862 2150 792 2150 651 
C 2150 498 1946 255 1939 243 
C 1869 172 1766 64 1568 64 
C 1062 64 1062 543 1062 651 
C 1062 856 1107 1137 1395 1897 
C 1472 2095 1504 2178 1504 2305 
C 1504 2574 1312 2816 998 2816 
C 410 2816 173 1890 173 1839 
C 173 1814 198 1782 243 1782 
C 301 1782 307 1807 333 1896 
C 493 2454 742 2682 979 2682 
C 1043 2682 1146 2682 1146 2478 
C 1146 2446 1146 2312 1037 2031 
C 736 1233 672 971 672 728 
C 672 57 1222 -64 1549 -64 
C 1658 -64 1946 -64 2202 390 
z
" transform="scale(0.015625)"/>
       <path id="CMR17-5b" d="M 1504 -1600 
L 1504 -1377 
L 902 -1377 
L 902 4544 
L 1504 4544 
L 1504 4767 
L 678 4767 
L 678 -1600 
L 1504 -1600 
z
" transform="scale(0.015625)"/>
       <path id="CMR17-6d" d="M 4326 1933 
C 4326 2252 4269 2790 3507 2790 
C 3072 2790 2771 2496 2656 2151 
L 2650 2151 
C 2573 2676 2195 2790 1837 2790 
C 1331 2790 1069 2400 973 2144 
L 966 2144 
L 966 2790 
L 211 2720 
L 211 2554 
C 589 2554 646 2515 646 2208 
L 646 428 
C 646 184 621 153 211 153 
L 211 -13 
C 365 0 646 0 813 0 
C 979 0 1267 0 1421 -13 
L 1421 153 
C 1011 153 986 178 986 428 
L 986 1658 
C 986 2247 1344 2688 1792 2688 
C 2266 2688 2317 2266 2317 1958 
L 2317 428 
C 2317 184 2291 153 1882 153 
L 1882 -13 
C 2035 0 2317 0 2483 0 
C 2650 0 2938 0 3091 -13 
L 3091 153 
C 2682 153 2656 178 2656 428 
L 2656 1658 
C 2656 2247 3014 2688 3462 2688 
C 3936 2688 3987 2266 3987 1958 
L 3987 428 
C 3987 184 3962 153 3552 153 
L 3552 -13 
C 3706 0 3987 0 4154 0 
C 4320 0 4608 0 4762 -13 
L 4762 153 
C 4352 153 4326 178 4326 428 
L 4326 1933 
z
" transform="scale(0.015625)"/>
       <path id="CMR17-5d" d="M 915 4767 
L 90 4767 
L 90 4544 
L 691 4544 
L 691 -1377 
L 90 -1377 
L 90 -1600 
L 915 -1600 
L 915 4767 
z
" transform="scale(0.015625)"/>
      </defs>
      <use xlink:href="#CMMI12-77" transform="scale(0.996264)"/>
      <use xlink:href="#CMR17-5b" transform="translate(102.488881 0) scale(0.996264)"/>
      <use xlink:href="#CMR17-6d" transform="translate(127.35994 0) scale(0.996264)"/>
      <use xlink:href="#CMR17-5d" transform="translate(204.27953 0) scale(0.996264)"/>
     </g>
    </g>
   </g>
   <g id="matplotlib.axis_2">
    <g id="ytick_1">
     <g id="line2d_13">
      <path d="M 79.370079 117.586256 
L 357.165354 117.586256 
" clip-path="url(#pef057521b2)" style="fill: none; stroke-dasharray: 0.74,0.32; stroke-dashoffset: 0; stroke: #808080; stroke-opacity: 0.7; stroke-width: 0.2"/>
     </g>
     <g id="line2d_14">
      <defs>
       <path id="mf29348e984" d="M 0 0 
L 3.5 0 
" style="stroke: #000000; stroke-width: 0.5"/>
      </defs>
      <g>
       <use xlink:href="#mf29348e984" x="79.370079" y="117.586256" style="stroke: #000000; stroke-width: 0.5"/>
      </g>
     </g>
     <g id="text_8">
      <!-- $\mathdefault{0}$ -->
      <g transform="translate(71.635896 120.353657) scale(0.08 -0.08)">
       <use xlink:href="#CMR17-30" transform="scale(0.996264)"/>
      </g>
     </g>
    </g>
    <g id="ytick_2">
     <g id="line2d_15">
      <path d="M 79.370079 87.614137 
L 357.165354 87.614137 
" clip-path="url(#pef057521b2)" style="fill: none; stroke-dasharray: 0.74,0.32; stroke-dashoffset: 0; stroke: #808080; stroke-opacity: 0.7; stroke-width: 0.2"/>
     </g>
     <g id="line2d_16">
      <g>
       <use xlink:href="#mf29348e984" x="79.370079" y="87.614137" style="stroke: #000000; stroke-width: 0.5"/>
      </g>
     </g>
     <g id="text_9">
      <!-- $\mathdefault{5}$ -->
      <g transform="translate(71.635896 90.381538) scale(0.08 -0.08)">
       <use xlink:href="#CMR17-35" transform="scale(0.996264)"/>
      </g>
     </g>
    </g>
    <g id="ytick_3">
     <g id="line2d_17">
      <path d="M 79.370079 57.642017 
L 357.165354 57.642017 
" clip-path="url(#pef057521b2)" style="fill: none; stroke-dasharray: 0.74,0.32; stroke-dashoffset: 0; stroke: #808080; stroke-opacity: 0.7; stroke-width: 0.2"/>
     </g>
     <g id="line2d_18">
      <g>
       <use xlink:href="#mf29348e984" x="79.370079" y="57.642017" style="stroke: #000000; stroke-width: 0.5"/>
      </g>
     </g>
     <g id="text_10">
      <!-- $\mathdefault{10}$ -->
      <g transform="translate(67.401713 60.409418) scale(0.08 -0.08)">
       <use xlink:href="#CMR17-31" transform="scale(0.996264)"/>
       <use xlink:href="#CMR17-30" transform="translate(45.690477 0) scale(0.996264)"/>
      </g>
     </g>
    </g>
    <g id="ytick_4">
     <g id="line2d_19">
      <path d="M 79.370079 27.669898 
L 357.165354 27.669898 
" clip-path="url(#pef057521b2)" style="fill: none; stroke-dasharray: 0.74,0.32; stroke-dashoffset: 0; stroke: #808080; stroke-opacity: 0.7; stroke-width: 0.2"/>
     </g>
     <g id="line2d_20">
      <g>
       <use xlink:href="#mf29348e984" x="79.370079" y="27.669898" style="stroke: #000000; stroke-width: 0.5"/>
      </g>
     </g>
     <g id="text_11">
      <!-- $\mathdefault{15}$ -->
      <g transform="translate(67.401713 30.437299) scale(0.08 -0.08)">
       <use xlink:href="#CMR17-31" transform="scale(0.996264)"/>
       <use xlink:href="#CMR17-35" transform="translate(45.690477 0) scale(0.996264)"/>
      </g>
     </g>
    </g>
    <g id="text_12">
     <!-- $q$ [kN/m] -->
     <g transform="translate(60.911053 88.719) rotate(-90) scale(0.1 -0.1)">
      <defs>
       <path id="CMMI12-71" d="M 2822 2759 
C 2822 2790 2797 2816 2765 2816 
C 2714 2816 2464 2585 2342 2362 
C 2227 2646 2029 2816 1754 2816 
C 1030 2816 250 1884 250 939 
C 250 307 621 -64 1056 -64 
C 1395 -64 1677 193 1811 339 
L 1818 333 
L 1574 -615 
L 1517 -842 
C 1459 -1031 1363 -1031 1062 -1031 
C 992 -1031 928 -1031 928 -1152 
C 928 -1197 966 -1216 1011 -1216 
C 1101 -1216 1216 -1216 1306 -1216 
L 1958 -1216 
C 2054 -1216 2163 -1216 2259 -1216 
C 2298 -1216 2374 -1216 2374 -1095 
C 2374 -1031 2323 -1031 2227 -1031 
C 1926 -1031 1907 -986 1907 -935 
C 1907 -904 1914 -898 1933 -815 
L 2822 2759 
z
M 1920 762 
C 1888 652 1888 640 1798 518 
C 1658 339 1376 64 1075 64 
C 813 64 666 301 666 678 
C 666 1030 864 1747 986 2016 
C 1203 2464 1504 2695 1754 2695 
C 2176 2695 2259 2170 2259 2119 
C 2259 2113 2240 2028 2234 2016 
L 1920 762 
z
" transform="scale(0.015625)"/>
       <path id="CMR17-6b" d="M 1670 1673 
C 1664 1686 1632 1724 1632 1743 
C 1632 1756 2086 2171 2144 2222 
C 2509 2528 2739 2560 2906 2560 
L 2906 2733 
C 2867 2733 2854 2733 2848 2720 
L 2534 2720 
C 2355 2720 2080 2720 1907 2733 
L 1907 2566 
C 1997 2559 2061 2508 2061 2419 
C 2061 2291 1933 2170 1926 2170 
L 960 1289 
L 960 4396 
L 198 4326 
L 198 4160 
C 576 4160 634 4122 634 3817 
L 634 426 
C 634 184 608 153 198 153 
L 198 -13 
C 352 0 634 0 794 0 
C 954 0 1235 0 1389 -13 
L 1389 153 
C 979 153 954 178 954 428 
L 954 1130 
L 1395 1532 
L 2042 574 
C 2118 459 2182 369 2182 286 
C 2182 172 2067 153 1990 153 
L 1990 -13 
C 2144 0 2419 0 2579 0 
C 2694 0 2931 0 3040 0 
L 3040 153 
C 2739 153 2669 210 2477 491 
L 1670 1673 
z
" transform="scale(0.015625)"/>
       <path id="CMR17-4e" d="M 1312 4250 
C 1267 4320 1261 4320 1139 4320 
L 326 4320 
L 326 4160 
L 448 4160 
C 704 4160 819 4129 838 4122 
L 838 610 
C 838 451 838 153 326 153 
L 326 -13 
C 474 0 742 0 902 0 
C 1062 0 1331 0 1478 -13 
L 1478 153 
C 966 153 966 451 966 610 
L 966 4033 
C 1011 3995 1011 3982 1056 3919 
L 3430 76 
C 3475 0 3494 0 3526 0 
C 3590 0 3590 19 3590 139 
L 3590 3705 
C 3590 3863 3590 4160 4102 4160 
L 4102 4326 
C 3955 4320 3686 4320 3526 4320 
C 3366 4320 3098 4320 2950 4326 
L 2950 4160 
C 3462 4160 3462 3862 3462 3703 
L 3462 763 
L 1312 4250 
z
" transform="scale(0.015625)"/>
       <path id="CMR17-2f" d="M 2605 4545 
C 2637 4627 2637 4640 2637 4653 
C 2637 4729 2579 4768 2528 4768 
C 2451 4768 2426 4717 2400 4640 
L 326 -1377 
C 294 -1460 294 -1473 294 -1486 
C 294 -1562 352 -1600 403 -1600 
C 480 -1600 506 -1549 531 -1473 
L 2605 4545 
z
" transform="scale(0.015625)"/>
      </defs>
      <use xlink:href="#CMMI12-71" transform="scale(0.996264)"/>
      <use xlink:href="#CMR17-5b" transform="translate(76.90229 0) scale(0.996264)"/>
      <use xlink:href="#CMR17-6b" transform="translate(101.773349 0) scale(0.996264)"/>
      <use xlink:href="#CMR17-4e" transform="translate(150.066265 0) scale(0.996264)"/>
      <use xlink:href="#CMR17-2f" transform="translate(219.138694 0) scale(0.996264)"/>
      <use xlink:href="#CMR17-6d" transform="translate(264.829171 0) scale(0.996264)"/>
      <use xlink:href="#CMR17-5d" transform="translate(341.748761 0) scale(0.996264)"/>
     </g>
    </g>
   </g>
   <g id="line2d_21">
    <path d="M 91.997137 117.586256 
L 276.493959 34.973689 
L 344.538296 20.177523 
" clip-path="url(#pef057521b2)" style="fill: none; stroke: #000000; stroke-width: 0.7; stroke-linecap: square"/>
   </g>
   <g id="line2d_22">
    <path d="M 91.997137 117.586256 
L 104.712049 111.877287 
L 117.426961 106.168317 
L 130.141873 100.458988 
L 142.856786 94.749899 
L 155.571698 89.042009 
L 168.28661 83.332919 
L 181.001522 77.62383 
L 193.716435 71.914741 
L 206.431347 66.205651 
L 219.146259 60.496562 
L 231.861171 54.787473 
L 244.576084 49.078383 
L 257.290996 43.369294 
L 270.005908 37.661404 
L 282.72082 32.790335 
L 295.435732 28.836413 
L 308.150645 26.522565 
L 320.865557 24.209917 
" clip-path="url(#pef057521b2)" style="fill: none; stroke-dasharray: 2.59,1.12; stroke-dashoffset: 0; stroke: #000000; stroke-width: 0.7"/>
   </g>
   <g id="patch_3">
    <path d="M 79.370079 122.456693 
L 79.370079 15.307087 
" style="fill: none; stroke: #000000; stroke-width: 0.5; stroke-linejoin: miter; stroke-linecap: square"/>
   </g>
   <g id="patch_4">
    <path d="M 357.165354 122.456693 
L 357.165354 15.307087 
" style="fill: none; stroke: #000000; stroke-width: 0.5; stroke-linejoin: miter; stroke-linecap: square"/>
   </g>
   <g id="patch_5">
    <path d="M 79.370079 122.456693 
L 357.165354 122.456693 
" style="fill: none; stroke: #000000; stroke-width: 0.5; stroke-linejoin: miter; stroke-linecap: square"/>
   </g>
   <g id="patch_6">
    <path d="M 79.370079 15.307087 
L 357.165354 15.307087 
" style="fill: none; stroke: #000000; stroke-width: 0.5; stroke-linejoin: miter; stroke-linecap: square"/>
   </g>
  </g>
 </g>
 <defs>
  <clipPath id="pef057521b2">
   <rect x="79.370079" y="15.307087" width="277.795276" height="107.149606"/>
  </clipPath>
 </defs>
</svg>
