<?xml version="1.0" encoding="UTF-8" standalone="no"?>
<!-- Created with Inkscape (http://www.inkscape.org/) -->

<svg
   version="1.1"
   id="svg1"
   width="566.92932"
   height="302.36267"
   viewBox="0 0 566.92932 302.36267"
   sodipodi:docname="quad_vz_traj.pdf"
   xmlns:inkscape="http://www.inkscape.org/namespaces/inkscape"
   xmlns:sodipodi="http://sodipodi.sourceforge.net/DTD/sodipodi-0.dtd"
   xmlns="http://www.w3.org/2000/svg"
   xmlns:svg="http://www.w3.org/2000/svg">
  <defs
     id="defs1">
    <clipPath
       clipPathUnits="userSpaceOnUse"
       id="clipPath254">
      <path
         d="m -0.00426,-0.00227 v 226.7762 H 425.20111 V -0.00227 H -0.00426"
         transform="matrix(1,0,0,-1,-18.028131,110.23079)"
         clip-rule="evenodd"
         id="path254" />
    </clipPath>
    <clipPath
       clipPathUnits="userSpaceOnUse"
       id="clipPath255">
      <path
         d="m -0.00426,-0.00227 v 226.7762 H 425.20111 V -0.00227 H -0.00426"
         transform="matrix(1,0,0,-1,-11.161311,129.68532)"
         clip-rule="evenodd"
         id="path255" />
    </clipPath>
    <clipPath
       clipPathUnits="userSpaceOnUse"
       id="clipPath256">
      <path
         d="m -0.00426,-0.00227 v 226.7762 H 425.20111 V -0.00227 H -0.00426"
         transform="matrix(1,0,0,-1,-1.01965,140.54253)"
         clip-rule="evenodd"
         id="path256" />
    </clipPath>
    <clipPath
       clipPathUnits="userSpaceOnUse"
       id="clipPath257">
      <path
         d="m -0.00426,-0.00227 v 226.7762 H 425.20111 V -0.00227 H -0.00426"
         transform="matrix(1,0,0,-1,-1.01965,164.07008)"
         clip-rule="evenodd"
         id="path257" />
    </clipPath>
  </defs>
  <sodipodi:namedview
     id="namedview1"
     pagecolor="#ffffff"
     bordercolor="#000000"
     borderopacity="0.25"
     inkscape:showpageshadow="2"
     inkscape:pageopacity="0.0"
     inkscape:pagecheckerboard="0"
     inkscape:deskcolor="#d1d1d1">
    <inkscape:page
       x="0"
       y="0"
       inkscape:label="1"
       id="page1"
       width="566.92932"
       height="302.36267"
       margin="0"
       bleed="0" />
  </sodipodi:namedview>
  <g
     id="g1"
     inkscape:groupmode="layer"
     inkscape:label="1">
    <path
       id="path1"
       d="m 184.38776,104.14284 -10.92258,-3.19411 m 5.71347,1.67079 0.40808,0.11936 m -6.12155,-1.79015 v 0 l 5.95215,0.85458 -0.47739,1.63242 -5.47476,-2.487"
       style="fill:none;stroke:#000000;stroke-width:0.3685;stroke-linecap:round;stroke-linejoin:round;stroke-miterlimit:10;stroke-dasharray:none;stroke-opacity:1"
       transform="matrix(1.3333333,0,0,-1.3333333,0,302.36267)" />
    <path
       id="path2"
       d="m 178.93994,103.43573 -5.47476,-2.487 5.95215,0.85458 z"
       style="fill:#000000;fill-opacity:1;fill-rule:nonzero;stroke:none"
       transform="matrix(1.3333333,0,0,-1.3333333,0,302.36267)" />
    <path
       id="path3"
       d="m 126.02419,135.85968 -14.45929,2.80658 m 5.8437,-1.13428 0.4174,-0.081 m -6.2611,1.2153 v 0 l 5.68165,-1.96909 0.32408,1.66962 -6.00573,0.29947"
       style="fill:none;stroke:#000000;stroke-width:0.3685;stroke-linecap:round;stroke-linejoin:round;stroke-miterlimit:10;stroke-dasharray:none;stroke-opacity:1"
       transform="matrix(1.3333333,0,0,-1.3333333,0,302.36267)" />
    <path
       id="path4"
       d="m 117.57063,138.36679 -6.00573,0.29947 5.68165,-1.96909 z"
       style="fill:#000000;fill-opacity:1;fill-rule:nonzero;stroke:none"
       transform="matrix(1.3333333,0,0,-1.3333333,0,302.36267)" />
    <path
       id="path5"
       d="m 255.38242,82.62489 7.43985,-6.44778 m -4.49845,3.89862 -0.32132,0.27847 m 4.81977,-4.17709 v 0 l -3.94153,4.54124 -1.11386,-1.28526 5.05539,-3.25598"
       style="fill:none;stroke:#000000;stroke-width:0.3685;stroke-linecap:round;stroke-linejoin:round;stroke-miterlimit:10;stroke-dasharray:none;stroke-opacity:1"
       transform="matrix(1.3333333,0,0,-1.3333333,0,302.36267)" />
    <path
       id="path6"
       d="m 257.76688,79.43309 5.05539,-3.25598 -3.94153,4.54124 z"
       style="fill:#000000;fill-opacity:1;fill-rule:nonzero;stroke:none"
       transform="matrix(1.3333333,0,0,-1.3333333,0,302.36267)" />
    <path
       id="path7"
       d="M 164.46643,93.12109 153.29855,88.8257 m 5.55597,2.13693 0.39685,0.15265 m -5.95282,-2.28958 v 0 l 5.86124,1.34323 -0.61053,1.5874 -5.25071,-2.93063"
       style="fill:none;stroke:#000000;stroke-width:0.3685;stroke-linecap:round;stroke-linejoin:round;stroke-miterlimit:10;stroke-dasharray:none;stroke-opacity:1"
       transform="matrix(1.3333333,0,0,-1.3333333,0,302.36267)" />
    <path
       id="path8"
       d="m 158.54926,91.75633 -5.25071,-2.93063 5.86124,1.34323 z"
       style="fill:#000000;fill-opacity:1;fill-rule:nonzero;stroke:none"
       transform="matrix(1.3333333,0,0,-1.3333333,0,302.36267)" />
    <path
       id="path9"
       d="m 237.42087,71.71753 3.27502,-7.77783 m -2.31009,5.48623 -0.16501,0.39188 m 2.4751,-5.87811 v 0 l -1.52633,5.81624 -1.56751,-0.66002 3.09384,-5.15622"
       style="fill:none;stroke:#000000;stroke-width:0.3685;stroke-linecap:round;stroke-linejoin:round;stroke-miterlimit:10;stroke-dasharray:none;stroke-opacity:1"
       transform="matrix(1.3333333,0,0,-1.3333333,0,302.36267)" />
    <path
       id="path10"
       d="m 237.60205,69.09592 3.09384,-5.15622 -1.52633,5.81624 z"
       style="fill:#000000;fill-opacity:1;fill-rule:nonzero;stroke:none"
       transform="matrix(1.3333333,0,0,-1.3333333,0,302.36267)" />
    <path
       id="path11"
       d="m 219.0144,83.10886 v -7.41571 m 0,5.95275 v 0.42521 m 0,-6.37796 v 0 l 0.85041,5.95275 h -1.70078 l 0.85037,-5.95275"
       style="fill:none;stroke:#000000;stroke-width:0.3685;stroke-linecap:round;stroke-linejoin:round;stroke-miterlimit:10;stroke-dasharray:none;stroke-opacity:1"
       transform="matrix(1.3333333,0,0,-1.3333333,0,302.36267)" />
    <path
       id="path12"
       d="m 218.16403,81.6459 0.85037,-5.95275 0.85041,5.95275 z"
       style="fill:#000000;fill-opacity:1;fill-rule:nonzero;stroke:none"
       transform="matrix(1.3333333,0,0,-1.3333333,0,302.36267)" />
    <path
       id="path13"
       d="m 145.57431,103.4912 -13.47159,-1.89083 m 5.89499,0.82739 0.42105,0.0591 m -6.31604,-0.88649 v 0 l 6.01319,-0.0147 -0.23642,1.68427 -5.77677,-1.66953"
       style="fill:none;stroke:#000000;stroke-width:0.3685;stroke-linecap:round;stroke-linejoin:round;stroke-miterlimit:10;stroke-dasharray:none;stroke-opacity:1"
       transform="matrix(1.3333333,0,0,-1.3333333,0,302.36267)" />
    <path
       id="path14"
       d="m 137.87949,103.2699 -5.77677,-1.66953 6.01319,-0.0147 -0.23642,1.68427 z"
       style="fill:#000000;fill-opacity:1;fill-rule:nonzero;stroke:none"
       transform="matrix(1.3333333,0,0,-1.3333333,0,302.36267)" />
    <path
       id="path15"
       d="m 145.57431,103.4912 -13.47159,-1.89083 m 5.89499,0.82739 0.42105,0.0591 m -6.31604,-0.88649 v 0 l 6.01319,-0.0147 -0.23642,1.68427 -5.77677,-1.66953"
       style="fill:none;stroke:#000000;stroke-width:0.3685;stroke-linecap:round;stroke-linejoin:round;stroke-miterlimit:10;stroke-dasharray:none;stroke-opacity:1"
       transform="matrix(1.3333333,0,0,-1.3333333,0,302.36267)" />
    <path
       id="path16"
       d="m 137.87949,103.2699 -5.77677,-1.66953 6.01319,-0.0147 -0.23642,1.68427 z"
       style="fill:#000000;fill-opacity:1;fill-rule:nonzero;stroke:none"
       transform="matrix(1.3333333,0,0,-1.3333333,0,302.36267)" />
    <path
       id="path17"
       d="m 106.81374,103.04305 -16.12632,-0.99451 m 5.94147,0.36641 0.42439,0.0262 m -6.36586,-0.39258 v 0 l 5.99381,-0.48238 -0.10469,1.69756 -5.88912,-1.21518"
       style="fill:none;stroke:#000000;stroke-width:0.3685;stroke-linecap:round;stroke-linejoin:round;stroke-miterlimit:10;stroke-dasharray:none;stroke-opacity:1"
       transform="matrix(1.3333333,0,0,-1.3333333,0,302.36267)" />
    <path
       id="path18"
       d="m 96.57654,103.26372 -5.88912,-1.21518 5.99381,-0.48238 z"
       style="fill:#000000;fill-opacity:1;fill-rule:nonzero;stroke:none"
       transform="matrix(1.3333333,0,0,-1.3333333,0,302.36267)" />
    <path
       id="path19"
       d="m 201.73663,94.12648 -5.53238,-6.30617 m 3.92572,4.47481 0.28043,0.31963 m -4.20615,-4.79444 v 0 l 4.56501,3.91399 -1.27854,1.12164 -3.28647,-5.03563"
       style="fill:none;stroke:#000000;stroke-width:0.3685;stroke-linecap:round;stroke-linejoin:round;stroke-miterlimit:10;stroke-dasharray:none;stroke-opacity:1"
       transform="matrix(1.3333333,0,0,-1.3333333,0,302.36267)" />
    <path
       id="path20"
       d="m 199.49072,92.85594 -3.28647,-5.03563 4.56501,3.91399 z"
       style="fill:#000000;fill-opacity:1;fill-rule:nonzero;stroke:none"
       transform="matrix(1.3333333,0,0,-1.3333333,0,302.36267)" />
    <path
       id="path21"
       d="m 144.85281,81.88695 -12.02856,-4.9719 m 5.50131,2.27393 0.39298,0.16241 m -5.89429,-2.43634 v 0 l 5.82617,1.48803 -0.64969,1.57179 -5.17648,-3.05982"
       style="fill:none;stroke:#000000;stroke-width:0.3685;stroke-linecap:round;stroke-linejoin:round;stroke-miterlimit:10;stroke-dasharray:none;stroke-opacity:1"
       transform="matrix(1.3333333,0,0,-1.3333333,0,302.36267)" />
    <path
       id="path22"
       d="m 138.00073,79.97487 -5.17648,-3.05982 5.82617,1.48803 z"
       style="fill:#000000;fill-opacity:1;fill-rule:nonzero;stroke:none"
       transform="matrix(1.3333333,0,0,-1.3333333,0,302.36267)" />
    <path
       id="path23"
       d="m 236.29221,94.12648 5.53234,-6.30617 m -3.92572,4.47481 -0.28042,0.31963 m 4.20614,-4.79444 v 0 l -3.28646,5.03563 -1.27851,-1.12163 4.56497,-3.914"
       style="fill:none;stroke:#000000;stroke-width:0.3685;stroke-linecap:round;stroke-linejoin:round;stroke-miterlimit:10;stroke-dasharray:none;stroke-opacity:1"
       transform="matrix(1.3333333,0,0,-1.3333333,0,302.36267)" />
    <path
       id="path24"
       d="m 237.25958,91.73431 4.56497,-3.914 -3.28646,5.03563 z"
       style="fill:#000000;fill-opacity:1;fill-rule:nonzero;stroke:none"
       transform="matrix(1.3333333,0,0,-1.3333333,0,302.36267)" />
    <path
       id="path25"
       d="m 144.85281,81.88695 -12.02856,-4.9719 m 5.50131,2.27393 0.39298,0.16241 m -5.89429,-2.43634 v 0 l 5.82617,1.48803 -0.64969,1.57179 -5.17648,-3.05982"
       style="fill:none;stroke:#000000;stroke-width:0.3685;stroke-linecap:round;stroke-linejoin:round;stroke-miterlimit:10;stroke-dasharray:none;stroke-opacity:1"
       transform="matrix(1.3333333,0,0,-1.3333333,0,302.36267)" />
    <path
       id="path26"
       d="m 138.00073,79.97487 -5.17648,-3.05982 5.82617,1.48803 z"
       style="fill:#000000;fill-opacity:1;fill-rule:nonzero;stroke:none"
       transform="matrix(1.3333333,0,0,-1.3333333,0,302.36267)" />
    <path
       id="path27"
       d="M 87.69476,114.11818 H 69.71844 m 5.95276,0 h 0.42521 m -6.37797,0 v 0 l 5.95276,-0.8504 v 1.70079 l -5.95276,-0.85039"
       style="fill:none;stroke:#000000;stroke-width:0.3685;stroke-linecap:round;stroke-linejoin:round;stroke-miterlimit:10;stroke-dasharray:none;stroke-opacity:1"
       transform="matrix(1.3333333,0,0,-1.3333333,0,302.36267)" />
    <path
       id="path28"
       d="m 75.6712,114.96857 -5.95276,-0.85039 5.95276,-0.8504 z"
       style="fill:#000000;fill-opacity:1;fill-rule:nonzero;stroke:none"
       transform="matrix(1.3333333,0,0,-1.3333333,0,302.36267)" />
    <path
       id="path29"
       d="m 274.84055,71.30095 8.61154,-6.94469 m -4.63373,3.73682 -0.33099,0.26692 m 4.96472,-4.00374 v 0 l -4.09989,4.39879 -1.06765,-1.32393 5.16754,-3.07486"
       style="fill:none;stroke:#000000;stroke-width:0.3685;stroke-linecap:round;stroke-linejoin:round;stroke-miterlimit:10;stroke-dasharray:none;stroke-opacity:1"
       transform="matrix(1.3333333,0,0,-1.3333333,0,302.36267)" />
    <path
       id="path30"
       d="m 278.28455,67.43112 5.16754,-3.07486 -4.09989,4.39879 z"
       style="fill:#000000;fill-opacity:1;fill-rule:nonzero;stroke:none"
       transform="matrix(1.3333333,0,0,-1.3333333,0,302.36267)" />
    <path
       id="path31"
       d="m 238.19711,49.33908 1.72254,-9.31053 m -1.08295,5.85342 -0.0773,0.41811 m 1.16028,-6.27153 v 0 l -0.24674,6.00813 -1.67239,-0.3094 1.91913,-5.69873"
       style="fill:none;stroke:#000000;stroke-width:0.3685;stroke-linecap:round;stroke-linejoin:round;stroke-miterlimit:10;stroke-dasharray:none;stroke-opacity:1"
       transform="matrix(1.3333333,0,0,-1.3333333,0,302.36267)" />
    <path
       id="path32"
       d="m 238.00052,45.72728 1.91913,-5.69873 -0.24674,6.00813 z"
       style="fill:#000000;fill-opacity:1;fill-rule:nonzero;stroke:none"
       transform="matrix(1.3333333,0,0,-1.3333333,0,302.36267)" />
    <path
       id="path33"
       d="m 126.17366,114.11818 h -14.75822 m 5.95274,0 h 0.4252 m -6.37794,0 v 0 l 5.95274,-0.8504 v 1.70079 l -5.95274,-0.85039"
       style="fill:none;stroke:#000000;stroke-width:0.3685;stroke-linecap:round;stroke-linejoin:round;stroke-miterlimit:10;stroke-dasharray:none;stroke-opacity:1"
       transform="matrix(1.3333333,0,0,-1.3333333,0,302.36267)" />
    <path
       id="path34"
       d="m 117.36818,114.96857 -5.95274,-0.85039 5.95274,-0.8504 z"
       style="fill:#000000;fill-opacity:1;fill-rule:nonzero;stroke:none"
       transform="matrix(1.3333333,0,0,-1.3333333,0,302.36267)" />
    <path
       id="path35"
       d="m 201.73663,94.12648 -5.53238,-6.30617 m 3.92572,4.47481 0.28043,0.31963 m -4.20615,-4.79444 v 0 l 4.56501,3.91399 -1.27854,1.12164 -3.28647,-5.03563"
       style="fill:none;stroke:#000000;stroke-width:0.3685;stroke-linecap:round;stroke-linejoin:round;stroke-miterlimit:10;stroke-dasharray:none;stroke-opacity:1"
       transform="matrix(1.3333333,0,0,-1.3333333,0,302.36267)" />
    <path
       id="path36"
       d="m 199.49072,92.85594 -3.28647,-5.03563 4.56501,3.91399 z"
       style="fill:#000000;fill-opacity:1;fill-rule:nonzero;stroke:none"
       transform="matrix(1.3333333,0,0,-1.3333333,0,302.36267)" />
    <path
       id="path37"
       d="m 163.18826,71.30095 -8.61154,-6.94469 m 4.63373,3.73682 0.33099,0.26692 m -4.96472,-4.00374 v 0 l 5.16757,3.07486 -1.06765,1.32392 -4.09992,-4.39878"
       style="fill:none;stroke:#000000;stroke-width:0.3685;stroke-linecap:round;stroke-linejoin:round;stroke-miterlimit:10;stroke-dasharray:none;stroke-opacity:1"
       transform="matrix(1.3333333,0,0,-1.3333333,0,302.36267)" />
    <path
       id="path38"
       d="m 158.67664,68.75504 -4.09992,-4.39878 5.16757,3.07486 z"
       style="fill:#000000;fill-opacity:1;fill-rule:nonzero;stroke:none"
       transform="matrix(1.3333333,0,0,-1.3333333,0,302.36267)" />
    <path
       id="path39"
       d="m 236.29221,94.12648 5.53234,-6.30617 m -3.92572,4.47481 -0.28042,0.31963 m 4.20614,-4.79444 v 0 l -3.28646,5.03563 -1.27851,-1.12163 4.56497,-3.914"
       style="fill:none;stroke:#000000;stroke-width:0.3685;stroke-linecap:round;stroke-linejoin:round;stroke-miterlimit:10;stroke-dasharray:none;stroke-opacity:1"
       transform="matrix(1.3333333,0,0,-1.3333333,0,302.36267)" />
    <path
       id="path40"
       d="m 237.25958,91.73431 4.56497,-3.914 -3.28646,5.03563 z"
       style="fill:#000000;fill-opacity:1;fill-rule:nonzero;stroke:none"
       transform="matrix(1.3333333,0,0,-1.3333333,0,302.36267)" />
    <path
       id="path41"
       d="M 164.46643,93.12109 153.29855,88.8257 m 5.55597,2.13693 0.39685,0.15265 m -5.95282,-2.28958 v 0 l 5.86124,1.34323 -0.61053,1.5874 -5.25071,-2.93063"
       style="fill:none;stroke:#000000;stroke-width:0.3685;stroke-linecap:round;stroke-linejoin:round;stroke-miterlimit:10;stroke-dasharray:none;stroke-opacity:1"
       transform="matrix(1.3333333,0,0,-1.3333333,0,302.36267)" />
    <path
       id="path42"
       d="m 158.54926,91.75633 -5.25071,-2.93063 5.86124,1.34323 z"
       style="fill:#000000;fill-opacity:1;fill-rule:nonzero;stroke:none"
       transform="matrix(1.3333333,0,0,-1.3333333,0,302.36267)" />
    <path
       id="path43"
       d="m 181.35706,60.43025 -4.86118,-8.34807 m 2.99548,5.14415 0.21396,0.36744 m -3.20944,-5.51159 v 0 l 3.73038,4.71622 -1.46976,0.85585 -2.26062,-5.57207"
       style="fill:none;stroke:#000000;stroke-width:0.3685;stroke-linecap:round;stroke-linejoin:round;stroke-miterlimit:10;stroke-dasharray:none;stroke-opacity:1"
       transform="matrix(1.3333333,0,0,-1.3333333,0,302.36267)" />
    <path
       id="path44"
       d="m 178.7565,57.65425 -2.26062,-5.57207 3.73038,4.71622 z"
       style="fill:#000000;fill-opacity:1;fill-rule:nonzero;stroke:none"
       transform="matrix(1.3333333,0,0,-1.3333333,0,302.36267)" />
    <path
       id="path45"
       d="m 182.64639,82.62489 -7.43985,-6.44778 m 4.49845,3.89862 0.32132,0.27846 m -4.81977,-4.17708 v 0 l 5.05539,3.25598 -1.11386,1.28526 -3.94153,-4.54124"
       style="fill:none;stroke:#000000;stroke-width:0.3685;stroke-linecap:round;stroke-linejoin:round;stroke-miterlimit:10;stroke-dasharray:none;stroke-opacity:1"
       transform="matrix(1.3333333,0,0,-1.3333333,0,302.36267)" />
    <path
       id="path46"
       d="m 179.14807,80.71835 -3.94153,-4.54124 5.05539,3.25598 z"
       style="fill:#000000;fill-opacity:1;fill-rule:nonzero;stroke:none"
       transform="matrix(1.3333333,0,0,-1.3333333,0,302.36267)" />
    <path
       id="path47"
       d="m 164.46643,135.11526 -11.16788,4.29542 m 5.55597,-2.13697 0.39685,-0.15262 m -5.95282,2.28959 v 0 l 5.25071,-2.93067 0.61053,1.5874 -5.86124,1.34327"
       style="fill:none;stroke:#000000;stroke-width:0.3685;stroke-linecap:round;stroke-linejoin:round;stroke-miterlimit:10;stroke-dasharray:none;stroke-opacity:1"
       transform="matrix(1.3333333,0,0,-1.3333333,0,302.36267)" />
    <path
       id="path48"
       d="m 159.15979,138.06741 -5.86124,1.34327 5.25071,-2.93067 z"
       style="fill:#000000;fill-opacity:1;fill-rule:nonzero;stroke:none"
       transform="matrix(1.3333333,0,0,-1.3333333,0,302.36267)" />
    <path
       id="path49"
       d="m 145.57431,124.74516 -13.47159,1.89083 m 5.89499,-0.82741 0.42105,-0.0591 m -6.31604,0.88651 v 0 l 5.77677,-1.66954 0.23642,1.68426 -6.01319,-0.0147"
       style="fill:none;stroke:#000000;stroke-width:0.3685;stroke-linecap:round;stroke-linejoin:round;stroke-miterlimit:10;stroke-dasharray:none;stroke-opacity:1"
       transform="matrix(1.3333333,0,0,-1.3333333,0,302.36267)" />
    <path
       id="path50"
       d="m 138.11591,126.65071 -6.01319,-0.0147 5.77677,-1.66954 0.23642,1.68426 z"
       style="fill:#000000;fill-opacity:1;fill-rule:nonzero;stroke:none"
       transform="matrix(1.3333333,0,0,-1.3333333,0,302.36267)" />
    <path
       id="path51"
       d="M 219.0144,38.30074 V 27.92212 m 0,5.95276 v 0.42518 m 0,-6.37794 v 0 l 0.85041,5.95276 h -1.70078 l 0.85037,-5.95276"
       style="fill:none;stroke:#000000;stroke-width:0.3685;stroke-linecap:round;stroke-linejoin:round;stroke-miterlimit:10;stroke-dasharray:none;stroke-opacity:1"
       transform="matrix(1.3333333,0,0,-1.3333333,0,302.36267)" />
    <path
       id="path52"
       d="m 218.16403,33.87488 0.85037,-5.95276 0.85041,5.95276 z"
       style="fill:#000000;fill-opacity:1;fill-rule:nonzero;stroke:none"
       transform="matrix(1.3333333,0,0,-1.3333333,0,302.36267)" />
    <path
       id="path53"
       d="M 126.02419,92.37669 111.56491,89.5701 m 5.84369,1.13428 0.4174,0.08102 m -6.26109,-1.2153 v 0 l 6.00572,0.29947 -0.32408,1.66961 -5.68164,-1.96908"
       style="fill:none;stroke:#000000;stroke-width:0.3685;stroke-linecap:round;stroke-linejoin:round;stroke-miterlimit:10;stroke-dasharray:none;stroke-opacity:1"
       transform="matrix(1.3333333,0,0,-1.3333333,0,302.36267)" />
    <path
       id="path54"
       d="m 117.24655,91.53918 -5.68164,-1.96908 6.00572,0.29947 z"
       style="fill:#000000;fill-opacity:1;fill-rule:nonzero;stroke:none"
       transform="matrix(1.3333333,0,0,-1.3333333,0,302.36267)" />
    <path
       id="path55"
       d="m 204.61047,114.11818 h -11.28006 m 5.95276,0 h 0.42517 m -6.37793,0 v 0 l 5.95276,-0.8504 v 1.70079 l -5.95276,-0.85039"
       style="fill:none;stroke:#000000;stroke-width:0.3685;stroke-linecap:round;stroke-linejoin:round;stroke-miterlimit:10;stroke-dasharray:none;stroke-opacity:1"
       transform="matrix(1.3333333,0,0,-1.3333333,0,302.36267)" />
    <path
       id="path56"
       d="m 199.28317,114.96857 -5.95276,-0.85039 5.95276,-0.8504 z"
       style="fill:#000000;fill-opacity:1;fill-rule:nonzero;stroke:none"
       transform="matrix(1.3333333,0,0,-1.3333333,0,302.36267)" />
    <path
       id="path57"
       d="m 256.67175,60.43025 4.86118,-8.34807 m -2.99548,5.14415 -0.21399,0.36744 m 3.20947,-5.51159 v 0 l -2.26062,5.57209 -1.46976,-0.85585 3.73038,-4.71624"
       style="fill:none;stroke:#000000;stroke-width:0.3685;stroke-linecap:round;stroke-linejoin:round;stroke-miterlimit:10;stroke-dasharray:none;stroke-opacity:1"
       transform="matrix(1.3333333,0,0,-1.3333333,0,302.36267)" />
    <path
       id="path58"
       d="m 257.80255,56.79842 3.73038,-4.71624 -2.26062,5.57209 z"
       style="fill:#000000;fill-opacity:1;fill-rule:nonzero;stroke:none"
       transform="matrix(1.3333333,0,0,-1.3333333,0,302.36267)" />
    <path
       id="path59"
       d="m 219.0144,105.80206 v -6.51255 m 0,5.95275 v 0.42521 m 0,-6.37796 v 0 l 0.85041,5.95275 h -1.70078 l 0.85037,-5.95275"
       style="fill:none;stroke:#000000;stroke-width:0.3685;stroke-linecap:round;stroke-linejoin:round;stroke-miterlimit:10;stroke-dasharray:none;stroke-opacity:1"
       transform="matrix(1.3333333,0,0,-1.3333333,0,302.36267)" />
    <path
       id="path60"
       d="m 218.16403,105.24226 0.85037,-5.95275 0.85041,5.95275 z"
       style="fill:#000000;fill-opacity:1;fill-rule:nonzero;stroke:none"
       transform="matrix(1.3333333,0,0,-1.3333333,0,302.36267)" />
    <path
       id="path61"
       d="m 199.8317,49.33908 -1.72254,-9.31053 m 1.08295,5.85342 0.0774,0.41811 m -1.16031,-6.27153 v 0 l 1.91916,5.69873 -1.67242,0.3094 -0.24674,-6.00813"
       style="fill:none;stroke:#000000;stroke-width:0.3685;stroke-linecap:round;stroke-linejoin:round;stroke-miterlimit:10;stroke-dasharray:none;stroke-opacity:1"
       transform="matrix(1.3333333,0,0,-1.3333333,0,302.36267)" />
    <path
       id="path62"
       d="m 198.3559,46.03668 -0.24674,-6.00813 1.91916,5.69873 z"
       style="fill:#000000;fill-opacity:1;fill-rule:nonzero;stroke:none"
       transform="matrix(1.3333333,0,0,-1.3333333,0,302.36267)" />
    <path
       id="path63"
       d="m 199.8317,49.33908 -1.72254,-9.31053 m 1.08295,5.85342 0.0774,0.41811 m -1.16031,-6.27153 v 0 l 1.91916,5.69873 -1.67242,0.3094 -0.24674,-6.00813"
       style="fill:none;stroke:#000000;stroke-width:0.3685;stroke-linecap:round;stroke-linejoin:round;stroke-miterlimit:10;stroke-dasharray:none;stroke-opacity:1"
       transform="matrix(1.3333333,0,0,-1.3333333,0,302.36267)" />
    <path
       id="path64"
       d="m 198.3559,46.03668 -0.24674,-6.00813 1.91916,5.69873 z"
       style="fill:#000000;fill-opacity:1;fill-rule:nonzero;stroke:none"
       transform="matrix(1.3333333,0,0,-1.3333333,0,302.36267)" />
    <path
       id="path65"
       d="m 255.38242,82.62489 7.43985,-6.44778 m -4.49845,3.89862 -0.32132,0.27847 m 4.81977,-4.17709 v 0 l -3.94153,4.54124 -1.11386,-1.28526 5.05539,-3.25598"
       style="fill:none;stroke:#000000;stroke-width:0.3685;stroke-linecap:round;stroke-linejoin:round;stroke-miterlimit:10;stroke-dasharray:none;stroke-opacity:1"
       transform="matrix(1.3333333,0,0,-1.3333333,0,302.36267)" />
    <path
       id="path66"
       d="m 257.76688,79.43309 5.05539,-3.25598 -3.94153,4.54124 z"
       style="fill:#000000;fill-opacity:1;fill-rule:nonzero;stroke:none"
       transform="matrix(1.3333333,0,0,-1.3333333,0,302.36267)" />
    <path
       id="path67"
       d="m 144.85281,146.34943 -12.02856,4.97186 m 5.50131,-2.2739 0.39298,-0.16244 m -5.89429,2.43634 v 0 l 5.17648,-3.05982 0.64969,1.57181 -5.82617,1.48801"
       style="fill:none;stroke:#000000;stroke-width:0.3685;stroke-linecap:round;stroke-linejoin:round;stroke-miterlimit:10;stroke-dasharray:none;stroke-opacity:1"
       transform="matrix(1.3333333,0,0,-1.3333333,0,302.36267)" />
    <path
       id="path68"
       d="m 138.65042,149.83328 -5.82617,1.48801 5.17648,-3.05982 z"
       style="fill:#000000;fill-opacity:1;fill-rule:nonzero;stroke:none"
       transform="matrix(1.3333333,0,0,-1.3333333,0,302.36267)" />
    <path
       id="path69"
       d="m 200.60794,71.71753 -3.27499,-7.77783 m 2.31009,5.48623 0.16497,0.39188 m -2.47506,-5.87811 v 0 l 3.09381,5.15622 -1.56748,0.66002 -1.52633,-5.81624"
       style="fill:none;stroke:#000000;stroke-width:0.3685;stroke-linecap:round;stroke-linejoin:round;stroke-miterlimit:10;stroke-dasharray:none;stroke-opacity:1"
       transform="matrix(1.3333333,0,0,-1.3333333,0,302.36267)" />
    <path
       id="path70"
       d="m 198.85928,69.75594 -1.52633,-5.81624 3.09381,5.15622 z"
       style="fill:#000000;fill-opacity:1;fill-rule:nonzero;stroke:none"
       transform="matrix(1.3333333,0,0,-1.3333333,0,302.36267)" />
    <path
       id="path71"
       d="M 87.69476,114.11818 H 69.71844 m 5.95276,0 h 0.42521 m -6.37797,0 v 0 l 5.95276,-0.8504 v 1.70079 l -5.95276,-0.85039"
       style="fill:none;stroke:#000000;stroke-width:0.3685;stroke-linecap:round;stroke-linejoin:round;stroke-miterlimit:10;stroke-dasharray:none;stroke-opacity:1"
       transform="matrix(1.3333333,0,0,-1.3333333,0,302.36267)" />
    <path
       id="path72"
       d="m 75.6712,114.96857 -5.95276,-0.85039 5.95276,-0.8504 z"
       style="fill:#000000;fill-opacity:1;fill-rule:nonzero;stroke:none"
       transform="matrix(1.3333333,0,0,-1.3333333,0,302.36267)" />
    <path
       id="path73"
       d="m 126.17366,114.11818 h -14.75822 m 5.95274,0 h 0.4252 m -6.37794,0 v 0 l 5.95274,-0.8504 v 1.70079 l -5.95274,-0.85039"
       style="fill:none;stroke:#000000;stroke-width:0.3685;stroke-linecap:round;stroke-linejoin:round;stroke-miterlimit:10;stroke-dasharray:none;stroke-opacity:1"
       transform="matrix(1.3333333,0,0,-1.3333333,0,302.36267)" />
    <path
       id="path74"
       d="m 117.36818,114.96857 -5.95274,-0.85039 5.95274,-0.8504 z"
       style="fill:#000000;fill-opacity:1;fill-rule:nonzero;stroke:none"
       transform="matrix(1.3333333,0,0,-1.3333333,0,302.36267)" />
    <path
       id="path75"
       d="m 204.61047,114.11818 h -11.28006 m 5.95276,0 h 0.42517 m -6.37793,0 v 0 l 5.95276,-0.8504 v 1.70079 l -5.95276,-0.85039"
       style="fill:none;stroke:#000000;stroke-width:0.3685;stroke-linecap:round;stroke-linejoin:round;stroke-miterlimit:10;stroke-dasharray:none;stroke-opacity:1"
       transform="matrix(1.3333333,0,0,-1.3333333,0,302.36267)" />
    <path
       id="path76"
       d="m 199.28317,114.96857 -5.95276,-0.85039 5.95276,-0.8504 z"
       style="fill:#000000;fill-opacity:1;fill-rule:nonzero;stroke:none"
       transform="matrix(1.3333333,0,0,-1.3333333,0,302.36267)" />
    <path
       id="path77"
       d="m 200.60794,71.71753 -3.27499,-7.77783 m 2.31009,5.48623 0.16497,0.39188 m -2.47506,-5.87811 v 0 l 3.09381,5.15622 -1.56748,0.66002 -1.52633,-5.81624"
       style="fill:none;stroke:#000000;stroke-width:0.3685;stroke-linecap:round;stroke-linejoin:round;stroke-miterlimit:10;stroke-dasharray:none;stroke-opacity:1"
       transform="matrix(1.3333333,0,0,-1.3333333,0,302.36267)" />
    <path
       id="path78"
       d="m 198.85928,69.75594 -1.52633,-5.81624 3.09381,5.15622 z"
       style="fill:#000000;fill-opacity:1;fill-rule:nonzero;stroke:none"
       transform="matrix(1.3333333,0,0,-1.3333333,0,302.36267)" />
    <path
       id="path79"
       d="m 219.0144,60.51656 v -8.52068 m 0,5.95276 v 0.42519 m 0,-6.37795 v 0 l 0.85041,5.95276 h -1.70078 l 0.85037,-5.95276"
       style="fill:none;stroke:#000000;stroke-width:0.3685;stroke-linecap:round;stroke-linejoin:round;stroke-miterlimit:10;stroke-dasharray:none;stroke-opacity:1"
       transform="matrix(1.3333333,0,0,-1.3333333,0,302.36267)" />
    <path
       id="path80"
       d="m 218.16403,57.94864 0.85037,-5.95276 0.85041,5.95276 z"
       style="fill:#000000;fill-opacity:1;fill-rule:nonzero;stroke:none"
       transform="matrix(1.3333333,0,0,-1.3333333,0,302.36267)" />
    <path
       id="path81"
       d="M 126.02419,92.37669 111.56491,89.5701 m 5.84369,1.13428 0.4174,0.08102 m -6.26109,-1.2153 v 0 l 6.00572,0.29947 -0.32408,1.66961 -5.68164,-1.96908"
       style="fill:none;stroke:#000000;stroke-width:0.3685;stroke-linecap:round;stroke-linejoin:round;stroke-miterlimit:10;stroke-dasharray:none;stroke-opacity:1"
       transform="matrix(1.3333333,0,0,-1.3333333,0,302.36267)" />
    <path
       id="path82"
       d="m 117.24655,91.53918 -5.68164,-1.96908 6.00572,0.29947 z"
       style="fill:#000000;fill-opacity:1;fill-rule:nonzero;stroke:none"
       transform="matrix(1.3333333,0,0,-1.3333333,0,302.36267)" />
    <path
       id="path83"
       d="M 165.30469,114.11818 H 152.4603 m 5.95276,0 h 0.4252 m -6.37796,0 v 0 l 5.95276,-0.8504 v 1.70079 l -5.95276,-0.85039"
       style="fill:none;stroke:#000000;stroke-width:0.3685;stroke-linecap:round;stroke-linejoin:round;stroke-miterlimit:10;stroke-dasharray:none;stroke-opacity:1"
       transform="matrix(1.3333333,0,0,-1.3333333,0,302.36267)" />
    <path
       id="path84"
       d="m 158.41306,114.96857 -5.95276,-0.85039 5.95276,-0.8504 z"
       style="fill:#000000;fill-opacity:1;fill-rule:nonzero;stroke:none"
       transform="matrix(1.3333333,0,0,-1.3333333,0,302.36267)" />
    <path
       id="path85"
       d="m 219.0144,83.10886 v -7.41571 m 0,5.95275 v 0.42521 m 0,-6.37796 v 0 l 0.85041,5.95275 h -1.70078 l 0.85037,-5.95275"
       style="fill:none;stroke:#000000;stroke-width:0.3685;stroke-linecap:round;stroke-linejoin:round;stroke-miterlimit:10;stroke-dasharray:none;stroke-opacity:1"
       transform="matrix(1.3333333,0,0,-1.3333333,0,302.36267)" />
    <path
       id="path86"
       d="m 218.16403,81.6459 0.85037,-5.95275 0.85041,5.95275 z"
       style="fill:#000000;fill-opacity:1;fill-rule:nonzero;stroke:none"
       transform="matrix(1.3333333,0,0,-1.3333333,0,302.36267)" />
    <path
       id="path87"
       d="M 165.30469,114.11818 H 152.4603 m 5.95276,0 h 0.4252 m -6.37796,0 v 0 l 5.95276,-0.8504 v 1.70079 l -5.95276,-0.85039"
       style="fill:none;stroke:#000000;stroke-width:0.3685;stroke-linecap:round;stroke-linejoin:round;stroke-miterlimit:10;stroke-dasharray:none;stroke-opacity:1"
       transform="matrix(1.3333333,0,0,-1.3333333,0,302.36267)" />
    <path
       id="path88"
       d="m 158.41306,114.96857 -5.95276,-0.85039 5.95276,-0.8504 z"
       style="fill:#000000;fill-opacity:1;fill-rule:nonzero;stroke:none"
       transform="matrix(1.3333333,0,0,-1.3333333,0,302.36267)" />
    <path
       id="path89"
       d="m 219.0144,60.51656 v -8.52068 m 0,5.95276 v 0.42519 m 0,-6.37795 v 0 l 0.85041,5.95276 h -1.70078 l 0.85037,-5.95276"
       style="fill:none;stroke:#000000;stroke-width:0.3685;stroke-linecap:round;stroke-linejoin:round;stroke-miterlimit:10;stroke-dasharray:none;stroke-opacity:1"
       transform="matrix(1.3333333,0,0,-1.3333333,0,302.36267)" />
    <path
       id="path90"
       d="m 218.16403,57.94864 0.85037,-5.95276 0.85041,5.95276 z"
       style="fill:#000000;fill-opacity:1;fill-rule:nonzero;stroke:none"
       transform="matrix(1.3333333,0,0,-1.3333333,0,302.36267)" />
    <path
       id="path91"
       d="m 181.35706,60.43025 -4.86118,-8.34807 m 2.99548,5.14415 0.21396,0.36744 m -3.20944,-5.51159 v 0 l 3.73038,4.71622 -1.46976,0.85585 -2.26062,-5.57207"
       style="fill:none;stroke:#000000;stroke-width:0.3685;stroke-linecap:round;stroke-linejoin:round;stroke-miterlimit:10;stroke-dasharray:none;stroke-opacity:1"
       transform="matrix(1.3333333,0,0,-1.3333333,0,302.36267)" />
    <path
       id="path92"
       d="m 178.7565,57.65425 -2.26062,-5.57207 3.73038,4.71622 z"
       style="fill:#000000;fill-opacity:1;fill-rule:nonzero;stroke:none"
       transform="matrix(1.3333333,0,0,-1.3333333,0,302.36267)" />
    <path
       id="path93"
       d="m 184.38776,104.14284 -10.92258,-3.19411 m 5.71347,1.67079 0.40808,0.11936 m -6.12155,-1.79015 v 0 l 5.95215,0.85458 -0.47739,1.63242 -5.47476,-2.487"
       style="fill:none;stroke:#000000;stroke-width:0.3685;stroke-linecap:round;stroke-linejoin:round;stroke-miterlimit:10;stroke-dasharray:none;stroke-opacity:1"
       transform="matrix(1.3333333,0,0,-1.3333333,0,302.36267)" />
    <path
       id="path94"
       d="m 178.93994,103.43573 -5.47476,-2.487 5.95215,0.85458 z"
       style="fill:#000000;fill-opacity:1;fill-rule:nonzero;stroke:none"
       transform="matrix(1.3333333,0,0,-1.3333333,0,302.36267)" />
    <path
       id="path95"
       d="m 184.38776,124.09351 -10.92258,3.19412 m 5.71347,-1.67081 0.40808,-0.11934 m -6.12155,1.79015 v 0 l 5.47476,-2.48702 0.47739,1.63242 -5.95215,0.8546"
       style="fill:none;stroke:#000000;stroke-width:0.3685;stroke-linecap:round;stroke-linejoin:round;stroke-miterlimit:10;stroke-dasharray:none;stroke-opacity:1"
       transform="matrix(1.3333333,0,0,-1.3333333,0,302.36267)" />
    <path
       id="path96"
       d="m 179.41733,126.43303 -5.95215,0.8546 5.47476,-2.48702 z"
       style="fill:#000000;fill-opacity:1;fill-rule:nonzero;stroke:none"
       transform="matrix(1.3333333,0,0,-1.3333333,0,302.36267)" />
    <path
       id="path97"
       d="m 237.42087,71.71753 3.27502,-7.77783 m -2.31009,5.48623 -0.16501,0.39188 m 2.4751,-5.87811 v 0 l -1.52633,5.81624 -1.56751,-0.66002 3.09384,-5.15622"
       style="fill:none;stroke:#000000;stroke-width:0.3685;stroke-linecap:round;stroke-linejoin:round;stroke-miterlimit:10;stroke-dasharray:none;stroke-opacity:1"
       transform="matrix(1.3333333,0,0,-1.3333333,0,302.36267)" />
    <path
       id="path98"
       d="m 237.60205,69.09592 3.09384,-5.15622 -1.52633,5.81624 z"
       style="fill:#000000;fill-opacity:1;fill-rule:nonzero;stroke:none"
       transform="matrix(1.3333333,0,0,-1.3333333,0,302.36267)" />
    <path
       id="path99"
       d="m 256.67175,60.43025 4.86118,-8.34807 m -2.99548,5.14415 -0.21399,0.36744 m 3.20947,-5.51159 v 0 l -2.26062,5.57209 -1.46976,-0.85585 3.73038,-4.71624"
       style="fill:none;stroke:#000000;stroke-width:0.3685;stroke-linecap:round;stroke-linejoin:round;stroke-miterlimit:10;stroke-dasharray:none;stroke-opacity:1"
       transform="matrix(1.3333333,0,0,-1.3333333,0,302.36267)" />
    <path
       id="path100"
       d="m 257.80255,56.79842 3.73038,-4.71624 -2.26062,5.57209 z"
       style="fill:#000000;fill-opacity:1;fill-rule:nonzero;stroke:none"
       transform="matrix(1.3333333,0,0,-1.3333333,0,302.36267)" />
    <path
       id="path101"
       d="m 106.81374,125.19331 -16.12632,0.99451 m 5.94147,-0.36641 0.42439,-0.0262 m -6.36586,0.39258 v 0 l 5.88912,-1.21519 0.10469,1.69755 -5.99381,-0.48236"
       style="fill:none;stroke:#000000;stroke-width:0.3685;stroke-linecap:round;stroke-linejoin:round;stroke-miterlimit:10;stroke-dasharray:none;stroke-opacity:1"
       transform="matrix(1.3333333,0,0,-1.3333333,0,302.36267)" />
    <path
       id="path102"
       d="m 96.68123,126.67018 -5.99381,-0.48236 5.88912,-1.21519 z"
       style="fill:#000000;fill-opacity:1;fill-rule:nonzero;stroke:none"
       transform="matrix(1.3333333,0,0,-1.3333333,0,302.36267)" />
    <path
       id="path103"
       d="M 219.0144,38.30074 V 27.92212 m 0,5.95276 v 0.42518 m 0,-6.37794 v 0 l 0.85041,5.95276 h -1.70078 l 0.85037,-5.95276"
       style="fill:none;stroke:#000000;stroke-width:0.3685;stroke-linecap:round;stroke-linejoin:round;stroke-miterlimit:10;stroke-dasharray:none;stroke-opacity:1"
       transform="matrix(1.3333333,0,0,-1.3333333,0,302.36267)" />
    <path
       id="path104"
       d="m 218.16403,33.87488 0.85037,-5.95276 0.85041,5.95276 z"
       style="fill:#000000;fill-opacity:1;fill-rule:nonzero;stroke:none"
       transform="matrix(1.3333333,0,0,-1.3333333,0,302.36267)" />
    <path
       id="path105"
       d="m 163.18826,71.30095 -8.61154,-6.94469 m 4.63373,3.73682 0.33099,0.26692 m -4.96472,-4.00374 v 0 l 5.16757,3.07486 -1.06765,1.32392 -4.09992,-4.39878"
       style="fill:none;stroke:#000000;stroke-width:0.3685;stroke-linecap:round;stroke-linejoin:round;stroke-miterlimit:10;stroke-dasharray:none;stroke-opacity:1"
       transform="matrix(1.3333333,0,0,-1.3333333,0,302.36267)" />
    <path
       id="path106"
       d="m 158.67664,68.75504 -4.09992,-4.39878 5.16757,3.07486 z"
       style="fill:#000000;fill-opacity:1;fill-rule:nonzero;stroke:none"
       transform="matrix(1.3333333,0,0,-1.3333333,0,302.36267)" />
    <path
       id="path107"
       d="m 164.46643,135.11526 -11.16788,4.29542 m 5.55597,-2.13697 0.39685,-0.15262 m -5.95282,2.28959 v 0 l 5.25071,-2.93067 0.61053,1.5874 -5.86124,1.34327"
       style="fill:none;stroke:#000000;stroke-width:0.3685;stroke-linecap:round;stroke-linejoin:round;stroke-miterlimit:10;stroke-dasharray:none;stroke-opacity:1"
       transform="matrix(1.3333333,0,0,-1.3333333,0,302.36267)" />
    <path
       id="path108"
       d="m 159.15979,138.06741 -5.86124,1.34327 5.25071,-2.93067 z"
       style="fill:#000000;fill-opacity:1;fill-rule:nonzero;stroke:none"
       transform="matrix(1.3333333,0,0,-1.3333333,0,302.36267)" />
    <path
       id="path109"
       d="m 106.81374,125.19331 -16.12632,0.99451 m 5.94147,-0.36641 0.42439,-0.0262 m -6.36586,0.39258 v 0 l 5.88912,-1.21519 0.10469,1.69755 -5.99381,-0.48236"
       style="fill:none;stroke:#000000;stroke-width:0.3685;stroke-linecap:round;stroke-linejoin:round;stroke-miterlimit:10;stroke-dasharray:none;stroke-opacity:1"
       transform="matrix(1.3333333,0,0,-1.3333333,0,302.36267)" />
    <path
       id="path110"
       d="m 96.68123,126.67018 -5.99381,-0.48236 5.88912,-1.21519 z"
       style="fill:#000000;fill-opacity:1;fill-rule:nonzero;stroke:none"
       transform="matrix(1.3333333,0,0,-1.3333333,0,302.36267)" />
    <path
       id="path111"
       d="m 238.19711,49.33908 1.72254,-9.31053 m -1.08295,5.85342 -0.0773,0.41811 m 1.16028,-6.27153 v 0 l -0.24674,6.00813 -1.67239,-0.3094 1.91913,-5.69873"
       style="fill:none;stroke:#000000;stroke-width:0.3685;stroke-linecap:round;stroke-linejoin:round;stroke-miterlimit:10;stroke-dasharray:none;stroke-opacity:1"
       transform="matrix(1.3333333,0,0,-1.3333333,0,302.36267)" />
    <path
       id="path112"
       d="m 238.00052,45.72728 1.91913,-5.69873 -0.24674,6.00813 z"
       style="fill:#000000;fill-opacity:1;fill-rule:nonzero;stroke:none"
       transform="matrix(1.3333333,0,0,-1.3333333,0,302.36267)" />
    <path
       id="path113"
       d="m 184.38776,124.09351 -10.92258,3.19412 m 5.71347,-1.67081 0.40808,-0.11934 m -6.12155,1.79015 v 0 l 5.47476,-2.48702 0.47739,1.63242 -5.95215,0.8546"
       style="fill:none;stroke:#000000;stroke-width:0.3685;stroke-linecap:round;stroke-linejoin:round;stroke-miterlimit:10;stroke-dasharray:none;stroke-opacity:1"
       transform="matrix(1.3333333,0,0,-1.3333333,0,302.36267)" />
    <path
       id="path114"
       d="m 179.41733,126.43303 -5.95215,0.8546 5.47476,-2.48702 z"
       style="fill:#000000;fill-opacity:1;fill-rule:nonzero;stroke:none"
       transform="matrix(1.3333333,0,0,-1.3333333,0,302.36267)" />
    <path
       id="path115"
       d="m 144.85281,146.34943 -12.02856,4.97186 m 5.50131,-2.2739 0.39298,-0.16244 m -5.89429,2.43634 v 0 l 5.17648,-3.05982 0.64969,1.57181 -5.82617,1.48801"
       style="fill:none;stroke:#000000;stroke-width:0.3685;stroke-linecap:round;stroke-linejoin:round;stroke-miterlimit:10;stroke-dasharray:none;stroke-opacity:1"
       transform="matrix(1.3333333,0,0,-1.3333333,0,302.36267)" />
    <path
       id="path116"
       d="m 138.65042,149.83328 -5.82617,1.48801 5.17648,-3.05982 z"
       style="fill:#000000;fill-opacity:1;fill-rule:nonzero;stroke:none"
       transform="matrix(1.3333333,0,0,-1.3333333,0,302.36267)" />
    <path
       id="path117"
       d="m 106.81374,103.04305 -16.12632,-0.99451 m 5.94147,0.36641 0.42439,0.0262 m -6.36586,-0.39258 v 0 l 5.99381,-0.48238 -0.10469,1.69756 -5.88912,-1.21518"
       style="fill:none;stroke:#000000;stroke-width:0.3685;stroke-linecap:round;stroke-linejoin:round;stroke-miterlimit:10;stroke-dasharray:none;stroke-opacity:1"
       transform="matrix(1.3333333,0,0,-1.3333333,0,302.36267)" />
    <path
       id="path118"
       d="m 96.57654,103.26372 -5.88912,-1.21518 5.99381,-0.48238 z"
       style="fill:#000000;fill-opacity:1;fill-rule:nonzero;stroke:none"
       transform="matrix(1.3333333,0,0,-1.3333333,0,302.36267)" />
    <path
       id="path119"
       d="m 182.64639,82.62489 -7.43985,-6.44778 m 4.49845,3.89862 0.32132,0.27846 m -4.81977,-4.17708 v 0 l 5.05539,3.25598 -1.11386,1.28526 -3.94153,-4.54124"
       style="fill:none;stroke:#000000;stroke-width:0.3685;stroke-linecap:round;stroke-linejoin:round;stroke-miterlimit:10;stroke-dasharray:none;stroke-opacity:1"
       transform="matrix(1.3333333,0,0,-1.3333333,0,302.36267)" />
    <path
       id="path120"
       d="m 179.14807,80.71835 -3.94153,-4.54124 5.05539,3.25598 z"
       style="fill:#000000;fill-opacity:1;fill-rule:nonzero;stroke:none"
       transform="matrix(1.3333333,0,0,-1.3333333,0,302.36267)" />
    <path
       id="path121"
       d="m 219.0144,105.80206 v -6.51255 m 0,5.95275 v 0.42521 m 0,-6.37796 v 0 l 0.85041,5.95275 h -1.70078 l 0.85037,-5.95275"
       style="fill:none;stroke:#000000;stroke-width:0.3685;stroke-linecap:round;stroke-linejoin:round;stroke-miterlimit:10;stroke-dasharray:none;stroke-opacity:1"
       transform="matrix(1.3333333,0,0,-1.3333333,0,302.36267)" />
    <path
       id="path122"
       d="m 218.16403,105.24226 0.85037,-5.95275 0.85041,5.95275 z"
       style="fill:#000000;fill-opacity:1;fill-rule:nonzero;stroke:none"
       transform="matrix(1.3333333,0,0,-1.3333333,0,302.36267)" />
    <path
       id="path123"
       d="m 274.84055,71.30095 8.61154,-6.94469 m -4.63373,3.73682 -0.33099,0.26692 m 4.96472,-4.00374 v 0 l -4.09989,4.39879 -1.06765,-1.32393 5.16754,-3.07486"
       style="fill:none;stroke:#000000;stroke-width:0.3685;stroke-linecap:round;stroke-linejoin:round;stroke-miterlimit:10;stroke-dasharray:none;stroke-opacity:1"
       transform="matrix(1.3333333,0,0,-1.3333333,0,302.36267)" />
    <path
       id="path124"
       d="m 278.28455,67.43112 5.16754,-3.07486 -4.09989,4.39879 z"
       style="fill:#000000;fill-opacity:1;fill-rule:nonzero;stroke:none"
       transform="matrix(1.3333333,0,0,-1.3333333,0,302.36267)" />
    <path
       id="path125"
       d="m 126.02419,135.85968 -14.45929,2.80658 m 5.8437,-1.13428 0.4174,-0.081 m -6.2611,1.2153 v 0 l 5.68165,-1.96909 0.32408,1.66962 -6.00573,0.29947"
       style="fill:none;stroke:#000000;stroke-width:0.3685;stroke-linecap:round;stroke-linejoin:round;stroke-miterlimit:10;stroke-dasharray:none;stroke-opacity:1"
       transform="matrix(1.3333333,0,0,-1.3333333,0,302.36267)" />
    <path
       id="path126"
       d="m 117.57063,138.36679 -6.00573,0.29947 5.68165,-1.96909 z"
       style="fill:#000000;fill-opacity:1;fill-rule:nonzero;stroke:none"
       transform="matrix(1.3333333,0,0,-1.3333333,0,302.36267)" />
    <path
       id="path127"
       d="m 145.57431,124.74516 -13.47159,1.89083 m 5.89499,-0.82741 0.42105,-0.0591 m -6.31604,0.88651 v 0 l 5.77677,-1.66954 0.23642,1.68426 -6.01319,-0.0147"
       style="fill:none;stroke:#000000;stroke-width:0.3685;stroke-linecap:round;stroke-linejoin:round;stroke-miterlimit:10;stroke-dasharray:none;stroke-opacity:1"
       transform="matrix(1.3333333,0,0,-1.3333333,0,302.36267)" />
    <path
       id="path128"
       d="m 138.11591,126.65071 -6.01319,-0.0147 5.77677,-1.66954 0.23642,1.68426 z"
       style="fill:#000000;fill-opacity:1;fill-rule:nonzero;stroke:none"
       transform="matrix(1.3333333,0,0,-1.3333333,0,302.36267)" />
    <path
       id="path129"
       d="m 198.10916,188.20779 1.72254,-9.31051 m -0.63959,3.45709 0.0774,-0.41809 m -1.16031,6.27151 v 0 l 1.91916,-5.6987 -1.67239,-0.30941 -0.24677,6.00811"
       style="fill:none;stroke:#000000;stroke-width:0.3685;stroke-linecap:round;stroke-linejoin:round;stroke-miterlimit:10;stroke-dasharray:none;stroke-opacity:1"
       transform="matrix(1.3333333,0,0,-1.3333333,0,302.36267)" />
    <path
       id="path130"
       d="m 198.35593,182.19968 1.67239,0.30941 -1.91916,5.6987 z"
       style="fill:#000000;fill-opacity:1;fill-rule:nonzero;stroke:none"
       transform="matrix(1.3333333,0,0,-1.3333333,0,302.36267)" />
    <path
       id="path131"
       d="m 241.82455,140.41605 -5.53234,-6.30616 m 1.60662,1.83133 -0.28042,-0.31961 m 4.20614,4.79444 v 0 l -3.28646,-5.03562 -1.27851,1.12161 4.56497,3.91401"
       style="fill:none;stroke:#000000;stroke-width:0.3685;stroke-linecap:round;stroke-linejoin:round;stroke-miterlimit:10;stroke-dasharray:none;stroke-opacity:1"
       transform="matrix(1.3333333,0,0,-1.3333333,0,302.36267)" />
    <path
       id="path132"
       d="m 237.25958,136.50204 1.27851,-1.12161 3.28646,5.03562 z"
       style="fill:#000000;fill-opacity:1;fill-rule:nonzero;stroke:none"
       transform="matrix(1.3333333,0,0,-1.3333333,0,302.36267)" />
    <path
       id="path133"
       d="m 196.20425,140.41605 5.53238,-6.30616 m -1.60666,1.83133 0.28043,-0.31961 m -4.20615,4.79444 v 0 l 4.56501,-3.91401 -1.27854,-1.12161 -3.28647,5.03562"
       style="fill:none;stroke:#000000;stroke-width:0.3685;stroke-linecap:round;stroke-linejoin:round;stroke-miterlimit:10;stroke-dasharray:none;stroke-opacity:1"
       transform="matrix(1.3333333,0,0,-1.3333333,0,302.36267)" />
    <path
       id="path134"
       d="m 199.49072,135.38043 1.27854,1.12161 -4.56501,3.91401 z"
       style="fill:#000000;fill-opacity:1;fill-rule:nonzero;stroke:none"
       transform="matrix(1.3333333,0,0,-1.3333333,0,302.36267)" />
    <path
       id="path135"
       d="m 219.0144,152.54321 v -7.41571 m 0,1.46295 v -0.4252 m 0,6.37796 v 0 l 0.85041,-5.95276 h -1.70078 l 0.85037,5.95276"
       style="fill:none;stroke:#000000;stroke-width:0.3685;stroke-linecap:round;stroke-linejoin:round;stroke-miterlimit:10;stroke-dasharray:none;stroke-opacity:1"
       transform="matrix(1.3333333,0,0,-1.3333333,0,302.36267)" />
    <path
       id="path136"
       d="m 218.16403,146.59045 h 1.70078 l -0.85041,5.95276 z"
       style="fill:#000000;fill-opacity:1;fill-rule:nonzero;stroke:none"
       transform="matrix(1.3333333,0,0,-1.3333333,0,302.36267)" />
    <path
       id="path137"
       d="m 262.82227,152.05923 -7.43985,-6.44775 m 2.9414,2.54916 -0.32132,-0.27847 m 4.81977,4.17706 v 0 l -3.94153,-4.54122 -1.11386,1.28524 5.05539,3.25598"
       style="fill:none;stroke:#000000;stroke-width:0.3685;stroke-linecap:round;stroke-linejoin:round;stroke-miterlimit:10;stroke-dasharray:none;stroke-opacity:1"
       transform="matrix(1.3333333,0,0,-1.3333333,0,302.36267)" />
    <path
       id="path138"
       d="m 257.76688,148.80325 1.11386,-1.28524 3.94153,4.54122 z"
       style="fill:#000000;fill-opacity:1;fill-rule:nonzero;stroke:none"
       transform="matrix(1.3333333,0,0,-1.3333333,0,302.36267)" />
    <path
       id="path139"
       d="m 197.33295,164.29666 3.27499,-7.77783 m -0.9649,2.29159 0.16497,-0.39187 m -2.47506,5.87811 v 0 l 3.09381,-5.15622 -1.56748,-0.66003 -1.52633,5.81625"
       style="fill:none;stroke:#000000;stroke-width:0.3685;stroke-linecap:round;stroke-linejoin:round;stroke-miterlimit:10;stroke-dasharray:none;stroke-opacity:1"
       transform="matrix(1.3333333,0,0,-1.3333333,0,302.36267)" />
    <path
       id="path140"
       d="m 198.85928,158.48041 1.56748,0.66003 -3.09381,5.15622 z"
       style="fill:#000000;fill-opacity:1;fill-rule:nonzero;stroke:none"
       transform="matrix(1.3333333,0,0,-1.3333333,0,302.36267)" />
    <path
       id="path141"
       d="m 283.45209,163.8801 -8.61154,-6.94471 m 3.97781,3.20789 -0.33099,-0.26691 m 4.96472,4.00373 v 0 l -4.09989,-4.39878 -1.06765,1.32392 5.16754,3.07486"
       style="fill:none;stroke:#000000;stroke-width:0.3685;stroke-linecap:round;stroke-linejoin:round;stroke-miterlimit:10;stroke-dasharray:none;stroke-opacity:1"
       transform="matrix(1.3333333,0,0,-1.3333333,0,302.36267)" />
    <path
       id="path142"
       d="m 278.28455,160.80524 1.06765,-1.32392 4.09989,4.39878 z"
       style="fill:#000000;fill-opacity:1;fill-rule:nonzero;stroke:none"
       transform="matrix(1.3333333,0,0,-1.3333333,0,302.36267)" />
    <path
       id="path143"
       d="m 196.20425,140.41605 5.53238,-6.30616 m -1.60666,1.83133 0.28043,-0.31961 m -4.20615,4.79444 v 0 l 4.56501,-3.91401 -1.27854,-1.12161 -3.28647,5.03562"
       style="fill:none;stroke:#000000;stroke-width:0.3685;stroke-linecap:round;stroke-linejoin:round;stroke-miterlimit:10;stroke-dasharray:none;stroke-opacity:1"
       transform="matrix(1.3333333,0,0,-1.3333333,0,302.36267)" />
    <path
       id="path144"
       d="m 199.49072,135.38043 1.27854,1.12161 -4.56501,3.91401 z"
       style="fill:#000000;fill-opacity:1;fill-rule:nonzero;stroke:none"
       transform="matrix(1.3333333,0,0,-1.3333333,0,302.36267)" />
    <path
       id="path145"
       d="m 219.0144,200.31424 v -10.37863 m 0,4.42587 v -0.4252 m 0,6.37796 v 0 l 0.85041,-5.95276 h -1.70078 l 0.85037,5.95276"
       style="fill:none;stroke:#000000;stroke-width:0.3685;stroke-linecap:round;stroke-linejoin:round;stroke-miterlimit:10;stroke-dasharray:none;stroke-opacity:1"
       transform="matrix(1.3333333,0,0,-1.3333333,0,302.36267)" />
    <path
       id="path146"
       d="m 218.16403,194.36148 h 1.70078 l -0.85041,5.95276 z"
       style="fill:#000000;fill-opacity:1;fill-rule:nonzero;stroke:none"
       transform="matrix(1.3333333,0,0,-1.3333333,0,302.36267)" />
    <path
       id="path147"
       d="m 239.91965,188.20779 -1.72254,-9.31051 m 0.63959,3.45709 -0.0773,-0.41809 m 1.16028,6.27151 v 0 l -0.24674,-6.00811 -1.67239,0.30941 1.91913,5.6987"
       style="fill:none;stroke:#000000;stroke-width:0.3685;stroke-linecap:round;stroke-linejoin:round;stroke-miterlimit:10;stroke-dasharray:none;stroke-opacity:1"
       transform="matrix(1.3333333,0,0,-1.3333333,0,302.36267)" />
    <path
       id="path148"
       d="m 238.00052,182.50909 1.67239,-0.30941 0.24674,6.00811 z"
       style="fill:#000000;fill-opacity:1;fill-rule:nonzero;stroke:none"
       transform="matrix(1.3333333,0,0,-1.3333333,0,302.36267)" />
    <path
       id="path149"
       d="m 261.53293,176.15417 -4.86118,-8.34808 m 1.8657,3.20392 -0.21399,-0.36743 m 3.20947,5.51159 v 0 l -2.26062,-5.57208 -1.46976,0.85587 3.73038,4.71621"
       style="fill:none;stroke:#000000;stroke-width:0.3685;stroke-linecap:round;stroke-linejoin:round;stroke-miterlimit:10;stroke-dasharray:none;stroke-opacity:1"
       transform="matrix(1.3333333,0,0,-1.3333333,0,302.36267)" />
    <path
       id="path150"
       d="m 257.80255,171.43796 1.46976,-0.85587 2.26062,5.57208 z"
       style="fill:#000000;fill-opacity:1;fill-rule:nonzero;stroke:none"
       transform="matrix(1.3333333,0,0,-1.3333333,0,302.36267)" />
    <path
       id="path151"
       d="m 219.0144,176.24048 v -8.52066 m 0,2.5679 v -0.4252 m 0,6.37796 v 0 l 0.85041,-5.95276 h -1.70078 l 0.85037,5.95276"
       style="fill:none;stroke:#000000;stroke-width:0.3685;stroke-linecap:round;stroke-linejoin:round;stroke-miterlimit:10;stroke-dasharray:none;stroke-opacity:1"
       transform="matrix(1.3333333,0,0,-1.3333333,0,302.36267)" />
    <path
       id="path152"
       d="m 218.16403,170.28772 h 1.70078 l -0.85041,5.95276 z"
       style="fill:#000000;fill-opacity:1;fill-rule:nonzero;stroke:none"
       transform="matrix(1.3333333,0,0,-1.3333333,0,302.36267)" />
    <path
       id="path153"
       d="m 219.0144,152.54321 v -7.41571 m 0,1.46295 v -0.4252 m 0,6.37796 v 0 l 0.85041,-5.95276 h -1.70078 l 0.85037,5.95276"
       style="fill:none;stroke:#000000;stroke-width:0.3685;stroke-linecap:round;stroke-linejoin:round;stroke-miterlimit:10;stroke-dasharray:none;stroke-opacity:1"
       transform="matrix(1.3333333,0,0,-1.3333333,0,302.36267)" />
    <path
       id="path154"
       d="m 218.16403,146.59045 h 1.70078 l -0.85041,5.95276 z"
       style="fill:#000000;fill-opacity:1;fill-rule:nonzero;stroke:none"
       transform="matrix(1.3333333,0,0,-1.3333333,0,302.36267)" />
    <path
       id="path155"
       d="m 219.0144,200.31424 v -10.37863 m 0,4.42587 v -0.4252 m 0,6.37796 v 0 l 0.85041,-5.95276 h -1.70078 l 0.85037,5.95276"
       style="fill:none;stroke:#000000;stroke-width:0.3685;stroke-linecap:round;stroke-linejoin:round;stroke-miterlimit:10;stroke-dasharray:none;stroke-opacity:1"
       transform="matrix(1.3333333,0,0,-1.3333333,0,302.36267)" />
    <path
       id="path156"
       d="m 218.16403,194.36148 h 1.70078 l -0.85041,5.95276 z"
       style="fill:#000000;fill-opacity:1;fill-rule:nonzero;stroke:none"
       transform="matrix(1.3333333,0,0,-1.3333333,0,302.36267)" />
    <path
       id="path157"
       d="m 219.0144,176.24048 v -8.52066 m 0,2.5679 v -0.4252 m 0,6.37796 v 0 l 0.85041,-5.95276 h -1.70078 l 0.85037,5.95276"
       style="fill:none;stroke:#000000;stroke-width:0.3685;stroke-linecap:round;stroke-linejoin:round;stroke-miterlimit:10;stroke-dasharray:none;stroke-opacity:1"
       transform="matrix(1.3333333,0,0,-1.3333333,0,302.36267)" />
    <path
       id="path158"
       d="m 218.16403,170.28772 h 1.70078 l -0.85041,5.95276 z"
       style="fill:#000000;fill-opacity:1;fill-rule:nonzero;stroke:none"
       transform="matrix(1.3333333,0,0,-1.3333333,0,302.36267)" />
    <path
       id="path159"
       d="m 240.69589,164.29666 -3.27502,-7.77783 m 0.96493,2.29159 -0.16501,-0.39187 m 2.4751,5.87811 v 0 l -1.52633,-5.81625 -1.56751,0.66003 3.09384,5.15622"
       style="fill:none;stroke:#000000;stroke-width:0.3685;stroke-linecap:round;stroke-linejoin:round;stroke-miterlimit:10;stroke-dasharray:none;stroke-opacity:1"
       transform="matrix(1.3333333,0,0,-1.3333333,0,302.36267)" />
    <path
       id="path160"
       d="m 237.60205,159.14044 1.56751,-0.66003 1.52633,5.81625 z"
       style="fill:#000000;fill-opacity:1;fill-rule:nonzero;stroke:none"
       transform="matrix(1.3333333,0,0,-1.3333333,0,302.36267)" />
    <path
       id="path161"
       d="m 241.82455,140.41605 -5.53234,-6.30616 m 1.60662,1.83133 -0.28042,-0.31961 m 4.20614,4.79444 v 0 l -3.28646,-5.03562 -1.27851,1.12161 4.56497,3.91401"
       style="fill:none;stroke:#000000;stroke-width:0.3685;stroke-linecap:round;stroke-linejoin:round;stroke-miterlimit:10;stroke-dasharray:none;stroke-opacity:1"
       transform="matrix(1.3333333,0,0,-1.3333333,0,302.36267)" />
    <path
       id="path162"
       d="m 237.25958,136.50204 1.27851,-1.12161 3.28646,5.03562 z"
       style="fill:#000000;fill-opacity:1;fill-rule:nonzero;stroke:none"
       transform="matrix(1.3333333,0,0,-1.3333333,0,302.36267)" />
    <path
       id="path163"
       d="m 219.0144,128.94684 v -6.51254 m 0,0.55979 v -0.4252 m 0,6.37795 v 0 l 0.85041,-5.95275 h -1.70078 l 0.85037,5.95275"
       style="fill:none;stroke:#000000;stroke-width:0.3685;stroke-linecap:round;stroke-linejoin:round;stroke-miterlimit:10;stroke-dasharray:none;stroke-opacity:1"
       transform="matrix(1.3333333,0,0,-1.3333333,0,302.36267)" />
    <path
       id="path164"
       d="m 218.16403,122.99409 h 1.70078 l -0.85041,5.95275 z"
       style="fill:#000000;fill-opacity:1;fill-rule:nonzero;stroke:none"
       transform="matrix(1.3333333,0,0,-1.3333333,0,302.36267)" />
    <path
       id="path165"
       d="m 240.69589,164.29666 -3.27502,-7.77783 m 0.96493,2.29159 -0.16501,-0.39187 m 2.4751,5.87811 v 0 l -1.52633,-5.81625 -1.56751,0.66003 3.09384,5.15622"
       style="fill:none;stroke:#000000;stroke-width:0.3685;stroke-linecap:round;stroke-linejoin:round;stroke-miterlimit:10;stroke-dasharray:none;stroke-opacity:1"
       transform="matrix(1.3333333,0,0,-1.3333333,0,302.36267)" />
    <path
       id="path166"
       d="m 237.60205,159.14044 1.56751,-0.66003 1.52633,5.81625 z"
       style="fill:#000000;fill-opacity:1;fill-rule:nonzero;stroke:none"
       transform="matrix(1.3333333,0,0,-1.3333333,0,302.36267)" />
    <path
       id="path167"
       d="m 198.10916,188.20779 1.72254,-9.31051 m -0.63959,3.45709 0.0774,-0.41809 m -1.16031,6.27151 v 0 l 1.91916,-5.6987 -1.67239,-0.30941 -0.24677,6.00811"
       style="fill:none;stroke:#000000;stroke-width:0.3685;stroke-linecap:round;stroke-linejoin:round;stroke-miterlimit:10;stroke-dasharray:none;stroke-opacity:1"
       transform="matrix(1.3333333,0,0,-1.3333333,0,302.36267)" />
    <path
       id="path168"
       d="m 198.35593,182.19968 1.67239,0.30941 -1.91916,5.6987 z"
       style="fill:#000000;fill-opacity:1;fill-rule:nonzero;stroke:none"
       transform="matrix(1.3333333,0,0,-1.3333333,0,302.36267)" />
    <path
       id="path169"
       d="m 197.33295,164.29666 3.27499,-7.77783 m -0.9649,2.29159 0.16497,-0.39187 m -2.47506,5.87811 v 0 l 3.09381,-5.15622 -1.56748,-0.66003 -1.52633,5.81625"
       style="fill:none;stroke:#000000;stroke-width:0.3685;stroke-linecap:round;stroke-linejoin:round;stroke-miterlimit:10;stroke-dasharray:none;stroke-opacity:1"
       transform="matrix(1.3333333,0,0,-1.3333333,0,302.36267)" />
    <path
       id="path170"
       d="m 198.85928,158.48041 1.56748,0.66003 -3.09381,5.15622 z"
       style="fill:#000000;fill-opacity:1;fill-rule:nonzero;stroke:none"
       transform="matrix(1.3333333,0,0,-1.3333333,0,302.36267)" />
    <path
       id="path171"
       d="m 239.91965,188.20779 -1.72254,-9.31051 m 0.63959,3.45709 -0.0773,-0.41809 m 1.16028,6.27151 v 0 l -0.24674,-6.00811 -1.67239,0.30941 1.91913,5.6987"
       style="fill:none;stroke:#000000;stroke-width:0.3685;stroke-linecap:round;stroke-linejoin:round;stroke-miterlimit:10;stroke-dasharray:none;stroke-opacity:1"
       transform="matrix(1.3333333,0,0,-1.3333333,0,302.36267)" />
    <path
       id="path172"
       d="m 238.00052,182.50909 1.67239,-0.30941 0.24674,6.00811 z"
       style="fill:#000000;fill-opacity:1;fill-rule:nonzero;stroke:none"
       transform="matrix(1.3333333,0,0,-1.3333333,0,302.36267)" />
    <path
       id="path173"
       d="m 219.0144,128.94684 v -6.51254 m 0,0.55979 v -0.4252 m 0,6.37795 v 0 l 0.85041,-5.95275 h -1.70078 l 0.85037,5.95275"
       style="fill:none;stroke:#000000;stroke-width:0.3685;stroke-linecap:round;stroke-linejoin:round;stroke-miterlimit:10;stroke-dasharray:none;stroke-opacity:1"
       transform="matrix(1.3333333,0,0,-1.3333333,0,302.36267)" />
    <path
       id="path174"
       d="m 218.16403,122.99409 h 1.70078 l -0.85041,5.95275 z"
       style="fill:#000000;fill-opacity:1;fill-rule:nonzero;stroke:none"
       transform="matrix(1.3333333,0,0,-1.3333333,0,302.36267)" />
    <path
       id="path175"
       d="m 176.49588,176.15417 4.86118,-8.34808 m -1.8657,3.20392 0.21396,-0.36743 m -3.20944,5.51159 v 0 l 3.73038,-4.71621 -1.46976,-0.85587 -2.26062,5.57208"
       style="fill:none;stroke:#000000;stroke-width:0.3685;stroke-linecap:round;stroke-linejoin:round;stroke-miterlimit:10;stroke-dasharray:none;stroke-opacity:1"
       transform="matrix(1.3333333,0,0,-1.3333333,0,302.36267)" />
    <path
       id="path176"
       d="m 178.7565,170.58209 1.46976,0.85587 -3.73038,4.71621 z"
       style="fill:#000000;fill-opacity:1;fill-rule:nonzero;stroke:none"
       transform="matrix(1.3333333,0,0,-1.3333333,0,302.36267)" />
    <path
       id="path177"
       d="m 154.57672,163.8801 8.61154,-6.94471 m -3.97781,3.20789 0.33099,-0.26691 m -4.96472,4.00373 v 0 l 5.16757,-3.07486 -1.06765,-1.32392 -4.09992,4.39878"
       style="fill:none;stroke:#000000;stroke-width:0.3685;stroke-linecap:round;stroke-linejoin:round;stroke-miterlimit:10;stroke-dasharray:none;stroke-opacity:1"
       transform="matrix(1.3333333,0,0,-1.3333333,0,302.36267)" />
    <path
       id="path178"
       d="m 158.67664,159.48132 1.06765,1.32392 -5.16757,3.07486 z"
       style="fill:#000000;fill-opacity:1;fill-rule:nonzero;stroke:none"
       transform="matrix(1.3333333,0,0,-1.3333333,0,302.36267)" />
    <path
       id="path179"
       d="m 175.20654,152.05923 7.43985,-6.44775 m -2.9414,2.54916 0.32132,-0.27847 m -4.81977,4.17706 v 0 l 5.05539,-3.25595 -1.11386,-1.28527 -3.94153,4.54122"
       style="fill:none;stroke:#000000;stroke-width:0.3685;stroke-linecap:round;stroke-linejoin:round;stroke-miterlimit:10;stroke-dasharray:none;stroke-opacity:1"
       transform="matrix(1.3333333,0,0,-1.3333333,0,302.36267)" />
    <path
       id="path180"
       d="m 179.14807,147.51801 1.11386,1.28527 -5.05539,3.25595 z"
       style="fill:#000000;fill-opacity:1;fill-rule:nonzero;stroke:none"
       transform="matrix(1.3333333,0,0,-1.3333333,0,302.36267)" />
    <path
       id="path181"
       d="m 176.49588,176.15417 4.86118,-8.34808 m -1.8657,3.20392 0.21396,-0.36743 m -3.20944,5.51159 v 0 l 3.73038,-4.71621 -1.46976,-0.85587 -2.26062,5.57208"
       style="fill:none;stroke:#000000;stroke-width:0.3685;stroke-linecap:round;stroke-linejoin:round;stroke-miterlimit:10;stroke-dasharray:none;stroke-opacity:1"
       transform="matrix(1.3333333,0,0,-1.3333333,0,302.36267)" />
    <path
       id="path182"
       d="m 178.7565,170.58209 1.46976,0.85587 -3.73038,4.71621 z"
       style="fill:#000000;fill-opacity:1;fill-rule:nonzero;stroke:none"
       transform="matrix(1.3333333,0,0,-1.3333333,0,302.36267)" />
    <path
       id="path183"
       d="m 175.20654,152.05923 7.43985,-6.44775 m -2.9414,2.54916 0.32132,-0.27847 m -4.81977,4.17706 v 0 l 5.05539,-3.25595 -1.11386,-1.28527 -3.94153,4.54122"
       style="fill:none;stroke:#000000;stroke-width:0.3685;stroke-linecap:round;stroke-linejoin:round;stroke-miterlimit:10;stroke-dasharray:none;stroke-opacity:1"
       transform="matrix(1.3333333,0,0,-1.3333333,0,302.36267)" />
    <path
       id="path184"
       d="m 179.14807,147.51801 1.11386,1.28527 -5.05539,3.25595 z"
       style="fill:#000000;fill-opacity:1;fill-rule:nonzero;stroke:none"
       transform="matrix(1.3333333,0,0,-1.3333333,0,302.36267)" />
    <path
       id="path185"
       d="m 154.57672,163.8801 8.61154,-6.94471 m -3.97781,3.20789 0.33099,-0.26691 m -4.96472,4.00373 v 0 l 5.16757,-3.07486 -1.06765,-1.32392 -4.09992,4.39878"
       style="fill:none;stroke:#000000;stroke-width:0.3685;stroke-linecap:round;stroke-linejoin:round;stroke-miterlimit:10;stroke-dasharray:none;stroke-opacity:1"
       transform="matrix(1.3333333,0,0,-1.3333333,0,302.36267)" />
    <path
       id="path186"
       d="m 158.67664,159.48132 1.06765,1.32392 -5.16757,3.07486 z"
       style="fill:#000000;fill-opacity:1;fill-rule:nonzero;stroke:none"
       transform="matrix(1.3333333,0,0,-1.3333333,0,302.36267)" />
    <path
       id="path187"
       d="m 284.73026,139.41068 -11.16788,-4.29542 m 5.61191,2.15845 -0.39685,-0.15262 m 5.95282,2.28959 v 0 l -5.25071,-2.93067 -0.61053,1.5874 5.86124,1.34327"
       style="fill:none;stroke:#000000;stroke-width:0.3685;stroke-linecap:round;stroke-linejoin:round;stroke-miterlimit:10;stroke-dasharray:none;stroke-opacity:1"
       transform="matrix(1.3333333,0,0,-1.3333333,0,302.36267)" />
    <path
       id="path188"
       d="m 278.86902,138.06741 0.61053,-1.5874 5.25071,2.93067 z"
       style="fill:#000000;fill-opacity:1;fill-rule:nonzero;stroke:none"
       transform="matrix(1.3333333,0,0,-1.3333333,0,302.36267)" />
    <path
       id="path189"
       d="m 284.73026,88.8257 -11.16788,4.29539 m 5.61191,-2.15846 -0.39685,0.15265 m 5.95282,-2.28958 v 0 l -5.86124,1.34323 0.61053,1.5874 5.25071,-2.93063"
       style="fill:none;stroke:#000000;stroke-width:0.3685;stroke-linecap:round;stroke-linejoin:round;stroke-miterlimit:10;stroke-dasharray:none;stroke-opacity:1"
       transform="matrix(1.3333333,0,0,-1.3333333,0,302.36267)" />
    <path
       id="path190"
       d="m 279.47955,91.75633 -0.61053,-1.5874 5.86124,-1.34323 z"
       style="fill:#000000;fill-opacity:1;fill-rule:nonzero;stroke:none"
       transform="matrix(1.3333333,0,0,-1.3333333,0,302.36267)" />
    <path
       id="path191"
       d="m 284.73026,88.8257 -11.16788,4.29539 m 5.61191,-2.15846 -0.39685,0.15265 m 5.95282,-2.28958 v 0 l -5.86124,1.34323 0.61053,1.5874 5.25071,-2.93063"
       style="fill:none;stroke:#000000;stroke-width:0.3685;stroke-linecap:round;stroke-linejoin:round;stroke-miterlimit:10;stroke-dasharray:none;stroke-opacity:1"
       transform="matrix(1.3333333,0,0,-1.3333333,0,302.36267)" />
    <path
       id="path192"
       d="m 279.47955,91.75633 -0.61053,-1.5874 5.86124,-1.34323 z"
       style="fill:#000000;fill-opacity:1;fill-rule:nonzero;stroke:none"
       transform="matrix(1.3333333,0,0,-1.3333333,0,302.36267)" />
    <path
       id="path193"
       d="m 305.92609,101.60037 -13.47159,1.89083 m 7.5766,-1.06344 -0.42105,0.0591 m 6.31604,-0.88649 v 0 l -6.01319,-0.0147 0.23642,1.68427 5.77677,-1.66953"
       style="fill:none;stroke:#000000;stroke-width:0.3685;stroke-linecap:round;stroke-linejoin:round;stroke-miterlimit:10;stroke-dasharray:none;stroke-opacity:1"
       transform="matrix(1.3333333,0,0,-1.3333333,0,302.36267)" />
    <path
       id="path194"
       d="m 300.14932,103.2699 -0.23642,-1.68427 6.01319,0.0147 -5.77677,1.66953 z"
       style="fill:#000000;fill-opacity:1;fill-rule:nonzero;stroke:none"
       transform="matrix(1.3333333,0,0,-1.3333333,0,302.36267)" />
    <path
       id="path195"
       d="m 305.92609,126.63599 -13.47159,-1.89083 m 7.5766,1.06342 -0.42105,-0.0591 m 6.31604,0.88651 v 0 l -5.77677,-1.66954 -0.23642,1.68426 6.01319,-0.0147"
       style="fill:none;stroke:#000000;stroke-width:0.3685;stroke-linecap:round;stroke-linejoin:round;stroke-miterlimit:10;stroke-dasharray:none;stroke-opacity:1"
       transform="matrix(1.3333333,0,0,-1.3333333,0,302.36267)" />
    <path
       id="path196"
       d="m 299.9129,126.65071 0.23642,-1.68426 5.77677,1.66954 -6.01319,0.0147 z"
       style="fill:#000000;fill-opacity:1;fill-rule:nonzero;stroke:none"
       transform="matrix(1.3333333,0,0,-1.3333333,0,302.36267)" />
    <path
       id="path197"
       d="m 285.56851,114.11818 h -12.84439 m 6.89163,0 h -0.4252 m 6.37796,0 v 0 l -5.95276,-0.8504 v 1.70079 l 5.95276,-0.85039"
       style="fill:none;stroke:#000000;stroke-width:0.3685;stroke-linecap:round;stroke-linejoin:round;stroke-miterlimit:10;stroke-dasharray:none;stroke-opacity:1"
       transform="matrix(1.3333333,0,0,-1.3333333,0,302.36267)" />
    <path
       id="path198"
       d="m 279.61575,114.96857 v -1.70079 l 5.95276,0.8504 z"
       style="fill:#000000;fill-opacity:1;fill-rule:nonzero;stroke:none"
       transform="matrix(1.3333333,0,0,-1.3333333,0,302.36267)" />
    <path
       id="path199"
       d="m 305.20456,76.91505 -12.02857,4.9719 m 6.52726,-2.69797 -0.39298,0.16241 m 5.89429,-2.43634 v 0 l -5.82617,1.48803 0.64969,1.57179 5.17648,-3.05982"
       style="fill:none;stroke:#000000;stroke-width:0.3685;stroke-linecap:round;stroke-linejoin:round;stroke-miterlimit:10;stroke-dasharray:none;stroke-opacity:1"
       transform="matrix(1.3333333,0,0,-1.3333333,0,302.36267)" />
    <path
       id="path200"
       d="m 300.02808,79.97487 -0.64969,-1.57179 5.82617,-1.48803 z"
       style="fill:#000000;fill-opacity:1;fill-rule:nonzero;stroke:none"
       transform="matrix(1.3333333,0,0,-1.3333333,0,302.36267)" />
    <path
       id="path201"
       d="m 326.4639,138.66626 -14.45929,-2.80658 m 8.6156,1.6723 -0.41742,-0.081 m 6.26111,1.2153 v 0 l -5.68164,-1.96909 -0.3241,1.66962 6.00574,0.29947"
       style="fill:none;stroke:#000000;stroke-width:0.3685;stroke-linecap:round;stroke-linejoin:round;stroke-miterlimit:10;stroke-dasharray:none;stroke-opacity:1"
       transform="matrix(1.3333333,0,0,-1.3333333,0,302.36267)" />
    <path
       id="path202"
       d="m 320.45816,138.36679 0.3241,-1.66962 5.68164,1.96909 z"
       style="fill:#000000;fill-opacity:1;fill-rule:nonzero;stroke:none"
       transform="matrix(1.3333333,0,0,-1.3333333,0,302.36267)" />
    <path
       id="path203"
       d="m 368.31036,114.11818 h -17.97631 m 12.02355,0 h -0.4252 m 6.37796,0 v 0 l -5.95276,-0.8504 v 1.70079 l 5.95276,-0.85039"
       style="fill:none;stroke:#000000;stroke-width:0.3685;stroke-linecap:round;stroke-linejoin:round;stroke-miterlimit:10;stroke-dasharray:none;stroke-opacity:1"
       transform="matrix(1.3333333,0,0,-1.3333333,0,302.36267)" />
    <path
       id="path204"
       d="m 362.3576,114.96857 v -1.70079 l 5.95276,0.8504 z"
       style="fill:#000000;fill-opacity:1;fill-rule:nonzero;stroke:none"
       transform="matrix(1.3333333,0,0,-1.3333333,0,302.36267)" />
    <path
       id="path205"
       d="m 305.20456,151.32129 -12.02857,-4.97186 m 6.52726,2.69796 -0.39298,-0.16244 m 5.89429,2.43634 v 0 l -5.17648,-3.05982 -0.64969,1.57181 5.82617,1.48801"
       style="fill:none;stroke:#000000;stroke-width:0.3685;stroke-linecap:round;stroke-linejoin:round;stroke-miterlimit:10;stroke-dasharray:none;stroke-opacity:1"
       transform="matrix(1.3333333,0,0,-1.3333333,0,302.36267)" />
    <path
       id="path206"
       d="m 299.37839,149.83328 0.64969,-1.57181 5.17648,3.05982 z"
       style="fill:#000000;fill-opacity:1;fill-rule:nonzero;stroke:none"
       transform="matrix(1.3333333,0,0,-1.3333333,0,302.36267)" />
    <path
       id="path207"
       d="m 347.3414,102.04854 -16.12634,0.99451 m 10.18484,-0.6281 -0.42438,0.0262 m 6.36588,-0.39258 v 0 l -5.99384,-0.48238 0.10471,1.69756 5.88913,-1.21518"
       style="fill:none;stroke:#000000;stroke-width:0.3685;stroke-linecap:round;stroke-linejoin:round;stroke-miterlimit:10;stroke-dasharray:none;stroke-opacity:1"
       transform="matrix(1.3333333,0,0,-1.3333333,0,302.36267)" />
    <path
       id="path208"
       d="m 341.45227,103.26372 -0.10471,-1.69756 5.99384,0.48238 z"
       style="fill:#000000;fill-opacity:1;fill-rule:nonzero;stroke:none"
       transform="matrix(1.3333333,0,0,-1.3333333,0,302.36267)" />
    <path
       id="path209"
       d="m 326.4639,89.5701 -14.45929,2.80659 m 8.6156,-1.67231 -0.41742,0.08102 m 6.26111,-1.2153 v 0 l -6.00574,0.29947 0.3241,1.66961 5.68164,-1.96908"
       style="fill:none;stroke:#000000;stroke-width:0.3685;stroke-linecap:round;stroke-linejoin:round;stroke-miterlimit:10;stroke-dasharray:none;stroke-opacity:1"
       transform="matrix(1.3333333,0,0,-1.3333333,0,302.36267)" />
    <path
       id="path210"
       d="m 320.78226,91.53918 -0.3241,-1.66961 6.00574,-0.29947 z"
       style="fill:#000000;fill-opacity:1;fill-rule:nonzero;stroke:none"
       transform="matrix(1.3333333,0,0,-1.3333333,0,302.36267)" />
    <path
       id="path211"
       d="m 347.3414,126.18782 -16.12634,-0.99451 m 10.18484,0.6281 -0.42438,-0.0262 m 6.36588,0.39258 v 0 l -5.88913,-1.21519 -0.10471,1.69755 5.99384,-0.48236"
       style="fill:none;stroke:#000000;stroke-width:0.3685;stroke-linecap:round;stroke-linejoin:round;stroke-miterlimit:10;stroke-dasharray:none;stroke-opacity:1"
       transform="matrix(1.3333333,0,0,-1.3333333,0,302.36267)" />
    <path
       id="path212"
       d="m 341.34756,126.67018 0.10471,-1.69755 5.88913,1.21519 z"
       style="fill:#000000;fill-opacity:1;fill-rule:nonzero;stroke:none"
       transform="matrix(1.3333333,0,0,-1.3333333,0,302.36267)" />
    <path
       id="path213"
       d="m 305.20456,151.32129 -12.02857,-4.97186 m 6.52726,2.69796 -0.39298,-0.16244 m 5.89429,2.43634 v 0 l -5.17648,-3.05982 -0.64969,1.57181 5.82617,1.48801"
       style="fill:none;stroke:#000000;stroke-width:0.3685;stroke-linecap:round;stroke-linejoin:round;stroke-miterlimit:10;stroke-dasharray:none;stroke-opacity:1"
       transform="matrix(1.3333333,0,0,-1.3333333,0,302.36267)" />
    <path
       id="path214"
       d="m 299.37839,149.83328 0.64969,-1.57181 5.17648,3.05982 z"
       style="fill:#000000;fill-opacity:1;fill-rule:nonzero;stroke:none"
       transform="matrix(1.3333333,0,0,-1.3333333,0,302.36267)" />
    <path
       id="path215"
       d="m 326.61337,114.11818 h -14.75824 m 8.80548,0 h -0.4252 m 6.37796,0 v 0 l -5.95276,-0.8504 v 1.70079 l 5.95276,-0.85039"
       style="fill:none;stroke:#000000;stroke-width:0.3685;stroke-linecap:round;stroke-linejoin:round;stroke-miterlimit:10;stroke-dasharray:none;stroke-opacity:1"
       transform="matrix(1.3333333,0,0,-1.3333333,0,302.36267)" />
    <path
       id="path216"
       d="m 320.66061,114.96857 v -1.70079 l 5.95276,0.8504 z"
       style="fill:#000000;fill-opacity:1;fill-rule:nonzero;stroke:none"
       transform="matrix(1.3333333,0,0,-1.3333333,0,302.36267)" />
    <path
       id="path217"
       d="m 326.4639,89.5701 -14.45929,2.80659 m 8.6156,-1.67231 -0.41742,0.08102 m 6.26111,-1.2153 v 0 l -6.00574,0.29947 0.3241,1.66961 5.68164,-1.96908"
       style="fill:none;stroke:#000000;stroke-width:0.3685;stroke-linecap:round;stroke-linejoin:round;stroke-miterlimit:10;stroke-dasharray:none;stroke-opacity:1"
       transform="matrix(1.3333333,0,0,-1.3333333,0,302.36267)" />
    <path
       id="path218"
       d="m 320.78226,91.53918 -0.3241,-1.66961 6.00574,-0.29947 z"
       style="fill:#000000;fill-opacity:1;fill-rule:nonzero;stroke:none"
       transform="matrix(1.3333333,0,0,-1.3333333,0,302.36267)" />
    <path
       id="path219"
       d="m 264.56363,100.94873 -10.92258,3.19411 m 5.20911,-1.52332 -0.40808,0.11936 m 6.12155,-1.79015 v 0 l -5.95215,0.85458 0.47739,1.63242 5.47476,-2.487"
       style="fill:none;stroke:#000000;stroke-width:0.3685;stroke-linecap:round;stroke-linejoin:round;stroke-miterlimit:10;stroke-dasharray:none;stroke-opacity:1"
       transform="matrix(1.3333333,0,0,-1.3333333,0,302.36267)" />
    <path
       id="path220"
       d="m 259.08887,103.43573 -0.47739,-1.63242 5.95215,-0.85458 z"
       style="fill:#000000;fill-opacity:1;fill-rule:nonzero;stroke:none"
       transform="matrix(1.3333333,0,0,-1.3333333,0,302.36267)" />
    <path
       id="path221"
       d="m 305.92609,126.63599 -13.47159,-1.89083 m 7.5766,1.06342 -0.42105,-0.0591 m 6.31604,0.88651 v 0 l -5.77677,-1.66954 -0.23642,1.68426 6.01319,-0.0147"
       style="fill:none;stroke:#000000;stroke-width:0.3685;stroke-linecap:round;stroke-linejoin:round;stroke-miterlimit:10;stroke-dasharray:none;stroke-opacity:1"
       transform="matrix(1.3333333,0,0,-1.3333333,0,302.36267)" />
    <path
       id="path222"
       d="m 299.9129,126.65071 0.23642,-1.68426 5.77677,1.66954 -6.01319,0.0147 z"
       style="fill:#000000;fill-opacity:1;fill-rule:nonzero;stroke:none"
       transform="matrix(1.3333333,0,0,-1.3333333,0,302.36267)" />
    <path
       id="path223"
       d="m 326.61337,114.11818 h -14.75824 m 8.80548,0 h -0.4252 m 6.37796,0 v 0 l -5.95276,-0.8504 v 1.70079 l 5.95276,-0.85039"
       style="fill:none;stroke:#000000;stroke-width:0.3685;stroke-linecap:round;stroke-linejoin:round;stroke-miterlimit:10;stroke-dasharray:none;stroke-opacity:1"
       transform="matrix(1.3333333,0,0,-1.3333333,0,302.36267)" />
    <path
       id="path224"
       d="m 320.66061,114.96857 v -1.70079 l 5.95276,0.8504 z"
       style="fill:#000000;fill-opacity:1;fill-rule:nonzero;stroke:none"
       transform="matrix(1.3333333,0,0,-1.3333333,0,302.36267)" />
    <path
       id="path225"
       d="m 305.92609,101.60037 -13.47159,1.89083 m 7.5766,-1.06344 -0.42105,0.0591 m 6.31604,-0.88649 v 0 l -6.01319,-0.0147 0.23642,1.68427 5.77677,-1.66953"
       style="fill:none;stroke:#000000;stroke-width:0.3685;stroke-linecap:round;stroke-linejoin:round;stroke-miterlimit:10;stroke-dasharray:none;stroke-opacity:1"
       transform="matrix(1.3333333,0,0,-1.3333333,0,302.36267)" />
    <path
       id="path226"
       d="m 300.14932,103.2699 -0.23642,-1.68427 6.01319,0.0147 -5.77677,1.66953 z"
       style="fill:#000000;fill-opacity:1;fill-rule:nonzero;stroke:none"
       transform="matrix(1.3333333,0,0,-1.3333333,0,302.36267)" />
    <path
       id="path227"
       d="m 326.4639,138.66626 -14.45929,-2.80658 m 8.6156,1.6723 -0.41742,-0.081 m 6.26111,1.2153 v 0 l -5.68164,-1.96909 -0.3241,1.66962 6.00574,0.29947"
       style="fill:none;stroke:#000000;stroke-width:0.3685;stroke-linecap:round;stroke-linejoin:round;stroke-miterlimit:10;stroke-dasharray:none;stroke-opacity:1"
       transform="matrix(1.3333333,0,0,-1.3333333,0,302.36267)" />
    <path
       id="path228"
       d="m 320.45816,138.36679 0.3241,-1.66962 5.68164,1.96909 z"
       style="fill:#000000;fill-opacity:1;fill-rule:nonzero;stroke:none"
       transform="matrix(1.3333333,0,0,-1.3333333,0,302.36267)" />
    <path
       id="path229"
       d="m 244.69843,114.11818 h -11.2801 m 5.32734,0 h -0.4252 m 6.37796,0 v 0 l -5.95276,-0.8504 v 1.70079 l 5.95276,-0.85039"
       style="fill:none;stroke:#000000;stroke-width:0.3685;stroke-linecap:round;stroke-linejoin:round;stroke-miterlimit:10;stroke-dasharray:none;stroke-opacity:1"
       transform="matrix(1.3333333,0,0,-1.3333333,0,302.36267)" />
    <path
       id="path230"
       d="m 238.74567,114.96857 v -1.70079 l 5.95276,0.8504 z"
       style="fill:#000000;fill-opacity:1;fill-rule:nonzero;stroke:none"
       transform="matrix(1.3333333,0,0,-1.3333333,0,302.36267)" />
    <path
       id="path231"
       d="m 305.20456,76.91505 -12.02857,4.9719 m 6.52726,-2.69797 -0.39298,0.16241 m 5.89429,-2.43634 v 0 l -5.82617,1.48803 0.64969,1.57179 5.17648,-3.05982"
       style="fill:none;stroke:#000000;stroke-width:0.3685;stroke-linecap:round;stroke-linejoin:round;stroke-miterlimit:10;stroke-dasharray:none;stroke-opacity:1"
       transform="matrix(1.3333333,0,0,-1.3333333,0,302.36267)" />
    <path
       id="path232"
       d="m 300.02808,79.97487 -0.64969,-1.57179 5.82617,-1.48803 z"
       style="fill:#000000;fill-opacity:1;fill-rule:nonzero;stroke:none"
       transform="matrix(1.3333333,0,0,-1.3333333,0,302.36267)" />
    <path
       id="path233"
       d="m 264.56363,100.94873 -10.92258,3.19411 m 5.20911,-1.52332 -0.40808,0.11936 m 6.12155,-1.79015 v 0 l -5.95215,0.85458 0.47739,1.63242 5.47476,-2.487"
       style="fill:none;stroke:#000000;stroke-width:0.3685;stroke-linecap:round;stroke-linejoin:round;stroke-miterlimit:10;stroke-dasharray:none;stroke-opacity:1"
       transform="matrix(1.3333333,0,0,-1.3333333,0,302.36267)" />
    <path
       id="path234"
       d="m 259.08887,103.43573 -0.47739,-1.63242 5.95215,-0.85458 z"
       style="fill:#000000;fill-opacity:1;fill-rule:nonzero;stroke:none"
       transform="matrix(1.3333333,0,0,-1.3333333,0,302.36267)" />
    <path
       id="path235"
       d="m 284.73026,139.41068 -11.16788,-4.29542 m 5.61191,2.15845 -0.39685,-0.15262 m 5.95282,2.28959 v 0 l -5.25071,-2.93067 -0.61053,1.5874 5.86124,1.34327"
       style="fill:none;stroke:#000000;stroke-width:0.3685;stroke-linecap:round;stroke-linejoin:round;stroke-miterlimit:10;stroke-dasharray:none;stroke-opacity:1"
       transform="matrix(1.3333333,0,0,-1.3333333,0,302.36267)" />
    <path
       id="path236"
       d="m 278.86902,138.06741 0.61053,-1.5874 5.25071,2.93067 z"
       style="fill:#000000;fill-opacity:1;fill-rule:nonzero;stroke:none"
       transform="matrix(1.3333333,0,0,-1.3333333,0,302.36267)" />
    <path
       id="path237"
       d="m 264.56363,127.28763 -10.92258,-3.19412 m 5.20911,1.52331 -0.40808,-0.11934 m 6.12155,1.79015 v 0 l -5.47476,-2.48702 -0.47739,1.63242 5.95215,0.8546"
       style="fill:none;stroke:#000000;stroke-width:0.3685;stroke-linecap:round;stroke-linejoin:round;stroke-miterlimit:10;stroke-dasharray:none;stroke-opacity:1"
       transform="matrix(1.3333333,0,0,-1.3333333,0,302.36267)" />
    <path
       id="path238"
       d="m 258.61148,126.43303 0.47739,-1.63242 5.47476,2.48702 z"
       style="fill:#000000;fill-opacity:1;fill-rule:nonzero;stroke:none"
       transform="matrix(1.3333333,0,0,-1.3333333,0,302.36267)" />
    <path
       id="path239"
       d="m 264.56363,127.28763 -10.92258,-3.19412 m 5.20911,1.52331 -0.40808,-0.11934 m 6.12155,1.79015 v 0 l -5.47476,-2.48702 -0.47739,1.63242 5.95215,0.8546"
       style="fill:none;stroke:#000000;stroke-width:0.3685;stroke-linecap:round;stroke-linejoin:round;stroke-miterlimit:10;stroke-dasharray:none;stroke-opacity:1"
       transform="matrix(1.3333333,0,0,-1.3333333,0,302.36267)" />
    <path
       id="path240"
       d="m 258.61148,126.43303 0.47739,-1.63242 5.47476,2.48702 z"
       style="fill:#000000;fill-opacity:1;fill-rule:nonzero;stroke:none"
       transform="matrix(1.3333333,0,0,-1.3333333,0,302.36267)" />
    <path
       id="path241"
       d="m 244.69843,114.11818 h -11.2801 m 5.32734,0 h -0.4252 m 6.37796,0 v 0 l -5.95276,-0.8504 v 1.70079 l 5.95276,-0.85039"
       style="fill:none;stroke:#000000;stroke-width:0.3685;stroke-linecap:round;stroke-linejoin:round;stroke-miterlimit:10;stroke-dasharray:none;stroke-opacity:1"
       transform="matrix(1.3333333,0,0,-1.3333333,0,302.36267)" />
    <path
       id="path242"
       d="m 238.74567,114.96857 v -1.70079 l 5.95276,0.8504 z"
       style="fill:#000000;fill-opacity:1;fill-rule:nonzero;stroke:none"
       transform="matrix(1.3333333,0,0,-1.3333333,0,302.36267)" />
    <path
       id="path243"
       d="m 285.56851,114.11818 h -12.84439 m 6.89163,0 h -0.4252 m 6.37796,0 v 0 l -5.95276,-0.8504 v 1.70079 l 5.95276,-0.85039"
       style="fill:none;stroke:#000000;stroke-width:0.3685;stroke-linecap:round;stroke-linejoin:round;stroke-miterlimit:10;stroke-dasharray:none;stroke-opacity:1"
       transform="matrix(1.3333333,0,0,-1.3333333,0,302.36267)" />
    <path
       id="path244"
       d="m 279.61575,114.96857 v -1.70079 l 5.95276,0.8504 z"
       style="fill:#000000;fill-opacity:1;fill-rule:nonzero;stroke:none"
       transform="matrix(1.3333333,0,0,-1.3333333,0,302.36267)" />
    <path
       id="path245"
       d="m 284.73026,139.41068 -11.16788,-4.29542 m -75.45322,53.09253 1.72254,-9.31051 m -15.44394,-74.75444 -10.92258,-3.19411 M 284.73026,88.8257 273.56238,93.12109 m 11.16788,-4.29539 -11.16788,4.29539 m -147.53819,42.73859 -14.45929,2.80658 m 143.81752,-56.04137 7.43985,-6.44778 m -20.99772,64.23894 -5.53234,-6.30616 m 69.63388,-32.50952 -13.47159,1.89083 m 13.47159,23.14479 -13.47159,-1.89083 M 164.46643,93.12109 153.29855,88.8257 m 132.26996,25.29248 H 272.72412 M 279.1463,33.11143 78.7066,148.83536 M 237.42087,71.71753 240.69589,63.9397 M 219.0144,83.10886 v -7.41571 m -73.44009,27.79805 -13.47159,-1.89083 m 64.10153,38.81568 5.53238,-6.30616 m 17.27777,18.43332 v -7.41571 m -73.44009,-41.6363 -13.47159,-1.89083 m -25.28898,1.44268 -16.12632,-0.99451 m 214.51714,-25.13349 -12.02857,4.9719 m -91.43936,12.23953 -5.53238,-6.30617 m -51.35144,-5.93336 -12.02856,-4.9719 m 193.63965,61.75121 -14.45929,-2.80658 m 56.30575,-21.7415 H 350.33405 M 138.83853,44.68382 339.27823,160.40775 m -102.98602,-66.28127 5.53234,-6.30617 m 63.38001,63.50098 -12.02857,-4.97186 M 144.85281,81.88695 132.82425,76.91505 m 46.1022,-55.37602 200.43973,115.72394 M 239.05838,9.96664 38.61867,125.69057 M 87.69476,114.11818 H 69.71844 m 277.62296,-12.06964 -16.12634,0.99451 M 326.4639,89.5701 312.00461,92.37669 M 98.75058,67.82861 299.19028,183.55252 m -24.34973,-112.25157 8.61154,-6.94469 m -45.25498,-15.01718 1.72254,-9.31053 m -113.74599,74.08963 h -14.75822 m 7.3791,-57.86197 200.43971,115.72392 m -56.41198,-19.9209 -7.43985,-6.44775 m 91.95898,-19.42366 -16.12634,-0.99451 m -26.0105,26.12798 -12.02857,-4.97186 m -91.43936,-52.22295 -5.53238,-6.30617 m -33.01599,-16.51936 -8.61154,-6.94469 m 42.75623,99.9404 3.27499,-7.77783 m 35.68427,-62.39235 5.53234,-6.30617 m 84.78882,26.29787 H 311.85513 M 164.46643,93.12109 153.29855,88.8257 m 28.05851,-28.39545 -4.86118,-8.34807 m 106.95621,111.79792 -8.61154,-6.94471"
       style="fill:none;stroke:#000000;stroke-width:0.3685;stroke-linecap:round;stroke-linejoin:round;stroke-miterlimit:10;stroke-dasharray:none;stroke-opacity:1"
       transform="matrix(1.3333333,0,0,-1.3333333,0,302.36267)" />
    <path
       id="path246"
       d="m 182.64639,82.62489 -7.43985,-6.44778 m 1.28934,99.97706 4.86118,-8.34808 m -16.89063,-32.69083 -11.16788,4.29542 M 326.4639,89.5701 312.00461,92.37669 m 67.36157,-1.4033 -200.43973,115.72394 m -33.35214,-81.95217 -13.47159,1.89083 m 64.10153,13.78006 5.53238,-6.30616 M 219.0144,38.30074 V 27.92212 m 0,172.39212 v -10.37863 m 45.54923,-88.98688 -10.92258,3.19411 M 126.02419,92.37669 111.56491,89.5701 m 63.64163,62.48913 7.43985,-6.44775 m 57.27326,42.59631 -1.72254,-9.31051 m -33.58664,-64.7791 h -11.28006 m 63.34134,-53.68793 4.86118,-8.34807 m 85.80847,74.10564 -16.12634,-0.99451 m -69.68213,50.96086 -4.86118,-8.34808 M 219.0144,105.80206 v -6.51255 m -19.1827,-49.95043 -1.72254,-9.31053 m 20.90524,136.21193 v -8.52066 m 0,-15.17661 v -7.41571 m -42.51852,31.02667 4.86118,-8.34808 M 199.8317,49.33908 198.10916,40.02855 M 359.3222,79.401 158.88251,195.12494 m 96.49991,-112.50005 7.43985,-6.44778 m -117.96946,70.17232 -12.02856,4.97186 M 259.10236,21.53903 58.66263,137.26297 M 319.23425,56.25621 118.79454,171.98013 m 100.21986,28.33411 v -10.37863 m 0,-13.69513 v -8.52066 m 86.91169,-41.08383 -13.47159,-1.89083 M 200.60794,71.71753 197.33295,63.9397 m 170.97741,50.17848 h -17.97631 m -23.72068,0 h -14.75824 m -224.16037,0 H 69.71844 m 170.97745,50.17848 -3.27502,-7.77783 m 109.92053,-54.47029 -16.12634,0.99451 m -205.0414,11.07513 h -14.75822 m 93.19503,0 h -11.28006 m 48.49414,26.29787 -5.53234,-6.30616 m 25.24072,42.04428 -4.86118,-8.34808 M 200.60794,71.71753 197.33295,63.9397 M 219.0144,60.51656 V 51.99588 M 126.02419,92.37669 111.56491,89.5701 M 299.19028,44.68382 98.75058,160.40775 M 219.0144,128.94684 v -6.51254 m -53.70971,-8.31612 H 152.4603 m 153.46579,-12.51781 -13.47159,1.89083 m 34.0094,35.17506 -14.45929,-2.80658 m -67.30618,-21.7415 h -11.2801"
       style="fill:none;stroke:#000000;stroke-width:0.3685;stroke-linecap:round;stroke-linejoin:round;stroke-miterlimit:10;stroke-dasharray:none;stroke-opacity:1"
       transform="matrix(1.3333333,0,0,-1.3333333,0,302.36267)" />
    <path
       id="path247"
       d="m 240.69589,164.29666 -3.27502,-7.77783 M 219.0144,83.10886 V 75.69315 M 58.66263,90.97339 259.10236,206.69733 M 165.30469,114.11818 H 152.4603 m 66.5541,-53.60162 v -8.52068 m -37.65734,8.43437 -4.86118,-8.34807 m -21.91916,111.79792 8.61154,-6.94471 m 21.1995,-52.79255 -10.92258,-3.19411 m 10.92258,23.14478 -10.92258,3.19412 M 38.61867,102.54579 239.05838,218.26971 m -40.94922,-30.06192 1.72254,-9.31051 M 339.27823,67.82861 138.83853,183.55252 m 166.36603,-106.63747 -12.02857,4.9719 m -55.75512,-10.16942 3.27502,-7.77783 m 15.97586,-3.50945 4.86118,-8.34807 m 3.0307,48.86655 -10.92258,3.19411 m -146.82731,21.05047 -16.12632,0.99451 M 219.0144,38.30074 V 27.92212 m -55.82614,43.37883 -8.61154,-6.94469 m 130.15354,75.05442 -11.16788,-4.29542 M 198.97043,9.96664 399.41016,125.69057 m -234.94373,9.42469 -11.16788,4.29542 m -46.48481,-14.21737 -16.12632,0.99451 m 63.8893,37.69228 8.61154,-6.94471 m 34.14469,7.36127 3.27499,-7.77783 m 63.95569,-29.2312 -10.92258,-3.19412 m 10.92258,3.19412 -10.92258,-3.19412 m -8.94262,-9.97533 h -11.2801 m 4.77878,-64.7791 1.72254,-9.31053 m 159.49051,62.51724 -200.43973,115.72392 m -14.58267,-94.1762 -10.92258,3.19412 m -28.61237,19.0618 -12.02856,4.97186 m -26.01051,-48.27824 -16.12632,-0.99451 m 84.51912,50.01069 7.43985,-6.44775 m 0,-62.98659 -7.43985,-6.44778 M 78.7066,79.401 279.1463,195.12494 m 6.42221,-81.00676 h -12.84439 m -53.70972,-8.31612 v -6.51255 m 20.90525,88.91828 -1.72254,-9.31051 m 45.25498,-15.01718 -8.61154,-6.94471 m 0,-85.63444 8.61154,-6.94469 m -157.4279,71.50342 -14.45929,2.80658 M 158.88251,33.11143 359.3222,148.83536 m -213.74789,-24.0902 -13.47159,1.89083 m 86.91168,2.31085 v -6.51254 m 43.80787,29.62493 -7.43985,-6.44775 M 4.16695,120.26591 l 12.51986,7.22835 m -5.15524,-2.97638 -0.36822,-0.2126 m 5.52346,3.18898 v 0 l -5.58043,-2.23993"
       style="fill:none;stroke:#000000;stroke-width:0.3685;stroke-linecap:round;stroke-linejoin:round;stroke-miterlimit:10;stroke-dasharray:none;stroke-opacity:1"
       transform="matrix(1.3333333,0,0,-1.3333333,0,302.36267)" />
    <path
       id="path248"
       d="m 11.10638,125.25433 0.85039,-1.47291 4.73004,3.71284"
       style="fill:none;stroke:#000000;stroke-width:0.3685;stroke-linecap:round;stroke-linejoin:round;stroke-miterlimit:10;stroke-dasharray:none;stroke-opacity:1"
       transform="matrix(1.3333333,0,0,-1.3333333,0,302.36267)" />
    <path
       id="path249"
       d="m 11.95677,123.78142 4.73004,3.71284 -5.58043,-2.23993 z"
       style="fill:#000000;fill-opacity:1;fill-rule:nonzero;stroke:none"
       transform="matrix(1.3333333,0,0,-1.3333333,0,302.36267)" />
    <path
       id="path250"
       d="m 4.16695,120.26591 12.37342,-7.14379 m -5.15524,2.97638 -0.36822,0.21258 m 5.52346,-3.18896 v 0 l -4.73004,3.71283 -0.85038,-1.47292 5.58042,-2.23991"
       style="fill:none;stroke:#000000;stroke-width:0.3685;stroke-linecap:round;stroke-linejoin:round;stroke-miterlimit:10;stroke-dasharray:none;stroke-opacity:1"
       transform="matrix(1.3333333,0,0,-1.3333333,0,302.36267)" />
    <path
       id="path251"
       d="m 10.95995,115.36203 5.58042,-2.23991 -4.73004,3.71283 z"
       style="fill:#000000;fill-opacity:1;fill-rule:nonzero;stroke:none"
       transform="matrix(1.3333333,0,0,-1.3333333,0,302.36267)" />
    <path
       id="path252"
       d="m 4.16695,120.26591 v 16.08974 m 0,-5.95276 v -0.4252 m 0,6.37796 v 0 l -0.85039,-5.95276 h 1.70077 l -0.85038,5.95276"
       style="fill:none;stroke:#000000;stroke-width:0.3685;stroke-linecap:round;stroke-linejoin:round;stroke-miterlimit:10;stroke-dasharray:none;stroke-opacity:1"
       transform="matrix(1.3333333,0,0,-1.3333333,0,302.36267)" />
    <path
       id="path253"
       d="m 5.01733,130.40289 -0.85038,5.95276 -0.85039,-5.95276 z"
       style="fill:#000000;fill-opacity:1;fill-rule:nonzero;stroke:none"
       transform="matrix(1.3333333,0,0,-1.3333333,0,302.36267)" />
    <text
       id="text253"
       xml:space="preserve"
       transform="matrix(1.3333333,0,0,1.3333333,24.037507,155.38829)"
       clip-path="url(#clipPath254)"><tspan
         style="font-style:italic;font-variant:normal;font-weight:normal;font-stretch:normal;font-size:10.0071px;font-family:'Palatino Linotype';writing-mode:lr-tb;fill:#000000;fill-opacity:1;fill-rule:nonzero;stroke:none"
         x="0"
         y="0"
         id="tspan253">X</tspan></text>
    <text
       id="text254"
       xml:space="preserve"
       transform="matrix(1.3333333,0,0,1.3333333,14.881747,129.44891)"
       clip-path="url(#clipPath255)"><tspan
         style="font-style:italic;font-variant:normal;font-weight:normal;font-stretch:normal;font-size:10.0071px;font-family:'Palatino Linotype';writing-mode:lr-tb;fill:#000000;fill-opacity:1;fill-rule:nonzero;stroke:none"
         x="0"
         y="0"
         id="tspan254">Y</tspan></text>
    <text
       id="text255"
       xml:space="preserve"
       transform="matrix(1.3333333,0,0,1.3333333,1.3595333,114.97263)"
       clip-path="url(#clipPath256)"><tspan
         style="font-style:italic;font-variant:normal;font-weight:normal;font-stretch:normal;font-size:10.0071px;font-family:'Palatino Linotype';writing-mode:lr-tb;fill:#000000;fill-opacity:1;fill-rule:nonzero;stroke:none"
         x="0"
         y="0"
         id="tspan255">Z</tspan></text>
    <text
       id="text256"
       xml:space="preserve"
       transform="matrix(1.3333333,0,0,1.3333333,1.3595333,83.60256)"
       clip-path="url(#clipPath257)"><tspan
         style="font-variant:normal;font-weight:normal;font-stretch:normal;font-size:10.0916px;font-family:'Palatino Linotype';writing-mode:lr-tb;fill:#000000;fill-opacity:1;fill-rule:nonzero;stroke:none"
         x="0 6.1659737 12.261306 14.784208 19.830013 22.352917 27.398722 29.921623 34.96743 40.013233"
         y="0"
         sodipodi:role="line"
         id="tspan256">LP = 0.500</tspan></text>
  </g>
</svg>
