<?xml version="1.0" encoding="UTF-8" standalone="no"?>
<!-- Created with Inkscape (http://www.inkscape.org/) -->

<svg
   version="1.1"
   id="svg1"
   width="566.92932"
   height="302.36267"
   viewBox="0 0 566.92932 302.36267"
   sodipodi:docname="quad_lpa1_m.pdf"
   xmlns:inkscape="http://www.inkscape.org/namespaces/inkscape"
   xmlns:sodipodi="http://sodipodi.sourceforge.net/DTD/sodipodi-0.dtd"
   xmlns="http://www.w3.org/2000/svg"
   xmlns:svg="http://www.w3.org/2000/svg">
  <defs
     id="defs1">
    <clipPath
       clipPathUnits="userSpaceOnUse"
       id="clipPath20">
      <path
         d="m -0.00426,-0.00227 v 226.7762 H 425.20111 V -0.00227 H -0.00426"
         transform="matrix(1,0,0,-1,-231.09802,111.80705)"
         clip-rule="evenodd"
         id="path20" />
    </clipPath>
    <clipPath
       clipPathUnits="userSpaceOnUse"
       id="clipPath21">
      <path
         d="m -0.00426,-0.00227 v 226.7762 H 425.20111 V -0.00227 H -0.00426"
         transform="matrix(1,0,0,-1,-238.88626,108.49995)"
         clip-rule="evenodd"
         id="path21" />
    </clipPath>
    <clipPath
       clipPathUnits="userSpaceOnUse"
       id="clipPath22">
      <path
         d="m -0.00426,-0.00227 v 226.7762 H 425.20111 V -0.00227 H -0.00426"
         transform="matrix(1,0,0,-1,-18.028161,110.23077)"
         clip-rule="evenodd"
         id="path22" />
    </clipPath>
    <clipPath
       clipPathUnits="userSpaceOnUse"
       id="clipPath23">
      <path
         d="m -0.00426,-0.00227 v 226.7762 H 425.20111 V -0.00227 H -0.00426"
         transform="matrix(1,0,0,-1,-11.16135,129.68532)"
         clip-rule="evenodd"
         id="path23" />
    </clipPath>
    <clipPath
       clipPathUnits="userSpaceOnUse"
       id="clipPath24">
      <path
         d="m -0.00426,-0.00227 v 226.7762 H 425.20111 V -0.00227 H -0.00426"
         transform="matrix(1,0,0,-1,-1.0196901,140.54253)"
         clip-rule="evenodd"
         id="path24" />
    </clipPath>
    <clipPath
       clipPathUnits="userSpaceOnUse"
       id="clipPath25">
      <path
         d="m -0.00426,-0.00227 v 226.7762 H 425.20111 V -0.00227 H -0.00426"
         transform="matrix(1,0,0,-1,-1.0196901,164.07008)"
         clip-rule="evenodd"
         id="path25" />
    </clipPath>
  </defs>
  <sodipodi:namedview
     id="namedview1"
     pagecolor="#ffffff"
     bordercolor="#000000"
     borderopacity="0.25"
     inkscape:showpageshadow="2"
     inkscape:pageopacity="0.0"
     inkscape:pagecheckerboard="0"
     inkscape:deskcolor="#d1d1d1">
    <inkscape:page
       x="0"
       y="0"
       inkscape:label="1"
       id="page1"
       width="566.92932"
       height="302.36267"
       margin="0"
       bleed="0" />
  </sodipodi:namedview>
  <g
     id="g1"
     inkscape:groupmode="layer"
     inkscape:label="1">
    <path
       id="path1"
       d="m 221.84909,114.11818 c 0,1.56552 -1.2691,2.83464 -2.83466,2.83464 m 0,0 c -1.56552,0 -2.83462,-1.26912 -2.83462,-2.83464 m 0,0 c 0,-1.56554 1.2691,-2.83466 2.83462,-2.83466 m 0,0 c 1.56556,0 2.83466,1.26912 2.83466,2.83466"
       style="fill:none;stroke:#000000;stroke-width:0.3685;stroke-linecap:round;stroke-linejoin:round;stroke-miterlimit:10;stroke-dasharray:none;stroke-opacity:1"
       transform="matrix(1.3333333,0,0,-1.3333333,0,302.36267)" />
    <path
       id="path2"
       d="M 158.88254,102.54578 V 89.30696 m -20.04398,71.10079 v -5.24616 M 279.14636,79.401 V 64.24887 M 219.01443,67.8286 V 54.63608 m -80.17587,59.4821 v -11.15579 m 100.21985,91.85392 -20.04398,4.90671 m 140.30781,-97.17724 v -0.3086 m -80.17588,0.3086 V 89.30696 M 78.70663,119.36432 58.66267,137.26297 m 40.08794,0 V 126.4312 m 220.48367,-33.63709 20.04398,13.68628 m -200.4397,53.92736 v -13.14624 m 100.21985,41.53717 20.04398,17.89865 m 0,-138.86873 V 53.30911 M 158.88254,171.98013 v -12.65246 m 140.30777,-4.16608 -20.04395,9.82883 m 0,-75.26685 -20.04397,9.1962 m 0,-54.23595 v -6.86628 m 40.08792,30.01106 v -5.24616 m -200.4397,74.68053 v -6.8663 m 80.1759,6.8663 v -12.88394 m 20.04395,47.6011 v -8.91845 M 219.01443,21.53903 v 5.13814 m 20.04398,29.57904 v -8.91846 m -140.3078,89.92522 v -8.64072 m 60.13193,-58.84948 -20.04398,11.74212 m 60.1319,90.46524 v -9.55108 m 20.04397,-15.21384 -20.04397,15.21384 m 20.04397,-2.0213 V 147.21521 M 178.92651,36.04309 158.88254,52.53761 m 40.08792,73.15296 v -14.47321 m 40.08795,-8.67158 V 87.7794 M 138.83856,44.68382 158.88254,43.60373 M 259.10239,56.7191 239.05841,64.20259 M 219.01443,14.56474 198.97046,32.80283 m 60.13193,-11.2638 -20.04398,5.24616 m -40.08795,1.34239 20.04397,7.90008 m -80.17587,54.94573 v -9.89053 m 80.17587,-59.54383 v 5.13814 m -20.04397,162.12151 -20.04395,17.89865 m 20.04395,-118.62476 20.04397,10.8009 M 198.97046,79.401 V 66.57878 m 20.04397,70.68419 V 123.3298 m 20.04398,2.36077 v -14.76638 m 60.1319,16.88027 -20.04395,11.40266 M 299.19031,67.8286 v -8.579 m -80.17588,124.30292 v -7.63776 m -40.08792,-25.39755 20.04395,12.54447 m 20.04397,43.63565 v 5.13812 m 120.26383,-123.14568 20.04398,4.47466"
       style="fill:none;stroke:#000000;stroke-width:0.22678;stroke-linecap:round;stroke-linejoin:round;stroke-miterlimit:10;stroke-dasharray:none;stroke-opacity:1"
       transform="matrix(1.3333333,0,0,-1.3333333,0,302.36267)" />
    <path
       id="path3"
       d="m 198.97046,47.33775 -20.04395,10.60031 m 100.21985,114.04207 v -6.98971 M 239.05841,56.25621 V 43.83517 m -60.1319,102.05307 -20.04397,17.94492 M 219.01443,77.04022 198.97046,87.7794 m -40.08792,14.76638 V 87.34737 M 198.97046,33.11142 V 26.78519 M 98.75061,105.46202 78.70663,120.70673 M 178.92651,44.68382 V 33.85205 m 40.08792,-19.28731 20.04398,18.23809 m 20.04398,104.46014 v -12.88394 m 100.21985,1.31154 v -0.3086 m -40.08796,23.45339 v -8.14697 M 239.05841,33.11142 V 23.73007 M 319.23428,79.401 v -6.98973 m -120.26382,76.42409 v -12.82221 m 60.13193,24.3946 v -9.89054 m 80.17587,-13.25424 v -8.64072 m -120.26383,78.07508 v 5.13812 m 60.13193,-63.00009 v -9.62824 M 98.75061,90.97339 v -8.64072 m 20.04398,34.43944 20.04397,10.60031 m -20.04397,-1.68185 v -9.55109 m 120.26382,-49.5607 -20.04398,9.1962 m -60.13189,34.71718 -20.04398,15.6613 m -60.13193,-0.46289 v -4.98384 m 120.26383,-53.46447 -20.04395,10.8472 m 80.17588,82.31829 v -9.4585 m 80.17587,-44.46886 -20.04398,9.4585 m -100.21985,-59.26607 20.04398,9.48937 m 20.04398,1.66641 v -9.4585 m 40.08792,55.74808 V 100.92564 M 198.97046,23.73007 178.92651,42.40019 m -20.04397,83.29038 v -13.23882 m 180.39572,24.81122 V 126.4312 M 319.23428,56.25621 299.19031,54.68236 M 198.97046,102.54578 V 87.7794 m 20.04397,-31.10658 -20.04397,9.48937 m 0,82.67317 v -12.15872 m -100.21985,-8.05439 20.04398,16.49451 m 20.04397,-65.25287 20.04398,7.48348 m 100.21985,63.16984 -20.04398,12.54447 M 198.97046,56.25621 V 43.83517 M 78.70663,116.3092 98.75061,134.97934 m 0,-20.86116 v -7.63779 m 80.1759,-38.65179 v -9.89054 m 100.21985,67.75251 v -12.82222 m -140.3078,42.29324 20.04398,9.82883 M 279.14636,49.26648 299.19031,62.58244 m -80.17588,144.11489 v -6.97431"
       style="fill:none;stroke:#000000;stroke-width:0.22678;stroke-linecap:round;stroke-linejoin:round;stroke-miterlimit:10;stroke-dasharray:none;stroke-opacity:1"
       transform="matrix(1.3333333,0,0,-1.3333333,0,302.36267)" />
    <path
       id="path4"
       d="m 379.36621,114.11818 v 5.13814 M 138.83856,90.97339 V 79.86389 M 158.88254,79.401 V 64.24887 m 20.04397,34.6709 -20.04397,13.94858 M 339.27826,67.8286 319.23428,66.74852 M 178.92651,44.68382 V 37.81754 M 319.23428,79.401 V 71.25403 M 178.92651,137.26297 V 124.02414 M 58.66267,114.11818 v 5.13814 m 60.13192,29.57904 v -6.98972 m 40.08795,-85.58943 v -6.98973 m -80.17591,52.9707 -20.04396,4.9067 m 240.52764,-4.18149 -20.04395,9.48936 M 138.83856,67.8286 V 62.58244 M 198.97046,79.401 V 67.24226 m 100.21985,46.87592 v -11.15579 m -120.2638,57.44536 v -11.1095 M 219.01443,21.53903 v -6.97429 m 40.08796,21.47835 20.04397,16.49452 m 60.1319,84.72536 v -6.8663 M 138.83856,90.97339 v -14.5195 m 60.1319,-43.34247 v -4.98384 m 100.21985,132.28017 v -8.57901 m -180.39572,-80.57471 20.04397,5.19986 m 80.17587,83.95386 v -11.1558 M 178.92651,67.8286 v -9.4585 m 160.35175,55.74808 v -7.63779 m -160.35175,77.07213 v -8.64072 m 80.17588,-37.64883 v -12.88394 m 0,-66.00893 20.04397,11.40267 m -20.04397,7.9618 -20.04398,9.38135 m -40.08795,-40.4108 20.04397,7.93096 m -60.13189,117.34405 v -3.71859 m 60.13189,-46.197 -20.04397,13.94861 M 178.92651,90.97339 V 75.54353 M 118.79459,79.401 v -8.14697 m 20.04397,66.00894 v -14.5195 m 120.26383,-8.62529 V 98.91977 M 239.05841,33.11142 v -4.98384 m -40.08795,38.4512 20.04397,9.1962 m 0,107.77754 v -8.65613 m 40.08796,-75.97662 20.04397,13.94858 M 219.01443,67.8286 V 56.67282 M 58.66267,114.11818 v -6.9743 m 140.30779,87.98103 v -6.32623 m 40.08795,-121.55642 20.04398,10.8472 m -20.04398,117.03545 v -0.3086 M 118.79459,125.69057 v -12.42104 m 220.48367,0.84865 v -8.65616 m 20.04398,-3.22484 20.04397,4.9067"
       style="fill:none;stroke:#000000;stroke-width:0.22678;stroke-linecap:round;stroke-linejoin:round;stroke-miterlimit:10;stroke-dasharray:none;stroke-opacity:1"
       transform="matrix(1.3333333,0,0,-1.3333333,0,302.36267)" />
    <path
       id="path5"
       d="m 319.23428,148.83536 v -12.6525 m -220.48367,-29.70247 20.04398,9.4585 m 120.26382,43.62022 20.04398,17.12714 m -60.13193,-50.99568 v -14.76638 m 60.13193,49.48356 v -14.51951 m -60.13193,16.34021 20.04397,13.68631 M 158.88254,79.401 V 67.79774 m 120.26382,-34.68632 -20.04397,0.74063 m -100.21985,33.94569 20.04397,7.74579 m 40.08792,131.1538 v -6.97431 m 60.13193,-86.19117 -20.04397,10.84718 m 20.04397,47.6011 v -8.14697 M 299.19031,67.8286 v -5.24616 m -120.2638,110.13832 -20.04397,22.40415 m 60.13189,-158.07887 20.04398,9.45851 M 259.10239,67.8286 V 56.7191 M 118.79459,75.6824 98.75061,82.33267 M 198.97046,56.25621 v -8.91846 m 40.08795,63.58644 -20.04398,12.40561 M 118.79459,79.401 v -6.98973 m 80.17587,122.71364 v -4.98383 M 299.19031,59.2496 279.14636,64.24887 m 0,95.0788 20.04395,24.22485 m -160.35175,-82.62688 -20.04397,15.21384 m 120.26382,55.84065 v -12.42102 m -60.1319,0.84864 v -9.89054 M 138.83856,67.8286 V 54.68236 m 100.21985,94.153 v -15.19843 m 80.17587,-7.94636 v -9.55109 M 259.10239,90.97339 V 75.54353 M 178.92651,67.8286 V 56.7191 m -20.04397,76.96413 -20.04398,18.14551 M 279.14636,79.401 v -9.62823 m -40.08795,102.20736 v -9.55108 m 60.1319,-48.31087 v -13.19254 m -140.30777,47.90972 v -9.62824 M 239.05841,79.401 V 67.24226 M 98.75061,90.97339 V 80.14163 m 220.48367,68.69373 v -6.98972 m 0,-16.15507 v -9.75168 m -160.35174,9.75168 v -15.19841 m 60.13189,3.62602 V 98.87347 M 259.10239,44.68382 V 33.85205 m -40.08796,177.9834 20.04398,6.43426 m 60.1319,-57.86196 v -5.24616 m -160.35175,-32.41812 -20.04397,17.94492 m 120.26382,-14.99782 v -14.76638 m 0,-8.37841 V 87.7794 m -60.1319,-9.68994 -20.04397,12.29759 m 40.08792,104.42926 20.04397,4.90671"
       style="fill:none;stroke:#000000;stroke-width:0.22678;stroke-linecap:round;stroke-linejoin:round;stroke-miterlimit:10;stroke-dasharray:none;stroke-opacity:1"
       transform="matrix(1.3333333,0,0,-1.3333333,0,302.36267)" />
    <path
       id="path6"
       d="m 359.32224,97.56194 -20.04398,7.90008 M 299.19031,90.97339 v -14.5195 m 60.13193,26.09189 V 97.56194 M 219.01443,44.68382 v -8.65616 m -40.08792,124.38009 v -9.4585 m 20.04395,-94.69304 v -9.75166 m -120.26383,51.05739 20.04398,7.90008 m 200.4397,-14.48863 v -9.4585 m -180.39572,21.03089 v -8.91846 m 220.48367,-9.52022 -20.04398,6.01764 m -40.08792,12.42104 V 90.38705 m -80.1759,69.17206 -20.04395,17.12714 m 80.17588,6.86627 v -6.86627 M 78.70663,102.54578 v -4.98384 m 120.26383,12.69877 -20.04395,13.76343 m 60.1319,-76.68639 20.04398,10.60031 m 40.08792,79.32491 v -9.89055 m 20.04397,-10.60031 -20.04397,10.60031 m 0,19.88909 20.04397,24.71862 m -200.43969,-30.13449 20.04397,13.31595 M 98.75061,114.11818 v -7.63779 m 200.4397,-43.89795 20.04397,9.82883 M 178.92651,183.55252 v -2.2836 M 299.19031,67.8286 V 54.68236 m 60.13193,47.86342 V 96.21954 M 198.97046,33.11142 v -0.30859 m 80.1759,92.88774 v -15.19841 m -160.35177,38.3432 v -3.7186 m 160.35177,-75.34399 20.04395,11.74212 m -100.21985,54.08164 20.04397,13.65542 M 98.75061,114.11818 v -8.65616 m 140.3078,-58.7569 -20.04398,7.93096 m -100.21984,94.19928 v -8.14697 M 219.01443,44.68382 v -8.65616 m 0,8.65616 v -7.63778 m 60.13193,88.64453 V 113.53185 M 219.01443,77.04022 239.05841,87.7794 m -80.17587,14.76638 V 89.72357 m 180.39572,1.24982 V 84.1071 M 178.92651,114.11818 V 98.91977 m 40.08792,38.3432 v -15.19843 m 160.35178,-7.94636 v -6.9743 m -220.48367,52.18379 -20.04398,24.22485 m 0,-23.14477 v -8.57901 M 239.05841,79.401 V 66.57878 m -60.1319,47.5394 v -13.93317 m 140.30777,2.36077 V 90.12474 M 178.92651,67.8286 V 53.30911 m 40.08792,37.66428 V 75.77498 m 100.21985,49.91559 v -12.42104"
       style="fill:none;stroke:#000000;stroke-width:0.22678;stroke-linecap:round;stroke-linejoin:round;stroke-miterlimit:10;stroke-dasharray:none;stroke-opacity:1"
       transform="matrix(1.3333333,0,0,-1.3333333,0,302.36267)" />
    <path
       id="path7"
       d="m 319.23428,92.99471 -20.04397,7.93093 m 40.08795,25.50556 20.04398,22.40416 m -180.39573,32.43356 20.04395,4.47464 m -40.08792,-96.4366 -20.04398,13.65543 m 160.35175,34.30058 v -11.10951 m -140.30777,-93.04204 20.04397,0.74063 m 200.4397,80.26613 v 5.13814 M 279.14636,89.30696 299.19031,102.96239 M 198.97046,148.83536 V 133.63693 M 359.32224,79.401 339.27826,80.14163 m -60.1319,-23.88542 v -3.7186 m 0,26.86339 v -9.62823 m -40.08795,32.77301 V 88.07257 m 0,60.76279 v -13.23883 m 40.08795,-33.05075 V 89.72357 m -20.04397,93.82895 v -2.2836 M 219.01443,90.97339 V 77.04022 m 40.08796,47.33881 -20.04398,12.29761 m -60.1319,-22.55846 V 98.91977 m 180.39573,26.7708 v -4.98384 m -100.21985,39.70102 v -11.1095 m 0,-58.32486 V 78.08946 m -100.21985,93.89067 v -6.98971 M 259.10239,114.11818 V 98.91977 m -100.21985,26.7708 v -12.15872 m -40.08795,-0.26232 -20.04398,17.12714 m 60.13193,18.43869 v -9.62824 m 160.35174,9.62824 v -3.7186 m -20.04397,-7.85379 v -14.5195 m 0,-78.05965 -20.04395,-1.08009 m 20.04395,36.26016 -20.04395,7.48348 m -160.35177,38.3432 v -9.75168 M 98.75061,90.97339 V 84.1071 m 140.3078,41.58347 v -14.47321 m 140.3078,8.03896 20.04398,6.43425 m -180.39576,21.52464 20.04398,15.21384 m -20.04398,-63.55558 -20.04397,12.34389 m 0,-8.67158 V 87.11592 m 80.1759,61.71944 V 133.68323 M 78.70663,125.69057 v -6.32625 m 300.65958,-12.22044 -20.04397,18.23809 M 239.05841,9.96664 219.01443,26.67717 m 80.17588,110.5858 v -9.45851 m 80.1759,-36.83107 -20.04397,5.24615 m -40.08796,-24.96551 -20.04397,5.19986 m -40.08792,14.5195 V 78.08946 M 158.88254,79.401 v -9.62823 m 120.26382,98.48877 -20.04397,6.65026 M 219.01443,114.11818 V 98.87347 m -160.35176,8.27041 20.04396,18.23809"
       style="fill:none;stroke:#000000;stroke-width:0.22678;stroke-linecap:round;stroke-linejoin:round;stroke-miterlimit:10;stroke-dasharray:none;stroke-opacity:1"
       transform="matrix(1.3333333,0,0,-1.3333333,0,302.36267)" />
    <path
       id="path8"
       d="m 339.27826,105.46202 20.04398,15.24471 M 98.75061,67.8286 118.79459,66.74852 m 200.43969,35.79726 v -9.75167 m -20.04397,-11.71125 20.04397,12.54446 m -120.26382,40.00961 -20.04395,15.66132 M 259.10239,44.68382 V 36.04309 M 138.83856,114.11818 V 102.96239 M 259.10239,44.68382 v -2.28363 m -40.08796,2.28363 v -7.63778 m -100.21984,65.49974 v -9.55107 m 120.26382,-36.7385 v -9.55109 m -60.1319,10.01398 20.04395,7.48349 M 98.75061,90.97339 v -2.28362 m 140.3078,106.43514 v -4.98383 m 20.04398,-89.95607 -20.04398,10.73918 m -80.17587,28.28293 20.04397,11.74213 m 100.21985,21.03088 v -3.71859 m -140.3078,-65.29915 20.04398,9.48936 m 200.4397,13.23882 v -6.32625 M 198.97046,9.96664 219.01443,26.67717 m 60.13193,145.30296 v -12.65246 m -140.3078,-45.20949 v -13.19254 m 60.1319,71.05449 v -9.75168 M 158.88254,56.25621 v -3.7186 M 339.27826,90.97339 V 80.14163 m -40.08795,42.60184 20.04397,17.94492 m 0,1.15725 -20.04397,13.31595 m 20.04397,-52.61581 v -8.91846 m -80.17587,101.49759 v -6.32623 M 198.97046,87.7794 178.92651,100.18501 M 279.14636,56.25621 V 43.60373 M 78.70663,102.54578 v -9.38135 m 80.17591,32.52614 V 112.86835 M 219.01443,90.97339 V 77.04022 m -40.08792,106.5123 v -6.86627 M 78.70663,125.69057 v -9.38137 m 120.26383,78.81571 v -9.38135 M 58.66267,90.97339 78.70663,96.21954 m -20.04396,17.89864 v -6.9743 m 160.35176,6.9743 V 98.87347 m -60.13189,14.65838 20.04397,10.84718 m 0,-33.40564 V 78.08946 m -40.08795,-15.50702 -20.04397,9.82883 m 240.52765,43.89793 -20.04398,18.67014 M 239.05841,102.54578 V 87.11592 m -80.17587,61.71944 v -15.15213 m 40.08792,38.2969 v -12.42102 m 100.21985,0.84864 v -5.24616 m -140.30777,16.81854 v -8.14697 m 60.13189,-64.95969 20.04398,12.34389"
       style="fill:none;stroke:#000000;stroke-width:0.22678;stroke-linecap:round;stroke-linejoin:round;stroke-miterlimit:10;stroke-dasharray:none;stroke-opacity:1"
       transform="matrix(1.3333333,0,0,-1.3333333,0,302.36267)" />
    <path
       id="path9"
       d="M 299.19031,160.40775 V 147.26151 M 138.83856,81.08286 118.79459,93.62732 m 0,42.55554 -20.04398,24.22489 m 140.3078,-72.33518 -20.04398,10.8009 m 60.13193,-50.76423 -20.04397,5.19987 m -40.08796,121.58728 -20.04397,15.24469 M 178.92651,37.81754 198.97046,43.83517 M 98.75061,114.11818 v -8.65616 m 140.3078,-17.68262 20.04398,12.40561 m 140.3078,2.36077 -20.04398,16.71054 M 178.92651,44.68382 V 36.04309 M 138.83856,67.8286 v -8.579 m 60.1319,20.1514 V 64.20259 m 20.04397,26.7708 V 75.77498 m -60.13189,-27.66574 20.04397,5.19987 m 120.2638,37.66428 v -9.89053 m -20.04395,21.46292 V 87.34737 m -160.35177,38.3432 v -8.91846 m 160.35177,8.91846 v -13.23882 m 0,-44.65401 -20.04397,7.74579 M 239.05841,33.11142 v -6.32623 m 100.21985,101.83706 -20.04398,16.49451 M 78.70663,125.69057 v -0.3086 m 280.61561,-6.01765 20.04397,17.89865 m -40.08795,0 v -2.28363 m -180.39572,33.2822 20.04397,6.65026 m -60.13192,-81.91709 20.04397,7.93093 m 40.08795,20.90746 -20.04397,15.39899 m 20.04397,-37.04708 20.04395,10.73918 M 319.23428,79.401 V 66.74852 m 20.04398,24.22487 v -2.28362 m -160.35175,-10.9552 20.04395,9.38135 m 60.13193,50.14705 v -13.23883 m 80.17587,-9.90596 v -7.63779 M 118.79459,102.54578 V 90.12474 m 100.21984,93.42778 v -8.65613 m 100.21985,-61.62686 20.04398,17.12714 m 20.04398,-4.7061 v -9.38137 m -20.04398,-2.19102 v -8.65616 M 219.01443,67.8286 V 56.67282 m 100.21985,45.87296 v -9.55107 m -40.08792,17.49745 20.04395,15.6613 m 0,-25.22782 20.04397,15.21384 m -100.21985,44.26827 v -11.1558 m 100.21985,-23.56138 v -8.91846 M 178.92651,137.26297 V 121.8331 m 0,-100.29407 20.04395,5.24616 m 40.08795,1.34239 -20.04398,7.90008 m 0,86.03688 20.04398,13.94861 M 198.97046,56.25621 v -9.55109"
       style="fill:none;stroke:#000000;stroke-width:0.22678;stroke-linecap:round;stroke-linejoin:round;stroke-miterlimit:10;stroke-dasharray:none;stroke-opacity:1"
       transform="matrix(1.3333333,0,0,-1.3333333,0,302.36267)" />
    <path
       id="path10"
       d="m 198.97046,125.69057 v -14.76638 m 80.1759,22.75904 20.04395,18.14551 m -40.08792,31.72378 v -10.83176 m -100.21985,-82.99719 20.04397,9.1962 m 0,84.63275 v -10.83176 m -60.13192,-70.17498 v -9.75167 m 120.26382,69.43434 -20.04398,13.68631 m 80.17588,-84.94137 v -11.1095 m -160.35175,80.54386 v -5.24616 m 240.52765,-41.04341 v -6.9743 M 158.88254,49.26648 138.83856,62.58244 M 239.05841,79.401 V 64.20259 m 40.08795,84.63277 V 137.23209 M 198.97046,33.11142 v -9.38135 m 20.04397,159.82245 v -7.63776 M 118.79459,79.401 v -3.7186 m 100.21984,136.15305 -20.04397,6.43426 M 319.23428,75.6824 l 20.04398,6.65027 m -100.21985,89.64746 v -9.75168 m -40.08795,32.89646 v -0.3086 M 98.75061,137.26297 v -2.28363 m 160.35178,-97.1618 -20.04398,6.01763 M 138.83856,114.11818 V 100.92564 M 239.05841,56.25621 v -9.75166 m 0,125.47558 v -8.91845 m -40.08795,-37.37111 v -15.42986 m 20.04397,3.85747 V 98.87347 m 20.04398,96.25144 v -9.38135 M 98.75061,88.68977 78.70663,93.16443 m 100.21988,20.95375 V 100.18501 M 239.05841,79.401 V 66.16219 m 40.08795,-9.90598 V 49.26648 M 118.79459,92.79411 98.75061,106.48039 M 118.79459,79.401 V 66.74852 m -60.13192,52.5078 -20.04397,6.43425 m 140.30781,11.5724 v -12.88394 m -40.08795,22.88248 -20.04397,24.71862 m 120.26382,-36.3836 -20.04398,13.65542 M 98.75061,84.1071 l 20.04398,6.01764 m -80.17589,12.42104 20.04397,16.71054 m 200.43972,-5.13814 v -13.93317 m -120.26383,37.07796 v -9.89055 M 158.88254,79.401 v -9.62823 m 80.17587,55.9178 V 110.26071 M 219.01443,37.04604 198.97046,46.50455 M 58.66267,114.11818 v 5.13814 m 80.17589,8.54814 20.04398,11.40266 m 120.26382,0 -20.04397,11.74213 M 178.92651,58.3701 158.88254,69.77277 m -80.17591,32.77301 v -0.3086"
       style="fill:none;stroke:#000000;stroke-width:0.22678;stroke-linecap:round;stroke-linejoin:round;stroke-miterlimit:10;stroke-dasharray:none;stroke-opacity:1"
       transform="matrix(1.3333333,0,0,-1.3333333,0,302.36267)" />
    <path
       id="path11"
       d="m 279.14636,148.83536 v -9.62824 m -20.04397,-1.94415 V 121.8331 m -20.04398,-11.57239 20.04398,13.76343 M 178.92651,44.68382 v -2.28363 m 20.04395,60.14559 V 87.7794 m 40.08795,45.85753 20.04398,15.66132 m -40.08796,-12.03528 v -15.19843 m 140.30781,-19.51876 v -9.38135 m -160.35178,55.67093 v -13.23883 m 0,-24.67234 20.04397,12.40561 m -80.17587,13.93317 V 126.15346 M 319.23428,79.401 v -3.7186 m -20.04397,38.43578 V 102.96239 M 158.88254,56.25621 V 43.60373 m 160.35174,92.57913 20.04398,24.22489 m -80.17587,-14.51951 20.04397,17.94492 M 198.97046,79.401 V 66.16219 m 140.3078,24.8112 V 82.33267 M 98.75061,126.4312 78.70663,148.83536 m 160.35178,0 v -12.15872 m 0,12.15872 v -12.82221 m -20.04398,24.3946 v -13.19254 m 20.04398,-123.48514 20.04398,18.67012 m -80.17588,48.5732 V 78.08946 m 40.08792,59.17351 V 123.3298 m 0,-55.5012 V 54.63608 m -80.17587,82.62689 v -9.45851 m 40.08795,-3.42543 20.04395,12.29761 M 158.88254,56.25621 v -8.14697 m 100.21985,29.98022 20.04397,12.29759 m 0,-10.98605 V 67.79774 m -20.04397,113.47118 -20.04398,4.47464 M 78.70663,79.401 98.75061,80.14163 m 80.1759,10.83176 V 77.73457 m 80.17588,94.98619 20.04397,22.40415 M 259.10239,67.8286 v -9.89054 m 0,33.03533 V 77.73457 m -140.3078,71.10079 v -12.6525 m 60.13192,24.22489 V 145.88824 M 158.88254,102.54578 V 90.38705 M 239.05841,33.11142 V 32.80283 M 138.83856,67.8286 v -5.24616 m -60.13193,39.96334 v -6.32624 m 120.26383,6.32624 V 88.07257 m 60.13193,95.47995 v -8.64072 m 0,-53.0787 20.04397,15.39899 M 158.88254,148.83536 V 137.23209 M 219.01443,21.53903 v -6.97429 m -100.21984,41.69147 20.04397,-1.57385 m 120.26383,59.43582 v -13.93317"
       style="fill:none;stroke:#000000;stroke-width:0.22678;stroke-linecap:round;stroke-linejoin:round;stroke-miterlimit:10;stroke-dasharray:none;stroke-opacity:1"
       transform="matrix(1.3333333,0,0,-1.3333333,0,302.36267)" />
    <path
       id="path12"
       d="m 138.83856,90.97339 v -9.4585 m 0,-22.26529 20.04398,4.99927 m 60.13189,110.64752 20.04398,15.24469 M 279.14636,56.25621 v -8.14697"
       style="fill:none;stroke:#000000;stroke-width:0.22678;stroke-linecap:round;stroke-linejoin:round;stroke-miterlimit:10;stroke-dasharray:none;stroke-opacity:1"
       transform="matrix(1.3333333,0,0,-1.3333333,0,302.36267)" />
    <path
       id="path13"
       d="M 379.36621,90.97339 178.92651,206.69733 M 279.14636,33.11142 78.70663,148.83536 m 0,-69.43436 200.43973,115.72391 M 259.10239,21.53903 58.66267,137.26297 M 359.32224,79.401 158.88254,195.12491 m 0,-162.01349 200.4397,115.72394 M 339.27826,67.8286 138.83856,183.55252 M 299.19031,44.68382 98.75061,160.40775 M 319.23428,56.25621 118.79459,171.98013 M 399.41019,102.54578 198.97046,218.26971 M 38.6187,102.54578 239.05841,218.26971 M 98.75061,67.8286 299.19031,183.55252 M 198.97046,9.96664 399.41019,125.69057 M 118.79459,56.25621 319.23428,171.98013 M 239.05841,9.96664 38.6187,125.69057 M 58.66267,90.97339 259.10239,206.69733 M 178.92651,21.53903 379.36621,137.26297 M 138.83856,44.68382 339.27826,160.40775 M 4.16699,120.2659 l 12.51987,7.22835 m -5.15524,-2.97638 -0.36824,-0.2126 m 5.52348,3.18898 v 0 l -5.58045,-2.23992 0.85039,-1.47291 4.73006,3.71283"
       style="fill:none;stroke:#000000;stroke-width:0.3685;stroke-linecap:round;stroke-linejoin:round;stroke-miterlimit:10;stroke-dasharray:none;stroke-opacity:1"
       transform="matrix(1.3333333,0,0,-1.3333333,0,302.36267)" />
    <path
       id="path14"
       d="m 11.9568,123.78142 4.73006,3.71283 -5.58045,-2.23992 z"
       style="fill:#000000;fill-opacity:1;fill-rule:nonzero;stroke:none"
       transform="matrix(1.3333333,0,0,-1.3333333,0,302.36267)" />
    <path
       id="path15"
       d="m 4.16699,120.2659 12.37342,-7.1438 m -5.15523,2.97638 -0.36824,0.2126 m 5.52347,-3.18898 v 0 l -4.73005,3.71285 -0.85038,-1.47292 5.58043,-2.23993"
       style="fill:none;stroke:#000000;stroke-width:0.3685;stroke-linecap:round;stroke-linejoin:round;stroke-miterlimit:10;stroke-dasharray:none;stroke-opacity:1"
       transform="matrix(1.3333333,0,0,-1.3333333,0,302.36267)" />
    <path
       id="path16"
       d="m 10.95998,115.36203 5.58043,-2.23993 -4.73005,3.71285 z"
       style="fill:#000000;fill-opacity:1;fill-rule:nonzero;stroke:none"
       transform="matrix(1.3333333,0,0,-1.3333333,0,302.36267)" />
    <path
       id="path17"
       d="m 4.16699,120.2659 v 16.08975 m 0,-5.95276 v -0.4252 m 0,6.37796 v 0 l -0.8504,-5.95276 h 1.70079 l -0.85039,5.95276"
       style="fill:none;stroke:#000000;stroke-width:0.3685;stroke-linecap:round;stroke-linejoin:round;stroke-miterlimit:10;stroke-dasharray:none;stroke-opacity:1"
       transform="matrix(1.3333333,0,0,-1.3333333,0,302.36267)" />
    <path
       id="path18"
       d="m 5.01738,130.40289 -0.85039,5.95276 -0.8504,-5.95276 z"
       style="fill:#000000;fill-opacity:1;fill-rule:nonzero;stroke:none"
       transform="matrix(1.3333333,0,0,-1.3333333,0,302.36267)" />
    <path
       id="path19"
       d="m 230.5311,109.05743 h 11.90551 v 11.05512 H 230.5311 Z"
       style="fill:#ffffff;fill-opacity:1;fill-rule:nonzero;stroke:none"
       transform="matrix(1.3333333,0,0,-1.3333333,0,302.36267)" />
    <text
       id="text19"
       xml:space="preserve"
       transform="matrix(1.3333333,0,0,1.3333333,308.13069,153.28661)"
       clip-path="url(#clipPath20)"><tspan
         style="font-style:italic;font-variant:normal;font-weight:normal;font-stretch:normal;font-size:8.0057px;font-family:'Palatino Linotype';writing-mode:lr-tb;fill:#000000;fill-opacity:1;fill-rule:nonzero;stroke:none"
         x="0"
         y="0"
         id="tspan19">M</tspan></text>
    <text
       id="text20"
       xml:space="preserve"
       transform="matrix(1.3333333,0,0,1.3333333,318.51501,157.69607)"
       clip-path="url(#clipPath21)"><tspan
         style="font-style:italic;font-variant:normal;font-weight:normal;font-stretch:normal;font-size:4.80342px;font-family:'Palatino Linotype';writing-mode:lr-tb;fill:#000000;fill-opacity:1;fill-rule:nonzero;stroke:none"
         x="0"
         y="0"
         id="tspan20">u</tspan></text>
    <text
       id="text21"
       xml:space="preserve"
       transform="matrix(1.3333333,0,0,1.3333333,24.037547,155.38831)"
       clip-path="url(#clipPath22)"><tspan
         style="font-style:italic;font-variant:normal;font-weight:normal;font-stretch:normal;font-size:10.0071px;font-family:'Palatino Linotype';writing-mode:lr-tb;fill:#000000;fill-opacity:1;fill-rule:nonzero;stroke:none"
         x="0"
         y="0"
         id="tspan21">X</tspan></text>
    <text
       id="text22"
       xml:space="preserve"
       transform="matrix(1.3333333,0,0,1.3333333,14.8818,129.44891)"
       clip-path="url(#clipPath23)"><tspan
         style="font-style:italic;font-variant:normal;font-weight:normal;font-stretch:normal;font-size:10.0071px;font-family:'Palatino Linotype';writing-mode:lr-tb;fill:#000000;fill-opacity:1;fill-rule:nonzero;stroke:none"
         x="0"
         y="0"
         id="tspan22">Y</tspan></text>
    <text
       id="text23"
       xml:space="preserve"
       transform="matrix(1.3333333,0,0,1.3333333,1.3595867,114.97263)"
       clip-path="url(#clipPath24)"><tspan
         style="font-style:italic;font-variant:normal;font-weight:normal;font-stretch:normal;font-size:10.0071px;font-family:'Palatino Linotype';writing-mode:lr-tb;fill:#000000;fill-opacity:1;fill-rule:nonzero;stroke:none"
         x="0"
         y="0"
         id="tspan23">Z</tspan></text>
    <text
       id="text24"
       xml:space="preserve"
       transform="matrix(1.3333333,0,0,1.3333333,1.3595867,83.60256)"
       clip-path="url(#clipPath25)"><tspan
         style="font-variant:normal;font-weight:normal;font-stretch:normal;font-size:10.0916px;font-family:'Palatino Linotype';writing-mode:lr-tb;fill:#000000;fill-opacity:1;fill-rule:nonzero;stroke:none"
         x="0 6.1659737 12.261306 14.784208 19.830013 22.352917 27.398722 29.921623 34.96743 40.013233"
         y="0"
         sodipodi:role="line"
         id="tspan24">LP = 0.400</tspan></text>
  </g>
</svg>
