<?xml version="1.0" encoding="UTF-8" standalone="no"?>
<!-- Created with Inkscape (http://www.inkscape.org/) -->

<svg
   version="1.1"
   id="svg1"
   width="566.92932"
   height="302.36267"
   viewBox="0 0 566.92932 302.36267"
   sodipodi:docname="quad_lpa2_m.pdf"
   xmlns:inkscape="http://www.inkscape.org/namespaces/inkscape"
   xmlns:sodipodi="http://sodipodi.sourceforge.net/DTD/sodipodi-0.dtd"
   xmlns="http://www.w3.org/2000/svg"
   xmlns:svg="http://www.w3.org/2000/svg">
  <defs
     id="defs1">
    <clipPath
       clipPathUnits="userSpaceOnUse"
       id="clipPath67">
      <path
         d="m -0.00426,-0.00227 v 226.7762 H 425.20111 V -0.00227 H -0.00426"
         transform="matrix(1,0,0,-1,-252.83694,99.852442)"
         clip-rule="evenodd"
         id="path67" />
    </clipPath>
    <clipPath
       clipPathUnits="userSpaceOnUse"
       id="clipPath68">
      <path
         d="m -0.00426,-0.00227 v 226.7762 H 425.20111 V -0.00227 H -0.00426"
         transform="matrix(1,0,0,-1,-260.62519,96.545355)"
         clip-rule="evenodd"
         id="path68" />
    </clipPath>
    <clipPath
       clipPathUnits="userSpaceOnUse"
       id="clipPath69">
      <path
         d="m -0.00426,-0.00227 v 226.7762 H 425.20111 V -0.00227 H -0.00426"
         transform="matrix(1,0,0,-1,-18.028131,110.23077)"
         clip-rule="evenodd"
         id="path69" />
    </clipPath>
    <clipPath
       clipPathUnits="userSpaceOnUse"
       id="clipPath70">
      <path
         d="m -0.00426,-0.00227 v 226.7762 H 425.20111 V -0.00227 H -0.00426"
         transform="matrix(1,0,0,-1,-11.16132,129.68531)"
         clip-rule="evenodd"
         id="path70" />
    </clipPath>
    <clipPath
       clipPathUnits="userSpaceOnUse"
       id="clipPath71">
      <path
         d="m -0.00426,-0.00227 v 226.7762 H 425.20111 V -0.00227 H -0.00426"
         transform="matrix(1,0,0,-1,-1.0196601,140.54252)"
         clip-rule="evenodd"
         id="path71" />
    </clipPath>
    <clipPath
       clipPathUnits="userSpaceOnUse"
       id="clipPath72">
      <path
         d="m -0.00426,-0.00227 v 226.7762 H 425.20111 V -0.00227 H -0.00426"
         transform="matrix(1,0,0,-1,-1.0196601,164.07007)"
         clip-rule="evenodd"
         id="path72" />
    </clipPath>
  </defs>
  <sodipodi:namedview
     id="namedview1"
     pagecolor="#ffffff"
     bordercolor="#000000"
     borderopacity="0.25"
     inkscape:showpageshadow="2"
     inkscape:pageopacity="0.0"
     inkscape:pagecheckerboard="0"
     inkscape:deskcolor="#d1d1d1">
    <inkscape:page
       x="0"
       y="0"
       inkscape:label="1"
       id="page1"
       width="566.92932"
       height="302.36267"
       margin="0"
       bleed="0" />
  </sodipodi:namedview>
  <g
     id="g1"
     inkscape:groupmode="layer"
     inkscape:label="1">
    <path
       id="path1"
       d="m 221.84906,183.55252 c 0,1.56552 -1.2691,2.83466 -2.83466,2.83466 m 0,0 c -1.56552,0 -2.83462,-1.26914 -2.83462,-2.83466 m 0,0 c 0,-1.56552 1.2691,-2.83466 2.83462,-2.83466 m 0,0 c 1.56556,0 2.83466,1.26914 2.83466,2.83466"
       style="fill:none;stroke:#000000;stroke-width:0.3685;stroke-linecap:round;stroke-linejoin:round;stroke-miterlimit:10;stroke-dasharray:none;stroke-opacity:1"
       transform="matrix(1.3333333,0,0,-1.3333333,0,302.36267)" />
    <path
       id="path2"
       d="m 221.84906,160.40775 c 0,1.56552 -1.2691,2.83462 -2.83466,2.83462 m 0,0 c -1.56552,0 -2.83462,-1.2691 -2.83462,-2.83462 m 0,0 c 0,-1.56556 1.2691,-2.83466 2.83462,-2.83466 m 0,0 c 1.56556,0 2.83466,1.2691 2.83466,2.83466"
       style="fill:none;stroke:#000000;stroke-width:0.3685;stroke-linecap:round;stroke-linejoin:round;stroke-miterlimit:10;stroke-dasharray:none;stroke-opacity:1"
       transform="matrix(1.3333333,0,0,-1.3333333,0,302.36267)" />
    <path
       id="path3"
       d="m 241.89304,171.98013 c 0,1.56552 -1.26911,2.83466 -2.83466,2.83466 m 0,0 c -1.56552,0 -2.83463,-1.26914 -2.83463,-2.83466 m 0,0 c 0,-1.56552 1.26911,-2.83465 2.83463,-2.83465 m 0,0 c 1.56555,0 2.83466,1.26913 2.83466,2.83465"
       style="fill:none;stroke:#000000;stroke-width:0.3685;stroke-linecap:round;stroke-linejoin:round;stroke-miterlimit:10;stroke-dasharray:none;stroke-opacity:1"
       transform="matrix(1.3333333,0,0,-1.3333333,0,302.36267)" />
    <path
       id="path4"
       d="m 201.80508,171.98013 c 0,1.56552 -1.2691,2.83466 -2.83462,2.83466 m 0,0 c -1.56555,0 -2.83466,-1.26914 -2.83466,-2.83466 m 0,0 c 0,-1.56552 1.26911,-2.83465 2.83466,-2.83465 m 0,0 c 1.56552,0 2.83462,1.26913 2.83462,2.83465"
       style="fill:none;stroke:#000000;stroke-width:0.3685;stroke-linecap:round;stroke-linejoin:round;stroke-miterlimit:10;stroke-dasharray:none;stroke-opacity:1"
       transform="matrix(1.3333333,0,0,-1.3333333,0,302.36267)" />
    <path
       id="path5"
       d="m 181.76111,160.40775 c 0,1.56552 -1.26911,2.83462 -2.83463,2.83462 m 0,0 c -1.56555,0 -2.83465,-1.2691 -2.83465,-2.83462 m 0,0 c 0,-1.56556 1.2691,-2.83466 2.83465,-2.83466 m 0,0 c 1.56552,0 2.83463,1.2691 2.83463,2.83466"
       style="fill:none;stroke:#000000;stroke-width:0.3685;stroke-linecap:round;stroke-linejoin:round;stroke-miterlimit:10;stroke-dasharray:none;stroke-opacity:1"
       transform="matrix(1.3333333,0,0,-1.3333333,0,302.36267)" />
    <path
       id="path6"
       d="m 181.76111,137.26297 c 0,1.56552 -1.26911,2.83463 -2.83463,2.83463 m 0,0 c -1.56555,0 -2.83465,-1.26911 -2.83465,-2.83463 m 0,0 c 0,-1.56555 1.2691,-2.83466 2.83465,-2.83466 m 0,0 c 1.56552,0 2.83463,1.26911 2.83463,2.83466"
       style="fill:none;stroke:#000000;stroke-width:0.3685;stroke-linecap:round;stroke-linejoin:round;stroke-miterlimit:10;stroke-dasharray:none;stroke-opacity:1"
       transform="matrix(1.3333333,0,0,-1.3333333,0,302.36267)" />
    <path
       id="path7"
       d="m 201.80508,148.83536 c 0,1.56552 -1.2691,2.83462 -2.83462,2.83462 m 0,0 c -1.56555,0 -2.83466,-1.2691 -2.83466,-2.83462 m 0,0 c 0,-1.56555 1.26911,-2.83466 2.83466,-2.83466 m 0,0 c 1.56552,0 2.83462,1.26911 2.83462,2.83466"
       style="fill:none;stroke:#000000;stroke-width:0.3685;stroke-linecap:round;stroke-linejoin:round;stroke-miterlimit:10;stroke-dasharray:none;stroke-opacity:1"
       transform="matrix(1.3333333,0,0,-1.3333333,0,302.36267)" />
    <path
       id="path8"
       d="m 161.71716,148.83536 c 0,1.56552 -1.26913,2.83462 -2.83465,2.83462 m 0,0 c -1.56552,0 -2.83466,-1.2691 -2.83466,-2.83462 m 0,0 c 0,-1.56555 1.26914,-2.83466 2.83466,-2.83466 m 0,0 c 1.56552,0 2.83465,1.26911 2.83465,2.83466"
       style="fill:none;stroke:#000000;stroke-width:0.3685;stroke-linecap:round;stroke-linejoin:round;stroke-miterlimit:10;stroke-dasharray:none;stroke-opacity:1"
       transform="matrix(1.3333333,0,0,-1.3333333,0,302.36267)" />
    <path
       id="path9"
       d="m 141.67319,137.26297 c 0,1.56552 -1.26914,2.83463 -2.83466,2.83463 m 0,0 c -1.56552,0 -2.83465,-1.26911 -2.83465,-2.83463 m 0,0 c 0,-1.56555 1.26913,-2.83466 2.83465,-2.83466 m 0,0 c 1.56552,0 2.83466,1.26911 2.83466,2.83466"
       style="fill:none;stroke:#000000;stroke-width:0.3685;stroke-linecap:round;stroke-linejoin:round;stroke-miterlimit:10;stroke-dasharray:none;stroke-opacity:1"
       transform="matrix(1.3333333,0,0,-1.3333333,0,302.36267)" />
    <path
       id="path10"
       d="m 141.67319,114.11816 c 0,1.56554 -1.26914,2.83466 -2.83466,2.83466 m 0,0 c -1.56552,0 -2.83465,-1.26912 -2.83465,-2.83466 m 0,0 c 0,-1.56552 1.26913,-2.83464 2.83465,-2.83464 m 0,0 c 1.56552,0 2.83466,1.26912 2.83466,2.83464"
       style="fill:none;stroke:#000000;stroke-width:0.3685;stroke-linecap:round;stroke-linejoin:round;stroke-miterlimit:10;stroke-dasharray:none;stroke-opacity:1"
       transform="matrix(1.3333333,0,0,-1.3333333,0,302.36267)" />
    <path
       id="path11"
       d="m 161.71716,125.69055 c 0,1.56554 -1.26913,2.83466 -2.83465,2.83466 m 0,0 c -1.56552,0 -2.83466,-1.26912 -2.83466,-2.83466 m 0,0 c 0,-1.56552 1.26914,-2.83464 2.83466,-2.83464 m 0,0 c 1.56552,0 2.83465,1.26912 2.83465,2.83464"
       style="fill:none;stroke:#000000;stroke-width:0.3685;stroke-linecap:round;stroke-linejoin:round;stroke-miterlimit:10;stroke-dasharray:none;stroke-opacity:1"
       transform="matrix(1.3333333,0,0,-1.3333333,0,302.36267)" />
    <path
       id="path12"
       d="m 121.6292,125.69055 c 0,1.56554 -1.26911,2.83466 -2.83464,2.83466 m 0,0 c -1.56554,0 -2.83464,-1.26912 -2.83464,-2.83466 m 0,0 c 0,-1.56552 1.2691,-2.83464 2.83464,-2.83464 m 0,0 c 1.56553,0 2.83464,1.26912 2.83464,2.83464"
       style="fill:none;stroke:#000000;stroke-width:0.3685;stroke-linecap:round;stroke-linejoin:round;stroke-miterlimit:10;stroke-dasharray:none;stroke-opacity:1"
       transform="matrix(1.3333333,0,0,-1.3333333,0,302.36267)" />
    <path
       id="path13"
       d="m 181.76111,114.11816 c 0,1.56554 -1.26911,2.83466 -2.83463,2.83466 m 0,0 c -1.56555,0 -2.83465,-1.26912 -2.83465,-2.83466 m 0,0 c 0,-1.56552 1.2691,-2.83464 2.83465,-2.83464 m 0,0 c 1.56552,0 2.83463,1.26912 2.83463,2.83464"
       style="fill:none;stroke:#000000;stroke-width:0.3685;stroke-linecap:round;stroke-linejoin:round;stroke-miterlimit:10;stroke-dasharray:none;stroke-opacity:1"
       transform="matrix(1.3333333,0,0,-1.3333333,0,302.36267)" />
    <path
       id="path14"
       d="m 181.76111,90.97339 c 0,1.56552 -1.26911,2.83464 -2.83463,2.83464 m 0,0 c -1.56555,0 -2.83465,-1.26912 -2.83465,-2.83464 m 0,0 c 0,-1.56554 1.2691,-2.83466 2.83465,-2.83466 m 0,0 c 1.56552,0 2.83463,1.26912 2.83463,2.83466"
       style="fill:none;stroke:#000000;stroke-width:0.3685;stroke-linecap:round;stroke-linejoin:round;stroke-miterlimit:10;stroke-dasharray:none;stroke-opacity:1"
       transform="matrix(1.3333333,0,0,-1.3333333,0,302.36267)" />
    <path
       id="path15"
       d="m 201.80508,102.54578 c 0,1.56553 -1.2691,2.83464 -2.83462,2.83464 m 0,0 c -1.56555,0 -2.83466,-1.26911 -2.83466,-2.83464 m 0,0 c 0,-1.56554 1.26911,-2.83464 2.83466,-2.83464 m 0,0 c 1.56552,0 2.83462,1.2691 2.83462,2.83464"
       style="fill:none;stroke:#000000;stroke-width:0.3685;stroke-linecap:round;stroke-linejoin:round;stroke-miterlimit:10;stroke-dasharray:none;stroke-opacity:1"
       transform="matrix(1.3333333,0,0,-1.3333333,0,302.36267)" />
    <path
       id="path16"
       d="m 161.71716,102.54578 c 0,1.56553 -1.26913,2.83464 -2.83465,2.83464 m 0,0 c -1.56552,0 -2.83466,-1.26911 -2.83466,-2.83464 m 0,0 c 0,-1.56554 1.26914,-2.83464 2.83466,-2.83464 m 0,0 c 1.56552,0 2.83465,1.2691 2.83465,2.83464"
       style="fill:none;stroke:#000000;stroke-width:0.3685;stroke-linecap:round;stroke-linejoin:round;stroke-miterlimit:10;stroke-dasharray:none;stroke-opacity:1"
       transform="matrix(1.3333333,0,0,-1.3333333,0,302.36267)" />
    <path
       id="path17"
       d="m 221.84906,90.97339 c 0,1.56552 -1.2691,2.83464 -2.83466,2.83464 m 0,0 c -1.56552,0 -2.83462,-1.26912 -2.83462,-2.83464 m 0,0 c 0,-1.56554 1.2691,-2.83466 2.83462,-2.83466 m 0,0 c 1.56556,0 2.83466,1.26912 2.83466,2.83466"
       style="fill:none;stroke:#000000;stroke-width:0.3685;stroke-linecap:round;stroke-linejoin:round;stroke-miterlimit:10;stroke-dasharray:none;stroke-opacity:1"
       transform="matrix(1.3333333,0,0,-1.3333333,0,302.36267)" />
    <path
       id="path18"
       d="m 221.84906,67.8286 c 0,1.56553 -1.2691,2.83464 -2.83466,2.83464 m 0,0 c -1.56552,0 -2.83462,-1.26911 -2.83462,-2.83464 m 0,0 c 0,-1.56554 1.2691,-2.83464 2.83462,-2.83464 m 0,0 c 1.56556,0 2.83466,1.2691 2.83466,2.83464"
       style="fill:none;stroke:#000000;stroke-width:0.3685;stroke-linecap:round;stroke-linejoin:round;stroke-miterlimit:10;stroke-dasharray:none;stroke-opacity:1"
       transform="matrix(1.3333333,0,0,-1.3333333,0,302.36267)" />
    <path
       id="path19"
       d="m 241.89304,79.40099 c 0,1.56553 -1.26911,2.83465 -2.83466,2.83465 m 0,0 c -1.56552,0 -2.83463,-1.26912 -2.83463,-2.83465 m 0,0 c 0,-1.56553 1.26911,-2.83464 2.83463,-2.83464 m 0,0 c 1.56555,0 2.83466,1.26911 2.83466,2.83464"
       style="fill:none;stroke:#000000;stroke-width:0.3685;stroke-linecap:round;stroke-linejoin:round;stroke-miterlimit:10;stroke-dasharray:none;stroke-opacity:1"
       transform="matrix(1.3333333,0,0,-1.3333333,0,302.36267)" />
    <path
       id="path20"
       d="m 201.80508,79.40099 c 0,1.56553 -1.2691,2.83465 -2.83462,2.83465 m 0,0 c -1.56555,0 -2.83466,-1.26912 -2.83466,-2.83465 m 0,0 c 0,-1.56553 1.26911,-2.83464 2.83466,-2.83464 m 0,0 c 1.56552,0 2.83462,1.26911 2.83462,2.83464"
       style="fill:none;stroke:#000000;stroke-width:0.3685;stroke-linecap:round;stroke-linejoin:round;stroke-miterlimit:10;stroke-dasharray:none;stroke-opacity:1"
       transform="matrix(1.3333333,0,0,-1.3333333,0,302.36267)" />
    <path
       id="path21"
       d="m 261.93701,114.11816 c 0,1.56554 -1.26913,2.83466 -2.83465,2.83466 m 0,0 c -1.56553,0 -2.83466,-1.26912 -2.83466,-2.83466 m 0,0 c 0,-1.56552 1.26913,-2.83464 2.83466,-2.83464 m 0,0 c 1.56552,0 2.83465,1.26912 2.83465,2.83464"
       style="fill:none;stroke:#000000;stroke-width:0.3685;stroke-linecap:round;stroke-linejoin:round;stroke-miterlimit:10;stroke-dasharray:none;stroke-opacity:1"
       transform="matrix(1.3333333,0,0,-1.3333333,0,302.36267)" />
    <path
       id="path22"
       d="m 261.93701,90.97339 c 0,1.56552 -1.26913,2.83464 -2.83465,2.83464 m 0,0 c -1.56553,0 -2.83466,-1.26912 -2.83466,-2.83464 m 0,0 c 0,-1.56554 1.26913,-2.83466 2.83466,-2.83466 m 0,0 c 1.56552,0 2.83465,1.26912 2.83465,2.83466"
       style="fill:none;stroke:#000000;stroke-width:0.3685;stroke-linecap:round;stroke-linejoin:round;stroke-miterlimit:10;stroke-dasharray:none;stroke-opacity:1"
       transform="matrix(1.3333333,0,0,-1.3333333,0,302.36267)" />
    <path
       id="path23"
       d="m 281.98096,102.54578 c 0,1.56553 -1.26911,2.83464 -2.83463,2.83464 m 0,0 c -1.56555,0 -2.83465,-1.26911 -2.83465,-2.83464 m 0,0 c 0,-1.56554 1.2691,-2.83464 2.83465,-2.83464 m 0,0 c 1.56552,0 2.83463,1.2691 2.83463,2.83464"
       style="fill:none;stroke:#000000;stroke-width:0.3685;stroke-linecap:round;stroke-linejoin:round;stroke-miterlimit:10;stroke-dasharray:none;stroke-opacity:1"
       transform="matrix(1.3333333,0,0,-1.3333333,0,302.36267)" />
    <path
       id="path24"
       d="m 241.89304,102.54578 c 0,1.56553 -1.26911,2.83464 -2.83466,2.83464 m 0,0 c -1.56552,0 -2.83463,-1.26911 -2.83463,-2.83464 m 0,0 c 0,-1.56554 1.26911,-2.83464 2.83463,-2.83464 m 0,0 c 1.56555,0 2.83466,1.2691 2.83466,2.83464"
       style="fill:none;stroke:#000000;stroke-width:0.3685;stroke-linecap:round;stroke-linejoin:round;stroke-miterlimit:10;stroke-dasharray:none;stroke-opacity:1"
       transform="matrix(1.3333333,0,0,-1.3333333,0,302.36267)" />
    <path
       id="path25"
       d="m 302.02493,137.26297 c 0,1.56552 -1.2691,2.83463 -2.83462,2.83463 m 0,0 c -1.56555,0 -2.83466,-1.26911 -2.83466,-2.83463 m 0,0 c 0,-1.56555 1.26911,-2.83466 2.83466,-2.83466 m 0,0 c 1.56552,0 2.83462,1.26911 2.83462,2.83466"
       style="fill:none;stroke:#000000;stroke-width:0.3685;stroke-linecap:round;stroke-linejoin:round;stroke-miterlimit:10;stroke-dasharray:none;stroke-opacity:1"
       transform="matrix(1.3333333,0,0,-1.3333333,0,302.36267)" />
    <path
       id="path26"
       d="m 302.02493,114.11816 c 0,1.56554 -1.2691,2.83466 -2.83462,2.83466 m 0,0 c -1.56555,0 -2.83466,-1.26912 -2.83466,-2.83466 m 0,0 c 0,-1.56552 1.26911,-2.83464 2.83466,-2.83464 m 0,0 c 1.56552,0 2.83462,1.26912 2.83462,2.83464"
       style="fill:none;stroke:#000000;stroke-width:0.3685;stroke-linecap:round;stroke-linejoin:round;stroke-miterlimit:10;stroke-dasharray:none;stroke-opacity:1"
       transform="matrix(1.3333333,0,0,-1.3333333,0,302.36267)" />
    <path
       id="path27"
       d="m 322.06891,125.69055 c 0,1.56554 -1.26911,2.83466 -2.83466,2.83466 m 0,0 c -1.56552,0 -2.83462,-1.26912 -2.83462,-2.83466 m 0,0 c 0,-1.56552 1.2691,-2.83464 2.83462,-2.83464 m 0,0 c 1.56555,0 2.83466,1.26912 2.83466,2.83464"
       style="fill:none;stroke:#000000;stroke-width:0.3685;stroke-linecap:round;stroke-linejoin:round;stroke-miterlimit:10;stroke-dasharray:none;stroke-opacity:1"
       transform="matrix(1.3333333,0,0,-1.3333333,0,302.36267)" />
    <path
       id="path28"
       d="m 281.98096,125.69055 c 0,1.56554 -1.26911,2.83466 -2.83463,2.83466 m 0,0 c -1.56555,0 -2.83465,-1.26912 -2.83465,-2.83466 m 0,0 c 0,-1.56552 1.2691,-2.83464 2.83465,-2.83464 m 0,0 c 1.56552,0 2.83463,1.26912 2.83463,2.83464"
       style="fill:none;stroke:#000000;stroke-width:0.3685;stroke-linecap:round;stroke-linejoin:round;stroke-miterlimit:10;stroke-dasharray:none;stroke-opacity:1"
       transform="matrix(1.3333333,0,0,-1.3333333,0,302.36267)" />
    <path
       id="path29"
       d="m 261.93701,160.40775 c 0,1.56552 -1.26913,2.83462 -2.83465,2.83462 m 0,0 c -1.56553,0 -2.83466,-1.2691 -2.83466,-2.83462 m 0,0 c 0,-1.56556 1.26913,-2.83466 2.83466,-2.83466 m 0,0 c 1.56552,0 2.83465,1.2691 2.83465,2.83466"
       style="fill:none;stroke:#000000;stroke-width:0.3685;stroke-linecap:round;stroke-linejoin:round;stroke-miterlimit:10;stroke-dasharray:none;stroke-opacity:1"
       transform="matrix(1.3333333,0,0,-1.3333333,0,302.36267)" />
    <path
       id="path30"
       d="m 261.93701,137.26297 c 0,1.56552 -1.26913,2.83463 -2.83465,2.83463 m 0,0 c -1.56553,0 -2.83466,-1.26911 -2.83466,-2.83463 m 0,0 c 0,-1.56555 1.26913,-2.83466 2.83466,-2.83466 m 0,0 c 1.56552,0 2.83465,1.26911 2.83465,2.83466"
       style="fill:none;stroke:#000000;stroke-width:0.3685;stroke-linecap:round;stroke-linejoin:round;stroke-miterlimit:10;stroke-dasharray:none;stroke-opacity:1"
       transform="matrix(1.3333333,0,0,-1.3333333,0,302.36267)" />
    <path
       id="path31"
       d="m 281.98096,148.83536 c 0,1.56552 -1.26911,2.83462 -2.83463,2.83462 m 0,0 c -1.56555,0 -2.83465,-1.2691 -2.83465,-2.83462 m 0,0 c 0,-1.56555 1.2691,-2.83466 2.83465,-2.83466 m 0,0 c 1.56552,0 2.83463,1.26911 2.83463,2.83466"
       style="fill:none;stroke:#000000;stroke-width:0.3685;stroke-linecap:round;stroke-linejoin:round;stroke-miterlimit:10;stroke-dasharray:none;stroke-opacity:1"
       transform="matrix(1.3333333,0,0,-1.3333333,0,302.36267)" />
    <path
       id="path32"
       d="m 241.89304,148.83536 c 0,1.56552 -1.26911,2.83462 -2.83466,2.83462 m 0,0 c -1.56552,0 -2.83463,-1.2691 -2.83463,-2.83462 m 0,0 c 0,-1.56555 1.26911,-2.83466 2.83463,-2.83466 m 0,0 c 1.56555,0 2.83466,1.26911 2.83466,2.83466"
       style="fill:none;stroke:#000000;stroke-width:0.3685;stroke-linecap:round;stroke-linejoin:round;stroke-miterlimit:10;stroke-dasharray:none;stroke-opacity:1"
       transform="matrix(1.3333333,0,0,-1.3333333,0,302.36267)" />
    <path
       id="path33"
       d="m 221.84906,137.26297 c 0,1.56552 -1.2691,2.83463 -2.83466,2.83463 m 0,0 c -1.56552,0 -2.83462,-1.26911 -2.83462,-2.83463 m 0,0 c 0,-1.56555 1.2691,-2.83466 2.83462,-2.83466 m 0,0 c 1.56556,0 2.83466,1.26911 2.83466,2.83466"
       style="fill:none;stroke:#000000;stroke-width:0.3685;stroke-linecap:round;stroke-linejoin:round;stroke-miterlimit:10;stroke-dasharray:none;stroke-opacity:1"
       transform="matrix(1.3333333,0,0,-1.3333333,0,302.36267)" />
    <path
       id="path34"
       d="m 221.84906,114.11816 c 0,1.56554 -1.2691,2.83466 -2.83466,2.83466 m 0,0 c -1.56552,0 -2.83462,-1.26912 -2.83462,-2.83466 m 0,0 c 0,-1.56552 1.2691,-2.83464 2.83462,-2.83464 m 0,0 c 1.56556,0 2.83466,1.26912 2.83466,2.83464"
       style="fill:none;stroke:#000000;stroke-width:0.3685;stroke-linecap:round;stroke-linejoin:round;stroke-miterlimit:10;stroke-dasharray:none;stroke-opacity:1"
       transform="matrix(1.3333333,0,0,-1.3333333,0,302.36267)" />
    <path
       id="path35"
       d="m 241.89304,125.69055 c 0,1.56554 -1.26911,2.83466 -2.83466,2.83466 m 0,0 c -1.56552,0 -2.83463,-1.26912 -2.83463,-2.83466 m 0,0 c 0,-1.56552 1.26911,-2.83464 2.83463,-2.83464 m 0,0 c 1.56555,0 2.83466,1.26912 2.83466,2.83464"
       style="fill:none;stroke:#000000;stroke-width:0.3685;stroke-linecap:round;stroke-linejoin:round;stroke-miterlimit:10;stroke-dasharray:none;stroke-opacity:1"
       transform="matrix(1.3333333,0,0,-1.3333333,0,302.36267)" />
    <path
       id="path36"
       d="m 201.80508,125.69055 c 0,1.56554 -1.2691,2.83466 -2.83462,2.83466 m 0,0 c -1.56555,0 -2.83466,-1.26912 -2.83466,-2.83466 m 0,0 c 0,-1.56552 1.26911,-2.83464 2.83466,-2.83464 m 0,0 c 1.56552,0 2.83462,1.26912 2.83462,2.83464"
       style="fill:none;stroke:#000000;stroke-width:0.3685;stroke-linecap:round;stroke-linejoin:round;stroke-miterlimit:10;stroke-dasharray:none;stroke-opacity:1"
       transform="matrix(1.3333333,0,0,-1.3333333,0,302.36267)" />
    <path
       id="path37"
       d="m 101.58524,114.11816 c 0,1.56554 -1.26912,2.83466 -2.83466,2.83466 m 0,0 c -1.56552,0 -2.83464,-1.26912 -2.83464,-2.83466 m 0,0 c 0,-1.56552 1.26912,-2.83464 2.83464,-2.83464 m 0,0 c 1.56554,0 2.83466,1.26912 2.83466,2.83464"
       style="fill:none;stroke:#000000;stroke-width:0.3685;stroke-linecap:round;stroke-linejoin:round;stroke-miterlimit:10;stroke-dasharray:none;stroke-opacity:1"
       transform="matrix(1.3333333,0,0,-1.3333333,0,302.36267)" />
    <path
       id="path38"
       d="m 121.6292,102.54578 c 0,1.56553 -1.26911,2.83464 -2.83464,2.83464 m 0,0 c -1.56554,0 -2.83464,-1.26911 -2.83464,-2.83464 m 0,0 c 0,-1.56554 1.2691,-2.83464 2.83464,-2.83464 m 0,0 c 1.56553,0 2.83464,1.2691 2.83464,2.83464"
       style="fill:none;stroke:#000000;stroke-width:0.3685;stroke-linecap:round;stroke-linejoin:round;stroke-miterlimit:10;stroke-dasharray:none;stroke-opacity:1"
       transform="matrix(1.3333333,0,0,-1.3333333,0,302.36267)" />
    <path
       id="path39"
       d="m 141.67319,90.97339 c 0,1.56552 -1.26914,2.83464 -2.83466,2.83464 m 0,0 c -1.56552,0 -2.83465,-1.26912 -2.83465,-2.83464 m 0,0 c 0,-1.56554 1.26913,-2.83466 2.83465,-2.83466 m 0,0 c 1.56552,0 2.83466,1.26912 2.83466,2.83466"
       style="fill:none;stroke:#000000;stroke-width:0.3685;stroke-linecap:round;stroke-linejoin:round;stroke-miterlimit:10;stroke-dasharray:none;stroke-opacity:1"
       transform="matrix(1.3333333,0,0,-1.3333333,0,302.36267)" />
    <path
       id="path40"
       d="m 161.71716,79.40099 c 0,1.56553 -1.26913,2.83465 -2.83465,2.83465 m 0,0 c -1.56552,0 -2.83466,-1.26912 -2.83466,-2.83465 m 0,0 c 0,-1.56553 1.26914,-2.83464 2.83466,-2.83464 m 0,0 c 1.56552,0 2.83465,1.26911 2.83465,2.83464"
       style="fill:none;stroke:#000000;stroke-width:0.3685;stroke-linecap:round;stroke-linejoin:round;stroke-miterlimit:10;stroke-dasharray:none;stroke-opacity:1"
       transform="matrix(1.3333333,0,0,-1.3333333,0,302.36267)" />
    <path
       id="path41"
       d="m 181.76111,67.8286 c 0,1.56553 -1.26911,2.83464 -2.83463,2.83464 m 0,0 c -1.56555,0 -2.83465,-1.26911 -2.83465,-2.83464 m 0,0 c 0,-1.56554 1.2691,-2.83464 2.83465,-2.83464 m 0,0 c 1.56552,0 2.83463,1.2691 2.83463,2.83464"
       style="fill:none;stroke:#000000;stroke-width:0.3685;stroke-linecap:round;stroke-linejoin:round;stroke-miterlimit:10;stroke-dasharray:none;stroke-opacity:1"
       transform="matrix(1.3333333,0,0,-1.3333333,0,302.36267)" />
    <path
       id="path42"
       d="m 201.80508,56.25621 c 0,1.56552 -1.2691,2.83464 -2.83462,2.83464 m 0,0 c -1.56555,0 -2.83466,-1.26912 -2.83466,-2.83464 m 0,0 c 0,-1.56554 1.26911,-2.83466 2.83466,-2.83466 m 0,0 c 1.56552,0 2.83462,1.26912 2.83462,2.83466"
       style="fill:none;stroke:#000000;stroke-width:0.3685;stroke-linecap:round;stroke-linejoin:round;stroke-miterlimit:10;stroke-dasharray:none;stroke-opacity:1"
       transform="matrix(1.3333333,0,0,-1.3333333,0,302.36267)" />
    <path
       id="path43"
       d="m 221.84906,44.68381 c 0,1.56553 -1.2691,2.83465 -2.83466,2.83465 m 0,0 c -1.56552,0 -2.83462,-1.26912 -2.83462,-2.83465 m 0,0 c 0,-1.56552 1.2691,-2.83464 2.83462,-2.83464 m 0,0 c 1.56556,0 2.83466,1.26912 2.83466,2.83464"
       style="fill:none;stroke:#000000;stroke-width:0.3685;stroke-linecap:round;stroke-linejoin:round;stroke-miterlimit:10;stroke-dasharray:none;stroke-opacity:1"
       transform="matrix(1.3333333,0,0,-1.3333333,0,302.36267)" />
    <path
       id="path44"
       d="m 241.89304,56.25621 c 0,1.56552 -1.26911,2.83464 -2.83466,2.83464 m 0,0 c -1.56552,0 -2.83463,-1.26912 -2.83463,-2.83464 m 0,0 c 0,-1.56554 1.26911,-2.83466 2.83463,-2.83466 m 0,0 c 1.56555,0 2.83466,1.26912 2.83466,2.83466"
       style="fill:none;stroke:#000000;stroke-width:0.3685;stroke-linecap:round;stroke-linejoin:round;stroke-miterlimit:10;stroke-dasharray:none;stroke-opacity:1"
       transform="matrix(1.3333333,0,0,-1.3333333,0,302.36267)" />
    <path
       id="path45"
       d="m 261.93701,67.8286 c 0,1.56553 -1.26913,2.83464 -2.83465,2.83464 m 0,0 c -1.56553,0 -2.83466,-1.26911 -2.83466,-2.83464 m 0,0 c 0,-1.56554 1.26913,-2.83464 2.83466,-2.83464 m 0,0 c 1.56552,0 2.83465,1.2691 2.83465,2.83464"
       style="fill:none;stroke:#000000;stroke-width:0.3685;stroke-linecap:round;stroke-linejoin:round;stroke-miterlimit:10;stroke-dasharray:none;stroke-opacity:1"
       transform="matrix(1.3333333,0,0,-1.3333333,0,302.36267)" />
    <path
       id="path46"
       d="m 281.98096,79.40099 c 0,1.56553 -1.26911,2.83465 -2.83463,2.83465 m 0,0 c -1.56555,0 -2.83465,-1.26912 -2.83465,-2.83465 m 0,0 c 0,-1.56553 1.2691,-2.83464 2.83465,-2.83464 m 0,0 c 1.56552,0 2.83463,1.26911 2.83463,2.83464"
       style="fill:none;stroke:#000000;stroke-width:0.3685;stroke-linecap:round;stroke-linejoin:round;stroke-miterlimit:10;stroke-dasharray:none;stroke-opacity:1"
       transform="matrix(1.3333333,0,0,-1.3333333,0,302.36267)" />
    <path
       id="path47"
       d="m 302.02493,90.97339 c 0,1.56552 -1.2691,2.83464 -2.83462,2.83464 m 0,0 c -1.56555,0 -2.83466,-1.26912 -2.83466,-2.83464 m 0,0 c 0,-1.56554 1.26911,-2.83466 2.83466,-2.83466 m 0,0 c 1.56552,0 2.83462,1.26912 2.83462,2.83466"
       style="fill:none;stroke:#000000;stroke-width:0.3685;stroke-linecap:round;stroke-linejoin:round;stroke-miterlimit:10;stroke-dasharray:none;stroke-opacity:1"
       transform="matrix(1.3333333,0,0,-1.3333333,0,302.36267)" />
    <path
       id="path48"
       d="m 322.06891,102.54578 c 0,1.56553 -1.26911,2.83464 -2.83466,2.83464 m 0,0 c -1.56552,0 -2.83462,-1.26911 -2.83462,-2.83464 m 0,0 c 0,-1.56554 1.2691,-2.83464 2.83462,-2.83464 m 0,0 c 1.56555,0 2.83466,1.2691 2.83466,2.83464"
       style="fill:none;stroke:#000000;stroke-width:0.3685;stroke-linecap:round;stroke-linejoin:round;stroke-miterlimit:10;stroke-dasharray:none;stroke-opacity:1"
       transform="matrix(1.3333333,0,0,-1.3333333,0,302.36267)" />
    <path
       id="path49"
       d="m 342.11288,114.11816 c 0,1.56554 -1.2691,2.83466 -2.83465,2.83466 m 0,0 c -1.56552,0 -2.83463,-1.26912 -2.83463,-2.83466 m 0,0 c 0,-1.56552 1.26911,-2.83464 2.83463,-2.83464 m 0,0 c 1.56555,0 2.83465,1.26912 2.83465,2.83464"
       style="fill:none;stroke:#000000;stroke-width:0.3685;stroke-linecap:round;stroke-linejoin:round;stroke-miterlimit:10;stroke-dasharray:none;stroke-opacity:1"
       transform="matrix(1.3333333,0,0,-1.3333333,0,302.36267)" />
    <path
       id="path50"
       d="M 118.79456,125.69055 V 110.2607 M 299.19031,90.97339 V 76.36131 m -40.08795,-31.6775 v -7.71492 m -60.1319,135.01124 V 157.33719 M 359.3222,125.69055 v -10.12198 m -180.39572,67.98395 v -7.71493 m 60.1319,-50.14704 V 110.2607 m 100.21985,-11.57239 20.04397,16.88026 m -100.21984,44.83918 v -14.6121 M 98.75058,81.32973 l 20.04398,5.78619 m 140.3078,88.72167 -20.04398,3.85748 m -140.3078,-77.62763 20.04398,8.19326 m 140.3078,73.29182 v -9.64365 m -80.17588,-52.07577 20.04398,12.48276 m 100.21985,26.09189 V 148.83536 M 219.0144,44.68381 V 29.25395 m 0,-7.71492 v -8.68701 m -180.39573,89.69376 20.04397,18.33067 m 80.17589,-6.75829 V 98.68831 m 0,15.42985 v -12.83763 m 40.08795,59.12722 V 144.97787 M 219.0144,90.97339 V 76.50018 m 60.13193,10.61574 20.04398,14.16461 M 198.97046,79.40099 V 64.8815 m 40.08792,14.51949 V 66.85652 m -80.17587,58.83403 V 111.17107 M 219.0144,44.68381 V 29.25395 M 98.75058,137.26297 v -12.54449 m 100.21988,70.40643 V 179.69507 M 219.0144,90.97339 V 75.54353 M 198.97046,9.96663 219.0144,28.2973 m 60.13193,74.24848 V 87.11592 m 40.08792,-7.71493 V 63.97113 m -80.17587,84.86423 v -12.5445 m -60.1319,-57.84652 20.04398,8.67158 m -80.1759,-14.19546 20.04397,2.62307 m 80.17587,-54.0045 v 6.75827 m -60.13189,128.25296 -20.04398,27.00226 m 140.3078,-57.86197 V 110.2607 m -80.17587,15.42985 v -14.47319 m -100.21988,2.9008 V 98.68831 M 279.14633,79.40099 V 63.97113 M 98.75058,137.26297 V 121.8331 m 200.43973,-20.55257 -20.04398,8.98017 M 158.88251,79.40099 V 63.97113 m -60.13193,57.86197 20.04398,16.3865 m 40.08795,-4.81411 20.04397,12.39016 m -60.13192,-77.0104 -20.04398,6.75828 m 160.35178,108.00899 v -12.54446 m 60.13189,-91.60707 v -6.48053"
       style="fill:none;stroke:#000000;stroke-width:0.22678;stroke-linecap:round;stroke-linejoin:round;stroke-miterlimit:10;stroke-dasharray:none;stroke-opacity:1"
       transform="matrix(1.3333333,0,0,-1.3333333,0,302.36267)" />
    <path
       id="path51"
       d="M 239.05838,148.83536 V 133.40549 M 158.88251,56.25621 V 42.47734 M 279.14633,79.40099 V 63.97113 M 178.92648,137.26297 V 121.8331 M 339.27823,67.8286 319.23425,63.97113 m -140.30777,34.71718 -20.04397,14.45778 m 120.26382,43.40417 20.04398,27.00226 m -140.3078,-57.86197 v -12.54446 m 60.13189,47.26166 V 147.5701 M 239.05838,33.11142 V 22.98943 M 78.70662,115.56857 58.66264,137.26297 M 299.19031,114.11816 V 101.28053 M 259.10236,29.25395 279.14633,45.64046 M 198.97046,79.40099 V 63.97113 M 219.0144,183.55252 V 168.12268 M 158.88251,148.83536 V 138.34305 M 178.92648,44.68381 V 32.13934 m 60.1319,152.86359 20.04398,21.69437 M 279.14633,79.40099 v -10.4923 m -40.08795,10.4923 V 64.8815 m 100.21985,72.38147 V 121.8331 M 219.0144,90.97339 V 76.50018 m -80.17587,24.78035 20.04398,8.98017 m 120.26382,-7.71492 V 88.02628 M 158.88251,68.90869 178.92648,75.54353 M 138.83853,90.97339 V 80.60452 m 240.52765,33.51364 v -8.68701 M 299.19031,90.97339 V 80.60452 m -20.04398,21.94126 V 90.0013 m -40.08795,-48.38803 20.04398,10.78547 m -80.17588,61.71942 v -14.4732 m 60.1319,95.47995 -20.04398,2.88537 m 0,8.68702 v 6.7583 l -20.04394,4.81411 m 60.1319,-173.5859 V 35.04015 M 58.66264,90.97339 78.70662,92.42378 m 240.52763,40.98171 20.04398,27.00226 M 158.88251,102.54578 V 87.11592 M 78.70662,125.69055 V 110.2607 m 240.52763,-37.34024 -20.04394,2.62307 m 20.04394,73.29183 V 142.3548 M 158.88251,102.54578 v -14.5195 m 0,-45.54894 -20.04398,13.77887 M 118.79456,79.40099 V 68.78525 M 98.75058,67.8286 118.79456,63.97113 m -40.08794,61.71942 v -10.12198 m 160.35176,-27.496 -20.04398,10.61574 m 60.13193,-42.4321 V 40.82635 m -20.04397,119.5814 v -10.36887 m 80.17587,-59.06549 v -9.64366"
       style="fill:none;stroke:#000000;stroke-width:0.22678;stroke-linecap:round;stroke-linejoin:round;stroke-miterlimit:10;stroke-dasharray:none;stroke-opacity:1"
       transform="matrix(1.3333333,0,0,-1.3333333,0,302.36267)" />
    <path
       id="path52"
       d="m 98.75058,98.68831 -20.04396,16.88026 m 140.30778,29.4093 20.04398,16.09336 M 78.70662,102.54578 V 87.11592 M 239.05838,56.25621 V 45.34729 m -40.08792,21.50923 20.04394,8.68701 M 259.10236,67.8286 V 57.45973 M 158.88251,56.25621 V 45.64046 m 140.3078,45.33293 V 75.54353 M 198.97046,56.25621 V 41.61327 m -60.13193,17.94493 20.04398,4.41293 m 40.08795,-40.9817 20.04394,6.26452 m 40.08796,141.75411 20.04397,24.11685 M 198.97046,56.25621 V 40.82635 m 120.26379,84.8642 v -10.9089 m -80.17587,57.19848 V 157.33719 M 78.70662,102.54578 v -10.122 m 80.17589,79.55635 v -10.61575 m 40.08795,33.76053 v -10.12198 m 0,-151.89151 V 17.68156 m 20.04394,96.4366 V 98.68831 m 0,-66.05522 -20.04394,8.19326 m 40.08792,84.8642 v -14.47319 m -60.1319,72.33516 V 171.00806 M 219.0144,67.8286 V 54.99095 m 60.13193,78.41454 -20.04397,12.39016 m -200.43972,-40.3645 20.04398,20.2594 m 100.21986,19.28732 -20.04397,20.52173 M 319.23425,102.54578 V 91.63687 l -20.04394,7.05144 m -40.08795,38.57466 V 121.8331 m -120.26383,27.00226 20.04398,9.3659 m 20.04397,-58.5563 20.04398,10.61574 M 98.75058,137.26297 v -7.71494 m 140.3078,-27.00225 V 87.11592 m -160.35176,5.30786 20.04396,6.26453 m 100.21988,50.14705 v -14.5195 m -60.13193,2.94711 v -10.36888 m 40.08795,33.51366 v -14.6121 M 78.70662,102.54578 v -10.122 m 220.48369,30.2271 -20.04398,10.75461 M 259.10236,44.68381 V 29.25395 M 239.05838,56.25621 V 40.82635 m -80.17587,8.94932 20.04397,2.62307 m 140.30777,50.14704 V 87.11592 M 178.92648,114.11816 V 98.68831 M 279.14633,56.25621 V 42.47734 M 178.92648,44.68381 V 29.25395 m 0,-7.71492 20.04398,1.4504 m 20.04394,75.69888 20.04398,12.52905 M 279.14633,79.40099 V 63.97113"
       style="fill:none;stroke:#000000;stroke-width:0.22678;stroke-linecap:round;stroke-linejoin:round;stroke-miterlimit:10;stroke-dasharray:none;stroke-opacity:1"
       transform="matrix(1.3333333,0,0,-1.3333333,0,302.36267)" />
    <path
       id="path53"
       d="M 138.83853,160.40775 V 148.83536 M 239.05838,125.69055 V 110.2607 M 178.92648,67.8286 V 52.39874 m 160.35175,61.71942 V 98.68831 m -40.08792,-18.08379 -20.04398,6.5114 m -100.21985,27.00224 v -14.4732 m 140.30777,-30.85971 20.04398,6.75828 m -140.30777,119.58138 20.04394,2.88537 M 118.79456,102.54578 V 87.11592 m 80.1759,-54.0045 V 22.98943 M 319.23425,79.40099 V 65.62213 M 198.97046,17.68156 178.92648,36.96889 m -60.13192,42.4321 V 65.62213 M 219.0144,44.68381 V 32.63309 m 100.21985,69.91269 V 87.90285 m -160.35174,22.35785 -20.04398,16.63339 m 20.04398,45.08604 v -15.42987 m 80.17587,38.57465 v -10.12198 m 40.08795,-13.0228 V 161.36438 M 138.83853,137.26297 V 121.8331 M 259.10236,78.44434 239.05838,87.11592 M 219.0144,114.11816 V 98.68831 M 198.97046,33.11142 V 22.98943 M 299.19031,160.40775 V 148.83536 M 219.0144,76.50018 198.97046,87.11592 m -80.1759,-30.85971 20.04397,-3.85747 m -20.04397,81.00675 -20.04398,27.00226 M 198.97046,64.8815 178.92648,75.54353 m -60.13192,35.50409 20.04397,10.78548 m 160.35178,-7.71494 V 98.68831 m -140.3078,50.14705 V 133.40549 M 259.10236,75.54353 279.14633,88.02628 M 239.05838,79.40099 V 63.97113 m 60.13193,3.85747 V 59.5582 M 198.97046,125.69055 V 110.2607 m 20.04394,-97.40868 20.04398,20.2594 m 60.13193,26.44678 -20.04398,4.41293 m 20.04398,3.85747 V 56.25621 m 40.08792,34.71718 V 75.54353 M 259.10236,90.97339 V 75.54353 m 20.04397,50.14702 v -14.51948 m 40.08792,14.51948 v -14.64293 m -60.13189,26.21535 V 124.7339 M 239.05838,110.2607 219.0144,122.78975 M 178.92648,67.8286 V 52.39874 m 20.04398,3.85747 V 45.34729 m 100.21985,68.77087 V 101.28053 M 138.83853,44.68381 158.88251,40.82635 m 100.21985,104.15152 -20.04398,12.35932 m 0,-23.9317 -20.04398,14.16461"
       style="fill:none;stroke:#000000;stroke-width:0.22678;stroke-linecap:round;stroke-linejoin:round;stroke-miterlimit:10;stroke-dasharray:none;stroke-opacity:1"
       transform="matrix(1.3333333,0,0,-1.3333333,0,302.36267)" />
    <path
       id="path54"
       d="m 259.10236,99.64496 -20.04398,10.61574 m -20.04398,103.1949 20.04398,4.81411 m -40.08792,-69.43435 v -12.5445 m 100.21985,24.11689 v -15.42988 m 0,-7.7149 V 121.8331 M 259.10236,90.97339 V 75.54353 m -180.39574,27.00225 -20.04398,2.88537 m 280.61559,-22.1727 20.04397,3.85747 m 0,-7.71493 -20.04397,-0.97208 m -60.1319,32.74216 -20.04397,10.66203 M 138.83853,75.54353 118.79456,87.90285 m 60.13192,49.36012 V 121.8331 M 279.14633,63.97113 299.19031,76.36131 M 178.92648,90.97339 V 78.44434 m -20.04397,70.39102 v -15.42987 m 180.39572,-8.68701 20.04397,24.11688 M 158.88251,63.97113 138.83853,76.36131 m 100.21985,26.18447 V 88.07257 m -60.1319,95.47995 v -15.42984 m 0,-77.14929 V 75.54353 M 339.27823,90.97339 V 78.42891 M 178.92648,44.68381 v -7.71492 m 0,146.58363 v -9.64365 M 158.88251,79.40099 v -10.4923 m -20.04398,45.20947 V 98.68831 M 259.10236,44.68381 V 32.13934 m 0,105.12363 V 121.8331 m -40.08796,84.8642 v 6.7583 M 319.23425,125.69055 V 110.2607 M 118.79456,148.83536 V 138.2196 m -60.13192,-17.34315 -20.04397,4.8141 m 180.39573,34.7172 v -15.42988 m 0,38.57465 V 171.5018 m 60.13193,-22.66644 V 133.40549 M 219.0144,21.53903 v 6.75827 m 140.3078,87.27127 20.04398,21.6944 m -220.48367,34.71716 v -13.77887 m 60.13189,-44.0831 V 98.68831 M 198.97046,56.25621 V 40.82635 m -80.1759,108.00901 v -15.42987 m 180.39575,11.57238 20.04394,27.00226 M 219.0144,90.97339 V 75.54353 m 120.26383,61.71944 v -7.71494 M 98.75058,90.97339 V 81.32973 M 299.19031,67.8286 V 56.25621 m -60.13193,138.8687 v -10.12198 m -120.26382,-49.94644 20.04397,13.77887 m 200.4397,-67.50563 -20.04398,5.78619 M 178.92648,29.25395 158.88251,45.64046 m 100.21985,114.76729 v -15.42988"
       style="fill:none;stroke:#000000;stroke-width:0.22678;stroke-linecap:round;stroke-linejoin:round;stroke-miterlimit:10;stroke-dasharray:none;stroke-opacity:1"
       transform="matrix(1.3333333,0,0,-1.3333333,0,302.36267)" />
    <path
       id="path55"
       d="m 299.19031,148.83536 -20.04398,9.3659 m -100.21985,2.20649 V 144.97787 M 158.88251,125.69055 V 110.2607 m -40.08795,15.42985 V 110.2607 m -20.04398,14.45778 -20.04396,24.11688 m 200.43971,23.14477 V 156.55026 M 259.10236,53.21652 279.14633,63.97113 m -40.08795,92.57913 -20.04398,14.95154 m -60.13189,0.47833 v -6.48053 m 40.08795,-32.09411 20.04394,14.16461 M 118.79456,91.63687 138.83853,98.68831 M 219.0144,21.53903 V 12.85202 M 259.10236,67.8286 V 53.21652 m -40.08796,68.61658 20.04398,14.45776 m 40.08795,-33.74508 V 87.11592 M 178.92648,44.68381 v -9.64366 m 20.04398,52.07577 -20.04398,12.52904 m 160.35175,14.4732 v -12.05072 m -80.17587,19.76566 -20.04398,12.48276 m -120.26382,-8.62531 v -14.64293 m 80.1759,45.50264 -20.04398,17.35861 m 120.26383,-36.6459 V 121.8331 m -140.3078,27.00226 V 133.40549 M 359.3222,125.69055 V 110.2607 m -140.3078,34.71717 -20.04394,16.09336 M 78.70662,125.69055 V 115.56857 M 219.0144,114.11816 V 98.68831 m 20.04398,-42.4321 V 40.82635 m -60.1319,-5.7862 20.04398,5.7862 m 40.08792,38.57464 V 63.97113 M 158.88251,79.40099 V 63.97113 m -60.13193,73.29184 v -9.64368 m 80.1759,17.35858 20.04398,12.35932 m -40.08795,-23.9317 -20.04398,18.73184 M 299.19031,137.26297 V 122.65088 M 118.79456,87.11592 98.75058,102.06744 m 80.1759,58.34031 V 150.03888 M 239.05838,33.11142 V 17.68156 m 100.21985,96.4366 V 98.68831 m -80.17587,61.71944 v -15.42988 m -120.26383,15.42988 v -11.57239 m 60.13193,-38.57466 -20.04398,14.4732 m 20.04398,-22.18812 V 87.11592 m 20.04394,34.71718 -20.04394,14.45776 m 20.04394,0.97211 v -14.47322 m 20.04398,-77.44246 -20.04398,7.05145 m -20.04394,142.72617 v -10.12198 m 80.17587,-36.16757 V 133.40549 M 138.83853,67.8286 V 56.25621 m 0,66.39467 20.04398,10.75461"
       style="fill:none;stroke:#000000;stroke-width:0.22678;stroke-linecap:round;stroke-linejoin:round;stroke-miterlimit:10;stroke-dasharray:none;stroke-opacity:1"
       transform="matrix(1.3333333,0,0,-1.3333333,0,302.36267)" />
    <path
       id="path56"
       d="m 219.0144,168.12268 -20.04394,16.88025 M 138.83853,90.97339 V 75.54353 m 20.04398,27.00225 V 90.0013 m 160.35174,20.2594 20.04398,17.35859 M 118.79456,102.54578 V 87.90285 M 98.75058,90.97339 V 78.42891 m 180.39575,70.40645 v -10.49231 m 100.21985,-17.4666 20.04398,4.8141 m -260.57163,19.28732 -20.04397,27.00226 m 0,-46.28958 v -10.9089 M 219.0144,76.50018 239.05838,87.11592 m 60.13193,11.57239 20.04394,16.09334 m 20.04398,7.05145 -20.04398,16.3865 M 98.75058,114.11816 V 98.68831 m 260.57162,27.00224 v -10.12198 m 0,-13.02279 v -10.122 M 98.75058,114.11816 v -12.05072 m 220.48367,46.76792 V 135.05649 M 198.97046,102.54578 V 88.07257 M 58.66264,114.11816 v 6.75829 m 200.43972,-63.41672 -20.04398,6.5114 M 219.0144,67.8286 V 52.39874 M 259.10236,67.8286 V 52.39874 m -40.08796,115.72394 20.04398,16.88025 M 178.92648,90.97339 V 75.54353 m 120.26383,38.57463 V 98.68831 m 80.17587,15.42985 v -8.68701 M 98.75058,83.25845 78.70662,87.11592 m 120.26384,84.86421 v -10.9089 m 60.1319,-46.95307 V 99.64496 M 138.83853,67.8286 v -8.2704 m 40.08795,15.98533 -20.04397,12.48275 m 60.13189,95.52624 V 171.5018 M 319.23425,148.83536 V 133.40549 M 178.92648,67.8286 V 53.21652 m -20.04397,36.78478 20.04397,8.68701 m 0,23.14479 -20.04397,16.50995 m 80.17587,-12.6525 V 110.2607 m -60.1319,27.00227 V 124.7339 m 0,-71.51738 -20.04397,10.75461 M 98.75058,90.97339 V 75.54353 M 259.10236,90.97339 V 78.44434 m -20.04398,24.10144 V 87.11592 m 80.17587,23.9317 -20.04394,10.78548 m 0,-77.14929 -20.04398,-3.85746 m -140.3078,39.77817 20.04398,6.5114 M 118.79456,79.40099 V 63.97113 m 0,84.86423 V 142.3548 M 259.10236,67.8286 V 52.39874 m -100.21985,108.96564 20.04397,6.7583"
       style="fill:none;stroke:#000000;stroke-width:0.22678;stroke-linecap:round;stroke-linejoin:round;stroke-miterlimit:10;stroke-dasharray:none;stroke-opacity:1"
       transform="matrix(1.3333333,0,0,-1.3333333,0,302.36267)" />
    <path
       id="path57"
       d="m 239.05838,66.85652 -20.04398,8.68701 m -20.04394,73.29183 V 133.40549 M 58.66264,114.11816 v -8.68701 M 138.83853,67.8286 V 56.25621 m 120.26383,42.4321 20.04397,14.45778 m -140.3078,24.11688 v -14.61209 m 180.39572,3.03967 V 110.2607 M 279.14633,33.11142 259.10236,32.13934 m 20.04397,93.55121 V 110.2607 m -40.08795,-92.57914 20.04398,19.28733 m -60.1319,8.3784 20.04394,7.05145 m 20.04398,142.72617 v -15.42984 m 0,-7.71494 v -10.9089 m 20.04398,-139.5322 -20.04398,1.4504 M 138.83853,90.97339 V 76.36131 m -60.13191,3.03968 20.04396,-0.97208 m 0,12.54448 v -7.71494 m 20.04398,19.28733 V 91.63687 m 140.3078,-56.59672 -20.04398,5.7862 m -20.04398,96.43662 v -14.47322 m 60.13193,38.57463 -20.04397,6.7583 M 198.97046,79.40099 V 63.97113 m 40.08792,23.14479 20.04398,12.52904 M 219.0144,137.26297 V 121.8331 m 0,-66.84215 -20.04394,8.98018 m 60.1319,50.14703 v -14.4732 m -60.1319,-11.57239 20.04394,10.61574 m 0,108.00899 v -8.68702 m 80.17591,-141.75407 20.04394,9.36592 M 219.0144,67.8286 V 54.99095 m 80.17591,82.27202 v -10.36888 m 60.13189,-24.34831 20.04398,2.88537 M 198.97046,102.54578 V 87.11592 m 140.30777,27.00224 v -12.05072 m -180.39572,9.10363 20.04397,10.66203 m 60.1319,-98.84367 -20.04398,6.26452 M 118.79456,110.2607 98.75058,127.61929 m 180.39575,-1.92874 V 113.14609 M 219.0144,54.99095 239.05838,63.97113 M 138.83853,98.68831 118.79456,114.78165 M 279.14633,56.25621 V 45.64046 m 40.08792,89.41603 -20.04394,13.77887 m -160.35178,11.57239 v -8.27042 m 100.21985,-41.87663 20.04398,14.4732 m 60.13189,-68.47769 -20.04394,-3.85747 m -20.04398,3.85747 V 49.77567 M 219.0144,160.40775 V 147.5701 m 40.08796,-25.737 20.04397,16.50995 M 239.05838,9.96663 219.0144,28.2973 M 118.79456,148.83536 v -13.77887"
       style="fill:none;stroke:#000000;stroke-width:0.22678;stroke-linecap:round;stroke-linejoin:round;stroke-miterlimit:10;stroke-dasharray:none;stroke-opacity:1"
       transform="matrix(1.3333333,0,0,-1.3333333,0,302.36267)" />
    <path
       id="path58"
       d="M 299.19031,90.97339 V 75.54353 m -20.04398,-6.63484 -20.04397,6.63484 M 158.88251,56.25621 v -6.48054 m -20.04398,87.4873 V 121.8331 m 0,-7.71494 V 101.28053 M 198.97046,79.40099 V 66.85652 m -60.13193,54.97658 -20.04397,20.5217 M 259.10236,90.97339 V 75.54353 M 138.83853,56.25621 118.79456,65.62213 m 160.35177,106.358 V 165.4996 M 118.79456,102.54578 V 87.11592 m -60.13192,27.00224 v -8.68701 m 100.21987,20.2594 V 110.2607 m 40.08795,15.42985 V 110.2607 M 319.23425,79.40099 V 68.78525 M 279.14633,49.77567 259.10236,52.39874 M 359.3222,102.54578 V 87.11592 m 20.04398,3.85747 -20.04398,1.45039 m -40.08795,56.41158 V 138.2196 M 138.83853,160.40775 V 144.97787 M 219.0144,12.85202 198.97046,33.11142 M 158.88251,56.25621 V 40.82635 m 100.21985,73.29181 V 98.68831 m 60.13189,-11.57239 20.04398,14.95152 m -60.1319,8.19326 20.04398,16.63339 m -20.04398,21.94127 V 133.40549 M 239.05838,102.54578 V 87.11592 m 40.08795,-44.63858 20.04398,13.77887 M 198.97046,171.98013 v -15.42987 m 140.30777,-54.48282 -20.04398,8.19326 M 198.97046,102.54578 V 87.11592 m 40.08792,-22.23442 20.04398,10.66203 m -60.1319,96.4366 v -15.42987 m 20.04394,50.14704 v -8.68702 m 20.04398,-49.17492 v -15.42987 m 100.21985,3.85748 v -9.64368 M 239.05838,171.98013 V 156.55026 M 158.88251,87.11592 138.83853,101.28053 M 239.05838,33.11142 V 22.98943 M 219.0144,137.26297 V 121.8331 m -40.08792,49.17496 -20.04397,24.11685 m 220.48367,-81.00675 v 6.75829 M 198.97046,185.00293 178.92648,206.6973 M 299.19031,75.54353 319.23425,87.90285 M 299.19031,67.8286 V 52.39874 m 40.08792,38.57465 v -7.71494 m -60.1319,6.74285 -20.04397,8.68701 M 359.3222,110.2607 339.27823,129.54803 M 178.92648,90.97339 V 75.54353 m 20.04398,81.00673 20.04394,14.95154"
       style="fill:none;stroke:#000000;stroke-width:0.22678;stroke-linecap:round;stroke-linejoin:round;stroke-miterlimit:10;stroke-dasharray:none;stroke-opacity:1"
       transform="matrix(1.3333333,0,0,-1.3333333,0,302.36267)" />
    <path
       id="path59"
       d="M 178.92648,67.8286 V 57.45973 m 40.08792,41.22858 -20.04394,12.52905 m 20.04394,49.19039 V 144.97787 M 98.75058,114.11816 v -12.05072 m 80.1759,73.77015 20.04398,3.85748 M 319.23425,102.54578 V 87.11592 M 219.0144,67.8286 V 52.39874 m 20.04398,96.43662 v -14.5195 M 138.83853,67.8286 V 52.39874 m 40.08795,61.71942 V 98.68831 m 60.1319,73.29182 V 156.55026 M 138.83853,90.97339 V 75.54353 m 20.04398,-42.43211 20.04397,-0.97208 m 60.1319,101.26615 20.04398,16.63339 m 0,33.51364 v -7.71493 m 20.04397,-42.4321 20.04398,18.73184 m -20.04398,19.8428 V 158.20126 M 78.70662,110.2607 98.75058,129.54803 m 20.04398,-50.14704 v -6.48053 m 40.08795,29.62532 V 87.11592 m 240.52765,15.42986 -20.04398,18.33067 M 219.0144,44.68381 V 32.63309 m 40.08796,104.62988 V 121.8331 m 40.08795,38.57465 v -8.27042 m 40.08792,-14.87436 V 124.71848 M 259.10236,114.11816 V 98.68831 m 100.21984,3.85747 v -10.122 m -140.3078,-59.79069 20.04398,8.19326 m -60.1319,96.43662 V 121.8331 m 200.4397,-7.71494 v 6.75829 M 198.97046,41.61327 178.92648,52.39874 m 20.04398,81.00675 -20.04398,16.63339 m 200.4397,-44.60773 -20.04398,20.2594 M 158.88251,79.40099 V 63.97113 m 40.08795,84.86423 V 133.40549 M 239.05838,56.25621 V 41.61327 m 20.04398,103.3646 20.04397,20.52173 M 58.66264,114.11816 v 6.75829 m 180.39574,35.67381 20.04398,17.35861 m 40.08795,-52.07577 20.04394,20.5217 m -140.30777,-84.89507 20.04398,6.5114 m 20.04394,119.58139 v -15.42984 m 40.08796,15.42984 v -15.42984 m -60.1319,-42.43213 V 110.2607 M 359.3222,92.42378 339.27823,98.68831 m -140.30777,11.57239 20.04394,12.52905"
       style="fill:none;stroke:#000000;stroke-width:0.22678;stroke-linecap:round;stroke-linejoin:round;stroke-miterlimit:10;stroke-dasharray:none;stroke-opacity:1"
       transform="matrix(1.3333333,0,0,-1.3333333,0,302.36267)" />
    <path
       id="path60"
       d="M 359.3222,79.40099 158.88251,195.12491 M 339.27823,67.8286 138.83853,183.55252 m 0,-138.86871 200.4397,115.72394 M 158.88251,33.11142 359.3222,148.83536 m 40.08796,-46.28958 -200.4397,115.72393 M 118.79456,56.25621 319.23425,171.98013 M 198.97046,9.96663 399.41016,125.69055 M 259.10236,21.53903 58.66264,137.26297 M 239.05838,9.96663 38.61867,125.69055 M 178.92648,21.53903 379.36618,137.26297 M 58.66264,90.97339 259.10236,206.6973 M 78.70662,79.40099 279.14633,195.12491 M 98.75058,67.8286 299.19031,183.55252 M 38.61867,102.54578 239.05838,218.26971 M 299.19031,44.68381 98.75058,160.40775 M 379.36618,90.97339 178.92648,206.6973 M 279.14633,33.11142 78.70662,148.83536 M 319.23425,56.25621 118.79456,171.98013 M 4.16696,120.2659 l 12.51987,7.22835 m -5.15524,-2.97638 -0.36823,-0.2126 m 5.52347,3.18898 v 0 l -5.58045,-2.23992 0.85039,-1.47291 4.73006,3.71283"
       style="fill:none;stroke:#000000;stroke-width:0.3685;stroke-linecap:round;stroke-linejoin:round;stroke-miterlimit:10;stroke-dasharray:none;stroke-opacity:1"
       transform="matrix(1.3333333,0,0,-1.3333333,0,302.36267)" />
    <path
       id="path61"
       d="m 11.95677,123.78142 4.73006,3.71283 -5.58045,-2.23992 z"
       style="fill:#000000;fill-opacity:1;fill-rule:nonzero;stroke:none"
       transform="matrix(1.3333333,0,0,-1.3333333,0,302.36267)" />
    <path
       id="path62"
       d="m 4.16696,120.2659 12.37343,-7.1438 m -5.15524,2.97638 -0.36823,0.2126 m 5.52347,-3.18898 v 0 l -4.73004,3.71285 -0.85039,-1.47292 5.58043,-2.23993"
       style="fill:none;stroke:#000000;stroke-width:0.3685;stroke-linecap:round;stroke-linejoin:round;stroke-miterlimit:10;stroke-dasharray:none;stroke-opacity:1"
       transform="matrix(1.3333333,0,0,-1.3333333,0,302.36267)" />
    <path
       id="path63"
       d="m 10.95996,115.36203 5.58043,-2.23993 -4.73004,3.71285 z"
       style="fill:#000000;fill-opacity:1;fill-rule:nonzero;stroke:none"
       transform="matrix(1.3333333,0,0,-1.3333333,0,302.36267)" />
    <path
       id="path64"
       d="m 4.16696,120.2659 v 16.08972 m 0,-5.95276 v -0.42517 m 0,6.37793 v 0 l -0.85039,-5.95276 h 1.70078 l -0.85039,5.95276"
       style="fill:none;stroke:#000000;stroke-width:0.3685;stroke-linecap:round;stroke-linejoin:round;stroke-miterlimit:10;stroke-dasharray:none;stroke-opacity:1"
       transform="matrix(1.3333333,0,0,-1.3333333,0,302.36267)" />
    <path
       id="path65"
       d="m 5.01735,130.40286 -0.85039,5.95276 -0.85039,-5.95276 z"
       style="fill:#000000;fill-opacity:1;fill-rule:nonzero;stroke:none"
       transform="matrix(1.3333333,0,0,-1.3333333,0,302.36267)" />
    <path
       id="path66"
       d="m 252.27002,97.10284 h 11.90552 v 11.05512 h -11.90552 z"
       style="fill:#ffffff;fill-opacity:1;fill-rule:nonzero;stroke:none"
       transform="matrix(1.3333333,0,0,-1.3333333,0,302.36267)" />
    <text
       id="text66"
       xml:space="preserve"
       transform="matrix(1.3333333,0,0,1.3333333,337.11591,169.22608)"
       clip-path="url(#clipPath67)"><tspan
         style="font-style:italic;font-variant:normal;font-weight:normal;font-stretch:normal;font-size:8.0057px;font-family:'Palatino Linotype';writing-mode:lr-tb;fill:#000000;fill-opacity:1;fill-rule:nonzero;stroke:none"
         x="0"
         y="0"
         id="tspan66">M</tspan></text>
    <text
       id="text67"
       xml:space="preserve"
       transform="matrix(1.3333333,0,0,1.3333333,347.50024,173.63553)"
       clip-path="url(#clipPath68)"><tspan
         style="font-style:italic;font-variant:normal;font-weight:normal;font-stretch:normal;font-size:4.80342px;font-family:'Palatino Linotype';writing-mode:lr-tb;fill:#000000;fill-opacity:1;fill-rule:nonzero;stroke:none"
         x="0"
         y="0"
         id="tspan67">u</tspan></text>
    <text
       id="text68"
       xml:space="preserve"
       transform="matrix(1.3333333,0,0,1.3333333,24.037507,155.38831)"
       clip-path="url(#clipPath69)"><tspan
         style="font-style:italic;font-variant:normal;font-weight:normal;font-stretch:normal;font-size:10.0071px;font-family:'Palatino Linotype';writing-mode:lr-tb;fill:#000000;fill-opacity:1;fill-rule:nonzero;stroke:none"
         x="0"
         y="0"
         id="tspan68">X</tspan></text>
    <text
       id="text69"
       xml:space="preserve"
       transform="matrix(1.3333333,0,0,1.3333333,14.88176,129.44892)"
       clip-path="url(#clipPath70)"><tspan
         style="font-style:italic;font-variant:normal;font-weight:normal;font-stretch:normal;font-size:10.0071px;font-family:'Palatino Linotype';writing-mode:lr-tb;fill:#000000;fill-opacity:1;fill-rule:nonzero;stroke:none"
         x="0"
         y="0"
         id="tspan69">Y</tspan></text>
    <text
       id="text70"
       xml:space="preserve"
       transform="matrix(1.3333333,0,0,1.3333333,1.3595467,114.97264)"
       clip-path="url(#clipPath71)"><tspan
         style="font-style:italic;font-variant:normal;font-weight:normal;font-stretch:normal;font-size:10.0071px;font-family:'Palatino Linotype';writing-mode:lr-tb;fill:#000000;fill-opacity:1;fill-rule:nonzero;stroke:none"
         x="0"
         y="0"
         id="tspan70">Z</tspan></text>
    <text
       id="text71"
       xml:space="preserve"
       transform="matrix(1.3333333,0,0,1.3333333,1.3595467,83.602573)"
       clip-path="url(#clipPath72)"><tspan
         style="font-variant:normal;font-weight:normal;font-stretch:normal;font-size:10.0916px;font-family:'Palatino Linotype';writing-mode:lr-tb;fill:#000000;fill-opacity:1;fill-rule:nonzero;stroke:none"
         x="0 6.1659737 12.261306 14.784208 19.830013 22.352917 27.398722 29.921623 34.96743 40.013233"
         y="0"
         sodipodi:role="line"
         id="tspan71">LP = 0.500</tspan></text>
  </g>
</svg>
