<?xml version="1.0" encoding="UTF-8" standalone="no"?>
<!-- Created with Inkscape (http://www.inkscape.org/) -->

<svg
   version="1.1"
   id="svg1"
   width="566.92932"
   height="275.90533"
   viewBox="0 0 566.92932 275.90533"
   sodipodi:docname="quad_quadrat_fliessgelenklinien.pdf"
   xmlns:inkscape="http://www.inkscape.org/namespaces/inkscape"
   xmlns:sodipodi="http://sodipodi.sourceforge.net/DTD/sodipodi-0.dtd"
   xmlns="http://www.w3.org/2000/svg"
   xmlns:svg="http://www.w3.org/2000/svg">
  <defs
     id="defs1">
    <clipPath
       clipPathUnits="userSpaceOnUse"
       id="clipPath22">
      <path
         d="M -0.00426,-0.00208 V 206.93121 H 425.20111 V -0.00208 H -0.00426"
         transform="matrix(0,1,1,0,-125.51801,-126.83374)"
         clip-rule="evenodd"
         id="path22" />
    </clipPath>
    <clipPath
       clipPathUnits="userSpaceOnUse"
       id="clipPath24">
      <path
         d="M -0.00426,-0.00208 V 206.93121 H 425.20111 V -0.00208 H -0.00426"
         transform="matrix(1,0,0,-1,-272.40046,129.93065)"
         clip-rule="evenodd"
         id="path24" />
    </clipPath>
    <clipPath
       clipPathUnits="userSpaceOnUse"
       id="clipPath26">
      <path
         d="M -0.00426,-0.00208 V 206.93121 H 425.20111 V -0.00208 H -0.00426"
         transform="matrix(1,0,0,-1,-196.30122,199.27607)"
         clip-rule="evenodd"
         id="path26" />
    </clipPath>
    <clipPath
       clipPathUnits="userSpaceOnUse"
       id="clipPath28">
      <path
         d="M -0.00426,-0.00208 V 206.93121 H 425.20111 V -0.00208 H -0.00426"
         transform="matrix(0,1,1,0,-94.397045,-301.55004)"
         clip-rule="evenodd"
         id="path28" />
    </clipPath>
    <clipPath
       clipPathUnits="userSpaceOnUse"
       id="clipPath29">
      <path
         d="M -0.00426,-0.00208 V 206.93121 H 425.20111 V -0.00208 H -0.00426"
         transform="matrix(0,1,1,0,-148.82013,-301.55004)"
         clip-rule="evenodd"
         id="path29" />
    </clipPath>
    <clipPath
       clipPathUnits="userSpaceOnUse"
       id="clipPath31">
      <path
         d="M -0.00426,-0.00208 V 206.93121 H 425.20111 V -0.00208 H -0.00426"
         transform="matrix(1,0,0,-1,-201.59959,48.150499)"
         clip-rule="evenodd"
         id="path31" />
    </clipPath>
    <clipPath
       clipPathUnits="userSpaceOnUse"
       id="clipPath33">
      <path
         d="M -0.00426,-0.00208 V 206.93121 H 425.20111 V -0.00208 H -0.00426"
         transform="matrix(1,0,0,-1,-165.35971,22.936173)"
         clip-rule="evenodd"
         id="path33" />
    </clipPath>
    <clipPath
       clipPathUnits="userSpaceOnUse"
       id="clipPath34">
      <path
         d="M -0.00426,-0.00208 V 206.93121 H 425.20111 V -0.00208 H -0.00426"
         transform="matrix(1,0,0,-1,-219.7828,22.936173)"
         clip-rule="evenodd"
         id="path34" />
    </clipPath>
  </defs>
  <sodipodi:namedview
     id="namedview1"
     pagecolor="#ffffff"
     bordercolor="#000000"
     borderopacity="0.25"
     inkscape:showpageshadow="2"
     inkscape:pageopacity="0.0"
     inkscape:pagecheckerboard="0"
     inkscape:deskcolor="#d1d1d1">
    <inkscape:page
       x="0"
       y="0"
       inkscape:label="1"
       id="page1"
       width="566.92932"
       height="275.90533"
       margin="0"
       bleed="0" />
  </sodipodi:namedview>
  <path
     id="path1"
     d="m 146.31088,179.79895 0.49427,-0.007 0.46313,-0.038 0.40091,-0.10016 0.30759,-0.19351 0.19351,-0.30759 0.10019,-0.40094 0.038,-0.46313 0.007,-0.49426 0.007,-0.49427 0.038,-0.46313 0.10016,-0.40094 0.19351,-0.30759 0.30758,-0.19351 0.40094,-0.10016 0.46314,-0.038 0.49426,-0.007 0.49426,-0.007 0.46314,-0.038 0.40094,-0.10019 0.30759,-0.19351 0.19351,-0.30759 0.10016,-0.40091 0.038,-0.46313 0.007,-0.49426 0.007,-0.49427 0.038,-0.46313 0.10015,-0.40094 0.19352,-0.30759 0.30761,-0.19351 0.40091,-0.10016 0.46314,-0.038 0.49426,-0.007 0.49426,-0.007 0.46314,-0.038 0.40094,-0.10019 0.30758,-0.19351 0.19352,-0.30759 0.10016,-0.40091 0.038,-0.46316 0.007,-0.49423 0.007,-0.49427 0.038,-0.46316 0.10018,-0.40091 0.19352,-0.30759 0.30758,-0.19351 0.40091,-0.10019 0.46314,-0.0379 0.49426,-0.007 0.49426,-0.007 0.46317,-0.0379"
     style="fill:none;stroke:#000000;stroke-width:0.3685;stroke-linecap:round;stroke-linejoin:round;stroke-miterlimit:10;stroke-dasharray:none;stroke-opacity:1"
     transform="matrix(1.3333333,0,0,-1.3333333,0,275.90533)" />
  <path
     id="path2"
     d="m 159.29468,167.72778 0.40091,-0.10019 0.30758,-0.19351 0.19352,-0.30758 0.10018,-0.40091 0.0379,-0.46317 0.007,-0.49426 0.007,-0.49423 0.0379,-0.46317 0.10019,-0.40091 0.19352,-0.30759 0.30758,-0.19351 0.40091,-0.10019 0.46317,-0.0379 0.49423,-0.007 0.49426,-0.007 0.46317,-0.0379 0.40091,-0.10019 0.30758,-0.19351 0.19351,-0.30758 0.10019,-0.40091 0.0379,-0.46317 0.007,-0.49426 0.007,-0.49426 0.0379,-0.46314 0.10019,-0.40091 0.19351,-0.30758 0.30759,-0.19352 0.40091,-0.10019 0.46317,-0.038 0.49426,-0.007 0.49423,-0.007 0.46317,-0.038 0.40091,-0.10015 0.30758,-0.19352 0.19351,-0.30758 0.10019,-0.40094 0.038,-0.46314 0.007,-0.49426 0.007,-0.49426 0.038,-0.46314 0.10016,-0.40091 0.19351,-0.30761 0.30759,-0.19352 0.40094,-0.10015 0.46313,-0.038 0.49427,-0.007 0.49426,-0.007 0.46313,-0.038 0.40091,-0.10016 0.30762,-0.19352"
     style="fill:none;stroke:#000000;stroke-width:0.3685;stroke-linecap:round;stroke-linejoin:round;stroke-miterlimit:10;stroke-dasharray:none;stroke-opacity:1"
     transform="matrix(1.3333333,0,0,-1.3333333,0,275.90533)" />
  <path
     id="path3"
     d="m 172.02957,155.40771 0.19348,-0.30758 0.10019,-0.40094 0.038,-0.46314 0.007,-0.49426 0.007,-0.49426 0.038,-0.46314 0.10016,-0.40094 0.19351,-0.30758 0.30759,-0.19352 0.40094,-0.10015 0.46313,-0.038 0.49427,-0.007 0.49426,-0.007 0.46313,-0.038 0.40094,-0.10019 0.30759,-0.19351 0.19351,-0.30759 0.10016,-0.40091 0.038,-0.46314 0.007,-0.49426 0.007,-0.49426 0.038,-0.46314 0.10019,-0.40094 0.19351,-0.30758 0.30759,-0.19351 0.40091,-0.10016 0.46313,-0.038 0.49427,-0.007 0.49426,-0.007 0.46313,-0.038 0.40094,-0.10019 0.30759,-0.19351 0.19351,-0.30759 0.10016,-0.40091 0.038,-0.46317 0.007,-0.49423 0.007,-0.49426 0.038,-0.46317 0.10019,-0.4009 0.19351,-0.30759 0.30759,-0.19351 0.40091,-0.10019 0.46316,-0.0379 0.49423,-0.007 0.49427,-0.007 0.46316,-0.0379 0.40091,-0.10019 0.30759,-0.19351 0.19351,-0.30759 0.10019,-0.40091"
     style="fill:none;stroke:#000000;stroke-width:0.3685;stroke-linecap:round;stroke-linejoin:round;stroke-miterlimit:10;stroke-dasharray:none;stroke-opacity:1"
     transform="matrix(1.3333333,0,0,-1.3333333,0,275.90533)" />
  <path
     id="path4"
     d="m 184.34964,142.67282 0.0379,-0.46316 0.007,-0.49427 0.007,-0.49423 0.0379,-0.46316 0.10019,-0.40091 0.19351,-0.30759 0.30759,-0.19351 0.40091,-0.10019 0.46316,-0.0379 0.49426,-0.007 0.49424,-0.007 0.46316,-0.0379 0.40091,-0.10019 0.30759,-0.19351 0.19351,-0.30759 0.10019,-0.40094 0.0379,-0.46313 0.007,-0.49427 0.007,-0.49426 0.0379,-0.46313 0.10019,-0.40091 0.19351,-0.30759 0.30759,-0.19351 0.40091,-0.10019 0.46316,-0.038 0.49426,-0.007 0.49427,-0.007 0.46313,-0.038 0.40091,-0.10016 0.30759,-0.19351 0.19351,-0.30759 0.10019,-0.40094 0.038,-0.46313 0.007,-0.49427 0.007,-0.49426 0.038,-0.46313 0.10016,-0.40094 0.19351,-0.30759 0.30758,-0.19351 0.40094,-0.10016 0.46314,-0.038 0.49426,-0.007 0.49427,-0.007 0.46313,-0.038 0.40091,-0.10016 0.30762,-0.19351 0.19351,-0.30759 0.10016,-0.40094 0.038,-0.46313 0.007,-0.49426"
     style="fill:none;stroke:#000000;stroke-width:0.3685;stroke-linecap:round;stroke-linejoin:round;stroke-miterlimit:10;stroke-dasharray:none;stroke-opacity:1"
     transform="matrix(1.3333333,0,0,-1.3333333,0,275.90533)" />
  <path
     id="path5"
     d="m 196.42081,129.68903 0.007,-0.49427 0.038,-0.46313 0.10016,-0.40094 0.19351,-0.30759 0.30758,-0.19351 0.40094,-0.10017 0.46314,-0.038 0.49426,-0.007 m -54.42309,54.42311 0.0714,-0.59287 0.10708,-0.55273 0.17859,-0.47251 0.28583,-0.3522 0.3323,-0.17905 0.40445,-0.0981 0.45255,-0.0442 0.47662,-0.0172 m 0,-104.22865 0.49427,0.0068 0.46313,0.03797 0.40091,0.10017 0.30759,0.19351 0.19351,0.30759 0.10019,0.40092 0.038,0.46315 0.007,0.49425 0.007,0.49426 0.038,0.46315 0.10016,0.40093 0.19351,0.30759 0.30758,0.19351 0.40094,0.10017 0.46314,0.03795 0.49426,0.0068 0.49426,0.0069 0.46314,0.03795 0.40094,0.10017 0.30759,0.19351 0.19351,0.30759 0.10016,0.40092 0.038,0.46315 0.007,0.49427 0.007,0.49424 0.038,0.46315 0.10015,0.40093 0.19352,0.30758 0.30761,0.19352 0.40091,0.10017 0.46314,0.03795 0.49426,0.0069 0.49426,0.0068 0.46314,0.03795"
     style="fill:none;stroke:#000000;stroke-width:0.3685;stroke-linecap:round;stroke-linejoin:round;stroke-miterlimit:10;stroke-dasharray:none;stroke-opacity:1"
     transform="matrix(1.3333333,0,0,-1.3333333,0,275.90533)" />
  <path
     id="path6"
     d="m 155.28586,83.63268 0.40094,0.10018 0.30758,0.19352 0.19352,0.30758 0.10016,0.40091 0.038,0.46315 0.007,0.49427 0.007,0.49426 0.038,0.46313 0.10018,0.40093 0.19352,0.30758 0.30758,0.19352 0.40091,0.10017 0.46314,0.03796 0.49426,0.0068 0.49426,0.0068 0.46317,0.03796 0.40091,0.10017 0.30758,0.19352 0.19352,0.30758 0.10018,0.40093 0.0379,0.46315 0.007,0.49424 0.007,0.49427 0.0379,0.46315 0.10019,0.40092 0.19352,0.30759 0.30758,0.19351 0.40091,0.10017 0.46317,0.03795 0.49423,0.0068 0.49426,0.0069 0.46317,0.03795 0.40091,0.10017 0.30758,0.19351 0.19351,0.30759 0.10019,0.40093 0.0379,0.46315 0.007,0.49426 0.007,0.49425 0.0379,0.46315 0.10019,0.40092 0.19351,0.30759 0.30759,0.19351 0.40091,0.10017 0.46317,0.03795 0.49426,0.0069 0.49423,0.0068 0.46317,0.03795 0.40091,0.10019 0.30758,0.19351"
     style="fill:none;stroke:#000000;stroke-width:0.3685;stroke-linecap:round;stroke-linejoin:round;stroke-miterlimit:10;stroke-dasharray:none;stroke-opacity:1"
     transform="matrix(1.3333333,0,0,-1.3333333,0,275.90533)" />
  <path
     id="path7"
     d="m 168.02075,95.95276 0.19351,0.30759 0.10019,0.40092 0.038,0.46313 0.007,0.49427 0.007,0.49426 0.038,0.46314 0.10016,0.40092 0.19351,0.30759 0.30759,0.19351 0.40094,0.10017 0.46313,0.03797 0.49427,0.0068 0.49426,0.0068 0.46313,0.03796 0.40091,0.10018 0.30762,0.19351 0.19348,0.30758 0.10019,0.40093 0.038,0.46315 0.007,0.49425 0.007,0.49426 0.038,0.46315 0.10016,0.40092 0.19351,0.30759 0.30759,0.19351 0.40094,0.10018 0.46313,0.038 0.49427,0.007 0.49426,0.007 0.46313,0.0379 0.40094,0.10017 0.30759,0.19352 0.19351,0.30758 0.10016,0.40093 0.038,0.46315 0.007,0.49426 0.007,0.49425 0.038,0.46315 0.10019,0.40092 0.19351,0.30759 0.30759,0.19351 0.40091,0.10018 0.46313,0.0379 0.49427,0.007 0.49426,0.007 0.46313,0.0379 0.40094,0.10019 0.30759,0.19351 0.19351,0.30759 0.10016,0.40092"
     style="fill:none;stroke:#000000;stroke-width:0.3685;stroke-linecap:round;stroke-linejoin:round;stroke-miterlimit:10;stroke-dasharray:none;stroke-opacity:1"
     transform="matrix(1.3333333,0,0,-1.3333333,0,275.90533)" />
  <path
     id="path8"
     d="m 180.34082,108.68765 0.038,0.46314 0.007,0.49426 0.007,0.49426 0.038,0.46314 0.10019,0.40092 0.19351,0.30759 0.30759,0.19351 0.40091,0.10017 0.46316,0.038 0.49423,0.007 0.49427,0.007 0.46316,0.038 0.40091,0.10018 0.30759,0.19351 0.19351,0.30759 0.10019,0.40092 0.0379,0.46315 0.007,0.49425 0.007,0.49426 0.0379,0.46315 0.10019,0.40093 0.19351,0.30758 0.30759,0.19352 0.40091,0.10017 0.46316,0.0379 0.49426,0.007 0.49424,0.007 0.46316,0.0379 0.40091,0.10018 0.30759,0.19351 0.19351,0.30759 0.10019,0.40092 0.0379,0.46315 0.007,0.49426 0.007,0.49425 0.0379,0.46315 0.10019,0.40093 0.19351,0.30758 0.30759,0.19351 0.40091,0.10018 0.46316,0.0379 0.49426,0.007 0.49427,0.007 0.46313,0.038 0.40091,0.10019 0.30759,0.19351 0.19351,0.30759 0.10019,0.40093 0.038,0.46313 0.007,0.49426"
     style="fill:none;stroke:#000000;stroke-width:0.3685;stroke-linecap:round;stroke-linejoin:round;stroke-miterlimit:10;stroke-dasharray:none;stroke-opacity:1"
     transform="matrix(1.3333333,0,0,-1.3333333,0,275.90533)" />
  <path
     id="path9"
     d="m 192.41202,121.67143 0.007,0.49427 0.038,0.46313 0.10016,0.40092 0.19351,0.30759 0.30758,0.19351 0.40094,0.10018 0.46314,0.038 0.49426,0.007 0.49427,0.007 0.46313,0.0379 0.40091,0.10017 0.30762,0.19351 0.19351,0.30759 0.10016,0.40092 0.038,0.46315 0.007,0.49425 0.007,0.49426 0.038,0.46315 0.10016,0.40093 0.19351,0.30759 0.30758,0.19351 0.40094,0.10017 0.46314,0.0379 0.49426,0.007 m -54.42309,-54.42308 0.0714,0.59285 0.10708,0.55273 0.17859,0.47252 0.28583,0.35217 0.3323,0.17908 0.40445,0.09811 0.45255,0.04415 0.47662,0.01715 m 104.22864,104.22865 -0.49426,-0.007 -0.46314,-0.038 -0.40091,-0.10016 -0.30758,-0.19351 -0.19352,-0.30759 -0.10018,-0.40094 -0.038,-0.46313 -0.007,-0.49426 -0.007,-0.49427 -0.038,-0.46313 -0.10016,-0.40094 -0.19351,-0.30759 -0.30759,-0.19351 -0.40094,-0.10016 -0.46314,-0.038 -0.49426,-0.007 -0.49426,-0.007 -0.46314,-0.038"
     style="fill:none;stroke:#000000;stroke-width:0.3685;stroke-linecap:round;stroke-linejoin:round;stroke-miterlimit:10;stroke-dasharray:none;stroke-opacity:1"
     transform="matrix(1.3333333,0,0,-1.3333333,0,275.90533)" />
  <path
     id="path10"
     d="m 245.57333,175.74536 -0.40094,-0.10019 -0.30758,-0.19351 -0.19351,-0.30759 -0.10016,-0.40091 -0.038,-0.46313 -0.007,-0.49426 -0.007,-0.49427 -0.038,-0.46313 -0.10016,-0.40094 -0.19351,-0.30759 -0.30759,-0.19351 -0.40094,-0.10016 -0.46314,-0.038 -0.49426,-0.007 -0.49426,-0.007 -0.46314,-0.038 -0.40094,-0.10019 -0.30758,-0.19351 -0.19351,-0.30759 -0.10016,-0.40091 -0.038,-0.46316 -0.007,-0.49423 -0.007,-0.49427 -0.038,-0.46316 -0.10019,-0.40091 -0.19351,-0.30759 -0.30759,-0.19351 -0.40091,-0.10019 -0.46313,-0.0379 -0.49427,-0.007 -0.49426,-0.007 -0.46313,-0.0379 -0.40094,-0.10019 -0.30759,-0.19351 -0.19351,-0.30758 -0.10019,-0.40091 -0.0379,-0.46317 -0.007,-0.49426 -0.007,-0.49423 -0.0379,-0.46317 -0.10019,-0.40091 -0.19351,-0.30759 -0.30759,-0.19351 -0.40091,-0.10019 -0.46316,-0.0379 -0.49424,-0.007 -0.49426,-0.007 -0.46316,-0.0379 -0.40091,-0.10019 -0.30759,-0.19351"
     style="fill:none;stroke:#000000;stroke-width:0.3685;stroke-linecap:round;stroke-linejoin:round;stroke-miterlimit:10;stroke-dasharray:none;stroke-opacity:1"
     transform="matrix(1.3333333,0,0,-1.3333333,0,275.90533)" />
  <path
     id="path11"
     d="m 232.83844,163.42529 -0.19351,-0.30758 -0.10019,-0.40091 -0.0379,-0.46317 -0.007,-0.49426 -0.007,-0.49426 -0.0379,-0.46314 -0.10019,-0.40091 -0.19351,-0.30758 -0.30759,-0.19352 -0.40091,-0.10019 -0.46316,-0.038 -0.49427,-0.007 -0.49423,-0.007 -0.46316,-0.038 -0.40091,-0.10015 -0.30759,-0.19352 -0.19351,-0.30758 -0.10019,-0.40094 -0.038,-0.46314 -0.007,-0.49426 -0.007,-0.49426 -0.038,-0.46314 -0.10016,-0.40091 -0.19351,-0.30761 -0.30759,-0.19352 -0.40094,-0.10015 -0.46313,-0.038 -0.49426,-0.007 -0.49427,-0.007 -0.46313,-0.038 -0.40091,-0.10016 -0.30759,-0.19352 -0.19351,-0.30758 -0.10019,-0.40094 -0.038,-0.46314 -0.007,-0.49426 -0.007,-0.49426 -0.038,-0.46314 -0.10016,-0.40094 -0.19351,-0.30758 -0.30759,-0.19352 -0.40094,-0.10015 -0.46313,-0.038 -0.49426,-0.007 -0.49427,-0.007 -0.46313,-0.038 -0.40094,-0.10019 -0.30759,-0.19351 -0.19351,-0.30759 -0.10016,-0.40091"
     style="fill:none;stroke:#000000;stroke-width:0.3685;stroke-linecap:round;stroke-linejoin:round;stroke-miterlimit:10;stroke-dasharray:none;stroke-opacity:1"
     transform="matrix(1.3333333,0,0,-1.3333333,0,275.90533)" />
  <path
     id="path12"
     d="m 220.51837,150.6904 -0.038,-0.46314 -0.007,-0.49426 -0.007,-0.49426 -0.038,-0.46314 -0.10016,-0.40094 -0.19351,-0.30758 -0.30759,-0.19351 -0.40094,-0.10016 -0.46313,-0.038 -0.49426,-0.007 -0.49427,-0.007 -0.46313,-0.038 -0.40094,-0.10019 -0.30759,-0.19351 -0.19351,-0.30759 -0.10016,-0.40091 -0.038,-0.46317 -0.007,-0.49423 -0.007,-0.49426 -0.038,-0.46317 -0.10019,-0.4009 -0.19351,-0.30759 -0.30758,-0.19351 -0.40091,-0.10019 -0.46314,-0.0379 -0.49426,-0.007 -0.49426,-0.007 -0.46314,-0.0379 -0.40094,-0.10019 -0.30759,-0.19351 -0.19351,-0.30759 -0.10019,-0.40091 -0.0379,-0.46316 -0.007,-0.49427 -0.007,-0.49423 -0.0379,-0.46316 -0.10019,-0.40091 -0.19351,-0.30759 -0.30758,-0.19351 -0.40091,-0.10019 -0.46317,-0.0379 -0.49423,-0.007 -0.49426,-0.007 -0.46317,-0.0379 -0.40091,-0.10019 -0.30758,-0.19351 -0.19352,-0.30759 -0.10019,-0.40094 -0.0379,-0.46313 -0.007,-0.49427"
     style="fill:none;stroke:#000000;stroke-width:0.3685;stroke-linecap:round;stroke-linejoin:round;stroke-miterlimit:10;stroke-dasharray:none;stroke-opacity:1"
     transform="matrix(1.3333333,0,0,-1.3333333,0,275.90533)" />
  <path
     id="path13"
     d="m 208.44717,137.7066 -0.007,-0.49426 -0.0379,-0.46313 -0.10018,-0.40091 -0.19352,-0.30759 -0.30758,-0.19351 -0.40091,-0.10019 -0.46317,-0.038 -0.49426,-0.007 -0.49423,-0.007 -0.46317,-0.038 -0.40091,-0.10016 -0.30758,-0.19351 -0.19352,-0.30759 -0.10019,-0.40094 -0.038,-0.46313 -0.007,-0.49427 -0.007,-0.49426 -0.038,-0.46313 -0.10016,-0.40094 -0.19352,-0.30759 -0.30758,-0.19351 -0.40094,-0.10016 -0.46314,-0.038 -0.49426,-0.007 -0.49426,-0.007 -0.46314,-0.038 -0.40091,-0.10016 -0.30758,-0.19351 -0.19352,-0.30759 -0.10018,-0.40094 -0.038,-0.46313 -0.007,-0.49426 -0.007,-0.49427 -0.038,-0.46313 -0.10016,-0.40094 -0.19351,-0.30759 -0.30759,-0.19351 -0.40094,-0.10017 -0.46314,-0.038 -0.49426,-0.007 m 54.4231,54.42311 -0.0713,-0.59287 -0.10709,-0.55273 -0.17859,-0.47251 -0.28583,-0.3522 -0.3323,-0.17905 -0.40445,-0.0981 -0.45255,-0.0442 -0.47662,-0.0172 m 0,-104.22865 -0.49426,0.0068 -0.46314,0.03797"
     style="fill:none;stroke:#000000;stroke-width:0.3685;stroke-linecap:round;stroke-linejoin:round;stroke-miterlimit:10;stroke-dasharray:none;stroke-opacity:1"
     transform="matrix(1.3333333,0,0,-1.3333333,0,275.90533)" />
  <path
     id="path14"
     d="m 249.58212,75.6151 -0.40091,0.10017 -0.30758,0.19351 -0.19352,0.30759 -0.10018,0.40092 -0.038,0.46315 -0.007,0.49425 -0.007,0.49426 -0.038,0.46315 -0.10016,0.40093 -0.19351,0.30759 -0.30759,0.19351 -0.40094,0.10017 -0.46314,0.03795 -0.49426,0.0068 -0.49426,0.0069 -0.46314,0.03795 -0.40094,0.10017 -0.30758,0.19351 -0.19351,0.30759 -0.10016,0.40092 -0.038,0.46315 -0.007,0.49427 -0.007,0.49424 -0.038,0.46315 -0.10016,0.40093 -0.19351,0.30758 -0.30759,0.19352 -0.40094,0.10017 -0.46314,0.03795 -0.49426,0.0069 -0.49426,0.0068 -0.46314,0.03795 -0.40094,0.10018 -0.30758,0.19352 -0.19351,0.30758 -0.10016,0.40091 -0.038,0.46315 -0.007,0.49427 -0.007,0.49426 -0.038,0.46313 -0.10019,0.40093 -0.19351,0.30758 -0.30759,0.19352 -0.40091,0.10017 -0.46313,0.03796 -0.49427,0.0068 -0.49426,0.0068 -0.46313,0.03796 -0.40094,0.10017 -0.30759,0.19352"
     style="fill:none;stroke:#000000;stroke-width:0.3685;stroke-linecap:round;stroke-linejoin:round;stroke-miterlimit:10;stroke-dasharray:none;stroke-opacity:1"
     transform="matrix(1.3333333,0,0,-1.3333333,0,275.90533)" />
  <path
     id="path15"
     d="m 236.84723,87.93517 -0.19351,0.30758 -0.10019,0.40093 -0.0379,0.46315 -0.007,0.49424 -0.007,0.49427 -0.0379,0.46315 -0.10019,0.40092 -0.19351,0.30759 -0.30759,0.19351 -0.40091,0.10017 -0.46316,0.03795 -0.49424,0.0068 -0.49426,0.0069 -0.46316,0.03795 -0.40091,0.10017 -0.30759,0.19351 -0.19351,0.30759 -0.10019,0.40093 -0.0379,0.46315 -0.007,0.49426 -0.007,0.49425 -0.0379,0.46315 -0.10019,0.40092 -0.19351,0.30759 -0.30759,0.19351 -0.40091,0.10017 -0.46316,0.03795 -0.49427,0.0069 -0.49423,0.0068 -0.46316,0.03795 -0.40091,0.10019 -0.30759,0.19351 -0.19351,0.30759 -0.10019,0.40092 -0.038,0.46313 -0.007,0.49427 -0.007,0.49426 -0.038,0.46314 -0.10016,0.40092 -0.19351,0.30759 -0.30759,0.19351 -0.40094,0.10017 -0.46313,0.03797 -0.49426,0.0068 -0.49427,0.0068 -0.46313,0.03796 -0.40091,0.10018 -0.30759,0.19351 -0.19351,0.30758 -0.10019,0.40093"
     style="fill:none;stroke:#000000;stroke-width:0.3685;stroke-linecap:round;stroke-linejoin:round;stroke-miterlimit:10;stroke-dasharray:none;stroke-opacity:1"
     transform="matrix(1.3333333,0,0,-1.3333333,0,275.90533)" />
  <path
     id="path16"
     d="m 224.52716,100.67006 -0.038,0.46315 -0.007,0.49425 -0.007,0.49426 -0.038,0.46315 -0.10016,0.40092 -0.19351,0.30759 -0.30759,0.19351 -0.40094,0.10018 -0.46313,0.038 -0.49426,0.007 -0.49427,0.007 -0.46313,0.0379 -0.40094,0.10017 -0.30759,0.19352 -0.19351,0.30758 -0.10016,0.40093 -0.038,0.46315 -0.007,0.49426 -0.007,0.49425 -0.038,0.46315 -0.10016,0.40092 -0.19351,0.30759 -0.30759,0.19351 -0.40094,0.10018 -0.46313,0.0379 -0.49426,0.007 -0.49427,0.007 -0.46313,0.0379 -0.40094,0.10019 -0.30759,0.19351 -0.19351,0.30759 -0.10016,0.40092 -0.038,0.46314 -0.007,0.49426 -0.007,0.49426 -0.038,0.46314 -0.10019,0.40092 -0.19351,0.30759 -0.30758,0.19351 -0.40091,0.10017 -0.46314,0.038 -0.49426,0.007 -0.49426,0.007 -0.46314,0.038 -0.40094,0.10018 -0.30759,0.19351 -0.19351,0.30759 -0.10019,0.40092 -0.0379,0.46315 -0.007,0.49425"
     style="fill:none;stroke:#000000;stroke-width:0.3685;stroke-linecap:round;stroke-linejoin:round;stroke-miterlimit:10;stroke-dasharray:none;stroke-opacity:1"
     transform="matrix(1.3333333,0,0,-1.3333333,0,275.90533)" />
  <path
     id="path17"
     d="m 212.45599,113.65384 -0.007,0.49426 -0.0379,0.46315 -0.10019,0.40093 -0.19351,0.30758 -0.30758,0.19352 -0.40091,0.10017 -0.46317,0.0379 -0.49423,0.007 -0.49426,0.007 -0.46317,0.0379 -0.40091,0.10018 -0.30758,0.19351 -0.19352,0.30759 -0.10019,0.40092 -0.0379,0.46315 -0.007,0.49426 -0.007,0.49425 -0.0379,0.46315 -0.10018,0.40093 -0.19352,0.30758 -0.30758,0.19351 -0.40091,0.10018 -0.46317,0.0379 -0.49426,0.007 -0.49423,0.007 -0.46317,0.038 -0.40091,0.10019 -0.30758,0.19351 -0.19352,0.30759 -0.10019,0.40093 -0.038,0.46313 -0.007,0.49426 -0.007,0.49427 -0.038,0.46313 -0.10016,0.40092 -0.19352,0.30759 -0.30758,0.19351 -0.40094,0.10018 -0.46314,0.038 -0.49426,0.007 -0.49426,0.007 -0.46314,0.0379 -0.40091,0.10017 -0.30758,0.19351 -0.19352,0.30759 -0.10018,0.40092 -0.038,0.46315 -0.007,0.49425 -0.007,0.49426 -0.038,0.46315"
     style="fill:none;stroke:#000000;stroke-width:0.3685;stroke-linecap:round;stroke-linejoin:round;stroke-miterlimit:10;stroke-dasharray:none;stroke-opacity:1"
     transform="matrix(1.3333333,0,0,-1.3333333,0,275.90533)" />
  <path
     id="path18"
     d="m 200.3848,126.63763 -0.10016,0.40093 -0.19351,0.30759 -0.30759,0.19351 -0.40094,0.10017 -0.46314,0.0379 -0.49426,0.007 m 54.4231,-54.42308 -0.0713,0.59285 -0.10709,0.55273 -0.17859,0.47252 -0.28583,0.35217 -0.3323,0.17908 -0.40445,0.09811 -0.45255,0.04415 -0.47662,0.01715 M 144.00216,73.26165 H 252.84835 V 182.10784 H 144.00216 V 73.26165 m 123.0194,108.84619 V 73.26165 m 17.00788,54.42308 -17.00788,-54.42308 m 17.00788,54.42308 -17.00788,54.42311 m 7.08661,-108.84619 v 7.0866 l -7.08661,-7.0866 m 7.08661,0 v -7.08661 l -7.08661,7.08661 m 7.08661,-2.83464 1.5033,-1.50332 m -1.5033,4.33796 1.5033,-1.5033 m -1.5033,4.33794 1.5033,-1.5033 m -1.5033,4.33795 1.5033,-1.50331 m -1.5033,-9.83528 1.5033,-1.5033 m -1.5033,116.01879 v -7.08661 l -7.08661,7.08661 m 7.08661,0 v 7.08661 l -7.08661,-7.08661 m 8.58991,-7.08661 v 14.25918 m 8.41797,-61.59568 H 267.02156 M 144.00216,52.0018 h 7.0866 l -7.0866,7.08661 m 0,-7.08661 h -7.08661 l 7.08661,7.08661 m 7.0866,-8.5899 h -14.25918 m 7.17258,8.5899 h 108.84619 m 0,-7.08661 h 7.08661 l -7.08661,7.08661 m 0,-7.08661 h -7.08661 l 7.08661,7.08661 m -2.83466,-7.08661 -1.50329,-1.50329 m 4.33795,1.50329 -1.5033,-1.50329 m 4.33792,1.50329 -1.50329,-1.50329 m 4.33795,1.50329 -1.5033,-1.50329"
     style="fill:none;stroke:#000000;stroke-width:0.3685;stroke-linecap:round;stroke-linejoin:round;stroke-miterlimit:10;stroke-dasharray:none;stroke-opacity:1"
     transform="matrix(1.3333333,0,0,-1.3333333,0,275.90533)" />
  <path
     id="path19"
     d="m 247.17899,52.00169 -1.5033,-1.50329 M 198.6738,42.08043 144.00211,59.0883 m 108.84619,0 -54.1745,-17.00787 V 59.0883"
     style="fill:none;stroke:#000000;stroke-width:0.3685;stroke-linecap:round;stroke-linejoin:round;stroke-miterlimit:10;stroke-dasharray:none;stroke-opacity:1"
     transform="matrix(1.3333333,0,0,-1.3333333,0,275.90533)" />
  <g
     id="layer-MC0"
     inkscape:groupmode="layer"
     inkscape:label="STABBEANSPR_DIAG">
    <path
       id="path20"
       d="m 286.86404,127.68462 -0.0431,0.49223 -0.12787,0.47729 -0.20883,0.44782 -0.28341,0.40475 -0.34937,0.34937 -0.40475,0.28342 -0.44782,0.20883 -0.47729,0.12787 -0.49222,0.0431 -0.49225,-0.0431 -0.47726,-0.12787 -0.44782,-0.20883 -0.40475,-0.28342 -0.3494,-0.34937 -0.28339,-0.40475 -0.20883,-0.44782 -0.1279,-0.47729 -0.0431,-0.49223 0.0431,-0.49222 0.1279,-0.47728 0.20883,-0.44782 0.28339,-0.40475 0.3494,-0.3494 0.40475,-0.2834 0.44782,-0.20881 0.47726,-0.1279 0.49225,-0.0431 0.49222,0.0431 0.47729,0.1279 0.44782,0.20881 0.40475,0.2834 0.34937,0.3494 0.28341,0.40475 0.20883,0.44782 0.12787,0.47728 z"
       style="fill:#e0e0e0;fill-opacity:1;fill-rule:nonzero;stroke:none"
       transform="matrix(1.3333333,0,0,-1.3333333,0,275.90533)" />
  </g>
  <path
     id="path21"
     d="m 129.82889,73.26154 -0.4252,2.97638 h 0.8504 l -0.4252,-2.97638 m 0,108.84619 -0.4252,-2.97638 h 0.8504 l -0.4252,2.97638 m 0,-108.84619 h -2.12599 m 2.12599,0 h 2.12597 m -2.12597,108.84619 h -2.12599 m 2.12599,0 h 2.12597 M 129.82889,73.26154 h 8.50393 m -8.50393,108.84619 h 8.50393 M 129.82889,73.26154 v 0 m 0,108.84619 v 0"
     style="fill:none;stroke:#000000;stroke-width:0.3685;stroke-linecap:round;stroke-linejoin:round;stroke-miterlimit:10;stroke-dasharray:none;stroke-opacity:1"
     transform="matrix(1.3333333,0,0,-1.3333333,0,275.90533)" />
  <text
     id="text21"
     xml:space="preserve"
     transform="matrix(0,-1.3333333,1.3333333,0,169.11165,108.54799)"
     clip-path="url(#clipPath22)"><tspan
       style="font-style:italic;font-variant:normal;font-weight:normal;font-stretch:normal;font-size:10.0071px;font-family:'Palatino Linotype';writing-mode:lr-tb;fill:#000000;fill-opacity:1;fill-rule:nonzero;stroke:none"
       x="0"
       y="0"
       id="tspan21">b</tspan></text>
  <path
     id="path23"
     d="M 129.82889,73.26154 V 182.10773"
     style="fill:none;stroke:#000000;stroke-width:0.3685;stroke-linecap:round;stroke-linejoin:round;stroke-miterlimit:10;stroke-dasharray:none;stroke-opacity:1"
     transform="matrix(1.3333333,0,0,-1.3333333,0,275.90533)" />
  <text
     id="text23"
     xml:space="preserve"
     transform="matrix(1.3333333,0,0,1.3333333,363.2006,102.66447)"
     clip-path="url(#clipPath24)"><tspan
       style="font-style:italic;font-variant:normal;font-weight:normal;font-stretch:normal;font-size:10.0071px;font-family:'Palatino Linotype';writing-mode:lr-tb;fill:#000000;fill-opacity:1;fill-rule:nonzero;stroke:none"
       x="0"
       y="0"
       id="tspan23">1</tspan></text>
  <path
     id="path25"
     d="m 144.00211,196.28094 2.97638,0.42521 v -0.85041 l -2.97638,0.4252 m 108.84619,0 -2.97638,0.42521 v -0.85041 l 2.97638,0.4252 m -108.84619,0 v 2.12598 m 0,-2.12598 v -2.12597 m 108.84619,2.12597 v 2.12598 m 0,-2.12598 v -2.12597 m -108.84619,2.12597 v -8.50393 m 108.84619,8.50393 v -8.50393 m -108.84619,8.50393 v 0 m 108.84619,0 v 0"
     style="fill:none;stroke:#000000;stroke-width:0.3685;stroke-linecap:round;stroke-linejoin:round;stroke-miterlimit:10;stroke-dasharray:none;stroke-opacity:1"
     transform="matrix(1.3333333,0,0,-1.3333333,0,275.90533)" />
  <text
     id="text25"
     xml:space="preserve"
     transform="matrix(1.3333333,0,0,1.3333333,261.73496,10.203907)"
     clip-path="url(#clipPath26)"><tspan
       style="font-style:italic;font-variant:normal;font-weight:normal;font-stretch:normal;font-size:10.0071px;font-family:'Palatino Linotype';writing-mode:lr-tb;fill:#000000;fill-opacity:1;fill-rule:nonzero;stroke:none"
       x="0"
       y="0"
       id="tspan25">a</tspan></text>
  <path
     id="path27"
     d="m 144.00211,196.28094 h 46.233 62.61319 m 51.69687,-123.0194 -0.42521,2.97638 h 0.85041 l -0.4252,-2.97638 m 0,54.42308 -0.42521,-2.97637 h 0.85041 l -0.4252,2.97637 -0.42521,2.97639 h 0.85041 l -0.4252,-2.97639 m 0,54.42311 -0.42521,-2.97638 h 0.85041 l -0.4252,2.97638 m 0,-108.84619 h -2.12598 m 2.12598,0 h 2.12597 m -2.12597,54.42308 h -2.12598 m 2.12598,0 h 2.12597 m -2.12597,0 h -2.12598 m 2.12598,0 h 2.12597 m -2.12597,54.42311 h -2.12598 m 2.12598,0 h 2.12597 M 304.54517,73.26154 h -26.18506 m 26.18506,54.42308 h -1.77164 -7.40555 m 9.17719,54.42311 H 278.36011 M 304.54517,73.26154 v 0 m 0,108.84619 v 0"
     style="fill:none;stroke:#000000;stroke-width:0.3685;stroke-linecap:round;stroke-linejoin:round;stroke-miterlimit:10;stroke-dasharray:none;stroke-opacity:1"
     transform="matrix(1.3333333,0,0,-1.3333333,0,275.90533)" />
  <text
     id="text27"
     xml:space="preserve"
     transform="matrix(0,-1.3333333,1.3333333,0,402.06671,150.04261)"
     clip-path="url(#clipPath28)"><tspan
       style="font-style:italic;font-variant:normal;font-weight:normal;font-stretch:normal;font-size:10.0071px;font-family:'Palatino Linotype';writing-mode:lr-tb;fill:#000000;fill-opacity:1;fill-rule:nonzero;stroke:none"
       x="0 4.6333013 7.5954118"
       y="0"
       sodipodi:role="line"
       id="tspan27">b/2</tspan></text>
  <text
     id="text28"
     xml:space="preserve"
     transform="matrix(0,-1.3333333,1.3333333,0,402.06671,77.478493)"
     clip-path="url(#clipPath29)"><tspan
       style="font-style:italic;font-variant:normal;font-weight:normal;font-stretch:normal;font-size:10.0071px;font-family:'Palatino Linotype';writing-mode:lr-tb;fill:#000000;fill-opacity:1;fill-rule:nonzero;stroke:none"
       x="0 4.6333013 7.5954118"
       y="0"
       sodipodi:role="line"
       id="tspan28">b/2</tspan></text>
  <path
     id="path30"
     d="m 304.54517,73.26154 v 54.42308 54.42311"
     style="fill:none;stroke:#000000;stroke-width:0.3685;stroke-linecap:round;stroke-linejoin:round;stroke-miterlimit:10;stroke-dasharray:none;stroke-opacity:1"
     transform="matrix(1.3333333,0,0,-1.3333333,0,275.90533)" />
  <text
     id="text30"
     xml:space="preserve"
     transform="matrix(1.3333333,0,0,1.3333333,268.79944,211.70467)"
     clip-path="url(#clipPath31)"><tspan
       style="font-style:italic;font-variant:normal;font-weight:normal;font-stretch:normal;font-size:10.0071px;font-family:'Palatino Linotype';writing-mode:lr-tb;fill:#000000;fill-opacity:1;fill-rule:nonzero;stroke:none"
       x="0"
       y="0"
       id="tspan30">1</tspan></text>
  <path
     id="path32"
     d="m 144.00211,19.94104 2.97638,0.4252 v -0.8504 l -2.97638,0.4252 m 54.67169,0 -2.97638,0.4252 v -0.8504 l 2.97638,0.4252 2.97638,0.4252 v -0.8504 l -2.97638,0.4252 m 54.1745,0 -2.97638,0.4252 v -0.8504 l 2.97638,0.4252 m -108.84619,0 v 2.12598 m 0,-2.12598 v -2.12598 m 54.67169,2.12598 v 2.12598 m 0,-2.12598 v -2.12598 m 0,2.12598 v 2.12598 m 0,-2.12598 v -2.12598 m 54.1745,2.12598 v 2.12598 m 0,-2.12598 V 17.81506 M 144.00211,19.94104 V 47.74973 M 198.6738,19.94104 v 1.77165 9.02916 M 252.8483,19.94104 V 47.74973 M 144.00211,19.94104 v 0 m 108.84619,0 v 0"
     style="fill:none;stroke:#000000;stroke-width:0.3685;stroke-linecap:round;stroke-linejoin:round;stroke-miterlimit:10;stroke-dasharray:none;stroke-opacity:1"
     transform="matrix(1.3333333,0,0,-1.3333333,0,275.90533)" />
  <text
     id="text32"
     xml:space="preserve"
     transform="matrix(1.3333333,0,0,1.3333333,220.47961,245.32377)"
     clip-path="url(#clipPath33)"><tspan
       style="font-style:italic;font-variant:normal;font-weight:normal;font-stretch:normal;font-size:10.0071px;font-family:'Palatino Linotype';writing-mode:lr-tb;fill:#000000;fill-opacity:1;fill-rule:nonzero;stroke:none"
       x="0 4.4431658 7.4052763"
       y="0"
       sodipodi:role="line"
       id="tspan32">a/2</tspan></text>
  <text
     id="text33"
     xml:space="preserve"
     transform="matrix(1.3333333,0,0,1.3333333,293.04372,245.32377)"
     clip-path="url(#clipPath34)"><tspan
       style="font-style:italic;font-variant:normal;font-weight:normal;font-stretch:normal;font-size:10.0071px;font-family:'Palatino Linotype';writing-mode:lr-tb;fill:#000000;fill-opacity:1;fill-rule:nonzero;stroke:none"
       x="0 4.4431658 7.4052763"
       y="0"
       sodipodi:role="line"
       id="tspan33">a/2</tspan></text>
  <path
     id="path35"
     d="m 144.00211,19.94104 h 54.67169 54.1745"
     style="fill:none;stroke:#000000;stroke-width:0.3685;stroke-linecap:round;stroke-linejoin:round;stroke-miterlimit:10;stroke-dasharray:none;stroke-opacity:1"
     transform="matrix(1.3333333,0,0,-1.3333333,0,275.90533)" />
  <path
     id="path36"
     d="m 286.86404,127.68462 c 0,1.56553 -1.26913,2.83467 -2.83465,2.83467 m 0,0 c -1.56552,0 -2.83466,-1.26914 -2.83466,-2.83467 m 0,0 c 0,-1.56553 1.26914,-2.83464 2.83466,-2.83464 m 0,0 c 1.56552,0 2.83465,1.26911 2.83465,2.83464"
     style="fill:none;stroke:#000000;stroke-width:0.3685;stroke-linecap:round;stroke-linejoin:round;stroke-miterlimit:10;stroke-dasharray:none;stroke-opacity:1"
     transform="matrix(1.3333333,0,0,-1.3333333,0,275.90533)" />
</svg>
