<?xml version="1.0" encoding="UTF-8" standalone="no"?>
<!-- Created with Inkscape (http://www.inkscape.org/) -->

<svg
   version="1.1"
   id="svg1"
   width="566.92932"
   height="302.36267"
   viewBox="0 0 566.92932 302.36267"
   sodipodi:docname="quad_aufgabenstellung.pdf"
   xmlns:inkscape="http://www.inkscape.org/namespaces/inkscape"
   xmlns:sodipodi="http://sodipodi.sourceforge.net/DTD/sodipodi-0.dtd"
   xmlns="http://www.w3.org/2000/svg"
   xmlns:svg="http://www.w3.org/2000/svg">
  <defs
     id="defs1">
    <clipPath
       clipPathUnits="userSpaceOnUse"
       id="clipPath29">
      <path
         d="m -0.00426,-0.00227 v 226.7762 H 425.20111 V -0.00227 H -0.00426"
         transform="matrix(1,0,0,-1,-150.41464,7.5963127)"
         clip-rule="evenodd"
         id="path29" />
    </clipPath>
    <clipPath
       clipPathUnits="userSpaceOnUse"
       id="clipPath31">
      <path
         d="m -0.00426,-0.00227 v 226.7762 H 425.20111 V -0.00227 H -0.00426"
         transform="matrix(0,1,1,0,-114.2231,-352.37667)"
         clip-rule="evenodd"
         id="path31" />
    </clipPath>
    <clipPath
       clipPathUnits="userSpaceOnUse"
       id="clipPath33">
      <path
         d="m -0.00426,-0.00227 v 226.7762 H 425.20111 V -0.00227 H -0.00426"
         transform="matrix(1,0,0,-1,-188.82504,152.3527)"
         clip-rule="evenodd"
         id="path33" />
    </clipPath>
    <clipPath
       clipPathUnits="userSpaceOnUse"
       id="clipPath34">
      <path
         d="m -0.00426,-0.00227 v 226.7762 H 425.20111 V -0.00227 H -0.00426"
         transform="matrix(1,0,0,-1,-194.58981,148.21886)"
         clip-rule="evenodd"
         id="path34" />
    </clipPath>
    <clipPath
       clipPathUnits="userSpaceOnUse"
       id="clipPath35">
      <path
         d="m -0.00426,-0.00227 v 226.7762 H 425.20111 V -0.00227 H -0.00426"
         transform="matrix(1,0,0,-1,-291.60793,214.32664)"
         clip-rule="evenodd"
         id="path35" />
    </clipPath>
    <clipPath
       clipPathUnits="userSpaceOnUse"
       id="clipPath36">
      <path
         d="m -0.00426,-0.00227 v 226.7762 H 425.20111 V -0.00227 H -0.00426"
         transform="matrix(1,0,0,-1,-297.3727,210.1928)"
         clip-rule="evenodd"
         id="path36" />
    </clipPath>
  </defs>
  <sodipodi:namedview
     id="namedview1"
     pagecolor="#ffffff"
     bordercolor="#000000"
     borderopacity="0.25"
     inkscape:showpageshadow="2"
     inkscape:pageopacity="0.0"
     inkscape:pagecheckerboard="0"
     inkscape:deskcolor="#d1d1d1">
    <inkscape:page
       x="0"
       y="0"
       inkscape:label="1"
       id="page1"
       width="566.92932"
       height="302.36267"
       margin="0"
       bleed="0" />
  </sodipodi:namedview>
  <g
     id="g1"
     inkscape:groupmode="layer"
     inkscape:label="1">
    <path
       id="path1"
       d="m 148.74371,141.20029 0.14786,-9.46085 m -0.093,5.95203 -0.007,0.42514 m 0.0997,-6.37717 v 0 l 0.75726,5.9653 -1.70056,-0.0266 0.9433,-5.93872"
       style="fill:none;stroke:#4c4c4c;stroke-width:0.3685;stroke-linecap:round;stroke-linejoin:round;stroke-miterlimit:10;stroke-dasharray:none;stroke-opacity:1"
       transform="matrix(1.3333333,0,0,-1.3333333,0,302.36267)" />
    <path
       id="path2"
       d="m 147.94827,137.67816 0.9433,-5.93872 0.75726,5.9653 -1.70056,-0.0266 z"
       style="fill:#4c4c4c;fill-opacity:1;fill-rule:nonzero;stroke:none"
       transform="matrix(1.3333333,0,0,-1.3333333,0,302.36267)" />
    <path
       id="path3"
       d="m 168.96426,129.69235 v -9.47062 m 0,5.95275 v 0.42521 m 0,-6.37796 v 0 l 0.85041,5.95275 h -1.70081 l 0.8504,-5.95275"
       style="fill:none;stroke:#4c4c4c;stroke-width:0.3685;stroke-linecap:round;stroke-linejoin:round;stroke-miterlimit:10;stroke-dasharray:none;stroke-opacity:1"
       transform="matrix(1.3333333,0,0,-1.3333333,0,302.36267)" />
    <path
       id="path4"
       d="m 168.11386,126.17448 0.8504,-5.95275 0.85041,5.95275 z"
       style="fill:#4c4c4c;fill-opacity:1;fill-rule:nonzero;stroke:none"
       transform="matrix(1.3333333,0,0,-1.3333333,0,302.36267)" />
    <path
       id="path5"
       d="m 187.29489,141.20605 0.14789,-9.46661 m -0.093,5.95203 -0.007,0.42514 m 0.0996,-6.37717 v 0 l 0.75729,5.9653 -1.70056,-0.0266 0.94327,-5.93872"
       style="fill:none;stroke:#4c4c4c;stroke-width:0.3685;stroke-linecap:round;stroke-linejoin:round;stroke-miterlimit:10;stroke-dasharray:none;stroke-opacity:1"
       transform="matrix(1.3333333,0,0,-1.3333333,0,302.36267)" />
    <path
       id="path6"
       d="m 186.49951,137.67816 0.94327,-5.93872 0.75729,5.9653 -1.70056,-0.0266 z"
       style="fill:#4c4c4c;fill-opacity:1;fill-rule:nonzero;stroke:none"
       transform="matrix(1.3333333,0,0,-1.3333333,0,302.36267)" />
    <path
       id="path7"
       d="m 187.44278,131.73944 c 0,6.36649 -8.63001,11.52756 -19.2756,11.52756 m 0,0 c -10.64563,0 -19.27561,-5.16107 -19.27561,-11.52756 m 0,0 c 0,-6.36652 8.62998,-11.52757 19.27561,-11.52757 m 0,0 c 10.64559,0 19.2756,5.16105 19.2756,11.52757"
       style="fill:none;stroke:#4c4c4c;stroke-width:0.3685;stroke-linecap:round;stroke-linejoin:round;stroke-miterlimit:10;stroke-dasharray:none;stroke-opacity:1"
       transform="matrix(1.3333333,0,0,-1.3333333,0,302.36267)" />
    <path
       id="path8"
       d="m 187.29489,141.20605 c 0,6.36649 -8.62997,11.52756 -19.2756,11.52756 m 0,0 c -10.6456,0 -19.27558,-5.16107 -19.27558,-11.52756 m 0,0 c 0,-6.36648 8.62998,-11.52755 19.27558,-11.52755 m 0,0 c 10.64563,0 19.2756,5.16107 19.2756,11.52755"
       style="fill:none;stroke:#4c4c4c;stroke-width:0.3685;stroke-linecap:round;stroke-linejoin:round;stroke-miterlimit:10;stroke-dasharray:none;stroke-opacity:1"
       transform="matrix(1.3333333,0,0,-1.3333333,0,302.36267)" />
    <path
       id="path9"
       d="m 334.51404,31.12877 v 4.72441 l -4.72443,-4.72441 m 4.72443,0 v -4.72441 l -4.72443,4.72441 m 5.72663,4.72441 v -9.50613 m -1.0022,193.75811 v 4.7244 l -4.72443,-4.7244 m 4.72443,0 v -4.72442 l -4.72443,4.72442 m 5.72663,4.7244 v -9.50613"
       style="fill:none;stroke:#000000;stroke-width:0.3685;stroke-linecap:round;stroke-linejoin:round;stroke-miterlimit:10;stroke-dasharray:none;stroke-opacity:1"
       transform="matrix(1.3333333,0,0,-1.3333333,0,302.36267)" />
    <path
       id="path10"
       d="M 315.8526,31.12877 V 220.10516 H 303.09671 V 31.12877 h 12.75589 m -12.75589,18.89764 h 12.75589 m -5.95276,0 h -0.4252 m 6.37796,0 v 0 l -5.95276,0.85039 v -1.70077 l 5.95276,0.85038"
       style="fill:none;stroke:#4c4c4c;stroke-width:0.3685;stroke-linecap:round;stroke-linejoin:round;stroke-miterlimit:10;stroke-dasharray:none;stroke-opacity:1"
       transform="matrix(1.3333333,0,0,-1.3333333,0,302.36267)" />
    <path
       id="path11"
       d="m 309.89984,49.17603 5.95276,0.85038 -5.95276,0.85039 z"
       style="fill:#4c4c4c;fill-opacity:1;fill-rule:nonzero;stroke:none"
       transform="matrix(1.3333333,0,0,-1.3333333,0,302.36267)" />
    <path
       id="path12"
       d="m 303.09671,68.92406 h 12.75589 m -5.95276,0 h -0.4252 m 6.37796,0 v 0 l -5.95276,0.85038 v -1.70077 l 5.95276,0.85039"
       style="fill:none;stroke:#4c4c4c;stroke-width:0.3685;stroke-linecap:round;stroke-linejoin:round;stroke-miterlimit:10;stroke-dasharray:none;stroke-opacity:1"
       transform="matrix(1.3333333,0,0,-1.3333333,0,302.36267)" />
    <path
       id="path13"
       d="m 309.89984,68.07367 5.95276,0.85039 -5.95276,0.85038 z"
       style="fill:#4c4c4c;fill-opacity:1;fill-rule:nonzero;stroke:none"
       transform="matrix(1.3333333,0,0,-1.3333333,0,302.36267)" />
    <path
       id="path14"
       d="m 303.09671,87.82169 h 12.75589 m -5.95276,0 h -0.4252 m 6.37796,0 v 0 l -5.95276,0.8504 V 86.9713 l 5.95276,0.85039"
       style="fill:none;stroke:#4c4c4c;stroke-width:0.3685;stroke-linecap:round;stroke-linejoin:round;stroke-miterlimit:10;stroke-dasharray:none;stroke-opacity:1"
       transform="matrix(1.3333333,0,0,-1.3333333,0,302.36267)" />
    <path
       id="path15"
       d="m 309.89984,86.9713 5.95276,0.85039 -5.95276,0.8504 z"
       style="fill:#4c4c4c;fill-opacity:1;fill-rule:nonzero;stroke:none"
       transform="matrix(1.3333333,0,0,-1.3333333,0,302.36267)" />
    <path
       id="path16"
       d="m 303.09671,106.71933 h 12.75589 m -5.95276,0 h -0.4252 m 6.37796,0 v 0 l -5.95276,0.85039 v -1.70078 l 5.95276,0.85039"
       style="fill:none;stroke:#4c4c4c;stroke-width:0.3685;stroke-linecap:round;stroke-linejoin:round;stroke-miterlimit:10;stroke-dasharray:none;stroke-opacity:1"
       transform="matrix(1.3333333,0,0,-1.3333333,0,302.36267)" />
    <path
       id="path17"
       d="m 309.89984,105.86894 5.95276,0.85039 -5.95276,0.85039 z"
       style="fill:#4c4c4c;fill-opacity:1;fill-rule:nonzero;stroke:none"
       transform="matrix(1.3333333,0,0,-1.3333333,0,302.36267)" />
    <path
       id="path18"
       d="m 303.09671,125.61696 h 12.75589 m -5.95276,0 h -0.4252 m 6.37796,0 v 0 l -5.95276,0.8504 v -1.70077 l 5.95276,0.85037"
       style="fill:none;stroke:#4c4c4c;stroke-width:0.3685;stroke-linecap:round;stroke-linejoin:round;stroke-miterlimit:10;stroke-dasharray:none;stroke-opacity:1"
       transform="matrix(1.3333333,0,0,-1.3333333,0,302.36267)" />
    <path
       id="path19"
       d="m 309.89984,124.76659 5.95276,0.85037 -5.95276,0.8504 z"
       style="fill:#4c4c4c;fill-opacity:1;fill-rule:nonzero;stroke:none"
       transform="matrix(1.3333333,0,0,-1.3333333,0,302.36267)" />
    <path
       id="path20"
       d="m 303.09671,144.51462 h 12.75589 m -5.95276,0 h -0.4252 m 6.37796,0 v 0 l -5.95276,0.85037 v -1.70077 l 5.95276,0.8504"
       style="fill:none;stroke:#4c4c4c;stroke-width:0.3685;stroke-linecap:round;stroke-linejoin:round;stroke-miterlimit:10;stroke-dasharray:none;stroke-opacity:1"
       transform="matrix(1.3333333,0,0,-1.3333333,0,302.36267)" />
    <path
       id="path21"
       d="m 309.89984,143.66422 5.95276,0.8504 -5.95276,0.85037 z"
       style="fill:#4c4c4c;fill-opacity:1;fill-rule:nonzero;stroke:none"
       transform="matrix(1.3333333,0,0,-1.3333333,0,302.36267)" />
    <path
       id="path22"
       d="m 303.09671,163.41223 h 12.75589 m -5.95276,0 h -0.4252 m 6.37796,0 v 0 l -5.95276,0.8504 v -1.70077 l 5.95276,0.85037"
       style="fill:none;stroke:#4c4c4c;stroke-width:0.3685;stroke-linecap:round;stroke-linejoin:round;stroke-miterlimit:10;stroke-dasharray:none;stroke-opacity:1"
       transform="matrix(1.3333333,0,0,-1.3333333,0,302.36267)" />
    <path
       id="path23"
       d="m 309.89984,162.56186 5.95276,0.85037 -5.95276,0.8504 z"
       style="fill:#4c4c4c;fill-opacity:1;fill-rule:nonzero;stroke:none"
       transform="matrix(1.3333333,0,0,-1.3333333,0,302.36267)" />
    <path
       id="path24"
       d="m 303.09671,182.30988 h 12.75589 m -5.95276,0 h -0.4252 m 6.37796,0 v 0 l -5.95276,0.8504 v -1.70078 l 5.95276,0.85038"
       style="fill:none;stroke:#4c4c4c;stroke-width:0.3685;stroke-linecap:round;stroke-linejoin:round;stroke-miterlimit:10;stroke-dasharray:none;stroke-opacity:1"
       transform="matrix(1.3333333,0,0,-1.3333333,0,302.36267)" />
    <path
       id="path25"
       d="m 309.89984,181.4595 5.95276,0.85038 -5.95276,0.8504 z"
       style="fill:#4c4c4c;fill-opacity:1;fill-rule:nonzero;stroke:none"
       transform="matrix(1.3333333,0,0,-1.3333333,0,302.36267)" />
    <path
       id="path26"
       d="m 303.09671,201.20752 h 12.75589 m -5.95276,0 h -0.4252 m 6.37796,0 v 0 l -5.95276,0.8504 v -1.70077 l 5.95276,0.85037"
       style="fill:none;stroke:#4c4c4c;stroke-width:0.3685;stroke-linecap:round;stroke-linejoin:round;stroke-miterlimit:10;stroke-dasharray:none;stroke-opacity:1"
       transform="matrix(1.3333333,0,0,-1.3333333,0,302.36267)" />
    <path
       id="path27"
       d="m 309.89984,200.35715 5.95276,0.85037 -5.95276,0.8504 z"
       style="fill:#4c4c4c;fill-opacity:1;fill-rule:nonzero;stroke:none"
       transform="matrix(1.3333333,0,0,-1.3333333,0,302.36267)" />
    <path
       id="path28"
       d="M 67.32033,220.10516 H 256.29669 V 31.12877 H 67.32033 v 188.97639 m 262.46928,0 V 31.12877 m 1.32285,0 v 1.46966 m 0,2.83464 v 4.25197 m 0,2.83464 v 4.25197 m 0,2.83466 v 4.25197 m 0,2.83464 v 4.25197 m 0,2.83464 v 4.25196 m 0,2.83466 v 4.25197 m 0,2.83464 v 4.25197 m 0,2.83464 v 4.25197 m 0,2.83465 v 4.25197 m 0,2.83464 v 4.25197 m 0,2.83464 v 4.25197 m 0,2.83465 v 4.25197 m 0,2.83464 v 4.25197 m 0,2.83464 v 4.25199 m 0,2.83465 v 4.25195 m 0,2.83466 v 4.25195 m 0,2.83466 v 4.25195 m 0,2.83466 v 4.25198 m 0,2.83463 v 4.25198 m 0,2.83463 v 4.25198 m 0,2.83465 v 4.25196 m 0,2.83465 v 4.25196 m 0,2.83465 v 4.25196 m 0,2.83465 v 4.25199 m 0,2.83462 v 4.25198 m 0,2.83463 v 4.25198 m 0,2.83466 v 0.4201 m 0,-188.97639 v 0 m 0,188.97639 v 0 M 67.32033,4.56062 70.29669,4.98582 V 4.13544 l -2.97636,0.42518 m 188.97636,0 -2.97635,0.4252 V 4.13544 l 2.97635,0.42518 m -188.97636,0 v 2.12599 m 0,-2.12599 V 2.43465 m 188.97636,2.12597 v 2.12599 m 0,-2.12599 V 2.43465 M 67.32033,4.56062 V 19.79019 M 256.29669,4.56062 V 19.79019 M 67.32033,4.56062 v 0 m 188.97636,0 v 0"
       style="fill:none;stroke:#000000;stroke-width:0.3685;stroke-linecap:round;stroke-linejoin:round;stroke-miterlimit:10;stroke-dasharray:none;stroke-opacity:1"
       transform="matrix(1.3333333,0,0,-1.3333333,0,302.36267)" />
    <text
       id="text28"
       xml:space="preserve"
       transform="matrix(1.3333333,0,0,1.3333333,200.55285,292.23425)"
       clip-path="url(#clipPath29)"><tspan
         style="font-variant:normal;font-weight:normal;font-stretch:normal;font-size:10.0916px;font-family:'Palatino Linotype';writing-mode:lr-tb;fill:#000000;fill-opacity:1;fill-rule:nonzero;stroke:none"
         x="0 5.045805 10.09161 12.614512 17.660318"
         y="0"
         sodipodi:role="line"
         id="tspan28">10.00</tspan></text>
    <path
       id="path30"
       d="M 67.32033,4.56062 H 95.1481 256.29669 m 99.11563,26.56815 -0.42517,2.97638 h 0.85037 l -0.4252,-2.97638 m 0,188.97639 -0.42517,-2.97638 h 0.85037 l -0.4252,2.97638 m 0,-188.97639 h -2.12597 m 2.12597,0 h 2.12598 m -2.12598,188.97639 h -2.12597 m 2.12597,0 h 2.12598 M 355.41232,31.12877 H 341.1282 m 14.28412,188.97639 H 341.1282 M 355.41232,31.12877 v 0 m 0,188.97639 v 0"
       style="fill:none;stroke:#000000;stroke-width:0.3685;stroke-linecap:round;stroke-linejoin:round;stroke-miterlimit:10;stroke-dasharray:none;stroke-opacity:1"
       transform="matrix(1.3333333,0,0,-1.3333333,0,302.36267)" />
    <text
       id="text30"
       xml:space="preserve"
       transform="matrix(0,-1.3333333,1.3333333,0,469.83555,150.06521)"
       clip-path="url(#clipPath31)"><tspan
         style="font-variant:normal;font-weight:normal;font-stretch:normal;font-size:10.0916px;font-family:'Palatino Linotype';writing-mode:lr-tb;fill:#000000;fill-opacity:1;fill-rule:nonzero;stroke:none"
         x="0 5.045805 10.09161 12.614512 17.660318"
         y="0"
         sodipodi:role="line"
         id="tspan30">10.00</tspan></text>
    <path
       id="path32"
       d="M 355.41232,31.12877 V 220.10516"
       style="fill:none;stroke:#000000;stroke-width:0.3685;stroke-linecap:round;stroke-linejoin:round;stroke-miterlimit:10;stroke-dasharray:none;stroke-opacity:1"
       transform="matrix(1.3333333,0,0,-1.3333333,0,302.36267)" />
    <text
       id="text32"
       xml:space="preserve"
       transform="matrix(1.3333333,0,0,1.3333333,251.76671,99.225733)"
       clip-path="url(#clipPath33)"><tspan
         style="font-style:italic;font-variant:normal;font-weight:normal;font-stretch:normal;font-size:10.0071px;font-family:'Palatino Linotype';writing-mode:lr-tb;fill:#4c4c4c;fill-opacity:1;fill-rule:nonzero;stroke:none"
         x="0"
         y="0"
         id="tspan32">q</tspan></text>
    <text
       id="text33"
       xml:space="preserve"
       transform="matrix(1.3333333,0,0,1.3333333,259.45307,104.73753)"
       clip-path="url(#clipPath34)"><tspan
         style="font-style:italic;font-variant:normal;font-weight:normal;font-stretch:normal;font-size:6.00428px;font-family:'Palatino Linotype';writing-mode:lr-tb;fill:#4c4c4c;fill-opacity:1;fill-rule:nonzero;stroke:none"
         x="0"
         y="0"
         id="tspan33">u</tspan></text>
    <text
       id="text34"
       xml:space="preserve"
       transform="matrix(1.3333333,0,0,1.3333333,388.81056,16.593827)"
       clip-path="url(#clipPath35)"><tspan
         style="font-style:italic;font-variant:normal;font-weight:normal;font-stretch:normal;font-size:10.0071px;font-family:'Palatino Linotype';writing-mode:lr-tb;fill:#4c4c4c;fill-opacity:1;fill-rule:nonzero;stroke:none"
         x="0"
         y="0"
         id="tspan34">q</tspan></text>
    <text
       id="text35"
       xml:space="preserve"
       transform="matrix(1.3333333,0,0,1.3333333,396.49693,22.105613)"
       clip-path="url(#clipPath36)"><tspan
         style="font-style:italic;font-variant:normal;font-weight:normal;font-stretch:normal;font-size:6.00428px;font-family:'Palatino Linotype';writing-mode:lr-tb;fill:#4c4c4c;fill-opacity:1;fill-rule:nonzero;stroke:none"
         x="0"
         y="0"
         id="tspan35">u</tspan></text>
  </g>
</svg>
