<?xml version="1.0" encoding="UTF-8" standalone="no"?>
<!-- Created with Inkscape (http://www.inkscape.org/) -->

<svg
   version="1.1"
   id="svg1"
   width="566.92932"
   height="302.36267"
   viewBox="0 0 566.92932 302.36267"
   sodipodi:docname="tho_biegebewehrung_iso.pdf"
   xmlns:inkscape="http://www.inkscape.org/namespaces/inkscape"
   xmlns:sodipodi="http://sodipodi.sourceforge.net/DTD/sodipodi-0.dtd"
   xmlns="http://www.w3.org/2000/svg"
   xmlns:svg="http://www.w3.org/2000/svg">
  <defs
     id="defs1">
    <clipPath
       clipPathUnits="userSpaceOnUse"
       id="clipPath5">
      <path
         d="m -0.00426,-0.00227 v 226.7762 H 425.20111 V -0.00227 H -0.00426"
         transform="matrix(0.86602521,-0.50000032,-0.50000032,-0.86602521,-28.764911,141.88946)"
         clip-rule="evenodd"
         id="path5" />
    </clipPath>
    <clipPath
       clipPathUnits="userSpaceOnUse"
       id="clipPath6">
      <path
         d="m -0.00426,-0.00227 v 226.7762 H 425.20111 V -0.00227 H -0.00426"
         transform="matrix(0.86602518,-0.50000042,-0.50000042,-0.86602518,-71.655227,141.88948)"
         clip-rule="evenodd"
         id="path6" />
    </clipPath>
    <clipPath
       clipPathUnits="userSpaceOnUse"
       id="clipPath7">
      <path
         d="m -0.00426,-0.00227 v 226.7762 H 425.20111 V -0.00227 H -0.00426"
         transform="matrix(0.86602521,-0.50000032,-0.50000032,-0.86602521,-28.764919,124.835)"
         clip-rule="evenodd"
         id="path7" />
    </clipPath>
    <clipPath
       clipPathUnits="userSpaceOnUse"
       id="clipPath8">
      <path
         d="m -0.00426,-0.00227 v 226.7762 H 425.20111 V -0.00227 H -0.00426"
         transform="matrix(0.86602518,-0.50000042,-0.50000042,-0.86602518,-71.655246,124.83503)"
         clip-rule="evenodd"
         id="path8" />
    </clipPath>
    <clipPath
       clipPathUnits="userSpaceOnUse"
       id="clipPath9">
      <path
         d="m -0.00426,-0.00227 v 226.7762 H 425.20111 V -0.00227 H -0.00426"
         transform="matrix(0.86602521,0.50000032,0.50000032,-0.86602521,-229.88166,-13.308201)"
         clip-rule="evenodd"
         id="path9" />
    </clipPath>
    <clipPath
       clipPathUnits="userSpaceOnUse"
       id="clipPath10">
      <path
         d="m -0.00426,-0.00227 v 226.7762 H 425.20111 V -0.00227 H -0.00426"
         transform="matrix(0.86602518,0.50000042,0.50000042,-0.86602518,-272.77198,-13.30824)"
         clip-rule="evenodd"
         id="path10" />
    </clipPath>
    <clipPath
       clipPathUnits="userSpaceOnUse"
       id="clipPath11">
      <path
         d="m -0.00426,-0.00227 v 226.7762 H 425.20111 V -0.00227 H -0.00426"
         transform="matrix(0.86602521,0.50000032,0.50000032,-0.86602521,-232.75896,-30.946834)"
         clip-rule="evenodd"
         id="path11" />
    </clipPath>
    <clipPath
       clipPathUnits="userSpaceOnUse"
       id="clipPath12">
      <path
         d="m -0.00426,-0.00227 v 226.7762 H 425.20111 V -0.00227 H -0.00426"
         transform="matrix(0.86602518,0.50000042,0.50000042,-0.86602518,-275.64929,-30.946873)"
         clip-rule="evenodd"
         id="path12" />
    </clipPath>
  </defs>
  <sodipodi:namedview
     id="namedview1"
     pagecolor="#ffffff"
     bordercolor="#000000"
     borderopacity="0.25"
     inkscape:showpageshadow="2"
     inkscape:pageopacity="0.0"
     inkscape:pagecheckerboard="0"
     inkscape:deskcolor="#d1d1d1">
    <inkscape:page
       x="0"
       y="0"
       inkscape:label="1"
       id="page1"
       width="566.92932"
       height="302.36267"
       margin="0"
       bleed="0" />
  </sodipodi:namedview>
  <g
     id="g1"
     inkscape:groupmode="layer"
     inkscape:label="1">
    <path
       id="path1"
       d="M 85.93166,105.17216 202.2142,38.03641 M 85.93166,110.4635 202.2142,43.32774 m -96.46768,-7.86021 233.87433,135.0274 M 105.74652,40.12767 339.62085,175.15509 m -7.32324,3.47214 v -3.14832 m 0,3.14832 -16.36582,-9.44882 m 16.36582,6.3005 -16.36582,-9.44882 M 98.42329,40.45151 v 3.14831 m 0,-3.14831 16.36585,9.44882 m -16.36585,-6.30051 16.36585,9.44883 m 109.25297,-1.65398 -16.36584,9.44882 m 16.36584,-5.6693 -16.36584,9.44883 m 16.36584,-9.44883 v -3.77952 m -116.28254,70.91528 v -3.77954 l 16.36584,-9.44881 m -16.36584,13.22835 16.36584,-9.44882"
       style="fill:none;stroke:#000000;stroke-width:0.3685;stroke-linecap:round;stroke-linejoin:round;stroke-miterlimit:10;stroke-dasharray:none;stroke-opacity:1"
       transform="matrix(1.3333333,0,0,-1.3333333,0,302.36267)" />
    <path
       id="path2"
       d="m 269.6745,210.8779 v 1.15359 m 0,2.26773 v 2.75065 m 0,-6.17197 v 0 m 0,6.17197 v 0 M 34.4919,75.09517 l 1.51288,0.87346 m 1.96389,1.13385 2.45488,1.41733 m 1.9639,1.13385 2.45487,1.41732 m 1.96391,1.13387 2.45486,1.41731 m 1.9639,1.13387 2.45488,1.41731 m 1.9639,1.13387 2.45488,1.41732 m 1.9639,1.13385 2.45488,1.41733 m 1.96389,1.13385 2.45488,1.41733 m 1.9639,1.13386 2.45488,1.41732 m 1.9639,1.13386 2.45488,1.41733 m 1.9639,1.13385 2.45486,1.41733 m 1.96391,1.13385 2.45487,1.41733 m 1.9639,1.13385 2.45488,1.41732 m 1.96389,1.13387 2.45488,1.41731 m 1.9639,1.13387 2.45488,1.41733 m 1.9639,1.13385 2.45488,1.41732 m 1.9639,1.13385 2.45487,1.41733 m 1.9639,1.13385 2.45487,1.41733 m 1.96391,1.13386 2.45486,1.41732 m 1.9639,1.13386 2.45488,1.41733 m 1.9639,1.13385 2.45488,1.41733 m 1.9639,1.13385 2.45489,1.41733 m 1.9639,1.13385 2.45486,1.41732 m 1.9639,1.13385 2.45487,1.41733 m 1.96389,1.13388 2.4549,1.4173 m 1.9639,1.13388 2.45486,1.41733 m 1.9639,1.13385 2.45489,1.41733 m 1.9639,1.13385 2.45487,1.41732 m 1.96389,1.13385 2.4549,1.41733 m 1.9639,1.13385 2.45486,1.41733 m 1.9639,1.13385 2.45486,1.41733 m 1.9639,1.13385 2.4549,1.41733 m 1.96389,1.13385 2.45487,1.41732 m 1.9639,1.13389 2.45489,1.41729 m 1.9639,1.13388 2.45486,1.4173 m 1.9639,1.13388 2.4549,1.41733 m 1.96389,1.13385 2.45487,1.41733 m 1.9639,1.13385 2.45486,1.41733 m 1.9639,1.13385 2.45489,1.41732 m 1.9639,1.13385 2.45487,1.41733 m 1.96389,1.13385 2.4549,1.41733 m 1.9639,1.13385 2.45486,1.41733 m 1.9639,1.13385 2.45489,1.41733 m 1.9639,1.13388 2.45487,1.41729 m 1.96389,1.13388 2.45487,1.4173 m 1.9639,1.13388 2.45489,1.41733"
       style="fill:none;stroke:#ababab;stroke-width:0.3685;stroke-linecap:round;stroke-linejoin:round;stroke-miterlimit:10;stroke-dasharray:none;stroke-opacity:1"
       transform="matrix(1.3333333,0,0,-1.3333333,0,302.36267)" />
    <path
       id="path3"
       d="m 236.81357,191.90564 2.45486,1.41733 m 1.9639,1.13385 2.4549,1.41733 m 1.96389,1.13385 2.45487,1.41732 m 1.9639,1.13385 2.45489,1.41733 m 1.9639,1.13385 2.45486,1.41733 m 1.9639,1.13385 2.45486,1.41733 m 1.9639,1.13385 2.4549,1.41733 m 1.9639,1.13388 1.9295,1.11398 M 34.4919,75.09517 v 0 M 269.6745,210.8779 v 0 l 1.9812,-1.14383 m 1.9639,-1.13385 2.45486,-1.41733 m 1.9639,-1.13385 2.4549,-1.41733 m 1.96389,-1.13385 2.45487,-1.41732 m 1.9639,-1.13388 2.45489,-1.4173 m 1.9639,-1.13388 2.45486,-1.4173 m 1.9639,-1.13388 2.45486,-1.41733 m 1.9639,-1.13385 2.4549,-1.41733 m 1.9639,-1.13385 2.45486,-1.41732 m 1.9639,-1.13385 2.45489,-1.41733 m 1.9639,-1.13385 2.45486,-1.41733 m 1.9639,-1.13385 2.4549,-1.41733 m 1.9639,-1.13385 2.45486,-1.41733 m 1.9639,-1.13385 2.45486,-1.41732 m 1.9639,-1.13389 2.45489,-1.41729 m 1.9639,-1.13388 2.45487,-1.4173 m 1.96389,-1.13388 2.4549,-1.41733 m 1.9639,-1.13385 2.45486,-1.41733 m 1.9639,-1.13385 2.45489,-1.41732 m 1.9639,-1.13385 2.45487,-1.41733 m 1.96389,-1.13385 2.45487,-1.41733 m 1.9639,-1.13385 2.45489,-1.41733 m 1.9639,-1.13385 2.45486,-1.41733 m 1.9639,-1.13385 2.4549,-1.41732 m 1.96389,-1.13389 2.45487,-1.41729 m 1.9639,-1.13388 2.45489,-1.4173 m 1.9639,-1.13388 2.45486,-1.41733 M 269.6745,210.8779 v 0 m 117.59131,-67.89136 v 0"
       style="fill:none;stroke:#ababab;stroke-width:0.3685;stroke-linecap:round;stroke-linejoin:round;stroke-miterlimit:10;stroke-dasharray:none;stroke-opacity:1"
       transform="matrix(1.3333333,0,0,-1.3333333,0,302.36267)" />
    <path
       id="path4"
       d="m 34.4919,75.09517 v 6.17194 M 152.08322,7.2038 v 6.17193 L 34.4919,81.26711 m 0,-6.17194 L 152.08322,7.2038 M 34.4919,81.26711 269.6745,217.04987 m 117.59131,-74.06333 v 6.17194 L 152.08322,13.37573 M 269.6745,217.04987 387.26581,149.15848 M 152.08322,7.2038 387.26581,142.98654"
       style="fill:none;stroke:#000000;stroke-width:0.3685;stroke-linecap:round;stroke-linejoin:round;stroke-miterlimit:10;stroke-dasharray:none;stroke-opacity:1"
       transform="matrix(1.3333333,0,0,-1.3333333,0,302.36267)" />
    <text
       id="text4"
       xml:space="preserve"
       transform="matrix(1.1547003,0.66666711,-0.66666711,1.1547003,127.80789,157.69948)"
       clip-path="url(#clipPath5)"><tspan
         style="font-variant:normal;font-weight:normal;font-stretch:normal;font-size:10.1222px;font-family:'Segoe UI Symbol';writing-mode:lr-tb;fill:#000000;fill-opacity:1;fill-rule:nonzero;stroke:none"
         x="0 5.4558406 7.652348 10.425817 15.193352 20.345528 26.307476 31.601362 34.374832"
         y="0"
         sodipodi:role="line"
         id="tspan4">3. Lage ⌀</tspan></text>
    <text
       id="text5"
       xml:space="preserve"
       transform="matrix(1.1547002,0.6666672,-0.6666672,1.1547002,177.33337,186.29304)"
       clip-path="url(#clipPath6)"><tspan
         style="font-variant:normal;font-weight:normal;font-stretch:normal;font-size:10.0916px;font-family:'Palatino Linotype';writing-mode:lr-tb;fill:#000000;fill-opacity:1;fill-rule:nonzero;stroke:none"
         x="0 5.0458059 10.091612 19.002506 27.913399 30.436302 32.959206 37.238049 39.760952 44.806759 47.329659 52.375465 57.421272 62.467079 71.377968"
         y="0"
         sodipodi:role="line"
         id="tspan5">10mm, s = 150mm</tspan></text>
    <text
       id="text6"
       xml:space="preserve"
       transform="matrix(1.1547003,0.66666711,-0.66666711,1.1547003,116.43825,177.39228)"
       clip-path="url(#clipPath7)"><tspan
         style="font-variant:normal;font-weight:normal;font-stretch:normal;font-size:10.1222px;font-family:'Segoe UI Symbol';writing-mode:lr-tb;fill:#000000;fill-opacity:1;fill-rule:nonzero;stroke:none"
         x="0 5.4558406 7.652348 10.425817 15.193352 20.345528 26.307476 31.601362 34.374832"
         y="0"
         sodipodi:role="line"
         id="tspan6">2. Lage ⌀</tspan></text>
    <text
       id="text7"
       xml:space="preserve"
       transform="matrix(1.1547002,0.6666672,-0.6666672,1.1547002,165.96375,205.98583)"
       clip-path="url(#clipPath8)"><tspan
         style="font-variant:normal;font-weight:normal;font-stretch:normal;font-size:10.0916px;font-family:'Palatino Linotype';writing-mode:lr-tb;fill:#000000;fill-opacity:1;fill-rule:nonzero;stroke:none"
         x="0 5.0458059 10.091612 19.002506 27.913399 30.436302 32.959206 37.238049 39.760952 44.806759 47.329659 52.375465 57.421272 62.467079 71.377968"
         y="0"
         sodipodi:role="line"
         id="tspan7">10mm, s = 150mm</tspan></text>
    <text
       id="text8"
       xml:space="preserve"
       transform="matrix(1.1547003,-0.66666711,0.66666711,1.1547003,274.31656,164.47511)"
       clip-path="url(#clipPath9)"><tspan
         style="font-variant:normal;font-weight:normal;font-stretch:normal;font-size:10.1222px;font-family:'Segoe UI Symbol';writing-mode:lr-tb;fill:#000000;fill-opacity:1;fill-rule:nonzero;stroke:none"
         x="0 5.4558406 7.652348 10.425817 15.193352 20.345528 26.307476 31.601362 34.374832"
         y="0"
         sodipodi:role="line"
         id="tspan8">4. Lage ⌀</tspan></text>
    <text
       id="text9"
       xml:space="preserve"
       transform="matrix(1.1547002,-0.6666672,0.6666672,1.1547002,323.84203,135.88156)"
       clip-path="url(#clipPath10)"><tspan
         style="font-variant:normal;font-weight:normal;font-stretch:normal;font-size:10.0916px;font-family:'Palatino Linotype';writing-mode:lr-tb;fill:#000000;fill-opacity:1;fill-rule:nonzero;stroke:none"
         x="0 5.0458059 10.091612 19.002506 27.913399 30.436302 32.959206 37.238049 39.760952 44.806759 47.329659 52.375465 57.421272 62.467079 71.377968"
         y="0"
         sodipodi:role="line"
         id="tspan9">10mm, s = 150mm</tspan></text>
    <text
       id="text10"
       xml:space="preserve"
       transform="matrix(1.1547003,-0.66666711,0.66666711,1.1547003,289.39808,182.92424)"
       clip-path="url(#clipPath11)"><tspan
         style="font-variant:normal;font-weight:normal;font-stretch:normal;font-size:10.1222px;font-family:'Segoe UI Symbol';writing-mode:lr-tb;fill:#000000;fill-opacity:1;fill-rule:nonzero;stroke:none"
         x="0 5.4558406 7.652348 10.425817 15.193352 20.345528 26.307476 31.601362 34.374832"
         y="0"
         sodipodi:role="line"
         id="tspan10">1. Lage ⌀</tspan></text>
    <text
       id="text11"
       xml:space="preserve"
       transform="matrix(1.1547002,-0.6666672,0.6666672,1.1547002,338.92355,154.33069)"
       clip-path="url(#clipPath12)"><tspan
         style="font-variant:normal;font-weight:normal;font-stretch:normal;font-size:10.0916px;font-family:'Palatino Linotype';writing-mode:lr-tb;fill:#000000;fill-opacity:1;fill-rule:nonzero;stroke:none"
         x="0 5.0458059 10.091612 19.002506 27.913399 30.436302 32.959206 37.238049 39.760952 44.806759 47.329659 52.375465 57.421272 62.467079 71.377968"
         y="0"
         sodipodi:role="line"
         id="tspan11">10mm, s = 150mm</tspan></text>
  </g>
</svg>
