<?xml version="1.0" encoding="UTF-8" standalone="no"?>
<!-- Created with Inkscape (http://www.inkscape.org/) -->

<svg
   version="1.1"
   id="svg1"
   width="566.92932"
   height="181.41733"
   viewBox="0 0 566.92932 181.41733"
   sodipodi:docname="tho_q_w.pdf"
   xmlns:inkscape="http://www.inkscape.org/namespaces/inkscape"
   xmlns:sodipodi="http://sodipodi.sourceforge.net/DTD/sodipodi-0.dtd"
   xmlns="http://www.w3.org/2000/svg"
   xmlns:svg="http://www.w3.org/2000/svg">
  <defs
     id="defs1">
    <clipPath
       clipPathUnits="userSpaceOnUse"
       id="clipPath11">
      <path
         d="M -0.00426,-0.00136 V 136.06436 H 425.20111 V -0.00136 H -0.00426"
         transform="matrix(1,0,0,-1,-63.972251,108.93923)"
         clip-rule="evenodd"
         id="path11" />
    </clipPath>
    <clipPath
       clipPathUnits="userSpaceOnUse"
       id="clipPath12">
      <path
         d="M -0.00426,-0.00136 V 136.06436 H 425.20111 V -0.00136 H -0.00426"
         transform="matrix(1,0,0,-1,-360.54786,8.6562177)"
         clip-rule="evenodd"
         id="path12" />
    </clipPath>
    <clipPath
       clipPathUnits="userSpaceOnUse"
       id="clipPath13">
      <path
         d="M -0.00426,-0.00136 V 136.06436 H 425.20111 V -0.00136 H -0.00426"
         transform="matrix(1,0,0,-1,-369.1322,4.5223601)"
         clip-rule="evenodd"
         id="path13" />
    </clipPath>
    <clipPath
       clipPathUnits="userSpaceOnUse"
       id="clipPath14">
      <path
         d="M -0.00426,-0.00136 V 136.06436 H 425.20111 V -0.00136 H -0.00426"
         transform="matrix(1,0,0,-1,-289.62265,8.6562177)"
         clip-rule="evenodd"
         id="path14" />
    </clipPath>
    <clipPath
       clipPathUnits="userSpaceOnUse"
       id="clipPath15">
      <path
         d="M -0.00426,-0.00136 V 136.06436 H 425.20111 V -0.00136 H -0.00426"
         transform="matrix(1,0,0,-1,-18.70972,97.362792)"
         clip-rule="evenodd"
         id="path15" />
    </clipPath>
    <clipPath
       clipPathUnits="userSpaceOnUse"
       id="clipPath16">
      <path
         d="M -0.00426,-0.00136 V 136.06436 H 425.20111 V -0.00136 H -0.00426"
         transform="matrix(1,0,0,-1,-50.662012,8.6562177)"
         clip-rule="evenodd"
         id="path16" />
    </clipPath>
    <clipPath
       clipPathUnits="userSpaceOnUse"
       id="clipPath17">
      <path
         d="M -0.00426,-0.00136 V 136.06436 H 425.20111 V -0.00136 H -0.00426"
         transform="matrix(1,0,0,-1,-238.1467,122.73342)"
         clip-rule="evenodd"
         id="path17" />
    </clipPath>
    <clipPath
       clipPathUnits="userSpaceOnUse"
       id="clipPath18">
      <path
         d="M -0.00426,-0.00136 V 136.06436 H 425.20111 V -0.00136 H -0.00426"
         transform="matrix(1,0,0,-1,-164.71323,8.6562177)"
         clip-rule="evenodd"
         id="path18" />
    </clipPath>
    <clipPath
       clipPathUnits="userSpaceOnUse"
       id="clipPath19">
      <path
         d="M -0.00426,-0.00136 V 136.06436 H 425.20111 V -0.00136 H -0.00426"
         transform="matrix(1,0,0,-1,-288.04293,69.305622)"
         clip-rule="evenodd"
         id="path19" />
    </clipPath>
    <clipPath
       clipPathUnits="userSpaceOnUse"
       id="clipPath20">
      <path
         d="M -0.00426,-0.00136 V 136.06436 H 425.20111 V -0.00136 H -0.00426"
         transform="matrix(1,0,0,-1,-288.04293,57.967039)"
         clip-rule="evenodd"
         id="path20" />
    </clipPath>
    <clipPath
       clipPathUnits="userSpaceOnUse"
       id="clipPath21">
      <path
         d="M -0.00426,-0.00136 V 136.06436 H 425.20111 V -0.00136 H -0.00426"
         transform="matrix(1,0,0,-1,-60.862661,33.495948)"
         clip-rule="evenodd"
         id="path21" />
    </clipPath>
    <clipPath
       clipPathUnits="userSpaceOnUse"
       id="clipPath22">
      <path
         d="M -0.00426,-0.00136 V 136.06436 H 425.20111 V -0.00136 H -0.00426"
         transform="matrix(1,0,0,-1,-66.826532,67.058511)"
         clip-rule="evenodd"
         id="path22" />
    </clipPath>
    <clipPath
       clipPathUnits="userSpaceOnUse"
       id="clipPath23">
      <path
         d="M -0.00426,-0.00136 V 136.06436 H 425.20111 V -0.00136 H -0.00426"
         transform="matrix(1,0,0,-1,-63.084761,49.786234)"
         clip-rule="evenodd"
         id="path23" />
    </clipPath>
    <clipPath
       clipPathUnits="userSpaceOnUse"
       id="clipPath24">
      <path
         d="M -0.00426,-0.00136 V 136.06436 H 425.20111 V -0.00136 H -0.00426"
         transform="matrix(1,0,0,-1,-108.43626,82.553242)"
         clip-rule="evenodd"
         id="path24" />
    </clipPath>
    <clipPath
       clipPathUnits="userSpaceOnUse"
       id="clipPath25">
      <path
         d="M -0.00426,-0.00136 V 136.06436 H 425.20111 V -0.00136 H -0.00426"
         transform="matrix(1,0,0,-1,-187.24161,102.60567)"
         clip-rule="evenodd"
         id="path25" />
    </clipPath>
  </defs>
  <sodipodi:namedview
     id="namedview1"
     pagecolor="#ffffff"
     bordercolor="#000000"
     borderopacity="0.25"
     inkscape:showpageshadow="2"
     inkscape:pageopacity="0.0"
     inkscape:pagecheckerboard="0"
     inkscape:deskcolor="#d1d1d1">
    <inkscape:page
       x="0"
       y="0"
       inkscape:label="1"
       id="page1"
       width="566.92932"
       height="181.41733"
       margin="0"
       bleed="0" />
  </sodipodi:namedview>
  <g
     id="g1"
     inkscape:groupmode="layer"
     inkscape:label="1">
    <path
       id="path1"
       d="M 306.6456,19.68796 V 16.85332 M 56.82675,99.2233 h -2.83464 m 2.83464,-79.53534 h -2.83464 m 127.74407,0 v -2.83464 m -124.90943,2.83464 0.11812,1.5451 m 0.21606,2.8264 0.32412,4.2396 m -0.6583,-8.6111 v 0 m 0.68071,8.90442 v 0 4.00605 m 0,2.83464 v 0.44474 m 0,-7.28543 v 0 m 0,7.28543 v 0 m 0.04436,0.09669 1.77269,3.86481 m -1.81705,-3.9615 v 0 m 2.72283,5.93628 v 0 m 0.10817,0.90048 0.50714,4.22162 m -0.61531,-5.1221 v 0 m 0.68069,5.66644 v 0 l 0.03198,0.07289 m 1.13887,2.59581 1.55197,3.53742 m -2.72282,-6.20612 v 0 m 2.72282,6.20612 v 0 m 1.38846,1.30715 3.09587,2.91459 M 63.6338,53.68665 v 0 m 5.44565,5.12678 v 0 m 1.06748,0.96169 3.15904,2.846 m 2.10602,1.89734 1.15522,1.04074 m -7.48776,-6.74577 v 0 m 7.48776,6.74577 v 0 m -0.6807,-15.11053 0.0021,0.04558 m 0.12756,2.83177 0.19134,4.24765 m 0.12757,2.83177 0.19136,4.24767 M 75.88655,50.44867 v 0 m 0.6807,15.11053 v 0 M 65.9056,21.96233 l 1.40599,4.01278 m 0.93732,2.6752 1.40599,4.01278 m 0.93732,2.6752 1.40599,4.01278 m 0.93732,2.67519 1.40599,4.01279 m 0.93731,2.67518 0.60772,1.73444 M 65.67597,21.30695 v 0 m 10.21058,29.14172 v 0 m -9.5691,-27.15169 1.30451,4.04691 m 0.86967,2.69793 1.30451,4.04693 m 0.86967,2.69793 1.30451,4.04691 m 0.86967,2.69795 1.3045,4.04691 m 0.86968,2.69793 1.3045,4.04692 m 0.86968,2.69794 1.3045,4.04692 m 0.86968,2.69794 1.3045,4.0469 M 65.67597,21.30695 v 0 M 81.33219,69.8765 v 0"
       style="fill:none;stroke:#000000;stroke-width:0.3685;stroke-linecap:round;stroke-linejoin:round;stroke-miterlimit:10;stroke-dasharray:none;stroke-opacity:1"
       transform="matrix(1.3333333,0,0,-1.3333333,0,181.41733)" />
    <path
       id="path2"
       d="m 81.89226,70.57428 2.66159,3.31589 m -3.2217,-4.01367 v 0 m 4.76493,5.93627 v 0 l 2.40757,1.90871 m 2.22127,1.76102 0.13609,0.10791 m -4.76493,-3.77764 v 0 m 4.76493,3.77764 v 0 m 0.36969,0.25644 3.49366,2.42354 m -3.86335,-2.67998 v 0 m 5.44565,3.77763 v 0 m 1.51845,0.94048 3.61478,2.23889 m 2.40985,1.4926 3.34822,2.07379 m -10.8913,-6.74576 v 0 m 10.8913,6.74576 v 0 l 0.1507,-0.57747 m 0.71578,-2.74278 1.07367,-4.11418 m -1.94015,7.43443 v 0 m 2.04211,-7.82509 v 0 m 1.15448,2.05937 2.07923,3.70893 m -3.23371,-5.7683 v 0 m 4.08422,7.28543 v 0 l 1.21389,1.01049 m 2.17859,1.81355 3.2679,2.7203 m -6.66038,-5.54434 v 0 m 6.80705,5.66645 v 0 l 2.37706,0.76278 m 2.69908,0.86612 4.04863,1.29918 m 2.6991,0.86612 2.47094,0.79292 m -14.29481,-4.58712 v 0 m 14.29481,4.58712 v 0 m 2.26035,0.52706 4.14087,0.96556 m 2.76059,0.64369 2.41019,0.56201 m -11.572,-2.69832 v 0 m 11.572,2.69832 v 0 l 1.29766,0.31174 m 2.75623,0.66217 4.13434,0.99324 m 2.75619,0.66215 4.13434,0.99324 m 2.75623,0.66216 4.13434,0.99324 m -21.96933,-5.27794 v 0 m 22.46328,5.39661 v 0 m -1.36142,-5.93628 0.47821,2.08511 m 0.63364,2.76291 0.24957,1.08826 m -1.36142,-5.93628 v 0 m 1.36142,5.93628 v 0 m -1.36142,-5.93628 0.66715,0.50687 m 2.25708,1.71485 3.38565,2.5723 m -6.30988,-4.79402 v 0 m 8.16846,6.20611 v 0 m 1.85806,0.28058 4.20429,0.63489 m 2.80288,0.42325 4.20429,0.63489"
       style="fill:none;stroke:#000000;stroke-width:0.3685;stroke-linecap:round;stroke-linejoin:round;stroke-miterlimit:10;stroke-dasharray:none;stroke-opacity:1"
       transform="matrix(1.3333333,0,0,-1.3333333,0,181.41733)" />
    <path
       id="path3"
       d="m 175.26947,108.19247 v 0 m 14.29483,2.15865 v 0 m 2.12091,0.30571 4.2085,0.60664 m 2.80563,0.40442 4.20847,0.60663 m -13.34351,-1.9234 v 0 m 14.97549,2.15865 v 0 l 0.0305,0.004 m 2.81314,0.34848 4.2197,0.52273 m 2.81314,0.34846 1.01483,0.12572 m -10.8913,-1.34915 v 0 m 10.8913,1.34915 v 0 m 0,-11.87256 v 1.47821 m 0,2.83464 v 4.25197 m 0,2.83465 v 0.47309 m 0,-11.87256 v 0 m 0,11.87256 v 0 m 0,-11.87256 2.05936,2.99318 m 1.60672,2.33531 0.41815,0.60779 m -4.08423,-5.93628 v 0 m 4.08423,5.93628 v 0 l 0.38586,0.3229 m 2.17389,1.81919 3.26081,2.72879 m -5.82056,-4.87088 v 0 m 6.12634,5.12678 v 0 l 1.44171,0.52753 m 2.66205,0.97406 3.99304,1.46109 m -8.0968,-2.96268 v 0 m 8.84918,3.23796 v 0 l 3.15513,0.22072 m 2.82772,0.1978 4.24161,0.29672 m -10.22446,-0.71524 v 0 m 11.572,0.8095 v 0 m 1.96865,0 h 4.25199 m 2.83462,0 h 4.25199 m -13.30725,0 v 0 m 15.65618,0 v 0 l 0.29242,-0.006 m 2.83399,-0.0624 4.25091,-0.0936 m 2.83396,-0.0624 2.04144,-0.045 m -12.25272,0.26982 v 0 m 12.25272,-0.26982 v 0 l 0.76538,-0.0892 m 2.81558,-0.32826 4.22336,-0.49238 m 2.81558,-0.32827 0.95209,-0.111 m -11.57199,1.34915 v 0 m 11.57199,-1.34915 v 0 l 3.27127,-0.3814 m 2.81558,-0.32826 4.22336,-0.49239 m -10.31021,1.20205 v 0 m 11.57199,-1.34916 v 0"
       style="fill:none;stroke:#000000;stroke-width:0.3685;stroke-linecap:round;stroke-linejoin:round;stroke-miterlimit:10;stroke-dasharray:none;stroke-opacity:1"
       transform="matrix(1.3333333,0,0,-1.3333333,0,181.41733)" />
    <path
       id="path4"
       d="m 297.11572,114.12875 1.23255,-0.32573 m 2.74057,-0.72422 4.11084,-1.08637 m 2.74057,-0.72423 1.42816,-0.37742 m -12.25269,3.23797 v 0 m 12.25269,-3.23797 v 0 M 271.03503,61.08514 h 11.3386 m -11.3386,11.05513 h 2.22483 m 2.2677,0 h 2.83465 m 2.2677,0 h 1.74372 m -11.3386,0 v 0 m 11.3386,0 v 0 M 56.82675,19.68796 v -2.83464"
       style="fill:none;stroke:#000000;stroke-width:0.3685;stroke-linecap:round;stroke-linejoin:round;stroke-miterlimit:10;stroke-dasharray:none;stroke-opacity:1"
       transform="matrix(1.3333333,0,0,-1.3333333,0,181.41733)" />
    <path
       id="path5"
       d="m 59.24821,31.69269 c 0,0.78276 -0.63456,1.41731 -1.41732,1.41731 m 0,0 c -0.78276,0 -1.41733,-0.63455 -1.41733,-1.41731 m 0,0 c 0,-0.78278 0.63457,-1.41733 1.41733,-1.41733 m 0,0 c 0.78276,0 1.41732,0.63455 1.41732,1.41733"
       style="fill:none;stroke:#000000;stroke-width:0.3685;stroke-linecap:round;stroke-linejoin:round;stroke-miterlimit:10;stroke-dasharray:none;stroke-opacity:1"
       transform="matrix(1.3333333,0,0,-1.3333333,0,181.41733)" />
    <path
       id="path6"
       d="m 62.57231,57.5202 c 0,0.78276 -0.63455,1.41732 -1.41733,1.41732 m 0,0 c -0.78276,0 -1.41731,-0.63456 -1.41731,-1.41732 m 0,0 c 0,-0.78277 0.63455,-1.41733 1.41731,-1.41733 m 0,0 c 0.78278,0 1.41733,0.63456 1.41733,1.41733"
       style="fill:none;stroke:#000000;stroke-width:0.3685;stroke-linecap:round;stroke-linejoin:round;stroke-miterlimit:10;stroke-dasharray:none;stroke-opacity:1"
       transform="matrix(1.3333333,0,0,-1.3333333,0,181.41733)" />
    <path
       id="path7"
       d="m 65.45781,64.95253 c 0,0.78276 -0.63455,1.41731 -1.41733,1.41731 m 0,0 c -0.78276,0 -1.41731,-0.63455 -1.41731,-1.41731 m 0,0 c 0,-0.78278 0.63455,-1.41733 1.41731,-1.41733 m 0,0 c 0.78278,0 1.41733,0.63455 1.41733,1.41733"
       style="fill:none;stroke:#000000;stroke-width:0.3685;stroke-linecap:round;stroke-linejoin:round;stroke-miterlimit:10;stroke-dasharray:none;stroke-opacity:1"
       transform="matrix(1.3333333,0,0,-1.3333333,0,181.41733)" />
    <path
       id="path8"
       d="m 108.26842,90.67545 c 0,0.78277 -0.63457,1.41732 -1.41733,1.41732 m 0,0 c -0.78276,0 -1.41733,-0.63455 -1.41733,-1.41732 m 0,0 c 0,-0.78277 0.63457,-1.41733 1.41733,-1.41733 m 0,0 c 0.78276,0 1.41733,0.63456 1.41733,1.41733"
       style="fill:none;stroke:#000000;stroke-width:0.3685;stroke-linecap:round;stroke-linejoin:round;stroke-miterlimit:10;stroke-dasharray:none;stroke-opacity:1"
       transform="matrix(1.3333333,0,0,-1.3333333,0,181.41733)" />
    <path
       id="path9"
       d="m 183.28207,99.69341 c 0,0.78277 -0.63455,1.41732 -1.41732,1.41732 m 0,0 c -0.78275,0 -1.41733,-0.63455 -1.41733,-1.41732 m 0,0 c 0,-0.78277 0.63458,-1.41733 1.41733,-1.41733 m 0,0 c 0.78277,0 1.41732,0.63456 1.41732,1.41733"
       style="fill:none;stroke:#000000;stroke-width:0.3685;stroke-linecap:round;stroke-linejoin:round;stroke-miterlimit:10;stroke-dasharray:none;stroke-opacity:1"
       transform="matrix(1.3333333,0,0,-1.3333333,0,181.41733)" />
    <path
       id="path10"
       d="m 56.82675,19.68796 1.44275,17.24856 0.96184,9.26099 0.96182,6.74748 0.96182,4.57521 0.96184,3.37432 0.96184,2.36251 0.96182,1.6955 0.96184,1.41489 1.44275,1.62652 6.73282,5.94966 1.92364,1.69075 4.32825,3.79047 4.80916,3.87253 1.92366,1.28171 1.92366,0.87152 3.36641,1.26626 3.36641,1.0701 5.77098,1.5421 5.29005,1.16997 6.73282,1.22346 10.58015,1.67171 12.98472,1.78348 14.90838,1.80844 6.04578,0.67177 12.36642,1.08079 6.18317,0.47737 6.1832,0.47738"
       style="fill:none;stroke:#000000;stroke-width:0.70866;stroke-linecap:round;stroke-linejoin:round;stroke-miterlimit:10;stroke-dasharray:none;stroke-opacity:1"
       transform="matrix(1.3333333,0,0,-1.3333333,0,181.41733)" />
    <text
       id="text10"
       xml:space="preserve"
       transform="matrix(1.3333333,0,0,1.3333333,85.296333,36.165027)"
       clip-path="url(#clipPath11)"><tspan
         style="font-style:italic;font-variant:normal;font-weight:normal;font-stretch:normal;font-size:10.0071px;font-family:'Palatino Linotype';writing-mode:lr-tb;fill:#000000;fill-opacity:1;fill-rule:nonzero;stroke:none"
         x="0"
         y="0"
         id="tspan10">Q</tspan></text>
    <text
       id="text11"
       xml:space="preserve"
       transform="matrix(1.3333333,0,0,1.3333333,480.73047,169.87571)"
       clip-path="url(#clipPath12)"><tspan
         style="font-style:italic;font-variant:normal;font-weight:normal;font-stretch:normal;font-size:10.0071px;font-family:'Palatino Linotype';writing-mode:lr-tb;fill:#000000;fill-opacity:1;fill-rule:nonzero;stroke:none"
         x="0"
         y="0"
         id="tspan11">w</tspan></text>
    <text
       id="text12"
       xml:space="preserve"
       transform="matrix(1.3333333,0,0,1.3333333,492.17625,175.38752)"
       clip-path="url(#clipPath13)"><tspan
         style="font-style:italic;font-variant:normal;font-weight:normal;font-stretch:normal;font-size:6.00428px;font-family:'Palatino Linotype';writing-mode:lr-tb;fill:#000000;fill-opacity:1;fill-rule:nonzero;stroke:none"
         x="0 3.9508162 6.9529562"
         y="0"
         sodipodi:role="line"
         id="tspan12">V10</tspan></text>
    <text
       id="text13"
       xml:space="preserve"
       transform="matrix(1.3333333,0,0,1.3333333,386.16352,169.87571)"
       clip-path="url(#clipPath14)"><tspan
         style="font-variant:normal;font-weight:normal;font-stretch:normal;font-size:10.0916px;font-family:'Palatino Linotype';writing-mode:lr-tb;fill:#000000;fill-opacity:1;fill-rule:nonzero;stroke:none"
         x="0 5.045805 10.09161 15.137415 17.660318 26.571209"
         y="0"
         sodipodi:role="line"
         id="tspan13">200 mm</tspan></text>
    <text
       id="text14"
       xml:space="preserve"
       transform="matrix(1.3333333,0,0,1.3333333,24.946293,51.60028)"
       clip-path="url(#clipPath15)"><tspan
         style="font-variant:normal;font-weight:normal;font-stretch:normal;font-size:10.0916px;font-family:'Palatino Linotype';writing-mode:lr-tb;fill:#000000;fill-opacity:1;fill-rule:nonzero;stroke:none"
         x="0 5.045805 10.09161 15.137415 17.660318 23.271254"
         y="0"
         sodipodi:role="line"
         id="tspan14">800 kN</tspan></text>
    <text
       id="text15"
       xml:space="preserve"
       transform="matrix(1.3333333,0,0,1.3333333,67.549347,169.87571)"
       clip-path="url(#clipPath16)"><tspan
         style="font-variant:normal;font-weight:normal;font-stretch:normal;font-size:10.0916px;font-family:'Palatino Linotype';writing-mode:lr-tb;fill:#000000;fill-opacity:1;fill-rule:nonzero;stroke:none"
         x="0"
         y="0"
         id="tspan15">0</tspan></text>
    <text
       id="text16"
       xml:space="preserve"
       transform="matrix(1.3333333,0,0,1.3333333,317.52893,17.772773)"
       clip-path="url(#clipPath17)"><tspan
         style="font-variant:normal;font-weight:normal;font-stretch:normal;font-size:10.0916px;font-family:'Palatino Linotype';writing-mode:lr-tb;fill:#000000;fill-opacity:1;fill-rule:nonzero;stroke:none"
         x="0 5.045805 10.09161 15.137415 17.660318 23.271254"
         y="0"
         sodipodi:role="line"
         id="tspan16">975 kN</tspan></text>
    <text
       id="text17"
       xml:space="preserve"
       transform="matrix(1.3333333,0,0,1.3333333,219.61763,169.87571)"
       clip-path="url(#clipPath18)"><tspan
         style="font-variant:normal;font-weight:normal;font-stretch:normal;font-size:10.0916px;font-family:'Palatino Linotype';writing-mode:lr-tb;fill:#000000;fill-opacity:1;fill-rule:nonzero;stroke:none"
         x="0 5.045805 10.09161 15.137415 17.660318 26.571209"
         y="0"
         sodipodi:role="line"
         id="tspan17">100 mm</tspan></text>
    <text
       id="text18"
       xml:space="preserve"
       transform="matrix(1.3333333,0,0,1.3333333,384.05723,89.00984)"
       clip-path="url(#clipPath19)"><tspan
         style="font-style:italic;font-variant:normal;font-weight:normal;font-stretch:normal;font-size:8.0057px;font-family:'Palatino Linotype';writing-mode:lr-tb;fill:#000000;fill-opacity:1;fill-rule:nonzero;stroke:none"
         x="0 7.5573807 10.671598 13.785815 16.900032 20.902884 24.457413 27.123312 30.23753"
         y="0"
         sodipodi:role="line"
         id="tspan18">Messdaten</tspan></text>
    <text
       id="text19"
       xml:space="preserve"
       transform="matrix(1.3333333,0,0,1.3333333,384.05723,104.12795)"
       clip-path="url(#clipPath20)"><tspan
         style="font-style:italic;font-variant:normal;font-weight:normal;font-stretch:normal;font-size:8.0057px;font-family:'Palatino Linotype';writing-mode:lr-tb;fill:#000000;fill-opacity:1;fill-rule:nonzero;stroke:none"
         x="0 6.2284346 10.679604 15.130773 20.022255 22.688154 30.245535 33.800064 37.802914 40.917133 43.142715"
         y="0"
         sodipodi:role="line"
         id="tspan19">NLFE-Modell</tspan></text>
    <text
       id="text20"
       xml:space="preserve"
       transform="matrix(1.3333333,0,0,1.3333333,81.150213,136.75607)"
       clip-path="url(#clipPath21)"><tspan
         style="font-variant:normal;font-weight:normal;font-stretch:normal;font-size:8.07329px;font-family:'Palatino Linotype';writing-mode:lr-tb;fill:#000000;fill-opacity:1;fill-rule:nonzero;stroke:none"
         x="0 4.9327803 9.8090477 11.82737 15.864015 17.882338 21.918982 23.937305 27.973949 32.010593"
         y="0"
         sodipodi:role="line"
         id="tspan20">LP = 0.101</tspan></text>
    <text
       id="text21"
       xml:space="preserve"
       transform="matrix(1.3333333,0,0,1.3333333,89.10204,92.005987)"
       clip-path="url(#clipPath22)"><tspan
         style="font-variant:normal;font-weight:normal;font-stretch:normal;font-size:8.07329px;font-family:'Palatino Linotype';writing-mode:lr-tb;fill:#000000;fill-opacity:1;fill-rule:nonzero;stroke:none"
         x="0 4.9327803 9.8090477 11.82737 15.864015 17.882338 21.918982 23.937305 27.973949 32.010593"
         y="0"
         sodipodi:role="line"
         id="tspan21">LP = 0.366</tspan></text>
    <text
       id="text22"
       xml:space="preserve"
       transform="matrix(1.3333333,0,0,1.3333333,84.113013,115.03569)"
       clip-path="url(#clipPath23)"><tspan
         style="font-variant:normal;font-weight:normal;font-stretch:normal;font-size:8.07329px;font-family:'Palatino Linotype';writing-mode:lr-tb;fill:#000000;fill-opacity:1;fill-rule:nonzero;stroke:none"
         x="0 4.9327803 9.8090477 11.82737 15.864015 17.882338 21.918982 23.937305 27.973949 32.010593"
         y="0"
         sodipodi:role="line"
         id="tspan22">LP = 0.300</tspan></text>
    <text
       id="text23"
       xml:space="preserve"
       transform="matrix(1.3333333,0,0,1.3333333,144.58168,71.346347)"
       clip-path="url(#clipPath24)"><tspan
         style="font-variant:normal;font-weight:normal;font-stretch:normal;font-size:8.07329px;font-family:'Palatino Linotype';writing-mode:lr-tb;fill:#000000;fill-opacity:1;fill-rule:nonzero;stroke:none"
         x="0 4.9327803 9.8090477 11.82737 15.864015 17.882338 21.918982 23.937305 27.973949 32.010593"
         y="0"
         sodipodi:role="line"
         id="tspan23">LP = 0.568</tspan></text>
    <text
       id="text24"
       xml:space="preserve"
       transform="matrix(1.3333333,0,0,1.3333333,249.65548,44.609773)"
       clip-path="url(#clipPath25)"><tspan
         style="font-variant:normal;font-weight:normal;font-stretch:normal;font-size:8.07329px;font-family:'Palatino Linotype';writing-mode:lr-tb;fill:#000000;fill-opacity:1;fill-rule:nonzero;stroke:none"
         x="0 4.9327803 9.8090477 11.82737 15.864015 17.882338 21.918982 23.937305 27.973949 32.010593"
         y="0"
         sodipodi:role="line"
         id="tspan24">LP = 0.633</tspan></text>
    <path
       id="path26"
       d="m 56.82675,19.68796 v 96.46535 m 0,-5.95276 v -0.42521 m 0,6.37797 v 0 l -0.85039,-5.95276 h 1.70078 l -0.85039,5.95276"
       style="fill:none;stroke:#000000;stroke-width:0.3685;stroke-linecap:round;stroke-linejoin:round;stroke-miterlimit:10;stroke-dasharray:none;stroke-opacity:1"
       transform="matrix(1.3333333,0,0,-1.3333333,0,181.41733)" />
    <path
       id="path27"
       d="m 57.67714,110.20055 -0.85039,5.95276 -0.85039,-5.95276 z"
       style="fill:#000000;fill-opacity:1;fill-rule:nonzero;stroke:none"
       transform="matrix(1.3333333,0,0,-1.3333333,0,181.41733)" />
    <path
       id="path28"
       d="m 260.92123,19.68796 h 123.21979 m -5.95276,0 h -0.4252 m 6.37796,0 v 0 l -5.95276,0.85039 v -1.70078 l 5.95276,0.85039"
       style="fill:none;stroke:#000000;stroke-width:0.3685;stroke-linecap:round;stroke-linejoin:round;stroke-miterlimit:10;stroke-dasharray:none;stroke-opacity:1"
       transform="matrix(1.3333333,0,0,-1.3333333,0,181.41733)" />
    <path
       id="path29"
       d="m 378.18826,18.83757 5.95276,0.85039 -5.95276,0.85039 z"
       style="fill:#000000;fill-opacity:1;fill-rule:nonzero;stroke:none"
       transform="matrix(1.3333333,0,0,-1.3333333,0,181.41733)" />
    <path
       id="path30"
       d="m 56.82675,19.68796 h 327.31427 m -5.95276,0 h -0.4252 m 6.37796,0 v 0 l -5.95276,0.85039 v -1.70078 l 5.95276,0.85039"
       style="fill:none;stroke:#000000;stroke-width:0.3685;stroke-linecap:round;stroke-linejoin:round;stroke-miterlimit:10;stroke-dasharray:none;stroke-opacity:1"
       transform="matrix(1.3333333,0,0,-1.3333333,0,181.41733)" />
    <path
       id="path31"
       d="m 378.18826,18.83757 5.95276,0.85039 -5.95276,0.85039 z"
       style="fill:#000000;fill-opacity:1;fill-rule:nonzero;stroke:none"
       transform="matrix(1.3333333,0,0,-1.3333333,0,181.41733)" />
  </g>
</svg>
