<?xml version="1.0" encoding="UTF-8" standalone="no"?>
<!-- Created with Inkscape (http://www.inkscape.org/) -->

<svg
   version="1.1"
   id="svg1"
   width="566.92932"
   height="132.28346"
   viewBox="0 0 566.92932 132.28346"
   sodipodi:docname="tho_qs_my.pdf"
   xmlns:inkscape="http://www.inkscape.org/namespaces/inkscape"
   xmlns:sodipodi="http://sodipodi.sourceforge.net/DTD/sodipodi-0.dtd"
   xmlns="http://www.w3.org/2000/svg"
   xmlns:svg="http://www.w3.org/2000/svg">
  <defs
     id="defs1">
    <clipPath
       clipPathUnits="userSpaceOnUse"
       id="clipPath17">
      <path
         d="M -0.00426,-9.9e-4 V 99.21359 H 425.20111 V -9.9e-4 H -0.00426"
         transform="matrix(1,0,0,-1,-18.29667,70.838922)"
         clip-rule="evenodd"
         id="path17" />
    </clipPath>
    <clipPath
       clipPathUnits="userSpaceOnUse"
       id="clipPath18">
      <path
         d="M -0.00426,-9.9e-4 V 99.21359 H 425.20111 V -9.9e-4 H -0.00426"
         transform="matrix(1,0,0,-1,-28.031961,66.705072)"
         clip-rule="evenodd"
         id="path18" />
    </clipPath>
    <clipPath
       clipPathUnits="userSpaceOnUse"
       id="clipPath20">
      <path
         d="M -0.00426,-9.9e-4 V 99.21359 H 425.20111 V -9.9e-4 H -0.00426"
         transform="matrix(0,1,1,0,-45.640431,-393.65559)"
         clip-rule="evenodd"
         id="path20" />
    </clipPath>
    <clipPath
       clipPathUnits="userSpaceOnUse"
       id="clipPath22">
      <path
         d="M -0.00426,-9.9e-4 V 99.21359 H 425.20111 V -9.9e-4 H -0.00426"
         transform="matrix(0,1,1,0,-66.230842,-286.23133)"
         clip-rule="evenodd"
         id="path22" />
    </clipPath>
    <clipPath
       clipPathUnits="userSpaceOnUse"
       id="clipPath24">
      <path
         d="M -0.00426,-9.9e-4 V 99.21359 H 425.20111 V -9.9e-4 H -0.00426"
         transform="matrix(1,0,0,-1,-184.78359,52.623312)"
         clip-rule="evenodd"
         id="path24" />
    </clipPath>
    <clipPath
       clipPathUnits="userSpaceOnUse"
       id="clipPath25">
      <path
         d="M -0.00426,-9.9e-4 V 99.21359 H 425.20111 V -9.9e-4 H -0.00426"
         transform="matrix(1,0,0,-1,-190.71927,48.489451)"
         clip-rule="evenodd"
         id="path25" />
    </clipPath>
    <clipPath
       clipPathUnits="userSpaceOnUse"
       id="clipPath27">
      <path
         d="M -0.00426,-9.9e-4 V 99.21359 H 425.20111 V -9.9e-4 H -0.00426"
         transform="matrix(0,1,1,0,-50.823852,-120.4173)"
         clip-rule="evenodd"
         id="path27" />
    </clipPath>
    <clipPath
       clipPathUnits="userSpaceOnUse"
       id="clipPath29">
      <path
         d="M -0.00426,-9.9e-4 V 99.21359 H 425.20111 V -9.9e-4 H -0.00426"
         transform="matrix(1,0,0,-1,-275.09868,36.795891)"
         clip-rule="evenodd"
         id="path29" />
    </clipPath>
    <clipPath
       clipPathUnits="userSpaceOnUse"
       id="clipPath30">
      <path
         d="M -0.00426,-9.9e-4 V 99.21359 H 425.20111 V -9.9e-4 H -0.00426"
         transform="matrix(1,0,0,-1,-281.32084,32.662031)"
         clip-rule="evenodd"
         id="path30" />
    </clipPath>
    <clipPath
       clipPathUnits="userSpaceOnUse"
       id="clipPath31">
      <path
         d="M -0.00426,-9.9e-4 V 99.21359 H 425.20111 V -9.9e-4 H -0.00426"
         transform="matrix(1,0,0,-1,-205.00243,34.811641)"
         clip-rule="evenodd"
         id="path31" />
    </clipPath>
    <clipPath
       clipPathUnits="userSpaceOnUse"
       id="clipPath32">
      <path
         d="M -0.00426,-9.9e-4 V 99.21359 H 425.20111 V -9.9e-4 H -0.00426"
         transform="matrix(1,0,0,-1,-209.95804,30.677781)"
         clip-rule="evenodd"
         id="path32" />
    </clipPath>
    <clipPath
       clipPathUnits="userSpaceOnUse"
       id="clipPath33">
      <path
         d="M -0.00426,-9.9e-4 V 99.21359 H 425.20111 V -9.9e-4 H -0.00426"
         transform="matrix(1,0,0,-1,-228.90915,86.047302)"
         clip-rule="evenodd"
         id="path33" />
    </clipPath>
    <clipPath
       clipPathUnits="userSpaceOnUse"
       id="clipPath34">
      <path
         d="M -0.00426,-9.9e-4 V 99.21359 H 425.20111 V -9.9e-4 H -0.00426"
         transform="matrix(1,0,0,-1,-235.13131,81.913442)"
         clip-rule="evenodd"
         id="path34" />
    </clipPath>
    <clipPath
       clipPathUnits="userSpaceOnUse"
       id="clipPath35">
      <path
         d="M -0.00426,-9.9e-4 V 99.21359 H 425.20111 V -9.9e-4 H -0.00426"
         transform="matrix(1,0,0,-1,-48.717611,32.472721)"
         clip-rule="evenodd"
         id="path35" />
    </clipPath>
    <clipPath
       clipPathUnits="userSpaceOnUse"
       id="clipPath36">
      <path
         d="M -0.00426,-9.9e-4 V 99.21359 H 425.20111 V -9.9e-4 H -0.00426"
         transform="matrix(1,0,0,-1,-82.07581,46.822621)"
         clip-rule="evenodd"
         id="path36" />
    </clipPath>
    <clipPath
       clipPathUnits="userSpaceOnUse"
       id="clipPath37">
      <path
         d="M -0.00426,-9.9e-4 V 99.21359 H 425.20111 V -9.9e-4 H -0.00426"
         transform="matrix(1,0,0,-1,-47.259511,47.263211)"
         clip-rule="evenodd"
         id="path37" />
    </clipPath>
  </defs>
  <sodipodi:namedview
     id="namedview1"
     pagecolor="#ffffff"
     bordercolor="#000000"
     borderopacity="0.25"
     inkscape:showpageshadow="2"
     inkscape:pageopacity="0.0"
     inkscape:pagecheckerboard="0"
     inkscape:deskcolor="#d1d1d1">
    <inkscape:page
       x="0"
       y="0"
       inkscape:label="1"
       id="page1"
       width="566.92932"
       height="132.28346"
       margin="0"
       bleed="0" />
  </sodipodi:namedview>
  <g
     id="g1"
     inkscape:groupmode="layer"
     inkscape:label="1">
    <path
       id="path1"
       d="M 42.37123,71.01695 C 30.72641,65.91806 25.41989,52.34459 30.5188,40.69977 m 0,0 c 2.36548,-5.40227 6.71431,-9.69049 12.14923,-11.97992"
       style="fill:none;stroke:#000000;stroke-width:0.51024;stroke-linecap:round;stroke-linejoin:round;stroke-miterlimit:10;stroke-dasharray:none;stroke-opacity:1"
       transform="matrix(1.3333333,0,0,-1.3333333,0,132.28347)" />
    <path
       id="path2"
       d="m 39.93512,69.56763 2.43611,1.44932 M 37.2554,67.97334 36.88998,67.75595 m 5.48125,3.261 v 0 l -5.55063,-2.31277 0.8696,-1.46166 4.68103,3.77443"
       style="fill:none;stroke:#000000;stroke-width:0.3685;stroke-linecap:round;stroke-linejoin:round;stroke-miterlimit:10;stroke-dasharray:none;stroke-opacity:1"
       transform="matrix(1.3333333,0,0,-1.3333333,0,132.28347)" />
    <path
       id="path3"
       d="m 37.6902,67.24252 4.68103,3.77443 -5.55063,-2.31277 z"
       style="fill:#000000;fill-opacity:1;fill-rule:nonzero;stroke:none"
       transform="matrix(1.3333333,0,0,-1.3333333,0,132.28347)" />
    <path
       id="path4"
       d="m 154.30896,78.1171 h 17.00787 m -111.54907,0 h 42.51969 M 59.76776,72.4478 h 42.51969 m 273.12387,-5.41974 h -19.84253 m 5.95276,0 h 0.4252 m -6.37796,0 v 0 l 5.95276,-0.85039 v 1.70078 l -5.95276,-0.85039"
       style="fill:none;stroke:#000000;stroke-width:0.3685;stroke-linecap:round;stroke-linejoin:round;stroke-miterlimit:10;stroke-dasharray:none;stroke-opacity:1"
       transform="matrix(1.3333333,0,0,-1.3333333,0,132.28347)" />
    <path
       id="path5"
       d="m 361.52155,67.87845 -5.95276,-0.85039 5.95276,-0.85039 z"
       style="fill:#000000;fill-opacity:1;fill-rule:nonzero;stroke:none"
       transform="matrix(1.3333333,0,0,-1.3333333,0,132.28347)" />
    <path
       id="path6"
       d="m 59.76776,69.61316 h 42.51969 m 134.22622,8.50394 h 25.51181 m 39.68503,-51.02364 h -39.68503 m -90.70865,-5.66928 h 34.01575 m -145.56482,0 h 42.51969 m -42.51969,5.66928 h 42.51969 m -42.51969,0 h 42.51969 m -42.51969,2.83466 h 42.51969 m 253.28134,-1.41733 h 19.84253 m -5.95276,0 h -0.4252 m 6.37796,0 v 0 l -5.95276,0.8504 V 27.6604 l 5.95276,0.85039"
       style="fill:none;stroke:#000000;stroke-width:0.3685;stroke-linecap:round;stroke-linejoin:round;stroke-miterlimit:10;stroke-dasharray:none;stroke-opacity:1"
       transform="matrix(1.3333333,0,0,-1.3333333,0,132.28347)" />
    <path
       id="path7"
       d="m 369.45856,27.6604 5.95276,0.85039 -5.95276,0.8504 z"
       style="fill:#000000;fill-opacity:1;fill-rule:nonzero;stroke:none"
       transform="matrix(1.3333333,0,0,-1.3333333,0,132.28347)" />
    <path
       id="path8"
       d="m 102.28745,28.51079 h 1.17712 m 2.83464,0 h 4.25197 m 2.83465,0 h 4.25197 m 2.83464,0 h 4.25197 m 2.83464,0 h 4.25199 m 2.83465,0 h 4.25195 m 2.83466,0 h 4.25195 m 2.83466,0 h 4.25195 m 2.83466,0 h 4.25198 m 2.83463,0 h 4.25198 m 2.83463,0 h 4.25198 m 2.83465,0 h 4.25196 m 2.83465,0 h 4.25196 m 2.83465,0 h 4.25196 m 2.83465,0 h 4.25199 m 2.83462,0 h 4.25198 m 2.83463,0 h 4.25198 m 2.83466,0 h 4.25195 m 2.83466,0 h 4.25195 m 2.83466,0 h 4.25195 m 2.83466,0 h 4.25198 m 2.83462,0 h 4.25199 m 2.83462,0 h 4.25199 m 2.83462,0 h 4.25199 m 2.83465,0 h 4.25195 m 2.83466,0 h 4.25195 m 2.83466,0 h 4.25195 m 2.83466,0 h 4.25198 m 2.83463,0 h 4.25198 m 2.83463,0 h 4.25198 m 2.83466,0 h 4.25195 m 2.83465,0 h 4.25196 m 2.83465,0 h 4.25196 m 2.83465,0 h 4.25199 m 2.83462,0 h 4.25198 m 2.83463,0 h 4.25198 m 2.83466,0 h 4.25195 m 2.83466,0 h 4.25195 m 2.83466,0 h 4.25198 m -270.46847,0 v 0 m 273.12387,0 v 0 m -73.70081,1.41733 h -39.68503 m 39.68503,0 V 27.09346 M 171.31683,78.1171 V 21.42418 M 262.02548,78.1171 V 21.42418 M 341.39557,78.1171 V 21.42418 m -136.06299,0 -51.02362,56.69292 M 59.76776,10.20473 v 4.25197 m 0,5.95275 v 4.25197 m 0,5.95276 v 4.25197"
       style="fill:none;stroke:#000000;stroke-width:0.3685;stroke-linecap:round;stroke-linejoin:round;stroke-miterlimit:10;stroke-dasharray:none;stroke-opacity:1"
       transform="matrix(1.3333333,0,0,-1.3333333,0,132.28347)" />
    <path
       id="path9"
       d="m 59.76776,40.81889 v 4.25197 m 0,5.95276 v 4.25197 m 0,5.95276 v 4.25197 m 0,5.95275 v 4.25197 m 0,5.95276 v 4.25197 m 0,5.95276 v 0.44778 m 0,-85.03936 v 0.11912 m 0,9.92127 v 0.28346 m 0,9.92126 v 0.28347 m 0,9.92126 v 0.28346 m 0,9.92127 v 0.28346 m 0,9.92126 v 0.28347 m 0,9.92126 v 0.28346 m 0,9.92125 v 0.28347 m 0,9.92126 v 0.28346 m 0,-81.75692 v 0 m 0,85.03936 v 0 M 102.28745,78.1171 V 21.42418 M 341.39557,78.1171 V 21.42418 M 171.31683,59.21945 h 3.01389 m 2.83465,0 h 4.25196 m 2.83465,0 h 4.25196 m 2.83465,0 h 4.25196 m 2.83465,0 h 4.25199 m 2.83462,0 h 4.25198 m 2.83463,0 h 4.25198 m 2.83466,0 h 4.25195 m 2.83466,0 h 4.25195 m 2.83466,0 h 4.25195 m 2.83466,0 h 4.25198 m 2.83462,0 h 4.25199 m 2.83462,0 h 4.25199 m 2.83462,0 h 4.25199 m 2.83465,0 h 4.25195 m 2.83466,0 h 4.25195 m 2.83466,0 h 2.93228 m -115.08002,0 v 0 m 115.08002,0 v 0 m -24.37137,0 v 0 L 236.51367,78.1171"
       style="fill:none;stroke:#000000;stroke-width:0.3685;stroke-linecap:round;stroke-linejoin:round;stroke-miterlimit:10;stroke-dasharray:none;stroke-opacity:1"
       transform="matrix(1.3333333,0,0,-1.3333333,0,132.28347)" />
    <path
       id="path10"
       d="m 171.31683,42.88542 c 4.03519,0 7.92755,1.49364 10.92688,4.19304"
       style="fill:none;stroke:#000000;stroke-width:0.3685;stroke-linecap:round;stroke-linejoin:round;stroke-miterlimit:10;stroke-dasharray:none;stroke-opacity:1"
       transform="matrix(1.3333333,0,0,-1.3333333,0,132.28347)" />
    <path
       id="path11"
       d="m 62.33302,49.77063 c 0,1.41676 -1.14851,2.56526 -2.56526,2.56526 m 0,0 c -1.41675,0 -2.56526,-1.1485 -2.56526,-2.56526 m 0,0 c 0,-1.41675 1.14851,-2.56526 2.56526,-2.56526 m 0,0 c 1.41675,0 2.56526,1.14851 2.56526,2.56526"
       style="fill:none;stroke:#000000;stroke-width:0.3685;stroke-linecap:round;stroke-linejoin:round;stroke-miterlimit:10;stroke-dasharray:none;stroke-opacity:1"
       transform="matrix(1.3333333,0,0,-1.3333333,0,132.28347)" />
    <path
       id="path12"
       d="m 102.28745,78.1171 h 1.17712 m 2.83464,0 h 4.25197 m 2.83465,0 h 4.25197 m 2.83464,0 h 4.25197 m 2.83464,0 h 4.25199 m 2.83465,0 h 4.25195 m 2.83466,0 h 4.25195 m 2.83466,0 h 4.25195 m -50.78341,0 v 0 m 52.02151,0 v 0 m 17.00787,0 h 3.01389 m 2.83465,0 h 4.25196 m 2.83465,0 h 4.25196 m 2.83465,0 h 4.25196 m 2.83465,0 h 4.25199 m 2.83462,0 h 4.25198 m 2.83463,0 h 4.25198 m 2.83466,0 h 4.25195 m 2.83466,0 h 4.25195 m 2.83466,0 h 2.65539 m -65.19684,0 v 0 m 65.19684,0 v 0 m 25.69104,0 h 4.25199 m 2.83465,0 h 4.25195 m 2.83466,0 h 4.25195 m 2.83466,0 h 4.25195 m 2.83466,0 h 4.25198 m 2.83463,0 h 4.25198 m 2.83463,0 h 4.25198 m 2.83466,0 h 4.25195 m 2.83465,0 h 4.25196 m 2.83465,0 h 4.25196 m 2.83465,0 h 4.25199 m 2.83462,0 h 4.25198 m 2.83463,0 h 4.25198 m 2.83466,0 h 4.25195 m 2.83466,0 h 4.25195 m 2.83466,0 h 4.25198 m -110.73044,0 v 0 m 113.38584,0 v 0 M 102.28745,21.42418 h 1.17712 m 2.83464,0 h 4.25197 m 2.83465,0 h 4.25197 m 2.83464,0 h 4.25197 m 2.83464,0 h 4.25199 m 2.83465,0 h 4.25195 m 2.83466,0 h 4.25195 m 2.83466,0 h 4.25195 m 2.83466,0 h 4.25198 m 2.83463,0 h 4.25198"
       style="fill:none;stroke:#000000;stroke-width:0.3685;stroke-linecap:round;stroke-linejoin:round;stroke-miterlimit:10;stroke-dasharray:none;stroke-opacity:1"
       transform="matrix(1.3333333,0,0,-1.3333333,0,132.28347)" />
    <path
       id="path13"
       d="m 170.07874,21.42418 h 1.23809 m -69.02938,0 v 0 m 69.02938,0 v 0 m 34.19498,0 h 4.25198 m 2.83463,0 h 4.25198 m 2.83466,0 h 4.25195 m 2.83466,0 h 4.25195 m 2.83466,0 h 4.25195 m 2.83466,0 h 4.25198 m 2.83462,0 h 4.25199 m 2.83462,0 h 4.25199 m 2.83462,0 h 4.25199 m 2.83465,0 h 4.25195 m 2.83466,0 h 4.25195 m 2.83466,0 h 4.25195 m 2.83466,0 h 4.25198 m 2.83463,0 h 4.25198 m 2.83463,0 h 4.25198 m 2.83466,0 h 4.25195 m 2.83465,0 h 4.25196 m 2.83465,0 h 4.25196 m 2.83465,0 h 4.25199 m 2.83462,0 h 4.25198 m 2.83463,0 h 4.25198 m 2.83466,0 h 4.25195 m 2.83466,0 h 4.25195 m 2.83466,0 h 4.25198 m -167.42334,0 v 0 m 170.07874,0 v 0 M 59.76776,49.77063 h 19.33255 m -5.95276,0 h -0.4252 m 6.37796,0 v 0 l -5.95276,0.8504 v -1.70079 l 5.95276,0.85039"
       style="fill:none;stroke:#000000;stroke-width:0.3685;stroke-linecap:round;stroke-linejoin:round;stroke-miterlimit:10;stroke-dasharray:none;stroke-opacity:1"
       transform="matrix(1.3333333,0,0,-1.3333333,0,132.28347)" />
    <path
       id="path14"
       d="m 73.14755,48.92024 5.95276,0.85039 -5.95276,0.8504 z"
       style="fill:#000000;fill-opacity:1;fill-rule:nonzero;stroke:none"
       transform="matrix(1.3333333,0,0,-1.3333333,0,132.28347)" />
    <path
       id="path15"
       d="m 59.76776,49.77063 v -17.0706 m 0,5.95276 v 0.4252 m 0,-6.37796 v 0 l 0.8504,5.95276 h -1.70079 l 0.85039,-5.95276"
       style="fill:none;stroke:#000000;stroke-width:0.3685;stroke-linecap:round;stroke-linejoin:round;stroke-miterlimit:10;stroke-dasharray:none;stroke-opacity:1"
       transform="matrix(1.3333333,0,0,-1.3333333,0,132.28347)" />
    <path
       id="path16"
       d="m 58.91737,38.65279 0.85039,-5.95276 0.8504,5.95276 z"
       style="fill:#000000;fill-opacity:1;fill-rule:nonzero;stroke:none"
       transform="matrix(1.3333333,0,0,-1.3333333,0,132.28347)" />
    <text
       id="text16"
       xml:space="preserve"
       transform="matrix(1.3333333,0,0,1.3333333,24.39556,37.831573)"
       clip-path="url(#clipPath17)"><tspan
         style="font-style:italic;font-variant:normal;font-weight:normal;font-stretch:normal;font-size:10.0071px;font-family:'Palatino Linotype';writing-mode:lr-tb;fill:#000000;fill-opacity:1;fill-rule:nonzero;stroke:none"
         x="0"
         y="0"
         id="tspan16">M</tspan></text>
    <text
       id="text17"
       xml:space="preserve"
       transform="matrix(1.3333333,0,0,1.3333333,37.375947,43.343373)"
       clip-path="url(#clipPath18)"><tspan
         style="font-style:italic;font-variant:normal;font-weight:normal;font-stretch:normal;font-size:6.00428px;font-family:'Palatino Linotype';writing-mode:lr-tb;fill:#000000;fill-opacity:1;fill-rule:nonzero;stroke:none"
         x="0"
         y="0"
         id="tspan17">y</tspan></text>
    <path
       id="path19"
       d="m 396.65576,28.51079 -0.4252,2.97638 h 0.85037 l -0.42517,-2.97638 m 0,38.51727 -0.4252,-2.97638 h 0.85037 l -0.42517,2.97638 m 0,-38.51727 h -2.12601 m 2.12601,0 h 2.12598 m -2.12598,38.51727 h -2.12601 m 2.12601,0 h 2.12598 m -2.12598,-38.51727 h -2.83465 m 2.83465,38.51727 h -2.83465 m 2.83465,-38.51727 v 0 m 0,38.51727 v 0"
       style="fill:none;stroke:#000000;stroke-width:0.3685;stroke-linecap:round;stroke-linejoin:round;stroke-miterlimit:10;stroke-dasharray:none;stroke-opacity:1"
       transform="matrix(1.3333333,0,0,-1.3333333,0,132.28347)" />
    <text
       id="text19"
       xml:space="preserve"
       transform="matrix(0,-1.3333333,1.3333333,0,524.87411,71.42956)"
       clip-path="url(#clipPath20)"><tspan
         style="font-style:italic;font-variant:normal;font-weight:normal;font-stretch:normal;font-size:10.0071px;font-family:'Palatino Linotype';writing-mode:lr-tb;fill:#000000;fill-opacity:1;fill-rule:nonzero;stroke:none"
         x="0"
         y="0"
         id="tspan19">z</tspan></text>
    <path
       id="path21"
       d="m 396.65576,28.51079 v 38.51727 m -107.42428,-7.80861 -0.42521,2.97638 h 0.85041 l -0.4252,-2.97638 m 0,18.89765 -0.42521,-2.97638 h 0.85041 l -0.4252,2.97638 m 0,-18.89765 h -2.12598 m 2.12598,0 h 2.12597 m -2.12597,18.89765 h -2.12598 m 2.12598,0 h 2.12597 m -2.12597,-18.89765 h -2.83463 m 2.83463,18.89765 h -2.83463 m 2.83463,-18.89765 v 0 m 0,18.89765 v 0"
       style="fill:none;stroke:#000000;stroke-width:0.3685;stroke-linecap:round;stroke-linejoin:round;stroke-miterlimit:10;stroke-dasharray:none;stroke-opacity:1"
       transform="matrix(1.3333333,0,0,-1.3333333,0,132.28347)" />
    <text
       id="text21"
       xml:space="preserve"
       transform="matrix(0,-1.3333333,1.3333333,0,381.64177,43.97568)"
       clip-path="url(#clipPath22)"><tspan
         style="font-style:italic;font-variant:normal;font-weight:normal;font-stretch:normal;font-size:10.0071px;font-family:'Palatino Linotype';writing-mode:lr-tb;fill:#000000;fill-opacity:1;fill-rule:nonzero;stroke:none"
         x="0"
         y="0"
         id="tspan21">x</tspan></text>
    <path
       id="path23"
       d="M 289.23148,59.21945 V 78.1171"
       style="fill:none;stroke:#000000;stroke-width:0.3685;stroke-linecap:round;stroke-linejoin:round;stroke-miterlimit:10;stroke-dasharray:none;stroke-opacity:1"
       transform="matrix(1.3333333,0,0,-1.3333333,0,132.28347)" />
    <text
       id="text23"
       xml:space="preserve"
       transform="matrix(1.3333333,0,0,1.3333333,246.37812,62.119053)"
       clip-path="url(#clipPath24)"><tspan
         style="font-style:italic;font-variant:normal;font-weight:normal;font-stretch:normal;font-size:10.0071px;font-family:'Palatino Linotype';writing-mode:lr-tb;fill:#000000;fill-opacity:1;fill-rule:nonzero;stroke:none"
         x="0"
         y="0"
         id="tspan23">χ</tspan></text>
    <text
       id="text24"
       xml:space="preserve"
       transform="matrix(1.3333333,0,0,1.3333333,254.29235,67.630867)"
       clip-path="url(#clipPath25)"><tspan
         style="font-style:italic;font-variant:normal;font-weight:normal;font-stretch:normal;font-size:6.00428px;font-family:'Palatino Linotype';writing-mode:lr-tb;fill:#000000;fill-opacity:1;fill-rule:nonzero;stroke:none"
         x="0"
         y="0"
         id="tspan24">y</tspan></text>
    <path
       id="path26"
       d="m 123.38736,28.51079 -0.4252,2.97638 h 0.8504 l -0.4252,-2.97638 m 0,49.60631 -0.4252,-2.97638 h 0.8504 l -0.4252,2.97638 m 0,-49.60631 h -2.12598 m 2.12598,0 h 2.12598 m -2.12598,49.60631 h -2.12598 m 2.12598,0 h 2.12598 m -2.12598,-49.60631 h -2.83464 m 2.83464,49.60631 h -2.83464 m 2.83464,-49.60631 v 0 m 0,49.60631 v 0"
       style="fill:none;stroke:#000000;stroke-width:0.3685;stroke-linecap:round;stroke-linejoin:round;stroke-miterlimit:10;stroke-dasharray:none;stroke-opacity:1"
       transform="matrix(1.3333333,0,0,-1.3333333,0,132.28347)" />
    <text
       id="text26"
       xml:space="preserve"
       transform="matrix(0,-1.3333333,1.3333333,0,160.5564,64.518333)"
       clip-path="url(#clipPath27)"><tspan
         style="font-style:italic;font-variant:normal;font-weight:normal;font-stretch:normal;font-size:10.0071px;font-family:'Palatino Linotype';writing-mode:lr-tb;fill:#000000;fill-opacity:1;fill-rule:nonzero;stroke:none"
         x="0"
         y="0"
         id="tspan26">d</tspan></text>
    <path
       id="path28"
       d="M 123.38736,28.51079 V 78.1171"
       style="fill:none;stroke:#000000;stroke-width:0.3685;stroke-linecap:round;stroke-linejoin:round;stroke-miterlimit:10;stroke-dasharray:none;stroke-opacity:1"
       transform="matrix(1.3333333,0,0,-1.3333333,0,132.28347)" />
    <text
       id="text28"
       xml:space="preserve"
       transform="matrix(1.3333333,0,0,1.3333333,366.79823,83.22228)"
       clip-path="url(#clipPath29)"><tspan
         style="font-style:italic;font-variant:normal;font-weight:normal;font-stretch:normal;font-size:10.0071px;font-family:'Palatino Linotype';writing-mode:lr-tb;fill:#000000;fill-opacity:1;fill-rule:nonzero;stroke:none"
         x="0"
         y="0"
         id="tspan28">σ</tspan></text>
    <text
       id="text29"
       xml:space="preserve"
       transform="matrix(1.3333333,0,0,1.3333333,375.09444,88.734093)"
       clip-path="url(#clipPath30)"><tspan
         style="font-style:italic;font-variant:normal;font-weight:normal;font-stretch:normal;font-size:6.00428px;font-family:'Palatino Linotype';writing-mode:lr-tb;fill:#000000;fill-opacity:1;fill-rule:nonzero;stroke:none"
         x="0"
         y="0"
         id="tspan29">s</tspan></text>
    <text
       id="text30"
       xml:space="preserve"
       transform="matrix(1.3333333,0,0,1.3333333,273.33656,85.867947)"
       clip-path="url(#clipPath31)"><tspan
         style="font-style:italic;font-variant:normal;font-weight:normal;font-stretch:normal;font-size:10.0071px;font-family:'Palatino Linotype';writing-mode:lr-tb;fill:#000000;fill-opacity:1;fill-rule:nonzero;stroke:none"
         x="0"
         y="0"
         id="tspan30">ε</tspan></text>
    <text
       id="text31"
       xml:space="preserve"
       transform="matrix(1.3333333,0,0,1.3333333,279.94404,91.37976)"
       clip-path="url(#clipPath32)"><tspan
         style="font-style:italic;font-variant:normal;font-weight:normal;font-stretch:normal;font-size:6.00428px;font-family:'Palatino Linotype';writing-mode:lr-tb;fill:#000000;fill-opacity:1;fill-rule:nonzero;stroke:none"
         x="0"
         y="0"
         id="tspan31">s</tspan></text>
    <text
       id="text32"
       xml:space="preserve"
       transform="matrix(1.3333333,0,0,1.3333333,305.21219,17.553733)"
       clip-path="url(#clipPath33)"><tspan
         style="font-style:italic;font-variant:normal;font-weight:normal;font-stretch:normal;font-size:10.0071px;font-family:'Palatino Linotype';writing-mode:lr-tb;fill:#000000;fill-opacity:1;fill-rule:nonzero;stroke:none"
         x="0"
         y="0"
         id="tspan32">σ</tspan></text>
    <text
       id="text33"
       xml:space="preserve"
       transform="matrix(1.3333333,0,0,1.3333333,313.5084,23.065547)"
       clip-path="url(#clipPath34)"><tspan
         style="font-style:italic;font-variant:normal;font-weight:normal;font-stretch:normal;font-size:6.00428px;font-family:'Palatino Linotype';writing-mode:lr-tb;fill:#000000;fill-opacity:1;fill-rule:nonzero;stroke:none"
         x="0"
         y="0"
         id="tspan33">c</tspan></text>
    <text
       id="text34"
       xml:space="preserve"
       transform="matrix(1.3333333,0,0,1.3333333,64.956813,88.986507)"
       clip-path="url(#clipPath35)"><tspan
         style="font-style:italic;font-variant:normal;font-weight:normal;font-stretch:normal;font-size:10.0071px;font-family:'Palatino Linotype';writing-mode:lr-tb;fill:#000000;fill-opacity:1;fill-rule:nonzero;stroke:none"
         x="0"
         y="0"
         id="tspan34">Z</tspan></text>
    <text
       id="text35"
       xml:space="preserve"
       transform="matrix(1.3333333,0,0,1.3333333,109.43441,69.853307)"
       clip-path="url(#clipPath36)"><tspan
         style="font-style:italic;font-variant:normal;font-weight:normal;font-stretch:normal;font-size:10.0071px;font-family:'Palatino Linotype';writing-mode:lr-tb;fill:#000000;fill-opacity:1;fill-rule:nonzero;stroke:none"
         x="0"
         y="0"
         id="tspan35">X</tspan></text>
    <text
       id="text36"
       xml:space="preserve"
       transform="matrix(1.3333333,0,0,1.3333333,63.01268,69.265853)"
       clip-path="url(#clipPath37)"><tspan
         style="font-style:italic;font-variant:normal;font-weight:normal;font-stretch:normal;font-size:10.0071px;font-family:'Palatino Linotype';writing-mode:lr-tb;fill:#000000;fill-opacity:1;fill-rule:nonzero;stroke:none"
         x="0"
         y="0"
         id="tspan36">Y</tspan></text>
  </g>
</svg>
