<?xml version="1.0" encoding="UTF-8" standalone="no"?>
<!-- Created with Inkscape (http://www.inkscape.org/) -->

<svg
   version="1.1"
   id="svg1"
   width="529.13385"
   height="204.09448"
   viewBox="0 0 529.13385 204.09448"
   sodipodi:docname="tho_res_V10.pdf"
   xmlns:inkscape="http://www.inkscape.org/namespaces/inkscape"
   xmlns:sodipodi="http://sodipodi.sourceforge.net/DTD/sodipodi-0.dtd"
   xmlns="http://www.w3.org/2000/svg"
   xmlns:svg="http://www.w3.org/2000/svg">
  <defs
     id="defs1">
    <clipPath
       clipPathUnits="userSpaceOnUse"
       id="clipPath4">
      <path
         d="M 79.370079,30.614173 H 357.16535 V 137.76378 H 79.370079 Z"
         id="path4" />
    </clipPath>
    <clipPath
       clipPathUnits="userSpaceOnUse"
       id="clipPath8">
      <path
         d="M 79.370079,30.614173 H 357.16535 V 137.76378 H 79.370079 Z"
         id="path8" />
    </clipPath>
    <clipPath
       clipPathUnits="userSpaceOnUse"
       id="clipPath12">
      <path
         d="M 79.370079,30.614173 H 357.16535 V 137.76378 H 79.370079 Z"
         id="path12" />
    </clipPath>
    <clipPath
       clipPathUnits="userSpaceOnUse"
       id="clipPath16">
      <path
         d="M 79.370079,30.614173 H 357.16535 V 137.76378 H 79.370079 Z"
         id="path16" />
    </clipPath>
    <clipPath
       clipPathUnits="userSpaceOnUse"
       id="clipPath20">
      <path
         d="M 79.370079,30.614173 H 357.16535 V 137.76378 H 79.370079 Z"
         id="path20" />
    </clipPath>
    <clipPath
       clipPathUnits="userSpaceOnUse"
       id="clipPath24">
      <path
         d="M 79.370079,30.614173 H 357.16535 V 137.76378 H 79.370079 Z"
         id="path24" />
    </clipPath>
    <clipPath
       clipPathUnits="userSpaceOnUse"
       id="clipPath28">
      <path
         d="M 79.370079,30.614173 H 357.16535 V 137.76378 H 79.370079 Z"
         id="path28" />
    </clipPath>
    <clipPath
       clipPathUnits="userSpaceOnUse"
       id="clipPath32">
      <path
         d="M 79.370079,30.614173 H 357.16535 V 137.76378 H 79.370079 Z"
         id="path32" />
    </clipPath>
    <clipPath
       clipPathUnits="userSpaceOnUse"
       id="clipPath36">
      <path
         d="M 79.370079,30.614173 H 357.16535 V 137.76378 H 79.370079 Z"
         id="path36" />
    </clipPath>
    <clipPath
       clipPathUnits="userSpaceOnUse"
       id="clipPath44">
      <path
         d="M 79.370079,30.614173 H 357.16535 V 137.76378 H 79.370079 Z"
         id="path44" />
    </clipPath>
    <clipPath
       clipPathUnits="userSpaceOnUse"
       id="clipPath50">
      <path
         d="M 79.370079,30.614173 H 357.16535 V 137.76378 H 79.370079 Z"
         id="path50" />
    </clipPath>
    <clipPath
       clipPathUnits="userSpaceOnUse"
       id="clipPath56">
      <path
         d="M 79.370079,30.614173 H 357.16535 V 137.76378 H 79.370079 Z"
         id="path56" />
    </clipPath>
    <clipPath
       clipPathUnits="userSpaceOnUse"
       id="clipPath62">
      <path
         d="M 79.370079,30.614173 H 357.16535 V 137.76378 H 79.370079 Z"
         id="path62" />
    </clipPath>
    <clipPath
       clipPathUnits="userSpaceOnUse"
       id="clipPath68">
      <path
         d="M 79.370079,30.614173 H 357.16535 V 137.76378 H 79.370079 Z"
         id="path68" />
    </clipPath>
    <clipPath
       clipPathUnits="userSpaceOnUse"
       id="clipPath74">
      <path
         d="M 79.370079,30.614173 H 357.16535 V 137.76378 H 79.370079 Z"
         id="path74" />
    </clipPath>
    <clipPath
       clipPathUnits="userSpaceOnUse"
       id="clipPath85">
      <path
         d="M 79.370079,30.614173 H 357.16535 V 137.76378 H 79.370079 Z"
         id="path85" />
    </clipPath>
  </defs>
  <sodipodi:namedview
     id="namedview1"
     pagecolor="#ffffff"
     bordercolor="#000000"
     borderopacity="0.25"
     inkscape:showpageshadow="2"
     inkscape:pageopacity="0.0"
     inkscape:pagecheckerboard="0"
     inkscape:deskcolor="#d1d1d1">
    <inkscape:page
       x="0"
       y="0"
       inkscape:label="1"
       id="page1"
       width="529.13385"
       height="204.09448"
       margin="0"
       bleed="0" />
  </sodipodi:namedview>
  <g
     id="g1"
     inkscape:groupmode="layer"
     inkscape:label="1">
    <path
       id="path1"
       d="M 0,0 H 396.85039 V 153.07087 H 0 Z"
       style="fill:#ffffff;fill-opacity:1;fill-rule:nonzero;stroke:none"
       transform="matrix(1.3333333,0,0,-1.3333333,0,204.09449)" />
    <path
       id="path2"
       d="M 79.370079,30.614173 H 357.16535 V 137.76378 H 79.370079 Z"
       style="fill:#ffffff;fill-opacity:1;fill-rule:nonzero;stroke:none"
       transform="matrix(1.3333333,0,0,-1.3333333,0,204.09449)" />
    <path
       id="path3"
       d="M 91.316433,30.614173 V 137.76378"
       style="fill:none;stroke:#808080;stroke-width:0.2;stroke-linecap:butt;stroke-linejoin:round;stroke-miterlimit:10;stroke-dasharray:0.74, 0.32;stroke-dashoffset:0;stroke-opacity:0.7"
       transform="matrix(1.3333333,0,0,-1.3333333,0,204.09449)"
       clip-path="url(#clipPath4)" />
    <path
       id="path5"
       d="m 91.316433,30.614173 v 3.5"
       style="fill:#000000;fill-opacity:1;fill-rule:nonzero;stroke:#000000;stroke-width:0.5;stroke-linecap:butt;stroke-linejoin:round;stroke-miterlimit:10;stroke-dasharray:none;stroke-opacity:1"
       transform="matrix(1.3333333,0,0,-1.3333333,0,204.09449)" />
    <path
       id="path6"
       d="m 3.9031977,-2.544229 c 0,-0.8554688 -0.09375,-1.3710938 -0.3515625,-1.875 -0.3515625,-0.703125 -0.9960937,-0.8789063 -1.4414062,-0.8789063 -0.9960938,0 -1.3710938,0.75 -1.47656255,0.9726563 -0.29296875,0.5742187 -0.3046875,1.3710937 -0.3046875,1.78125 0,0.5273437 0.0234375,1.3359375 0.41015625,1.96874997 0.3632813,0.5859375 0.9492188,0.73828125 1.3710938,0.73828125 0.3867187,0 1.0664062,-0.1171875 1.4648437,-0.90234375 C 3.8680415,-1.3137603 3.9031977,-2.028604 3.9031977,-2.544229 Z M 2.110229,-0.05985403 c -0.2695313,0 -0.8203125,-0.12890625 -0.984375,-0.96093747 -0.09375,-0.4570313 -0.09375,-1.2070313 -0.09375,-1.6171875 0,-0.5507813 0,-1.1132813 0.09375,-1.546875 0.1640625,-0.8085938 0.7851562,-0.890625 0.984375,-0.890625 0.2695312,0 0.8203125,0.1289062 0.984375,0.8554687 0.09375,0.4453125 0.09375,1.0429688 0.09375,1.5820313 0,0.46875 0,1.1835937 -0.09375,1.6289062 -0.1640625,0.84375002 -0.7148438,0.94921877 -0.984375,0.94921877 z m 0,0"
       style="fill:#000000;fill-opacity:1;fill-rule:nonzero;stroke:none"
       aria-label="0"
       transform="matrix(1.3333333,0,0,1.3333333,118.93246,175.32199)" />
    <path
       id="path7"
       d="M 122.62881,30.614173 V 137.76378"
       style="fill:none;stroke:#808080;stroke-width:0.2;stroke-linecap:butt;stroke-linejoin:round;stroke-miterlimit:10;stroke-dasharray:0.74, 0.32;stroke-dashoffset:0;stroke-opacity:0.7"
       transform="matrix(1.3333333,0,0,-1.3333333,0,204.09449)"
       clip-path="url(#clipPath8)" />
    <path
       id="path9"
       d="m 122.62881,30.614173 v 3.5"
       style="fill:#000000;fill-opacity:1;fill-rule:nonzero;stroke:#000000;stroke-width:0.5;stroke-linecap:butt;stroke-linejoin:round;stroke-miterlimit:10;stroke-dasharray:none;stroke-opacity:1"
       transform="matrix(1.3333333,0,0,-1.3333333,0,204.09449)" />
    <path
       id="path10"
       d="m 2.2499003,-1.6301665 c 0.1289063,-0.1171875 0.4570313,-0.375 0.5859375,-0.4921875 0.4921875,-0.4570313 0.9609375,-0.890625 0.9609375,-1.6171875 0,-0.9492188 -0.796875,-1.5585938 -1.7929687,-1.5585938 -0.9492188,0 -1.58203127,0.7265625 -1.58203127,1.4296875 0,0.3984375 0.31640625,0.4453125 0.421875,0.4453125 0.16406247,0 0.41015627,-0.1171875 0.41015627,-0.421875 0,-0.4101562 -0.39843752,-0.4101562 -0.49218752,-0.4101562 0.234375,-0.5859375 0.77343752,-0.7851563 1.16015622,-0.7851563 0.7382813,0 1.125,0.6328125 1.125,1.3007813 0,0.8320312 -0.5859375,1.4296875 -1.5234375,2.4023437 l -1.00781247,1.03125002 c -0.09375,0.09375 -0.09375,0.10546875 -0.09375,0.3046875 H 3.5741191 L 3.7967753,-1.4309478 H 3.5506816 c -0.023437,0.1640625 -0.082031,0.56250002 -0.1757813,0.71484377 -0.046875,0.0585938 -0.65625,0.0585938 -0.7851562,0.0585938 H 1.1717753 Z M 5.34658,-4.4778228 c 0.1054688,0.035156 0.421875,0.1054688 0.7617188,0.1054688 0.9960937,0 1.59375,-0.6914063 1.59375,-0.8203125 0,-0.082031 -0.046875,-0.1054688 -0.09375,-0.1054688 -0.011719,0 -0.023437,0 -0.1054688,0.035156 -0.3046875,0.1171875 -0.6679687,0.2226562 -1.1015625,0.2226562 -0.46875,0 -0.8554687,-0.1289062 -1.1132812,-0.2226562 -0.070312,-0.035156 -0.09375,-0.035156 -0.09375,-0.035156 -0.1054688,0 -0.1054688,0.082031 -0.1054688,0.234375 v 2.3320313 c 0,0.140625 0,0.234375 0.1289063,0.234375 0.058594,0 0.082031,-0.035156 0.1289062,-0.09375 0.09375,-0.1171875 0.3984375,-0.5273438 1.0664063,-0.5273438 0.4453125,0 0.6679687,0.3632813 0.7382812,0.515625 0.1289063,0.2929688 0.1523438,0.65625 0.1523438,0.9726563 0,0.2929687 -0.011719,0.71484372 -0.234375,1.06640622 -0.1523438,0.24609375 -0.46875,0.4921875 -0.890625,0.4921875 -0.515625,0 -1.03125,-0.328125 -1.2070313,-0.84375 0.023437,0 0.070312,0 0.070312,0 0.2226563,0 0.3984375,-0.14062502 0.3984375,-0.38671872 0,-0.2929688 -0.2226562,-0.3984375 -0.3867187,-0.3984375 -0.140625,0 -0.3984375,0.082031 -0.3984375,0.421875 0,0.71484372 0.6210937,1.44140622 1.5351562,1.44140622 0.9960938,0 1.8398438,-0.7734375 1.8398438,-1.75781252 0,-0.9257812 -0.6679688,-1.7460937 -1.6054688,-1.7460937 -0.3984375,0 -0.7734375,0.1289062 -1.078125,0.3984375 z m 0,0"
       style="fill:#000000;fill-opacity:1;fill-rule:nonzero;stroke:none"
       aria-label="25"
       transform="matrix(1.3333333,0,0,1.3333333,157.85951,175.32199)" />
    <path
       id="path11"
       d="M 153.94119,30.614173 V 137.76378"
       style="fill:none;stroke:#808080;stroke-width:0.2;stroke-linecap:butt;stroke-linejoin:round;stroke-miterlimit:10;stroke-dasharray:0.74, 0.32;stroke-dashoffset:0;stroke-opacity:0.7"
       transform="matrix(1.3333333,0,0,-1.3333333,0,204.09449)"
       clip-path="url(#clipPath12)" />
    <path
       id="path13"
       d="m 153.94119,30.614173 v 3.5"
       style="fill:#000000;fill-opacity:1;fill-rule:nonzero;stroke:#000000;stroke-width:0.5;stroke-linecap:butt;stroke-linejoin:round;stroke-miterlimit:10;stroke-dasharray:none;stroke-opacity:1"
       transform="matrix(1.3333333,0,0,-1.3333333,0,204.09449)" />
    <path
       id="path14"
       d="m 1.1133006,-4.4778228 c 0.1054688,0.035156 0.421875,0.1054688 0.7617188,0.1054688 0.9960937,0 1.59375,-0.6914063 1.59375,-0.8203125 0,-0.082031 -0.046875,-0.1054688 -0.09375,-0.1054688 -0.011719,0 -0.023437,0 -0.1054688,0.035156 -0.3046875,0.1171875 -0.6679687,0.2226562 -1.1015625,0.2226562 -0.46875,0 -0.8554687,-0.1289062 -1.1132812,-0.2226562 -0.0703125,-0.035156 -0.09375,-0.035156 -0.09375,-0.035156 -0.10546875,0 -0.10546875,0.082031 -0.10546875,0.234375 v 2.3320313 c 0,0.140625 0,0.234375 0.12890625,0.234375 0.0585937,0 0.0820312,-0.035156 0.1289062,-0.09375 0.09375,-0.1171875 0.3984375,-0.5273438 1.0664063,-0.5273438 0.4453125,0 0.6679687,0.3632813 0.7382812,0.515625 0.1289063,0.2929688 0.1523438,0.65625 0.1523438,0.9726563 0,0.2929687 -0.011719,0.71484372 -0.234375,1.06640622 -0.1523438,0.24609375 -0.46875,0.4921875 -0.890625,0.4921875 -0.515625,0 -1.03125,-0.328125 -1.20703125,-0.84375 0.0234375,0 0.0703125,0 0.0703125,0 0.22265625,0 0.39843745,-0.14062502 0.39843745,-0.38671872 0,-0.2929688 -0.2226562,-0.3984375 -0.3867187,-0.3984375 -0.140625,0 -0.3984375,0.082031 -0.3984375,0.421875 0,0.71484372 0.6210937,1.44140622 1.5351562,1.44140622 0.9960938,0 1.8398438,-0.7734375 1.8398438,-1.75781252 0,-0.9257812 -0.6679688,-1.7460937 -1.6054688,-1.7460937 -0.3984375,0 -0.7734375,0.1289062 -1.078125,0.3984375 z m 7.0224609,1.9335938 c 0,-0.8554688 -0.09375,-1.3710938 -0.3515625,-1.875 -0.3515625,-0.703125 -0.9960937,-0.8789063 -1.4414062,-0.8789063 -0.9960938,0 -1.3710938,0.75 -1.4765625,0.9726563 -0.2929688,0.5742187 -0.3046875,1.3710937 -0.3046875,1.78125 0,0.5273437 0.023437,1.3359375 0.4101562,1.96874997 0.3632813,0.5859375 0.9492188,0.73828125 1.3710938,0.73828125 0.3867187,0 1.0664062,-0.1171875 1.4648437,-0.90234375 C 8.1006053,-1.3137603 8.1357615,-2.028604 8.1357615,-2.544229 Z m -1.7929687,2.48437497 c -0.2695313,0 -0.8203125,-0.12890625 -0.984375,-0.96093747 -0.09375,-0.4570313 -0.09375,-1.2070313 -0.09375,-1.6171875 0,-0.5507813 0,-1.1132813 0.09375,-1.546875 0.1640625,-0.8085938 0.7851562,-0.890625 0.984375,-0.890625 0.2695312,0 0.8203125,0.1289062 0.984375,0.8554687 0.09375,0.4453125 0.09375,1.0429688 0.09375,1.5820313 0,0.46875 0,1.1835937 -0.09375,1.6289062 -0.1640625,0.84375002 -0.7148438,0.94921877 -0.984375,0.94921877 z m 0,0"
       style="fill:#000000;fill-opacity:1;fill-rule:nonzero;stroke:none"
       aria-label="50"
       transform="matrix(1.3333333,0,0,1.3333333,199.60935,175.32199)" />
    <path
       id="path15"
       d="M 185.25358,30.614173 V 137.76378"
       style="fill:none;stroke:#808080;stroke-width:0.2;stroke-linecap:butt;stroke-linejoin:round;stroke-miterlimit:10;stroke-dasharray:0.74, 0.32;stroke-dashoffset:0;stroke-opacity:0.7"
       transform="matrix(1.3333333,0,0,-1.3333333,0,204.09449)"
       clip-path="url(#clipPath16)" />
    <path
       id="path17"
       d="m 185.25358,30.614173 v 3.5"
       style="fill:#000000;fill-opacity:1;fill-rule:nonzero;stroke:#000000;stroke-width:0.5;stroke-linecap:butt;stroke-linejoin:round;stroke-miterlimit:10;stroke-dasharray:none;stroke-opacity:1"
       transform="matrix(1.3333333,0,0,-1.3333333,0,204.09449)" />
    <path
       id="path18"
       d="m 4.0313884,-4.8528228 c 0.070312,-0.09375 0.070312,-0.1054687 0.070312,-0.28125 H 2.0743571 c -0.1992187,0 -0.4453125,-0.011719 -0.6445312,-0.023437 -0.4101563,-0.035156 -0.421875,-0.1054687 -0.44531252,-0.234375 H 0.73841963 l -0.26953125,1.6875 H 0.71498213 C 0.73841963,-3.8215723 0.82045088,-4.3723535 0.93763838,-4.442666 1.0196696,-4.477822 1.6173259,-4.477822 1.7345134,-4.477822 h 1.6875 l -0.8203125,1.1015625 c -0.9023438,1.2070313 -1.0898438,2.46093752 -1.0898438,3.09375002 0,0.0820313 0,0.4453125 0.3632813,0.4453125 0.375,0 0.375,-0.3515625 0.375,-0.4453125 v -0.38671875 c 0,-1.14843747 0.1992187,-2.08593747 0.5859375,-2.60156247 z m 1.3154297,0.375 c 0.1054687,0.035156 0.421875,0.1054688 0.7617187,0.1054688 0.9960938,0 1.59375,-0.6914063 1.59375,-0.8203125 0,-0.082031 -0.046875,-0.1054688 -0.09375,-0.1054688 -0.011719,0 -0.023437,0 -0.1054687,0.035156 -0.3046875,0.1171875 -0.6679688,0.2226562 -1.1015625,0.2226562 -0.46875,0 -0.8554688,-0.1289062 -1.1132813,-0.2226562 -0.070312,-0.035156 -0.09375,-0.035156 -0.09375,-0.035156 -0.1054687,0 -0.1054687,0.082031 -0.1054687,0.234375 v 2.3320313 c 0,0.140625 0,0.234375 0.1289062,0.234375 0.058594,0 0.082031,-0.035156 0.1289063,-0.09375 0.09375,-0.1171875 0.3984375,-0.5273438 1.0664062,-0.5273438 0.4453125,0 0.6679688,0.3632813 0.7382813,0.515625 0.1289062,0.2929688 0.1523437,0.65625 0.1523437,0.9726563 0,0.2929687 -0.011719,0.71484372 -0.234375,1.06640622 -0.1523437,0.24609375 -0.46875,0.4921875 -0.890625,0.4921875 -0.515625,0 -1.03125,-0.328125 -1.2070312,-0.84375 0.023437,0 0.070312,0 0.070312,0 0.2226562,0 0.3984375,-0.14062502 0.3984375,-0.38671872 0,-0.2929688 -0.2226563,-0.3984375 -0.3867188,-0.3984375 -0.140625,0 -0.3984375,0.082031 -0.3984375,0.421875 0,0.71484372 0.6210938,1.44140622 1.5351563,1.44140622 0.9960937,0 1.8398437,-0.7734375 1.8398437,-1.75781252 0,-0.9257812 -0.6679687,-1.7460937 -1.6054687,-1.7460937 -0.3984375,0 -0.7734375,0.1289062 -1.078125,0.3984375 z m 0,0"
       style="fill:#000000;fill-opacity:1;fill-rule:nonzero;stroke:none"
       aria-label="75"
       transform="matrix(1.3333333,0,0,1.3333333,241.35919,175.32199)" />
    <path
       id="path19"
       d="M 216.56596,30.614173 V 137.76378"
       style="fill:none;stroke:#808080;stroke-width:0.2;stroke-linecap:butt;stroke-linejoin:round;stroke-miterlimit:10;stroke-dasharray:0.74, 0.32;stroke-dashoffset:0;stroke-opacity:0.7"
       transform="matrix(1.3333333,0,0,-1.3333333,0,204.09449)"
       clip-path="url(#clipPath20)" />
    <path
       id="path21"
       d="m 216.56596,30.614173 v 3.5"
       style="fill:#000000;fill-opacity:1;fill-rule:nonzero;stroke:#000000;stroke-width:0.5;stroke-linecap:butt;stroke-linejoin:round;stroke-miterlimit:10;stroke-dasharray:none;stroke-opacity:1"
       transform="matrix(1.3333333,0,0,-1.3333333,0,204.09449)" />
    <path
       id="path22"
       d="m 2.5069973,-5.075479 c 0,-0.2226563 -0.023437,-0.2226563 -0.234375,-0.2226563 -0.328125,0.3164063 -0.75,0.5039063 -1.51171879,0.5039063 v 0.2695312 c 0.22265625,0 0.64453129,0 1.11328129,-0.2226562 v 4.08984372 c 0,0.29296875 -0.023437,0.3984375 -0.7851563,0.3984375 H 0.80777851 v 0.2578125 c 0.32812499,-0.0234375 1.01953129,-0.0234375 1.37109379,-0.0234375 0.3632812,0 1.0546875,0 1.3828125,0.0234375 v -0.2578125 h -0.28125 c -0.75,0 -0.7734375,-0.10546875 -0.7734375,-0.3984375 z m 5.6279296,2.53125 c 0,-0.8554688 -0.09375,-1.3710938 -0.3515625,-1.875 -0.3515625,-0.703125 -0.9960937,-0.8789063 -1.4414062,-0.8789063 -0.9960938,0 -1.3710938,0.75 -1.4765625,0.9726563 -0.2929688,0.5742187 -0.3046875,1.3710937 -0.3046875,1.78125 0,0.5273437 0.023437,1.3359375 0.4101562,1.96874997 0.3632813,0.5859375 0.9492188,0.73828125 1.3710938,0.73828125 0.3867187,0 1.0664062,-0.1171875 1.4648437,-0.90234375 C 8.0997707,-1.3137603 8.1349269,-2.028604 8.1349269,-2.544229 Z m -1.7929687,2.48437497 c -0.2695313,0 -0.8203125,-0.12890625 -0.984375,-0.96093747 -0.09375,-0.4570313 -0.09375,-1.2070313 -0.09375,-1.6171875 0,-0.5507813 0,-1.1132813 0.09375,-1.546875 0.1640625,-0.8085938 0.7851562,-0.890625 0.984375,-0.890625 0.2695312,0 0.8203125,0.1289062 0.984375,0.8554687 0.09375,0.4453125 0.09375,1.0429688 0.09375,1.5820313 0,0.46875 0,1.1835937 -0.09375,1.6289062 -0.1640625,0.84375002 -0.7148438,0.94921877 -0.984375,0.94921877 z M 12.365396,-2.544229 c 0,-0.8554688 -0.09375,-1.3710938 -0.351563,-1.875 -0.351562,-0.703125 -0.996094,-0.8789063 -1.441406,-0.8789063 -0.9960938,0 -1.3710938,0.75 -1.4765626,0.9726563 -0.2929687,0.5742187 -0.3046875,1.3710937 -0.3046875,1.78125 0,0.5273437 0.023437,1.3359375 0.4101563,1.96874997 0.3632812,0.5859375 0.9492188,0.73828125 1.3710938,0.73828125 0.386719,0 1.066406,-0.1171875 1.464844,-0.90234375 0.292968,-0.57421877 0.328125,-1.28906247 0.328125,-1.80468747 z m -1.792969,2.48437497 c -0.269531,0 -0.8203126,-0.12890625 -0.9843751,-0.96093747 -0.09375,-0.4570313 -0.09375,-1.2070313 -0.09375,-1.6171875 0,-0.5507813 0,-1.1132813 0.09375,-1.546875 0.1640625,-0.8085938 0.7851561,-0.890625 0.9843751,-0.890625 0.269531,0 0.820312,0.1289062 0.984375,0.8554687 0.09375,0.4453125 0.09375,1.0429688 0.09375,1.5820313 0,0.46875 0,1.1835937 -0.09375,1.6289062 -0.164063,0.84375002 -0.714844,0.94921877 -0.984375,0.94921877 z m 0,0"
       style="fill:#000000;fill-opacity:1;fill-rule:nonzero;stroke:none"
       aria-label="100"
       transform="matrix(1.3333333,0,0,1.3333333,280.28624,175.32199)" />
    <path
       id="path23"
       d="M 247.87834,30.614173 V 137.76378"
       style="fill:none;stroke:#808080;stroke-width:0.2;stroke-linecap:butt;stroke-linejoin:round;stroke-miterlimit:10;stroke-dasharray:0.74, 0.32;stroke-dashoffset:0;stroke-opacity:0.7"
       transform="matrix(1.3333333,0,0,-1.3333333,0,204.09449)"
       clip-path="url(#clipPath24)" />
    <path
       id="path25"
       d="m 247.87834,30.614173 v 3.5"
       style="fill:#000000;fill-opacity:1;fill-rule:nonzero;stroke:#000000;stroke-width:0.5;stroke-linecap:butt;stroke-linejoin:round;stroke-miterlimit:10;stroke-dasharray:none;stroke-opacity:1"
       transform="matrix(1.3333333,0,0,-1.3333333,0,204.09449)" />
    <path
       id="path26"
       d="m 2.5071163,-5.075479 c 0,-0.2226563 -0.023437,-0.2226563 -0.234375,-0.2226563 -0.328125,0.3164063 -0.75,0.5039063 -1.51171877,0.5039063 v 0.2695312 c 0.22265625,0 0.64453127,0 1.11328127,-0.2226562 v 4.08984372 c 0,0.29296875 -0.023437,0.3984375 -0.7851563,0.3984375 H 0.80789753 v 0.2578125 c 0.32812497,-0.0234375 1.01953127,-0.0234375 1.37109377,-0.0234375 0.3632812,0 1.0546875,0 1.3828125,0.0234375 v -0.2578125 h -0.28125 c -0.75,0 -0.7734375,-0.10546875 -0.7734375,-0.3984375 z m 3.9755859,3.4453125 c 0.1289063,-0.1171875 0.4570313,-0.375 0.5859375,-0.4921875 0.4921875,-0.4570313 0.9609375,-0.890625 0.9609375,-1.6171875 0,-0.9492188 -0.796875,-1.5585938 -1.7929687,-1.5585938 -0.9492188,0 -1.5820313,0.7265625 -1.5820313,1.4296875 0,0.3984375 0.3164063,0.4453125 0.421875,0.4453125 0.1640625,0 0.4101563,-0.1171875 0.4101563,-0.421875 0,-0.4101562 -0.3984375,-0.4101562 -0.4921875,-0.4101562 0.234375,-0.5859375 0.7734375,-0.7851563 1.1601562,-0.7851563 0.7382813,0 1.125,0.6328125 1.125,1.3007813 0,0.8320312 -0.5859375,1.4296875 -1.5234375,2.4023437 l -1.0078125,1.03125002 c -0.09375,0.09375 -0.09375,0.10546875 -0.09375,0.3046875 H 7.806921 L 8.0295772,-1.4309478 H 7.7834835 c -0.023437,0.1640625 -0.082031,0.56250002 -0.1757813,0.71484377 -0.046875,0.0585938 -0.65625,0.0585938 -0.7851562,0.0585938 H 5.4045772 Z m 3.09375,-2.8476563 c 0.1054688,0.035156 0.421875,0.1054688 0.7617188,0.1054688 0.996094,0 1.59375,-0.6914063 1.59375,-0.8203125 0,-0.082031 -0.04687,-0.1054688 -0.09375,-0.1054688 -0.01172,0 -0.02344,0 -0.105469,0.035156 -0.304687,0.1171875 -0.667969,0.2226562 -1.101562,0.2226562 -0.46875,0 -0.855469,-0.1289062 -1.1132815,-0.2226562 -0.070312,-0.035156 -0.09375,-0.035156 -0.09375,-0.035156 -0.1054688,0 -0.1054688,0.082031 -0.1054688,0.234375 v 2.3320313 c 0,0.140625 0,0.234375 0.1289063,0.234375 0.058594,0 0.082031,-0.035156 0.1289062,-0.09375 0.09375,-0.1171875 0.3984375,-0.5273438 1.0664058,-0.5273438 0.445313,0 0.667969,0.3632813 0.738282,0.515625 0.128906,0.2929688 0.152343,0.65625 0.152343,0.9726563 0,0.2929687 -0.01172,0.71484372 -0.234375,1.06640622 -0.152343,0.24609375 -0.46875,0.4921875 -0.890625,0.4921875 -0.5156245,0 -1.0312495,-0.328125 -1.2070308,-0.84375 0.023437,0 0.070312,0 0.070312,0 0.2226563,0 0.3984375,-0.14062502 0.3984375,-0.38671872 0,-0.2929688 -0.2226562,-0.3984375 -0.3867187,-0.3984375 -0.140625,0 -0.3984375,0.082031 -0.3984375,0.421875 0,0.71484372 0.6210937,1.44140622 1.5351565,1.44140622 0.996094,0 1.839844,-0.7734375 1.839844,-1.75781252 0,-0.9257812 -0.667969,-1.7460937 -1.605469,-1.7460937 -0.398437,0 -0.7734378,0.1289062 -1.0781253,0.3984375 z m 0,0"
       style="fill:#000000;fill-opacity:1;fill-rule:nonzero;stroke:none"
       aria-label="125"
       transform="matrix(1.3333333,0,0,1.3333333,322.03608,175.32199)" />
    <path
       id="path27"
       d="M 279.19072,30.614173 V 137.76378"
       style="fill:none;stroke:#808080;stroke-width:0.2;stroke-linecap:butt;stroke-linejoin:round;stroke-miterlimit:10;stroke-dasharray:0.74, 0.32;stroke-dashoffset:0;stroke-opacity:0.7"
       transform="matrix(1.3333333,0,0,-1.3333333,0,204.09449)"
       clip-path="url(#clipPath28)" />
    <path
       id="path29"
       d="m 279.19072,30.614173 v 3.5"
       style="fill:#000000;fill-opacity:1;fill-rule:nonzero;stroke:#000000;stroke-width:0.5;stroke-linecap:butt;stroke-linejoin:round;stroke-miterlimit:10;stroke-dasharray:none;stroke-opacity:1"
       transform="matrix(1.3333333,0,0,-1.3333333,0,204.09449)" />
    <path
       id="path30"
       d="m 2.5072353,-5.075479 c 0,-0.2226563 -0.023437,-0.2226563 -0.234375,-0.2226563 -0.328125,0.3164063 -0.75,0.5039063 -1.51171874,0.5039063 v 0.2695312 c 0.22265625,0 0.64453124,0 1.11328124,-0.2226562 v 4.08984372 c 0,0.29296875 -0.023437,0.3984375 -0.7851562,0.3984375 H 0.80801656 v 0.2578125 c 0.32812504,-0.0234375 1.01953124,-0.0234375 1.37109374,-0.0234375 0.3632813,0 1.0546875,0 1.3828125,0.0234375 v -0.2578125 h -0.28125 c -0.75,0 -0.7734375,-0.10546875 -0.7734375,-0.3984375 z m 2.8388672,0.5976562 c 0.1054687,0.035156 0.421875,0.1054688 0.7617187,0.1054688 0.9960938,0 1.59375,-0.6914063 1.59375,-0.8203125 0,-0.082031 -0.046875,-0.1054688 -0.09375,-0.1054688 -0.011719,0 -0.023437,0 -0.1054687,0.035156 -0.3046875,0.1171875 -0.6679688,0.2226562 -1.1015625,0.2226562 -0.46875,0 -0.8554688,-0.1289062 -1.1132813,-0.2226562 -0.070312,-0.035156 -0.09375,-0.035156 -0.09375,-0.035156 -0.1054687,0 -0.1054687,0.082031 -0.1054687,0.234375 v 2.3320313 c 0,0.140625 0,0.234375 0.1289062,0.234375 0.058594,0 0.082031,-0.035156 0.1289063,-0.09375 0.09375,-0.1171875 0.3984375,-0.5273438 1.0664062,-0.5273438 0.4453125,0 0.6679688,0.3632813 0.7382813,0.515625 0.1289062,0.2929688 0.1523437,0.65625 0.1523437,0.9726563 0,0.2929687 -0.011719,0.71484372 -0.234375,1.06640622 -0.1523437,0.24609375 -0.46875,0.4921875 -0.890625,0.4921875 -0.515625,0 -1.03125,-0.328125 -1.2070312,-0.84375 0.023437,0 0.070312,0 0.070312,0 0.2226562,0 0.3984375,-0.14062502 0.3984375,-0.38671872 0,-0.2929688 -0.2226563,-0.3984375 -0.3867188,-0.3984375 -0.140625,0 -0.3984375,0.082031 -0.3984375,0.421875 0,0.71484372 0.6210938,1.44140622 1.5351563,1.44140622 0.9960937,0 1.8398437,-0.7734375 1.8398437,-1.75781252 0,-0.9257812 -0.6679687,-1.7460937 -1.6054687,-1.7460937 -0.3984375,0 -0.7734375,0.1289062 -1.078125,0.3984375 z m 7.0195315,1.9335938 c 0,-0.8554688 -0.09375,-1.3710938 -0.351563,-1.875 -0.351562,-0.703125 -0.996094,-0.8789063 -1.441406,-0.8789063 -0.9960938,0 -1.3710938,0.75 -1.4765625,0.9726563 -0.2929688,0.5742187 -0.3046875,1.3710937 -0.3046875,1.78125 0,0.5273437 0.023437,1.3359375 0.4101562,1.96874997 0.3632813,0.5859375 0.9492188,0.73828125 1.3710938,0.73828125 0.386719,0 1.066406,-0.1171875 1.464844,-0.90234375 0.292968,-0.57421877 0.328125,-1.28906247 0.328125,-1.80468747 z m -1.792969,2.48437497 c -0.269531,0 -0.8203125,-0.12890625 -0.984375,-0.96093747 -0.09375,-0.4570313 -0.09375,-1.2070313 -0.09375,-1.6171875 0,-0.5507813 0,-1.1132813 0.09375,-1.546875 0.1640625,-0.8085938 0.785156,-0.890625 0.984375,-0.890625 0.269531,0 0.820312,0.1289062 0.984375,0.8554687 0.09375,0.4453125 0.09375,1.0429688 0.09375,1.5820313 0,0.46875 0,1.1835937 -0.09375,1.6289062 -0.164063,0.84375002 -0.714844,0.94921877 -0.984375,0.94921877 z m 0,0"
       style="fill:#000000;fill-opacity:1;fill-rule:nonzero;stroke:none"
       aria-label="150"
       transform="matrix(1.3333333,0,0,1.3333333,363.78593,175.32199)" />
    <path
       id="path31"
       d="M 310.5031,30.614173 V 137.76378"
       style="fill:none;stroke:#808080;stroke-width:0.2;stroke-linecap:butt;stroke-linejoin:round;stroke-miterlimit:10;stroke-dasharray:0.74, 0.32;stroke-dashoffset:0;stroke-opacity:0.7"
       transform="matrix(1.3333333,0,0,-1.3333333,0,204.09449)"
       clip-path="url(#clipPath32)" />
    <path
       id="path33"
       d="m 310.5031,30.614173 v 3.5"
       style="fill:#000000;fill-opacity:1;fill-rule:nonzero;stroke:#000000;stroke-width:0.5;stroke-linecap:butt;stroke-linejoin:round;stroke-miterlimit:10;stroke-dasharray:none;stroke-opacity:1"
       transform="matrix(1.3333333,0,0,-1.3333333,0,204.09449)" />
    <path
       id="path34"
       d="m 2.5073543,-5.075479 c 0,-0.2226563 -0.023437,-0.2226563 -0.234375,-0.2226563 -0.328125,0.3164063 -0.75,0.5039063 -1.51171872,0.5039063 v 0.2695312 c 0.22265625,0 0.64453122,0 1.11328122,-0.2226562 v 4.08984372 c 0,0.29296875 -0.023437,0.3984375 -0.7851562,0.3984375 H 0.80813558 v 0.2578125 c 0.32812502,-0.0234375 1.01953122,-0.0234375 1.37109372,-0.0234375 0.3632813,0 1.0546875,0 1.3828125,0.0234375 v -0.2578125 h -0.28125 c -0.75,0 -0.7734375,-0.10546875 -0.7734375,-0.3984375 z m 5.756836,0.2226562 c 0.070312,-0.09375 0.070312,-0.1054687 0.070312,-0.28125 H 6.307159 c -0.1992187,0 -0.4453125,-0.011719 -0.6445312,-0.023437 -0.4101563,-0.035156 -0.421875,-0.1054687 -0.4453125,-0.234375 H 4.9712215 l -0.2695312,1.6875 H 4.947784 c 0.023437,-0.1171875 0.1054688,-0.6679687 0.2226563,-0.7382812 0.082031,-0.035156 0.6796875,-0.035156 0.796875,-0.035156 h 1.6875 L 6.8345028,-3.3762603 C 5.932159,-2.169229 5.744659,-0.91532278 5.744659,-0.28251028 c 0,0.0820313 0,0.4453125 0.3632813,0.4453125 0.375,0 0.375,-0.3515625 0.375,-0.4453125 v -0.38671875 c 0,-1.14843747 0.1992187,-2.08593747 0.5859375,-2.60156247 z m 1.3125,0.375 c 0.1054687,0.035156 0.421875,0.1054688 0.7617187,0.1054688 0.996094,0 1.59375,-0.6914063 1.59375,-0.8203125 0,-0.082031 -0.04687,-0.1054688 -0.09375,-0.1054688 -0.01172,0 -0.02344,0 -0.105469,0.035156 -0.304687,0.1171875 -0.667968,0.2226562 -1.101562,0.2226562 -0.46875,0 -0.855469,-0.1289062 -1.1132815,-0.2226562 -0.070312,-0.035156 -0.09375,-0.035156 -0.09375,-0.035156 -0.1054687,0 -0.1054687,0.082031 -0.1054687,0.234375 v 2.3320313 c 0,0.140625 0,0.234375 0.1289062,0.234375 0.058594,0 0.082031,-0.035156 0.1289063,-0.09375 0.09375,-0.1171875 0.3984375,-0.5273438 1.0664067,-0.5273438 0.445312,0 0.667968,0.3632813 0.738281,0.515625 0.128906,0.2929688 0.152344,0.65625 0.152344,0.9726563 0,0.2929687 -0.01172,0.71484372 -0.234375,1.06640622 -0.152344,0.24609375 -0.46875,0.4921875 -0.890625,0.4921875 -0.5156255,0 -1.0312505,-0.328125 -1.2070317,-0.84375 0.023437,0 0.070312,0 0.070312,0 0.2226562,0 0.3984375,-0.14062502 0.3984375,-0.38671872 0,-0.2929688 -0.2226563,-0.3984375 -0.3867188,-0.3984375 -0.140625,0 -0.3984375,0.082031 -0.3984375,0.421875 0,0.71484372 0.6210938,1.44140622 1.5351565,1.44140622 0.996094,0 1.839844,-0.7734375 1.839844,-1.75781252 0,-0.9257812 -0.667969,-1.7460937 -1.605469,-1.7460937 -0.398437,0 -0.7734377,0.1289062 -1.0781252,0.3984375 z m 0,0"
       style="fill:#000000;fill-opacity:1;fill-rule:nonzero;stroke:none"
       aria-label="175"
       transform="matrix(1.3333333,0,0,1.3333333,405.53577,175.32199)" />
    <path
       id="path35"
       d="M 341.81548,30.614173 V 137.76378"
       style="fill:none;stroke:#808080;stroke-width:0.2;stroke-linecap:butt;stroke-linejoin:round;stroke-miterlimit:10;stroke-dasharray:0.74, 0.32;stroke-dashoffset:0;stroke-opacity:0.7"
       transform="matrix(1.3333333,0,0,-1.3333333,0,204.09449)"
       clip-path="url(#clipPath36)" />
    <path
       id="path37"
       d="m 341.81548,30.614173 v 3.5"
       style="fill:#000000;fill-opacity:1;fill-rule:nonzero;stroke:#000000;stroke-width:0.5;stroke-linecap:butt;stroke-linejoin:round;stroke-miterlimit:10;stroke-dasharray:none;stroke-opacity:1"
       transform="matrix(1.3333333,0,0,-1.3333333,0,204.09449)" />
    <path
       id="path38"
       d="m 2.2496608,-1.6301665 c 0.1289063,-0.1171875 0.4570313,-0.375 0.5859375,-0.4921875 0.4921875,-0.4570313 0.9609375,-0.890625 0.9609375,-1.6171875 0,-0.9492188 -0.796875,-1.5585938 -1.7929687,-1.5585938 -0.9492188,0 -1.58203125,0.7265625 -1.58203125,1.4296875 0,0.3984375 0.31640625,0.4453125 0.421875,0.4453125 0.16406245,0 0.41015625,-0.1171875 0.41015625,-0.421875 0,-0.4101562 -0.3984375,-0.4101562 -0.4921875,-0.4101562 0.234375,-0.5859375 0.7734375,-0.7851563 1.1601562,-0.7851563 0.7382813,0 1.125,0.6328125 1.125,1.3007813 0,0.8320312 -0.5859375,1.4296875 -1.5234375,2.4023437 l -1.00781245,1.03125002 c -0.09375,0.09375 -0.09375,0.10546875 -0.09375,0.3046875 H 3.5738796 L 3.7965358,-1.4309478 H 3.5504421 c -0.023437,0.1640625 -0.082031,0.56250002 -0.1757813,0.71484377 -0.046875,0.0585938 -0.65625,0.0585938 -0.7851562,0.0585938 H 1.1715358 Z M 8.135403,-2.544229 c 0,-0.8554688 -0.09375,-1.3710938 -0.3515625,-1.875 -0.3515625,-0.703125 -0.9960937,-0.8789063 -1.4414062,-0.8789063 -0.9960938,0 -1.3710938,0.75 -1.4765625,0.9726563 -0.2929688,0.5742187 -0.3046875,1.3710937 -0.3046875,1.78125 0,0.5273437 0.023437,1.3359375 0.4101562,1.96874997 0.3632813,0.5859375 0.9492188,0.73828125 1.3710938,0.73828125 0.3867187,0 1.0664062,-0.1171875 1.4648437,-0.90234375 C 8.1002468,-1.3137603 8.135403,-2.028604 8.135403,-2.544229 Z m -1.7929687,2.48437497 c -0.2695313,0 -0.8203125,-0.12890625 -0.984375,-0.96093747 -0.09375,-0.4570313 -0.09375,-1.2070313 -0.09375,-1.6171875 0,-0.5507813 0,-1.1132813 0.09375,-1.546875 0.1640625,-0.8085938 0.7851562,-0.890625 0.984375,-0.890625 0.2695312,0 0.8203125,0.1289062 0.984375,0.8554687 0.09375,0.4453125 0.09375,1.0429688 0.09375,1.5820313 0,0.46875 0,1.1835937 -0.09375,1.6289062 -0.1640625,0.84375002 -0.7148438,0.94921877 -0.984375,0.94921877 z M 12.365872,-2.544229 c 0,-0.8554688 -0.09375,-1.3710938 -0.351563,-1.875 -0.351562,-0.703125 -0.996093,-0.8789063 -1.441406,-0.8789063 -0.9960937,0 -1.3710937,0.75 -1.4765625,0.9726563 -0.2929687,0.5742187 -0.3046875,1.3710937 -0.3046875,1.78125 0,0.5273437 0.023437,1.3359375 0.4101563,1.96874997 0.3632812,0.5859375 0.9492187,0.73828125 1.3710937,0.73828125 0.386719,0 1.066406,-0.1171875 1.464844,-0.90234375 0.292969,-0.57421877 0.328125,-1.28906247 0.328125,-1.80468747 z m -1.792969,2.48437497 c -0.269531,0 -0.8203125,-0.12890625 -0.984375,-0.96093747 -0.09375,-0.4570313 -0.09375,-1.2070313 -0.09375,-1.6171875 0,-0.5507813 0,-1.1132813 0.09375,-1.546875 0.1640625,-0.8085938 0.785156,-0.890625 0.984375,-0.890625 0.269531,0 0.820313,0.1289062 0.984375,0.8554687 0.09375,0.4453125 0.09375,1.0429688 0.09375,1.5820313 0,0.46875 0,1.1835937 -0.09375,1.6289062 -0.164062,0.84375002 -0.714844,0.94921877 -0.984375,0.94921877 z m 0,0"
       style="fill:#000000;fill-opacity:1;fill-rule:nonzero;stroke:none"
       aria-label="200"
       transform="matrix(1.3333333,0,0,1.3333333,447.28561,175.32199)" />
    <g
       id="g38"
       aria-label="w&#10;V10&#10;[mm]"
       transform="matrix(1.3333333,0,0,1.3333333,259.38791,192.68429)">
      <path
         id="path39"
         d="m 4.6045736,-3.3755251 c 0.046875,-0.2226563 0.140625,-0.5859375 0.140625,-0.6445313 0,-0.1875 -0.1289063,-0.2695312 -0.28125,-0.2695312 -0.1171875,0 -0.3046875,0.070312 -0.375,0.2695312 -0.023437,0.070312 -0.4921875,1.9804688 -0.5625,2.2382813 -0.070312,0.2929687 -0.09375,0.4804687 -0.09375,0.65625 0,0.1054687 0,0.12890623 0.011719,0.17578123 -0.2226562,0.52734375 -0.5273437,0.84375 -0.9140625,0.84375 -0.796875,0 -0.796875,-0.73828125 -0.796875,-0.91406253 0,-0.3164062 0.046875,-0.703125 0.515625,-1.9335937 0.1054688,-0.2929688 0.1757813,-0.4335938 0.1757813,-0.6328125 0,-0.4453125 -0.328125,-0.8203125 -0.8203125,-0.8203125 -0.94921876,0 -1.31250001,1.453125 -1.31250001,1.5351562 0,0.1054688 0.09375,0.1054688 0.1171875,0.1054688 0.09375,0 0.10546875,-0.023437 0.15234375,-0.1875 0.26953125,-0.9257813 0.66796876,-1.2304688 1.00781246,-1.2304688 0.09375,0 0.2578125,0.011719 0.2578125,0.328125 0,0.2460938 -0.1171875,0.5273438 -0.1875,0.703125 -0.4335937,1.171875 -0.5507812,1.6289063 -0.5507812,2.0039063 0,0.91406248 0.6679687,1.25390623 1.40625,1.25390623 0.1757812,0 0.6445312,0 1.0429687,-0.69140625 0.2578125,0.6328125 0.9492188,0.69140625 1.2421875,0.69140625 0.75,0 1.1835938,-0.62109375 1.4414063,-1.21875003 0.3398437,-0.7851562 0.65625,-2.109375 0.65625,-2.5898437 0,-0.5507813 -0.2695313,-0.703125 -0.4335938,-0.703125 -0.2460937,0 -0.5039062,0.2578125 -0.5039062,0.4804687 0,0.1289063 0.070312,0.1875 0.1523437,0.2695313 0.1171875,0.1054687 0.3632813,0.3632812 0.3632813,0.84375 0,0.3398437 -0.2929688,1.3125 -0.5507813,1.82812498 -0.2578125,0.52734375 -0.609375,0.87890625 -1.0898437,0.87890625 -0.46875,0 -0.7382813,-0.3046875 -0.7382813,-0.8671875 0,-0.28125003 0.070312,-0.58593753 0.1054688,-0.72656253 z m 0,0"
         style="fill:#000000;fill-opacity:1;fill-rule:nonzero;stroke:none" />
      <path
         id="path40"
         d="m 12.113363,-2.4438845 c 0.257812,-0.375 0.480468,-0.5507812 0.867187,-0.5742187 0.08203,-0.011719 0.152344,-0.011719 0.152344,-0.1523438 0,-0.023437 -0.01172,-0.09375 -0.09375,-0.09375 -0.164063,0 -0.386719,0.023437 -0.5625,0.023437 -0.222656,0 -0.515625,-0.023437 -0.726563,-0.023437 -0.05859,0 -0.128906,0.011719 -0.128906,0.1523438 0,0.082031 0.09375,0.09375 0.117188,0.09375 0.222656,0.011719 0.292968,0.09375 0.292968,0.1992187 0,0.1054688 -0.04687,0.1757813 -0.128906,0.28125 l -2.2851561,3.375 -0.6328125,-3.5625 c -0.023437,-0.058594 -0.023437,-0.082031 -0.023437,-0.1054687 0,-0.1875 0.3984375,-0.1875 0.4453125,-0.1875 0.1171875,0 0.2109375,0 0.2109375,-0.1523438 0,-0.011719 -0.011719,-0.09375 -0.1171875,-0.09375 -0.2109375,0 -0.703125,0.023437 -0.9023437,0.023437 -0.1757813,0 -0.5976563,-0.023437 -0.7734375,-0.023437 -0.058594,0 -0.140625,0.011719 -0.140625,0.1523438 0,0.09375 0.09375,0.09375 0.1757812,0.09375 0.3867188,0 0.3984375,0.046875 0.4335938,0.2226562 l 0.7617187,4.2421875 c 0.023437,0.140625 0.035156,0.1875 0.1640625,0.1875 0.1289063,0 0.1640625,-0.046875 0.234375,-0.1523437 z m 0,0"
         style="fill:#000000;fill-opacity:1;fill-rule:nonzero;stroke:none" />
      <path
         id="path41"
         d="m 15.88387,-2.936072 c 0,-0.1875 -0.01172,-0.1992187 -0.210937,-0.1992187 -0.445313,0.4335937 -1.078125,0.4453125 -1.359375,0.4453125 v 0.2460937 c 0.164062,0 0.621094,0 1.007812,-0.1875 v 3.55078125 c 0,0.23437505 0,0.32812505 -0.691406,0.32812505 h -0.269531 v 0.2460937 c 0.128906,-0.011719 0.984375,-0.023437 1.242187,-0.023437 0.210938,0 1.089844,0.011719 1.242188,0.023437 V 1.2475218 h -0.257813 c -0.703125,0 -0.703125,-0.09375 -0.703125,-0.32812505 z m 5.235352,2.203125 c 0,-0.7617187 -0.09375,-1.3125 -0.410156,-1.8046875 -0.222656,-0.3164062 -0.644531,-0.5976562 -1.207031,-0.5976562 -1.617188,0 -1.617188,1.8984375 -1.617188,2.4023437 0,0.50390625 0,2.3671875 1.617188,2.3671875 1.617187,0 1.617187,-1.86328125 1.617187,-2.3671875 z m -1.617187,2.1679688 c -0.316407,0 -0.75,-0.1875 -0.890625,-0.7617188 -0.09375,-0.41015625 -0.09375,-0.984375 -0.09375,-1.5 0,-0.5039062 0,-1.03125 0.105468,-1.4179687 0.152344,-0.5507813 0.597657,-0.6914063 0.878907,-0.6914063 0.375,0 0.738281,0.2226563 0.867187,0.6328125 0.105469,0.375 0.117188,0.8789063 0.117188,1.4765625 0,0.515625 0,1.04296875 -0.09375,1.4765625 -0.140625,0.6328125 -0.609375,0.7851563 -0.890625,0.7851563 z m 0,0"
         style="fill:#000000;fill-opacity:1;fill-rule:nonzero;stroke:none" />
      <path
         id="path42"
         d="M 27.857503,2.4955686 V 2.0971311 h -0.972656 v -9.1757812 h 0.972656 V -7.4770876 H 26.48641 v 9.9726562 z m 1.31836,-5.9179687 v 2.66015623 c 0,0.45703125 -0.117188,0.45703125 -0.785157,0.45703125 v 0.3046874954 c 0.351563,-0.0117187454 0.855469,-0.0351562454 1.125,-0.0351562454 0.257813,0 0.785157,0.0234375 1.113282,0.0351562454 V -0.30521262 c -0.65625,0 -0.773438,0 -0.773438,-0.45703125 V -2.5903689 c 0,-1.03125 0.714844,-1.59375 1.347656,-1.59375 0.621094,0 0.738282,0.5390625 0.738282,1.1015625 v 2.32031253 c 0,0.45703125 -0.117188,0.45703125 -0.773438,0.45703125 v 0.3046874954 c 0.339844,-0.0117187454 0.855469,-0.0351562454 1.125,-0.0351562454 0.257813,0 0.773438,0.0234375 1.113281,0.0351562454 V -0.30521262 c -0.667968,0 -0.785156,0 -0.785156,-0.45703125 V -2.5903689 c 0,-1.03125 0.714844,-1.59375 1.347656,-1.59375 0.632813,0 0.738282,0.5390625 0.738282,1.1015625 v 2.32031253 c 0,0.45703125 -0.105469,0.45703125 -0.773438,0.45703125 v 0.3046874954 c 0.351563,-0.0117187454 0.855469,-0.0351562454 1.125,-0.0351562454 0.257813,0 0.773438,0.0234375 1.113281,0.0351562454 V -0.30521262 c -0.515625,0 -0.761718,0 -0.773437,-0.3046875 V -2.5083376 c 0,-0.8554688 0,-1.171875 -0.316406,-1.5234375 -0.128907,-0.1757813 -0.46875,-0.375 -1.042969,-0.375 -0.832031,0 -1.277344,0.5976562 -1.441406,0.984375 -0.140625,-0.8671875 -0.878907,-0.984375 -1.324219,-0.984375 -0.726563,0 -1.195313,0.4335937 -1.476563,1.0546875 v -1.0546875 l -1.40625,0.1171875 v 0.3046875 c 0.703125,0 0.785157,0.070312 0.785157,0.5625 z m 8.299804,0 v 2.66015623 c 0,0.45703125 -0.117187,0.45703125 -0.785156,0.45703125 v 0.3046874954 c 0.351563,-0.0117187454 0.855469,-0.0351562454 1.125,-0.0351562454 0.257813,0 0.785156,0.0234375 1.113281,0.0351562454 V -0.30521262 c -0.65625,0 -0.773437,0 -0.773437,-0.45703125 V -2.5903689 c 0,-1.03125 0.714844,-1.59375 1.347656,-1.59375 0.621094,0 0.738281,0.5390625 0.738281,1.1015625 v 2.32031253 c 0,0.45703125 -0.117187,0.45703125 -0.773437,0.45703125 v 0.3046874954 c 0.339844,-0.0117187454 0.855469,-0.0351562454 1.125,-0.0351562454 0.257812,0 0.773437,0.0234375 1.113281,0.0351562454 V -0.30521262 c -0.667969,0 -0.785156,0 -0.785156,-0.45703125 V -2.5903689 c 0,-1.03125 0.714844,-1.59375 1.347656,-1.59375 0.632813,0 0.738281,0.5390625 0.738281,1.1015625 v 2.32031253 c 0,0.45703125 -0.105468,0.45703125 -0.773437,0.45703125 v 0.3046874954 c 0.351562,-0.0117187454 0.855469,-0.0351562454 1.125,-0.0351562454 0.257812,0 0.773437,0.0234375 1.113281,0.0351562454 V -0.30521262 c -0.515625,0 -0.761719,0 -0.773437,-0.3046875 V -2.5083376 c 0,-0.8554688 0,-1.171875 -0.316407,-1.5234375 -0.128906,-0.1757813 -0.46875,-0.375 -1.042968,-0.375 -0.832032,0 -1.277344,0.5976562 -1.441407,0.984375 -0.140625,-0.8671875 -0.878906,-0.984375 -1.324218,-0.984375 -0.726563,0 -1.195313,0.4335937 -1.476563,1.0546875 v -1.0546875 l -1.40625,0.1171875 v 0.3046875 c 0.703125,0 0.785156,0.070312 0.785156,0.5625 z m 8.777344,-4.0546875 h -1.359375 v 0.3984375 h 0.960938 v 9.1757812 h -0.960938 v 0.3984375 h 1.359375 z m 0,0"
         style="fill:#000000;fill-opacity:1;fill-rule:nonzero;stroke:none" />
    </g>
    <path
       id="path43"
       d="M 79.370079,35.75444 H 357.16535"
       style="fill:none;stroke:#808080;stroke-width:0.2;stroke-linecap:butt;stroke-linejoin:round;stroke-miterlimit:10;stroke-dasharray:0.74, 0.32;stroke-dashoffset:0;stroke-opacity:0.7"
       transform="matrix(1.3333333,0,0,-1.3333333,0,204.09449)"
       clip-path="url(#clipPath44)" />
    <path
       id="path45"
       d="m 79.370079,35.75444 h 3.5"
       style="fill:#000000;fill-opacity:1;fill-rule:nonzero;stroke:#000000;stroke-width:0.5;stroke-linecap:butt;stroke-linejoin:round;stroke-miterlimit:10;stroke-dasharray:none;stroke-opacity:1"
       transform="matrix(1.3333333,0,0,-1.3333333,0,204.09449)" />
    <g
       id="g45"
       aria-label="0.0"
       transform="matrix(1.3333333,0,0,1.3333333,86.732519,160.11177)">
      <path
         id="path46"
         d="m 3.9037358,-2.5418347 c 0,-0.8554687 -0.09375,-1.3710937 -0.3515625,-1.875 -0.3515625,-0.703125 -0.9960938,-0.8789062 -1.4414063,-0.8789062 -0.9960937,0 -1.37109374,0.75 -1.47656249,0.9726562 -0.29296875,0.5742188 -0.3046875,1.3710938 -0.3046875,1.78125 0,0.5273438 0.0234375,1.3359375 0.41015625,1.96875004 0.36328124,0.5859375 0.94921874,0.73828125 1.37109374,0.73828125 0.3867188,0 1.0664063,-0.1171875 1.4648438,-0.90234375 0.2929687,-0.57421874 0.328125,-1.28906254 0.328125,-1.80468754 z M 2.110767,-0.05745966 c -0.2695312,0 -0.8203125,-0.12890625 -0.984375,-0.96093754 -0.09375,-0.4570312 -0.09375,-1.2070312 -0.09375,-1.6171875 0,-0.5507812 0,-1.1132812 0.09375,-1.546875 0.1640625,-0.8085937 0.7851563,-0.890625 0.984375,-0.890625 0.2695313,0 0.8203125,0.1289063 0.984375,0.8554688 0.09375,0.4453125 0.09375,1.0429687 0.09375,1.5820312 0,0.46875 0,1.1835938 -0.09375,1.6289063 -0.1640625,0.84374999 -0.7148437,0.94921874 -0.984375,0.94921874 z m 0,0"
         style="fill:#000000;fill-opacity:1;fill-rule:nonzero;stroke:none" />
      <path
         id="path47"
         d="m 5.851978,-0.43245966 c 0,-0.28125 -0.2226563,-0.4453125 -0.4335938,-0.4453125 -0.2578125,0 -0.4453125,0.19921875 -0.4453125,0.43359375 0,0.26953125 0.2226563,0.4453125 0.4335938,0.4453125 0.2578125,0 0.4453125,-0.2109375 0.4453125,-0.43359375 z m 0,0"
         style="fill:#000000;fill-opacity:1;fill-rule:nonzero;stroke:none" />
      <path
         id="path48"
         d="m 10.489673,-2.5418347 c 0,-0.8554687 -0.09375,-1.3710937 -0.351562,-1.875 -0.3515627,-0.703125 -0.996094,-0.8789062 -1.4414065,-0.8789062 -0.9960937,0 -1.3710937,0.75 -1.4765625,0.9726562 -0.2929687,0.5742188 -0.3046875,1.3710938 -0.3046875,1.78125 0,0.5273438 0.023437,1.3359375 0.4101563,1.96875004 0.3632812,0.5859375 0.9492187,0.73828125 1.3710937,0.73828125 0.3867188,0 1.0664063,-0.1171875 1.4648435,-0.90234375 0.292969,-0.57421874 0.328125,-1.28906254 0.328125,-1.80468754 z m -1.7929685,2.48437504 c -0.2695312,0 -0.8203125,-0.12890625 -0.984375,-0.96093754 -0.09375,-0.4570312 -0.09375,-1.2070312 -0.09375,-1.6171875 0,-0.5507812 0,-1.1132812 0.09375,-1.546875 0.1640625,-0.8085937 0.7851563,-0.890625 0.984375,-0.890625 0.2695313,0 0.8203125,0.1289063 0.984375,0.8554688 0.09375,0.4453125 0.09375,1.0429687 0.09375,1.5820312 0,0.46875 0,1.1835938 -0.09375,1.6289063 -0.1640625,0.84374999 -0.7148437,0.94921874 -0.984375,0.94921874 z m 0,0"
         style="fill:#000000;fill-opacity:1;fill-rule:nonzero;stroke:none" />
    </g>
    <path
       id="path49"
       d="M 79.370079,55.570776 H 357.16535"
       style="fill:none;stroke:#808080;stroke-width:0.2;stroke-linecap:butt;stroke-linejoin:round;stroke-miterlimit:10;stroke-dasharray:0.74, 0.32;stroke-dashoffset:0;stroke-opacity:0.7"
       transform="matrix(1.3333333,0,0,-1.3333333,0,204.09449)"
       clip-path="url(#clipPath50)" />
    <path
       id="path51"
       d="m 79.370079,55.570776 h 3.5"
       style="fill:#000000;fill-opacity:1;fill-rule:nonzero;stroke:#000000;stroke-width:0.5;stroke-linecap:butt;stroke-linejoin:round;stroke-miterlimit:10;stroke-dasharray:none;stroke-opacity:1"
       transform="matrix(1.3333333,0,0,-1.3333333,0,204.09449)" />
    <g
       id="g51"
       aria-label="0.2"
       transform="matrix(1.3333333,0,0,1.3333333,86.732519,133.68999)">
      <path
         id="path52"
         d="m 3.9037358,-2.5419048 c 0,-0.8554687 -0.09375,-1.3710937 -0.3515625,-1.875 C 3.2006108,-5.1200298 2.5560795,-5.295811 2.110767,-5.295811 c -0.9960937,0 -1.37109374,0.75 -1.47656249,0.9726562 -0.29296875,0.5742188 -0.3046875,1.3710938 -0.3046875,1.78125 0,0.5273438 0.0234375,1.3359375 0.41015625,1.96875004 0.36328124,0.5859375 0.94921874,0.73828125 1.37109374,0.73828125 0.3867188,0 1.0664063,-0.1171875 1.4648438,-0.90234375 C 3.8685795,-1.311436 3.9037358,-2.0262798 3.9037358,-2.5419048 Z M 2.110767,-0.05752976 c -0.2695312,0 -0.8203125,-0.12890625 -0.984375,-0.96093754 -0.09375,-0.4570312 -0.09375,-1.2070312 -0.09375,-1.6171875 0,-0.5507812 0,-1.1132812 0.09375,-1.546875 0.1640625,-0.8085937 0.7851563,-0.890625 0.984375,-0.890625 0.2695313,0 0.8203125,0.1289063 0.984375,0.8554688 0.09375,0.4453125 0.09375,1.0429687 0.09375,1.5820312 0,0.46875 0,1.1835938 -0.09375,1.6289063 -0.1640625,0.84374999 -0.7148437,0.94921874 -0.984375,0.94921874 z m 0,0"
         style="fill:#000000;fill-opacity:1;fill-rule:nonzero;stroke:none" />
      <path
         id="path53"
         d="m 5.851978,-0.43252976 c 0,-0.28125 -0.2226563,-0.4453125 -0.4335938,-0.4453125 -0.2578125,0 -0.4453125,0.19921875 -0.4453125,0.43359375 0,0.26953125 0.2226563,0.4453125 0.4335938,0.4453125 0.2578125,0 0.4453125,-0.2109375 0.4453125,-0.43359375 z m 0,0"
         style="fill:#000000;fill-opacity:1;fill-rule:nonzero;stroke:none" />
      <path
         id="path54"
         d="m 8.8373295,-1.6278423 c 0.1289063,-0.1171875 0.4570313,-0.375 0.5859375,-0.4921875 0.4921875,-0.4570312 0.960938,-0.890625 0.960938,-1.6171875 0,-0.9492187 -0.7968755,-1.5585937 -1.7929692,-1.5585937 -0.9492188,0 -1.5820313,0.7265625 -1.5820313,1.4296875 0,0.3984375 0.3164063,0.4453125 0.421875,0.4453125 0.1640625,0 0.4101563,-0.1171875 0.4101563,-0.421875 0,-0.4101563 -0.3984375,-0.4101563 -0.4921875,-0.4101563 0.234375,-0.5859375 0.7734375,-0.7851562 1.1601562,-0.7851562 0.7382813,0 1.125,0.6328125 1.125,1.3007812 0,0.8320313 -0.5859375,1.4296875 -1.5234375,2.4023438 l -1.0078125,1.03124999 c -0.09375,0.09375 -0.09375,0.10546875 -0.09375,0.3046875 h 3.1523435 l 0.222657,-1.42968749 h -0.246094 c -0.02344,0.1640625 -0.08203,0.56249999 -0.1757815,0.71484374 -0.046875,0.0585938 -0.65625,0.0585938 -0.7851562,0.0585938 H 7.7592045 Z m 0,0"
         style="fill:#000000;fill-opacity:1;fill-rule:nonzero;stroke:none" />
    </g>
    <path
       id="path55"
       d="M 79.370079,75.387112 H 357.16535"
       style="fill:none;stroke:#808080;stroke-width:0.2;stroke-linecap:butt;stroke-linejoin:round;stroke-miterlimit:10;stroke-dasharray:0.74, 0.32;stroke-dashoffset:0;stroke-opacity:0.7"
       transform="matrix(1.3333333,0,0,-1.3333333,0,204.09449)"
       clip-path="url(#clipPath56)" />
    <path
       id="path57"
       d="m 79.370079,75.387112 h 3.5"
       style="fill:#000000;fill-opacity:1;fill-rule:nonzero;stroke:#000000;stroke-width:0.5;stroke-linecap:butt;stroke-linejoin:round;stroke-miterlimit:10;stroke-dasharray:none;stroke-opacity:1"
       transform="matrix(1.3333333,0,0,-1.3333333,0,204.09449)" />
    <g
       id="g57"
       aria-label="0.4"
       transform="matrix(1.3333333,0,0,1.3333333,86.732519,107.26821)">
      <path
         id="path58"
         d="m 3.9037358,-2.5419749 c 0,-0.8554687 -0.09375,-1.3710937 -0.3515625,-1.875 -0.3515625,-0.703125 -0.9960938,-0.8789062 -1.4414063,-0.8789062 -0.9960937,0 -1.37109374,0.75 -1.47656249,0.9726562 -0.29296875,0.5742188 -0.3046875,1.3710938 -0.3046875,1.78125 0,0.5273438 0.0234375,1.3359375 0.41015625,1.96875004 0.36328124,0.5859375 0.94921874,0.73828125 1.37109374,0.73828125 0.3867188,0 1.0664063,-0.1171875 1.4648438,-0.90234375 0.2929687,-0.57421874 0.328125,-1.28906254 0.328125,-1.80468754 z M 2.110767,-0.05759986 c -0.2695312,0 -0.8203125,-0.12890625 -0.984375,-0.96093754 -0.09375,-0.4570312 -0.09375,-1.2070312 -0.09375,-1.6171875 0,-0.5507812 0,-1.1132812 0.09375,-1.546875 0.1640625,-0.8085937 0.7851563,-0.890625 0.984375,-0.890625 0.2695313,0 0.8203125,0.1289063 0.984375,0.8554688 0.09375,0.4453125 0.09375,1.0429687 0.09375,1.5820312 0,0.46875 0,1.1835938 -0.09375,1.6289063 -0.1640625,0.84374999 -0.7148437,0.94921874 -0.984375,0.94921874 z m 0,0"
         style="fill:#000000;fill-opacity:1;fill-rule:nonzero;stroke:none" />
      <path
         id="path59"
         d="m 5.851978,-0.43259986 c 0,-0.28125 -0.2226563,-0.4453125 -0.4335938,-0.4453125 -0.2578125,0 -0.4453125,0.19921875 -0.4453125,0.43359375 0,0.26953125 0.2226563,0.4453125045 0.4335938,0.4453125045 0.2578125,0 0.4453125,-0.2109375045 0.4453125,-0.4335937545 z m 0,0"
         style="fill:#000000;fill-opacity:1;fill-rule:nonzero;stroke:none" />
      <path
         id="path60"
         d="m 9.7279545,-5.1552561 c 0,-0.1640625 0,-0.2226563 -0.1640625,-0.2226563 -0.1054687,0 -0.1171875,0.011719 -0.1992187,0.1171875 l -2.5429688,3.6914063 v 0.2578125 h 2.25 v 0.66796874 c 0,0.29296875 -0.023437,0.38671875 -0.6328125,0.38671875 h -0.1875 V 9.938945e-4 C 8.9310795,-0.02244361 8.9427983,-0.02244361 9.3998295,-0.02244361 c 0.4570313,0 0.46875,0 1.1484375,0.0234375045 V -0.25681861 h -0.1875 c -0.609375,0 -0.6328125,-0.09375 -0.6328125,-0.38671875 V -1.3115061 H 10.571705 V -1.5693186 H 9.7279545 Z m -0.5976562,0.6445312 v 2.9414063 H 7.1029545 Z m 0,0"
         style="fill:#000000;fill-opacity:1;fill-rule:nonzero;stroke:none" />
    </g>
    <path
       id="path61"
       d="M 79.370079,95.203449 H 357.16535"
       style="fill:none;stroke:#808080;stroke-width:0.2;stroke-linecap:butt;stroke-linejoin:round;stroke-miterlimit:10;stroke-dasharray:0.74, 0.32;stroke-dashoffset:0;stroke-opacity:0.7"
       transform="matrix(1.3333333,0,0,-1.3333333,0,204.09449)"
       clip-path="url(#clipPath62)" />
    <path
       id="path63"
       d="m 79.370079,95.203449 h 3.5"
       style="fill:#000000;fill-opacity:1;fill-rule:nonzero;stroke:#000000;stroke-width:0.5;stroke-linecap:butt;stroke-linejoin:round;stroke-miterlimit:10;stroke-dasharray:none;stroke-opacity:1"
       transform="matrix(1.3333333,0,0,-1.3333333,0,204.09449)" />
    <g
       id="g63"
       aria-label="0.6"
       transform="matrix(1.3333333,0,0,1.3333333,86.732519,80.846425)">
      <path
         id="path64"
         d="m 3.9037358,-2.542045 c 0,-0.8554687 -0.09375,-1.3710937 -0.3515625,-1.875 C 3.2006108,-5.12017 2.5560795,-5.2959512 2.110767,-5.2959512 c -0.9960937,0 -1.37109374,0.75 -1.47656249,0.9726562 -0.29296875,0.5742188 -0.3046875,1.3710938 -0.3046875,1.78125 0,0.5273438 0.0234375,1.3359375 0.41015625,1.96875005 C 1.1029545,0.01264255 1.688892,0.1649863 2.110767,0.1649863 c 0.3867188,0 1.0664063,-0.1171875 1.4648438,-0.90234375 C 3.8685795,-1.3115762 3.9037358,-2.02642 3.9037358,-2.542045 Z M 2.110767,-0.05766995 c -0.2695312,0 -0.8203125,-0.12890625 -0.984375,-0.96093755 -0.09375,-0.4570312 -0.09375,-1.2070312 -0.09375,-1.6171875 0,-0.5507812 0,-1.1132812 0.09375,-1.546875 0.1640625,-0.8085937 0.7851563,-0.890625 0.984375,-0.890625 0.2695313,0 0.8203125,0.1289063 0.984375,0.8554688 0.09375,0.4453125 0.09375,1.0429687 0.09375,1.5820312 0,0.46875 0,1.1835938 -0.09375,1.6289063 -0.1640625,0.84375 -0.7148437,0.94921875 -0.984375,0.94921875 z m 0,0"
         style="fill:#000000;fill-opacity:1;fill-rule:nonzero;stroke:none" />
      <path
         id="path65"
         d="m 5.851978,-0.43266995 c 0,-0.28125 -0.2226563,-0.4453125 -0.4335938,-0.4453125 -0.2578125,0 -0.4453125,0.19921875 -0.4453125,0.43359375 0,0.26953125 0.2226563,0.4453124982 0.4335938,0.4453124982 0.2578125,0 0.4453125,-0.2109374982 0.4453125,-0.4335937482 z m 0,0"
         style="fill:#000000;fill-opacity:1;fill-rule:nonzero;stroke:none" />
      <path
         id="path66"
         d="m 7.688892,-2.635795 c 0,-0.6679687 0.058594,-1.2421875 0.3398438,-1.734375 0.234375,-0.3984375 0.6445312,-0.7265625 1.1484375,-0.7265625 0.1640625,0 0.5273437,0.035156 0.7148437,0.3046875 -0.3632812,0.023437 -0.3984375,0.2929688 -0.3984375,0.375 0,0.2460938 0.1875,0.375 0.375,0.375 0.1406255,0 0.3750005,-0.082031 0.3750005,-0.3867187 0,-0.4804688 -0.351563,-0.8671875 -1.0781255,-0.8671875 -1.1015625,0 -2.2265625,1.0546875 -2.2265625,2.765625 0,2.16796875 1.0078125,2.6953125 1.78125,2.6953125 0.375,0 0.796875,-0.10546875 1.1484375,-0.4453125 0.3164065,-0.3046875 0.5859375,-0.64453125 0.5859375,-1.3359375 0,-1.0429688 -0.7851562,-1.78125 -1.6640625,-1.78125 -0.5742187,0 -0.9257812,0.375 -1.1015625,0.7617187 z m 1.03125,2.5664063 c -0.421875,0 -0.6914062,-0.29296875 -0.8085937,-0.515625 -0.1875,-0.36328125 -0.1992188,-0.9023438 -0.1992188,-1.2070313 0,-0.7851562 0.4335938,-1.3828125 1.0429688,-1.3828125 0.3984375,0 0.6328125,0.2109375 0.7851562,0.4921875 0.1757813,0.2929688 0.1757813,0.65625 0.1757813,1.0546875 0,0.4101563 0,0.7617188 -0.1640625,1.0429688 -0.2109375,0.375 -0.4921875,0.515625 -0.8320313,0.515625 z m 0,0"
         style="fill:#000000;fill-opacity:1;fill-rule:nonzero;stroke:none" />
    </g>
    <path
       id="path67"
       d="M 79.370079,115.01979 H 357.16535"
       style="fill:none;stroke:#808080;stroke-width:0.2;stroke-linecap:butt;stroke-linejoin:round;stroke-miterlimit:10;stroke-dasharray:0.74, 0.32;stroke-dashoffset:0;stroke-opacity:0.7"
       transform="matrix(1.3333333,0,0,-1.3333333,0,204.09449)"
       clip-path="url(#clipPath68)" />
    <path
       id="path69"
       d="m 79.370079,115.01979 h 3.5"
       style="fill:#000000;fill-opacity:1;fill-rule:nonzero;stroke:#000000;stroke-width:0.5;stroke-linecap:butt;stroke-linejoin:round;stroke-miterlimit:10;stroke-dasharray:none;stroke-opacity:1"
       transform="matrix(1.3333333,0,0,-1.3333333,0,204.09449)" />
    <g
       id="g69"
       aria-label="0.8"
       transform="matrix(1.3333333,0,0,1.3333333,86.732519,54.424643)">
      <path
         id="path70"
         d="m 3.9037358,-2.542115 c 0,-0.8554688 -0.09375,-1.3710938 -0.3515625,-1.875 C 3.2006108,-5.12024 2.5560795,-5.2960213 2.110767,-5.2960213 c -0.9960937,0 -1.37109374,0.75 -1.47656249,0.9726563 -0.29296875,0.5742187 -0.3046875,1.3710937 -0.3046875,1.78125 0,0.5273437 0.0234375,1.3359375 0.41015625,1.96874995 C 1.1029545,0.01257245 1.688892,0.1649162 2.110767,0.1649162 c 0.3867188,0 1.0664063,-0.1171875 1.4648438,-0.90234375 C 3.8685795,-1.3116463 3.9037358,-2.02649 3.9037358,-2.542115 Z M 2.110767,-0.05774005 c -0.2695312,0 -0.8203125,-0.12890625 -0.984375,-0.96093745 -0.09375,-0.4570313 -0.09375,-1.2070313 -0.09375,-1.6171875 0,-0.5507813 0,-1.1132813 0.09375,-1.546875 0.1640625,-0.8085938 0.7851563,-0.890625 0.984375,-0.890625 0.2695313,0 0.8203125,0.1289062 0.984375,0.8554687 0.09375,0.4453125 0.09375,1.0429688 0.09375,1.5820313 0,0.46875 0,1.1835937 -0.09375,1.6289062 -0.1640625,0.84375 -0.7148437,0.94921875 -0.984375,0.94921875 z m 0,0"
         style="fill:#000000;fill-opacity:1;fill-rule:nonzero;stroke:none" />
      <path
         id="path71"
         d="m 5.851978,-0.43274005 c 0,-0.28125 -0.2226563,-0.4453125 -0.4335938,-0.4453125 -0.2578125,0 -0.4453125,0.19921875 -0.4453125,0.43359375 0,0.26953125 0.2226563,0.4453125018 0.4335938,0.4453125018 0.2578125,0 0.4453125,-0.2109375018 0.4453125,-0.4335937518 z m 0,0"
         style="fill:#000000;fill-opacity:1;fill-rule:nonzero;stroke:none" />
      <path
         id="path72"
         d="m 9.235767,-2.87024 c 0.4453125,-0.2226563 0.984375,-0.6210938 0.984375,-1.2421875 0,-0.75 -0.7734375,-1.1835938 -1.5117187,-1.1835938 -0.84375,0 -1.5351563,0.5742188 -1.5351563,1.3242188 0,0.3046875 0.1054688,0.5742187 0.3046875,0.796875 0.140625,0.1757812 0.1640625,0.1875 0.6679688,0.5039062 -0.9960938,0.4335938 -1.2070313,1.0195313 -1.2070313,1.4648438 0,0.86718745 0.8789063,1.3710937 1.7578125,1.3710937 0.9726563,0 1.7578125,-0.65625 1.7578125,-1.5 0,-0.5039062 -0.269531,-0.84375 -0.398437,-0.9726562 -0.1289067,-0.1289063 -0.1406255,-0.140625 -0.820313,-0.5625 z m -1.2421875,-0.75 c -0.2226562,-0.140625 -0.421875,-0.375 -0.421875,-0.6445313 0,-0.5039062 0.5507813,-0.8320312 1.125,-0.8320312 0.6210938,0 1.125,0.4335937 1.125,0.984375 0,0.46875 -0.3632812,0.8554687 -0.8320312,1.0898437 z m 0.3984375,1.0898437 c 0.023437,0.011719 0.9375,0.5742188 1.0664063,0.65625 0.1289062,0.070312 0.5507817,0.328125 0.5507817,0.8085938 0,0.60937495 -0.6445317,0.9960937 -1.3007817,0.9960937 -0.7148438,0 -1.3125,-0.4921875 -1.3125,-1.1367187 0,-0.5976563 0.4453125,-1.0664063 0.9960937,-1.3242188 z m 0,0"
         style="fill:#000000;fill-opacity:1;fill-rule:nonzero;stroke:none" />
    </g>
    <path
       id="path73"
       d="M 79.370079,134.83612 H 357.16535"
       style="fill:none;stroke:#808080;stroke-width:0.2;stroke-linecap:butt;stroke-linejoin:round;stroke-miterlimit:10;stroke-dasharray:0.74, 0.32;stroke-dashoffset:0;stroke-opacity:0.7"
       transform="matrix(1.3333333,0,0,-1.3333333,0,204.09449)"
       clip-path="url(#clipPath74)" />
    <path
       id="path75"
       d="m 79.370079,134.83612 h 3.5"
       style="fill:#000000;fill-opacity:1;fill-rule:nonzero;stroke:#000000;stroke-width:0.5;stroke-linecap:butt;stroke-linejoin:round;stroke-miterlimit:10;stroke-dasharray:none;stroke-opacity:1"
       transform="matrix(1.3333333,0,0,-1.3333333,0,204.09449)" />
    <g
       id="g75"
       aria-label="1.0"
       transform="matrix(1.3333333,0,0,1.3333333,86.732519,28.002861)">
      <path
         id="path76"
         d="m 2.5092045,-5.0734351 c 0,-0.2226563 -0.023437,-0.2226563 -0.234375,-0.2226563 -0.328125,0.3164063 -0.75,0.5039063 -1.51171874,0.5039063 v 0.2695312 c 0.22265625,0 0.64453124,0 1.11328124,-0.2226562 v 4.08984371 c 0,0.29296875 -0.023437,0.3984375 -0.7851562,0.3984375 H 0.80998576 V 7.836055e-4 C 1.1381108,-0.02265389 1.829517,-0.02265389 2.1810795,-0.02265389 c 0.3632813,0 1.0546875,0 1.3828125,0.0234374955 V -0.25702889 h -0.28125 c -0.75,0 -0.7734375,-0.10546875 -0.7734375,-0.3984375 z m 0,0"
         style="fill:#000000;fill-opacity:1;fill-rule:nonzero;stroke:none" />
      <path
         id="path77"
         d="m 5.851978,-0.43281014 c 0,-0.28125 -0.2226563,-0.4453125 -0.4335938,-0.4453125 -0.2578125,0 -0.4453125,0.19921875 -0.4453125,0.43359375 0,0.26953125 0.2226563,0.4453124955 0.4335938,0.4453124955 0.2578125,0 0.4453125,-0.2109374955 0.4453125,-0.4335937455 z m 0,0"
         style="fill:#000000;fill-opacity:1;fill-rule:nonzero;stroke:none" />
      <path
         id="path78"
         d="m 10.489673,-2.5421851 c 0,-0.8554688 -0.09375,-1.3710938 -0.351562,-1.875 -0.3515627,-0.703125 -0.996094,-0.8789063 -1.4414065,-0.8789063 -0.9960937,0 -1.3710937,0.75 -1.4765625,0.9726563 -0.2929687,0.5742187 -0.3046875,1.3710937 -0.3046875,1.78125 0,0.5273437 0.023437,1.3359375 0.4101563,1.96874996 0.3632812,0.5859375 0.9492187,0.73828125 1.3710937,0.73828125 0.3867188,0 1.0664063,-0.1171875 1.4648435,-0.90234375 0.292969,-0.57421876 0.328125,-1.28906246 0.328125,-1.80468746 z m -1.7929685,2.48437496 c -0.2695312,0 -0.8203125,-0.12890625 -0.984375,-0.96093746 -0.09375,-0.4570313 -0.09375,-1.2070313 -0.09375,-1.6171875 0,-0.5507813 0,-1.1132813 0.09375,-1.546875 0.1640625,-0.8085938 0.7851563,-0.890625 0.984375,-0.890625 0.2695313,0 0.8203125,0.1289062 0.984375,0.8554687 0.09375,0.4453125 0.09375,1.0429688 0.09375,1.5820313 0,0.46875 0,1.1835937 -0.09375,1.6289062 -0.1640625,0.84375001 -0.7148437,0.94921876 -0.984375,0.94921876 z m 0,0"
         style="fill:#000000;fill-opacity:1;fill-rule:nonzero;stroke:none" />
    </g>
    <path
       id="path79"
       d="m 3.0239991,-3.2345105 h 0.9609375 c 0.75,0 0.8320312,0.1523438 0.8320312,0.4453125 0,0.070312 0,0.1875 -0.070312,0.4921875 -0.023437,0.046875 -0.035156,0.082031 -0.035156,0.1054688 0,0.082031 0.058594,0.1171875 0.1171875,0.1171875 0.1054687,0 0.1054687,-0.023437 0.1523437,-0.2109375 l 0.5507813,-2.15625 c 0.023437,-0.1054688 0.023437,-0.1289063 0.023437,-0.1640625 0,-0.011719 -0.011719,-0.1054688 -0.1171875,-0.1054688 -0.09375,0 -0.1054688,0.046875 -0.1523438,0.2109375 -0.1992187,0.7734375 -0.4335937,0.9492188 -1.2773437,0.9492188 H 3.0943116 l 0.6445312,-2.53125 c 0.082031,-0.3398438 0.09375,-0.3867188 0.5390625,-0.3867188 h 1.3125 c 1.21875,0 1.453125,0.328125 1.453125,1.1015625 0,0.2226563 0,0.2695313 -0.035156,0.5390625 -0.011719,0.1289063 -0.011719,0.140625 -0.011719,0.1757813 0,0.046875 0.023437,0.1171875 0.1171875,0.1171875 0.1054688,0 0.1171875,-0.058594 0.140625,-0.2460938 L 7.4536866,-6.5040417 C 7.4771241,-6.773573 7.4302491,-6.773573 7.1841553,-6.773573 H 2.2974366 c -0.1992188,0 -0.2929688,0 -0.2929688,0.1992188 0,0.1054687 0.09375,0.1054687 0.28125,0.1054687 0.3632813,0 0.6445313,0 0.6445313,0.1875 0,0.035156 0,0.058594 -0.046875,0.234375 l -1.3242188,5.27343754 c -0.09375,0.38671875 -0.1171875,0.46875 -0.90234373,0.46875 -0.1640625,0 -0.28125,0 -0.28125,0.1875 0,0.117187499 0.12890625,0.117187499 0.15234375,0.117187499 0.29296875,0 1.03124998,-0.035156249 1.31249998,-0.035156249 0.328125,0 1.1601563,0.035156249 1.4882813,0.035156249 0.09375,0 0.2109375,0 0.2109375,-0.187499999 0,-0.0820312 -0.058594,-0.10546875 -0.058594,-0.1171875 -0.035156,0 -0.058594,0 -0.28125,0 -0.2226562,0 -0.2695312,0 -0.515625,-0.0234375 -0.2929687,-0.0351563 -0.328125,-0.0703125 -0.328125,-0.19921875 0,-0.0234375 0,-0.0820313 0.046875,-0.234375 z m 0,0"
       style="fill:#000000;fill-opacity:1;fill-rule:nonzero;stroke:none"
       aria-label="F"
       transform="matrix(0,-1.3333333,1.3333333,0,78.078306,111.42653)" />
    <path
       id="path80"
       d="M 2.5417858,2.4959583 V 2.0975208 H 1.5691295 V -7.0782605 H 2.5417858 V -7.476698 H 1.170692 v 9.9726563 z m 1.2714843,-3.25781251 c 0,0.45703125 -0.1054687,0.45703125 -0.7734375,0.45703125 v 0.304687499 c 0.328125,-0.011718749 0.796875,-0.035156249 1.078125,-0.035156249 0.3046875,0 0.703125,0.01171875 1.1015625,0.035156249 V -0.30482296 c -0.6679687,0 -0.7734375,0 -0.7734375,-0.45703125 V -1.7813855 l 0.6328125,-0.5507812 c 0.7734375,1.0546875 1.1835938,1.61718749 1.1835938,1.79296874 0,0.1875 -0.1640625,0.234375 -0.3515625,0.234375 V -1.35461e-4 C 6.1804576,-0.01185421 6.7781139,-0.03529171 6.9773326,-0.03529171 c 0.2929688,0 0.5859375,0.01171875 0.8671875,0.035156249 V -0.30482296 c -0.3632812,0 -0.5859375,0 -0.9609375,-0.52734375 L 5.6179576,-2.6251355 c -0.011719,-0.011719 -0.058594,-0.070312 -0.058594,-0.1054687 0,-0.035156 0.703125,-0.6328125 0.8085937,-0.7148438 0.6210938,-0.5039062 1.0429688,-0.5273437 1.2539063,-0.5390625 V -4.289198 c -0.2929688,0.023437 -0.421875,0.023437 -0.703125,0.023437 -0.3515625,0 -0.9726563,-0.023437 -1.1132813,-0.023437 v 0.3046875 c 0.1875,0.011719 0.2929688,0.1171875 0.2929688,0.2460938 0,0.1992187 -0.140625,0.3164062 -0.2226563,0.3867187 l -1.40625,1.21875 v -4.78125 l -1.4296875,0.1054688 v 0.3164062 c 0.6914063,0 0.7734375,0.070312 0.7734375,0.5507813 z M 10.317176,-6.679823 c -0.08203,-0.1171875 -0.09375,-0.1289062 -0.28125,-0.1289062 H 8.3367076 v 0.3164062 h 0.2929688 c 0.140625,0 0.3398437,0.011719 0.4921875,0.011719 0.234375,0.035156 0.2460937,0.046875 0.2460937,0.234375 v 5.203125 c 0,0.26953124 0,0.73828124 -1.03125,0.73828124 v 0.304687499 c 0.3515625,-0.011718749 0.8320313,-0.035156249 1.171875,-0.035156249 0.328125,0 0.8085934,0.0234375 1.1601564,0.035156249 V -0.30482296 c -1.0312501,0 -1.0312501,-0.46875 -1.0312501,-0.73828124 v -5.1796875 c 0.058594,0.046875 0.070312,0.058594 0.1054687,0.1171875 l 4.0664064,5.97656249 c 0.08203,0.1171875 0.09375,0.128906249 0.164062,0.128906249 0.140625,0 0.140625,-0.070312499 0.140625,-0.257812499 V -5.7540417 c 0,-0.2695313 0,-0.7382813 1.03125,-0.7382813 v -0.3164062 c -0.351562,0.011719 -0.84375,0.035156 -1.171875,0.035156 -0.328125,0 -0.820312,-0.023437 -1.160156,-0.035156 v 0.3164062 c 1.019531,0 1.019531,0.46875 1.019531,0.7382813 v 4.2539062 z m 6.747071,-0.796875 h -1.359375 v 0.3984375 h 0.960937 v 9.1757813 h -0.960937 v 0.3984375 h 1.359375 z m 0,0"
       style="fill:#000000;fill-opacity:1;fill-rule:nonzero;stroke:none"
       aria-label="[kN]"
       transform="matrix(0,-1.3333333,1.3333333,0,78.078306,96.611704)" />
    <g
       id="g80"
       aria-label="10&#10;3"
       transform="matrix(1.3333333,0,0,1.3333333,105.82677,16.409449)">
      <path
         id="path81"
         d="m 5.2158588,-3.6674382 c 0.1054687,-0.09375 0.1171875,-0.1289062 0.1171875,-0.1875 0,-0.09375 -0.082031,-0.1875 -0.1875,-0.1875 -0.070312,0 -0.1054688,0.035156 -0.1875,0.1171875 L 3.2939838,-2.2494694 1.6182025,-3.9252507 c -0.09375,-0.09375 -0.140625,-0.1171875 -0.1875,-0.1171875 -0.09375,0 -0.1875,0.082031 -0.1875,0.1875 0,0.070312 0.035156,0.1054688 0.1171875,0.1875 L 3.0244525,-1.9916569 1.36039,-0.32759443 c -0.1054687,0.10546875 -0.1171875,0.140625 -0.1171875,0.19921875 0,0.10546875 0.09375,0.1875 0.1875,0.1875 0.070312,0 0.09375,-0.0234375 0.1757813,-0.1171875 L 3.282265,-1.7338444 5.01664,0.01224932 c 0.046875,0.0234375 0.09375,0.046875 0.1289063,0.046875 0.1054687,0 0.1875,-0.09375 0.1875,-0.1875 0,-0.0585938 -0.035156,-0.09375 -0.035156,-0.10546875 -0.035156,-0.046875 -1.3125,-1.31249997 -1.7460937,-1.75781247 z m 0,0"
         style="fill:#000000;fill-opacity:1;fill-rule:nonzero;stroke:none" />
      <path
         id="path82"
         d="m 9.094765,-5.0736882 c 0,-0.2226562 -0.023437,-0.2226562 -0.234375,-0.2226562 -0.328125,0.3164062 -0.75,0.5039062 -1.5117187,0.5039062 v 0.2695313 c 0.2226562,0 0.6445312,0 1.1132812,-0.2226563 v 4.08984377 c 0,0.29296875 -0.023437,0.3984375 -0.7851562,0.3984375 h -0.28125 V 5.305734e-4 C 7.7236713,-0.02290693 8.4150775,-0.02290693 8.76664,-0.02290693 c 0.3632813,0 1.0546875,0 1.382813,0.0234375034 V -0.25728193 H 9.8682025 c -0.75,0 -0.7734375,-0.10546875 -0.7734375,-0.3984375 z m 5.625,2.53125 c 0,-0.8554687 -0.09375,-1.3710937 -0.351562,-1.875 -0.351563,-0.703125 -0.996094,-0.8789062 -1.441407,-0.8789062 -0.996093,0 -1.371093,0.75 -1.476562,0.9726562 -0.292969,0.5742188 -0.304688,1.3710938 -0.304688,1.78125 0,0.5273438 0.02344,1.3359375 0.410157,1.96875002 0.363281,0.5859375 0.949218,0.73828125 1.371093,0.73828125 0.386719,0 1.066407,-0.1171875 1.464844,-0.90234375 0.292969,-0.57421872 0.328125,-1.28906252 0.328125,-1.80468752 z m -1.792969,2.48437502 c -0.269531,0 -0.820312,-0.12890625 -0.984375,-0.96093752 -0.09375,-0.4570312 -0.09375,-1.2070312 -0.09375,-1.6171875 0,-0.5507812 0,-1.1132812 0.09375,-1.546875 0.164063,-0.8085937 0.785157,-0.890625 0.984375,-0.890625 0.269532,0 0.820313,0.1289063 0.984375,0.8554688 0.09375,0.4453125 0.09375,1.0429687 0.09375,1.5820312 0,0.46875 0,1.1835938 -0.09375,1.6289063 -0.164062,0.84374997 -0.714843,0.94921872 -0.984375,0.94921872 z m 0,0"
         style="fill:#000000;fill-opacity:1;fill-rule:nonzero;stroke:none" />
      <path
         id="path83"
         d="m 16.811562,-4.7924382 c 0.503906,0 0.84375,0.3398438 0.84375,0.9492188 0,0.65625 -0.386719,0.9375 -0.832031,0.9375 -0.152344,0 -0.773438,-0.035156 -1.042969,-0.375 0.234375,-0.023437 0.328125,-0.1875 0.328125,-0.3398438 0,-0.2109375 -0.140625,-0.3398437 -0.339844,-0.3398437 -0.164062,0 -0.339844,0.09375 -0.339844,0.3515625 0,0.5859375 0.65625,0.9257812 1.417969,0.9257812 0.878906,0 1.476563,-0.5742187 1.476563,-1.1601562 0,-0.4335938 -0.339844,-0.9023438 -1.042969,-1.078125 0.46875,-0.1523438 0.855469,-0.5390625 0.855469,-1.03125 0,-0.4804688 -0.5625,-0.8320313 -1.277344,-0.8320313 -0.703125,0 -1.242188,0.3164063 -1.242188,0.8085938 0,0.2578125 0.199219,0.328125 0.316407,0.328125 0.164062,0 0.328125,-0.1054688 0.328125,-0.3164063 0,-0.1875 -0.140625,-0.2929687 -0.292969,-0.3164062 0.269531,-0.3046875 0.820312,-0.3046875 0.867187,-0.3046875 0.304688,0 0.691407,0.140625 0.691407,0.6328125 0,0.328125 -0.1875,0.9023437 -0.785157,0.9375 -0.105468,0.011719 -0.269531,0.023437 -0.316406,0.023437 -0.05859,0 -0.128906,0.011719 -0.128906,0.1054687 0,0.09375 0.07031,0.09375 0.164062,0.09375 z m 0,0"
         style="fill:#000000;fill-opacity:1;fill-rule:nonzero;stroke:none" />
    </g>
    <path
       id="path84"
       d="m 91.997137,35.48461 0.680704,8.904399 v 7.285418 l 2.722815,5.936266 0.680704,5.666436 2.722816,6.206097 5.445634,5.126775 7.48774,6.745757 -0.6807,-15.110496 -10.21056,-29.14167 15.65619,48.569451 4.76493,5.936266 4.76492,3.777624 5.44563,3.777624 10.89127,6.745753 2.04211,-7.825074 4.08422,7.285414 6.80704,5.66644 14.29478,4.58712 11.57197,2.6983 22.46323,5.3966 -1.36141,-5.93626 8.16845,6.20609 14.29478,2.15865 14.97549,2.15864 10.89126,1.34915 v -11.87253 l 4.08423,5.93626 6.12633,5.12678 8.84915,3.23796 11.57197,0.80949 h 15.65619 l 12.25267,-0.26983 11.57197,-1.34915 11.57197,-1.34915 12.25267,-3.23796"
       style="fill:none;stroke:#000000;stroke-width:0.7;stroke-linecap:square;stroke-linejoin:round;stroke-miterlimit:10;stroke-dasharray:none;stroke-opacity:1"
       transform="matrix(1.3333333,0,0,-1.3333333,0,204.09449)"
       clip-path="url(#clipPath85)" />
    <path
       id="path86"
       d="M 79.370079,30.614173 V 137.76378"
       style="fill:none;stroke:#000000;stroke-width:0.5;stroke-linecap:square;stroke-linejoin:miter;stroke-miterlimit:10;stroke-dasharray:none;stroke-opacity:1"
       transform="matrix(1.3333333,0,0,-1.3333333,0,204.09449)" />
    <path
       id="path87"
       d="M 357.16535,30.614173 V 137.76378"
       style="fill:none;stroke:#000000;stroke-width:0.5;stroke-linecap:square;stroke-linejoin:miter;stroke-miterlimit:10;stroke-dasharray:none;stroke-opacity:1"
       transform="matrix(1.3333333,0,0,-1.3333333,0,204.09449)" />
    <path
       id="path88"
       d="M 79.370079,30.614173 H 357.16535"
       style="fill:none;stroke:#000000;stroke-width:0.5;stroke-linecap:square;stroke-linejoin:miter;stroke-miterlimit:10;stroke-dasharray:none;stroke-opacity:1"
       transform="matrix(1.3333333,0,0,-1.3333333,0,204.09449)" />
    <path
       id="path89"
       d="M 79.370079,137.76378 H 357.16535"
       style="fill:none;stroke:#000000;stroke-width:0.5;stroke-linecap:square;stroke-linejoin:miter;stroke-miterlimit:10;stroke-dasharray:none;stroke-opacity:1"
       transform="matrix(1.3333333,0,0,-1.3333333,0,204.09449)" />
  </g>
</svg>
