<?xml version="1.0" encoding="UTF-8" standalone="no"?>
<!-- Created with Inkscape (http://www.inkscape.org/) -->

<svg
   version="1.1"
   id="svg1"
   width="566.92932"
   height="177.63733"
   viewBox="0 0 566.92932 177.63733"
   sodipodi:docname="tho_mess_Q_w.pdf"
   xmlns:inkscape="http://www.inkscape.org/namespaces/inkscape"
   xmlns:sodipodi="http://sodipodi.sourceforge.net/DTD/sodipodi-0.dtd"
   xmlns="http://www.w3.org/2000/svg"
   xmlns:svg="http://www.w3.org/2000/svg">
  <defs
     id="defs1">
    <clipPath
       clipPathUnits="userSpaceOnUse"
       id="clipPath2">
      <path
         d="M -0.00426,-0.00133 V 133.22968 H 425.20111 V -0.00133 H -0.00426"
         transform="matrix(1,0,0,-1,-63.972302,108.93923)"
         clip-rule="evenodd"
         id="path2" />
    </clipPath>
    <clipPath
       clipPathUnits="userSpaceOnUse"
       id="clipPath3">
      <path
         d="M -0.00426,-0.00133 V 133.22968 H 425.20111 V -0.00133 H -0.00426"
         transform="matrix(1,0,0,-1,-360.5479,8.6562327)"
         clip-rule="evenodd"
         id="path3" />
    </clipPath>
    <clipPath
       clipPathUnits="userSpaceOnUse"
       id="clipPath4">
      <path
         d="M -0.00426,-0.00133 V 133.22968 H 425.20111 V -0.00133 H -0.00426"
         transform="matrix(1,0,0,-1,-369.13224,4.5223676)"
         clip-rule="evenodd"
         id="path4" />
    </clipPath>
    <clipPath
       clipPathUnits="userSpaceOnUse"
       id="clipPath5">
      <path
         d="M -0.00426,-0.00133 V 133.22968 H 425.20111 V -0.00133 H -0.00426"
         transform="matrix(1,0,0,-1,-289.62268,8.6562327)"
         clip-rule="evenodd"
         id="path5" />
    </clipPath>
    <clipPath
       clipPathUnits="userSpaceOnUse"
       id="clipPath6">
      <path
         d="M -0.00426,-0.00133 V 133.22968 H 425.20111 V -0.00133 H -0.00426"
         transform="matrix(1,0,0,-1,-18.70977,97.362792)"
         clip-rule="evenodd"
         id="path6" />
    </clipPath>
    <clipPath
       clipPathUnits="userSpaceOnUse"
       id="clipPath7">
      <path
         d="M -0.00426,-0.00133 V 133.22968 H 425.20111 V -0.00133 H -0.00426"
         transform="matrix(1,0,0,-1,-50.662061,8.6562327)"
         clip-rule="evenodd"
         id="path7" />
    </clipPath>
    <clipPath
       clipPathUnits="userSpaceOnUse"
       id="clipPath8">
      <path
         d="M -0.00426,-0.00133 V 133.22968 H 425.20111 V -0.00133 H -0.00426"
         transform="matrix(1,0,0,-1,-238.14675,122.73342)"
         clip-rule="evenodd"
         id="path8" />
    </clipPath>
    <clipPath
       clipPathUnits="userSpaceOnUse"
       id="clipPath9">
      <path
         d="M -0.00426,-0.00133 V 133.22968 H 425.20111 V -0.00133 H -0.00426"
         transform="matrix(1,0,0,-1,-164.71327,8.6562327)"
         clip-rule="evenodd"
         id="path9" />
    </clipPath>
  </defs>
  <sodipodi:namedview
     id="namedview1"
     pagecolor="#ffffff"
     bordercolor="#000000"
     borderopacity="0.25"
     inkscape:showpageshadow="2"
     inkscape:pageopacity="0.0"
     inkscape:pagecheckerboard="0"
     inkscape:deskcolor="#d1d1d1">
    <inkscape:page
       x="0"
       y="0"
       inkscape:label="1"
       id="page1"
       width="566.92932"
       height="177.63733"
       margin="0"
       bleed="0" />
  </sodipodi:namedview>
  <g
     id="g1"
     inkscape:groupmode="layer"
     inkscape:label="1">
    <path
       id="path1"
       d="m 56.82681,19.68796 0.6807,8.90442 v 7.28543 l 2.72282,5.93628 0.68071,5.66644 2.72283,6.20612 5.44564,5.12678 7.48775,6.74577 L 75.88655,50.44867 65.67598,21.30695 81.3322,69.8765 l 4.76494,5.93627 4.76494,3.77764 5.44564,3.77763 10.89129,6.74578 2.04211,-7.82511 4.08423,7.28543 6.80705,5.66645 14.29482,4.58712 11.57199,2.69832 22.46328,5.39662 -1.36142,-5.93629 8.16846,6.20611 14.29483,2.15865 14.9755,2.15865 10.89129,1.34915 v -11.87256 l 4.08423,5.93629 6.12634,5.12677 8.84916,3.23798 11.57199,0.80949 h 15.65622 l 12.25271,-0.26982 11.57199,-1.34916 11.57196,-1.34916 12.25272,-3.23797 M 306.64566,19.68796 V 16.85332 M 56.82681,99.2233 h -2.83465 m 2.83465,-79.53534 v -2.83464 m 0,2.83464 h -2.83465 m 127.74408,0 V 16.85332 M 56.82681,19.68796 V 99.2233"
       style="fill:none;stroke:#000000;stroke-width:0.3685;stroke-linecap:round;stroke-linejoin:round;stroke-miterlimit:10;stroke-dasharray:none;stroke-opacity:1"
       transform="matrix(1.3333333,0,0,-1.3333333,0,177.63733)" />
    <text
       id="text1"
       xml:space="preserve"
       transform="matrix(1.3333333,0,0,1.3333333,85.2964,32.385027)"
       clip-path="url(#clipPath2)"><tspan
         style="font-style:italic;font-variant:normal;font-weight:normal;font-stretch:normal;font-size:10.0071px;font-family:'Palatino Linotype';writing-mode:lr-tb;fill:#000000;fill-opacity:1;fill-rule:nonzero;stroke:none"
         x="0"
         y="0"
         id="tspan1">Q</tspan></text>
    <text
       id="text2"
       xml:space="preserve"
       transform="matrix(1.3333333,0,0,1.3333333,480.73052,166.09569)"
       clip-path="url(#clipPath3)"><tspan
         style="font-style:italic;font-variant:normal;font-weight:normal;font-stretch:normal;font-size:10.0071px;font-family:'Palatino Linotype';writing-mode:lr-tb;fill:#000000;fill-opacity:1;fill-rule:nonzero;stroke:none"
         x="0"
         y="0"
         id="tspan2">w</tspan></text>
    <text
       id="text3"
       xml:space="preserve"
       transform="matrix(1.3333333,0,0,1.3333333,492.17631,171.60751)"
       clip-path="url(#clipPath4)"><tspan
         style="font-style:italic;font-variant:normal;font-weight:normal;font-stretch:normal;font-size:6.00428px;font-family:'Palatino Linotype';writing-mode:lr-tb;fill:#000000;fill-opacity:1;fill-rule:nonzero;stroke:none"
         x="0 3.9508162 6.9529562"
         y="0"
         sodipodi:role="line"
         id="tspan3">V10</tspan></text>
    <text
       id="text4"
       xml:space="preserve"
       transform="matrix(1.3333333,0,0,1.3333333,386.16357,166.09569)"
       clip-path="url(#clipPath5)"><tspan
         style="font-variant:normal;font-weight:normal;font-stretch:normal;font-size:10.0916px;font-family:'Palatino Linotype';writing-mode:lr-tb;fill:#000000;fill-opacity:1;fill-rule:nonzero;stroke:none"
         x="0 5.045805 10.09161 15.137415 17.660318 26.571209"
         y="0"
         sodipodi:role="line"
         id="tspan4">200 mm</tspan></text>
    <text
       id="text5"
       xml:space="preserve"
       transform="matrix(1.3333333,0,0,1.3333333,24.94636,47.82028)"
       clip-path="url(#clipPath6)"><tspan
         style="font-variant:normal;font-weight:normal;font-stretch:normal;font-size:10.0916px;font-family:'Palatino Linotype';writing-mode:lr-tb;fill:#000000;fill-opacity:1;fill-rule:nonzero;stroke:none"
         x="0 5.045805 10.09161 15.137415 17.660318 23.271254"
         y="0"
         sodipodi:role="line"
         id="tspan5">800 kN</tspan></text>
    <text
       id="text6"
       xml:space="preserve"
       transform="matrix(1.3333333,0,0,1.3333333,67.549413,166.09569)"
       clip-path="url(#clipPath7)"><tspan
         style="font-variant:normal;font-weight:normal;font-stretch:normal;font-size:10.0916px;font-family:'Palatino Linotype';writing-mode:lr-tb;fill:#000000;fill-opacity:1;fill-rule:nonzero;stroke:none"
         x="0"
         y="0"
         id="tspan6">0</tspan></text>
    <text
       id="text7"
       xml:space="preserve"
       transform="matrix(1.3333333,0,0,1.3333333,317.52899,13.992773)"
       clip-path="url(#clipPath8)"><tspan
         style="font-variant:normal;font-weight:normal;font-stretch:normal;font-size:10.0916px;font-family:'Palatino Linotype';writing-mode:lr-tb;fill:#000000;fill-opacity:1;fill-rule:nonzero;stroke:none"
         x="0 5.045805 10.09161 15.137415 17.660318 23.271254"
         y="0"
         sodipodi:role="line"
         id="tspan7">975 kN</tspan></text>
    <text
       id="text8"
       xml:space="preserve"
       transform="matrix(1.3333333,0,0,1.3333333,219.61769,166.09569)"
       clip-path="url(#clipPath9)"><tspan
         style="font-variant:normal;font-weight:normal;font-stretch:normal;font-size:10.0916px;font-family:'Palatino Linotype';writing-mode:lr-tb;fill:#000000;fill-opacity:1;fill-rule:nonzero;stroke:none"
         x="0 5.045805 10.09161 15.137415 17.660318 26.571209"
         y="0"
         sodipodi:role="line"
         id="tspan8">100 mm</tspan></text>
    <path
       id="path10"
       d="m 56.82681,19.68796 v 96.46535 m 0,-5.95276 v -0.42519 m 0,6.37795 v 0 l -0.8504,-5.95276 h 1.70079 l -0.85039,5.95276"
       style="fill:none;stroke:#000000;stroke-width:0.3685;stroke-linecap:round;stroke-linejoin:round;stroke-miterlimit:10;stroke-dasharray:none;stroke-opacity:1"
       transform="matrix(1.3333333,0,0,-1.3333333,0,177.63733)" />
    <path
       id="path11"
       d="m 57.6772,110.20055 -0.85039,5.95276 -0.8504,-5.95276 z"
       style="fill:#000000;fill-opacity:1;fill-rule:nonzero;stroke:none"
       transform="matrix(1.3333333,0,0,-1.3333333,0,177.63733)" />
    <path
       id="path12"
       d="m 260.9213,19.68796 h 123.21978 m -5.95276,0 h -0.4252 m 6.37796,0 v 0 l -5.95276,0.8504 v -1.70079 l 5.95276,0.85039"
       style="fill:none;stroke:#000000;stroke-width:0.3685;stroke-linecap:round;stroke-linejoin:round;stroke-miterlimit:10;stroke-dasharray:none;stroke-opacity:1"
       transform="matrix(1.3333333,0,0,-1.3333333,0,177.63733)" />
    <path
       id="path13"
       d="m 378.18832,18.83757 5.95276,0.85039 -5.95276,0.8504 z"
       style="fill:#000000;fill-opacity:1;fill-rule:nonzero;stroke:none"
       transform="matrix(1.3333333,0,0,-1.3333333,0,177.63733)" />
    <path
       id="path14"
       d="m 56.82681,19.68796 h 327.31427 m -5.95276,0 h -0.4252 m 6.37796,0 v 0 l -5.95276,0.8504 v -1.70079 l 5.95276,0.85039"
       style="fill:none;stroke:#000000;stroke-width:0.3685;stroke-linecap:round;stroke-linejoin:round;stroke-miterlimit:10;stroke-dasharray:none;stroke-opacity:1"
       transform="matrix(1.3333333,0,0,-1.3333333,0,177.63733)" />
    <path
       id="path15"
       d="m 378.18832,18.83757 5.95276,0.85039 -5.95276,0.8504 z"
       style="fill:#000000;fill-opacity:1;fill-rule:nonzero;stroke:none"
       transform="matrix(1.3333333,0,0,-1.3333333,0,177.63733)" />
  </g>
</svg>
