<?xml version="1.0" encoding="UTF-8" standalone="no"?>
<!-- Created with Inkscape (http://www.inkscape.org/) -->

<svg
   version="1.1"
   id="svg1"
   width="566.92932"
   height="181.41733"
   viewBox="0 0 566.92932 181.41733"
   sodipodi:docname="tho_q_w_usermat.pdf"
   xmlns:inkscape="http://www.inkscape.org/namespaces/inkscape"
   xmlns:sodipodi="http://sodipodi.sourceforge.net/DTD/sodipodi-0.dtd"
   xmlns="http://www.w3.org/2000/svg"
   xmlns:svg="http://www.w3.org/2000/svg">
  <defs
     id="defs1">
    <clipPath
       clipPathUnits="userSpaceOnUse"
       id="clipPath12">
      <path
         d="M -0.00426,-0.00136 V 136.06436 H 425.20111 V -0.00136 H -0.00426"
         transform="matrix(1,0,0,-1,-63.972302,108.93922)"
         clip-rule="evenodd"
         id="path12" />
    </clipPath>
    <clipPath
       clipPathUnits="userSpaceOnUse"
       id="clipPath13">
      <path
         d="M -0.00426,-0.00136 V 136.06436 H 425.20111 V -0.00136 H -0.00426"
         transform="matrix(1,0,0,-1,-360.5479,8.6562177)"
         clip-rule="evenodd"
         id="path13" />
    </clipPath>
    <clipPath
       clipPathUnits="userSpaceOnUse"
       id="clipPath14">
      <path
         d="M -0.00426,-0.00136 V 136.06436 H 425.20111 V -0.00136 H -0.00426"
         transform="matrix(1,0,0,-1,-369.13224,4.5223601)"
         clip-rule="evenodd"
         id="path14" />
    </clipPath>
    <clipPath
       clipPathUnits="userSpaceOnUse"
       id="clipPath15">
      <path
         d="M -0.00426,-0.00136 V 136.06436 H 425.20111 V -0.00136 H -0.00426"
         transform="matrix(1,0,0,-1,-289.62268,8.6562177)"
         clip-rule="evenodd"
         id="path15" />
    </clipPath>
    <clipPath
       clipPathUnits="userSpaceOnUse"
       id="clipPath16">
      <path
         d="M -0.00426,-0.00136 V 136.06436 H 425.20111 V -0.00136 H -0.00426"
         transform="matrix(1,0,0,-1,-18.70977,97.362783)"
         clip-rule="evenodd"
         id="path16" />
    </clipPath>
    <clipPath
       clipPathUnits="userSpaceOnUse"
       id="clipPath17">
      <path
         d="M -0.00426,-0.00136 V 136.06436 H 425.20111 V -0.00136 H -0.00426"
         transform="matrix(1,0,0,-1,-50.662061,8.6562177)"
         clip-rule="evenodd"
         id="path17" />
    </clipPath>
    <clipPath
       clipPathUnits="userSpaceOnUse"
       id="clipPath18">
      <path
         d="M -0.00426,-0.00136 V 136.06436 H 425.20111 V -0.00136 H -0.00426"
         transform="matrix(1,0,0,-1,-238.14675,122.73341)"
         clip-rule="evenodd"
         id="path18" />
    </clipPath>
    <clipPath
       clipPathUnits="userSpaceOnUse"
       id="clipPath19">
      <path
         d="M -0.00426,-0.00136 V 136.06436 H 425.20111 V -0.00136 H -0.00426"
         transform="matrix(1,0,0,-1,-164.71327,8.6562177)"
         clip-rule="evenodd"
         id="path19" />
    </clipPath>
    <clipPath
       clipPathUnits="userSpaceOnUse"
       id="clipPath20">
      <path
         d="M -0.00426,-0.00136 V 136.06436 H 425.20111 V -0.00136 H -0.00426"
         transform="matrix(1,0,0,-1,-127.91017,80.120302)"
         clip-rule="evenodd"
         id="path20" />
    </clipPath>
    <clipPath
       clipPathUnits="userSpaceOnUse"
       id="clipPath21">
      <path
         d="M -0.00426,-0.00136 V 136.06436 H 425.20111 V -0.00136 H -0.00426"
         transform="matrix(1,0,0,-1,-127.91017,71.616362)"
         clip-rule="evenodd"
         id="path21" />
    </clipPath>
    <clipPath
       clipPathUnits="userSpaceOnUse"
       id="clipPath22">
      <path
         d="M -0.00426,-0.00136 V 136.06436 H 425.20111 V -0.00136 H -0.00426"
         transform="matrix(1,0,0,-1,-288.04297,69.305612)"
         clip-rule="evenodd"
         id="path22" />
    </clipPath>
    <clipPath
       clipPathUnits="userSpaceOnUse"
       id="clipPath23">
      <path
         d="M -0.00426,-0.00136 V 136.06436 H 425.20111 V -0.00136 H -0.00426"
         transform="matrix(1,0,0,-1,-288.04297,57.967031)"
         clip-rule="evenodd"
         id="path23" />
    </clipPath>
    <clipPath
       clipPathUnits="userSpaceOnUse"
       id="clipPath24">
      <path
         d="M -0.00426,-0.00136 V 136.06436 H 425.20111 V -0.00136 H -0.00426"
         transform="matrix(1,0,0,-1,-288.04297,46.628449)"
         clip-rule="evenodd"
         id="path24" />
    </clipPath>
  </defs>
  <sodipodi:namedview
     id="namedview1"
     pagecolor="#ffffff"
     bordercolor="#000000"
     borderopacity="0.25"
     inkscape:showpageshadow="2"
     inkscape:pageopacity="0.0"
     inkscape:pagecheckerboard="0"
     inkscape:deskcolor="#d1d1d1">
    <inkscape:page
       x="0"
       y="0"
       inkscape:label="1"
       id="page1"
       width="566.92932"
       height="181.41733"
       margin="0"
       bleed="0" />
  </sodipodi:namedview>
  <g
     id="g1"
     inkscape:groupmode="layer"
     inkscape:label="1">
    <path
       id="path1"
       d="M 306.64566,19.68796 V 16.8533 M 56.82681,99.22328 h -2.83465 m 2.83465,-79.53532 h -2.83465 m 127.74408,0 V 16.8533 m 89.29886,44.23184 h 11.33859 M 56.82681,19.68796 V 16.8533"
       style="fill:none;stroke:#000000;stroke-width:0.3685;stroke-linecap:round;stroke-linejoin:round;stroke-miterlimit:10;stroke-dasharray:none;stroke-opacity:1"
       transform="matrix(1.3333333,0,0,-1.3333333,0,181.41733)" />
    <path
       id="path2"
       d="m 56.82681,19.68796 1.44274,17.24856 0.96183,9.26099 0.96184,6.74748 0.96182,4.5752 0.96183,3.37433 0.96183,2.3625 0.96184,1.69549 0.96183,1.41491 1.44274,1.62652 6.73282,5.94966 1.92366,1.69074 4.32823,3.79048 4.80916,3.87251 1.92366,1.28173 1.92366,0.87152 3.36641,1.26626 3.36641,1.07009 5.77098,1.54211 5.29007,1.16997 6.73282,1.22345 10.58014,1.67172 12.98473,1.78346 14.90835,1.80846 6.04581,0.67177 12.36639,1.08078 6.1832,0.47738 6.1832,0.47738"
       style="fill:none;stroke:#000000;stroke-width:0.70866;stroke-linecap:round;stroke-linejoin:round;stroke-miterlimit:10;stroke-dasharray:none;stroke-opacity:1"
       transform="matrix(1.3333333,0,0,-1.3333333,0,181.41733)" />
    <path
       id="path3"
       d="m 56.9364,21.06685 0.2246,2.82573 m 0.17968,2.26059 0.2246,2.82574 m 0.17967,2.26058 0.22459,2.82574 m 0.17968,2.26059 0.22459,2.82573 m 0.17969,2.26059 0.22459,2.82573 m 0.17967,2.26059 0.01921,0.24176 M 56.82681,19.68796 v 0 m 2.15016,27.05226 v 0 m 0.11335,0.17607 1.53428,2.38353 m 1.22742,1.90681 0.92101,1.43078 m -3.79606,-5.89719 v 0 m 3.79606,5.89719 v 0 m 0.51825,0.60228 1.84892,2.14863 m 1.47914,1.71892 1.84894,2.14865 m 1.47914,1.71892 0.57023,0.66269 m -7.74462,-9.00009 v 0 m 7.74462,9.00009 v 0 l 1.5049,1.85655 m 1.42798,1.76166 1.78497,2.20205 m 1.42798,1.76166 1.3568,1.67384 M 70.51765,61.6375 v 0 m 7.50263,9.25576 v 0 m 1.38409,1.16413 2.16938,1.82458 m 1.73548,1.45967 2.16936,1.82457 m 1.73549,1.45968 1.63794,1.3776 M 78.02028,70.89326 v 0 m 10.83174,9.11023 v 0 l 1.58667,1.05469 m 1.88857,1.25534 2.3607,1.56919 m 1.88855,1.25534 2.02801,1.34803 m -9.7525,-6.48259 v 0 m 9.7525,6.48259 v 0 l 0.22377,0.09819 m 2.07657,0.91129 2.5957,1.13908 m 2.07657,0.91127 2.59571,1.1391 m 2.07655,0.91127 0.0975,0.0428 m -11.74242,-5.153 v 0 m 11.74242,5.153 v 0 l 0.81383,0.28867 m 2.13725,0.75806 2.67157,0.94758 m 2.13727,0.75807 0.904,0.32065 m -8.66392,-3.07303 v 0 m 8.66392,3.07303 v 0 l 2.6129,0.63065 m 2.20443,0.53206 2.75552,0.66507 m 2.20441,0.53206 2.75552,0.66508 m -12.53278,-3.02492 v 0 m 14.0987,3.40286 v 0 l 0.46664,0.09725 m 2.22003,0.46263 2.77503,0.57829"
       style="fill:none;stroke:#000000;stroke-width:0.3685;stroke-linecap:round;stroke-linejoin:round;stroke-miterlimit:10;stroke-dasharray:none;stroke-opacity:1"
       transform="matrix(1.3333333,0,0,-1.3333333,0,181.41733)" />
    <path
       id="path4"
       d="m 140.79129,99.71579 2.77502,0.57829 m 2.22004,0.46263 0.32779,0.0683 m -13.00458,-2.71006 v 0 m 13.00458,2.71006 v 0 M 56.9364,21.06685 57.161,23.89258 m 0.17968,2.26059 0.2246,2.82574 m 0.17967,2.26058 0.22459,2.82574 m 0.17968,2.26059 0.22459,2.82573 m 0.17969,2.26059 0.22459,2.82573 m 0.17967,2.26059 0.01921,0.24176 M 56.82681,19.68796 v 0 m 2.15016,27.05226 v 0 l 1.35497,0.59462 m 2.07657,0.91127 1.51263,0.6638 m -4.94417,-2.16969 v 0 m 4.94417,2.16969 v 0 m 1.30214,0.80863 2.01465,1.2511 m -3.31679,-2.05973 v 0 m 3.31679,2.05973 v 0 l 0.16281,0.13728 m 1.73361,1.46188 2.16703,1.82736 m -4.06345,-3.42652 v 0 m 4.6812,3.94744 v 0 l 0.90846,1.09908 m 1.44478,1.74789 1.80597,2.18489 m 1.44478,1.7479 1.80597,2.18487 m 1.44477,1.74791 1.80597,2.18488 M 71.91913,54.91708 v 0 m 10.6676,12.90577 v 0 m 1.15688,1.32777 1.86212,2.13722 m -3.019,-3.46499 v 0 m 3.7289,4.27977 v 0 m 0.20587,0.14228 2.33188,1.61171 m 1.86549,1.28939 1.33353,0.92169 m -5.73677,-3.96507 v 0 m 5.73677,3.96507 v 0 l 1.7162,1.04434 m 1.93723,1.17885 2.42154,1.47355 m 1.93724,1.17885 2.42154,1.47356 M 92.0524,76.06769 v 0 m 10.75644,6.54551 v 0 l 0.0305,0.01764 m 1.96296,1.1355 2.45369,1.41937 m -4.44713,-2.57251 v 0 m 6.31044,3.65038 v 0 m 0.1971,0.07387 2.65438,0.99469 m 2.12351,0.79576 2.65439,0.9947 m 2.12352,0.79577 2.65439,0.99469 M 109.1193,86.26358 v 0 m 12.76431,4.78326 v 0"
       style="fill:none;stroke:#000000;stroke-width:0.3685;stroke-linecap:round;stroke-linejoin:round;stroke-miterlimit:10;stroke-dasharray:none;stroke-opacity:1"
       transform="matrix(1.3333333,0,0,-1.3333333,0,181.41733)" />
    <path
       id="path5"
       d="m 121.88359,91.04684 0.43405,0.10715 m 2.20163,0.54347 2.75205,0.67933 m 2.20164,0.54347 2.75202,0.67932 m 2.20166,0.54347 2.75201,0.67932 m -15.29506,-3.77553 v 0 m 16.06297,3.96508 v 0 l 1.00385,0.21653 m 2.21673,0.47815 2.77091,0.59769 m 2.21674,0.47815 2.77093,0.59769 m 2.21674,0.47815 2.7709,0.59768 m -15.9668,-3.44404 v 0 m 16.92347,3.65039 v 0 m 0.66442,0.09887 2.80378,0.41727 m 2.24301,0.33382 2.80377,0.41726 m 2.24301,0.33382 2.80377,0.41727 m 2.24301,0.3338 0.68842,0.10246 m -16.49319,-2.45457 v 0 m 16.49319,2.45457 v 0 m 1.71872,0.20113 2.81543,0.32947 m 2.25235,0.26358 2.81543,0.32946 m 2.25235,0.26358 2.81543,0.32947 m 2.25235,0.26358 2.43954,0.28548 m -19.3616,-2.26575 v 0 m 19.3616,2.26575 v 0 l 1.95893,0.19104 m 2.25702,0.22011 2.82125,0.27511 m 2.25702,0.22011 2.82126,0.27513 m 2.25702,0.2201 2.82126,0.27513 m -17.19376,-1.67673 v 0 m 19.36161,1.88814 v 0 m 1.30325,0.10846 2.82489,0.2351 m 2.25989,0.1881 2.82489,0.23511 m 2.25988,0.18808 2.82489,0.2351 m 2.25989,0.1881 0.079,0.007 m -16.63662,-1.38463 v 0 m 16.63662,1.38463 v 0 m 0.0641,0.005 2.82526,0.23047 m 2.26022,0.18439 2.82526,0.23048 m 2.26019,0.18439 2.82526,0.23048 m 2.26022,0.18439 2.82525,0.23047 m 2.26023,0.18438 1.96744,0.16051 m -22.37342,-1.82519 v 0 m 22.37342,1.82519 v 0"
       style="fill:none;stroke:#000000;stroke-width:0.3685;stroke-linecap:round;stroke-linejoin:round;stroke-miterlimit:10;stroke-dasharray:none;stroke-opacity:1"
       transform="matrix(1.3333333,0,0,-1.3333333,0,181.41733)" />
    <path
       id="path6"
       d="m 56.82681,19.68796 0.11812,1.5451 m 0.21607,2.8264 0.32409,4.2396 m -0.65828,-8.6111 v 0 m 0.6807,8.9044 v 0 4.00607 m 0,2.83464 v 0.44474 m 0,-7.28545 v 0 m 0,7.28545 v 0 m 0.04434,0.09666 1.7727,3.86482 m -1.81704,-3.96148 v 0 m 2.72282,5.93628 v 0 m 0.10817,0.90046 0.50714,4.22162 m -0.61531,-5.12208 v 0 m 0.68071,5.66644 v 0 l 0.03197,0.07288 m 1.13887,2.59579 1.55199,3.53743 m -2.72283,-6.2061 v 0 m 2.72283,6.2061 v 0 m 1.38842,1.30714 3.09587,2.9146 m -4.48429,-4.22174 v 0 m 5.44564,5.12679 v 0 m 1.06745,0.96168 3.15904,2.84599 m 2.10602,1.89734 1.15524,1.04076 m -7.48775,-6.74577 v 0 m 7.48775,6.74577 v 0 m -0.68071,-15.11052 0.0021,0.04556 m 0.12756,2.83177 0.19135,4.24767 m 0.12758,2.83177 0.19134,4.24767 M 75.88659,50.44867 v 0 m 0.68071,15.11052 v 0 M 65.90561,21.96231 67.3116,25.9751 m 0.93732,2.67518 1.40599,4.01279 m 0.93731,2.6752 1.40599,4.01277 m 0.93732,2.67521 1.40599,4.01278 m 0.93732,2.67519 0.60771,1.73445 M 65.67598,21.30693 v 0 m 10.21057,29.14174 v 0 m -9.56909,-27.1517 1.3045,4.0469 m 0.86968,2.69794 1.3045,4.04692 m 0.86968,2.69794 1.3045,4.0469 m 0.86968,2.69795 1.3045,4.04691 m 0.86968,2.69794 1.3045,4.04692 m 0.86967,2.69793 1.30451,4.04693 m 0.86967,2.69793 1.30451,4.04691 M 65.67598,21.30693 v 0 M 81.3322,69.87648 v 0 m 0.56009,0.69778 2.6616,3.31589 M 81.3322,69.87648 v 0 m 4.76494,5.93628 v 0 l 2.40753,1.90869"
       style="fill:none;stroke:#a0a0a0;stroke-width:0.3685;stroke-linecap:round;stroke-linejoin:round;stroke-miterlimit:10;stroke-dasharray:none;stroke-opacity:1"
       transform="matrix(1.3333333,0,0,-1.3333333,0,181.41733)" />
    <path
       id="path7"
       d="m 90.72594,79.48247 0.13614,0.10792 m -4.76494,-3.77763 v 0 m 4.76494,3.77763 v 0 m 0.36964,0.25643 3.49365,2.42355 m -3.86329,-2.67998 v 0 m 5.44564,3.77764 v 0 m 1.51841,0.94046 3.61477,2.2389 m 2.40985,1.49259 3.34826,2.07382 M 96.30772,83.36803 v 0 m 10.89129,6.74577 v 0 l 0.15069,-0.57745 m 0.71579,-2.74279 1.07369,-4.11418 m -1.94017,7.43442 v 0 m 2.04211,-7.82509 v 0 m 1.15448,2.05936 2.07922,3.70891 m -3.2337,-5.76827 v 0 m 4.08423,7.28543 v 0 l 1.21385,1.01045 m 2.1786,1.81356 3.26789,2.7203 m -6.66034,-5.54431 v 0 m 6.80705,5.66645 v 0 l 2.37701,0.76277 m 2.69909,0.86612 4.04861,1.29918 m 2.6991,0.86611 2.47101,0.79294 M 120.1324,95.24059 v 0 m 14.29482,4.58712 v 0 m 2.26028,0.52704 4.1409,0.96556 m 2.76059,0.64369 2.41022,0.56202 m -11.57199,-2.69831 v 0 m 11.57199,2.69831 v 0 l 1.2976,0.31173 m 2.75623,0.66217 4.13434,0.99324 m 2.75622,0.66216 4.13431,0.99324 m 2.75623,0.66215 4.13434,0.99325 m -21.96927,-5.27794 v 0 m 22.46328,5.39662 v 0 m -1.36142,-5.93628 0.47818,2.0851 m 0.63364,2.76292 0.2496,1.08826 m -1.36142,-5.93628 v 0 m 1.36142,5.93628 v 0 m -1.36142,-5.93628 0.66712,0.50683 m 2.25708,1.71486 3.38565,2.5723 m -6.30985,-4.79399 v 0 m 8.16846,6.2061 v 0 m 1.858,0.28058 4.20429,0.63489 m 2.80288,0.42326 4.20429,0.63489 m -13.06946,-1.97362 v 0 m 14.29483,2.15864 v 0 m 2.12085,0.30573 4.2085,0.60663 m 2.80563,0.40442 4.20847,0.60663"
       style="fill:none;stroke:#a0a0a0;stroke-width:0.3685;stroke-linecap:round;stroke-linejoin:round;stroke-miterlimit:10;stroke-dasharray:none;stroke-opacity:1"
       transform="matrix(1.3333333,0,0,-1.3333333,0,181.41733)" />
    <path
       id="path8"
       d="m 189.56436,110.3511 v 0 m 14.9755,2.15867 v 0 l 0.0304,0.004 m 2.81314,0.34848 4.2197,0.52272 m 2.81317,0.34848 1.01486,0.12572 m -10.89129,-1.34915 v 0 m 10.89129,1.34915 v 0 m 0,-11.87256 v 1.47821 m 0,2.83464 v 4.25197 m 0,2.83465 v 0.47309 m 0,-11.87256 v 0 m 0,11.87256 v 0 m 0,-11.87256 2.05933,2.99315 m 1.60672,2.33531 0.41818,0.60782 m -4.08423,-5.93628 v 0 m 4.08423,5.93628 v 0 l 0.38583,0.32287 m 2.17386,1.8192 3.26084,2.72879 m -5.82053,-4.87086 v 0 m 6.12634,5.12678 v 0 l 1.44168,0.52751 m 2.66202,0.97406 3.99307,1.46108 m -8.09677,-2.96265 v 0 m 8.84916,3.23796 v 0 l 3.15509,0.22071 m 2.82772,0.19781 4.24161,0.29671 m -10.22442,-0.71523 v 0 m 11.57199,0.8095 v 0 m 1.96862,0 h 4.25199 m 2.83462,0 h 4.25199 m -13.30722,0 v 0 m 15.65622,0 v 0 l 0.29235,-0.006 m 2.83399,-0.0624 4.25091,-0.0936 m 2.83396,-0.0624 2.0415,-0.045 m -12.25271,0.26982 v 0 m 12.25271,-0.26982 v 0 l 0.76532,-0.0892 m 2.81558,-0.32826 4.22336,-0.49238 m 2.81558,-0.32827 0.95215,-0.111 m -11.57199,1.34915 v 0 m 11.57199,-1.34915 v 0 l 3.27121,-0.3814 m 2.81558,-0.32826 4.22336,-0.49239 m -10.31015,1.20205 v 0 m 11.57196,-1.34916 v 0 l 1.23252,-0.32571 m 2.74057,-0.72424 4.11084,-1.08635 m 2.74057,-0.72425 1.42822,-0.37742 m -12.25272,3.23797 v 0"
       style="fill:none;stroke:#a0a0a0;stroke-width:0.3685;stroke-linecap:round;stroke-linejoin:round;stroke-miterlimit:10;stroke-dasharray:none;stroke-opacity:1"
       transform="matrix(1.3333333,0,0,-1.3333333,0,181.41733)" />
    <path
       id="path9"
       d="m 309.36847,110.89078 v 0"
       style="fill:none;stroke:#a0a0a0;stroke-width:0.3685;stroke-linecap:round;stroke-linejoin:round;stroke-miterlimit:10;stroke-dasharray:none;stroke-opacity:1"
       transform="matrix(1.3333333,0,0,-1.3333333,0,181.41733)" />
    <path
       id="path10"
       d="m 271.0351,50.03003 h 2.22476 m 2.2677,0 h 2.83465 m 2.2677,0 h 1.74378 m -11.33859,0 v 0 m 11.33859,0 v 0"
       style="fill:none;stroke:#000000;stroke-width:0.3685;stroke-linecap:round;stroke-linejoin:round;stroke-miterlimit:10;stroke-dasharray:none;stroke-opacity:1"
       transform="matrix(1.3333333,0,0,-1.3333333,0,181.41733)" />
    <path
       id="path11"
       d="m 271.0351,72.14026 h 2.5082 m 2.83466,0 h 4.25195 m -9.59481,0 v 0 m 11.33859,0 v 0"
       style="fill:none;stroke:#a0a0a0;stroke-width:0.3685;stroke-linecap:round;stroke-linejoin:round;stroke-miterlimit:10;stroke-dasharray:none;stroke-opacity:1"
       transform="matrix(1.3333333,0,0,-1.3333333,0,181.41733)" />
    <text
       id="text11"
       xml:space="preserve"
       transform="matrix(1.3333333,0,0,1.3333333,85.2964,36.16504)"
       clip-path="url(#clipPath12)"><tspan
         style="font-style:italic;font-variant:normal;font-weight:normal;font-stretch:normal;font-size:10.0071px;font-family:'Palatino Linotype';writing-mode:lr-tb;fill:#000000;fill-opacity:1;fill-rule:nonzero;stroke:none"
         x="0"
         y="0"
         id="tspan11">Q</tspan></text>
    <text
       id="text12"
       xml:space="preserve"
       transform="matrix(1.3333333,0,0,1.3333333,480.73052,169.87571)"
       clip-path="url(#clipPath13)"><tspan
         style="font-style:italic;font-variant:normal;font-weight:normal;font-stretch:normal;font-size:10.0071px;font-family:'Palatino Linotype';writing-mode:lr-tb;fill:#000000;fill-opacity:1;fill-rule:nonzero;stroke:none"
         x="0"
         y="0"
         id="tspan12">w</tspan></text>
    <text
       id="text13"
       xml:space="preserve"
       transform="matrix(1.3333333,0,0,1.3333333,492.17631,175.38752)"
       clip-path="url(#clipPath14)"><tspan
         style="font-style:italic;font-variant:normal;font-weight:normal;font-stretch:normal;font-size:6.00428px;font-family:'Palatino Linotype';writing-mode:lr-tb;fill:#000000;fill-opacity:1;fill-rule:nonzero;stroke:none"
         x="0 3.9508162 6.9529562"
         y="0"
         sodipodi:role="line"
         id="tspan13">V10</tspan></text>
    <text
       id="text14"
       xml:space="preserve"
       transform="matrix(1.3333333,0,0,1.3333333,386.16357,169.87571)"
       clip-path="url(#clipPath15)"><tspan
         style="font-variant:normal;font-weight:normal;font-stretch:normal;font-size:10.0916px;font-family:'Palatino Linotype';writing-mode:lr-tb;fill:#000000;fill-opacity:1;fill-rule:nonzero;stroke:none"
         x="0 5.045805 10.09161 15.137415 17.660318 26.571209"
         y="0"
         sodipodi:role="line"
         id="tspan14">200 mm</tspan></text>
    <text
       id="text15"
       xml:space="preserve"
       transform="matrix(1.3333333,0,0,1.3333333,24.94636,51.600293)"
       clip-path="url(#clipPath16)"><tspan
         style="font-variant:normal;font-weight:normal;font-stretch:normal;font-size:10.0916px;font-family:'Palatino Linotype';writing-mode:lr-tb;fill:#000000;fill-opacity:1;fill-rule:nonzero;stroke:none"
         x="0 5.045805 10.09161 15.137415 17.660318 23.271254"
         y="0"
         sodipodi:role="line"
         id="tspan15">800 kN</tspan></text>
    <text
       id="text16"
       xml:space="preserve"
       transform="matrix(1.3333333,0,0,1.3333333,67.549413,169.87571)"
       clip-path="url(#clipPath17)"><tspan
         style="font-variant:normal;font-weight:normal;font-stretch:normal;font-size:10.0916px;font-family:'Palatino Linotype';writing-mode:lr-tb;fill:#000000;fill-opacity:1;fill-rule:nonzero;stroke:none"
         x="0"
         y="0"
         id="tspan16">0</tspan></text>
    <text
       id="text17"
       xml:space="preserve"
       transform="matrix(1.3333333,0,0,1.3333333,317.52899,17.772787)"
       clip-path="url(#clipPath18)"><tspan
         style="font-variant:normal;font-weight:normal;font-stretch:normal;font-size:10.0916px;font-family:'Palatino Linotype';writing-mode:lr-tb;fill:#000000;fill-opacity:1;fill-rule:nonzero;stroke:none"
         x="0 5.045805 10.09161 15.137415 17.660318 23.271254"
         y="0"
         sodipodi:role="line"
         id="tspan17">975 kN</tspan></text>
    <text
       id="text18"
       xml:space="preserve"
       transform="matrix(1.3333333,0,0,1.3333333,219.61769,169.87571)"
       clip-path="url(#clipPath19)"><tspan
         style="font-variant:normal;font-weight:normal;font-stretch:normal;font-size:10.0916px;font-family:'Palatino Linotype';writing-mode:lr-tb;fill:#000000;fill-opacity:1;fill-rule:nonzero;stroke:none"
         x="0 5.045805 10.09161 15.137415 17.660318 26.571209"
         y="0"
         sodipodi:role="line"
         id="tspan18">100 mm</tspan></text>
    <text
       id="text19"
       xml:space="preserve"
       transform="matrix(1.3333333,0,0,1.3333333,170.54689,74.590267)"
       clip-path="url(#clipPath20)"><tspan
         style="font-style:italic;font-variant:normal;font-weight:normal;font-stretch:normal;font-size:8.0057px;font-family:'Palatino Linotype';writing-mode:lr-tb;fill:#000000;fill-opacity:1;fill-rule:nonzero;stroke:none"
         x="0 4.9555283 6.9569535 10.959804 12.961228"
         y="0"
         sodipodi:role="line"
         id="tspan19">λ = 1</tspan></text>
    <text
       id="text20"
       xml:space="preserve"
       transform="matrix(1.3333333,0,0,1.3333333,170.54689,85.928853)"
       clip-path="url(#clipPath21)"><tspan
         style="font-style:italic;font-variant:normal;font-weight:normal;font-stretch:normal;font-size:8.0057px;font-family:'Palatino Linotype';writing-mode:lr-tb;fill:#000000;fill-opacity:1;fill-rule:nonzero;stroke:none"
         x="0 4.9555283 6.9569535 10.959804 12.961228 16.964079 18.965504"
         y="0"
         sodipodi:role="line"
         id="tspan20">λ = 0.5</tspan></text>
    <text
       id="text21"
       xml:space="preserve"
       transform="matrix(1.3333333,0,0,1.3333333,384.05729,89.009853)"
       clip-path="url(#clipPath22)"><tspan
         style="font-variant:normal;font-weight:normal;font-stretch:normal;font-size:8.07329px;font-family:'Palatino Linotype';writing-mode:lr-tb;fill:#000000;fill-opacity:1;fill-rule:nonzero;stroke:none"
         x="0 7.6373324 11.504438 14.927513 18.350588 23.283369 27.320013 29.951906 33.819012"
         y="0"
         sodipodi:role="line"
         id="tspan21">Messdaten</tspan></text>
    <text
       id="text22"
       xml:space="preserve"
       transform="matrix(1.3333333,0,0,1.3333333,384.05729,104.12796)"
       clip-path="url(#clipPath23)"><tspan
         style="font-variant:normal;font-weight:normal;font-stretch:normal;font-size:8.07329px;font-family:'Palatino Linotype';writing-mode:lr-tb;fill:#000000;fill-opacity:1;fill-rule:nonzero;stroke:none"
         x="0 6.7089038 11.641685 16.130434 21.063213 23.751619 31.388952 35.796967 40.729748 44.596855 46.946182"
         y="0"
         sodipodi:role="line"
         id="tspan22">NLFE-Modell</tspan></text>
    <text
       id="text23"
       xml:space="preserve"
       transform="matrix(1.3333333,0,0,1.3333333,384.05729,119.24607)"
       clip-path="url(#clipPath24)"><tspan
         style="font-variant:normal;font-weight:normal;font-stretch:normal;font-size:8.07329px;font-family:'Palatino Linotype';writing-mode:lr-tb;fill:#000000;fill-opacity:1;fill-rule:nonzero;stroke:none"
         x="0 5.7239628 13.361295 20.998627 23.016951 29.29797 32.721043 36.58815 39.7771 46.905815 50.942459"
         y="0"
         sodipodi:role="line"
         id="tspan23">CMM Usermat</tspan></text>
    <path
       id="path25"
       d="m 127.91019,82.76598 h -11.3386 v 11.08094 m 0,1.27559 v 0 m 0,-2.55118 v 0 m -1.27558,1.27559 v 0 m 2.55117,0 v 0"
       style="fill:none;stroke:#000000;stroke-width:0.3685;stroke-linecap:round;stroke-linejoin:round;stroke-miterlimit:10;stroke-dasharray:none;stroke-opacity:1"
       transform="matrix(1.3333333,0,0,-1.3333333,0,181.41733)" />
    <path
       id="path26"
       d="m 116.57159,95.12251 c -0.70448,0 -1.27558,-0.5711 -1.27558,-1.27559 m 0,0 c 0,-0.70448 0.5711,-1.27559 1.27558,-1.27559 m 0,0 c 0.7045,0 1.27559,0.57111 1.27559,1.27559 m 0,0 c 0,0.70449 -0.57109,1.27559 -1.27559,1.27559"
       style="fill:none;stroke:#000000;stroke-width:0.3685;stroke-linecap:round;stroke-linejoin:round;stroke-miterlimit:10;stroke-dasharray:none;stroke-opacity:1"
       transform="matrix(1.3333333,0,0,-1.3333333,0,181.41733)" />
    <path
       id="path27"
       d="m 127.91019,74.26204 h -18.70867 v 12.08379 m 0,1.27558 v 0 m 0,-2.55117 v 0 m -1.27559,1.27559 v 0 m 2.55117,0 v 0"
       style="fill:none;stroke:#000000;stroke-width:0.3685;stroke-linecap:round;stroke-linejoin:round;stroke-miterlimit:10;stroke-dasharray:none;stroke-opacity:1"
       transform="matrix(1.3333333,0,0,-1.3333333,0,181.41733)" />
    <path
       id="path28"
       d="m 109.20152,87.62141 c -0.7045,0 -1.27559,-0.5711 -1.27559,-1.27558 m 0,0 c 0,-0.70449 0.57109,-1.27559 1.27559,-1.27559 m 0,0 c 0.70449,0 1.27559,0.5711 1.27559,1.27559 m 0,0 c 0,0.70448 -0.5711,1.27558 -1.27559,1.27558"
       style="fill:none;stroke:#000000;stroke-width:0.3685;stroke-linecap:round;stroke-linejoin:round;stroke-miterlimit:10;stroke-dasharray:none;stroke-opacity:1"
       transform="matrix(1.3333333,0,0,-1.3333333,0,181.41733)" />
    <path
       id="path29"
       d="m 56.82681,19.68796 v 96.46535 m 0,-5.95276 v -0.42521 m 0,6.37797 v 0 l -0.8504,-5.95276 h 1.70079 l -0.85039,5.95276"
       style="fill:none;stroke:#000000;stroke-width:0.3685;stroke-linecap:round;stroke-linejoin:round;stroke-miterlimit:10;stroke-dasharray:none;stroke-opacity:1"
       transform="matrix(1.3333333,0,0,-1.3333333,0,181.41733)" />
    <path
       id="path30"
       d="m 57.6772,110.20055 -0.85039,5.95276 -0.8504,-5.95276 z"
       style="fill:#000000;fill-opacity:1;fill-rule:nonzero;stroke:none"
       transform="matrix(1.3333333,0,0,-1.3333333,0,181.41733)" />
    <path
       id="path31"
       d="m 260.9213,19.68796 h 123.21978 m -5.95276,0 h -0.4252 m 6.37796,0 v 0 l -5.95276,0.85039 v -1.70078 l 5.95276,0.85039"
       style="fill:none;stroke:#000000;stroke-width:0.3685;stroke-linecap:round;stroke-linejoin:round;stroke-miterlimit:10;stroke-dasharray:none;stroke-opacity:1"
       transform="matrix(1.3333333,0,0,-1.3333333,0,181.41733)" />
    <path
       id="path32"
       d="m 378.18832,18.83757 5.95276,0.85039 -5.95276,0.85039 z"
       style="fill:#000000;fill-opacity:1;fill-rule:nonzero;stroke:none"
       transform="matrix(1.3333333,0,0,-1.3333333,0,181.41733)" />
    <path
       id="path33"
       d="m 56.82681,19.68796 h 327.31427 m -5.95276,0 h -0.4252 m 6.37796,0 v 0 l -5.95276,0.85039 v -1.70078 l 5.95276,0.85039"
       style="fill:none;stroke:#000000;stroke-width:0.3685;stroke-linecap:round;stroke-linejoin:round;stroke-miterlimit:10;stroke-dasharray:none;stroke-opacity:1"
       transform="matrix(1.3333333,0,0,-1.3333333,0,181.41733)" />
    <path
       id="path34"
       d="m 378.18832,18.83757 5.95276,0.85039 -5.95276,0.85039 z"
       style="fill:#000000;fill-opacity:1;fill-rule:nonzero;stroke:none"
       transform="matrix(1.3333333,0,0,-1.3333333,0,181.41733)" />
  </g>
</svg>
