<?xml version="1.0" encoding="UTF-8" standalone="no"?>
<!-- Created with Inkscape (http://www.inkscape.org/) -->

<svg
   version="1.1"
   id="svg1"
   width="566.92932"
   height="162.52"
   viewBox="0 0 566.92932 162.52"
   sodipodi:docname="tho_sigma_eps_beton_stahl.pdf"
   xmlns:inkscape="http://www.inkscape.org/namespaces/inkscape"
   xmlns:sodipodi="http://sodipodi.sourceforge.net/DTD/sodipodi-0.dtd"
   xmlns="http://www.w3.org/2000/svg"
   xmlns:svg="http://www.w3.org/2000/svg">
  <defs
     id="defs1">
    <clipPath
       clipPathUnits="userSpaceOnUse"
       id="clipPath13">
      <path
         d="M -0.00426,-0.00122 V 121.89099 H 425.20111 V -0.00122 H -0.00426"
         transform="matrix(1,0,0,-1,-63.204592,108.93923)"
         clip-rule="evenodd"
         id="path13" />
    </clipPath>
    <clipPath
       clipPathUnits="userSpaceOnUse"
       id="clipPath14">
      <path
         d="M -0.00426,-0.00122 V 121.89099 H 425.20111 V -0.00122 H -0.00426"
         transform="matrix(1,0,0,-1,-161.88648,8.6562302)"
         clip-rule="evenodd"
         id="path14" />
    </clipPath>
    <clipPath
       clipPathUnits="userSpaceOnUse"
       id="clipPath15">
      <path
         d="M -0.00426,-0.00122 V 121.89099 H 425.20111 V -0.00122 H -0.00426"
         transform="matrix(1,0,0,-1,-42.037191,82.882072)"
         clip-rule="evenodd"
         id="path15" />
    </clipPath>
    <clipPath
       clipPathUnits="userSpaceOnUse"
       id="clipPath16">
      <path
         d="M -0.00426,-0.00122 V 121.89099 H 425.20111 V -0.00122 H -0.00426"
         transform="matrix(1,0,0,-1,-45.464901,78.748212)"
         clip-rule="evenodd"
         id="path16" />
    </clipPath>
    <clipPath
       clipPathUnits="userSpaceOnUse"
       id="clipPath17">
      <path
         d="M -0.00426,-0.00122 V 121.89099 H 425.20111 V -0.00122 H -0.00426"
         transform="matrix(1,0,0,-1,-141.63057,8.6562302)"
         clip-rule="evenodd"
         id="path17" />
    </clipPath>
    <clipPath
       clipPathUnits="userSpaceOnUse"
       id="clipPath18">
      <path
         d="M -0.00426,-0.00122 V 121.89099 H 425.20111 V -0.00122 H -0.00426"
         transform="matrix(1,0,0,-1,-150.01389,4.5223726)"
         clip-rule="evenodd"
         id="path18" />
    </clipPath>
    <clipPath
       clipPathUnits="userSpaceOnUse"
       id="clipPath19">
      <path
         d="M -0.00426,-0.00122 V 121.89099 H 425.20111 V -0.00122 H -0.00426"
         transform="matrix(1,0,0,-1,-63.637162,8.6562302)"
         clip-rule="evenodd"
         id="path19" />
    </clipPath>
    <clipPath
       clipPathUnits="userSpaceOnUse"
       id="clipPath20">
      <path
         d="M -0.00426,-0.00122 V 121.89099 H 425.20111 V -0.00122 H -0.00426"
         transform="matrix(1,0,0,-1,-72.020472,4.5223726)"
         clip-rule="evenodd"
         id="path20" />
    </clipPath>
    <clipPath
       clipPathUnits="userSpaceOnUse"
       id="clipPath21">
      <path
         d="M -0.00426,-0.00122 V 121.89099 H 425.20111 V -0.00122 H -0.00426"
         transform="matrix(1,0,0,-1,-41.033251,8.6154602)"
         clip-rule="evenodd"
         id="path21" />
    </clipPath>
    <clipPath
       clipPathUnits="userSpaceOnUse"
       id="clipPath22">
      <path
         d="M -0.00426,-0.00122 V 121.89099 H 425.20111 V -0.00122 H -0.00426"
         transform="matrix(1,0,0,-1,-44.460961,4.4816026)"
         clip-rule="evenodd"
         id="path22" />
    </clipPath>
    <clipPath
       clipPathUnits="userSpaceOnUse"
       id="clipPath23">
      <path
         d="M -0.00426,-0.00122 V 121.89099 H 425.20111 V -0.00122 H -0.00426"
         transform="matrix(1,0,0,-1,-71.854692,46.642944)"
         clip-rule="evenodd"
         id="path23" />
    </clipPath>
    <clipPath
       clipPathUnits="userSpaceOnUse"
       id="clipPath24">
      <path
         d="M -0.00426,-0.00122 V 121.89099 H 425.20111 V -0.00122 H -0.00426"
         transform="matrix(1,0,0,-1,-78.142172,42.509079)"
         clip-rule="evenodd"
         id="path24" />
    </clipPath>
    <clipPath
       clipPathUnits="userSpaceOnUse"
       id="clipPath25">
      <path
         d="M -0.00426,-0.00122 V 121.89099 H 425.20111 V -0.00122 H -0.00426"
         transform="matrix(1,0,0,-1,-269.01169,108.93923)"
         clip-rule="evenodd"
         id="path25" />
    </clipPath>
    <clipPath
       clipPathUnits="userSpaceOnUse"
       id="clipPath26">
      <path
         d="M -0.00426,-0.00122 V 121.89099 H 425.20111 V -0.00122 H -0.00426"
         transform="matrix(1,0,0,-1,-367.69355,8.6562302)"
         clip-rule="evenodd"
         id="path26" />
    </clipPath>
    <clipPath
       clipPathUnits="userSpaceOnUse"
       id="clipPath27">
      <path
         d="M -0.00426,-0.00122 V 121.89099 H 425.20111 V -0.00122 H -0.00426"
         transform="matrix(1,0,0,-1,-269.5033,8.6562302)"
         clip-rule="evenodd"
         id="path27" />
    </clipPath>
    <clipPath
       clipPathUnits="userSpaceOnUse"
       id="clipPath28">
      <path
         d="M -0.00426,-0.00122 V 121.89099 H 425.20111 V -0.00122 H -0.00426"
         transform="matrix(1,0,0,-1,-274.45891,4.5223726)"
         clip-rule="evenodd"
         id="path28" />
    </clipPath>
    <clipPath
       clipPathUnits="userSpaceOnUse"
       id="clipPath29">
      <path
         d="M -0.00426,-0.00122 V 121.89099 H 425.20111 V -0.00122 H -0.00426"
         transform="matrix(1,0,0,-1,-244.47814,82.882072)"
         clip-rule="evenodd"
         id="path29" />
    </clipPath>
    <clipPath
       clipPathUnits="userSpaceOnUse"
       id="clipPath30">
      <path
         d="M -0.00426,-0.00122 V 121.89099 H 425.20111 V -0.00122 H -0.00426"
         transform="matrix(1,0,0,-1,-247.90585,78.748212)"
         clip-rule="evenodd"
         id="path30" />
    </clipPath>
    <clipPath
       clipPathUnits="userSpaceOnUse"
       id="clipPath31">
      <path
         d="M -0.00426,-0.00122 V 121.89099 H 425.20111 V -0.00122 H -0.00426"
         transform="matrix(1,0,0,-1,-276.00823,46.642944)"
         clip-rule="evenodd"
         id="path31" />
    </clipPath>
    <clipPath
       clipPathUnits="userSpaceOnUse"
       id="clipPath32">
      <path
         d="M -0.00426,-0.00122 V 121.89099 H 425.20111 V -0.00122 H -0.00426"
         transform="matrix(1,0,0,-1,-282.29572,42.509079)"
         clip-rule="evenodd"
         id="path32" />
    </clipPath>
    <clipPath
       clipPathUnits="userSpaceOnUse"
       id="clipPath33">
      <path
         d="M -0.00426,-0.00122 V 121.89099 H 425.20111 V -0.00122 H -0.00426"
         transform="matrix(1,0,0,-1,-244.30098,101.12772)"
         clip-rule="evenodd"
         id="path33" />
    </clipPath>
    <clipPath
       clipPathUnits="userSpaceOnUse"
       id="clipPath34">
      <path
         d="M -0.00426,-0.00122 V 121.89099 H 425.20111 V -0.00122 H -0.00426"
         transform="matrix(1,0,0,-1,-247.72869,96.993863)"
         clip-rule="evenodd"
         id="path34" />
    </clipPath>
    <clipPath
       clipPathUnits="userSpaceOnUse"
       id="clipPath35">
      <path
         d="M -0.00426,-0.00122 V 121.89099 H 425.20111 V -0.00122 H -0.00426"
         transform="matrix(1,0,0,-1,-345.84646,8.6562302)"
         clip-rule="evenodd"
         id="path35" />
    </clipPath>
    <clipPath
       clipPathUnits="userSpaceOnUse"
       id="clipPath36">
      <path
         d="M -0.00426,-0.00122 V 121.89099 H 425.20111 V -0.00122 H -0.00426"
         transform="matrix(1,0,0,-1,-350.80205,4.5223726)"
         clip-rule="evenodd"
         id="path36" />
    </clipPath>
    <clipPath
       clipPathUnits="userSpaceOnUse"
       id="clipPath37">
      <path
         d="M -0.00426,-0.00122 V 121.89099 H 425.20111 V -0.00122 H -0.00426"
         transform="matrix(1,0,0,-1,-331.13436,83.726572)"
         clip-rule="evenodd"
         id="path37" />
    </clipPath>
    <clipPath
       clipPathUnits="userSpaceOnUse"
       id="clipPath38">
      <path
         d="M -0.00426,-0.00122 V 121.89099 H 425.20111 V -0.00122 H -0.00426"
         transform="matrix(1,0,0,-1,-337.42185,79.592712)"
         clip-rule="evenodd"
         id="path38" />
    </clipPath>
    <clipPath
       clipPathUnits="userSpaceOnUse"
       id="clipPath47">
      <path
         d="M -0.00426,-0.00122 V 121.89099 H 425.20111 V -0.00122 H -0.00426"
         transform="matrix(1,0,0,-1,-5.7696502,107.99183)"
         clip-rule="evenodd"
         id="path47" />
    </clipPath>
    <clipPath
       clipPathUnits="userSpaceOnUse"
       id="clipPath48">
      <path
         d="M -0.00426,-0.00122 V 121.89099 H 425.20111 V -0.00122 H -0.00426"
         transform="matrix(1,0,0,-1,-209.62792,107.99183)"
         clip-rule="evenodd"
         id="path48" />
    </clipPath>
  </defs>
  <sodipodi:namedview
     id="namedview1"
     pagecolor="#ffffff"
     bordercolor="#000000"
     borderopacity="0.25"
     inkscape:showpageshadow="2"
     inkscape:pageopacity="0.0"
     inkscape:pagecheckerboard="0"
     inkscape:deskcolor="#d1d1d1">
    <inkscape:page
       x="0"
       y="0"
       inkscape:label="1"
       id="page1"
       width="566.92932"
       height="162.52"
       margin="0"
       bleed="0" />
  </sodipodi:namedview>
  <g
     id="g1"
     inkscape:groupmode="layer"
     inkscape:label="1">
    <path
       id="path1"
       d="m 56.82681,81.66248 h -2.83465 m 97.4786,-61.97451 v -2.83465"
       style="fill:none;stroke:#000000;stroke-width:0.3685;stroke-linecap:round;stroke-linejoin:round;stroke-miterlimit:10;stroke-dasharray:none;stroke-opacity:1"
       transform="matrix(1.3333333,0,0,-1.3333333,0,162.52)" />
    <path
       id="path2"
       d="m 54.23758,9.94704 19.06261,71.71544 h 78.17057"
       style="fill:none;stroke:#000000;stroke-width:0.70866;stroke-linecap:round;stroke-linejoin:round;stroke-miterlimit:10;stroke-dasharray:none;stroke-opacity:1"
       transform="matrix(1.3333333,0,0,-1.3333333,0,162.52)" />
    <path
       id="path3"
       d="M 73.30019,19.68797 V 16.85332"
       style="fill:none;stroke:#000000;stroke-width:0.3685;stroke-linecap:round;stroke-linejoin:round;stroke-miterlimit:10;stroke-dasharray:none;stroke-opacity:1"
       transform="matrix(1.3333333,0,0,-1.3333333,0,162.52)" />
    <path
       id="path4"
       d="m 65.77261,42.30844 4.17296,15.69913"
       style="fill:none;stroke:#000000;stroke-width:0.70866;stroke-linecap:round;stroke-linejoin:round;stroke-miterlimit:10;stroke-dasharray:none;stroke-opacity:1"
       transform="matrix(1.3333333,0,0,-1.3333333,0,162.52)" />
    <path
       id="path5"
       d="M 69.94557,58.00757 V 42.30844 H 65.77261 M 260.9213,81.66248 h -2.83466 m 19.30801,-61.97451 v -2.83465"
       style="fill:none;stroke:#000000;stroke-width:0.3685;stroke-linecap:round;stroke-linejoin:round;stroke-miterlimit:10;stroke-dasharray:none;stroke-opacity:1"
       transform="matrix(1.3333333,0,0,-1.3333333,0,162.52)" />
    <path
       id="path6"
       d="m 269.8671,42.30844 4.17297,15.69913"
       style="fill:none;stroke:#000000;stroke-width:0.70866;stroke-linecap:round;stroke-linejoin:round;stroke-miterlimit:10;stroke-dasharray:none;stroke-opacity:1"
       transform="matrix(1.3333333,0,0,-1.3333333,0,162.52)" />
    <path
       id="path7"
       d="M 274.04007,58.00757 V 42.30844 h -4.17297 m -8.9458,57.59969 h -2.83466"
       style="fill:none;stroke:#000000;stroke-width:0.3685;stroke-linecap:round;stroke-linejoin:round;stroke-miterlimit:10;stroke-dasharray:none;stroke-opacity:1"
       transform="matrix(1.3333333,0,0,-1.3333333,0,162.52)" />
    <path
       id="path8"
       d="m 260.9213,19.68797 16.47335,61.97451 76.52033,17.00779"
       style="fill:none;stroke:#000000;stroke-width:0.70866;stroke-linecap:round;stroke-linejoin:round;stroke-miterlimit:10;stroke-dasharray:none;stroke-opacity:1"
       transform="matrix(1.3333333,0,0,-1.3333333,0,162.52)" />
    <path
       id="path9"
       d="m 277.39465,81.66248 2.13056,8.20564 2.98279,3.17637 5.96554,4.49988 3.83499,1.85288 9.37445,3.44108 5.11335,0.7941 9.80053,2.11759 10.43711,1.40913 5.96557,0.26469 h 5.53943 l 5.96555,-0.52939 h 6.81778 l 3.40887,-2.91168 0.85223,-2.91168 0.85224,-2.38229"
       style="fill:none;stroke:#7f7f7f;stroke-width:0.70866;stroke-linecap:round;stroke-linejoin:round;stroke-miterlimit:10;stroke-dasharray:none;stroke-opacity:1"
       transform="matrix(1.3333333,0,0,-1.3333333,0,162.52)" />
    <path
       id="path10"
       d="M 353.91498,19.68797 V 16.85332"
       style="fill:none;stroke:#000000;stroke-width:0.3685;stroke-linecap:round;stroke-linejoin:round;stroke-miterlimit:10;stroke-dasharray:none;stroke-opacity:1"
       transform="matrix(1.3333333,0,0,-1.3333333,0,162.52)" />
    <path
       id="path11"
       d="m 308.88562,85.151 19.27985,5.11649"
       style="fill:none;stroke:#000000;stroke-width:0.70866;stroke-linecap:round;stroke-linejoin:round;stroke-miterlimit:10;stroke-dasharray:none;stroke-opacity:1"
       transform="matrix(1.3333333,0,0,-1.3333333,0,162.52)" />
    <path
       id="path12"
       d="M 328.16547,90.26749 V 85.151 h -19.27985"
       style="fill:none;stroke:#000000;stroke-width:0.3685;stroke-linecap:round;stroke-linejoin:round;stroke-miterlimit:10;stroke-dasharray:none;stroke-opacity:1"
       transform="matrix(1.3333333,0,0,-1.3333333,0,162.52)" />
    <text
       id="text12"
       xml:space="preserve"
       transform="matrix(1.3333333,0,0,1.3333333,84.272787,17.267693)"
       clip-path="url(#clipPath13)"><tspan
         style="font-style:italic;font-variant:normal;font-weight:normal;font-stretch:normal;font-size:10.0071px;font-family:'Palatino Linotype';writing-mode:lr-tb;fill:#000000;fill-opacity:1;fill-rule:nonzero;stroke:none"
         x="0 3.3323743"
         y="0"
         sodipodi:role="line"
         id="tspan12">-σ</tspan></text>
    <text
       id="text13"
       xml:space="preserve"
       transform="matrix(1.3333333,0,0,1.3333333,215.84864,150.97836)"
       clip-path="url(#clipPath14)"><tspan
         style="font-style:italic;font-variant:normal;font-weight:normal;font-stretch:normal;font-size:10.0071px;font-family:'Palatino Linotype';writing-mode:lr-tb;fill:#000000;fill-opacity:1;fill-rule:nonzero;stroke:none"
         x="0 3.3323743"
         y="0"
         sodipodi:role="line"
         id="tspan13">-ε</tspan></text>
    <text
       id="text14"
       xml:space="preserve"
       transform="matrix(1.3333333,0,0,1.3333333,56.049587,52.010573)"
       clip-path="url(#clipPath15)"><tspan
         style="font-style:italic;font-variant:normal;font-weight:normal;font-stretch:normal;font-size:10.0071px;font-family:'Palatino Linotype';writing-mode:lr-tb;fill:#000000;fill-opacity:1;fill-rule:nonzero;stroke:none"
         x="0"
         y="0"
         id="tspan14">f</tspan></text>
    <text
       id="text15"
       xml:space="preserve"
       transform="matrix(1.3333333,0,0,1.3333333,60.619867,57.522387)"
       clip-path="url(#clipPath16)"><tspan
         style="font-style:italic;font-variant:normal;font-weight:normal;font-stretch:normal;font-size:6.00428px;font-family:'Palatino Linotype';writing-mode:lr-tb;fill:#000000;fill-opacity:1;fill-rule:nonzero;stroke:none"
         x="0"
         y="0"
         id="tspan15">c</tspan></text>
    <text
       id="text16"
       xml:space="preserve"
       transform="matrix(1.3333333,0,0,1.3333333,188.84075,150.97836)"
       clip-path="url(#clipPath17)"><tspan
         style="font-style:italic;font-variant:normal;font-weight:normal;font-stretch:normal;font-size:10.0071px;font-family:'Palatino Linotype';writing-mode:lr-tb;fill:#000000;fill-opacity:1;fill-rule:nonzero;stroke:none"
         x="0 3.3323743"
         y="0"
         sodipodi:role="line"
         id="tspan16">-ε</tspan></text>
    <text
       id="text17"
       xml:space="preserve"
       transform="matrix(1.3333333,0,0,1.3333333,200.01851,156.49017)"
       clip-path="url(#clipPath18)"><tspan
         style="font-style:italic;font-variant:normal;font-weight:normal;font-stretch:normal;font-size:6.00428px;font-family:'Palatino Linotype';writing-mode:lr-tb;fill:#000000;fill-opacity:1;fill-rule:nonzero;stroke:none"
         x="0 2.443742"
         y="0"
         sodipodi:role="line"
         id="tspan17">cu</tspan></text>
    <text
       id="text18"
       xml:space="preserve"
       transform="matrix(1.3333333,0,0,1.3333333,84.849547,150.97836)"
       clip-path="url(#clipPath19)"><tspan
         style="font-style:italic;font-variant:normal;font-weight:normal;font-stretch:normal;font-size:10.0071px;font-family:'Palatino Linotype';writing-mode:lr-tb;fill:#000000;fill-opacity:1;fill-rule:nonzero;stroke:none"
         x="0 3.3323743"
         y="0"
         sodipodi:role="line"
         id="tspan18">-ε</tspan></text>
    <text
       id="text19"
       xml:space="preserve"
       transform="matrix(1.3333333,0,0,1.3333333,96.027293,156.49017)"
       clip-path="url(#clipPath20)"><tspan
         style="font-style:italic;font-variant:normal;font-weight:normal;font-stretch:normal;font-size:6.00428px;font-family:'Palatino Linotype';writing-mode:lr-tb;fill:#000000;fill-opacity:1;fill-rule:nonzero;stroke:none"
         x="0 2.443742"
         y="0"
         sodipodi:role="line"
         id="tspan19">cy</tspan></text>
    <text
       id="text20"
       xml:space="preserve"
       transform="matrix(1.3333333,0,0,1.3333333,54.711,151.03272)"
       clip-path="url(#clipPath21)"><tspan
         style="font-style:italic;font-variant:normal;font-weight:normal;font-stretch:normal;font-size:10.0071px;font-family:'Palatino Linotype';writing-mode:lr-tb;fill:#000000;fill-opacity:1;fill-rule:nonzero;stroke:none"
         x="0"
         y="0"
         id="tspan20">f</tspan></text>
    <text
       id="text21"
       xml:space="preserve"
       transform="matrix(1.3333333,0,0,1.3333333,59.28128,156.54453)"
       clip-path="url(#clipPath22)"><tspan
         style="font-style:italic;font-variant:normal;font-weight:normal;font-stretch:normal;font-size:6.00428px;font-family:'Palatino Linotype';writing-mode:lr-tb;fill:#000000;fill-opacity:1;fill-rule:nonzero;stroke:none"
         x="0 2.443742"
         y="0"
         sodipodi:role="line"
         id="tspan21">ct</tspan></text>
    <text
       id="text22"
       xml:space="preserve"
       transform="matrix(1.3333333,0,0,1.3333333,95.806253,100.32941)"
       clip-path="url(#clipPath23)"><tspan
         style="font-style:italic;font-variant:normal;font-weight:normal;font-stretch:normal;font-size:10.0071px;font-family:'Palatino Linotype';writing-mode:lr-tb;fill:#000000;fill-opacity:1;fill-rule:nonzero;stroke:none"
         x="0"
         y="0"
         id="tspan22">E</tspan></text>
    <text
       id="text23"
       xml:space="preserve"
       transform="matrix(1.3333333,0,0,1.3333333,104.18956,105.84123)"
       clip-path="url(#clipPath24)"><tspan
         style="font-style:italic;font-variant:normal;font-weight:normal;font-stretch:normal;font-size:6.00428px;font-family:'Palatino Linotype';writing-mode:lr-tb;fill:#000000;fill-opacity:1;fill-rule:nonzero;stroke:none"
         x="0"
         y="0"
         id="tspan23">c</tspan></text>
    <text
       id="text24"
       xml:space="preserve"
       transform="matrix(1.3333333,0,0,1.3333333,358.68224,17.267693)"
       clip-path="url(#clipPath25)"><tspan
         style="font-style:italic;font-variant:normal;font-weight:normal;font-stretch:normal;font-size:10.0071px;font-family:'Palatino Linotype';writing-mode:lr-tb;fill:#000000;fill-opacity:1;fill-rule:nonzero;stroke:none"
         x="0"
         y="0"
         id="tspan24">σ</tspan></text>
    <text
       id="text25"
       xml:space="preserve"
       transform="matrix(1.3333333,0,0,1.3333333,490.25805,150.97836)"
       clip-path="url(#clipPath26)"><tspan
         style="font-style:italic;font-variant:normal;font-weight:normal;font-stretch:normal;font-size:10.0071px;font-family:'Palatino Linotype';writing-mode:lr-tb;fill:#000000;fill-opacity:1;fill-rule:nonzero;stroke:none"
         x="0"
         y="0"
         id="tspan25">ε</tspan></text>
    <text
       id="text26"
       xml:space="preserve"
       transform="matrix(1.3333333,0,0,1.3333333,359.33773,150.97836)"
       clip-path="url(#clipPath27)"><tspan
         style="font-style:italic;font-variant:normal;font-weight:normal;font-stretch:normal;font-size:10.0071px;font-family:'Palatino Linotype';writing-mode:lr-tb;fill:#000000;fill-opacity:1;fill-rule:nonzero;stroke:none"
         x="0"
         y="0"
         id="tspan26">ε</tspan></text>
    <text
       id="text27"
       xml:space="preserve"
       transform="matrix(1.3333333,0,0,1.3333333,365.94521,156.49017)"
       clip-path="url(#clipPath28)"><tspan
         style="font-style:italic;font-variant:normal;font-weight:normal;font-stretch:normal;font-size:6.00428px;font-family:'Palatino Linotype';writing-mode:lr-tb;fill:#000000;fill-opacity:1;fill-rule:nonzero;stroke:none"
         x="0 2.335665"
         y="0"
         sodipodi:role="line"
         id="tspan27">sy</tspan></text>
    <text
       id="text28"
       xml:space="preserve"
       transform="matrix(1.3333333,0,0,1.3333333,325.97084,52.010573)"
       clip-path="url(#clipPath29)"><tspan
         style="font-style:italic;font-variant:normal;font-weight:normal;font-stretch:normal;font-size:10.0071px;font-family:'Palatino Linotype';writing-mode:lr-tb;fill:#000000;fill-opacity:1;fill-rule:nonzero;stroke:none"
         x="0"
         y="0"
         id="tspan28">f</tspan></text>
    <text
       id="text29"
       xml:space="preserve"
       transform="matrix(1.3333333,0,0,1.3333333,330.54113,57.522387)"
       clip-path="url(#clipPath30)"><tspan
         style="font-style:italic;font-variant:normal;font-weight:normal;font-stretch:normal;font-size:6.00428px;font-family:'Palatino Linotype';writing-mode:lr-tb;fill:#000000;fill-opacity:1;fill-rule:nonzero;stroke:none"
         x="0 2.335665"
         y="0"
         sodipodi:role="line"
         id="tspan29">sy</tspan></text>
    <text
       id="text30"
       xml:space="preserve"
       transform="matrix(1.3333333,0,0,1.3333333,368.01096,100.32941)"
       clip-path="url(#clipPath31)"><tspan
         style="font-style:italic;font-variant:normal;font-weight:normal;font-stretch:normal;font-size:10.0071px;font-family:'Palatino Linotype';writing-mode:lr-tb;fill:#000000;fill-opacity:1;fill-rule:nonzero;stroke:none"
         x="0"
         y="0"
         id="tspan30">E</tspan></text>
    <text
       id="text31"
       xml:space="preserve"
       transform="matrix(1.3333333,0,0,1.3333333,376.39428,105.84123)"
       clip-path="url(#clipPath32)"><tspan
         style="font-style:italic;font-variant:normal;font-weight:normal;font-stretch:normal;font-size:6.00428px;font-family:'Palatino Linotype';writing-mode:lr-tb;fill:#000000;fill-opacity:1;fill-rule:nonzero;stroke:none"
         x="0"
         y="0"
         id="tspan31">s</tspan></text>
    <text
       id="text32"
       xml:space="preserve"
       transform="matrix(1.3333333,0,0,1.3333333,325.73463,27.68304)"
       clip-path="url(#clipPath33)"><tspan
         style="font-style:italic;font-variant:normal;font-weight:normal;font-stretch:normal;font-size:10.0071px;font-family:'Palatino Linotype';writing-mode:lr-tb;fill:#000000;fill-opacity:1;fill-rule:nonzero;stroke:none"
         x="0"
         y="0"
         id="tspan32">f</tspan></text>
    <text
       id="text33"
       xml:space="preserve"
       transform="matrix(1.3333333,0,0,1.3333333,330.30491,33.194853)"
       clip-path="url(#clipPath34)"><tspan
         style="font-style:italic;font-variant:normal;font-weight:normal;font-stretch:normal;font-size:6.00428px;font-family:'Palatino Linotype';writing-mode:lr-tb;fill:#000000;fill-opacity:1;fill-rule:nonzero;stroke:none"
         x="0 2.335665"
         y="0"
         sodipodi:role="line"
         id="tspan33">su</tspan></text>
    <text
       id="text34"
       xml:space="preserve"
       transform="matrix(1.3333333,0,0,1.3333333,461.1286,150.97836)"
       clip-path="url(#clipPath35)"><tspan
         style="font-style:italic;font-variant:normal;font-weight:normal;font-stretch:normal;font-size:10.0071px;font-family:'Palatino Linotype';writing-mode:lr-tb;fill:#000000;fill-opacity:1;fill-rule:nonzero;stroke:none"
         x="0"
         y="0"
         id="tspan34">ε</tspan></text>
    <text
       id="text35"
       xml:space="preserve"
       transform="matrix(1.3333333,0,0,1.3333333,467.73605,156.49017)"
       clip-path="url(#clipPath36)"><tspan
         style="font-style:italic;font-variant:normal;font-weight:normal;font-stretch:normal;font-size:6.00428px;font-family:'Palatino Linotype';writing-mode:lr-tb;fill:#000000;fill-opacity:1;fill-rule:nonzero;stroke:none"
         x="0 2.335665"
         y="0"
         sodipodi:role="line"
         id="tspan35">su</tspan></text>
    <text
       id="text36"
       xml:space="preserve"
       transform="matrix(1.3333333,0,0,1.3333333,441.51247,50.884573)"
       clip-path="url(#clipPath37)"><tspan
         style="font-style:italic;font-variant:normal;font-weight:normal;font-stretch:normal;font-size:10.0071px;font-family:'Palatino Linotype';writing-mode:lr-tb;fill:#000000;fill-opacity:1;fill-rule:nonzero;stroke:none"
         x="0"
         y="0"
         id="tspan36">E</tspan></text>
    <text
       id="text37"
       xml:space="preserve"
       transform="matrix(1.3333333,0,0,1.3333333,449.89579,56.396387)"
       clip-path="url(#clipPath38)"><tspan
         style="font-style:italic;font-variant:normal;font-weight:normal;font-stretch:normal;font-size:6.00428px;font-family:'Palatino Linotype';writing-mode:lr-tb;fill:#000000;fill-opacity:1;fill-rule:nonzero;stroke:none"
         x="0 2.335665"
         y="0"
         sodipodi:role="line"
         id="tspan37">sh</tspan></text>
    <path
       id="path39"
       d="m 56.82681,19.68797 h 123.21976 m -5.95273,0 h -0.4252 m 6.37793,0 v 0 l -5.95273,0.85039 v -1.70077 l 5.95273,0.85038"
       style="fill:none;stroke:#000000;stroke-width:0.3685;stroke-linecap:round;stroke-linejoin:round;stroke-miterlimit:10;stroke-dasharray:none;stroke-opacity:1"
       transform="matrix(1.3333333,0,0,-1.3333333,0,162.52)" />
    <path
       id="path40"
       d="m 174.09384,18.83759 5.95273,0.85038 -5.95273,0.85039 z"
       style="fill:#000000;fill-opacity:1;fill-rule:nonzero;stroke:none"
       transform="matrix(1.3333333,0,0,-1.3333333,0,162.52)" />
    <path
       id="path41"
       d="m 56.82681,19.68797 v 96.46535 m 0,-5.95276 v -0.4252 m 0,6.37796 v 0 l -0.8504,-5.95276 h 1.70079 l -0.85039,5.95276"
       style="fill:none;stroke:#000000;stroke-width:0.3685;stroke-linecap:round;stroke-linejoin:round;stroke-miterlimit:10;stroke-dasharray:none;stroke-opacity:1"
       transform="matrix(1.3333333,0,0,-1.3333333,0,162.52)" />
    <path
       id="path42"
       d="m 57.6772,110.20056 -0.85039,5.95276 -0.8504,-5.95276 z"
       style="fill:#000000;fill-opacity:1;fill-rule:nonzero;stroke:none"
       transform="matrix(1.3333333,0,0,-1.3333333,0,162.52)" />
    <path
       id="path43"
       d="m 260.9213,19.68797 h 123.21978 m -5.95276,0 h -0.4252 m 6.37796,0 v 0 l -5.95276,0.85039 v -1.70077 l 5.95276,0.85038"
       style="fill:none;stroke:#000000;stroke-width:0.3685;stroke-linecap:round;stroke-linejoin:round;stroke-miterlimit:10;stroke-dasharray:none;stroke-opacity:1"
       transform="matrix(1.3333333,0,0,-1.3333333,0,162.52)" />
    <path
       id="path44"
       d="m 378.18832,18.83759 5.95276,0.85038 -5.95276,0.85039 z"
       style="fill:#000000;fill-opacity:1;fill-rule:nonzero;stroke:none"
       transform="matrix(1.3333333,0,0,-1.3333333,0,162.52)" />
    <path
       id="path45"
       d="m 260.9213,19.68797 v 96.46535 m 0,-5.95276 v -0.4252 m 0,6.37796 v 0 l -0.85041,-5.95276 h 1.70081 l -0.8504,5.95276"
       style="fill:none;stroke:#000000;stroke-width:0.3685;stroke-linecap:round;stroke-linejoin:round;stroke-miterlimit:10;stroke-dasharray:none;stroke-opacity:1"
       transform="matrix(1.3333333,0,0,-1.3333333,0,162.52)" />
    <path
       id="path46"
       d="m 261.7717,110.20056 -0.8504,5.95276 -0.85041,-5.95276 z"
       style="fill:#000000;fill-opacity:1;fill-rule:nonzero;stroke:none"
       transform="matrix(1.3333333,0,0,-1.3333333,0,162.52)" />
    <text
       id="text46"
       xml:space="preserve"
       transform="matrix(1.3333333,0,0,1.3333333,7.6928667,18.530893)"
       clip-path="url(#clipPath47)"><tspan
         style="font-style:italic;font-variant:normal;font-weight:normal;font-stretch:normal;font-size:10.0071px;font-family:'Palatino Linotype';writing-mode:lr-tb;fill:#000000;fill-opacity:1;fill-rule:nonzero;stroke:none"
         x="0 4.4431658"
         y="0"
         sodipodi:role="line"
         id="tspan46">a)</tspan></text>
    <text
       id="text47"
       xml:space="preserve"
       transform="matrix(1.3333333,0,0,1.3333333,279.50389,18.530893)"
       clip-path="url(#clipPath48)"><tspan
         style="font-style:italic;font-variant:normal;font-weight:normal;font-stretch:normal;font-size:10.0071px;font-family:'Palatino Linotype';writing-mode:lr-tb;fill:#000000;fill-opacity:1;fill-rule:nonzero;stroke:none"
         x="0 4.6333013"
         y="0"
         sodipodi:role="line"
         id="tspan47">b)</tspan></text>
  </g>
</svg>
