<?xml version="1.0" encoding="UTF-8" standalone="no"?>
<!-- Created with Inkscape (http://www.inkscape.org/) -->

<svg
   version="1.1"
   id="svg1"
   width="566.92932"
   height="132.28346"
   viewBox="0 0 566.92932 132.28346"
   sodipodi:docname="tho_qs_mr.pdf"
   xmlns:inkscape="http://www.inkscape.org/namespaces/inkscape"
   xmlns:sodipodi="http://sodipodi.sourceforge.net/DTD/sodipodi-0.dtd"
   xmlns="http://www.w3.org/2000/svg"
   xmlns:svg="http://www.w3.org/2000/svg">
  <defs
     id="defs1">
    <clipPath
       clipPathUnits="userSpaceOnUse"
       id="clipPath17">
      <path
         d="M -0.00426,-9.9e-4 V 99.21359 H 425.20111 V -9.9e-4 H -0.00426"
         transform="matrix(1,0,0,-1,-18.29667,70.838932)"
         clip-rule="evenodd"
         id="path17" />
    </clipPath>
    <clipPath
       clipPathUnits="userSpaceOnUse"
       id="clipPath18">
      <path
         d="M -0.00426,-9.9e-4 V 99.21359 H 425.20111 V -9.9e-4 H -0.00426"
         transform="matrix(1,0,0,-1,-28.031961,66.705072)"
         clip-rule="evenodd"
         id="path18" />
    </clipPath>
    <clipPath
       clipPathUnits="userSpaceOnUse"
       id="clipPath19">
      <path
         d="M -0.00426,-9.9e-4 V 99.21359 H 425.20111 V -9.9e-4 H -0.00426"
         transform="matrix(1,0,0,-1,-226.07451,86.047302)"
         clip-rule="evenodd"
         id="path19" />
    </clipPath>
    <clipPath
       clipPathUnits="userSpaceOnUse"
       id="clipPath20">
      <path
         d="M -0.00426,-9.9e-4 V 99.21359 H 425.20111 V -9.9e-4 H -0.00426"
         transform="matrix(1,0,0,-1,-229.50222,81.913442)"
         clip-rule="evenodd"
         id="path20" />
    </clipPath>
    <clipPath
       clipPathUnits="userSpaceOnUse"
       id="clipPath21">
      <path
         d="M -0.00426,-9.9e-4 V 99.21359 H 425.20111 V -9.9e-4 H -0.00426"
         transform="matrix(1,0,0,-1,-290.7436,9.6893902)"
         clip-rule="evenodd"
         id="path21" />
    </clipPath>
    <clipPath
       clipPathUnits="userSpaceOnUse"
       id="clipPath22">
      <path
         d="M -0.00426,-9.9e-4 V 99.21359 H 425.20111 V -9.9e-4 H -0.00426"
         transform="matrix(1,0,0,-1,-294.17128,5.5555326)"
         clip-rule="evenodd"
         id="path22" />
    </clipPath>
    <clipPath
       clipPathUnits="userSpaceOnUse"
       id="clipPath24">
      <path
         d="M -0.00426,-9.9e-4 V 99.21359 H 425.20111 V -9.9e-4 H -0.00426"
         transform="matrix(0,1,1,0,-45.640431,-393.65563)"
         clip-rule="evenodd"
         id="path24" />
    </clipPath>
    <clipPath
       clipPathUnits="userSpaceOnUse"
       id="clipPath26">
      <path
         d="M -0.00426,-9.9e-4 V 99.21359 H 425.20111 V -9.9e-4 H -0.00426"
         transform="matrix(1,0,0,-1,-180.52636,40.693901)"
         clip-rule="evenodd"
         id="path26" />
    </clipPath>
    <clipPath
       clipPathUnits="userSpaceOnUse"
       id="clipPath27">
      <path
         d="M -0.00426,-9.9e-4 V 99.21359 H 425.20111 V -9.9e-4 H -0.00426"
         transform="matrix(1,0,0,-1,-186.46203,36.560041)"
         clip-rule="evenodd"
         id="path27" />
    </clipPath>
    <clipPath
       clipPathUnits="userSpaceOnUse"
       id="clipPath29">
      <path
         d="M -0.00426,-9.9e-4 V 99.21359 H 425.20111 V -9.9e-4 H -0.00426"
         transform="matrix(0,1,1,0,-50.823852,-120.4173)"
         clip-rule="evenodd"
         id="path29" />
    </clipPath>
    <clipPath
       clipPathUnits="userSpaceOnUse"
       id="clipPath31">
      <path
         d="M -0.00426,-9.9e-4 V 99.21359 H 425.20111 V -9.9e-4 H -0.00426"
         transform="matrix(1,0,0,-1,-48.717611,32.472721)"
         clip-rule="evenodd"
         id="path31" />
    </clipPath>
    <clipPath
       clipPathUnits="userSpaceOnUse"
       id="clipPath32">
      <path
         d="M -0.00426,-9.9e-4 V 99.21359 H 425.20111 V -9.9e-4 H -0.00426"
         transform="matrix(1,0,0,-1,-82.07581,46.822621)"
         clip-rule="evenodd"
         id="path32" />
    </clipPath>
    <clipPath
       clipPathUnits="userSpaceOnUse"
       id="clipPath33">
      <path
         d="M -0.00426,-9.9e-4 V 99.21359 H 425.20111 V -9.9e-4 H -0.00426"
         transform="matrix(1,0,0,-1,-47.259521,47.263211)"
         clip-rule="evenodd"
         id="path33" />
    </clipPath>
  </defs>
  <sodipodi:namedview
     id="namedview1"
     pagecolor="#ffffff"
     bordercolor="#000000"
     borderopacity="0.25"
     inkscape:showpageshadow="2"
     inkscape:pageopacity="0.0"
     inkscape:pagecheckerboard="0"
     inkscape:deskcolor="#d1d1d1">
    <inkscape:page
       x="0"
       y="0"
       inkscape:label="1"
       id="page1"
       width="566.92932"
       height="132.28346"
       margin="0"
       bleed="0" />
  </sodipodi:namedview>
  <g
     id="g1"
     inkscape:groupmode="layer"
     inkscape:label="1">
    <path
       id="path1"
       d="M 42.37123,71.01695 C 30.72641,65.91806 25.41989,52.34459 30.5188,40.69977 m 0,0 c 2.36548,-5.40227 6.71431,-9.69048 12.14923,-11.97992"
       style="fill:none;stroke:#000000;stroke-width:0.51024;stroke-linecap:round;stroke-linejoin:round;stroke-miterlimit:10;stroke-dasharray:none;stroke-opacity:1"
       transform="matrix(1.3333333,0,0,-1.3333333,0,132.28347)" />
    <path
       id="path2"
       d="m 39.93512,69.56763 2.43611,1.44932 M 37.2554,67.97336 36.88998,67.75595 m 5.48125,3.261 v 0 l -5.55063,-2.31277 0.8696,-1.46166 4.68103,3.77443"
       style="fill:none;stroke:#000000;stroke-width:0.3685;stroke-linecap:round;stroke-linejoin:round;stroke-miterlimit:10;stroke-dasharray:none;stroke-opacity:1"
       transform="matrix(1.3333333,0,0,-1.3333333,0,132.28347)" />
    <path
       id="path3"
       d="m 37.6902,67.24252 4.68103,3.77443 -5.55063,-2.31277 z"
       style="fill:#000000;fill-opacity:1;fill-rule:nonzero;stroke:none"
       transform="matrix(1.3333333,0,0,-1.3333333,0,132.28347)" />
    <path
       id="path4"
       d="m 59.76776,78.1171 h 42.51969 M 59.76776,72.4478 h 42.51969 m 52.02151,5.6693 h 17.00787 M 375.41132,67.02806 h -19.84253 m 5.95276,0 h 0.4252 m -6.37796,0 v 0 l 5.95276,-0.85039 v 1.70078 l -5.95276,-0.85039"
       style="fill:none;stroke:#000000;stroke-width:0.3685;stroke-linecap:round;stroke-linejoin:round;stroke-miterlimit:10;stroke-dasharray:none;stroke-opacity:1"
       transform="matrix(1.3333333,0,0,-1.3333333,0,132.28347)" />
    <path
       id="path5"
       d="m 361.52155,67.87845 -5.95276,-0.85039 5.95276,-0.85039 z"
       style="fill:#000000;fill-opacity:1;fill-rule:nonzero;stroke:none"
       transform="matrix(1.3333333,0,0,-1.3333333,0,132.28347)" />
    <path
       id="path6"
       d="m 102.28745,78.1171 h 1.17712 m 2.83464,0 h 4.25197 m 2.83465,0 h 4.25197 m 2.83464,0 h 4.25197 m 2.83464,0 h 4.25199 m 2.83465,0 h 4.25195 m 2.83466,0 h 4.25195 m 2.83466,0 h 4.25195 m 2.83466,0 h 4.25198 m 2.83463,0 h 4.25198 m 2.83463,0 h 4.25198 m 2.83465,0 h 4.25196 m 2.83465,0 h 4.25196 m 2.83465,0 h 4.25196 m 2.83465,0 h 4.25199 m 2.83462,0 h 4.25198 m 2.83463,0 h 4.25198 m 2.83466,0 h 4.25195 m 2.83466,0 h 4.25195 m 2.83466,0 h 4.25195 m 2.83466,0 h 4.25198 m 2.83462,0 h 4.25199 m 2.83462,0 h 4.25199 m 2.83462,0 h 4.25199 m 2.83465,0 h 4.25195 m 2.83466,0 h 4.25195 m 2.83466,0 h 4.25195 m 2.83466,0 h 4.25198 m 2.83463,0 h 4.25198 m 2.83463,0 h 4.25198 m 2.83466,0 h 4.25195 m 2.83465,0 h 4.25196 m 2.83465,0 h 4.25196 m 2.83465,0 h 4.25199 m 2.83462,0 h 4.25198 m 2.83463,0 h 4.25198 m 2.83466,0 h 4.25195 m 2.83466,0 h 4.25195 m 2.83466,0 h 4.25198 m -270.46847,0 v 0 m 273.12387,0 v 0 M 59.76776,69.61316 h 42.51969 m 142.73016,8.50394 h 17.00787 M 59.76776,21.42418 h 42.51969 m -42.51969,5.6693 h 42.51969 m 0,-5.6693 h 1.17712 m 2.83464,0 h 4.25197 m 2.83465,0 h 4.25197 m 2.83464,0 h 4.25197 m 2.83464,0 h 4.25199"
       style="fill:none;stroke:#000000;stroke-width:0.3685;stroke-linecap:round;stroke-linejoin:round;stroke-miterlimit:10;stroke-dasharray:none;stroke-opacity:1"
       transform="matrix(1.3333333,0,0,-1.3333333,0,132.28347)" />
    <path
       id="path7"
       d="m 134.64569,21.42418 h 4.25195 m 2.83466,0 h 4.25195 m 2.83466,0 h 4.25195 m 2.83466,0 h 4.25198 m 2.83463,0 h 4.25198 m 2.83463,0 h 4.25198 m 2.83465,0 h 4.25196 m 2.83465,0 h 4.25196 m 2.83465,0 h 4.25196 m 2.83465,0 h 4.25199 m 2.83462,0 h 4.25198 m 2.83463,0 h 4.25198 m 2.83466,0 h 4.25195 m 2.83466,0 h 4.25195 m 2.83466,0 h 4.25195 m 2.83466,0 h 4.25198 m 2.83462,0 h 4.25199 m 2.83462,0 h 4.25199 m 2.83462,0 h 4.25199 m 2.83465,0 h 4.25195 m 2.83466,0 h 4.25195 m 2.83466,0 h 4.25195 m 2.83466,0 h 4.25198 m 2.83463,0 h 4.25198 m 2.83463,0 h 4.25198 m 2.83466,0 h 4.25195 m 2.83465,0 h 4.25196 m 2.83465,0 h 4.25196 m 2.83465,0 h 4.25199 m 2.83462,0 h 4.25198 m 2.83463,0 h 4.25198 m 2.83466,0 h 4.25195 m 2.83466,0 h 4.25195 m 2.83466,0 h 4.25198 m -270.46847,0 v 0 m 273.12387,0 v 0 m -204.09449,0 h 17.00788 m -17.00788,0 h 17.00788 m -128.55695,5.6693 h 42.51969 m -42.51969,2.83464 h 42.51969 m 253.28134,-1.41733 h 19.84253 m -5.95276,0 h -0.4252 m 6.37796,0 v 0 l -5.95276,0.8504 V 27.6604 l 5.95276,0.85039"
       style="fill:none;stroke:#000000;stroke-width:0.3685;stroke-linecap:round;stroke-linejoin:round;stroke-miterlimit:10;stroke-dasharray:none;stroke-opacity:1"
       transform="matrix(1.3333333,0,0,-1.3333333,0,132.28347)" />
    <path
       id="path8"
       d="m 369.45856,27.6604 5.95276,0.85039 -5.95276,0.8504 z"
       style="fill:#000000;fill-opacity:1;fill-rule:nonzero;stroke:none"
       transform="matrix(1.3333333,0,0,-1.3333333,0,132.28347)" />
    <path
       id="path9"
       d="m 102.28745,28.51079 h 1.17712 m 2.83464,0 h 4.25197 m 2.83465,0 h 4.25197 m 2.83464,0 h 4.25197 m 2.83464,0 h 4.25199 m 2.83465,0 h 4.25195 m 2.83466,0 h 4.25195 m 2.83466,0 h 4.25195 m 2.83466,0 h 4.25198 m 2.83463,0 h 4.25198 m 2.83463,0 h 4.25198 m 2.83465,0 h 4.25196 m 2.83465,0 h 4.25196 m 2.83465,0 h 4.25196 m 2.83465,0 h 4.25199 m 2.83462,0 h 4.25198 m 2.83463,0 h 4.25198 m 2.83466,0 h 4.25195 m 2.83466,0 h 4.25195 m 2.83466,0 h 4.25195 m 2.83466,0 h 4.25198 m 2.83462,0 h 4.25199 m 2.83462,0 h 4.25199 m 2.83462,0 h 4.25199 m 2.83465,0 h 4.25195 m 2.83466,0 h 4.25195 m 2.83466,0 h 4.25195 m 2.83466,0 h 4.25198 m 2.83463,0 h 4.25198 m 2.83463,0 h 4.25198 m 2.83466,0 h 4.25195 m 2.83465,0 h 4.25196 m 2.83465,0 h 4.25196 m 2.83465,0 h 4.25199 m 2.83462,0 h 4.25198 m 2.83463,0 h 4.25198 m 2.83466,0 h 4.25195 m 2.83466,0 h 4.25195 m 2.83466,0 h 4.25198 m -270.46847,0 v 0 m 273.12387,0 v 0 M 262.02548,21.42418 h 17.00788 M 59.76776,10.20473 v 4.25197 m 0,5.95275 v 4.25197 m 0,5.95276 v 4.25197 m 0,5.95274 v 4.25197 m 0,5.95276 v 4.25197 m 0,5.95276 v 4.25197 m 0,5.95275 v 4.25197 m 0,5.95276 v 4.25197"
       style="fill:none;stroke:#000000;stroke-width:0.3685;stroke-linecap:round;stroke-linejoin:round;stroke-miterlimit:10;stroke-dasharray:none;stroke-opacity:1"
       transform="matrix(1.3333333,0,0,-1.3333333,0,132.28347)" />
    <path
       id="path10"
       d="m 59.76776,91.84253 v 0.4478 m 0,-85.03938 v 0.11912 m 0,9.92127 v 0.28346 m 0,9.92126 v 0.28347 m 0,9.92126 v 0.28346 m 0,9.92127 v 0.28346 m 0,9.92126 v 0.28347 m 0,9.92126 v 0.28346 m 0,9.92125 v 0.28347 m 0,9.92126 v 0.28346 m 0,-81.75692 v 0 m 0,85.03938 v 0 M 102.28745,78.1171 V 21.42418 M 171.31683,78.1171 V 21.42418 M 262.02548,78.1171 V 21.42418 M 341.39557,78.1171 V 21.42418 m -153.07086,0 -34.01575,56.69292 m 90.70865,0 34.01575,-56.69292"
       style="fill:none;stroke:#000000;stroke-width:0.3685;stroke-linecap:round;stroke-linejoin:round;stroke-miterlimit:10;stroke-dasharray:none;stroke-opacity:1"
       transform="matrix(1.3333333,0,0,-1.3333333,0,132.28347)" />
    <path
       id="path11"
       d="m 62.33302,49.77063 c 0,1.41676 -1.1485,2.56526 -2.56526,2.56526 m 0,0 c -1.41675,0 -2.56526,-1.1485 -2.56526,-2.56526 m 0,0 c 0,-1.41675 1.14851,-2.56525 2.56526,-2.56525 m 0,0 c 1.41676,0 2.56526,1.1485 2.56526,2.56525"
       style="fill:none;stroke:#000000;stroke-width:0.3685;stroke-linecap:round;stroke-linejoin:round;stroke-miterlimit:10;stroke-dasharray:none;stroke-opacity:1"
       transform="matrix(1.3333333,0,0,-1.3333333,0,132.28347)" />
    <path
       id="path12"
       d="m 171.31683,33.4366 c 2.96045,0 5.86524,0.80458 8.40378,2.32771"
       style="fill:none;stroke:#000000;stroke-width:0.3685;stroke-linecap:round;stroke-linejoin:round;stroke-miterlimit:10;stroke-dasharray:none;stroke-opacity:1"
       transform="matrix(1.3333333,0,0,-1.3333333,0,132.28347)" />
    <path
       id="path13"
       d="m 59.76776,49.77063 h 19.33255 m -5.95276,0 h -0.4252 m 6.37796,0 v 0 l -5.95276,0.8504 v -1.70077 l 5.95276,0.85037"
       style="fill:none;stroke:#000000;stroke-width:0.3685;stroke-linecap:round;stroke-linejoin:round;stroke-miterlimit:10;stroke-dasharray:none;stroke-opacity:1"
       transform="matrix(1.3333333,0,0,-1.3333333,0,132.28347)" />
    <path
       id="path14"
       d="m 73.14755,48.92026 5.95276,0.85037 -5.95276,0.8504 z"
       style="fill:#000000;fill-opacity:1;fill-rule:nonzero;stroke:none"
       transform="matrix(1.3333333,0,0,-1.3333333,0,132.28347)" />
    <path
       id="path15"
       d="m 59.76776,49.77063 v -17.0706 m 0,5.95276 v 0.4252 m 0,-6.37796 v 0 l 0.8504,5.95276 h -1.70079 l 0.85039,-5.95276"
       style="fill:none;stroke:#000000;stroke-width:0.3685;stroke-linecap:round;stroke-linejoin:round;stroke-miterlimit:10;stroke-dasharray:none;stroke-opacity:1"
       transform="matrix(1.3333333,0,0,-1.3333333,0,132.28347)" />
    <path
       id="path16"
       d="m 58.91737,38.65279 0.85039,-5.95276 0.8504,5.95276 z"
       style="fill:#000000;fill-opacity:1;fill-rule:nonzero;stroke:none"
       transform="matrix(1.3333333,0,0,-1.3333333,0,132.28347)" />
    <text
       id="text16"
       xml:space="preserve"
       transform="matrix(1.3333333,0,0,1.3333333,24.39556,37.83156)"
       clip-path="url(#clipPath17)"><tspan
         style="font-style:italic;font-variant:normal;font-weight:normal;font-stretch:normal;font-size:10.0071px;font-family:'Palatino Linotype';writing-mode:lr-tb;fill:#000000;fill-opacity:1;fill-rule:nonzero;stroke:none"
         x="0"
         y="0"
         id="tspan16">M</tspan></text>
    <text
       id="text17"
       xml:space="preserve"
       transform="matrix(1.3333333,0,0,1.3333333,37.375947,43.343373)"
       clip-path="url(#clipPath18)"><tspan
         style="font-style:italic;font-variant:normal;font-weight:normal;font-stretch:normal;font-size:6.00428px;font-family:'Palatino Linotype';writing-mode:lr-tb;fill:#000000;fill-opacity:1;fill-rule:nonzero;stroke:none"
         x="0"
         y="0"
         id="tspan17">r</tspan></text>
    <text
       id="text18"
       xml:space="preserve"
       transform="matrix(1.3333333,0,0,1.3333333,301.43267,17.553733)"
       clip-path="url(#clipPath19)"><tspan
         style="font-style:italic;font-variant:normal;font-weight:normal;font-stretch:normal;font-size:10.0071px;font-family:'Palatino Linotype';writing-mode:lr-tb;fill:#000000;fill-opacity:1;fill-rule:nonzero;stroke:none"
         x="0"
         y="0"
         id="tspan18">f</tspan></text>
    <text
       id="text19"
       xml:space="preserve"
       transform="matrix(1.3333333,0,0,1.3333333,306.00295,23.065547)"
       clip-path="url(#clipPath20)"><tspan
         style="font-style:italic;font-variant:normal;font-weight:normal;font-stretch:normal;font-size:6.00428px;font-family:'Palatino Linotype';writing-mode:lr-tb;fill:#000000;fill-opacity:1;fill-rule:nonzero;stroke:none"
         x="0 2.443742"
         y="0"
         sodipodi:role="line"
         id="tspan19">ct</tspan></text>
    <text
       id="text20"
       xml:space="preserve"
       transform="matrix(1.3333333,0,0,1.3333333,387.65812,119.36428)"
       clip-path="url(#clipPath21)"><tspan
         style="font-style:italic;font-variant:normal;font-weight:normal;font-stretch:normal;font-size:10.0071px;font-family:'Palatino Linotype';writing-mode:lr-tb;fill:#000000;fill-opacity:1;fill-rule:nonzero;stroke:none"
         x="0"
         y="0"
         id="tspan20">f</tspan></text>
    <text
       id="text21"
       xml:space="preserve"
       transform="matrix(1.3333333,0,0,1.3333333,392.22837,124.87609)"
       clip-path="url(#clipPath22)"><tspan
         style="font-style:italic;font-variant:normal;font-weight:normal;font-stretch:normal;font-size:6.00428px;font-family:'Palatino Linotype';writing-mode:lr-tb;fill:#000000;fill-opacity:1;fill-rule:nonzero;stroke:none"
         x="0 2.443742"
         y="0"
         sodipodi:role="line"
         id="tspan21">ct</tspan></text>
    <path
       id="path23"
       d="m 396.65576,28.51079 -0.4252,2.97638 h 0.85037 l -0.42517,-2.97638 m 0,38.51727 -0.4252,-2.97638 h 0.85037 l -0.42517,2.97638 m 0,-38.51727 h -2.12601 m 2.12601,0 h 2.12598 m -2.12598,38.51727 h -2.12601 m 2.12601,0 h 2.12598 m -2.12598,-38.51727 h -2.83465 m 2.83465,38.51727 h -2.83465 m 2.83465,-38.51727 v 0 m 0,38.51727 v 0"
       style="fill:none;stroke:#000000;stroke-width:0.3685;stroke-linecap:round;stroke-linejoin:round;stroke-miterlimit:10;stroke-dasharray:none;stroke-opacity:1"
       transform="matrix(1.3333333,0,0,-1.3333333,0,132.28347)" />
    <text
       id="text23"
       xml:space="preserve"
       transform="matrix(0,-1.3333333,1.3333333,0,524.87416,71.42956)"
       clip-path="url(#clipPath24)"><tspan
         style="font-style:italic;font-variant:normal;font-weight:normal;font-stretch:normal;font-size:10.0071px;font-family:'Palatino Linotype';writing-mode:lr-tb;fill:#000000;fill-opacity:1;fill-rule:nonzero;stroke:none"
         x="0"
         y="0"
         id="tspan23">z</tspan></text>
    <path
       id="path25"
       d="M 396.65576,28.51079 V 67.02806"
       style="fill:none;stroke:#000000;stroke-width:0.3685;stroke-linecap:round;stroke-linejoin:round;stroke-miterlimit:10;stroke-dasharray:none;stroke-opacity:1"
       transform="matrix(1.3333333,0,0,-1.3333333,0,132.28347)" />
    <text
       id="text25"
       xml:space="preserve"
       transform="matrix(1.3333333,0,0,1.3333333,240.70181,78.024933)"
       clip-path="url(#clipPath26)"><tspan
         style="font-style:italic;font-variant:normal;font-weight:normal;font-stretch:normal;font-size:10.0071px;font-family:'Palatino Linotype';writing-mode:lr-tb;fill:#000000;fill-opacity:1;fill-rule:nonzero;stroke:none"
         x="0"
         y="0"
         id="tspan25">χ</tspan></text>
    <text
       id="text26"
       xml:space="preserve"
       transform="matrix(1.3333333,0,0,1.3333333,248.61603,83.536747)"
       clip-path="url(#clipPath27)"><tspan
         style="font-style:italic;font-variant:normal;font-weight:normal;font-stretch:normal;font-size:6.00428px;font-family:'Palatino Linotype';writing-mode:lr-tb;fill:#000000;fill-opacity:1;fill-rule:nonzero;stroke:none"
         x="0"
         y="0"
         id="tspan26">r</tspan></text>
    <path
       id="path28"
       d="m 123.38736,28.51079 -0.42519,2.97638 h 0.85039 l -0.4252,-2.97638 m 0,49.60631 -0.42519,-2.97638 h 0.85039 l -0.4252,2.97638 m 0,-49.60631 h -2.12598 m 2.12598,0 h 2.12599 m -2.12599,49.60631 h -2.12598 m 2.12598,0 h 2.12599 m -2.12599,-49.60631 h -2.83464 m 2.83464,49.60631 h -2.83464 m 2.83464,-49.60631 v 0 m 0,49.60631 v 0"
       style="fill:none;stroke:#000000;stroke-width:0.3685;stroke-linecap:round;stroke-linejoin:round;stroke-miterlimit:10;stroke-dasharray:none;stroke-opacity:1"
       transform="matrix(1.3333333,0,0,-1.3333333,0,132.28347)" />
    <text
       id="text28"
       xml:space="preserve"
       transform="matrix(0,-1.3333333,1.3333333,0,160.5564,64.518333)"
       clip-path="url(#clipPath29)"><tspan
         style="font-style:italic;font-variant:normal;font-weight:normal;font-stretch:normal;font-size:10.0071px;font-family:'Palatino Linotype';writing-mode:lr-tb;fill:#000000;fill-opacity:1;fill-rule:nonzero;stroke:none"
         x="0"
         y="0"
         id="tspan28">d</tspan></text>
    <path
       id="path30"
       d="M 123.38736,28.51079 V 78.1171"
       style="fill:none;stroke:#000000;stroke-width:0.3685;stroke-linecap:round;stroke-linejoin:round;stroke-miterlimit:10;stroke-dasharray:none;stroke-opacity:1"
       transform="matrix(1.3333333,0,0,-1.3333333,0,132.28347)" />
    <text
       id="text30"
       xml:space="preserve"
       transform="matrix(1.3333333,0,0,1.3333333,64.956813,88.986507)"
       clip-path="url(#clipPath31)"><tspan
         style="font-style:italic;font-variant:normal;font-weight:normal;font-stretch:normal;font-size:10.0071px;font-family:'Palatino Linotype';writing-mode:lr-tb;fill:#000000;fill-opacity:1;fill-rule:nonzero;stroke:none"
         x="0"
         y="0"
         id="tspan30">Z</tspan></text>
    <text
       id="text31"
       xml:space="preserve"
       transform="matrix(1.3333333,0,0,1.3333333,109.43441,69.853307)"
       clip-path="url(#clipPath32)"><tspan
         style="font-style:italic;font-variant:normal;font-weight:normal;font-stretch:normal;font-size:10.0071px;font-family:'Palatino Linotype';writing-mode:lr-tb;fill:#000000;fill-opacity:1;fill-rule:nonzero;stroke:none"
         x="0"
         y="0"
         id="tspan31">X</tspan></text>
    <text
       id="text32"
       xml:space="preserve"
       transform="matrix(1.3333333,0,0,1.3333333,63.012693,69.265853)"
       clip-path="url(#clipPath33)"><tspan
         style="font-style:italic;font-variant:normal;font-weight:normal;font-stretch:normal;font-size:10.0071px;font-family:'Palatino Linotype';writing-mode:lr-tb;fill:#000000;fill-opacity:1;fill-rule:nonzero;stroke:none"
         x="0"
         y="0"
         id="tspan32">Y</tspan></text>
  </g>
</svg>
