<?xml version="1.0" encoding="UTF-8" standalone="no"?>
<!-- Created with Inkscape (http://www.inkscape.org/) -->

<svg
   version="1.1"
   id="svg1"
   width="566.92932"
   height="325.04001"
   viewBox="0 0 566.92932 325.04001"
   sodipodi:docname="traegerrost _system.pdf"
   xmlns:inkscape="http://www.inkscape.org/namespaces/inkscape"
   xmlns:sodipodi="http://sodipodi.sourceforge.net/DTD/sodipodi-0.dtd"
   xmlns="http://www.w3.org/2000/svg"
   xmlns:svg="http://www.w3.org/2000/svg">
  <defs
     id="defs1">
    <clipPath
       clipPathUnits="userSpaceOnUse"
       id="clipPath5">
      <path
         d="M -0.00426,-0.00244 V 243.78198 H 425.20111 V -0.00244 H -0.00426"
         transform="matrix(1,0,0,-1,-69.576082,24.037208)"
         clip-rule="evenodd"
         id="path5" />
    </clipPath>
    <clipPath
       clipPathUnits="userSpaceOnUse"
       id="clipPath6">
      <path
         d="M -0.00426,-0.00244 V 243.78198 H 425.20111 V -0.00244 H -0.00426"
         transform="matrix(1,0,0,-1,-50.488141,35.764553)"
         clip-rule="evenodd"
         id="path6" />
    </clipPath>
    <clipPath
       clipPathUnits="userSpaceOnUse"
       id="clipPath7">
      <path
         d="M -0.00426,-0.00244 V 243.78198 H 425.20111 V -0.00244 H -0.00426"
         transform="matrix(1,0,0,-1,-60.720491,2.5984276)"
         clip-rule="evenodd"
         id="path7" />
    </clipPath>
  </defs>
  <sodipodi:namedview
     id="namedview1"
     pagecolor="#ffffff"
     bordercolor="#000000"
     borderopacity="0.25"
     inkscape:showpageshadow="2"
     inkscape:pageopacity="0.0"
     inkscape:pagecheckerboard="0"
     inkscape:deskcolor="#d1d1d1">
    <inkscape:page
       x="0"
       y="0"
       inkscape:label="1"
       id="page1"
       width="566.92932"
       height="325.04001"
       margin="0"
       bleed="0" />
  </sodipodi:namedview>
  <g
     id="g1"
     inkscape:groupmode="layer"
     inkscape:label="1">
    <path
       id="path1"
       d="m 388.22479,91.30394 4.11969,-5.27243 v 7.37007 l -4.11969,5.27245 z m -30.10391,38.45671 4.11966,-5.27246 v 7.37009 l -4.11966,5.27243 z m -25.98425,40.55432 -4.11969,5.27243 v -7.37005 l 4.11969,-5.27246 z m -30.10395,38.4567 -4.11969,5.27243 v -7.37006 l 4.11969,-5.27246 z"
       style="fill:#e5e5e5;fill-opacity:1;fill-rule:nonzero;stroke:none"
       transform="matrix(1.3333333,0,0,-1.3333333,0,325.04)" />
    <path
       id="path2"
       d="m 249.74292,212.60788 8.48505,2.5701 v 7.38898 l -8.48505,-2.5701 z m -61.81418,-18.72754 8.48505,2.57007 v 7.38898 l -8.48505,-2.57007 z m -53.31024,-16.1575 v 7.38898 l -8.48503,-2.57007 v -7.38898 z m -61.81418,-11.33856 -8.48503,-2.5701 v -7.38898 l 8.48503,2.5701 z"
       style="fill:#e5e5e5;fill-opacity:1;fill-rule:nonzero;stroke:none"
       transform="matrix(1.3333333,0,0,-1.3333333,0,325.04)" />
    <path
       id="path3"
       d="m 50.03323,131.59537 4.11969,-5.27246 v 7.37008 l -4.11969,5.27243 z m 30.10395,-38.45671 4.11969,-5.27245 v 7.37009 l -4.11969,5.27244 z m 34.22363,-43.72914 v 7.37008 l -4.11969,5.27245 v -7.37009 z m 30.10394,-31.08661 -4.11969,5.27244 v -7.37008 l 4.11969,-5.27245 z"
       style="fill:#e5e5e5;fill-opacity:1;fill-rule:nonzero;stroke:none"
       transform="matrix(1.3333333,0,0,-1.3333333,0,325.04)" />
    <path
       id="path4"
       d="m 184.73505,2.59842 8.48504,2.57008 v 7.38898 L 184.73505,9.9874 Z m 61.81417,18.72757 8.48505,2.57007 v 7.38897 l -8.48505,-2.57006 z m 70.2992,21.29764 v 7.38897 l -8.48505,-2.57008 v -7.38898 z m 61.81418,26.11653 -8.48505,-2.57007 v -7.38898 l 8.48505,2.57007 z"
       style="fill:#e5e5e5;fill-opacity:1;fill-rule:nonzero;stroke:none"
       transform="matrix(1.3333333,0,0,-1.3333333,0,325.04)" />
    <text
       id="text4"
       xml:space="preserve"
       transform="matrix(1.3333333,0,0,1.3333333,92.768107,292.99039)"
       clip-path="url(#clipPath5)"><tspan
         style="font-style:italic;font-variant:normal;font-weight:normal;font-stretch:normal;font-size:10.0071px;font-family:'Palatino Linotype';writing-mode:lr-tb;fill:#000000;fill-opacity:1;fill-rule:nonzero;stroke:none"
         x="0"
         y="0"
         id="tspan4">Y</tspan></text>
    <text
       id="text5"
       xml:space="preserve"
       transform="matrix(1.3333333,0,0,1.3333333,67.31752,277.35393)"
       clip-path="url(#clipPath6)"><tspan
         style="font-style:italic;font-variant:normal;font-weight:normal;font-stretch:normal;font-size:10.0071px;font-family:'Palatino Linotype';writing-mode:lr-tb;fill:#000000;fill-opacity:1;fill-rule:nonzero;stroke:none"
         x="0"
         y="0"
         id="tspan5">Z</tspan></text>
    <text
       id="text6"
       xml:space="preserve"
       transform="matrix(1.3333333,0,0,1.3333333,80.960653,321.57543)"
       clip-path="url(#clipPath7)"><tspan
         style="font-style:italic;font-variant:normal;font-weight:normal;font-stretch:normal;font-size:10.0071px;font-family:'Palatino Linotype';writing-mode:lr-tb;fill:#000000;fill-opacity:1;fill-rule:nonzero;stroke:none"
         x="0"
         y="0"
         id="tspan6">X</tspan></text>
    <path
       id="path8"
       d="m 193.22009,12.55748 -0.35006,0.44595 m -8.13498,-3.01603 -0.35004,0.44595 m 0.35004,-7.83493 -0.35004,0.44595 m 70.64926,28.24066 -0.35007,0.44596 m -8.13498,-3.01602 -0.35006,0.44595 m 0.35006,-7.83493 -0.35006,0.44595 m 70.64926,28.24066 -0.35004,0.44596 m -8.13501,-3.01604 -0.35003,0.44595 m 0.35003,-7.83493 -0.35003,0.44596 m 70.64926,28.24066 -0.35004,0.44595 m -8.13501,-3.01602 -0.35004,0.44595 m 0.35004,-7.83493 -0.35004,0.44596 m -297.02319,107.15721 -0.35004,0.44595 m -8.13499,-3.01605 -0.35005,0.44595 m 0.35005,-7.83493 -0.35005,0.44595 m 70.64926,28.24067 -0.35004,0.44595 m -8.13499,-3.01602 -0.35005,0.44595 m 0.35005,-7.83493 -0.35005,0.44595 m 70.63037,28.24067 -0.35007,0.44595 m -8.13498,-3.01602 -0.35004,0.44595 m 0.35004,-7.83493 -0.35004,0.44595 m 70.64927,28.24067 -0.35007,0.44595 m -8.13498,-3.01605 -0.35004,0.44595 m 0.35004,-7.83493 -0.35004,0.44595 m -165.7791,-51.9609 0.03779,-18.89765 m -0.01191,5.95276 -8.5e-4,0.4252 m 0.01276,-6.37796 v 0 l 0.8385,5.95444 -1.70079,-0.003 0.86229,-5.95105"
       style="fill:none;stroke:#000000;stroke-width:0.51024;stroke-linecap:round;stroke-linejoin:round;stroke-miterlimit:10;stroke-dasharray:none;stroke-opacity:1"
       transform="matrix(1.3333333,0,0,-1.3333333,0,325.04)" />
    <path
       id="path9"
       d="m 82.78928,148.14633 0.86229,-5.95105 0.8385,5.95444 -1.70079,-0.003 z"
       style="fill:#000000;fill-opacity:1;fill-rule:nonzero;stroke:none"
       transform="matrix(1.3333333,0,0,-1.3333333,0,325.04)" />
    <path
       id="path10"
       d="m 145.39017,179.8205 0.0378,-18.89765 m -0.0119,5.95273 -8.6e-4,0.4252 m 0.0128,-6.37793 v 0 l 0.8385,5.95444 -1.70078,-0.003 0.86228,-5.95105"
       style="fill:none;stroke:#000000;stroke-width:0.51024;stroke-linecap:round;stroke-linejoin:round;stroke-miterlimit:10;stroke-dasharray:none;stroke-opacity:1"
       transform="matrix(1.3333333,0,0,-1.3333333,0,325.04)" />
    <path
       id="path11"
       d="m 144.56567,166.8739 0.86228,-5.95105 0.8385,5.95444 -1.70078,-0.003 z"
       style="fill:#000000;fill-opacity:1;fill-rule:nonzero;stroke:none"
       transform="matrix(1.3333333,0,0,-1.3333333,0,325.04)" />
    <path
       id="path12"
       d="m 207.20435,198.54803 0.0378,-18.89761 m -0.0119,5.95273 -8.5e-4,0.4252 m 0.0128,-6.37793 v 0 l 0.8385,5.95444 -1.70078,-0.003 0.86228,-5.95102"
       style="fill:none;stroke:#000000;stroke-width:0.51024;stroke-linecap:round;stroke-linejoin:round;stroke-miterlimit:10;stroke-dasharray:none;stroke-opacity:1"
       transform="matrix(1.3333333,0,0,-1.3333333,0,325.04)" />
    <path
       id="path13"
       d="m 206.37985,185.60144 0.86228,-5.95102 0.8385,5.95444 -1.70078,-0.003 z"
       style="fill:#000000;fill-opacity:1;fill-rule:nonzero;stroke:none"
       transform="matrix(1.3333333,0,0,-1.3333333,0,325.04)" />
    <path
       id="path14"
       d="m 269.01849,217.2756 0.0378,-18.89764 m -0.0119,5.95276 -8.5e-4,0.4252 m 0.0128,-6.37796 v 0 l 0.83848,5.95444 -1.70078,-0.003 0.8623,-5.95105"
       style="fill:none;stroke:#000000;stroke-width:0.51024;stroke-linecap:round;stroke-linejoin:round;stroke-miterlimit:10;stroke-dasharray:none;stroke-opacity:1"
       transform="matrix(1.3333333,0,0,-1.3333333,0,325.04)" />
    <path
       id="path15"
       d="m 268.194,204.32901 0.8623,-5.95105 0.83848,5.95444 -1.70078,-0.003 z"
       style="fill:#000000;fill-opacity:1;fill-rule:nonzero;stroke:none"
       transform="matrix(1.3333333,0,0,-1.3333333,0,325.04)" />
    <path
       id="path16"
       d="m 113.71771,122.63623 0.0378,-18.89764 m -0.0119,5.95274 -8.6e-4,0.4252 m 0.0128,-6.37794 v 0 l 0.83848,5.95445 -1.70077,-0.003 0.86229,-5.95105"
       style="fill:none;stroke:#000000;stroke-width:0.51024;stroke-linecap:round;stroke-linejoin:round;stroke-miterlimit:10;stroke-dasharray:none;stroke-opacity:1"
       transform="matrix(1.3333333,0,0,-1.3333333,0,325.04)" />
    <path
       id="path17"
       d="m 112.89322,109.68964 0.86229,-5.95105 0.83848,5.95445 -1.70077,-0.003 z"
       style="fill:#000000;fill-opacity:1;fill-rule:nonzero;stroke:none"
       transform="matrix(1.3333333,0,0,-1.3333333,0,325.04)" />
    <path
       id="path18"
       d="m 175.49411,141.3638 0.0378,-18.89764 m -0.0119,5.95272 -8.6e-4,0.42521 m 0.0128,-6.37793 v 0 l 0.8385,5.95443 -1.70077,-0.003 0.86227,-5.95105"
       style="fill:none;stroke:#000000;stroke-width:0.51024;stroke-linecap:round;stroke-linejoin:round;stroke-miterlimit:10;stroke-dasharray:none;stroke-opacity:1"
       transform="matrix(1.3333333,0,0,-1.3333333,0,325.04)" />
    <path
       id="path19"
       d="m 174.66962,128.41721 0.86227,-5.95105 0.8385,5.95443 -1.70077,-0.003 z"
       style="fill:#000000;fill-opacity:1;fill-rule:nonzero;stroke:none"
       transform="matrix(1.3333333,0,0,-1.3333333,0,325.04)" />
    <path
       id="path20"
       d="m 237.30829,160.09134 0.0378,-18.89761 m -0.0119,5.95272 -8.6e-4,0.42521 m 0.0128,-6.37793 v 0 l 0.8385,5.95443 -1.70077,-0.003 0.86227,-5.95101"
       style="fill:none;stroke:#000000;stroke-width:0.51024;stroke-linecap:round;stroke-linejoin:round;stroke-miterlimit:10;stroke-dasharray:none;stroke-opacity:1"
       transform="matrix(1.3333333,0,0,-1.3333333,0,325.04)" />
    <path
       id="path21"
       d="m 236.4838,147.14474 0.86227,-5.95101 0.8385,5.95443 -1.70077,-0.003 z"
       style="fill:#000000;fill-opacity:1;fill-rule:nonzero;stroke:none"
       transform="matrix(1.3333333,0,0,-1.3333333,0,325.04)" />
    <path
       id="path22"
       d="m 299.12244,178.81891 0.0378,-18.89765 m -0.0119,5.95276 -8.6e-4,0.4252 m 0.0128,-6.37796 v 0 l 0.83847,5.95444 -1.70078,-0.003 0.86231,-5.95105"
       style="fill:none;stroke:#000000;stroke-width:0.51024;stroke-linecap:round;stroke-linejoin:round;stroke-miterlimit:10;stroke-dasharray:none;stroke-opacity:1"
       transform="matrix(1.3333333,0,0,-1.3333333,0,325.04)" />
    <path
       id="path23"
       d="m 298.29794,165.87231 0.86231,-5.95105 0.83847,5.95444 -1.70078,-0.003 z"
       style="fill:#000000;fill-opacity:1;fill-rule:nonzero;stroke:none"
       transform="matrix(1.3333333,0,0,-1.3333333,0,325.04)" />
    <path
       id="path24"
       d="m 143.82166,84.17953 0.0378,-18.89764 m -0.0119,5.95274 -8.2e-4,0.42521 m 0.0128,-6.37795 v 0 l 0.83847,5.95445 -1.70078,-0.0034 0.86231,-5.95105"
       style="fill:none;stroke:#000000;stroke-width:0.51024;stroke-linecap:round;stroke-linejoin:round;stroke-miterlimit:10;stroke-dasharray:none;stroke-opacity:1"
       transform="matrix(1.3333333,0,0,-1.3333333,0,325.04)" />
    <path
       id="path25"
       d="m 142.99716,71.23294 0.86231,-5.95105 0.83847,5.95445 z"
       style="fill:#000000;fill-opacity:1;fill-rule:nonzero;stroke:none"
       transform="matrix(1.3333333,0,0,-1.3333333,0,325.04)" />
    <path
       id="path26"
       d="m 205.59802,102.90709 0.0378,-18.89763 m -0.0119,5.95274 -8.5e-4,0.42519 m 0.0128,-6.37793 v 0 l 0.83847,5.95444 -1.70077,-0.0034 0.8623,-5.95103"
       style="fill:none;stroke:#000000;stroke-width:0.51024;stroke-linecap:round;stroke-linejoin:round;stroke-miterlimit:10;stroke-dasharray:none;stroke-opacity:1"
       transform="matrix(1.3333333,0,0,-1.3333333,0,325.04)" />
    <path
       id="path27"
       d="m 204.77353,89.96049 0.8623,-5.95103 0.83847,5.95444 -1.70077,-0.0034 z"
       style="fill:#000000;fill-opacity:1;fill-rule:nonzero;stroke:none"
       transform="matrix(1.3333333,0,0,-1.3333333,0,325.04)" />
    <path
       id="path28"
       d="m 267.4122,121.63466 0.0378,-18.89765 m -0.0119,5.95275 -8.2e-4,0.4252 m 0.0128,-6.37795 v 0 l 0.83847,5.95444 -1.70077,-0.003 0.8623,-5.95105"
       style="fill:none;stroke:#000000;stroke-width:0.51024;stroke-linecap:round;stroke-linejoin:round;stroke-miterlimit:10;stroke-dasharray:none;stroke-opacity:1"
       transform="matrix(1.3333333,0,0,-1.3333333,0,325.04)" />
    <path
       id="path29"
       d="m 266.58771,108.68806 0.8623,-5.95105 0.83847,5.95444 -1.70077,-0.003 z"
       style="fill:#000000;fill-opacity:1;fill-rule:nonzero;stroke:none"
       transform="matrix(1.3333333,0,0,-1.3333333,0,325.04)" />
    <path
       id="path30"
       d="m 329.22638,140.36221 0.0378,-18.89764 m -0.0119,5.95274 -8.6e-4,0.4252 m 0.0128,-6.37794 v 0 l 0.8385,5.95445 -1.70077,-0.003 0.86227,-5.95105"
       style="fill:none;stroke:#000000;stroke-width:0.51024;stroke-linecap:round;stroke-linejoin:round;stroke-miterlimit:10;stroke-dasharray:none;stroke-opacity:1"
       transform="matrix(1.3333333,0,0,-1.3333333,0,325.04)" />
    <path
       id="path31"
       d="m 328.40189,127.41562 0.86227,-5.95105 0.8385,5.95445 -1.70077,-0.003 z"
       style="fill:#000000;fill-opacity:1;fill-rule:nonzero;stroke:none"
       transform="matrix(1.3333333,0,0,-1.3333333,0,325.04)" />
    <path
       id="path32"
       d="m 173.9256,45.72284 0.0378,-18.89764 m -0.0119,5.95274 -8.6e-4,0.4252 m 0.0128,-6.37794 v 0 l 0.8385,5.95445 -1.70078,-0.0034 0.86228,-5.95105"
       style="fill:none;stroke:#000000;stroke-width:0.51024;stroke-linecap:round;stroke-linejoin:round;stroke-miterlimit:10;stroke-dasharray:none;stroke-opacity:1"
       transform="matrix(1.3333333,0,0,-1.3333333,0,325.04)" />
    <path
       id="path33"
       d="m 173.1011,32.77625 0.86228,-5.95105 0.8385,5.95445 z"
       style="fill:#000000;fill-opacity:1;fill-rule:nonzero;stroke:none"
       transform="matrix(1.3333333,0,0,-1.3333333,0,325.04)" />
    <path
       id="path34"
       d="m 235.70197,64.45039 0.0378,-18.89763 m -0.0119,5.95275 -8.5e-4,0.42518 m 0.0128,-6.37793 v 0 l 0.83847,5.95444 -1.70078,-0.0034 0.86231,-5.95104"
       style="fill:none;stroke:#000000;stroke-width:0.51024;stroke-linecap:round;stroke-linejoin:round;stroke-miterlimit:10;stroke-dasharray:none;stroke-opacity:1"
       transform="matrix(1.3333333,0,0,-1.3333333,0,325.04)" />
    <path
       id="path35"
       d="m 234.87747,51.5038 0.86231,-5.95104 0.83847,5.95444 z"
       style="fill:#000000;fill-opacity:1;fill-rule:nonzero;stroke:none"
       transform="matrix(1.3333333,0,0,-1.3333333,0,325.04)" />
    <path
       id="path36"
       d="m 297.51614,83.17796 0.0378,-18.89764 m -0.0119,5.95274 -8.5e-4,0.4252 m 0.0127,-6.37794 v 0 l 0.83851,5.95445 -1.70078,-0.0034 0.86227,-5.95105"
       style="fill:none;stroke:#000000;stroke-width:0.51024;stroke-linecap:round;stroke-linejoin:round;stroke-miterlimit:10;stroke-dasharray:none;stroke-opacity:1"
       transform="matrix(1.3333333,0,0,-1.3333333,0,325.04)" />
    <path
       id="path37"
       d="m 296.69165,70.23137 0.86227,-5.95105 0.83851,5.95445 z"
       style="fill:#000000;fill-opacity:1;fill-rule:nonzero;stroke:none"
       transform="matrix(1.3333333,0,0,-1.3333333,0,325.04)" />
    <path
       id="path38"
       d="m 359.33032,101.90552 0.0378,-18.89765 m -0.0119,5.95275 -8.5e-4,0.4252 m 0.0128,-6.37795 v 0 l 0.8385,5.95446 -1.70077,-0.0034 0.86227,-5.95105"
       style="fill:none;stroke:#000000;stroke-width:0.51024;stroke-linecap:round;stroke-linejoin:round;stroke-miterlimit:10;stroke-dasharray:none;stroke-opacity:1"
       transform="matrix(1.3333333,0,0,-1.3333333,0,325.04)" />
    <path
       id="path39"
       d="m 358.50583,88.95892 0.86227,-5.95105 0.8385,5.95446 -1.70077,-0.0034 z"
       style="fill:#000000;fill-opacity:1;fill-rule:nonzero;stroke:none"
       transform="matrix(1.3333333,0,0,-1.3333333,0,325.04)" />
    <path
       id="path40"
       d="m 50.03323,138.96542 0.62307,0.18735 m 3.49662,-12.82986 0.62307,0.18733 m 25.36119,-26.0015 0.62306,0.18734 m 3.49663,-5.45978 0.62304,0.18733 m -0.62304,-7.55742 0.62304,0.18733 m 25.36121,-26.00149 0.62305,0.18733 m 3.49664,-5.45978 0.62305,0.18733 m -0.62305,-7.55741 0.62305,0.18733 m 25.3612,-26.0015 0.62305,0.18733 m 3.49664,-5.45977 0.62305,0.18733 m -0.62305,-7.55742 0.62305,0.18733 m 243.13699,87.53388 0.62308,0.18733 m 3.49661,-5.45978 0.62308,0.18733 m -0.62308,-7.5574 0.62308,0.18733 m -34.84668,50.91187 0.62305,0.18734 m 3.49661,-5.45977 0.62308,0.18734 m -0.62308,-7.55743 0.62308,0.18733 m -34.84668,50.91188 0.62304,0.18735 m 3.49665,-5.45978 0.62304,0.18735 m -0.62304,-7.55743 0.62304,0.18734 m -34.84668,50.91187 0.62305,0.18735 m 3.49664,-5.45978 0.62305,0.18734 m -0.62305,-7.55743 0.62305,0.18735 m -176.52226,-26.43616 8.48503,2.57007 v 7.38898 l -8.48503,-2.57007 v -7.38898 M 140.34506,23.59535 v -7.37008 l 4.11969,-5.27245 v 7.37009 l -4.11969,5.27244 m -30.10394,38.4567 v -7.37009 l 4.11969,-5.27244 v 7.37008 l -4.11969,5.27245 m -30.10394,38.45669 v -7.37008 l 4.11969,-5.27245 v 7.37009 l -4.11969,5.27244 m -30.10395,38.45668 v -7.37005 l 4.11969,-5.27246 v 7.37008 l -4.11969,5.27243 m 308.08765,-1.83471 v -7.37006 l 4.11966,-5.27246 v 7.37009 l -4.11966,5.27243 m 30.10391,-38.45668 v -7.37009 l 4.11969,-5.27243 v 7.37007"
       style="fill:none;stroke:#000000;stroke-width:0.51024;stroke-linecap:round;stroke-linejoin:round;stroke-miterlimit:10;stroke-dasharray:none;stroke-opacity:1"
       transform="matrix(1.3333333,0,0,-1.3333333,0,325.04)" />
    <path
       id="path41"
       d="m 392.34448,93.40158 -4.11969,5.27245 m -60.20785,76.91337 v -7.37005 l 4.11969,-5.27246 v 7.37008 l -4.11969,5.27243 m -30.10395,38.4567 v -7.37006 l 4.11969,-5.27246 v 7.37009 l -4.11969,5.27243 M 184.73505,2.59842 193.22009,5.1685 v 7.38898 L 184.73505,9.9874 V 2.59842 m -0.35004,0.44595 v 7.38898 l 8.48502,2.57008 m 53.67919,8.32256 8.48505,2.57007 v 7.38897 l -8.48505,-2.57006 v -7.38898 m -0.35006,0.44595 v 7.38898 l 8.48504,2.57007 m 53.67917,8.32255 8.48505,2.57009 v 7.38897 l -8.48505,-2.57008 v -7.38898 m -0.35003,0.44596 v 7.38897 l 8.48504,2.57009 m 53.32913,8.76851 v 7.38897 l 8.48505,2.57007 M 63.96924,156.87115 v 7.38898 l 8.48504,2.5701 m 53.32914,8.76849 v 7.38898 l 8.48504,2.57007 m 53.66028,8.32257 8.48505,2.57007 v 7.38898 l -8.48505,-2.57007 v -7.38898 m -0.35004,0.44595 v 7.38898 l 8.48502,2.57007 m 53.6792,8.32254 8.48505,2.5701 v 7.38898 l -8.48505,-2.5701 v -7.38898 m -0.35004,0.44595 v 7.38898 l 8.48502,2.5701 M 54.77599,126.51024 v 7.3701 l -4.11969,5.27243 M 84.87991,88.05354 v 7.37009 l -4.11967,5.27245 m 34.22362,-51.09923 v 7.37008"
       style="fill:none;stroke:#000000;stroke-width:0.51024;stroke-linecap:round;stroke-linejoin:round;stroke-miterlimit:10;stroke-dasharray:none;stroke-opacity:1"
       transform="matrix(1.3333333,0,0,-1.3333333,0,325.04)" />
    <path
       id="path42"
       d="m 114.98386,56.96693 -4.11969,5.27245 M 145.0878,11.14015 v 7.37009 l -4.11969,5.27244 m 251.99945,62.43616 v 7.37007 l -4.11969,5.27245 m -25.98425,25.81416 v 7.3701 l -4.11969,5.27243 m -25.98426,25.81418 v 7.37009 l -4.11969,5.27243 m -25.98425,25.81418 v 7.37008 l -4.11969,5.27244 m 71.64151,-155.45034 8.48505,2.57007 v 7.38898 l -8.48505,-2.57007 v -7.38898 m -305.85826,97.64409 8.48503,2.5701 v 7.38898 l -8.48503,-2.5701 V 156.4252 M 253.9949,217.59686 373.65472,64.73387 M 82.82008,94.36536 330.05786,169.2756 M 143.02795,17.45197 390.26575,92.36221 M 312.59647,45.04253 192.18073,198.86929 M 250.78229,26.31496 130.38544,180.14175 M 188.96811,7.5874 68.57126,161.41418 M 52.71614,132.82205 299.95395,207.7323 M 112.92401,55.90866 360.1618,130.81891 m -306.00888,2.87408 0.62307,0.18735 M 53.81276,20.77588 66.66252,24.66927 M 63.81401,23.8062 63.61055,23.74455 m 3.05197,0.92472 v 0 l -2.9718,-0.45615 0.2466,-0.81384 2.7252,1.26999"
       style="fill:none;stroke:#000000;stroke-width:0.51024;stroke-linecap:round;stroke-linejoin:round;stroke-miterlimit:10;stroke-dasharray:none;stroke-opacity:1"
       transform="matrix(1.3333333,0,0,-1.3333333,0,325.04)" />
    <path
       id="path43"
       d="m 63.93732,23.39928 2.7252,1.26999 -2.9718,-0.45615 z"
       style="fill:#000000;fill-opacity:1;fill-rule:nonzero;stroke:none"
       transform="matrix(1.3333333,0,0,-1.3333333,0,325.04)" />
    <path
       id="path44"
       d="m 53.81276,20.77588 7.01919,-8.99251 m -1.83137,2.34625 -0.13081,0.16759 m 1.96218,-2.51384 v 0 l -1.4962,2.60788 -0.67034,-0.52325 2.16654,-2.08463"
       style="fill:none;stroke:#000000;stroke-width:0.51024;stroke-linecap:round;stroke-linejoin:round;stroke-miterlimit:10;stroke-dasharray:none;stroke-opacity:1"
       transform="matrix(1.3333333,0,0,-1.3333333,0,325.04)" />
    <path
       id="path45"
       d="m 58.66541,13.868 2.16654,-2.08463 -1.4962,2.60788 z"
       style="fill:#000000;fill-opacity:1;fill-rule:nonzero;stroke:none"
       transform="matrix(1.3333333,0,0,-1.3333333,0,325.04)" />
    <path
       id="path46"
       d="m 53.81276,20.77588 v 11.07709 m 0,-2.97638 v -0.2126 m 0,3.18898 v 0 l -0.42519,-2.97638 h 0.85039 l -0.4252,2.97638"
       style="fill:none;stroke:#000000;stroke-width:0.51024;stroke-linecap:round;stroke-linejoin:round;stroke-miterlimit:10;stroke-dasharray:none;stroke-opacity:1"
       transform="matrix(1.3333333,0,0,-1.3333333,0,325.04)" />
    <path
       id="path47"
       d="m 54.23796,28.87659 -0.4252,2.97638 -0.42519,-2.97638 z"
       style="fill:#000000;fill-opacity:1;fill-rule:nonzero;stroke:none"
       transform="matrix(1.3333333,0,0,-1.3333333,0,325.04)" />
  </g>
</svg>
