<?xml version="1.0" encoding="UTF-8" standalone="no"?>
<!-- Created with Inkscape (http://www.inkscape.org/) -->

<svg
   version="1.1"
   id="svg1"
   width="566.92932"
   height="340.15732"
   viewBox="0 0 566.92932 340.15732"
   sodipodi:docname="trm_lpa3.pdf"
   xmlns:inkscape="http://www.inkscape.org/namespaces/inkscape"
   xmlns:sodipodi="http://sodipodi.sourceforge.net/DTD/sodipodi-0.dtd"
   xmlns="http://www.w3.org/2000/svg"
   xmlns:svg="http://www.w3.org/2000/svg">
  <defs
     id="defs1">
    <clipPath
       clipPathUnits="userSpaceOnUse"
       id="clipPath25">
      <path
         d="M -0.00426,-0.00255 V 255.12067 H 425.20111 V -0.00255 H -0.00426"
         transform="matrix(1,0,0,-1,-50.200432,57.244031)"
         clip-rule="evenodd"
         id="path25" />
    </clipPath>
    <clipPath
       clipPathUnits="userSpaceOnUse"
       id="clipPath26">
      <path
         d="M -0.00426,-0.00255 V 255.12067 H 425.20111 V -0.00255 H -0.00426"
         transform="matrix(1,0,0,-1,-72.458322,57.244031)"
         clip-rule="evenodd"
         id="path26" />
    </clipPath>
    <clipPath
       clipPathUnits="userSpaceOnUse"
       id="clipPath27">
      <path
         d="M -0.00426,-0.00255 V 255.12067 H 425.20111 V -0.00255 H -0.00426"
         transform="matrix(1,0,0,-1,-69.629902,26.888178)"
         clip-rule="evenodd"
         id="path27" />
    </clipPath>
    <clipPath
       clipPathUnits="userSpaceOnUse"
       id="clipPath28">
      <path
         d="M -0.00426,-0.00255 V 255.12067 H 425.20111 V -0.00255 H -0.00426"
         transform="matrix(1,0,0,-1,-50.541971,38.615523)"
         clip-rule="evenodd"
         id="path28" />
    </clipPath>
    <clipPath
       clipPathUnits="userSpaceOnUse"
       id="clipPath29">
      <path
         d="M -0.00426,-0.00255 V 255.12067 H 425.20111 V -0.00255 H -0.00426"
         transform="matrix(1,0,0,-1,-60.774322,5.4493976)"
         clip-rule="evenodd"
         id="path29" />
    </clipPath>
    <clipPath
       clipPathUnits="userSpaceOnUse"
       id="clipPath30">
      <path
         d="M -0.00426,-0.00255 V 255.12067 H 425.20111 V -0.00255 H -0.00426"
         transform="matrix(1,0,0,-1,-160.00086,89.69267)"
         clip-rule="evenodd"
         id="path30" />
    </clipPath>
    <clipPath
       clipPathUnits="userSpaceOnUse"
       id="clipPath31">
      <path
         d="M -0.00426,-0.00255 V 255.12067 H 425.20111 V -0.00255 H -0.00426"
         transform="matrix(1,0,0,-1,-169.73616,85.55882)"
         clip-rule="evenodd"
         id="path31" />
    </clipPath>
  </defs>
  <sodipodi:namedview
     id="namedview1"
     pagecolor="#ffffff"
     bordercolor="#000000"
     borderopacity="0.25"
     inkscape:showpageshadow="2"
     inkscape:pageopacity="0.0"
     inkscape:pagecheckerboard="0"
     inkscape:deskcolor="#d1d1d1">
    <inkscape:page
       x="0"
       y="0"
       inkscape:label="1"
       id="page1"
       width="566.92932"
       height="340.15732"
       margin="0"
       bleed="0" />
  </sodipodi:namedview>
  <g
     id="g1"
     inkscape:groupmode="layer"
     inkscape:label="1">
    <path
       id="path1"
       d="m 130.38474,182.97748 0.0191,24.56692 m 120.37778,-178.41781 0.0189,24.56692 M 82.87009,97.21518 82.88914,121.7821 m 247.21874,50.34333 0.0191,24.56692 M 112.9702,58.75732 l 0.0191,24.56693 m 247.21875,50.34332 0.019,24.56693 m -307.45709,-22.56147 0.01906,24.56693"
       style="fill:none;stroke:#000000;stroke-width:0.3685;stroke-linecap:round;stroke-linejoin:round;stroke-miterlimit:10;stroke-dasharray:none;stroke-opacity:1"
       transform="matrix(1.3333333,0,0,-1.3333333,0,340.15733)" />
    <path
       id="path2"
       d="m 83.61153,149.78085 0.02473,-4.75567 m -0.02473,4.75567 0.0094,-4.76031 m -30.85101,-9.34751 0.01906,24.56693 m 216.24409,45.72153 0.0247,-4.75568 m -0.0247,4.75568 0.009,-4.76032 m -0.009,4.76032 0.0247,-4.75568"
       style="fill:none;stroke:#000000;stroke-width:0.22678;stroke-linecap:round;stroke-linejoin:round;stroke-miterlimit:10;stroke-dasharray:none;stroke-opacity:1"
       transform="matrix(1.3333333,0,0,-1.3333333,0,340.15733)" />
    <path
       id="path3"
       d="m 300.00775,210.58328 0.0191,24.56693"
       style="fill:none;stroke:#000000;stroke-width:0.3685;stroke-linecap:round;stroke-linejoin:round;stroke-miterlimit:10;stroke-dasharray:none;stroke-opacity:1"
       transform="matrix(1.3333333,0,0,-1.3333333,0,340.15733)" />
    <path
       id="path4"
       d="m 300.00775,210.58328 0.0191,24.56693 m -0.0191,-24.56693 0.0191,24.56693 m -247.2378,-74.91025 30.82251,-10.45911 61.85325,4.50473 61.77979,18.74268 61.78854,32.93323 30.99371,29.18872 m 29.23597,-113.22231 -0.005,2.36218 m 0.005,-2.36218 -0.005,2.36218 m 0.005,-2.36218 -0.005,2.36218 m -93.51877,-78.27658 0.0106,2.3427"
       style="fill:none;stroke:#000000;stroke-width:0.22678;stroke-linecap:round;stroke-linejoin:round;stroke-miterlimit:10;stroke-dasharray:none;stroke-opacity:1"
       transform="matrix(1.3333333,0,0,-1.3333333,0,340.15733)" />
    <path
       id="path5"
       d="m 312.59192,47.87852 0.0189,24.56695 m -120.41574,129.28396 0.0191,24.56693 M 68.57146,164.24878 68.59052,188.8157"
       style="fill:none;stroke:#000000;stroke-width:0.3685;stroke-linecap:round;stroke-linejoin:round;stroke-miterlimit:10;stroke-dasharray:none;stroke-opacity:1"
       transform="matrix(1.3333333,0,0,-1.3333333,0,340.15733)" />
    <path
       id="path6"
       d="M 207.25986,182.48172 V 173.0329 M 113.7211,106.56268 v -9.44882 m 0,7.08933 v 2.35949 m 30.10013,-38.45785 v -9.44881 m 0,9.44881 v -2.3595 2.3595 m 0,-2.3595 v 2.3595"
       style="fill:none;stroke:#000000;stroke-width:0.22678;stroke-linecap:round;stroke-linejoin:round;stroke-miterlimit:10;stroke-dasharray:none;stroke-opacity:1"
       transform="matrix(1.3333333,0,0,-1.3333333,0,340.15733)" />
    <path
       id="path7"
       d="m 188.96832,10.42198 0.019,24.56693 m 185.41781,31.61834 0.019,24.56691 m -120.41589,129.25986 0.019,24.56693 M 143.07031,20.29947 l 0.0191,24.56692"
       style="fill:none;stroke:#000000;stroke-width:0.3685;stroke-linecap:round;stroke-linejoin:round;stroke-miterlimit:10;stroke-dasharray:none;stroke-opacity:1"
       transform="matrix(1.3333333,0,0,-1.3333333,0,340.15733)" />
    <path
       id="path8"
       d="m 143.07031,20.29947 0.0191,24.56692 30.82251,-10.45909 61.85324,4.50472 61.77978,18.74269 61.78855,32.93323 30.99371,29.1887 M 173.9119,34.4073 l 0.009,-4.76031 M 68.59052,188.8157 83.61153,149.78085 113.7211,97.11386 143.82123,58.65602 173.9119,34.4073 l 15.07547,0.58161 m 170.37081,50.84333 -0.0247,4.7557 m -105.3061,154.41301 15.021,-39.03482 30.10959,-52.667 30.10013,-38.45785 30.07538,-24.25334 15.09075,0.58622"
       style="fill:none;stroke:#000000;stroke-width:0.22678;stroke-linecap:round;stroke-linejoin:round;stroke-miterlimit:10;stroke-dasharray:none;stroke-opacity:1"
       transform="matrix(1.3333333,0,0,-1.3333333,0,340.15733)" />
    <path
       id="path9"
       d="m 205.56833,62.26726 0.0662,24.5663"
       style="fill:none;stroke:#000000;stroke-width:0.3685;stroke-linecap:round;stroke-linejoin:round;stroke-miterlimit:10;stroke-dasharray:none;stroke-opacity:1"
       transform="matrix(1.3333333,0,0,-1.3333333,0,340.15733)" />
    <path
       id="path10"
       d="m 205.63449,86.83356 -0.0662,-24.5663"
       style="fill:none;stroke:#000000;stroke-width:0.22678;stroke-linecap:round;stroke-linejoin:round;stroke-miterlimit:10;stroke-dasharray:none;stroke-opacity:1"
       transform="matrix(1.3333333,0,0,-1.3333333,0,340.15733)" />
    <path
       id="path11"
       d="m 175.51678,100.72449 0.0176,24.56691"
       style="fill:none;stroke:#000000;stroke-width:0.3685;stroke-linecap:round;stroke-linejoin:round;stroke-miterlimit:10;stroke-dasharray:none;stroke-opacity:1"
       transform="matrix(1.3333333,0,0,-1.3333333,0,340.15733)" />
    <path
       id="path12"
       d="m 175.53436,125.2914 -0.0176,-24.56691"
       style="fill:none;stroke:#000000;stroke-width:0.22678;stroke-linecap:round;stroke-linejoin:round;stroke-miterlimit:10;stroke-dasharray:none;stroke-opacity:1"
       transform="matrix(1.3333333,0,0,-1.3333333,0,340.15733)" />
    <path
       id="path13"
       d="m 250.80048,53.69351 -15.06116,-7.68001 -30.17099,16.25376 -30.05155,38.45723 -30.07782,60.66256 -15.03515,46.15735 m 106.92056,-88.0921 0.0203,24.56693"
       style="fill:none;stroke:#000000;stroke-width:0.3685;stroke-linecap:round;stroke-linejoin:round;stroke-miterlimit:10;stroke-dasharray:none;stroke-opacity:1"
       transform="matrix(1.3333333,0,0,-1.3333333,0,340.15733)" />
    <path
       id="path14"
       d="m 237.35995,144.02386 -0.0356,-24.57156 m -154.43523,2.3298 30.83196,-17.57891 61.79568,-3.4787 61.80759,18.72781 61.83832,40.93344 30.96426,36.30661"
       style="fill:none;stroke:#000000;stroke-width:0.22678;stroke-linecap:round;stroke-linejoin:round;stroke-miterlimit:10;stroke-dasharray:none;stroke-opacity:1"
       transform="matrix(1.3333333,0,0,-1.3333333,0,340.15733)" />
    <path
       id="path15"
       d="m 267.42722,80.99445 0.0176,24.56692"
       style="fill:none;stroke:#000000;stroke-width:0.3685;stroke-linecap:round;stroke-linejoin:round;stroke-miterlimit:10;stroke-dasharray:none;stroke-opacity:1"
       transform="matrix(1.3333333,0,0,-1.3333333,0,340.15733)" />
    <path
       id="path16"
       d="m 112.98926,83.32425 30.83197,-17.57892 61.7471,-3.47807 61.87414,18.7077 61.82032,40.95294 30.96426,36.3066"
       style="fill:none;stroke:#000000;stroke-width:0.22678;stroke-linecap:round;stroke-linejoin:round;stroke-miterlimit:10;stroke-dasharray:none;stroke-opacity:1"
       transform="matrix(1.3333333,0,0,-1.3333333,0,340.15733)" />
    <path
       id="path17"
       d="m 312.61081,72.44547 -15.06113,-7.68001 -30.12243,16.25311 -30.10288,38.45786 -30.07504,60.66258 -15.03519,46.15735 m 198.38721,-131.08675 0.019,24.56691"
       style="fill:none;stroke:#000000;stroke-width:0.3685;stroke-linecap:round;stroke-linejoin:round;stroke-miterlimit:10;stroke-dasharray:none;stroke-opacity:1"
       transform="matrix(1.3333333,0,0,-1.3333333,0,340.15733)" />
    <path
       id="path18"
       d="m 390.60135,95.20961 0.019,24.56691 m -245.18612,43.97275 0.0189,-9.46454 m 90.28143,-105.90903 0.0189,-9.46454 m 61.79138,28.19237 0.0189,-9.46454 m 1.59412,105.10897 0.019,-9.47303 m 30.08118,-28.98485 0.0189,-9.46408"
       style="fill:none;stroke:#000000;stroke-width:0.22678;stroke-linecap:round;stroke-linejoin:round;stroke-miterlimit:10;stroke-dasharray:none;stroke-opacity:1"
       transform="matrix(1.3333333,0,0,-1.3333333,0,340.15733)" />
    <path
       id="path19"
       d="M 188.96832,10.42198 68.57146,164.24878 M 250.78159,29.15071 130.38474,182.97748 M 374.40518,66.60725 254.00833,220.43402 M 143.07031,20.29947 390.30814,95.20972 M 112.9702,58.75732 360.20801,133.66757 M 82.87009,97.21518 330.10788,172.12543 M 52.76996,135.67303 300.00775,210.58328 M 312.59192,47.90265 192.19507,201.72943 M 188.96832,10.42198 68.57146,164.24878 M 143.07031,20.29947 390.30814,95.20972 M 53.86659,23.62686 66.71634,27.52025 m -2.8485,-0.86307 -0.20346,-0.06166 m 3.05196,0.92473 v 0 l -2.97179,-0.45615 0.24658,-0.81386 2.72521,1.27001"
       style="fill:none;stroke:#000000;stroke-width:0.3685;stroke-linecap:round;stroke-linejoin:round;stroke-miterlimit:10;stroke-dasharray:none;stroke-opacity:1"
       transform="matrix(1.3333333,0,0,-1.3333333,0,340.15733)" />
    <path
       id="path20"
       d="m 63.99113,26.25024 2.72521,1.27001 -2.97179,-0.45615 z"
       style="fill:#000000;fill-opacity:1;fill-rule:nonzero;stroke:none"
       transform="matrix(1.3333333,0,0,-1.3333333,0,340.15733)" />
    <path
       id="path21"
       d="m 53.86659,23.62686 7.0192,-8.99251 m -1.83139,2.34624 -0.13082,0.16759 m 1.96221,-2.51383 v 0 l -1.4962,2.60787 -0.67037,-0.52324 2.16657,-2.08463"
       style="fill:none;stroke:#000000;stroke-width:0.3685;stroke-linecap:round;stroke-linejoin:round;stroke-miterlimit:10;stroke-dasharray:none;stroke-opacity:1"
       transform="matrix(1.3333333,0,0,-1.3333333,0,340.15733)" />
    <path
       id="path22"
       d="m 58.71922,16.71898 2.16657,-2.08463 -1.4962,2.60787 z"
       style="fill:#000000;fill-opacity:1;fill-rule:nonzero;stroke:none"
       transform="matrix(1.3333333,0,0,-1.3333333,0,340.15733)" />
    <path
       id="path23"
       d="m 53.86659,23.62686 v 11.07709 m 0,-2.97638 v -0.2126 m 0,3.18898 v 0 l -0.4252,-2.97638 h 0.8504 l -0.4252,2.97638"
       style="fill:none;stroke:#000000;stroke-width:0.3685;stroke-linecap:round;stroke-linejoin:round;stroke-miterlimit:10;stroke-dasharray:none;stroke-opacity:1"
       transform="matrix(1.3333333,0,0,-1.3333333,0,340.15733)" />
    <path
       id="path24"
       d="m 54.29179,31.72757 -0.4252,2.97638 -0.4252,-2.97638 z"
       style="fill:#000000;fill-opacity:1;fill-rule:nonzero;stroke:none"
       transform="matrix(1.3333333,0,0,-1.3333333,0,340.15733)" />
    <text
       id="text24"
       xml:space="preserve"
       transform="matrix(1.3333333,0,0,1.3333333,66.933907,263.83196)"
       clip-path="url(#clipPath25)"><tspan
         style="font-style:italic;font-variant:normal;font-weight:normal;font-stretch:normal;font-size:10.0071px;font-family:'Palatino Linotype';writing-mode:lr-tb;fill:#000000;fill-opacity:1;fill-rule:nonzero;stroke:none"
         x="0 5.5639644 11.678321 14.180103 19.183668"
         y="0"
         sodipodi:role="line"
         id="tspan24">LP = </tspan></text>
    <text
       id="text25"
       xml:space="preserve"
       transform="matrix(1.3333333,0,0,1.3333333,96.611093,263.83196)"
       clip-path="url(#clipPath26)"><tspan
         style="font-variant:normal;font-weight:normal;font-stretch:normal;font-size:10.0916px;font-family:'Palatino Linotype';writing-mode:lr-tb;fill:#000000;fill-opacity:1;fill-rule:nonzero;stroke:none"
         x="0 5.045805 7.5687075 12.614512 17.660318"
         y="0"
         sodipodi:role="line"
         id="tspan25">0.779</tspan></text>
    <text
       id="text26"
       xml:space="preserve"
       transform="matrix(1.3333333,0,0,1.3333333,92.839867,304.30643)"
       clip-path="url(#clipPath27)"><tspan
         style="font-style:italic;font-variant:normal;font-weight:normal;font-stretch:normal;font-size:10.0071px;font-family:'Palatino Linotype';writing-mode:lr-tb;fill:#000000;fill-opacity:1;fill-rule:nonzero;stroke:none"
         x="0"
         y="0"
         id="tspan26">Y</tspan></text>
    <text
       id="text27"
       xml:space="preserve"
       transform="matrix(1.3333333,0,0,1.3333333,67.389293,288.66997)"
       clip-path="url(#clipPath28)"><tspan
         style="font-style:italic;font-variant:normal;font-weight:normal;font-stretch:normal;font-size:10.0071px;font-family:'Palatino Linotype';writing-mode:lr-tb;fill:#000000;fill-opacity:1;fill-rule:nonzero;stroke:none"
         x="0"
         y="0"
         id="tspan27">Z</tspan></text>
    <text
       id="text28"
       xml:space="preserve"
       transform="matrix(1.3333333,0,0,1.3333333,81.032427,332.89147)"
       clip-path="url(#clipPath29)"><tspan
         style="font-style:italic;font-variant:normal;font-weight:normal;font-stretch:normal;font-size:10.0071px;font-family:'Palatino Linotype';writing-mode:lr-tb;fill:#000000;fill-opacity:1;fill-rule:nonzero;stroke:none"
         x="0"
         y="0"
         id="tspan28">X</tspan></text>
    <text
       id="text29"
       xml:space="preserve"
       transform="matrix(1.3333333,0,0,1.3333333,213.33448,220.56711)"
       clip-path="url(#clipPath30)"><tspan
         style="font-style:italic;font-variant:normal;font-weight:normal;font-stretch:normal;font-size:10.0071px;font-family:'Palatino Linotype';writing-mode:lr-tb;fill:#000000;fill-opacity:1;fill-rule:nonzero;stroke:none"
         x="0"
         y="0"
         id="tspan29">M</tspan></text>
    <text
       id="text30"
       xml:space="preserve"
       transform="matrix(1.3333333,0,0,1.3333333,226.31488,226.07891)"
       clip-path="url(#clipPath31)"><tspan
         style="font-style:italic;font-variant:normal;font-weight:normal;font-stretch:normal;font-size:6.00428px;font-family:'Palatino Linotype';writing-mode:lr-tb;fill:#000000;fill-opacity:1;fill-rule:nonzero;stroke:none"
         x="0"
         y="0"
         id="tspan30">u</tspan></text>
  </g>
</svg>
