<?xml version="1.0" encoding="UTF-8" standalone="no"?>
<!-- Created with Inkscape (http://www.inkscape.org/) -->

<svg
   version="1.1"
   id="svg1"
   width="566.92932"
   height="340.15732"
   viewBox="0 0 566.92932 340.15732"
   sodipodi:docname="trm_lpa4.pdf"
   xmlns:inkscape="http://www.inkscape.org/namespaces/inkscape"
   xmlns:sodipodi="http://sodipodi.sourceforge.net/DTD/sodipodi-0.dtd"
   xmlns="http://www.w3.org/2000/svg"
   xmlns:svg="http://www.w3.org/2000/svg">
  <defs
     id="defs1">
    <clipPath
       clipPathUnits="userSpaceOnUse"
       id="clipPath33">
      <path
         d="M -0.00426,-0.00255 V 255.12067 H 425.20111 V -0.00255 H -0.00426"
         transform="matrix(1,0,0,-1,-50.200432,57.244039)"
         clip-rule="evenodd"
         id="path33" />
    </clipPath>
    <clipPath
       clipPathUnits="userSpaceOnUse"
       id="clipPath34">
      <path
         d="M -0.00426,-0.00255 V 255.12067 H 425.20111 V -0.00255 H -0.00426"
         transform="matrix(1,0,0,-1,-72.458322,57.244039)"
         clip-rule="evenodd"
         id="path34" />
    </clipPath>
    <clipPath
       clipPathUnits="userSpaceOnUse"
       id="clipPath35">
      <path
         d="M -0.00426,-0.00255 V 255.12067 H 425.20111 V -0.00255 H -0.00426"
         transform="matrix(1,0,0,-1,-69.629902,26.888193)"
         clip-rule="evenodd"
         id="path35" />
    </clipPath>
    <clipPath
       clipPathUnits="userSpaceOnUse"
       id="clipPath36">
      <path
         d="M -0.00426,-0.00255 V 255.12067 H 425.20111 V -0.00255 H -0.00426"
         transform="matrix(1,0,0,-1,-50.541971,38.615531)"
         clip-rule="evenodd"
         id="path36" />
    </clipPath>
    <clipPath
       clipPathUnits="userSpaceOnUse"
       id="clipPath37">
      <path
         d="M -0.00426,-0.00255 V 255.12067 H 425.20111 V -0.00255 H -0.00426"
         transform="matrix(1,0,0,-1,-60.774322,5.4494126)"
         clip-rule="evenodd"
         id="path37" />
    </clipPath>
    <clipPath
       clipPathUnits="userSpaceOnUse"
       id="clipPath38">
      <path
         d="M -0.00426,-0.00255 V 255.12067 H 425.20111 V -0.00255 H -0.00426"
         transform="matrix(1,0,0,-1,-222.25245,14.13556)"
         clip-rule="evenodd"
         id="path38" />
    </clipPath>
    <clipPath
       clipPathUnits="userSpaceOnUse"
       id="clipPath39">
      <path
         d="M -0.00426,-0.00255 V 255.12067 H 425.20111 V -0.00255 H -0.00426"
         transform="matrix(1,0,0,-1,-231.98775,10.001703)"
         clip-rule="evenodd"
         id="path39" />
    </clipPath>
  </defs>
  <sodipodi:namedview
     id="namedview1"
     pagecolor="#ffffff"
     bordercolor="#000000"
     borderopacity="0.25"
     inkscape:showpageshadow="2"
     inkscape:pageopacity="0.0"
     inkscape:pagecheckerboard="0"
     inkscape:deskcolor="#d1d1d1">
    <inkscape:page
       x="0"
       y="0"
       inkscape:label="1"
       id="page1"
       width="566.92932"
       height="340.15732"
       margin="0"
       bleed="0" />
  </sodipodi:namedview>
  <g
     id="g1"
     inkscape:groupmode="layer"
     inkscape:label="1">
    <path
       id="path1"
       d="m 360.20801,133.66757 0.019,24.56693 m -307.45709,-22.56147 0.01906,24.56693"
       style="fill:none;stroke:#000000;stroke-width:0.3685;stroke-linecap:round;stroke-linejoin:round;stroke-miterlimit:10;stroke-dasharray:none;stroke-opacity:1"
       transform="matrix(1.3333333,0,0,-1.3333333,0,340.15733)" />
    <path
       id="path2"
       d="m 52.76996,135.67303 0.01906,24.56693"
       style="fill:none;stroke:#000000;stroke-width:0.22678;stroke-linecap:round;stroke-linejoin:round;stroke-miterlimit:10;stroke-dasharray:none;stroke-opacity:1"
       transform="matrix(1.3333333,0,0,-1.3333333,0,340.15733)" />
    <path
       id="path3"
       d="m 300.00775,210.58328 0.0191,24.56693"
       style="fill:none;stroke:#000000;stroke-width:0.3685;stroke-linecap:round;stroke-linejoin:round;stroke-miterlimit:10;stroke-dasharray:none;stroke-opacity:1"
       transform="matrix(1.3333333,0,0,-1.3333333,0,340.15733)" />
    <path
       id="path4"
       d="m 300.00775,210.58328 0.0191,24.56693 m -0.0191,-24.56693 0.0191,24.56693 m -154.59255,-71.40094 0.005,-2.36219"
       style="fill:none;stroke:#000000;stroke-width:0.22678;stroke-linecap:round;stroke-linejoin:round;stroke-miterlimit:10;stroke-dasharray:none;stroke-opacity:1"
       transform="matrix(1.3333333,0,0,-1.3333333,0,340.15733)" />
    <path
       id="path5"
       d="m 68.57146,164.24878 0.01906,24.56692"
       style="fill:none;stroke:#000000;stroke-width:0.3685;stroke-linecap:round;stroke-linejoin:round;stroke-miterlimit:10;stroke-dasharray:none;stroke-opacity:1"
       transform="matrix(1.3333333,0,0,-1.3333333,0,340.15733)" />
    <path
       id="path6"
       d="m 143.82123,68.10484 v -2.35949 2.35949 m 0,-2.35949 v 2.35949"
       style="fill:none;stroke:#000000;stroke-width:0.22678;stroke-linecap:round;stroke-linejoin:round;stroke-miterlimit:10;stroke-dasharray:none;stroke-opacity:1"
       transform="matrix(1.3333333,0,0,-1.3333333,0,340.15733)" />
    <path
       id="path7"
       d="m 188.96832,10.422 0.019,24.56692"
       style="fill:none;stroke:#000000;stroke-width:0.3685;stroke-linecap:round;stroke-linejoin:round;stroke-miterlimit:10;stroke-dasharray:none;stroke-opacity:1"
       transform="matrix(1.3333333,0,0,-1.3333333,0,340.15733)" />
    <path
       id="path8"
       d="m 390.60135,95.20961 0.019,24.56693"
       style="fill:none;stroke:#000000;stroke-width:0.22678;stroke-linecap:round;stroke-linejoin:round;stroke-miterlimit:10;stroke-dasharray:none;stroke-opacity:1"
       transform="matrix(1.3333333,0,0,-1.3333333,0,340.15733)" />
    <path
       id="path9"
       d="m 145.41666,139.18234 0.0176,24.56693 m 61.80798,-5.83448 0.0176,24.56693"
       style="fill:none;stroke:#000000;stroke-width:0.3685;stroke-linecap:round;stroke-linejoin:round;stroke-miterlimit:10;stroke-dasharray:none;stroke-opacity:1"
       transform="matrix(1.3333333,0,0,-1.3333333,0,340.15733)" />
    <path
       id="path10"
       d="m 207.25986,182.48172 -0.0176,-24.56693 m -123.60599,-12.88961 -0.01529,-0.005 m 0.01529,0.005 v 0 m 30.08484,-38.46248 v 0 m 155.32147,94.63847 0.0153,0.005 m -0.0153,-0.005 0.0153,0.005 m -216.26881,-40.96585 30.84724,-15.21478 61.7804,-5.84284 61.81033,18.72782 61.81558,43.29101 30.98425,33.94904 m -30.98425,-33.94904 v 0"
       style="fill:none;stroke:#000000;stroke-width:0.22678;stroke-linecap:round;stroke-linejoin:round;stroke-miterlimit:10;stroke-dasharray:none;stroke-opacity:1"
       transform="matrix(1.3333333,0,0,-1.3333333,0,340.15733)" />
    <path
       id="path11"
       d="m 113.70351,81.99577 0.0176,24.56693"
       style="fill:none;stroke:#000000;stroke-width:0.3685;stroke-linecap:round;stroke-linejoin:round;stroke-miterlimit:10;stroke-dasharray:none;stroke-opacity:1"
       transform="matrix(1.3333333,0,0,-1.3333333,0,340.15733)" />
    <path
       id="path12"
       d="M 113.7211,106.5627 113.7035,81.99577"
       style="fill:none;stroke:#000000;stroke-width:0.22678;stroke-linecap:round;stroke-linejoin:round;stroke-miterlimit:10;stroke-dasharray:none;stroke-opacity:1"
       transform="matrix(1.3333333,0,0,-1.3333333,0,340.15733)" />
    <path
       id="path13"
       d="m 143.80362,43.53792 0.0176,24.56692"
       style="fill:none;stroke:#000000;stroke-width:0.3685;stroke-linecap:round;stroke-linejoin:round;stroke-miterlimit:10;stroke-dasharray:none;stroke-opacity:1"
       transform="matrix(1.3333333,0,0,-1.3333333,0,340.15733)" />
    <path
       id="path14"
       d="m 143.82123,68.10484 -0.0176,-24.56692 m -75.2131,145.27778 15.04574,-43.79052 30.06725,-63.02941 30.10011,-38.45785 30.11771,-13.89093 15.06604,5.34193 m -15.06604,-5.34193 v 0 m 61.81329,18.72873 0.0153,-0.0195 m -0.0153,0.0195 v 0 m -92.64523,-3.50931 30.84722,-15.21478 61.7804,-5.84284 61.81033,18.72782 61.81559,43.29101 30.98425,33.94904"
       style="fill:none;stroke:#000000;stroke-width:0.22678;stroke-linecap:round;stroke-linejoin:round;stroke-miterlimit:10;stroke-dasharray:none;stroke-opacity:1"
       transform="matrix(1.3333333,0,0,-1.3333333,0,340.15733)" />
    <path
       id="path15"
       d="m 235.71701,23.80879 0.0176,24.56693 m 61.80801,-5.81037 0.0176,24.56693"
       style="fill:none;stroke:#000000;stroke-width:0.3685;stroke-linecap:round;stroke-linejoin:round;stroke-miterlimit:10;stroke-dasharray:none;stroke-opacity:1"
       transform="matrix(1.3333333,0,0,-1.3333333,0,340.15733)" />
    <path
       id="path16"
       d="m 143.07031,20.29948 0.0191,24.56693"
       style="fill:none;stroke:#000000;stroke-width:0.22678;stroke-linecap:round;stroke-linejoin:round;stroke-miterlimit:10;stroke-dasharray:none;stroke-opacity:1"
       transform="matrix(1.3333333,0,0,-1.3333333,0,340.15733)" />
    <path
       id="path17"
       d="m 175.51678,100.72449 0.0176,24.56692"
       style="fill:none;stroke:#000000;stroke-width:0.3685;stroke-linecap:round;stroke-linejoin:round;stroke-miterlimit:10;stroke-dasharray:none;stroke-opacity:1"
       transform="matrix(1.3333333,0,0,-1.3333333,0,340.15733)" />
    <path
       id="path18"
       d="m 82.88914,121.78212 30.84723,-15.2148 61.78041,-5.84283 61.81031,18.72783 61.81558,43.291 30.98428,33.94903"
       style="fill:none;stroke:#000000;stroke-width:0.22678;stroke-linecap:round;stroke-linejoin:round;stroke-miterlimit:10;stroke-dasharray:none;stroke-opacity:1"
       transform="matrix(1.3333333,0,0,-1.3333333,0,340.15733)" />
    <path
       id="path19"
       d="m 205.61688,62.26663 0.0176,24.56693"
       style="fill:none;stroke:#000000;stroke-width:0.3685;stroke-linecap:round;stroke-linejoin:round;stroke-miterlimit:10;stroke-dasharray:none;stroke-opacity:1"
       transform="matrix(1.3333333,0,0,-1.3333333,0,340.15733)" />
    <path
       id="path20"
       d="m 112.98926,83.32426 30.84723,-15.21478 61.78039,-5.84285 61.81034,18.72783 61.81558,43.29102 30.98425,33.94902"
       style="fill:none;stroke:#000000;stroke-width:0.22678;stroke-linecap:round;stroke-linejoin:round;stroke-miterlimit:10;stroke-dasharray:none;stroke-opacity:1"
       transform="matrix(1.3333333,0,0,-1.3333333,0,340.15733)" />
    <path
       id="path21"
       d="m 82.87009,97.21519 0.01905,24.56693"
       style="fill:none;stroke:#000000;stroke-width:0.3685;stroke-linecap:round;stroke-linejoin:round;stroke-miterlimit:10;stroke-dasharray:none;stroke-opacity:1"
       transform="matrix(1.3333333,0,0,-1.3333333,0,340.15733)" />
    <path
       id="path22"
       d="m 82.87009,97.21519 0.01905,24.56693"
       style="fill:none;stroke:#000000;stroke-width:0.22678;stroke-linecap:round;stroke-linejoin:round;stroke-miterlimit:10;stroke-dasharray:none;stroke-opacity:1"
       transform="matrix(1.3333333,0,0,-1.3333333,0,340.15733)" />
    <path
       id="path23"
       d="m 112.9702,58.75734 0.0191,24.56692"
       style="fill:none;stroke:#000000;stroke-width:0.3685;stroke-linecap:round;stroke-linejoin:round;stroke-miterlimit:10;stroke-dasharray:none;stroke-opacity:1"
       transform="matrix(1.3333333,0,0,-1.3333333,0,340.15733)" />
    <path
       id="path24"
       d="m 112.9702,58.75734 0.0191,24.56692"
       style="fill:none;stroke:#000000;stroke-width:0.22678;stroke-linecap:round;stroke-linejoin:round;stroke-miterlimit:10;stroke-dasharray:none;stroke-opacity:1"
       transform="matrix(1.3333333,0,0,-1.3333333,0,340.15733)" />
    <path
       id="path25"
       d="m 237.32709,119.45232 0.0176,24.56694 m 30.08252,-63.0248 0.0176,24.56693"
       style="fill:none;stroke:#000000;stroke-width:0.3685;stroke-linecap:round;stroke-linejoin:round;stroke-miterlimit:10;stroke-dasharray:none;stroke-opacity:1"
       transform="matrix(1.3333333,0,0,-1.3333333,0,340.15733)" />
    <path
       id="path26"
       d="m 130.40381,207.54443 15.04571,-43.79052 30.06726,-63.02942 30.1001,-38.45786 30.11774,-13.89091 15.06604,5.34192 m -58.58652,172.57872 15.04572,-43.79053 30.06726,-63.02939 30.10013,-38.45785 30.1177,-13.89093 15.06604,5.34193 m -58.58362,172.53139 15.04575,-43.79053 30.06723,-63.02942 30.10013,-38.45785 30.1177,-13.89094 15.06604,5.34194"
       style="fill:none;stroke:#000000;stroke-width:0.22678;stroke-linecap:round;stroke-linejoin:round;stroke-miterlimit:10;stroke-dasharray:none;stroke-opacity:1"
       transform="matrix(1.3333333,0,0,-1.3333333,0,340.15733)" />
    <path
       id="path27"
       d="m 130.38474,182.97751 0.0191,24.56692 m 61.79126,-5.815 0.0191,24.56693 m 61.79419,-5.86231 0.019,24.56693 M 374.4052,66.60725 l 0.019,24.56693 m -61.8323,-43.27152 0.0191,24.56693 m -61.8294,-43.31888 0.0191,24.56693 m 79.30722,118.40779 0.0191,24.56692 m -30.9866,-58.51132 0.0191,24.56693 m 30.08106,-63.02478 0.0191,24.56692 M 188.96832,10.422 68.57146,164.24878 M 250.78159,29.15071 130.38474,182.97751 M 374.40518,66.60725 254.00833,220.43405 M 143.07031,20.29948 390.30814,95.20973 M 112.9702,58.75734 360.20801,133.66757 M 82.87009,97.21519 330.10788,172.12543 M 52.76996,135.67303 300.00775,210.58328 M 312.59192,47.90266 192.19507,201.72943 M 188.96832,10.422 68.57146,164.24878 M 143.07031,20.29948 390.30814,95.20973 M 53.86659,23.62688 66.71634,27.52026 m -2.8485,-0.86308 -0.20346,-0.06164 m 3.05196,0.92472 v 0 l -2.97179,-0.45614 0.24658,-0.81386 2.72521,1.27"
       style="fill:none;stroke:#000000;stroke-width:0.3685;stroke-linecap:round;stroke-linejoin:round;stroke-miterlimit:10;stroke-dasharray:none;stroke-opacity:1"
       transform="matrix(1.3333333,0,0,-1.3333333,0,340.15733)" />
    <path
       id="path28"
       d="m 63.99113,26.25026 2.72521,1.27 -2.97179,-0.45614 z"
       style="fill:#000000;fill-opacity:1;fill-rule:nonzero;stroke:none"
       transform="matrix(1.3333333,0,0,-1.3333333,0,340.15733)" />
    <path
       id="path29"
       d="m 53.86659,23.62688 7.0192,-8.99251 m -1.83139,2.34624 -0.13082,0.16758 m 1.96221,-2.51382 v 0 l -1.4962,2.60786 -0.67037,-0.52325 2.16657,-2.08461"
       style="fill:none;stroke:#000000;stroke-width:0.3685;stroke-linecap:round;stroke-linejoin:round;stroke-miterlimit:10;stroke-dasharray:none;stroke-opacity:1"
       transform="matrix(1.3333333,0,0,-1.3333333,0,340.15733)" />
    <path
       id="path30"
       d="m 58.71922,16.71898 2.16657,-2.08461 -1.4962,2.60786 z"
       style="fill:#000000;fill-opacity:1;fill-rule:nonzero;stroke:none"
       transform="matrix(1.3333333,0,0,-1.3333333,0,340.15733)" />
    <path
       id="path31"
       d="m 53.86659,23.62688 v 11.07707 m 0,-2.97638 v -0.21259 m 0,3.18897 v 0 l -0.4252,-2.97638 h 0.8504 l -0.4252,2.97638"
       style="fill:none;stroke:#000000;stroke-width:0.3685;stroke-linecap:round;stroke-linejoin:round;stroke-miterlimit:10;stroke-dasharray:none;stroke-opacity:1"
       transform="matrix(1.3333333,0,0,-1.3333333,0,340.15733)" />
    <path
       id="path32"
       d="m 54.29179,31.72757 -0.4252,2.97638 -0.4252,-2.97638 z"
       style="fill:#000000;fill-opacity:1;fill-rule:nonzero;stroke:none"
       transform="matrix(1.3333333,0,0,-1.3333333,0,340.15733)" />
    <text
       id="text32"
       xml:space="preserve"
       transform="matrix(1.3333333,0,0,1.3333333,66.933907,263.83195)"
       clip-path="url(#clipPath33)"><tspan
         style="font-style:italic;font-variant:normal;font-weight:normal;font-stretch:normal;font-size:10.0071px;font-family:'Palatino Linotype';writing-mode:lr-tb;fill:#000000;fill-opacity:1;fill-rule:nonzero;stroke:none"
         x="0 5.5639644 11.678321 14.180103 19.183668"
         y="0"
         sodipodi:role="line"
         id="tspan32">LP = </tspan></text>
    <text
       id="text33"
       xml:space="preserve"
       transform="matrix(1.3333333,0,0,1.3333333,96.611093,263.83195)"
       clip-path="url(#clipPath34)"><tspan
         style="font-variant:normal;font-weight:normal;font-stretch:normal;font-size:10.0916px;font-family:'Palatino Linotype';writing-mode:lr-tb;fill:#000000;fill-opacity:1;fill-rule:nonzero;stroke:none"
         x="0 5.045805 7.5687075 12.614512 17.660318"
         y="0"
         sodipodi:role="line"
         id="tspan33">0.833</tspan></text>
    <text
       id="text34"
       xml:space="preserve"
       transform="matrix(1.3333333,0,0,1.3333333,92.839867,304.30641)"
       clip-path="url(#clipPath35)"><tspan
         style="font-style:italic;font-variant:normal;font-weight:normal;font-stretch:normal;font-size:10.0071px;font-family:'Palatino Linotype';writing-mode:lr-tb;fill:#000000;fill-opacity:1;fill-rule:nonzero;stroke:none"
         x="0"
         y="0"
         id="tspan34">Y</tspan></text>
    <text
       id="text35"
       xml:space="preserve"
       transform="matrix(1.3333333,0,0,1.3333333,67.389293,288.66996)"
       clip-path="url(#clipPath36)"><tspan
         style="font-style:italic;font-variant:normal;font-weight:normal;font-stretch:normal;font-size:10.0071px;font-family:'Palatino Linotype';writing-mode:lr-tb;fill:#000000;fill-opacity:1;fill-rule:nonzero;stroke:none"
         x="0"
         y="0"
         id="tspan35">Z</tspan></text>
    <text
       id="text36"
       xml:space="preserve"
       transform="matrix(1.3333333,0,0,1.3333333,81.032427,332.89145)"
       clip-path="url(#clipPath37)"><tspan
         style="font-style:italic;font-variant:normal;font-weight:normal;font-stretch:normal;font-size:10.0071px;font-family:'Palatino Linotype';writing-mode:lr-tb;fill:#000000;fill-opacity:1;fill-rule:nonzero;stroke:none"
         x="0"
         y="0"
         id="tspan36">X</tspan></text>
    <text
       id="text37"
       xml:space="preserve"
       transform="matrix(1.3333333,0,0,1.3333333,296.33659,321.30992)"
       clip-path="url(#clipPath38)"><tspan
         style="font-style:italic;font-variant:normal;font-weight:normal;font-stretch:normal;font-size:10.0071px;font-family:'Palatino Linotype';writing-mode:lr-tb;fill:#000000;fill-opacity:1;fill-rule:nonzero;stroke:none"
         x="0"
         y="0"
         id="tspan37">M</tspan></text>
    <text
       id="text38"
       xml:space="preserve"
       transform="matrix(1.3333333,0,0,1.3333333,309.31699,326.82173)"
       clip-path="url(#clipPath39)"><tspan
         style="font-style:italic;font-variant:normal;font-weight:normal;font-stretch:normal;font-size:6.00428px;font-family:'Palatino Linotype';writing-mode:lr-tb;fill:#000000;fill-opacity:1;fill-rule:nonzero;stroke:none"
         x="0"
         y="0"
         id="tspan38">u</tspan></text>
  </g>
</svg>
