<?xml version="1.0" encoding="utf-8" standalone="no"?>
<!DOCTYPE svg PUBLIC "-//W3C//DTD SVG 1.1//EN"
  "http://www.w3.org/Graphics/SVG/1.1/DTD/svg11.dtd">
<svg xmlns:xlink="http://www.w3.org/1999/xlink" width="170.07874pt" height="153.070866pt" viewBox="0 0 170.07874 153.070866" xmlns="http://www.w3.org/2000/svg" version="1.1">
 <metadata>
  <rdf:RDF xmlns:dc="http://purl.org/dc/elements/1.1/" xmlns:cc="http://creativecommons.org/ns#" xmlns:rdf="http://www.w3.org/1999/02/22-rdf-syntax-ns#">
   <cc:Work>
    <dc:type rdf:resource="http://purl.org/dc/dcmitype/StillImage"/>
    <dc:date>2024-10-02T10:30:58.377202</dc:date>
    <dc:format>image/svg+xml</dc:format>
    <dc:creator>
     <cc:Agent>
      <dc:title>Matplotlib v3.9.1, https://matplotlib.org/</dc:title>
     </cc:Agent>
    </dc:creator>
   </cc:Work>
  </rdf:RDF>
 </metadata>
 <defs>
  <style type="text/css">*{stroke-linejoin: round; stroke-linecap: butt}</style>
 </defs>
 <g id="figure_1">
  <g id="patch_1">
   <path d="M 0 153.070866 
L 170.07874 153.070866 
L 170.07874 0 
L 0 0 
z
" style="fill: #ffffff"/>
  </g>
  <g id="axes_1">
   <g id="patch_2">
    <path d="M 45.391695 119.883679 
L 161.43874 119.883679 
L 161.43874 8.64 
L 45.391695 8.64 
z
" style="fill: #ffffff"/>
   </g>
   <g id="matplotlib.axis_1">
    <g id="xtick_1">
     <g id="line2d_1">
      <path d="M 50.666561 119.883679 
L 50.666561 8.64 
" clip-path="url(#pcf2f398068)" style="fill: none; stroke-dasharray: 0.74,0.32; stroke-dashoffset: 0; stroke: #808080; stroke-opacity: 0.7; stroke-width: 0.2"/>
     </g>
     <g id="line2d_2">
      <defs>
       <path id="m12b90ab048" d="M 0 0 
L 0 -3.5 
" style="stroke: #000000; stroke-width: 0.5"/>
      </defs>
      <g>
       <use xlink:href="#m12b90ab048" x="50.666561" y="119.883679" style="stroke: #000000; stroke-width: 0.5"/>
      </g>
     </g>
     <g id="text_1">
      <!-- $\mathdefault{−0.2}$ -->
      <g transform="translate(41.962963 128.91848) scale(0.08 -0.08)">
       <defs>
        <path id="CMSY10-0" d="M 4218 1472 
C 4326 1472 4442 1472 4442 1600 
C 4442 1728 4326 1728 4218 1728 
L 755 1728 
C 646 1728 531 1728 531 1600 
C 531 1472 646 1472 755 1472 
L 4218 1472 
z
" transform="scale(0.015625)"/>
        <path id="CMR17-30" d="M 2688 2038 
C 2688 2430 2682 3099 2413 3613 
C 2176 4063 1798 4224 1466 4224 
C 1158 4224 768 4082 525 3620 
C 269 3137 243 2539 243 2038 
C 243 1671 250 1112 448 623 
C 723 -39 1216 -128 1466 -128 
C 1760 -128 2208 -7 2470 604 
C 2662 1048 2688 1568 2688 2038 
z
M 1466 -26 
C 1056 -26 813 328 723 816 
C 653 1196 653 1749 653 2109 
C 653 2604 653 3015 736 3407 
C 858 3954 1216 4121 1466 4121 
C 1728 4121 2067 3947 2189 3420 
C 2272 3054 2278 2623 2278 2109 
C 2278 1691 2278 1176 2202 797 
C 2067 96 1690 -26 1466 -26 
z
" transform="scale(0.015625)"/>
        <path id="CMMI12-3a" d="M 1178 307 
C 1178 492 1024 620 870 620 
C 685 620 557 467 557 313 
C 557 128 710 0 864 0 
C 1050 0 1178 153 1178 307 
z
" transform="scale(0.015625)"/>
        <path id="CMR17-32" d="M 2669 990 
L 2554 990 
C 2490 537 2438 460 2413 422 
C 2381 371 1920 371 1830 371 
L 602 371 
C 832 620 1280 1073 1824 1596 
C 2214 1966 2669 2400 2669 3033 
C 2669 3788 2067 4224 1395 4224 
C 691 4224 262 3603 262 3027 
C 262 2777 448 2745 525 2745 
C 589 2745 781 2783 781 3007 
C 781 3206 614 3264 525 3264 
C 486 3264 448 3257 422 3244 
C 544 3788 915 4057 1306 4057 
C 1862 4057 2227 3616 2227 3033 
C 2227 2477 1901 1998 1536 1583 
L 262 147 
L 262 0 
L 2515 0 
L 2669 990 
z
" transform="scale(0.015625)"/>
       </defs>
       <use xlink:href="#CMSY10-0" transform="scale(0.996264)"/>
       <use xlink:href="#CMR17-30" transform="translate(77.487468 0) scale(0.996264)"/>
       <use xlink:href="#CMMI12-3a" transform="translate(123.177945 0) scale(0.996264)"/>
       <use xlink:href="#CMR17-32" transform="translate(150.275122 0) scale(0.996264)"/>
      </g>
     </g>
    </g>
    <g id="xtick_2">
     <g id="line2d_3">
      <path d="M 103.415218 119.883679 
L 103.415218 8.64 
" clip-path="url(#pcf2f398068)" style="fill: none; stroke-dasharray: 0.74,0.32; stroke-dashoffset: 0; stroke: #808080; stroke-opacity: 0.7; stroke-width: 0.2"/>
     </g>
     <g id="line2d_4">
      <g>
       <use xlink:href="#m12b90ab048" x="103.415218" y="119.883679" style="stroke: #000000; stroke-width: 0.5"/>
      </g>
     </g>
     <g id="text_2">
      <!-- $\mathdefault{0.0}$ -->
      <g transform="translate(98.004873 128.91848) scale(0.08 -0.08)">
       <use xlink:href="#CMR17-30" transform="scale(0.996264)"/>
       <use xlink:href="#CMMI12-3a" transform="translate(45.690477 0) scale(0.996264)"/>
       <use xlink:href="#CMR17-30" transform="translate(72.787654 0) scale(0.996264)"/>
      </g>
     </g>
    </g>
    <g id="xtick_3">
     <g id="line2d_5">
      <path d="M 156.163874 119.883679 
L 156.163874 8.64 
" clip-path="url(#pcf2f398068)" style="fill: none; stroke-dasharray: 0.74,0.32; stroke-dashoffset: 0; stroke: #808080; stroke-opacity: 0.7; stroke-width: 0.2"/>
     </g>
     <g id="line2d_6">
      <g>
       <use xlink:href="#m12b90ab048" x="156.163874" y="119.883679" style="stroke: #000000; stroke-width: 0.5"/>
      </g>
     </g>
     <g id="text_3">
      <!-- $\mathdefault{0.2}$ -->
      <g transform="translate(150.75353 128.91848) scale(0.08 -0.08)">
       <use xlink:href="#CMR17-30" transform="scale(0.996264)"/>
       <use xlink:href="#CMMI12-3a" transform="translate(45.690477 0) scale(0.996264)"/>
       <use xlink:href="#CMR17-32" transform="translate(72.787654 0) scale(0.996264)"/>
      </g>
     </g>
    </g>
    <g id="text_4">
     <!-- $\varphi$ [rad] -->
     <g transform="translate(88.51966 141.940206) scale(0.1 -0.1)">
      <defs>
       <path id="CMMI12-27" d="M 1926 281 
C 1818 281 1722 281 1722 313 
C 1722 326 1830 926 1869 1066 
C 2074 1883 2560 2470 3117 2470 
C 3533 2470 3725 2157 3725 1806 
C 3725 1079 2906 281 1926 281 
z
M 1651 -52 
C 1690 -58 1754 -64 1869 -64 
C 2918 -64 3885 945 3885 1953 
C 3885 2342 3712 2816 3174 2816 
C 2253 2816 1862 1519 1504 319 
C 768 460 461 849 461 1277 
C 461 1449 595 2132 966 2592 
C 1037 2675 1037 2687 1037 2700 
C 1037 2752 986 2752 973 2752 
C 800 2752 314 1819 314 1213 
C 314 498 877 108 1395 -7 
L 1062 -1111 
C 1030 -1209 1030 -1222 1030 -1248 
C 1030 -1402 1184 -1408 1197 -1408 
C 1261 -1408 1376 -1383 1427 -1254 
C 1446 -1196 1626 -182 1651 -52 
z
" transform="scale(0.015625)"/>
       <path id="CMR17-5b" d="M 1504 -1600 
L 1504 -1376 
L 902 -1376 
L 902 4575 
L 1504 4575 
L 1504 4800 
L 678 4800 
L 678 -1600 
L 1504 -1600 
z
" transform="scale(0.015625)"/>
       <path id="CMR17-72" d="M 960 1517 
C 960 2134 1222 2713 1702 2713 
C 1747 2713 1792 2707 1837 2687 
C 1837 2687 1696 2642 1696 2475 
C 1696 2321 1818 2257 1914 2257 
C 1990 2257 2131 2302 2131 2482 
C 2131 2687 1926 2816 1709 2816 
C 1222 2816 1011 2340 947 2115 
L 941 2115 
L 941 2816 
L 198 2745 
L 198 2578 
C 576 2578 634 2540 634 2231 
L 634 443 
C 634 198 608 166 198 166 
L 198 0 
C 352 12 646 12 813 12 
C 998 12 1325 12 1498 0 
L 1498 166 
C 1037 166 960 166 960 455 
L 960 1517 
z
" transform="scale(0.015625)"/>
       <path id="CMR17-61" d="M 2304 1656 
C 2304 2048 2304 2275 2035 2534 
C 1798 2751 1523 2816 1306 2816 
C 800 2816 435 2408 435 1977 
C 435 1740 627 1728 666 1728 
C 749 1728 896 1779 896 1958 
C 896 2118 774 2188 666 2188 
C 640 2188 608 2182 589 2176 
C 723 2594 1069 2713 1293 2713 
C 1613 2713 1965 2421 1965 1875 
L 1965 1632 
C 1587 1619 1133 1568 774 1373 
C 371 1147 256 822 256 576 
C 256 77 832 -64 1171 -64 
C 1523 -64 1850 135 1990 505 
C 2003 219 2182 -39 2464 -39 
C 2598 -39 2938 51 2938 563 
L 2938 926 
L 2822 926 
L 2822 557 
C 2822 161 2650 109 2566 109 
C 2304 109 2304 446 2304 732 
L 2304 1656 
z
M 1965 887 
C 1965 323 1568 38 1216 38 
C 896 38 646 278 646 576 
C 646 771 730 1114 1101 1322 
C 1408 1497 1760 1523 1965 1536 
L 1965 887 
z
" transform="scale(0.015625)"/>
       <path id="CMR17-64" d="M 1869 4345 
L 1869 4179 
C 2246 4179 2304 4141 2304 3843 
L 2304 2371 
C 2278 2403 2016 2816 1498 2816 
C 845 2816 211 2228 211 1376 
C 211 529 806 -64 1434 -64 
C 1978 -64 2259 361 2291 406 
L 2291 -64 
L 3066 -13 
L 3066 154 
C 2688 154 2630 193 2630 503 
L 2630 4416 
L 1869 4345 
z
M 2291 762 
C 2291 568 2176 393 2029 264 
C 1811 70 1594 38 1472 38 
C 1286 38 621 135 621 1369 
C 621 2636 1363 2713 1530 2713 
C 1824 2713 2061 2545 2208 2313 
C 2291 2177 2291 2157 2291 2041 
L 2291 762 
z
" transform="scale(0.015625)"/>
       <path id="CMR17-5d" d="M 915 4800 
L 90 4800 
L 90 4575 
L 691 4575 
L 691 -1376 
L 90 -1376 
L 90 -1600 
L 915 -1600 
L 915 4800 
z
" transform="scale(0.015625)"/>
      </defs>
      <use xlink:href="#CMMI12-27" transform="scale(0.996264)"/>
      <use xlink:href="#CMR17-5b" transform="translate(93.97903 0) scale(0.996264)"/>
      <use xlink:href="#CMR17-72" transform="translate(118.850089 0) scale(0.996264)"/>
      <use xlink:href="#CMR17-61" transform="translate(154.130856 0) scale(0.996264)"/>
      <use xlink:href="#CMR17-64" transform="translate(199.821333 0) scale(0.996264)"/>
      <use xlink:href="#CMR17-5d" transform="translate(250.716703 0) scale(0.996264)"/>
     </g>
    </g>
   </g>
   <g id="matplotlib.axis_2">
    <g id="ytick_1">
     <g id="line2d_7">
      <path d="M 45.391695 114.827148 
L 161.43874 114.827148 
" clip-path="url(#pcf2f398068)" style="fill: none; stroke-dasharray: 0.74,0.32; stroke-dashoffset: 0; stroke: #808080; stroke-opacity: 0.7; stroke-width: 0.2"/>
     </g>
     <g id="line2d_8">
      <defs>
       <path id="m4ec12abbbb" d="M 0 0 
L 3.5 0 
" style="stroke: #000000; stroke-width: 0.5"/>
      </defs>
      <g>
       <use xlink:href="#m4ec12abbbb" x="45.391695" y="114.827148" style="stroke: #000000; stroke-width: 0.5"/>
      </g>
     </g>
     <g id="text_5">
      <!-- $\mathdefault{−100}$ -->
      <g transform="translate(22.60264 117.594549) scale(0.08 -0.08)">
       <defs>
        <path id="CMR17-31" d="M 1702 4083 
C 1702 4217 1696 4224 1606 4224 
C 1357 3927 979 3833 621 3820 
C 602 3820 570 3820 563 3808 
C 557 3795 557 3782 557 3648 
C 755 3648 1088 3686 1344 3839 
L 1344 467 
C 1344 243 1331 166 781 166 
L 589 166 
L 589 0 
C 896 6 1216 12 1523 12 
C 1830 12 2150 6 2458 0 
L 2458 166 
L 2266 166 
C 1715 166 1702 236 1702 467 
L 1702 4083 
z
" transform="scale(0.015625)"/>
       </defs>
       <use xlink:href="#CMSY10-0" transform="scale(0.996264)"/>
       <use xlink:href="#CMR17-31" transform="translate(77.487468 0) scale(0.996264)"/>
       <use xlink:href="#CMR17-30" transform="translate(123.177945 0) scale(0.996264)"/>
       <use xlink:href="#CMR17-30" transform="translate(168.868422 0) scale(0.996264)"/>
      </g>
     </g>
    </g>
    <g id="ytick_2">
     <g id="line2d_9">
      <path d="M 45.391695 89.544494 
L 161.43874 89.544494 
" clip-path="url(#pcf2f398068)" style="fill: none; stroke-dasharray: 0.74,0.32; stroke-dashoffset: 0; stroke: #808080; stroke-opacity: 0.7; stroke-width: 0.2"/>
     </g>
     <g id="line2d_10">
      <g>
       <use xlink:href="#m4ec12abbbb" x="45.391695" y="89.544494" style="stroke: #000000; stroke-width: 0.5"/>
      </g>
     </g>
     <g id="text_6">
      <!-- $\mathdefault{−50}$ -->
      <g transform="translate(26.836823 92.311894) scale(0.08 -0.08)">
       <defs>
        <path id="CMR17-35" d="M 730 3750 
C 794 3724 1056 3641 1325 3641 
C 1920 3641 2246 3961 2432 4140 
C 2432 4191 2432 4224 2394 4224 
C 2387 4224 2374 4224 2323 4198 
C 2099 4102 1837 4032 1517 4032 
C 1325 4032 1037 4055 723 4191 
C 653 4224 640 4224 634 4224 
C 602 4224 595 4217 595 4090 
L 595 2231 
C 595 2113 595 2080 659 2080 
C 691 2080 704 2093 736 2139 
C 941 2435 1222 2560 1542 2560 
C 1766 2560 2246 2415 2246 1293 
C 2246 1087 2246 716 2054 422 
C 1894 159 1645 25 1370 25 
C 947 25 518 319 403 812 
C 429 806 480 793 506 793 
C 589 793 749 838 749 1036 
C 749 1209 627 1280 506 1280 
C 358 1280 262 1190 262 1011 
C 262 454 704 -128 1382 -128 
C 2042 -128 2669 441 2669 1267 
C 2669 2054 2170 2662 1549 2662 
C 1222 2662 947 2540 730 2304 
L 730 3750 
z
" transform="scale(0.015625)"/>
       </defs>
       <use xlink:href="#CMSY10-0" transform="scale(0.996264)"/>
       <use xlink:href="#CMR17-35" transform="translate(77.487468 0) scale(0.996264)"/>
       <use xlink:href="#CMR17-30" transform="translate(123.177945 0) scale(0.996264)"/>
      </g>
     </g>
    </g>
    <g id="ytick_3">
     <g id="line2d_11">
      <path d="M 45.391695 64.261839 
L 161.43874 64.261839 
" clip-path="url(#pcf2f398068)" style="fill: none; stroke-dasharray: 0.74,0.32; stroke-dashoffset: 0; stroke: #808080; stroke-opacity: 0.7; stroke-width: 0.2"/>
     </g>
     <g id="line2d_12">
      <g>
       <use xlink:href="#m4ec12abbbb" x="45.391695" y="64.261839" style="stroke: #000000; stroke-width: 0.5"/>
      </g>
     </g>
     <g id="text_7">
      <!-- $\mathdefault{0}$ -->
      <g transform="translate(37.657512 67.02924) scale(0.08 -0.08)">
       <use xlink:href="#CMR17-30" transform="scale(0.996264)"/>
      </g>
     </g>
    </g>
    <g id="ytick_4">
     <g id="line2d_13">
      <path d="M 45.391695 38.979185 
L 161.43874 38.979185 
" clip-path="url(#pcf2f398068)" style="fill: none; stroke-dasharray: 0.74,0.32; stroke-dashoffset: 0; stroke: #808080; stroke-opacity: 0.7; stroke-width: 0.2"/>
     </g>
     <g id="line2d_14">
      <g>
       <use xlink:href="#m4ec12abbbb" x="45.391695" y="38.979185" style="stroke: #000000; stroke-width: 0.5"/>
      </g>
     </g>
     <g id="text_8">
      <!-- $\mathdefault{50}$ -->
      <g transform="translate(33.42333 41.746586) scale(0.08 -0.08)">
       <use xlink:href="#CMR17-35" transform="scale(0.996264)"/>
       <use xlink:href="#CMR17-30" transform="translate(45.690477 0) scale(0.996264)"/>
      </g>
     </g>
    </g>
    <g id="ytick_5">
     <g id="line2d_15">
      <path d="M 45.391695 13.696531 
L 161.43874 13.696531 
" clip-path="url(#pcf2f398068)" style="fill: none; stroke-dasharray: 0.74,0.32; stroke-dashoffset: 0; stroke: #808080; stroke-opacity: 0.7; stroke-width: 0.2"/>
     </g>
     <g id="line2d_16">
      <g>
       <use xlink:href="#m4ec12abbbb" x="45.391695" y="13.696531" style="stroke: #000000; stroke-width: 0.5"/>
      </g>
     </g>
     <g id="text_9">
      <!-- $\mathdefault{100}$ -->
      <g transform="translate(29.189147 16.463932) scale(0.08 -0.08)">
       <use xlink:href="#CMR17-31" transform="scale(0.996264)"/>
       <use xlink:href="#CMR17-30" transform="translate(45.690477 0) scale(0.996264)"/>
       <use xlink:href="#CMR17-30" transform="translate(91.380954 0) scale(0.996264)"/>
      </g>
     </g>
    </g>
    <g id="text_10">
     <!-- $M$ [kNm] -->
     <g transform="translate(16.11198 84.581507) rotate(-90) scale(0.1 -0.1)">
      <defs>
       <path id="CMMI12-4d" d="M 5811 3886 
C 5869 4102 5882 4166 6336 4166 
C 6458 4166 6515 4166 6515 4287 
C 6515 4352 6470 4352 6349 4352 
L 5581 4352 
C 5421 4352 5414 4345 5344 4243 
L 3008 567 
L 2528 4211 
C 2509 4352 2502 4352 2336 4352 
L 1542 4352 
C 1421 4352 1363 4352 1363 4230 
C 1363 4166 1421 4166 1517 4166 
C 1907 4166 1907 4115 1907 4045 
C 1907 4032 1907 3994 1882 3898 
L 1062 650 
C 986 344 838 204 410 185 
C 390 185 314 179 314 70 
C 314 0 371 0 397 0 
C 525 0 851 12 979 12 
L 1286 12 
C 1376 12 1485 0 1574 0 
C 1619 0 1690 0 1690 121 
C 1690 179 1626 185 1600 185 
C 1389 191 1184 230 1184 459 
C 1184 523 1184 529 1210 618 
L 2093 4128 
L 2099 4128 
L 2630 172 
C 2650 19 2656 0 2714 0 
C 2784 0 2816 51 2848 108 
L 5421 4159 
L 5427 4159 
L 4499 472 
C 4442 249 4429 185 3981 185 
C 3859 185 3795 185 3795 70 
C 3795 0 3853 0 3891 0 
C 4000 0 4128 12 4237 12 
L 4992 12 
C 5101 12 5235 0 5344 0 
C 5395 0 5466 0 5466 121 
C 5466 185 5408 185 5312 185 
C 4922 185 4922 236 4922 300 
C 4922 306 4922 351 4934 402 
L 5811 3886 
z
" transform="scale(0.015625)"/>
       <path id="CMR17-6b" d="M 1670 1679 
C 1664 1692 1632 1730 1632 1749 
C 1632 1762 2086 2175 2144 2226 
C 2509 2532 2739 2563 2906 2570 
L 2906 2735 
C 2867 2735 2854 2735 2848 2729 
L 2534 2722 
C 2355 2722 2080 2722 1907 2735 
L 1907 2570 
C 1997 2563 2061 2513 2061 2423 
C 2061 2296 1933 2175 1926 2175 
L 960 1298 
L 960 4416 
L 198 4345 
L 198 4179 
C 576 4179 634 4141 634 3835 
L 634 439 
C 634 198 608 166 198 166 
L 198 0 
C 352 12 634 12 794 12 
C 954 12 1235 12 1389 0 
L 1389 166 
C 979 166 954 191 954 439 
L 954 1139 
L 1395 1540 
L 2042 586 
C 2118 471 2182 382 2182 299 
C 2182 185 2067 166 1990 166 
L 1990 0 
C 2144 12 2419 12 2579 12 
C 2694 12 2931 6 3040 0 
L 3040 166 
C 2739 166 2669 223 2477 503 
L 1670 1679 
z
" transform="scale(0.015625)"/>
       <path id="CMR17-4e" d="M 1312 4275 
C 1267 4345 1261 4352 1139 4352 
L 326 4352 
L 326 4185 
L 448 4185 
C 704 4185 819 4153 838 4147 
L 838 624 
C 838 465 838 166 326 166 
L 326 0 
C 474 12 742 12 902 12 
C 1062 12 1331 12 1478 0 
L 1478 166 
C 966 166 966 465 966 624 
L 966 4057 
C 1011 4019 1011 4007 1056 3943 
L 3430 76 
C 3475 0 3494 0 3526 0 
C 3590 0 3590 19 3590 140 
L 3590 3726 
C 3590 3885 3590 4185 4102 4185 
L 4102 4352 
C 3955 4339 3686 4339 3526 4339 
C 3366 4339 3098 4339 2950 4352 
L 2950 4185 
C 3462 4185 3462 3885 3462 3726 
L 3462 777 
L 1312 4275 
z
" transform="scale(0.015625)"/>
       <path id="CMR17-6d" d="M 4326 1954 
C 4326 2276 4269 2816 3507 2816 
C 3072 2816 2771 2520 2656 2173 
L 2650 2173 
C 2573 2700 2195 2816 1837 2816 
C 1331 2816 1069 2424 973 2166 
L 966 2166 
L 966 2816 
L 211 2745 
L 211 2578 
C 589 2578 646 2540 646 2231 
L 646 443 
C 646 198 621 166 211 166 
L 211 0 
C 365 12 646 12 813 12 
C 979 12 1267 12 1421 0 
L 1421 166 
C 1011 166 986 192 986 443 
L 986 1678 
C 986 2269 1344 2713 1792 2713 
C 2266 2713 2317 2289 2317 1980 
L 2317 443 
C 2317 198 2291 166 1882 166 
L 1882 0 
C 2035 12 2317 12 2483 12 
C 2650 12 2938 12 3091 0 
L 3091 166 
C 2682 166 2656 192 2656 443 
L 2656 1678 
C 2656 2269 3014 2713 3462 2713 
C 3936 2713 3987 2289 3987 1980 
L 3987 443 
C 3987 198 3962 166 3552 166 
L 3552 0 
C 3706 12 3987 12 4154 12 
C 4320 12 4608 12 4762 0 
L 4762 166 
C 4352 166 4326 192 4326 443 
L 4326 1954 
z
" transform="scale(0.015625)"/>
      </defs>
      <use xlink:href="#CMMI12-4d" transform="scale(0.996264)"/>
      <use xlink:href="#CMR17-5b" transform="translate(134.856045 0) scale(0.996264)"/>
      <use xlink:href="#CMR17-6b" transform="translate(159.727104 0) scale(0.996264)"/>
      <use xlink:href="#CMR17-4e" transform="translate(208.02002 0) scale(0.996264)"/>
      <use xlink:href="#CMR17-6d" transform="translate(277.092449 0) scale(0.996264)"/>
      <use xlink:href="#CMR17-5d" transform="translate(354.012039 0) scale(0.996264)"/>
     </g>
    </g>
   </g>
   <g id="line2d_17">
    <path d="M 50.666561 114.827148 
L 51.73219 114.827148 
L 52.79782 114.827148 
L 53.863449 114.827148 
L 54.929079 114.827148 
L 55.994708 114.827148 
L 57.060338 114.827148 
L 58.125967 114.827148 
L 59.191596 114.827148 
L 60.257226 114.827148 
L 61.322855 114.827148 
L 62.388485 114.827148 
L 63.454114 114.827148 
L 64.519744 114.827148 
L 65.585373 114.827148 
L 66.651002 114.827148 
L 67.716632 114.827148 
L 68.782261 114.827148 
L 69.847891 114.827148 
L 70.91352 114.827148 
L 71.97915 114.827148 
L 73.044779 114.827148 
L 74.110408 114.827148 
L 75.176038 114.827148 
L 76.241667 114.827148 
L 77.307297 114.827148 
L 78.372926 114.827148 
L 79.438556 114.827148 
L 80.504185 114.827148 
L 81.569814 114.827148 
L 82.635444 114.827148 
L 83.701073 114.827148 
L 84.766703 114.827148 
L 85.832332 114.827148 
L 86.897962 114.827148 
L 87.963591 114.827148 
L 89.02922 114.827148 
L 90.09485 114.827148 
L 91.160479 114.827148 
L 92.226109 114.827148 
L 93.291738 114.827148 
L 94.357368 114.827148 
L 95.422997 114.827148 
L 96.488626 114.827148 
L 97.554256 114.827148 
L 98.619885 114.827148 
L 99.685515 114.827148 
L 100.751144 114.827148 
L 101.816774 114.827148 
L 102.882403 114.827148 
L 103.948032 13.696531 
L 105.013662 13.696531 
L 106.079291 13.696531 
L 107.144921 13.696531 
L 108.21055 13.696531 
L 109.27618 13.696531 
L 110.341809 13.696531 
L 111.407438 13.696531 
L 112.473068 13.696531 
L 113.538697 13.696531 
L 114.604327 13.696531 
L 115.669956 13.696531 
L 116.735586 13.696531 
L 117.801215 13.696531 
L 118.866844 13.696531 
L 119.932474 13.696531 
L 120.998103 13.696531 
L 122.063733 13.696531 
L 123.129362 13.696531 
L 124.194992 13.696531 
L 125.260621 13.696531 
L 126.32625 13.696531 
L 127.39188 13.696531 
L 128.457509 13.696531 
L 129.523139 13.696531 
L 130.588768 13.696531 
L 131.654398 13.696531 
L 132.720027 13.696531 
L 133.785656 13.696531 
L 134.851286 13.696531 
L 135.916915 13.696531 
L 136.982545 13.696531 
L 138.048174 13.696531 
L 139.113804 13.696531 
L 140.179433 13.696531 
L 141.245062 13.696531 
L 142.310692 13.696531 
L 143.376321 13.696531 
L 144.441951 13.696531 
L 145.50758 13.696531 
L 146.57321 13.696531 
L 147.638839 13.696531 
L 148.704468 13.696531 
L 149.770098 13.696531 
L 150.835727 13.696531 
L 151.901357 13.696531 
L 152.966986 13.696531 
L 154.032616 13.696531 
L 155.098245 13.696531 
L 156.163874 13.696531 
" clip-path="url(#pcf2f398068)" style="fill: none; stroke: #000000; stroke-width: 0.7; stroke-linecap: square"/>
   </g>
   <g id="line2d_18">
    <path d="M 50.666561 64.261839 
L 51.73219 64.261839 
L 52.79782 64.261839 
L 53.863449 64.261839 
L 54.929079 64.261839 
L 55.994708 64.261839 
L 57.060338 64.261839 
L 58.125967 64.261839 
L 59.191596 64.261839 
L 60.257226 64.261839 
L 61.322855 64.261839 
L 62.388485 64.261839 
L 63.454114 64.261839 
L 64.519744 64.261839 
L 65.585373 64.261839 
L 66.651002 64.261839 
L 67.716632 64.261839 
L 68.782261 64.261839 
L 69.847891 64.261839 
L 70.91352 64.261839 
L 71.97915 64.261839 
L 73.044779 64.261839 
L 74.110408 64.261839 
L 75.176038 64.261839 
L 76.241667 64.261839 
L 77.307297 64.261839 
L 78.372926 64.261839 
L 79.438556 64.261839 
L 80.504185 64.261839 
L 81.569814 64.261839 
L 82.635444 64.261839 
L 83.701073 64.261839 
L 84.766703 64.261839 
L 85.832332 64.261839 
L 86.897962 64.261839 
L 87.963591 64.261839 
L 89.02922 64.261839 
L 90.09485 64.261839 
L 91.160479 64.261839 
L 92.226109 64.261839 
L 93.291738 64.261839 
L 94.357368 64.261839 
L 95.422997 64.261839 
L 96.488626 64.261839 
L 97.554256 64.261839 
L 98.619885 64.261839 
L 99.685515 64.261839 
L 100.751144 64.261839 
L 101.816774 64.261839 
L 102.882403 64.261839 
L 103.948032 64.261839 
L 105.013662 64.261839 
L 106.079291 64.261839 
L 107.144921 64.261839 
L 108.21055 64.261839 
L 109.27618 64.261839 
L 110.341809 64.261839 
L 111.407438 64.261839 
L 112.473068 64.261839 
L 113.538697 64.261839 
L 114.604327 64.261839 
L 115.669956 64.261839 
L 116.735586 64.261839 
L 117.801215 64.261839 
L 118.866844 64.261839 
L 119.932474 64.261839 
L 120.998103 64.261839 
L 122.063733 64.261839 
L 123.129362 64.261839 
L 124.194992 64.261839 
L 125.260621 64.261839 
L 126.32625 64.261839 
L 127.39188 64.261839 
L 128.457509 64.261839 
L 129.523139 64.261839 
L 130.588768 64.261839 
L 131.654398 64.261839 
L 132.720027 64.261839 
L 133.785656 64.261839 
L 134.851286 64.261839 
L 135.916915 64.261839 
L 136.982545 64.261839 
L 138.048174 64.261839 
L 139.113804 64.261839 
L 140.179433 64.261839 
L 141.245062 64.261839 
L 142.310692 64.261839 
L 143.376321 64.261839 
L 144.441951 64.261839 
L 145.50758 64.261839 
L 146.57321 64.261839 
L 147.638839 64.261839 
L 148.704468 64.261839 
L 149.770098 64.261839 
L 150.835727 64.261839 
L 151.901357 64.261839 
L 152.966986 64.261839 
L 154.032616 64.261839 
L 155.098245 64.261839 
L 156.163874 64.261839 
" clip-path="url(#pcf2f398068)" style="fill: none; stroke: #808080; stroke-width: 0.7; stroke-linecap: square"/>
   </g>
   <g id="patch_3">
    <path d="M 45.391695 119.883679 
L 45.391695 8.64 
" style="fill: none; stroke: #000000; stroke-width: 0.5; stroke-linejoin: miter; stroke-linecap: square"/>
   </g>
   <g id="patch_4">
    <path d="M 161.43874 119.883679 
L 161.43874 8.64 
" style="fill: none; stroke: #000000; stroke-width: 0.5; stroke-linejoin: miter; stroke-linecap: square"/>
   </g>
   <g id="patch_5">
    <path d="M 45.391695 119.883679 
L 161.43874 119.883679 
" style="fill: none; stroke: #000000; stroke-width: 0.5; stroke-linejoin: miter; stroke-linecap: square"/>
   </g>
   <g id="patch_6">
    <path d="M 45.391695 8.64 
L 161.43874 8.64 
" style="fill: none; stroke: #000000; stroke-width: 0.5; stroke-linejoin: miter; stroke-linecap: square"/>
   </g>
  </g>
 </g>
 <defs>
  <clipPath id="pcf2f398068">
   <rect x="45.391695" y="8.64" width="116.047045" height="111.243679"/>
  </clipPath>
 </defs>
</svg>
