<?xml version="1.0" encoding="UTF-8" standalone="no"?>
<!-- Created with Inkscape (http://www.inkscape.org/) -->

<svg
   version="1.1"
   id="svg1"
   width="566.92932"
   height="340.15732"
   viewBox="0 0 566.92932 340.15732"
   sodipodi:docname="trm_lpa2.pdf"
   xmlns:inkscape="http://www.inkscape.org/namespaces/inkscape"
   xmlns:sodipodi="http://sodipodi.sourceforge.net/DTD/sodipodi-0.dtd"
   xmlns="http://www.w3.org/2000/svg"
   xmlns:svg="http://www.w3.org/2000/svg">
  <defs
     id="defs1">
    <clipPath
       clipPathUnits="userSpaceOnUse"
       id="clipPath27">
      <path
         d="M -0.00426,-0.00255 V 255.12067 H 425.20111 V -0.00255 H -0.00426"
         transform="matrix(1,0,0,-1,-50.200432,57.244024)"
         clip-rule="evenodd"
         id="path27" />
    </clipPath>
    <clipPath
       clipPathUnits="userSpaceOnUse"
       id="clipPath28">
      <path
         d="M -0.00426,-0.00255 V 255.12067 H 425.20111 V -0.00255 H -0.00426"
         transform="matrix(1,0,0,-1,-72.458322,57.244024)"
         clip-rule="evenodd"
         id="path28" />
    </clipPath>
    <clipPath
       clipPathUnits="userSpaceOnUse"
       id="clipPath29">
      <path
         d="M -0.00426,-0.00255 V 255.12067 H 425.20111 V -0.00255 H -0.00426"
         transform="matrix(1,0,0,-1,-69.629902,26.888171)"
         clip-rule="evenodd"
         id="path29" />
    </clipPath>
    <clipPath
       clipPathUnits="userSpaceOnUse"
       id="clipPath30">
      <path
         d="M -0.00426,-0.00255 V 255.12067 H 425.20111 V -0.00255 H -0.00426"
         transform="matrix(1,0,0,-1,-50.541971,38.615508)"
         clip-rule="evenodd"
         id="path30" />
    </clipPath>
    <clipPath
       clipPathUnits="userSpaceOnUse"
       id="clipPath31">
      <path
         d="M -0.00426,-0.00255 V 255.12067 H 425.20111 V -0.00255 H -0.00426"
         transform="matrix(1,0,0,-1,-60.774322,5.4493901)"
         clip-rule="evenodd"
         id="path31" />
    </clipPath>
    <clipPath
       clipPathUnits="userSpaceOnUse"
       id="clipPath32">
      <path
         d="M -0.00426,-0.00255 V 255.12067 H 425.20111 V -0.00255 H -0.00426"
         transform="matrix(1,0,0,-1,-303.14656,235.51864)"
         clip-rule="evenodd"
         id="path32" />
    </clipPath>
    <clipPath
       clipPathUnits="userSpaceOnUse"
       id="clipPath33">
      <path
         d="M -0.00426,-0.00255 V 255.12067 H 425.20111 V -0.00255 H -0.00426"
         transform="matrix(1,0,0,-1,-315.02293,231.38478)"
         clip-rule="evenodd"
         id="path33" />
    </clipPath>
    <clipPath
       clipPathUnits="userSpaceOnUse"
       id="clipPath34">
      <path
         d="M -0.00426,-0.00255 V 255.12067 H 425.20111 V -0.00255 H -0.00426"
         transform="matrix(1,0,0,-1,-32.547711,159.6446)"
         clip-rule="evenodd"
         id="path34" />
    </clipPath>
    <clipPath
       clipPathUnits="userSpaceOnUse"
       id="clipPath35">
      <path
         d="M -0.00426,-0.00255 V 255.12067 H 425.20111 V -0.00255 H -0.00426"
         transform="matrix(1,0,0,-1,-44.424071,155.51075)"
         clip-rule="evenodd"
         id="path35" />
    </clipPath>
  </defs>
  <sodipodi:namedview
     id="namedview1"
     pagecolor="#ffffff"
     bordercolor="#000000"
     borderopacity="0.25"
     inkscape:showpageshadow="2"
     inkscape:pageopacity="0.0"
     inkscape:pagecheckerboard="0"
     inkscape:deskcolor="#d1d1d1">
    <inkscape:page
       x="0"
       y="0"
       inkscape:label="1"
       id="page1"
       width="566.92932"
       height="340.15732"
       margin="0"
       bleed="0" />
  </sodipodi:namedview>
  <g
     id="g1"
     inkscape:groupmode="layer"
     inkscape:label="1">
    <path
       id="path1"
       d="m 130.38474,182.97748 0.0191,24.56692 m 120.37778,-178.41783 0.0189,24.56693 m -167.93039,43.52166 0.01905,24.56693 m 247.21874,50.34331 0.0191,24.56692 m -217.15675,-137.935 0.0191,24.56691 m 247.21875,50.34334 0.019,24.56693 m -307.45709,-22.56147 0.01906,24.56693"
       style="fill:none;stroke:#000000;stroke-width:0.3685;stroke-linecap:round;stroke-linejoin:round;stroke-miterlimit:10;stroke-dasharray:none;stroke-opacity:1"
       transform="matrix(1.3333333,0,0,-1.3333333,0,340.15733)" />
    <path
       id="path2"
       d="m 83.61153,149.78085 0.02473,-4.7557 m -0.02473,4.7557 0.0094,-4.76031 m -30.85101,-9.34751 0.01906,24.56693 m 216.24409,45.72153 0.0247,-4.75571 m -0.0247,4.75571 0.009,-4.76032 m -0.009,4.76032 0.0247,-4.75571"
       style="fill:none;stroke:#000000;stroke-width:0.22678;stroke-linecap:round;stroke-linejoin:round;stroke-miterlimit:10;stroke-dasharray:none;stroke-opacity:1"
       transform="matrix(1.3333333,0,0,-1.3333333,0,340.15733)" />
    <path
       id="path3"
       d="m 300.00775,210.58325 0.0191,24.56693"
       style="fill:none;stroke:#000000;stroke-width:0.3685;stroke-linecap:round;stroke-linejoin:round;stroke-miterlimit:10;stroke-dasharray:none;stroke-opacity:1"
       transform="matrix(1.3333333,0,0,-1.3333333,0,340.15733)" />
    <path
       id="path4"
       d="m 300.00775,210.58325 0.0191,24.56693 m -0.0191,-24.56693 0.0191,24.56693 m -247.2378,-74.91022 30.82251,-10.45911 61.85325,4.5047 61.77979,18.74271 61.78854,32.93323 30.99371,29.18869"
       style="fill:none;stroke:#000000;stroke-width:0.22678;stroke-linecap:round;stroke-linejoin:round;stroke-miterlimit:10;stroke-dasharray:none;stroke-opacity:1"
       transform="matrix(1.3333333,0,0,-1.3333333,0,340.15733)" />
    <path
       id="path5"
       d="m 175.51678,102.61423 0.0176,22.67717"
       style="fill:none;stroke:#000000;stroke-width:0.3685;stroke-linecap:round;stroke-linejoin:round;stroke-miterlimit:10;stroke-dasharray:none;stroke-opacity:1"
       transform="matrix(1.3333333,0,0,-1.3333333,0,340.15733)" />
    <path
       id="path6"
       d="m 175.53436,125.2914 -0.0176,-22.67717"
       style="fill:none;stroke:#000000;stroke-width:0.22678;stroke-linecap:round;stroke-linejoin:round;stroke-miterlimit:10;stroke-dasharray:none;stroke-opacity:1"
       transform="matrix(1.3333333,0,0,-1.3333333,0,340.15733)" />
    <path
       id="path7"
       d="m 237.32709,121.34206 0.0176,22.67717"
       style="fill:none;stroke:#000000;stroke-width:0.3685;stroke-linecap:round;stroke-linejoin:round;stroke-miterlimit:10;stroke-dasharray:none;stroke-opacity:1"
       transform="matrix(1.3333333,0,0,-1.3333333,0,340.15733)" />
    <path
       id="path8"
       d="m 237.35995,144.02383 -0.0329,-22.68177"
       style="fill:none;stroke:#000000;stroke-width:0.22678;stroke-linecap:round;stroke-linejoin:round;stroke-miterlimit:10;stroke-dasharray:none;stroke-opacity:1"
       transform="matrix(1.3333333,0,0,-1.3333333,0,340.15733)" />
    <path
       id="path9"
       d="m 205.61688,64.15639 0.0176,22.67715"
       style="fill:none;stroke:#000000;stroke-width:0.3685;stroke-linecap:round;stroke-linejoin:round;stroke-miterlimit:10;stroke-dasharray:none;stroke-opacity:1"
       transform="matrix(1.3333333,0,0,-1.3333333,0,340.15733)" />
    <path
       id="path10"
       d="m 205.63449,86.83354 -0.0176,-22.67715"
       style="fill:none;stroke:#000000;stroke-width:0.22678;stroke-linecap:round;stroke-linejoin:round;stroke-miterlimit:10;stroke-dasharray:none;stroke-opacity:1"
       transform="matrix(1.3333333,0,0,-1.3333333,0,340.15733)" />
    <path
       id="path11"
       d="m 267.42722,82.8842 0.0176,22.67717"
       style="fill:none;stroke:#000000;stroke-width:0.3685;stroke-linecap:round;stroke-linejoin:round;stroke-miterlimit:10;stroke-dasharray:none;stroke-opacity:1"
       transform="matrix(1.3333333,0,0,-1.3333333,0,340.15733)" />
    <path
       id="path12"
       d="m 329.26279,121.92789 -0.005,2.36219 m 0.005,-2.36219 -0.005,2.36219 m 0.005,-2.36219 -0.005,2.36219 m -93.51877,-78.27659 0.0106,2.34271"
       style="fill:none;stroke:#000000;stroke-width:0.22678;stroke-linecap:round;stroke-linejoin:round;stroke-miterlimit:10;stroke-dasharray:none;stroke-opacity:1"
       transform="matrix(1.3333333,0,0,-1.3333333,0,340.15733)" />
    <path
       id="path13"
       d="m 250.80048,53.6935 -15.06116,-7.68001 -30.12244,18.1429 -30.1001,38.45784 -30.07782,58.77282 -15.03515,46.15735 m 182.18811,-159.66588 0.0189,24.56693 -15.06113,-7.68001 -30.12243,18.14289 -30.10013,38.45785 -30.07779,58.77283 -15.03519,46.15735 m -0.0191,-24.56693 0.0191,24.56693 m -123.64268,-62.04761 0.01906,24.56692"
       style="fill:none;stroke:#000000;stroke-width:0.3685;stroke-linecap:round;stroke-linejoin:round;stroke-miterlimit:10;stroke-dasharray:none;stroke-opacity:1"
       transform="matrix(1.3333333,0,0,-1.3333333,0,340.15733)" />
    <path
       id="path14"
       d="m 207.25986,182.48169 v -9.44882 m -93.53876,-66.4702 v -9.44881 m 0,7.08931 v 2.3595 m -30.83196,15.21942 30.83196,-17.57892 61.79568,-1.58894 61.81031,18.72783 61.8356,39.04368 30.96426,36.30658 M 143.82123,68.10483 v -9.44882 m 0,9.44882 v -2.35951 2.35951 m 0,-2.35951 v 2.35951 m -30.83197,15.2194 30.83197,-17.57891 61.79565,-1.58893 61.82559,18.70833 61.82032,39.06317 30.96426,36.30661"
       style="fill:none;stroke:#000000;stroke-width:0.22678;stroke-linecap:round;stroke-linejoin:round;stroke-miterlimit:10;stroke-dasharray:none;stroke-opacity:1"
       transform="matrix(1.3333333,0,0,-1.3333333,0,340.15733)" />
    <path
       id="path15"
       d="m 188.96832,10.42198 0.019,24.56693 m 185.41781,31.61833 0.019,24.56692 m -120.41589,129.25986 0.019,24.56693 M 143.07031,20.29947 l 0.0191,24.56692"
       style="fill:none;stroke:#000000;stroke-width:0.3685;stroke-linecap:round;stroke-linejoin:round;stroke-miterlimit:10;stroke-dasharray:none;stroke-opacity:1"
       transform="matrix(1.3333333,0,0,-1.3333333,0,340.15733)" />
    <path
       id="path16"
       d="m 143.07031,20.29947 0.0191,24.56692 30.82251,-10.4591 61.85324,4.50471 61.77978,18.74269 61.78855,32.93323 30.99371,29.18871 m -216.4153,-85.36934 0.009,-4.76032 M 68.59052,188.81567 83.61153,149.78085 113.7211,97.11386 143.82123,58.65601 173.9119,34.40729 l 15.07547,0.58162 m 170.37081,50.84332 -0.0247,4.75569 m -105.3061,154.41303 15.021,-39.03486 30.10959,-52.66699 30.10013,-38.45784 30.07538,-24.25334 15.09075,0.58624"
       style="fill:none;stroke:#000000;stroke-width:0.22678;stroke-linecap:round;stroke-linejoin:round;stroke-miterlimit:10;stroke-dasharray:none;stroke-opacity:1"
       transform="matrix(1.3333333,0,0,-1.3333333,0,340.15733)" />
    <path
       id="path17"
       d="m 390.30814,95.2097 0.019,24.56693"
       style="fill:none;stroke:#000000;stroke-width:0.3685;stroke-linecap:round;stroke-linejoin:round;stroke-miterlimit:10;stroke-dasharray:none;stroke-opacity:1"
       transform="matrix(1.3333333,0,0,-1.3333333,0,340.15733)" />
    <path
       id="path18"
       d="m 390.30814,95.2097 0.019,24.56693 m -91.16922,42.97129 0.019,-9.47302 m 30.08118,-28.98482 0.0189,-9.46408"
       style="fill:none;stroke:#000000;stroke-width:0.22678;stroke-linecap:round;stroke-linejoin:round;stroke-miterlimit:10;stroke-dasharray:none;stroke-opacity:1"
       transform="matrix(1.3333333,0,0,-1.3333333,0,340.15733)" />
    <path
       id="path19"
       d="m 297.5376,57.65247 0.007,9.45105"
       style="fill:none;stroke:#000000;stroke-width:0.3685;stroke-linecap:round;stroke-linejoin:round;stroke-miterlimit:10;stroke-dasharray:none;stroke-opacity:1"
       transform="matrix(1.3333333,0,0,-1.3333333,0,340.15733)" />
    <path
       id="path20"
       d="m 235.73462,48.37569 0.0189,-9.46453 m -90.31927,124.83808 0.0189,-9.46451"
       style="fill:none;stroke:#000000;stroke-width:0.22678;stroke-linecap:round;stroke-linejoin:round;stroke-miterlimit:10;stroke-dasharray:none;stroke-opacity:1"
       transform="matrix(1.3333333,0,0,-1.3333333,0,340.15733)" />
    <path
       id="path21"
       d="M 188.96832,10.42198 68.57146,164.24875 M 250.78159,29.1507 130.38474,182.97748 M 374.40518,66.60724 254.00833,220.43402 M 143.07031,20.29947 390.30814,95.2097 M 112.9702,58.75732 360.20801,133.66757 M 82.87009,97.21516 330.10788,172.1254 M 52.76996,135.67303 300.00775,210.58325 M 312.59192,47.90263 192.19507,201.72943 M 188.96832,10.42198 68.57146,164.24875 M 143.07031,20.29947 390.30814,95.2097 M 53.86659,23.62685 66.71634,27.52023 m -2.8485,-0.86306 -0.20346,-0.06165 m 3.05196,0.92471 v 0 l -2.97179,-0.45614 0.24658,-0.81385 2.72521,1.26999"
       style="fill:none;stroke:#000000;stroke-width:0.3685;stroke-linecap:round;stroke-linejoin:round;stroke-miterlimit:10;stroke-dasharray:none;stroke-opacity:1"
       transform="matrix(1.3333333,0,0,-1.3333333,0,340.15733)" />
    <path
       id="path22"
       d="m 63.99113,26.25024 2.72521,1.26999 -2.97179,-0.45614 z"
       style="fill:#000000;fill-opacity:1;fill-rule:nonzero;stroke:none"
       transform="matrix(1.3333333,0,0,-1.3333333,0,340.15733)" />
    <path
       id="path23"
       d="m 53.86659,23.62685 7.0192,-8.99251 m -1.83139,2.34625 -0.13082,0.16759 m 1.96221,-2.51384 v 0 l -1.4962,2.60786 -0.67037,-0.52324 2.16657,-2.08462"
       style="fill:none;stroke:#000000;stroke-width:0.3685;stroke-linecap:round;stroke-linejoin:round;stroke-miterlimit:10;stroke-dasharray:none;stroke-opacity:1"
       transform="matrix(1.3333333,0,0,-1.3333333,0,340.15733)" />
    <path
       id="path24"
       d="m 58.71922,16.71896 2.16657,-2.08462 -1.4962,2.60786 z"
       style="fill:#000000;fill-opacity:1;fill-rule:nonzero;stroke:none"
       transform="matrix(1.3333333,0,0,-1.3333333,0,340.15733)" />
    <path
       id="path25"
       d="m 53.86659,23.62685 v 11.07708 m 0,-2.97638 v -0.2126 m 0,3.18898 v 0 l -0.4252,-2.97638 h 0.8504 l -0.4252,2.97638"
       style="fill:none;stroke:#000000;stroke-width:0.3685;stroke-linecap:round;stroke-linejoin:round;stroke-miterlimit:10;stroke-dasharray:none;stroke-opacity:1"
       transform="matrix(1.3333333,0,0,-1.3333333,0,340.15733)" />
    <path
       id="path26"
       d="m 54.29179,31.72755 -0.4252,2.97638 -0.4252,-2.97638 z"
       style="fill:#000000;fill-opacity:1;fill-rule:nonzero;stroke:none"
       transform="matrix(1.3333333,0,0,-1.3333333,0,340.15733)" />
    <text
       id="text26"
       xml:space="preserve"
       transform="matrix(1.3333333,0,0,1.3333333,66.933907,263.83197)"
       clip-path="url(#clipPath27)"><tspan
         style="font-style:italic;font-variant:normal;font-weight:normal;font-stretch:normal;font-size:10.0071px;font-family:'Palatino Linotype';writing-mode:lr-tb;fill:#000000;fill-opacity:1;fill-rule:nonzero;stroke:none"
         x="0 5.5639644 11.678321 14.180103 19.183668"
         y="0"
         sodipodi:role="line"
         id="tspan26">LP = </tspan></text>
    <text
       id="text27"
       xml:space="preserve"
       transform="matrix(1.3333333,0,0,1.3333333,96.611093,263.83197)"
       clip-path="url(#clipPath28)"><tspan
         style="font-variant:normal;font-weight:normal;font-stretch:normal;font-size:10.0916px;font-family:'Palatino Linotype';writing-mode:lr-tb;fill:#000000;fill-opacity:1;fill-rule:nonzero;stroke:none"
         x="0 5.045805 7.5687075 12.614512 17.660318"
         y="0"
         sodipodi:role="line"
         id="tspan27">0.747</tspan></text>
    <text
       id="text28"
       xml:space="preserve"
       transform="matrix(1.3333333,0,0,1.3333333,92.839867,304.30644)"
       clip-path="url(#clipPath29)"><tspan
         style="font-style:italic;font-variant:normal;font-weight:normal;font-stretch:normal;font-size:10.0071px;font-family:'Palatino Linotype';writing-mode:lr-tb;fill:#000000;fill-opacity:1;fill-rule:nonzero;stroke:none"
         x="0"
         y="0"
         id="tspan28">Y</tspan></text>
    <text
       id="text29"
       xml:space="preserve"
       transform="matrix(1.3333333,0,0,1.3333333,67.389293,288.66999)"
       clip-path="url(#clipPath30)"><tspan
         style="font-style:italic;font-variant:normal;font-weight:normal;font-stretch:normal;font-size:10.0071px;font-family:'Palatino Linotype';writing-mode:lr-tb;fill:#000000;fill-opacity:1;fill-rule:nonzero;stroke:none"
         x="0"
         y="0"
         id="tspan29">Z</tspan></text>
    <text
       id="text30"
       xml:space="preserve"
       transform="matrix(1.3333333,0,0,1.3333333,81.032427,332.89148)"
       clip-path="url(#clipPath31)"><tspan
         style="font-style:italic;font-variant:normal;font-weight:normal;font-stretch:normal;font-size:10.0071px;font-family:'Palatino Linotype';writing-mode:lr-tb;fill:#000000;fill-opacity:1;fill-rule:nonzero;stroke:none"
         x="0"
         y="0"
         id="tspan30">X</tspan></text>
    <text
       id="text31"
       xml:space="preserve"
       transform="matrix(1.3333333,0,0,1.3333333,404.1954,26.132493)"
       clip-path="url(#clipPath32)"><tspan
         style="font-style:italic;font-variant:normal;font-weight:normal;font-stretch:normal;font-size:10.0071px;font-family:'Palatino Linotype';writing-mode:lr-tb;fill:#000000;fill-opacity:1;fill-rule:nonzero;stroke:none"
         x="0 9.4467306"
         y="0"
         sodipodi:role="line"
         id="tspan31">M'</tspan></text>
    <text
       id="text32"
       xml:space="preserve"
       transform="matrix(1.3333333,0,0,1.3333333,420.03056,31.644307)"
       clip-path="url(#clipPath33)"><tspan
         style="font-style:italic;font-variant:normal;font-weight:normal;font-stretch:normal;font-size:6.00428px;font-family:'Palatino Linotype';writing-mode:lr-tb;fill:#000000;fill-opacity:1;fill-rule:nonzero;stroke:none"
         x="0"
         y="0"
         id="tspan32">u</tspan></text>
    <text
       id="text33"
       xml:space="preserve"
       transform="matrix(1.3333333,0,0,1.3333333,43.396947,127.29787)"
       clip-path="url(#clipPath34)"><tspan
         style="font-style:italic;font-variant:normal;font-weight:normal;font-stretch:normal;font-size:10.0071px;font-family:'Palatino Linotype';writing-mode:lr-tb;fill:#000000;fill-opacity:1;fill-rule:nonzero;stroke:none"
         x="0 9.4467306"
         y="0"
         sodipodi:role="line"
         id="tspan33">M'</tspan></text>
    <text
       id="text34"
       xml:space="preserve"
       transform="matrix(1.3333333,0,0,1.3333333,59.232093,132.80967)"
       clip-path="url(#clipPath35)"><tspan
         style="font-style:italic;font-variant:normal;font-weight:normal;font-stretch:normal;font-size:6.00428px;font-family:'Palatino Linotype';writing-mode:lr-tb;fill:#000000;fill-opacity:1;fill-rule:nonzero;stroke:none"
         x="0"
         y="0"
         id="tspan34">u</tspan></text>
  </g>
</svg>
