<?xml version="1.0" encoding="UTF-8" standalone="no"?>
<!-- Created with Inkscape (http://www.inkscape.org/) -->

<svg
   version="1.1"
   id="svg1"
   width="566.92932"
   height="434.64532"
   viewBox="0 0 566.92932 434.64532"
   sodipodi:docname="trm_uebersicht.pdf"
   xmlns:inkscape="http://www.inkscape.org/namespaces/inkscape"
   xmlns:sodipodi="http://sodipodi.sourceforge.net/DTD/sodipodi-0.dtd"
   xmlns="http://www.w3.org/2000/svg"
   xmlns:svg="http://www.w3.org/2000/svg">
  <defs
     id="defs1">
    <clipPath
       clipPathUnits="userSpaceOnUse"
       id="clipPath27">
      <path
         d="M -0.00426,-0.00327 V 325.98752 H 425.20111 V -0.00327 H -0.00426"
         transform="matrix(0,1,1,0,-28.924368,-399.49175)"
         clip-rule="evenodd"
         id="path27" />
    </clipPath>
    <clipPath
       clipPathUnits="userSpaceOnUse"
       id="clipPath28">
      <path
         d="M -0.00426,-0.00327 V 325.98752 H 425.20111 V -0.00327 H -0.00426"
         transform="matrix(0,1,1,0,-83.049455,-399.49175)"
         clip-rule="evenodd"
         id="path28" />
    </clipPath>
    <clipPath
       clipPathUnits="userSpaceOnUse"
       id="clipPath29">
      <path
         d="M -0.00426,-0.00327 V 325.98752 H 425.20111 V -0.00327 H -0.00426"
         transform="matrix(0,1,1,0,-158.64001,-399.49175)"
         clip-rule="evenodd"
         id="path29" />
    </clipPath>
    <clipPath
       clipPathUnits="userSpaceOnUse"
       id="clipPath30">
      <path
         d="M -0.00426,-0.00327 V 325.98752 H 425.20111 V -0.00327 H -0.00426"
         transform="matrix(0,1,1,0,-234.23056,-399.49175)"
         clip-rule="evenodd"
         id="path30" />
    </clipPath>
    <clipPath
       clipPathUnits="userSpaceOnUse"
       id="clipPath31">
      <path
         d="M -0.00426,-0.00327 V 325.98752 H 425.20111 V -0.00327 H -0.00426"
         transform="matrix(0,1,1,0,-293.49131,-399.49175)"
         clip-rule="evenodd"
         id="path31" />
    </clipPath>
    <clipPath
       clipPathUnits="userSpaceOnUse"
       id="clipPath33">
      <path
         d="M -0.00426,-0.00327 V 325.98752 H 425.20111 V -0.00327 H -0.00426"
         transform="matrix(1,0,0,-1,-316.53057,129.17332)"
         clip-rule="evenodd"
         id="path33" />
    </clipPath>
    <clipPath
       clipPathUnits="userSpaceOnUse"
       id="clipPath34">
      <path
         d="M -0.00426,-0.00327 V 325.98752 H 425.20111 V -0.00327 H -0.00426"
         transform="matrix(1,0,0,-1,-316.53057,53.582771)"
         clip-rule="evenodd"
         id="path34" />
    </clipPath>
    <clipPath
       clipPathUnits="userSpaceOnUse"
       id="clipPath35">
      <path
         d="M -0.00426,-0.00327 V 325.98752 H 425.20111 V -0.00327 H -0.00426"
         transform="matrix(1,0,0,-1,-243.06601,129.17332)"
         clip-rule="evenodd"
         id="path35" />
    </clipPath>
    <clipPath
       clipPathUnits="userSpaceOnUse"
       id="clipPath36">
      <path
         d="M -0.00426,-0.00327 V 325.98752 H 425.20111 V -0.00327 H -0.00426"
         transform="matrix(1,0,0,-1,-240.94003,53.582771)"
         clip-rule="evenodd"
         id="path36" />
    </clipPath>
    <clipPath
       clipPathUnits="userSpaceOnUse"
       id="clipPath37">
      <path
         d="M -0.00426,-0.00327 V 325.98752 H 425.20111 V -0.00327 H -0.00426"
         transform="matrix(1,0,0,-1,-354.32585,53.582771)"
         clip-rule="evenodd"
         id="path37" />
    </clipPath>
    <clipPath
       clipPathUnits="userSpaceOnUse"
       id="clipPath38">
      <path
         d="M -0.00426,-0.00327 V 325.98752 H 425.20111 V -0.00327 H -0.00426"
         transform="matrix(1,0,0,-1,-354.32585,129.17332)"
         clip-rule="evenodd"
         id="path38" />
    </clipPath>
    <clipPath
       clipPathUnits="userSpaceOnUse"
       id="clipPath39">
      <path
         d="M -0.00426,-0.00327 V 325.98752 H 425.20111 V -0.00327 H -0.00426"
         transform="matrix(1,0,0,-1,-240.94003,15.787503)"
         clip-rule="evenodd"
         id="path39" />
    </clipPath>
    <clipPath
       clipPathUnits="userSpaceOnUse"
       id="clipPath40">
      <path
         d="M -0.00426,-0.00327 V 325.98752 H 425.20111 V -0.00327 H -0.00426"
         transform="matrix(1,0,0,-1,-316.53057,15.787503)"
         clip-rule="evenodd"
         id="path40" />
    </clipPath>
    <clipPath
       clipPathUnits="userSpaceOnUse"
       id="clipPath41">
      <path
         d="M -0.00426,-0.00327 V 325.98752 H 425.20111 V -0.00327 H -0.00426"
         transform="matrix(1,0,0,-1,-184.07001,209.81201)"
         clip-rule="evenodd"
         id="path41" />
    </clipPath>
    <clipPath
       clipPathUnits="userSpaceOnUse"
       id="clipPath42">
      <path
         d="M -0.00426,-0.00327 V 325.98752 H 425.20111 V -0.00327 H -0.00426"
         transform="matrix(1,0,0,-1,-202.28677,163.86073)"
         clip-rule="evenodd"
         id="path42" />
    </clipPath>
    <clipPath
       clipPathUnits="userSpaceOnUse"
       id="clipPath43">
      <path
         d="M -0.00426,-0.00327 V 325.98752 H 425.20111 V -0.00327 H -0.00426"
         transform="matrix(1,0,0,-1,-228.5857,159.90914)"
         clip-rule="evenodd"
         id="path43" />
    </clipPath>
    <clipPath
       clipPathUnits="userSpaceOnUse"
       id="clipPath44">
      <path
         d="M -0.00426,-0.00327 V 325.98752 H 425.20111 V -0.00327 H -0.00426"
         transform="matrix(1,0,0,-1,-208.99974,138.01568)"
         clip-rule="evenodd"
         id="path44" />
    </clipPath>
  </defs>
  <sodipodi:namedview
     id="namedview1"
     pagecolor="#ffffff"
     bordercolor="#000000"
     borderopacity="0.25"
     inkscape:showpageshadow="2"
     inkscape:pageopacity="0.0"
     inkscape:pagecheckerboard="0"
     inkscape:deskcolor="#d1d1d1">
    <inkscape:page
       x="0"
       y="0"
       inkscape:label="1"
       id="page1"
       width="566.92932"
       height="434.64532"
       margin="0"
       bleed="0" />
  </sodipodi:namedview>
  <g
     id="g1"
     inkscape:groupmode="layer"
     inkscape:label="1">
    <path
       id="path1"
       d="m 176.69293,200.27451 c 0,1.04367 -0.84607,1.88974 -1.88974,1.88974 m 0,0 c -1.0437,0 -1.88977,-0.84607 -1.88977,-1.88974 m 0,0 c 0,-1.04371 0.84607,-1.88977 1.88977,-1.88977 m 0,0 c 1.04367,0 1.88974,0.84606 1.88974,1.88977"
       style="fill:none;stroke:#4c4c4c;stroke-width:0.51024;stroke-linecap:round;stroke-linejoin:round;stroke-miterlimit:10;stroke-dasharray:none;stroke-opacity:1"
       transform="matrix(1.3333333,0,0,-1.3333333,0,434.64533)" />
    <path
       id="path2"
       d="m 252.28351,200.27451 c 0,1.04367 -0.8461,1.88974 -1.88977,1.88974 m 0,0 c -1.0437,0 -1.88977,-0.84607 -1.88977,-1.88974 m 0,0 c 0,-1.04371 0.84607,-1.88977 1.88977,-1.88977 m 0,0 c 1.04367,0 1.88977,0.84606 1.88977,1.88977"
       style="fill:none;stroke:#4c4c4c;stroke-width:0.51024;stroke-linecap:round;stroke-linejoin:round;stroke-miterlimit:10;stroke-dasharray:none;stroke-opacity:1"
       transform="matrix(1.3333333,0,0,-1.3333333,0,434.64533)" />
    <path
       id="path3"
       d="m 176.69293,275.86505 c 0,1.04367 -0.84607,1.88974 -1.88974,1.88974 m 0,0 c -1.0437,0 -1.88977,-0.84607 -1.88977,-1.88974 m 0,0 c 0,-1.0437 0.84607,-1.88977 1.88977,-1.88977 m 0,0 c 1.04367,0 1.88974,0.84607 1.88974,1.88977"
       style="fill:none;stroke:#4c4c4c;stroke-width:0.51024;stroke-linecap:round;stroke-linejoin:round;stroke-miterlimit:10;stroke-dasharray:none;stroke-opacity:1"
       transform="matrix(1.3333333,0,0,-1.3333333,0,434.64533)" />
    <path
       id="path4"
       d="m 252.28351,275.86505 c 0,1.04367 -0.8461,1.88974 -1.88977,1.88974 m 0,0 c -1.0437,0 -1.88977,-0.84607 -1.88977,-1.88974 m 0,0 c 0,-1.0437 0.84607,-1.88977 1.88977,-1.88977 m 0,0 c 1.04367,0 1.88977,0.84607 1.88977,1.88977"
       style="fill:none;stroke:#4c4c4c;stroke-width:0.51024;stroke-linecap:round;stroke-linejoin:round;stroke-miterlimit:10;stroke-dasharray:none;stroke-opacity:1"
       transform="matrix(1.3333333,0,0,-1.3333333,0,434.64533)" />
    <path
       id="path5"
       d="m 176.69293,49.09338 c 0,1.04369 -0.84607,1.88977 -1.88974,1.88977 m 0,0 c -1.0437,0 -1.88977,-0.84608 -1.88977,-1.88977 m 0,0 c 0,-1.04368 0.84607,-1.88977 1.88977,-1.88977 m 0,0 c 1.04367,0 1.88974,0.84609 1.88974,1.88977"
       style="fill:none;stroke:#4c4c4c;stroke-width:0.51024;stroke-linecap:round;stroke-linejoin:round;stroke-miterlimit:10;stroke-dasharray:none;stroke-opacity:1"
       transform="matrix(1.3333333,0,0,-1.3333333,0,434.64533)" />
    <path
       id="path6"
       d="m 252.28351,49.09338 c 0,1.04369 -0.8461,1.88977 -1.88977,1.88977 m 0,0 c -1.0437,0 -1.88977,-0.84608 -1.88977,-1.88977 m 0,0 c 0,-1.04368 0.84607,-1.88977 1.88977,-1.88977 m 0,0 c 1.04367,0 1.88977,0.84609 1.88977,1.88977"
       style="fill:none;stroke:#4c4c4c;stroke-width:0.51024;stroke-linecap:round;stroke-linejoin:round;stroke-miterlimit:10;stroke-dasharray:none;stroke-opacity:1"
       transform="matrix(1.3333333,0,0,-1.3333333,0,434.64533)" />
    <path
       id="path7"
       d="m 176.69293,124.68394 c 0,1.04369 -0.84607,1.88976 -1.88974,1.88976 m 0,0 c -1.0437,0 -1.88977,-0.84607 -1.88977,-1.88976 m 0,0 c 0,-1.0437 0.84607,-1.88977 1.88977,-1.88977 m 0,0 c 1.04367,0 1.88974,0.84607 1.88974,1.88977"
       style="fill:none;stroke:#4c4c4c;stroke-width:0.51024;stroke-linecap:round;stroke-linejoin:round;stroke-miterlimit:10;stroke-dasharray:none;stroke-opacity:1"
       transform="matrix(1.3333333,0,0,-1.3333333,0,434.64533)" />
    <path
       id="path8"
       d="m 252.28351,124.68394 c 0,1.04369 -0.8461,1.88976 -1.88977,1.88976 m 0,0 c -1.0437,0 -1.88977,-0.84607 -1.88977,-1.88976 m 0,0 c 0,-1.0437 0.84607,-1.88977 1.88977,-1.88977 m 0,0 c 1.04367,0 1.88977,0.84607 1.88977,1.88977"
       style="fill:none;stroke:#4c4c4c;stroke-width:0.51024;stroke-linecap:round;stroke-linejoin:round;stroke-miterlimit:10;stroke-dasharray:none;stroke-opacity:1"
       transform="matrix(1.3333333,0,0,-1.3333333,0,434.64533)" />
    <path
       id="path9"
       d="m 101.10239,200.27451 c 0,1.04367 -0.84607,1.88974 -1.88977,1.88974 m 0,0 c -1.04369,0 -1.88976,-0.84607 -1.88976,-1.88974 m 0,0 c 0,-1.04371 0.84607,-1.88977 1.88976,-1.88977 m 0,0 c 1.0437,0 1.88977,0.84606 1.88977,1.88977"
       style="fill:none;stroke:#4c4c4c;stroke-width:0.51024;stroke-linecap:round;stroke-linejoin:round;stroke-miterlimit:10;stroke-dasharray:none;stroke-opacity:1"
       transform="matrix(1.3333333,0,0,-1.3333333,0,434.64533)" />
    <path
       id="path10"
       d="m 101.10239,275.86505 c 0,1.04367 -0.84607,1.88974 -1.88977,1.88974 m 0,0 c -1.04369,0 -1.88976,-0.84607 -1.88976,-1.88974 m 0,0 c 0,-1.0437 0.84607,-1.88977 1.88976,-1.88977 m 0,0 c 1.0437,0 1.88977,0.84607 1.88977,1.88977"
       style="fill:none;stroke:#4c4c4c;stroke-width:0.51024;stroke-linecap:round;stroke-linejoin:round;stroke-miterlimit:10;stroke-dasharray:none;stroke-opacity:1"
       transform="matrix(1.3333333,0,0,-1.3333333,0,434.64533)" />
    <path
       id="path11"
       d="m 101.10239,49.09338 c 0,1.04369 -0.84607,1.88977 -1.88977,1.88977 m 0,0 c -1.04369,0 -1.88976,-0.84608 -1.88976,-1.88977 m 0,0 c 0,-1.04368 0.84607,-1.88977 1.88976,-1.88977 m 0,0 c 1.0437,0 1.88977,0.84609 1.88977,1.88977"
       style="fill:none;stroke:#4c4c4c;stroke-width:0.51024;stroke-linecap:round;stroke-linejoin:round;stroke-miterlimit:10;stroke-dasharray:none;stroke-opacity:1"
       transform="matrix(1.3333333,0,0,-1.3333333,0,434.64533)" />
    <path
       id="path12"
       d="m 101.10239,124.68394 c 0,1.04369 -0.84607,1.88976 -1.88977,1.88976 m 0,0 c -1.04369,0 -1.88976,-0.84607 -1.88976,-1.88976 m 0,0 c 0,-1.0437 0.84607,-1.88977 1.88976,-1.88977 m 0,0 c 1.0437,0 1.88977,0.84607 1.88977,1.88977"
       style="fill:none;stroke:#4c4c4c;stroke-width:0.51024;stroke-linecap:round;stroke-linejoin:round;stroke-miterlimit:10;stroke-dasharray:none;stroke-opacity:1"
       transform="matrix(1.3333333,0,0,-1.3333333,0,434.64533)" />
    <path
       id="path13"
       d="m 327.87405,200.27451 c 0,1.04367 -0.8461,1.88974 -1.88977,1.88974 m 0,0 c -1.0437,0 -1.88977,-0.84607 -1.88977,-1.88974 m 0,0 c 0,-1.04371 0.84607,-1.88977 1.88977,-1.88977 m 0,0 c 1.04367,0 1.88977,0.84606 1.88977,1.88977"
       style="fill:none;stroke:#4c4c4c;stroke-width:0.51024;stroke-linecap:round;stroke-linejoin:round;stroke-miterlimit:10;stroke-dasharray:none;stroke-opacity:1"
       transform="matrix(1.3333333,0,0,-1.3333333,0,434.64533)" />
    <path
       id="path14"
       d="m 327.87405,275.86505 c 0,1.04367 -0.8461,1.88974 -1.88977,1.88974 m 0,0 c -1.0437,0 -1.88977,-0.84607 -1.88977,-1.88974 m 0,0 c 0,-1.0437 0.84607,-1.88977 1.88977,-1.88977 m 0,0 c 1.04367,0 1.88977,0.84607 1.88977,1.88977"
       style="fill:none;stroke:#4c4c4c;stroke-width:0.51024;stroke-linecap:round;stroke-linejoin:round;stroke-miterlimit:10;stroke-dasharray:none;stroke-opacity:1"
       transform="matrix(1.3333333,0,0,-1.3333333,0,434.64533)" />
    <path
       id="path15"
       d="m 327.87405,49.09338 c 0,1.04369 -0.8461,1.88977 -1.88977,1.88977 m 0,0 c -1.0437,0 -1.88977,-0.84608 -1.88977,-1.88977 m 0,0 c 0,-1.04368 0.84607,-1.88977 1.88977,-1.88977 m 0,0 c 1.04367,0 1.88977,0.84609 1.88977,1.88977"
       style="fill:none;stroke:#4c4c4c;stroke-width:0.51024;stroke-linecap:round;stroke-linejoin:round;stroke-miterlimit:10;stroke-dasharray:none;stroke-opacity:1"
       transform="matrix(1.3333333,0,0,-1.3333333,0,434.64533)" />
    <path
       id="path16"
       d="m 327.87405,124.68394 c 0,1.04369 -0.8461,1.88976 -1.88977,1.88976 m 0,0 c -1.0437,0 -1.88977,-0.84607 -1.88977,-1.88976 m 0,0 c 0,-1.0437 0.84607,-1.88977 1.88977,-1.88977 m 0,0 c 1.04367,0 1.88977,0.84607 1.88977,1.88977"
       style="fill:none;stroke:#4c4c4c;stroke-width:0.51024;stroke-linecap:round;stroke-linejoin:round;stroke-miterlimit:10;stroke-dasharray:none;stroke-opacity:1"
       transform="matrix(1.3333333,0,0,-1.3333333,0,434.64533)" />
    <path
       id="path17"
       d="m 214.41867,162.47922 c 0,1.00528 -0.81494,1.82019 -1.82022,1.82019 m 0,0 c -1.00525,0 -1.82019,-0.81491 -1.82019,-1.82019 m 0,0 c 0,-1.00528 0.81494,-1.82019 1.82019,-1.82019 m 0,0 c 1.00528,0 1.82022,0.81491 1.82022,1.82019"
       style="fill:none;stroke:#000000;stroke-width:0.3685;stroke-linecap:round;stroke-linejoin:round;stroke-miterlimit:10;stroke-dasharray:none;stroke-opacity:1"
       transform="matrix(1.3333333,0,0,-1.3333333,0,434.64533)" />
    <path
       id="path18"
       d="m 99.21262,275.86505 v 37.79526 m 75.59057,-37.79526 v 37.79526 m 75.59055,-37.79526 v 37.79526 m 75.59054,-37.79526 v 37.79526 M 363.77957,49.09338 v 9.44883 m 0,-9.44883 v -9.44882 m 0,16.21407 3.88611,2.68358 m -3.88611,-5.36718 3.88611,2.6836 m -3.88611,-5.36717 3.88611,2.68357 m -3.88611,-5.36715 3.88611,2.68358 m -3.88611,-5.36716 3.88611,2.68358 m -3.88611,-5.36718 3.88611,2.6836 m -3.88611,-5.36717 3.88611,2.68357 m -3.88611,82.24324 v 9.44881 m 0,-9.44881 v -9.44882 m 0,16.21407 3.88611,2.68356 m -3.88611,-5.36716 3.88611,2.6836 m -3.88611,-5.36717 3.88611,2.68357 m -3.88611,-5.36715 3.88611,2.68358 m -3.88611,-5.36718 3.88611,2.6836 m -3.88611,-5.36717 3.88611,2.68357 m -3.88611,-5.36715 3.88611,2.68358 m -3.88611,82.24324 v 9.44882 m 0,-9.44882 v -9.44883 m 0,16.21405 3.88611,2.6836 m -3.88611,-5.36719 3.88611,2.68359 m -3.88611,-5.36715 3.88611,2.68356 m -3.88611,-5.36716 3.88611,2.6836 m -3.88611,-5.36716 3.88611,2.68356 m -3.88611,-5.36715 3.88611,2.68359 m -3.88611,-5.36719 3.88611,2.6836 m -3.88611,82.24322 v 9.44882 m 0,-9.44882 v -9.44882 m 0,16.21405 3.88611,2.68359 m -3.88611,-5.36718 3.88611,2.68359 m -3.88611,-5.36716 3.88611,2.68357 m -3.88611,-5.36716 3.88611,2.68359 m -3.88611,-5.36715 3.88611,2.68356 m -3.88611,-5.36716 3.88611,2.6836 m -3.88611,-5.36719 3.88611,2.68359 M 61.41734,49.09338 v 9.44883 m 0,-9.44883 v -9.44882 m 0,16.21407 -3.88612,2.68358 m 3.88612,-5.36718 -3.88612,2.6836 m 3.88612,-5.36717 -3.88612,2.68357 m 3.88612,-5.36715 -3.88612,2.68358 m 3.88612,-5.36716 -3.88612,2.68358 m 3.88612,-5.36718 -3.88612,2.6836 m 3.88612,-5.36717 -3.88612,2.68357 m 3.88612,82.24324 v 9.44881"
       style="fill:none;stroke:#000000;stroke-width:0.3685;stroke-linecap:round;stroke-linejoin:round;stroke-miterlimit:10;stroke-dasharray:none;stroke-opacity:1"
       transform="matrix(1.3333333,0,0,-1.3333333,0,434.64533)" />
    <path
       id="path19"
       d="m 61.41734,124.68394 v -9.44882 m 0,16.21407 -3.88612,2.68356 m 3.88612,-5.36716 -3.88612,2.6836 m 3.88612,-5.36717 -3.88612,2.68357 m 3.88612,-5.36715 -3.88612,2.68358 m 3.88612,-5.36718 -3.88612,2.6836 m 3.88612,-5.36717 -3.88612,2.68357 m 3.88612,-5.36715 -3.88612,2.68358 m 3.88612,82.24324 v 9.44882 m 0,-9.44882 v -9.44883 m 0,16.21405 -3.88612,2.6836 m 3.88612,-5.36719 -3.88612,2.68359 m 3.88612,-5.36715 -3.88612,2.68356 m 3.88612,-5.36716 -3.88612,2.6836 m 3.88612,-5.36716 -3.88612,2.68356 m 3.88612,-5.36715 -3.88612,2.68359 m 3.88612,-5.36719 -3.88612,2.6836 m 3.88612,82.24322 v 9.44882 m 0,-9.44882 v -9.44882 m 0,16.21405 -3.88612,2.68359 m 3.88612,-5.36718 -3.88612,2.68359 m 3.88612,-5.36716 -3.88612,2.68357 m 3.88612,-5.36716 -3.88612,2.68359 m 3.88612,-5.36715 -3.88612,2.68356 m 3.88612,-5.36716 -3.88612,2.6836 m 3.88612,-5.36719 -3.88612,2.68359 M 325.98428,11.29811 h -9.44882 m 9.44882,0 h 9.44883 m -16.21405,0 -2.6836,-3.88614 m 5.36716,3.88614 -2.68356,-3.88614 m 5.36715,3.88614 -2.68359,-3.88614 m 5.36716,3.88614 -2.68357,-3.88614 m 5.36716,3.88614 -2.68359,-3.88614 m 5.36718,3.88614 -2.68359,-3.88614 m 5.36716,3.88614 -2.68357,-3.88614 m -82.24322,3.88614 h -9.44882 m 9.44882,0 h 9.44882 m -16.21405,0 -2.68359,-3.88614 m 5.36715,3.88614 -2.68356,-3.88614 m 5.36716,3.88614 -2.6836,-3.88614 m 5.36716,3.88614 -2.68356,-3.88614 m 5.36715,3.88614 -2.68359,-3.88614 m 5.36716,3.88614 -2.68357,-3.88614 m 5.36716,3.88614 -2.68359,-3.88614 m -82.2432,3.88614 h -9.44882 m 9.44882,0 h 9.44882 m -16.21408,0 -2.68356,-3.88614 m 5.36716,3.88614 -2.6836,-3.88614 m 5.36719,3.88614 -2.68359,-3.88614 m 5.36715,3.88614 -2.68356,-3.88614"
       style="fill:none;stroke:#000000;stroke-width:0.3685;stroke-linecap:round;stroke-linejoin:round;stroke-miterlimit:10;stroke-dasharray:none;stroke-opacity:1"
       transform="matrix(1.3333333,0,0,-1.3333333,0,434.64533)" />
    <path
       id="path20"
       d="m 178.77228,11.29811 -2.6836,-3.88614 m 5.36716,3.88614 -2.68356,-3.88614 m 5.36715,3.88614 -2.68359,-3.88614 m -82.24322,3.88614 h -9.44881 m 9.44881,0 h 9.44882 m -16.21405,0 -2.68358,-3.88614 m 5.36716,3.88614 -2.68358,-3.88614 m 5.36715,3.88614 -2.68357,-3.88614 m 5.36717,3.88614 -2.6836,-3.88614 m 5.36718,3.88614 -2.68358,-3.88614 m 5.36716,3.88614 -2.68358,-3.88614 m 5.36715,3.88614 -2.68357,-3.88614 m 220.11898,306.24834 h -9.44882 m 9.44882,0 h 9.44883 m -16.21405,0 -2.6836,3.88614 m 5.36716,-3.88614 -2.68356,3.88614 m 5.36715,-3.88614 -2.68359,3.88614 m 5.36716,-3.88614 -2.68357,3.88614 m 5.36716,-3.88614 -2.68359,3.88614 m 5.36718,-3.88614 -2.68359,3.88614 m 5.36716,-3.88614 -2.68357,3.88614 m -82.24322,-3.88614 h -9.44882 m 9.44882,0 h 9.44882 m -16.21405,0 -2.68359,3.88614 m 5.36715,-3.88614 -2.68356,3.88614 m 5.36716,-3.88614 -2.6836,3.88614 m 5.36716,-3.88614 -2.68356,3.88614 m 5.36715,-3.88614 -2.68359,3.88614 m 5.36716,-3.88614 -2.68357,3.88614 m 5.36716,-3.88614 -2.68359,3.88614 m -82.2432,-3.88614 h -9.44882 m 9.44882,0 h 9.44882 m -16.21408,0 -2.68356,3.88614 m 5.36716,-3.88614 -2.6836,3.88614 m 5.36719,-3.88614 -2.68359,3.88614 m 5.36715,-3.88614 -2.68356,3.88614 m 5.36716,-3.88614 -2.6836,3.88614 m 5.36716,-3.88614 -2.68356,3.88614 m 5.36715,-3.88614 -2.68359,3.88614 m -82.24322,-3.88614 h -9.44881 m 9.44881,0 h 9.44882 m -16.21405,0 -2.68358,3.88614 m 5.36716,-3.88614 -2.68358,3.88614 m 5.36715,-3.88614 -2.68357,3.88614 m 5.36717,-3.88614 -2.6836,3.88614 m 5.36718,-3.88614 -2.68358,3.88614 m 5.36716,-3.88614 -2.68358,3.88614 m 5.36715,-3.88614 -2.68357,3.88614 m -44.44796,-41.6814 h 37.79528 75.59057"
       style="fill:none;stroke:#000000;stroke-width:0.3685;stroke-linecap:round;stroke-linejoin:round;stroke-miterlimit:10;stroke-dasharray:none;stroke-opacity:1"
       transform="matrix(1.3333333,0,0,-1.3333333,0,434.64533)" />
    <path
       id="path21"
       d="m 174.80319,275.86505 h 75.59055 75.59054 37.79529 m -264.56695,0 V 200.27451 124.68394 49.09338 11.29811 m -37.79528,188.9764 h 37.79528 75.59057 75.59055 75.59054 37.79529 M 61.41734,124.68394 h 37.79528 75.59057 75.59055 75.59054 37.79529 M 61.41734,49.09338 h 37.79528 75.59057 75.59055 75.59054 37.79529 M 174.80319,275.86505 V 200.27451 124.68394 49.09338 11.29811 m 75.59055,264.56694 V 200.27451 124.68394 49.09338 11.29811 m 75.59054,264.56694 V 200.27451 124.68394 49.09338 11.29811 M 212.59845,162.47922 h 14.66479 m -2.97637,0 h -0.21259 m 3.18896,0 v 0 l -2.97637,0.4252 v -0.8504 l 2.97637,0.4252"
       style="fill:none;stroke:#000000;stroke-width:0.3685;stroke-linecap:round;stroke-linejoin:round;stroke-miterlimit:10;stroke-dasharray:none;stroke-opacity:1"
       transform="matrix(1.3333333,0,0,-1.3333333,0,434.64533)" />
    <path
       id="path22"
       d="m 224.28687,162.05402 2.97637,0.4252 -2.97637,0.4252 z"
       style="fill:#000000;fill-opacity:1;fill-rule:nonzero;stroke:none"
       transform="matrix(1.3333333,0,0,-1.3333333,0,434.64533)" />
    <path
       id="path23"
       d="m 212.59845,162.47922 v -14.30197 m 0,2.97638 v 0.21258 m 0,-3.18896 v 0 l 0.4252,2.97638 h -0.85037 l 0.42517,-2.97638"
       style="fill:none;stroke:#000000;stroke-width:0.3685;stroke-linecap:round;stroke-linejoin:round;stroke-miterlimit:10;stroke-dasharray:none;stroke-opacity:1"
       transform="matrix(1.3333333,0,0,-1.3333333,0,434.64533)" />
    <path
       id="path24"
       d="m 212.17328,151.15363 0.42517,-2.97638 0.4252,2.97638 z"
       style="fill:#000000;fill-opacity:1;fill-rule:nonzero;stroke:none"
       transform="matrix(1.3333333,0,0,-1.3333333,0,434.64533)" />
    <path
       id="path25"
       d="m 402.47684,11.29811 -0.42517,2.97638 h 0.85037 l -0.4252,-2.97638 m 0,37.79527 -0.42517,-2.97638 h 0.85037 l -0.4252,2.97638 -0.42517,2.97638 h 0.85037 l -0.4252,-2.97638 m 0,75.59056 -0.42517,-2.97637 h 0.85037 l -0.4252,2.97637 -0.42517,2.97638 h 0.85037 l -0.4252,-2.97638 m 0,75.59057 -0.42517,-2.97638 h 0.85037 l -0.4252,2.97638 -0.42517,2.97638 h 0.85037 l -0.4252,-2.97638 m 0,75.59054 -0.42517,-2.97638 h 0.85037 l -0.4252,2.97638 -0.42517,2.97638 h 0.85037 l -0.4252,-2.97638 m 0,37.79526 -0.42517,-2.97638 h 0.85037 l -0.4252,2.97638 m 0,-302.3622 h -2.12598 m 2.12598,0 h 2.12597 m -2.12597,37.79527 h -2.12598 m 2.12598,0 h 2.12597 m -2.12597,0 h -2.12598 m 2.12598,0 h 2.12597 m -2.12597,75.59056 h -2.12598 m 2.12598,0 h 2.12597 m -2.12597,0 h -2.12598 m 2.12598,0 h 2.12597 m -2.12597,75.59057 h -2.12598 m 2.12598,0 h 2.12597 m -2.12597,0 h -2.12598 m 2.12598,0 h 2.12597 m -2.12597,75.59054 h -2.12598 m 2.12598,0 h 2.12597 m -2.12597,0 h -2.12598 m 2.12598,0 h 2.12597 m -2.12597,37.79526 h -2.12598 m 2.12598,0 h 2.12597"
       style="fill:none;stroke:#000000;stroke-width:0.3685;stroke-linecap:round;stroke-linejoin:round;stroke-miterlimit:10;stroke-dasharray:none;stroke-opacity:1"
       transform="matrix(1.3333333,0,0,-1.3333333,0,434.64533)" />
    <path
       id="path26"
       d="m 402.47684,11.29811 h -48.14609 m 48.14609,37.79527 h -1.77164 v 0 h -18.02801 m 19.79965,75.59056 h -1.77164 -18.02801 m 19.79965,75.59057 h -1.77164 -18.02801 m 19.79965,75.59054 h -1.77164 -18.02801 m 19.79965,37.79526 h -48.14609 m 48.14609,-302.3622 v 0 m 0,302.3622 v 0"
       style="fill:none;stroke:#000000;stroke-width:0.3685;stroke-linecap:round;stroke-linejoin:round;stroke-miterlimit:10;stroke-dasharray:none;stroke-opacity:1"
       transform="matrix(1.3333333,0,0,-1.3333333,0,434.64533)" />
    <text
       id="text26"
       xml:space="preserve"
       transform="matrix(0,-1.3333333,1.3333333,0,532.65565,396.07951)"
       clip-path="url(#clipPath27)"><tspan
         style="font-style:italic;font-variant:normal;font-weight:normal;font-stretch:normal;font-size:10.0071px;font-family:'Palatino Linotype';writing-mode:lr-tb;fill:#000000;fill-opacity:1;fill-rule:nonzero;stroke:none"
         x="0"
         y="0"
         id="tspan26">l</tspan></text>
    <text
       id="text27"
       xml:space="preserve"
       transform="matrix(0,-1.3333333,1.3333333,0,532.65565,323.91273)"
       clip-path="url(#clipPath28)"><tspan
         style="font-style:italic;font-variant:normal;font-weight:normal;font-stretch:normal;font-size:10.0071px;font-family:'Palatino Linotype';writing-mode:lr-tb;fill:#000000;fill-opacity:1;fill-rule:nonzero;stroke:none"
         x="0 5.0035648"
         y="0"
         sodipodi:role="line"
         id="tspan27">2l</tspan></text>
    <text
       id="text28"
       xml:space="preserve"
       transform="matrix(0,-1.3333333,1.3333333,0,532.65565,223.12533)"
       clip-path="url(#clipPath29)"><tspan
         style="font-style:italic;font-variant:normal;font-weight:normal;font-stretch:normal;font-size:10.0071px;font-family:'Palatino Linotype';writing-mode:lr-tb;fill:#000000;fill-opacity:1;fill-rule:nonzero;stroke:none"
         x="0 5.0035648"
         y="0"
         sodipodi:role="line"
         id="tspan28">2l</tspan></text>
    <text
       id="text29"
       xml:space="preserve"
       transform="matrix(0,-1.3333333,1.3333333,0,532.65565,122.33793)"
       clip-path="url(#clipPath30)"><tspan
         style="font-style:italic;font-variant:normal;font-weight:normal;font-stretch:normal;font-size:10.0071px;font-family:'Palatino Linotype';writing-mode:lr-tb;fill:#000000;fill-opacity:1;fill-rule:nonzero;stroke:none"
         x="0 5.0035648"
         y="0"
         sodipodi:role="line"
         id="tspan29">2l</tspan></text>
    <text
       id="text30"
       xml:space="preserve"
       transform="matrix(0,-1.3333333,1.3333333,0,532.65565,43.3236)"
       clip-path="url(#clipPath31)"><tspan
         style="font-style:italic;font-variant:normal;font-weight:normal;font-stretch:normal;font-size:10.0071px;font-family:'Palatino Linotype';writing-mode:lr-tb;fill:#000000;fill-opacity:1;fill-rule:nonzero;stroke:none"
         x="0"
         y="0"
         id="tspan30">l</tspan></text>
    <path
       id="path32"
       d="m 402.47684,11.29811 v 37.79527 75.59056 75.59057 75.59054 37.79526"
       style="fill:none;stroke:#000000;stroke-width:0.3685;stroke-linecap:round;stroke-linejoin:round;stroke-miterlimit:10;stroke-dasharray:none;stroke-opacity:1"
       transform="matrix(1.3333333,0,0,-1.3333333,0,434.64533)" />
    <text
       id="text32"
       xml:space="preserve"
       transform="matrix(1.3333333,0,0,1.3333333,422.04075,262.41424)"
       clip-path="url(#clipPath33)"><tspan
         style="font-variant:normal;font-weight:normal;font-stretch:normal;font-size:10.0916px;font-family:'Palatino Linotype';writing-mode:lr-tb;fill:#000000;fill-opacity:1;fill-rule:nonzero;stroke:none"
         x="0"
         y="0"
         id="tspan32">2</tspan></text>
    <text
       id="text33"
       xml:space="preserve"
       transform="matrix(1.3333333,0,0,1.3333333,422.04075,363.20164)"
       clip-path="url(#clipPath34)"><tspan
         style="font-variant:normal;font-weight:normal;font-stretch:normal;font-size:10.0916px;font-family:'Palatino Linotype';writing-mode:lr-tb;fill:#000000;fill-opacity:1;fill-rule:nonzero;stroke:none"
         x="0"
         y="0"
         id="tspan33">4</tspan></text>
    <text
       id="text34"
       xml:space="preserve"
       transform="matrix(1.3333333,0,0,1.3333333,324.088,262.41424)"
       clip-path="url(#clipPath35)"><tspan
         style="font-variant:normal;font-weight:normal;font-stretch:normal;font-size:10.0916px;font-family:'Palatino Linotype';writing-mode:lr-tb;fill:#000000;fill-opacity:1;fill-rule:nonzero;stroke:none"
         x="0"
         y="0"
         id="tspan34">1</tspan></text>
    <text
       id="text35"
       xml:space="preserve"
       transform="matrix(1.3333333,0,0,1.3333333,321.25336,363.20164)"
       clip-path="url(#clipPath36)"><tspan
         style="font-variant:normal;font-weight:normal;font-stretch:normal;font-size:10.0916px;font-family:'Palatino Linotype';writing-mode:lr-tb;fill:#000000;fill-opacity:1;fill-rule:nonzero;stroke:none"
         x="0 5.045805"
         y="0"
         sodipodi:role="line"
         id="tspan35">2'</tspan></text>
    <text
       id="text36"
       xml:space="preserve"
       transform="matrix(1.3333333,0,0,1.3333333,472.43445,363.20164)"
       clip-path="url(#clipPath37)"><tspan
         style="font-variant:normal;font-weight:normal;font-stretch:normal;font-size:10.0916px;font-family:'Palatino Linotype';writing-mode:lr-tb;fill:#000000;fill-opacity:1;fill-rule:nonzero;stroke:none"
         x="0"
         y="0"
         id="tspan36">5</tspan></text>
    <text
       id="text37"
       xml:space="preserve"
       transform="matrix(1.3333333,0,0,1.3333333,472.43445,262.41424)"
       clip-path="url(#clipPath38)"><tspan
         style="font-variant:normal;font-weight:normal;font-stretch:normal;font-size:10.0916px;font-family:'Palatino Linotype';writing-mode:lr-tb;fill:#000000;fill-opacity:1;fill-rule:nonzero;stroke:none"
         x="0"
         y="0"
         id="tspan37">3</tspan></text>
    <text
       id="text38"
       xml:space="preserve"
       transform="matrix(1.3333333,0,0,1.3333333,321.25336,413.59533)"
       clip-path="url(#clipPath39)"><tspan
         style="font-variant:normal;font-weight:normal;font-stretch:normal;font-size:10.0916px;font-family:'Palatino Linotype';writing-mode:lr-tb;fill:#000000;fill-opacity:1;fill-rule:nonzero;stroke:none"
         x="0 5.045805"
         y="0"
         sodipodi:role="line"
         id="tspan38">3'</tspan></text>
    <text
       id="text39"
       xml:space="preserve"
       transform="matrix(1.3333333,0,0,1.3333333,422.04075,413.59533)"
       clip-path="url(#clipPath40)"><tspan
         style="font-variant:normal;font-weight:normal;font-stretch:normal;font-size:10.0916px;font-family:'Palatino Linotype';writing-mode:lr-tb;fill:#000000;fill-opacity:1;fill-rule:nonzero;stroke:none"
         x="0 5.045805"
         y="0"
         sodipodi:role="line"
         id="tspan39">5'</tspan></text>
    <text
       id="text40"
       xml:space="preserve"
       transform="matrix(1.3333333,0,0,1.3333333,245.42667,154.89599)"
       clip-path="url(#clipPath41)"><tspan
         style="font-style:italic;font-variant:normal;font-weight:normal;font-stretch:normal;font-size:10.0071px;font-family:'Palatino Linotype';writing-mode:lr-tb;fill:#4c4c4c;fill-opacity:1;fill-rule:nonzero;stroke:none"
         x="0"
         y="0"
         id="tspan40">Q</tspan></text>
    <text
       id="text41"
       xml:space="preserve"
       transform="matrix(1.3333333,0,0,1.3333333,269.71568,216.16437)"
       clip-path="url(#clipPath42)"><tspan
         style="font-style:italic;font-variant:normal;font-weight:normal;font-stretch:normal;font-size:10.0071px;font-family:'Palatino Linotype';writing-mode:lr-tb;fill:#000000;fill-opacity:1;fill-rule:nonzero;stroke:none"
         x="0"
         y="0"
         id="tspan41">Z</tspan></text>
    <text
       id="text42"
       xml:space="preserve"
       transform="matrix(1.3333333,0,0,1.3333333,304.78093,221.43315)"
       clip-path="url(#clipPath43)"><tspan
         style="font-style:italic;font-variant:normal;font-weight:normal;font-stretch:normal;font-size:10.0071px;font-family:'Palatino Linotype';writing-mode:lr-tb;fill:#000000;fill-opacity:1;fill-rule:nonzero;stroke:none"
         x="0"
         y="0"
         id="tspan42">Y</tspan></text>
    <text
       id="text43"
       xml:space="preserve"
       transform="matrix(1.3333333,0,0,1.3333333,278.66631,250.62443)"
       clip-path="url(#clipPath44)"><tspan
         style="font-style:italic;font-variant:normal;font-weight:normal;font-stretch:normal;font-size:10.0071px;font-family:'Palatino Linotype';writing-mode:lr-tb;fill:#000000;fill-opacity:1;fill-rule:nonzero;stroke:none"
         x="0"
         y="0"
         id="tspan43">X</tspan></text>
  </g>
</svg>
