<?xml version="1.0" encoding="UTF-8" standalone="no"?>
<!-- Created with Inkscape (http://www.inkscape.org/) -->

<svg
   version="1.1"
   id="svg1"
   width="566.92932"
   height="321.26001"
   viewBox="0 0 566.92932 321.26001"
   sodipodi:docname="trm_system.pdf"
   xmlns:inkscape="http://www.inkscape.org/namespaces/inkscape"
   xmlns:sodipodi="http://sodipodi.sourceforge.net/DTD/sodipodi-0.dtd"
   xmlns="http://www.w3.org/2000/svg"
   xmlns:svg="http://www.w3.org/2000/svg">
  <defs
     id="defs1">
    <clipPath
       clipPathUnits="userSpaceOnUse"
       id="clipPath42">
      <path
         d="M -0.00426,-0.00241 V 240.9473 H 425.20111 V -0.00241 H -0.00426"
         transform="matrix(1,0,0,-1,-174.88359,120.0639)"
         clip-rule="evenodd"
         id="path42" />
    </clipPath>
    <clipPath
       clipPathUnits="userSpaceOnUse"
       id="clipPath43">
      <path
         d="M -0.00426,-0.00241 V 240.9473 H 425.20111 V -0.00241 H -0.00426"
         transform="matrix(1,0,0,-1,-34.855271,79.815639)"
         clip-rule="evenodd"
         id="path43" />
    </clipPath>
    <clipPath
       clipPathUnits="userSpaceOnUse"
       id="clipPath44">
      <path
         d="M -0.00426,-0.00241 V 240.9473 H 425.20111 V -0.00241 H -0.00426"
         transform="matrix(1,0,0,-1,-50.898581,74.454992)"
         clip-rule="evenodd"
         id="path44" />
    </clipPath>
    <clipPath
       clipPathUnits="userSpaceOnUse"
       id="clipPath45">
      <path
         d="M -0.00426,-0.00241 V 240.9473 H 425.20111 V -0.00241 H -0.00426"
         transform="matrix(1,0,0,-1,-48.280341,57.171399)"
         clip-rule="evenodd"
         id="path45" />
    </clipPath>
  </defs>
  <sodipodi:namedview
     id="namedview1"
     pagecolor="#ffffff"
     bordercolor="#000000"
     borderopacity="0.25"
     inkscape:showpageshadow="2"
     inkscape:pageopacity="0.0"
     inkscape:pagecheckerboard="0"
     inkscape:deskcolor="#d1d1d1">
    <inkscape:page
       x="0"
       y="0"
       inkscape:label="1"
       id="page1"
       width="566.92932"
       height="321.26001"
       margin="0"
       bleed="0" />
  </sodipodi:namedview>
  <g
     id="g1"
     inkscape:groupmode="layer"
     inkscape:label="1">
    <path
       id="path1"
       d="m 187.1553,13.74551 -8.18292,4.72441 m 8.18292,-4.72441 8.18293,-4.72441 m -14.04178,8.10703 -4.26712,-2.02368 m 6.59115,0.6819 -4.26712,-2.0237 m 6.59119,0.6819 -4.26712,-2.0237 m 6.59116,0.68192 -4.26713,-2.0237 m 6.59119,0.6819 -4.26712,-2.0237 m 6.59116,0.6819 -4.26712,-2.02368 m 6.59118,0.6819 -4.26712,-2.02369 m -57.26892,37.55152 -8.18292,4.72442 m 8.18292,-4.72442 8.18292,-4.72441 m -14.04179,8.10704 -4.2671,-2.02369 m 6.59115,0.6819 -4.2671,-2.0237 m 6.59117,0.6819 -4.26712,-2.02368 m 6.59115,0.6819 -4.26712,-2.0237 m 6.59119,0.6819 -4.26712,-2.02368 m 6.59115,0.6819 -4.26712,-2.0237 m 6.59119,0.6819 -4.26712,-2.02369 M 80.25412,75.46495 72.0712,80.18936 m 8.18292,-4.72441 8.18291,-4.72441 m -14.04178,8.10702 -4.26711,-2.02369 m 6.59116,0.6819 -4.26711,-2.02368 m 6.59116,0.6819 -4.26712,-2.0237 m 6.59117,0.6819 -4.26712,-2.0237 m 6.59117,0.68192 -4.26712,-2.0237 m 6.59117,0.6819 -4.26712,-2.0237 m 6.59117,0.6819 -4.26712,-2.02368 m -57.2689,37.55153 -8.18292,4.72441 m 8.18292,-4.72441 8.1829,-4.72441 m -14.04177,8.10703 -4.26712,-2.02369 m 6.59117,0.6819 -4.26712,-2.02369 m 6.59117,0.6819 L 21.32564,105 m 6.59117,0.6819 -4.26712,-2.02368 m 6.59117,0.6819 -4.26712,-2.0237 m 6.59117,0.6819 -4.26712,-2.0237 m 6.59117,0.68192 -4.26712,-2.0237 m 368.74407,42.95786 -4.26709,-2.02371 m 6.59115,0.68191 -4.26712,-2.02368 m 6.59116,0.68188 -4.26712,-2.02368 m 6.59118,0.68189 -4.26712,-2.02368 m 6.59116,0.68188 -4.26712,-2.02368 m 6.59119,0.68191 -4.26712,-2.02371 m 6.59115,0.68192 -4.26712,-2.02368 m -8.08542,4.66812 -8.18292,4.72439 m 8.18292,-4.72439 8.18292,-4.72443 m -63.22528,40.99045 -4.26709,-2.02371 m 6.59116,0.68191 -4.26712,-2.02368 m 6.59116,0.68189 -4.26712,-2.02369 m 6.59118,0.68189 -4.26712,-2.02368 m 6.59116,0.68191 -4.26712,-2.02371"
       style="fill:none;stroke:#000000;stroke-width:0.3685;stroke-linecap:round;stroke-linejoin:round;stroke-miterlimit:10;stroke-dasharray:none;stroke-opacity:1"
       transform="matrix(1.3333333,0,0,-1.3333333,0,321.26)" />
    <path
       id="path2"
       d="m 357.53558,166.74146 -4.26712,-2.02372 m 6.59116,0.68192 -4.26712,-2.02368 m -8.08542,4.66812 -8.18292,4.72439 m 8.18292,-4.72439 8.18292,-4.72443 m -63.22528,40.99045 -4.26712,-2.02368 m 6.59119,0.68188 -4.26712,-2.02368 m 6.59115,0.68189 -4.26712,-2.02369 m 6.59119,0.68192 -4.26712,-2.02371 m 6.59116,0.68191 -4.26713,-2.02371 m 6.59119,0.68192 -4.26712,-2.02369 m 6.59116,0.68189 -4.26712,-2.02368 m -8.08542,4.66812 -8.18292,4.72439 m 8.18292,-4.72439 8.18292,-4.72443 m -63.22528,40.99045 -4.26709,-2.02368 m 6.59116,0.68188 -4.26712,-2.02368 m 6.59115,0.68189 -4.26709,-2.02369 m 6.59116,0.68192 -4.26712,-2.02371 m 6.59115,0.68191 -4.26709,-2.02371 m 6.59116,0.68192 -4.26712,-2.02369 m 6.59116,0.68189 -4.26709,-2.02368 m -8.08545,4.66812 -8.18293,4.7244 m 8.18293,-4.7244 8.18292,-4.7244 M 240.6059,13.74551 232.42297,9.0211 m 8.18293,4.72441 8.18292,4.72441 M 234.74704,10.3629 234.36606,5.65562 m 2.70502,6.04906 -0.38099,-4.70727 m 2.70505,6.04907 -0.38101,-4.70728 m 2.70505,6.04908 L 241.3382,9.681 m 2.70504,6.04906 -0.38101,-4.70728 m 2.70505,6.04907 -0.38098,-4.70727 m 2.70505,6.04906 -0.38102,-4.70726 m 45.74616,30.89884 -8.18292,-4.72441 m 8.18292,4.72441 8.18292,4.72442 m -14.04181,-8.10703 -0.38098,-4.70727 m 2.70505,6.04907 -0.38098,-4.70728 m 2.70501,6.04906 -0.38098,-4.70728 m 2.70505,6.04908 -0.38098,-4.70728 m 2.70501,6.04907 -0.38098,-4.70727 m 2.70505,6.04905 -0.38098,-4.70727 m 2.70502,6.04907 -0.38098,-4.70727 m 45.74615,30.89886 -8.18292,-4.72441 m 8.18292,4.72441 8.18292,4.72441 m -14.04178,-8.10704 -0.38101,-4.70726 m 2.70505,6.04906 -0.38098,-4.70728 m 2.70502,6.04907 -0.38099,-4.70727 m 2.70505,6.04906 -0.38098,-4.70728 m 2.70502,6.04907 -0.38098,-4.70727 m 2.70504,6.04906 -0.38098,-4.70727 m 2.70502,6.04906 -0.38098,-4.70727 m 45.74615,30.89886 -8.18292,-4.72441"
       style="fill:none;stroke:#000000;stroke-width:0.3685;stroke-linecap:round;stroke-linejoin:round;stroke-miterlimit:10;stroke-dasharray:none;stroke-opacity:1"
       transform="matrix(1.3333333,0,0,-1.3333333,0,321.26)" />
    <path
       id="path3"
       d="m 400.95767,106.32466 8.18292,4.72441 m -14.04177,-8.10702 -0.38102,-4.70728 m 2.70505,6.04906 -0.38098,-4.70728 m 2.70502,6.04908 -0.38098,-4.70728 m 2.70504,6.04906 -0.38098,-4.70726 m 2.70502,6.04905 -0.38098,-4.70727 m 2.70505,6.04907 -0.38099,-4.70727 m 2.70502,6.04905 -0.38098,-4.70727 m -381.85858,30.89888 -8.18292,-4.72443 m 2.70503,6.04907 -0.38098,-4.70727 m 2.70503,6.04907 -0.38098,-4.70728 m 2.70503,6.04908 -0.38098,-4.70728 m 2.70503,6.04904 -0.38098,-4.70727 m 2.70503,6.04907 -0.38098,-4.70728 m 2.70503,6.04908 -0.38098,-4.70728 m 2.70503,6.04907 -0.38098,-4.70727 m -8.08543,-4.66812 8.1829,4.72439 m 45.26769,26.13532 -8.18292,-4.72443 m 2.70503,6.04907 -0.38098,-4.70727 m 2.70503,6.04907 -0.38098,-4.70727 m 2.70503,6.04907 -0.38098,-4.70728 m 2.70503,6.04907 -0.38098,-4.70727 m 2.70503,6.04904 -0.38098,-4.70727 m 2.70503,6.04907 -0.38098,-4.70728 m 2.70504,6.04907 -0.38099,-4.70727 m -8.08543,-4.66812 8.18291,4.72439 m 45.26768,26.13532 -8.18292,-4.72443 m 2.70505,6.04907 -0.381,-4.70727 m 2.70503,6.04907 -0.38098,-4.70727 m 2.70505,6.04907 -0.38098,-4.70728 m 2.70501,6.04908 -0.38098,-4.70728 m 2.70505,6.04904 -0.38098,-4.70724 m 2.70502,6.04904 -0.38099,-4.70728 m 2.70505,6.04908 -0.38098,-4.70728 m -8.08545,-4.66812 8.18292,4.72439 m 45.26767,26.13532 -8.18292,-4.7244 m 2.70505,6.04905 -0.38098,-4.70728 m 2.70501,6.04907 -0.38098,-4.70727 m 2.70505,6.04907 -0.38098,-4.70728 m 2.70502,6.04908 -0.38098,-4.70728 m 2.70504,6.04907 -0.38098,-4.70727 m 2.70502,6.04904 -0.38098,-4.70728 m 2.70504,6.04908 -0.38098,-4.70728 m -8.08545,-4.66812 8.18293,4.7244 M 80.25412,75.46495 294.05649,198.90381 M 26.80353,137.18439 240.6059,13.74551 M 26.80353,106.32466 240.6059,229.76352 M 133.70471,198.90381 347.50708,75.46495 M 133.70471,44.60522 347.50708,168.0441 M 187.1553,13.74551 400.95767,137.18439"
       style="fill:none;stroke:#000000;stroke-width:0.3685;stroke-linecap:round;stroke-linejoin:round;stroke-miterlimit:10;stroke-dasharray:none;stroke-opacity:1"
       transform="matrix(1.3333333,0,0,-1.3333333,0,321.26)" />
    <path
       id="path4"
       d="M 187.1553,229.76352 400.95767,106.32466 M 80.25412,168.0441 294.05649,44.60522 m -80.21369,3.46779 0.0378,-18.89764 m -0.0119,5.95274 -8.2e-4,0.4252 m 0.0128,-6.37794 v 0 l 0.83847,5.95445 -1.70078,-0.0034 0.86231,-5.95105"
       style="fill:none;stroke:#000000;stroke-width:0.3685;stroke-linecap:round;stroke-linejoin:round;stroke-miterlimit:10;stroke-dasharray:none;stroke-opacity:1"
       transform="matrix(1.3333333,0,0,-1.3333333,0,321.26)" />
    <path
       id="path5"
       d="m 213.01831,35.12642 0.86231,-5.95105 0.83847,5.95445 z"
       style="fill:#000000;fill-opacity:1;fill-rule:nonzero;stroke:none"
       transform="matrix(1.3333333,0,0,-1.3333333,0,321.26)" />
    <path
       id="path6"
       d="m 160.39221,78.93272 0.0378,-18.89764 m -0.0119,5.95276 -8.2e-4,0.42518 m 0.0128,-6.37794 v 0 l 0.83847,5.95445 -1.70077,-0.0034 0.8623,-5.95105"
       style="fill:none;stroke:#000000;stroke-width:0.3685;stroke-linecap:round;stroke-linejoin:round;stroke-miterlimit:10;stroke-dasharray:none;stroke-opacity:1"
       transform="matrix(1.3333333,0,0,-1.3333333,0,321.26)" />
    <path
       id="path7"
       d="m 159.56772,65.98613 0.8623,-5.95105 0.83847,5.95445 z"
       style="fill:#000000;fill-opacity:1;fill-rule:nonzero;stroke:none"
       transform="matrix(1.3333333,0,0,-1.3333333,0,321.26)" />
    <path
       id="path8"
       d="m 213.8428,109.79243 0.0378,-18.89762 m -0.0119,5.95274 -8.2e-4,0.4252 m 0.0128,-6.37794 v 0 l 0.83847,5.95443 -1.70078,-0.0034 0.86231,-5.95103"
       style="fill:none;stroke:#000000;stroke-width:0.3685;stroke-linecap:round;stroke-linejoin:round;stroke-miterlimit:10;stroke-dasharray:none;stroke-opacity:1"
       transform="matrix(1.3333333,0,0,-1.3333333,0,321.26)" />
    <path
       id="path9"
       d="m 213.01831,96.84584 0.86231,-5.95103 0.83847,5.95443 z"
       style="fill:#000000;fill-opacity:1;fill-rule:nonzero;stroke:none"
       transform="matrix(1.3333333,0,0,-1.3333333,0,321.26)" />
    <path
       id="path10"
       d="m 267.2934,78.93272 0.0378,-18.89764 m -0.0119,5.95276 -8.5e-4,0.42518 m 0.0128,-6.37794 v 0 l 0.8385,5.95445 -1.70078,-0.0034 0.86228,-5.95105"
       style="fill:none;stroke:#000000;stroke-width:0.3685;stroke-linecap:round;stroke-linejoin:round;stroke-miterlimit:10;stroke-dasharray:none;stroke-opacity:1"
       transform="matrix(1.3333333,0,0,-1.3333333,0,321.26)" />
    <path
       id="path11"
       d="m 266.4689,65.98613 0.86228,-5.95105 0.8385,5.95445 z"
       style="fill:#000000;fill-opacity:1;fill-rule:nonzero;stroke:none"
       transform="matrix(1.3333333,0,0,-1.3333333,0,321.26)" />
    <path
       id="path12"
       d="m 320.74399,109.79243 0.0378,-18.89762 m -0.0119,5.95274 -8.6e-4,0.4252 m 0.0128,-6.37794 v 0 l 0.8385,5.95443 -1.70078,-0.0034 0.86228,-5.95103"
       style="fill:none;stroke:#000000;stroke-width:0.3685;stroke-linecap:round;stroke-linejoin:round;stroke-miterlimit:10;stroke-dasharray:none;stroke-opacity:1"
       transform="matrix(1.3333333,0,0,-1.3333333,0,321.26)" />
    <path
       id="path13"
       d="m 319.91949,96.84584 0.86228,-5.95103 0.8385,5.95443 z"
       style="fill:#000000;fill-opacity:1;fill-rule:nonzero;stroke:none"
       transform="matrix(1.3333333,0,0,-1.3333333,0,321.26)" />
    <path
       id="path14"
       d="m 267.2934,140.65216 0.0378,-18.89764 m -0.0119,5.95274 -8.5e-4,0.42519 m 0.0128,-6.37793 v 0 l 0.8385,5.95445 -1.70078,-0.003 0.86228,-5.95105"
       style="fill:none;stroke:#000000;stroke-width:0.3685;stroke-linecap:round;stroke-linejoin:round;stroke-miterlimit:10;stroke-dasharray:none;stroke-opacity:1"
       transform="matrix(1.3333333,0,0,-1.3333333,0,321.26)" />
    <path
       id="path15"
       d="m 266.4689,127.70557 0.86228,-5.95105 0.8385,5.95445 -1.70078,-0.003 z"
       style="fill:#000000;fill-opacity:1;fill-rule:nonzero;stroke:none"
       transform="matrix(1.3333333,0,0,-1.3333333,0,321.26)" />
    <path
       id="path16"
       d="m 320.74399,171.51187 0.0378,-18.89764 m -0.0119,5.95276 -8.6e-4,0.4252 m 0.0128,-6.37796 v 0 l 0.8385,5.95447 -1.70078,-0.003 0.86228,-5.95105"
       style="fill:none;stroke:#000000;stroke-width:0.3685;stroke-linecap:round;stroke-linejoin:round;stroke-miterlimit:10;stroke-dasharray:none;stroke-opacity:1"
       transform="matrix(1.3333333,0,0,-1.3333333,0,321.26)" />
    <path
       id="path17"
       d="m 319.91949,158.56528 0.86228,-5.95105 0.8385,5.95447 -1.70078,-0.003 z"
       style="fill:#000000;fill-opacity:1;fill-rule:nonzero;stroke:none"
       transform="matrix(1.3333333,0,0,-1.3333333,0,321.26)" />
    <path
       id="path18"
       d="m 374.19458,140.65216 0.0378,-18.89764 m -0.0119,5.95274 -8.6e-4,0.42519 m 0.0128,-6.37793 v 0 l 0.8385,5.95445 -1.70077,-0.003 0.86227,-5.95105"
       style="fill:none;stroke:#000000;stroke-width:0.3685;stroke-linecap:round;stroke-linejoin:round;stroke-miterlimit:10;stroke-dasharray:none;stroke-opacity:1"
       transform="matrix(1.3333333,0,0,-1.3333333,0,321.26)" />
    <path
       id="path19"
       d="m 373.37009,127.70557 0.86227,-5.95105 0.8385,5.95445 -1.70077,-0.003 z"
       style="fill:#000000;fill-opacity:1;fill-rule:nonzero;stroke:none"
       transform="matrix(1.3333333,0,0,-1.3333333,0,321.26)" />
    <path
       id="path20"
       d="m 267.2934,202.37158 0.0378,-18.89764 m -0.0119,5.95276 -8.5e-4,0.4252 m 0.0128,-6.37796 v 0 l 0.8385,5.95447 -1.70078,-0.003 0.86228,-5.95105"
       style="fill:none;stroke:#000000;stroke-width:0.3685;stroke-linecap:round;stroke-linejoin:round;stroke-miterlimit:10;stroke-dasharray:none;stroke-opacity:1"
       transform="matrix(1.3333333,0,0,-1.3333333,0,321.26)" />
    <path
       id="path21"
       d="m 266.4689,189.42499 0.86228,-5.95105 0.8385,5.95447 -1.70078,-0.003 z"
       style="fill:#000000;fill-opacity:1;fill-rule:nonzero;stroke:none"
       transform="matrix(1.3333333,0,0,-1.3333333,0,321.26)" />
    <path
       id="path22"
       d="m 213.8428,233.23129 0.0378,-18.89764 m -0.0119,5.95276 -8.2e-4,0.4252 m 0.0128,-6.37796 v 0 l 0.83847,5.95447 -1.70078,-0.003 0.86231,-5.95105"
       style="fill:none;stroke:#000000;stroke-width:0.3685;stroke-linecap:round;stroke-linejoin:round;stroke-miterlimit:10;stroke-dasharray:none;stroke-opacity:1"
       transform="matrix(1.3333333,0,0,-1.3333333,0,321.26)" />
    <path
       id="path23"
       d="m 213.01831,220.2847 0.86231,-5.95105 0.83847,5.95447 -1.70078,-0.003 z"
       style="fill:#000000;fill-opacity:1;fill-rule:nonzero;stroke:none"
       transform="matrix(1.3333333,0,0,-1.3333333,0,321.26)" />
    <path
       id="path24"
       d="m 160.39221,202.37158 0.0378,-18.89764 m -0.0119,5.95276 -8.2e-4,0.4252 m 0.0128,-6.37796 v 0 l 0.83847,5.95447 -1.70077,-0.003 0.8623,-5.95105"
       style="fill:none;stroke:#000000;stroke-width:0.3685;stroke-linecap:round;stroke-linejoin:round;stroke-miterlimit:10;stroke-dasharray:none;stroke-opacity:1"
       transform="matrix(1.3333333,0,0,-1.3333333,0,321.26)" />
    <path
       id="path25"
       d="m 159.56772,189.42499 0.8623,-5.95105 0.83847,5.95447 -1.70077,-0.003 z"
       style="fill:#000000;fill-opacity:1;fill-rule:nonzero;stroke:none"
       transform="matrix(1.3333333,0,0,-1.3333333,0,321.26)" />
    <path
       id="path26"
       d="m 213.8428,171.51187 0.0378,-18.89764 m -0.0119,5.95276 -8.2e-4,0.4252 m 0.0128,-6.37796 v 0 l 0.83847,5.95447 -1.70078,-0.003 0.86231,-5.95105"
       style="fill:none;stroke:#000000;stroke-width:0.3685;stroke-linecap:round;stroke-linejoin:round;stroke-miterlimit:10;stroke-dasharray:none;stroke-opacity:1"
       transform="matrix(1.3333333,0,0,-1.3333333,0,321.26)" />
    <path
       id="path27"
       d="m 213.01831,158.56528 0.86231,-5.95105 0.83847,5.95447 -1.70078,-0.003 z"
       style="fill:#000000;fill-opacity:1;fill-rule:nonzero;stroke:none"
       transform="matrix(1.3333333,0,0,-1.3333333,0,321.26)" />
    <path
       id="path28"
       d="m 160.39221,140.65216 0.0378,-18.89764 m -0.0119,5.95274 -8.2e-4,0.42519 m 0.0128,-6.37793 v 0 l 0.83847,5.95445 -1.70077,-0.003 0.8623,-5.95105"
       style="fill:none;stroke:#000000;stroke-width:0.3685;stroke-linecap:round;stroke-linejoin:round;stroke-miterlimit:10;stroke-dasharray:none;stroke-opacity:1"
       transform="matrix(1.3333333,0,0,-1.3333333,0,321.26)" />
    <path
       id="path29"
       d="m 159.56772,127.70557 0.8623,-5.95105 0.83847,5.95445 -1.70077,-0.003 z"
       style="fill:#000000;fill-opacity:1;fill-rule:nonzero;stroke:none"
       transform="matrix(1.3333333,0,0,-1.3333333,0,321.26)" />
    <path
       id="path30"
       d="m 106.94162,171.51187 0.0378,-18.89764 m -0.0119,5.95276 -8.5e-4,0.4252 m 0.0128,-6.37796 v 0 l 0.83848,5.95447 -1.70077,-0.003 0.86229,-5.95105"
       style="fill:none;stroke:#000000;stroke-width:0.3685;stroke-linecap:round;stroke-linejoin:round;stroke-miterlimit:10;stroke-dasharray:none;stroke-opacity:1"
       transform="matrix(1.3333333,0,0,-1.3333333,0,321.26)" />
    <path
       id="path31"
       d="m 106.11713,158.56528 0.86229,-5.95105 0.83848,5.95447 -1.70077,-0.003 z"
       style="fill:#000000;fill-opacity:1;fill-rule:nonzero;stroke:none"
       transform="matrix(1.3333333,0,0,-1.3333333,0,321.26)" />
    <path
       id="path32"
       d="m 53.49103,140.65216 0.03779,-18.89764 m -0.01191,5.95274 -8.4e-4,0.42519 m 0.01275,-6.37793 v 0 l 0.83849,5.95445 -1.70078,-0.003 0.86229,-5.95105"
       style="fill:none;stroke:#000000;stroke-width:0.3685;stroke-linecap:round;stroke-linejoin:round;stroke-miterlimit:10;stroke-dasharray:none;stroke-opacity:1"
       transform="matrix(1.3333333,0,0,-1.3333333,0,321.26)" />
    <path
       id="path33"
       d="m 52.66653,127.70557 0.86229,-5.95105 0.83849,5.95445 -1.70078,-0.003 z"
       style="fill:#000000;fill-opacity:1;fill-rule:nonzero;stroke:none"
       transform="matrix(1.3333333,0,0,-1.3333333,0,321.26)" />
    <path
       id="path34"
       d="m 106.94162,109.79243 0.0378,-18.89762 m -0.0119,5.95274 -8.5e-4,0.4252 m 0.0128,-6.37794 v 0 l 0.83848,5.95443 -1.70077,-0.0034 0.86229,-5.95103"
       style="fill:none;stroke:#000000;stroke-width:0.3685;stroke-linecap:round;stroke-linejoin:round;stroke-miterlimit:10;stroke-dasharray:none;stroke-opacity:1"
       transform="matrix(1.3333333,0,0,-1.3333333,0,321.26)" />
    <path
       id="path35"
       d="m 106.11713,96.84584 0.86229,-5.95103 0.83848,5.95443 z"
       style="fill:#000000;fill-opacity:1;fill-rule:nonzero;stroke:none"
       transform="matrix(1.3333333,0,0,-1.3333333,0,321.26)" />
    <path
       id="path36"
       d="m 37.7173,66.87373 11.62781,6.71332 m -2.57762,-1.48819 -0.18412,-0.10631 m 2.76174,1.5945 v 0 l -2.79022,-1.11996 0.4252,-0.73645 2.36502,1.85641"
       style="fill:none;stroke:#000000;stroke-width:0.3685;stroke-linecap:round;stroke-linejoin:round;stroke-miterlimit:10;stroke-dasharray:none;stroke-opacity:1"
       transform="matrix(1.3333333,0,0,-1.3333333,0,321.26)" />
    <path
       id="path37"
       d="m 46.98009,71.73064 2.36502,1.85641 -2.79022,-1.11996 z"
       style="fill:#000000;fill-opacity:1;fill-rule:nonzero;stroke:none"
       transform="matrix(1.3333333,0,0,-1.3333333,0,321.26)" />
    <path
       id="path38"
       d="m 37.7173,66.87373 v 10.7869 m 0,-2.97638 v -0.2126 m 0,3.18898 v 0 l -0.4252,-2.97638 h 0.85039 l -0.42519,2.97638"
       style="fill:none;stroke:#000000;stroke-width:0.3685;stroke-linecap:round;stroke-linejoin:round;stroke-miterlimit:10;stroke-dasharray:none;stroke-opacity:1"
       transform="matrix(1.3333333,0,0,-1.3333333,0,321.26)" />
    <path
       id="path39"
       d="M 38.14249,74.68425 37.7173,77.66063 37.2921,74.68425 Z"
       style="fill:#000000;fill-opacity:1;fill-rule:nonzero;stroke:none"
       transform="matrix(1.3333333,0,0,-1.3333333,0,321.26)" />
    <path
       id="path40"
       d="m 37.7173,66.87373 9.98096,-5.76251 m -2.57762,1.48819 -0.18412,0.10629 m 2.76174,-1.59448 v 0 l -2.36502,1.85642 -0.4252,-0.73645 2.79022,-1.11997"
       style="fill:none;stroke:#000000;stroke-width:0.3685;stroke-linecap:round;stroke-linejoin:round;stroke-miterlimit:10;stroke-dasharray:none;stroke-opacity:1"
       transform="matrix(1.3333333,0,0,-1.3333333,0,321.26)" />
    <path
       id="path41"
       d="m 44.90804,62.23119 2.79022,-1.11997 -2.36502,1.85642 z"
       style="fill:#000000;fill-opacity:1;fill-rule:nonzero;stroke:none"
       transform="matrix(1.3333333,0,0,-1.3333333,0,321.26)" />
    <text
       id="text41"
       xml:space="preserve"
       transform="matrix(1.3333333,0,0,1.3333333,233.17811,161.17481)"
       clip-path="url(#clipPath42)"><tspan
         style="font-variant:normal;font-weight:normal;font-stretch:normal;font-size:10.0916px;font-family:'Palatino Linotype';writing-mode:lr-tb;fill:#000000;fill-opacity:1;fill-rule:nonzero;stroke:none"
         x="0 5.045805 10.09161 15.137415 17.660318 23.271254"
         y="0"
         sodipodi:role="line"
         id="tspan41">120 kN</tspan></text>
    <text
       id="text42"
       xml:space="preserve"
       transform="matrix(1.3333333,0,0,1.3333333,46.473693,214.83915)"
       clip-path="url(#clipPath43)"><tspan
         style="font-style:italic;font-variant:normal;font-weight:normal;font-stretch:normal;font-size:10.0071px;font-family:'Palatino Linotype';writing-mode:lr-tb;fill:#000000;fill-opacity:1;fill-rule:nonzero;stroke:none"
         x="0"
         y="0"
         id="tspan42">Z</tspan></text>
    <text
       id="text43"
       xml:space="preserve"
       transform="matrix(1.3333333,0,0,1.3333333,67.864773,221.98668)"
       clip-path="url(#clipPath44)"><tspan
         style="font-style:italic;font-variant:normal;font-weight:normal;font-stretch:normal;font-size:10.0071px;font-family:'Palatino Linotype';writing-mode:lr-tb;fill:#000000;fill-opacity:1;fill-rule:nonzero;stroke:none"
         x="0"
         y="0"
         id="tspan43">Y</tspan></text>
    <text
       id="text44"
       xml:space="preserve"
       transform="matrix(1.3333333,0,0,1.3333333,64.373787,245.03147)"
       clip-path="url(#clipPath45)"><tspan
         style="font-style:italic;font-variant:normal;font-weight:normal;font-stretch:normal;font-size:10.0071px;font-family:'Palatino Linotype';writing-mode:lr-tb;fill:#000000;fill-opacity:1;fill-rule:nonzero;stroke:none"
         x="0"
         y="0"
         id="tspan44">X</tspan></text>
  </g>
</svg>
