<?xml version="1.0" encoding="UTF-8" standalone="no"?>
<!-- Created with Inkscape (http://www.inkscape.org/) -->

<svg
   version="1.1"
   id="svg1"
   width="566.92932"
   height="158.74001"
   viewBox="0 0 566.92932 158.74001"
   sodipodi:docname="trm_q_w.pdf"
   xmlns:inkscape="http://www.inkscape.org/namespaces/inkscape"
   xmlns:sodipodi="http://sodipodi.sourceforge.net/DTD/sodipodi-0.dtd"
   xmlns="http://www.w3.org/2000/svg"
   xmlns:svg="http://www.w3.org/2000/svg">
  <defs
     id="defs1">
    <clipPath
       clipPathUnits="userSpaceOnUse"
       id="clipPath7">
      <path
         d="M -0.00426,-0.00119 V 119.0563 H 425.20111 V -0.00119 H -0.00426"
         transform="matrix(1,0,0,-1,-63.972311,108.93897)"
         clip-rule="evenodd"
         id="path7" />
    </clipPath>
    <clipPath
       clipPathUnits="userSpaceOnUse"
       id="clipPath8">
      <path
         d="M -0.00426,-0.00119 V 119.0563 H 425.20111 V -0.00119 H -0.00426"
         transform="matrix(1,0,0,-1,-365.86286,8.6559677)"
         clip-rule="evenodd"
         id="path8" />
    </clipPath>
    <clipPath
       clipPathUnits="userSpaceOnUse"
       id="clipPath9">
      <path
         d="M -0.00426,-0.00119 V 119.0563 H 425.20111 V -0.00119 H -0.00426"
         transform="matrix(1,0,0,-1,-214.19173,89.845332)"
         clip-rule="evenodd"
         id="path9" />
    </clipPath>
    <clipPath
       clipPathUnits="userSpaceOnUse"
       id="clipPath10">
      <path
         d="M -0.00426,-0.00119 V 119.0563 H 425.20111 V -0.00119 H -0.00426"
         transform="matrix(1,0,0,-1,-73.087102,53.591452)"
         clip-rule="evenodd"
         id="path10" />
    </clipPath>
    <clipPath
       clipPathUnits="userSpaceOnUse"
       id="clipPath11">
      <path
         d="M -0.00426,-0.00119 V 119.0563 H 425.20111 V -0.00119 H -0.00426"
         transform="matrix(1,0,0,-1,-112.98874,83.665722)"
         clip-rule="evenodd"
         id="path11" />
    </clipPath>
    <clipPath
       clipPathUnits="userSpaceOnUse"
       id="clipPath12">
      <path
         d="M -0.00426,-0.00119 V 119.0563 H 425.20111 V -0.00119 H -0.00426"
         transform="matrix(1,0,0,-1,-122.63847,99.722082)"
         clip-rule="evenodd"
         id="path12" />
    </clipPath>
  </defs>
  <sodipodi:namedview
     id="namedview1"
     pagecolor="#ffffff"
     bordercolor="#000000"
     borderopacity="0.25"
     inkscape:showpageshadow="2"
     inkscape:pageopacity="0.0"
     inkscape:pagecheckerboard="0"
     inkscape:deskcolor="#d1d1d1">
    <inkscape:page
       x="0"
       y="0"
       inkscape:label="1"
       id="page1"
       width="566.92932"
       height="158.74001"
       margin="0"
       bleed="0" />
  </sodipodi:namedview>
  <g
     id="g1"
     inkscape:groupmode="layer"
     inkscape:label="1">
    <path
       id="path1"
       d="m 72.39005,62.50162 c 0,0.78276 -0.63457,1.41733 -1.41733,1.41733 m 0,0 c -0.78276,0 -1.41733,-0.63457 -1.41733,-1.41733 m 0,0 c 0,-0.78276 0.63457,-1.41733 1.41733,-1.41733 m 0,0 c 0.78276,0 1.41733,0.63457 1.41733,1.41733"
       style="fill:none;stroke:#000000;stroke-width:0.3685;stroke-linecap:round;stroke-linejoin:round;stroke-miterlimit:10;stroke-dasharray:none;stroke-opacity:1"
       transform="matrix(1.3333333,0,0,-1.3333333,0,158.74)" />
    <path
       id="path2"
       d="m 214.2576,100.0152 c 0,0.78277 -0.63455,1.41733 -1.41733,1.41733 m 0,0 c -0.78274,0 -1.41733,-0.63456 -1.41733,-1.41733 m 0,0 c 0,-0.78276 0.63459,-1.41733 1.41733,-1.41733 m 0,0 c 0.78278,0 1.41733,0.63457 1.41733,1.41733"
       style="fill:none;stroke:#000000;stroke-width:0.3685;stroke-linecap:round;stroke-linejoin:round;stroke-miterlimit:10;stroke-dasharray:none;stroke-opacity:1"
       transform="matrix(1.3333333,0,0,-1.3333333,0,158.74)" />
    <path
       id="path3"
       d="m 329.20502,103.23285 -3.83325,-6.02365 m 5.95727,6.02365 -3.83325,-6.02365 m -220.43195,-5.24941 12.98468,3.56967"
       style="fill:none;stroke:#000000;stroke-width:0.3685;stroke-linecap:round;stroke-linejoin:round;stroke-miterlimit:10;stroke-dasharray:none;stroke-opacity:1"
       transform="matrix(1.3333333,0,0,-1.3333333,0,158.74)" />
    <path
       id="path4"
       d="m 108.48116,91.95979 c 0,0.78276 -0.63456,1.41733 -1.41732,1.41733 m 0,0 c -0.78277,0 -1.41733,-0.63457 -1.41733,-1.41733 m 0,0 c 0,-0.78277 0.63456,-1.41732 1.41733,-1.41732 m 0,0 c 0.78276,0 1.41732,0.63455 1.41732,1.41732"
       style="fill:none;stroke:#000000;stroke-width:0.3685;stroke-linecap:round;stroke-linejoin:round;stroke-miterlimit:10;stroke-dasharray:none;stroke-opacity:1"
       transform="matrix(1.3333333,0,0,-1.3333333,0,158.74)" />
    <path
       id="path5"
       d="m 121.46585,95.52946 c 0,0.78277 -0.63455,1.41733 -1.41733,1.41733 m 0,0 c -0.78276,0 -1.41731,-0.63456 -1.41731,-1.41733 m 0,0 c 0,-0.78276 0.63455,-1.41732 1.41731,-1.41732 m 0,0 c 0.78278,0 1.41733,0.63456 1.41733,1.41732"
       style="fill:none;stroke:#000000;stroke-width:0.3685;stroke-linecap:round;stroke-linejoin:round;stroke-miterlimit:10;stroke-dasharray:none;stroke-opacity:1"
       transform="matrix(1.3333333,0,0,-1.3333333,0,158.74)" />
    <path
       id="path6"
       d="m 56.82681,19.6877 14.14591,42.81392 36.09112,29.45817 12.98468,3.56967 92.79175,4.48574 114.44812,0.20582"
       style="fill:none;stroke:#000000;stroke-width:0.3685;stroke-linecap:round;stroke-linejoin:round;stroke-miterlimit:10;stroke-dasharray:none;stroke-opacity:1"
       transform="matrix(1.3333333,0,0,-1.3333333,0,158.74)" />
    <text
       id="text6"
       xml:space="preserve"
       transform="matrix(1.3333333,0,0,1.3333333,85.296413,13.48804)"
       clip-path="url(#clipPath7)"><tspan
         style="font-style:italic;font-variant:normal;font-weight:normal;font-stretch:normal;font-size:10.0071px;font-family:'Palatino Linotype';writing-mode:lr-tb;fill:#000000;fill-opacity:1;fill-rule:nonzero;stroke:none"
         x="0"
         y="0"
         id="tspan6">Q</tspan></text>
    <text
       id="text7"
       xml:space="preserve"
       transform="matrix(1.3333333,0,0,1.3333333,487.81713,147.19871)"
       clip-path="url(#clipPath8)"><tspan
         style="font-style:italic;font-variant:normal;font-weight:normal;font-stretch:normal;font-size:10.0071px;font-family:'Palatino Linotype';writing-mode:lr-tb;fill:#000000;fill-opacity:1;fill-rule:nonzero;stroke:none"
         x="0"
         y="0"
         id="tspan7">w</tspan></text>
    <text
       id="text8"
       xml:space="preserve"
       transform="matrix(1.3333333,0,0,1.3333333,285.58896,38.946227)"
       clip-path="url(#clipPath9)"><tspan
         style="font-variant:normal;font-weight:normal;font-stretch:normal;font-size:8.07329px;font-family:'Palatino Linotype';writing-mode:lr-tb;fill:#000000;fill-opacity:1;fill-rule:nonzero;stroke:none"
         x="0 4.9327803 9.8090477 11.82737 15.864015 17.882338 21.918982 23.937305 27.973949 32.010593"
         y="0"
         sodipodi:role="line"
         id="tspan8">LP = 0.833</tspan></text>
    <text
       id="text9"
       xml:space="preserve"
       transform="matrix(1.3333333,0,0,1.3333333,97.449467,87.284733)"
       clip-path="url(#clipPath10)"><tspan
         style="font-variant:normal;font-weight:normal;font-stretch:normal;font-size:8.07329px;font-family:'Palatino Linotype';writing-mode:lr-tb;fill:#000000;fill-opacity:1;fill-rule:nonzero;stroke:none"
         x="0 4.9327803 9.8090477 11.82737 15.864015 17.882338 21.918982 23.937305 27.973949 32.010593"
         y="0"
         sodipodi:role="line"
         id="tspan9">LP = 0.477</tspan></text>
    <text
       id="text10"
       xml:space="preserve"
       transform="matrix(1.3333333,0,0,1.3333333,150.65165,47.185707)"
       clip-path="url(#clipPath11)"><tspan
         style="font-variant:normal;font-weight:normal;font-stretch:normal;font-size:8.07329px;font-family:'Palatino Linotype';writing-mode:lr-tb;fill:#000000;fill-opacity:1;fill-rule:nonzero;stroke:none"
         x="0 4.9327803 9.8090477 11.82737 15.864015 17.882338 21.918982 23.937305 27.973949 32.010593"
         y="0"
         sodipodi:role="line"
         id="tspan10">LP = 0.747</tspan></text>
    <text
       id="text11"
       xml:space="preserve"
       transform="matrix(1.3333333,0,0,1.3333333,163.51796,25.777227)"
       clip-path="url(#clipPath12)"><tspan
         style="font-variant:normal;font-weight:normal;font-stretch:normal;font-size:8.07329px;font-family:'Palatino Linotype';writing-mode:lr-tb;fill:#000000;fill-opacity:1;fill-rule:nonzero;stroke:none"
         x="0 4.9327803 9.8090477 11.82737 15.864015 17.882338 21.918982 23.937305 27.973949 32.010593"
         y="0"
         sodipodi:role="line"
         id="tspan11">LP = 0.779</tspan></text>
    <path
       id="path13"
       d="m 56.82681,19.6877 v 96.46535 m 0,-5.95275 v -0.4252 m 0,6.37795 v 0 l -0.85038,-5.95275 h 1.70077 l -0.85039,5.95275"
       style="fill:none;stroke:#000000;stroke-width:0.3685;stroke-linecap:round;stroke-linejoin:round;stroke-miterlimit:10;stroke-dasharray:none;stroke-opacity:1"
       transform="matrix(1.3333333,0,0,-1.3333333,0,158.74)" />
    <path
       id="path14"
       d="m 57.6772,110.2003 -0.85039,5.95275 -0.85038,-5.95275 z"
       style="fill:#000000;fill-opacity:1;fill-rule:nonzero;stroke:none"
       transform="matrix(1.3333333,0,0,-1.3333333,0,158.74)" />
    <path
       id="path15"
       d="m 260.9213,19.6877 h 123.21978 m -5.95276,0 h -0.4252 m 6.37796,0 v 0 l -5.95276,0.8504 v -1.70077 l 5.95276,0.85037"
       style="fill:none;stroke:#000000;stroke-width:0.3685;stroke-linecap:round;stroke-linejoin:round;stroke-miterlimit:10;stroke-dasharray:none;stroke-opacity:1"
       transform="matrix(1.3333333,0,0,-1.3333333,0,158.74)" />
    <path
       id="path16"
       d="m 378.18832,18.83733 5.95276,0.85037 -5.95276,0.8504 z"
       style="fill:#000000;fill-opacity:1;fill-rule:nonzero;stroke:none"
       transform="matrix(1.3333333,0,0,-1.3333333,0,158.74)" />
    <path
       id="path17"
       d="m 56.82681,19.6877 h 327.31427 m -5.95276,0 h -0.4252 m 6.37796,0 v 0 l -5.95276,0.8504 v -1.70077 l 5.95276,0.85037"
       style="fill:none;stroke:#000000;stroke-width:0.3685;stroke-linecap:round;stroke-linejoin:round;stroke-miterlimit:10;stroke-dasharray:none;stroke-opacity:1"
       transform="matrix(1.3333333,0,0,-1.3333333,0,158.74)" />
    <path
       id="path18"
       d="m 378.18832,18.83733 5.95276,0.85037 -5.95276,0.8504 z"
       style="fill:#000000;fill-opacity:1;fill-rule:nonzero;stroke:none"
       transform="matrix(1.3333333,0,0,-1.3333333,0,158.74)" />
  </g>
</svg>
