<?xml version="1.0" encoding="UTF-8" standalone="no"?>
<!-- Created with Inkscape (http://www.inkscape.org/) -->

<svg
   version="1.1"
   id="svg1"
   width="566.92932"
   height="170.07867"
   viewBox="0 0 566.92932 170.07867"
   sodipodi:docname="trm_schnitt.pdf"
   xmlns:inkscape="http://www.inkscape.org/namespaces/inkscape"
   xmlns:sodipodi="http://sodipodi.sourceforge.net/DTD/sodipodi-0.dtd"
   xmlns="http://www.w3.org/2000/svg"
   xmlns:svg="http://www.w3.org/2000/svg">
  <defs
     id="defs1">
    <clipPath
       clipPathUnits="userSpaceOnUse"
       id="clipPath47">
      <path
         d="M -0.00426,-0.00128 V 127.56033 H 425.20111 V -0.00128 H -0.00426"
         transform="matrix(1,0,0,-1,-79.043604,118.26073)"
         clip-rule="evenodd"
         id="path47" />
    </clipPath>
    <clipPath
       clipPathUnits="userSpaceOnUse"
       id="clipPath48">
      <path
         d="M -0.00426,-0.00128 V 127.56033 H 425.20111 V -0.00128 H -0.00426"
         transform="matrix(1,0,0,-1,-133.16869,118.26073)"
         clip-rule="evenodd"
         id="path48" />
    </clipPath>
    <clipPath
       clipPathUnits="userSpaceOnUse"
       id="clipPath49">
      <path
         d="M -0.00426,-0.00128 V 127.56033 H 425.20111 V -0.00128 H -0.00426"
         transform="matrix(1,0,0,-1,-208.75924,118.26073)"
         clip-rule="evenodd"
         id="path49" />
    </clipPath>
    <clipPath
       clipPathUnits="userSpaceOnUse"
       id="clipPath50">
      <path
         d="M -0.00426,-0.00128 V 127.56033 H 425.20111 V -0.00128 H -0.00426"
         transform="matrix(1,0,0,-1,-284.34979,118.26073)"
         clip-rule="evenodd"
         id="path50" />
    </clipPath>
    <clipPath
       clipPathUnits="userSpaceOnUse"
       id="clipPath51">
      <path
         d="M -0.00426,-0.00128 V 127.56033 H 425.20111 V -0.00128 H -0.00426"
         transform="matrix(1,0,0,-1,-343.61055,118.26073)"
         clip-rule="evenodd"
         id="path51" />
    </clipPath>
    <clipPath
       clipPathUnits="userSpaceOnUse"
       id="clipPath53">
      <path
         d="M -0.00426,-0.00128 V 127.56033 H 425.20111 V -0.00128 H -0.00426"
         transform="matrix(1,0,0,-1,-89.23459,19.942663)"
         clip-rule="evenodd"
         id="path53" />
    </clipPath>
    <clipPath
       clipPathUnits="userSpaceOnUse"
       id="clipPath54">
      <path
         d="M -0.00426,-0.00128 V 127.56033 H 425.20111 V -0.00128 H -0.00426"
         transform="matrix(1,0,0,-1,-89.23459,5.7694326)"
         clip-rule="evenodd"
         id="path54" />
    </clipPath>
    <clipPath
       clipPathUnits="userSpaceOnUse"
       id="clipPath55">
      <path
         d="M -0.00426,-0.00128 V 127.56033 H 425.20111 V -0.00128 H -0.00426"
         transform="matrix(1,0,0,-1,-352.08252,13.960213)"
         clip-rule="evenodd"
         id="path55" />
    </clipPath>
    <clipPath
       clipPathUnits="userSpaceOnUse"
       id="clipPath56">
      <path
         d="M -0.00426,-0.00128 V 127.56033 H 425.20111 V -0.00128 H -0.00426"
         transform="matrix(1,0,0,-1,-377.63056,6.4024927)"
         clip-rule="evenodd"
         id="path56" />
    </clipPath>
    <clipPath
       clipPathUnits="userSpaceOnUse"
       id="clipPath57">
      <path
         d="M -0.00426,-0.00128 V 127.56033 H 425.20111 V -0.00128 H -0.00426"
         transform="matrix(0.99948078,0.03222104,0.03222104,-0.99948078,-375.20742,22.692979)"
         clip-rule="evenodd"
         id="path57" />
    </clipPath>
    <clipPath
       clipPathUnits="userSpaceOnUse"
       id="clipPath58">
      <path
         d="M -0.00426,-0.00128 V 127.56033 H 425.20111 V -0.00128 H -0.00426"
         transform="matrix(1,0,0,-1,-256.0396,51.631079)"
         clip-rule="evenodd"
         id="path58" />
    </clipPath>
    <clipPath
       clipPathUnits="userSpaceOnUse"
       id="clipPath59">
      <path
         d="M -0.00426,-0.00128 V 127.56033 H 425.20111 V -0.00128 H -0.00426"
         transform="matrix(1,0,0,-1,-256.0396,17.039518)"
         clip-rule="evenodd"
         id="path59" />
    </clipPath>
    <clipPath
       clipPathUnits="userSpaceOnUse"
       id="clipPath60">
      <path
         d="M -0.00426,-0.00128 V 127.56033 H 425.20111 V -0.00128 H -0.00426"
         transform="matrix(1,0,0,-1,-331.63015,42.110054)"
         clip-rule="evenodd"
         id="path60" />
    </clipPath>
    <clipPath
       clipPathUnits="userSpaceOnUse"
       id="clipPath61">
      <path
         d="M -0.00426,-0.00128 V 127.56033 H 425.20111 V -0.00128 H -0.00426"
         transform="matrix(1,0,0,-1,-369.42546,54.645312)"
         clip-rule="evenodd"
         id="path61" />
    </clipPath>
    <clipPath
       clipPathUnits="userSpaceOnUse"
       id="clipPath62">
      <path
         d="M -0.00426,-0.00128 V 127.56033 H 425.20111 V -0.00128 H -0.00426"
         transform="matrix(1,0,0,-1,-317.94794,66.277441)"
         clip-rule="evenodd"
         id="path62" />
    </clipPath>
    <clipPath
       clipPathUnits="userSpaceOnUse"
       id="clipPath63">
      <path
         d="M -0.00426,-0.00128 V 127.56033 H 425.20111 V -0.00128 H -0.00426"
         transform="matrix(1,0,0,-1,-103.70062,90.619843)"
         clip-rule="evenodd"
         id="path63" />
    </clipPath>
    <clipPath
       clipPathUnits="userSpaceOnUse"
       id="clipPath64">
      <path
         d="M -0.00426,-0.00128 V 127.56033 H 425.20111 V -0.00128 H -0.00426"
         transform="matrix(1,0,0,-1,-179.29119,90.619843)"
         clip-rule="evenodd"
         id="path64" />
    </clipPath>
    <clipPath
       clipPathUnits="userSpaceOnUse"
       id="clipPath65">
      <path
         d="M -0.00426,-0.00128 V 127.56033 H 425.20111 V -0.00128 H -0.00426"
         transform="matrix(1,0,0,-1,-254.88174,90.619843)"
         clip-rule="evenodd"
         id="path65" />
    </clipPath>
    <clipPath
       clipPathUnits="userSpaceOnUse"
       id="clipPath66">
      <path
         d="M -0.00426,-0.00128 V 127.56033 H 425.20111 V -0.00128 H -0.00426"
         transform="matrix(1,0,0,-1,-330.47229,90.619843)"
         clip-rule="evenodd"
         id="path66" />
    </clipPath>
  </defs>
  <sodipodi:namedview
     id="namedview1"
     pagecolor="#ffffff"
     bordercolor="#000000"
     borderopacity="0.25"
     inkscape:showpageshadow="2"
     inkscape:pageopacity="0.0"
     inkscape:pagecheckerboard="0"
     inkscape:deskcolor="#d1d1d1">
    <inkscape:page
       x="0"
       y="0"
       inkscape:label="1"
       id="page1"
       width="566.92932"
       height="170.07867"
       margin="0"
       bleed="0" />
  </sodipodi:namedview>
  <g
     id="g1"
     inkscape:groupmode="layer"
     inkscape:label="1">
    <path
       id="path1"
       d="M 325.98428,62.36224 H 250.39374 174.80319 99.21262 61.41734 m 264.56694,0 h 37.79529 m -302.36223,0 v 9.44883 m 0,-9.44883 v -9.44882"
       style="fill:none;stroke:#000000;stroke-width:0.51024;stroke-linecap:round;stroke-linejoin:round;stroke-miterlimit:10;stroke-dasharray:none;stroke-opacity:1"
       transform="matrix(1.3333333,0,0,-1.3333333,0,170.07867)" />
    <path
       id="path2"
       d="m 61.41734,69.12747 -3.88612,2.6836 m 3.88612,-5.36718 -3.88612,2.68358 m 3.88612,-5.36716 -3.88612,2.68358 m 3.88612,-5.36715 -3.88612,2.68357 m 3.88612,-5.36717 -3.88612,2.6836 m 3.88612,-5.36718 -3.88612,2.68358 m 3.88612,-5.36715 -3.88612,2.68357"
       style="fill:none;stroke:#000000;stroke-width:0.3685;stroke-linecap:round;stroke-linejoin:round;stroke-miterlimit:10;stroke-dasharray:none;stroke-opacity:1"
       transform="matrix(1.3333333,0,0,-1.3333333,0,170.07867)" />
    <path
       id="path3"
       d="m 363.77957,62.36224 v 9.44883 m 0,-9.44883 v -9.44882"
       style="fill:none;stroke:#000000;stroke-width:0.51024;stroke-linecap:round;stroke-linejoin:round;stroke-miterlimit:10;stroke-dasharray:none;stroke-opacity:1"
       transform="matrix(1.3333333,0,0,-1.3333333,0,170.07867)" />
    <path
       id="path4"
       d="m 363.77957,69.12747 3.88611,2.6836 m -3.88611,-5.36718 3.88611,2.68358 m -3.88611,-5.36716 3.88611,2.68358 m -3.88611,-5.36715 3.88611,2.68357 m -3.88611,-5.36717 3.88611,2.6836 m -3.88611,-5.36718 3.88611,2.68358 m -3.88611,-5.36715 3.88611,2.68357"
       style="fill:none;stroke:#000000;stroke-width:0.3685;stroke-linecap:round;stroke-linejoin:round;stroke-miterlimit:10;stroke-dasharray:none;stroke-opacity:1"
       transform="matrix(1.3333333,0,0,-1.3333333,0,170.07867)" />
    <path
       id="path5"
       d="m 174.80319,46.11966 h 1.51178 m 2.2677,0 h 2.83466 m 2.26773,0 h 2.83462 m 2.26773,0 h 2.83463 m 2.26773,0 h 2.83466 m 2.2677,0 h 2.83465 m 2.2677,0 h 2.83466 m 2.26773,0 h 2.83462 m 2.26773,0 h 2.83466 m 2.2677,0 h 2.83466 m 2.2677,0 h 2.83465 m 2.2677,0 h 2.83466 m 2.26773,0 h 2.83462 m 2.26774,0 h 2.83465 m 2.2677,0 h 2.83466 m 2.2677,0 h 0.37799"
       style="fill:none;stroke:#1d1d1d;stroke-width:0.51024;stroke-linecap:round;stroke-linejoin:round;stroke-miterlimit:10;stroke-dasharray:none;stroke-opacity:1"
       transform="matrix(1.3333333,0,0,-1.3333333,0,170.07867)" />
    <path
       id="path6"
       d="m 174.54807,46.11966 0.25512,0.25511 0.2551,-0.25511 -0.2551,-0.25513 z"
       style="fill:#1d1d1d;fill-opacity:1;fill-rule:nonzero;stroke:none"
       transform="matrix(1.3333333,0,0,-1.3333333,0,170.07867)" />
    <path
       id="path7"
       d="m 250.13861,46.11966 0.25513,0.25511 0.25512,-0.25511 -0.25512,-0.25513 z"
       style="fill:#1d1d1d;fill-opacity:1;fill-rule:nonzero;stroke:none"
       transform="matrix(1.3333333,0,0,-1.3333333,0,170.07867)" />
    <path
       id="path8"
       d="m 251.10126,46.22101 2.806,0.40196 m 2.24478,0.32156 2.806,0.40197 m 2.24481,0.32156 2.806,0.40196 m 2.24478,0.32158 2.806,0.40195 m 2.24481,0.32158 2.806,0.40196 m 2.24482,0.32156 2.80599,0.40197 m 2.24479,0.32156 2.80603,0.40196 m 2.24478,0.32158 2.806,0.40196 m 2.24481,0.32157 2.806,0.40196 m 2.24481,0.32156 2.806,0.40197 m 2.24478,0.32157 2.806,0.40195 m 2.24481,0.32158 2.806,0.40196 m 2.24482,0.32157 2.806,0.40196 m 2.24478,0.32156 2.806,0.40196 m 2.24481,0.32158 2.806,0.40197 m 2.24481,0.32156 2.806,0.40196 m 2.24478,0.32157 2.806,0.40196 m 2.24481,0.32158 2.806,0.40196 m 2.24482,0.32156 2.806,0.40196 m 2.24478,0.32157 2.806,0.40196 m 2.24481,0.32156 2.806,0.40197 m 2.24481,0.32158 2.806,0.40196 m 2.24481,0.32156 1.56067,0.22357"
       style="fill:none;stroke:#1d1d1d;stroke-width:0.51024;stroke-linecap:round;stroke-linejoin:round;stroke-miterlimit:10;stroke-dasharray:none;stroke-opacity:1"
       transform="matrix(1.3333333,0,0,-1.3333333,0,170.07867)" />
    <path
       id="path9"
       d="m 250.1412,46.08348 0.21634,0.28871 0.28873,-0.21637 -0.21637,-0.28871 z"
       style="fill:#1d1d1d;fill-opacity:1;fill-rule:nonzero;stroke:none"
       transform="matrix(1.3333333,0,0,-1.3333333,0,170.07867)" />
    <path
       id="path10"
       d="m 363.52701,62.32607 0.21637,0.28871 0.28872,-0.21636 -0.21637,-0.28872 z"
       style="fill:#1d1d1d;fill-opacity:1;fill-rule:nonzero;stroke:none"
       transform="matrix(1.3333333,0,0,-1.3333333,0,170.07867)" />
    <path
       id="path11"
       d="m 61.41734,62.36224 1.88547,-0.27009 m 2.2448,-0.32158 2.806,-0.40195 m 2.24479,-0.32158 2.80602,-0.40196 m 2.2448,-0.32156 2.806,-0.40197 m 2.24479,-0.32156 2.806,-0.40196 m 2.24481,-0.32158 2.806,-0.40196 m 2.2448,-0.32157 2.806,-0.40196 m 2.2448,-0.32156 2.806,-0.40196 m 2.24481,-0.32158 2.806,-0.40195 m 2.2448,-0.32158 2.806,-0.40196 m 2.24479,-0.32157 2.80602,-0.40196 m 2.24479,-0.32156 2.806,-0.40196 m 2.2448,-0.32158 2.806,-0.40197 m 2.24481,-0.32156 2.80599,-0.40196 m 2.24481,-0.32156 2.806,-0.40197 m 2.24481,-0.32158 2.806,-0.40194 m 2.24478,-0.32158 2.80603,-0.40196 m 2.24478,-0.32157 2.806,-0.40196 m 2.24481,-0.32156 2.806,-0.40197 m 2.24482,-0.32158 2.806,-0.40196 m 2.24478,-0.32156 2.806,-0.40196 m 2.24481,-0.32157 2.806,-0.40196 m 2.24481,-0.32158 2.806,-0.40195"
       style="fill:none;stroke:#1d1d1d;stroke-width:0.51024;stroke-linecap:round;stroke-linejoin:round;stroke-miterlimit:10;stroke-dasharray:none;stroke-opacity:1"
       transform="matrix(1.3333333,0,0,-1.3333333,0,170.07867)" />
    <path
       id="path12"
       d="m 61.16481,62.39842 0.28871,0.21636 0.21637,-0.28871 -0.28873,-0.21637 z"
       style="fill:#1d1d1d;fill-opacity:1;fill-rule:nonzero;stroke:none"
       transform="matrix(1.3333333,0,0,-1.3333333,0,170.07867)" />
    <path
       id="path13"
       d="m 174.55063,46.15582 0.28873,0.21637 0.21637,-0.28871 -0.28873,-0.21637 z"
       style="fill:#1d1d1d;fill-opacity:1;fill-rule:nonzero;stroke:none"
       transform="matrix(1.3333333,0,0,-1.3333333,0,170.07867)" />
    <path
       id="path14"
       d="m 250.39374,46.11966 v 0 m -75.59055,0 v 0 m 75.59055,-21.36322 h -75.59055 m 188.97638,37.6058 -113.38583,-37.6058 m -75.59055,0 -113.38585,37.6058 m 113.38585,-37.6058 v 0"
       style="fill:none;stroke:#1d1d1d;stroke-width:0.51024;stroke-linecap:round;stroke-linejoin:round;stroke-miterlimit:10;stroke-dasharray:none;stroke-opacity:1"
       transform="matrix(1.3333333,0,0,-1.3333333,0,170.07867)" />
    <path
       id="path15"
       d="m 174.80319,62.36224 v -37.6058 m 75.59055,37.6058 v -37.6058"
       style="fill:none;stroke:#1d1d1d;stroke-width:0.3685;stroke-linecap:round;stroke-linejoin:round;stroke-miterlimit:10;stroke-dasharray:none;stroke-opacity:1"
       transform="matrix(1.3333333,0,0,-1.3333333,0,170.07867)" />
    <path
       id="path16"
       d="M 61.41734,22.68842 H 64.063 m 2.26772,0 h 2.83464 m 2.26771,0 h 2.83465 m 2.26771,0 h 2.83466"
       style="fill:none;stroke:#1d1d1d;stroke-width:0.51024;stroke-linecap:round;stroke-linejoin:round;stroke-miterlimit:10;stroke-dasharray:none;stroke-opacity:1"
       transform="matrix(1.3333333,0,0,-1.3333333,0,170.07867)" />
    <path
       id="path17"
       d="m 61.16223,22.68842 0.25511,0.25511 0.25513,-0.25511 -0.25513,-0.25513 z"
       style="fill:#1d1d1d;fill-opacity:1;fill-rule:nonzero;stroke:none"
       transform="matrix(1.3333333,0,0,-1.3333333,0,170.07867)" />
    <path
       id="path18"
       d="m 80.05986,22.68842 0.25513,0.25511 0.25511,-0.25511 -0.25511,-0.25513 z"
       style="fill:#1d1d1d;fill-opacity:1;fill-rule:nonzero;stroke:none"
       transform="matrix(1.3333333,0,0,-1.3333333,0,170.07867)" />
    <path
       id="path19"
       d="M 61.68251,8.49239 H 80.58014"
       style="fill:none;stroke:#1d1d1d;stroke-width:0.51024;stroke-linecap:round;stroke-linejoin:round;stroke-miterlimit:10;stroke-dasharray:none;stroke-opacity:1"
       transform="matrix(1.3333333,0,0,-1.3333333,0,170.07867)" />
    <path
       id="path20"
       d="m 376.37494,19.53433 c -1.00528,0 -1.82022,-0.81492 -1.82022,-1.8202 m 0,0 c 0,-1.00527 0.81494,-1.82021 1.82022,-1.82021 m 0,0 c 1.00525,0 1.82019,0.81494 1.82019,1.82021 m 0,0 c 0,1.00528 -0.81494,1.8202 -1.82019,1.8202"
       style="fill:none;stroke:#000000;stroke-width:0.51024;stroke-linecap:round;stroke-linejoin:round;stroke-miterlimit:10;stroke-dasharray:none;stroke-opacity:1"
       transform="matrix(1.3333333,0,0,-1.3333333,0,170.07867)" />
    <path
       id="path21"
       d="M 325.98428,62.36224 V 49.82698 M 99.21262,62.36224 V 49.82698"
       style="fill:none;stroke:#1d1d1d;stroke-width:0.3685;stroke-linecap:round;stroke-linejoin:round;stroke-miterlimit:10;stroke-dasharray:none;stroke-opacity:1"
       transform="matrix(1.3333333,0,0,-1.3333333,0,170.07867)" />
    <path
       id="path22"
       d="m 62.62576,64.45528 h -2.41684 l -1.41426,-2.44959 0.38175,0.0519 1.03251,-1.78838 h 2.41684 l 1.57497,2.72794 -0.6478,-0.14778 z"
       style="fill:#ffffff;fill-opacity:1;fill-rule:nonzero;stroke:none"
       transform="matrix(1.3333333,0,0,-1.3333333,0,170.07867)" />
    <path
       id="path23"
       d="m 364.98798,64.45528 h -2.41684 l -1.41428,-2.44959 0.38174,0.0519 1.03254,-1.78838 h 2.41684 l 1.57498,2.72794 -0.64783,-0.14778 z"
       style="fill:#ffffff;fill-opacity:1;fill-rule:nonzero;stroke:none"
       transform="matrix(1.3333333,0,0,-1.3333333,0,170.07867)" />
    <path
       id="path24"
       d="m 251.60214,48.21269 h -2.41681 l -1.41427,-2.44958 0.38174,0.05189 1.03253,-1.78839 h 2.41681 l 1.57498,2.72794 -0.64779,-0.14777 z"
       style="fill:#ffffff;fill-opacity:1;fill-rule:nonzero;stroke:none"
       transform="matrix(1.3333333,0,0,-1.3333333,0,170.07867)" />
    <path
       id="path25"
       d="m 176.0116,48.21269 h -2.41684 l -1.41425,-2.44958 0.38175,0.05189 1.0325,-1.78839 h 2.41684 l 1.57498,2.72794 -0.64783,-0.14777 z"
       style="fill:#ffffff;fill-opacity:1;fill-rule:nonzero;stroke:none"
       transform="matrix(1.3333333,0,0,-1.3333333,0,170.07867)" />
    <path
       id="path26"
       d="m 251.60214,26.84947 h -2.41681 l -1.41427,-2.44958 0.38174,0.05189 1.03253,-1.78837 h 2.41681 l 1.57498,2.72793 -0.64779,-0.14776 z"
       style="fill:#ffffff;fill-opacity:1;fill-rule:nonzero;stroke:none"
       transform="matrix(1.3333333,0,0,-1.3333333,0,170.07867)" />
    <path
       id="path27"
       d="m 176.0116,26.84947 h -2.41684 l -1.41425,-2.44958 0.38175,0.05189 1.0325,-1.78837 h 2.41684 l 1.57498,2.72793 -0.64783,-0.14776 z"
       style="fill:#ffffff;fill-opacity:1;fill-rule:nonzero;stroke:none"
       transform="matrix(1.3333333,0,0,-1.3333333,0,170.07867)" />
    <path
       id="path28"
       d="m 63.83417,62.36224 c 0,1.33478 -1.08205,2.41683 -2.41683,2.41683 m 0,0 c -1.33477,0 -2.41682,-1.08205 -2.41682,-2.41683 m 0,0 c 0,-1.33477 1.08205,-2.41684 2.41682,-2.41684 m 0,0 c 1.33478,0 2.41683,1.08207 2.41683,2.41684"
       style="fill:none;stroke:#1d1d1d;stroke-width:0.51024;stroke-linecap:round;stroke-linejoin:round;stroke-miterlimit:10;stroke-dasharray:none;stroke-opacity:1"
       transform="matrix(1.3333333,0,0,-1.3333333,0,170.07867)" />
    <path
       id="path29"
       d="m 366.19638,62.36224 c 0,1.33478 -1.08206,2.41683 -2.41681,2.41683 m 0,0 c -1.33478,0 -2.41684,-1.08205 -2.41684,-2.41683 m 0,0 c 0,-1.33477 1.08206,-2.41684 2.41684,-2.41684 m 0,0 c 1.33475,0 2.41681,1.08207 2.41681,2.41684"
       style="fill:none;stroke:#1d1d1d;stroke-width:0.51024;stroke-linecap:round;stroke-linejoin:round;stroke-miterlimit:10;stroke-dasharray:none;stroke-opacity:1"
       transform="matrix(1.3333333,0,0,-1.3333333,0,170.07867)" />
    <path
       id="path30"
       d="m 252.81055,46.11966 -0.18396,0.92487 -0.5239,0.78408 -0.78409,0.5239 m -2.17184,-0.21521 -0.46198,-0.30869 -0.52389,-0.78408 -0.18399,-0.92487 0.0767,-0.38547 m 1.27536,-1.7539 0.13989,-0.09349 0.9249,-0.18398 0.92486,0.18398 0.64887,0.43356 m 0.84308,1.7993 v 0 m -75.59055,0 -0.18396,0.92487 -0.52389,0.78408 -0.78409,0.5239 m -2.17185,-0.21521 -0.46197,-0.30869 -0.52393,-0.78408 -0.18396,-0.92487 0.0767,-0.38547 m 1.27539,-1.7539 0.1399,-0.09349 0.92489,-0.18398 0.92487,0.18398 0.64886,0.43356 m 0.84308,1.7993 v 0"
       style="fill:none;stroke:#1d1d1d;stroke-width:0.51024;stroke-linecap:round;stroke-linejoin:round;stroke-miterlimit:10;stroke-dasharray:none;stroke-opacity:1"
       transform="matrix(1.3333333,0,0,-1.3333333,0,170.07867)" />
    <path
       id="path31"
       d="m 252.81055,24.75644 c 0,1.33478 -1.08203,2.41682 -2.41681,2.41682 m 0,0 c -1.33478,0 -2.41684,-1.08204 -2.41684,-2.41682 m 0,0 c 0,-1.33478 1.08206,-2.41683 2.41684,-2.41683 m 0,0 c 1.33478,0 2.41681,1.08205 2.41681,2.41683"
       style="fill:none;stroke:#1d1d1d;stroke-width:0.51024;stroke-linecap:round;stroke-linejoin:round;stroke-miterlimit:10;stroke-dasharray:none;stroke-opacity:1"
       transform="matrix(1.3333333,0,0,-1.3333333,0,170.07867)" />
    <path
       id="path32"
       d="m 177.22,24.75644 c 0,1.33478 -1.08203,2.41682 -2.41681,2.41682 m 0,0 c -1.33478,0 -2.41684,-1.08204 -2.41684,-2.41682 m 0,0 c 0,-1.33478 1.08206,-2.41683 2.41684,-2.41683 m 0,0 c 1.33478,0 2.41681,1.08205 2.41681,2.41683"
       style="fill:none;stroke:#1d1d1d;stroke-width:0.51024;stroke-linecap:round;stroke-linejoin:round;stroke-miterlimit:10;stroke-dasharray:none;stroke-opacity:1"
       transform="matrix(1.3333333,0,0,-1.3333333,0,170.07867)" />
    <path
       id="path33"
       d="m 376.37494,17.71413 v 14.66479 m 0,-2.97638 v -0.21258 m 0,3.18896 v 0 l -0.4252,-2.97638 h 0.85037 l -0.42517,2.97638"
       style="fill:none;stroke:#000000;stroke-width:0.51024;stroke-linecap:round;stroke-linejoin:round;stroke-miterlimit:10;stroke-dasharray:none;stroke-opacity:1"
       transform="matrix(1.3333333,0,0,-1.3333333,0,170.07867)" />
    <path
       id="path34"
       d="m 376.80011,29.40254 -0.42517,2.97638 -0.4252,-2.97638 z"
       style="fill:#000000;fill-opacity:1;fill-rule:nonzero;stroke:none"
       transform="matrix(1.3333333,0,0,-1.3333333,0,170.07867)" />
    <path
       id="path35"
       d="m 376.37494,17.71413 h -14.302 m 2.97638,0 h 0.21261 m -3.18899,0 v 0 l 2.97638,-0.4252 v 0.8504 l -2.97638,-0.4252"
       style="fill:none;stroke:#000000;stroke-width:0.51024;stroke-linecap:round;stroke-linejoin:round;stroke-miterlimit:10;stroke-dasharray:none;stroke-opacity:1"
       transform="matrix(1.3333333,0,0,-1.3333333,0,170.07867)" />
    <path
       id="path36"
       d="m 365.04932,18.13933 -2.97638,-0.4252 2.97638,-0.4252 z"
       style="fill:#000000;fill-opacity:1;fill-rule:nonzero;stroke:none"
       transform="matrix(1.3333333,0,0,-1.3333333,0,170.07867)" />
    <path
       id="path37"
       d="M 99.21262,92.31468 V 62.36224 m 0,5.95276 v 0.42519 m 0,-6.37795 v 0 l 0.8504,5.95276 h -1.70078 l 0.85038,-5.95276"
       style="fill:none;stroke:#4c4c4c;stroke-width:0.51024;stroke-linecap:round;stroke-linejoin:round;stroke-miterlimit:10;stroke-dasharray:none;stroke-opacity:1"
       transform="matrix(1.3333333,0,0,-1.3333333,0,170.07867)" />
    <path
       id="path38"
       d="m 98.36224,68.315 0.85038,-5.95276 0.8504,5.95276 z"
       style="fill:#4c4c4c;fill-opacity:1;fill-rule:nonzero;stroke:none"
       transform="matrix(1.3333333,0,0,-1.3333333,0,170.07867)" />
    <path
       id="path39"
       d="M 174.80319,92.31468 V 62.36224 m 0,5.95276 v 0.42519 m 0,-6.37795 v 0 l 0.85037,5.95276 h -1.70077 l 0.8504,-5.95276"
       style="fill:none;stroke:#4c4c4c;stroke-width:0.51024;stroke-linecap:round;stroke-linejoin:round;stroke-miterlimit:10;stroke-dasharray:none;stroke-opacity:1"
       transform="matrix(1.3333333,0,0,-1.3333333,0,170.07867)" />
    <path
       id="path40"
       d="m 173.95279,68.315 0.8504,-5.95276 0.85037,5.95276 z"
       style="fill:#4c4c4c;fill-opacity:1;fill-rule:nonzero;stroke:none"
       transform="matrix(1.3333333,0,0,-1.3333333,0,170.07867)" />
    <path
       id="path41"
       d="M 250.39374,92.31468 V 62.36224 m 0,5.95276 v 0.42519 m 0,-6.37795 v 0 l 0.8504,5.95276 h -1.70081 l 0.85041,-5.95276"
       style="fill:none;stroke:#4c4c4c;stroke-width:0.51024;stroke-linecap:round;stroke-linejoin:round;stroke-miterlimit:10;stroke-dasharray:none;stroke-opacity:1"
       transform="matrix(1.3333333,0,0,-1.3333333,0,170.07867)" />
    <path
       id="path42"
       d="m 249.54333,68.315 0.85041,-5.95276 0.8504,5.95276 z"
       style="fill:#4c4c4c;fill-opacity:1;fill-rule:nonzero;stroke:none"
       transform="matrix(1.3333333,0,0,-1.3333333,0,170.07867)" />
    <path
       id="path43"
       d="M 325.98428,92.31468 V 62.36224 m 0,5.95276 v 0.42519 m 0,-6.37795 v 0 l 0.85041,5.95276 h -1.70081 l 0.8504,-5.95276"
       style="fill:none;stroke:#4c4c4c;stroke-width:0.51024;stroke-linecap:round;stroke-linejoin:round;stroke-miterlimit:10;stroke-dasharray:none;stroke-opacity:1"
       transform="matrix(1.3333333,0,0,-1.3333333,0,170.07867)" />
    <path
       id="path44"
       d="m 325.13388,68.315 0.8504,-5.95276 0.85041,5.95276 z"
       style="fill:#4c4c4c;fill-opacity:1;fill-rule:nonzero;stroke:none"
       transform="matrix(1.3333333,0,0,-1.3333333,0,170.07867)" />
    <path
       id="path45"
       d="m 61.41734,115.27563 2.97638,0.42519 v -0.85039 l -2.97638,0.4252 m 37.79528,0 -2.97637,0.42519 v -0.85039 l 2.97637,0.4252 2.97638,0.42519 v -0.85039 l -2.97638,0.4252 m 75.59057,0 -2.97638,0.42519 v -0.85039 l 2.97638,0.4252 2.97638,0.42519 v -0.85039 l -2.97638,0.4252 m 75.59055,0 -2.97638,0.42519 v -0.85039 l 2.97638,0.4252 2.97638,0.42519 v -0.85039 l -2.97638,0.4252 m 75.59054,0 -2.97638,0.42519 v -0.85039 l 2.97638,0.4252 2.97638,0.42519 v -0.85039 l -2.97638,0.4252 m 37.79529,0 -2.97638,0.42519 v -0.85039 l 2.97638,0.4252 m -302.36223,0 v 2.12598 m 0,-2.12598 v -2.12599 m 37.79528,2.12599 v 2.12598 m 0,-2.12598 v -2.12599 m 0,2.12599 v 2.12598 m 0,-2.12598 v -2.12599 m 75.59057,2.12599 v 2.12598 m 0,-2.12598 v -2.12599 m 0,2.12599 v 2.12598 m 0,-2.12598 v -2.12599 m 75.59055,2.12599 v 2.12598 m 0,-2.12598 v -2.12599 m 0,2.12599 v 2.12598 m 0,-2.12598 v -2.12599 m 75.59054,2.12599 v 2.12598 m 0,-2.12598 v -2.12599 m 0,2.12599 v 2.12598 m 0,-2.12598 v -2.12599 m 37.79529,2.12599 v 2.12598 m 0,-2.12598 v -2.12599"
       style="fill:none;stroke:#000000;stroke-width:0.3685;stroke-linecap:round;stroke-linejoin:round;stroke-miterlimit:10;stroke-dasharray:none;stroke-opacity:1"
       transform="matrix(1.3333333,0,0,-1.3333333,0,170.07867)" />
    <path
       id="path46"
       d="M 61.41734,115.27563 V 92.51961 90.70869 m 37.79528,24.56694 v -4.0633 m 75.59057,4.0633 v -4.0633 m 75.59055,4.0633 v -4.0633 m 75.59054,4.0633 v -4.0633 m 37.79529,4.0633 V 90.70869 M 61.41734,115.27563 v 0 m 302.36223,0 v 0"
       style="fill:none;stroke:#000000;stroke-width:0.3685;stroke-linecap:round;stroke-linejoin:round;stroke-miterlimit:10;stroke-dasharray:none;stroke-opacity:1"
       transform="matrix(1.3333333,0,0,-1.3333333,0,170.07867)" />
    <text
       id="text46"
       xml:space="preserve"
       transform="matrix(1.3333333,0,0,1.3333333,105.39147,12.397693)"
       clip-path="url(#clipPath47)"><tspan
         style="font-style:italic;font-variant:normal;font-weight:normal;font-stretch:normal;font-size:10.0071px;font-family:'Palatino Linotype';writing-mode:lr-tb;fill:#000000;fill-opacity:1;fill-rule:nonzero;stroke:none"
         x="0"
         y="0"
         id="tspan46">l</tspan></text>
    <text
       id="text47"
       xml:space="preserve"
       transform="matrix(1.3333333,0,0,1.3333333,177.55825,12.397693)"
       clip-path="url(#clipPath48)"><tspan
         style="font-style:italic;font-variant:normal;font-weight:normal;font-stretch:normal;font-size:10.0071px;font-family:'Palatino Linotype';writing-mode:lr-tb;fill:#000000;fill-opacity:1;fill-rule:nonzero;stroke:none"
         x="0 5.0035648"
         y="0"
         sodipodi:role="line"
         id="tspan47">2l</tspan></text>
    <text
       id="text48"
       xml:space="preserve"
       transform="matrix(1.3333333,0,0,1.3333333,278.34565,12.397693)"
       clip-path="url(#clipPath49)"><tspan
         style="font-style:italic;font-variant:normal;font-weight:normal;font-stretch:normal;font-size:10.0071px;font-family:'Palatino Linotype';writing-mode:lr-tb;fill:#000000;fill-opacity:1;fill-rule:nonzero;stroke:none"
         x="0 5.0035648"
         y="0"
         sodipodi:role="line"
         id="tspan48">2l</tspan></text>
    <text
       id="text49"
       xml:space="preserve"
       transform="matrix(1.3333333,0,0,1.3333333,379.13305,12.397693)"
       clip-path="url(#clipPath50)"><tspan
         style="font-style:italic;font-variant:normal;font-weight:normal;font-stretch:normal;font-size:10.0071px;font-family:'Palatino Linotype';writing-mode:lr-tb;fill:#000000;fill-opacity:1;fill-rule:nonzero;stroke:none"
         x="0 5.0035648"
         y="0"
         sodipodi:role="line"
         id="tspan49">2l</tspan></text>
    <text
       id="text50"
       xml:space="preserve"
       transform="matrix(1.3333333,0,0,1.3333333,458.14739,12.397693)"
       clip-path="url(#clipPath51)"><tspan
         style="font-style:italic;font-variant:normal;font-weight:normal;font-stretch:normal;font-size:10.0071px;font-family:'Palatino Linotype';writing-mode:lr-tb;fill:#000000;fill-opacity:1;fill-rule:nonzero;stroke:none"
         x="0"
         y="0"
         id="tspan50">l</tspan></text>
    <path
       id="path52"
       d="m 61.41734,115.27563 h 12.37853 25.41675 75.59057 75.59055 75.59054 37.79529"
       style="fill:none;stroke:#000000;stroke-width:0.3685;stroke-linecap:round;stroke-linejoin:round;stroke-miterlimit:10;stroke-dasharray:none;stroke-opacity:1"
       transform="matrix(1.3333333,0,0,-1.3333333,0,170.07867)" />
    <text
       id="text52"
       xml:space="preserve"
       transform="matrix(1.3333333,0,0,1.3333333,118.97945,143.48845)"
       clip-path="url(#clipPath53)"><tspan
         style="font-variant:normal;font-weight:normal;font-stretch:normal;font-size:10.0916px;font-family:'Palatino Linotype';writing-mode:lr-tb;fill:#000000;fill-opacity:1;fill-rule:nonzero;stroke:none"
         x="0 7.8512726 13.936513 18.215357 22.494198 27.328079 33.201397 36.491261 40.477448 45.523254 51.13419 55.968067"
         y="0"
         sodipodi:role="line"
         id="tspan52">Aussenträger</tspan></text>
    <text
       id="text53"
       xml:space="preserve"
       transform="matrix(1.3333333,0,0,1.3333333,118.97945,162.38609)"
       clip-path="url(#clipPath54)"><tspan
         style="font-variant:normal;font-weight:normal;font-stretch:normal;font-size:10.0916px;font-family:'Palatino Linotype';writing-mode:lr-tb;fill:#000000;fill-opacity:1;fill-rule:nonzero;stroke:none"
         x="0 3.4008725 9.2741899 15.147507 19.981388 25.854704 29.144569 33.130756 38.176559 43.787495 48.621376"
         y="0"
         sodipodi:role="line"
         id="tspan53">Innenträger</tspan></text>
    <text
       id="text54"
       xml:space="preserve"
       transform="matrix(1.3333333,0,0,1.3333333,469.44335,151.46505)"
       clip-path="url(#clipPath55)"><tspan
         style="font-style:italic;font-variant:normal;font-weight:normal;font-stretch:normal;font-size:10.0071px;font-family:'Palatino Linotype';writing-mode:lr-tb;fill:#000000;fill-opacity:1;fill-rule:nonzero;stroke:none"
         x="0"
         y="0"
         id="tspan54">X</tspan></text>
    <text
       id="text55"
       xml:space="preserve"
       transform="matrix(1.3333333,0,0,1.3333333,503.5074,161.54201)"
       clip-path="url(#clipPath56)"><tspan
         style="font-style:italic;font-variant:normal;font-weight:normal;font-stretch:normal;font-size:10.0071px;font-family:'Palatino Linotype';writing-mode:lr-tb;fill:#000000;fill-opacity:1;fill-rule:nonzero;stroke:none"
         x="0"
         y="0"
         id="tspan55">Y</tspan></text>
    <text
       id="text56"
       xml:space="preserve"
       transform="matrix(1.332641,-0.04296139,0.04296139,1.332641,499.04187,123.71764)"
       clip-path="url(#clipPath57)"><tspan
         style="font-style:italic;font-variant:normal;font-weight:normal;font-stretch:normal;font-size:10.0071px;font-family:'Palatino Linotype';writing-mode:lr-tb;fill:#000000;fill-opacity:1;fill-rule:nonzero;stroke:none"
         x="0"
         y="0"
         id="tspan56">Z</tspan></text>
    <text
       id="text57"
       xml:space="preserve"
       transform="matrix(1.3333333,0,0,1.3333333,341.38613,101.23723)"
       clip-path="url(#clipPath58)"><tspan
         style="font-variant:normal;font-weight:normal;font-stretch:normal;font-size:10.0916px;font-family:'Palatino Linotype';writing-mode:lr-tb;fill:#000000;fill-opacity:1;fill-rule:nonzero;stroke:none"
         x="0 5.045805"
         y="0"
         sodipodi:role="line"
         id="tspan57">2'</tspan></text>
    <text
       id="text58"
       xml:space="preserve"
       transform="matrix(1.3333333,0,0,1.3333333,341.38613,147.35931)"
       clip-path="url(#clipPath59)"><tspan
         style="font-variant:normal;font-weight:normal;font-stretch:normal;font-size:10.0916px;font-family:'Palatino Linotype';writing-mode:lr-tb;fill:#000000;fill-opacity:1;fill-rule:nonzero;stroke:none"
         x="0"
         y="0"
         id="tspan58">1</tspan></text>
    <text
       id="text59"
       xml:space="preserve"
       transform="matrix(1.3333333,0,0,1.3333333,442.17352,113.93193)"
       clip-path="url(#clipPath60)"><tspan
         style="font-variant:normal;font-weight:normal;font-stretch:normal;font-size:10.0916px;font-family:'Palatino Linotype';writing-mode:lr-tb;fill:#000000;fill-opacity:1;fill-rule:nonzero;stroke:none"
         x="0"
         y="0"
         id="tspan59">2</tspan></text>
    <text
       id="text60"
       xml:space="preserve"
       transform="matrix(1.3333333,0,0,1.3333333,492.56727,97.218253)"
       clip-path="url(#clipPath61)"><tspan
         style="font-variant:normal;font-weight:normal;font-stretch:normal;font-size:10.0916px;font-family:'Palatino Linotype';writing-mode:lr-tb;fill:#000000;fill-opacity:1;fill-rule:nonzero;stroke:none"
         x="0 5.045805 7.5687075"
         y="0"
         sodipodi:role="line"
         id="tspan60">3,5</tspan></text>
    <text
       id="text61"
       xml:space="preserve"
       transform="matrix(1.3333333,0,0,1.3333333,423.93057,81.708747)"
       clip-path="url(#clipPath62)"><tspan
         style="font-variant:normal;font-weight:normal;font-stretch:normal;font-size:10.0916px;font-family:'Palatino Linotype';writing-mode:lr-tb;fill:#000000;fill-opacity:1;fill-rule:nonzero;stroke:none"
         x="0"
         y="0"
         id="tspan61">4</tspan></text>
    <text
       id="text62"
       xml:space="preserve"
       transform="matrix(1.3333333,0,0,1.3333333,138.26749,49.252213)"
       clip-path="url(#clipPath63)"><tspan
         style="font-style:italic;font-variant:normal;font-weight:normal;font-stretch:normal;font-size:10.0071px;font-family:'Palatino Linotype';writing-mode:lr-tb;fill:#4c4c4c;fill-opacity:1;fill-rule:nonzero;stroke:none"
         x="0"
         y="0"
         id="tspan62">Q</tspan></text>
    <text
       id="text63"
       xml:space="preserve"
       transform="matrix(1.3333333,0,0,1.3333333,239.05491,49.252213)"
       clip-path="url(#clipPath64)"><tspan
         style="font-style:italic;font-variant:normal;font-weight:normal;font-stretch:normal;font-size:10.0071px;font-family:'Palatino Linotype';writing-mode:lr-tb;fill:#4c4c4c;fill-opacity:1;fill-rule:nonzero;stroke:none"
         x="0"
         y="0"
         id="tspan63">Q</tspan></text>
    <text
       id="text64"
       xml:space="preserve"
       transform="matrix(1.3333333,0,0,1.3333333,339.84231,49.252213)"
       clip-path="url(#clipPath65)"><tspan
         style="font-style:italic;font-variant:normal;font-weight:normal;font-stretch:normal;font-size:10.0071px;font-family:'Palatino Linotype';writing-mode:lr-tb;fill:#4c4c4c;fill-opacity:1;fill-rule:nonzero;stroke:none"
         x="0"
         y="0"
         id="tspan64">Q</tspan></text>
    <text
       id="text65"
       xml:space="preserve"
       transform="matrix(1.3333333,0,0,1.3333333,440.62971,49.252213)"
       clip-path="url(#clipPath66)"><tspan
         style="font-style:italic;font-variant:normal;font-weight:normal;font-stretch:normal;font-size:10.0071px;font-family:'Palatino Linotype';writing-mode:lr-tb;fill:#4c4c4c;fill-opacity:1;fill-rule:nonzero;stroke:none"
         x="0"
         y="0"
         id="tspan65">Q</tspan></text>
  </g>
</svg>
