<?xml version="1.0" encoding="UTF-8" standalone="no"?>
<!-- Created with Inkscape (http://www.inkscape.org/) -->

<svg
   version="1.1"
   id="svg1"
   width="566.92932"
   height="120.94493"
   viewBox="0 0 566.92932 120.94493"
   sodipodi:docname="allg_duenne_platte.pdf"
   xmlns:inkscape="http://www.inkscape.org/namespaces/inkscape"
   xmlns:sodipodi="http://sodipodi.sourceforge.net/DTD/sodipodi-0.dtd"
   xmlns="http://www.w3.org/2000/svg"
   xmlns:svg="http://www.w3.org/2000/svg">
  <defs
     id="defs1">
    <clipPath
       clipPathUnits="userSpaceOnUse"
       id="clipPath2">
      <path
         d="M -0.00426,-9e-4 V 90.70958 H 425.20111 V -9e-4 H -0.00426"
         transform="matrix(1,0,0,-1,-181.89547,58.377891)"
         clip-rule="evenodd"
         id="path2" />
    </clipPath>
    <clipPath
       clipPathUnits="userSpaceOnUse"
       id="clipPath3">
      <path
         d="M -0.00426,-9e-4 V 90.70958 H 425.20111 V -9e-4 H -0.00426"
         transform="matrix(1,0,0,-1,-199.07605,84.162172)"
         clip-rule="evenodd"
         id="path3" />
    </clipPath>
    <clipPath
       clipPathUnits="userSpaceOnUse"
       id="clipPath4">
      <path
         d="M -0.00426,-9e-4 V 90.70958 H 425.20111 V -9e-4 H -0.00426"
         transform="matrix(1,0,0,-1,-158.71941,72.742472)"
         clip-rule="evenodd"
         id="path4" />
    </clipPath>
    <clipPath
       clipPathUnits="userSpaceOnUse"
       id="clipPath5">
      <path
         d="M -0.00426,-9e-4 V 90.70958 H 425.20111 V -9e-4 H -0.00426"
         transform="matrix(1,0,0,-1,-130.93402,40.127871)"
         clip-rule="evenodd"
         id="path5" />
    </clipPath>
    <clipPath
       clipPathUnits="userSpaceOnUse"
       id="clipPath6">
      <path
         d="M -0.00426,-9e-4 V 90.70958 H 425.20111 V -9e-4 H -0.00426"
         transform="matrix(1,0,0,-1,-108.87474,15.969511)"
         clip-rule="evenodd"
         id="path6" />
    </clipPath>
    <clipPath
       clipPathUnits="userSpaceOnUse"
       id="clipPath7">
      <path
         d="M -0.00426,-9e-4 V 90.70958 H 425.20111 V -9e-4 H -0.00426"
         transform="matrix(1,0,0,-1,-255.60646,-35.095348)"
         clip-rule="evenodd"
         id="path7" />
    </clipPath>
    <clipPath
       clipPathUnits="userSpaceOnUse"
       id="clipPath8">
      <path
         d="M -0.00426,-9e-4 V 90.70958 H 425.20111 V -9e-4 H -0.00426"
         transform="matrix(1,0,0,-1,-246.12457,-32.515828)"
         clip-rule="evenodd"
         id="path8" />
    </clipPath>
    <clipPath
       clipPathUnits="userSpaceOnUse"
       id="clipPath9">
      <path
         d="M -0.00426,-9e-4 V 90.70958 H 425.20111 V -9e-4 H -0.00426"
         transform="matrix(1,0,0,-1,-225.39366,35.111581)"
         clip-rule="evenodd"
         id="path9" />
    </clipPath>
    <clipPath
       clipPathUnits="userSpaceOnUse"
       id="clipPath10">
      <path
         d="M -0.00426,-9e-4 V 90.70958 H 425.20111 V -9e-4 H -0.00426"
         transform="matrix(1,0,0,-1,-231.58063,30.977731)"
         clip-rule="evenodd"
         id="path10" />
    </clipPath>
  </defs>
  <sodipodi:namedview
     id="namedview1"
     pagecolor="#ffffff"
     bordercolor="#000000"
     borderopacity="0.25"
     inkscape:showpageshadow="2"
     inkscape:pageopacity="0.0"
     inkscape:pagecheckerboard="0"
     inkscape:deskcolor="#d1d1d1">
    <inkscape:page
       x="0"
       y="0"
       inkscape:label="1"
       id="page1"
       width="566.92932"
       height="120.94493"
       margin="0"
       bleed="0" />
  </sodipodi:namedview>
  <g
     id="g1"
     inkscape:groupmode="layer"
     inkscape:label="1">
    <path
       id="path1"
       d="M 165.04773,16.72884 V 9.64223 M 228.33466,9.15422 V 2.06761 m 31.81445,39.31372 V 34.29472 M 228.33466,2.06761 260.14911,34.29472 M 228.33466,2.06761 165.04773,9.64223 m 63.28693,-0.48801 -63.28693,7.57462 m 63.28693,-7.57462 31.81445,32.22711 m -95.10138,-24.65249 31.81445,32.22711 m 63.28693,-7.57462 -63.28693,7.57462 m -31.81445,-35.77042 1.23904,-0.1483 m 4.78476,-0.57268 2.81455,-0.33685 m 4.78476,-0.57268 2.81454,-0.33687 m 4.78476,-0.57267 2.81455,-0.33686 m 4.78476,-0.57267 2.81454,-0.33687 m 4.78476,-0.57266 2.81454,-0.33687 M 209.06805,7.91687 211.8826,7.58 m 4.78476,-0.57266 2.81457,-0.33687 m 4.78473,-0.57268 2.81458,-0.33686 m -58.54282,7.0068 0.28147,-0.03368 m 7.31784,-0.87585 0.28146,-0.03369 m 7.31784,-0.87584 0.28146,-0.03369 m 7.31784,-0.87586 0.28147,-0.03369 m 7.31784,-0.87584 0.28146,-0.03369 m 7.31784,-0.87585 0.28147,-0.03368 m 7.31784,-0.87585 0.28146,-0.0337 m 7.31784,-0.87585 0.28146,-0.03368 m -56.96728,6.81824 v 0 m 63.28693,-7.57461 v 0 m 2.79022,2.82643 1.99145,2.01726 m 3.38544,3.42936 1.99142,2.01728 m 3.38547,3.42935 1.99143,2.01727 m 3.38546,3.42937 1.99143,2.01727 m 3.38547,3.42935 1.99142,2.01727 m 3.38544,3.42937 1.99145,2.01726 M 229.33258,6.6218 l 0.19916,0.20172 m 5.17773,5.2449 0.19916,0.20174 m 5.17773,5.2449 0.19913,0.20172 m 5.17777,5.24491 0.19912,0.20173 m 5.17777,5.24491 0.19913,0.20172 m 5.17773,5.2449 0.19916,0.20172 M 228.33466,5.61092 v 0 m 31.81445,32.22711 v 0"
       style="fill:none;stroke:#000000;stroke-width:0.3685;stroke-linecap:round;stroke-linejoin:round;stroke-miterlimit:10;stroke-dasharray:none;stroke-opacity:1"
       transform="matrix(1.3333333,0,0,-1.3333333,0,120.94493)" />
    <text
       id="text1"
       xml:space="preserve"
       transform="matrix(1.3333333,0,0,1.3333333,242.52729,43.107747)"
       clip-path="url(#clipPath2)"><tspan
         style="font-style:italic;font-variant:normal;font-weight:normal;font-stretch:normal;font-size:10.0071px;font-family:'Palatino Linotype';writing-mode:lr-tb;fill:#000000;fill-opacity:1;fill-rule:nonzero;stroke:none"
         x="0"
         y="0"
         id="tspan1">z</tspan></text>
    <text
       id="text2"
       xml:space="preserve"
       transform="matrix(1.3333333,0,0,1.3333333,265.43473,8.7287067)"
       clip-path="url(#clipPath3)"><tspan
         style="font-style:italic;font-variant:normal;font-weight:normal;font-stretch:normal;font-size:10.0071px;font-family:'Palatino Linotype';writing-mode:lr-tb;fill:#000000;fill-opacity:1;fill-rule:nonzero;stroke:none"
         x="0"
         y="0"
         id="tspan2">x</tspan></text>
    <text
       id="text3"
       xml:space="preserve"
       transform="matrix(1.3333333,0,0,1.3333333,211.62587,23.954973)"
       clip-path="url(#clipPath4)"><tspan
         style="font-style:italic;font-variant:normal;font-weight:normal;font-stretch:normal;font-size:10.0071px;font-family:'Palatino Linotype';writing-mode:lr-tb;fill:#000000;fill-opacity:1;fill-rule:nonzero;stroke:none"
         x="0"
         y="0"
         id="tspan3">y</tspan></text>
    <text
       id="text4"
       xml:space="preserve"
       transform="matrix(1.3333333,0,0,1.3333333,174.57869,67.441107)"
       clip-path="url(#clipPath5)"><tspan
         style="font-style:italic;font-variant:normal;font-weight:normal;font-stretch:normal;font-size:10.0071px;font-family:'Palatino Linotype';writing-mode:lr-tb;fill:#000000;fill-opacity:1;fill-rule:nonzero;stroke:none"
         x="0"
         y="0"
         id="tspan4">l</tspan></text>
    <text
       id="text5"
       xml:space="preserve"
       transform="matrix(1.3333333,0,0,1.3333333,145.16632,99.652253)"
       clip-path="url(#clipPath6)"><tspan
         style="font-style:italic;font-variant:normal;font-weight:normal;font-stretch:normal;font-size:10.0071px;font-family:'Palatino Linotype';writing-mode:lr-tb;fill:#000000;fill-opacity:1;fill-rule:nonzero;stroke:none"
         x="0"
         y="0"
         id="tspan5">h</tspan></text>
    <text
       id="text6"
       xml:space="preserve"
       transform="matrix(1.3333333,0,0,1.3333333,340.80861,167.73873)"
       clip-path="url(#clipPath7)"><tspan
         style="font-style:italic;font-variant:normal;font-weight:normal;font-stretch:normal;font-size:10.0071px;font-family:'Palatino Linotype';writing-mode:lr-tb;fill:#000000;fill-opacity:1;fill-rule:nonzero;stroke:none"
         x="0 6.5846915 10.477465 14.370238 18.263012 21.044994 26.608959 29.390942 33.834106 37.907009 42.910572 48.474537 54.038502"
         y="0"
         sodipodi:role="line"
         id="tspan6">Vereinfachung</tspan></text>
    <text
       id="text7"
       xml:space="preserve"
       transform="matrix(1.3333333,0,0,1.3333333,328.16609,164.29937)"
       clip-path="url(#clipPath8)"><tspan
         style="font-style:italic;font-variant:normal;font-weight:normal;font-stretch:normal;font-size:10.0071px;font-family:'Palatino Linotype';writing-mode:lr-tb;fill:#000000;fill-opacity:1;fill-rule:nonzero;stroke:none"
         x="0 6.5846915 10.477465 14.370238 18.263012 21.044994 26.608959 29.390942 33.834106 37.907009 42.910572 48.474537 54.038502"
         y="0"
         sodipodi:role="line"
         id="tspan7">Vereinfachung</tspan></text>
    <text
       id="text8"
       xml:space="preserve"
       transform="matrix(1.3333333,0,0,1.3333333,300.52487,74.129493)"
       clip-path="url(#clipPath9)"><tspan
         style="font-style:italic;font-variant:normal;font-weight:normal;font-stretch:normal;font-size:10.0071px;font-family:'Palatino Linotype';writing-mode:lr-tb;fill:#000000;fill-opacity:1;fill-rule:nonzero;stroke:none"
         x="0"
         y="0"
         id="tspan8">p</tspan></text>
    <text
       id="text9"
       xml:space="preserve"
       transform="matrix(1.3333333,0,0,1.3333333,308.77416,79.641293)"
       clip-path="url(#clipPath10)"><tspan
         style="font-style:italic;font-variant:normal;font-weight:normal;font-stretch:normal;font-size:6.00428px;font-family:'Palatino Linotype';writing-mode:lr-tb;fill:#000000;fill-opacity:1;fill-rule:nonzero;stroke:none"
         x="0"
         y="0"
         id="tspan9">z</tspan></text>
    <path
       id="path11"
       d="M 149.68243,54.60274 189.54431,49.8318 M 121.11795,21.98665 152.9324,54.21376 m -31.81445,-32.22711 2.24037,2.26944 m -2.24037,-2.26944 v 0 l 1.78842,2.41685 0.60518,-0.59742 -2.3936,-1.81943 m 31.81445,32.22711 -2.24035,-2.26942 m 2.24035,2.26942 v 0 l -2.39358,-1.81941 0.60516,-0.59743 1.78842,2.41684 m -35.06442,-31.83813 39.86188,-4.77094 m 21.55359,65.61842 V 61.04625 m 0,5.95276 v 0.42518 m 0,-6.37794 v 0 l 0.8504,5.95276 h -1.70081 l 0.85041,-5.95276"
       style="fill:none;stroke:#000000;stroke-width:0.3685;stroke-linecap:round;stroke-linejoin:round;stroke-miterlimit:10;stroke-dasharray:none;stroke-opacity:1"
       transform="matrix(1.3333333,0,0,-1.3333333,0,120.94493)" />
    <path
       id="path12"
       d="m 178.43304,66.99901 0.85041,-5.95276 0.8504,5.95276 z"
       style="fill:#000000;fill-opacity:1;fill-rule:nonzero;stroke:none"
       transform="matrix(1.3333333,0,0,-1.3333333,0,120.94493)" />
    <path
       id="path13"
       d="m 179.28345,83.22311 19.20572,-2.29867 m -5.91056,0.70743 -0.42218,0.05052 m 6.33274,-0.75795 v 0 l -5.80951,1.55179 -0.20212,-1.68872 6.01163,0.13693"
       style="fill:none;stroke:#000000;stroke-width:0.3685;stroke-linecap:round;stroke-linejoin:round;stroke-miterlimit:10;stroke-dasharray:none;stroke-opacity:1"
       transform="matrix(1.3333333,0,0,-1.3333333,0,120.94493)" />
    <path
       id="path14"
       d="m 192.47754,80.78751 6.01163,0.13693 -5.80951,1.55179 z"
       style="fill:#000000;fill-opacity:1;fill-rule:nonzero;stroke:none"
       transform="matrix(1.3333333,0,0,-1.3333333,0,120.94493)" />
    <path
       id="path15"
       d="m 179.28345,83.22311 -16.1579,-16.36746 m 4.18204,4.23627 0.2987,0.3026 m -4.48074,-4.53887 v 0 l 4.7872,3.63884 -1.21036,1.19486 -3.57684,-4.8337"
       style="fill:none;stroke:#000000;stroke-width:0.3685;stroke-linecap:round;stroke-linejoin:round;stroke-miterlimit:10;stroke-dasharray:none;stroke-opacity:1"
       transform="matrix(1.3333333,0,0,-1.3333333,0,120.94493)" />
    <path
       id="path16"
       d="m 166.70239,71.68935 -3.57684,-4.8337 4.7872,3.63884 z"
       style="fill:#000000;fill-opacity:1;fill-rule:nonzero;stroke:none"
       transform="matrix(1.3333333,0,0,-1.3333333,0,120.94493)" />
    <path
       id="path17"
       d="m 117.86798,15.28902 39.86188,-4.77095 m -36.61191,11.46858 v -7.08661 m 0,7.08661 v -3.18897 m 0,3.18897 v 0 l 0.4252,-2.97638 h -0.85039 l 0.42519,2.97638 m 0,-7.08661 v 3.18898 m 0,-3.18898 v 0 l 0.4252,2.97638 h -0.85039 l 0.42519,-2.97638 m 92.55814,25.19551 V 24.48816 m 0,5.95276 v 0.4252 m 0,-6.37796 v 0 l 0.8504,5.95276 h -1.70078 l 0.85038,-5.95276"
       style="fill:none;stroke:#000000;stroke-width:0.3685;stroke-linecap:round;stroke-linejoin:round;stroke-miterlimit:10;stroke-dasharray:none;stroke-opacity:1"
       transform="matrix(1.3333333,0,0,-1.3333333,0,120.94493)" />
    <path
       id="path18"
       d="m 212.82571,30.44092 0.85038,-5.95276 0.8504,5.95276 z"
       style="fill:#000000;fill-opacity:1;fill-rule:nonzero;stroke:none"
       transform="matrix(1.3333333,0,0,-1.3333333,0,120.94493)" />
    <path
       id="path19"
       d="M 221.51242,48.03351 V 32.42613 m 0,5.95275 v 0.4252 m 0,-6.37795 v 0 l 0.85037,5.95275 h -1.70077 l 0.8504,-5.95275"
       style="fill:none;stroke:#000000;stroke-width:0.3685;stroke-linecap:round;stroke-linejoin:round;stroke-miterlimit:10;stroke-dasharray:none;stroke-opacity:1"
       transform="matrix(1.3333333,0,0,-1.3333333,0,120.94493)" />
    <path
       id="path20"
       d="m 220.66202,38.37888 0.8504,-5.95275 0.85037,5.95275 z"
       style="fill:#000000;fill-opacity:1;fill-rule:nonzero;stroke:none"
       transform="matrix(1.3333333,0,0,-1.3333333,0,120.94493)" />
    <path
       id="path21"
       d="M 203.68442,41.29143 V 25.68404 m 0,5.95276 v 0.4252 m 0,-6.37796 v 0 l 0.85037,5.95276 h -1.70078 l 0.85041,-5.95276"
       style="fill:none;stroke:#000000;stroke-width:0.3685;stroke-linecap:round;stroke-linejoin:round;stroke-miterlimit:10;stroke-dasharray:none;stroke-opacity:1"
       transform="matrix(1.3333333,0,0,-1.3333333,0,120.94493)" />
    <path
       id="path22"
       d="m 202.83401,31.6368 0.85041,-5.95276 0.85037,5.95276 z"
       style="fill:#000000;fill-opacity:1;fill-rule:nonzero;stroke:none"
       transform="matrix(1.3333333,0,0,-1.3333333,0,120.94493)" />
    <path
       id="path23"
       d="m 211.52072,49.22939 v -15.6074 m 0,5.95276 v 0.4252 m 0,-6.37796 v 0 l 0.8504,5.95276 h -1.70077 l 0.85037,-5.95276"
       style="fill:none;stroke:#000000;stroke-width:0.3685;stroke-linecap:round;stroke-linejoin:round;stroke-miterlimit:10;stroke-dasharray:none;stroke-opacity:1"
       transform="matrix(1.3333333,0,0,-1.3333333,0,120.94493)" />
    <path
       id="path24"
       d="m 210.67035,39.57475 0.85037,-5.95276 0.8504,5.95276 z"
       style="fill:#000000;fill-opacity:1;fill-rule:nonzero;stroke:none"
       transform="matrix(1.3333333,0,0,-1.3333333,0,120.94493)" />
  </g>
</svg>
