<?xml version="1.0" encoding="UTF-8" standalone="no"?>
<!-- Created with Inkscape (http://www.inkscape.org/) -->

<svg
   version="1.1"
   id="svg1"
   width="566.92932"
   height="139.84267"
   viewBox="0 0 566.92932 139.84267"
   sodipodi:docname="allg_querschnittsbreite_rost.pdf"
   xmlns:inkscape="http://www.inkscape.org/namespaces/inkscape"
   xmlns:sodipodi="http://sodipodi.sourceforge.net/DTD/sodipodi-0.dtd"
   xmlns="http://www.w3.org/2000/svg"
   xmlns:svg="http://www.w3.org/2000/svg">
  <defs
     id="defs1">
    <clipPath
       clipPathUnits="userSpaceOnUse"
       id="clipPath5">
      <path
         d="m -0.00426,-0.00105 v 104.884 H 425.20111 V -0.00105 H -0.00426"
         transform="matrix(1,0,0,-1,-235.99729,55.594521)"
         clip-rule="evenodd"
         id="path5" />
    </clipPath>
  </defs>
  <sodipodi:namedview
     id="namedview1"
     pagecolor="#ffffff"
     bordercolor="#000000"
     borderopacity="0.25"
     inkscape:showpageshadow="2"
     inkscape:pageopacity="0.0"
     inkscape:pagecheckerboard="0"
     inkscape:deskcolor="#d1d1d1">
    <inkscape:page
       x="0"
       y="0"
       inkscape:label="1"
       id="page1"
       width="566.92932"
       height="139.84267"
       margin="0"
       bleed="0" />
  </sodipodi:namedview>
  <g
     id="g1"
     inkscape:groupmode="layer"
     inkscape:label="1">
    <path
       id="path1"
       d="m 94.93372,33.47366 v -7.08662 m -7.14899,7.94226 v -7.08662 m 7.14899,6.23098 -7.14899,0.85564 m 0,-7.08662 7.14899,-0.85564 M 73.74545,51.90045 v -7.08661 m 0,7.08661 3.75507,3.80377 m 59.53186,-18.46499 -28.06897,3.35948 m -14.02969,-7.12505 14.02969,14.21167 m -7.14897,0.85564 -28.06899,3.35948 M 95.5578,42.20319 73.74545,44.81384 M 87.78473,34.3293 101.81444,48.54097 m 35.21794,-4.21513 -28.06897,3.35949 M 94.93372,26.38704 108.96341,40.59871 m 3.75507,10.89038 14.02969,14.21169 M 105.56949,52.34474 119.5992,66.55641 m 21.18825,-18.4268 -28.06897,3.35948 m -7.19199,0.81209 -28.02597,3.35434 m 41.47458,-4.91526 7.77307,7.87389 m 31.47247,-32.7151 v -7.08663 m -7.14898,7.94226 v -7.08662 m 7.14898,6.23099 -7.14898,0.85563 m 0,-7.08662 7.14898,-0.85564 m 42.09867,10.85219 -28.06897,3.35948 m -14.0297,-7.12504 14.0297,14.21167 m -7.14896,0.85563 -28.069,3.35949 m 21.81235,-9.69727 -21.81235,2.61066 m 14.03928,-10.48455 14.02972,14.21167 m 35.21793,-4.21513 -28.06897,3.3595 m -14.0297,-21.2983 14.0297,14.21167 m 3.75506,10.89038 14.0297,14.21167 M 168.85641,44.77013 182.88614,58.9818 m 21.18823,-18.42681 -28.06897,3.35948 m -7.19198,0.81209 -28.02597,3.35434 m 41.47457,-4.91525 7.77308,7.87389 m -84.47519,33.08802 v -7.08661 m 0,7.08661 3.75506,3.80378 m 59.53186,-18.465 -28.06897,3.35948 m -14.02969,-7.12504 14.02969,14.21167 m -7.14895,0.85563 -28.069,3.35948 m 21.81236,-9.69726 -21.81236,2.61065 m 53.00271,20.88692 v -7.08661 m 0,7.08661 -7.14895,0.85565 M 119.5992,66.55641 133.62891,80.76808 m 35.21792,-4.21513 -28.06897,3.3595 m -14.02969,-21.2983 14.02969,14.21167 m 3.75507,10.89038 14.02969,14.21167 m -21.17868,-13.35603 14.02973,14.21168 m 21.18823,-18.4268 -28.06897,3.35948 m -7.19199,0.81209 -28.02597,3.35434 m 41.47458,-4.91525 7.77307,7.87388"
       style="fill:none;stroke:#000000;stroke-width:0.3685;stroke-linecap:round;stroke-linejoin:round;stroke-miterlimit:10;stroke-dasharray:none;stroke-opacity:1"
       transform="matrix(1.3333333,0,0,-1.3333333,0,139.84267)" />
    <path
       id="path2"
       d="m 232.13379,61.89172 -28.069,3.35949 m -14.02969,-7.12507 14.02969,14.21169 m -7.14896,0.85564 -28.069,3.35948 m 21.81238,-9.69727 -21.81238,2.61066 m 53.00272,20.88692 v -7.08661 m 0,7.08661 -7.14896,0.85565 M 182.88614,58.9818 196.91583,73.19347 m 35.21796,-4.21514 -28.069,3.3595 M 190.0351,51.03954 204.06479,65.25121 m 3.75506,10.89038 14.0297,14.21167 M 200.6709,76.99722 214.70059,91.20891 m 21.18823,-18.42681 -28.06897,3.35949 m -7.19198,0.81208 -28.02597,3.35434 m 41.47458,-4.91525 7.77307,7.87389 m -0.34198,-64.89351 v -7.08663 m -7.14899,7.94227 v -7.08663 m 7.14899,6.23099 -7.14899,0.85564 m 0,-7.08663 7.14899,-0.85564 m 42.09866,10.85219 -28.06897,3.35948 m -14.02969,-7.12504 14.02969,14.21167 m -7.14895,0.85563 -28.069,3.35949 m 21.81234,-9.69727 -21.81234,2.61066 m 14.03927,-10.48454 14.02973,14.21166 m 35.21792,-4.21513 -28.06897,3.3595 m -14.02969,-21.2983 14.02969,14.21167 m 3.75507,10.89039 14.02969,14.21166 M 232.14334,37.2442 246.17307,51.45589 m 21.18823,-18.42681 -28.06897,3.35949 m -7.19199,0.81208 -28.02597,3.35434 m 41.47458,-4.91525 7.77307,7.87389 M 326.89316,21.6507 v -7.08661 m 3.75506,10.89038 V 18.36784 M 284.79449,10.79851 V 3.7119 m -7.14898,7.94226 V 4.56754 m 7.14898,6.23097 -7.14898,0.85565 m 0,-7.08662 7.14898,-0.85564 m 42.09867,10.85219 3.75506,3.80375 m -3.75506,3.28286 3.75506,3.80377 m -3.75506,-10.89038 -28.06897,3.35948 m -14.0297,-7.12506 14.0297,14.21168 m -7.14899,0.85564 -28.06897,3.35948 m 21.81235,-9.69726 -21.81235,2.61065 m 14.03928,-10.48454 14.02969,14.21167 m 35.21796,-4.21513 -28.06897,3.35949 m -14.0297,-21.29829 14.0297,14.21167 m 3.75506,10.89038 14.0297,14.21167 m -21.17868,-13.35603 14.02969,14.21168 m 21.18826,-18.4268 -28.06897,3.35948 m -7.19198,0.81209 -28.02597,3.35434 m 41.47458,-4.91526 7.77307,7.87389"
       style="fill:none;stroke:#000000;stroke-width:0.3685;stroke-linecap:round;stroke-linejoin:round;stroke-miterlimit:10;stroke-dasharray:none;stroke-opacity:1"
       transform="matrix(1.3333333,0,0,-1.3333333,0,139.84267)" />
    <path
       id="path3"
       d="m 295.42068,54.36581 -28.06896,3.35949 m -14.0297,-7.12507 14.0297,14.21169 m -7.14896,0.85564 -28.06897,3.35948 m 21.81235,-9.69727 -21.81235,2.61066 m 53.00268,20.88692 v -7.08661 m 0,7.08661 -7.14895,0.85563 m -31.81445,-32.22709 14.02969,14.21167 m 35.21792,-4.21514 -28.06896,3.3595 m -14.0297,-21.29829 14.0297,14.21167 m 3.75506,10.89038 14.02969,14.21167 m -21.17868,-13.35604 14.02973,14.21167 m 21.18823,-18.42678 -28.06897,3.35948 m -7.19199,0.81208 -28.02597,3.35434 m 41.47458,-4.91525 7.77307,7.87389 M 358.70764,53.87781 V 46.7912 m 3.75504,10.89038 v -7.08662 m -3.75504,-3.80376 3.75504,3.80376 m -3.75504,3.28285 3.75504,3.80377 m -3.75504,-10.89038 -28.069,3.35948 m -14.02969,-7.12506 14.02969,14.21167 m -7.14895,0.85565 -28.06901,3.35948 m 21.81235,-9.69726 -21.81235,2.61065 m 53.00272,20.88692 v -7.08661 m 0,7.08661 -7.14896,0.85564 m -31.81448,-32.2271 14.02973,14.21167 m 35.21795,-4.21513 -28.069,3.35948 m -14.02969,-21.29828 14.02969,14.21167 m 3.75507,10.89038 14.02969,14.21167 M 327.24472,61.8967 341.27444,76.10837 m 21.18824,-18.42679 -28.06897,3.35948 m -7.19199,0.81209 -28.02597,3.35434 m 41.47458,-4.91527 7.77307,7.8739 M 204.07437,58.3911 267.3613,50.81648 m -63.28693,7.57462 3.16638,-0.37897 m -3.16638,0.37897 v 0 l 3.00583,0.06848 -0.10107,-0.84438 -2.90476,0.7759 m 63.28693,-7.57462 -3.16638,0.37897 m 3.16638,-0.37897 v 0 l -2.90476,0.7759 -0.10104,-0.84436 3.0058,0.06846 m 0,-14.17323 V 53.5094 m -63.28693,-9.29154 v 16.86615 m 51.03031,-40.47053 1.99145,2.01727 m 1.59314,1.61382 1.99146,2.01727 m 1.59313,1.61382 1.99146,2.01727 m 1.59314,1.61381 1.99145,2.01728 m 1.59314,1.61381 1.99143,2.01728"
       style="fill:none;stroke:#000000;stroke-width:0.3685;stroke-linecap:round;stroke-linejoin:round;stroke-miterlimit:10;stroke-dasharray:none;stroke-opacity:1"
       transform="matrix(1.3333333,0,0,-1.3333333,0,139.84267)" />
    <path
       id="path4"
       d="m 273.02765,38.76892 1.99142,2.01727 m 1.59317,1.61382 1.99143,2.01727 m 1.59317,1.61382 1.99142,2.01727 m 1.59317,1.61382 1.99143,2.01727 m 1.59317,1.61381 1.99142,2.01728 m 1.59317,1.61381 1.99143,2.01728 m 1.59317,1.61381 1.99142,2.01726 m 1.59314,1.61383 1.99146,2.01727 m 1.59314,1.61382 1.99145,2.01725 M 254.19281,19.68977 v 0 m 49.66284,50.30701 v 0 m -112.94977,-42.7811 1.69962,1.72168 m 1.59317,1.61382 1.99142,2.01727 m 1.59317,1.61382 1.99143,2.01727 m 1.59317,1.61381 1.99142,2.01728 m 1.59314,1.61381 1.99146,2.01728 m 1.59314,1.61381 1.99145,2.01727 m 1.59314,1.61382 1.99146,2.01727 m 1.59314,1.61382 1.99145,2.01726 m 1.59314,1.61383 1.99146,2.01725 m 1.59314,1.61382 1.99145,2.01727 m 1.59314,1.61382 1.99146,2.01727 m 1.59314,1.61382 1.99145,2.01727 m 1.59314,1.61381 1.99146,2.01728 m 1.59314,1.61381 1.99142,2.01727 M 190.90588,27.21568 v 0 m 49.66285,50.30701 v 0"
       style="fill:none;stroke:#000000;stroke-width:0.3685;stroke-linecap:round;stroke-linejoin:round;stroke-miterlimit:10;stroke-dasharray:none;stroke-opacity:1"
       transform="matrix(1.3333333,0,0,-1.3333333,0,139.84267)" />
    <text
       id="text4"
       xml:space="preserve"
       transform="matrix(1.3333333,0,0,1.3333333,314.66305,65.71664)"
       clip-path="url(#clipPath5)"><tspan
         style="font-style:italic;font-variant:normal;font-weight:normal;font-stretch:normal;font-size:10.0071px;font-family:'Palatino Linotype';writing-mode:lr-tb;fill:#000000;fill-opacity:1;fill-rule:nonzero;stroke:none"
         x="0"
         y="0"
         id="tspan4">b</tspan></text>
  </g>
</svg>
