<?xml version="1.0" encoding="UTF-8" standalone="no"?>
<!-- Created with Inkscape (http://www.inkscape.org/) -->

<svg
   version="1.1"
   id="svg1"
   width="566.92932"
   height="113.38587"
   viewBox="0 0 566.92932 113.38587"
   sodipodi:docname="jag_b500a_lpa_0504_rot.pdf"
   xmlns:inkscape="http://www.inkscape.org/namespaces/inkscape"
   xmlns:sodipodi="http://sodipodi.sourceforge.net/DTD/sodipodi-0.dtd"
   xmlns="http://www.w3.org/2000/svg"
   xmlns:svg="http://www.w3.org/2000/svg">
  <defs
     id="defs1">
    <clipPath
       clipPathUnits="userSpaceOnUse"
       id="clipPath14">
      <path
         d="M 60.67253,85.04022 V -8.5e-4 h 302.3622 V 85.04022 H 60.67253"
         transform="matrix(1,0,0,-1,-203.03344,76.615512)"
         clip-rule="evenodd"
         id="path14" />
    </clipPath>
    <clipPath
       clipPathUnits="userSpaceOnUse"
       id="clipPath26">
      <path
         d="M 60.67253,85.04022 V -8.5e-4 h 302.3622 V 85.04022 H 60.67253"
         transform="matrix(1,0,0,-1,-212.18679,6.2115502)"
         clip-rule="evenodd"
         id="path26" />
    </clipPath>
    <clipPath
       clipPathUnits="userSpaceOnUse"
       id="clipPath27">
      <path
         d="M 60.67253,85.04022 V -8.5e-4 h 302.3622 V 85.04022 H 60.67253"
         transform="matrix(1,0,0,-1,-181.81722,38.281901)"
         clip-rule="evenodd"
         id="path27" />
    </clipPath>
    <clipPath
       clipPathUnits="userSpaceOnUse"
       id="clipPath28">
      <path
         d="M 60.67253,85.04022 V -8.5e-4 h 302.3622 V 85.04022 H 60.67253"
         transform="matrix(1,0,0,-1,-125.1243,38.281901)"
         clip-rule="evenodd"
         id="path28" />
    </clipPath>
    <clipPath
       clipPathUnits="userSpaceOnUse"
       id="clipPath29">
      <path
         d="M 60.67253,85.04022 V -8.5e-4 h 302.3622 V 85.04022 H 60.67253"
         transform="matrix(1,0,0,-1,-156.61522,13.347701)"
         clip-rule="evenodd"
         id="path29" />
    </clipPath>
    <clipPath
       clipPathUnits="userSpaceOnUse"
       id="clipPath30">
      <path
         d="M 60.67253,85.04022 V -8.5e-4 h 302.3622 V 85.04022 H 60.67253"
         transform="matrix(1,0,0,-1,-68.431382,38.281901)"
         clip-rule="evenodd"
         id="path30" />
    </clipPath>
    <clipPath
       clipPathUnits="userSpaceOnUse"
       id="clipPath31">
      <path
         d="M 60.67253,85.04022 V -8.5e-4 h 302.3622 V 85.04022 H 60.67253"
         transform="matrix(1,0,0,-1,-99.922315,13.347701)"
         clip-rule="evenodd"
         id="path31" />
    </clipPath>
    <clipPath
       clipPathUnits="userSpaceOnUse"
       id="clipPath32">
      <path
         d="M 60.67253,85.04022 V -8.5e-4 h 302.3622 V 85.04022 H 60.67253"
         transform="matrix(1,0,0,-1,-238.51014,38.281901)"
         clip-rule="evenodd"
         id="path32" />
    </clipPath>
    <clipPath
       clipPathUnits="userSpaceOnUse"
       id="clipPath33">
      <path
         d="M 60.67253,85.04022 V -8.5e-4 h 302.3622 V 85.04022 H 60.67253"
         transform="matrix(1,0,0,-1,-270.00106,13.347701)"
         clip-rule="evenodd"
         id="path33" />
    </clipPath>
    <clipPath
       clipPathUnits="userSpaceOnUse"
       id="clipPath34">
      <path
         d="M 60.67253,85.04022 V -8.5e-4 h 302.3622 V 85.04022 H 60.67253"
         transform="matrix(1,0,0,-1,-295.20306,38.281901)"
         clip-rule="evenodd"
         id="path34" />
    </clipPath>
    <clipPath
       clipPathUnits="userSpaceOnUse"
       id="clipPath35">
      <path
         d="M 60.67253,85.04022 V -8.5e-4 h 302.3622 V 85.04022 H 60.67253"
         transform="matrix(1,0,0,-1,-326.69398,13.347701)"
         clip-rule="evenodd"
         id="path35" />
    </clipPath>
    <clipPath
       clipPathUnits="userSpaceOnUse"
       id="clipPath36">
      <path
         d="M -0.00426,-8.5e-4 V 85.04022 H 425.20111 V -8.5e-4 H -0.00426"
         transform="matrix(1,0,0,-1,-17.326071,31.408061)"
         clip-rule="evenodd"
         id="path36" />
    </clipPath>
    <clipPath
       clipPathUnits="userSpaceOnUse"
       id="clipPath37">
      <path
         d="M -0.00426,-8.5e-4 V 85.04022 H 425.20111 V -8.5e-4 H -0.00426"
         transform="matrix(1,0,0,-1,-24.33244,27.2742)"
         clip-rule="evenodd"
         id="path37" />
    </clipPath>
    <clipPath
       clipPathUnits="userSpaceOnUse"
       id="clipPath38">
      <path
         d="M -0.00426,-8.5e-4 V 85.04022 H 425.20111 V -8.5e-4 H -0.00426"
         transform="matrix(1,0,0,-1,-15.14103,17.234831)"
         clip-rule="evenodd"
         id="path38" />
    </clipPath>
  </defs>
  <sodipodi:namedview
     id="namedview1"
     pagecolor="#ffffff"
     bordercolor="#000000"
     borderopacity="0.25"
     inkscape:showpageshadow="2"
     inkscape:pageopacity="0.0"
     inkscape:pagecheckerboard="0"
     inkscape:deskcolor="#d1d1d1">
    <inkscape:page
       x="0"
       y="0"
       inkscape:label="1"
       id="page1"
       width="566.92932"
       height="113.38587"
       margin="0"
       bleed="0" />
  </sodipodi:namedview>
  <path
     id="path1"
     d="m 209.01938,29.12189 v 0 m 5.66928,0 v 0 m -62.36221,0 v 0 m 5.66931,0 v 0 m -62.36222,0 v 0 m 5.6693,0 v 0 m 164.40944,0 v 0 m 5.66928,0 v 0 m 51.02362,0 v 0 m 5.66931,0 v 0 m -267.40196,0 h 302.3622 m -151.1807,0 -6.68133,-6.68132 m 6.68133,6.68132 6.68131,-6.68132 m -13.36264,0 h 13.36264 m -13.36264,-2.4567 2.45669,2.4567 m 0,-2.4567 2.4567,2.4567 m 0,-2.4567 2.4567,2.4567 m 0,-2.4567 2.45669,2.4567 m 0,-2.4567 2.45667,2.4567 M 60.67253,27.72849 h 0.27236 m 2.83464,0 h 4.25196 m 2.83466,0 h 4.25197 m 2.83464,0 h 4.25197 m 2.83464,0 h 4.25197 m 2.83465,0 h 4.25197 m 2.83464,0 h 4.25197 m 2.83464,0 h 4.25197 m 2.83465,0 h 4.25197 m 2.83464,0 h 4.25197 m 2.83464,0 h 4.25199 m 2.83465,0 h 4.25195 m 2.83466,0 h 4.25195 m 2.83466,0 h 4.25195 m 2.83466,0 h 4.25198 m 2.83463,0 h 4.25198 m 2.83463,0 h 4.25198 m 2.83465,0 h 4.25196 m 2.83465,0 h 4.25196 m 2.83465,0 h 4.25196 m 2.83465,0 h 4.25199 m 2.83462,0 h 4.25198 m 2.83463,0 h 4.25198 m 2.83466,0 h 4.25195 m 2.83466,0 h 4.25195 m 2.83466,0 h 4.25195 m 2.83466,0 h 4.25198 m 2.83462,0 h 4.25199 m 2.83462,0 h 4.25199 m 2.83462,0 h 4.25199 m 2.83465,0 h 4.25195"
     style="fill:none;stroke:#000000;stroke-width:0.3685;stroke-linecap:round;stroke-linejoin:round;stroke-miterlimit:10;stroke-dasharray:none;stroke-opacity:1"
     transform="matrix(1.3333333,0,0,-1.3333333,0,113.38587)" />
  <path
     id="path2"
     d="m 276.37796,27.72849 h 4.25195 m 2.83466,0 h 4.25195 m 2.83466,0 h 4.25198 m 2.83463,0 h 4.25198 m 2.83463,0 h 4.25198 m 2.83466,0 h 4.25195 m 2.83465,0 h 4.25196 m 2.83465,0 h 4.25196 m 2.83465,0 h 4.25199 m 2.83462,0 h 4.25198 m 2.83463,0 h 4.25198 m 2.83466,0 h 4.25195 m 2.83466,0 h 1.6174"
     style="fill:none;stroke:#000000;stroke-width:0.3685;stroke-linecap:round;stroke-linejoin:round;stroke-miterlimit:10;stroke-dasharray:none;stroke-opacity:1"
     transform="matrix(1.3333333,0,0,-1.3333333,0,113.38587)" />
  <g
     id="layer-MC0"
     inkscape:groupmode="layer"
     inkscape:label="STABBEANSPR_DIAG">
    <path
       id="path3"
       d="m 211.85403,29.12189 -0.0431,0.49223 -0.12787,0.47728 -0.20883,0.44782 -0.28341,0.40475 -0.34937,0.34938 -0.40475,0.28342 -0.44782,0.20881 -0.47729,0.12789 -0.49222,0.04307 -0.49225,-0.04307 -0.47726,-0.12789 -0.44782,-0.20881 -0.40475,-0.28342 -0.3494,-0.34938 -0.28339,-0.40475 -0.20883,-0.44782 -0.1279,-0.47728 -0.0431,-0.49223 0.0431,-0.49224 0.1279,-0.47726 0.20883,-0.44782 0.28339,-0.40475 0.54691,-0.50087 0.20724,-0.13193 0.44782,-0.20883 0.47726,-0.12788 0.49225,-0.04306 0.49222,0.04306 0.47729,0.12788 0.44782,0.20883 0.40475,0.2834 0.34937,0.3494 0.28341,0.40475 0.20883,0.44782 0.12787,0.47726 z"
       style="fill:#e0e0e0;fill-opacity:1;fill-rule:nonzero;stroke:none"
       transform="matrix(1.3333333,0,0,-1.3333333,0,113.38587)" />
    <path
       id="path4"
       d="m 217.52332,29.12189 -0.0431,0.49223 -0.1279,0.47728 -0.20881,0.44782 -0.28341,0.40475 -0.3494,0.34938 -0.40475,0.28342 -0.44782,0.20881 -0.47726,0.12789 -0.49225,0.04307 -0.49222,-0.04307 -0.47729,-0.12789 -0.44782,-0.20881 -0.40475,-0.28342 -0.34937,-0.34938 -0.28341,-0.40475 -0.20884,-0.44782 -0.12787,-0.47728 -0.0431,-0.49223 0.0431,-0.49224 0.12787,-0.47726 0.20884,-0.44782 0.28341,-0.40475 0.54691,-0.50087 0.20721,-0.13193 0.44782,-0.20883 0.47729,-0.12788 0.49222,-0.04306 0.49225,0.04306 0.47726,0.12788 0.44782,0.20883 0.40475,0.2834 0.3494,0.3494 0.28341,0.40475 0.20881,0.44782 0.1279,0.47726 z"
       style="fill:#e0e0e0;fill-opacity:1;fill-rule:nonzero;stroke:none"
       transform="matrix(1.3333333,0,0,-1.3333333,0,113.38587)" />
    <path
       id="path5"
       d="m 155.1611,29.12189 -0.0431,0.49223 -0.1279,0.47728 -0.2088,0.44782 -0.28342,0.40475 -0.34939,0.34938 -0.40476,0.28342 -0.44781,0.20881 -0.47726,0.12789 -0.49225,0.04307 -0.49222,-0.04307 -0.47727,-0.12789 -0.44781,-0.20881 -0.40476,-0.28342 -0.34939,-0.34938 -0.28342,-0.40475 -0.20883,-0.44782 -0.12787,-0.47728 -0.0431,-0.49223 0.0431,-0.49224 0.12787,-0.47726 0.20883,-0.44782 0.28342,-0.40475 0.5469,-0.50087 0.20725,-0.13193 0.44781,-0.20883 0.47727,-0.12788 0.49222,-0.04306 0.49225,0.04306 0.47726,0.12788 0.44781,0.20883 0.40476,0.2834 0.34939,0.3494 0.28342,0.40475 0.2088,0.44782 0.1279,0.47726 z"
       style="fill:#e0e0e0;fill-opacity:1;fill-rule:nonzero;stroke:none"
       transform="matrix(1.3333333,0,0,-1.3333333,0,113.38587)" />
    <path
       id="path6"
       d="m 160.83038,29.12189 -0.0431,0.49223 -0.12787,0.47728 -0.20883,0.44782 -0.28341,0.40475 -0.34937,0.34938 -0.40475,0.28342 -0.44782,0.20881 -0.47729,0.12789 -0.49222,0.04307 -0.49225,-0.04307 -0.47726,-0.12789 -0.44782,-0.20881 -0.40475,-0.28342 -0.3494,-0.34938 -0.28342,-0.40475 -0.2088,-0.44782 -0.1279,-0.47728 -0.0431,-0.49223 0.0431,-0.49224 0.1279,-0.47726 0.2088,-0.44782 0.28342,-0.40475 0.54691,-0.50087 0.20724,-0.13193 0.44782,-0.20883 0.47726,-0.12788 0.49225,-0.04306 0.49222,0.04306 0.47729,0.12788 0.44782,0.20883 0.40475,0.2834 0.34937,0.3494 0.28341,0.40475 0.20883,0.44782 0.12787,0.47726 z"
       style="fill:#e0e0e0;fill-opacity:1;fill-rule:nonzero;stroke:none"
       transform="matrix(1.3333333,0,0,-1.3333333,0,113.38587)" />
    <path
       id="path7"
       d="m 98.46819,29.12189 -0.04306,0.49223 -0.12789,0.47728 -0.20882,0.44782 -0.28341,0.40475 -0.3494,0.34938 -0.40474,0.28342 -0.44783,0.20881 -0.47726,0.12789 -0.49224,0.04307 -0.49223,-0.04307 -0.47728,-0.12789 -0.44781,-0.20881 -0.40476,-0.28342 -0.34938,-0.34938 -0.28341,-0.40475 -0.20882,-0.44782 -0.12789,-0.47728 -0.04306,-0.49223 0.04306,-0.49224 0.12789,-0.47726 0.20882,-0.44782 0.28341,-0.40475 0.54691,-0.50087 0.20723,-0.13193 0.44781,-0.20883 0.47728,-0.12788 0.49223,-0.04306 0.49224,0.04306 0.47726,0.12788 0.44783,0.20883 0.40474,0.2834 0.3494,0.3494 0.28341,0.40475 0.20882,0.44782 0.12789,0.47726 z"
       style="fill:#e0e0e0;fill-opacity:1;fill-rule:nonzero;stroke:none"
       transform="matrix(1.3333333,0,0,-1.3333333,0,113.38587)" />
    <path
       id="path8"
       d="m 104.13748,29.12189 -0.0431,0.49223 -0.1279,0.47728 -0.20881,0.44782 -0.28341,0.40475 -0.34939,0.34938 -0.40476,0.28342 -0.44781,0.20881 -0.47728,0.12789 -0.49222,0.04307 -0.49223,-0.04307 -0.47728,-0.12789 -0.44782,-0.20881 -0.40475,-0.28342 -0.3494,-0.34938 -0.2834,-0.40475 -0.20882,-0.44782 -0.12789,-0.47728 -0.04306,-0.49223 0.04306,-0.49224 0.12789,-0.47726 0.20882,-0.44782 0.2834,-0.40475 0.54692,-0.50087 0.20723,-0.13193 0.44782,-0.20883 0.47728,-0.12788 0.49223,-0.04306 0.49222,0.04306 0.47728,0.12788 0.44781,0.20883 0.40476,0.2834 0.34939,0.3494 0.28341,0.40475 0.20881,0.44782 0.1279,0.47726 z"
       style="fill:#e0e0e0;fill-opacity:1;fill-rule:nonzero;stroke:none"
       transform="matrix(1.3333333,0,0,-1.3333333,0,113.38587)" />
    <path
       id="path9"
       d="m 268.54694,29.12189 -0.0431,0.49223 -0.1279,0.47728 -0.20884,0.44782 -0.28338,0.40475 -0.3494,0.34938 -0.40475,0.28342 -0.44782,0.20881 -0.47729,0.12789 -0.49222,0.04307 -0.49222,-0.04307 -0.47729,-0.12789 -0.44782,-0.20881 -0.40475,-0.28342 -0.3494,-0.34938 -0.28338,-0.40475 -0.20884,-0.44782 -0.12786,-0.47728 -0.0431,-0.49223 0.0431,-0.49224 0.12786,-0.47726 0.20884,-0.44782 0.28338,-0.40475 0.54694,-0.50087 0.20721,-0.13193 0.44782,-0.20883 0.47729,-0.12788 0.49222,-0.04306 0.49222,0.04306 0.47729,0.12788 0.44782,0.20883 0.40475,0.2834 0.3494,0.3494 0.28338,0.40475 0.20884,0.44782 0.1279,0.47726 z"
       style="fill:#e0e0e0;fill-opacity:1;fill-rule:nonzero;stroke:none"
       transform="matrix(1.3333333,0,0,-1.3333333,0,113.38587)" />
    <path
       id="path10"
       d="m 274.21622,29.12189 -0.0431,0.49223 -0.1279,0.47728 -0.2088,0.44782 -0.28342,0.40475 -0.3494,0.34938 -0.40475,0.28342 -0.44782,0.20881 -0.47726,0.12789 -0.49225,0.04307 -0.49222,-0.04307 -0.47726,-0.12789 -0.44782,-0.20881 -0.40475,-0.28342 -0.3494,-0.34938 -0.28341,-0.40475 -0.20884,-0.44782 -0.12786,-0.47728 -0.0431,-0.49223 0.0431,-0.49224 0.12786,-0.47726 0.20884,-0.44782 0.28341,-0.40475 0.54691,-0.50087 0.20724,-0.13193 0.44782,-0.20883 0.47726,-0.12788 0.49222,-0.04306 0.49225,0.04306 0.47726,0.12788 0.44782,0.20883 0.40475,0.2834 0.3494,0.3494 0.28342,0.40475 0.2088,0.44782 0.1279,0.47726 z"
       style="fill:#e0e0e0;fill-opacity:1;fill-rule:nonzero;stroke:none"
       transform="matrix(1.3333333,0,0,-1.3333333,0,113.38587)" />
    <path
       id="path11"
       d="m 325.23984,29.12189 -0.0431,0.49223 -0.1279,0.47728 -0.2088,0.44782 -0.28342,0.40475 -0.3494,0.34938 -0.40475,0.28342 -0.44782,0.20881 -0.47726,0.12789 -0.49225,0.04307 -0.49222,-0.04307 -0.47726,-0.12789 -0.44782,-0.20881 -0.40475,-0.28342 -0.3494,-0.34938 -0.28341,-0.40475 -0.20883,-0.44782 -0.12787,-0.47728 -0.0431,-0.49223 0.0431,-0.49224 0.12787,-0.47726 0.20883,-0.44782 0.28341,-0.40475 0.54691,-0.50087 0.20724,-0.13193 0.44782,-0.20883 0.47726,-0.12788 0.49222,-0.04306 0.49225,0.04306 0.47726,0.12788 0.44782,0.20883 0.40475,0.2834 0.3494,0.3494 0.28342,0.40475 0.2088,0.44782 0.1279,0.47726 z"
       style="fill:#e0e0e0;fill-opacity:1;fill-rule:nonzero;stroke:none"
       transform="matrix(1.3333333,0,0,-1.3333333,0,113.38587)" />
    <path
       id="path12"
       d="m 330.90912,29.12189 -0.0431,0.49223 -0.12787,0.47728 -0.20883,0.44782 -0.28342,0.40475 -0.34936,0.34938 -0.40476,0.28342 -0.44781,0.20881 -0.4773,0.12789 -0.49222,0.04307 -0.49225,-0.04307 -0.47726,-0.12789 -0.44781,-0.20881 -0.40476,-0.28342 -0.34939,-0.34938 -0.28342,-0.40475 -0.2088,-0.44782 -0.1279,-0.47728 -0.0431,-0.49223 0.0431,-0.49224 0.1279,-0.47726 0.2088,-0.44782 0.28342,-0.40475 0.5469,-0.50087 0.20725,-0.13193 0.44781,-0.20883 0.47726,-0.12788 0.49225,-0.04306 0.49222,0.04306 0.4773,0.12788 0.44781,0.20883 0.40476,0.2834 0.34936,0.3494 0.28342,0.40475 0.20883,0.44782 0.12787,0.47726 z"
       style="fill:#e0e0e0;fill-opacity:1;fill-rule:nonzero;stroke:none"
       transform="matrix(1.3333333,0,0,-1.3333333,0,113.38587)" />
  </g>
  <path
     id="path13"
     d="m 98.46819,70.54414 2.97637,0.42519 v -0.85039 l -2.97637,0.4252 m 226.77165,0 -2.97638,0.42519 v -0.85039 l 2.97638,0.4252 m -226.77165,0 v 2.12598 m 0,-2.12598 v -2.12599 m 226.77165,2.12599 v 2.12598 m 0,-2.12598 V 68.41815 M 98.46819,70.54414 V 46.12976 M 325.23984,70.54414 V 46.12976 M 98.46819,70.54414 v 0 m 226.77165,0 v 0"
     style="fill:none;stroke:#000000;stroke-width:0.3685;stroke-linecap:round;stroke-linejoin:round;stroke-miterlimit:10;stroke-dasharray:none;stroke-opacity:1"
     transform="matrix(1.3333333,0,0,-1.3333333,0,113.38587)" />
  <text
     id="text13"
     xml:space="preserve"
     transform="matrix(1.3333333,0,0,1.3333333,270.71125,11.231853)"
     clip-path="url(#clipPath14)"><tspan
       style="font-variant:normal;font-weight:normal;font-stretch:normal;font-size:10.0916px;font-family:'Palatino Linotype';writing-mode:lr-tb;fill:#000000;fill-opacity:1;fill-rule:nonzero;stroke:none"
       x="0 5.045805 7.5687075 12.614512"
       y="0"
       sodipodi:role="line"
       id="tspan13">0.40</tspan></text>
  <path
     id="path15"
     d="M 98.46819,70.54414 H 325.23984"
     style="fill:none;stroke:#000000;stroke-width:0.3685;stroke-linecap:round;stroke-linejoin:round;stroke-miterlimit:10;stroke-dasharray:none;stroke-opacity:1"
     transform="matrix(1.3333333,0,0,-1.3333333,0,113.38587)" />
  <path
     id="path16"
     d="m 211.85403,29.12189 c 0,1.56553 -1.26913,2.83465 -2.83465,2.83465 m 0,0 c -1.56552,0 -2.83466,-1.26912 -2.83466,-2.83465 m 0,0 c 0,-1.56552 1.26914,-2.83464 2.83466,-2.83464 m 0,0 c 1.56552,0 2.83465,1.26912 2.83465,2.83464"
     style="fill:none;stroke:#000000;stroke-width:0.3685;stroke-linecap:round;stroke-linejoin:round;stroke-miterlimit:10;stroke-dasharray:none;stroke-opacity:1"
     transform="matrix(1.3333333,0,0,-1.3333333,0,113.38587)" />
  <path
     id="path17"
     d="m 217.52332,29.12189 c 0,1.56553 -1.26911,2.83465 -2.83466,2.83465 m 0,0 c -1.56552,0 -2.83463,-1.26912 -2.83463,-2.83465 m 0,0 c 0,-1.56552 1.26911,-2.83464 2.83463,-2.83464 m 0,0 c 1.56555,0 2.83466,1.26912 2.83466,2.83464"
     style="fill:none;stroke:#000000;stroke-width:0.3685;stroke-linecap:round;stroke-linejoin:round;stroke-miterlimit:10;stroke-dasharray:none;stroke-opacity:1"
     transform="matrix(1.3333333,0,0,-1.3333333,0,113.38587)" />
  <path
     id="path18"
     d="m 155.1611,29.12189 c 0,1.56553 -1.2691,2.83465 -2.83465,2.83465 m 0,0 c -1.56552,0 -2.83463,-1.26912 -2.83463,-2.83465 m 0,0 c 0,-1.56552 1.26911,-2.83464 2.83463,-2.83464 m 0,0 c 1.56555,0 2.83465,1.26912 2.83465,2.83464"
     style="fill:none;stroke:#000000;stroke-width:0.3685;stroke-linecap:round;stroke-linejoin:round;stroke-miterlimit:10;stroke-dasharray:none;stroke-opacity:1"
     transform="matrix(1.3333333,0,0,-1.3333333,0,113.38587)" />
  <path
     id="path19"
     d="m 160.83038,29.12189 c 0,1.56553 -1.2691,2.83465 -2.83462,2.83465 m 0,0 c -1.56555,0 -2.83466,-1.26912 -2.83466,-2.83465 m 0,0 c 0,-1.56552 1.26911,-2.83464 2.83466,-2.83464 m 0,0 c 1.56552,0 2.83462,1.26912 2.83462,2.83464"
     style="fill:none;stroke:#000000;stroke-width:0.3685;stroke-linecap:round;stroke-linejoin:round;stroke-miterlimit:10;stroke-dasharray:none;stroke-opacity:1"
     transform="matrix(1.3333333,0,0,-1.3333333,0,113.38587)" />
  <path
     id="path20"
     d="m 98.46819,29.12189 c 0,1.56553 -1.26911,2.83465 -2.83465,2.83465 m 0,0 c -1.56553,0 -2.83464,-1.26912 -2.83464,-2.83465 m 0,0 c 0,-1.56552 1.26911,-2.83464 2.83464,-2.83464 m 0,0 c 1.56554,0 2.83465,1.26912 2.83465,2.83464"
     style="fill:none;stroke:#000000;stroke-width:0.3685;stroke-linecap:round;stroke-linejoin:round;stroke-miterlimit:10;stroke-dasharray:none;stroke-opacity:1"
     transform="matrix(1.3333333,0,0,-1.3333333,0,113.38587)" />
  <path
     id="path21"
     d="m 104.13748,29.12189 c 0,1.56553 -1.26912,2.83465 -2.83464,2.83465 m 0,0 c -1.56554,0 -2.83465,-1.26912 -2.83465,-2.83465 m 0,0 c 0,-1.56552 1.26911,-2.83464 2.83465,-2.83464 m 0,0 c 1.56552,0 2.83464,1.26912 2.83464,2.83464"
     style="fill:none;stroke:#000000;stroke-width:0.3685;stroke-linecap:round;stroke-linejoin:round;stroke-miterlimit:10;stroke-dasharray:none;stroke-opacity:1"
     transform="matrix(1.3333333,0,0,-1.3333333,0,113.38587)" />
  <path
     id="path22"
     d="m 268.54694,29.12189 c 0,1.56553 -1.26914,2.83465 -2.83466,2.83465 m 0,0 c -1.56552,0 -2.83466,-1.26912 -2.83466,-2.83465 m 0,0 c 0,-1.56552 1.26914,-2.83464 2.83466,-2.83464 m 0,0 c 1.56552,0 2.83466,1.26912 2.83466,2.83464"
     style="fill:none;stroke:#000000;stroke-width:0.3685;stroke-linecap:round;stroke-linejoin:round;stroke-miterlimit:10;stroke-dasharray:none;stroke-opacity:1"
     transform="matrix(1.3333333,0,0,-1.3333333,0,113.38587)" />
  <path
     id="path23"
     d="m 274.21622,29.12189 c 0,1.56553 -1.26911,2.83465 -2.83466,2.83465 m 0,0 c -1.56552,0 -2.83462,-1.26912 -2.83462,-2.83465 m 0,0 c 0,-1.56552 1.2691,-2.83464 2.83462,-2.83464 m 0,0 c 1.56555,0 2.83466,1.26912 2.83466,2.83464"
     style="fill:none;stroke:#000000;stroke-width:0.3685;stroke-linecap:round;stroke-linejoin:round;stroke-miterlimit:10;stroke-dasharray:none;stroke-opacity:1"
     transform="matrix(1.3333333,0,0,-1.3333333,0,113.38587)" />
  <path
     id="path24"
     d="m 325.23984,29.12189 c 0,1.56553 -1.26911,2.83465 -2.83466,2.83465 m 0,0 c -1.56552,0 -2.83462,-1.26912 -2.83462,-2.83465 m 0,0 c 0,-1.56552 1.2691,-2.83464 2.83462,-2.83464 m 0,0 c 1.56555,0 2.83466,1.26912 2.83466,2.83464"
     style="fill:none;stroke:#000000;stroke-width:0.3685;stroke-linecap:round;stroke-linejoin:round;stroke-miterlimit:10;stroke-dasharray:none;stroke-opacity:1"
     transform="matrix(1.3333333,0,0,-1.3333333,0,113.38587)" />
  <path
     id="path25"
     d="m 330.90912,29.12189 c 0,1.56553 -1.26911,2.83465 -2.83463,2.83465 m 0,0 c -1.56555,0 -2.83465,-1.26912 -2.83465,-2.83465 m 0,0 c 0,-1.56552 1.2691,-2.83464 2.83465,-2.83464 m 0,0 c 1.56552,0 2.83463,1.26912 2.83463,2.83464"
     style="fill:none;stroke:#000000;stroke-width:0.3685;stroke-linecap:round;stroke-linejoin:round;stroke-miterlimit:10;stroke-dasharray:none;stroke-opacity:1"
     transform="matrix(1.3333333,0,0,-1.3333333,0,113.38587)" />
  <text
     id="text25"
     xml:space="preserve"
     transform="matrix(1.3333333,0,0,1.3333333,282.91571,105.1038)"
     clip-path="url(#clipPath26)"><tspan
       style="font-style:italic;font-variant:normal;font-weight:normal;font-stretch:normal;font-size:10.0071px;font-family:'Palatino Linotype';writing-mode:lr-tb;fill:#000000;fill-opacity:1;fill-rule:nonzero;stroke:none"
       x="0 5.0035648 7.5053477 12.508912 17.512478 22.516043"
       y="0"
       sodipodi:role="line"
       id="tspan25">0.0023</tspan></text>
  <text
     id="text26"
     xml:space="preserve"
     transform="matrix(1.3333333,0,0,1.3333333,242.42296,62.343333)"
     clip-path="url(#clipPath27)"><tspan
       style="font-style:italic;font-variant:normal;font-weight:normal;font-stretch:normal;font-size:10.0071px;font-family:'Palatino Linotype';writing-mode:lr-tb;fill:#000000;fill-opacity:1;fill-rule:nonzero;stroke:none"
       x="0 5.0035648 7.5053477 12.508912 17.512478 22.516043"
       y="0"
       sodipodi:role="line"
       id="tspan26">0.0023</tspan></text>
  <text
     id="text27"
     xml:space="preserve"
     transform="matrix(1.3333333,0,0,1.3333333,166.8324,62.343333)"
     clip-path="url(#clipPath28)"><tspan
       style="font-style:italic;font-variant:normal;font-weight:normal;font-stretch:normal;font-size:10.0071px;font-family:'Palatino Linotype';writing-mode:lr-tb;fill:#000000;fill-opacity:1;fill-rule:nonzero;stroke:none"
       x="0 5.0035648 7.5053477 12.508912 17.512478 22.516043"
       y="0"
       sodipodi:role="line"
       id="tspan27">0.0007</tspan></text>
  <text
     id="text28"
     xml:space="preserve"
     transform="matrix(1.3333333,0,0,1.3333333,208.82029,95.588933)"
     clip-path="url(#clipPath29)"><tspan
       style="font-style:italic;font-variant:normal;font-weight:normal;font-stretch:normal;font-size:10.0071px;font-family:'Palatino Linotype';writing-mode:lr-tb;fill:#000000;fill-opacity:1;fill-rule:nonzero;stroke:none"
       x="0 5.0035648 7.5053477 12.508912 17.512478 22.516043"
       y="0"
       sodipodi:role="line"
       id="tspan28">0.0007</tspan></text>
  <text
     id="text29"
     xml:space="preserve"
     transform="matrix(1.3333333,0,0,1.3333333,91.24184,62.343333)"
     clip-path="url(#clipPath30)"><tspan
       style="font-style:italic;font-variant:normal;font-weight:normal;font-stretch:normal;font-size:10.0071px;font-family:'Palatino Linotype';writing-mode:lr-tb;fill:#000000;fill-opacity:1;fill-rule:nonzero;stroke:none"
       x="0 5.0035648 7.5053477 12.508912 17.512478 22.516043"
       y="0"
       sodipodi:role="line"
       id="tspan29">0.0006</tspan></text>
  <text
     id="text30"
     xml:space="preserve"
     transform="matrix(1.3333333,0,0,1.3333333,133.22975,95.588933)"
     clip-path="url(#clipPath31)"><tspan
       style="font-style:italic;font-variant:normal;font-weight:normal;font-stretch:normal;font-size:10.0071px;font-family:'Palatino Linotype';writing-mode:lr-tb;fill:#000000;fill-opacity:1;fill-rule:nonzero;stroke:none"
       x="0 5.0035648 7.5053477 12.508912 17.512478 22.516043"
       y="0"
       sodipodi:role="line"
       id="tspan30">0.0006</tspan></text>
  <text
     id="text31"
     xml:space="preserve"
     transform="matrix(1.3333333,0,0,1.3333333,318.01351,62.343333)"
     clip-path="url(#clipPath32)"><tspan
       style="font-style:italic;font-variant:normal;font-weight:normal;font-stretch:normal;font-size:10.0071px;font-family:'Palatino Linotype';writing-mode:lr-tb;fill:#000000;fill-opacity:1;fill-rule:nonzero;stroke:none"
       x="0 5.0035648 7.5053477 12.508912 17.512478 22.516043"
       y="0"
       sodipodi:role="line"
       id="tspan31">0.0007</tspan></text>
  <text
     id="text32"
     xml:space="preserve"
     transform="matrix(1.3333333,0,0,1.3333333,360.00141,95.588933)"
     clip-path="url(#clipPath33)"><tspan
       style="font-style:italic;font-variant:normal;font-weight:normal;font-stretch:normal;font-size:10.0071px;font-family:'Palatino Linotype';writing-mode:lr-tb;fill:#000000;fill-opacity:1;fill-rule:nonzero;stroke:none"
       x="0 5.0035648 7.5053477 12.508912 17.512478 22.516043"
       y="0"
       sodipodi:role="line"
       id="tspan32">0.0007</tspan></text>
  <text
     id="text33"
     xml:space="preserve"
     transform="matrix(1.3333333,0,0,1.3333333,393.60407,62.343333)"
     clip-path="url(#clipPath34)"><tspan
       style="font-style:italic;font-variant:normal;font-weight:normal;font-stretch:normal;font-size:10.0071px;font-family:'Palatino Linotype';writing-mode:lr-tb;fill:#000000;fill-opacity:1;fill-rule:nonzero;stroke:none"
       x="0 5.0035648 7.5053477 12.508912 17.512478 22.516043"
       y="0"
       sodipodi:role="line"
       id="tspan33">0.0006</tspan></text>
  <text
     id="text34"
     xml:space="preserve"
     transform="matrix(1.3333333,0,0,1.3333333,435.59196,95.588933)"
     clip-path="url(#clipPath35)"><tspan
       style="font-style:italic;font-variant:normal;font-weight:normal;font-stretch:normal;font-size:10.0071px;font-family:'Palatino Linotype';writing-mode:lr-tb;fill:#000000;fill-opacity:1;fill-rule:nonzero;stroke:none"
       x="0 5.0035648 7.5053477 12.508912 17.512478 22.516043"
       y="0"
       sodipodi:role="line"
       id="tspan34">0.0006</tspan></text>
  <g
     id="layer-MC1"
     inkscape:groupmode="layer"
     inkscape:label="STABBEANSPR_DIAG">
    <text
       id="text35"
       xml:space="preserve"
       transform="matrix(1.3333333,0,0,1.3333333,23.101427,71.508453)"
       clip-path="url(#clipPath36)"><tspan
         style="font-style:italic;font-variant:normal;font-weight:normal;font-stretch:normal;font-size:10.0071px;font-family:'Palatino Linotype';writing-mode:lr-tb;fill:#000000;fill-opacity:1;fill-rule:nonzero;stroke:none"
         x="0"
         y="0"
         id="tspan35">φ</tspan></text>
    <text
       id="text36"
       xml:space="preserve"
       transform="matrix(1.3333333,0,0,1.3333333,32.443253,77.020267)"
       clip-path="url(#clipPath37)"><tspan
         style="font-style:italic;font-variant:normal;font-weight:normal;font-stretch:normal;font-size:6.00428px;font-family:'Palatino Linotype';writing-mode:lr-tb;fill:#000000;fill-opacity:1;fill-rule:nonzero;stroke:none"
         x="0"
         y="0"
         id="tspan36">R</tspan></text>
    <text
       id="text37"
       xml:space="preserve"
       transform="matrix(1.3333333,0,0,1.3333333,20.18804,90.406093)"
       clip-path="url(#clipPath38)"><tspan
         style="font-variant:normal;font-weight:normal;font-stretch:normal;font-size:10.0916px;font-family:'Palatino Linotype';writing-mode:lr-tb;fill:#000000;fill-opacity:1;fill-rule:nonzero;stroke:none"
         x="0 3.986186 9.031991"
         y="0"
         sodipodi:role="line"
         id="tspan37">rad</tspan></text>
  </g>
</svg>
