<?xml version="1.0" encoding="UTF-8" standalone="no"?>
<!-- Created with Inkscape (http://www.inkscape.org/) -->

<svg
   version="1.1"
   id="svg1"
   width="566.92932"
   height="302.36267"
   viewBox="0 0 566.92932 302.36267"
   sodipodi:docname="quad_lpa1_T.pdf"
   xmlns:inkscape="http://www.inkscape.org/namespaces/inkscape"
   xmlns:sodipodi="http://sodipodi.sourceforge.net/DTD/sodipodi-0.dtd"
   xmlns="http://www.w3.org/2000/svg"
   xmlns:svg="http://www.w3.org/2000/svg">
  <defs
     id="defs1">
    <clipPath
       clipPathUnits="userSpaceOnUse"
       id="clipPath17">
      <path
         d="m -0.00426,-0.00227 v 226.7762 H 425.20111 V -0.00227 H -0.00426"
         transform="matrix(1,0,0,-1,-42.527801,124.32359)"
         clip-rule="evenodd"
         id="path17" />
    </clipPath>
    <clipPath
       clipPathUnits="userSpaceOnUse"
       id="clipPath18">
      <path
         d="m -0.00426,-0.00227 v 226.7762 H 425.20111 V -0.00227 H -0.00426"
         transform="matrix(1,0,0,-1,-53.749781,121.01651)"
         clip-rule="evenodd"
         id="path18" />
    </clipPath>
    <clipPath
       clipPathUnits="userSpaceOnUse"
       id="clipPath19">
      <path
         d="m -0.00426,-0.00227 v 226.7762 H 425.20111 V -0.00227 H -0.00426"
         transform="matrix(1,0,0,-1,-17.52705,110.60528)"
         clip-rule="evenodd"
         id="path19" />
    </clipPath>
    <clipPath
       clipPathUnits="userSpaceOnUse"
       id="clipPath20">
      <path
         d="m -0.00426,-0.00227 v 226.7762 H 425.20111 V -0.00227 H -0.00426"
         transform="matrix(1,0,0,-1,-10.66024,130.05983)"
         clip-rule="evenodd"
         id="path20" />
    </clipPath>
    <clipPath
       clipPathUnits="userSpaceOnUse"
       id="clipPath21">
      <path
         d="m -0.00426,-0.00227 v 226.7762 H 425.20111 V -0.00227 H -0.00426"
         transform="matrix(1,0,0,-1,-0.51858001,140.91702)"
         clip-rule="evenodd"
         id="path21" />
    </clipPath>
    <clipPath
       clipPathUnits="userSpaceOnUse"
       id="clipPath22">
      <path
         d="m -0.00426,-0.00227 v 226.7762 H 425.20111 V -0.00227 H -0.00426"
         transform="matrix(1,0,0,-1,-0.51858001,164.44458)"
         clip-rule="evenodd"
         id="path22" />
    </clipPath>
  </defs>
  <sodipodi:namedview
     id="namedview1"
     pagecolor="#ffffff"
     bordercolor="#000000"
     borderopacity="0.25"
     inkscape:showpageshadow="2"
     inkscape:pageopacity="0.0"
     inkscape:pagecheckerboard="0"
     inkscape:deskcolor="#d1d1d1">
    <inkscape:page
       x="0"
       y="0"
       inkscape:label="1"
       id="page1"
       width="566.92932"
       height="302.36267"
       margin="0"
       bleed="0" />
  </sodipodi:namedview>
  <g
     id="g1"
     inkscape:groupmode="layer"
     inkscape:label="1">
    <path
       id="path1"
       d="m 60.9962,114.49268 c 0,1.56553 -1.2691,2.83464 -2.83464,2.83464 m 0,0 c -1.56554,0 -2.83464,-1.26911 -2.83464,-2.83464 m 0,0 c 0,-1.56554 1.2691,-2.83464 2.83464,-2.83464 m 0,0 c 1.56554,0 2.83464,1.2691 2.83464,2.83464"
       style="fill:none;stroke:#000000;stroke-width:0.3685;stroke-linecap:round;stroke-linejoin:round;stroke-miterlimit:10;stroke-dasharray:none;stroke-opacity:1"
       transform="matrix(1.3333333,0,0,-1.3333333,0,302.36267)" />
    <path
       id="path2"
       d="m 158.38141,172.35464 -20.04395,11.57239 M 158.38141,56.63071 v 2.28363 m 20.04397,125.01269 v -10.75461 m 140.3078,-70.25213 v 5.18443 m -60.13192,8.13153 20.04397,11.57239 m -140.30777,-18.82442 -20.04399,11.57239 m 260.57164,-18.17638 -20.04397,11.57241 M 338.77716,91.34789 v 10.75462 M 238.55731,207.61188 218.51334,219.18427 M 98.2495,114.49268 v 8.05438 m 140.30781,-19.14845 20.04395,11.5724 m 80.1759,15.87732 -20.04398,11.57239 M 218.51334,45.05832 v 8.05438 m 20.04397,3.51801 v -8.05439 m -20.04397,16.15506 20.04397,11.57241 m -60.13193,107.62324 v -6.78912 m 100.21985,-74.21762 v -2.8391 m -160.35176,25.98387 v -5.50845 m 160.35176,28.65326 v -1.77445 m 40.08795,-44.51513 v 8.05438 m -60.13192,3.51801 v 0.47833 m -60.1319,37.07794 -20.04398,11.57239 M 238.55731,62.13918 218.51334,73.71156 m -100.21987,34.71718 20.04399,11.57239 m 80.17588,40.78113 V 155.2738 M 178.42538,51.84746 158.38141,63.41985 m 100.21985,51.07283 v -0.47834 M 118.29347,72.98636 98.2495,84.55876 m 180.39573,41.5063 v 1.74358 m -100.21985,36.24474 -20.04397,11.57238 M 138.33746,91.34789 V 86.16347 M 238.55731,79.7755 v 1.74357 m -60.13193,32.97361 v -0.47834 m 20.04398,-57.38363 v -6.3571 M 118.29347,79.7755 v 3.27113 m 100.21987,72.22717 20.04397,11.57239 M 278.64523,56.63071 v 3.27113 m -100.21985,76.64009 20.04398,11.57242 m 160.35178,-22.04929 v -10.7546 m -80.17591,57.04418 v 6.78913 M 218.51334,91.34789 v 0.47833 m -60.13193,55.6092 20.04397,11.57239 m 100.21985,-77.45788 20.04398,11.5724 m -120.26383,44.51512 v -1.09552 m 40.08796,-68.33882 v 3.47171 m 20.04397,31.24547 v 0.47832 M 178.42538,91.34789 v 1.09552 m 40.08796,-24.2403 V 64.73138 M 98.2495,91.34789 V 80.59328 m 180.39573,-26.24619 20.04398,11.5724"
       style="fill:none;stroke:#000000;stroke-width:0.22678;stroke-linecap:round;stroke-linejoin:round;stroke-miterlimit:10;stroke-dasharray:none;stroke-opacity:1"
       transform="matrix(1.3333333,0,0,-1.3333333,0,302.36267)" />
    <path
       id="path3"
       d="m 198.46936,125.58675 20.04398,11.5724 m 0,29.13156 -20.04398,11.57239 m -80.17589,-51.79804 v 5.18445 m 60.13191,-63.0464 v -2.8391 m 0,25.98388 20.04398,11.5724 m 20.04398,71.91855 20.04397,11.57241 m 40.08792,-57.50708 20.04398,11.57239 m -120.26383,32.69586 20.04398,11.57239 M 178.42538,65.36401 198.46936,76.9364 m 20.04398,-31.87808 v -9.08818 m 20.04397,45.54893 -20.04397,11.57239 m -60.13193,-59.60553 20.04397,11.57239 m -120.26382,46.28957 20.04398,11.5724 m 20.04396,41.50632 20.04397,11.57238 m 220.48369,-64.6511 v -6.35711 m -40.08795,78.07508 -20.04398,11.57238 M 198.46936,33.48593 v 12.11244 m 40.08795,107.08321 -20.04397,11.57239 M 98.2495,91.34789 v -6.78913 m 280.61561,29.93392 20.04395,11.57238 m -220.48368,34.7172 v -1.77445 m 40.08796,-90.8047 v 5.50845 m 20.04397,6.06394 v -3.47171 m -60.13193,13.94858 -20.04397,11.5724 m 120.26382,-41.92293 -20.04397,11.5724 m 0,112.45279 v 6.78913 m 60.13192,-41.50629 v 3.27112 M 218.51334,137.63745 v -1.74356 m 20.04397,44.51514 -20.04397,11.57238 m 80.17587,-54.34396 v -5.18442 m 40.08795,-47.46225 -20.04398,11.57241 m -20.04397,64.21907 v 2.2836 m -80.17587,-25.42841 v 1.74359 m 80.17587,-71.17793 v 2.28361 m -100.21985,78.72315 v 2.83908 M 98.2495,137.63745 v 10.75461 m 80.17588,35.53497 -20.04397,11.57239 m 0,-46.28955 v 1.77441 m 40.08795,21.37036 v 5.50846 m 60.1319,-155.94957 -20.04395,11.5724 m -20.04397,159.5293 -20.04398,11.57239 m 200.4397,-101.66733 -20.04395,11.57239 m -120.26385,24.24029 -20.04395,11.57242 m -20.04397,-59.43582 20.04397,11.57239 m -40.08795,-78.04422 20.04398,11.5724 m 100.21984,110.9561 -20.04397,11.57239 m 80.1759,-67.15074 -20.04397,11.5724 M 58.16156,114.49268 v -12.11245 m 140.3078,-45.74952 v -5.50846 m 0,74.94281 v -0.47831"
       style="fill:none;stroke:#000000;stroke-width:0.22678;stroke-linecap:round;stroke-linejoin:round;stroke-miterlimit:10;stroke-dasharray:none;stroke-opacity:1"
       transform="matrix(1.3333333,0,0,-1.3333333,0,302.36267)" />
    <path
       id="path4"
       d="m 198.46936,44.24054 -20.04398,11.57239 m 80.17588,12.39018 V 66.42868 M 78.20554,126.06506 v 12.11246 M 118.29347,94.86591 98.2495,106.43829 m 120.26384,-14.61207 -20.04398,11.57239 m 60.1319,57.38365 v -3.27115 m -60.1319,21.20062 -20.04398,11.57242 M 238.55731,79.7755 v -1.09552 m -80.1759,93.67466 v 3.27112 M 258.60126,68.20311 v 2.8391 M 78.20554,102.92029 V 90.80785 M 258.60126,71.04221 238.55731,82.61459 m 20.04395,-16.18591 20.04397,11.57239 m -140.30777,36.49161 v -5.50846 m 60.1319,17.08084 v 0.47834 m 20.04398,80.52841 20.04397,11.57239 m -40.08795,-23.14478 v -12.11243 m 20.04398,23.68482 -20.04398,11.57239 M 158.38141,56.63071 v 6.78914 M 218.51334,9.8011 238.55731,21.37349 M 98.2495,91.34789 v 6.3571 M 78.20554,136.81967 98.2495,148.39206 M 258.60126,38.26918 278.64523,49.84158 M 198.46936,79.7755 v 1.09552 m 40.08795,68.33885 v -1.74359 m 40.08792,24.88836 v -3.27111 m 0,-66.16324 v -1.74358 m 80.17591,24.88835 v -12.11242 m -240.52767,5.75532 -20.04397,11.5724 M 238.55731,10.34114 218.51334,21.91353 m -40.08796,0 20.04398,11.5724 m 80.17587,72.90607 20.04398,11.5724 m -20.04398,8.10066 v -3.47171 m -80.17587,3.47171 -20.04398,11.57239 m 80.17588,0 v 1.09552 m -60.1319,56.76645 v 9.0882 M 158.38141,102.92029 v -3.47173 m 80.1759,72.90608 v -6.35711 M 178.42538,91.34789 v -1.09552 m -60.13191,58.9575 -20.04397,11.57239 m 140.30781,5.21527 20.04395,11.57242 M 238.55731,51.44627 258.60126,63.01868 m -80.17588,51.95233 20.04398,11.57239 m -40.08795,-23.62311 v -1.09552 M 258.60126,45.05832 v -6.78914 m -40.08792,6.78914 V 37.00394 M 78.20554,112.00847 98.2495,123.58086 M 258.60126,68.20311 v 3.27113 M 98.2495,114.49268 v -8.05439 m 220.48368,25.98389 20.04398,11.57239"
       style="fill:none;stroke:#000000;stroke-width:0.22678;stroke-linecap:round;stroke-linejoin:round;stroke-miterlimit:10;stroke-dasharray:none;stroke-opacity:1"
       transform="matrix(1.3333333,0,0,-1.3333333,0,302.36267)" />
    <path
       id="path5"
       d="m 178.42538,137.63745 -20.04397,11.57242 m 80.1759,-46.28958 v -0.47833 M 98.2495,97.70499 l 20.04397,11.5724 m 60.13191,-39.29985 -20.04397,11.57239 m 200.43973,12.28216 -20.04398,11.57241 m -40.08795,9.08818 v 3.47172 m -100.21985,65.42259 20.04398,11.57239 m 60.13189,-92.03909 v 1.09552 m 20.04398,-7.48349 20.04397,11.5724 m -40.08795,41.10515 v 1.77441 M 158.38141,79.7755 178.42538,91.34789 M 278.64523,33.48593 258.60126,45.05832 m 40.08795,115.72394 v -2.28363 M 258.60126,45.05832 v 6.3571 m 0,109.36684 v 5.18441 m -100.21985,-61.30281 20.04397,11.57239 m 60.13193,-93.50493 20.04395,11.57239 m 0,80.18897 v 1.74357 M 298.68921,91.34789 V 88.07677 M 198.46936,79.7755 v -1.74358 m 0,1.74358 v -2.8391 m 100.21985,-6.44968 20.04397,11.57239 m -120.26382,67.15076 v -3.47174 m 0,-42.81784 v 0.47832 m 140.3078,34.23884 V 126.88286 M 178.42538,68.20311 v 1.77443 m 60.13193,125.52188 v 12.11246 M 118.29347,102.92029 v 6.3571 m 240.52767,-6.3571 v 10.75461 m -220.48368,44.82373 20.04395,11.57238 m 160.35177,-44.00595 v 5.50846 M 58.16156,114.49268 v 12.11244 m 160.35178,34.17714 v 3.47171 m 120.26382,-49.76129 v 9.08818 M 138.33746,91.34789 v 3.27113 m 180.39572,31.44604 v -8.05438 m -160.35177,31.19919 v -1.77445 m 40.08795,16.86484 20.04398,11.57239 m -40.08796,-15.09039 v 2.83908 m 40.08796,43.45047 V 194.95938 M 178.42538,38.70122 198.46936,50.27361 m 40.08795,52.64668 -20.04397,11.57239 m 0,-23.14479 v 1.74357 m 0,-71.17793 v 12.11244 m 100.21984,92.03909 v -5.18443 M 238.55731,79.7755 v 2.83909 m 80.17587,66.59528 20.04398,11.57239 m -120.26382,0 v -3.47174 M 298.68921,91.34789 V 88.5088 M 158.38141,58.91434 138.33746,70.48672"
       style="fill:none;stroke:#000000;stroke-width:0.22678;stroke-linecap:round;stroke-linejoin:round;stroke-miterlimit:10;stroke-dasharray:none;stroke-opacity:1"
       transform="matrix(1.3333333,0,0,-1.3333333,0,302.36267)" />
    <path
       id="path6"
       d="m 198.46936,195.49942 -20.04398,11.57239 M 78.20554,102.92029 V 92.16568 m 140.3078,43.72821 20.04397,11.57239 m -40.08795,24.88836 v -8.05438 M 218.51334,45.05832 v 9.08818 m 60.13189,47.03021 -20.04397,11.57239 m 80.1759,-44.54599 -20.04398,11.57239 m -200.43971,51.47401 20.04399,11.57239 m 120.2638,41.10513 v -6.35708 m 20.04397,-51.50489 v 2.83911 M 238.55731,33.48593 V 22.73132 m 40.08792,156.41245 -20.04397,11.57239 m 60.13192,-87.79587 v -5.50847 m -100.21984,86.51521 v -8.05438 m 120.26382,-73.77014 20.04398,11.57239 m -60.13193,47.10736 20.04397,11.57238 m -60.13192,-11.57238 v -2.83911 m -100.21985,7.62234 20.04397,11.57242 M 158.38141,56.63071 v -3.27112 m 60.13193,84.27786 v 0.47833 m 20.04397,-81.48507 v 5.50847 m 80.17587,35.27264 -20.04397,11.5724 m 40.08795,28.65323 20.04398,11.57242 M 158.38141,126.06506 v 1.09552 m 140.3078,13.74802 20.04397,11.57239 m 0,-31.60036 -20.04397,11.5724 M 178.42538,112.7491 158.38141,124.32149 m 160.35177,24.88838 v -2.28363 m -80.17587,-0.55548 20.04395,11.57239 m -140.30779,-8.73328 v 6.78912 m 20.04399,-69.83552 -20.04399,11.57239 m 140.30779,16.27848 -20.04395,11.57241 m -80.1759,-26.13819 -20.04395,11.57241 m 0,-19.67308 v 2.83909 M 238.55731,56.63071 v 6.3571 M 98.2495,80.59328 78.20554,92.16568 m 220.48367,22.327 v 5.50845 m -160.35175,-5.50845 v -3.47171 m 200.4397,26.61648 v -6.78912 M 218.51334,91.34789 v -0.47832 m 0,116.20224 v 12.11246 m -80.17588,-84.81794 -20.04399,11.57239 m 20.04399,-8.30127 v 5.18445 M 278.64523,79.7755 v 1.77443 m -120.26382,21.37036 v 2.83909 m 200.43973,-2.83909 v -9.0882 m -220.48368,66.95017 -20.04399,11.57238 m 40.08794,-45.19406 20.04397,11.57239 m 40.08796,45.19406 v 9.0882 M 238.55731,56.63071 v -5.18444"
       style="fill:none;stroke:#000000;stroke-width:0.22678;stroke-linecap:round;stroke-linejoin:round;stroke-miterlimit:10;stroke-dasharray:none;stroke-opacity:1"
       transform="matrix(1.3333333,0,0,-1.3333333,0,302.36267)" />
    <path
       id="path7"
       d="m 238.55731,172.35464 v 5.18442 m -20.04397,-16.7568 v 5.50845 m 60.13189,-109.66 v -6.78913 m 80.17591,76.22348 20.04397,11.57239 m -100.21988,-12.66791 -20.04397,11.57239 m -120.2638,24.24033 v -2.28363 m 0,-67.15074 v -1.77443 m 40.08792,24.91922 v -1.74358 m 0,-44.54599 v 5.18443 m 80.17588,110.53949 v 10.75461 M 298.68921,91.34789 v 1.77444 m -80.17587,46.25871 -20.04398,11.57239 m 40.08795,44.54599 20.04395,11.57239 m -60.1319,-104.15152 20.04398,11.57239 m 0,-61.37998 -20.04398,11.5724 m -20.04398,96.09716 v 3.27112 M 118.29347,79.7755 v -6.78914 m 200.43971,13.57828 20.04398,11.57238 M 158.38141,53.35959 178.42538,64.93198 m 80.17588,118.99505 20.04397,11.57239 M 118.29347,102.92029 v 5.50845 M 258.60126,91.34789 v 1.09552 M 318.73318,79.7755 v 6.78914 m -100.21984,51.07281 v -0.4783 m -80.17588,-22.66647 v 3.47172 m 140.30777,54.39024 v 2.2836 M 198.46936,80.87102 178.42538,92.44341 m 140.3078,10.47688 v -6.3571 m -100.21984,-5.2153 v -1.74357 m -100.21987,59.60555 v -3.27115 m 80.17589,-43.49676 -20.04398,11.57238 m 40.08796,-77.0104 20.04397,11.57238 M 98.2495,105.4045 78.20554,116.97688 m 160.35177,32.23299 v 1.09552 M 78.20554,102.92029 v 9.08818 m 100.21984,2.48421 v 0.47833 M 98.2495,137.63745 v 6.78916 m 60.13191,27.92803 v -2.28363 m 40.08795,2.28363 v -5.18444 m -60.1319,-98.96709 v -2.28362 m 140.30777,85.06479 -20.04397,11.57239 M 158.38141,126.06506 v -1.74357 m 40.08795,-73.19924 20.04398,11.57239 m -60.13193,60.53133 -20.04395,11.5724 m 80.17588,49.12866 v 8.05438 m 40.08792,-123.7783 v -5.18443 m -80.17588,92.57913 20.04398,11.57239 M 98.2495,114.49268 v -9.08818 m 120.26384,9.08818 20.04397,11.57238 M 58.16156,114.49268 38.11758,126.06506"
       style="fill:none;stroke:#000000;stroke-width:0.22678;stroke-linecap:round;stroke-linejoin:round;stroke-miterlimit:10;stroke-dasharray:none;stroke-opacity:1"
       transform="matrix(1.3333333,0,0,-1.3333333,0,302.36267)" />
    <path
       id="path8"
       d="m 338.77716,123.58086 20.04398,11.5724 M 198.46936,102.92029 v -0.47833 m 40.08795,23.6231 20.04395,11.57239 m -100.21985,11.57242 -20.04395,11.57239 M 118.29347,83.04663 138.33746,94.61902 M 278.64523,79.7755 258.60126,91.34789 m -80.17588,69.43437 v -5.18445 m 80.17588,-64.24992 -20.04395,11.5724 M 78.20554,79.7755 98.2495,91.34789 m 0,31.19917 20.04397,11.57239 m 200.43971,15.09042 v -6.78915 m -20.04397,-22.41959 20.04397,11.57239 m -260.57162,-4.9684 20.04398,11.5724 m 220.48367,-27.15655 -20.04398,11.57238 M 258.60126,51.41542 238.55731,62.98781 m 100.21985,51.50487 v 8.05438 m -220.48369,-65.91635 20.04399,11.5724 m 60.1319,77.53502 20.04398,11.57239 m 0,26.61651 v -9.08819 M 138.33746,68.20311 v 2.28361 m 240.52765,44.00596 v 12.11244 M 138.33746,114.49268 v 5.50845 m 0,17.63632 v 1.77445 m 0,-1.77445 v -2.83908 m 120.2638,-20.30569 v -1.74358 m 80.1759,1.74358 v -9.08818 m -80.1759,32.23295 20.04397,11.57242 m 20.04398,-34.71719 v -5.50846 m 0,-17.63633 v 5.18443 m -120.26383,87.39471 v 6.35712 M 98.2495,114.49268 v 9.08818 m 140.30781,2.4842 v 0.47834 m -40.08795,-48.51148 20.04398,11.5724 m 80.17587,24.88836 v -3.47171 m -160.35175,-16.83399 20.04395,11.5724 m -40.08794,43.45049 v 2.2836 M 278.64523,56.63071 V 54.34709 M 258.60126,45.05832 V 34.30371 m -120.2638,31.61578 -20.04399,11.57239 m 160.35176,48.57318 v -1.09552 m -20.04397,12.66791 v -1.09552 M 158.38141,79.7755 v -1.77443 m 140.3078,59.63638 v 3.27115 m -40.08795,19.87366 v 1.77441 M 318.73318,79.7755 V 76.50436 M 138.33746,68.20311 158.38141,79.7755 m -40.08794,71.71797 20.04399,11.57239 M 158.38141,79.7755 v 1.77443 m 40.08795,67.65994 v 1.74356 m 0,-94.32272 v 8.05439"
       style="fill:none;stroke:#000000;stroke-width:0.22678;stroke-linecap:round;stroke-linejoin:round;stroke-miterlimit:10;stroke-dasharray:none;stroke-opacity:1"
       transform="matrix(1.3333333,0,0,-1.3333333,0,302.36267)" />
    <path
       id="path9"
       d="m 198.46936,172.35464 v 6.35709 m -60.1319,-133.65341 20.04395,11.57239 m 100.21985,138.05093 -20.04395,11.57239 m 0,-127.57405 20.04395,11.57239 M 98.2495,137.63745 v -6.35709 M 198.46936,33.48593 v 10.75461 m -80.17589,58.67975 v -5.18443 m 120.26384,51.47401 v -2.83911 m -40.08795,2.83911 v -1.09552 m -60.1319,-10.4769 v -3.27112 m 20.04395,37.98831 v -6.78915 m -40.08794,-39.50043 v 8.05439 M 198.46936,33.48593 v -9.08819 m -20.04398,90.09494 v 1.74357 m -140.3078,-13.31596 20.04398,11.57239 m 240.52765,23.14477 v 2.83911 m -100.21985,55.02286 v -10.75461 m 160.35178,-69.43435 -20.04398,11.5724 m -180.39575,-0.8178 v -2.83909 M 358.82114,79.7755 338.77716,91.34789 m 0,46.28956 v 6.35712 m -40.08795,-6.35712 v -1.77441 m 0,-90.80472 -20.04398,11.57239 M 98.2495,68.20311 118.29347,79.7755 m 220.48369,11.57239 v 6.78913 M 318.73318,76.50436 298.68921,88.07677 m -40.08795,4.36664 20.04397,11.5724 m 0,-1.09552 v 3.47171 m 80.17591,19.67306 v 9.0882 m -20.04398,-28.71497 -20.04398,11.57239 M 278.64523,79.7755 V 78.00107 M 78.20554,90.80785 58.16156,102.38023 m 300.65958,12.65248 20.04397,11.57241 m -40.08795,-12.11244 v -8.05439 M 238.55731,33.48593 V 21.37349 m 80.17587,104.69157 v 6.35712 M 158.38141,102.92029 v 1.74357 m 120.26382,44.54601 20.04398,11.57239 m -80.17587,-46.28958 -20.04398,11.57238 m 80.17587,46.28958 20.04398,11.57239 M 118.29347,102.92029 v -8.05438 m 180.39574,-6.35711 -20.04398,11.57239 m 100.21988,14.41149 V 102.38023 M 298.68921,68.20311 V 65.91949 M 178.42538,45.05832 v -6.3571 m 60.13193,133.65342 v 8.05439 m 60.1319,-44.54599 -20.04398,11.57238 M 158.38141,126.06506 v 3.47174 m 60.13193,-57.86198 -20.04398,11.5724 M 218.51334,21.91353 V 9.8011"
       style="fill:none;stroke:#000000;stroke-width:0.22678;stroke-linecap:round;stroke-linejoin:round;stroke-miterlimit:10;stroke-dasharray:none;stroke-opacity:1"
       transform="matrix(1.3333333,0,0,-1.3333333,0,302.36267)" />
    <path
       id="path10"
       d="m 198.46936,61.81514 -20.04398,11.5724 M 78.20554,126.06506 58.16156,137.63745 m 180.39575,57.86197 v 10.75461 m 0,-80.18897 v -0.47831 m 80.17587,-68.95604 -20.04397,11.5724 m -180.39574,57.86195 v -6.3571 m 80.17589,-63.07725 v 5.18443 m 40.08795,-28.32921 v 9.08818 m -60.13193,95.06334 v 1.09552 m 0,-93.67465 V 55.81293 M 238.55731,42.57411 218.51334,54.1465 m -140.3078,71.91856 v 10.75461 m 160.35177,58.67975 v -9.08817 m 20.04395,-95.06336 v -1.09552 m 60.13192,20.7223 20.04398,11.57239 m -200.4397,38.2352 v 2.2836 m 220.48368,-60.14557 v 12.11242 m -220.48368,2.93169 20.04395,11.5724 M 298.68921,68.20311 278.64523,79.7755 m -140.30777,59.6364 20.04395,11.57238 m 40.08795,-140.64314 20.04398,11.57239 m 20.04397,150.44111 v -5.50845 m -80.1759,-88.84512 -20.04395,11.57239 m 120.2638,76.39321 -20.04395,11.57239 M 218.51334,34.02597 198.46936,45.59837 m 40.08795,103.6115 v 3.47171 M 198.46936,79.7755 v 3.47172 M 318.73318,79.7755 v 2.28361 m -80.17587,44.48429 -20.04397,11.57238 m 40.08792,19.39533 20.04397,11.57242 M 118.29347,79.7755 v -2.28362 m 60.13191,-9.28877 v -3.27113 m 40.08796,3.27113 V 62.69464 M 98.2495,137.63745 78.20554,149.20987 m 0,-23.14481 v -9.08818 M 178.42538,45.05832 v 6.78914"
       style="fill:none;stroke:#000000;stroke-width:0.22678;stroke-linecap:round;stroke-linejoin:round;stroke-miterlimit:10;stroke-dasharray:none;stroke-opacity:1"
       transform="matrix(1.3333333,0,0,-1.3333333,0,302.36267)" />
    <path
       id="path11"
       d="M 158.38141,33.48593 358.82114,149.20987 M 278.64523,33.48593 78.20554,149.20987 M 318.73318,56.63071 118.29347,172.35464 M 258.60126,21.91353 58.16156,137.63745 M 198.46936,10.34114 398.90906,126.06506 M 298.68921,45.05832 98.2495,160.78226 M 78.20554,79.7755 278.64523,195.49942 M 58.16156,91.34789 258.60126,207.07181 M 98.2495,68.20311 298.68921,183.92703 M 378.86511,91.34789 178.42538,207.07181 M 138.33746,45.05832 338.77716,160.78226 M 178.42538,21.91353 378.86511,137.63745 M 358.82114,79.7755 158.38141,195.49942 M 238.55731,10.34114 38.11758,126.06506 M 118.29347,56.63071 318.73318,172.35464 M 338.77716,68.20311 138.33746,183.92703 M 38.11758,102.92029 238.55731,218.6442 M 398.90906,102.92029 198.46936,218.6442 M 3.66588,120.64041 l 12.51987,7.22835 m -5.15525,-2.97638 -0.36822,-0.2126 m 5.52347,3.18898 v 0 l -5.58045,-2.23991 0.8504,-1.47294 4.73005,3.71285"
       style="fill:none;stroke:#000000;stroke-width:0.3685;stroke-linecap:round;stroke-linejoin:round;stroke-miterlimit:10;stroke-dasharray:none;stroke-opacity:1"
       transform="matrix(1.3333333,0,0,-1.3333333,0,302.36267)" />
    <path
       id="path12"
       d="m 11.4557,124.15591 4.73005,3.71285 -5.58045,-2.23991 z"
       style="fill:#000000;fill-opacity:1;fill-rule:nonzero;stroke:none"
       transform="matrix(1.3333333,0,0,-1.3333333,0,302.36267)" />
    <path
       id="path13"
       d="m 3.66588,120.64041 12.37343,-7.1438 m -5.15525,2.97638 -0.36822,0.2126 m 5.52347,-3.18898 v 0 l -4.73004,3.71283 -0.85039,-1.47291 5.58043,-2.23992"
       style="fill:none;stroke:#000000;stroke-width:0.3685;stroke-linecap:round;stroke-linejoin:round;stroke-miterlimit:10;stroke-dasharray:none;stroke-opacity:1"
       transform="matrix(1.3333333,0,0,-1.3333333,0,302.36267)" />
    <path
       id="path14"
       d="m 10.45888,115.73653 5.58043,-2.23992 -4.73004,3.71283 z"
       style="fill:#000000;fill-opacity:1;fill-rule:nonzero;stroke:none"
       transform="matrix(1.3333333,0,0,-1.3333333,0,302.36267)" />
    <path
       id="path15"
       d="m 3.66588,120.64041 v 16.08972 m 0,-5.95276 v -0.42517 m 0,6.37793 v 0 l -0.85039,-5.95276 h 1.70078 l -0.85039,5.95276"
       style="fill:none;stroke:#000000;stroke-width:0.3685;stroke-linecap:round;stroke-linejoin:round;stroke-miterlimit:10;stroke-dasharray:none;stroke-opacity:1"
       transform="matrix(1.3333333,0,0,-1.3333333,0,302.36267)" />
    <path
       id="path16"
       d="m 4.51627,130.77737 -0.85039,5.95276 -0.85039,-5.95276 z"
       style="fill:#000000;fill-opacity:1;fill-rule:nonzero;stroke:none"
       transform="matrix(1.3333333,0,0,-1.3333333,0,302.36267)" />
    <text
       id="text16"
       xml:space="preserve"
       transform="matrix(1.3333333,0,0,1.3333333,56.703733,136.59788)"
       clip-path="url(#clipPath17)"><tspan
         style="font-style:italic;font-variant:normal;font-weight:normal;font-stretch:normal;font-size:8.0057px;font-family:'Palatino Linotype';writing-mode:lr-tb;fill:#000000;fill-opacity:1;fill-rule:nonzero;stroke:none"
         x="0 4.0028501 6.0042748"
         y="0"
         sodipodi:role="line"
         id="tspan16">&lt; T</tspan></text>
    <text
       id="text17"
       xml:space="preserve"
       transform="matrix(1.3333333,0,0,1.3333333,71.666373,141.00732)"
       clip-path="url(#clipPath18)"><tspan
         style="font-style:italic;font-variant:normal;font-weight:normal;font-stretch:normal;font-size:4.80342px;font-family:'Palatino Linotype';writing-mode:lr-tb;fill:#000000;fill-opacity:1;fill-rule:nonzero;stroke:none"
         x="0"
         y="0"
         id="tspan17">u</tspan></text>
    <text
       id="text18"
       xml:space="preserve"
       transform="matrix(1.3333333,0,0,1.3333333,23.3694,154.88896)"
       clip-path="url(#clipPath19)"><tspan
         style="font-style:italic;font-variant:normal;font-weight:normal;font-stretch:normal;font-size:10.0071px;font-family:'Palatino Linotype';writing-mode:lr-tb;fill:#000000;fill-opacity:1;fill-rule:nonzero;stroke:none"
         x="0"
         y="0"
         id="tspan18">X</tspan></text>
    <text
       id="text19"
       xml:space="preserve"
       transform="matrix(1.3333333,0,0,1.3333333,14.213653,128.94957)"
       clip-path="url(#clipPath20)"><tspan
         style="font-style:italic;font-variant:normal;font-weight:normal;font-stretch:normal;font-size:10.0071px;font-family:'Palatino Linotype';writing-mode:lr-tb;fill:#000000;fill-opacity:1;fill-rule:nonzero;stroke:none"
         x="0"
         y="0"
         id="tspan19">Y</tspan></text>
    <text
       id="text20"
       xml:space="preserve"
       transform="matrix(1.3333333,0,0,1.3333333,0.69144,114.47331)"
       clip-path="url(#clipPath21)"><tspan
         style="font-style:italic;font-variant:normal;font-weight:normal;font-stretch:normal;font-size:10.0071px;font-family:'Palatino Linotype';writing-mode:lr-tb;fill:#000000;fill-opacity:1;fill-rule:nonzero;stroke:none"
         x="0"
         y="0"
         id="tspan20">Z</tspan></text>
    <text
       id="text21"
       xml:space="preserve"
       transform="matrix(1.3333333,0,0,1.3333333,0.69144,83.103227)"
       clip-path="url(#clipPath22)"><tspan
         style="font-variant:normal;font-weight:normal;font-stretch:normal;font-size:10.0916px;font-family:'Palatino Linotype';writing-mode:lr-tb;fill:#000000;fill-opacity:1;fill-rule:nonzero;stroke:none"
         x="0 6.1659737 12.261306 14.784208 19.830013 22.352917 27.398722 29.921623 34.96743 40.013233"
         y="0"
         sodipodi:role="line"
         id="tspan21">LP = 0.400</tspan></text>
  </g>
</svg>
