<?xml version="1.0" encoding="UTF-8" standalone="no"?>
<!-- Created with Inkscape (http://www.inkscape.org/) -->

<svg
   version="1.1"
   id="svg1"
   width="566.92932"
   height="158.74001"
   viewBox="0 0 566.92932 158.74001"
   sodipodi:docname="trm_m_chi.pdf"
   xmlns:inkscape="http://www.inkscape.org/namespaces/inkscape"
   xmlns:sodipodi="http://sodipodi.sourceforge.net/DTD/sodipodi-0.dtd"
   xmlns="http://www.w3.org/2000/svg"
   xmlns:svg="http://www.w3.org/2000/svg">
  <defs
     id="defs1">
    <clipPath
       clipPathUnits="userSpaceOnUse"
       id="clipPath2">
      <path
         d="M -0.00426,-0.00119 V 119.0563 H 425.20111 V -0.00119 H -0.00426"
         transform="matrix(1,0,0,-1,-63.204592,108.93897)"
         clip-rule="evenodd"
         id="path2" />
    </clipPath>
    <clipPath
       clipPathUnits="userSpaceOnUse"
       id="clipPath3">
      <path
         d="M -0.00426,-0.00119 V 119.0563 H 425.20111 V -0.00119 H -0.00426"
         transform="matrix(1,0,0,-1,-163.12663,8.6559602)"
         clip-rule="evenodd"
         id="path3" />
    </clipPath>
    <clipPath
       clipPathUnits="userSpaceOnUse"
       id="clipPath4">
      <path
         d="M -0.00426,-0.00119 V 119.0563 H 425.20111 V -0.00119 H -0.00426"
         transform="matrix(1,0,0,-1,-366.51248,8.6559602)"
         clip-rule="evenodd"
         id="path4" />
    </clipPath>
    <clipPath
       clipPathUnits="userSpaceOnUse"
       id="clipPath5">
      <path
         d="M -0.00426,-0.00119 V 119.0563 H 425.20111 V -0.00119 H -0.00426"
         transform="matrix(1,0,0,-1,-267.2991,108.93897)"
         clip-rule="evenodd"
         id="path5" />
    </clipPath>
    <clipPath
       clipPathUnits="userSpaceOnUse"
       id="clipPath6">
      <path
         d="M -0.00426,-0.00119 V 119.0563 H 425.20111 V -0.00119 H -0.00426"
         transform="matrix(1,0,0,-1,-38.375771,82.881812)"
         clip-rule="evenodd"
         id="path6" />
    </clipPath>
    <clipPath
       clipPathUnits="userSpaceOnUse"
       id="clipPath7">
      <path
         d="M -0.00426,-0.00119 V 119.0563 H 425.20111 V -0.00119 H -0.00426"
         transform="matrix(1,0,0,-1,-48.111071,78.747952)"
         clip-rule="evenodd"
         id="path7" />
    </clipPath>
    <clipPath
       clipPathUnits="userSpaceOnUse"
       id="clipPath8">
      <path
         d="M -0.00426,-0.00119 V 119.0563 H 425.20111 V -0.00119 H -0.00426"
         transform="matrix(1,0,0,-1,-242.47027,82.881812)"
         clip-rule="evenodd"
         id="path8" />
    </clipPath>
    <clipPath
       clipPathUnits="userSpaceOnUse"
       id="clipPath9">
      <path
         d="M -0.00426,-0.00119 V 119.0563 H 425.20111 V -0.00119 H -0.00426"
         transform="matrix(1,0,0,-1,-252.20557,78.747952)"
         clip-rule="evenodd"
         id="path9" />
    </clipPath>
    <clipPath
       clipPathUnits="userSpaceOnUse"
       id="clipPath18">
      <path
         d="M -0.00426,-0.00119 V 119.0563 H 425.20111 V -0.00119 H -0.00426"
         transform="matrix(1,0,0,-1,-5.7696502,107.99183)"
         clip-rule="evenodd"
         id="path18" />
    </clipPath>
    <clipPath
       clipPathUnits="userSpaceOnUse"
       id="clipPath19">
      <path
         d="M -0.00426,-0.00119 V 119.0563 H 425.20111 V -0.00119 H -0.00426"
         transform="matrix(1,0,0,-1,-209.62792,107.99183)"
         clip-rule="evenodd"
         id="path19" />
    </clipPath>
  </defs>
  <sodipodi:namedview
     id="namedview1"
     pagecolor="#ffffff"
     bordercolor="#000000"
     borderopacity="0.25"
     inkscape:showpageshadow="2"
     inkscape:pageopacity="0.0"
     inkscape:pagecheckerboard="0"
     inkscape:deskcolor="#d1d1d1">
    <inkscape:page
       x="0"
       y="0"
       inkscape:label="1"
       id="page1"
       width="566.92932"
       height="158.74001"
       margin="0"
       bleed="0" />
  </sodipodi:namedview>
  <g
     id="g1"
     inkscape:groupmode="layer"
     inkscape:label="1">
    <path
       id="path1"
       d="m 56.82681,81.66222 h -2.83464 m 102.22985,3.01182 -3.83323,-6.02366 m 5.95725,6.02366 -3.83322,-6.02366 m -97.68601,3.01184 h 97.47858 m 106.61591,0 h -2.83463 m 102.22983,3.01182 -3.83322,-6.02366 m 5.95724,6.02366 -3.83322,-6.02366 m -97.686,3.01184 h 97.47857 M 56.82681,19.6877 v 61.97452"
       style="fill:none;stroke:#000000;stroke-width:0.3685;stroke-linecap:round;stroke-linejoin:round;stroke-miterlimit:10;stroke-dasharray:none;stroke-opacity:1"
       transform="matrix(1.3333333,0,0,-1.3333333,0,158.74)" />
    <text
       id="text1"
       xml:space="preserve"
       transform="matrix(1.3333333,0,0,1.3333333,84.272787,13.48804)"
       clip-path="url(#clipPath2)"><tspan
         style="font-style:italic;font-variant:normal;font-weight:normal;font-stretch:normal;font-size:10.0071px;font-family:'Palatino Linotype';writing-mode:lr-tb;fill:#000000;fill-opacity:1;fill-rule:nonzero;stroke:none"
         x="0"
         y="0"
         id="tspan1">M</tspan></text>
    <text
       id="text2"
       xml:space="preserve"
       transform="matrix(1.3333333,0,0,1.3333333,217.50217,147.19872)"
       clip-path="url(#clipPath3)"><tspan
         style="font-style:italic;font-variant:normal;font-weight:normal;font-stretch:normal;font-size:10.0071px;font-family:'Palatino Linotype';writing-mode:lr-tb;fill:#000000;fill-opacity:1;fill-rule:nonzero;stroke:none"
         x="0"
         y="0"
         id="tspan2">χ</tspan></text>
    <text
       id="text3"
       xml:space="preserve"
       transform="matrix(1.3333333,0,0,1.3333333,488.68329,147.19872)"
       clip-path="url(#clipPath4)"><tspan
         style="font-style:italic;font-variant:normal;font-weight:normal;font-stretch:normal;font-size:10.0071px;font-family:'Palatino Linotype';writing-mode:lr-tb;fill:#000000;fill-opacity:1;fill-rule:nonzero;stroke:none"
         x="0"
         y="0"
         id="tspan3">φ</tspan></text>
    <text
       id="text4"
       xml:space="preserve"
       transform="matrix(1.3333333,0,0,1.3333333,356.39879,13.48804)"
       clip-path="url(#clipPath5)"><tspan
         style="font-style:italic;font-variant:normal;font-weight:normal;font-stretch:normal;font-size:10.0071px;font-family:'Palatino Linotype';writing-mode:lr-tb;fill:#000000;fill-opacity:1;fill-rule:nonzero;stroke:none"
         x="0"
         y="0"
         id="tspan4">M</tspan></text>
    <text
       id="text5"
       xml:space="preserve"
       transform="matrix(1.3333333,0,0,1.3333333,51.167693,48.23092)"
       clip-path="url(#clipPath6)"><tspan
         style="font-style:italic;font-variant:normal;font-weight:normal;font-stretch:normal;font-size:10.0071px;font-family:'Palatino Linotype';writing-mode:lr-tb;fill:#000000;fill-opacity:1;fill-rule:nonzero;stroke:none"
         x="0"
         y="0"
         id="tspan5">M</tspan></text>
    <text
       id="text6"
       xml:space="preserve"
       transform="matrix(1.3333333,0,0,1.3333333,64.148093,53.742733)"
       clip-path="url(#clipPath7)"><tspan
         style="font-style:italic;font-variant:normal;font-weight:normal;font-stretch:normal;font-size:6.00428px;font-family:'Palatino Linotype';writing-mode:lr-tb;fill:#000000;fill-opacity:1;fill-rule:nonzero;stroke:none"
         x="0"
         y="0"
         id="tspan6">u</tspan></text>
    <text
       id="text7"
       xml:space="preserve"
       transform="matrix(1.3333333,0,0,1.3333333,323.29369,48.23092)"
       clip-path="url(#clipPath8)"><tspan
         style="font-style:italic;font-variant:normal;font-weight:normal;font-stretch:normal;font-size:10.0071px;font-family:'Palatino Linotype';writing-mode:lr-tb;fill:#000000;fill-opacity:1;fill-rule:nonzero;stroke:none"
         x="0"
         y="0"
         id="tspan7">M</tspan></text>
    <text
       id="text8"
       xml:space="preserve"
       transform="matrix(1.3333333,0,0,1.3333333,336.27409,53.742733)"
       clip-path="url(#clipPath9)"><tspan
         style="font-style:italic;font-variant:normal;font-weight:normal;font-stretch:normal;font-size:6.00428px;font-family:'Palatino Linotype';writing-mode:lr-tb;fill:#000000;fill-opacity:1;fill-rule:nonzero;stroke:none"
         x="0"
         y="0"
         id="tspan8">u</tspan></text>
    <path
       id="path10"
       d="m 260.9213,19.6877 h 123.21978 m -5.95276,0 h -0.4252 m 6.37796,0 v 0 l -5.95276,0.8504 v -1.70079 l 5.95276,0.85039"
       style="fill:none;stroke:#000000;stroke-width:0.3685;stroke-linecap:round;stroke-linejoin:round;stroke-miterlimit:10;stroke-dasharray:none;stroke-opacity:1"
       transform="matrix(1.3333333,0,0,-1.3333333,0,158.74)" />
    <path
       id="path11"
       d="m 378.18832,18.83731 5.95276,0.85039 -5.95276,0.8504 z"
       style="fill:#000000;fill-opacity:1;fill-rule:nonzero;stroke:none"
       transform="matrix(1.3333333,0,0,-1.3333333,0,158.74)" />
    <path
       id="path12"
       d="m 260.9213,19.6877 v 96.46535 m 0,-5.95276 v -0.42519 m 0,6.37795 v 0 l -0.85038,-5.95276 h 1.70078 l -0.8504,5.95276"
       style="fill:none;stroke:#000000;stroke-width:0.3685;stroke-linecap:round;stroke-linejoin:round;stroke-miterlimit:10;stroke-dasharray:none;stroke-opacity:1"
       transform="matrix(1.3333333,0,0,-1.3333333,0,158.74)" />
    <path
       id="path13"
       d="m 261.7717,110.20029 -0.8504,5.95276 -0.85038,-5.95276 z"
       style="fill:#000000;fill-opacity:1;fill-rule:nonzero;stroke:none"
       transform="matrix(1.3333333,0,0,-1.3333333,0,158.74)" />
    <path
       id="path14"
       d="M 56.82681,19.6877 H 180.0466 m -5.95276,0 h -0.4252 m 6.37796,0 v 0 l -5.95276,0.8504 v -1.70079 l 5.95276,0.85039"
       style="fill:none;stroke:#000000;stroke-width:0.3685;stroke-linecap:round;stroke-linejoin:round;stroke-miterlimit:10;stroke-dasharray:none;stroke-opacity:1"
       transform="matrix(1.3333333,0,0,-1.3333333,0,158.74)" />
    <path
       id="path15"
       d="m 174.09384,18.83731 5.95276,0.85039 -5.95276,0.8504 z"
       style="fill:#000000;fill-opacity:1;fill-rule:nonzero;stroke:none"
       transform="matrix(1.3333333,0,0,-1.3333333,0,158.74)" />
    <path
       id="path16"
       d="m 56.82681,19.6877 v 96.46535 m 0,-5.95276 v -0.42519 m 0,6.37795 v 0 l -0.85038,-5.95276 h 1.70077 l -0.85039,5.95276"
       style="fill:none;stroke:#000000;stroke-width:0.3685;stroke-linecap:round;stroke-linejoin:round;stroke-miterlimit:10;stroke-dasharray:none;stroke-opacity:1"
       transform="matrix(1.3333333,0,0,-1.3333333,0,158.74)" />
    <path
       id="path17"
       d="m 57.6772,110.20029 -0.85039,5.95276 -0.85038,-5.95276 z"
       style="fill:#000000;fill-opacity:1;fill-rule:nonzero;stroke:none"
       transform="matrix(1.3333333,0,0,-1.3333333,0,158.74)" />
    <text
       id="text17"
       xml:space="preserve"
       transform="matrix(1.3333333,0,0,1.3333333,7.6928667,14.750893)"
       clip-path="url(#clipPath18)"><tspan
         style="font-style:italic;font-variant:normal;font-weight:normal;font-stretch:normal;font-size:10.0071px;font-family:'Palatino Linotype';writing-mode:lr-tb;fill:#000000;fill-opacity:1;fill-rule:nonzero;stroke:none"
         x="0 4.4431658"
         y="0"
         sodipodi:role="line"
         id="tspan17">a)</tspan></text>
    <text
       id="text18"
       xml:space="preserve"
       transform="matrix(1.3333333,0,0,1.3333333,279.50389,14.750893)"
       clip-path="url(#clipPath19)"><tspan
         style="font-style:italic;font-variant:normal;font-weight:normal;font-stretch:normal;font-size:10.0071px;font-family:'Palatino Linotype';writing-mode:lr-tb;fill:#000000;fill-opacity:1;fill-rule:nonzero;stroke:none"
         x="0 4.6333013"
         y="0"
         sodipodi:role="line"
         id="tspan18">b)</tspan></text>
  </g>
</svg>
