<?xml version="1.0" encoding="UTF-8" standalone="no"?>
<!-- Created with Inkscape (http://www.inkscape.org/) -->

<svg
   version="1.1"
   id="svg1"
   width="292"
   height="26.666668"
   viewBox="0 0 292 26.666668"
   sodipodi:docname="logo-mse.pdf"
   xmlns:inkscape="http://www.inkscape.org/namespaces/inkscape"
   xmlns:sodipodi="http://sodipodi.sourceforge.net/DTD/sodipodi-0.dtd"
   xmlns="http://www.w3.org/2000/svg"
   xmlns:svg="http://www.w3.org/2000/svg">
  <defs
     id="defs1">
    <clipPath
       clipPathUnits="userSpaceOnUse"
       id="clipPath2">
      <path
         d="M 0,196.988 V 0 h 2187.39 v 196.988 z"
         id="path2" />
    </clipPath>
    <clipPath
       clipPathUnits="userSpaceOnUse"
       id="clipPath4">
      <path
         d="M 0,196.988 V 0 h 2187.39 v 196.988 z"
         id="path4" />
    </clipPath>
    <clipPath
       clipPathUnits="userSpaceOnUse"
       id="clipPath6">
      <path
         d="M 0,196.988 V 0 h 2187.39 v 196.988 z"
         id="path6" />
    </clipPath>
    <clipPath
       clipPathUnits="userSpaceOnUse"
       id="clipPath8">
      <path
         d="M 0,196.988 V 0 h 2187.39 v 196.988 z"
         id="path8" />
    </clipPath>
    <clipPath
       clipPathUnits="userSpaceOnUse"
       id="clipPath10">
      <path
         d="M 0,196.988 V 0 h 2187.39 v 196.988 z"
         id="path10" />
    </clipPath>
    <clipPath
       clipPathUnits="userSpaceOnUse"
       id="clipPath12">
      <path
         d="M 0,196.988 V 0 h 2187.39 v 196.988 z"
         id="path12" />
    </clipPath>
    <clipPath
       clipPathUnits="userSpaceOnUse"
       id="clipPath14">
      <path
         d="M 0,196.988 V 0 h 2187.39 v 196.988 z"
         id="path14" />
    </clipPath>
    <clipPath
       clipPathUnits="userSpaceOnUse"
       id="clipPath16">
      <path
         d="M 0,196.988 V 0 h 2187.39 v 196.988 z"
         id="path16" />
    </clipPath>
    <clipPath
       clipPathUnits="userSpaceOnUse"
       id="clipPath18">
      <path
         d="M 0,196.988 V 0 h 2187.39 v 196.988 z"
         id="path18" />
    </clipPath>
    <clipPath
       clipPathUnits="userSpaceOnUse"
       id="clipPath20">
      <path
         d="M 0,196.988 V 0 h 2187.39 v 196.988 z"
         id="path20" />
    </clipPath>
    <clipPath
       clipPathUnits="userSpaceOnUse"
       id="clipPath22">
      <path
         d="M 0,196.988 V 0 h 2187.39 v 196.988 z"
         id="path22" />
    </clipPath>
    <clipPath
       clipPathUnits="userSpaceOnUse"
       id="clipPath24">
      <path
         d="M 0,196.988 V 0 h 2187.39 v 196.988 z"
         id="path24" />
    </clipPath>
    <clipPath
       clipPathUnits="userSpaceOnUse"
       id="clipPath26">
      <path
         d="M 0,196.988 V 0 h 2187.39 v 196.988 z"
         id="path26" />
    </clipPath>
    <clipPath
       clipPathUnits="userSpaceOnUse"
       id="clipPath28">
      <path
         d="M 0,196.988 V 0 h 2187.39 v 196.988 z"
         id="path28" />
    </clipPath>
    <clipPath
       clipPathUnits="userSpaceOnUse"
       id="clipPath30">
      <path
         d="M 0,196.988 V 0 h 2187.39 v 196.988 z"
         id="path30" />
    </clipPath>
    <clipPath
       clipPathUnits="userSpaceOnUse"
       id="clipPath32">
      <path
         d="M 0,196.988 V 0 h 2187.39 v 196.988 z"
         id="path32" />
    </clipPath>
    <clipPath
       clipPathUnits="userSpaceOnUse"
       id="clipPath34">
      <path
         d="M 0,196.988 V 0 h 2187.39 v 196.988 z"
         id="path34" />
    </clipPath>
    <clipPath
       clipPathUnits="userSpaceOnUse"
       id="clipPath36">
      <path
         d="M 0,196.988 V 0 h 2187.39 v 196.988 z"
         id="path36" />
    </clipPath>
    <clipPath
       clipPathUnits="userSpaceOnUse"
       id="clipPath38">
      <path
         d="M 0,196.988 V 0 h 2187.39 v 196.988 z"
         id="path38" />
    </clipPath>
    <clipPath
       clipPathUnits="userSpaceOnUse"
       id="clipPath40">
      <path
         d="M 0,196.988 V 0 h 2187.39 v 196.988 z"
         id="path40" />
    </clipPath>
    <clipPath
       clipPathUnits="userSpaceOnUse"
       id="clipPath42">
      <path
         d="M 0,196.988 V 0 h 2187.39 v 196.988 z"
         id="path42" />
    </clipPath>
    <clipPath
       clipPathUnits="userSpaceOnUse"
       id="clipPath44">
      <path
         d="M 0,196.988 V 0 h 2187.39 v 196.988 z"
         id="path44" />
    </clipPath>
    <clipPath
       clipPathUnits="userSpaceOnUse"
       id="clipPath46">
      <path
         d="M 0,196.988 V 0 h 2187.39 v 196.988 z"
         id="path46" />
    </clipPath>
    <clipPath
       clipPathUnits="userSpaceOnUse"
       id="clipPath48">
      <path
         d="M 0,196.988 V 0 h 2187.39 v 196.988 z"
         id="path48" />
    </clipPath>
    <clipPath
       clipPathUnits="userSpaceOnUse"
       id="clipPath50">
      <path
         d="M 0,196.988 V 0 h 2187.39 v 196.988 z"
         id="path50" />
    </clipPath>
    <clipPath
       clipPathUnits="userSpaceOnUse"
       id="clipPath52">
      <path
         d="M 0,196.988 V 0 h 2187.39 v 196.988 z"
         id="path52" />
    </clipPath>
    <clipPath
       clipPathUnits="userSpaceOnUse"
       id="clipPath54">
      <path
         d="M 0,196.988 V 0 h 2187.39 v 196.988 z"
         id="path54" />
    </clipPath>
    <clipPath
       clipPathUnits="userSpaceOnUse"
       id="clipPath56">
      <path
         d="M 0,196.988 V 0 h 2187.39 v 196.988 z"
         id="path56" />
    </clipPath>
    <clipPath
       clipPathUnits="userSpaceOnUse"
       id="clipPath58">
      <path
         d="M 0,196.988 V 0 h 2187.39 v 196.988 z"
         id="path58" />
    </clipPath>
    <clipPath
       clipPathUnits="userSpaceOnUse"
       id="clipPath60">
      <path
         d="M 0,196.988 V 0 h 2187.39 v 196.988 z"
         id="path60" />
    </clipPath>
    <clipPath
       clipPathUnits="userSpaceOnUse"
       id="clipPath62">
      <path
         d="M 0,196.988 V 0 h 2187.39 v 196.988 z"
         id="path62" />
    </clipPath>
    <clipPath
       clipPathUnits="userSpaceOnUse"
       id="clipPath64">
      <path
         d="M 0,0.820312 H 1023.48 V 196.469 H 0 Z"
         id="path64" />
    </clipPath>
    <clipPath
       clipPathUnits="userSpaceOnUse"
       id="clipPath66">
      <path
         d="M 0,0.820312 H 1023.48 V 196.469 H 0 Z"
         id="path66" />
    </clipPath>
  </defs>
  <sodipodi:namedview
     id="namedview1"
     pagecolor="#ffffff"
     bordercolor="#000000"
     borderopacity="0.25"
     inkscape:showpageshadow="2"
     inkscape:pageopacity="0.0"
     inkscape:pagecheckerboard="0"
     inkscape:deskcolor="#d1d1d1">
    <inkscape:page
       x="0"
       y="0"
       inkscape:label="1"
       id="page1"
       width="292"
       height="26.666668"
       margin="0"
       bleed="0" />
  </sodipodi:namedview>
  <g
     id="g1"
     inkscape:groupmode="layer"
     inkscape:label="1">
    <path
       id="path1"
       d="m 1365.57,196.293 h 13.58 l 17.46,-55.43 h 0.21 l 17.87,55.43 h 13.17 v -69.707 h -8.38 v 60.109 h -0.2 l -19.78,-60.109 h -6.37 l -18.98,60.109 h -0.18 v -60.109 h -8.4 v 69.707"
       style="fill:#231f20;fill-opacity:1;fill-rule:nonzero;stroke:none"
       transform="matrix(0.13333333,0,0,-0.13333333,0,26.666667)"
       clip-path="url(#clipPath2)" />
    <path
       id="path3"
       d="m 1471.22,196.293 22.77,-69.707 h -9.18 l -5.61,18.176 h -26.56 l -5.58,-18.176 h -8.81 l 23.38,69.707 z m 5.68,-43.934 -10.68,34.746 h -0.2 l -11,-34.746 h 21.88"
       style="fill:#231f20;fill-opacity:1;fill-rule:nonzero;stroke:none"
       transform="matrix(0.13333333,0,0,-0.13333333,0,26.666667)"
       clip-path="url(#clipPath4)" />
    <path
       id="path5"
       d="m 1533.23,186.215 c -3.28,1.992 -7.58,3.195 -11.88,3.195 -6.58,0 -10.9,-4.492 -10.9,-10.402 0,-4.492 1.82,-7.285 11.8,-13.074 10.8,-6.192 14.38,-12.278 14.38,-20.274 0,-11.094 -6.9,-19.765 -20.26,-19.765 -5.6,0 -10.9,1.191 -14.59,2.988 v 9.082 c 3.99,-2.395 9.18,-4.492 13.28,-4.492 7.89,0 12.39,5.293 12.39,10.996 0,5.39 -1.41,8.484 -10.78,14.168 -12.6,7.59 -15.4,11.886 -15.4,20.871 0,11.492 8.79,17.48 19.38,17.48 4.59,0 9.49,-0.996 12.58,-2.297 v -8.476"
       style="fill:#231f20;fill-opacity:1;fill-rule:nonzero;stroke:none"
       transform="matrix(0.13333333,0,0,-0.13333333,0,26.666667)"
       clip-path="url(#clipPath6)" />
    <path
       id="path7"
       d="m 1560.9,188.707 h -15.97 v 7.586 h 40.74 v -7.586 h -15.98 v -62.121 h -8.79 v 62.121"
       style="fill:#231f20;fill-opacity:1;fill-rule:nonzero;stroke:none"
       transform="matrix(0.13333333,0,0,-0.13333333,0,26.666667)"
       clip-path="url(#clipPath8)" />
    <path
       id="path9"
       d="m 1597.15,196.293 h 32.46 v -7.586 h -23.67 v -22.18 h 22.56 v -7.586 h -22.56 v -24.765 h 24.96 v -7.59 h -33.75 v 69.707"
       style="fill:#231f20;fill-opacity:1;fill-rule:nonzero;stroke:none"
       transform="matrix(0.13333333,0,0,-0.13333333,0,26.666667)"
       clip-path="url(#clipPath10)" />
    <path
       id="path11"
       d="m 1645.38,196.293 h 17.89 c 7.4,0 11.48,-1.797 14.66,-4.785 3.62,-3.406 5.22,-8.192 5.22,-13.301 0,-7.391 -3.5,-14.473 -13.79,-16.668 v -0.195 c 4.2,-0.801 6.19,-2.805 7.6,-6.789 l 9.76,-27.969 h -9.47 l -7.99,23.566 c -1.99,5.789 -4.49,7.996 -11.09,7.996 h -3.99 v -31.562 h -8.8 z m 8.8,-30.957 h 6.78 c 9.4,0 12.99,6.191 12.99,12.277 0,7.801 -5.08,11.492 -12.77,11.492 h -7 v -23.769"
       style="fill:#231f20;fill-opacity:1;fill-rule:nonzero;stroke:none"
       transform="matrix(0.13333333,0,0,-0.13333333,0,26.666667)"
       clip-path="url(#clipPath12)" />
    <path
       id="path13"
       d="m 1748.46,196.988 c 15.47,0 25.35,-13.281 25.35,-34.843 0,-24.083 -9.68,-36.25 -26.15,-36.25 -15.49,0 -25.37,13.269 -25.37,34.843 0,24.071 9.69,36.25 26.17,36.25 m -0.8,-63.906 c 9.18,0 16.97,7.586 16.97,29.063 0,14.082 -4.39,27.644 -16.17,27.644 -9.18,0 -16.99,-7.586 -16.99,-29.051 0,-14.082 4.39,-27.656 16.19,-27.656"
       style="fill:#231f20;fill-opacity:1;fill-rule:nonzero;stroke:none"
       transform="matrix(0.13333333,0,0,-0.13333333,0,26.666667)"
       clip-path="url(#clipPath14)" />
    <path
       id="path15"
       d="m 1788.21,196.293 h 31.15 v -7.586 H 1797 v -22.18 h 21.27 v -7.586 H 1797 v -32.355 h -8.79 v 69.707"
       style="fill:#231f20;fill-opacity:1;fill-rule:nonzero;stroke:none"
       transform="matrix(0.13333333,0,0,-0.13333333,0,26.666667)"
       clip-path="url(#clipPath16)" />
    <path
       id="path17"
       d="m 1887.47,186.215 c -3.29,1.992 -7.58,3.195 -11.88,3.195 -6.58,0 -10.9,-4.492 -10.9,-10.402 0,-4.492 1.82,-7.285 11.8,-13.074 10.78,-6.192 14.37,-12.278 14.37,-20.274 0,-11.094 -6.87,-19.765 -20.27,-19.765 -5.59,0 -10.88,1.191 -14.59,2.988 v 9.082 c 4,-2.395 9.22,-4.492 13.28,-4.492 7.89,0 12.4,5.293 12.4,10.996 0,5.39 -1.38,8.484 -10.8,14.168 -12.57,7.59 -15.37,11.886 -15.37,20.871 0,11.492 8.79,17.48 19.38,17.48 4.61,0 9.49,-0.996 12.58,-2.297 v -8.476"
       style="fill:#231f20;fill-opacity:1;fill-rule:nonzero;stroke:none"
       transform="matrix(0.13333333,0,0,-0.13333333,0,26.666667)"
       clip-path="url(#clipPath18)" />
    <path
       id="path19"
       d="m 1946.2,127.992 c -4.2,-1.297 -8.6,-2.097 -12.7,-2.097 -22.05,0 -31.35,16.765 -31.35,35.644 0,21.777 12.68,35.449 30.86,35.449 5,0 9.98,-0.89 13.19,-2.492 v -8.601 c -3.79,2.421 -8.19,3.515 -13.09,3.515 -11.39,0 -21.78,-9.101 -21.78,-26.074 0,-17.981 7.21,-29.863 22.39,-29.863 4.49,0 8.88,1.199 12.48,3.289 v -8.77"
       style="fill:#231f20;fill-opacity:1;fill-rule:nonzero;stroke:none"
       transform="matrix(0.13333333,0,0,-0.13333333,0,26.666667)"
       clip-path="url(#clipPath20)" />
    <path
       id="path21"
       d="m 1960.69,126.586 h 8.7891 v 69.707 h -8.7891 z"
       style="fill:#231f20;fill-opacity:1;fill-rule:nonzero;stroke:none"
       transform="matrix(0.13333333,0,0,-0.13333333,0,26.666667)"
       clip-path="url(#clipPath22)" />
    <path
       id="path23"
       d="m 1986.84,196.293 h 32.46 v -7.586 h -23.67 v -22.18 h 22.58 v -7.586 h -22.58 v -24.765 h 24.96 v -7.59 h -33.75 v 69.707"
       style="fill:#231f20;fill-opacity:1;fill-rule:nonzero;stroke:none"
       transform="matrix(0.13333333,0,0,-0.13333333,0,26.666667)"
       clip-path="url(#clipPath24)" />
    <path
       id="path25"
       d="m 2034.99,196.293 h 10.87 l 26.27,-57.527 h 0.2 v 57.527 h 8.4 v -69.707 h -10.88 l -26.27,57.121 h -0.22 v -57.121 h -8.37 v 69.707"
       style="fill:#231f20;fill-opacity:1;fill-rule:nonzero;stroke:none"
       transform="matrix(0.13333333,0,0,-0.13333333,0,26.666667)"
       clip-path="url(#clipPath26)" />
    <path
       id="path27"
       d="m 2139.15,127.992 c -4.2,-1.297 -8.6,-2.097 -12.68,-2.097 -22.07,0 -31.37,16.765 -31.37,35.644 0,21.777 12.68,35.449 30.86,35.449 5,0 9.98,-0.89 13.19,-2.492 v -8.601 c -3.79,2.421 -8.19,3.515 -13.09,3.515 -11.39,0 -21.78,-9.101 -21.78,-26.074 0,-17.981 7.21,-29.863 22.39,-29.863 4.49,0 8.88,1.199 12.48,3.289 v -8.77"
       style="fill:#231f20;fill-opacity:1;fill-rule:nonzero;stroke:none"
       transform="matrix(0.13333333,0,0,-0.13333333,0,26.666667)"
       clip-path="url(#clipPath28)" />
    <path
       id="path29"
       d="m 2153.64,196.293 h 32.44 v -7.586 h -23.65 v -22.18 h 22.56 v -7.586 h -22.56 v -24.765 h 24.96 v -7.59 h -33.75 v 69.707"
       style="fill:#231f20;fill-opacity:1;fill-rule:nonzero;stroke:none"
       transform="matrix(0.13333333,0,0,-0.13333333,0,26.666667)"
       clip-path="url(#clipPath30)" />
    <path
       id="path31"
       d="m 1365.57,0.722656 h 8.7891 v 69.6875 h -8.7891 z"
       style="fill:#231f20;fill-opacity:1;fill-rule:nonzero;stroke:none"
       transform="matrix(0.13333333,0,0,-0.13333333,0,26.666667)"
       clip-path="url(#clipPath32)" />
    <path
       id="path33"
       d="m 1391.72,70.4102 h 10.88 l 26.27,-57.5196 h 0.2 v 57.5196 h 8.4 V 0.703125 h -10.9 L 1400.3,57.832 h -0.2 V 0.703125 h -8.38 V 70.4102"
       style="fill:#231f20;fill-opacity:1;fill-rule:nonzero;stroke:none"
       transform="matrix(0.13333333,0,0,-0.13333333,0,26.666667)"
       clip-path="url(#clipPath34)" />
    <path
       id="path35"
       d="m 1480.79,70.4102 h 32.48 V 62.832 h -23.68 V 40.6641 h 22.56 v -7.5977 h -22.56 V 8.28125 h 24.97 V 0.703125 h -33.77 V 70.4102"
       style="fill:#231f20;fill-opacity:1;fill-rule:nonzero;stroke:none"
       transform="matrix(0.13333333,0,0,-0.13333333,0,26.666667)"
       clip-path="url(#clipPath36)" />
    <path
       id="path37"
       d="m 1530.02,70.4102 h 10.9 l 26.27,-57.5196 h 0.2 v 57.5196 h 8.38 V 0.703125 h -10.88 L 1538.64,57.832 h -0.22 V 0.703125 h -8.4 V 70.4102"
       style="fill:#231f20;fill-opacity:1;fill-rule:nonzero;stroke:none"
       transform="matrix(0.13333333,0,0,-0.13333333,0,26.666667)"
       clip-path="url(#clipPath38)" />
    <path
       id="path39"
       d="M 1639.79,3.61328 C 1635.71,2.10938 1628.7,0 1622.52,0 c -22.07,0 -31.36,16.7969 -31.36,35.6641 0,21.7773 12.69,35.4492 30.86,35.4492 6.01,0 11.6,-0.8008 16.38,-3.1055 v -8.7695 c -5.29,2.6953 -11.19,4.2773 -16.29,4.2773 -11.38,0 -21.77,-9.082 -21.77,-26.0547 0,-17.9687 7.18,-29.86324 22.38,-29.86324 2.79,0 6.39,0.68359 8.69,1.89453 V 31.4648 h -11.68 v 7.5977 h 20.06 V 3.61328"
       style="fill:#231f20;fill-opacity:1;fill-rule:nonzero;stroke:none"
       transform="matrix(0.13333333,0,0,-0.13333333,0,26.666667)"
       clip-path="url(#clipPath40)" />
    <path
       id="path41"
       d="m 1658.17,0.722656 h 8.7891 v 69.6875 h -8.7891 z"
       style="fill:#231f20;fill-opacity:1;fill-rule:nonzero;stroke:none"
       transform="matrix(0.13333333,0,0,-0.13333333,0,26.666667)"
       clip-path="url(#clipPath42)" />
    <path
       id="path43"
       d="m 1685.34,70.4102 h 10.88 l 26.27,-57.5196 h 0.21 v 57.5196 h 8.38 V 0.703125 H 1720.2 L 1693.93,57.832 h -0.19 V 0.703125 h -8.4 V 70.4102"
       style="fill:#231f20;fill-opacity:1;fill-rule:nonzero;stroke:none"
       transform="matrix(0.13333333,0,0,-0.13333333,0,26.666667)"
       clip-path="url(#clipPath44)" />
    <path
       id="path45"
       d="m 1749.36,70.4102 h 32.46 V 62.832 h -23.67 V 40.6641 h 22.56 v -7.5977 h -22.56 V 8.28125 h 24.96 V 0.703125 h -33.75 V 70.4102"
       style="fill:#231f20;fill-opacity:1;fill-rule:nonzero;stroke:none"
       transform="matrix(0.13333333,0,0,-0.13333333,0,26.666667)"
       clip-path="url(#clipPath46)" />
    <path
       id="path47"
       d="m 1798.6,70.4102 h 32.46 V 62.832 h -23.67 V 40.6641 h 22.56 v -7.5977 h -22.56 V 8.28125 h 24.96 V 0.703125 H 1798.6 V 70.4102"
       style="fill:#231f20;fill-opacity:1;fill-rule:nonzero;stroke:none"
       transform="matrix(0.13333333,0,0,-0.13333333,0,26.666667)"
       clip-path="url(#clipPath48)" />
    <path
       id="path49"
       d="m 1847.74,70.4102 h 17.85 c 7.4,0 11.5,-1.7969 14.71,-4.7852 3.57,-3.3984 5.17,-8.1836 5.17,-13.2812 0,-7.4024 -3.49,-14.4922 -13.77,-16.6797 v -0.2149 c 4.18,-0.7812 6.2,-2.7734 7.58,-6.7773 l 9.79,-27.968775 h -9.49 l -7.99,23.574175 c -2,5.8008 -4.5,7.9883 -11.08,7.9883 h -4 V 0.703125 h -8.77 z m 8.77,-30.9571 h 6.8 c 9.39,0 12.98,6.211 12.98,12.2852 0,7.7929 -5.09,11.4844 -12.79,11.4844 h -6.99 V 39.4531"
       style="fill:#231f20;fill-opacity:1;fill-rule:nonzero;stroke:none"
       transform="matrix(0.13333333,0,0,-0.13333333,0,26.666667)"
       clip-path="url(#clipPath50)" />
    <path
       id="path51"
       d="m 1902.54,0.722656 h 8.7891 v 69.6875 h -8.7891 z"
       style="fill:#231f20;fill-opacity:1;fill-rule:nonzero;stroke:none"
       transform="matrix(0.13333333,0,0,-0.13333333,0,26.666667)"
       clip-path="url(#clipPath52)" />
    <path
       id="path53"
       d="m 1929.73,70.4102 h 10.88 l 26.27,-57.5196 h 0.2 v 57.5196 h 8.39 V 0.703125 h -10.89 L 1938.31,57.832 h -0.2 V 0.703125 h -8.38 V 70.4102"
       style="fill:#231f20;fill-opacity:1;fill-rule:nonzero;stroke:none"
       transform="matrix(0.13333333,0,0,-0.13333333,0,26.666667)"
       clip-path="url(#clipPath54)" />
    <path
       id="path55"
       d="M 2039.58,3.61328 C 2035.49,2.10938 2028.48,0 2022.31,0 c -22.07,0 -31.37,16.7969 -31.37,35.6641 0,21.7773 12.7,35.4492 30.86,35.4492 6,0 11.58,-0.8008 16.39,-3.1055 v -8.7695 c -5.29,2.6953 -11.19,4.2773 -16.29,4.2773 -11.39,0 -21.78,-9.082 -21.78,-26.0547 0,-17.9687 7.21,-29.86324 22.38,-29.86324 2.8,0 6.39,0.68359 8.7,1.89453 V 31.4648 h -11.7 v 7.5977 h 20.08 V 3.61328"
       style="fill:#231f20;fill-opacity:1;fill-rule:nonzero;stroke:none"
       transform="matrix(0.13333333,0,0,-0.13333333,0,26.666667)"
       clip-path="url(#clipPath56)" />
    <path
       id="path57"
       d="M 1266.76,196.371 V 0.722656"
       style="fill:#231f20;fill-opacity:1;fill-rule:nonzero;stroke:#231f20;stroke-width:5;stroke-linecap:butt;stroke-linejoin:miter;stroke-miterlimit:4;stroke-dasharray:none;stroke-opacity:1"
       transform="matrix(0.13333333,0,0,-0.13333333,0,26.666667)"
       clip-path="url(#clipPath58)" />
    <path
       id="path59"
       d="M 51.0977,0.820312 H 0 V 196.344 H 69.1992 L 159.922,61.2891 245.25,196.344 h 71.898 V 0.820312 h -50.39 V 144.605 L 176.039,0.820312 h -33.59 L 51.0703,144.605 51.0977,0.820312"
       style="fill:#231f20;fill-opacity:1;fill-rule:nonzero;stroke:none"
       transform="matrix(0.13333333,0,0,-0.13333333,0,26.666667)"
       clip-path="url(#clipPath60)" />
    <path
       id="path61"
       d="m 353.09,147.621 c 0,13.457 6.168,24.934 18.48,34.445 12.321,9.52 27.332,14.278 45.024,14.278 H 670.25 V 144.605 H 403.492 V 121.09 H 606.41 c 21.27,0 37.227,-3.473 47.883,-10.426 10.629,-6.934 15.957,-18.9062 15.957,-35.957 V 52.5586 C 670.25,35.3125 664.199,22.3828 652.102,13.75 640,5.11719 624.77,0.820312 606.41,0.820312 H 353.09 V 52.5586 H 617.844 V 74.707 H 416.262 c -19.258,0.4492 -34.504,4.4922 -45.7,12.1094 -11.191,7.6172 -17.023,19.0236 -17.472,34.2736 v 26.531"
       style="fill:#231f20;fill-opacity:1;fill-rule:nonzero;stroke:none"
       transform="matrix(0.13333333,0,0,-0.13333333,0,26.666667)"
       clip-path="url(#clipPath62)" />
    <path
       id="path63"
       d="m 979.004,53.9062 h 44.326 V 0.820312 H 769.691 c -17.699,0 -32.711,4.746098 -45.035,14.277388 -12.316,9.5117 -18.457,20.9961 -18.457,34.4335 V 122.438 H 1023.33 V 76.0547 H 756.582 V 53.9062 h 222.422"
       style="fill:#231f20;fill-opacity:1;fill-rule:nonzero;stroke:none"
       transform="matrix(0.13333333,0,0,-0.13333333,0,26.666667)"
       clip-path="url(#clipPath64)" />
    <path
       id="path65"
       d="m 706.34,144.73 v 3.028 c 0,13.43 6.148,24.902 18.469,34.426 12.32,9.519 27.332,14.285 45.019,14.285 H 1023.48 V 144.73 H 706.34"
       style="fill:#7b7979;fill-opacity:1;fill-rule:nonzero;stroke:none"
       transform="matrix(0.13333333,0,0,-0.13333333,0,26.666667)"
       clip-path="url(#clipPath66)" />
  </g>
</svg>
