<?xml version="1.0" encoding="UTF-8" standalone="no"?>
<!-- Created with Inkscape (http://www.inkscape.org/) -->

<svg
   version="1.1"
   id="svg1"
   width="566.92932"
   height="188.976"
   viewBox="0 0 566.92932 188.976"
   sodipodi:docname="allg_einfluss_querdehnzahl_detail.pdf"
   xmlns:inkscape="http://www.inkscape.org/namespaces/inkscape"
   xmlns:sodipodi="http://sodipodi.sourceforge.net/DTD/sodipodi-0.dtd"
   xmlns="http://www.w3.org/2000/svg"
   xmlns:svg="http://www.w3.org/2000/svg">
  <defs
     id="defs1">
    <clipPath
       clipPathUnits="userSpaceOnUse"
       id="clipPath14">
      <path
         d="M -0.00426,-0.00142 V 141.7337 H 425.20111 V -0.00142 H -0.00426"
         transform="matrix(1,0,0,-1,-49.706281,76.398592)"
         clip-rule="evenodd"
         id="path14" />
    </clipPath>
    <clipPath
       clipPathUnits="userSpaceOnUse"
       id="clipPath15">
      <path
         d="M -0.00426,-0.00142 V 141.7337 H 425.20111 V -0.00142 H -0.00426"
         transform="matrix(1,0,0,-1,-58.793231,72.264732)"
         clip-rule="evenodd"
         id="path15" />
    </clipPath>
    <clipPath
       clipPathUnits="userSpaceOnUse"
       id="clipPath16">
      <path
         d="M -0.00426,-0.00142 V 141.7337 H 425.20111 V -0.00142 H -0.00426"
         transform="matrix(1,0,0,-1,-71.753102,99.771992)"
         clip-rule="evenodd"
         id="path16" />
    </clipPath>
    <clipPath
       clipPathUnits="userSpaceOnUse"
       id="clipPath17">
      <path
         d="M -0.00426,-0.00142 V 141.7337 H 425.20111 V -0.00142 H -0.00426"
         transform="matrix(1,0,0,-1,-88.933675,125.55628)"
         clip-rule="evenodd"
         id="path17" />
    </clipPath>
    <clipPath
       clipPathUnits="userSpaceOnUse"
       id="clipPath18">
      <path
         d="M -0.00426,-0.00142 V 141.7337 H 425.20111 V -0.00142 H -0.00426"
         transform="matrix(1,0,0,-1,-48.577021,114.13658)"
         clip-rule="evenodd"
         id="path18" />
    </clipPath>
    <clipPath
       clipPathUnits="userSpaceOnUse"
       id="clipPath19">
      <path
         d="M -0.00426,-0.00142 V 141.7337 H 425.20111 V -0.00142 H -0.00426"
         transform="matrix(1,0,0,-1,-142.41195,54.571959)"
         clip-rule="evenodd"
         id="path19" />
    </clipPath>
    <clipPath
       clipPathUnits="userSpaceOnUse"
       id="clipPath20">
      <path
         d="M -0.00426,-0.00142 V 141.7337 H 425.20111 V -0.00142 H -0.00426"
         transform="matrix(1,0,0,-1,-151.49892,50.438101)"
         clip-rule="evenodd"
         id="path20" />
    </clipPath>
    <clipPath
       clipPathUnits="userSpaceOnUse"
       id="clipPath21">
      <path
         d="M -0.00426,-0.00142 V 141.7337 H 425.20111 V -0.00142 H -0.00426"
         transform="matrix(1,0,0,-1,-19.6696,81.521982)"
         clip-rule="evenodd"
         id="path21" />
    </clipPath>
    <clipPath
       clipPathUnits="userSpaceOnUse"
       id="clipPath22">
      <path
         d="M -0.00426,-0.00142 V 141.7337 H 425.20111 V -0.00142 H -0.00426"
         transform="matrix(1,0,0,-1,-142.09743,115.57562)"
         clip-rule="evenodd"
         id="path22" />
    </clipPath>
    <clipPath
       clipPathUnits="userSpaceOnUse"
       id="clipPath23">
      <path
         d="M -0.00426,-0.00142 V 141.7337 H 425.20111 V -0.00142 H -0.00426"
         transform="matrix(1,0,0,-1,-223.19925,112.14696)"
         clip-rule="evenodd"
         id="path23" />
    </clipPath>
    <clipPath
       clipPathUnits="userSpaceOnUse"
       id="clipPath24">
      <path
         d="M -0.00426,-0.00142 V 141.7337 H 425.20111 V -0.00142 H -0.00426"
         transform="matrix(1,0,0,-1,-229.13491,108.0131)"
         clip-rule="evenodd"
         id="path24" />
    </clipPath>
    <clipPath
       clipPathUnits="userSpaceOnUse"
       id="clipPath25">
      <path
         d="M -0.00426,-0.00142 V 141.7337 H 425.20111 V -0.00142 H -0.00426"
         transform="matrix(1,0,0,-1,-188.38044,38.165753)"
         clip-rule="evenodd"
         id="path25" />
    </clipPath>
    <clipPath
       clipPathUnits="userSpaceOnUse"
       id="clipPath26">
      <path
         d="M -0.00426,-0.00142 V 141.7337 H 425.20111 V -0.00142 H -0.00426"
         transform="matrix(1,0,0,-1,-202.68433,34.031903)"
         clip-rule="evenodd"
         id="path26" />
    </clipPath>
    <clipPath
       clipPathUnits="userSpaceOnUse"
       id="clipPath27">
      <path
         d="M -0.00426,-0.00142 V 141.7337 H 425.20111 V -0.00142 H -0.00426"
         transform="matrix(1,0,0,-1,-331.73065,22.970873)"
         clip-rule="evenodd"
         id="path27" />
    </clipPath>
    <clipPath
       clipPathUnits="userSpaceOnUse"
       id="clipPath28">
      <path
         d="M -0.00426,-0.00142 V 141.7337 H 425.20111 V -0.00142 H -0.00426"
         transform="matrix(1,0,0,-1,-331.73065,8.7976427)"
         clip-rule="evenodd"
         id="path28" />
    </clipPath>
  </defs>
  <sodipodi:namedview
     id="namedview1"
     pagecolor="#ffffff"
     bordercolor="#000000"
     borderopacity="0.25"
     inkscape:showpageshadow="2"
     inkscape:pageopacity="0.0"
     inkscape:pagecheckerboard="0"
     inkscape:deskcolor="#d1d1d1">
    <inkscape:page
       x="0"
       y="0"
       inkscape:label="1"
       id="page1"
       width="566.92932"
       height="188.976"
       margin="0"
       bleed="0" />
  </sodipodi:namedview>
  <g
     id="g1"
     inkscape:groupmode="layer"
     inkscape:label="1">
    <path
       id="path1"
       d="m 189.96021,64.11366 7.0101,-2.9212 7.0382,-2.64252 3.53846,-1.12965 3.55603,-0.95546 3.57708,-0.74645 3.60172,-0.50257 3.67017,-0.23665 3.69534,0.0128 3.71689,0.22662 3.73489,0.40479 7.50934,1.2016 7.53808,1.48666 m -26.31237,37.55306 7.0101,-2.92121 7.03824,-2.64252 3.53842,-1.12965 3.55603,-0.95546 3.57709,-0.74644 3.60171,-0.5026 3.67017,-0.23663 3.69534,0.0128 3.71689,0.22662 3.73489,0.40479 7.50934,1.2016 7.53809,1.48666 m -90.06024,-25.94899 3.80972,-1.60766 3.82522,-1.56584 3.8563,-1.48215 3.90286,-1.35662 2.29385,-0.71293 2.3147,-0.64302 2.33533,-0.55965 2.35583,-0.46283 2.01868,-0.30879 2.02975,-0.22952 2.03724,-0.15071 2.04107,-0.07238 2.46262,0.01415 2.46042,0.1138 2.45578,0.19978 2.44867,0.2721 3.90612,0.55575 3.88764,0.66873 3.87533,0.74405 3.86917,0.78171 2.65391,-6.57091 m 29.22003,38.32193 2.6539,-6.57091 m -34.52784,-25.18011 2.53422,4.73666 2.66226,4.61231 1.41913,2.22067 1.49911,2.14293"
       style="fill:none;stroke:#000000;stroke-width:0.3685;stroke-linecap:round;stroke-linejoin:round;stroke-miterlimit:10;stroke-dasharray:none;stroke-opacity:1"
       transform="matrix(1.3333333,0,0,-1.3333333,0,188.976)" />
    <path
       id="path2"
       d="m 256.26123,72.0242 1.59515,2.04967 1.70716,1.94084 2.16849,2.13353 2.32394,1.9825 2.45718,1.85307 2.56821,1.74521 5.38071,3.25311 5.55838,3.08052 m -29.22003,-38.32193 2.53424,4.73667 2.66223,4.61232 1.41913,2.22065 1.49914,2.14293 1.59515,2.04967 1.70716,1.94086 2.16849,2.13351 2.32394,1.9825 2.45718,1.85307 2.56821,1.74521 5.38071,3.25311 5.55835,3.08052 m -92.71414,-19.37808 2.53424,4.73668 2.66223,4.61231 1.41913,2.22065 1.49914,2.14293 1.59515,2.04967 1.70716,1.94086 2.16849,2.13351 2.32394,1.9825 2.45718,1.85307 2.56821,1.74521 5.38071,3.25311 5.55835,3.08053 m -20.45688,-14.04793 2.56329,-1.21027 m 2.05063,-0.9682 2.56329,-1.21025 m 2.0745,-0.91431 2.61944,-1.08343 m 2.09555,-0.86675 2.3389,-0.9674 0.28793,-0.09612 m 2.15107,-0.71802 1.66439,-0.55557 1.04474,-0.27362 m 2.19373,-0.57455 0.88293,-0.23125 1.89267,-0.33397 m 2.23322,-0.39407 0.0171,-0.003 2.80881,-0.21876 m 2.26351,-0.09203 2.2288,0.03415 0.60327,0.05271 m 2.25912,0.19738 0.28458,0.02488 2.5213,0.37472 m 2.2294,0.41202 1.57745,0.31441 1.18824,0.30264 m 2.19754,0.55971 2.74694,0.69963"
       style="fill:none;stroke:#000000;stroke-width:0.3685;stroke-linecap:round;stroke-linejoin:round;stroke-miterlimit:10;stroke-dasharray:none;stroke-opacity:1"
       transform="matrix(1.3333333,0,0,-1.3333333,0,188.976)" />
    <path
       id="path3"
       d="m 255.13708,74.71008 2.719,0.80139 m -56.47882,6.30529 v 0 m 58.18628,-5.80205 v 0 m -10.09009,-20.98853 1.33725,2.49939 m 2.33755,4.21328 1.41706,2.45503 m 2.65542,4.01959 0.36747,0.52527 1.34726,1.73112 m 3.25985,3.54316 0.86368,0.84976 1.23477,1.05334 m 3.80246,2.95627 2.31211,1.57117 m 4.15734,2.51349 1.22336,0.73962 1.22898,0.68111 m 4.21487,2.33595 0.1145,0.06348 m -29.46689,-27.25211 0.1272,0.23775 m 3.77069,6.34678 0.15265,0.23887 m 4.48346,5.83958 0.18723,0.21284 m 5.44873,4.94776 0.22631,0.17068 m 6.10575,4.11776 0.24255,0.14665 m 6.3764,3.69328 0.24793,0.13741 M 249.47345,55.02618 v 0 m 31.87393,31.75103 v 0 m -93.09857,-29.76494 6.82413,-2.47307 6.84546,-2.26518 3.43737,-0.98969 3.45069,-0.85975 3.46667,-0.70388 3.48532,-0.52197 4.30991,-0.36858 4.33801,-0.09404 4.36215,0.14127 4.38227,0.33736 8.80874,1.10612 8.84089,1.41986 m -60.84021,12.37294 -1.7114,-7.10139 m 0.87759,3.6416 2.64618,-1.0164 m 4.49845,-1.72789 0.41247,-0.15844 2.26215,-0.77984 m 4.55578,-1.57056 0.76459,-0.26358 1.94519,-0.56613 m 4.6604,-1.22101 1.02768,-0.24937 1.74747,-0.32346 m 4.76456,-0.70473 1.19744,-0.14212 1.62687,-0.07924 m 4.81625,-0.06504 0.94336,0.01201 1.88724,0.12242 m 4.79782,0.43898 0.76971,0.0831 2.03617,0.31553 m 4.76205,0.73799 0.70212,0.10881 2.08722,0.39432 m 4.73514,0.89456 0.70074,0.1324"
       style="fill:none;stroke:#000000;stroke-width:0.3685;stroke-linecap:round;stroke-linejoin:round;stroke-miterlimit:10;stroke-dasharray:none;stroke-opacity:1"
       transform="matrix(1.3333333,0,0,-1.3333333,0,188.976)" />
    <path
       id="path4"
       d="m 193.8895,58.82434 0.26461,-0.10164 m 6.93543,-2.49048 0.268,-0.09239 m 7.03486,-2.18823 0.27545,-0.06685 m 7.21008,-1.5116 0.28149,-0.0334 m 7.34147,-0.58616 0.28344,0.0036 m 7.35953,0.32846 0.28183,0.03042 m 7.30145,0.98932 0.28012,0.04341 m 7.25861,1.2714 0.27853,0.05262 m -57.418,6.18105 v 0 m 60.34705,-5.62769 v 0 m -44.11914,3.07521 1.33725,2.49939 m 1.06979,1.99953 0.1272,0.23775 1.28226,2.22151 m 1.13363,1.96402 0.24634,0.42677 1.26108,1.97335 m 1.28973,1.86497 0.36747,0.52528 1.34722,1.73113 m 1.47907,1.7182 0.47601,0.54118 1.50687,1.48256 m 1.68072,1.52033 1.30484,1.11314 0.89383,0.67407 m 1.81946,1.35303 2.3121,1.57117 m 1.97416,1.19356 2.42578,1.46659 m 1.96179,1.13666 2.47934,1.37409 m 1.98349,1.09927 0.1145,0.06348 M 205.35431,58.10139 v 0 m 31.87393,31.75103 v 0 m -3.87744,-15.76503 5.89008,4.8137 9.19113,0.22151 -5.89008,-4.81372 -9.19113,-0.22149 M 54.90533,58.12294 v -7.08661 m 63.28693,-0.48801 v -7.0866 m 31.81445,39.31372 V 75.68883 M 118.19226,43.46172 150.00671,75.68883 M 118.19226,43.46172 54.90533,51.03633 m 63.28693,-0.48801 -63.28693,7.57462 m 63.28693,-7.57462 31.81445,32.22712 M 54.90533,58.12294 86.71979,90.35005 m 63.28692,-7.57461 -63.28692,7.57461 M 54.90533,54.57964 55.62602,54.49338 m 4.78475,-0.57266 2.81456,-0.33687 m 4.78476,-0.57268 2.81454,-0.33687 m 4.78476,-0.57266 2.81456,-0.33687 m 4.78474,-0.57268 2.81456,-0.33685 m 4.78475,-0.57268 2.81456,-0.33687 m 4.78474,-0.57267 2.81456,-0.33686 m 4.78476,-0.57267 2.81455,-0.33687 m 4.78476,-0.57266 2.81456,-0.33687 m -58.54282,7.0068 0.28145,-0.03369"
       style="fill:none;stroke:#000000;stroke-width:0.3685;stroke-linecap:round;stroke-linejoin:round;stroke-miterlimit:10;stroke-dasharray:none;stroke-opacity:1"
       transform="matrix(1.3333333,0,0,-1.3333333,0,188.976)" />
    <path
       id="path5"
       d="m 65.47697,53.31435 0.28147,-0.03368 m 7.31784,-0.87585 0.28146,-0.0337 m 7.31786,-0.87583 0.28145,-0.0337 m 7.31785,-0.87585 0.28145,-0.03369 m 7.31786,-0.87584 0.28144,-0.03369 m 7.31786,-0.87586 0.28146,-0.03367 m 7.31784,-0.87586 0.28147,-0.03369 m -56.44895,6.7562 v 0 m 63.28693,-7.57462 v 0 l 0.80963,0.82013 m 3.38545,3.42937 1.99144,2.01727 m 3.38546,3.42935 1.99144,2.01727 m 3.38543,3.42937 1.99146,2.01727 m 3.38544,3.42936 1.99145,2.01727 m 3.38544,3.42937 1.99145,2.01727 m 3.38544,3.42935 0.73492,0.74446 m -29.41166,-29.79315 0.19914,0.20172 m 5.17775,5.2449 0.19914,0.20173 m 5.17774,5.2449 0.19915,0.20174 m 5.17774,5.2449 0.19916,0.20172 m 5.17773,5.2449 0.19916,0.20174 m 5.17773,5.2449 0.19916,0.20173 M 118.19226,47.00502 v 0 m 31.81445,32.22711 v 0 M 10.97557,63.38077 42.79004,95.60788 m 110.88473,-9.1644 25.44074,25.7507 M 90.38783,94.0181 l 25.44074,25.7507 m -2.76354,-2.8194 63.28693,-7.57461 m -63.28693,7.57461 3.16638,-0.37897 m -3.16638,0.37897 v 0 l 3.00582,0.0685 -0.10106,-0.84437 -2.90476,0.77589 m 63.28693,-7.57461 -3.16638,0.37896 m 3.16638,-0.37896 v 0 l -2.90476,0.77589 -0.10104,-0.84436 3.0058,0.0685"
       style="fill:none;stroke:#000000;stroke-width:0.3685;stroke-linecap:round;stroke-linejoin:round;stroke-miterlimit:10;stroke-dasharray:none;stroke-opacity:1"
       transform="matrix(1.3333333,0,0,-1.3333333,0,188.976)" />
    <path
       id="path6"
       d="m 389.58762,76.74875 c 0,19.1702 -15.54053,34.71071 -34.71073,34.71071 m 0,0 c -19.17016,0 -34.71069,-15.54051 -34.71069,-34.71071 m 0,0 c 0,-19.1702 15.54053,-34.71071 34.71069,-34.71071 m 0,0 c 19.1702,0 34.71073,15.54051 34.71073,34.71071"
       style="fill:none;stroke:#000000;stroke-width:0.3685;stroke-linecap:round;stroke-linejoin:round;stroke-miterlimit:10;stroke-dasharray:none;stroke-opacity:1"
       transform="matrix(1.3333333,0,0,-1.3333333,0,188.976)" />
    <path
       id="path7"
       d="m 243.69186,79.00836 4.74512,3.66875 4.76279,3.59074 4.79812,3.43476 4.85117,3.20074 4.92188,2.88873 5.01022,2.49874 2.54379,1.07873 2.57251,0.952 2.60343,0.81547 2.63656,0.66924 2.6189,0.5079 2.65072,0.36727 2.68052,0.23604 2.70809,0.11416 5.49054,-0.0998 5.5755,-0.47475 5.6435,-0.77472 5.69449,-0.99971 5.72845,-1.1497 5.74545,-1.22469 m -79.27975,-15.64938 0.33588,0.26076 m -5.03788,-3.91132 v 0 l 4.18048,4.32228 1.04303,-1.34343 -5.22351,-2.97885"
       style="fill:none;stroke:#000000;stroke-width:0.3685;stroke-linecap:round;stroke-linejoin:round;stroke-miterlimit:10;stroke-dasharray:none;stroke-opacity:1"
       transform="matrix(1.3333333,0,0,-1.3333333,0,188.976)" />
    <path
       id="path8"
       d="m 248.91537,81.98721 -1.04303,1.34343 -4.18048,-4.32228 z"
       style="fill:#000000;fill-opacity:1;fill-rule:nonzero;stroke:none"
       transform="matrix(1.3333333,0,0,-1.3333333,0,188.976)" />
    <path
       id="path9"
       d="m 201.39874,81.85976 1.26752,2.53547 m 1.01401,2.02838 1.26751,2.53547 m 1.01401,2.02838 1.26752,2.53547 m 1.01401,2.02839 1.26751,2.53547 m 1.01401,2.02838 1.26749,2.53548 m 1.01401,2.02838 1.26751,2.53548 m 1.01401,2.02836 1.26752,2.53548 m 1.014,2.02838 1.26752,2.53548 m 1.01401,2.02838 1.26752,2.53548 m 1.014,2.02838 1.26752,2.53547 m 1.01401,2.02837 1.26749,2.53549 m 1.01403,2.02838 1.26749,2.53547 m 1.01401,2.02838 0.92187,1.84405 m -28.32159,-56.6533 v 0 m 28.32159,56.6533 v 0 m 0.13813,-0.28888 1.22286,-2.55731 m 0.97828,-2.04584 1.22284,-2.55731 m 0.97827,-2.04587 1.22287,-2.55731 m 0.97827,-2.04585 1.22284,-2.55731 m 0.97827,-2.04586 1.22287,-2.55731 m 0.97827,-2.04585 1.22284,-2.55731 m 0.9783,-2.04586 1.22284,-2.55731 m 0.97827,-2.04585 1.22284,-2.55731 m 0.9783,-2.04585 1.22284,-2.55732 m 0.97828,-2.04585 1.22283,-2.55733 m 0.97831,-2.04585 1.22284,-2.55731 m 0.97827,-2.04585 1.22287,-2.55732 m 0.97827,-2.04585 1.22284,-2.55731 m 0.97827,-2.04585 1.11191,-2.32532 m -29.86469,62.45535 v 0 m 29.86469,-62.45535 v 0"
       style="fill:none;stroke:#000000;stroke-width:0.3685;stroke-linecap:round;stroke-linejoin:round;stroke-miterlimit:10;stroke-dasharray:none;stroke-opacity:1"
       transform="matrix(1.3333333,0,0,-1.3333333,0,188.976)" />
    <path
       id="path10"
       d="m 221.77692,122.62335 c 4.88934,-2.44426 10.63327,-2.49463 15.56472,-0.1365"
       style="fill:none;stroke:#000000;stroke-width:0.3685;stroke-linecap:round;stroke-linejoin:round;stroke-miterlimit:10;stroke-dasharray:none;stroke-opacity:1"
       transform="matrix(1.3333333,0,0,-1.3333333,0,188.976)" />
    <path
       id="path11"
       d="m 222.45227,22.93059 c -2.65066,2.67409 -5.76031,2.63933 -8.39661,-0.09384"
       style="fill:none;stroke:#000000;stroke-width:0.3685;stroke-linecap:round;stroke-linejoin:round;stroke-miterlimit:10;stroke-dasharray:none;stroke-opacity:1"
       transform="matrix(1.3333333,0,0,-1.3333333,0,188.976)" />
    <path
       id="path12"
       d="m 205.86038,56.05037 0.67908,-2.75211 m 0.54324,-2.20169 0.67908,-2.7521 m 0.54324,-2.20168 0.67908,-2.7521 m 0.54324,-2.20169 0.67908,-2.75211 m 0.54324,-2.20169 0.67908,-2.75211 m 0.54324,-2.20167 0.67908,-2.75211 m 0.54325,-2.20169 0.67907,-2.7521 m 0.54325,-2.20168 0.67907,-2.75211 m 0.54328,-2.20169 0.67904,-2.7521 m 0.54328,-2.20168 0.67904,-2.7521 m 0.54328,-2.20169 0.21622,-0.87639 m -12.94553,52.46531 v 0 M 218.29984,5.63608 v 0 m 0.16909,0.72011 0.64795,2.75959 m 0.51834,2.20769 0.64795,2.75958 m 0.51837,2.20769 0.64795,2.7596 m 0.51837,2.20767 0.64795,2.7596 m 0.51835,2.20769 0.64794,2.75959 m 0.51838,2.20768 0.64795,2.75959 m 0.51834,2.20768 0.64795,2.75959 m 0.51837,2.20769 0.64795,2.7596 m 0.51837,2.20767 0.64795,2.7596 m 0.51834,2.20767 0.64795,2.7596 m 0.51837,2.20769 0.64795,2.75959 m 0.51834,2.20768 0.64795,2.75959 m 0.51837,2.20769 0.64795,2.7596 m 0.51837,2.20767 0.64795,2.7596 m 0.51834,2.20767 0.64795,2.7596 m 0.51837,2.20769 0.64795,2.75959 m 0.51834,2.20768 0.64795,2.75959 M 218.29984,5.63608 v 0 m 19.75241,84.12495 v 0 m 80.79492,-78.38386 h 10.34646 m -10.29599,14.10237 h 4.25196 m 2.83465,0 h 3.20938 m -10.34646,0 v 0 m 10.34646,0 v 0 m 8.53739,42.81424 3.29233,2.69069 m 2.19488,1.79379 3.29233,2.69069 m 2.19488,1.79379 3.29233,2.69069 m 2.19489,1.79379 3.29233,2.69069 m 2.19488,1.79379 0.12885,0.10531 m -23.5047,-19.20948 v 0 m 23.5047,19.20948 v 0 l 3.88382,0.09359 m 2.83383,0.0683 4.25073,0.10243 m 2.83383,0.0683 0.67417,0.01624 m -14.47638,-0.34886 v 0 m 14.47638,0.34886 v 0 m -23.5047,-19.20948 1.35629,1.10845"
       style="fill:none;stroke:#000000;stroke-width:0.3685;stroke-linecap:round;stroke-linejoin:round;stroke-miterlimit:10;stroke-dasharray:none;stroke-opacity:1"
       transform="matrix(1.3333333,0,0,-1.3333333,0,188.976)" />
    <path
       id="path13"
       d="m 354.33157,70.37863 3.29233,2.69069 m 2.19489,1.79379 3.29232,2.69069 m 2.19489,1.7938 3.29233,2.69068 m 2.19488,1.7938 3.29233,2.69069 M 350.7804,67.47639 v 0 m 23.5047,19.20948 v 0 m -35.64792,-19.50211 4.25073,0.10243 m 2.8338,0.0683 4.25073,0.10243 m -13.66842,-0.32939 v 0 m 14.47638,0.34886 v 0 m -14.33735,3.13628 14.72516,12.0343 22.97785,0.55376 -14.72516,-12.0343 -22.97785,-0.55376"
       style="fill:none;stroke:#000000;stroke-width:0.3685;stroke-linecap:round;stroke-linejoin:round;stroke-miterlimit:10;stroke-dasharray:none;stroke-opacity:1"
       transform="matrix(1.3333333,0,0,-1.3333333,0,188.976)" />
    <text
       id="text13"
       xml:space="preserve"
       transform="matrix(1.3333333,0,0,1.3333333,66.27504,87.111213)"
       clip-path="url(#clipPath14)"><tspan
         style="font-style:italic;font-variant:normal;font-weight:normal;font-stretch:normal;font-size:10.0071px;font-family:'Palatino Linotype';writing-mode:lr-tb;fill:#000000;fill-opacity:1;fill-rule:nonzero;stroke:none"
         x="0"
         y="0"
         id="tspan13">m</tspan></text>
    <text
       id="text14"
       xml:space="preserve"
       transform="matrix(1.3333333,0,0,1.3333333,78.390973,92.623027)"
       clip-path="url(#clipPath15)"><tspan
         style="font-style:italic;font-variant:normal;font-weight:normal;font-stretch:normal;font-size:6.00428px;font-family:'Palatino Linotype';writing-mode:lr-tb;fill:#000000;fill-opacity:1;fill-rule:nonzero;stroke:none"
         x="0 3.00214"
         y="0"
         sodipodi:role="line"
         id="tspan14">xx</tspan></text>
    <text
       id="text15"
       xml:space="preserve"
       transform="matrix(1.3333333,0,0,1.3333333,95.6708,55.94668)"
       clip-path="url(#clipPath16)"><tspan
         style="font-style:italic;font-variant:normal;font-weight:normal;font-stretch:normal;font-size:10.0071px;font-family:'Palatino Linotype';writing-mode:lr-tb;fill:#000000;fill-opacity:1;fill-rule:nonzero;stroke:none"
         x="0"
         y="0"
         id="tspan15">z</tspan></text>
    <text
       id="text16"
       xml:space="preserve"
       transform="matrix(1.3333333,0,0,1.3333333,118.57823,21.567627)"
       clip-path="url(#clipPath17)"><tspan
         style="font-style:italic;font-variant:normal;font-weight:normal;font-stretch:normal;font-size:10.0071px;font-family:'Palatino Linotype';writing-mode:lr-tb;fill:#000000;fill-opacity:1;fill-rule:nonzero;stroke:none"
         x="0"
         y="0"
         id="tspan16">x</tspan></text>
    <text
       id="text17"
       xml:space="preserve"
       transform="matrix(1.3333333,0,0,1.3333333,64.76936,36.793893)"
       clip-path="url(#clipPath18)"><tspan
         style="font-style:italic;font-variant:normal;font-weight:normal;font-stretch:normal;font-size:10.0071px;font-family:'Palatino Linotype';writing-mode:lr-tb;fill:#000000;fill-opacity:1;fill-rule:nonzero;stroke:none"
         x="0"
         y="0"
         id="tspan17">y</tspan></text>
    <text
       id="text18"
       xml:space="preserve"
       transform="matrix(1.3333333,0,0,1.3333333,189.8826,116.21339)"
       clip-path="url(#clipPath19)"><tspan
         style="font-style:italic;font-variant:normal;font-weight:normal;font-stretch:normal;font-size:10.0071px;font-family:'Palatino Linotype';writing-mode:lr-tb;fill:#000000;fill-opacity:1;fill-rule:nonzero;stroke:none"
         x="0"
         y="0"
         id="tspan18">m</tspan></text>
    <text
       id="text19"
       xml:space="preserve"
       transform="matrix(1.3333333,0,0,1.3333333,201.99855,121.7252)"
       clip-path="url(#clipPath20)"><tspan
         style="font-style:italic;font-variant:normal;font-weight:normal;font-stretch:normal;font-size:6.00428px;font-family:'Palatino Linotype';writing-mode:lr-tb;fill:#000000;fill-opacity:1;fill-rule:nonzero;stroke:none"
         x="0 3.00214"
         y="0"
         sodipodi:role="line"
         id="tspan19">xx</tspan></text>
    <text
       id="text20"
       xml:space="preserve"
       transform="matrix(1.3333333,0,0,1.3333333,26.226133,80.280027)"
       clip-path="url(#clipPath21)"><tspan
         style="font-style:italic;font-variant:normal;font-weight:normal;font-stretch:normal;font-size:10.0071px;font-family:'Palatino Linotype';writing-mode:lr-tb;fill:#000000;fill-opacity:1;fill-rule:nonzero;stroke:none"
         x="0"
         y="0"
         id="tspan20">1</tspan></text>
    <text
       id="text21"
       xml:space="preserve"
       transform="matrix(1.3333333,0,0,1.3333333,189.46323,34.875173)"
       clip-path="url(#clipPath22)"><tspan
         style="font-style:italic;font-variant:normal;font-weight:normal;font-stretch:normal;font-size:10.0071px;font-family:'Palatino Linotype';writing-mode:lr-tb;fill:#000000;fill-opacity:1;fill-rule:nonzero;stroke:none"
         x="0"
         y="0"
         id="tspan21">1</tspan></text>
    <text
       id="text22"
       xml:space="preserve"
       transform="matrix(1.3333333,0,0,1.3333333,297.59899,39.44672)"
       clip-path="url(#clipPath23)"><tspan
         style="font-style:italic;font-variant:normal;font-weight:normal;font-stretch:normal;font-size:10.0071px;font-family:'Palatino Linotype';writing-mode:lr-tb;fill:#000000;fill-opacity:1;fill-rule:nonzero;stroke:none"
         x="0"
         y="0"
         id="tspan22">χ</tspan></text>
    <text
       id="text23"
       xml:space="preserve"
       transform="matrix(1.3333333,0,0,1.3333333,305.5132,44.958533)"
       clip-path="url(#clipPath24)"><tspan
         style="font-style:italic;font-variant:normal;font-weight:normal;font-stretch:normal;font-size:6.00428px;font-family:'Palatino Linotype';writing-mode:lr-tb;fill:#000000;fill-opacity:1;fill-rule:nonzero;stroke:none"
         x="0 3.00214"
         y="0"
         sodipodi:role="line"
         id="tspan23">xx</tspan></text>
    <text
       id="text24"
       xml:space="preserve"
       transform="matrix(1.3333333,0,0,1.3333333,251.17391,138.08833)"
       clip-path="url(#clipPath25)"><tspan
         style="font-style:italic;font-variant:normal;font-weight:normal;font-stretch:normal;font-size:10.0071px;font-family:'Palatino Linotype';writing-mode:lr-tb;fill:#000000;fill-opacity:1;fill-rule:nonzero;stroke:none"
         x="0 4.9835505 7.4853334"
         y="0"
         sodipodi:role="line"
         id="tspan24">ν χ</tspan></text>
    <text
       id="text25"
       xml:space="preserve"
       transform="matrix(1.3333333,0,0,1.3333333,270.24576,143.60013)"
       clip-path="url(#clipPath26)"><tspan
         style="font-style:italic;font-variant:normal;font-weight:normal;font-stretch:normal;font-size:6.00428px;font-family:'Palatino Linotype';writing-mode:lr-tb;fill:#000000;fill-opacity:1;fill-rule:nonzero;stroke:none"
         x="0 3.00214"
         y="0"
         sodipodi:role="line"
         id="tspan25">xx</tspan></text>
    <text
       id="text26"
       xml:space="preserve"
       transform="matrix(1.3333333,0,0,1.3333333,442.30752,158.34817)"
       clip-path="url(#clipPath27)"><tspan
         style="font-style:italic;font-variant:normal;font-weight:normal;font-stretch:normal;font-size:10.0071px;font-family:'Palatino Linotype';writing-mode:lr-tb;fill:#000000;fill-opacity:1;fill-rule:nonzero;stroke:none"
         x="0 5.0035648 8.8963385 12.789112 15.571095 20.014259 23.907034 31.692581"
         y="0"
         sodipodi:role="line"
         id="tspan26">verformt</tspan></text>
    <text
       id="text27"
       xml:space="preserve"
       transform="matrix(1.3333333,0,0,1.3333333,442.30752,177.24581)"
       clip-path="url(#clipPath28)"><tspan
         style="font-style:italic;font-variant:normal;font-weight:normal;font-stretch:normal;font-size:10.0071px;font-family:'Palatino Linotype';writing-mode:lr-tb;fill:#000000;fill-opacity:1;fill-rule:nonzero;stroke:none"
         x="0 5.5639644 11.127929 16.131493 20.024267 23.91704 26.699022 31.142189 35.034962 42.820511"
         y="0"
         sodipodi:role="line"
         id="tspan27">unverformt</tspan></text>
    <path
       id="path29"
       d="m 326.58304,76.99205 15.86941,0.38246 m -5.95105,-0.14342 -0.42505,-0.01025 m 6.3761,0.15367 v 0 l -5.97152,0.70673 0.041,-1.70029 5.93054,0.99356"
       style="fill:none;stroke:#000000;stroke-width:0.3685;stroke-linecap:round;stroke-linejoin:round;stroke-miterlimit:10;stroke-dasharray:none;stroke-opacity:1"
       transform="matrix(1.3333333,0,0,-1.3333333,0,188.976)" />
    <path
       id="path30"
       d="m 336.52191,76.38095 5.93054,0.99356 -5.97152,0.70673 0.041,-1.70029 z"
       style="fill:#000000;fill-opacity:1;fill-rule:nonzero;stroke:none"
       transform="matrix(1.3333333,0,0,-1.3333333,0,188.976)" />
    <path
       id="path31"
       d="m 383.43219,77.58478 -12.7522,-0.3073 m 5.95102,0.1434 0.42508,0.01026 m -6.3761,-0.15366 v 0 l 5.97153,-0.70674 -0.041,1.70029 -5.93054,-0.99355"
       style="fill:none;stroke:#000000;stroke-width:0.3685;stroke-linecap:round;stroke-linejoin:round;stroke-miterlimit:10;stroke-dasharray:none;stroke-opacity:1"
       transform="matrix(1.3333333,0,0,-1.3333333,0,188.976)" />
    <path
       id="path32"
       d="m 376.61053,78.27103 -5.93054,-0.99355 5.97153,-0.70674 -0.041,1.70029 z"
       style="fill:#000000;fill-opacity:1;fill-rule:nonzero;stroke:none"
       transform="matrix(1.3333333,0,0,-1.3333333,0,188.976)" />
    <path
       id="path33"
       d="m 39.54005,95.99686 39.8619,-4.77095 M 10.97557,63.38077 42.79004,95.60788 m -31.81447,-32.22711 2.24037,2.26942 m -2.24037,-2.26942 v 0 l 1.78842,2.41685 0.60518,-0.59744 -2.3936,-1.81941 m 31.81447,32.22711 -2.24037,-2.26944 m 2.24037,2.26944 v 0 l -2.39362,-1.81943 0.60518,-0.59743 1.78844,2.41686 M 7.7256,63.76974 47.58748,58.99879 m 21.55359,65.61844 v -22.17688 m 0,5.95276 v 0.4252 m 0,-6.37796 v 0 l 0.85039,5.95276 h -1.70078 l 0.85039,-5.95276"
       style="fill:none;stroke:#000000;stroke-width:0.3685;stroke-linecap:round;stroke-linejoin:round;stroke-miterlimit:10;stroke-dasharray:none;stroke-opacity:1"
       transform="matrix(1.3333333,0,0,-1.3333333,0,188.976)" />
    <path
       id="path34"
       d="m 68.29068,108.39311 0.85039,-5.95276 0.85039,5.95276 z"
       style="fill:#000000;fill-opacity:1;fill-rule:nonzero;stroke:none"
       transform="matrix(1.3333333,0,0,-1.3333333,0,188.976)" />
    <path
       id="path35"
       d="m 69.14107,124.61723 19.20573,-2.29867 m -5.91058,0.70741 -0.42218,0.0505 m 6.33276,-0.75795 v 0 l -5.80952,1.55179 -0.20212,-1.68874 6.01164,0.13695"
       style="fill:none;stroke:#000000;stroke-width:0.3685;stroke-linecap:round;stroke-linejoin:round;stroke-miterlimit:10;stroke-dasharray:none;stroke-opacity:1"
       transform="matrix(1.3333333,0,0,-1.3333333,0,188.976)" />
    <path
       id="path36"
       d="m 82.33516,122.18161 6.01164,0.13695 -5.80952,1.55179 z"
       style="fill:#000000;fill-opacity:1;fill-rule:nonzero;stroke:none"
       transform="matrix(1.3333333,0,0,-1.3333333,0,188.976)" />
    <path
       id="path37"
       d="m 69.14107,124.61723 -16.1579,-16.36746 m 4.18202,4.23627 0.29872,0.30258 m -4.48074,-4.53885 v 0 l 4.7872,3.63883 -1.21034,1.19487 -3.57686,-4.8337"
       style="fill:none;stroke:#000000;stroke-width:0.3685;stroke-linecap:round;stroke-linejoin:round;stroke-miterlimit:10;stroke-dasharray:none;stroke-opacity:1"
       transform="matrix(1.3333333,0,0,-1.3333333,0,188.976)" />
    <path
       id="path38"
       d="m 56.56003,113.08347 -3.57686,-4.8337 4.7872,3.63883 z"
       style="fill:#000000;fill-opacity:1;fill-rule:nonzero;stroke:none"
       transform="matrix(1.3333333,0,0,-1.3333333,0,188.976)" />
    <path
       id="path39"
       d="m 129.66028,58.6465 10.97711,11.09476 m -4.18674,-4.23162 -0.29907,-0.30226 m 4.48581,4.53388 v 0 l -4.79126,-3.6335 1.20902,-1.19622 3.58224,4.82972"
       style="fill:none;stroke:#000000;stroke-width:0.3685;stroke-linecap:round;stroke-linejoin:round;stroke-miterlimit:10;stroke-dasharray:none;stroke-opacity:1"
       transform="matrix(1.3333333,0,0,-1.3333333,0,188.976)" />
    <path
       id="path40"
       d="m 137.05515,64.91154 3.58224,4.82972 -4.79126,-3.6335 z"
       style="fill:#000000;fill-opacity:1;fill-rule:nonzero;stroke:none"
       transform="matrix(1.3333333,0,0,-1.3333333,0,188.976)" />
    <path
       id="path41"
       d="m 129.51343,58.49773 6.99325,7.05926 m -4.18942,-4.22896 -0.29922,-0.30207 m 4.48864,4.53103 v 0 l -4.79355,-3.63048 1.20826,-1.19696 3.58529,4.82744"
       style="fill:none;stroke:#000000;stroke-width:0.3685;stroke-linecap:round;stroke-linejoin:round;stroke-miterlimit:10;stroke-dasharray:none;stroke-opacity:1"
       transform="matrix(1.3333333,0,0,-1.3333333,0,188.976)" />
    <path
       id="path42"
       d="m 132.92139,60.72955 3.58529,4.82744 -4.79355,-3.63048 z"
       style="fill:#000000;fill-opacity:1;fill-rule:nonzero;stroke:none"
       transform="matrix(1.3333333,0,0,-1.3333333,0,188.976)" />
    <path
       id="path43"
       d="m 66.37335,66.22112 0.64751,0.65443 m 1.59494,1.61204 1.99368,2.01507 m 1.59496,1.61204 1.99368,2.01506 m 1.59494,1.61205 1.55739,1.57406 M 66.37335,66.22112 v 0 m 10.9771,11.09477 v 0 m -10.9771,-11.09477 4.4858,4.53387 m -4.4858,-4.53387 v 0 l 3.58223,4.82971 1.20902,-1.1962 -4.79125,-3.63351 m 4.1873,4.23217 0.04862,0.04908 m 1.59596,1.61103 1.99497,2.01378 m 1.59596,1.61104 1.75773,1.77432 m -6.99324,-7.05925 v 0 m 6.99324,7.05925 v 0 m -6.99324,-7.05925 4.48865,4.53102 m -4.48865,-4.53102 v 0 l 3.58527,4.82744 1.20827,-1.19696 -4.79354,-3.63048"
       style="fill:none;stroke:#000000;stroke-width:0.3685;stroke-linecap:round;stroke-linejoin:round;stroke-miterlimit:10;stroke-dasharray:none;stroke-opacity:1"
       transform="matrix(1.3333333,0,0,-1.3333333,0,188.976)" />
  </g>
</svg>
