<?xml version="1.0" encoding="UTF-8" standalone="no"?>
<!-- Created with Inkscape (http://www.inkscape.org/) -->

<svg
   version="1.1"
   id="svg1"
   width="566.92932"
   height="158.74001"
   viewBox="0 0 566.92932 158.74001"
   sodipodi:docname="allg_gedankenexp.pdf"
   xmlns:inkscape="http://www.inkscape.org/namespaces/inkscape"
   xmlns:sodipodi="http://sodipodi.sourceforge.net/DTD/sodipodi-0.dtd"
   xmlns="http://www.w3.org/2000/svg"
   xmlns:svg="http://www.w3.org/2000/svg">
  <defs
     id="defs1">
    <clipPath
       clipPathUnits="userSpaceOnUse"
       id="clipPath37">
      <path
         d="M -0.00426,-0.00119 V 119.0563 H 425.20111 V -0.00119 H -0.00426"
         transform="matrix(1,0,0,-1,-112.28836,22.631521)"
         clip-rule="evenodd"
         id="path37" />
    </clipPath>
    <clipPath
       clipPathUnits="userSpaceOnUse"
       id="clipPath38">
      <path
         d="M -0.00426,-0.00119 V 119.0563 H 425.20111 V -0.00119 H -0.00426"
         transform="matrix(1,0,0,-1,-112.28836,22.631521)"
         clip-rule="evenodd"
         id="path38" />
    </clipPath>
    <clipPath
       clipPathUnits="userSpaceOnUse"
       id="clipPath39">
      <path
         d="M -0.00426,-0.00119 V 119.0563 H 425.20111 V -0.00119 H -0.00426"
         transform="matrix(1,0,0,-1,-112.28836,7.2771902)"
         clip-rule="evenodd"
         id="path39" />
    </clipPath>
    <clipPath
       clipPathUnits="userSpaceOnUse"
       id="clipPath40">
      <path
         d="M -0.00426,-0.00119 V 119.0563 H 425.20111 V -0.00119 H -0.00426"
         transform="matrix(1,0,0,-1,-140.80068,7.2771902)"
         clip-rule="evenodd"
         id="path40" />
    </clipPath>
    <clipPath
       clipPathUnits="userSpaceOnUse"
       id="clipPath41">
      <path
         d="M -0.00426,-0.00119 V 119.0563 H 425.20111 V -0.00119 H -0.00426"
         transform="matrix(1,0,0,-1,-158.81374,7.2771902)"
         clip-rule="evenodd"
         id="path41" />
    </clipPath>
    <clipPath
       clipPathUnits="userSpaceOnUse"
       id="clipPath42">
      <path
         d="M -0.00426,-0.00119 V 119.0563 H 425.20111 V -0.00119 H -0.00426"
         transform="matrix(1,0,0,-1,-227.8605,7.2771902)"
         clip-rule="evenodd"
         id="path42" />
    </clipPath>
    <clipPath
       clipPathUnits="userSpaceOnUse"
       id="clipPath56">
      <path
         d="M -0.00426,-0.00119 V 119.0563 H 425.20111 V -0.00119 H -0.00426"
         transform="matrix(1,0,0,-1,-311.68938,32.897641)"
         clip-rule="evenodd"
         id="path56" />
    </clipPath>
    <clipPath
       clipPathUnits="userSpaceOnUse"
       id="clipPath58">
      <path
         d="M -0.00426,-0.00119 V 119.0563 H 425.20111 V -0.00119 H -0.00426"
         transform="matrix(1,0,0,-1,-374.41991,6.9105827)"
         clip-rule="evenodd"
         id="path58" />
    </clipPath>
    <clipPath
       clipPathUnits="userSpaceOnUse"
       id="clipPath59">
      <path
         d="M -0.00426,-0.00119 V 119.0563 H 425.20111 V -0.00119 H -0.00426"
         transform="matrix(1,0,0,-1,-35.530961,99.287552)"
         clip-rule="evenodd"
         id="path59" />
    </clipPath>
    <clipPath
       clipPathUnits="userSpaceOnUse"
       id="clipPath60">
      <path
         d="M -0.00426,-0.00119 V 119.0563 H 425.20111 V -0.00119 H -0.00426"
         transform="matrix(1,0,0,-1,-13.84221,75.288072)"
         clip-rule="evenodd"
         id="path60" />
    </clipPath>
    <clipPath
       clipPathUnits="userSpaceOnUse"
       id="clipPath61">
      <path
         d="M -0.00426,-0.00119 V 119.0563 H 425.20111 V -0.00119 H -0.00426"
         transform="matrix(1,0,0,-1,-7.1734202,106.22598)"
         clip-rule="evenodd"
         id="path61" />
    </clipPath>
  </defs>
  <sodipodi:namedview
     id="namedview1"
     pagecolor="#ffffff"
     bordercolor="#000000"
     borderopacity="0.25"
     inkscape:showpageshadow="2"
     inkscape:pageopacity="0.0"
     inkscape:pagecheckerboard="0"
     inkscape:deskcolor="#d1d1d1">
    <inkscape:page
       x="0"
       y="0"
       inkscape:label="1"
       id="page1"
       width="566.92932"
       height="158.74001"
       margin="0"
       bleed="0" />
  </sodipodi:namedview>
  <path
     id="path1"
     d="m 26.12538,42.03598 h 7.08663 l -7.08663,7.08661 m 0,-7.08661 h -7.08661 l 7.08661,7.08661 m -2.83464,-7.08661 -1.50329,-1.5033 m 4.33793,1.5033 -1.50329,-1.5033 m 4.33795,1.5033 -1.50331,-1.5033 m 4.33795,1.5033 -1.5033,-1.5033 m -9.83528,1.5033 -1.50331,-1.5033 m 382.76315,1.5033 h 7.08661 l -7.08661,7.08661 m 0,-7.08661 h -7.08661 l 7.08661,7.08661 m -7.08661,-8.85826 h 14.17322 m -60.7424,8.85826 h 53.65579 m -53.65579,-1.41733 h 3.43591 m 2.83466,0 h 4.25195 m 2.83466,0 h 4.25195 m 2.83466,0 h 4.25198 m 2.83463,0 h 4.25198 m 2.83462,0 h 4.25199 m 2.83465,0 h 4.25196 m 2.83465,0 h 4.25196 m -53.04221,0 v 0 m 53.65579,0 v 0 m -107.31158,1.41733 h 53.65579 m -53.65579,-1.41733 h 0.3988 m 2.83463,0 h 4.25198 m 2.83463,0 h 4.25198 m 2.83466,0 h 4.25195 m 2.83465,0 h 4.25196 m 2.83465,0 h 4.25196 m 2.83465,0 h 4.25199 m 2.83462,0 h 4.25198 m 2.83463,0 h 0.81607 m -53.65579,0 v 0 m 53.65579,0 v 0 m -107.31158,1.41733 h 53.65579 m -53.45947,-1.41733 h 4.25198 m 2.83462,0 h 4.25199 m 2.83462,0 h 4.25199 m 2.83462,0 h 4.25199 m 2.83465,0 h 4.25195 m 2.83466,0 h 4.25195 m 2.83466,0 h 4.25195 m 2.83466,0 h 3.85318 m -53.65579,0 v 0 m 53.65579,0 v 0 m -107.31159,1.41733 h 53.6558 m -53.6558,-1.41733 h 1.41117"
     style="fill:none;stroke:#000000;stroke-width:0.3685;stroke-linecap:round;stroke-linejoin:round;stroke-miterlimit:10;stroke-dasharray:none;stroke-opacity:1"
     transform="matrix(1.3333333,0,0,-1.3333333,0,158.74)" />
  <path
     id="path2"
     d="m 191.33859,47.70526 h 4.25196 m 2.83465,0 h 4.25199 m 2.83462,0 h 4.25198 m 2.83463,0 h 4.25198 m 2.83466,0 h 4.25195 m 2.83466,0 h 4.25195 m 2.83466,0 h 4.25195 m -51.01746,0 v 0 m 53.6558,0 v 0 m -107.31159,1.41733 h 53.65579 m -52.44708,-1.41733 h 4.25195 m 2.83466,0 h 4.25195 m 2.83466,0 h 4.25195 m 2.83466,0 h 4.25198 m 2.83463,0 h 4.25198 m 2.83463,0 h 4.25198 m 2.83465,0 h 4.25196 m 2.83465,0 h 2.84079 m -53.65579,0 v 0 m 53.65579,0 v 0 M 26.09515,49.12259 H 79.78119 M 28.34645,47.70526 h 4.25198 m 2.83464,0 h 4.25197 m 2.83464,0 h 4.25197 m 2.83466,0 h 4.25197 m 2.83464,0 h 4.25197 m 2.83464,0 h 4.25196 m 2.83466,0 h 4.25197 m 2.83464,0 h 1.82843 m -53.68604,0 v 0 m 53.68604,0 v 0 m 0,1.41733 h 53.65579 M 79.78119,47.70526 h 2.42354 m 2.83464,0 h 4.25197 m 2.83465,0 h 4.25197 m 2.83464,0 h 4.25197 m 2.83464,0 h 4.25197 m 2.83465,0 h 4.25197 m 2.83464,0 h 4.25197 m 2.83464,0 h 4.25199 m -52.02985,0 v 0 m 53.65579,0 v 0 M 326.88254,7.20558 h 42.51968 m -5.95273,0 h -0.4252 m 6.37793,0 v 0 l -5.95273,0.85039 V 6.35519 l 5.95273,0.85039"
     style="fill:none;stroke:#000000;stroke-width:0.3685;stroke-linecap:round;stroke-linejoin:round;stroke-miterlimit:10;stroke-dasharray:none;stroke-opacity:1"
     transform="matrix(1.3333333,0,0,-1.3333333,0,158.74)" />
  <path
     id="path3"
     d="m 363.44949,6.35519 5.95273,0.85039 -5.95273,0.85039 z"
     style="fill:#000000;fill-opacity:1;fill-rule:nonzero;stroke:none"
     transform="matrix(1.3333333,0,0,-1.3333333,0,158.74)" />
  <path
     id="path4"
     d="m 326.88254,7.20558 v 29.76378 m 0,-5.95276 v -0.4252 m 0,6.37796 v 0 l -0.85037,-5.95276 h 1.70077 l -0.8504,5.95276"
     style="fill:none;stroke:#000000;stroke-width:0.3685;stroke-linecap:round;stroke-linejoin:round;stroke-miterlimit:10;stroke-dasharray:none;stroke-opacity:1"
     transform="matrix(1.3333333,0,0,-1.3333333,0,158.74)" />
  <path
     id="path5"
     d="m 327.73294,31.0166 -0.8504,5.95276 -0.85037,-5.95276 z"
     style="fill:#000000;fill-opacity:1;fill-rule:nonzero;stroke:none"
     transform="matrix(1.3333333,0,0,-1.3333333,0,158.74)" />
  <path
     id="path6"
     d="m 326.88254,7.20558 3.02048,10.63959 2.56292,-0.08653 13.61768,10.40046 17.22143,2.93334"
     style="fill:none;stroke:#000000;stroke-width:0.3685;stroke-linecap:round;stroke-linejoin:round;stroke-miterlimit:10;stroke-dasharray:none;stroke-opacity:1"
     transform="matrix(1.3333333,0,0,-1.3333333,0,158.74)" />
  <path
     id="path7"
     d="M 26.06493,83.13834 H 401.6857 V 94.47693 H 26.06493 V 83.13834"
     style="fill:none;stroke:#4c4c4c;stroke-width:0.70866;stroke-linecap:round;stroke-linejoin:round;stroke-miterlimit:10;stroke-dasharray:none;stroke-opacity:1"
     transform="matrix(1.3333333,0,0,-1.3333333,0,158.74)" />
  <path
     id="path8"
     d="M 61.14001,94.47693 V 83.13834 m 0,5.95275 v 0.42521 m 0,-6.37796 v 0 l 0.85039,5.95275 h -1.70077 l 0.85038,-5.95275"
     style="fill:none;stroke:#4c4c4c;stroke-width:0.3685;stroke-linecap:round;stroke-linejoin:round;stroke-miterlimit:10;stroke-dasharray:none;stroke-opacity:1"
     transform="matrix(1.3333333,0,0,-1.3333333,0,158.74)" />
  <path
     id="path9"
     d="m 60.28963,89.09109 0.85038,-5.95275 0.85039,5.95275 z"
     style="fill:#4c4c4c;fill-opacity:1;fill-rule:nonzero;stroke:none"
     transform="matrix(1.3333333,0,0,-1.3333333,0,158.74)" />
  <path
     id="path10"
     d="M 104.77867,94.47693 V 83.13834 m 0,5.95275 v 0.42521 m 0,-6.37796 v 0 l 0.8504,5.95275 h -1.70079 l 0.85039,-5.95275"
     style="fill:none;stroke:#4c4c4c;stroke-width:0.3685;stroke-linecap:round;stroke-linejoin:round;stroke-miterlimit:10;stroke-dasharray:none;stroke-opacity:1"
     transform="matrix(1.3333333,0,0,-1.3333333,0,158.74)" />
  <path
     id="path11"
     d="m 103.92828,89.09109 0.85039,-5.95275 0.8504,5.95275 z"
     style="fill:#4c4c4c;fill-opacity:1;fill-rule:nonzero;stroke:none"
     transform="matrix(1.3333333,0,0,-1.3333333,0,158.74)" />
  <path
     id="path12"
     d="M 148.41733,94.47693 V 83.13834 m 0,5.95275 v 0.42521 m 0,-6.37796 v 0 l 0.8504,5.95275 h -1.70077 l 0.85037,-5.95275"
     style="fill:none;stroke:#4c4c4c;stroke-width:0.3685;stroke-linecap:round;stroke-linejoin:round;stroke-miterlimit:10;stroke-dasharray:none;stroke-opacity:1"
     transform="matrix(1.3333333,0,0,-1.3333333,0,158.74)" />
  <path
     id="path13"
     d="m 147.56696,89.09109 0.85037,-5.95275 0.8504,5.95275 z"
     style="fill:#4c4c4c;fill-opacity:1;fill-rule:nonzero;stroke:none"
     transform="matrix(1.3333333,0,0,-1.3333333,0,158.74)" />
  <path
     id="path14"
     d="M 192.056,94.47693 V 83.13834 m 0,5.95275 v 0.42521 m 0,-6.37796 v 0 l 0.8504,5.95275 h -1.70077 l 0.85037,-5.95275"
     style="fill:none;stroke:#4c4c4c;stroke-width:0.3685;stroke-linecap:round;stroke-linejoin:round;stroke-miterlimit:10;stroke-dasharray:none;stroke-opacity:1"
     transform="matrix(1.3333333,0,0,-1.3333333,0,158.74)" />
  <path
     id="path15"
     d="m 191.20563,89.09109 0.85037,-5.95275 0.8504,5.95275 z"
     style="fill:#4c4c4c;fill-opacity:1;fill-rule:nonzero;stroke:none"
     transform="matrix(1.3333333,0,0,-1.3333333,0,158.74)" />
  <path
     id="path16"
     d="M 235.69467,94.47693 V 83.13834 m 0,5.95275 v 0.42521 m 0,-6.37796 v 0 l 0.85037,5.95275 h -1.70077 l 0.8504,-5.95275"
     style="fill:none;stroke:#4c4c4c;stroke-width:0.3685;stroke-linecap:round;stroke-linejoin:round;stroke-miterlimit:10;stroke-dasharray:none;stroke-opacity:1"
     transform="matrix(1.3333333,0,0,-1.3333333,0,158.74)" />
  <path
     id="path17"
     d="m 234.84427,89.09109 0.8504,-5.95275 0.85037,5.95275 z"
     style="fill:#4c4c4c;fill-opacity:1;fill-rule:nonzero;stroke:none"
     transform="matrix(1.3333333,0,0,-1.3333333,0,158.74)" />
  <path
     id="path18"
     d="M 279.33331,94.47693 V 83.13834 m 0,5.95275 v 0.42521 m 0,-6.37796 v 0 l 0.85041,5.95275 h -1.70078 l 0.85037,-5.95275"
     style="fill:none;stroke:#4c4c4c;stroke-width:0.3685;stroke-linecap:round;stroke-linejoin:round;stroke-miterlimit:10;stroke-dasharray:none;stroke-opacity:1"
     transform="matrix(1.3333333,0,0,-1.3333333,0,158.74)" />
  <path
     id="path19"
     d="m 278.48294,89.09109 0.85037,-5.95275 0.85041,5.95275 z"
     style="fill:#4c4c4c;fill-opacity:1;fill-rule:nonzero;stroke:none"
     transform="matrix(1.3333333,0,0,-1.3333333,0,158.74)" />
  <path
     id="path20"
     d="M 322.97198,94.47693 V 83.13834 m 0,5.95275 v 0.42521 m 0,-6.37796 v 0 l 0.85038,5.95275 h -1.70078 l 0.8504,-5.95275"
     style="fill:none;stroke:#4c4c4c;stroke-width:0.3685;stroke-linecap:round;stroke-linejoin:round;stroke-miterlimit:10;stroke-dasharray:none;stroke-opacity:1"
     transform="matrix(1.3333333,0,0,-1.3333333,0,158.74)" />
  <path
     id="path21"
     d="m 322.12158,89.09109 0.8504,-5.95275 0.85038,5.95275 z"
     style="fill:#4c4c4c;fill-opacity:1;fill-rule:nonzero;stroke:none"
     transform="matrix(1.3333333,0,0,-1.3333333,0,158.74)" />
  <path
     id="path22"
     d="M 366.61063,94.47693 V 83.13834 m 0,5.95275 v 0.42521 m 0,-6.37796 v 0 l 0.8504,5.95275 h -1.70078 l 0.85038,-5.95275"
     style="fill:none;stroke:#4c4c4c;stroke-width:0.3685;stroke-linecap:round;stroke-linejoin:round;stroke-miterlimit:10;stroke-dasharray:none;stroke-opacity:1"
     transform="matrix(1.3333333,0,0,-1.3333333,0,158.74)" />
  <path
     id="path23"
     d="m 365.76025,89.09109 0.85038,-5.95275 0.8504,5.95275 z"
     style="fill:#4c4c4c;fill-opacity:1;fill-rule:nonzero;stroke:none"
     transform="matrix(1.3333333,0,0,-1.3333333,0,158.74)" />
  <path
     id="path24"
     d="m 19.59303,102.17888 c 0,1.13092 -0.91679,2.04773 -2.04771,2.04773 m 0,0 c -1.13094,0 -2.04773,-0.91681 -2.04773,-2.04773 m 0,0 c 0,-1.13094 0.91679,-2.04773 2.04773,-2.04773 m 0,0 c 1.13092,0 2.04771,0.91679 2.04771,2.04773"
     style="fill:none;stroke:#000000;stroke-width:0.3685;stroke-linecap:round;stroke-linejoin:round;stroke-miterlimit:10;stroke-dasharray:none;stroke-opacity:1"
     transform="matrix(1.3333333,0,0,-1.3333333,0,158.74)" />
  <g
     id="layer-MC0"
     inkscape:groupmode="layer"
     inkscape:label="STABBEANSPR_DIAG">
    <path
       id="path25"
       d="m 28.96004,49.12259 -0.04308,0.49223 -0.12788,0.47728 -0.20882,0.44782 -0.28342,0.40475 -0.34938,0.34938 -0.40475,0.28342 -0.44782,0.20882 -0.47728,0.12788 -0.49223,0.04306 -0.49223,-0.04306 -0.47727,-0.12788 -0.44781,-0.20882 -0.40476,-0.28342 -0.34939,-0.34938 -0.2834,-0.40475 -0.20883,-0.44782 -0.12789,-0.47728 -0.04306,-0.49223 0.04306,-0.49223 0.12789,-0.47728 0.20883,-0.44782 0.2834,-0.40475 0.34939,-0.34938 0.40476,-0.28342 0.44781,-0.20882 0.47727,-0.12788 0.49223,-0.04306 0.49223,0.04306 0.47728,0.12788 0.44782,0.20882 0.40475,0.28342 0.34938,0.34938 0.28342,0.40475 0.20882,0.44782 0.12788,0.47728 z"
       style="fill:#e0e0e0;fill-opacity:1;fill-rule:nonzero;stroke:none"
       transform="matrix(1.3333333,0,0,-1.3333333,0,158.74)" />
    <path
       id="path26"
       d="m 404.5506,49.12259 -0.0431,0.49223 -0.12787,0.47728 -0.20883,0.44782 -0.28339,0.40475 -0.3494,0.34938 -0.40475,0.28342 -0.44781,0.20882 -0.4773,0.12788 -0.49222,0.04306 -0.49222,-0.04306 -0.47729,-0.12788 -0.44782,-0.20882 -0.40475,-0.28342 -0.3494,-0.34938 -0.28338,-0.40475 -0.20883,-0.44782 -0.1279,-0.47728 -0.0431,-0.49223 0.0431,-0.49223 0.1279,-0.47728 0.20883,-0.44782 0.28338,-0.40475 0.3494,-0.34938 0.40475,-0.28342 0.44782,-0.20882 0.47729,-0.12788 0.49222,-0.04306 0.49222,0.04306 0.4773,0.12788 0.44781,0.20882 0.40475,0.28342 0.3494,0.34938 0.28339,0.40475 0.20883,0.44782 0.12787,0.47728 z"
       style="fill:#e0e0e0;fill-opacity:1;fill-rule:nonzero;stroke:none"
       transform="matrix(1.3333333,0,0,-1.3333333,0,158.74)" />
    <path
       id="path27"
       d="m 350.89481,49.12259 -0.0431,0.49223 -0.12787,0.47728 -0.20884,0.44782 -0.28341,0.40475 -0.34937,0.34938 -0.40475,0.28342 -0.44782,0.20882 -0.47729,0.12788 -0.49222,0.04306 -0.49225,-0.04306 -0.47726,-0.12788 -0.44782,-0.20882 -0.40475,-0.28342 -0.3494,-0.34938 -0.28338,-0.40475 -0.20884,-0.44782 -0.1279,-0.47728 -0.0431,-0.49223 0.0431,-0.49223 0.1279,-0.47728 0.20884,-0.44782 0.28338,-0.40475 0.3494,-0.34938 0.40475,-0.28342 0.44782,-0.20882 0.47726,-0.12788 0.49225,-0.04306 0.49222,0.04306 0.47729,0.12788 0.44782,0.20882 0.40475,0.28342 0.34937,0.34938 0.28341,0.40475 0.20884,0.44782 0.12787,0.47728 z"
       style="fill:#e0e0e0;fill-opacity:1;fill-rule:nonzero;stroke:none"
       transform="matrix(1.3333333,0,0,-1.3333333,0,158.74)" />
    <path
       id="path28"
       d="m 297.23901,49.12259 -0.0431,0.49223 -0.12787,0.47728 -0.20883,0.44782 -0.28341,0.40475 -0.34937,0.34938 -0.40475,0.28342 -0.44782,0.20882 -0.47729,0.12788 -0.49222,0.04306 -0.49225,-0.04306 -0.47727,-0.12788 -0.44781,-0.20882 -0.40475,-0.28342 -0.3494,-0.34938 -0.28339,-0.40475 -0.20883,-0.44782 -0.1279,-0.47728 -0.0431,-0.49223 0.0431,-0.49223 0.1279,-0.47728 0.20883,-0.44782 0.28339,-0.40475 0.3494,-0.34938 0.40475,-0.28342 0.44781,-0.20882 0.47727,-0.12788 0.49225,-0.04306 0.49222,0.04306 0.47729,0.12788 0.44782,0.20882 0.40475,0.28342 0.34937,0.34938 0.28341,0.40475 0.20883,0.44782 0.12787,0.47728 z"
       style="fill:#e0e0e0;fill-opacity:1;fill-rule:nonzero;stroke:none"
       transform="matrix(1.3333333,0,0,-1.3333333,0,158.74)" />
    <path
       id="path29"
       d="m 243.58322,49.12259 -0.0431,0.49223 -0.1279,0.47728 -0.20883,0.44782 -0.28339,0.40475 -0.34939,0.34938 -0.40476,0.28342 -0.44781,0.20882 -0.4773,0.12788 -0.49221,0.04306 -0.49222,-0.04306 -0.4773,-0.12788 -0.44781,-0.20882 -0.40476,-0.28342 -0.34936,-0.34938 -0.28342,-0.40475 -0.20883,-0.44782 -0.12787,-0.47728 -0.0431,-0.49223 0.0431,-0.49223 0.12787,-0.47728 0.20883,-0.44782 0.28342,-0.40475 0.34936,-0.34938 0.40476,-0.28342 0.44781,-0.20882 0.4773,-0.12788 0.49222,-0.04306 0.49221,0.04306 0.4773,0.12788 0.44781,0.20882 0.40476,0.28342 0.34939,0.34938 0.28339,0.40475 0.20883,0.44782 0.1279,0.47728 z"
       style="fill:#e0e0e0;fill-opacity:1;fill-rule:nonzero;stroke:none"
       transform="matrix(1.3333333,0,0,-1.3333333,0,158.74)" />
    <path
       id="path30"
       d="m 189.92743,49.12259 -0.0431,0.49223 -0.1279,0.47728 -0.20883,0.44782 -0.28339,0.40475 -0.34939,0.34938 -0.40476,0.28342 -0.44781,0.20882 -0.4773,0.12788 -0.49222,0.04306 -0.49221,-0.04306 -0.4773,-0.12788 -0.44781,-0.20882 -0.40476,-0.28342 -0.34939,-0.34938 -0.28339,-0.40475 -0.20883,-0.44782 -0.1279,-0.47728 -0.0431,-0.49223 0.0431,-0.49223 0.1279,-0.47728 0.20883,-0.44782 0.28339,-0.40475 0.54693,-0.50086 0.20722,-0.13194 0.44781,-0.20882 0.4773,-0.12788 0.49221,-0.04306 0.49222,0.04306 0.4773,0.12788 0.44781,0.20882 0.40476,0.28342 0.34939,0.34938 0.28339,0.40475 0.20883,0.44782 0.1279,0.47728 z"
       style="fill:#e0e0e0;fill-opacity:1;fill-rule:nonzero;stroke:none"
       transform="matrix(1.3333333,0,0,-1.3333333,0,158.74)" />
    <path
       id="path31"
       d="m 136.27164,49.12259 -0.0431,0.49223 -0.12787,0.47728 -0.20883,0.44782 -0.28339,0.40475 -0.3494,0.34938 -0.40475,0.28342 -0.44782,0.20882 -0.47729,0.12788 -0.49222,0.04306 -0.49222,-0.04306 -0.47729,-0.12788 -0.44782,-0.20882 -0.40475,-0.28342 -0.3494,-0.34938 -0.28338,-0.40475 -0.20884,-0.44782 -0.12789,-0.47728 -0.0431,-0.49223 0.0431,-0.49223 0.12789,-0.47728 0.20884,-0.44782 0.28338,-0.40475 0.3494,-0.34938 0.40475,-0.28342 0.44782,-0.20882 0.47729,-0.12788 0.49222,-0.04306 0.49222,0.04306 0.47729,0.12788 0.44782,0.20882 0.40475,0.28342 0.3494,0.34938 0.28339,0.40475 0.20883,0.44782 0.12787,0.47728 z"
       style="fill:#e0e0e0;fill-opacity:1;fill-rule:nonzero;stroke:none"
       transform="matrix(1.3333333,0,0,-1.3333333,0,158.74)" />
    <path
       id="path32"
       d="m 82.61583,49.12259 -0.04306,0.49223 -0.12788,0.47728 -0.20884,0.44782 -0.2834,0.40475 -0.34939,0.34938 -0.40476,0.28342 -0.44781,0.20882 -0.47728,0.12788 -0.49222,0.04306 -0.49223,-0.04306 -0.47728,-0.12788 -0.44782,-0.20882 -0.40475,-0.28342 -0.3494,-0.34938 -0.2834,-0.40475 -0.20882,-0.44782 -0.12788,-0.47728 -0.04308,-0.49223 0.04308,-0.49223 0.12788,-0.47728 0.20882,-0.44782 0.2834,-0.40475 0.3494,-0.34938 0.40475,-0.28342 0.44782,-0.20882 0.47728,-0.12788 0.49223,-0.04306 0.49222,0.04306 0.47728,0.12788 0.44781,0.20882 0.40476,0.28342 0.34939,0.34938 0.2834,0.40475 0.20884,0.44782 0.12788,0.47728 z"
       style="fill:#e0e0e0;fill-opacity:1;fill-rule:nonzero;stroke:none"
       transform="matrix(1.3333333,0,0,-1.3333333,0,158.74)" />
  </g>
  <path
     id="path33"
     d="m 17.54532,102.17888 h 16.49789 m -5.95276,0 h -0.4252 m 6.37796,0 v 0 l -5.95276,0.85039 v -1.70078 l 5.95276,0.85039"
     style="fill:none;stroke:#000000;stroke-width:0.3685;stroke-linecap:round;stroke-linejoin:round;stroke-miterlimit:10;stroke-dasharray:none;stroke-opacity:1"
     transform="matrix(1.3333333,0,0,-1.3333333,0,158.74)" />
  <path
     id="path34"
     d="m 28.09045,101.32849 5.95276,0.85039 -5.95276,0.85039 z"
     style="fill:#000000;fill-opacity:1;fill-rule:nonzero;stroke:none"
     transform="matrix(1.3333333,0,0,-1.3333333,0,158.74)" />
  <path
     id="path35"
     d="M 17.54532,102.17888 V 86.08914 m 0,5.95276 v 0.4252 m 0,-6.37796 v 0 l 0.85039,5.95276 h -1.70078 l 0.85039,-5.95276"
     style="fill:none;stroke:#000000;stroke-width:0.3685;stroke-linecap:round;stroke-linejoin:round;stroke-miterlimit:10;stroke-dasharray:none;stroke-opacity:1"
     transform="matrix(1.3333333,0,0,-1.3333333,0,158.74)" />
  <path
     id="path36"
     d="m 16.69493,92.0419 0.85039,-5.95276 0.85039,5.95276 z"
     style="fill:#000000;fill-opacity:1;fill-rule:nonzero;stroke:none"
     transform="matrix(1.3333333,0,0,-1.3333333,0,158.74)" />
  <text
     id="text36"
     xml:space="preserve"
     transform="matrix(1.3333333,0,0,1.3333333,149.71781,128.56464)"
     clip-path="url(#clipPath37)"><tspan
       style="font-variant:normal;font-weight:normal;font-stretch:normal;font-size:10.0916px;font-family:'Palatino Linotype';writing-mode:lr-tb;fill:#000000;fill-opacity:1;fill-rule:nonzero;stroke:none"
       x="0 5.2980952 8.5879602 13.633765 17.619951 21.606136 26.440018 30.426205 32.949108 38.2472 41.537067 46.58287"
       y="0"
       sodipodi:role="line"
       id="tspan36">Starrer Stab</tspan></text>
  <text
     id="text37"
     xml:space="preserve"
     transform="matrix(1.3333333,0,0,1.3333333,149.71781,128.56464)"
     clip-path="url(#clipPath38)"><tspan
       style="font-variant:normal;font-weight:normal;font-stretch:normal;font-size:10.0916px;font-family:'Palatino Linotype';writing-mode:lr-tb;fill:#000000;fill-opacity:1;fill-rule:nonzero;stroke:none"
       x="0 5.2980952 8.5879602 13.633765 17.619951 21.606136 26.440018 30.426205 32.949108 38.2472 41.537067 46.58287"
       y="0"
       sodipodi:role="line"
       id="tspan37">Starrer Stab</tspan></text>
  <text
     id="text38"
     xml:space="preserve"
     transform="matrix(1.3333333,0,0,1.3333333,149.71781,149.03708)"
     clip-path="url(#clipPath39)"><tspan
       style="font-variant:normal;font-weight:normal;font-stretch:normal;font-size:10.0916px;font-family:'Palatino Linotype';writing-mode:lr-tb;fill:#000000;fill-opacity:1;fill-rule:nonzero;stroke:none"
       x="0 5.6109352 10.444817 16.61079 21.444672 25.430857"
       y="0"
       sodipodi:role="line"
       id="tspan38">Feder </tspan></text>
  <text
     id="text39"
     xml:space="preserve"
     transform="matrix(1.3333333,0,0,1.3333333,187.73424,149.03708)"
     clip-path="url(#clipPath40)"><tspan
       style="font-variant:normal;font-weight:normal;font-stretch:normal;font-size:10.0916px;font-family:'Palatino Linotype';writing-mode:lr-tb;fill:#000000;fill-opacity:1;fill-rule:nonzero;stroke:none"
       x="0 8.9108915 11.84755 15.137415"
       y="0"
       sodipodi:role="line"
       id="tspan39">mit </tspan></text>
  <text
     id="text40"
     xml:space="preserve"
     transform="matrix(1.3333333,0,0,1.3333333,211.75165,149.03708)"
     clip-path="url(#clipPath41)"><tspan
       style="font-variant:normal;font-weight:normal;font-stretch:normal;font-size:10.0916px;font-family:'Palatino Linotype';writing-mode:lr-tb;fill:#000000;fill-opacity:1;fill-rule:nonzero;stroke:none"
       x="0 5.8733172 8.8099756 13.29065 19.163967 22.453833 25.814339 28.750998 31.687654 37.560974 42.394855 47.440659 51.426846 56.260727 65.171616"
       y="0"
       sodipodi:role="line"
       id="tspan40">nicht-linearem </tspan></text>
  <text
     id="text41"
     xml:space="preserve"
     transform="matrix(1.3333333,0,0,1.3333333,303.81399,149.03708)"
     clip-path="url(#clipPath42)"><tspan
       style="font-variant:normal;font-weight:normal;font-stretch:normal;font-size:10.0916px;font-family:'Palatino Linotype';writing-mode:lr-tb;fill:#000000;fill-opacity:1;fill-rule:nonzero;stroke:none"
       x="0 6.1659737 9.1026325 13.936513 19.547449 24.38133 30.08309 34.916969 38.903156 44.776474 49.822277 52.758938 56.048801 60.882683"
       y="0"
       sodipodi:role="line"
       id="tspan41">Biegeverhalten</tspan></text>
  <path
     id="path43"
     d="M 112.28838,25.93861 93.155,26.12987 93.3766,48.62363 m 0.01256,1.27552 v 0 M 93.36403,47.3481 v 0 m -1.26296,1.28808 v 0 m 2.55104,-0.02513 v 0"
     style="fill:none;stroke:#000000;stroke-width:0.3685;stroke-linecap:round;stroke-linejoin:round;stroke-miterlimit:10;stroke-dasharray:none;stroke-opacity:1"
     transform="matrix(1.3333333,0,0,-1.3333333,0,158.74)" />
  <path
     id="path44"
     d="m 93.38916,49.89915 c -0.70445,0.007 -1.28114,-0.55851 -1.28809,-1.26297 m 0,0 c -0.0069,-0.70445 0.55851,-1.28115 1.26296,-1.28808 m 0,0 c 0.70445,-0.0069 1.28116,0.5585 1.2881,1.26295 m 0,0 c 0.0069,0.70446 -0.55852,1.28116 -1.26297,1.2881"
     style="fill:none;stroke:#000000;stroke-width:0.3685;stroke-linecap:round;stroke-linejoin:round;stroke-miterlimit:10;stroke-dasharray:none;stroke-opacity:1"
     transform="matrix(1.3333333,0,0,-1.3333333,0,158.74)" />
  <path
     id="path45"
     d="M 112.28838,10.58427 H 79.78119 v 35.70368 m 0,1.27559 v 0 m 0,-2.55118 v 0 m -1.27561,1.27559 v 0 m 2.55118,0 v 0"
     style="fill:none;stroke:#000000;stroke-width:0.3685;stroke-linecap:round;stroke-linejoin:round;stroke-miterlimit:10;stroke-dasharray:none;stroke-opacity:1"
     transform="matrix(1.3333333,0,0,-1.3333333,0,158.74)" />
  <path
     id="path46"
     d="m 79.78119,47.56354 c -0.7045,0 -1.27561,-0.57111 -1.27561,-1.27559 m 0,0 c 0,-0.7045 0.57111,-1.27559 1.27561,-1.27559 m 0,0 c 0.70448,0 1.27559,0.57109 1.27559,1.27559 m 0,0 c 0,0.70448 -0.57111,1.27559 -1.27559,1.27559"
     style="fill:none;stroke:#000000;stroke-width:0.3685;stroke-linecap:round;stroke-linejoin:round;stroke-miterlimit:10;stroke-dasharray:none;stroke-opacity:1"
     transform="matrix(1.3333333,0,0,-1.3333333,0,158.74)" />
  <path
     id="path47"
     d="m 28.96004,49.12259 c 0,1.56554 -1.26912,2.83464 -2.83466,2.83464 m 0,0 c -1.56552,0 -2.83464,-1.2691 -2.83464,-2.83464 m 0,0 c 0,-1.56554 1.26912,-2.83464 2.83464,-2.83464 m 0,0 c 1.56554,0 2.83466,1.2691 2.83466,2.83464"
     style="fill:none;stroke:#000000;stroke-width:0.3685;stroke-linecap:round;stroke-linejoin:round;stroke-miterlimit:10;stroke-dasharray:none;stroke-opacity:1"
     transform="matrix(1.3333333,0,0,-1.3333333,0,158.74)" />
  <path
     id="path48"
     d="m 404.5506,49.12259 c 0,1.56554 -1.26914,2.83464 -2.83466,2.83464 m 0,0 c -1.56552,0 -2.83465,-1.2691 -2.83465,-2.83464 m 0,0 c 0,-1.56554 1.26913,-2.83464 2.83465,-2.83464 m 0,0 c 1.56552,0 2.83466,1.2691 2.83466,2.83464"
     style="fill:none;stroke:#000000;stroke-width:0.3685;stroke-linecap:round;stroke-linejoin:round;stroke-miterlimit:10;stroke-dasharray:none;stroke-opacity:1"
     transform="matrix(1.3333333,0,0,-1.3333333,0,158.74)" />
  <path
     id="path49"
     d="m 350.89481,49.12259 c 0,1.56554 -1.26914,2.83464 -2.83466,2.83464 m 0,0 c -1.56552,0 -2.83466,-1.2691 -2.83466,-2.83464 m 0,0 c 0,-1.56554 1.26914,-2.83464 2.83466,-2.83464 m 0,0 c 1.56552,0 2.83466,1.2691 2.83466,2.83464"
     style="fill:none;stroke:#000000;stroke-width:0.3685;stroke-linecap:round;stroke-linejoin:round;stroke-miterlimit:10;stroke-dasharray:none;stroke-opacity:1"
     transform="matrix(1.3333333,0,0,-1.3333333,0,158.74)" />
  <path
     id="path50"
     d="m 297.23901,49.12259 c 0,1.56554 -1.26913,2.83464 -2.83465,2.83464 m 0,0 c -1.56552,0 -2.83466,-1.2691 -2.83466,-2.83464 m 0,0 c 0,-1.56554 1.26914,-2.83464 2.83466,-2.83464 m 0,0 c 1.56552,0 2.83465,1.2691 2.83465,2.83464"
     style="fill:none;stroke:#000000;stroke-width:0.3685;stroke-linecap:round;stroke-linejoin:round;stroke-miterlimit:10;stroke-dasharray:none;stroke-opacity:1"
     transform="matrix(1.3333333,0,0,-1.3333333,0,158.74)" />
  <path
     id="path51"
     d="m 243.58322,49.12259 c 0,1.56554 -1.26913,2.83464 -2.83465,2.83464 m 0,0 c -1.56553,0 -2.83466,-1.2691 -2.83466,-2.83464 m 0,0 c 0,-1.56554 1.26913,-2.83464 2.83466,-2.83464 m 0,0 c 1.56552,0 2.83465,1.2691 2.83465,2.83464"
     style="fill:none;stroke:#000000;stroke-width:0.3685;stroke-linecap:round;stroke-linejoin:round;stroke-miterlimit:10;stroke-dasharray:none;stroke-opacity:1"
     transform="matrix(1.3333333,0,0,-1.3333333,0,158.74)" />
  <path
     id="path52"
     d="m 189.92743,49.12259 c 0,1.56554 -1.26914,2.83464 -2.83466,2.83464 m 0,0 c -1.56552,0 -2.83465,-1.2691 -2.83465,-2.83464 m 0,0 c 0,-1.56554 1.26913,-2.83464 2.83465,-2.83464 m 0,0 c 1.56552,0 2.83466,1.2691 2.83466,2.83464"
     style="fill:none;stroke:#000000;stroke-width:0.3685;stroke-linecap:round;stroke-linejoin:round;stroke-miterlimit:10;stroke-dasharray:none;stroke-opacity:1"
     transform="matrix(1.3333333,0,0,-1.3333333,0,158.74)" />
  <path
     id="path53"
     d="m 136.27164,49.12259 c 0,1.56554 -1.26914,2.83464 -2.83466,2.83464 m 0,0 c -1.56552,0 -2.83465,-1.2691 -2.83465,-2.83464 m 0,0 c 0,-1.56554 1.26913,-2.83464 2.83465,-2.83464 m 0,0 c 1.56552,0 2.83466,1.2691 2.83466,2.83464"
     style="fill:none;stroke:#000000;stroke-width:0.3685;stroke-linecap:round;stroke-linejoin:round;stroke-miterlimit:10;stroke-dasharray:none;stroke-opacity:1"
     transform="matrix(1.3333333,0,0,-1.3333333,0,158.74)" />
  <path
     id="path54"
     d="m 82.61583,49.12259 c 0,1.56554 -1.26912,2.83464 -2.83464,2.83464 m 0,0 c -1.56554,0 -2.83466,-1.2691 -2.83466,-2.83464 m 0,0 c 0,-1.56554 1.26912,-2.83464 2.83466,-2.83464 m 0,0 c 1.56552,0 2.83464,1.2691 2.83464,2.83464"
     style="fill:none;stroke:#000000;stroke-width:0.3685;stroke-linecap:round;stroke-linejoin:round;stroke-miterlimit:10;stroke-dasharray:none;stroke-opacity:1"
     transform="matrix(1.3333333,0,0,-1.3333333,0,158.74)" />
  <path
     id="path55"
     d="m 310.98071,29.59055 h 11.10236 v 13.22834 h -11.10236 z"
     style="fill:#ffffff;fill-opacity:1;fill-rule:nonzero;stroke:none"
     transform="matrix(1.3333333,0,0,-1.3333333,0,158.74)" />
  <text
     id="text55"
     xml:space="preserve"
     transform="matrix(1.3333333,0,0,1.3333333,415.58583,114.87648)"
     clip-path="url(#clipPath56)"><tspan
       style="font-style:italic;font-variant:normal;font-weight:normal;font-stretch:normal;font-size:10.0071px;font-family:'Palatino Linotype';writing-mode:lr-tb;fill:#000000;fill-opacity:1;fill-rule:nonzero;stroke:none"
       x="0"
       y="0"
       id="tspan55">M</tspan></text>
  <path
     id="path57"
     d="m 373.71124,3.6035 h 8.74015 v 13.22835 h -8.74015 z"
     style="fill:#ffffff;fill-opacity:1;fill-rule:nonzero;stroke:none"
     transform="matrix(1.3333333,0,0,-1.3333333,0,158.74)" />
  <text
     id="text57"
     xml:space="preserve"
     transform="matrix(1.3333333,0,0,1.3333333,499.22653,149.52589)"
     clip-path="url(#clipPath58)"><tspan
       style="font-style:italic;font-variant:normal;font-weight:normal;font-stretch:normal;font-size:10.0071px;font-family:'Palatino Linotype';writing-mode:lr-tb;fill:#000000;fill-opacity:1;fill-rule:nonzero;stroke:none"
       x="0"
       y="0"
       id="tspan57">φ</tspan></text>
  <text
     id="text58"
     xml:space="preserve"
     transform="matrix(1.3333333,0,0,1.3333333,47.374613,26.3566)"
     clip-path="url(#clipPath59)"><tspan
       style="font-style:italic;font-variant:normal;font-weight:normal;font-stretch:normal;font-size:10.0071px;font-family:'Palatino Linotype';writing-mode:lr-tb;fill:#000000;fill-opacity:1;fill-rule:nonzero;stroke:none"
       x="0"
       y="0"
       id="tspan58">X</tspan></text>
  <text
     id="text59"
     xml:space="preserve"
     transform="matrix(1.3333333,0,0,1.3333333,18.45628,58.355907)"
     clip-path="url(#clipPath60)"><tspan
       style="font-style:italic;font-variant:normal;font-weight:normal;font-stretch:normal;font-size:10.0071px;font-family:'Palatino Linotype';writing-mode:lr-tb;fill:#000000;fill-opacity:1;fill-rule:nonzero;stroke:none"
       x="0"
       y="0"
       id="tspan59">Z</tspan></text>
  <text
     id="text60"
     xml:space="preserve"
     transform="matrix(1.3333333,0,0,1.3333333,9.56456,17.10536)"
     clip-path="url(#clipPath61)"><tspan
       style="font-style:italic;font-variant:normal;font-weight:normal;font-stretch:normal;font-size:10.0071px;font-family:'Palatino Linotype';writing-mode:lr-tb;fill:#000000;fill-opacity:1;fill-rule:nonzero;stroke:none"
       x="0"
       y="0"
       id="tspan60">Y</tspan></text>
</svg>
