<?xml version="1.0" encoding="UTF-8" standalone="no"?>
<!-- Created with Inkscape (http://www.inkscape.org/) -->

<svg
   version="1.1"
   id="svg1"
   width="566.92932"
   height="359.05466"
   viewBox="0 0 566.92932 359.05466"
   sodipodi:docname="allg_torsion_balken_vs_platte.pdf"
   xmlns:inkscape="http://www.inkscape.org/namespaces/inkscape"
   xmlns:sodipodi="http://sodipodi.sourceforge.net/DTD/sodipodi-0.dtd"
   xmlns="http://www.w3.org/2000/svg"
   xmlns:svg="http://www.w3.org/2000/svg">
  <defs
     id="defs1">
    <clipPath
       clipPathUnits="userSpaceOnUse"
       id="clipPath4">
      <path
         d="M -0.00426,-0.00269 V 269.29404 H 425.20111 V -0.00269 H -0.00426"
         transform="matrix(1,0,0,-1,-163.97928,121.77614)"
         clip-rule="evenodd"
         id="path4" />
    </clipPath>
    <clipPath
       clipPathUnits="userSpaceOnUse"
       id="clipPath5">
      <path
         d="M -0.00426,-0.00269 V 269.29404 H 425.20111 V -0.00269 H -0.00426"
         transform="matrix(1,0,0,-1,-180.35268,146.84777)"
         clip-rule="evenodd"
         id="path5" />
    </clipPath>
    <clipPath
       clipPathUnits="userSpaceOnUse"
       id="clipPath6">
      <path
         d="M -0.00426,-0.00269 V 269.29404 H 425.20111 V -0.00269 H -0.00426"
         transform="matrix(1,0,0,-1,-139.3428,132.25406)"
         clip-rule="evenodd"
         id="path6" />
    </clipPath>
    <clipPath
       clipPathUnits="userSpaceOnUse"
       id="clipPath7">
      <path
         d="M -0.00426,-0.00269 V 269.29404 H 425.20111 V -0.00269 H -0.00426"
         transform="matrix(1,0,0,-1,-190.29832,171.52265)"
         clip-rule="evenodd"
         id="path7" />
    </clipPath>
    <clipPath
       clipPathUnits="userSpaceOnUse"
       id="clipPath8">
      <path
         d="M -0.00426,-0.00269 V 269.29404 H 425.20111 V -0.00269 H -0.00426"
         transform="matrix(1,0,0,-1,-164.84277,177.41384)"
         clip-rule="evenodd"
         id="path8" />
    </clipPath>
    <clipPath
       clipPathUnits="userSpaceOnUse"
       id="clipPath9">
      <path
         d="M -0.00426,-0.00269 V 269.29404 H 425.20111 V -0.00269 H -0.00426"
         transform="matrix(1,0,0,-1,-211.48225,191.78372)"
         clip-rule="evenodd"
         id="path9" />
    </clipPath>
    <clipPath
       clipPathUnits="userSpaceOnUse"
       id="clipPath10">
      <path
         d="M -0.00426,-0.00269 V 269.29404 H 425.20111 V -0.00269 H -0.00426"
         transform="matrix(1,0,0,-1,-185.3274,248.16488)"
         clip-rule="evenodd"
         id="path10" />
    </clipPath>
    <clipPath
       clipPathUnits="userSpaceOnUse"
       id="clipPath11">
      <path
         d="M -0.00426,-0.00269 V 269.29404 H 425.20111 V -0.00269 H -0.00426"
         transform="matrix(1,0,0,-1,-56.842012,124.46916)"
         clip-rule="evenodd"
         id="path11" />
    </clipPath>
    <clipPath
       clipPathUnits="userSpaceOnUse"
       id="clipPath12">
      <path
         d="M -0.00426,-0.00269 V 269.29404 H 425.20111 V -0.00269 H -0.00426"
         transform="matrix(1,0,0,-1,-352.78519,77.687482)"
         clip-rule="evenodd"
         id="path12" />
    </clipPath>
    <clipPath
       clipPathUnits="userSpaceOnUse"
       id="clipPath13">
      <path
         d="M -0.00426,-0.00269 V 269.29404 H 425.20111 V -0.00269 H -0.00426"
         transform="matrix(1,0,0,-1,-355.78065,73.553624)"
         clip-rule="evenodd"
         id="path13" />
    </clipPath>
    <clipPath
       clipPathUnits="userSpaceOnUse"
       id="clipPath14">
      <path
         d="M -0.00426,-0.00269 V 269.29404 H 425.20111 V -0.00269 H -0.00426"
         transform="matrix(1,0,0,-1,-190.71613,57.324314)"
         clip-rule="evenodd"
         id="path14" />
    </clipPath>
    <clipPath
       clipPathUnits="userSpaceOnUse"
       id="clipPath15">
      <path
         d="M -0.00426,-0.00269 V 269.29404 H 425.20111 V -0.00269 H -0.00426"
         transform="matrix(1,0,0,-1,-193.71162,53.190449)"
         clip-rule="evenodd"
         id="path15" />
    </clipPath>
    <clipPath
       clipPathUnits="userSpaceOnUse"
       id="clipPath16">
      <path
         d="M -0.00426,-0.00269 V 269.29404 H 425.20111 V -0.00269 H -0.00426"
         transform="matrix(1,0,0,-1,-374.24513,40.974441)"
         clip-rule="evenodd"
         id="path16" />
    </clipPath>
    <clipPath
       clipPathUnits="userSpaceOnUse"
       id="clipPath17">
      <path
         d="M -0.00426,-0.00269 V 269.29404 H 425.20111 V -0.00269 H -0.00426"
         transform="matrix(1,0,0,-1,-380.00992,36.840583)"
         clip-rule="evenodd"
         id="path17" />
    </clipPath>
    <clipPath
       clipPathUnits="userSpaceOnUse"
       id="clipPath18">
      <path
         d="M -0.00426,-0.00269 V 269.29404 H 425.20111 V -0.00269 H -0.00426"
         transform="matrix(1,0,0,-1,-75.147339,188.8676)"
         clip-rule="evenodd"
         id="path18" />
    </clipPath>
    <clipPath
       clipPathUnits="userSpaceOnUse"
       id="clipPath19">
      <path
         d="M -0.00426,-0.00269 V 269.29404 H 425.20111 V -0.00269 H -0.00426"
         transform="matrix(1,0,0,-1,-80.912125,184.73372)"
         clip-rule="evenodd"
         id="path19" />
    </clipPath>
    <clipPath
       clipPathUnits="userSpaceOnUse"
       id="clipPath20">
      <path
         d="M -0.00426,-0.00269 V 269.29404 H 425.20111 V -0.00269 H -0.00426"
         transform="matrix(1,0,0,-1,-41.787461,215.08476)"
         clip-rule="evenodd"
         id="path20" />
    </clipPath>
    <clipPath
       clipPathUnits="userSpaceOnUse"
       id="clipPath21">
      <path
         d="M -0.00426,-0.00269 V 269.29404 H 425.20111 V -0.00269 H -0.00426"
         transform="matrix(1,0,0,-1,-47.552241,210.9509)"
         clip-rule="evenodd"
         id="path21" />
    </clipPath>
    <clipPath
       clipPathUnits="userSpaceOnUse"
       id="clipPath22">
      <path
         d="M -0.00426,-0.00269 V 269.29404 H 425.20111 V -0.00269 H -0.00426"
         transform="matrix(1,0,0,-1,-2.9875401,217.81571)"
         clip-rule="evenodd"
         id="path22" />
    </clipPath>
    <clipPath
       clipPathUnits="userSpaceOnUse"
       id="clipPath23">
      <path
         d="M -0.00426,-0.00269 V 269.29404 H 425.20111 V -0.00269 H -0.00426"
         transform="matrix(1,0,0,-1,-2.9875401,58.111889)"
         clip-rule="evenodd"
         id="path23" />
    </clipPath>
    <clipPath
       clipPathUnits="userSpaceOnUse"
       id="clipPath24">
      <path
         d="M -0.00426,-0.00269 V 269.29404 H 425.20111 V -0.00269 H -0.00426"
         transform="matrix(1,0,0,-1,-190.56976,216.25639)"
         clip-rule="evenodd"
         id="path24" />
    </clipPath>
    <clipPath
       clipPathUnits="userSpaceOnUse"
       id="clipPath25">
      <path
         d="M -0.00426,-0.00269 V 269.29404 H 425.20111 V -0.00269 H -0.00426"
         transform="matrix(1,0,0,-1,-194.03767,212.12252)"
         clip-rule="evenodd"
         id="path25" />
    </clipPath>
  </defs>
  <sodipodi:namedview
     id="namedview1"
     pagecolor="#ffffff"
     bordercolor="#000000"
     borderopacity="0.25"
     inkscape:showpageshadow="2"
     inkscape:pageopacity="0.0"
     inkscape:pagecheckerboard="0"
     inkscape:deskcolor="#d1d1d1">
    <inkscape:page
       x="0"
       y="0"
       inkscape:label="1"
       id="page1"
       width="566.92932"
       height="359.05466"
       margin="0"
       bleed="0" />
  </sodipodi:namedview>
  <g
     id="g1"
     inkscape:groupmode="layer"
     inkscape:label="1">
    <path
       id="path1"
       d="m 56.09116,201.40759 v 26.57303 L 319.2814,191.32819 V 164.75516 L 56.09116,201.40759 m 0,-133.1308 105.27609,91.63108 L 424.5575,123.25545 319.2814,31.62436 56.09116,68.27679 161.36725,159.90787 424.5575,123.25545 319.2814,31.62436 56.09116,68.27679 M 6.51315,234.88495 45.2227,229.49417 M 6.51315,208.31192 45.2227,202.92114 M 6.51315,75.18114 45.2227,69.79036 M 6.51315,48.60812 45.2227,43.21735 m 66.56655,123.59488 38.70956,-5.39078 m -94.40765,39.98614 1.33885,1.16532 m 1.71052,1.48883 2.13817,1.86102 m 1.71054,1.48883 2.13817,1.86105 m 1.71053,1.48883 2.13816,1.86103 m 1.71055,1.48883 2.13816,1.86105 m 1.71053,1.48883 2.13817,1.86103 m 1.71054,1.48883 2.13817,1.86102 m 1.71052,1.48883 2.13817,1.86105 m 1.71054,1.48883 2.13817,1.86103 m 1.71053,1.48883 2.13816,1.86102 m 1.71054,1.48883 2.13817,1.86105 m 1.71053,1.48883 2.13817,1.86103 m 1.71054,1.48883 2.13817,1.86105 m 1.71052,1.48883 2.13817,1.86102 m 1.71054,1.48884 2.13817,1.86102 m 1.71052,1.48883 2.13817,1.86105 m 1.71054,1.48883 2.13817,1.86103 m 1.71054,1.48883 2.13816,1.86102 m 1.71054,1.48883 2.13816,1.86105 m 1.71055,1.48883 2.13815,1.86103 m 1.71054,1.48883 1.82089,1.58487 m -77.9956,-67.88645 v 0 m 105.27609,-68.07272 v 2.16119 m 0,2.26773 v 2.83463 m 0,2.26773 v 2.83466 m 0,2.2677 v 2.83465 m 0,2.2677 v 2.83466 m 0,2.26773 v 1.73462 m 0,-26.573 v 0 m 0,26.573 v 0 M 57.40646,42.84862 l 2.13817,1.86102 m 1.71054,1.48883 2.13817,1.86104 m 1.71053,1.48883 2.13816,1.86104"
       style="fill:none;stroke:#000000;stroke-width:0.3685;stroke-linecap:round;stroke-linejoin:round;stroke-miterlimit:10;stroke-dasharray:none;stroke-opacity:1"
       transform="matrix(1.3333333,0,0,-1.3333333,0,359.05467)" />
    <path
       id="path2"
       d="m 68.95258,52.89821 2.13816,1.86104 m 1.71053,1.48883 2.13817,1.86102 m 1.71054,1.48883 2.13817,1.86104 m 1.71052,1.48883 2.13817,1.86104 m 1.71054,1.48883 2.13817,1.86104 m 1.71053,1.48883 2.13816,1.86102 m 1.71054,1.48883 2.13817,1.86104 m 1.71053,1.48883 2.13817,1.86104 m 1.71054,1.48883 2.13817,1.86104 m 1.71052,1.48883 2.13817,1.86102 m 1.71054,1.48883 2.13817,1.86104 m 1.71052,1.48883 2.13817,1.86104 m 1.71054,1.48883 2.13817,1.86104 m 1.71053,1.48883 2.13817,1.86102 m 1.71054,1.48883 2.13816,1.86104 m 1.71053,1.48883 2.13817,1.86104 m 1.71054,1.48883 2.13818,1.86104 m 1.71051,1.48883 2.13819,1.86102 m 1.71054,1.48883 2.13815,1.86104 m 1.71054,1.48883 2.13815,1.86104 m 1.71055,1.48883 2.13818,1.86104 m 1.71051,1.48883 2.13818,1.86102 m 1.71054,1.48883 2.13816,1.86104 m 1.71054,1.48883 2.13815,1.86105 m 1.71054,1.48883 0.0458,0.0399 M 56.09116,41.70378 v 0 m 105.27609,91.63109 v 0 m 1.41861,-0.19757 2.80755,-0.39096 m 2.24604,-0.31281 2.80755,-0.39099 m 2.24604,-0.31277 2.80755,-0.39099 m 2.24603,-0.31278 2.80756,-0.39099 m 2.24603,-0.31281 2.80756,-0.39099 m 2.24603,-0.31277 2.80756,-0.39099 m 2.24606,-0.31278 2.80753,-0.39099 m 2.24606,-0.3128 2.80753,-0.39098 m 2.24606,-0.31279 2.80756,-0.39099 m 2.24603,-0.31278 2.80755,-0.39099 m 2.24604,-0.31279 2.80755,-0.39099 m 2.24604,-0.31277 2.80755,-0.39099 m 2.24604,-0.31279 2.80755,-0.39099 m 2.24603,-0.31279 2.80756,-0.39098 m 2.24606,-0.31279 2.80753,-0.39099 m 2.24606,-0.31279 2.80756,-0.39098 m 2.24603,-0.31279 2.80756,-0.39099 m 2.24603,-0.31279 2.80756,-0.39097 m 2.24603,-0.31279 2.80755,-0.391 m 2.24604,-0.31279 2.80755,-0.39097 m 2.24604,-0.31279 2.80755,-0.39099 m 2.24604,-0.31279 2.80755,-0.39099 m 2.24603,-0.31278 2.80756,-0.39099"
       style="fill:none;stroke:#000000;stroke-width:0.3685;stroke-linecap:round;stroke-linejoin:round;stroke-miterlimit:10;stroke-dasharray:none;stroke-opacity:1"
       transform="matrix(1.3333333,0,0,-1.3333333,0,359.05467)" />
    <path
       id="path3"
       d="m 279.01849,116.9505 2.80753,-0.39099 m 2.24606,-0.31279 2.80756,-0.39098 m 2.24603,-0.31279 2.80756,-0.39099 m 2.24603,-0.31279 2.80756,-0.39097 m 2.24603,-0.31279 2.80756,-0.39099 m 2.24603,-0.31279 2.80755,-0.39098 m 2.24604,-0.31279 2.80755,-0.39099 m 2.24604,-0.31279 2.80755,-0.39098 m 2.24607,-0.31279 2.80752,-0.39099 m 2.24606,-0.31279 2.80756,-0.39097 m 2.24603,-0.31279 2.80756,-0.391 m 2.24603,-0.31279 2.80756,-0.39099 m 2.24603,-0.31277 2.80756,-0.39099 m 2.24603,-0.31279 2.80756,-0.39099 m 2.24603,-0.31279 2.80755,-0.39098 m 2.24607,-0.31279 2.80752,-0.39099 m 2.24607,-0.31279 2.80755,-0.39098 m 2.24604,-0.31279 2.80755,-0.39099 m 2.24603,-0.31279 2.80756,-0.39097 m 2.24603,-0.31279 2.80756,-0.39099 m 2.24603,-0.31279 2.80756,-0.39098 m 2.24603,-0.31279 2.80756,-0.39099 m 2.24606,-0.31279 2.80753,-0.39098 m 2.24606,-0.31279 2.80756,-0.39099 m 2.24603,-0.31279 2.80755,-0.39099 m 2.24604,-0.31277 2.80755,-0.391 m 2.24604,-0.31279 2.80755,-0.39099 m 2.24603,-0.31279 2.80756,-0.39097 m 2.24603,-0.31279 2.80756,-0.39099 m -261.95938,36.48103 v 0 M 424.5575,96.68243 v 0 M 56.09116,201.40759 v 26.57303 M 319.2814,164.75516 v 26.57303 L 56.09116,227.98062 m 0,-26.57303 263.19024,-36.65243 m -263.19024,63.22546 47.46551,41.31342 m 305.30069,0 -89.57596,-77.96585 m 0,-26.57303 105.91971,92.19128 M 56.09116,41.70378 v 26.57301 l 105.27609,91.63108 M 319.2814,5.05135 V 31.62436 L 56.09116,68.27679 m 0,-26.57301 L 319.2814,5.05135 m 105.2761,91.63108 v 26.57302 L 319.2814,31.62436 M 161.36725,159.90787 424.5575,123.25545 M 319.2814,5.05135 424.5575,96.68243"
       style="fill:none;stroke:#000000;stroke-width:0.3685;stroke-linecap:round;stroke-linejoin:round;stroke-miterlimit:10;stroke-dasharray:none;stroke-opacity:1"
       transform="matrix(1.3333333,0,0,-1.3333333,0,359.05467)" />
    <text
       id="text3"
       xml:space="preserve"
       transform="matrix(1.3333333,0,0,1.3333333,218.63904,196.68648)"
       clip-path="url(#clipPath4)"><tspan
         style="font-style:italic;font-variant:normal;font-weight:normal;font-stretch:normal;font-size:10.0071px;font-family:'Palatino Linotype';writing-mode:lr-tb;fill:#000000;fill-opacity:1;fill-rule:nonzero;stroke:none"
         x="0"
         y="0"
         id="tspan3">z</tspan></text>
    <text
       id="text4"
       xml:space="preserve"
       transform="matrix(1.3333333,0,0,1.3333333,240.47024,163.25764)"
       clip-path="url(#clipPath5)"><tspan
         style="font-style:italic;font-variant:normal;font-weight:normal;font-stretch:normal;font-size:10.0071px;font-family:'Palatino Linotype';writing-mode:lr-tb;fill:#000000;fill-opacity:1;fill-rule:nonzero;stroke:none"
         x="0"
         y="0"
         id="tspan4">x</tspan></text>
    <text
       id="text5"
       xml:space="preserve"
       transform="matrix(1.3333333,0,0,1.3333333,185.7904,182.71592)"
       clip-path="url(#clipPath6)"><tspan
         style="font-style:italic;font-variant:normal;font-weight:normal;font-stretch:normal;font-size:10.0071px;font-family:'Palatino Linotype';writing-mode:lr-tb;fill:#000000;fill-opacity:1;fill-rule:nonzero;stroke:none"
         x="0"
         y="0"
         id="tspan5">y</tspan></text>
    <text
       id="text6"
       xml:space="preserve"
       transform="matrix(1.3333333,0,0,1.3333333,253.73109,130.3578)"
       clip-path="url(#clipPath7)"><tspan
         style="font-style:italic;font-variant:normal;font-weight:normal;font-stretch:normal;font-size:10.0071px;font-family:'Palatino Linotype';writing-mode:lr-tb;fill:#000000;fill-opacity:1;fill-rule:nonzero;stroke:none"
         x="0"
         y="0"
         id="tspan6">z</tspan></text>
    <text
       id="text7"
       xml:space="preserve"
       transform="matrix(1.3333333,0,0,1.3333333,219.79035,122.50288)"
       clip-path="url(#clipPath8)"><tspan
         style="font-style:italic;font-variant:normal;font-weight:normal;font-stretch:normal;font-size:10.0071px;font-family:'Palatino Linotype';writing-mode:lr-tb;fill:#000000;fill-opacity:1;fill-rule:nonzero;stroke:none"
         x="0"
         y="0"
         id="tspan7">x</tspan></text>
    <text
       id="text8"
       xml:space="preserve"
       transform="matrix(1.3333333,0,0,1.3333333,281.97633,103.34304)"
       clip-path="url(#clipPath9)"><tspan
         style="font-style:italic;font-variant:normal;font-weight:normal;font-stretch:normal;font-size:10.0071px;font-family:'Palatino Linotype';writing-mode:lr-tb;fill:#000000;fill-opacity:1;fill-rule:nonzero;stroke:none"
         x="0"
         y="0"
         id="tspan8">y</tspan></text>
    <text
       id="text9"
       xml:space="preserve"
       transform="matrix(1.3333333,0,0,1.3333333,247.1032,28.168173)"
       clip-path="url(#clipPath10)"><tspan
         style="font-style:italic;font-variant:normal;font-weight:normal;font-stretch:normal;font-size:10.0071px;font-family:'Palatino Linotype';writing-mode:lr-tb;fill:#000000;fill-opacity:1;fill-rule:nonzero;stroke:none"
         x="0"
         y="0"
         id="tspan9">b</tspan></text>
    <text
       id="text10"
       xml:space="preserve"
       transform="matrix(1.3333333,0,0,1.3333333,75.789347,193.09579)"
       clip-path="url(#clipPath11)"><tspan
         style="font-style:italic;font-variant:normal;font-weight:normal;font-stretch:normal;font-size:10.0071px;font-family:'Palatino Linotype';writing-mode:lr-tb;fill:#000000;fill-opacity:1;fill-rule:nonzero;stroke:none"
         x="0"
         y="0"
         id="tspan10">1</tspan></text>
    <text
       id="text11"
       xml:space="preserve"
       transform="matrix(1.3333333,0,0,1.3333333,470.38024,255.47136)"
       clip-path="url(#clipPath12)"><tspan
         style="font-style:italic;font-variant:normal;font-weight:normal;font-stretch:normal;font-size:10.0071px;font-family:'Palatino Linotype';writing-mode:lr-tb;fill:#000000;fill-opacity:1;fill-rule:nonzero;stroke:none"
         x="0"
         y="0"
         id="tspan11">i</tspan></text>
    <text
       id="text12"
       xml:space="preserve"
       transform="matrix(1.3333333,0,0,1.3333333,474.37419,260.98317)"
       clip-path="url(#clipPath13)"><tspan
         style="font-style:italic;font-variant:normal;font-weight:normal;font-stretch:normal;font-size:6.00428px;font-family:'Palatino Linotype';writing-mode:lr-tb;fill:#000000;fill-opacity:1;fill-rule:nonzero;stroke:none"
         x="0 3.00214"
         y="0"
         sodipodi:role="line"
         id="tspan12">xy</tspan></text>
    <text
       id="text13"
       xml:space="preserve"
       transform="matrix(1.3333333,0,0,1.3333333,254.28817,282.62225)"
       clip-path="url(#clipPath14)"><tspan
         style="font-style:italic;font-variant:normal;font-weight:normal;font-stretch:normal;font-size:10.0071px;font-family:'Palatino Linotype';writing-mode:lr-tb;fill:#000000;fill-opacity:1;fill-rule:nonzero;stroke:none"
         x="0"
         y="0"
         id="tspan13">i</tspan></text>
    <text
       id="text14"
       xml:space="preserve"
       transform="matrix(1.3333333,0,0,1.3333333,258.28215,288.13407)"
       clip-path="url(#clipPath15)"><tspan
         style="font-style:italic;font-variant:normal;font-weight:normal;font-stretch:normal;font-size:6.00428px;font-family:'Palatino Linotype';writing-mode:lr-tb;fill:#000000;fill-opacity:1;fill-rule:nonzero;stroke:none"
         x="0 3.00214"
         y="0"
         sodipodi:role="line"
         id="tspan14">yx</tspan></text>
    <text
       id="text15"
       xml:space="preserve"
       transform="matrix(1.3333333,0,0,1.3333333,498.99349,304.42208)"
       clip-path="url(#clipPath16)"><tspan
         style="font-style:italic;font-variant:normal;font-weight:normal;font-stretch:normal;font-size:10.0071px;font-family:'Palatino Linotype';writing-mode:lr-tb;fill:#000000;fill-opacity:1;fill-rule:nonzero;stroke:none"
         x="0"
         y="0"
         id="tspan15">q</tspan></text>
    <text
       id="text16"
       xml:space="preserve"
       transform="matrix(1.3333333,0,0,1.3333333,506.67988,309.93389)"
       clip-path="url(#clipPath17)"><tspan
         style="font-style:italic;font-variant:normal;font-weight:normal;font-stretch:normal;font-size:6.00428px;font-family:'Palatino Linotype';writing-mode:lr-tb;fill:#000000;fill-opacity:1;fill-rule:nonzero;stroke:none"
         x="0 3.00214"
         y="0"
         sodipodi:role="line"
         id="tspan16">yx</tspan></text>
    <text
       id="text17"
       xml:space="preserve"
       transform="matrix(1.3333333,0,0,1.3333333,100.19645,107.23121)"
       clip-path="url(#clipPath18)"><tspan
         style="font-style:italic;font-variant:normal;font-weight:normal;font-stretch:normal;font-size:10.0071px;font-family:'Palatino Linotype';writing-mode:lr-tb;fill:#000000;fill-opacity:1;fill-rule:nonzero;stroke:none"
         x="0"
         y="0"
         id="tspan17">q</tspan></text>
    <text
       id="text18"
       xml:space="preserve"
       transform="matrix(1.3333333,0,0,1.3333333,107.88283,112.74304)"
       clip-path="url(#clipPath19)"><tspan
         style="font-style:italic;font-variant:normal;font-weight:normal;font-stretch:normal;font-size:6.00428px;font-family:'Palatino Linotype';writing-mode:lr-tb;fill:#000000;fill-opacity:1;fill-rule:nonzero;stroke:none"
         x="0 3.00214"
         y="0"
         sodipodi:role="line"
         id="tspan18">yx</tspan></text>
    <text
       id="text19"
       xml:space="preserve"
       transform="matrix(1.3333333,0,0,1.3333333,55.716613,72.275)"
       clip-path="url(#clipPath20)"><tspan
         style="font-style:italic;font-variant:normal;font-weight:normal;font-stretch:normal;font-size:10.0071px;font-family:'Palatino Linotype';writing-mode:lr-tb;fill:#000000;fill-opacity:1;fill-rule:nonzero;stroke:none"
         x="0"
         y="0"
         id="tspan19">q</tspan></text>
    <text
       id="text20"
       xml:space="preserve"
       transform="matrix(1.3333333,0,0,1.3333333,63.402987,77.786813)"
       clip-path="url(#clipPath21)"><tspan
         style="font-style:italic;font-variant:normal;font-weight:normal;font-stretch:normal;font-size:6.00428px;font-family:'Palatino Linotype';writing-mode:lr-tb;fill:#000000;fill-opacity:1;fill-rule:nonzero;stroke:none"
         x="0 2.6659002"
         y="0"
         sodipodi:role="line"
         id="tspan20">zx</tspan></text>
    <text
       id="text21"
       xml:space="preserve"
       transform="matrix(1.3333333,0,0,1.3333333,3.9833867,68.633733)"
       clip-path="url(#clipPath22)"><tspan
         style="font-style:italic;font-variant:normal;font-weight:normal;font-stretch:normal;font-size:10.0071px;font-family:'Palatino Linotype';writing-mode:lr-tb;fill:#000000;fill-opacity:1;fill-rule:nonzero;stroke:none"
         x="0"
         y="0"
         id="tspan21">h</tspan></text>
    <text
       id="text22"
       xml:space="preserve"
       transform="matrix(1.3333333,0,0,1.3333333,3.9833867,281.57215)"
       clip-path="url(#clipPath23)"><tspan
         style="font-style:italic;font-variant:normal;font-weight:normal;font-stretch:normal;font-size:10.0071px;font-family:'Palatino Linotype';writing-mode:lr-tb;fill:#000000;fill-opacity:1;fill-rule:nonzero;stroke:none"
         x="0"
         y="0"
         id="tspan22">h</tspan></text>
    <text
       id="text23"
       xml:space="preserve"
       transform="matrix(1.3333333,0,0,1.3333333,254.09301,70.712827)"
       clip-path="url(#clipPath24)"><tspan
         style="font-style:italic;font-variant:normal;font-weight:normal;font-stretch:normal;font-size:10.0071px;font-family:'Palatino Linotype';writing-mode:lr-tb;fill:#000000;fill-opacity:1;fill-rule:nonzero;stroke:none"
         x="0"
         y="0"
         id="tspan23">I</tspan></text>
    <text
       id="text24"
       xml:space="preserve"
       transform="matrix(1.3333333,0,0,1.3333333,258.71689,76.224653)"
       clip-path="url(#clipPath25)"><tspan
         style="font-style:italic;font-variant:normal;font-weight:normal;font-stretch:normal;font-size:6.00428px;font-family:'Palatino Linotype';writing-mode:lr-tb;fill:#000000;fill-opacity:1;fill-rule:nonzero;stroke:none"
         x="0"
         y="0"
         id="tspan24">x</tspan></text>
    <path
       id="path26"
       d="m 161.36725,146.62137 v -22.17688 m 0,5.95276 v 0.4252 m 0,-6.37796 v 0 l 0.8504,5.95276 h -1.70077 l 0.85037,-5.95276"
       style="fill:none;stroke:#000000;stroke-width:0.3685;stroke-linecap:round;stroke-linejoin:round;stroke-miterlimit:10;stroke-dasharray:none;stroke-opacity:1"
       transform="matrix(1.3333333,0,0,-1.3333333,0,359.05467)" />
    <path
       id="path27"
       d="m 160.51688,130.39725 0.85037,-5.95276 0.8504,5.95276 z"
       style="fill:#000000;fill-opacity:1;fill-rule:nonzero;stroke:none"
       transform="matrix(1.3333333,0,0,-1.3333333,0,359.05467)" />
    <path
       id="path28"
       d="m 161.36725,146.62137 21.9649,-3.05887 m -5.89584,0.82108 -0.42114,0.0586 m 6.31698,-0.8797 v 0 l -5.77856,1.66333 -0.23459,-1.68454 6.01315,0.0212"
       style="fill:none;stroke:#000000;stroke-width:0.3685;stroke-linecap:round;stroke-linejoin:round;stroke-miterlimit:10;stroke-dasharray:none;stroke-opacity:1"
       transform="matrix(1.3333333,0,0,-1.3333333,0,359.05467)" />
    <path
       id="path29"
       d="m 177.319,143.54129 6.01315,0.0212 -5.77856,1.66333 -0.23459,-1.68454 z"
       style="fill:#000000;fill-opacity:1;fill-rule:nonzero;stroke:none"
       transform="matrix(1.3333333,0,0,-1.3333333,0,359.05467)" />
    <path
       id="path30"
       d="m 161.36725,146.62137 -16.72797,-14.55982 m 4.49015,3.90818 0.32073,0.27914 m -4.81088,-4.18732 v 0 l 5.04846,3.26673 -1.1166,1.2829 -3.93186,-4.54963"
       style="fill:none;stroke:#000000;stroke-width:0.3685;stroke-linecap:round;stroke-linejoin:round;stroke-miterlimit:10;stroke-dasharray:none;stroke-opacity:1"
       transform="matrix(1.3333333,0,0,-1.3333333,0,359.05467)" />
    <path
       id="path31"
       d="m 148.57114,136.61118 -3.93186,-4.54963 5.04846,3.26673 z"
       style="fill:#000000;fill-opacity:1;fill-rule:nonzero;stroke:none"
       transform="matrix(1.3333333,0,0,-1.3333333,0,359.05467)" />
    <path
       id="path32"
       d="m 67.07361,220.78189 21.9649,-3.0589 m -16.06904,2.23783 0.42112,-0.0587 m -6.31698,0.87973 v 0 l 6.01315,0.0212 -0.23459,-1.68451 -5.77856,1.66333"
       style="fill:none;stroke:#000000;stroke-width:0.3685;stroke-linecap:round;stroke-linejoin:round;stroke-miterlimit:10;stroke-dasharray:none;stroke-opacity:1"
       transform="matrix(1.3333333,0,0,-1.3333333,0,359.05467)" />
    <path
       id="path33"
       d="m 72.85217,219.11856 0.23459,1.68451 -6.01315,-0.0212 5.77856,-1.66333 z"
       style="fill:#000000;fill-opacity:1;fill-rule:nonzero;stroke:none"
       transform="matrix(1.3333333,0,0,-1.3333333,0,359.05467)" />
    <path
       id="path34"
       d="m 103.07626,215.76807 21.96491,-3.05887 m -16.06905,2.23779 0.42114,-0.0586 m -6.317,0.8797 v 0 l 6.01316,0.0212 -0.23459,-1.68454 -5.77857,1.66333"
       style="fill:none;stroke:#000000;stroke-width:0.3685;stroke-linecap:round;stroke-linejoin:round;stroke-miterlimit:10;stroke-dasharray:none;stroke-opacity:1"
       transform="matrix(1.3333333,0,0,-1.3333333,0,359.05467)" />
    <path
       id="path35"
       d="m 108.85483,214.10474 0.23459,1.68454 -6.01316,-0.0212 5.77857,-1.66333 z"
       style="fill:#000000;fill-opacity:1;fill-rule:nonzero;stroke:none"
       transform="matrix(1.3333333,0,0,-1.3333333,0,359.05467)" />
    <path
       id="path36"
       d="m 139.07892,210.75427 21.9649,-3.0589 m -16.06903,2.23783 0.42115,-0.0587 m -6.31702,0.87973 v 0 l 6.01315,0.0212 -0.23459,-1.68451 -5.77856,1.66333"
       style="fill:none;stroke:#000000;stroke-width:0.3685;stroke-linecap:round;stroke-linejoin:round;stroke-miterlimit:10;stroke-dasharray:none;stroke-opacity:1"
       transform="matrix(1.3333333,0,0,-1.3333333,0,359.05467)" />
    <path
       id="path37"
       d="m 144.85748,209.09094 0.23459,1.68451 -6.01315,-0.0212 5.77856,-1.66333 z"
       style="fill:#000000;fill-opacity:1;fill-rule:nonzero;stroke:none"
       transform="matrix(1.3333333,0,0,-1.3333333,0,359.05467)" />
    <path
       id="path38"
       d="m 175.0816,205.74045 21.96491,-3.05887 m -16.06906,2.23779 0.42114,-0.0586 m -6.31699,0.8797 v 0 l 6.01316,0.0212 -0.23459,-1.68454 -5.77857,1.66333"
       style="fill:none;stroke:#000000;stroke-width:0.3685;stroke-linecap:round;stroke-linejoin:round;stroke-miterlimit:10;stroke-dasharray:none;stroke-opacity:1"
       transform="matrix(1.3333333,0,0,-1.3333333,0,359.05467)" />
    <path
       id="path39"
       d="m 180.86017,204.07712 0.23459,1.68454 -6.01316,-0.0212 5.77857,-1.66333 z"
       style="fill:#000000;fill-opacity:1;fill-rule:nonzero;stroke:none"
       transform="matrix(1.3333333,0,0,-1.3333333,0,359.05467)" />
    <path
       id="path40"
       d="m 211.08426,200.72665 21.9649,-3.05889 m -16.06906,2.23782 0.42115,-0.0587 m -6.31699,0.87973 v 0 l 6.01315,0.0212 -0.23459,-1.68451 -5.77856,1.66333"
       style="fill:none;stroke:#000000;stroke-width:0.3685;stroke-linecap:round;stroke-linejoin:round;stroke-miterlimit:10;stroke-dasharray:none;stroke-opacity:1"
       transform="matrix(1.3333333,0,0,-1.3333333,0,359.05467)" />
    <path
       id="path41"
       d="m 216.86282,199.06332 0.23459,1.68451 -6.01315,-0.0212 5.77856,-1.66333 z"
       style="fill:#000000;fill-opacity:1;fill-rule:nonzero;stroke:none"
       transform="matrix(1.3333333,0,0,-1.3333333,0,359.05467)" />
    <path
       id="path42"
       d="m 247.08691,195.71283 21.96491,-3.05887 m -16.06906,2.23782 0.42114,-0.0587 m -6.31699,0.8797 v 0 l 6.01316,0.0212 -0.23459,-1.68451 -5.77857,1.6633"
       style="fill:none;stroke:#000000;stroke-width:0.3685;stroke-linecap:round;stroke-linejoin:round;stroke-miterlimit:10;stroke-dasharray:none;stroke-opacity:1"
       transform="matrix(1.3333333,0,0,-1.3333333,0,359.05467)" />
    <path
       id="path43"
       d="m 252.86548,194.04953 0.23459,1.68451 -6.01316,-0.0212 5.77857,-1.6633 z"
       style="fill:#000000;fill-opacity:1;fill-rule:nonzero;stroke:none"
       transform="matrix(1.3333333,0,0,-1.3333333,0,359.05467)" />
    <path
       id="path44"
       d="m 283.08957,190.69904 21.9649,-3.05887 m -16.06906,2.23779 0.42115,-0.0587 m -6.31699,0.87973 v 0 l 6.01315,0.0212 -0.23459,-1.68454 -5.77856,1.66333"
       style="fill:none;stroke:#000000;stroke-width:0.3685;stroke-linecap:round;stroke-linejoin:round;stroke-miterlimit:10;stroke-dasharray:none;stroke-opacity:1"
       transform="matrix(1.3333333,0,0,-1.3333333,0,359.05467)" />
    <path
       id="path45"
       d="m 288.86813,189.03571 0.23459,1.68454 -6.01315,-0.0212 5.77856,-1.66333 z"
       style="fill:#000000;fill-opacity:1;fill-rule:nonzero;stroke:none"
       transform="matrix(1.3333333,0,0,-1.3333333,0,359.05467)" />
    <path
       id="path46"
       d="m 68.6226,205.33173 21.96491,-3.05887 m -5.89586,0.82107 -0.42114,0.0586 m 6.317,-0.8797 v 0 l -5.77857,1.66333 -0.23458,-1.68454 6.01315,0.0212"
       style="fill:none;stroke:#000000;stroke-width:0.3685;stroke-linecap:round;stroke-linejoin:round;stroke-miterlimit:10;stroke-dasharray:none;stroke-opacity:1"
       transform="matrix(1.3333333,0,0,-1.3333333,0,359.05467)" />
    <path
       id="path47"
       d="m 84.57436,202.25165 6.01315,0.0212 -5.77857,1.66333 -0.23458,-1.68454 z"
       style="fill:#000000;fill-opacity:1;fill-rule:nonzero;stroke:none"
       transform="matrix(1.3333333,0,0,-1.3333333,0,359.05467)" />
    <path
       id="path48"
       d="m 104.62526,200.31793 21.9649,-3.0589 m -5.89585,0.82108 -0.42113,0.0587 m 6.31698,-0.87973 v 0 l -5.77856,1.66333 -0.23459,-1.68451 6.01315,0.0212"
       style="fill:none;stroke:#000000;stroke-width:0.3685;stroke-linecap:round;stroke-linejoin:round;stroke-miterlimit:10;stroke-dasharray:none;stroke-opacity:1"
       transform="matrix(1.3333333,0,0,-1.3333333,0,359.05467)" />
    <path
       id="path49"
       d="m 120.57701,197.23785 6.01315,0.0212 -5.77856,1.66333 -0.23459,-1.68451 z"
       style="fill:#000000;fill-opacity:1;fill-rule:nonzero;stroke:none"
       transform="matrix(1.3333333,0,0,-1.3333333,0,359.05467)" />
    <path
       id="path50"
       d="m 140.62793,195.30411 21.9649,-3.05887 m -5.89587,0.82107 -0.42111,0.0586 m 6.31698,-0.8797 v 0 l -5.77856,1.66333 -0.23459,-1.68451 6.01315,0.0212"
       style="fill:none;stroke:#000000;stroke-width:0.3685;stroke-linecap:round;stroke-linejoin:round;stroke-miterlimit:10;stroke-dasharray:none;stroke-opacity:1"
       transform="matrix(1.3333333,0,0,-1.3333333,0,359.05467)" />
    <path
       id="path51"
       d="m 156.57968,192.22406 6.01315,0.0212 -5.77856,1.66333 -0.23459,-1.68451 z"
       style="fill:#000000;fill-opacity:1;fill-rule:nonzero;stroke:none"
       transform="matrix(1.3333333,0,0,-1.3333333,0,359.05467)" />
    <path
       id="path52"
       d="m 176.63058,190.29031 21.96491,-3.0589 m -5.89587,0.82108 -0.42112,0.0587 m 6.31699,-0.87974 v 0 l -5.77856,1.66337 -0.23459,-1.68454 6.01315,0.0212"
       style="fill:none;stroke:#000000;stroke-width:0.3685;stroke-linecap:round;stroke-linejoin:round;stroke-miterlimit:10;stroke-dasharray:none;stroke-opacity:1"
       transform="matrix(1.3333333,0,0,-1.3333333,0,359.05467)" />
    <path
       id="path53"
       d="m 192.58234,187.21024 6.01315,0.0212 -5.77856,1.66337 -0.23459,-1.68454 z"
       style="fill:#000000;fill-opacity:1;fill-rule:nonzero;stroke:none"
       transform="matrix(1.3333333,0,0,-1.3333333,0,359.05467)" />
    <path
       id="path54"
       d="m 212.63324,185.27649 21.9649,-3.05887 m -5.89584,0.82108 -0.42114,0.0587 m 6.31698,-0.87973 v 0 l -5.77856,1.66333 -0.23459,-1.68451 6.01315,0.0212"
       style="fill:none;stroke:#000000;stroke-width:0.3685;stroke-linecap:round;stroke-linejoin:round;stroke-miterlimit:10;stroke-dasharray:none;stroke-opacity:1"
       transform="matrix(1.3333333,0,0,-1.3333333,0,359.05467)" />
    <path
       id="path55"
       d="m 228.58499,182.19644 6.01315,0.0212 -5.77856,1.66333 -0.23459,-1.68451 z"
       style="fill:#000000;fill-opacity:1;fill-rule:nonzero;stroke:none"
       transform="matrix(1.3333333,0,0,-1.3333333,0,359.05467)" />
    <path
       id="path56"
       d="m 248.63589,180.2627 21.96491,-3.05887 m -5.89584,0.82104 -0.42115,0.0587 m 6.31699,-0.8797 v 0 l -5.77856,1.66333 -0.23459,-1.68454 6.01315,0.0212"
       style="fill:none;stroke:#000000;stroke-width:0.3685;stroke-linecap:round;stroke-linejoin:round;stroke-miterlimit:10;stroke-dasharray:none;stroke-opacity:1"
       transform="matrix(1.3333333,0,0,-1.3333333,0,359.05467)" />
    <path
       id="path57"
       d="m 264.58765,177.18262 6.01315,0.0212 -5.77856,1.66333 -0.23459,-1.68454 z"
       style="fill:#000000;fill-opacity:1;fill-rule:nonzero;stroke:none"
       transform="matrix(1.3333333,0,0,-1.3333333,0,359.05467)" />
    <path
       id="path58"
       d="m 284.63855,175.2489 21.9649,-3.0589 m -5.89584,0.82108 -0.42114,0.0587 m 6.31698,-0.87973 v 0 l -5.77856,1.66333 -0.23459,-1.68451 6.01315,0.0212"
       style="fill:none;stroke:#000000;stroke-width:0.3685;stroke-linecap:round;stroke-linejoin:round;stroke-miterlimit:10;stroke-dasharray:none;stroke-opacity:1"
       transform="matrix(1.3333333,0,0,-1.3333333,0,359.05467)" />
    <path
       id="path59"
       d="m 300.5903,172.16882 6.01315,0.0212 -5.77856,1.66333 -0.23459,-1.68451 z"
       style="fill:#000000;fill-opacity:1;fill-rule:nonzero;stroke:none"
       transform="matrix(1.3333333,0,0,-1.3333333,0,359.05467)" />
    <path
       id="path60"
       d="m 61.70625,221.52936 v -15.23444 m 0,5.95276 v 0.4252 m 0,-6.37796 v 0 l 0.85041,5.95276 h -1.70079 l 0.85038,-5.95276"
       style="fill:none;stroke:#000000;stroke-width:0.3685;stroke-linecap:round;stroke-linejoin:round;stroke-miterlimit:10;stroke-dasharray:none;stroke-opacity:1"
       transform="matrix(1.3333333,0,0,-1.3333333,0,359.05467)" />
    <path
       id="path61"
       d="m 60.85587,212.24768 0.85038,-5.95276 0.85041,5.95276 z"
       style="fill:#000000;fill-opacity:1;fill-rule:nonzero;stroke:none"
       transform="matrix(1.3333333,0,0,-1.3333333,0,359.05467)" />
    <path
       id="path62"
       d="m 313.66629,186.44086 v -15.23444 m 0,5.95276 v 0.4252 m 0,-6.37796 v 0 l 0.8504,5.95276 h -1.7008 l 0.8504,-5.95276"
       style="fill:none;stroke:#000000;stroke-width:0.3685;stroke-linecap:round;stroke-linejoin:round;stroke-miterlimit:10;stroke-dasharray:none;stroke-opacity:1"
       transform="matrix(1.3333333,0,0,-1.3333333,0,359.05467)" />
    <path
       id="path63"
       d="m 312.81589,177.15918 0.8504,-5.95276 0.8504,5.95276 z"
       style="fill:#000000;fill-opacity:1;fill-rule:nonzero;stroke:none"
       transform="matrix(1.3333333,0,0,-1.3333333,0,359.05467)" />
    <path
       id="path64"
       d="m 67.07361,61.07806 21.9649,-3.05888 m -16.06904,2.23781 0.42112,-0.05864 m -6.31698,0.87971 v 0 l 6.01315,0.0212 -0.23459,-1.68453 -5.77856,1.66333"
       style="fill:none;stroke:#000000;stroke-width:0.3685;stroke-linecap:round;stroke-linejoin:round;stroke-miterlimit:10;stroke-dasharray:none;stroke-opacity:1"
       transform="matrix(1.3333333,0,0,-1.3333333,0,359.05467)" />
    <path
       id="path65"
       d="m 72.85217,59.41473 0.23459,1.68453 -6.01315,-0.0212 z"
       style="fill:#000000;fill-opacity:1;fill-rule:nonzero;stroke:none"
       transform="matrix(1.3333333,0,0,-1.3333333,0,359.05467)" />
    <path
       id="path66"
       d="m 103.07626,56.06425 21.96491,-3.05888 m -16.06905,2.23782 0.42114,-0.05865 m -6.317,0.87971 v 0 l 6.01316,0.0212 -0.23459,-1.68453 -5.77857,1.66333"
       style="fill:none;stroke:#000000;stroke-width:0.3685;stroke-linecap:round;stroke-linejoin:round;stroke-miterlimit:10;stroke-dasharray:none;stroke-opacity:1"
       transform="matrix(1.3333333,0,0,-1.3333333,0,359.05467)" />
    <path
       id="path67"
       d="m 108.85483,54.40092 0.23459,1.68453 -6.01316,-0.0212 z"
       style="fill:#000000;fill-opacity:1;fill-rule:nonzero;stroke:none"
       transform="matrix(1.3333333,0,0,-1.3333333,0,359.05467)" />
    <path
       id="path68"
       d="m 139.07892,51.05045 21.9649,-3.05887 m -16.06903,2.23781 0.42115,-0.05866 m -6.31702,0.87972 v 0 l 6.01315,0.02119 -0.23459,-1.68451 -5.77856,1.66332"
       style="fill:none;stroke:#000000;stroke-width:0.3685;stroke-linecap:round;stroke-linejoin:round;stroke-miterlimit:10;stroke-dasharray:none;stroke-opacity:1"
       transform="matrix(1.3333333,0,0,-1.3333333,0,359.05467)" />
    <path
       id="path69"
       d="m 144.85748,49.38713 0.23459,1.68451 -6.01315,-0.02119 z"
       style="fill:#000000;fill-opacity:1;fill-rule:nonzero;stroke:none"
       transform="matrix(1.3333333,0,0,-1.3333333,0,359.05467)" />
    <path
       id="path70"
       d="m 175.0816,46.03664 21.96491,-3.05887 m -16.06906,2.23781 0.42114,-0.05866 m -6.31699,0.87972 v 0 l 6.01316,0.02121 -0.23459,-1.68453 -5.77857,1.66332"
       style="fill:none;stroke:#000000;stroke-width:0.3685;stroke-linecap:round;stroke-linejoin:round;stroke-miterlimit:10;stroke-dasharray:none;stroke-opacity:1"
       transform="matrix(1.3333333,0,0,-1.3333333,0,359.05467)" />
    <path
       id="path71"
       d="m 180.86017,44.37332 0.23459,1.68453 -6.01316,-0.02121 z"
       style="fill:#000000;fill-opacity:1;fill-rule:nonzero;stroke:none"
       transform="matrix(1.3333333,0,0,-1.3333333,0,359.05467)" />
    <path
       id="path72"
       d="m 211.08426,41.02284 21.9649,-3.05888 m -16.06906,2.23781 0.42115,-0.05866 m -6.31699,0.87973 v 0 l 6.01315,0.0212 -0.23459,-1.68453 -5.77856,1.66333"
       style="fill:none;stroke:#000000;stroke-width:0.3685;stroke-linecap:round;stroke-linejoin:round;stroke-miterlimit:10;stroke-dasharray:none;stroke-opacity:1"
       transform="matrix(1.3333333,0,0,-1.3333333,0,359.05467)" />
    <path
       id="path73"
       d="m 216.86282,39.35951 0.23459,1.68453 -6.01315,-0.0212 z"
       style="fill:#000000;fill-opacity:1;fill-rule:nonzero;stroke:none"
       transform="matrix(1.3333333,0,0,-1.3333333,0,359.05467)" />
    <path
       id="path74"
       d="m 247.08691,36.00903 21.96491,-3.05888 m -16.06906,2.23781 0.42114,-0.05864 m -6.31699,0.87971 v 0 l 6.01316,0.0212 -0.23459,-1.68453 -5.77857,1.66333"
       style="fill:none;stroke:#000000;stroke-width:0.3685;stroke-linecap:round;stroke-linejoin:round;stroke-miterlimit:10;stroke-dasharray:none;stroke-opacity:1"
       transform="matrix(1.3333333,0,0,-1.3333333,0,359.05467)" />
    <path
       id="path75"
       d="m 252.86548,34.3457 0.23459,1.68453 -6.01316,-0.0212 z"
       style="fill:#000000;fill-opacity:1;fill-rule:nonzero;stroke:none"
       transform="matrix(1.3333333,0,0,-1.3333333,0,359.05467)" />
    <path
       id="path76"
       d="m 283.08957,30.99522 21.9649,-3.05888 m -16.06906,2.23781 0.42115,-0.05864 m -6.31699,0.87971 v 0 l 6.01315,0.0212 -0.23459,-1.68453 -5.77856,1.66333"
       style="fill:none;stroke:#000000;stroke-width:0.3685;stroke-linecap:round;stroke-linejoin:round;stroke-miterlimit:10;stroke-dasharray:none;stroke-opacity:1"
       transform="matrix(1.3333333,0,0,-1.3333333,0,359.05467)" />
    <path
       id="path77"
       d="m 288.86813,29.33189 0.23459,1.68453 -6.01315,-0.0212 z"
       style="fill:#000000;fill-opacity:1;fill-rule:nonzero;stroke:none"
       transform="matrix(1.3333333,0,0,-1.3333333,0,359.05467)" />
    <path
       id="path78"
       d="m 68.6226,45.62791 21.96491,-3.05888 m -5.89586,0.82108 -0.42114,0.05865 m 6.317,-0.87973 v 0 l -5.77857,1.66335 -0.23458,-1.68453 6.01315,0.02118"
       style="fill:none;stroke:#000000;stroke-width:0.3685;stroke-linecap:round;stroke-linejoin:round;stroke-miterlimit:10;stroke-dasharray:none;stroke-opacity:1"
       transform="matrix(1.3333333,0,0,-1.3333333,0,359.05467)" />
    <path
       id="path79"
       d="m 84.57436,42.54785 6.01315,0.02118 -5.77857,1.66335 z"
       style="fill:#000000;fill-opacity:1;fill-rule:nonzero;stroke:none"
       transform="matrix(1.3333333,0,0,-1.3333333,0,359.05467)" />
    <path
       id="path80"
       d="m 104.62526,40.61411 21.9649,-3.05887 m -5.89585,0.82106 -0.42113,0.05865 m 6.31698,-0.87971 v 0 l -5.77856,1.66333 -0.23459,-1.68453 6.01315,0.0212"
       style="fill:none;stroke:#000000;stroke-width:0.3685;stroke-linecap:round;stroke-linejoin:round;stroke-miterlimit:10;stroke-dasharray:none;stroke-opacity:1"
       transform="matrix(1.3333333,0,0,-1.3333333,0,359.05467)" />
    <path
       id="path81"
       d="m 120.57701,37.53404 6.01315,0.0212 -5.77856,1.66333 z"
       style="fill:#000000;fill-opacity:1;fill-rule:nonzero;stroke:none"
       transform="matrix(1.3333333,0,0,-1.3333333,0,359.05467)" />
    <path
       id="path82"
       d="m 140.62793,35.6003 21.9649,-3.05887 m -5.89587,0.82106 -0.42111,0.05865 m 6.31698,-0.87971 v 0 l -5.77856,1.66333 -0.23459,-1.68453 6.01315,0.0212"
       style="fill:none;stroke:#000000;stroke-width:0.3685;stroke-linecap:round;stroke-linejoin:round;stroke-miterlimit:10;stroke-dasharray:none;stroke-opacity:1"
       transform="matrix(1.3333333,0,0,-1.3333333,0,359.05467)" />
    <path
       id="path83"
       d="m 156.57968,32.52023 6.01315,0.0212 -5.77856,1.66333 z"
       style="fill:#000000;fill-opacity:1;fill-rule:nonzero;stroke:none"
       transform="matrix(1.3333333,0,0,-1.3333333,0,359.05467)" />
    <path
       id="path84"
       d="m 176.63058,30.58649 21.96491,-3.05887 m -5.89587,0.82106 -0.42112,0.05865 m 6.31699,-0.87971 v 0 l -5.77856,1.66333 -0.23459,-1.68453 6.01315,0.0212"
       style="fill:none;stroke:#000000;stroke-width:0.3685;stroke-linecap:round;stroke-linejoin:round;stroke-miterlimit:10;stroke-dasharray:none;stroke-opacity:1"
       transform="matrix(1.3333333,0,0,-1.3333333,0,359.05467)" />
    <path
       id="path85"
       d="m 192.58234,27.50642 6.01315,0.0212 -5.77856,1.66333 z"
       style="fill:#000000;fill-opacity:1;fill-rule:nonzero;stroke:none"
       transform="matrix(1.3333333,0,0,-1.3333333,0,359.05467)" />
    <path
       id="path86"
       d="m 212.63324,25.57269 21.9649,-3.05888 m -5.89584,0.82107 -0.42114,0.05864 m 6.31698,-0.87971 v 0 l -5.77856,1.66333 -0.23459,-1.68453 6.01315,0.0212"
       style="fill:none;stroke:#000000;stroke-width:0.3685;stroke-linecap:round;stroke-linejoin:round;stroke-miterlimit:10;stroke-dasharray:none;stroke-opacity:1"
       transform="matrix(1.3333333,0,0,-1.3333333,0,359.05467)" />
    <path
       id="path87"
       d="m 228.58499,22.49261 6.01315,0.0212 -5.77856,1.66333 z"
       style="fill:#000000;fill-opacity:1;fill-rule:nonzero;stroke:none"
       transform="matrix(1.3333333,0,0,-1.3333333,0,359.05467)" />
    <path
       id="path88"
       d="M 248.63589,20.55888 270.6008,17.5 m -5.89584,0.82108 -0.42115,0.05863 M 270.6008,17.5 v 0 l -5.77856,1.66333 -0.23459,-1.68452 6.01315,0.02119"
       style="fill:none;stroke:#000000;stroke-width:0.3685;stroke-linecap:round;stroke-linejoin:round;stroke-miterlimit:10;stroke-dasharray:none;stroke-opacity:1"
       transform="matrix(1.3333333,0,0,-1.3333333,0,359.05467)" />
    <path
       id="path89"
       d="M 264.58765,17.47881 270.6008,17.5 264.82224,19.16333 Z"
       style="fill:#000000;fill-opacity:1;fill-rule:nonzero;stroke:none"
       transform="matrix(1.3333333,0,0,-1.3333333,0,359.05467)" />
    <path
       id="path90"
       d="m 284.63855,15.54507 21.9649,-3.05888 m -5.89584,0.82108 -0.42114,0.05864 m 6.31698,-0.87972 v 0 l -5.77856,1.66333 -0.23459,-1.68451 6.01315,0.02118"
       style="fill:none;stroke:#000000;stroke-width:0.3685;stroke-linecap:round;stroke-linejoin:round;stroke-miterlimit:10;stroke-dasharray:none;stroke-opacity:1"
       transform="matrix(1.3333333,0,0,-1.3333333,0,359.05467)" />
    <path
       id="path91"
       d="m 300.5903,12.46501 6.01315,0.02118 -5.77856,1.66333 z"
       style="fill:#000000;fill-opacity:1;fill-rule:nonzero;stroke:none"
       transform="matrix(1.3333333,0,0,-1.3333333,0,359.05467)" />
    <path
       id="path92"
       d="m 335.32697,23.85266 -10.69083,-9.30519 m 4.49014,3.90819 0.32074,0.27914 m -4.81088,-4.18733 v 0 l 5.04846,3.26672 -1.11661,1.2829 -3.93185,-4.54962"
       style="fill:none;stroke:#000000;stroke-width:0.3685;stroke-linecap:round;stroke-linejoin:round;stroke-miterlimit:10;stroke-dasharray:none;stroke-opacity:1"
       transform="matrix(1.3333333,0,0,-1.3333333,0,359.05467)" />
    <path
       id="path93"
       d="m 328.56799,19.09709 -3.93185,-4.54962 5.04846,3.26672 z"
       style="fill:#000000;fill-opacity:1;fill-rule:nonzero;stroke:none"
       transform="matrix(1.3333333,0,0,-1.3333333,0,359.05467)" />
    <path
       id="path94"
       d="m 352.43231,38.74094 -10.69082,-9.30518 m 4.49014,3.90817 0.32074,0.27916 m -4.81088,-4.18733 v 0 l 5.04846,3.26672 -1.11661,1.2829 -3.93185,-4.54962"
       style="fill:none;stroke:#000000;stroke-width:0.3685;stroke-linecap:round;stroke-linejoin:round;stroke-miterlimit:10;stroke-dasharray:none;stroke-opacity:1"
       transform="matrix(1.3333333,0,0,-1.3333333,0,359.05467)" />
    <path
       id="path95"
       d="m 345.67334,33.98538 -3.93185,-4.54962 5.04846,3.26672 z"
       style="fill:#000000;fill-opacity:1;fill-rule:nonzero;stroke:none"
       transform="matrix(1.3333333,0,0,-1.3333333,0,359.05467)" />
    <path
       id="path96"
       d="m 369.53766,53.62923 -10.69083,-9.30518 m 4.49015,3.90817 0.3207,0.27916 m -4.81085,-4.18733 v 0 l 5.04846,3.26672 -1.11663,1.2829 -3.93183,-4.54962"
       style="fill:none;stroke:#000000;stroke-width:0.3685;stroke-linecap:round;stroke-linejoin:round;stroke-miterlimit:10;stroke-dasharray:none;stroke-opacity:1"
       transform="matrix(1.3333333,0,0,-1.3333333,0,359.05467)" />
    <path
       id="path97"
       d="m 362.77866,48.87367 -3.93183,-4.54962 5.04846,3.26672 z"
       style="fill:#000000;fill-opacity:1;fill-rule:nonzero;stroke:none"
       transform="matrix(1.3333333,0,0,-1.3333333,0,359.05467)" />
    <path
       id="path98"
       d="m 386.64301,68.51752 -10.69086,-9.30518 m 4.49017,3.90817 0.32071,0.27916 m -4.81088,-4.18733 v 0 l 5.04846,3.26672 -1.11661,1.2829 -3.93185,-4.54962"
       style="fill:none;stroke:#000000;stroke-width:0.3685;stroke-linecap:round;stroke-linejoin:round;stroke-miterlimit:10;stroke-dasharray:none;stroke-opacity:1"
       transform="matrix(1.3333333,0,0,-1.3333333,0,359.05467)" />
    <path
       id="path99"
       d="m 379.884,63.76196 -3.93185,-4.54962 5.04846,3.26672 z"
       style="fill:#000000;fill-opacity:1;fill-rule:nonzero;stroke:none"
       transform="matrix(1.3333333,0,0,-1.3333333,0,359.05467)" />
    <path
       id="path100"
       d="M 403.74835,83.40581 393.0575,74.10063 m 4.49014,3.90817 0.32074,0.27916 m -4.81088,-4.18733 v 0 l 5.04846,3.26673 -1.11661,1.28289 -3.93185,-4.54962"
       style="fill:none;stroke:#000000;stroke-width:0.3685;stroke-linecap:round;stroke-linejoin:round;stroke-miterlimit:10;stroke-dasharray:none;stroke-opacity:1"
       transform="matrix(1.3333333,0,0,-1.3333333,0,359.05467)" />
    <path
       id="path101"
       d="m 396.98935,78.65025 -3.93185,-4.54962 5.04846,3.26673 z"
       style="fill:#000000;fill-opacity:1;fill-rule:nonzero;stroke:none"
       transform="matrix(1.3333333,0,0,-1.3333333,0,359.05467)" />
    <path
       id="path102"
       d="m 420.85367,98.2941 -10.69083,-9.30518 m 4.49014,3.90817 0.32074,0.27916 m -4.81088,-4.18733 v 0 l 5.04846,3.26673 -1.1166,1.28289 -3.93186,-4.54962"
       style="fill:none;stroke:#000000;stroke-width:0.3685;stroke-linecap:round;stroke-linejoin:round;stroke-miterlimit:10;stroke-dasharray:none;stroke-opacity:1"
       transform="matrix(1.3333333,0,0,-1.3333333,0,359.05467)" />
    <path
       id="path103"
       d="m 414.0947,93.53854 -3.93186,-4.54962 5.04846,3.26673 z"
       style="fill:#000000;fill-opacity:1;fill-rule:nonzero;stroke:none"
       transform="matrix(1.3333333,0,0,-1.3333333,0,359.05467)" />
    <path
       id="path104"
       d="m 335.32697,40.75484 -10.69083,-9.30518 m 6.20068,5.397 -0.32071,-0.27916 m 4.81086,4.18734 v 0 l -3.93183,-4.54962 -1.11661,1.28288 5.04844,3.26674"
       style="fill:none;stroke:#000000;stroke-width:0.3685;stroke-linecap:round;stroke-linejoin:round;stroke-miterlimit:10;stroke-dasharray:none;stroke-opacity:1"
       transform="matrix(1.3333333,0,0,-1.3333333,0,359.05467)" />
    <path
       id="path105"
       d="m 330.27853,37.4881 1.11661,-1.28288 3.93183,4.54962 z"
       style="fill:#000000;fill-opacity:1;fill-rule:nonzero;stroke:none"
       transform="matrix(1.3333333,0,0,-1.3333333,0,359.05467)" />
    <path
       id="path106"
       d="m 352.43231,55.64313 -10.69082,-9.30519 m 6.20068,5.397 -0.32074,-0.27914 m 4.81088,4.18733 v 0 l -3.93182,-4.54964 -1.11664,1.2829 5.04846,3.26674"
       style="fill:none;stroke:#000000;stroke-width:0.3685;stroke-linecap:round;stroke-linejoin:round;stroke-miterlimit:10;stroke-dasharray:none;stroke-opacity:1"
       transform="matrix(1.3333333,0,0,-1.3333333,0,359.05467)" />
    <path
       id="path107"
       d="m 347.38385,52.37639 1.11664,-1.2829 3.93182,4.54964 z"
       style="fill:#000000;fill-opacity:1;fill-rule:nonzero;stroke:none"
       transform="matrix(1.3333333,0,0,-1.3333333,0,359.05467)" />
    <path
       id="path108"
       d="m 369.53766,70.53142 -10.69083,-9.30519 m 6.20069,5.397 -0.32074,-0.27914 m 4.81088,4.18733 v 0 l -3.93186,-4.54964 -1.1166,1.2829 5.04846,3.26674"
       style="fill:none;stroke:#000000;stroke-width:0.3685;stroke-linecap:round;stroke-linejoin:round;stroke-miterlimit:10;stroke-dasharray:none;stroke-opacity:1"
       transform="matrix(1.3333333,0,0,-1.3333333,0,359.05467)" />
    <path
       id="path109"
       d="m 364.4892,67.26468 1.1166,-1.2829 3.93186,4.54964 z"
       style="fill:#000000;fill-opacity:1;fill-rule:nonzero;stroke:none"
       transform="matrix(1.3333333,0,0,-1.3333333,0,359.05467)" />
    <path
       id="path110"
       d="m 386.64301,85.41971 -10.69086,-9.30519 m 6.20068,5.397 -0.32071,-0.27914 m 4.81089,4.18733 v 0 l -3.93186,-4.54964 -1.11661,1.2829 5.04847,3.26674"
       style="fill:none;stroke:#000000;stroke-width:0.3685;stroke-linecap:round;stroke-linejoin:round;stroke-miterlimit:10;stroke-dasharray:none;stroke-opacity:1"
       transform="matrix(1.3333333,0,0,-1.3333333,0,359.05467)" />
    <path
       id="path111"
       d="m 381.59454,82.15297 1.11661,-1.2829 3.93186,4.54964 z"
       style="fill:#000000;fill-opacity:1;fill-rule:nonzero;stroke:none"
       transform="matrix(1.3333333,0,0,-1.3333333,0,359.05467)" />
    <path
       id="path112"
       d="M 403.74835,100.30798 393.0575,91.00281 m 6.20068,5.397 -0.32071,-0.27916 m 4.81088,4.18733 v 0 l -3.93185,-4.54962 -1.11661,1.2829 5.04846,3.26672"
       style="fill:none;stroke:#000000;stroke-width:0.3685;stroke-linecap:round;stroke-linejoin:round;stroke-miterlimit:10;stroke-dasharray:none;stroke-opacity:1"
       transform="matrix(1.3333333,0,0,-1.3333333,0,359.05467)" />
    <path
       id="path113"
       d="m 398.69989,97.04126 1.11661,-1.2829 3.93185,4.54962 z"
       style="fill:#000000;fill-opacity:1;fill-rule:nonzero;stroke:none"
       transform="matrix(1.3333333,0,0,-1.3333333,0,359.05467)" />
    <path
       id="path114"
       d="m 420.85367,115.19627 -10.69083,-9.30517 m 6.20069,5.397 -0.32071,-0.27916 m 4.81085,4.18733 v 0 l -3.93183,-4.54962 -1.1166,1.2829 5.04843,3.26672"
       style="fill:none;stroke:#000000;stroke-width:0.3685;stroke-linecap:round;stroke-linejoin:round;stroke-miterlimit:10;stroke-dasharray:none;stroke-opacity:1"
       transform="matrix(1.3333333,0,0,-1.3333333,0,359.05467)" />
    <path
       id="path115"
       d="m 415.80524,111.92955 1.1166,-1.2829 3.93183,4.54962 z"
       style="fill:#000000;fill-opacity:1;fill-rule:nonzero;stroke:none"
       transform="matrix(1.3333333,0,0,-1.3333333,0,359.05467)" />
    <path
       id="path116"
       d="m 187.68628,196.36789 v -22.17688 m 0,5.95276 v 0.4252 m 0,-6.37796 v 0 l 0.8504,5.95276 h -1.70077 l 0.85037,-5.95276"
       style="fill:none;stroke:#000000;stroke-width:0.3685;stroke-linecap:round;stroke-linejoin:round;stroke-miterlimit:10;stroke-dasharray:none;stroke-opacity:1"
       transform="matrix(1.3333333,0,0,-1.3333333,0,359.05467)" />
    <path
       id="path117"
       d="m 186.83591,180.14377 0.85037,-5.95276 0.8504,5.95276 z"
       style="fill:#000000;fill-opacity:1;fill-rule:nonzero;stroke:none"
       transform="matrix(1.3333333,0,0,-1.3333333,0,359.05467)" />
    <path
       id="path118"
       d="m 187.68628,196.36789 21.9649,-3.05887 m -5.89587,0.82105 -0.42111,0.0587 m 6.31698,-0.8797 v 0 l -5.77856,1.66333 -0.23459,-1.68454 6.01315,0.0212"
       style="fill:none;stroke:#000000;stroke-width:0.3685;stroke-linecap:round;stroke-linejoin:round;stroke-miterlimit:10;stroke-dasharray:none;stroke-opacity:1"
       transform="matrix(1.3333333,0,0,-1.3333333,0,359.05467)" />
    <path
       id="path119"
       d="m 203.63803,193.28781 6.01315,0.0212 -5.77856,1.66333 -0.23459,-1.68454 z"
       style="fill:#000000;fill-opacity:1;fill-rule:nonzero;stroke:none"
       transform="matrix(1.3333333,0,0,-1.3333333,0,359.05467)" />
    <path
       id="path120"
       d="m 187.68628,196.36789 -16.72797,-14.55985 m 4.49015,3.90818 0.32074,0.27917 m -4.81089,-4.18735 v 0 l 5.04846,3.26673 -1.1166,1.2829 -3.93186,-4.54963"
       style="fill:none;stroke:#000000;stroke-width:0.3685;stroke-linecap:round;stroke-linejoin:round;stroke-miterlimit:10;stroke-dasharray:none;stroke-opacity:1"
       transform="matrix(1.3333333,0,0,-1.3333333,0,359.05467)" />
    <path
       id="path121"
       d="m 174.89017,186.35767 -3.93186,-4.54963 5.04846,3.26673 z"
       style="fill:#000000;fill-opacity:1;fill-rule:nonzero;stroke:none"
       transform="matrix(1.3333333,0,0,-1.3333333,0,359.05467)" />
    <path
       id="path122"
       d="M 56.09116,262.76929 319.2814,226.11688 m -263.19024,36.65241 3.15849,-0.43985 m -3.15849,0.43985 v 0 l 3.00657,0.0106 -0.11729,-0.84229 -2.88928,0.83167 m 263.19024,-36.65241 -3.15851,0.43985 m 3.15851,-0.43985 v 0 l -2.88928,0.83167 -0.11731,-0.84229 3.00659,0.0106 M 10.23523,74.6628 115.51132,166.29388 M 10.23523,74.6628 12.64067,76.75645 M 10.23523,74.6628 v 0 l 1.96591,2.27481 0.55832,-0.64145 -2.52423,-1.63336 m 105.27609,91.63108 -2.40544,-2.09368 m 2.40544,2.09368 v 0 l -2.52423,-1.63336 0.5583,-0.64145 1.96593,2.27481 M 10.23523,74.6628 V 48.08977 m 0,26.57303 v -3.18898 m 0,3.18898 v 0 l 0.42519,-2.97638 H 9.81003 l 0.4252,2.97638 m 0,-26.57303 v 3.18898 m 0,-3.18898 v 0 l 0.42519,2.97638 H 9.81003 l 0.4252,-2.97638 m 0,186.27684 v -26.57303 m 0,26.57303 v -3.189 m 0,3.189 v 0 l 0.42519,-2.97638 H 9.81003 l 0.4252,2.97638 m 0,-26.57303 v 3.18899 m 0,-3.18899 v 0 l 0.42519,2.97638 H 9.81003 l 0.4252,-2.97638 m 45.85593,28.27048 v 29.43686 m 263.19024,-66.0893 v 29.43689"
       style="fill:none;stroke:#000000;stroke-width:0.3685;stroke-linecap:round;stroke-linejoin:round;stroke-miterlimit:10;stroke-dasharray:none;stroke-opacity:1"
       transform="matrix(1.3333333,0,0,-1.3333333,0,359.05467)" />
  </g>
</svg>
