<?xml version="1.0" encoding="UTF-8" standalone="no"?>
<!-- Created with Inkscape (http://www.inkscape.org/) -->

<svg
   version="1.1"
   id="svg1"
   width="566.92932"
   height="113.38587"
   viewBox="0 0 566.92932 113.38587"
   sodipodi:docname="allg_sandwich_deckelstaerke.pdf"
   xmlns:inkscape="http://www.inkscape.org/namespaces/inkscape"
   xmlns:sodipodi="http://sodipodi.sourceforge.net/DTD/sodipodi-0.dtd"
   xmlns="http://www.w3.org/2000/svg"
   xmlns:svg="http://www.w3.org/2000/svg">
  <defs
     id="defs1">
    <clipPath
       clipPathUnits="userSpaceOnUse"
       id="clipPath5">
      <path
         d="M 109.05183,85.04022 V -8.5e-4 H 319.92975 V 85.04022 H 109.05183"
         transform="matrix(1,0,0,-1,-284.13619,15.69087)"
         clip-rule="evenodd"
         id="path5" />
    </clipPath>
    <clipPath
       clipPathUnits="userSpaceOnUse"
       id="clipPath6">
      <path
         d="M 109.05183,85.04022 V -8.5e-4 H 319.92975 V 85.04022 H 109.05183"
         transform="matrix(1,0,0,-1,-288.7048,11.55701)"
         clip-rule="evenodd"
         id="path6" />
    </clipPath>
    <clipPath
       clipPathUnits="userSpaceOnUse"
       id="clipPath7">
      <path
         d="M 109.05183,85.04022 V -8.5e-4 H 319.92975 V 85.04022 H 109.05183"
         transform="matrix(1,0,0,-1,-284.13619,59.785362)"
         clip-rule="evenodd"
         id="path7" />
    </clipPath>
    <clipPath
       clipPathUnits="userSpaceOnUse"
       id="clipPath8">
      <path
         d="M 109.05183,85.04022 V -8.5e-4 H 319.92975 V 85.04022 H 109.05183"
         transform="matrix(1,0,0,-1,-288.7048,55.651501)"
         clip-rule="evenodd"
         id="path8" />
    </clipPath>
    <clipPath
       clipPathUnits="userSpaceOnUse"
       id="clipPath9">
      <path
         d="M 109.05183,85.04022 V -8.5e-4 H 319.92975 V 85.04022 H 109.05183"
         transform="matrix(1,0,0,-1,-308.64429,37.559131)"
         clip-rule="evenodd"
         id="path9" />
    </clipPath>
    <clipPath
       clipPathUnits="userSpaceOnUse"
       id="clipPath10">
      <path
         d="M 109.05183,85.04022 V -8.5e-4 H 319.92975 V 85.04022 H 109.05183"
         transform="matrix(1,0,0,-1,-284.1637,37.931071)"
         clip-rule="evenodd"
         id="path10" />
    </clipPath>
  </defs>
  <sodipodi:namedview
     id="namedview1"
     pagecolor="#ffffff"
     bordercolor="#000000"
     borderopacity="0.25"
     inkscape:showpageshadow="2"
     inkscape:pageopacity="0.0"
     inkscape:pagecheckerboard="0"
     inkscape:deskcolor="#d1d1d1">
    <inkscape:page
       x="0"
       y="0"
       inkscape:label="1"
       id="page1"
       width="566.92932"
       height="113.38587"
       margin="0"
       bleed="0" />
  </sodipodi:namedview>
  <g
     id="g1"
     inkscape:groupmode="layer"
     inkscape:label="1">
    <path
       id="path1"
       d="m 109.05183,46.82143 h 143.1884 V 34.22301 h -143.1884"
       style="fill:none;stroke:#000000;stroke-width:0.3685;stroke-linecap:round;stroke-linejoin:round;stroke-miterlimit:10;stroke-dasharray:none;stroke-opacity:1"
       transform="matrix(1.3333333,0,0,-1.3333333,0,113.38587)" />
    <path
       id="path2"
       d="m 221.13306,27.9238 c 0,3.47896 -2.82025,6.29921 -6.2992,6.29921 m 0,0 c -3.47897,0 -6.29922,-2.82025 -6.29922,-6.29921 m 0,0 c 0,-3.47896 2.82025,-6.29921 6.29922,-6.29921 m 0,0 c 3.47895,0 6.2992,2.82025 6.2992,6.29921"
       style="fill:none;stroke:#000000;stroke-width:0.3685;stroke-linecap:round;stroke-linejoin:round;stroke-miterlimit:10;stroke-dasharray:none;stroke-opacity:1"
       transform="matrix(1.3333333,0,0,-1.3333333,0,113.38587)" />
    <path
       id="path3"
       d="m 252.24023,2.72694 h -143.1884 m 143.1884,0 V 78.3175 h -143.1884 m 0,-75.59056 h 143.1884 m 28.55277,0 -0.4252,2.97638 h 0.8504 L 280.793,2.72694 m 0,31.49607 -0.4252,-2.97638 h 0.8504 l -0.4252,2.97638 -0.4252,2.97638 h 0.8504 l -0.4252,-2.97638 m 0,12.59842 -0.4252,-2.97637 h 0.8504 l -0.4252,2.97637 -0.4252,2.97638 h 0.8504 l -0.4252,-2.97638 m 0,31.49607 -0.4252,-2.97637 h 0.8504 l -0.4252,2.97637 m 0,-75.59056 h -2.12598 m 2.12598,0 h 2.12598 M 280.793,34.22301 h -2.12598 m 2.12598,0 h 2.12598 m -2.12598,0 h -2.12598 m 2.12598,0 h 2.12598 M 280.793,46.82143 h -2.12598 m 2.12598,0 h 2.12598 m -2.12598,0 h -2.12598 m 2.12598,0 h 2.12598 M 280.793,78.3175 h -2.12598 m 2.12598,0 h 2.12598 M 280.793,2.72694 H 261.68903 M 280.793,34.22301 H 261.68903 M 280.793,46.82143 H 261.68903 M 280.793,78.3175 H 261.68903 M 280.793,2.72694 v 0 m 0,75.59056 v 0 m 0,-75.59056 V 34.22301 46.82143 78.3175 m 24.46039,-75.59056 -0.4252,2.97638 h 0.8504 l -0.4252,-2.97638 m 0,75.59056 -0.4252,-2.97637 h 0.8504 l -0.4252,2.97637 m 0,-75.59056 h -2.12598"
       style="fill:none;stroke:#000000;stroke-width:0.3685;stroke-linecap:round;stroke-linejoin:round;stroke-miterlimit:10;stroke-dasharray:none;stroke-opacity:1"
       transform="matrix(1.3333333,0,0,-1.3333333,0,113.38587)" />
    <path
       id="path4"
       d="m 305.25339,2.72694 h 2.12597 m -2.12597,75.59056 h -2.12598 m 2.12598,0 h 2.12597 M 305.25339,2.72694 H 261.68903 M 305.25339,78.3175 H 261.68903 M 305.25339,2.72694 v 0 m 0,75.59056 v 0 m 0,-75.59056 V 78.3175"
       style="fill:none;stroke:#000000;stroke-width:0.3685;stroke-linecap:round;stroke-linejoin:round;stroke-miterlimit:10;stroke-dasharray:none;stroke-opacity:1"
       transform="matrix(1.3333333,0,0,-1.3333333,0,113.38587)" />
    <text
       id="text4"
       xml:space="preserve"
       transform="matrix(1.3333333,0,0,1.3333333,378.84824,92.464707)"
       clip-path="url(#clipPath5)"><tspan
         style="font-style:italic;font-variant:normal;font-weight:normal;font-stretch:normal;font-size:10.0071px;font-family:'Palatino Linotype';writing-mode:lr-tb;fill:#000000;fill-opacity:1;fill-rule:nonzero;stroke:none"
         x="0"
         y="0"
         id="tspan4">c</tspan></text>
    <text
       id="text5"
       xml:space="preserve"
       transform="matrix(1.3333333,0,0,1.3333333,384.93972,97.97652)"
       clip-path="url(#clipPath6)"><tspan
         style="font-style:italic;font-variant:normal;font-weight:normal;font-stretch:normal;font-size:6.00428px;font-family:'Palatino Linotype';writing-mode:lr-tb;fill:#000000;fill-opacity:1;fill-rule:nonzero;stroke:none"
         x="0 3.3383796 6.0042801"
         y="0"
         sodipodi:role="line"
         id="tspan5">nom</tspan></text>
    <text
       id="text6"
       xml:space="preserve"
       transform="matrix(1.3333333,0,0,1.3333333,378.84824,33.672053)"
       clip-path="url(#clipPath7)"><tspan
         style="font-style:italic;font-variant:normal;font-weight:normal;font-stretch:normal;font-size:10.0071px;font-family:'Palatino Linotype';writing-mode:lr-tb;fill:#000000;fill-opacity:1;fill-rule:nonzero;stroke:none"
         x="0"
         y="0"
         id="tspan6">c</tspan></text>
    <text
       id="text7"
       xml:space="preserve"
       transform="matrix(1.3333333,0,0,1.3333333,384.93972,39.183867)"
       clip-path="url(#clipPath8)"><tspan
         style="font-style:italic;font-variant:normal;font-weight:normal;font-stretch:normal;font-size:6.00428px;font-family:'Palatino Linotype';writing-mode:lr-tb;fill:#000000;fill-opacity:1;fill-rule:nonzero;stroke:none"
         x="0 3.3383796 6.0042801"
         y="0"
         sodipodi:role="line"
         id="tspan7">nom</tspan></text>
    <text
       id="text8"
       xml:space="preserve"
       transform="matrix(1.3333333,0,0,1.3333333,411.52571,63.307027)"
       clip-path="url(#clipPath9)"><tspan
         style="font-style:italic;font-variant:normal;font-weight:normal;font-stretch:normal;font-size:10.0071px;font-family:'Palatino Linotype';writing-mode:lr-tb;fill:#000000;fill-opacity:1;fill-rule:nonzero;stroke:none"
         x="0"
         y="0"
         id="tspan8">t</tspan></text>
    <text
       id="text9"
       xml:space="preserve"
       transform="matrix(1.3333333,0,0,1.3333333,378.88492,62.811107)"
       clip-path="url(#clipPath10)"><tspan
         style="font-variant:normal;font-weight:normal;font-stretch:normal;font-size:8.49283px;font-family:'Cambria Math';writing-mode:lr-tb;fill:#000000;fill-opacity:1;fill-rule:nonzero;stroke:none"
         x="0"
         y="0"
         id="tspan9">⊘</tspan></text>
  </g>
</svg>
