<?xml version="1.0" encoding="UTF-8" standalone="no"?>
<!-- Created with Inkscape (http://www.inkscape.org/) -->

<svg
   version="1.1"
   id="svg1"
   width="566.92932"
   height="268.34668"
   viewBox="0 0 566.92932 268.34668"
   sodipodi:docname="allg_platte_kin.pdf"
   xmlns:inkscape="http://www.inkscape.org/namespaces/inkscape"
   xmlns:sodipodi="http://sodipodi.sourceforge.net/DTD/sodipodi-0.dtd"
   xmlns="http://www.w3.org/2000/svg"
   xmlns:svg="http://www.w3.org/2000/svg">
  <defs
     id="defs1">
    <clipPath
       clipPathUnits="userSpaceOnUse"
       id="clipPath3">
      <path
         d="M -0.00426,-0.00201 V 201.26187 H 425.20111 V -0.00201 H -0.00426"
         transform="matrix(1,0,0,-1,-291.90433,61.164059)"
         clip-rule="evenodd"
         id="path3" />
    </clipPath>
    <clipPath
       clipPathUnits="userSpaceOnUse"
       id="clipPath4">
      <path
         d="M -0.00426,-0.00201 V 201.26187 H 425.20111 V -0.00201 H -0.00426"
         transform="matrix(1,0,0,-1,-298.02091,57.030201)"
         clip-rule="evenodd"
         id="path4" />
    </clipPath>
    <clipPath
       clipPathUnits="userSpaceOnUse"
       id="clipPath5">
      <path
         d="M -0.00426,-0.00201 V 201.26187 H 425.20111 V -0.00201 H -0.00426"
         transform="matrix(1,0,0,-1,-323.56511,51.824129)"
         clip-rule="evenodd"
         id="path5" />
    </clipPath>
    <clipPath
       clipPathUnits="userSpaceOnUse"
       id="clipPath6">
      <path
         d="M -0.00426,-0.00201 V 201.26187 H 425.20111 V -0.00201 H -0.00426"
         transform="matrix(1,0,0,-1,-329.50077,47.690271)"
         clip-rule="evenodd"
         id="path6" />
    </clipPath>
    <clipPath
       clipPathUnits="userSpaceOnUse"
       id="clipPath7">
      <path
         d="M -0.00426,-0.00201 V 201.26187 H 425.20111 V -0.00201 H -0.00426"
         transform="matrix(1,0,0,-1,-362.82447,20.479948)"
         clip-rule="evenodd"
         id="path7" />
    </clipPath>
    <clipPath
       clipPathUnits="userSpaceOnUse"
       id="clipPath8">
      <path
         d="M -0.00426,-0.00201 V 201.26187 H 425.20111 V -0.00201 H -0.00426"
         transform="matrix(1,0,0,-1,-368.76014,16.346098)"
         clip-rule="evenodd"
         id="path8" />
    </clipPath>
    <clipPath
       clipPathUnits="userSpaceOnUse"
       id="clipPath9">
      <path
         d="M -0.00426,-0.00201 V 201.26187 H 425.20111 V -0.00201 H -0.00426"
         transform="matrix(1,0,0,-1,-365.67393,54.305534)"
         clip-rule="evenodd"
         id="path9" />
    </clipPath>
    <clipPath
       clipPathUnits="userSpaceOnUse"
       id="clipPath10">
      <path
         d="M -0.00426,-0.00201 V 201.26187 H 425.20111 V -0.00201 H -0.00426"
         transform="matrix(1,0,0,-1,-370.62954,50.171669)"
         clip-rule="evenodd"
         id="path10" />
    </clipPath>
    <clipPath
       clipPathUnits="userSpaceOnUse"
       id="clipPath11">
      <path
         d="M -0.00426,-0.00201 V 201.26187 H 425.20111 V -0.00201 H -0.00426"
         transform="matrix(1,0,0,-1,-50.569402,56.690759)"
         clip-rule="evenodd"
         id="path11" />
    </clipPath>
    <clipPath
       clipPathUnits="userSpaceOnUse"
       id="clipPath12">
      <path
         d="M -0.00426,-0.00201 V 201.26187 H 425.20111 V -0.00201 H -0.00426"
         transform="matrix(1,0,0,-1,-55.525012,52.556901)"
         clip-rule="evenodd"
         id="path12" />
    </clipPath>
    <clipPath
       clipPathUnits="userSpaceOnUse"
       id="clipPath13">
      <path
         d="M -0.00426,-0.00201 V 201.26187 H 425.20111 V -0.00201 H -0.00426"
         transform="matrix(1,0,0,-1,-50.088761,20.479948)"
         clip-rule="evenodd"
         id="path13" />
    </clipPath>
    <clipPath
       clipPathUnits="userSpaceOnUse"
       id="clipPath14">
      <path
         d="M -0.00426,-0.00201 V 201.26187 H 425.20111 V -0.00201 H -0.00426"
         transform="matrix(1,0,0,-1,-56.024422,16.346098)"
         clip-rule="evenodd"
         id="path14" />
    </clipPath>
    <clipPath
       clipPathUnits="userSpaceOnUse"
       id="clipPath15">
      <path
         d="M -0.00426,-0.00201 V 201.26187 H 425.20111 V -0.00201 H -0.00426"
         transform="matrix(1,0,0,-1,-89.111905,51.824129)"
         clip-rule="evenodd"
         id="path15" />
    </clipPath>
    <clipPath
       clipPathUnits="userSpaceOnUse"
       id="clipPath16">
      <path
         d="M -0.00426,-0.00201 V 201.26187 H 425.20111 V -0.00201 H -0.00426"
         transform="matrix(1,0,0,-1,-95.04757,47.690271)"
         clip-rule="evenodd"
         id="path16" />
    </clipPath>
    <clipPath
       clipPathUnits="userSpaceOnUse"
       id="clipPath17">
      <path
         d="M -0.00426,-0.00201 V 201.26187 H 425.20111 V -0.00201 H -0.00426"
         transform="matrix(1,0,0,-1,-122.2402,59.460321)"
         clip-rule="evenodd"
         id="path17" />
    </clipPath>
    <clipPath
       clipPathUnits="userSpaceOnUse"
       id="clipPath18">
      <path
         d="M -0.00426,-0.00201 V 201.26187 H 425.20111 V -0.00201 H -0.00426"
         transform="matrix(1,0,0,-1,-128.35681,55.326464)"
         clip-rule="evenodd"
         id="path18" />
    </clipPath>
    <clipPath
       clipPathUnits="userSpaceOnUse"
       id="clipPath19">
      <path
         d="M -0.00426,-0.00201 V 201.26187 H 425.20111 V -0.00201 H -0.00426"
         transform="matrix(1,0,0,-1,-215.21038,148.0675)"
         clip-rule="evenodd"
         id="path19" />
    </clipPath>
    <clipPath
       clipPathUnits="userSpaceOnUse"
       id="clipPath20">
      <path
         d="M -0.00426,-0.00201 V 201.26187 H 425.20111 V -0.00201 H -0.00426"
         transform="matrix(1,0,0,-1,-232.39098,165.06202)"
         clip-rule="evenodd"
         id="path20" />
    </clipPath>
    <clipPath
       clipPathUnits="userSpaceOnUse"
       id="clipPath21">
      <path
         d="M -0.00426,-0.00201 V 201.26187 H 425.20111 V -0.00201 H -0.00426"
         transform="matrix(1,0,0,-1,-188.98645,167.71111)"
         clip-rule="evenodd"
         id="path21" />
    </clipPath>
  </defs>
  <sodipodi:namedview
     id="namedview1"
     pagecolor="#ffffff"
     bordercolor="#000000"
     borderopacity="0.25"
     inkscape:showpageshadow="2"
     inkscape:pageopacity="0.0"
     inkscape:pagecheckerboard="0"
     inkscape:deskcolor="#d1d1d1">
    <inkscape:page
       x="0"
       y="0"
       inkscape:label="1"
       id="page1"
       width="566.92932"
       height="268.34668"
       margin="0"
       bleed="0" />
  </sodipodi:namedview>
  <g
     id="g1"
     inkscape:groupmode="layer"
     inkscape:label="1">
    <path
       id="path1"
       d="m 212.59836,149.71124 v 1.09192 m 0,2.2677 v 2.83466 m 0,2.26773 v 2.83462 m 0,2.26773 v 2.83463 m 0,2.26773 v 2.83466 m 0,2.2677 v 2.83465 m 0,2.2677 v 2.83466 m 0,2.26773 v 2.83462 m 0,2.26773 v 2.83463 m 0,2.26773 v 2.11105 m 0,-46.28958 v 0 m 0,46.28958 v 0 M 112.37848,91.84929 l 2.12482,1.22676 m 1.96389,1.13387 2.45488,1.41731 m 1.9639,1.13386 2.45488,1.41733 m 1.9639,1.13385 2.45488,1.41733 m 1.96391,1.13385 2.45487,1.41733 m 1.96389,1.13386 2.45487,1.41731 m 1.9639,1.13387 2.45489,1.41733 m 1.9639,1.13385 2.45486,1.41733 m 1.9639,1.13385 2.4549,1.41732 m 1.96389,1.13385 2.45487,1.41733 m 1.9639,1.13387 2.45489,1.41731 m 1.9639,1.13387 2.45486,1.41732 m 1.9639,1.13385 2.45486,1.41733 m 1.9639,1.13385 2.4549,1.41733 m 1.9639,1.13385 2.45486,1.41734 m 1.9639,1.13385 2.45489,1.41733 m 1.9639,1.13385 2.45486,1.41733 m 1.9639,1.13385 2.4549,1.41733 m 1.9639,1.13385 2.45486,1.41732 m 1.9639,1.13385 2.45486,1.41733 m 1.9639,1.13385 2.45489,1.41733 m 1.9639,1.13388 2.45487,1.4173 m 1.96389,1.13388 2.4549,1.41733 M 112.37848,91.84929 v 0 m 100.21988,57.86195 v 0 l 0.62726,-0.36215 m 1.96389,-1.13385 2.4549,-1.41733 m 1.9639,-1.13385 2.45486,-1.41733 m 1.9639,-1.13385 2.45486,-1.41732 m 1.96393,-1.13385 2.45487,-1.41733 m 1.96389,-1.13385 2.45487,-1.41733 m 1.9639,-1.13385 2.45489,-1.41733 m 1.9639,-1.13388 2.45486,-1.4173 m 1.9639,-1.13388 2.4549,-1.41732 m 1.96389,-1.13385 2.45487,-1.41733 m 1.9639,-1.13385 2.45486,-1.41733 m 1.9639,-1.13385 2.45489,-1.41733 m 1.9639,-1.13385 2.45487,-1.41733"
       style="fill:none;stroke:#000000;stroke-width:0.3685;stroke-linecap:round;stroke-linejoin:round;stroke-miterlimit:10;stroke-dasharray:none;stroke-opacity:1"
       transform="matrix(1.3333333,0,0,-1.3333333,0,268.34667)" />
    <path
       id="path2"
       d="m 268.21481,117.60106 2.45487,-1.41731 m 1.96393,-1.13387 2.45486,-1.41733 m 1.9639,-1.13385 2.45486,-1.41732 m 1.9639,-1.13385 2.4549,-1.41733 m 1.96389,-1.13385 2.45487,-1.41733 m 1.9639,-1.13387 2.45489,-1.41731 m 1.9639,-1.13386 2.45486,-1.41733 m 1.9639,-1.13385 2.45486,-1.41733 m 1.96393,-1.13385 2.45487,-1.41733 m 1.9639,-1.13386 2.45486,-1.41732 m 1.9639,-1.13386 0.41565,-0.23996 m -100.21985,57.86195 v 0 M 312.81821,91.84929 v 0 m -200.43973,0 v 46.28956 M 212.59836,33.98734 V 80.2769 l -100.21988,57.86195 100.21988,57.86197 M 112.37848,91.84929 212.59836,33.98734 m 100.21985,57.86195 v 46.28956 L 212.59836,80.2769 m 0,115.72392 100.21985,-57.86197 M 212.59836,33.98734 312.81821,91.84929"
       style="fill:none;stroke:#000000;stroke-width:0.3685;stroke-linecap:round;stroke-linejoin:round;stroke-miterlimit:10;stroke-dasharray:none;stroke-opacity:1"
       transform="matrix(1.3333333,0,0,-1.3333333,0,268.34667)" />
    <text
       id="text2"
       xml:space="preserve"
       transform="matrix(1.3333333,0,0,1.3333333,389.20576,186.79459)"
       clip-path="url(#clipPath3)"><tspan
         style="font-style:italic;font-variant:normal;font-weight:normal;font-stretch:normal;font-size:10.0071px;font-family:'Palatino Linotype';writing-mode:lr-tb;fill:#000000;fill-opacity:1;fill-rule:nonzero;stroke:none"
         x="0"
         y="0"
         id="tspan2">γ</tspan></text>
    <text
       id="text3"
       xml:space="preserve"
       transform="matrix(1.3333333,0,0,1.3333333,397.36121,192.3064)"
       clip-path="url(#clipPath4)"><tspan
         style="font-style:italic;font-variant:normal;font-weight:normal;font-stretch:normal;font-size:6.00428px;font-family:'Palatino Linotype';writing-mode:lr-tb;fill:#000000;fill-opacity:1;fill-rule:nonzero;stroke:none"
         x="0 3.00214"
         y="0"
         sodipodi:role="line"
         id="tspan3">xy</tspan></text>
    <text
       id="text4"
       xml:space="preserve"
       transform="matrix(1.3333333,0,0,1.3333333,431.42013,199.24783)"
       clip-path="url(#clipPath5)"><tspan
         style="font-style:italic;font-variant:normal;font-weight:normal;font-stretch:normal;font-size:10.0071px;font-family:'Palatino Linotype';writing-mode:lr-tb;fill:#000000;fill-opacity:1;fill-rule:nonzero;stroke:none"
         x="0"
         y="0"
         id="tspan4">χ</tspan></text>
    <text
       id="text5"
       xml:space="preserve"
       transform="matrix(1.3333333,0,0,1.3333333,439.33435,204.75964)"
       clip-path="url(#clipPath6)"><tspan
         style="font-style:italic;font-variant:normal;font-weight:normal;font-stretch:normal;font-size:6.00428px;font-family:'Palatino Linotype';writing-mode:lr-tb;fill:#000000;fill-opacity:1;fill-rule:nonzero;stroke:none"
         x="0 3.00214"
         y="0"
         sodipodi:role="line"
         id="tspan5">xy</tspan></text>
    <text
       id="text6"
       xml:space="preserve"
       transform="matrix(1.3333333,0,0,1.3333333,483.76595,241.04007)"
       clip-path="url(#clipPath7)"><tspan
         style="font-style:italic;font-variant:normal;font-weight:normal;font-stretch:normal;font-size:10.0071px;font-family:'Palatino Linotype';writing-mode:lr-tb;fill:#000000;fill-opacity:1;fill-rule:nonzero;stroke:none"
         x="0"
         y="0"
         id="tspan6">χ</tspan></text>
    <text
       id="text7"
       xml:space="preserve"
       transform="matrix(1.3333333,0,0,1.3333333,491.68017,246.55187)"
       clip-path="url(#clipPath8)"><tspan
         style="font-style:italic;font-variant:normal;font-weight:normal;font-stretch:normal;font-size:6.00428px;font-family:'Palatino Linotype';writing-mode:lr-tb;fill:#000000;fill-opacity:1;fill-rule:nonzero;stroke:none"
         x="0 3.00214"
         y="0"
         sodipodi:role="line"
         id="tspan7">xx</tspan></text>
    <text
       id="text8"
       xml:space="preserve"
       transform="matrix(1.3333333,0,0,1.3333333,487.56523,195.93929)"
       clip-path="url(#clipPath9)"><tspan
         style="font-style:italic;font-variant:normal;font-weight:normal;font-stretch:normal;font-size:10.0071px;font-family:'Palatino Linotype';writing-mode:lr-tb;fill:#000000;fill-opacity:1;fill-rule:nonzero;stroke:none"
         x="0"
         y="0"
         id="tspan8">ε</tspan></text>
    <text
       id="text9"
       xml:space="preserve"
       transform="matrix(1.3333333,0,0,1.3333333,494.17271,201.45111)"
       clip-path="url(#clipPath10)"><tspan
         style="font-style:italic;font-variant:normal;font-weight:normal;font-stretch:normal;font-size:6.00428px;font-family:'Palatino Linotype';writing-mode:lr-tb;fill:#000000;fill-opacity:1;fill-rule:nonzero;stroke:none"
         x="0 3.00214"
         y="0"
         sodipodi:role="line"
         id="tspan9">xx</tspan></text>
    <text
       id="text10"
       xml:space="preserve"
       transform="matrix(1.3333333,0,0,1.3333333,67.425867,192.75899)"
       clip-path="url(#clipPath11)"><tspan
         style="font-style:italic;font-variant:normal;font-weight:normal;font-stretch:normal;font-size:10.0071px;font-family:'Palatino Linotype';writing-mode:lr-tb;fill:#000000;fill-opacity:1;fill-rule:nonzero;stroke:none"
         x="0"
         y="0"
         id="tspan10">ε</tspan></text>
    <text
       id="text11"
       xml:space="preserve"
       transform="matrix(1.3333333,0,0,1.3333333,74.033347,198.2708)"
       clip-path="url(#clipPath12)"><tspan
         style="font-style:italic;font-variant:normal;font-weight:normal;font-stretch:normal;font-size:6.00428px;font-family:'Palatino Linotype';writing-mode:lr-tb;fill:#000000;fill-opacity:1;fill-rule:nonzero;stroke:none"
         x="0 3.00214"
         y="0"
         sodipodi:role="line"
         id="tspan11">yy</tspan></text>
    <text
       id="text12"
       xml:space="preserve"
       transform="matrix(1.3333333,0,0,1.3333333,66.785013,241.04007)"
       clip-path="url(#clipPath13)"><tspan
         style="font-style:italic;font-variant:normal;font-weight:normal;font-stretch:normal;font-size:10.0071px;font-family:'Palatino Linotype';writing-mode:lr-tb;fill:#000000;fill-opacity:1;fill-rule:nonzero;stroke:none"
         x="0"
         y="0"
         id="tspan12">χ</tspan></text>
    <text
       id="text13"
       xml:space="preserve"
       transform="matrix(1.3333333,0,0,1.3333333,74.699227,246.55187)"
       clip-path="url(#clipPath14)"><tspan
         style="font-style:italic;font-variant:normal;font-weight:normal;font-stretch:normal;font-size:6.00428px;font-family:'Palatino Linotype';writing-mode:lr-tb;fill:#000000;fill-opacity:1;fill-rule:nonzero;stroke:none"
         x="0 3.00214"
         y="0"
         sodipodi:role="line"
         id="tspan13">yy</tspan></text>
    <text
       id="text14"
       xml:space="preserve"
       transform="matrix(1.3333333,0,0,1.3333333,118.81587,199.24783)"
       clip-path="url(#clipPath15)"><tspan
         style="font-style:italic;font-variant:normal;font-weight:normal;font-stretch:normal;font-size:10.0071px;font-family:'Palatino Linotype';writing-mode:lr-tb;fill:#000000;fill-opacity:1;fill-rule:nonzero;stroke:none"
         x="0"
         y="0"
         id="tspan14">χ</tspan></text>
    <text
       id="text15"
       xml:space="preserve"
       transform="matrix(1.3333333,0,0,1.3333333,126.73009,204.75964)"
       clip-path="url(#clipPath16)"><tspan
         style="font-style:italic;font-variant:normal;font-weight:normal;font-stretch:normal;font-size:6.00428px;font-family:'Palatino Linotype';writing-mode:lr-tb;fill:#000000;fill-opacity:1;fill-rule:nonzero;stroke:none"
         x="0 3.00214"
         y="0"
         sodipodi:role="line"
         id="tspan15">yx</tspan></text>
    <text
       id="text16"
       xml:space="preserve"
       transform="matrix(1.3333333,0,0,1.3333333,162.98693,189.06624)"
       clip-path="url(#clipPath17)"><tspan
         style="font-style:italic;font-variant:normal;font-weight:normal;font-stretch:normal;font-size:10.0071px;font-family:'Palatino Linotype';writing-mode:lr-tb;fill:#000000;fill-opacity:1;fill-rule:nonzero;stroke:none"
         x="0"
         y="0"
         id="tspan16">γ</tspan></text>
    <text
       id="text17"
       xml:space="preserve"
       transform="matrix(1.3333333,0,0,1.3333333,171.14241,194.57805)"
       clip-path="url(#clipPath18)"><tspan
         style="font-style:italic;font-variant:normal;font-weight:normal;font-stretch:normal;font-size:6.00428px;font-family:'Palatino Linotype';writing-mode:lr-tb;fill:#000000;fill-opacity:1;fill-rule:nonzero;stroke:none"
         x="0 3.00214"
         y="0"
         sodipodi:role="line"
         id="tspan17">yx</tspan></text>
    <text
       id="text18"
       xml:space="preserve"
       transform="matrix(1.3333333,0,0,1.3333333,286.94717,70.923333)"
       clip-path="url(#clipPath19)"><tspan
         style="font-style:italic;font-variant:normal;font-weight:normal;font-stretch:normal;font-size:10.0071px;font-family:'Palatino Linotype';writing-mode:lr-tb;fill:#000000;fill-opacity:1;fill-rule:nonzero;stroke:none"
         x="0"
         y="0"
         id="tspan18">z</tspan></text>
    <text
       id="text19"
       xml:space="preserve"
       transform="matrix(1.3333333,0,0,1.3333333,309.85463,48.263973)"
       clip-path="url(#clipPath20)"><tspan
         style="font-style:italic;font-variant:normal;font-weight:normal;font-stretch:normal;font-size:10.0071px;font-family:'Palatino Linotype';writing-mode:lr-tb;fill:#000000;fill-opacity:1;fill-rule:nonzero;stroke:none"
         x="0"
         y="0"
         id="tspan19">x</tspan></text>
    <text
       id="text20"
       xml:space="preserve"
       transform="matrix(1.3333333,0,0,1.3333333,251.98193,44.731853)"
       clip-path="url(#clipPath21)"><tspan
         style="font-style:italic;font-variant:normal;font-weight:normal;font-stretch:normal;font-size:10.0071px;font-family:'Palatino Linotype';writing-mode:lr-tb;fill:#000000;fill-opacity:1;fill-rule:nonzero;stroke:none"
         x="0"
         y="0"
         id="tspan20">y</tspan></text>
    <path
       id="path22"
       d="m 359.91553,6.85236 -13.99277,8.07873 27.98557,30.1321 -13.9928,8.07873 M 65.28114,6.85236 l 13.99279,8.07873 -27.98558,30.1321 13.99279,8.07873"
       style="fill:none;stroke:#000000;stroke-width:0.3685;stroke-linecap:round;stroke-linejoin:round;stroke-miterlimit:10;stroke-dasharray:none;stroke-opacity:1"
       transform="matrix(1.3333333,0,0,-1.3333333,0,268.34667)" />
    <path
       id="path23"
       d="m 314.00937,47.79213 c 2.19855,0 4.31576,0.83153 5.9267,2.3277"
       style="fill:none;stroke:#000000;stroke-width:0.3685;stroke-linecap:round;stroke-linejoin:round;stroke-miterlimit:10;stroke-dasharray:none;stroke-opacity:1"
       transform="matrix(1.3333333,0,0,-1.3333333,0,268.34667)" />
    <path
       id="path24"
       d="m 353.98886,23.61589 c 1.61093,-1.49617 3.72812,-2.3277 5.92667,-2.3277"
       style="fill:none;stroke:#000000;stroke-width:0.3685;stroke-linecap:round;stroke-linejoin:round;stroke-miterlimit:10;stroke-dasharray:none;stroke-opacity:1"
       transform="matrix(1.3333333,0,0,-1.3333333,0,268.34667)" />
    <path
       id="path25"
       d="m 105.26062,50.11983 c 1.61093,-1.49617 3.72813,-2.3277 5.92668,-2.3277"
       style="fill:none;stroke:#000000;stroke-width:0.3685;stroke-linecap:round;stroke-linejoin:round;stroke-miterlimit:10;stroke-dasharray:none;stroke-opacity:1"
       transform="matrix(1.3333333,0,0,-1.3333333,0,268.34667)" />
    <path
       id="path26"
       d="m 65.28114,21.28819 c 2.19855,0 4.31574,0.83153 5.92667,2.3277"
       style="fill:none;stroke:#000000;stroke-width:0.3685;stroke-linecap:round;stroke-linejoin:round;stroke-miterlimit:10;stroke-dasharray:none;stroke-opacity:1"
       transform="matrix(1.3333333,0,0,-1.3333333,0,268.34667)" />
    <path
       id="path27"
       d="M 314.00937,79.64586 V 33.35629 M 300.0166,71.56712 328.00217,41.43503 m -27.98557,30.13209 13.99277,8.07874 m 0,-46.28957 13.9928,8.07874 m 31.91336,11.70689 V 6.85236 m -66.08057,14.85623 2.45487,1.41733 m 1.96389,1.13385 2.4549,1.41732 m 1.9639,1.13385 2.45486,1.41733 m 1.9639,1.13387 2.45489,1.41731 m 1.9639,1.13386 2.45487,1.41732 m 1.96389,1.13386 2.4549,1.41733 m 1.9639,1.13385 2.45486,1.41733 m 1.9639,1.13385 2.45486,1.41733 m 1.9639,1.13386 2.4549,1.41731 m 1.96389,1.13387 2.45487,1.41733 m 1.9639,1.13385 2.45489,1.41733 m 1.9639,1.13385 1.76285,1.01779 M 292.65198,21.02559 v 0 m 51.55237,29.76378 v 0 m -65.54517,8.44705 2.00546,1.15785 m 1.9639,1.13385 2.45486,1.41733 m 1.9639,1.13387 2.4549,1.41731 m 1.96389,1.13386 2.45487,1.41733 m 1.9639,1.13385 2.45489,1.41733 m 1.9639,1.13385 2.45486,1.41733 m 1.9639,1.13385 2.4549,1.41732 m 1.96389,1.13387 2.45487,1.41731 m 1.9639,1.13387 2.45486,1.41733 m 1.9639,1.13385 2.45489,1.41732 m 1.9639,1.13385 2.45487,1.41733 m 1.96389,1.13385 2.4549,1.41733 m -50.612,-29.22084 v 0 m 51.55237,29.76378 v 0 m -16.20218,-9.35434 0.28039,-0.16188 m 1.9639,-1.13387 2.4549,-1.41731 m 1.96389,-1.13387 2.45487,-1.41732 m 1.9639,-1.13385 2.45489,-1.41733 m 1.9639,-1.13385 2.45486,-1.41733 m 1.9639,-1.13386 2.4549,-1.41732 m 1.96389,-1.13386 2.45487,-1.41731 m 1.9639,-1.13387 2.45486,-1.41733 m 1.9639,-1.13385 2.45489,-1.41733 m 1.9639,-1.13386 2.45487,-1.41731 m 1.96389,-1.13387 2.4549,-1.41731 m -44.46817,25.67369 v 0 m 45.90616,-26.50394 v 0 m -45.90616,-19.78563 2.33032,-1.3454 m 1.9639,-1.13386 2.45486,-1.41733 m 1.9639,-1.13385 2.4549,-1.41733 m 1.96389,-1.13385 2.45487,-1.41732"
       style="fill:none;stroke:#000000;stroke-width:0.3685;stroke-linecap:round;stroke-linejoin:round;stroke-miterlimit:10;stroke-dasharray:none;stroke-opacity:1"
       transform="matrix(1.3333333,0,0,-1.3333333,0,268.34667)" />
    <path
       id="path28"
       d="m 331.55991,23.22348 2.45486,-1.41731 m 1.9639,-1.13387 2.45489,-1.41731 m 1.9639,-1.13387 2.45487,-1.41732 m 1.96389,-1.13385 2.4549,-1.41733 m 1.9639,-1.13385 2.45486,-1.41733 m 1.9639,-1.13386 2.45489,-1.41732 m 1.9639,-1.13386 1.84296,-1.06404 m -45.90616,26.50393 v 0 M 359.91553,6.85236 v 0 M 111.1873,79.64586 V 33.35629 M 125.18008,71.56712 97.19452,41.43503 m 27.98556,30.13209 -13.99278,8.07874 m 0,-46.28957 -13.99278,8.07874 M 65.28114,53.14192 V 6.85236 m 16.72837,43.34974 2.45486,-1.41733 m 1.96391,-1.13385 2.45487,-1.41732 m 1.96391,-1.13385 2.45487,-1.41733 m 1.96389,-1.13387 2.45488,-1.41731 m 1.9639,-1.13386 2.45488,-1.41733 m 1.9639,-1.13385 2.45488,-1.41733 m 1.9639,-1.13385 2.45488,-1.41733 m 1.96389,-1.13386 2.45487,-1.41732 m 1.96391,-1.13386 2.45487,-1.41731 m 1.96391,-1.13387 2.45486,-1.41733 m 1.9639,-1.13385 2.45488,-1.41733 m 1.9639,-1.13385 1.92868,-1.11352 M 80.99234,50.78937 v 0 m 51.55237,-29.76378 v 0 M 94.98512,89.0002 95.67079,88.60432 m 1.96391,-1.13386 2.45487,-1.41733 m 1.9639,-1.13385 2.45488,-1.41733 m 1.96389,-1.13385 2.45488,-1.41732 m 1.9639,-1.13385 2.45488,-1.41733 m 1.9639,-1.13387 2.45488,-1.41731 m 1.9639,-1.13387 2.45488,-1.41732 m 1.96389,-1.13385 2.45487,-1.41733 m 1.96391,-1.13385 2.45487,-1.41733 m 1.96389,-1.13385 2.4549,-1.41733 m 1.9639,-1.13386 2.45486,-1.41732 m 1.9639,-1.13386 2.45489,-1.41733 m 1.9639,-1.13385 0.29627,-0.17107 M 94.98512,89.0002 v 0 m 51.55239,-29.76378 v 0 m -81.25637,-6.0945 1.18331,0.68318 m 1.96389,1.13387 2.45487,1.41731 m 1.96391,1.13387 2.45487,1.41731 m 1.96389,1.13387 2.45488,1.41732 m 1.9639,1.13385 2.45488,1.41733 m 1.9639,1.13387 2.45488,1.41731 m 1.9639,1.13386 2.45488,1.41732"
       style="fill:none;stroke:#000000;stroke-width:0.3685;stroke-linecap:round;stroke-linejoin:round;stroke-miterlimit:10;stroke-dasharray:none;stroke-opacity:1"
       transform="matrix(1.3333333,0,0,-1.3333333,0,268.34667)" />
    <path
       id="path29"
       d="m 94.94099,70.26605 2.45488,1.41733 m 1.9639,1.13385 2.45487,1.41733 m 1.96391,1.13385 2.45486,1.41733 m 1.9639,1.13386 2.45488,1.41731 M 65.28114,53.14192 v 0 m 45.90616,26.50394 v 0 M 66.37843,7.48589 68.83331,8.9032 m 1.9639,1.13386 2.45488,1.41732 m 1.9639,1.13386 2.45486,1.41733 m 1.96392,1.13385 2.45486,1.41733 m 1.96391,1.13385 2.45487,1.41733 m 1.9639,1.13386 2.45488,1.41731 m 1.96389,1.13387 2.45488,1.41731 m 1.9639,1.13387 2.45488,1.41732 m 1.9639,1.13385 2.45488,1.41733 m 1.9639,1.13385 2.45486,1.41733 m 1.96391,1.13387 0.62111,0.35859 M 65.28114,6.85236 v 0 m 45.90616,26.50393 v 0 m 101.41106,139.55643 v -22.17685 m 0,5.95276 v 0.42517 m 0,-6.37793 v 0 l 0.85037,5.95276 h -1.70077 l 0.8504,-5.95276"
       style="fill:none;stroke:#000000;stroke-width:0.3685;stroke-linecap:round;stroke-linejoin:round;stroke-miterlimit:10;stroke-dasharray:none;stroke-opacity:1"
       transform="matrix(1.3333333,0,0,-1.3333333,0,268.34667)" />
    <path
       id="path30"
       d="m 211.74796,156.68863 0.8504,-5.95276 0.85037,5.95276 z"
       style="fill:#000000;fill-opacity:1;fill-rule:nonzero;stroke:none"
       transform="matrix(1.3333333,0,0,-1.3333333,0,268.34667)" />
    <path
       id="path31"
       d="m 212.59836,172.91272 19.20572,-11.08841 m -5.15525,2.97638 -0.36822,0.21259 m 5.52347,-3.18897 v 0 l -4.73004,3.71283 -0.85038,-1.47293 5.58042,-2.2399"
       style="fill:none;stroke:#000000;stroke-width:0.3685;stroke-linecap:round;stroke-linejoin:round;stroke-miterlimit:10;stroke-dasharray:none;stroke-opacity:1"
       transform="matrix(1.3333333,0,0,-1.3333333,0,268.34667)" />
    <path
       id="path32"
       d="m 226.22366,164.06421 5.58042,-2.2399 -4.73004,3.71283 z"
       style="fill:#000000;fill-opacity:1;fill-rule:nonzero;stroke:none"
       transform="matrix(1.3333333,0,0,-1.3333333,0,268.34667)" />
    <path
       id="path33"
       d="m 212.59836,172.91272 -19.20575,-11.08841 m 5.15524,2.97638 0.36823,0.21259 m -5.52347,-3.18897 v 0 l 5.58044,2.2399 -0.8504,1.47293 -4.73004,-3.71283"
       style="fill:none;stroke:#000000;stroke-width:0.3685;stroke-linecap:round;stroke-linejoin:round;stroke-miterlimit:10;stroke-dasharray:none;stroke-opacity:1"
       transform="matrix(1.3333333,0,0,-1.3333333,0,268.34667)" />
    <path
       id="path34"
       d="m 198.12265,165.53714 -4.73004,-3.71283 5.58044,2.2399 z"
       style="fill:#000000;fill-opacity:1;fill-rule:nonzero;stroke:none"
       transform="matrix(1.3333333,0,0,-1.3333333,0,268.34667)" />
    <path
       id="path35"
       d="m 112.37848,115.05077 1.13028,-0.65256 m 4.17328,-2.40946 2.45488,-1.41731 m 4.17329,-2.40945 2.45487,-1.41733 m 4.17331,-2.40944 2.45486,-1.41733 m 4.17328,-2.40945 2.45489,-1.41731 m 4.17328,-2.40946 2.45487,-1.41733 m 4.17331,-2.40944 2.45486,-1.41732 m 4.17328,-2.40946 2.45489,-1.41731 m 4.17328,-2.40946 2.45487,-1.41732 m 4.17331,-2.40944 2.45486,-1.41733 m 4.17328,-2.40945 2.45486,-1.41732 m 4.17331,-2.40945 2.45487,-1.41733 m 4.17328,-2.40944 2.45489,-1.41733 m 4.17328,-2.40944 2.45487,-1.41732 m 4.17331,-2.40946 2.45486,-1.41733 m 4.17328,-2.40943 2.12204,-1.22515 m -97.1257,56.07553 0.24548,-0.14172 m 6.38267,-3.68504 0.2455,-0.14174 m 6.38266,-3.68503 0.24552,-0.14174 m 6.38266,-3.68504 0.24548,-0.14173 m 6.38269,-3.68504 0.24548,-0.14172 m 6.38266,-3.68505 0.24549,-0.14174 m 6.38269,-3.68504 0.24548,-0.14172 m 6.38269,-3.68505 0.24549,-0.14172 m 6.38266,-3.68504 0.24548,-0.14174 m 6.38269,-3.68503 0.24548,-0.14174 m 6.38269,-3.68504 0.24549,-0.14173 m 6.38266,-3.68504 0.24548,-0.14174 m 6.38269,-3.68503 0.24548,-0.14174 m 6.38269,-3.68504 0.24549,-0.14172 m 6.38266,-3.68505 0.24548,-0.14173 m -96.13394,55.50296 v 0 M 212.59836,57.18881 v 0 m 1.37631,0.79462 2.4549,1.41733 m 4.17327,2.40944 2.45487,1.41732 m 4.17328,2.40946 2.45489,1.41733 m 4.17328,2.40944 2.45487,1.41732 m 4.17331,2.40944 2.45486,1.41733 m 4.17328,2.40945 2.45489,1.41732 m 4.17328,2.40945 2.45487,1.41733 m 4.17328,2.40944 2.45489,1.41733 m 4.17328,2.40945 2.45486,1.41731 m 4.17331,2.40946 2.45487,1.41733 m 4.17328,2.40943 2.45489,1.41733 m 4.17328,2.40946 2.45486,1.41731 m 4.17331,2.40945 2.45487,1.41733 m 4.17328,2.40944 2.45489,1.41733 m 4.17328,2.40945 2.45487,1.41732 m -90.83036,-52.44095 0.24549,0.14174 m 6.38266,3.68504 0.24548,0.14172"
       style="fill:none;stroke:#000000;stroke-width:0.3685;stroke-linecap:round;stroke-linejoin:round;stroke-miterlimit:10;stroke-dasharray:none;stroke-opacity:1"
       transform="matrix(1.3333333,0,0,-1.3333333,0,268.34667)" />
    <path
       id="path36"
       d="m 231.64978,68.18816 0.24548,0.14174 m 6.38269,3.68502 0.24549,0.14174 m 6.38266,3.68505 0.24548,0.14172 m 6.38269,3.68504 0.24548,0.14174 m 6.38266,3.68503 0.24549,0.14174 m 6.38269,3.68504 0.24548,0.14173 m 6.38266,3.68504 0.24552,0.14172 m 6.38266,3.68505 0.24548,0.14173 m 6.38269,3.68505 0.24548,0.14172 m 6.38266,3.68504 0.24552,0.14173 m 6.38266,3.68504 0.24548,0.14174 m 6.38269,3.68503 0.24548,0.14174 m 6.38266,3.68504 0.24549,0.14172 M 212.59836,57.18881 v 0 m 100.21985,57.86196 v 0 m -98.62909,56.94352 2.45486,-1.41732 m 4.17331,-2.40943 2.45487,-1.41733 m 4.17327,-2.40945 2.4549,-1.41733 m 4.17328,-2.40945 2.45486,-1.41733 m 4.17331,-2.40942 2.45487,-1.41733 m 4.17328,-2.40946 2.45489,-1.41732 m 4.17328,-2.40946 2.45486,-1.4173 m 4.17328,-2.40945 2.4549,-1.41733 m 4.17328,-2.40945 2.45486,-1.41733 m 4.17331,-2.40946 2.45486,-1.41729 m 4.17328,-2.40946 2.4549,-1.41732 m 4.17328,-2.40946 2.45486,-1.41733 m 4.17328,-2.40944 2.4549,-1.41732 m 4.17327,-2.40946 2.45487,-1.41731 m 4.17331,-2.40946 2.45486,-1.41732 m -90.83038,52.44095 0.24551,-0.14173 m 6.38266,-3.68503 0.24549,-0.14175 m 6.38269,-3.68503 0.24548,-0.14172 m 6.38266,-3.68506 0.24548,-0.14172 m 6.38269,-3.68503 0.24549,-0.14176 m 6.38269,-3.68502 0.24548,-0.14173 m 6.38266,-3.68506 0.24548,-0.14172 m 6.3827,-3.68503 0.24548,-0.14175 m 6.38266,-3.68503 0.24548,-0.14172 m 6.38269,-3.68506 0.24549,-0.14173 m 6.38269,-3.68502 0.24548,-0.14176 m 6.38266,-3.68503 0.24548,-0.14174 m 6.38269,-3.68504 0.24549,-0.14172 m 6.38269,-3.68505 0.24548,-0.14172 m 6.38266,-3.68504 0.24548,-0.14174 m -99.04928,57.18614 v 0 m 100.21985,-57.86195 v 0 m -200.43973,0 0.91583,0.52876 m 4.1733,2.40944 2.45488,1.41733 m 4.17327,2.40945 2.45488,1.41731"
       style="fill:none;stroke:#000000;stroke-width:0.3685;stroke-linecap:round;stroke-linejoin:round;stroke-miterlimit:10;stroke-dasharray:none;stroke-opacity:1"
       transform="matrix(1.3333333,0,0,-1.3333333,0,268.34667)" />
    <path
       id="path37"
       d="m 130.72394,125.64252 2.45486,1.41732 m 4.17328,2.40946 2.4549,1.41733 m 4.17328,2.40942 2.45486,1.41733 m 4.17331,2.40945 2.45486,1.41733 m 4.17328,2.40946 2.4549,1.41732 m 4.17328,2.40943 2.45486,1.41733 m 4.17331,2.40945 2.45486,1.41733 m 4.17328,2.40945 2.4549,1.41733 m 4.17328,2.40942 2.45486,1.41733 m 4.17331,2.40946 2.45487,1.41732 m 4.17327,2.40946 2.4549,1.4173 m 4.17328,2.40945 2.45486,1.41733 m 4.17331,2.40945 2.33646,1.34897 m -97.34015,-56.19937 0.2455,0.14174 m 6.38267,3.68504 0.24549,0.14172 m 6.38269,3.68505 0.24548,0.14172 m 6.38266,3.68505 0.24548,0.14172 m 6.38269,3.68506 0.24549,0.14172 m 6.38269,3.68506 0.24548,0.14172 m 6.38266,3.68503 0.24548,0.14172 m 6.38269,3.68506 0.24549,0.14173 m 6.38266,3.68503 0.24551,0.14175 m 6.38266,3.68503 0.24549,0.14172 m 6.38269,3.68506 0.24548,0.14172 m 6.38266,3.68503 0.24551,0.14176 m 6.38266,3.68502 0.24549,0.14173 m 6.38269,3.68506 0.24548,0.14172 m 6.38266,3.68503 0.24548,0.14175 m -95.91949,-55.37916 v 0 m 100.21988,57.86195 v 0"
       style="fill:none;stroke:#000000;stroke-width:0.3685;stroke-linecap:round;stroke-linejoin:round;stroke-miterlimit:10;stroke-dasharray:none;stroke-opacity:1"
       transform="matrix(1.3333333,0,0,-1.3333333,0,268.34667)" />
  </g>
</svg>
