<?xml version="1.0" encoding="UTF-8" standalone="no"?>
<!-- Created with Inkscape (http://www.inkscape.org/) -->

<svg
   version="1.1"
   id="svg1"
   width="566.92932"
   height="309.92133"
   viewBox="0 0 566.92932 309.92133"
   sodipodi:docname="allg_kirchhoff_kin.pdf"
   xmlns:inkscape="http://www.inkscape.org/namespaces/inkscape"
   xmlns:sodipodi="http://sodipodi.sourceforge.net/DTD/sodipodi-0.dtd"
   xmlns="http://www.w3.org/2000/svg"
   xmlns:svg="http://www.w3.org/2000/svg">
  <defs
     id="defs1">
    <clipPath
       clipPathUnits="userSpaceOnUse"
       id="clipPath11">
      <path
         d="M -0.00426,-0.00232 V 232.44327 H 425.20111 V -0.00232 H -0.00426"
         transform="matrix(1,0,0,-1,-111.7143,154.9519)"
         clip-rule="evenodd"
         id="path11" />
    </clipPath>
    <clipPath
       clipPathUnits="userSpaceOnUse"
       id="clipPath12">
      <path
         d="M -0.00426,-0.00232 V 232.44327 H 425.20111 V -0.00232 H -0.00426"
         transform="matrix(1,0,0,-1,-110.0017,144.74719)"
         clip-rule="evenodd"
         id="path12" />
    </clipPath>
    <clipPath
       clipPathUnits="userSpaceOnUse"
       id="clipPath13">
      <path
         d="M -0.00426,-0.00232 V 232.44327 H 425.20111 V -0.00232 H -0.00426"
         transform="matrix(1,0,0,-1,-97.53967,189.78624)"
         clip-rule="evenodd"
         id="path13" />
    </clipPath>
    <clipPath
       clipPathUnits="userSpaceOnUse"
       id="clipPath14">
      <path
         d="M -0.00426,-0.00232 V 232.44327 H 425.20111 V -0.00232 H -0.00426"
         transform="matrix(1,0,0,-1,-338.71714,188.82343)"
         clip-rule="evenodd"
         id="path14" />
    </clipPath>
    <clipPath
       clipPathUnits="userSpaceOnUse"
       id="clipPath15">
      <path
         d="M -0.00426,-0.00232 V 232.44327 H 425.20111 V -0.00232 H -0.00426"
         transform="matrix(1,0,0,-1,-242.5753,176.30379)"
         clip-rule="evenodd"
         id="path15" />
    </clipPath>
    <clipPath
       clipPathUnits="userSpaceOnUse"
       id="clipPath17">
      <path
         d="M -0.00426,-0.00232 V 232.44327 H 425.20111 V -0.00232 H -0.00426"
         transform="matrix(1,0,0,-1,-221.35033,182.71042)"
         clip-rule="evenodd"
         id="path17" />
    </clipPath>
    <clipPath
       clipPathUnits="userSpaceOnUse"
       id="clipPath19">
      <path
         d="M -0.00426,-0.00232 V 232.44327 H 425.20111 V -0.00232 H -0.00426"
         transform="matrix(1,0,0,-1,-279.8056,181.2894)"
         clip-rule="evenodd"
         id="path19" />
    </clipPath>
    <clipPath
       clipPathUnits="userSpaceOnUse"
       id="clipPath20">
      <path
         d="M -0.00426,-0.00232 V 232.44327 H 425.20111 V -0.00232 H -0.00426"
         transform="matrix(1,0,0,-1,-284.95221,177.15555)"
         clip-rule="evenodd"
         id="path20" />
    </clipPath>
    <clipPath
       clipPathUnits="userSpaceOnUse"
       id="clipPath21">
      <path
         d="M -0.00426,-0.00232 V 232.44327 H 425.20111 V -0.00232 H -0.00426"
         transform="matrix(1,0,0,-1,-136.20217,221.26388)"
         clip-rule="evenodd"
         id="path21" />
    </clipPath>
    <clipPath
       clipPathUnits="userSpaceOnUse"
       id="clipPath23">
      <path
         d="M -0.00426,-0.00232 V 232.44327 H 425.20111 V -0.00232 H -0.00426"
         transform="matrix(0.9668425,-0.25537346,-0.25537346,-0.9668425,-103.70496,166.84233)"
         clip-rule="evenodd"
         id="path23" />
    </clipPath>
    <clipPath
       clipPathUnits="userSpaceOnUse"
       id="clipPath25">
      <path
         d="M -0.00426,-0.00232 V 232.44327 H 425.20111 V -0.00232 H -0.00426"
         transform="matrix(1,0,0,-1,-309.92956,132.39574)"
         clip-rule="evenodd"
         id="path25" />
    </clipPath>
    <clipPath
       clipPathUnits="userSpaceOnUse"
       id="clipPath26">
      <path
         d="M -0.00426,-0.00232 V 232.44327 H 425.20111 V -0.00232 H -0.00426"
         transform="matrix(1,0,0,-1,-318.5139,128.26189)"
         clip-rule="evenodd"
         id="path26" />
    </clipPath>
    <clipPath
       clipPathUnits="userSpaceOnUse"
       id="clipPath27">
      <path
         d="M -0.00426,-0.00232 V 232.44327 H 425.20111 V -0.00232 H -0.00426"
         transform="matrix(1,0,0,-1,-239.97376,64.564834)"
         clip-rule="evenodd"
         id="path27" />
    </clipPath>
    <clipPath
       clipPathUnits="userSpaceOnUse"
       id="clipPath28">
      <path
         d="M -0.00426,-0.00232 V 232.44327 H 425.20111 V -0.00232 H -0.00426"
         transform="matrix(1,0,0,-1,-217.61269,81.018402)"
         clip-rule="evenodd"
         id="path28" />
    </clipPath>
    <clipPath
       clipPathUnits="userSpaceOnUse"
       id="clipPath29">
      <path
         d="M -0.00426,-0.00232 V 232.44327 H 425.20111 V -0.00232 H -0.00426"
         transform="matrix(1,0,0,-1,-328.55182,40.510654)"
         clip-rule="evenodd"
         id="path29" />
    </clipPath>
    <clipPath
       clipPathUnits="userSpaceOnUse"
       id="clipPath30">
      <path
         d="M -0.00426,-0.00232 V 232.44327 H 425.20111 V -0.00232 H -0.00426"
         transform="matrix(1,0,0,-1,-336.91901,40.510654)"
         clip-rule="evenodd"
         id="path30" />
    </clipPath>
    <clipPath
       clipPathUnits="userSpaceOnUse"
       id="clipPath31">
      <path
         d="M -0.00426,-0.00232 V 232.44327 H 425.20111 V -0.00232 H -0.00426"
         transform="matrix(1,0,0,-1,-344.33664,36.376803)"
         clip-rule="evenodd"
         id="path31" />
    </clipPath>
    <clipPath
       clipPathUnits="userSpaceOnUse"
       id="clipPath32">
      <path
         d="M -0.00426,-0.00232 V 232.44327 H 425.20111 V -0.00232 H -0.00426"
         transform="matrix(1,0,0,-1,-328.55182,26.337431)"
         clip-rule="evenodd"
         id="path32" />
    </clipPath>
    <clipPath
       clipPathUnits="userSpaceOnUse"
       id="clipPath33">
      <path
         d="M -0.00426,-0.00232 V 232.44327 H 425.20111 V -0.00232 H -0.00426"
         transform="matrix(1,0,0,-1,-336.91901,26.337431)"
         clip-rule="evenodd"
         id="path33" />
    </clipPath>
    <clipPath
       clipPathUnits="userSpaceOnUse"
       id="clipPath35">
      <path
         d="M -0.00426,-0.00232 V 232.44327 H 425.20111 V -0.00232 H -0.00426"
         transform="matrix(1,0,0,-1,-227.96332,39.528723)"
         clip-rule="evenodd"
         id="path35" />
    </clipPath>
    <clipPath
       clipPathUnits="userSpaceOnUse"
       id="clipPath36">
      <path
         d="M -0.00426,-0.00232 V 232.44327 H 425.20111 V -0.00232 H -0.00426"
         transform="matrix(1,0,0,-1,-235.25098,35.394858)"
         clip-rule="evenodd"
         id="path36" />
    </clipPath>
    <clipPath
       clipPathUnits="userSpaceOnUse"
       id="clipPath37">
      <path
         d="M -0.00426,-0.00232 V 232.44327 H 425.20111 V -0.00232 H -0.00426"
         transform="matrix(1,0,0,-1,-248.74516,8.7080127)"
         clip-rule="evenodd"
         id="path37" />
    </clipPath>
    <clipPath
       clipPathUnits="userSpaceOnUse"
       id="clipPath38">
      <path
         d="M -0.00426,-0.00232 V 232.44327 H 425.20111 V -0.00232 H -0.00426"
         transform="matrix(1,0,0,-1,-257.31946,4.5741476)"
         clip-rule="evenodd"
         id="path38" />
    </clipPath>
    <clipPath
       clipPathUnits="userSpaceOnUse"
       id="clipPath39">
      <path
         d="M -0.00426,-0.00232 V 232.44327 H 425.20111 V -0.00232 H -0.00426"
         transform="matrix(1,0,0,-1,-263.53344,8.7080127)"
         clip-rule="evenodd"
         id="path39" />
    </clipPath>
    <clipPath
       clipPathUnits="userSpaceOnUse"
       id="clipPath40">
      <path
         d="M -0.00426,-0.00232 V 232.44327 H 425.20111 V -0.00232 H -0.00426"
         transform="matrix(1,0,0,-1,-270.8926,4.5741476)"
         clip-rule="evenodd"
         id="path40" />
    </clipPath>
  </defs>
  <sodipodi:namedview
     id="namedview1"
     pagecolor="#ffffff"
     bordercolor="#000000"
     borderopacity="0.25"
     inkscape:showpageshadow="2"
     inkscape:pageopacity="0.0"
     inkscape:pagecheckerboard="0"
     inkscape:deskcolor="#d1d1d1">
    <inkscape:page
       x="0"
       y="0"
       inkscape:label="1"
       id="page1"
       width="566.92932"
       height="309.92133"
       margin="0"
       bleed="0" />
  </sodipodi:namedview>
  <g
     id="g1"
     inkscape:groupmode="layer"
     inkscape:label="1">
    <path
       id="path1"
       d="m 134.15524,219.38165 h 121.88977 v -56.6929 H 134.15524 v 56.6929 m -19.35209,-28.34643 h 2.83465 m 4.8189,0 h 2.83464 m -5.38582,0 h 0.28346 m -5.87625,0 v 0 m 12.7559,0 v 0"
       style="fill:none;stroke:#000000;stroke-width:0.3685;stroke-linecap:round;stroke-linejoin:round;stroke-miterlimit:10;stroke-dasharray:none;stroke-opacity:1"
       transform="matrix(1.3333333,0,0,-1.3333333,0,309.92133)" />
    <path
       id="path2"
       d="m 115.73006,191.03522 c 0,0.78274 -0.63456,1.41729 -1.41733,1.41729 m 0,0 c -0.78276,0 -1.41731,-0.63455 -1.41731,-1.41729 m 0,0 c 0,-0.78278 0.63455,-1.41733 1.41731,-1.41733 m 0,0 c 0.78277,0 1.41733,0.63455 1.41733,1.41733"
       style="fill:none;stroke:#000000;stroke-width:0.3685;stroke-linecap:round;stroke-linejoin:round;stroke-miterlimit:10;stroke-dasharray:none;stroke-opacity:1"
       transform="matrix(1.3333333,0,0,-1.3333333,0,309.92133)" />
    <path
       id="path3"
       d="m 257.46234,176.60284 c 0,0.78278 -0.63455,1.41733 -1.41733,1.41733 m 0,0 c -0.78274,0 -1.41732,-0.63455 -1.41732,-1.41733 m 0,0 c 0,-0.78274 0.63458,-1.41732 1.41732,-1.41732 m 0,0 c 0.78278,0 1.41733,0.63458 1.41733,1.41732"
       style="fill:none;stroke:#000000;stroke-width:0.3685;stroke-linecap:round;stroke-linejoin:round;stroke-miterlimit:10;stroke-dasharray:none;stroke-opacity:1"
       transform="matrix(1.3333333,0,0,-1.3333333,0,309.92133)" />
    <path
       id="path4"
       d="M 140.41376,133.52969 258.26196,102.40233 243.78412,47.5892 125.9359,78.71657 l 14.47786,54.81312"
       style="fill:none;stroke:#000000;stroke-width:0.3685;stroke-linecap:round;stroke-linejoin:round;stroke-miterlimit:10;stroke-dasharray:none;stroke-opacity:1"
       transform="matrix(1.3333333,0,0,-1.3333333,0,309.92133)" />
    <path
       id="path5"
       d="m 248.70773,60.68001 c 0.19989,0.7568 -0.25155,1.53238 -1.00836,1.73227 m 0,0 c -0.75683,0.1999 -1.53238,-0.25157 -1.7323,-1.00838 m 0,0 c -0.19989,-0.75681 0.25159,-1.53238 1.00839,-1.73227 m 0,0 c 0.75681,-0.1999 1.53238,0.25157 1.73227,1.00838"
       style="fill:none;stroke:#000000;stroke-width:0.3685;stroke-linecap:round;stroke-linejoin:round;stroke-miterlimit:10;stroke-dasharray:none;stroke-opacity:1"
       transform="matrix(1.3333333,0,0,-1.3333333,0,309.92133)" />
    <path
       id="path6"
       d="m 133.17484,106.12312 0.65029,-0.17177 m 4.65912,-1.2306 2.74066,-0.72389 m 4.65909,-1.23062 2.74066,-0.7239 m 4.65912,-1.23062 2.74066,-0.72389 m 4.65912,-1.23061 2.74066,-0.72389 m 4.65912,-1.23062 2.74063,-0.72389 m 4.65912,-1.23062 2.74066,-0.7239 m 4.65912,-1.2306 2.74067,-0.72389 m 4.65911,-1.23063 2.74067,-0.72389 m 4.65908,-1.23062 2.74067,-0.72389 m 4.65911,-1.23061 2.74067,-0.72389 m 4.65911,-1.23062 2.74067,-0.72389 m 4.65911,-1.23062 2.74064,-0.7239 m 4.65911,-1.2306 2.74067,-0.72389 m 4.65911,-1.23063 2.74067,-0.72389 m 4.65911,-1.23062 2.74067,-0.72389 m 4.65911,-1.23061 1.54221,-0.40735 m -115.00537,30.37648 0.27405,-0.0724 m 7.1257,-1.88213 0.27408,-0.0724 m 7.1257,-1.88212 0.27408,-0.0724 m 7.1257,-1.88211 0.27405,-0.07239 m 7.1257,-1.88213 0.27408,-0.07238 m 7.1257,-1.88213 0.27408,-0.07239 m 7.1257,-1.88211 0.27405,-0.0724 m 7.12573,-1.88211 0.27405,-0.07239 m 7.1257,-1.88212 0.27408,-0.07239 m 7.1257,-1.88211 0.27408,-0.07241 m 7.1257,-1.88211 0.27405,-0.07238 m 7.1257,-1.88213 0.27408,-0.07239 m 7.1257,-1.88211 0.27408,-0.0724 m 7.1257,-1.88211 0.27405,-0.07239 m 7.12573,-1.88213 0.27405,-0.07238 m 7.1257,-1.88211 0.27408,-0.07241 m -114.11346,30.1409 v 0 m 117.8482,-31.12735 v 0 m 13.31601,-32.83575 h 56.6929"
       style="fill:none;stroke:#000000;stroke-width:0.3685;stroke-linecap:round;stroke-linejoin:round;stroke-miterlimit:10;stroke-dasharray:none;stroke-opacity:1"
       transform="matrix(1.3333333,0,0,-1.3333333,0,309.92133)" />
    <path
       id="path7"
       d="m 309.32913,30.27673 c 1.02432,3.87804 1.54294,7.87224 1.54294,11.88329"
       style="fill:none;stroke:#000000;stroke-width:0.3685;stroke-linecap:round;stroke-linejoin:round;stroke-miterlimit:10;stroke-dasharray:none;stroke-opacity:1"
       transform="matrix(1.3333333,0,0,-1.3333333,0,309.92133)" />
    <path
       id="path8"
       d="m 321.89282,26.95828 -57.55377,15.20174 m 65.72507,-4.84345 h 11.33856"
       style="fill:none;stroke:#000000;stroke-width:0.3685;stroke-linecap:round;stroke-linejoin:round;stroke-miterlimit:10;stroke-dasharray:none;stroke-opacity:1"
       transform="matrix(1.3333333,0,0,-1.3333333,0,309.92133)" />
    <path
       id="path9"
       d="m 241.1991,37.80229 c 2.0032,-0.52911 4.0664,-0.797 6.1383,-0.797"
       style="fill:none;stroke:#000000;stroke-width:0.3685;stroke-linecap:round;stroke-linejoin:round;stroke-miterlimit:10;stroke-dasharray:none;stroke-opacity:1"
       transform="matrix(1.3333333,0,0,-1.3333333,0,309.92133)" />
    <path
       id="path10"
       d="M 243.78412,47.5892 238.71689,28.4046"
       style="fill:none;stroke:#000000;stroke-width:0.3685;stroke-linecap:round;stroke-linejoin:round;stroke-miterlimit:10;stroke-dasharray:none;stroke-opacity:1"
       transform="matrix(1.3333333,0,0,-1.3333333,0,309.92133)" />
    <text
       id="text10"
       xml:space="preserve"
       transform="matrix(1.3333333,0,0,1.3333333,148.9524,103.3188)"
       clip-path="url(#clipPath11)"><tspan
         style="font-style:italic;font-variant:normal;font-weight:normal;font-stretch:normal;font-size:10.0071px;font-family:'Palatino Linotype';writing-mode:lr-tb;fill:#000000;fill-opacity:1;fill-rule:nonzero;stroke:none"
         x="0"
         y="0"
         id="tspan10">z</tspan></text>
    <text
       id="text11"
       xml:space="preserve"
       transform="matrix(1.3333333,0,0,1.3333333,146.66893,116.92509)"
       clip-path="url(#clipPath12)"><tspan
         style="font-style:italic;font-variant:normal;font-weight:normal;font-stretch:normal;font-size:10.0071px;font-family:'Palatino Linotype';writing-mode:lr-tb;fill:#000000;fill-opacity:1;fill-rule:nonzero;stroke:none"
         x="0"
         y="0"
         id="tspan11">w</tspan></text>
    <text
       id="text12"
       xml:space="preserve"
       transform="matrix(1.3333333,0,0,1.3333333,130.05289,56.873013)"
       clip-path="url(#clipPath13)"><tspan
         style="font-style:italic;font-variant:normal;font-weight:normal;font-stretch:normal;font-size:10.0071px;font-family:'Palatino Linotype';writing-mode:lr-tb;fill:#000000;fill-opacity:1;fill-rule:nonzero;stroke:none"
         x="0 5.0035648 7.5053477"
         y="0"
         sodipodi:role="line"
         id="tspan12">y v</tspan></text>
    <text
       id="text13"
       xml:space="preserve"
       transform="matrix(1.3333333,0,0,1.3333333,451.62284,58.15676)"
       clip-path="url(#clipPath14)"><tspan
         style="font-style:italic;font-variant:normal;font-weight:normal;font-stretch:normal;font-size:10.0071px;font-family:'Palatino Linotype';writing-mode:lr-tb;fill:#000000;fill-opacity:1;fill-rule:nonzero;stroke:none"
         x="0 5.0035648 7.5053477 13.069312"
         y="0"
         sodipodi:role="line"
         id="tspan13">x u </tspan></text>
    <text
       id="text14"
       xml:space="preserve"
       transform="matrix(1.3333333,0,0,1.3333333,323.43372,74.849613)"
       clip-path="url(#clipPath15)"><tspan
         style="font-style:italic;font-variant:normal;font-weight:normal;font-stretch:normal;font-size:10.0071px;font-family:'Palatino Linotype';writing-mode:lr-tb;fill:#000000;fill-opacity:1;fill-rule:nonzero;stroke:none"
         x="0"
         y="0"
         id="tspan14">P</tspan></text>
    <path
       id="path16"
       d="m 229.29727,162.68875 -0.4252,2.97638 h 0.8504 l -0.4252,-2.97638 m 0,56.6929 -0.4252,-2.97638 h 0.8504 l -0.4252,2.97638 m 0,-56.6929 h -2.12597 m 2.12597,0 h 2.12598 m -2.12598,56.6929 h -2.12597 m 2.12597,0 h 2.12598 m -2.12598,-56.6929 h 18.24381 m -18.24381,56.6929 h 18.24381 m -18.24381,-56.6929 v 0 m 0,56.6929 v 0 m 0,-56.6929 v 56.6929"
       style="fill:none;stroke:#000000;stroke-width:0.3685;stroke-linecap:round;stroke-linejoin:round;stroke-miterlimit:10;stroke-dasharray:none;stroke-opacity:1"
       transform="matrix(1.3333333,0,0,-1.3333333,0,309.92133)" />
    <text
       id="text16"
       xml:space="preserve"
       transform="matrix(1.3333333,0,0,1.3333333,295.13377,66.30744)"
       clip-path="url(#clipPath17)"><tspan
         style="font-style:italic;font-variant:normal;font-weight:normal;font-stretch:normal;font-size:10.0071px;font-family:'Palatino Linotype';writing-mode:lr-tb;fill:#000000;fill-opacity:1;fill-rule:nonzero;stroke:none"
         x="0"
         y="0"
         id="tspan16">h</tspan></text>
    <path
       id="path18"
       d="m 276.34418,176.60284 -0.4252,2.97638 h 0.8504 l -0.4252,-2.97638 m 0,14.43238 -0.4252,-2.97638 h 0.8504 l -0.4252,2.97638 m 0,-14.43238 h -2.12598 m 2.12598,0 h 2.12597 m -2.12597,14.43238 h -2.12598 m 2.12598,0 h 2.12597 m -2.12597,-14.43238 h -10.3779 m 10.3779,14.43238 v 0 m 0,-14.43238 v 0 m 0,14.43238 v 0 m 0,-14.43238 v 14.43238"
       style="fill:none;stroke:#000000;stroke-width:0.3685;stroke-linecap:round;stroke-linejoin:round;stroke-miterlimit:10;stroke-dasharray:none;stroke-opacity:1"
       transform="matrix(1.3333333,0,0,-1.3333333,0,309.92133)" />
    <text
       id="text18"
       xml:space="preserve"
       transform="matrix(1.3333333,0,0,1.3333333,373.07413,68.202133)"
       clip-path="url(#clipPath19)"><tspan
         style="font-style:italic;font-variant:normal;font-weight:normal;font-stretch:normal;font-size:10.0071px;font-family:'Palatino Linotype';writing-mode:lr-tb;fill:#000000;fill-opacity:1;fill-rule:nonzero;stroke:none"
         x="0"
         y="0"
         id="tspan18">z</tspan></text>
    <text
       id="text19"
       xml:space="preserve"
       transform="matrix(1.3333333,0,0,1.3333333,379.93627,73.713933)"
       clip-path="url(#clipPath20)"><tspan
         style="font-style:italic;font-variant:normal;font-weight:normal;font-stretch:normal;font-size:6.00428px;font-family:'Palatino Linotype';writing-mode:lr-tb;fill:#000000;fill-opacity:1;fill-rule:nonzero;stroke:none"
         x="0"
         y="0"
         id="tspan19">p</tspan></text>
    <text
       id="text20"
       xml:space="preserve"
       transform="matrix(1.3333333,0,0,1.3333333,181.60289,14.90284)"
       clip-path="url(#clipPath21)"><tspan
         style="font-variant:normal;font-weight:normal;font-stretch:normal;font-size:10.0916px;font-family:'Palatino Linotype';writing-mode:lr-tb;fill:#000000;fill-opacity:1;fill-rule:nonzero;stroke:none"
         x="0 6.0852408 11.958558 17.660318 22.494198 26.480385 29.840891 35.35091 39.337097 48.247986"
         y="0"
         sodipodi:role="line"
         id="tspan20">unverformt</tspan></text>
    <path
       id="path22"
       d="m 217.92328,54.41986 0.34897,2.98627 0.8222,-0.21717 -1.17117,-2.7691 m 14.47784,54.81313 -1.1712,-2.76911 0.8222,-0.21718 0.349,2.98629 m -14.47784,-54.81313 -2.05551,0.54291 m 2.05551,-0.54291 2.05548,-0.54292 m 12.42236,55.35605 -2.05551,0.5429 m 2.05551,-0.5429 2.05548,-0.54293 m -16.53332,-54.2702 17.63888,-4.65898 m -3.16104,59.47211 17.63889,-4.65898 M 217.92328,54.41986 v 0 m 14.47784,54.81313 v 0 m -14.47784,-54.81313 14.47784,54.81313"
       style="fill:none;stroke:#000000;stroke-width:0.3685;stroke-linecap:round;stroke-linejoin:round;stroke-miterlimit:10;stroke-dasharray:none;stroke-opacity:1"
       transform="matrix(1.3333333,0,0,-1.3333333,0,309.92133)" />
    <text
       id="text22"
       xml:space="preserve"
       transform="matrix(1.2891233,0.34049794,-0.34049794,1.2891233,190.49795,130.15232)"
       clip-path="url(#clipPath23)"><tspan
         style="font-variant:normal;font-weight:normal;font-stretch:normal;font-size:10.0916px;font-family:'Palatino Linotype';writing-mode:lr-tb;fill:#000000;fill-opacity:1;fill-rule:nonzero;stroke:none"
         x="0 5.7017612 10.535644 14.521831 17.882338 23.392359 27.378546 36.28944"
         y="0"
         sodipodi:role="line"
         id="tspan22">verformt</tspan></text>
    <path
       id="path24"
       d="m 306.82047,74.99577 -0.42521,2.97638 h 0.85041 l -0.4252,-2.97638 m 0,116.03945 -0.42521,-2.97638 h 0.85041 l -0.4252,2.97638 m 0,-116.03945 h -2.12598 m 2.12598,0 h 2.12597 m -2.12597,116.03945 h -2.12598 m 2.12598,0 h 2.12597 M 306.82047,74.99577 h -47.29349 m 47.29349,116.03945 v 0 m 0,-116.03945 v 0 m 0,116.03945 v 0 m 0,-116.03945 v 116.03945"
       style="fill:none;stroke:#000000;stroke-width:0.3685;stroke-linecap:round;stroke-linejoin:round;stroke-miterlimit:10;stroke-dasharray:none;stroke-opacity:1"
       transform="matrix(1.3333333,0,0,-1.3333333,0,309.92133)" />
    <text
       id="text24"
       xml:space="preserve"
       transform="matrix(1.3333333,0,0,1.3333333,413.2394,133.39368)"
       clip-path="url(#clipPath25)"><tspan
         style="font-style:italic;font-variant:normal;font-weight:normal;font-stretch:normal;font-size:10.0071px;font-family:'Palatino Linotype';writing-mode:lr-tb;fill:#000000;fill-opacity:1;fill-rule:nonzero;stroke:none"
         x="0"
         y="0"
         id="tspan24">w</tspan></text>
    <text
       id="text25"
       xml:space="preserve"
       transform="matrix(1.3333333,0,0,1.3333333,424.68519,138.90548)"
       clip-path="url(#clipPath26)"><tspan
         style="font-style:italic;font-variant:normal;font-weight:normal;font-stretch:normal;font-size:6.00428px;font-family:'Palatino Linotype';writing-mode:lr-tb;fill:#000000;fill-opacity:1;fill-rule:nonzero;stroke:none"
         x="0"
         y="0"
         id="tspan25">0</tspan></text>
    <text
       id="text26"
       xml:space="preserve"
       transform="matrix(1.3333333,0,0,1.3333333,319.96501,223.83489)"
       clip-path="url(#clipPath27)"><tspan
         style="font-style:italic;font-variant:normal;font-weight:normal;font-stretch:normal;font-size:10.0071px;font-family:'Palatino Linotype';writing-mode:lr-tb;fill:#000000;fill-opacity:1;fill-rule:nonzero;stroke:none"
         x="0"
         y="0"
         id="tspan26">P</tspan></text>
    <text
       id="text27"
       xml:space="preserve"
       transform="matrix(1.3333333,0,0,1.3333333,290.15025,201.8968)"
       clip-path="url(#clipPath28)"><tspan
         style="font-style:italic;font-variant:normal;font-weight:normal;font-stretch:normal;font-size:10.0071px;font-family:'Palatino Linotype';writing-mode:lr-tb;fill:#000000;fill-opacity:1;fill-rule:nonzero;stroke:none"
         x="0"
         y="0"
         id="tspan27">h</tspan></text>
    <text
       id="text28"
       xml:space="preserve"
       transform="matrix(1.3333333,0,0,1.3333333,438.06908,255.90713)"
       clip-path="url(#clipPath29)"><tspan
         style="font-variant:normal;font-weight:normal;font-stretch:normal;font-size:10.616px;font-family:'Cambria Math';writing-mode:lr-tb;fill:#000000;fill-opacity:1;fill-rule:nonzero;stroke:none"
         x="0"
         y="0"
         id="tspan28">∂</tspan></text>
    <text
       id="text29"
       xml:space="preserve"
       transform="matrix(1.3333333,0,0,1.3333333,449.22533,255.90713)"
       clip-path="url(#clipPath30)"><tspan
         style="font-style:italic;font-variant:normal;font-weight:normal;font-stretch:normal;font-size:10.0071px;font-family:'Palatino Linotype';writing-mode:lr-tb;fill:#000000;fill-opacity:1;fill-rule:nonzero;stroke:none"
         x="0"
         y="0"
         id="tspan29">w</tspan></text>
    <text
       id="text30"
       xml:space="preserve"
       transform="matrix(1.3333333,0,0,1.3333333,459.11551,261.41893)"
       clip-path="url(#clipPath31)"><tspan
         style="font-style:italic;font-variant:normal;font-weight:normal;font-stretch:normal;font-size:6.00428px;font-family:'Palatino Linotype';writing-mode:lr-tb;fill:#000000;fill-opacity:1;fill-rule:nonzero;stroke:none"
         x="0"
         y="0"
         id="tspan30">0</tspan></text>
    <text
       id="text31"
       xml:space="preserve"
       transform="matrix(1.3333333,0,0,1.3333333,438.06908,274.80476)"
       clip-path="url(#clipPath32)"><tspan
         style="font-variant:normal;font-weight:normal;font-stretch:normal;font-size:10.616px;font-family:'Cambria Math';writing-mode:lr-tb;fill:#000000;fill-opacity:1;fill-rule:nonzero;stroke:none"
         x="0"
         y="0"
         id="tspan31">∂</tspan></text>
    <text
       id="text32"
       xml:space="preserve"
       transform="matrix(1.3333333,0,0,1.3333333,449.22533,274.80476)"
       clip-path="url(#clipPath33)"><tspan
         style="font-style:italic;font-variant:normal;font-weight:normal;font-stretch:normal;font-size:10.0071px;font-family:'Palatino Linotype';writing-mode:lr-tb;fill:#000000;fill-opacity:1;fill-rule:nonzero;stroke:none"
         x="0"
         y="0"
         id="tspan32">x</tspan></text>
    <path
       id="path34"
       d="m 247.3374,18.02776 -2.97638,0.4252 v -0.85039 l 2.97638,0.42519 m 3.68564,0 2.97638,0.4252 v -0.85039 l -2.97638,0.42519 m -3.68564,0 v 2.12597 m 0,-2.12597 v -2.12598 m 3.68564,2.12598 v 2.12597 m 0,-2.12597 v -2.12598 m -3.68564,2.12598 v 34.51026 m 3.68564,-34.51026 V 66.49184 M 247.3374,18.02776 h -3.18896 m 6.8746,0 h 3.18897 m -6.87461,0 h 3.68564"
       style="fill:none;stroke:#000000;stroke-width:0.3685;stroke-linecap:round;stroke-linejoin:round;stroke-miterlimit:10;stroke-dasharray:none;stroke-opacity:1"
       transform="matrix(1.3333333,0,0,-1.3333333,0,309.92133)" />
    <text
       id="text34"
       xml:space="preserve"
       transform="matrix(1.3333333,0,0,1.3333333,303.95109,257.21637)"
       clip-path="url(#clipPath35)"><tspan
         style="font-style:italic;font-variant:normal;font-weight:normal;font-stretch:normal;font-size:10.0071px;font-family:'Palatino Linotype';writing-mode:lr-tb;fill:#000000;fill-opacity:1;fill-rule:nonzero;stroke:none"
         x="0"
         y="0"
         id="tspan34">φ</tspan></text>
    <text
       id="text35"
       xml:space="preserve"
       transform="matrix(1.3333333,0,0,1.3333333,313.66797,262.72819)"
       clip-path="url(#clipPath36)"><tspan
         style="font-style:italic;font-variant:normal;font-weight:normal;font-stretch:normal;font-size:6.00428px;font-family:'Palatino Linotype';writing-mode:lr-tb;fill:#000000;fill-opacity:1;fill-rule:nonzero;stroke:none"
         x="0"
         y="0"
         id="tspan35">x</tspan></text>
    <text
       id="text36"
       xml:space="preserve"
       transform="matrix(1.3333333,0,0,1.3333333,331.6602,298.31065)"
       clip-path="url(#clipPath37)"><tspan
         style="font-style:italic;font-variant:normal;font-weight:normal;font-stretch:normal;font-size:10.0071px;font-family:'Palatino Linotype';writing-mode:lr-tb;fill:#000000;fill-opacity:1;fill-rule:nonzero;stroke:none"
         x="0 3.3323743"
         y="0"
         sodipodi:role="line"
         id="tspan36">-z</tspan></text>
    <text
       id="text37"
       xml:space="preserve"
       transform="matrix(1.3333333,0,0,1.3333333,343.09261,303.82247)"
       clip-path="url(#clipPath38)"><tspan
         style="font-style:italic;font-variant:normal;font-weight:normal;font-stretch:normal;font-size:6.00428px;font-family:'Palatino Linotype';writing-mode:lr-tb;fill:#000000;fill-opacity:1;fill-rule:nonzero;stroke:none"
         x="0"
         y="0"
         id="tspan37">p</tspan></text>
    <text
       id="text38"
       xml:space="preserve"
       transform="matrix(1.3333333,0,0,1.3333333,351.37791,298.31065)"
       clip-path="url(#clipPath39)"><tspan
         style="font-style:italic;font-variant:normal;font-weight:normal;font-stretch:normal;font-size:10.0071px;font-family:'Palatino Linotype';writing-mode:lr-tb;fill:#000000;fill-opacity:1;fill-rule:nonzero;stroke:none"
         x="0"
         y="0"
         id="tspan38">φ</tspan></text>
    <text
       id="text39"
       xml:space="preserve"
       transform="matrix(1.3333333,0,0,1.3333333,361.19013,303.82247)"
       clip-path="url(#clipPath40)"><tspan
         style="font-style:italic;font-variant:normal;font-weight:normal;font-stretch:normal;font-size:6.00428px;font-family:'Palatino Linotype';writing-mode:lr-tb;fill:#000000;fill-opacity:1;fill-rule:nonzero;stroke:none"
         x="0"
         y="0"
         id="tspan39">x</tspan></text>
    <path
       id="path41"
       d="m 114.31273,191.03522 v -27.7211 m 0,5.95276 v 0.4252 m 0,-6.37796 v 0 l 0.8504,5.95276 h -1.70079 l 0.85039,-5.95276"
       style="fill:none;stroke:#000000;stroke-width:0.3685;stroke-linecap:round;stroke-linejoin:round;stroke-miterlimit:10;stroke-dasharray:none;stroke-opacity:1"
       transform="matrix(1.3333333,0,0,-1.3333333,0,309.92133)" />
    <path
       id="path42"
       d="m 113.46234,169.26688 0.85039,-5.95276 0.8504,5.95276 z"
       style="fill:#000000;fill-opacity:1;fill-rule:nonzero;stroke:none"
       transform="matrix(1.3333333,0,0,-1.3333333,0,309.92133)" />
    <path
       id="path43"
       d="m 114.31273,191.03522 h 222.43236 m -5.95276,0 h -0.42517 m 6.37793,0 v 0 l -5.95276,0.85037 v -1.70078 l 5.95276,0.85041"
       style="fill:none;stroke:#000000;stroke-width:0.3685;stroke-linecap:round;stroke-linejoin:round;stroke-miterlimit:10;stroke-dasharray:none;stroke-opacity:1"
       transform="matrix(1.3333333,0,0,-1.3333333,0,309.92133)" />
    <path
       id="path44"
       d="m 330.79233,190.18481 5.95276,0.85041 -5.95276,0.85037 z"
       style="fill:#000000;fill-opacity:1;fill-rule:nonzero;stroke:none"
       transform="matrix(1.3333333,0,0,-1.3333333,0,309.92133)" />
  </g>
</svg>
