<?xml version="1.0" encoding="UTF-8" standalone="no"?>
<!-- Created with Inkscape (http://www.inkscape.org/) -->

<svg
   version="1.1"
   id="svg1"
   width="566.92932"
   height="275.90533"
   viewBox="0 0 566.92932 275.90533"
   sodipodi:docname="quad_quadrat_fliessgelenklinien.pdf"
   xmlns:inkscape="http://www.inkscape.org/namespaces/inkscape"
   xmlns:sodipodi="http://sodipodi.sourceforge.net/DTD/sodipodi-0.dtd"
   xmlns="http://www.w3.org/2000/svg"
   xmlns:svg="http://www.w3.org/2000/svg">
  <defs
     id="defs1">
    <clipPath
       clipPathUnits="userSpaceOnUse"
       id="clipPath22">
      <path
         d="M -0.00426,-0.00208 V 206.93121 H 425.20111 V -0.00208 H -0.00426"
         transform="matrix(0,1,1,0,-125.51797,-126.83371)"
         clip-rule="evenodd"
         id="path22" />
    </clipPath>
    <clipPath
       clipPathUnits="userSpaceOnUse"
       id="clipPath24">
      <path
         d="M -0.00426,-0.00208 V 206.93121 H 425.20111 V -0.00208 H -0.00426"
         transform="matrix(1,0,0,-1,-272.40043,129.93061)"
         clip-rule="evenodd"
         id="path24" />
    </clipPath>
    <clipPath
       clipPathUnits="userSpaceOnUse"
       id="clipPath26">
      <path
         d="M -0.00426,-0.00208 V 206.93121 H 425.20111 V -0.00208 H -0.00426"
         transform="matrix(1,0,0,-1,-196.30119,199.27603)"
         clip-rule="evenodd"
         id="path26" />
    </clipPath>
    <clipPath
       clipPathUnits="userSpaceOnUse"
       id="clipPath28">
      <path
         d="M -0.00426,-0.00208 V 206.93121 H 425.20111 V -0.00208 H -0.00426"
         transform="matrix(0,1,1,0,-94.397,-301.55002)"
         clip-rule="evenodd"
         id="path28" />
    </clipPath>
    <clipPath
       clipPathUnits="userSpaceOnUse"
       id="clipPath29">
      <path
         d="M -0.00426,-0.00208 V 206.93121 H 425.20111 V -0.00208 H -0.00426"
         transform="matrix(0,1,1,0,-148.82009,-301.55002)"
         clip-rule="evenodd"
         id="path29" />
    </clipPath>
    <clipPath
       clipPathUnits="userSpaceOnUse"
       id="clipPath31">
      <path
         d="M -0.00426,-0.00208 V 206.93121 H 425.20111 V -0.00208 H -0.00426"
         transform="matrix(1,0,0,-1,-201.59956,48.150454)"
         clip-rule="evenodd"
         id="path31" />
    </clipPath>
    <clipPath
       clipPathUnits="userSpaceOnUse"
       id="clipPath33">
      <path
         d="M -0.00426,-0.00208 V 206.93121 H 425.20111 V -0.00208 H -0.00426"
         transform="matrix(1,0,0,-1,-165.35968,22.936128)"
         clip-rule="evenodd"
         id="path33" />
    </clipPath>
    <clipPath
       clipPathUnits="userSpaceOnUse"
       id="clipPath34">
      <path
         d="M -0.00426,-0.00208 V 206.93121 H 425.20111 V -0.00208 H -0.00426"
         transform="matrix(1,0,0,-1,-219.78277,22.936128)"
         clip-rule="evenodd"
         id="path34" />
    </clipPath>
  </defs>
  <sodipodi:namedview
     id="namedview1"
     pagecolor="#ffffff"
     bordercolor="#000000"
     borderopacity="0.25"
     inkscape:showpageshadow="2"
     inkscape:pageopacity="0.0"
     inkscape:pagecheckerboard="0"
     inkscape:deskcolor="#d1d1d1">
    <inkscape:page
       x="0"
       y="0"
       inkscape:label="1"
       id="page1"
       width="566.92932"
       height="275.90533"
       margin="0"
       bleed="0" />
  </sodipodi:namedview>
  <path
     id="path1"
     d="m 146.31085,179.79892 0.49426,-0.007 0.46314,-0.0379 0.40091,-0.10019 0.30759,-0.19351 0.19351,-0.30759 0.10019,-0.40091 0.038,-0.46316 0.007,-0.49427 0.007,-0.49423 0.038,-0.46316 0.10016,-0.40091 0.19351,-0.30759 0.30758,-0.19351 0.40094,-0.10019 0.46314,-0.0379 0.49426,-0.007 0.49426,-0.007 0.46314,-0.038 0.40094,-0.10016 0.30759,-0.19351 0.19351,-0.30759 0.10016,-0.40094 0.038,-0.46313 0.007,-0.49426 0.007,-0.49427 0.038,-0.46313 0.10015,-0.40091 0.19352,-0.30759 0.30758,-0.19351 0.40094,-0.10019 0.46314,-0.038 0.49426,-0.007 0.49426,-0.007 0.46314,-0.038 0.40094,-0.10016 0.30758,-0.19351 0.19352,-0.30759 0.10015,-0.40094 0.038,-0.46313 0.007,-0.49426 0.007,-0.49427 0.038,-0.46313 0.10019,-0.40094 0.19352,-0.30759 0.30758,-0.19351 0.40091,-0.10016 0.46314,-0.038 0.49426,-0.007 0.49426,-0.007 0.46314,-0.038"
     style="fill:none;stroke:#000000;stroke-width:0.3685;stroke-linecap:round;stroke-linejoin:round;stroke-miterlimit:10;stroke-dasharray:none;stroke-opacity:1"
     transform="matrix(1.3333333,0,0,-1.3333333,0,275.90533)" />
  <path
     id="path2"
     d="m 159.29462,167.72772 0.40094,-0.10016 0.30758,-0.19351 0.19352,-0.30759 0.10015,-0.40094 0.038,-0.46313 0.007,-0.49426 0.007,-0.49427 0.038,-0.46313 0.10019,-0.40094 0.19351,-0.30759 0.30759,-0.19351 0.40091,-0.10016 0.46317,-0.038 0.49423,-0.007 0.49426,-0.007 0.46317,-0.038 0.40091,-0.10019 0.30758,-0.19351 0.19351,-0.30758 0.10019,-0.40091 0.0379,-0.46314 0.007,-0.49426 0.007,-0.49426 0.0379,-0.46314 0.10019,-0.40094 0.19351,-0.30759 0.30759,-0.19351 0.40091,-0.10019 0.46317,-0.0379 0.49426,-0.007 0.49423,-0.007 0.46317,-0.0379 0.4009,-0.10019 0.30759,-0.19351 0.19351,-0.30758 0.10019,-0.40091 0.0379,-0.46317 0.007,-0.49423 0.007,-0.49426 0.0379,-0.46317 0.10019,-0.40091 0.19351,-0.30758 0.30759,-0.19352 0.40094,-0.10019 0.46313,-0.0379 0.49427,-0.007 0.49426,-0.007 0.46313,-0.0379 0.40091,-0.10018 0.30759,-0.19352"
     style="fill:none;stroke:#000000;stroke-width:0.3685;stroke-linecap:round;stroke-linejoin:round;stroke-miterlimit:10;stroke-dasharray:none;stroke-opacity:1"
     transform="matrix(1.3333333,0,0,-1.3333333,0,275.90533)" />
  <path
     id="path3"
     d="m 172.02951,155.40765 0.19351,-0.30758 0.10019,-0.40091 0.038,-0.46317 0.007,-0.49426 0.007,-0.49423 0.038,-0.46317 0.10016,-0.40091 0.19351,-0.30758 0.30759,-0.19352 0.40094,-0.10018 0.46313,-0.038 0.49427,-0.007 0.49426,-0.007 0.46313,-0.038 0.40094,-0.10016 0.30759,-0.19352 0.19351,-0.30758 0.10016,-0.40094 0.038,-0.46314 0.007,-0.49426 0.007,-0.49426 0.038,-0.46314 0.10016,-0.40091 0.19351,-0.30758 0.30759,-0.19351 0.40094,-0.10019 0.46313,-0.038 0.49427,-0.007 0.49426,-0.007 0.46313,-0.038 0.40094,-0.10016 0.30759,-0.19351 0.19351,-0.30759 0.10016,-0.40094 0.038,-0.46314 0.007,-0.49426 0.007,-0.49426 0.038,-0.46314 0.10019,-0.40094 0.19351,-0.30758 0.30759,-0.19351 0.40091,-0.10016 0.46313,-0.038 0.49426,-0.007 0.49427,-0.007 0.46313,-0.038 0.40094,-0.10016 0.30759,-0.19351 0.19351,-0.30759 0.10016,-0.40094"
     style="fill:none;stroke:#000000;stroke-width:0.3685;stroke-linecap:round;stroke-linejoin:round;stroke-miterlimit:10;stroke-dasharray:none;stroke-opacity:1"
     transform="matrix(1.3333333,0,0,-1.3333333,0,275.90533)" />
  <path
     id="path4"
     d="m 184.34958,142.67276 0.038,-0.46313 0.007,-0.49427 0.007,-0.49426 0.0379,-0.46313 0.10019,-0.40094 0.19351,-0.30759 0.30759,-0.19351 0.40091,-0.10016 0.46316,-0.038 0.49423,-0.007 0.49427,-0.007 0.46316,-0.038 0.40091,-0.10019 0.30759,-0.19351 0.19351,-0.30759 0.10019,-0.40091 0.0379,-0.46313 0.007,-0.49427 0.007,-0.49426 0.0379,-0.46313 0.10019,-0.40094 0.19351,-0.30759 0.30759,-0.19351 0.4009,-0.10019 0.46317,-0.0379 0.49426,-0.007 0.49423,-0.007 0.46317,-0.0379 0.40091,-0.10019 0.30759,-0.19351 0.19351,-0.30759 0.10019,-0.40091 0.0379,-0.46316 0.007,-0.49424 0.007,-0.49426 0.038,-0.46316 0.10016,-0.40091 0.19351,-0.30759 0.30758,-0.19351 0.40094,-0.10019 0.46314,-0.0379 0.49426,-0.007 0.49426,-0.007 0.46314,-0.0379 0.40091,-0.10019 0.30759,-0.19351 0.19351,-0.30759 0.10019,-0.40091 0.038,-0.46316 0.007,-0.49427"
     style="fill:none;stroke:#000000;stroke-width:0.3685;stroke-linecap:round;stroke-linejoin:round;stroke-miterlimit:10;stroke-dasharray:none;stroke-opacity:1"
     transform="matrix(1.3333333,0,0,-1.3333333,0,275.90533)" />
  <path
     id="path5"
     d="m 196.42078,129.68896 0.007,-0.49423 0.038,-0.46316 0.10015,-0.40091 0.19352,-0.30759 0.30758,-0.19353 0.40094,-0.10017 0.46314,-0.038 0.49426,-0.007 m -54.42309,54.4231 0.0713,-0.59284 0.10708,-0.55276 0.17859,-0.47251 0.28583,-0.35217 0.3323,-0.17908 0.40445,-0.0981 0.45255,-0.0441 0.47662,-0.0171 m 0,-104.22867 0.49426,0.0068 0.46314,0.03796 0.40091,0.10018 0.30759,0.19351 0.19351,0.30758 0.10019,0.40093 0.038,0.46313 0.007,0.49427 0.007,0.49426 0.038,0.46313 0.10016,0.40093 0.19351,0.30758 0.30758,0.19352 0.40094,0.10019 0.46314,0.03794 0.49426,0.0068 0.49426,0.0069 0.46314,0.03795 0.40094,0.10017 0.30759,0.19352 0.19351,0.30758 0.10016,0.40093 0.038,0.46315 0.007,0.49425 0.007,0.49426 0.038,0.46315 0.10015,0.40092 0.19352,0.30759 0.30758,0.19351 0.40094,0.10018 0.46314,0.03794 0.49426,0.0069 0.49426,0.0068 0.46314,0.03795"
     style="fill:none;stroke:#000000;stroke-width:0.3685;stroke-linecap:round;stroke-linejoin:round;stroke-miterlimit:10;stroke-dasharray:none;stroke-opacity:1"
     transform="matrix(1.3333333,0,0,-1.3333333,0,275.90533)" />
  <path
     id="path6"
     d="m 155.28583,83.63263 0.40094,0.10017 0.30758,0.19352 0.19352,0.30758 0.10015,0.40093 0.038,0.46315 0.007,0.49426 0.007,0.49425 0.038,0.46315 0.10019,0.40092 0.19352,0.30759 0.30758,0.19351 0.40091,0.10017 0.46314,0.03797 0.49426,0.0068 0.49426,0.0068 0.46314,0.03796 0.40094,0.10018 0.30758,0.19351 0.19352,0.30759 0.10015,0.40092 0.038,0.46314 0.007,0.49426 0.007,0.49426 0.038,0.46314 0.10019,0.40092 0.19351,0.30759 0.30759,0.19351 0.40091,0.10019 0.46317,0.03795 0.49423,0.0068 0.49426,0.0069 0.46317,0.03795 0.40091,0.10018 0.30758,0.19351 0.19351,0.30759 0.10019,0.40092 0.0379,0.46315 0.007,0.49425 0.007,0.49426 0.0379,0.46315 0.10019,0.40092 0.19351,0.30759 0.30759,0.19351 0.40091,0.10018 0.46317,0.03795 0.49426,0.0069 0.49423,0.0068 0.46317,0.03795 0.4009,0.10018 0.30759,0.19351"
     style="fill:none;stroke:#000000;stroke-width:0.3685;stroke-linecap:round;stroke-linejoin:round;stroke-miterlimit:10;stroke-dasharray:none;stroke-opacity:1"
     transform="matrix(1.3333333,0,0,-1.3333333,0,275.90533)" />
  <path
     id="path7"
     d="m 168.02072,95.9527 0.19351,0.30758 0.10019,0.40093 0.0379,0.46315 0.007,0.49426 0.007,0.49425 0.0379,0.46315 0.10019,0.40092 0.19351,0.30759 0.30759,0.19351 0.40094,0.10018 0.46313,0.03796 0.49427,0.0068 0.49426,0.0068 0.46313,0.03797 0.40091,0.10017 0.30759,0.19351 0.19351,0.30759 0.10019,0.40092 0.038,0.46314 0.007,0.49426 0.007,0.49426 0.038,0.46315 0.10016,0.40091 0.19351,0.30759 0.30759,0.19351 0.40094,0.10019 0.46313,0.038 0.49427,0.007 0.49426,0.007 0.46313,0.0379 0.40094,0.10017 0.30759,0.19351 0.19351,0.30759 0.10016,0.40092 0.038,0.46315 0.007,0.49425 0.007,0.49426 0.038,0.46315 0.10016,0.40093 0.19351,0.30758 0.30759,0.19352 0.40094,0.10017 0.46313,0.0379 0.49427,0.007 0.49426,0.007 0.46313,0.0379 0.40094,0.10018 0.30759,0.19351 0.19351,0.3076 0.10016,0.40091"
     style="fill:none;stroke:#000000;stroke-width:0.3685;stroke-linecap:round;stroke-linejoin:round;stroke-miterlimit:10;stroke-dasharray:none;stroke-opacity:1"
     transform="matrix(1.3333333,0,0,-1.3333333,0,275.90533)" />
  <path
     id="path8"
     d="m 180.34079,108.68759 0.038,0.46315 0.007,0.49426 0.007,0.49425 0.038,0.46315 0.10019,0.40093 0.19351,0.30758 0.30759,0.19352 0.40091,0.10017 0.46313,0.038 0.49426,0.007 0.49427,0.007 0.46313,0.038 0.40094,0.10017 0.30759,0.19351 0.19351,0.30759 0.10016,0.40093 0.038,0.46313 0.007,0.49426 0.007,0.49427 0.0379,0.46315 0.10019,0.40091 0.19351,0.30758 0.30759,0.19351 0.40091,0.10019 0.46316,0.0379 0.49423,0.007 0.49427,0.007 0.46316,0.0379 0.40091,0.10017 0.30759,0.19351 0.19351,0.30759 0.10019,0.40092 0.0379,0.46315 0.007,0.49425 0.007,0.49427 0.0379,0.46315 0.10019,0.40092 0.19351,0.30759 0.30759,0.19351 0.4009,0.10017 0.46317,0.0379 0.49426,0.007 0.49423,0.007 0.46317,0.038 0.40091,0.10017 0.30759,0.19351 0.19351,0.3076 0.10019,0.40091 0.0379,0.46315 0.007,0.49427"
     style="fill:none;stroke:#000000;stroke-width:0.3685;stroke-linecap:round;stroke-linejoin:round;stroke-miterlimit:10;stroke-dasharray:none;stroke-opacity:1"
     transform="matrix(1.3333333,0,0,-1.3333333,0,275.90533)" />
  <path
     id="path9"
     d="m 192.41199,121.67139 0.007,0.49424 0.038,0.46315 0.10016,0.40093 0.19351,0.30759 0.30758,0.19351 0.40094,0.10017 0.46314,0.038 0.49426,0.007 0.49426,0.007 0.46314,0.038 0.40091,0.10018 0.30759,0.19351 0.19351,0.30758 0.10019,0.40093 0.038,0.46313 0.007,0.49427 0.007,0.49426 0.038,0.46315 0.10015,0.40091 0.19352,0.30758 0.30758,0.19352 0.40094,0.10019 0.46314,0.0379 0.49426,0.007 m -54.42309,-54.42308 0.0713,0.59285 0.10708,0.55273 0.17859,0.47252 0.28583,0.35218 0.3323,0.17907 0.40445,0.09812 0.45255,0.04414 0.47662,0.01715 m 104.22864,104.22867 -0.49426,-0.007 -0.46314,-0.0379 -0.40091,-0.10019 -0.30761,-0.19351 -0.19352,-0.30759 -0.10015,-0.40091 -0.038,-0.46316 -0.007,-0.49427 -0.007,-0.49423 -0.038,-0.46316 -0.10016,-0.40091 -0.19352,-0.30759 -0.30758,-0.19351 -0.40094,-0.10019 -0.46314,-0.0379 -0.49426,-0.007 -0.49426,-0.007 -0.46314,-0.038"
     style="fill:none;stroke:#000000;stroke-width:0.3685;stroke-linecap:round;stroke-linejoin:round;stroke-miterlimit:10;stroke-dasharray:none;stroke-opacity:1"
     transform="matrix(1.3333333,0,0,-1.3333333,0,275.90533)" />
  <path
     id="path10"
     d="m 245.5733,175.7453 -0.40094,-0.10016 -0.30758,-0.19351 -0.19352,-0.30759 -0.10015,-0.40094 -0.038,-0.46313 -0.007,-0.49426 -0.007,-0.49427 -0.038,-0.46313 -0.10019,-0.40091 -0.19351,-0.30759 -0.30759,-0.19351 -0.40091,-0.10019 -0.46314,-0.038 -0.49426,-0.007 -0.49426,-0.007 -0.46314,-0.038 -0.40094,-0.10016 -0.30758,-0.19351 -0.19351,-0.30759 -0.10016,-0.40094 -0.038,-0.46313 -0.007,-0.49426 -0.007,-0.49427 -0.038,-0.46313 -0.10019,-0.40094 -0.19351,-0.30759 -0.30759,-0.19351 -0.40091,-0.10016 -0.46317,-0.038 -0.49423,-0.007 -0.49426,-0.007 -0.46317,-0.038 -0.4009,-0.10016 -0.30759,-0.19351 -0.19351,-0.30759 -0.10019,-0.40094 -0.0379,-0.46313 -0.007,-0.49426 -0.007,-0.49427 -0.0379,-0.46313 -0.10019,-0.40094 -0.19351,-0.30759 -0.30759,-0.19351 -0.40091,-0.10016 -0.46316,-0.038 -0.49427,-0.007 -0.49423,-0.007 -0.46316,-0.038 -0.40091,-0.10019 -0.30759,-0.19351"
     style="fill:none;stroke:#000000;stroke-width:0.3685;stroke-linecap:round;stroke-linejoin:round;stroke-miterlimit:10;stroke-dasharray:none;stroke-opacity:1"
     transform="matrix(1.3333333,0,0,-1.3333333,0,275.90533)" />
  <path
     id="path11"
     d="m 232.83841,163.42523 -0.19351,-0.30758 -0.10019,-0.40091 -0.0379,-0.46314 -0.007,-0.49426 -0.007,-0.49426 -0.0379,-0.46314 -0.10019,-0.40094 -0.19351,-0.30759 -0.30759,-0.19351 -0.40094,-0.10019 -0.46313,-0.0379 -0.49427,-0.007 -0.49426,-0.007 -0.46313,-0.0379 -0.40091,-0.10019 -0.30759,-0.19351 -0.19351,-0.30758 -0.10019,-0.40091 -0.038,-0.46317 -0.007,-0.49423 -0.007,-0.49426 -0.038,-0.46317 -0.10016,-0.40091 -0.19351,-0.30758 -0.30759,-0.19352 -0.40094,-0.10019 -0.46313,-0.0379 -0.49427,-0.007 -0.49426,-0.007 -0.46313,-0.0379 -0.40094,-0.10018 -0.30759,-0.19352 -0.19351,-0.30758 -0.10016,-0.40091 -0.038,-0.46317 -0.007,-0.49426 -0.007,-0.49423 -0.038,-0.46317 -0.10016,-0.40091 -0.19351,-0.30758 -0.30759,-0.19352 -0.40094,-0.10018 -0.46313,-0.038 -0.49426,-0.007 -0.49427,-0.007 -0.46313,-0.038 -0.40094,-0.10016 -0.30759,-0.19352 -0.19351,-0.30758 -0.10016,-0.40094"
     style="fill:none;stroke:#000000;stroke-width:0.3685;stroke-linecap:round;stroke-linejoin:round;stroke-miterlimit:10;stroke-dasharray:none;stroke-opacity:1"
     transform="matrix(1.3333333,0,0,-1.3333333,0,275.90533)" />
  <path
     id="path12"
     d="m 220.51834,150.69034 -0.038,-0.46314 -0.007,-0.49426 -0.007,-0.49426 -0.038,-0.46314 -0.10019,-0.40091 -0.19351,-0.30758 -0.30759,-0.19351 -0.40091,-0.10019 -0.46313,-0.038 -0.49426,-0.007 -0.49427,-0.007 -0.46313,-0.038 -0.40094,-0.10016 -0.30759,-0.19351 -0.19351,-0.30759 -0.10016,-0.40094 -0.038,-0.46314 -0.007,-0.49426 -0.007,-0.49426 -0.038,-0.46314 -0.10019,-0.40094 -0.19351,-0.30758 -0.30759,-0.19351 -0.4009,-0.10016 -0.46317,-0.038 -0.49423,-0.007 -0.49427,-0.007 -0.46316,-0.038 -0.40091,-0.10016 -0.30759,-0.19351 -0.19351,-0.30759 -0.10019,-0.40094 -0.0379,-0.46313 -0.007,-0.49427 -0.007,-0.49426 -0.0379,-0.46313 -0.10019,-0.40094 -0.19351,-0.30759 -0.30758,-0.19351 -0.40091,-0.10016 -0.46317,-0.038 -0.49426,-0.007 -0.49423,-0.007 -0.46317,-0.038 -0.40091,-0.10019 -0.30759,-0.19351 -0.19351,-0.30759 -0.10019,-0.40091 -0.0379,-0.46313 -0.007,-0.49427"
     style="fill:none;stroke:#000000;stroke-width:0.3685;stroke-linecap:round;stroke-linejoin:round;stroke-miterlimit:10;stroke-dasharray:none;stroke-opacity:1"
     transform="matrix(1.3333333,0,0,-1.3333333,0,275.90533)" />
  <path
     id="path13"
     d="m 208.44714,137.70657 -0.007,-0.49426 -0.0379,-0.46313 -0.10018,-0.40094 -0.19352,-0.30759 -0.30758,-0.19351 -0.40094,-0.10019 -0.46314,-0.0379 -0.49426,-0.007 -0.49426,-0.007 -0.46314,-0.0379 -0.40091,-0.10019 -0.30758,-0.19351 -0.19352,-0.30759 -0.10019,-0.40091 -0.038,-0.46316 -0.007,-0.49424 -0.007,-0.49426 -0.038,-0.46316 -0.10015,-0.40091 -0.19352,-0.30759 -0.30758,-0.19351 -0.40094,-0.10019 -0.46314,-0.0379 -0.49426,-0.007 -0.49426,-0.007 -0.46314,-0.0379 -0.40094,-0.10019 -0.30758,-0.19351 -0.19352,-0.30759 -0.10015,-0.40091 -0.038,-0.46316 -0.007,-0.49427 -0.007,-0.49423 -0.038,-0.46316 -0.10016,-0.40091 -0.19352,-0.30759 -0.30758,-0.19353 -0.40094,-0.10017 -0.46314,-0.038 -0.49426,-0.007 m 54.4231,54.4231 -0.0714,-0.59284 -0.10709,-0.55276 -0.17859,-0.47251 -0.28583,-0.35217 -0.3323,-0.17908 -0.40445,-0.0981 -0.45255,-0.0441 -0.47662,-0.0171 m 0,-104.22867 -0.49426,0.0068 -0.46314,0.03796"
     style="fill:none;stroke:#000000;stroke-width:0.3685;stroke-linecap:round;stroke-linejoin:round;stroke-miterlimit:10;stroke-dasharray:none;stroke-opacity:1"
     transform="matrix(1.3333333,0,0,-1.3333333,0,275.90533)" />
  <path
     id="path14"
     d="m 249.58209,75.61505 -0.40091,0.10018 -0.30761,0.19351 -0.19352,0.30758 -0.10015,0.40093 -0.038,0.46313 -0.007,0.49427 -0.007,0.49426 -0.038,0.46313 -0.10016,0.40093 -0.19352,0.30758 -0.30758,0.19352 -0.40094,0.10019 -0.46314,0.03794 -0.49426,0.0068 -0.49426,0.0069 -0.46314,0.03795 -0.40094,0.10017 -0.30758,0.19352 -0.19352,0.30758 -0.10015,0.40093 -0.038,0.46315 -0.007,0.49425 -0.007,0.49426 -0.038,0.46315 -0.10019,0.40092 -0.19351,0.30759 -0.30759,0.19351 -0.40091,0.10018 -0.46314,0.03794 -0.49426,0.0069 -0.49426,0.0068 -0.46314,0.03795 -0.40094,0.10017 -0.30758,0.19352 -0.19351,0.30758 -0.10016,0.40093 -0.038,0.46315 -0.007,0.49426 -0.007,0.49425 -0.038,0.46315 -0.10019,0.40092 -0.19351,0.30759 -0.30759,0.19351 -0.40091,0.10017 -0.46317,0.03797 -0.49423,0.0068 -0.49426,0.0068 -0.46317,0.03796 -0.4009,0.10018 -0.30759,0.19351"
     style="fill:none;stroke:#000000;stroke-width:0.3685;stroke-linecap:round;stroke-linejoin:round;stroke-miterlimit:10;stroke-dasharray:none;stroke-opacity:1"
     transform="matrix(1.3333333,0,0,-1.3333333,0,275.90533)" />
  <path
     id="path15"
     d="m 236.8472,87.93512 -0.19351,0.30759 -0.10019,0.40092 -0.0379,0.46314 -0.007,0.49426 -0.007,0.49426 -0.0379,0.46314 -0.10019,0.40092 -0.19351,0.30759 -0.30759,0.19351 -0.40091,0.10019 -0.46316,0.03795 -0.49427,0.0068 -0.49423,0.0069 -0.46316,0.03795 -0.40091,0.10018 -0.30759,0.19351 -0.19351,0.30759 -0.10019,0.40092 -0.0379,0.46315 -0.007,0.49425 -0.007,0.49426 -0.0379,0.46315 -0.10019,0.40092 -0.19351,0.30759 -0.30759,0.19351 -0.40094,0.10018 -0.46313,0.03795 -0.49427,0.0069 -0.49426,0.0068 -0.46313,0.03795 -0.40091,0.10018 -0.30759,0.19351 -0.19351,0.30758 -0.10019,0.40093 -0.038,0.46315 -0.007,0.49426 -0.007,0.49425 -0.038,0.46315 -0.10016,0.40092 -0.19351,0.30759 -0.30759,0.19351 -0.40094,0.10018 -0.46313,0.03796 -0.49427,0.0068 -0.49426,0.0068 -0.46313,0.03797 -0.40094,0.10017 -0.30759,0.19351 -0.19351,0.30759 -0.10016,0.40092"
     style="fill:none;stroke:#000000;stroke-width:0.3685;stroke-linecap:round;stroke-linejoin:round;stroke-miterlimit:10;stroke-dasharray:none;stroke-opacity:1"
     transform="matrix(1.3333333,0,0,-1.3333333,0,275.90533)" />
  <path
     id="path16"
     d="m 224.52713,100.67001 -0.038,0.46314 -0.007,0.49426 -0.007,0.49426 -0.038,0.46315 -0.10016,0.40091 -0.19351,0.30759 -0.30759,0.19351 -0.40094,0.10019 -0.46313,0.038 -0.49426,0.007 -0.49427,0.007 -0.46313,0.0379 -0.40094,0.10017 -0.30759,0.19351 -0.19351,0.30759 -0.10016,0.40092 -0.038,0.46315 -0.007,0.49425 -0.007,0.49426 -0.038,0.46315 -0.10019,0.40093 -0.19351,0.30758 -0.30759,0.19352 -0.40091,0.10017 -0.46313,0.0379 -0.49426,0.007 -0.49427,0.007 -0.46313,0.0379 -0.40094,0.10018 -0.30759,0.19351 -0.19351,0.3076 -0.10016,0.40091 -0.038,0.46315 -0.007,0.49426 -0.007,0.49425 -0.038,0.46315 -0.10019,0.40093 -0.19351,0.30758 -0.30759,0.19352 -0.4009,0.10017 -0.46317,0.038 -0.49423,0.007 -0.49427,0.007 -0.46316,0.038 -0.40091,0.10017 -0.30759,0.19351 -0.19351,0.30759 -0.10019,0.40093 -0.0379,0.46313 -0.007,0.49426"
     style="fill:none;stroke:#000000;stroke-width:0.3685;stroke-linecap:round;stroke-linejoin:round;stroke-miterlimit:10;stroke-dasharray:none;stroke-opacity:1"
     transform="matrix(1.3333333,0,0,-1.3333333,0,275.90533)" />
  <path
     id="path17"
     d="m 212.45596,113.65379 -0.007,0.49427 -0.0379,0.46315 -0.10019,0.40091 -0.19351,0.30758 -0.30758,0.19351 -0.40091,0.10019 -0.46317,0.0379 -0.49426,0.007 -0.49423,0.007 -0.46317,0.0379 -0.40091,0.10017 -0.30759,0.19351 -0.19351,0.30759 -0.10019,0.40092 -0.0379,0.46315 -0.007,0.49425 -0.007,0.49427 -0.0379,0.46315 -0.10018,0.40092 -0.19352,0.30759 -0.30758,0.19351 -0.40094,0.10017 -0.46314,0.0379 -0.49426,0.007 -0.49426,0.007 -0.46314,0.038 -0.40091,0.10017 -0.30758,0.19351 -0.19352,0.3076 -0.10019,0.40091 -0.038,0.46315 -0.007,0.49427 -0.007,0.49424 -0.038,0.46315 -0.10015,0.40093 -0.19352,0.30759 -0.30758,0.19351 -0.40094,0.10017 -0.46314,0.038 -0.49426,0.007 -0.49426,0.007 -0.46314,0.038 -0.40094,0.10018 -0.30758,0.19351 -0.19352,0.30758 -0.10015,0.40093 -0.038,0.46313 -0.007,0.49427 -0.007,0.49426 -0.038,0.46315"
     style="fill:none;stroke:#000000;stroke-width:0.3685;stroke-linecap:round;stroke-linejoin:round;stroke-miterlimit:10;stroke-dasharray:none;stroke-opacity:1"
     transform="matrix(1.3333333,0,0,-1.3333333,0,275.90533)" />
  <path
     id="path18"
     d="m 200.38477,126.63759 -0.10016,0.40091 -0.19352,0.30758 -0.30758,0.19352 -0.40094,0.10019 -0.46314,0.0379 -0.49426,0.007 m 54.4231,-54.42308 -0.0714,0.59285 -0.10709,0.55273 -0.17859,0.47252 -0.28583,0.35218 -0.3323,0.17907 -0.40445,0.09812 -0.45255,0.04414 -0.47662,0.01715 M 144.00203,73.26161 H 252.84822 V 182.10779 H 144.00203 V 73.26161 m 123.0194,108.84618 V 73.26161 m 17.00788,54.42308 -17.00788,-54.42308 m 17.00788,54.42308 -17.00788,54.4231 m 7.08661,-108.84618 v 7.08661 l -7.08661,-7.08661 m 7.08661,0 v -7.08662 l -7.08661,7.08662 m 7.08661,-2.83466 1.5033,-1.50329 m -1.5033,4.33795 1.5033,-1.5033 m -1.5033,4.33794 1.5033,-1.5033 m -1.5033,4.33794 1.5033,-1.5033 m -1.5033,-9.83528 1.5033,-1.50329 m -1.5033,116.01877 v -7.08661 l -7.08661,7.08661 m 7.08661,0 v 7.0866 l -7.08661,-7.0866 m 8.58991,-7.08661 v 14.25918 m 8.41797,-61.59567 H 267.02143 M 144.00203,52.00177 h 7.0866 l -7.0866,7.08661 m 0,-7.08661 h -7.08661 l 7.08661,7.08661 m 7.0866,-8.58992 h -14.25918 m 7.17258,8.58992 h 108.84619 m 0,-7.08661 h 7.08661 l -7.08661,7.08661 m 0,-7.08661 h -7.08661 l 7.08661,7.08661 m -2.83466,-7.08661 -1.5033,-1.50331 m 4.33796,1.50331 -1.5033,-1.50331 m 4.33792,1.50331 -1.50329,-1.50331 m 4.33795,1.50331 -1.5033,-1.50331"
     style="fill:none;stroke:#000000;stroke-width:0.3685;stroke-linecap:round;stroke-linejoin:round;stroke-miterlimit:10;stroke-dasharray:none;stroke-opacity:1"
     transform="matrix(1.3333333,0,0,-1.3333333,0,275.90533)" />
  <path
     id="path19"
     d="m 247.17896,52.00165 -1.5033,-1.50331 m -47.00189,-8.41796 -54.67169,17.00788 m 108.84619,0 -54.1745,-17.00788 v 17.00788"
     style="fill:none;stroke:#000000;stroke-width:0.3685;stroke-linecap:round;stroke-linejoin:round;stroke-miterlimit:10;stroke-dasharray:none;stroke-opacity:1"
     transform="matrix(1.3333333,0,0,-1.3333333,0,275.90533)" />
  <g
     id="layer-MC0"
     inkscape:groupmode="layer"
     inkscape:label="STABBEANSPR_DIAG">
    <path
       id="path20"
       d="m 286.86398,127.68457 -0.0431,0.49225 -0.12787,0.47726 -0.20883,0.44782 -0.28341,0.40475 -0.34937,0.3494 -0.40475,0.28342 -0.44782,0.2088 -0.47729,0.1279 -0.49222,0.0431 -0.49225,-0.0431 -0.47727,-0.1279 -0.44781,-0.2088 -0.40475,-0.28342 -0.3494,-0.3494 -0.28342,-0.40475 -0.2088,-0.44782 -0.1279,-0.47726 -0.0431,-0.49225 0.0431,-0.49223 0.1279,-0.47727 0.2088,-0.44781 0.28342,-0.40476 0.3494,-0.34939 0.40475,-0.2834 0.44781,-0.20884 0.47727,-0.12788 0.49225,-0.0431 0.49222,0.0431 0.47729,0.12788 0.44782,0.20884 0.40475,0.2834 0.34937,0.34939 0.28341,0.40476 0.20883,0.44781 0.12787,0.47727 z"
       style="fill:#e0e0e0;fill-opacity:1;fill-rule:nonzero;stroke:none"
       transform="matrix(1.3333333,0,0,-1.3333333,0,275.90533)" />
  </g>
  <path
     id="path21"
     d="m 129.82886,73.26149 -0.4252,2.97638 h 0.85037 l -0.42517,-2.97638 m 0,108.84618 -0.4252,-2.97638 h 0.85037 l -0.42517,2.97638 m 0,-108.84618 h -2.12599 m 2.12599,0 h 2.12597 m -2.12597,108.84618 h -2.12599 m 2.12599,0 h 2.12597 M 129.82886,73.26149 h 8.50393 m -8.50393,108.84618 h 8.50393 M 129.82886,73.26149 v 0 m 0,108.84618 v 0"
     style="fill:none;stroke:#000000;stroke-width:0.3685;stroke-linecap:round;stroke-linejoin:round;stroke-miterlimit:10;stroke-dasharray:none;stroke-opacity:1"
     transform="matrix(1.3333333,0,0,-1.3333333,0,275.90533)" />
  <text
     id="text21"
     xml:space="preserve"
     transform="matrix(0,-1.3333333,1.3333333,0,169.11161,108.54804)"
     clip-path="url(#clipPath22)"><tspan
       style="font-style:italic;font-variant:normal;font-weight:normal;font-stretch:normal;font-size:10.0071px;font-family:'Palatino Linotype';writing-mode:lr-tb;fill:#000000;fill-opacity:1;fill-rule:nonzero;stroke:none"
       x="0"
       y="0"
       id="tspan21">b</tspan></text>
  <path
     id="path23"
     d="M 129.82886,73.26149 V 182.10767"
     style="fill:none;stroke:#000000;stroke-width:0.3685;stroke-linecap:round;stroke-linejoin:round;stroke-miterlimit:10;stroke-dasharray:none;stroke-opacity:1"
     transform="matrix(1.3333333,0,0,-1.3333333,0,275.90533)" />
  <text
     id="text23"
     xml:space="preserve"
     transform="matrix(1.3333333,0,0,1.3333333,363.20057,102.66452)"
     clip-path="url(#clipPath24)"><tspan
       style="font-style:italic;font-variant:normal;font-weight:normal;font-stretch:normal;font-size:10.0071px;font-family:'Palatino Linotype';writing-mode:lr-tb;fill:#000000;fill-opacity:1;fill-rule:nonzero;stroke:none"
       x="0"
       y="0"
       id="tspan23">1</tspan></text>
  <path
     id="path25"
     d="m 144.00208,196.28088 2.97637,0.42521 v -0.85038 l -2.97637,0.42517 m 108.84619,0 -2.97638,0.42521 v -0.85038 l 2.97638,0.42517 m -108.84619,0 v 2.12601 m 0,-2.12601 v -2.12597 m 108.84619,2.12597 v 2.12601 m 0,-2.12601 v -2.12597 m -108.84619,2.12597 v -8.50393 m 108.84619,8.50393 v -8.50393 m -108.84619,8.50393 v 0 m 108.84619,0 v 0"
     style="fill:none;stroke:#000000;stroke-width:0.3685;stroke-linecap:round;stroke-linejoin:round;stroke-miterlimit:10;stroke-dasharray:none;stroke-opacity:1"
     transform="matrix(1.3333333,0,0,-1.3333333,0,275.90533)" />
  <text
     id="text25"
     xml:space="preserve"
     transform="matrix(1.3333333,0,0,1.3333333,261.73491,10.20396)"
     clip-path="url(#clipPath26)"><tspan
       style="font-style:italic;font-variant:normal;font-weight:normal;font-stretch:normal;font-size:10.0071px;font-family:'Palatino Linotype';writing-mode:lr-tb;fill:#000000;fill-opacity:1;fill-rule:nonzero;stroke:none"
       x="0"
       y="0"
       id="tspan25">a</tspan></text>
  <path
     id="path27"
     d="m 144.00208,196.28088 h 46.233 62.61319 m 51.69687,-123.01939 -0.42521,2.97638 h 0.85041 l -0.4252,-2.97638 m 0,54.42308 -0.42521,-2.97638 h 0.85041 l -0.4252,2.97638 -0.42521,2.97638 h 0.85041 l -0.4252,-2.97638 m 0,54.4231 -0.42521,-2.97638 h 0.85041 l -0.4252,2.97638 m 0,-108.84618 h -2.12598 m 2.12598,0 h 2.12597 m -2.12597,54.42308 h -2.12598 m 2.12598,0 h 2.12597 m -2.12597,0 h -2.12598 m 2.12598,0 h 2.12597 m -2.12597,54.4231 h -2.12598 m 2.12598,0 h 2.12597 M 304.54514,73.26149 h -26.18509 m 26.18509,54.42308 h -1.77164 -7.40558 m 9.17722,54.4231 H 278.36005 M 304.54514,73.26149 v 0 m 0,108.84618 v 0"
     style="fill:none;stroke:#000000;stroke-width:0.3685;stroke-linecap:round;stroke-linejoin:round;stroke-miterlimit:10;stroke-dasharray:none;stroke-opacity:1"
     transform="matrix(1.3333333,0,0,-1.3333333,0,275.90533)" />
  <text
     id="text27"
     xml:space="preserve"
     transform="matrix(0,-1.3333333,1.3333333,0,402.06668,150.04267)"
     clip-path="url(#clipPath28)"><tspan
       style="font-style:italic;font-variant:normal;font-weight:normal;font-stretch:normal;font-size:10.0071px;font-family:'Palatino Linotype';writing-mode:lr-tb;fill:#000000;fill-opacity:1;fill-rule:nonzero;stroke:none"
       x="0 4.6333013 7.5954118"
       y="0"
       sodipodi:role="line"
       id="tspan27">b/2</tspan></text>
  <text
     id="text28"
     xml:space="preserve"
     transform="matrix(0,-1.3333333,1.3333333,0,402.06668,77.478547)"
     clip-path="url(#clipPath29)"><tspan
       style="font-style:italic;font-variant:normal;font-weight:normal;font-stretch:normal;font-size:10.0071px;font-family:'Palatino Linotype';writing-mode:lr-tb;fill:#000000;fill-opacity:1;fill-rule:nonzero;stroke:none"
       x="0 4.6333013 7.5954118"
       y="0"
       sodipodi:role="line"
       id="tspan28">b/2</tspan></text>
  <path
     id="path30"
     d="m 304.54514,73.26149 v 54.42308 54.4231"
     style="fill:none;stroke:#000000;stroke-width:0.3685;stroke-linecap:round;stroke-linejoin:round;stroke-miterlimit:10;stroke-dasharray:none;stroke-opacity:1"
     transform="matrix(1.3333333,0,0,-1.3333333,0,275.90533)" />
  <text
     id="text30"
     xml:space="preserve"
     transform="matrix(1.3333333,0,0,1.3333333,268.7994,211.70473)"
     clip-path="url(#clipPath31)"><tspan
       style="font-style:italic;font-variant:normal;font-weight:normal;font-stretch:normal;font-size:10.0071px;font-family:'Palatino Linotype';writing-mode:lr-tb;fill:#000000;fill-opacity:1;fill-rule:nonzero;stroke:none"
       x="0"
       y="0"
       id="tspan30">1</tspan></text>
  <path
     id="path32"
     d="m 144.00208,19.94099 2.97637,0.42519 v -0.85039 l -2.97637,0.4252 m 54.67169,0 -2.97638,0.42519 v -0.85039 l 2.97638,0.4252 2.97638,0.42519 v -0.85039 l -2.97638,0.4252 m 54.1745,0 -2.97638,0.42519 v -0.85039 l 2.97638,0.4252 m -108.84619,0 v 2.12598 m 0,-2.12598 V 17.815 m 54.67169,2.12599 v 2.12598 m 0,-2.12598 V 17.815 m 0,2.12599 v 2.12598 m 0,-2.12598 V 17.815 m 54.1745,2.12599 v 2.12598 m 0,-2.12598 V 17.815 m -108.84619,2.12599 v 27.80869 m 54.67169,-27.80869 v 1.77166 9.02916 m 54.1745,-10.80082 V 47.74968 M 144.00208,19.94099 v 0 m 108.84619,0 v 0"
     style="fill:none;stroke:#000000;stroke-width:0.3685;stroke-linecap:round;stroke-linejoin:round;stroke-miterlimit:10;stroke-dasharray:none;stroke-opacity:1"
     transform="matrix(1.3333333,0,0,-1.3333333,0,275.90533)" />
  <text
     id="text32"
     xml:space="preserve"
     transform="matrix(1.3333333,0,0,1.3333333,220.47957,245.32383)"
     clip-path="url(#clipPath33)"><tspan
       style="font-style:italic;font-variant:normal;font-weight:normal;font-stretch:normal;font-size:10.0071px;font-family:'Palatino Linotype';writing-mode:lr-tb;fill:#000000;fill-opacity:1;fill-rule:nonzero;stroke:none"
       x="0 4.4431658 7.4052763"
       y="0"
       sodipodi:role="line"
       id="tspan32">a/2</tspan></text>
  <text
     id="text33"
     xml:space="preserve"
     transform="matrix(1.3333333,0,0,1.3333333,293.04369,245.32383)"
     clip-path="url(#clipPath34)"><tspan
       style="font-style:italic;font-variant:normal;font-weight:normal;font-stretch:normal;font-size:10.0071px;font-family:'Palatino Linotype';writing-mode:lr-tb;fill:#000000;fill-opacity:1;fill-rule:nonzero;stroke:none"
       x="0 4.4431658 7.4052763"
       y="0"
       sodipodi:role="line"
       id="tspan33">a/2</tspan></text>
  <path
     id="path35"
     d="m 144.00208,19.94099 h 54.67169 54.1745"
     style="fill:none;stroke:#000000;stroke-width:0.3685;stroke-linecap:round;stroke-linejoin:round;stroke-miterlimit:10;stroke-dasharray:none;stroke-opacity:1"
     transform="matrix(1.3333333,0,0,-1.3333333,0,275.90533)" />
  <path
     id="path36"
     d="m 286.86398,127.68457 c 0,1.56555 -1.2691,2.83466 -2.83462,2.83466 m 0,0 c -1.56555,0 -2.83466,-1.26911 -2.83466,-2.83466 m 0,0 c 0,-1.56552 1.26911,-2.83464 2.83466,-2.83464 m 0,0 c 1.56552,0 2.83462,1.26912 2.83462,2.83464"
     style="fill:none;stroke:#000000;stroke-width:0.3685;stroke-linecap:round;stroke-linejoin:round;stroke-miterlimit:10;stroke-dasharray:none;stroke-opacity:1"
     transform="matrix(1.3333333,0,0,-1.3333333,0,275.90533)" />
</svg>
