<?xml version="1.0" encoding="UTF-8" standalone="no"?>
<!-- Created with Inkscape (http://www.inkscape.org/) -->

<svg
   version="1.1"
   id="svg1"
   width="566.92932"
   height="234.33067"
   viewBox="0 0 566.92932 234.33067"
   sodipodi:docname="quad_aufgabenstellung.pdf"
   xmlns:inkscape="http://www.inkscape.org/namespaces/inkscape"
   xmlns:sodipodi="http://sodipodi.sourceforge.net/DTD/sodipodi-0.dtd"
   xmlns="http://www.w3.org/2000/svg"
   xmlns:svg="http://www.w3.org/2000/svg">
  <defs
     id="defs1">
    <clipPath
       clipPathUnits="userSpaceOnUse"
       id="clipPath30">
      <path
         d="M 72.30315,175.74979 V -0.00175 H 339.82614 V 175.74979 H 72.30315"
         transform="matrix(1,0,0,-1,-152.44377,7.0554577)"
         clip-rule="evenodd"
         id="path30" />
    </clipPath>
    <clipPath
       clipPathUnits="userSpaceOnUse"
       id="clipPath32">
      <path
         d="M 72.30315,175.74979 V -0.00175 H 339.82614 V 175.74979 H 72.30315"
         transform="matrix(1,0,0,-1,-184.10002,115.62274)"
         clip-rule="evenodd"
         id="path32" />
    </clipPath>
    <clipPath
       clipPathUnits="userSpaceOnUse"
       id="clipPath33">
      <path
         d="M 72.30315,175.74979 V -0.00175 H 339.82614 V 175.74979 H 72.30315"
         transform="matrix(1,0,0,-1,-189.86479,111.48889)"
         clip-rule="evenodd"
         id="path33" />
    </clipPath>
    <clipPath
       clipPathUnits="userSpaceOnUse"
       id="clipPath34">
      <path
         d="M 72.30315,175.74979 V -0.00175 H 339.82614 V 175.74979 H 72.30315"
         transform="matrix(1,0,0,-1,-272.52576,162.1032)"
         clip-rule="evenodd"
         id="path34" />
    </clipPath>
    <clipPath
       clipPathUnits="userSpaceOnUse"
       id="clipPath35">
      <path
         d="M 72.30315,175.74979 V -0.00175 H 339.82614 V 175.74979 H 72.30315"
         transform="matrix(1,0,0,-1,-278.29056,157.96934)"
         clip-rule="evenodd"
         id="path35" />
    </clipPath>
    <clipPath
       clipPathUnits="userSpaceOnUse"
       id="clipPath37">
      <path
         d="M 72.30315,175.74979 V -0.00175 H 339.82614 V 175.74979 H 72.30315"
         transform="matrix(0,1,1,0,-84.177075,-331.41097)"
         clip-rule="evenodd"
         id="path37" />
    </clipPath>
  </defs>
  <sodipodi:namedview
     id="namedview1"
     pagecolor="#ffffff"
     bordercolor="#000000"
     borderopacity="0.25"
     inkscape:showpageshadow="2"
     inkscape:pageopacity="0.0"
     inkscape:pagecheckerboard="0"
     inkscape:deskcolor="#d1d1d1">
    <inkscape:page
       x="0"
       y="0"
       inkscape:label="1"
       id="page1"
       width="566.92932"
       height="234.33067"
       margin="0"
       bleed="0" />
  </sodipodi:namedview>
  <g
     id="g1"
     inkscape:groupmode="layer"
     inkscape:label="1">
    <path
       id="path1"
       d="m 183.06332,100.1628 c 0,4.77487 -6.47247,8.64566 -14.45669,8.64566 m 0,0 c -7.98422,0 -14.4567,-3.87079 -14.4567,-8.64566 m 0,0 c 0,-4.77488 6.47248,-8.64568 14.4567,-8.64568 m 0,0 c 7.98422,0 14.45669,3.8708 14.45669,8.64568"
       style="fill:none;stroke:#4c4c4c;stroke-width:0.3685;stroke-linecap:round;stroke-linejoin:round;stroke-miterlimit:10;stroke-dasharray:none;stroke-opacity:1"
       transform="matrix(1.3333333,0,0,-1.3333333,0,234.33067)" />
    <path
       id="path2"
       d="M 92.9715,166.4371 H 234.70377 V 24.7048 H 92.9715 V 166.4371 M 310.79984,24.7048 v 3.54331 l -3.54331,-3.54331 m 3.54331,0 v -3.5433 l -3.54331,3.5433 m 4.29495,3.54331 v -7.12959 m -0.75164,145.31858 v 3.54331 l -3.54331,-3.54331 m 3.54331,0 v -3.5433 l -3.54331,3.5433 m 4.29495,3.54331 v -7.12961 m -4.29495,3.5863 V 24.7048"
       style="fill:none;stroke:#000000;stroke-width:0.3685;stroke-linecap:round;stroke-linejoin:round;stroke-miterlimit:10;stroke-dasharray:none;stroke-opacity:1"
       transform="matrix(1.3333333,0,0,-1.3333333,0,234.33067)" />
    <path
       id="path3"
       d="M 296.80377,24.7048 V 166.4371 H 283.97699 V 24.7048 h 12.82678 m -12.82678,14.17324 h 12.82678 m -5.95276,0 h -0.4252 m 6.37796,0 v 0 l -5.95276,0.85038 v -1.70077 l 5.95276,0.85039"
       style="fill:none;stroke:#4c4c4c;stroke-width:0.3685;stroke-linecap:round;stroke-linejoin:round;stroke-miterlimit:10;stroke-dasharray:none;stroke-opacity:1"
       transform="matrix(1.3333333,0,0,-1.3333333,0,234.33067)" />
    <path
       id="path4"
       d="m 290.85101,38.02765 5.95276,0.85039 -5.95276,0.85038 z"
       style="fill:#4c4c4c;fill-opacity:1;fill-rule:nonzero;stroke:none"
       transform="matrix(1.3333333,0,0,-1.3333333,0,234.33067)" />
    <path
       id="path5"
       d="m 283.97699,53.05125 h 12.82678 m -5.95276,0 h -0.4252 m 6.37796,0 v 0 l -5.95276,0.85041 v -1.70078 l 5.95276,0.85037"
       style="fill:none;stroke:#4c4c4c;stroke-width:0.3685;stroke-linecap:round;stroke-linejoin:round;stroke-miterlimit:10;stroke-dasharray:none;stroke-opacity:1"
       transform="matrix(1.3333333,0,0,-1.3333333,0,234.33067)" />
    <path
       id="path6"
       d="m 290.85101,52.20088 5.95276,0.85037 -5.95276,0.85041 z"
       style="fill:#4c4c4c;fill-opacity:1;fill-rule:nonzero;stroke:none"
       transform="matrix(1.3333333,0,0,-1.3333333,0,234.33067)" />
    <path
       id="path7"
       d="m 283.97699,67.22449 h 12.82678 m -5.95276,0 h -0.4252 m 6.37796,0 v 0 l -5.95276,0.8504 V 66.3741 l 5.95276,0.85039"
       style="fill:none;stroke:#4c4c4c;stroke-width:0.3685;stroke-linecap:round;stroke-linejoin:round;stroke-miterlimit:10;stroke-dasharray:none;stroke-opacity:1"
       transform="matrix(1.3333333,0,0,-1.3333333,0,234.33067)" />
    <path
       id="path8"
       d="m 290.85101,66.3741 5.95276,0.85039 -5.95276,0.8504 z"
       style="fill:#4c4c4c;fill-opacity:1;fill-rule:nonzero;stroke:none"
       transform="matrix(1.3333333,0,0,-1.3333333,0,234.33067)" />
    <path
       id="path9"
       d="m 283.97699,81.39772 h 12.82678 m -5.95276,0 h -0.4252 m 6.37796,0 v 0 l -5.95276,0.85039 v -1.70078 l 5.95276,0.85039"
       style="fill:none;stroke:#4c4c4c;stroke-width:0.3685;stroke-linecap:round;stroke-linejoin:round;stroke-miterlimit:10;stroke-dasharray:none;stroke-opacity:1"
       transform="matrix(1.3333333,0,0,-1.3333333,0,234.33067)" />
    <path
       id="path10"
       d="m 290.85101,80.54733 5.95276,0.85039 -5.95276,0.85039 z"
       style="fill:#4c4c4c;fill-opacity:1;fill-rule:nonzero;stroke:none"
       transform="matrix(1.3333333,0,0,-1.3333333,0,234.33067)" />
    <path
       id="path11"
       d="m 283.97699,95.57095 h 12.82678 m -5.95276,0 h -0.4252 m 6.37796,0 v 0 l -5.95276,0.85039 v -1.70077 l 5.95276,0.85038"
       style="fill:none;stroke:#4c4c4c;stroke-width:0.3685;stroke-linecap:round;stroke-linejoin:round;stroke-miterlimit:10;stroke-dasharray:none;stroke-opacity:1"
       transform="matrix(1.3333333,0,0,-1.3333333,0,234.33067)" />
    <path
       id="path12"
       d="m 290.85101,94.72057 5.95276,0.85038 -5.95276,0.85039 z"
       style="fill:#4c4c4c;fill-opacity:1;fill-rule:nonzero;stroke:none"
       transform="matrix(1.3333333,0,0,-1.3333333,0,234.33067)" />
    <path
       id="path13"
       d="m 283.97699,109.74417 h 12.82678 m -5.95276,0 h -0.4252 m 6.37796,0 v 0 l -5.95276,0.8504 v -1.70079 l 5.95276,0.85039"
       style="fill:none;stroke:#4c4c4c;stroke-width:0.3685;stroke-linecap:round;stroke-linejoin:round;stroke-miterlimit:10;stroke-dasharray:none;stroke-opacity:1"
       transform="matrix(1.3333333,0,0,-1.3333333,0,234.33067)" />
    <path
       id="path14"
       d="m 290.85101,108.89378 5.95276,0.85039 -5.95276,0.8504 z"
       style="fill:#4c4c4c;fill-opacity:1;fill-rule:nonzero;stroke:none"
       transform="matrix(1.3333333,0,0,-1.3333333,0,234.33067)" />
    <path
       id="path15"
       d="m 283.97699,123.9174 h 12.82678 m -5.95276,0 h -0.4252 m 6.37796,0 v 0 l -5.95276,0.85039 v -1.70077 l 5.95276,0.85038"
       style="fill:none;stroke:#4c4c4c;stroke-width:0.3685;stroke-linecap:round;stroke-linejoin:round;stroke-miterlimit:10;stroke-dasharray:none;stroke-opacity:1"
       transform="matrix(1.3333333,0,0,-1.3333333,0,234.33067)" />
    <path
       id="path16"
       d="m 290.85101,123.06702 5.95276,0.85038 -5.95276,0.85039 z"
       style="fill:#4c4c4c;fill-opacity:1;fill-rule:nonzero;stroke:none"
       transform="matrix(1.3333333,0,0,-1.3333333,0,234.33067)" />
    <path
       id="path17"
       d="m 283.97699,138.09064 h 12.82678 m -5.95276,0 h -0.4252 m 6.37796,0 v 0 l -5.95276,0.8504 v -1.70078 l 5.95276,0.85038"
       style="fill:none;stroke:#4c4c4c;stroke-width:0.3685;stroke-linecap:round;stroke-linejoin:round;stroke-miterlimit:10;stroke-dasharray:none;stroke-opacity:1"
       transform="matrix(1.3333333,0,0,-1.3333333,0,234.33067)" />
    <path
       id="path18"
       d="m 290.85101,137.24026 5.95276,0.85038 -5.95276,0.8504 z"
       style="fill:#4c4c4c;fill-opacity:1;fill-rule:nonzero;stroke:none"
       transform="matrix(1.3333333,0,0,-1.3333333,0,234.33067)" />
    <path
       id="path19"
       d="m 283.97699,152.26385 h 12.82678 m -5.95276,0 h -0.4252 m 6.37796,0 v 0 l -5.95276,0.85041 v -1.70078 l 5.95276,0.85037"
       style="fill:none;stroke:#4c4c4c;stroke-width:0.3685;stroke-linecap:round;stroke-linejoin:round;stroke-miterlimit:10;stroke-dasharray:none;stroke-opacity:1"
       transform="matrix(1.3333333,0,0,-1.3333333,0,234.33067)" />
    <path
       id="path20"
       d="m 290.85101,151.41348 5.95276,0.85037 -5.95276,0.85041 z"
       style="fill:#4c4c4c;fill-opacity:1;fill-rule:nonzero;stroke:none"
       transform="matrix(1.3333333,0,0,-1.3333333,0,234.33067)" />
    <path
       id="path21"
       d="m 308.40454,24.7048 v 0.80701 m 0,2.83464 v 4.25198 m 0,2.83464 v 4.25197 m 0,2.83464 v 4.25197 m 0,2.83466 v 4.25197 m 0,2.83464 v 4.25197 m 0,2.83464 v 4.25196 m 0,2.83466 v 4.25197 m 0,2.83464 v 4.25197 m 0,2.83464 v 4.25197 m 0,2.83465 v 4.25197 m 0,2.83464 v 4.25197 m 0,2.83464 v 4.25197 m 0,2.83465 v 4.25197 m 0,2.83464 v 4.25197 m 0,2.83464 v 4.25199 m 0,2.83465 v 4.25195 m 0,2.83466 v 4.25195 m 0,2.83466 v 4.25195 m 0,2.83466 v 4.25198 m 0,2.83463 v 3.44497 m 0,-141.7323 v 0 m 0,141.7323 v 0"
       style="fill:none;stroke:#000000;stroke-width:0.3685;stroke-linecap:round;stroke-linejoin:round;stroke-miterlimit:10;stroke-dasharray:none;stroke-opacity:1"
       transform="matrix(1.3333333,0,0,-1.3333333,0,234.33067)" />
    <path
       id="path22"
       d="m 182.95242,110.87694 c 0,4.77487 -6.4725,8.64566 -14.45669,8.64566 m 0,0 c -7.98422,0 -14.4567,-3.87079 -14.4567,-8.64566 m 0,0 c 0,-4.77487 6.47248,-8.64568 14.4567,-8.64568 m 0,0 c 7.98419,0 14.45669,3.87081 14.45669,8.64568"
       style="fill:none;stroke:#4c4c4c;stroke-width:0.3685;stroke-linecap:round;stroke-linejoin:round;stroke-miterlimit:10;stroke-dasharray:none;stroke-opacity:1"
       transform="matrix(1.3333333,0,0,-1.3333333,0,234.33067)" />
    <path
       id="path23"
       d="m 154.03903,110.87694 0.1109,-10.71414 m -0.0616,5.95243 -0.004,0.42518 m 0.066,-6.37761 v 0 l 0.78873,5.96124 -1.70068,-0.0176 0.91195,-5.94363"
       style="fill:none;stroke:#4c4c4c;stroke-width:0.3685;stroke-linecap:round;stroke-linejoin:round;stroke-miterlimit:10;stroke-dasharray:none;stroke-opacity:1"
       transform="matrix(1.3333333,0,0,-1.3333333,0,234.33067)" />
    <path
       id="path24"
       d="m 153.23798,106.10643 0.91195,-5.94363 0.78873,5.96124 -1.70068,-0.0176 z"
       style="fill:#4c4c4c;fill-opacity:1;fill-rule:nonzero;stroke:none"
       transform="matrix(1.3333333,0,0,-1.3333333,0,234.33067)" />
    <path
       id="path25"
       d="M 169.20444,102.24167 V 91.52452 m 0,5.95276 v 0.42519 m 0,-6.37795 v 0 l 0.8504,5.95276 h -1.70078 l 0.85038,-5.95276"
       style="fill:none;stroke:#4c4c4c;stroke-width:0.3685;stroke-linecap:round;stroke-linejoin:round;stroke-miterlimit:10;stroke-dasharray:none;stroke-opacity:1"
       transform="matrix(1.3333333,0,0,-1.3333333,0,234.33067)" />
    <path
       id="path26"
       d="m 168.35406,97.47728 0.85038,-5.95276 0.8504,5.95276 z"
       style="fill:#4c4c4c;fill-opacity:1;fill-rule:nonzero;stroke:none"
       transform="matrix(1.3333333,0,0,-1.3333333,0,234.33067)" />
    <path
       id="path27"
       d="m 182.95242,111.23126 0.1109,-11.06846 m -0.0597,5.95245 -0.004,0.42517 m 0.0639,-6.37762 v 0 l 0.79071,5.96096 -1.70071,-0.017 0.91,-5.94394"
       style="fill:none;stroke:#4c4c4c;stroke-width:0.3685;stroke-linecap:round;stroke-linejoin:round;stroke-miterlimit:10;stroke-dasharray:none;stroke-opacity:1"
       transform="matrix(1.3333333,0,0,-1.3333333,0,234.33067)" />
    <path
       id="path28"
       d="m 182.15332,106.10674 0.91,-5.94394 0.79071,5.96096 -1.70071,-0.017 z"
       style="fill:#4c4c4c;fill-opacity:1;fill-rule:nonzero;stroke:none"
       transform="matrix(1.3333333,0,0,-1.3333333,0,234.33067)" />
    <path
       id="path29"
       d="m 92.9715,4.7787 2.97636,0.4252 V 4.3535 L 92.9715,4.7787 m 141.73227,0 -2.97638,0.4252 V 4.3535 l 2.97638,0.4252 m -141.73227,0 v 2.12598 m 0,-2.12598 V 2.65273 M 234.70377,4.7787 v 2.12598 m 0,-2.12598 V 2.65273 M 92.9715,4.7787 V 16.20087 M 234.70377,4.7787 V 16.20087 M 92.9715,4.7787 v 0 m 141.73227,0 v 0"
       style="fill:none;stroke:#000000;stroke-width:0.3685;stroke-linecap:round;stroke-linejoin:round;stroke-miterlimit:10;stroke-dasharray:none;stroke-opacity:1"
       transform="matrix(1.3333333,0,0,-1.3333333,0,234.33067)" />
    <text
       id="text29"
       xml:space="preserve"
       transform="matrix(1.3333333,0,0,1.3333333,203.25835,224.92339)"
       clip-path="url(#clipPath30)"><tspan
         style="font-variant:normal;font-weight:normal;font-stretch:normal;font-size:10.0916px;font-family:'Palatino Linotype';writing-mode:lr-tb;fill:#000000;fill-opacity:1;fill-rule:nonzero;stroke:none"
         x="0 5.045805 10.09161 12.614512 17.660318"
         y="0"
         sodipodi:role="line"
         id="tspan29">10.00</tspan></text>
    <path
       id="path31"
       d="M 92.9715,4.7787 H 234.70377"
       style="fill:none;stroke:#000000;stroke-width:0.3685;stroke-linecap:round;stroke-linejoin:round;stroke-miterlimit:10;stroke-dasharray:none;stroke-opacity:1"
       transform="matrix(1.3333333,0,0,-1.3333333,0,234.33067)" />
    <text
       id="text31"
       xml:space="preserve"
       transform="matrix(1.3333333,0,0,1.3333333,245.46669,80.167013)"
       clip-path="url(#clipPath32)"><tspan
         style="font-style:italic;font-variant:normal;font-weight:normal;font-stretch:normal;font-size:10.0071px;font-family:'Palatino Linotype';writing-mode:lr-tb;fill:#4c4c4c;fill-opacity:1;fill-rule:nonzero;stroke:none"
         x="0"
         y="0"
         id="tspan31">q</tspan></text>
    <text
       id="text32"
       xml:space="preserve"
       transform="matrix(1.3333333,0,0,1.3333333,253.15305,85.678813)"
       clip-path="url(#clipPath33)"><tspan
         style="font-style:italic;font-variant:normal;font-weight:normal;font-stretch:normal;font-size:6.00428px;font-family:'Palatino Linotype';writing-mode:lr-tb;fill:#4c4c4c;fill-opacity:1;fill-rule:nonzero;stroke:none"
         x="0"
         y="0"
         id="tspan32">u</tspan></text>
    <text
       id="text33"
       xml:space="preserve"
       transform="matrix(1.3333333,0,0,1.3333333,363.36767,18.193067)"
       clip-path="url(#clipPath34)"><tspan
         style="font-style:italic;font-variant:normal;font-weight:normal;font-stretch:normal;font-size:10.0071px;font-family:'Palatino Linotype';writing-mode:lr-tb;fill:#4c4c4c;fill-opacity:1;fill-rule:nonzero;stroke:none"
         x="0"
         y="0"
         id="tspan33">q</tspan></text>
    <text
       id="text34"
       xml:space="preserve"
       transform="matrix(1.3333333,0,0,1.3333333,371.05407,23.70488)"
       clip-path="url(#clipPath35)"><tspan
         style="font-style:italic;font-variant:normal;font-weight:normal;font-stretch:normal;font-size:6.00428px;font-family:'Palatino Linotype';writing-mode:lr-tb;fill:#4c4c4c;fill-opacity:1;fill-rule:nonzero;stroke:none"
         x="0"
         y="0"
         id="tspan34">u</tspan></text>
    <path
       id="path36"
       d="m 333.68774,24.7048 -0.4252,2.97638 h 0.85038 l -0.42518,-2.97638 m 0,141.7323 -0.4252,-2.97638 h 0.85038 l -0.42518,2.97638 m 0,-141.7323 h -2.126 m 2.126,0 h 2.12598 m -2.12598,141.7323 h -2.126 m 2.126,0 h 2.12598 M 333.68774,24.7048 h -10.7131 m 10.7131,141.7323 h -10.7131 m 10.7131,-141.7323 v 0 m 0,141.7323 v 0"
       style="fill:none;stroke:#000000;stroke-width:0.3685;stroke-linecap:round;stroke-linejoin:round;stroke-miterlimit:10;stroke-dasharray:none;stroke-opacity:1"
       transform="matrix(1.3333333,0,0,-1.3333333,0,234.33067)" />
    <text
       id="text36"
       xml:space="preserve"
       transform="matrix(0,-1.3333333,1.3333333,0,441.88128,122.09457)"
       clip-path="url(#clipPath37)"><tspan
         style="font-variant:normal;font-weight:normal;font-stretch:normal;font-size:10.0916px;font-family:'Palatino Linotype';writing-mode:lr-tb;fill:#000000;fill-opacity:1;fill-rule:nonzero;stroke:none"
         x="0 5.045805 10.09161 12.614512 17.660318"
         y="0"
         sodipodi:role="line"
         id="tspan36">10.00</tspan></text>
    <path
       id="path38"
       d="M 333.68774,24.7048 V 166.4371"
       style="fill:none;stroke:#000000;stroke-width:0.3685;stroke-linecap:round;stroke-linejoin:round;stroke-miterlimit:10;stroke-dasharray:none;stroke-opacity:1"
       transform="matrix(1.3333333,0,0,-1.3333333,0,234.33067)" />
  </g>
</svg>
