<?xml version="1.0" encoding="UTF-8" standalone="no"?>
<!-- Created with Inkscape (http://www.inkscape.org/) -->

<svg
   version="1.1"
   id="svg1"
   width="226.77165"
   height="204.09448"
   viewBox="0 0 226.77165 204.09448"
   sodipodi:docname="tho_stress_strain_b500b.pdf"
   xmlns:inkscape="http://www.inkscape.org/namespaces/inkscape"
   xmlns:sodipodi="http://sodipodi.sourceforge.net/DTD/sodipodi-0.dtd"
   xmlns="http://www.w3.org/2000/svg"
   xmlns:svg="http://www.w3.org/2000/svg">
  <defs
     id="defs1">
    <clipPath
       clipPathUnits="userSpaceOnUse"
       id="clipPath4">
      <path
         d="M 34.015748,30.614173 H 153.07087 V 137.76378 H 34.015748 Z"
         id="path4" />
    </clipPath>
    <clipPath
       clipPathUnits="userSpaceOnUse"
       id="clipPath10">
      <path
         d="M 34.015748,30.614173 H 153.07087 V 137.76378 H 34.015748 Z"
         id="path10" />
    </clipPath>
    <clipPath
       clipPathUnits="userSpaceOnUse"
       id="clipPath16">
      <path
         d="M 34.015748,30.614173 H 153.07087 V 137.76378 H 34.015748 Z"
         id="path16" />
    </clipPath>
    <clipPath
       clipPathUnits="userSpaceOnUse"
       id="clipPath22">
      <path
         d="M 34.015748,30.614173 H 153.07087 V 137.76378 H 34.015748 Z"
         id="path22" />
    </clipPath>
    <clipPath
       clipPathUnits="userSpaceOnUse"
       id="clipPath31">
      <path
         d="M 34.015748,30.614173 H 153.07087 V 137.76378 H 34.015748 Z"
         id="path31" />
    </clipPath>
    <clipPath
       clipPathUnits="userSpaceOnUse"
       id="clipPath35">
      <path
         d="M 34.015748,30.614173 H 153.07087 V 137.76378 H 34.015748 Z"
         id="path35" />
    </clipPath>
    <clipPath
       clipPathUnits="userSpaceOnUse"
       id="clipPath39">
      <path
         d="M 34.015748,30.614173 H 153.07087 V 137.76378 H 34.015748 Z"
         id="path39" />
    </clipPath>
    <clipPath
       clipPathUnits="userSpaceOnUse"
       id="clipPath43">
      <path
         d="M 34.015748,30.614173 H 153.07087 V 137.76378 H 34.015748 Z"
         id="path43" />
    </clipPath>
    <clipPath
       clipPathUnits="userSpaceOnUse"
       id="clipPath51">
      <path
         d="M 34.015748,30.614173 H 153.07087 V 137.76378 H 34.015748 Z"
         id="path51" />
    </clipPath>
    <clipPath
       clipPathUnits="userSpaceOnUse"
       id="clipPath53">
      <path
         d="M 34.015748,30.614173 H 153.07087 V 137.76378 H 34.015748 Z"
         id="path53" />
    </clipPath>
  </defs>
  <sodipodi:namedview
     id="namedview1"
     pagecolor="#ffffff"
     bordercolor="#000000"
     borderopacity="0.25"
     inkscape:showpageshadow="2"
     inkscape:pageopacity="0.0"
     inkscape:pagecheckerboard="0"
     inkscape:deskcolor="#d1d1d1">
    <inkscape:page
       x="0"
       y="0"
       inkscape:label="1"
       id="page1"
       width="226.77165"
       height="204.09448"
       margin="0"
       bleed="0" />
  </sodipodi:namedview>
  <g
     id="g1"
     inkscape:groupmode="layer"
     inkscape:label="1">
    <path
       id="path1"
       d="M 0,0 H 170.07874 V 153.07087 H 0 Z"
       style="fill:#ffffff;fill-opacity:1;fill-rule:nonzero;stroke:none"
       transform="matrix(1.3333333,0,0,-1.3333333,0,204.09449)" />
    <path
       id="path2"
       d="M 34.015748,30.614173 H 153.07087 V 137.76378 H 34.015748 Z"
       style="fill:#ffffff;fill-opacity:1;fill-rule:nonzero;stroke:none"
       transform="matrix(1.3333333,0,0,-1.3333333,0,204.09449)" />
    <path
       id="path3"
       d="M 39.427344,30.614173 V 137.76378"
       style="fill:none;stroke:#808080;stroke-width:0.2;stroke-linecap:butt;stroke-linejoin:round;stroke-miterlimit:10;stroke-dasharray:0.74, 0.32;stroke-dashoffset:0;stroke-opacity:0.7"
       transform="matrix(1.3333333,0,0,-1.3333333,0,204.09449)"
       clip-path="url(#clipPath4)" />
    <path
       id="path5"
       d="m 39.427344,30.614173 v 3.5"
       style="fill:#000000;fill-opacity:1;fill-rule:nonzero;stroke:#000000;stroke-width:0.5;stroke-linecap:butt;stroke-linejoin:round;stroke-miterlimit:10;stroke-dasharray:none;stroke-opacity:1"
       transform="matrix(1.3333333,0,0,-1.3333333,0,204.09449)" />
    <g
       id="g5"
       aria-label="0.000"
       transform="matrix(1.3333333,0,0,1.3333333,39.710422,175.32199)">
      <path
         id="path6"
         d="m 3.9027302,-2.544229 c 0,-0.8554688 -0.09375,-1.3710938 -0.3515625,-1.875 -0.3515625,-0.703125 -0.9960938,-0.8789063 -1.4414063,-0.8789063 -0.9960937,0 -1.37109373,0.75 -1.47656248,0.9726563 -0.29296875,0.5742187 -0.3046875,1.3710937 -0.3046875,1.78125 0,0.5273437 0.0234375,1.3359375 0.41015625,1.96874997 0.36328123,0.5859375 0.94921873,0.73828125 1.37109373,0.73828125 0.3867188,0 1.0664063,-0.1171875 1.4648438,-0.90234375 C 3.8675739,-1.3137603 3.9027302,-2.028604 3.9027302,-2.544229 Z m -1.7929688,2.48437497 c -0.2695312,0 -0.8203125,-0.12890625 -0.984375,-0.96093747 -0.09375,-0.4570313 -0.09375,-1.2070313 -0.09375,-1.6171875 0,-0.5507813 0,-1.1132813 0.09375,-1.546875 0.1640625,-0.8085938 0.7851563,-0.890625 0.984375,-0.890625 0.2695313,0 0.8203125,0.1289062 0.984375,0.8554687 0.09375,0.4453125 0.09375,1.0429688 0.09375,1.5820313 0,0.46875 0,1.1835937 -0.09375,1.6289062 -0.1640625,0.84375002 -0.7148437,0.94921877 -0.984375,0.94921877 z m 0,0"
         style="fill:#000000;fill-opacity:1;fill-rule:nonzero;stroke:none" />
      <path
         id="path7"
         d="m 5.8509724,-0.43485403 c 0,-0.28125 -0.2226563,-0.4453125 -0.4335938,-0.4453125 -0.2578125,0 -0.4453125,0.19921875 -0.4453125,0.43359375 0,0.26953125 0.2226563,0.4453125 0.4335938,0.4453125 0.2578125,0 0.4453125,-0.2109375 0.4453125,-0.43359375 z m 0,0"
         style="fill:#000000;fill-opacity:1;fill-rule:nonzero;stroke:none" />
      <path
         id="path8"
         d="m 10.488668,-2.544229 c 0,-0.8554688 -0.09375,-1.3710938 -0.351563,-1.875 -0.3515623,-0.703125 -0.9960936,-0.8789063 -1.4414061,-0.8789063 -0.9960937,0 -1.3710937,0.75 -1.4765625,0.9726563 -0.2929687,0.5742187 -0.3046875,1.3710937 -0.3046875,1.78125 0,0.5273437 0.023437,1.3359375 0.4101563,1.96874997 0.3632812,0.5859375 0.9492187,0.73828125 1.3710937,0.73828125 0.3867188,0 1.0664063,-0.1171875 1.4648441,-0.90234375 0.292968,-0.57421877 0.328125,-1.28906247 0.328125,-1.80468747 z m -1.7929691,2.48437497 c -0.2695312,0 -0.8203125,-0.12890625 -0.984375,-0.96093747 -0.09375,-0.4570313 -0.09375,-1.2070313 -0.09375,-1.6171875 0,-0.5507813 0,-1.1132813 0.09375,-1.546875 0.1640625,-0.8085938 0.7851563,-0.890625 0.984375,-0.890625 0.2695313,0 0.8203125,0.1289062 0.984375,0.8554687 0.09375,0.4453125 0.09375,1.0429688 0.09375,1.5820313 0,0.46875 0,1.1835937 -0.09375,1.6289062 -0.1640625,0.84375002 -0.7148437,0.94921877 -0.984375,0.94921877 z M 14.722066,-2.544229 c 0,-0.8554688 -0.09375,-1.3710938 -0.351562,-1.875 -0.351563,-0.703125 -0.996094,-0.8789063 -1.441407,-0.8789063 -0.996093,0 -1.371093,0.75 -1.476562,0.9726563 -0.292969,0.5742187 -0.304688,1.3710937 -0.304688,1.78125 0,0.5273437 0.02344,1.3359375 0.410157,1.96874997 0.363281,0.5859375 0.949218,0.73828125 1.371093,0.73828125 0.386719,0 1.066407,-0.1171875 1.464844,-0.90234375 C 14.68691,-1.3137603 14.722066,-2.028604 14.722066,-2.544229 Z m -1.792969,2.48437497 c -0.269531,0 -0.820312,-0.12890625 -0.984375,-0.96093747 -0.09375,-0.4570313 -0.09375,-1.2070313 -0.09375,-1.6171875 0,-0.5507813 0,-1.1132813 0.09375,-1.546875 0.164063,-0.8085938 0.785157,-0.890625 0.984375,-0.890625 0.269532,0 0.820313,0.1289062 0.984375,0.8554687 0.09375,0.4453125 0.09375,1.0429688 0.09375,1.5820313 0,0.46875 0,1.1835937 -0.09375,1.6289062 -0.164062,0.84375002 -0.714843,0.94921877 -0.984375,0.94921877 z M 18.952535,-2.544229 c 0,-0.8554688 -0.09375,-1.3710938 -0.351563,-1.875 -0.351562,-0.703125 -0.996093,-0.8789063 -1.441406,-0.8789063 -0.996094,0 -1.371094,0.75 -1.476562,0.9726563 -0.292969,0.5742187 -0.304688,1.3710937 -0.304688,1.78125 0,0.5273437 0.02344,1.3359375 0.410156,1.96874997 0.363282,0.5859375 0.949219,0.73828125 1.371094,0.73828125 0.386719,0 1.066406,-0.1171875 1.464844,-0.90234375 0.292969,-0.57421877 0.328125,-1.28906247 0.328125,-1.80468747 z m -1.792969,2.48437497 c -0.269531,0 -0.820312,-0.12890625 -0.984375,-0.96093747 -0.09375,-0.4570313 -0.09375,-1.2070313 -0.09375,-1.6171875 0,-0.5507813 0,-1.1132813 0.09375,-1.546875 0.164063,-0.8085938 0.785156,-0.890625 0.984375,-0.890625 0.269531,0 0.820313,0.1289062 0.984375,0.8554687 0.09375,0.4453125 0.09375,1.0429688 0.09375,1.5820313 0,0.46875 0,1.1835937 -0.09375,1.6289062 -0.164062,0.84375002 -0.714844,0.94921877 -0.984375,0.94921877 z m 0,0"
         style="fill:#000000;fill-opacity:1;fill-rule:nonzero;stroke:none" />
    </g>
    <path
       id="path9"
       d="M 71.994319,30.614173 V 137.76378"
       style="fill:none;stroke:#808080;stroke-width:0.2;stroke-linecap:butt;stroke-linejoin:round;stroke-miterlimit:10;stroke-dasharray:0.74, 0.32;stroke-dashoffset:0;stroke-opacity:0.7"
       transform="matrix(1.3333333,0,0,-1.3333333,0,204.09449)"
       clip-path="url(#clipPath10)" />
    <path
       id="path11"
       d="m 71.994319,30.614173 v 3.5"
       style="fill:#000000;fill-opacity:1;fill-rule:nonzero;stroke:#000000;stroke-width:0.5;stroke-linecap:butt;stroke-linejoin:round;stroke-miterlimit:10;stroke-dasharray:none;stroke-opacity:1"
       transform="matrix(1.3333333,0,0,-1.3333333,0,204.09449)" />
    <g
       id="g11"
       aria-label="0.025"
       transform="matrix(1.3333333,0,0,1.3333333,83.133055,175.32199)">
      <path
         id="path12"
         d="m 3.9021622,-2.544229 c 0,-0.8554688 -0.09375,-1.3710938 -0.3515625,-1.875 -0.3515625,-0.703125 -0.9960938,-0.8789063 -1.4414063,-0.8789063 -0.9960937,0 -1.37109371,0.75 -1.47656246,0.9726563 -0.29296875,0.5742187 -0.3046875,1.3710937 -0.3046875,1.78125 0,0.5273437 0.0234375,1.3359375 0.41015625,1.96874997 0.36328121,0.5859375 0.94921871,0.73828125 1.37109371,0.73828125 0.3867188,0 1.0664063,-0.1171875 1.4648438,-0.90234375 C 3.8670059,-1.3137603 3.9021622,-2.028604 3.9021622,-2.544229 Z m -1.7929688,2.48437497 c -0.2695312,0 -0.8203125,-0.12890625 -0.984375,-0.96093747 -0.09375,-0.4570313 -0.09375,-1.2070313 -0.09375,-1.6171875 0,-0.5507813 0,-1.1132813 0.09375,-1.546875 0.1640625,-0.8085938 0.7851563,-0.890625 0.984375,-0.890625 0.2695313,0 0.8203125,0.1289062 0.984375,0.8554687 0.09375,0.4453125 0.09375,1.0429688 0.09375,1.5820313 0,0.46875 0,1.1835937 -0.09375,1.6289062 -0.1640625,0.84375002 -0.7148437,0.94921877 -0.984375,0.94921877 z m 0,0"
         style="fill:#000000;fill-opacity:1;fill-rule:nonzero;stroke:none" />
      <path
         id="path13"
         d="m 5.8504044,-0.43485403 c 0,-0.28125 -0.2226563,-0.4453125 -0.4335938,-0.4453125 -0.2578125,0 -0.4453125,0.19921875 -0.4453125,0.43359375 0,0.26953125 0.2226563,0.4453125 0.4335938,0.4453125 0.2578125,0 0.4453125,-0.2109375 0.4453125,-0.43359375 z m 0,0"
         style="fill:#000000;fill-opacity:1;fill-rule:nonzero;stroke:none" />
      <path
         id="path14"
         d="m 10.4881,-2.544229 c 0,-0.8554688 -0.09375,-1.3710938 -0.351563,-1.875 -0.3515623,-0.703125 -0.9960936,-0.8789063 -1.4414061,-0.8789063 -0.9960937,0 -1.3710937,0.75 -1.4765625,0.9726563 -0.2929687,0.5742187 -0.3046875,1.3710937 -0.3046875,1.78125 0,0.5273437 0.023437,1.3359375 0.4101563,1.96874997 0.3632812,0.5859375 0.9492187,0.73828125 1.3710937,0.73828125 0.3867188,0 1.0664063,-0.1171875 1.4648441,-0.90234375 C 10.452943,-1.3137603 10.4881,-2.028604 10.4881,-2.544229 Z m -1.7929691,2.48437497 c -0.2695312,0 -0.8203125,-0.12890625 -0.984375,-0.96093747 -0.09375,-0.4570313 -0.09375,-1.2070313 -0.09375,-1.6171875 0,-0.5507813 0,-1.1132813 0.09375,-1.546875 0.1640625,-0.8085938 0.7851563,-0.890625 0.984375,-0.890625 0.2695313,0 0.8203125,0.1289062 0.984375,0.8554687 0.09375,0.4453125 0.09375,1.0429688 0.09375,1.5820313 0,0.46875 0,1.1835937 -0.09375,1.6289062 -0.1640625,0.84375002 -0.7148437,0.94921877 -0.984375,0.94921877 z M 13.069154,-1.6301665 c 0.128907,-0.1171875 0.457032,-0.375 0.585938,-0.4921875 0.492187,-0.4570313 0.960937,-0.890625 0.960937,-1.6171875 0,-0.9492188 -0.796875,-1.5585938 -1.792968,-1.5585938 -0.949219,0 -1.582032,0.7265625 -1.582032,1.4296875 0,0.3984375 0.316407,0.4453125 0.421875,0.4453125 0.164063,0 0.410157,-0.1171875 0.410157,-0.421875 0,-0.4101562 -0.398438,-0.4101562 -0.492188,-0.4101562 0.234375,-0.5859375 0.773438,-0.7851563 1.160156,-0.7851563 0.738282,0 1.125,0.6328125 1.125,1.3007813 0,0.8320312 -0.585937,1.4296875 -1.523437,2.4023437 l -1.007813,1.03125002 c -0.09375,0.09375 -0.09375,0.10546875 -0.09375,0.3046875 h 3.152344 l 0.222656,-1.42968752 h -0.246093 c -0.02344,0.1640625 -0.08203,0.56250002 -0.175782,0.71484377 -0.04687,0.0585938 -0.65625,0.0585938 -0.785156,0.0585938 h -1.417969 z m 3.09375,-2.8476563 c 0.105469,0.035156 0.421875,0.1054688 0.761719,0.1054688 0.996094,0 1.59375,-0.6914063 1.59375,-0.8203125 0,-0.082031 -0.04687,-0.1054688 -0.09375,-0.1054688 -0.01172,0 -0.02344,0 -0.105469,0.035156 -0.304687,0.1171875 -0.667968,0.2226562 -1.101562,0.2226562 -0.46875,0 -0.855469,-0.1289062 -1.113281,-0.2226562 -0.07031,-0.035156 -0.09375,-0.035156 -0.09375,-0.035156 -0.105469,0 -0.105469,0.082031 -0.105469,0.234375 v 2.3320313 c 0,0.140625 0,0.234375 0.128906,0.234375 0.05859,0 0.08203,-0.035156 0.128906,-0.09375 0.09375,-0.1171875 0.398438,-0.5273438 1.066407,-0.5273438 0.445312,0 0.667968,0.3632813 0.738281,0.515625 0.128906,0.2929688 0.152344,0.65625 0.152344,0.9726563 0,0.2929687 -0.01172,0.71484372 -0.234375,1.06640622 -0.152344,0.24609375 -0.46875,0.4921875 -0.890625,0.4921875 -0.515625,0 -1.03125,-0.328125 -1.207032,-0.84375 0.02344,0 0.07031,0 0.07031,0 0.222656,0 0.398437,-0.14062502 0.398437,-0.38671872 0,-0.2929688 -0.222656,-0.3984375 -0.386718,-0.3984375 -0.140625,0 -0.398438,0.082031 -0.398438,0.421875 0,0.71484372 0.621094,1.44140622 1.535156,1.44140622 0.996094,0 1.839844,-0.7734375 1.839844,-1.75781252 0,-0.9257812 -0.667969,-1.7460937 -1.605469,-1.7460937 -0.398437,0 -0.773437,0.1289062 -1.078125,0.3984375 z m 0,0"
         style="fill:#000000;fill-opacity:1;fill-rule:nonzero;stroke:none" />
    </g>
    <path
       id="path15"
       d="M 104.56129,30.614173 V 137.76378"
       style="fill:none;stroke:#808080;stroke-width:0.2;stroke-linecap:butt;stroke-linejoin:round;stroke-miterlimit:10;stroke-dasharray:0.74, 0.32;stroke-dashoffset:0;stroke-opacity:0.7"
       transform="matrix(1.3333333,0,0,-1.3333333,0,204.09449)"
       clip-path="url(#clipPath16)" />
    <path
       id="path17"
       d="m 104.56129,30.614173 v 3.5"
       style="fill:#000000;fill-opacity:1;fill-rule:nonzero;stroke:#000000;stroke-width:0.5;stroke-linecap:butt;stroke-linejoin:round;stroke-miterlimit:10;stroke-dasharray:none;stroke-opacity:1"
       transform="matrix(1.3333333,0,0,-1.3333333,0,204.09449)" />
    <g
       id="g17"
       aria-label="0.050"
       transform="matrix(1.3333333,0,0,1.3333333,126.55569,175.32199)">
      <path
         id="path18"
         d="m 3.9015942,-2.544229 c 0,-0.8554688 -0.09375,-1.3710938 -0.3515625,-1.875 -0.3515625,-0.703125 -0.9960937,-0.8789063 -1.4414062,-0.8789063 -0.9960938,0 -1.37109378,0.75 -1.47656253,0.9726563 -0.29296875,0.5742187 -0.3046875,1.3710937 -0.3046875,1.78125 0,0.5273437 0.0234375,1.3359375 0.41015625,1.96874997 0.36328128,0.5859375 0.94921878,0.73828125 1.37109378,0.73828125 0.3867187,0 1.0664062,-0.1171875 1.4648437,-0.90234375 C 3.866438,-1.3137603 3.9015942,-2.028604 3.9015942,-2.544229 Z m -1.7929687,2.48437497 c -0.2695313,0 -0.8203125,-0.12890625 -0.984375,-0.96093747 -0.09375,-0.4570313 -0.09375,-1.2070313 -0.09375,-1.6171875 0,-0.5507813 0,-1.1132813 0.09375,-1.546875 0.1640625,-0.8085938 0.7851562,-0.890625 0.984375,-0.890625 0.2695312,0 0.8203125,0.1289062 0.984375,0.8554687 0.09375,0.4453125 0.09375,1.0429688 0.09375,1.5820313 0,0.46875 0,1.1835937 -0.09375,1.6289062 -0.1640625,0.84375002 -0.7148438,0.94921877 -0.984375,0.94921877 z m 0,0"
         style="fill:#000000;fill-opacity:1;fill-rule:nonzero;stroke:none" />
      <path
         id="path19"
         d="m 5.8527661,-0.43485403 c 0,-0.28125 -0.2226563,-0.4453125 -0.4335938,-0.4453125 -0.2578125,0 -0.4453125,0.19921875 -0.4453125,0.43359375 0,0.26953125 0.2226563,0.4453125 0.4335938,0.4453125 0.2578125,0 0.4453125,-0.2109375 0.4453125,-0.43359375 z m 0,0"
         style="fill:#000000;fill-opacity:1;fill-rule:nonzero;stroke:none" />
      <path
         id="path20"
         d="m 10.487532,-2.544229 c 0,-0.8554688 -0.09375,-1.3710938 -0.351563,-1.875 -0.3515623,-0.703125 -0.9960935,-0.8789063 -1.441406,-0.8789063 -0.9960938,0 -1.3710938,0.75 -1.4765625,0.9726563 -0.2929688,0.5742187 -0.3046875,1.3710937 -0.3046875,1.78125 0,0.5273437 0.023437,1.3359375 0.4101562,1.96874997 0.3632813,0.5859375 0.9492188,0.73828125 1.3710938,0.73828125 0.3867187,0 1.0664062,-0.1171875 1.464844,-0.90234375 0.292968,-0.57421877 0.328125,-1.28906247 0.328125,-1.80468747 z m -1.792969,2.48437497 c -0.2695313,0 -0.8203125,-0.12890625 -0.984375,-0.96093747 -0.09375,-0.4570313 -0.09375,-1.2070313 -0.09375,-1.6171875 0,-0.5507813 0,-1.1132813 0.09375,-1.546875 0.1640625,-0.8085938 0.7851562,-0.890625 0.984375,-0.890625 0.2695312,0 0.8203125,0.1289062 0.984375,0.8554687 0.09375,0.4453125 0.09375,1.0429688 0.09375,1.5820313 0,0.46875 0,1.1835937 -0.09375,1.6289062 -0.1640625,0.84375002 -0.7148438,0.94921877 -0.984375,0.94921877 z m 3.237305,-4.41796877 c 0.105468,0.035156 0.421875,0.1054688 0.761718,0.1054688 0.996094,0 1.59375,-0.6914063 1.59375,-0.8203125 0,-0.082031 -0.04687,-0.1054688 -0.09375,-0.1054688 -0.01172,0 -0.02344,0 -0.105468,0.035156 -0.304688,0.1171875 -0.667969,0.2226562 -1.101563,0.2226562 -0.46875,0 -0.855469,-0.1289062 -1.113281,-0.2226562 -0.07031,-0.035156 -0.09375,-0.035156 -0.09375,-0.035156 -0.105469,0 -0.105469,0.082031 -0.105469,0.234375 v 2.3320313 c 0,0.140625 0,0.234375 0.128906,0.234375 0.05859,0 0.08203,-0.035156 0.128907,-0.09375 0.09375,-0.1171875 0.398437,-0.5273438 1.066406,-0.5273438 0.445312,0 0.667969,0.3632813 0.738281,0.515625 0.128906,0.2929688 0.152344,0.65625 0.152344,0.9726563 0,0.2929687 -0.01172,0.71484372 -0.234375,1.06640622 -0.152344,0.24609375 -0.46875,0.4921875 -0.890625,0.4921875 -0.515625,0 -1.03125,-0.328125 -1.207031,-0.84375 0.02344,0 0.07031,0 0.07031,0 0.222656,0 0.398438,-0.14062502 0.398438,-0.38671872 0,-0.2929688 -0.222657,-0.3984375 -0.386719,-0.3984375 -0.140625,0 -0.398438,0.082031 -0.398438,0.421875 0,0.71484372 0.621094,1.44140622 1.535157,1.44140622 0.996093,0 1.839843,-0.7734375 1.839843,-1.75781252 0,-0.9257812 -0.667968,-1.7460937 -1.605468,-1.7460937 -0.398438,0 -0.773438,0.1289062 -1.078125,0.3984375 z m 7.022461,1.9335938 c 0,-0.8554688 -0.09375,-1.3710938 -0.351563,-1.875 -0.351562,-0.703125 -0.996094,-0.8789063 -1.441406,-0.8789063 -0.996094,0 -1.371094,0.75 -1.476563,0.9726563 -0.292968,0.5742187 -0.304687,1.3710937 -0.304687,1.78125 0,0.5273437 0.02344,1.3359375 0.410156,1.96874997 0.363281,0.5859375 0.949219,0.73828125 1.371094,0.73828125 0.386719,0 1.066406,-0.1171875 1.464844,-0.90234375 0.292968,-0.57421877 0.328125,-1.28906247 0.328125,-1.80468747 z m -1.792969,2.48437497 c -0.269531,0 -0.820313,-0.12890625 -0.984375,-0.96093747 -0.09375,-0.4570313 -0.09375,-1.2070313 -0.09375,-1.6171875 0,-0.5507813 0,-1.1132813 0.09375,-1.546875 0.164062,-0.8085938 0.785156,-0.890625 0.984375,-0.890625 0.269531,0 0.820312,0.1289062 0.984375,0.8554687 0.09375,0.4453125 0.09375,1.0429688 0.09375,1.5820313 0,0.46875 0,1.1835937 -0.09375,1.6289062 -0.164063,0.84375002 -0.714844,0.94921877 -0.984375,0.94921877 z m 0,0"
         style="fill:#000000;fill-opacity:1;fill-rule:nonzero;stroke:none" />
    </g>
    <path
       id="path21"
       d="M 137.12827,30.614173 V 137.76378"
       style="fill:none;stroke:#808080;stroke-width:0.2;stroke-linecap:butt;stroke-linejoin:round;stroke-miterlimit:10;stroke-dasharray:0.74, 0.32;stroke-dashoffset:0;stroke-opacity:0.7"
       transform="matrix(1.3333333,0,0,-1.3333333,0,204.09449)"
       clip-path="url(#clipPath22)" />
    <path
       id="path23"
       d="m 137.12827,30.614173 v 3.5"
       style="fill:#000000;fill-opacity:1;fill-rule:nonzero;stroke:#000000;stroke-width:0.5;stroke-linecap:butt;stroke-linejoin:round;stroke-miterlimit:10;stroke-dasharray:none;stroke-opacity:1"
       transform="matrix(1.3333333,0,0,-1.3333333,0,204.09449)" />
    <g
       id="g23"
       aria-label="0.075"
       transform="matrix(1.3333333,0,0,1.3333333,169.97832,175.32199)">
      <path
         id="path24"
         d="m 3.9010262,-2.544229 c 0,-0.8554688 -0.09375,-1.3710938 -0.3515625,-1.875 C 3.1979012,-5.122354 2.55337,-5.2981353 2.1080575,-5.2981353 c -0.9960938,0 -1.37109376,0.75 -1.47656251,0.9726563 -0.29296875,0.5742187 -0.3046875,1.3710937 -0.3046875,1.78125 0,0.5273437 0.0234375,1.3359375 0.41015625,1.96874997 0.36328126,0.5859375 0.94921876,0.73828125 1.37109376,0.73828125 0.3867187,0 1.0664062,-0.1171875 1.4648437,-0.90234375 C 3.86587,-1.3137603 3.9010262,-2.028604 3.9010262,-2.544229 Z m -1.7929687,2.48437497 c -0.2695313,0 -0.8203125,-0.12890625 -0.984375,-0.96093747 -0.09375,-0.4570313 -0.09375,-1.2070313 -0.09375,-1.6171875 0,-0.5507813 0,-1.1132813 0.09375,-1.546875 0.1640625,-0.8085938 0.7851562,-0.890625 0.984375,-0.890625 0.2695312,0 0.8203125,0.1289062 0.984375,0.8554687 0.09375,0.4453125 0.09375,1.0429688 0.09375,1.5820313 0,0.46875 0,1.1835937 -0.09375,1.6289062 -0.1640625,0.84375002 -0.7148438,0.94921877 -0.984375,0.94921877 z m 0,0"
         style="fill:#000000;fill-opacity:1;fill-rule:nonzero;stroke:none" />
      <path
         id="path25"
         d="m 5.8521981,-0.43485403 c 0,-0.28125 -0.2226562,-0.4453125 -0.4335937,-0.4453125 -0.2578125,0 -0.4453125,0.19921875 -0.4453125,0.43359375 0,0.26953125 0.2226562,0.4453125 0.4335937,0.4453125 0.2578125,0 0.4453125,-0.2109375 0.4453125,-0.43359375 z m 0,0"
         style="fill:#000000;fill-opacity:1;fill-rule:nonzero;stroke:none" />
      <path
         id="path26"
         d="m 10.489893,-2.544229 c 0,-0.8554688 -0.09375,-1.3710938 -0.351562,-1.875 -0.3515626,-0.703125 -0.9960938,-0.8789063 -1.4414063,-0.8789063 -0.9960938,0 -1.3710938,0.75 -1.4765625,0.9726563 -0.2929688,0.5742187 -0.3046875,1.3710937 -0.3046875,1.78125 0,0.5273437 0.023437,1.3359375 0.4101562,1.96874997 0.3632813,0.5859375 0.9492188,0.73828125 1.3710938,0.73828125 0.3867187,0 1.0664062,-0.1171875 1.4648433,-0.90234375 0.292969,-0.57421877 0.328125,-1.28906247 0.328125,-1.80468747 z m -1.7929683,2.48437497 c -0.2695313,0 -0.8203125,-0.12890625 -0.984375,-0.96093747 -0.09375,-0.4570313 -0.09375,-1.2070313 -0.09375,-1.6171875 0,-0.5507813 0,-1.1132813 0.09375,-1.546875 0.1640625,-0.8085938 0.7851562,-0.890625 0.984375,-0.890625 0.2695312,0 0.8203125,0.1289062 0.984375,0.8554687 0.09375,0.4453125 0.09375,1.0429688 0.09375,1.5820313 0,0.46875 0,1.1835937 -0.09375,1.6289062 -0.1640625,0.84375002 -0.7148438,0.94921877 -0.984375,0.94921877 z M 14.849268,-4.8528228 c 0.07031,-0.09375 0.07031,-0.1054687 0.07031,-0.28125 h -2.027344 c -0.199219,0 -0.445312,-0.011719 -0.644531,-0.023437 -0.410156,-0.035156 -0.421875,-0.1054687 -0.445313,-0.234375 H 11.5563 l -0.269532,1.6875 h 0.246094 c 0.02344,-0.1171875 0.105469,-0.6679687 0.222656,-0.7382812 0.08203,-0.035156 0.679688,-0.035156 0.796875,-0.035156 h 1.6875 l -0.820312,1.1015625 c -0.902344,1.2070313 -1.089844,2.46093752 -1.089844,3.09375002 0,0.0820313 0,0.4453125 0.363281,0.4453125 0.375,0 0.375,-0.3515625 0.375,-0.4453125 v -0.38671875 c 0,-1.14843747 0.199219,-2.08593747 0.585938,-2.60156247 z m 1.31543,0.375 c 0.105469,0.035156 0.421875,0.1054688 0.761719,0.1054688 0.996094,0 1.59375,-0.6914063 1.59375,-0.8203125 0,-0.082031 -0.04687,-0.1054688 -0.09375,-0.1054688 -0.01172,0 -0.02344,0 -0.105469,0.035156 -0.304687,0.1171875 -0.667969,0.2226562 -1.101562,0.2226562 -0.46875,0 -0.855469,-0.1289062 -1.113282,-0.2226562 -0.07031,-0.035156 -0.09375,-0.035156 -0.09375,-0.035156 -0.105468,0 -0.105468,0.082031 -0.105468,0.234375 v 2.3320313 c 0,0.140625 0,0.234375 0.128906,0.234375 0.05859,0 0.08203,-0.035156 0.128906,-0.09375 0.09375,-0.1171875 0.398438,-0.5273438 1.066406,-0.5273438 0.445313,0 0.667969,0.3632813 0.738282,0.515625 0.128906,0.2929688 0.152343,0.65625 0.152343,0.9726563 0,0.2929687 -0.01172,0.71484372 -0.234375,1.06640622 -0.152343,0.24609375 -0.46875,0.4921875 -0.890625,0.4921875 -0.515625,0 -1.03125,-0.328125 -1.207031,-0.84375 0.02344,0 0.07031,0 0.07031,0 0.222656,0 0.398437,-0.14062502 0.398437,-0.38671872 0,-0.2929688 -0.222656,-0.3984375 -0.386719,-0.3984375 -0.140625,0 -0.398437,0.082031 -0.398437,0.421875 0,0.71484372 0.621094,1.44140622 1.535156,1.44140622 0.996094,0 1.839844,-0.7734375 1.839844,-1.75781252 0,-0.9257812 -0.667969,-1.7460937 -1.605469,-1.7460937 -0.398437,0 -0.773437,0.1289062 -1.078125,0.3984375 z m 0,0"
         style="fill:#000000;fill-opacity:1;fill-rule:nonzero;stroke:none" />
    </g>
    <g
       id="g26"
       aria-label="ε&#10;s&#10;[-]"
       transform="matrix(1.3333333,0,0,1.3333333,110.67063,192.68429)">
      <path
         id="path27"
         d="m 1.4071874,-2.2622439 c 0.328125,0.140625 0.6210937,0.140625 0.8554687,0.140625 0.2578125,0 0.8085938,0 0.8085938,-0.3046875 0,-0.2460937 -0.3515625,-0.2695312 -0.7265625,-0.2695312 -0.2109375,0 -0.5625,0.011719 -0.9257813,0.1875 -0.234375,-0.1171875 -0.3984375,-0.3164063 -0.3984375,-0.5859375 0,-0.5976563 0.9726563,-0.9609375 1.875,-0.9609375 0.1523438,0 0.515625,0 0.9140625,0.28125 0.1054688,0.082031 0.1289063,0.09375 0.1992188,0.09375 0.1289062,0 0.2695312,-0.1289063 0.2695312,-0.2695313 0,-0.1875 -0.609375,-0.5625 -1.2890625,-0.5625 -1.1484375,0 -2.22656245,0.6679688 -2.22656245,1.4179688 0,0.4335937 0.36328125,0.6796875 0.39843745,0.7148437 -0.58593745,0.328125 -0.9023437,0.8789063 -0.9023437,1.3476563 0,0.64453123 0.57421875,1.25390623 1.6289062,1.25390623 1.3125,0 1.8632813,-0.87890625 1.8632813,-1.03125 0,-0.0585938 -0.046875,-0.09375 -0.1054688,-0.09375 -0.046875,0 -0.082031,0.0351563 -0.09375,0.0703125 -0.140625,0.22265625 -0.3867187,0.59765625 -1.5820312,0.59765625 -0.609375,0 -1.453125,-0.15234375 -1.453125,-0.86718748 0,-0.328125 0.28125,-0.8554688 0.890625,-1.1601563 z m 0.328125,-0.1289062 c 0.2226562,-0.082031 0.4335937,-0.09375 0.609375,-0.09375 0.2460937,0 0.28125,0.011719 0.46875,0.058594 -0.1523438,0.070312 -0.1757813,0.082031 -0.5507813,0.082031 -0.2226562,0 -0.3398437,0 -0.5273437,-0.046875 z m 0,0"
         style="fill:#000000;fill-opacity:1;fill-rule:nonzero;stroke:none" />
      <path
         id="path28"
         d="m 7.6444921,-1.1313845 c -0.1757813,0.046875 -0.2929688,0.1875 -0.2929688,0.328125 0,0.1640625 0.140625,0.22265625 0.234375,0.22265625 0.070312,0 0.3398438,-0.0351563 0.3398438,-0.3984375 0,-0.44531245 -0.5039063,-0.59765625 -0.9257813,-0.59765625 -1.0898437,0 -1.2890625,0.796875 -1.2890625,1.0078125 0,0.2578125 0.1523438,0.43359375 0.2460938,0.515625 0.1757812,0.140625 0.3046875,0.1640625 0.7851562,0.24609375 0.1523438,0.0351563 0.5976563,0.1171875 0.5976563,0.46875 0,0.1171875 -0.082031,0.37500005 -0.375,0.55078125 -0.2695313,0.1523438 -0.609375,0.1523438 -0.6914063,0.1523438 -0.28125,0 -0.6796875,-0.058594 -0.84375,-0.2929688 0.234375,-0.023437 0.3867188,-0.19921875 0.3867188,-0.3984375 0,-0.1640625 -0.1289063,-0.2578125 -0.2695313,-0.2578125 -0.1992187,0 -0.4101562,0.1640625 -0.4101562,0.46875 0,0.421875 0.4453125,0.6796875 1.125,0.6796875 1.2890625,0 1.5234375,-0.87890625 1.5234375,-1.1484375 0,-0.64453125 -0.703125,-0.7734375 -0.9609375,-0.8203125 -0.070312,-0.0117188 -0.2460938,-0.0351563 -0.28125,-0.0585938 -0.2578125,-0.046875 -0.3867188,-0.1875 -0.3867188,-0.33984375 0,-0.1640625 0.1289063,-0.35156245 0.28125,-0.44531245 0.1875,-0.1289062 0.4335938,-0.140625 0.5507813,-0.140625 0.140625,0 0.5039062,0.023437 0.65625,0.2578125 z m 0,0"
         style="fill:#000000;fill-opacity:1;fill-rule:nonzero;stroke:none" />
      <path
         id="path29"
         d="M 14.766562,2.4955686 V 2.0971311 h -0.972656 v -9.1757812 h 0.972656 v -0.3984375 h -1.371093 v 9.9726562 z m 2.970704,-4.359375 v -0.5742187 h -2.648438 v 0.5742187 z m 2.14746,-5.6132812 h -1.359375 v 0.3984375 h 0.960938 v 9.1757812 h -0.960938 v 0.3984375 h 1.359375 z m 0,0"
         style="fill:#000000;fill-opacity:1;fill-rule:nonzero;stroke:none" />
    </g>
    <path
       id="path30"
       d="M 34.015748,35.48461 H 153.07087"
       style="fill:none;stroke:#808080;stroke-width:0.2;stroke-linecap:butt;stroke-linejoin:round;stroke-miterlimit:10;stroke-dasharray:0.74, 0.32;stroke-dashoffset:0;stroke-opacity:0.7"
       transform="matrix(1.3333333,0,0,-1.3333333,0,204.09449)"
       clip-path="url(#clipPath31)" />
    <path
       id="path32"
       d="m 34.015748,35.48461 h 3.5"
       style="fill:#000000;fill-opacity:1;fill-rule:nonzero;stroke:#000000;stroke-width:0.5;stroke-linecap:butt;stroke-linejoin:round;stroke-miterlimit:10;stroke-dasharray:none;stroke-opacity:1"
       transform="matrix(1.3333333,0,0,-1.3333333,0,204.09449)" />
    <path
       id="path33"
       d="m 3.9030051,-2.5421337 c 0,-0.8554687 -0.09375,-1.3710937 -0.3515625,-1.875 -0.3515625,-0.703125 -0.9960937,-0.8789062 -1.4414062,-0.8789062 -0.9960938,0 -1.37109377,0.75 -1.47656252,0.9726562 -0.29296875,0.5742188 -0.3046875,1.3710938 -0.3046875,1.78125 0,0.5273438 0.0234375,1.3359375 0.41015625,1.96875 0.36328127,0.5859375 0.94921877,0.73828125 1.37109377,0.73828125 0.3867187,0 1.0664062,-0.1171875 1.4648437,-0.90234375 0.2929688,-0.5742187 0.328125,-1.2890625 0.328125,-1.8046875 z m -1.7929687,2.484375 c -0.2695313,0 -0.8203125,-0.12890625 -0.984375,-0.9609375 -0.09375,-0.4570312 -0.09375,-1.2070312 -0.09375,-1.6171875 0,-0.5507812 0,-1.1132812 0.09375,-1.546875 0.1640625,-0.8085937 0.7851562,-0.890625 0.984375,-0.890625 0.2695312,0 0.8203125,0.1289063 0.984375,0.8554688 0.09375,0.4453125 0.09375,1.0429687 0.09375,1.5820312 0,0.46875 0,1.1835938 -0.09375,1.6289063 -0.1640625,0.84374995 -0.7148438,0.9492187 -0.984375,0.9492187 z m 0,0"
       style="fill:#000000;fill-opacity:1;fill-rule:nonzero;stroke:none"
       aria-label="0"
       transform="matrix(1.3333333,0,0,1.3333333,35.042087,160.47154)" />
    <path
       id="path34"
       d="M 34.015748,67.777722 H 153.07087"
       style="fill:none;stroke:#808080;stroke-width:0.2;stroke-linecap:butt;stroke-linejoin:round;stroke-miterlimit:10;stroke-dasharray:0.74, 0.32;stroke-dashoffset:0;stroke-opacity:0.7"
       transform="matrix(1.3333333,0,0,-1.3333333,0,204.09449)"
       clip-path="url(#clipPath35)" />
    <path
       id="path36"
       d="m 34.015748,67.777722 h 3.5"
       style="fill:#000000;fill-opacity:1;fill-rule:nonzero;stroke:#000000;stroke-width:0.5;stroke-linecap:butt;stroke-linejoin:round;stroke-miterlimit:10;stroke-dasharray:none;stroke-opacity:1"
       transform="matrix(1.3333333,0,0,-1.3333333,0,204.09449)" />
    <path
       id="path37"
       d="m 2.2493005,-1.6289039 c 0.1289063,-0.1171875 0.4570313,-0.375 0.5859375,-0.4921875 0.4921875,-0.4570313 0.9609375,-0.890625 0.9609375,-1.6171875 0,-0.9492188 -0.796875,-1.5585938 -1.7929687,-1.5585938 -0.9492188,0 -1.58203128,0.7265625 -1.58203128,1.4296875 0,0.3984375 0.31640625,0.4453125 0.421875,0.4453125 0.16406248,0 0.41015628,-0.1171875 0.41015628,-0.421875 0,-0.4101562 -0.39843753,-0.4101562 -0.49218753,-0.4101562 0.234375,-0.5859375 0.77343753,-0.7851563 1.16015623,-0.7851563 0.7382813,0 1.125,0.6328125 1.125,1.3007813 0,0.8320312 -0.5859375,1.4296875 -1.5234375,2.4023437 l -1.00781248,1.03125001 c -0.09375,0.09375 -0.09375,0.10546875 -0.09375,0.3046874998 H 3.5735193 L 3.7961755,-1.4296852 H 3.5500818 c -0.023437,0.1640625 -0.082031,0.56250001 -0.1757813,0.71484376 -0.046875,0.0585938 -0.65625,0.0585938 -0.7851562,0.0585938 H 1.1711755 Z m 5.8857422,-0.9140625 c 0,-0.8554688 -0.09375,-1.3710938 -0.3515625,-1.875 -0.3515625,-0.703125 -0.9960937,-0.8789063 -1.4414062,-0.8789063 -0.9960938,0 -1.3710938,0.75 -1.4765625,0.9726563 -0.2929688,0.5742187 -0.3046875,1.3710937 -0.3046875,1.78125 0,0.5273437 0.023437,1.3359375 0.4101562,1.96874996 0.3632813,0.5859375 0.9492188,0.73828125 1.3710938,0.73828125 0.3867187,0 1.0664062,-0.1171875 1.4648437,-0.90234375 0.2929688,-0.57421876 0.328125,-1.28906246 0.328125,-1.80468746 z M 6.342074,-0.05859144 c -0.2695313,0 -0.8203125,-0.12890625 -0.984375,-0.96093746 -0.09375,-0.4570313 -0.09375,-1.2070313 -0.09375,-1.6171875 0,-0.5507813 0,-1.1132813 0.09375,-1.546875 0.1640625,-0.8085938 0.7851562,-0.890625 0.984375,-0.890625 0.2695312,0 0.8203125,0.1289062 0.984375,0.8554687 0.09375,0.4453125 0.09375,1.0429688 0.09375,1.5820313 0,0.46875 0,1.1835937 -0.09375,1.6289062 -0.1640625,0.84375001 -0.7148438,0.94921876 -0.984375,0.94921876 z m 6.023437,-2.48437496 c 0,-0.8554688 -0.09375,-1.3710938 -0.351562,-1.875 -0.351563,-0.703125 -0.996094,-0.8789063 -1.441406,-0.8789063 -0.996094,0 -1.371094,0.75 -1.4765628,0.9726563 -0.2929687,0.5742187 -0.3046875,1.3710937 -0.3046875,1.78125 0,0.5273437 0.023437,1.3359375 0.4101563,1.96874996 0.3632812,0.5859375 0.949219,0.73828125 1.371094,0.73828125 0.386718,0 1.066406,-0.1171875 1.464843,-0.90234375 0.292969,-0.57421876 0.328125,-1.28906246 0.328125,-1.80468746 z m -1.792968,2.48437496 c -0.269532,0 -0.8203128,-0.12890625 -0.9843753,-0.96093746 -0.09375,-0.4570313 -0.09375,-1.2070313 -0.09375,-1.6171875 0,-0.5507813 0,-1.1132813 0.09375,-1.546875 0.1640625,-0.8085938 0.7851563,-0.890625 0.9843753,-0.890625 0.269531,0 0.820312,0.1289062 0.984375,0.8554687 0.09375,0.4453125 0.09375,1.0429688 0.09375,1.5820313 0,0.46875 0,1.1835937 -0.09375,1.6289062 -0.164063,0.84375001 -0.714844,0.94921876 -0.984375,0.94921876 z m 0,0"
       style="fill:#000000;fill-opacity:1;fill-rule:nonzero;stroke:none"
       aria-label="200"
       transform="matrix(1.3333333,0,0,1.3333333,23.750933,117.41406)" />
    <path
       id="path38"
       d="M 34.015748,100.07083 H 153.07087"
       style="fill:none;stroke:#808080;stroke-width:0.2;stroke-linecap:butt;stroke-linejoin:round;stroke-miterlimit:10;stroke-dasharray:0.74, 0.32;stroke-dashoffset:0;stroke-opacity:0.7"
       transform="matrix(1.3333333,0,0,-1.3333333,0,204.09449)"
       clip-path="url(#clipPath39)" />
    <path
       id="path40"
       d="m 34.015748,100.07083 h 3.5"
       style="fill:#000000;fill-opacity:1;fill-rule:nonzero;stroke:#000000;stroke-width:0.5;stroke-linecap:butt;stroke-linejoin:round;stroke-miterlimit:10;stroke-dasharray:none;stroke-opacity:1"
       transform="matrix(1.3333333,0,0,-1.3333333,0,204.09449)" />
    <path
       id="path41"
       d="m 3.1399255,-5.1570804 c 0,-0.1640625 0,-0.2226563 -0.1640625,-0.2226563 -0.1054687,0 -0.1171875,0.011719 -0.1992187,0.1171875 l -2.54296878,3.6914063 v 0.2578125 H 2.4836755 v 0.66796872 c 0,0.29296875 -0.023437,0.38671875 -0.6328125,0.38671875 h -0.1875 V -8.304323e-4 C 2.3430505,-0.02426793 2.3547693,-0.02426793 2.8118005,-0.02426793 c 0.4570313,0 0.46875,0 1.1484375,0.0234374977 V -0.25864293 h -0.1875 c -0.609375,0 -0.6328125,-0.09375 -0.6328125,-0.38671875 V -1.3133304 h 0.84375 v -0.2578125 h -0.84375 z m -0.5976562,0.6445312 v 2.9414063 H 0.51492552 Z m 5.5927734,1.96875 c 0,-0.8554687 -0.09375,-1.3710937 -0.3515625,-1.875 -0.3515625,-0.703125 -0.9960937,-0.8789062 -1.4414062,-0.8789062 -0.9960938,0 -1.3710938,0.75 -1.4765625,0.9726562 -0.2929688,0.5742188 -0.3046875,1.3710938 -0.3046875,1.78125 0,0.5273438 0.023437,1.3359375 0.4101562,1.96875002 0.3632813,0.5859375 0.9492188,0.73828125 1.3710938,0.73828125 0.3867187,0 1.0664062,-0.1171875 1.4648437,-0.90234375 0.2929688,-0.57421872 0.328125,-1.28906252 0.328125,-1.80468752 z M 6.342074,-0.05942418 c -0.2695313,0 -0.8203125,-0.12890625 -0.984375,-0.96093752 -0.09375,-0.4570312 -0.09375,-1.2070312 -0.09375,-1.6171875 0,-0.5507812 0,-1.1132812 0.09375,-1.546875 0.1640625,-0.8085937 0.7851562,-0.890625 0.984375,-0.890625 0.2695312,0 0.8203125,0.1289063 0.984375,0.8554688 0.09375,0.4453125 0.09375,1.0429687 0.09375,1.5820312 0,0.46875 0,1.1835938 -0.09375,1.6289063 -0.1640625,0.84374997 -0.7148438,0.94921872 -0.984375,0.94921872 z m 6.023437,-2.48437502 c 0,-0.8554687 -0.09375,-1.3710937 -0.351562,-1.875 -0.351563,-0.703125 -0.996094,-0.8789062 -1.441406,-0.8789062 -0.996094,0 -1.371094,0.75 -1.4765628,0.9726562 -0.2929687,0.5742188 -0.3046875,1.3710938 -0.3046875,1.78125 0,0.5273438 0.023437,1.3359375 0.4101563,1.96875002 0.3632812,0.5859375 0.949219,0.73828125 1.371094,0.73828125 0.386718,0 1.066406,-0.1171875 1.464843,-0.90234375 0.292969,-0.57421872 0.328125,-1.28906252 0.328125,-1.80468752 z m -1.792968,2.48437502 c -0.269532,0 -0.8203128,-0.12890625 -0.9843753,-0.96093752 -0.09375,-0.4570312 -0.09375,-1.2070312 -0.09375,-1.6171875 0,-0.5507812 0,-1.1132812 0.09375,-1.546875 0.1640625,-0.8085937 0.7851563,-0.890625 0.9843753,-0.890625 0.269531,0 0.820312,0.1289063 0.984375,0.8554688 0.09375,0.4453125 0.09375,1.0429687 0.09375,1.5820312 0,0.46875 0,1.1835938 -0.09375,1.6289063 -0.164063,0.84374997 -0.714844,0.94921872 -0.984375,0.94921872 z m 0,0"
       style="fill:#000000;fill-opacity:1;fill-rule:nonzero;stroke:none"
       aria-label="400"
       transform="matrix(1.3333333,0,0,1.3333333,23.750933,74.356576)" />
    <path
       id="path42"
       d="M 34.015748,132.36395 H 153.07087"
       style="fill:none;stroke:#808080;stroke-width:0.2;stroke-linecap:butt;stroke-linejoin:round;stroke-miterlimit:10;stroke-dasharray:0.74, 0.32;stroke-dashoffset:0;stroke-opacity:0.7"
       transform="matrix(1.3333333,0,0,-1.3333333,0,204.09449)"
       clip-path="url(#clipPath43)" />
    <path
       id="path44"
       d="m 34.015748,132.36395 h 3.5"
       style="fill:#000000;fill-opacity:1;fill-rule:nonzero;stroke:#000000;stroke-width:0.5;stroke-linecap:butt;stroke-linejoin:round;stroke-miterlimit:10;stroke-dasharray:none;stroke-opacity:1"
       transform="matrix(1.3333333,0,0,-1.3333333,0,204.09449)" />
    <path
       id="path45"
       d="m 1.100863,-2.6354522 c 0,-0.6679688 0.058594,-1.2421875 0.3398438,-1.734375 0.234375,-0.3984375 0.6445312,-0.7265625 1.1484375,-0.7265625 0.1640625,0 0.5273437,0.035156 0.7148437,0.3046875 -0.3632812,0.023437 -0.3984375,0.2929687 -0.3984375,0.375 0,0.2460937 0.1875,0.375 0.375,0.375 0.140625,0 0.375,-0.082031 0.375,-0.3867188 0,-0.4804687 -0.3515625,-0.8671875 -1.078125,-0.8671875 -1.1015625,0 -2.22656248,1.0546875 -2.22656248,2.765625 0,2.16796876 1.00781248,2.69531251 1.78124998,2.69531251 0.375,0 0.796875,-0.10546875 1.1484375,-0.4453125 0.3164063,-0.3046875 0.5859375,-0.64453125 0.5859375,-1.33593751 0,-1.0429687 -0.7851562,-1.78125 -1.6640625,-1.78125 -0.5742187,0 -0.9257812,0.375 -1.1015625,0.7617188 z m 1.03125,2.56640621 c -0.421875,0 -0.6914062,-0.29296875 -0.8085937,-0.515625 -0.1875,-0.36328125 -0.1992188,-0.90234371 -0.1992188,-1.20703121 0,-0.7851563 0.4335938,-1.3828125 1.0429688,-1.3828125 0.3984375,0 0.6328125,0.2109375 0.7851562,0.4921875 0.1757813,0.2929687 0.1757813,0.65625 0.1757813,1.0546875 0,0.4101562 0,0.76171871 -0.1640625,1.04296871 -0.2109375,0.375 -0.4921875,0.515625 -0.8320313,0.515625 z M 8.1350427,-2.5417022 c 0,-0.8554688 -0.09375,-1.3710938 -0.3515625,-1.875 -0.3515625,-0.703125 -0.9960937,-0.8789063 -1.4414062,-0.8789063 -0.9960938,0 -1.3710938,0.75 -1.4765625,0.9726563 -0.2929688,0.5742187 -0.3046875,1.3710937 -0.3046875,1.78125 0,0.5273437 0.023437,1.3359375 0.4101562,1.96874996 0.3632813,0.5859375 0.9492188,0.73828125 1.3710938,0.73828125 0.3867187,0 1.0664062,-0.1171875 1.4648437,-0.90234375 0.2929688,-0.57421876 0.328125,-1.28906246 0.328125,-1.80468746 z M 6.342074,-0.05732724 c -0.2695313,0 -0.8203125,-0.12890625 -0.984375,-0.96093746 -0.09375,-0.4570313 -0.09375,-1.2070313 -0.09375,-1.6171875 0,-0.5507813 0,-1.1132813 0.09375,-1.546875 0.1640625,-0.8085938 0.7851562,-0.890625 0.984375,-0.890625 0.2695312,0 0.8203125,0.1289062 0.984375,0.8554687 0.09375,0.4453125 0.09375,1.0429688 0.09375,1.5820313 0,0.46875 0,1.1835937 -0.09375,1.6289062 -0.1640625,0.84375001 -0.7148438,0.94921876 -0.984375,0.94921876 z m 6.023437,-2.48437496 c 0,-0.8554688 -0.09375,-1.3710938 -0.351562,-1.875 -0.351563,-0.703125 -0.996094,-0.8789063 -1.441406,-0.8789063 -0.996094,0 -1.371094,0.75 -1.4765628,0.9726563 -0.2929687,0.5742187 -0.3046875,1.3710937 -0.3046875,1.78125 0,0.5273437 0.023437,1.3359375 0.4101563,1.96874996 0.3632812,0.5859375 0.949219,0.73828125 1.371094,0.73828125 0.386718,0 1.066406,-0.1171875 1.464843,-0.90234375 0.292969,-0.57421876 0.328125,-1.28906246 0.328125,-1.80468746 z m -1.792968,2.48437496 c -0.269532,0 -0.8203128,-0.12890625 -0.9843753,-0.96093746 -0.09375,-0.4570313 -0.09375,-1.2070313 -0.09375,-1.6171875 0,-0.5507813 0,-1.1132813 0.09375,-1.546875 0.1640625,-0.8085938 0.7851563,-0.890625 0.9843753,-0.890625 0.269531,0 0.820312,0.1289062 0.984375,0.8554687 0.09375,0.4453125 0.09375,1.0429688 0.09375,1.5820313 0,0.46875 0,1.1835937 -0.09375,1.6289062 -0.164063,0.84375001 -0.714844,0.94921876 -0.984375,0.94921876 z m 0,0"
       style="fill:#000000;fill-opacity:1;fill-rule:nonzero;stroke:none"
       aria-label="600"
       transform="matrix(1.3333333,0,0,1.3333333,23.750933,31.299093)" />
    <path
       id="path46"
       d="m 5.1550609,-3.714141 c 0.1289063,0 0.4921875,0 0.4921875,-0.3398438 0,-0.234375 -0.2109375,-0.234375 -0.3867187,-0.234375 H 2.9870922 c -1.5,0 -2.61328127,1.640625 -2.61328127,2.8242188 0,0.87890623 0.5859375,1.57031248 1.49999997,1.57031248 1.171875,0 2.4960938,-1.20703128 2.4960938,-2.73046878 0,-0.1757812 0,-0.65625 -0.3046875,-1.0898437 z m -3.2695312,3.60937498 c -0.4921875,0 -0.89062502,-0.36328125 -0.89062502,-1.07812498 0,-0.3046875 0.11718752,-1.1132813 0.46875002,-1.7109375 0.421875,-0.6796875 1.0195312,-0.8203125 1.359375,-0.8203125 0.8320312,0 0.9140625,0.65625 0.9140625,0.9609375 0,0.46875 -0.1992188,1.2890625 -0.5390625,1.79296873 -0.3867188,0.59765625 -0.9257813,0.85546875 -1.3125,0.85546875 z m 0,0"
       style="fill:#000000;fill-opacity:1;fill-rule:nonzero;stroke:none"
       aria-label="σ"
       transform="matrix(0,-1.3333333,1.3333333,0,15.096719,124.13123)" />
    <path
       id="path47"
       d="M 2.5427568,2.4967965 V 2.098359 H 1.5701006 V -7.0774223 H 2.5427568 V -7.4758598 H 1.1716631 V 2.4967965 Z M 5.0681475,-6.6789848 C 4.9861162,-6.7961723 4.9743975,-6.807891 4.7868975,-6.807891 H 3.0876787 v 0.3164062 h 0.2929688 c 0.140625,0 0.3398437,0.011719 0.4921875,0.011719 0.234375,0.035156 0.2460937,0.046875 0.2460937,0.234375 v 5.203125 c 0,0.26953123 0,0.73828123 -1.03125,0.73828123 V 7.027293e-4 C 3.4392412,-0.01101602 3.91971,-0.03445352 4.2595537,-0.03445352 c 0.328125,0 0.8085938,0.0234375 1.1601563,0.0351562493 V -0.30398477 c -1.03125,0 -1.03125,-0.46875 -1.03125,-0.73828123 v -5.1796875 c 0.058594,0.046875 0.070312,0.058594 0.1054687,0.1171875 l 4.0664063,5.97656248 c 0.082031,0.1171875 0.09375,0.1289062493 0.1640625,0.1289062493 0.140625,0 0.140625,-0.0703124993 0.140625,-0.2578124993 V -5.7532035 c 0,-0.2695313 0,-0.7382813 1.03125,-0.7382813 V -6.807891 c -0.3515625,0.011719 -0.84375,0.035156 -1.171875,0.035156 -0.328125,0 -0.8203125,-0.023437 -1.1601563,-0.035156 v 0.3164062 c 1.0195313,0 1.0195313,0.46875 1.0195313,0.7382813 v 4.2539062 z M 14.589632,-7.089141 c 0.05859,-0.1289063 0.05859,-0.1640625 0.05859,-0.1875 0,-0.1054688 -0.09375,-0.1992188 -0.199219,-0.1992188 -0.140625,0 -0.1875,0.1054688 -0.210938,0.1992188 l -3.398437,9.3867187 c -0.04687,0.1289063 -0.04687,0.1640625 -0.04687,0.1875 0,0.1054688 0.08203,0.1992188 0.199219,0.1992188 0.140625,0 0.175781,-0.1054688 0.199218,-0.1992188 z m 1.725586,3.6679687 v 2.66015628 c 0,0.45703125 -0.117188,0.45703125 -0.785156,0.45703125 V 7.027293e-4 c 0.351562,-0.0117187493 0.855468,-0.0351562493 1.125,-0.0351562493 0.257812,0 0.785156,0.0234375 1.113281,0.0351562493 V -0.30398477 c -0.65625,0 -0.773438,0 -0.773438,-0.45703125 V -2.589141 c 0,-1.03125 0.714844,-1.59375 1.347657,-1.59375 0.621093,0 0.738281,0.5390625 0.738281,1.1015625 v 2.32031248 c 0,0.45703125 -0.117188,0.45703125 -0.773438,0.45703125 V 7.027293e-4 c 0.339844,-0.0117187493 0.855469,-0.0351562493 1.125,-0.0351562493 0.257813,0 0.773438,0.0234375 1.113282,0.0351562493 V -0.30398477 c -0.667969,0 -0.785157,0 -0.785157,-0.45703125 V -2.589141 c 0,-1.03125 0.714844,-1.59375 1.347657,-1.59375 0.632812,0 0.738281,0.5390625 0.738281,1.1015625 v 2.32031248 c 0,0.45703125 -0.105469,0.45703125 -0.773438,0.45703125 V 7.027293e-4 c 0.351563,-0.0117187493 0.855469,-0.0351562493 1.125,-0.0351562493 0.257813,0 0.773438,0.0234375 1.113282,0.0351562493 V -0.30398477 c -0.515625,0 -0.761719,0 -0.773438,-0.3046875 V -2.5071098 c 0,-0.8554687 0,-1.171875 -0.316406,-1.5234375 -0.128906,-0.1757812 -0.46875,-0.375 -1.042969,-0.375 -0.832031,0 -1.277344,0.5976563 -1.441406,0.984375 -0.140625,-0.8671875 -0.878906,-0.984375 -1.324219,-0.984375 -0.726562,0 -1.195312,0.4335938 -1.476562,1.0546875 v -1.0546875 l -1.40625,0.1171875 v 0.3046875 c 0.703125,0 0.785156,0.070312 0.785156,0.5625 z m 8.296875,0 v 2.66015628 c 0,0.45703125 -0.117188,0.45703125 -0.785156,0.45703125 V 7.027293e-4 c 0.351562,-0.0117187493 0.855468,-0.0351562493 1.125,-0.0351562493 0.257812,0 0.785156,0.0234375 1.113281,0.0351562493 V -0.30398477 c -0.65625,0 -0.773438,0 -0.773438,-0.45703125 V -2.589141 c 0,-1.03125 0.714844,-1.59375 1.347657,-1.59375 0.621093,0 0.738281,0.5390625 0.738281,1.1015625 v 2.32031248 c 0,0.45703125 -0.117188,0.45703125 -0.773438,0.45703125 V 7.027293e-4 c 0.339844,-0.0117187493 0.855469,-0.0351562493 1.125,-0.0351562493 0.257813,0 0.773438,0.0234375 1.113282,0.0351562493 V -0.30398477 c -0.667969,0 -0.785157,0 -0.785157,-0.45703125 V -2.589141 c 0,-1.03125 0.714844,-1.59375 1.347657,-1.59375 0.632812,0 0.738281,0.5390625 0.738281,1.1015625 v 2.32031248 c 0,0.45703125 -0.105469,0.45703125 -0.773438,0.45703125 V 7.027293e-4 c 0.351563,-0.0117187493 0.855469,-0.0351562493 1.125,-0.0351562493 0.257813,0 0.773438,0.0234375 1.113282,0.0351562493 V -0.30398477 c -0.515625,0 -0.761719,0 -0.773438,-0.3046875 V -2.5071098 c 0,-0.8554687 0,-1.171875 -0.316406,-1.5234375 -0.128906,-0.1757812 -0.46875,-0.375 -1.042969,-0.375 -0.832031,0 -1.277344,0.5976563 -1.441406,0.984375 -0.140625,-0.8671875 -0.878906,-0.984375 -1.324219,-0.984375 -0.726562,0 -1.195312,0.4335938 -1.476562,1.0546875 v -1.0546875 l -1.40625,0.1171875 v 0.3046875 c 0.703125,0 0.785156,0.070312 0.785156,0.5625 z m 0,0"
       style="fill:#000000;fill-opacity:1;fill-rule:nonzero;stroke:none"
       aria-label="[N/mm"
       transform="matrix(0,-1.3333333,1.3333333,0,15.096719,111.63644)" />
    <path
       id="path48"
       d="M 3.5154186,-1.2647928 H 3.2810436 C 3.2576061,-1.112449 3.1990123,-0.70229275 3.1052623,-0.63198025 3.0466686,-0.596824 2.5076061,-0.596824 2.4138561,-0.596824 H 1.1247936 c 0.7382812,-0.6445313 0.984375,-0.84375 1.3945312,-1.171875 0.515625,-0.4101563 0.9960938,-0.84375 0.9960938,-1.5 0,-0.84375 -0.7382813,-1.359375 -1.6289063,-1.359375 -0.8671875,0 -1.45312498,0.609375 -1.45312498,1.2421875 0,0.3632812 0.3046875,0.3984375 0.375,0.3984375 0.1640625,0 0.37499998,-0.1171875 0.37499998,-0.375 0,-0.1289063 -0.058594,-0.3632813 -0.42187498,-0.3632813 0.22265625,-0.5039062 0.69140628,-0.65625 1.01953128,-0.65625 0.703125,0 1.0664062,0.5507813 1.0664062,1.1132813 0,0.609375 -0.4335937,1.0898437 -0.65625,1.3359375 L 0.50369982,-0.268699 c -0.0703125,0.0585938 -0.0703125,0.0703125 -0.0703125,0.2695312485 H 3.3161998 Z m 0,0"
       style="fill:#000000;fill-opacity:1;fill-rule:nonzero;stroke:none"
       aria-label="2"
       transform="matrix(0,-1.3333333,1.3333333,0,10.276234,69.20285)" />
    <path
       id="path49"
       d="M 1.5831583,-7.4758598 H 0.22378332 v 0.3984375 H 1.1847208 V 2.098359 H 0.22378332 V 2.4967965 H 1.5831583 Z m 0,0"
       style="fill:#000000;fill-opacity:1;fill-rule:nonzero;stroke:none"
       aria-label="]"
       transform="matrix(0,-1.3333333,1.3333333,0,15.096719,63.24369)" />
    <path
       id="path50"
       d="m 39.427344,35.48461 2.954065,71.94906 102.302391,18.2456"
       style="fill:none;stroke:#000000;stroke-width:0.7;stroke-linecap:square;stroke-linejoin:round;stroke-miterlimit:10;stroke-dasharray:none;stroke-opacity:1"
       transform="matrix(1.3333333,0,0,-1.3333333,0,204.09449)"
       clip-path="url(#clipPath51)" />
    <path
       id="path52"
       d="m 42.836224,105.89418 2.13055,8.20563 2.982769,3.17637 5.965539,4.49986 3.83499,1.85288 9.374419,3.44108 5.113319,0.79409 9.800529,2.11758 10.226638,1.58818 7.669979,0.7941 5.965544,0.26469 h 5.53943 l 5.53942,0.2647 h 12.7833 l 5.96554,-0.52939 h 6.81776 l 3.40888,-2.91168 0.85222,-2.91167 0.85222,-2.38228"
       style="fill:none;stroke:#808080;stroke-width:0.7;stroke-linecap:square;stroke-linejoin:round;stroke-miterlimit:10;stroke-dasharray:none;stroke-opacity:0.5"
       transform="matrix(1.3333333,0,0,-1.3333333,0,204.09449)"
       clip-path="url(#clipPath53)" />
    <path
       id="path54"
       d="M 34.015748,30.614173 V 137.76378"
       style="fill:none;stroke:#000000;stroke-width:0.5;stroke-linecap:square;stroke-linejoin:miter;stroke-miterlimit:10;stroke-dasharray:none;stroke-opacity:1"
       transform="matrix(1.3333333,0,0,-1.3333333,0,204.09449)" />
    <path
       id="path55"
       d="M 153.07087,30.614173 V 137.76378"
       style="fill:none;stroke:#000000;stroke-width:0.5;stroke-linecap:square;stroke-linejoin:miter;stroke-miterlimit:10;stroke-dasharray:none;stroke-opacity:1"
       transform="matrix(1.3333333,0,0,-1.3333333,0,204.09449)" />
    <path
       id="path56"
       d="M 34.015748,30.614173 H 153.07087"
       style="fill:none;stroke:#000000;stroke-width:0.5;stroke-linecap:square;stroke-linejoin:miter;stroke-miterlimit:10;stroke-dasharray:none;stroke-opacity:1"
       transform="matrix(1.3333333,0,0,-1.3333333,0,204.09449)" />
    <path
       id="path57"
       d="M 34.015748,137.76378 H 153.07087"
       style="fill:none;stroke:#000000;stroke-width:0.5;stroke-linecap:square;stroke-linejoin:miter;stroke-miterlimit:10;stroke-dasharray:none;stroke-opacity:1"
       transform="matrix(1.3333333,0,0,-1.3333333,0,204.09449)" />
  </g>
</svg>
