<?xml version="1.0" encoding="UTF-8" standalone="no"?>
<!-- Created with Inkscape (http://www.inkscape.org/) -->

<svg
   version="1.1"
   id="svg1"
   width="566.92932"
   height="181.41733"
   viewBox="0 0 566.92932 181.41733"
   sodipodi:docname="tho_q_w.pdf"
   xmlns:inkscape="http://www.inkscape.org/namespaces/inkscape"
   xmlns:sodipodi="http://sodipodi.sourceforge.net/DTD/sodipodi-0.dtd"
   xmlns="http://www.w3.org/2000/svg"
   xmlns:svg="http://www.w3.org/2000/svg">
  <defs
     id="defs1">
    <clipPath
       clipPathUnits="userSpaceOnUse"
       id="clipPath11">
      <path
         d="M -0.00426,-0.00136 V 136.06436 H 425.20111 V -0.00136 H -0.00426"
         transform="matrix(1,0,0,-1,-63.972251,108.93914)"
         clip-rule="evenodd"
         id="path11" />
    </clipPath>
    <clipPath
       clipPathUnits="userSpaceOnUse"
       id="clipPath12">
      <path
         d="M -0.00426,-0.00136 V 136.06436 H 425.20111 V -0.00136 H -0.00426"
         transform="matrix(1,0,0,-1,-360.54786,8.6561427)"
         clip-rule="evenodd"
         id="path12" />
    </clipPath>
    <clipPath
       clipPathUnits="userSpaceOnUse"
       id="clipPath13">
      <path
         d="M -0.00426,-0.00136 V 136.06436 H 425.20111 V -0.00136 H -0.00426"
         transform="matrix(1,0,0,-1,-369.1322,4.5222776)"
         clip-rule="evenodd"
         id="path13" />
    </clipPath>
    <clipPath
       clipPathUnits="userSpaceOnUse"
       id="clipPath14">
      <path
         d="M -0.00426,-0.00136 V 136.06436 H 425.20111 V -0.00136 H -0.00426"
         transform="matrix(1,0,0,-1,-289.62265,8.6561427)"
         clip-rule="evenodd"
         id="path14" />
    </clipPath>
    <clipPath
       clipPathUnits="userSpaceOnUse"
       id="clipPath15">
      <path
         d="M -0.00426,-0.00136 V 136.06436 H 425.20111 V -0.00136 H -0.00426"
         transform="matrix(1,0,0,-1,-18.70972,97.362702)"
         clip-rule="evenodd"
         id="path15" />
    </clipPath>
    <clipPath
       clipPathUnits="userSpaceOnUse"
       id="clipPath16">
      <path
         d="M -0.00426,-0.00136 V 136.06436 H 425.20111 V -0.00136 H -0.00426"
         transform="matrix(1,0,0,-1,-50.662012,8.6561427)"
         clip-rule="evenodd"
         id="path16" />
    </clipPath>
    <clipPath
       clipPathUnits="userSpaceOnUse"
       id="clipPath17">
      <path
         d="M -0.00426,-0.00136 V 136.06436 H 425.20111 V -0.00136 H -0.00426"
         transform="matrix(1,0,0,-1,-238.1467,122.73333)"
         clip-rule="evenodd"
         id="path17" />
    </clipPath>
    <clipPath
       clipPathUnits="userSpaceOnUse"
       id="clipPath18">
      <path
         d="M -0.00426,-0.00136 V 136.06436 H 425.20111 V -0.00136 H -0.00426"
         transform="matrix(1,0,0,-1,-164.71323,8.6561427)"
         clip-rule="evenodd"
         id="path18" />
    </clipPath>
    <clipPath
       clipPathUnits="userSpaceOnUse"
       id="clipPath19">
      <path
         d="M -0.00426,-0.00136 V 136.06436 H 425.20111 V -0.00136 H -0.00426"
         transform="matrix(1,0,0,-1,-288.04293,69.305532)"
         clip-rule="evenodd"
         id="path19" />
    </clipPath>
    <clipPath
       clipPathUnits="userSpaceOnUse"
       id="clipPath20">
      <path
         d="M -0.00426,-0.00136 V 136.06436 H 425.20111 V -0.00136 H -0.00426"
         transform="matrix(1,0,0,-1,-288.04293,57.966949)"
         clip-rule="evenodd"
         id="path20" />
    </clipPath>
    <clipPath
       clipPathUnits="userSpaceOnUse"
       id="clipPath21">
      <path
         d="M -0.00426,-0.00136 V 136.06436 H 425.20111 V -0.00136 H -0.00426"
         transform="matrix(1,0,0,-1,-60.862661,33.495858)"
         clip-rule="evenodd"
         id="path21" />
    </clipPath>
    <clipPath
       clipPathUnits="userSpaceOnUse"
       id="clipPath22">
      <path
         d="M -0.00426,-0.00136 V 136.06436 H 425.20111 V -0.00136 H -0.00426"
         transform="matrix(1,0,0,-1,-66.826532,67.058421)"
         clip-rule="evenodd"
         id="path22" />
    </clipPath>
    <clipPath
       clipPathUnits="userSpaceOnUse"
       id="clipPath23">
      <path
         d="M -0.00426,-0.00136 V 136.06436 H 425.20111 V -0.00136 H -0.00426"
         transform="matrix(1,0,0,-1,-63.084761,49.786144)"
         clip-rule="evenodd"
         id="path23" />
    </clipPath>
    <clipPath
       clipPathUnits="userSpaceOnUse"
       id="clipPath24">
      <path
         d="M -0.00426,-0.00136 V 136.06436 H 425.20111 V -0.00136 H -0.00426"
         transform="matrix(1,0,0,-1,-108.43626,82.553152)"
         clip-rule="evenodd"
         id="path24" />
    </clipPath>
    <clipPath
       clipPathUnits="userSpaceOnUse"
       id="clipPath25">
      <path
         d="M -0.00426,-0.00136 V 136.06436 H 425.20111 V -0.00136 H -0.00426"
         transform="matrix(1,0,0,-1,-187.24161,102.60558)"
         clip-rule="evenodd"
         id="path25" />
    </clipPath>
  </defs>
  <sodipodi:namedview
     id="namedview1"
     pagecolor="#ffffff"
     bordercolor="#000000"
     borderopacity="0.25"
     inkscape:showpageshadow="2"
     inkscape:pageopacity="0.0"
     inkscape:pagecheckerboard="0"
     inkscape:deskcolor="#d1d1d1">
    <inkscape:page
       x="0"
       y="0"
       inkscape:label="1"
       id="page1"
       width="566.92932"
       height="181.41733"
       margin="0"
       bleed="0" />
  </sodipodi:namedview>
  <g
     id="g1"
     inkscape:groupmode="layer"
     inkscape:label="1">
    <path
       id="path1"
       d="M 306.6456,19.68787 V 16.85323 M 56.82675,99.22321 h -2.83464 m 2.83464,-79.53534 h -2.83464 m 127.74407,0 v -2.83464 m -124.90943,2.83464 0.11814,1.54519 m 0.21606,2.8264 0.3241,4.2396 m -0.6583,-8.61119 v 0 m 0.68071,8.90442 v 0 4.00614 m 0,2.83464 v 0.44465 m 0,-7.28543 v 0 m 0,7.28543 v 0 m 0.04439,0.09677 1.77269,3.8648 m -1.81708,-3.96157 v 0 m 2.72283,5.93628 v 0 m 0.10818,0.90057 0.50714,4.2216 M 60.23029,41.814 v 0 m 0.68069,5.66645 v 0 l 0.03201,0.07296 m 1.13887,2.59581 1.55194,3.53733 m -2.72282,-6.2061 v 0 m 2.72282,6.2061 v 0 m 1.38851,1.30721 3.09587,2.91458 M 63.6338,53.68655 v 0 m 5.44565,5.12679 v 0 m 1.06752,0.96173 3.15905,2.84601 m 2.10601,1.89732 1.15518,1.04071 m -7.48776,-6.74577 v 0 m 7.48776,6.74577 v 0 m -0.6807,-15.11053 0.0021,0.04567 m 0.12756,2.83177 0.19134,4.24765 m 0.12757,2.83177 0.19136,4.24767 M 75.88655,50.44858 v 0 m 0.6807,15.11053 v 0 m -10.66162,-43.59678 1.40598,4.01278 m 0.93733,2.67519 1.40598,4.01279 m 0.93733,2.67518 1.40599,4.01279 m 0.93732,2.67519 1.40599,4.01278 m 0.93731,2.67519 0.60769,1.73436 M 65.67597,21.30685 v 0 m 10.21058,29.14173 v 0 m -9.56908,-27.15161 1.30452,4.0469 m 0.86966,2.69795 1.30452,4.04691 m 0.86966,2.69794 1.30452,4.04692 m 0.86966,2.69793 1.30452,4.04693 m 0.86965,2.69793 1.30452,4.04691 m 0.86966,2.69795 1.30452,4.04691 m 0.86966,2.69793 1.30452,4.04692 M 65.67597,21.30685 v 0 M 81.33219,69.8764 v 0"
       style="fill:none;stroke:#000000;stroke-width:0.3685;stroke-linecap:round;stroke-linejoin:round;stroke-miterlimit:10;stroke-dasharray:none;stroke-opacity:1"
       transform="matrix(1.3333333,0,0,-1.3333333,0,181.41733)" />
    <path
       id="path2"
       d="m 81.89229,70.57425 2.6616,3.31589 M 81.33215,69.8764 v 0 m 4.76493,5.93628 v 0 l 2.40762,1.90876 m 2.22127,1.76101 0.13604,0.10787 m -4.76493,-3.77764 v 0 m 4.76493,3.77764 v 0 m 0.36973,0.25647 3.49366,2.42355 m -3.86339,-2.68002 v 0 m 5.44565,3.77763 v 0 m 1.5185,0.94051 3.61476,2.23889 m 2.40985,1.4926 3.34819,2.07377 m -10.8913,-6.74577 v 0 m 10.8913,6.74577 v 0 l 0.15068,-0.57739 m 0.71577,-2.74278 1.07369,-4.11418 m -1.94014,7.43435 v 0 m 2.04211,-7.8251 v 0 m 1.15453,2.05945 2.07922,3.70891 m -3.23375,-5.76836 v 0 m 4.08422,7.28543 v 0 l 1.21394,1.01053 m 2.17859,1.81354 3.26788,2.72032 m -6.66041,-5.54439 v 0 m 6.80705,5.66644 v 0 l 2.37709,0.76281 m 2.69908,0.86612 4.04863,1.29917 m 2.6991,0.86612 2.47091,0.79293 m -14.29481,-4.58715 v 0 m 14.29481,4.58715 v 0 m 2.26035,0.52705 4.1409,0.96555 m 2.76059,0.6437 2.41016,0.562 m -11.572,-2.6983 v 0 m 11.572,2.6983 v 0 l 1.29769,0.31175 m 2.7562,0.66216 4.13434,0.99324 m 2.75622,0.66217 4.13434,0.99324 m 2.75623,0.66215 4.13434,0.99324 m -21.96936,-5.27795 v 0 m 22.46328,5.39662 v 0 m -1.36142,-5.93629 0.47821,2.08519 m 0.63364,2.76292 0.24957,1.08818 m -1.36142,-5.93629 v 0 m 1.36142,5.93629 v 0 m -1.36142,-5.93629 0.66718,0.50689 m 2.25711,1.71488 3.38562,2.57228 m -6.30991,-4.79405 v 0 m 8.16846,6.20611 v 0 m 1.85806,0.28058 4.20432,0.63489 m 2.80285,0.42326 4.20429,0.63489"
       style="fill:none;stroke:#000000;stroke-width:0.3685;stroke-linecap:round;stroke-linejoin:round;stroke-miterlimit:10;stroke-dasharray:none;stroke-opacity:1"
       transform="matrix(1.3333333,0,0,-1.3333333,0,181.41733)" />
    <path
       id="path3"
       d="m 175.26947,108.19238 v 0 m 14.29483,2.15865 v 0 m 2.12094,0.30572 4.20847,0.60663 m 2.80566,0.40442 4.20847,0.60663 m -13.34354,-1.9234 v 0 m 14.97549,2.15864 v 0 l 0.0305,0.004 m 2.81314,0.34846 4.21973,0.52272 m 2.81314,0.34848 1.0148,0.12571 m -10.8913,-1.34916 v 0 m 10.8913,1.34916 v 0 m 0,-11.87256 v 1.4783 m 0,2.83464 v 4.25197 m 0,2.83465 v 0.473 m 0,-11.87256 v 0 m 0,11.87256 v 0 m 0,-11.87256 2.05939,2.99324 m 1.60672,2.33531 0.41812,0.60774 m -4.08423,-5.93629 v 0 m 4.08423,5.93629 v 0 l 0.38589,0.32292 m 2.17389,1.8192 3.26081,2.72879 m -5.82059,-4.87091 v 0 m 6.12634,5.12677 v 0 l 1.44174,0.52754 m 2.66205,0.97406 3.99304,1.46109 m -8.09683,-2.96269 v 0 m 8.84918,3.23798 v 0 l 3.15513,0.2207 m 2.82772,0.19782 4.24161,0.2967 m -10.22446,-0.71522 v 0 m 11.572,0.80949 v 0 m 1.96865,0 h 4.25199 m 2.83462,0 h 4.25199 m -13.30725,0 v 0 m 15.65618,0 v 0 l 0.29242,-0.006 m 2.83396,-0.0624 4.25094,-0.0936 m 2.83396,-0.0624 2.04144,-0.045 m -12.25272,0.26982 v 0 m 12.25272,-0.26982 v 0 l 0.76538,-0.0892 m 2.81558,-0.32827 4.22336,-0.4924 m 2.81558,-0.32826 0.95209,-0.11099 m -11.57199,1.34915 v 0 m 11.57199,-1.34915 v 0 l 3.27127,-0.38139 m 2.81558,-0.32827 4.22336,-0.4924 m -10.31021,1.20206 v 0 m 11.57199,-1.34917 v 0"
       style="fill:none;stroke:#000000;stroke-width:0.3685;stroke-linecap:round;stroke-linejoin:round;stroke-miterlimit:10;stroke-dasharray:none;stroke-opacity:1"
       transform="matrix(1.3333333,0,0,-1.3333333,0,181.41733)" />
    <path
       id="path4"
       d="m 297.11572,114.12866 1.23255,-0.32571 m 2.74054,-0.72425 4.11087,-1.08634 m 2.74054,-0.72425 1.42819,-0.37742 m -12.25269,3.23797 v 0 m 12.25269,-3.23797 v 0 M 271.03503,61.08507 h 11.3386 m -11.3386,11.05511 h 2.22483 m 2.2677,0 h 2.83465 m 2.2677,0 h 1.74372 m -11.3386,0 v 0 m 11.3386,0 v 0 M 56.82675,19.68787 v -2.83464"
       style="fill:none;stroke:#000000;stroke-width:0.3685;stroke-linecap:round;stroke-linejoin:round;stroke-miterlimit:10;stroke-dasharray:none;stroke-opacity:1"
       transform="matrix(1.3333333,0,0,-1.3333333,0,181.41733)" />
    <path
       id="path5"
       d="m 56.82675,19.68787 1.44275,17.24858 0.96184,9.26098 0.96182,6.74747 0.96182,4.57521 0.96184,3.37433 0.96184,2.3625 0.96182,1.6955 0.96184,1.41488 1.44275,1.62653 6.73282,5.94968 1.92364,1.69073 4.32825,3.79047 4.80916,3.87253 1.92366,1.28172 1.92366,0.87152 3.36641,1.26627 3.36641,1.07008 5.77098,1.54211 5.29005,1.16996 6.73282,1.22346 10.58015,1.67171 12.98472,1.78348 14.90838,1.80844 6.04578,0.67177 12.36642,1.08079 6.18317,0.47737 6.1832,0.47739"
       style="fill:none;stroke:#7f7f7f;stroke-width:0.70866;stroke-linecap:round;stroke-linejoin:round;stroke-miterlimit:10;stroke-dasharray:none;stroke-opacity:1"
       transform="matrix(1.3333333,0,0,-1.3333333,0,181.41733)" />
    <path
       id="path6"
       d="m 59.2482,31.6926 c 0,0.78276 -0.63455,1.41732 -1.41731,1.41732 m 0,0 c -0.78278,0 -1.41733,-0.63456 -1.41733,-1.41732 m 0,0 c 0,-0.78276 0.63455,-1.41733 1.41733,-1.41733 m 0,0 c 0.78276,0 1.41731,0.63457 1.41731,1.41733"
       style="fill:none;stroke:#000000;stroke-width:0.3685;stroke-linecap:round;stroke-linejoin:round;stroke-miterlimit:10;stroke-dasharray:none;stroke-opacity:1"
       transform="matrix(1.3333333,0,0,-1.3333333,0,181.41733)" />
    <path
       id="path7"
       d="m 62.57231,57.52011 c 0,0.78276 -0.63455,1.41733 -1.41733,1.41733 m 0,0 c -0.78276,0 -1.41731,-0.63457 -1.41731,-1.41733 m 0,0 c 0,-0.78276 0.63455,-1.41733 1.41731,-1.41733 m 0,0 c 0.78278,0 1.41733,0.63457 1.41733,1.41733"
       style="fill:none;stroke:#000000;stroke-width:0.3685;stroke-linecap:round;stroke-linejoin:round;stroke-miterlimit:10;stroke-dasharray:none;stroke-opacity:1"
       transform="matrix(1.3333333,0,0,-1.3333333,0,181.41733)" />
    <path
       id="path8"
       d="m 65.45781,64.95244 c 0,0.78276 -0.63455,1.41733 -1.41733,1.41733 m 0,0 c -0.78276,0 -1.41731,-0.63457 -1.41731,-1.41733 m 0,0 c 0,-0.78276 0.63455,-1.41733 1.41731,-1.41733 m 0,0 c 0.78278,0 1.41733,0.63457 1.41733,1.41733"
       style="fill:none;stroke:#000000;stroke-width:0.3685;stroke-linecap:round;stroke-linejoin:round;stroke-miterlimit:10;stroke-dasharray:none;stroke-opacity:1"
       transform="matrix(1.3333333,0,0,-1.3333333,0,181.41733)" />
    <path
       id="path9"
       d="m 108.26842,90.67537 c 0,0.78276 -0.63457,1.41731 -1.41733,1.41731 m 0,0 c -0.78276,0 -1.41733,-0.63455 -1.41733,-1.41731 m 0,0 c 0,-0.78278 0.63457,-1.41733 1.41733,-1.41733 m 0,0 c 0.78276,0 1.41733,0.63455 1.41733,1.41733"
       style="fill:none;stroke:#000000;stroke-width:0.3685;stroke-linecap:round;stroke-linejoin:round;stroke-miterlimit:10;stroke-dasharray:none;stroke-opacity:1"
       transform="matrix(1.3333333,0,0,-1.3333333,0,181.41733)" />
    <path
       id="path10"
       d="m 183.28207,99.69333 c 0,0.78276 -0.63455,1.41731 -1.41732,1.41731 m 0,0 c -0.78275,0 -1.41733,-0.63455 -1.41733,-1.41731 m 0,0 c 0,-0.78278 0.63458,-1.41733 1.41733,-1.41733 m 0,0 c 0.78277,0 1.41732,0.63455 1.41732,1.41733"
       style="fill:none;stroke:#000000;stroke-width:0.3685;stroke-linecap:round;stroke-linejoin:round;stroke-miterlimit:10;stroke-dasharray:none;stroke-opacity:1"
       transform="matrix(1.3333333,0,0,-1.3333333,0,181.41733)" />
    <text
       id="text10"
       xml:space="preserve"
       transform="matrix(1.3333333,0,0,1.3333333,85.296333,36.165147)"
       clip-path="url(#clipPath11)"><tspan
         style="font-style:italic;font-variant:normal;font-weight:normal;font-stretch:normal;font-size:10.0071px;font-family:'Palatino Linotype';writing-mode:lr-tb;fill:#000000;fill-opacity:1;fill-rule:nonzero;stroke:none"
         x="0"
         y="0"
         id="tspan10">Q</tspan></text>
    <text
       id="text11"
       xml:space="preserve"
       transform="matrix(1.3333333,0,0,1.3333333,480.73047,169.87581)"
       clip-path="url(#clipPath12)"><tspan
         style="font-style:italic;font-variant:normal;font-weight:normal;font-stretch:normal;font-size:10.0071px;font-family:'Palatino Linotype';writing-mode:lr-tb;fill:#000000;fill-opacity:1;fill-rule:nonzero;stroke:none"
         x="0"
         y="0"
         id="tspan11">w</tspan></text>
    <text
       id="text12"
       xml:space="preserve"
       transform="matrix(1.3333333,0,0,1.3333333,492.17625,175.38763)"
       clip-path="url(#clipPath13)"><tspan
         style="font-style:italic;font-variant:normal;font-weight:normal;font-stretch:normal;font-size:6.00428px;font-family:'Palatino Linotype';writing-mode:lr-tb;fill:#000000;fill-opacity:1;fill-rule:nonzero;stroke:none"
         x="0 3.9508162 6.9529562"
         y="0"
         sodipodi:role="line"
         id="tspan12">V10</tspan></text>
    <text
       id="text13"
       xml:space="preserve"
       transform="matrix(1.3333333,0,0,1.3333333,386.16352,169.87581)"
       clip-path="url(#clipPath14)"><tspan
         style="font-variant:normal;font-weight:normal;font-stretch:normal;font-size:10.0916px;font-family:'Palatino Linotype';writing-mode:lr-tb;fill:#000000;fill-opacity:1;fill-rule:nonzero;stroke:none"
         x="0 5.045805 10.09161 15.137415 17.660318 26.571209"
         y="0"
         sodipodi:role="line"
         id="tspan13">200 mm</tspan></text>
    <text
       id="text14"
       xml:space="preserve"
       transform="matrix(1.3333333,0,0,1.3333333,24.946293,51.6004)"
       clip-path="url(#clipPath15)"><tspan
         style="font-variant:normal;font-weight:normal;font-stretch:normal;font-size:10.0916px;font-family:'Palatino Linotype';writing-mode:lr-tb;fill:#000000;fill-opacity:1;fill-rule:nonzero;stroke:none"
         x="0 5.045805 10.09161 15.137415 17.660318 23.271254"
         y="0"
         sodipodi:role="line"
         id="tspan14">800 kN</tspan></text>
    <text
       id="text15"
       xml:space="preserve"
       transform="matrix(1.3333333,0,0,1.3333333,67.549347,169.87581)"
       clip-path="url(#clipPath16)"><tspan
         style="font-variant:normal;font-weight:normal;font-stretch:normal;font-size:10.0916px;font-family:'Palatino Linotype';writing-mode:lr-tb;fill:#000000;fill-opacity:1;fill-rule:nonzero;stroke:none"
         x="0"
         y="0"
         id="tspan15">0</tspan></text>
    <text
       id="text16"
       xml:space="preserve"
       transform="matrix(1.3333333,0,0,1.3333333,317.52893,17.772893)"
       clip-path="url(#clipPath17)"><tspan
         style="font-variant:normal;font-weight:normal;font-stretch:normal;font-size:10.0916px;font-family:'Palatino Linotype';writing-mode:lr-tb;fill:#000000;fill-opacity:1;fill-rule:nonzero;stroke:none"
         x="0 5.045805 10.09161 15.137415 17.660318 23.271254"
         y="0"
         sodipodi:role="line"
         id="tspan16">975 kN</tspan></text>
    <text
       id="text17"
       xml:space="preserve"
       transform="matrix(1.3333333,0,0,1.3333333,219.61763,169.87581)"
       clip-path="url(#clipPath18)"><tspan
         style="font-variant:normal;font-weight:normal;font-stretch:normal;font-size:10.0916px;font-family:'Palatino Linotype';writing-mode:lr-tb;fill:#000000;fill-opacity:1;fill-rule:nonzero;stroke:none"
         x="0 5.045805 10.09161 15.137415 17.660318 26.571209"
         y="0"
         sodipodi:role="line"
         id="tspan17">100 mm</tspan></text>
    <text
       id="text18"
       xml:space="preserve"
       transform="matrix(1.3333333,0,0,1.3333333,384.05723,89.00996)"
       clip-path="url(#clipPath19)"><tspan
         style="font-style:italic;font-variant:normal;font-weight:normal;font-stretch:normal;font-size:8.0057px;font-family:'Palatino Linotype';writing-mode:lr-tb;fill:#000000;fill-opacity:1;fill-rule:nonzero;stroke:none"
         x="0 7.5573807 10.671598 13.785815 16.900032 20.902884 24.457413 27.123312 30.23753"
         y="0"
         sodipodi:role="line"
         id="tspan18">Messdaten</tspan></text>
    <text
       id="text19"
       xml:space="preserve"
       transform="matrix(1.3333333,0,0,1.3333333,384.05723,104.12807)"
       clip-path="url(#clipPath20)"><tspan
         style="font-style:italic;font-variant:normal;font-weight:normal;font-stretch:normal;font-size:8.0057px;font-family:'Palatino Linotype';writing-mode:lr-tb;fill:#000000;fill-opacity:1;fill-rule:nonzero;stroke:none"
         x="0 6.2284346 10.679604 15.130773 20.022255 22.688154 30.245535 33.800064 37.802914 40.917133 43.142715"
         y="0"
         sodipodi:role="line"
         id="tspan19">NLFE-Modell</tspan></text>
    <text
       id="text20"
       xml:space="preserve"
       transform="matrix(1.3333333,0,0,1.3333333,81.150213,136.75619)"
       clip-path="url(#clipPath21)"><tspan
         style="font-style:italic;font-variant:normal;font-weight:normal;font-stretch:normal;font-size:8.0057px;font-family:'Palatino Linotype';writing-mode:lr-tb;fill:#000000;fill-opacity:1;fill-rule:nonzero;stroke:none"
         x="0 4.451169 9.3426523 11.344077 15.346927 17.348352 21.351202 23.352627 27.355476 31.358326"
         y="0"
         sodipodi:role="line"
         id="tspan20">LP = 0.101</tspan></text>
    <text
       id="text21"
       xml:space="preserve"
       transform="matrix(1.3333333,0,0,1.3333333,89.10204,92.006107)"
       clip-path="url(#clipPath22)"><tspan
         style="font-style:italic;font-variant:normal;font-weight:normal;font-stretch:normal;font-size:8.0057px;font-family:'Palatino Linotype';writing-mode:lr-tb;fill:#000000;fill-opacity:1;fill-rule:nonzero;stroke:none"
         x="0 4.451169 9.3426523 11.344077 15.346927 17.348352 21.351202 23.352627 27.355476 31.358326"
         y="0"
         sodipodi:role="line"
         id="tspan21">LP = 0.366</tspan></text>
    <text
       id="text22"
       xml:space="preserve"
       transform="matrix(1.3333333,0,0,1.3333333,84.113013,115.03581)"
       clip-path="url(#clipPath23)"><tspan
         style="font-style:italic;font-variant:normal;font-weight:normal;font-stretch:normal;font-size:8.0057px;font-family:'Palatino Linotype';writing-mode:lr-tb;fill:#000000;fill-opacity:1;fill-rule:nonzero;stroke:none"
         x="0 4.451169 9.3426523 11.344077 15.346927 17.348352 21.351202 23.352627 27.355476 31.358326"
         y="0"
         sodipodi:role="line"
         id="tspan22">LP = 0.300</tspan></text>
    <text
       id="text23"
       xml:space="preserve"
       transform="matrix(1.3333333,0,0,1.3333333,144.58168,71.346467)"
       clip-path="url(#clipPath24)"><tspan
         style="font-style:italic;font-variant:normal;font-weight:normal;font-stretch:normal;font-size:8.0057px;font-family:'Palatino Linotype';writing-mode:lr-tb;fill:#000000;fill-opacity:1;fill-rule:nonzero;stroke:none"
         x="0 4.451169 9.3426523 11.344077 15.346927 17.348352 21.351202 23.352627 27.355476 31.358326"
         y="0"
         sodipodi:role="line"
         id="tspan23">LP = 0.568</tspan></text>
    <text
       id="text24"
       xml:space="preserve"
       transform="matrix(1.3333333,0,0,1.3333333,249.65548,44.609893)"
       clip-path="url(#clipPath25)"><tspan
         style="font-style:italic;font-variant:normal;font-weight:normal;font-stretch:normal;font-size:8.0057px;font-family:'Palatino Linotype';writing-mode:lr-tb;fill:#000000;fill-opacity:1;fill-rule:nonzero;stroke:none"
         x="0 4.451169 9.3426523 11.344077 15.346927 17.348352 21.351202 23.352627 27.355476 31.358326"
         y="0"
         sodipodi:role="line"
         id="tspan24">LP = 0.633</tspan></text>
    <path
       id="path26"
       d="m 56.82675,19.68787 v 96.46534 m 0,-5.95274 v -0.4252 m 0,6.37794 v 0 l -0.85039,-5.95274 h 1.70078 l -0.85039,5.95274"
       style="fill:none;stroke:#000000;stroke-width:0.3685;stroke-linecap:round;stroke-linejoin:round;stroke-miterlimit:10;stroke-dasharray:none;stroke-opacity:1"
       transform="matrix(1.3333333,0,0,-1.3333333,0,181.41733)" />
    <path
       id="path27"
       d="m 57.67714,110.20047 -0.85039,5.95274 -0.85039,-5.95274 z"
       style="fill:#000000;fill-opacity:1;fill-rule:nonzero;stroke:none"
       transform="matrix(1.3333333,0,0,-1.3333333,0,181.41733)" />
    <path
       id="path28"
       d="m 260.92123,19.68787 h 123.21979 m -5.95276,0 h -0.4252 m 6.37796,0 v 0 l -5.95276,0.8504 v -1.70079 l 5.95276,0.85039"
       style="fill:none;stroke:#000000;stroke-width:0.3685;stroke-linecap:round;stroke-linejoin:round;stroke-miterlimit:10;stroke-dasharray:none;stroke-opacity:1"
       transform="matrix(1.3333333,0,0,-1.3333333,0,181.41733)" />
    <path
       id="path29"
       d="m 378.18826,18.83748 5.95276,0.85039 -5.95276,0.8504 z"
       style="fill:#000000;fill-opacity:1;fill-rule:nonzero;stroke:none"
       transform="matrix(1.3333333,0,0,-1.3333333,0,181.41733)" />
    <path
       id="path30"
       d="m 56.82675,19.68787 h 327.31427 m -5.95276,0 h -0.4252 m 6.37796,0 v 0 l -5.95276,0.8504 v -1.70079 l 5.95276,0.85039"
       style="fill:none;stroke:#000000;stroke-width:0.3685;stroke-linecap:round;stroke-linejoin:round;stroke-miterlimit:10;stroke-dasharray:none;stroke-opacity:1"
       transform="matrix(1.3333333,0,0,-1.3333333,0,181.41733)" />
    <path
       id="path31"
       d="m 378.18826,18.83748 5.95276,0.85039 -5.95276,0.8504 z"
       style="fill:#000000;fill-opacity:1;fill-rule:nonzero;stroke:none"
       transform="matrix(1.3333333,0,0,-1.3333333,0,181.41733)" />
  </g>
</svg>
