<?xml version="1.0" encoding="UTF-8" standalone="no"?>
<!-- Created with Inkscape (http://www.inkscape.org/) -->

<svg
   version="1.1"
   id="svg1"
   width="566.92932"
   height="340.15732"
   viewBox="0 0 566.92932 340.15732"
   sodipodi:docname="trm_my58.pdf"
   xmlns:inkscape="http://www.inkscape.org/namespaces/inkscape"
   xmlns:sodipodi="http://sodipodi.sourceforge.net/DTD/sodipodi-0.dtd"
   xmlns="http://www.w3.org/2000/svg"
   xmlns:svg="http://www.w3.org/2000/svg">
  <defs
     id="defs1">
    <clipPath
       clipPathUnits="userSpaceOnUse"
       id="clipPath58">
      <path
         d="M -0.00426,-0.00255 V 255.12067 H 425.20111 V -0.00255 H -0.00426"
         transform="matrix(1,0,0,-1,-363.30062,164.25824)"
         clip-rule="evenodd"
         id="path58" />
    </clipPath>
    <clipPath
       clipPathUnits="userSpaceOnUse"
       id="clipPath59">
      <path
         d="M -0.00426,-0.00255 V 255.12067 H 425.20111 V -0.00255 H -0.00426"
         transform="matrix(1,0,0,-1,-375.17697,160.12438)"
         clip-rule="evenodd"
         id="path59" />
    </clipPath>
    <clipPath
       clipPathUnits="userSpaceOnUse"
       id="clipPath60">
      <path
         d="M -0.00426,-0.00255 V 255.12067 H 425.20111 V -0.00255 H -0.00426"
         transform="matrix(1,0,0,-1,-92.701765,88.384212)"
         clip-rule="evenodd"
         id="path60" />
    </clipPath>
    <clipPath
       clipPathUnits="userSpaceOnUse"
       id="clipPath61">
      <path
         d="M -0.00426,-0.00255 V 255.12067 H 425.20111 V -0.00255 H -0.00426"
         transform="matrix(1,0,0,-1,-104.57812,84.250355)"
         clip-rule="evenodd"
         id="path61" />
    </clipPath>
    <clipPath
       clipPathUnits="userSpaceOnUse"
       id="clipPath62">
      <path
         d="M -0.00426,-0.00255 V 255.12067 H 425.20111 V -0.00255 H -0.00426"
         transform="matrix(1,0,0,-1,-208.58251,112.10251)"
         clip-rule="evenodd"
         id="path62" />
    </clipPath>
    <clipPath
       clipPathUnits="userSpaceOnUse"
       id="clipPath63">
      <path
         d="M -0.00426,-0.00255 V 255.12067 H 425.20111 V -0.00255 H -0.00426"
         transform="matrix(1,0,0,-1,-270.3967,130.83007)"
         clip-rule="evenodd"
         id="path63" />
    </clipPath>
    <clipPath
       clipPathUnits="userSpaceOnUse"
       id="clipPath64">
      <path
         d="M -0.00426,-0.00255 V 255.12067 H 425.20111 V -0.00255 H -0.00426"
         transform="matrix(1,0,0,-1,-69.576082,32.541168)"
         clip-rule="evenodd"
         id="path64" />
    </clipPath>
    <clipPath
       clipPathUnits="userSpaceOnUse"
       id="clipPath65">
      <path
         d="M -0.00426,-0.00255 V 255.12067 H 425.20111 V -0.00255 H -0.00426"
         transform="matrix(1,0,0,-1,-50.488141,44.268514)"
         clip-rule="evenodd"
         id="path65" />
    </clipPath>
    <clipPath
       clipPathUnits="userSpaceOnUse"
       id="clipPath66">
      <path
         d="M -0.00426,-0.00255 V 255.12067 H 425.20111 V -0.00255 H -0.00426"
         transform="matrix(1,0,0,-1,-60.720491,11.102388)"
         clip-rule="evenodd"
         id="path66" />
    </clipPath>
    <clipPath
       clipPathUnits="userSpaceOnUse"
       id="clipPath67">
      <path
         d="M -0.00426,-0.00255 V 255.12067 H 425.20111 V -0.00255 H -0.00426"
         transform="matrix(1,0,0,-1,-367.85554,20.552973)"
         clip-rule="evenodd"
         id="path67" />
    </clipPath>
    <clipPath
       clipPathUnits="userSpaceOnUse"
       id="clipPath68">
      <path
         d="M -0.00426,-0.00255 V 255.12067 H 425.20111 V -0.00255 H -0.00426"
         transform="matrix(1,0,0,-1,-377.59081,16.419108)"
         clip-rule="evenodd"
         id="path68" />
    </clipPath>
  </defs>
  <sodipodi:namedview
     id="namedview1"
     pagecolor="#ffffff"
     bordercolor="#000000"
     borderopacity="0.25"
     inkscape:showpageshadow="2"
     inkscape:pageopacity="0.0"
     inkscape:pagecheckerboard="0"
     inkscape:deskcolor="#d1d1d1">
    <inkscape:page
       x="0"
       y="0"
       inkscape:label="1"
       id="page1"
       width="566.92932"
       height="340.15732"
       margin="0"
       bleed="0" />
  </sodipodi:namedview>
  <g
     id="layer-MC0"
     inkscape:groupmode="layer"
     inkscape:label="STABBEANSPR_DIAG">
    <path
       id="path1"
       d="m 295.68567,170.92554 2.15106,-2.9086 1.32352,0.401 -2.40604,3.07535 z"
       style="fill:#dcdcdc;fill-opacity:1;fill-rule:nonzero;stroke:none"
       transform="matrix(1.3333333,0,0,-1.3333333,0,340.15733)" />
    <path
       id="path2"
       d="m 83.77029,150.54758 -15.16833,27.77057 v -8.39057 z"
       style="fill:#dcdcdc;fill-opacity:1;fill-rule:nonzero;stroke:none"
       transform="matrix(1.3333333,0,0,-1.3333333,0,340.15733)" />
    <path
       id="path3"
       d="m 189.01773,24.51027 -15.39639,11.23781 15.39639,-19.6714 z"
       style="fill:#dcdcdc;fill-opacity:1;fill-rule:nonzero;stroke:none"
       transform="matrix(1.3333333,0,0,-1.3333333,0,340.15733)" />
    <path
       id="path4"
       d="m 83.77029,150.54758 0.56543,-0.72245 -0.65344,0.88358 -15.08032,27.60944 v -8.39057 z M 142.45444,73.36015 171.43225,38.545 84.33572,149.82513 112.44449,111.81735 Z m 31.52075,-37.87036 -2.54294,3.05521 2.18909,-2.79692 15.39639,-19.6714 v 8.43359 z"
       style="fill:#dcdcdc;fill-opacity:1;fill-rule:nonzero;stroke:none"
       transform="matrix(1.3333333,0,0,-1.3333333,0,340.15733)" />
    <path
       id="path5"
       d="m 269.17502,206.73026 -15.16831,27.77056 v -8.39053 z"
       style="fill:#dcdcdc;fill-opacity:1;fill-rule:nonzero;stroke:none"
       transform="matrix(1.3333333,0,0,-1.3333333,0,340.15733)" />
    <path
       id="path6"
       d="M 374.42245,80.69295 359.02606,91.93076 374.42245,72.25935 Z"
       style="fill:#dcdcdc;fill-opacity:1;fill-rule:nonzero;stroke:none"
       transform="matrix(1.3333333,0,0,-1.3333333,0,340.15733)" />
    <path
       id="path7"
       d="m 269.17502,206.73026 0.56543,-0.72245 -0.65344,0.88358 -15.0803,27.60943 v -8.39053 z m 58.68414,-77.18741 28.97782,-34.81517 -87.09653,111.28013 28.10876,-38.00778 z m 31.52075,-37.87038 -2.54293,3.05521 2.18908,-2.79692 15.39639,-19.67141 v 8.4336 z"
       style="fill:#dcdcdc;fill-opacity:1;fill-rule:nonzero;stroke:none"
       transform="matrix(1.3333333,0,0,-1.3333333,0,340.15733)" />
    <path
       id="path8"
       d="m 52.71614,141.32602 31.50626,9.54605 -31.50626,-1.15549 z"
       style="fill:#dcdcdc;fill-opacity:1;fill-rule:nonzero;stroke:none"
       transform="matrix(1.3333333,0,0,-1.3333333,0,340.15733)" />
    <path
       id="path9"
       d="m 87.74863,151.94046 57.67932,15.27533 61.81418,18.72757 57.66449,19.67395 z"
       style="fill:#dcdcdc;fill-opacity:1;fill-rule:nonzero;stroke:none"
       transform="matrix(1.3333333,0,0,-1.3333333,0,340.15733)" />
    <path
       id="path10"
       d="m 268.46283,206.69482 31.49112,9.54145 v 8.40945 z"
       style="fill:#dcdcdc;fill-opacity:1;fill-rule:nonzero;stroke:none"
       transform="matrix(1.3333333,0,0,-1.3333333,0,340.15733)" />
    <path
       id="path11"
       d="M 143.0166,25.95235 174.52286,35.49838 143.0166,34.3429 Z"
       style="fill:#dcdcdc;fill-opacity:1;fill-rule:nonzero;stroke:none"
       transform="matrix(1.3333333,0,0,-1.3333333,0,340.15733)" />
    <path
       id="path12"
       d="m 178.04907,36.56679 57.67932,15.27533 61.81418,18.72755 57.66449,19.67397 z"
       style="fill:#dcdcdc;fill-opacity:1;fill-rule:nonzero;stroke:none"
       transform="matrix(1.3333333,0,0,-1.3333333,0,340.15733)" />
    <path
       id="path13"
       d="m 358.76328,91.32114 31.49111,9.54144 v 8.40945 z"
       style="fill:#dcdcdc;fill-opacity:1;fill-rule:nonzero;stroke:none"
       transform="matrix(1.3333333,0,0,-1.3333333,0,340.15733)" />
    <path
       id="path14"
       d="m 112.92401,64.41263 49.9747,15.14177 -19.05816,-1.42209 -30.91654,10.63937 z m 154.526,37.05827 42.74777,22.71344 -147.29907,-44.62994 42.75498,3.19027 -0.003,0.0033 61.79892,18.72293 z m 61.81415,32.8441 -19.06638,-10.13066 49.96402,15.13854 v 24.35904 z"
       style="fill:#dcdcdc;fill-opacity:1;fill-rule:nonzero;stroke:none"
       transform="matrix(1.3333333,0,0,-1.3333333,0,340.15733)" />
    <path
       id="path15"
       d="m 130.38544,188.64572 24.38464,-31.15542 -8.94528,15.62155 -15.42047,39.89291 -0.0189,-24.35904 z m 75.24893,-96.14291 -50.86429,64.98749 20.7807,-36.29027 23.92493,-30.56322 z m 0.0152,-9.75531 20.7532,-16.77973 -14.59369,18.64585 z m 30.1091,-24.34432 -9.3559,7.56459 24.39841,-31.17297 0.0189,24.38318 -15.06143,-0.7748 z"
       style="fill:#dcdcdc;fill-opacity:1;fill-rule:nonzero;stroke:none"
       transform="matrix(1.3333333,0,0,-1.3333333,0,340.15733)" />
    <path
       id="path16"
       d="m 82.82008,102.86932 49.97469,15.14176 -19.05815,-1.42208 -30.91654,10.63938 z m 154.52599,37.05826 42.74777,22.71344 -147.29907,-44.62994 42.75497,3.19029 -0.003,0.003 61.79889,18.72291 z m 61.81418,32.84412 -19.06641,-10.13068 49.96402,15.13855 v 24.35904 z"
       style="fill:#dcdcdc;fill-opacity:1;fill-rule:nonzero;stroke:none"
       transform="matrix(1.3333333,0,0,-1.3333333,0,340.15733)" />
    <path
       id="path17"
       d="m 192.18073,207.37326 24.38464,-31.1554 -8.94528,15.62156 -15.42047,39.89291 -0.0189,-24.35907 z m 75.24893,-96.14288 -50.86429,64.98748 20.7807,-36.29028 23.92493,-30.56322 z m 0.0152,-9.75531 20.75318,-16.77974 -15.36636,19.63307 z m 30.10907,-24.34433 -9.35589,7.56459 24.39841,-31.17296 0.0189,24.38318 -15.06144,-0.77481 z"
       style="fill:#dcdcdc;fill-opacity:1;fill-rule:nonzero;stroke:none"
       transform="matrix(1.3333333,0,0,-1.3333333,0,340.15733)" />
  </g>
  <path
     id="path18"
     d="m 207.62009,191.83942 8.84408,-15.45829 m -24.28344,30.99213 0.0189,24.35907 15.42047,-39.89291 29.72598,-51.91184 30.10394,-38.45668 30.10391,-24.34016 15.06144,0.77481 -0.0189,-24.35907 M 82.82008,102.86932 v 24.35906 l 30.91654,-10.63938 61.79527,4.61103 61.81418,18.72755 61.81418,32.84412 30.89761,29.36691 v -24.35904 m -261.4559,0.53858 v -8.39057 m 185.40475,64.57324 15.0803,-27.60943 28.7622,-38.89136 30.00995,-38.45718 31.52075,-37.87038 15.04254,-10.97952 V 72.3024 M 254.00671,234.50082 v -8.39053 M 68.60196,178.31815 83.68228,150.70871 112.44449,111.81735 142.45444,73.36015 173.97519,35.48979 189.01773,24.51027 V 16.11971 M 68.60196,178.31815 v -8.39057 m 185.40475,64.57324 15.0803,-27.60943 28.7622,-38.89136 30.00995,-38.45718 31.52075,-37.87038 15.04254,-10.97952 V 72.3024 M 254.00671,234.50082 v -8.39053 M 52.71614,141.32602 v 8.39056 l 30.91654,1.13385 61.79527,16.36536 61.81418,18.72757 61.81417,21.08975 30.89765,17.61261 v -8.40945 M 143.0166,25.95235 v 8.39055 l 30.91654,1.13386 61.79525,16.36536 61.81418,18.72755 61.81418,21.08977 30.89764,17.61259"
     style="fill:none;stroke:#000000;stroke-width:0.22678;stroke-linecap:round;stroke-linejoin:round;stroke-miterlimit:10;stroke-dasharray:none;stroke-opacity:1"
     transform="matrix(1.3333333,0,0,-1.3333333,0,340.15733)" />
  <path
     id="path19"
     d="m 390.25439,109.27203 v -8.40945 M 112.92401,64.41263 v 24.35905 l 30.91654,-10.63937 61.79528,4.61102 61.81418,18.72757 61.81415,32.8441 30.89764,29.36692 v -24.35904 m -229.77636,49.32284 0.0189,24.35904 15.42047,-39.89291 29.72598,-51.91182 30.10394,-38.4567 30.10395,-24.34015 15.06143,0.7748 -0.0189,-24.35906"
     style="fill:none;stroke:#000000;stroke-width:0.22678;stroke-linecap:round;stroke-linejoin:round;stroke-miterlimit:10;stroke-dasharray:none;stroke-opacity:1"
     transform="matrix(1.3333333,0,0,-1.3333333,0,340.15733)" />
  <path
     id="path20"
     d="m 82.82008,102.86932 247.23778,74.91025 M 312.59647,53.54648 192.18073,207.37326 M 374.40353,72.28349 254.00671,226.11029 M 188.99881,16.10081 68.60196,169.92758 M 374.40353,72.28349 254.00671,226.11029 M 52.71614,141.32602 299.95395,216.23627 M 143.0166,25.95235 390.25439,100.86258 M 250.78229,34.81892 130.38544,188.64572 M 112.92401,64.41263 360.1618,139.32288 M 53.81276,29.27985 66.66252,33.17323 m -2.84851,-0.86306 -0.20346,-0.06165 m 3.05197,0.92471 v 0 l -2.9718,-0.45614 0.2466,-0.81385 2.7252,1.26999"
     style="fill:none;stroke:#000000;stroke-width:0.3685;stroke-linecap:round;stroke-linejoin:round;stroke-miterlimit:10;stroke-dasharray:none;stroke-opacity:1"
     transform="matrix(1.3333333,0,0,-1.3333333,0,340.15733)" />
  <path
     id="path21"
     d="m 63.93732,31.90324 2.7252,1.26999 -2.9718,-0.45614 z"
     style="fill:#000000;fill-opacity:1;fill-rule:nonzero;stroke:none"
     transform="matrix(1.3333333,0,0,-1.3333333,0,340.15733)" />
  <path
     id="path22"
     d="m 53.81276,29.27985 7.01919,-8.99251 m -1.83137,2.34624 -0.13081,0.16758 m 1.96218,-2.51382 v 0 l -1.4962,2.60786 -0.67034,-0.52324 2.16654,-2.08462"
     style="fill:none;stroke:#000000;stroke-width:0.3685;stroke-linecap:round;stroke-linejoin:round;stroke-miterlimit:10;stroke-dasharray:none;stroke-opacity:1"
     transform="matrix(1.3333333,0,0,-1.3333333,0,340.15733)" />
  <path
     id="path23"
     d="m 58.66541,22.37196 2.16654,-2.08462 -1.4962,2.60786 z"
     style="fill:#000000;fill-opacity:1;fill-rule:nonzero;stroke:none"
     transform="matrix(1.3333333,0,0,-1.3333333,0,340.15733)" />
  <path
     id="path24"
     d="m 53.81276,29.27985 v 11.07708 m 0,-2.97638 v -0.2126 m 0,3.18898 v 0 l -0.42519,-2.97638 h 0.85039 l -0.4252,2.97638"
     style="fill:none;stroke:#000000;stroke-width:0.3685;stroke-linecap:round;stroke-linejoin:round;stroke-miterlimit:10;stroke-dasharray:none;stroke-opacity:1"
     transform="matrix(1.3333333,0,0,-1.3333333,0,340.15733)" />
  <path
     id="path25"
     d="m 54.23796,37.38055 -0.4252,2.97638 -0.42519,-2.97638 z"
     style="fill:#000000;fill-opacity:1;fill-rule:nonzero;stroke:none"
     transform="matrix(1.3333333,0,0,-1.3333333,0,340.15733)" />
  <path
     id="path26"
     d="m 83.61378,169.59689 0.03779,-18.89764 m -0.01191,5.95276 -8.5e-4,0.42517 m 0.01276,-6.37793 v 0 l 0.8385,5.95444 -1.70079,-0.003 0.86229,-5.95105"
     style="fill:none;stroke:#000000;stroke-width:0.3685;stroke-linecap:round;stroke-linejoin:round;stroke-miterlimit:10;stroke-dasharray:none;stroke-opacity:1"
     transform="matrix(1.3333333,0,0,-1.3333333,0,340.15733)" />
  <path
     id="path27"
     d="m 82.78928,156.6503 0.86229,-5.95105 0.8385,5.95444 -1.70079,-0.003 z"
     style="fill:#000000;fill-opacity:1;fill-rule:nonzero;stroke:none"
     transform="matrix(1.3333333,0,0,-1.3333333,0,340.15733)" />
  <path
     id="path28"
     d="m 145.39017,188.32446 0.0378,-18.89764 m -0.0119,5.95273 -8.6e-4,0.4252 m 0.0128,-6.37793 v 0 l 0.8385,5.95444 -1.70078,-0.003 0.86228,-5.95102"
     style="fill:none;stroke:#000000;stroke-width:0.3685;stroke-linecap:round;stroke-linejoin:round;stroke-miterlimit:10;stroke-dasharray:none;stroke-opacity:1"
     transform="matrix(1.3333333,0,0,-1.3333333,0,340.15733)" />
  <path
     id="path29"
     d="m 144.56567,175.37784 0.86228,-5.95102 0.8385,5.95444 -1.70078,-0.003 z"
     style="fill:#000000;fill-opacity:1;fill-rule:nonzero;stroke:none"
     transform="matrix(1.3333333,0,0,-1.3333333,0,340.15733)" />
  <path
     id="path30"
     d="m 207.20435,207.052 0.0378,-18.89764 m -0.0119,5.95276 -8.5e-4,0.4252 m 0.0128,-6.37796 v 0 l 0.8385,5.95447 -1.70078,-0.003 0.86228,-5.95105"
     style="fill:none;stroke:#000000;stroke-width:0.3685;stroke-linecap:round;stroke-linejoin:round;stroke-miterlimit:10;stroke-dasharray:none;stroke-opacity:1"
     transform="matrix(1.3333333,0,0,-1.3333333,0,340.15733)" />
  <path
     id="path31"
     d="m 206.37985,194.10541 0.86228,-5.95105 0.8385,5.95447 -1.70078,-0.003 z"
     style="fill:#000000;fill-opacity:1;fill-rule:nonzero;stroke:none"
     transform="matrix(1.3333333,0,0,-1.3333333,0,340.15733)" />
  <path
     id="path32"
     d="m 269.01849,225.77957 0.0378,-18.89764 m -0.0119,5.95276 -8.5e-4,0.42517 m 0.0128,-6.37793 v 0 l 0.83848,5.95443 -1.70078,-0.003 0.8623,-5.95105"
     style="fill:none;stroke:#000000;stroke-width:0.3685;stroke-linecap:round;stroke-linejoin:round;stroke-miterlimit:10;stroke-dasharray:none;stroke-opacity:1"
     transform="matrix(1.3333333,0,0,-1.3333333,0,340.15733)" />
  <path
     id="path33"
     d="m 268.194,212.83298 0.8623,-5.95105 0.83848,5.95443 -1.70078,-0.003 z"
     style="fill:#000000;fill-opacity:1;fill-rule:nonzero;stroke:none"
     transform="matrix(1.3333333,0,0,-1.3333333,0,340.15733)" />
  <path
     id="path34"
     d="m 113.71771,131.1402 0.0378,-18.89765 m -0.0119,5.95275 -8.6e-4,0.4252 m 0.0128,-6.37795 v 0 l 0.83848,5.95444 -1.70077,-0.003 0.86229,-5.95104"
     style="fill:none;stroke:#000000;stroke-width:0.3685;stroke-linecap:round;stroke-linejoin:round;stroke-miterlimit:10;stroke-dasharray:none;stroke-opacity:1"
     transform="matrix(1.3333333,0,0,-1.3333333,0,340.15733)" />
  <path
     id="path35"
     d="m 112.89322,118.19359 0.86229,-5.95104 0.83848,5.95444 -1.70077,-0.003 z"
     style="fill:#000000;fill-opacity:1;fill-rule:nonzero;stroke:none"
     transform="matrix(1.3333333,0,0,-1.3333333,0,340.15733)" />
  <path
     id="path36"
     d="m 175.49411,149.86777 0.0378,-18.89765 m -0.0119,5.95273 -8.6e-4,0.4252 m 0.0128,-6.37793 v 0 l 0.8385,5.95444 -1.70077,-0.003 0.86227,-5.95105"
     style="fill:none;stroke:#000000;stroke-width:0.3685;stroke-linecap:round;stroke-linejoin:round;stroke-miterlimit:10;stroke-dasharray:none;stroke-opacity:1"
     transform="matrix(1.3333333,0,0,-1.3333333,0,340.15733)" />
  <path
     id="path37"
     d="m 174.66962,136.92117 0.86227,-5.95105 0.8385,5.95444 -1.70077,-0.003 z"
     style="fill:#000000;fill-opacity:1;fill-rule:nonzero;stroke:none"
     transform="matrix(1.3333333,0,0,-1.3333333,0,340.15733)" />
  <path
     id="path38"
     d="m 237.30829,168.59531 0.0378,-18.89765 m -0.0119,5.95276 -8.6e-4,0.4252 m 0.0128,-6.37796 v 0 l 0.8385,5.95447 -1.70077,-0.003 0.86227,-5.95105"
     style="fill:none;stroke:#000000;stroke-width:0.3685;stroke-linecap:round;stroke-linejoin:round;stroke-miterlimit:10;stroke-dasharray:none;stroke-opacity:1"
     transform="matrix(1.3333333,0,0,-1.3333333,0,340.15733)" />
  <path
     id="path39"
     d="m 236.4838,155.64871 0.86227,-5.95105 0.8385,5.95447 -1.70077,-0.003 z"
     style="fill:#000000;fill-opacity:1;fill-rule:nonzero;stroke:none"
     transform="matrix(1.3333333,0,0,-1.3333333,0,340.15733)" />
  <path
     id="path40"
     d="m 299.12244,187.32288 0.0378,-18.89765 m -0.0119,5.95276 -8.6e-4,0.42517 m 0.0128,-6.37793 v 0 l 0.83847,5.95444 -1.70078,-0.003 0.86231,-5.95105"
     style="fill:none;stroke:#000000;stroke-width:0.3685;stroke-linecap:round;stroke-linejoin:round;stroke-miterlimit:10;stroke-dasharray:none;stroke-opacity:1"
     transform="matrix(1.3333333,0,0,-1.3333333,0,340.15733)" />
  <path
     id="path41"
     d="m 298.29794,174.37628 0.86231,-5.95105 0.83847,5.95444 -1.70078,-0.003 z"
     style="fill:#000000;fill-opacity:1;fill-rule:nonzero;stroke:none"
     transform="matrix(1.3333333,0,0,-1.3333333,0,340.15733)" />
  <path
     id="path42"
     d="m 143.82166,92.6835 0.0378,-18.89764 m -0.0119,5.95274 -8.2e-4,0.4252 m 0.0128,-6.37794 v 0 l 0.83847,5.95444 -1.70078,-0.0034 0.86231,-5.95105"
     style="fill:none;stroke:#000000;stroke-width:0.3685;stroke-linecap:round;stroke-linejoin:round;stroke-miterlimit:10;stroke-dasharray:none;stroke-opacity:1"
     transform="matrix(1.3333333,0,0,-1.3333333,0,340.15733)" />
  <path
     id="path43"
     d="m 142.99716,79.73691 0.86231,-5.95105 0.83847,5.95444 -1.70078,-0.0034 z"
     style="fill:#000000;fill-opacity:1;fill-rule:nonzero;stroke:none"
     transform="matrix(1.3333333,0,0,-1.3333333,0,340.15733)" />
  <path
     id="path44"
     d="m 205.59802,111.41106 0.0378,-18.89765 m -0.0119,5.95275 -8.5e-4,0.4252 m 0.0128,-6.37795 v 0 l 0.83847,5.95445 -1.70077,-0.0034 0.8623,-5.95105"
     style="fill:none;stroke:#000000;stroke-width:0.3685;stroke-linecap:round;stroke-linejoin:round;stroke-miterlimit:10;stroke-dasharray:none;stroke-opacity:1"
     transform="matrix(1.3333333,0,0,-1.3333333,0,340.15733)" />
  <path
     id="path45"
     d="m 204.77353,98.46446 0.8623,-5.95105 0.83847,5.95445 z"
     style="fill:#000000;fill-opacity:1;fill-rule:nonzero;stroke:none"
     transform="matrix(1.3333333,0,0,-1.3333333,0,340.15733)" />
  <path
     id="path46"
     d="m 267.4122,130.13861 0.0378,-18.89763 m -0.0119,5.95275 -8.2e-4,0.42518 m 0.0128,-6.37793 v 0 l 0.83847,5.95444 -1.70077,-0.003 0.8623,-5.95104"
     style="fill:none;stroke:#000000;stroke-width:0.3685;stroke-linecap:round;stroke-linejoin:round;stroke-miterlimit:10;stroke-dasharray:none;stroke-opacity:1"
     transform="matrix(1.3333333,0,0,-1.3333333,0,340.15733)" />
  <path
     id="path47"
     d="m 266.58771,117.19202 0.8623,-5.95104 0.83847,5.95444 -1.70077,-0.003 z"
     style="fill:#000000;fill-opacity:1;fill-rule:nonzero;stroke:none"
     transform="matrix(1.3333333,0,0,-1.3333333,0,340.15733)" />
  <path
     id="path48"
     d="m 329.22638,148.86618 0.0378,-18.89764 m -0.0119,5.95276 -8.6e-4,0.42517 m 0.0128,-6.37793 v 0 l 0.8385,5.95443 -1.70077,-0.003 0.86227,-5.95105"
     style="fill:none;stroke:#000000;stroke-width:0.3685;stroke-linecap:round;stroke-linejoin:round;stroke-miterlimit:10;stroke-dasharray:none;stroke-opacity:1"
     transform="matrix(1.3333333,0,0,-1.3333333,0,340.15733)" />
  <path
     id="path49"
     d="m 328.40189,135.91959 0.86227,-5.95105 0.8385,5.95443 -1.70077,-0.003 z"
     style="fill:#000000;fill-opacity:1;fill-rule:nonzero;stroke:none"
     transform="matrix(1.3333333,0,0,-1.3333333,0,340.15733)" />
  <path
     id="path50"
     d="m 173.9256,54.22681 0.0378,-18.89765 m -0.0119,5.95275 -8.6e-4,0.4252 m 0.0128,-6.37795 v 0 l 0.8385,5.95444 -1.70078,-0.0034 0.86228,-5.95105"
     style="fill:none;stroke:#000000;stroke-width:0.3685;stroke-linecap:round;stroke-linejoin:round;stroke-miterlimit:10;stroke-dasharray:none;stroke-opacity:1"
     transform="matrix(1.3333333,0,0,-1.3333333,0,340.15733)" />
  <path
     id="path51"
     d="m 173.1011,41.28021 0.86228,-5.95105 0.8385,5.95444 -1.70078,-0.0034 z"
     style="fill:#000000;fill-opacity:1;fill-rule:nonzero;stroke:none"
     transform="matrix(1.3333333,0,0,-1.3333333,0,340.15733)" />
  <path
     id="path52"
     d="m 235.70197,72.95436 0.0378,-18.89764 m -0.0119,5.95274 -8.5e-4,0.4252 m 0.0128,-6.37794 v 0 l 0.83847,5.95445 -1.70078,-0.0034 0.86231,-5.95105"
     style="fill:none;stroke:#000000;stroke-width:0.3685;stroke-linecap:round;stroke-linejoin:round;stroke-miterlimit:10;stroke-dasharray:none;stroke-opacity:1"
     transform="matrix(1.3333333,0,0,-1.3333333,0,340.15733)" />
  <path
     id="path53"
     d="m 234.87747,60.00777 0.86231,-5.95105 0.83847,5.95445 z"
     style="fill:#000000;fill-opacity:1;fill-rule:nonzero;stroke:none"
     transform="matrix(1.3333333,0,0,-1.3333333,0,340.15733)" />
  <path
     id="path54"
     d="m 297.51614,91.68192 0.0378,-18.89763 m -0.0119,5.95274 -8.5e-4,0.42519 m 0.0127,-6.37793 v 0 l 0.83851,5.95443 -1.70078,-0.0034 0.86227,-5.95103"
     style="fill:none;stroke:#000000;stroke-width:0.3685;stroke-linecap:round;stroke-linejoin:round;stroke-miterlimit:10;stroke-dasharray:none;stroke-opacity:1"
     transform="matrix(1.3333333,0,0,-1.3333333,0,340.15733)" />
  <path
     id="path55"
     d="m 296.69165,78.73532 0.86227,-5.95103 0.83851,5.95443 z"
     style="fill:#000000;fill-opacity:1;fill-rule:nonzero;stroke:none"
     transform="matrix(1.3333333,0,0,-1.3333333,0,340.15733)" />
  <path
     id="path56"
     d="m 359.33032,110.40948 0.0378,-18.89764 m -0.0119,5.95274 -8.5e-4,0.42521 m 0.0128,-6.37795 v 0 l 0.8385,5.95445 -1.70077,-0.0034 0.86227,-5.95105"
     style="fill:none;stroke:#000000;stroke-width:0.3685;stroke-linecap:round;stroke-linejoin:round;stroke-miterlimit:10;stroke-dasharray:none;stroke-opacity:1"
     transform="matrix(1.3333333,0,0,-1.3333333,0,340.15733)" />
  <path
     id="path57"
     d="m 358.50583,97.46289 0.86227,-5.95105 0.8385,5.95445 z"
     style="fill:#000000;fill-opacity:1;fill-rule:nonzero;stroke:none"
     transform="matrix(1.3333333,0,0,-1.3333333,0,340.15733)" />
  <text
     id="text57"
     xml:space="preserve"
     transform="matrix(1.3333333,0,0,1.3333333,484.40081,121.14635)"
     clip-path="url(#clipPath58)"><tspan
       style="font-style:italic;font-variant:normal;font-weight:normal;font-stretch:normal;font-size:10.0071px;font-family:'Palatino Linotype';writing-mode:lr-tb;fill:#000000;fill-opacity:1;fill-rule:nonzero;stroke:none"
       x="0 9.4467306"
       y="0"
       sodipodi:role="line"
       id="tspan57">M'</tspan></text>
  <text
     id="text58"
     xml:space="preserve"
     transform="matrix(1.3333333,0,0,1.3333333,500.23595,126.65817)"
     clip-path="url(#clipPath59)"><tspan
       style="font-style:italic;font-variant:normal;font-weight:normal;font-stretch:normal;font-size:6.00428px;font-family:'Palatino Linotype';writing-mode:lr-tb;fill:#000000;fill-opacity:1;fill-rule:nonzero;stroke:none"
       x="0"
       y="0"
       id="tspan58">u</tspan></text>
  <text
     id="text59"
     xml:space="preserve"
     transform="matrix(1.3333333,0,0,1.3333333,123.60235,222.31172)"
     clip-path="url(#clipPath60)"><tspan
       style="font-style:italic;font-variant:normal;font-weight:normal;font-stretch:normal;font-size:10.0071px;font-family:'Palatino Linotype';writing-mode:lr-tb;fill:#000000;fill-opacity:1;fill-rule:nonzero;stroke:none"
       x="0 9.4467306"
       y="0"
       sodipodi:role="line"
       id="tspan59">M'</tspan></text>
  <text
     id="text60"
     xml:space="preserve"
     transform="matrix(1.3333333,0,0,1.3333333,139.43749,227.82353)"
     clip-path="url(#clipPath61)"><tspan
       style="font-style:italic;font-variant:normal;font-weight:normal;font-stretch:normal;font-size:6.00428px;font-family:'Palatino Linotype';writing-mode:lr-tb;fill:#000000;fill-opacity:1;fill-rule:nonzero;stroke:none"
       x="0"
       y="0"
       id="tspan60">u</tspan></text>
  <text
     id="text61"
     xml:space="preserve"
     transform="matrix(1.3333333,0,0,1.3333333,278.11001,190.68733)"
     clip-path="url(#clipPath62)"><tspan
       style="font-variant:normal;font-weight:normal;font-stretch:normal;font-size:10.0916px;font-family:'Palatino Linotype';writing-mode:lr-tb;fill:#000000;fill-opacity:1;fill-rule:nonzero;stroke:none"
       x="0 5.045805 10.09161 12.614512 18.225449"
       y="0"
       sodipodi:role="line"
       id="tspan61">58 kN</tspan></text>
  <text
     id="text62"
     xml:space="preserve"
     transform="matrix(1.3333333,0,0,1.3333333,360.52893,165.71725)"
     clip-path="url(#clipPath63)"><tspan
       style="font-variant:normal;font-weight:normal;font-stretch:normal;font-size:10.0916px;font-family:'Palatino Linotype';writing-mode:lr-tb;fill:#000000;fill-opacity:1;fill-rule:nonzero;stroke:none"
       x="0 5.045805 10.09161 12.614512 18.225449"
       y="0"
       sodipodi:role="line"
       id="tspan62">58 kN</tspan></text>
  <text
     id="text63"
     xml:space="preserve"
     transform="matrix(1.3333333,0,0,1.3333333,92.768107,296.76911)"
     clip-path="url(#clipPath64)"><tspan
       style="font-style:italic;font-variant:normal;font-weight:normal;font-stretch:normal;font-size:10.0071px;font-family:'Palatino Linotype';writing-mode:lr-tb;fill:#000000;fill-opacity:1;fill-rule:nonzero;stroke:none"
       x="0"
       y="0"
       id="tspan63">Y</tspan></text>
  <text
     id="text64"
     xml:space="preserve"
     transform="matrix(1.3333333,0,0,1.3333333,67.31752,281.13265)"
     clip-path="url(#clipPath65)"><tspan
       style="font-style:italic;font-variant:normal;font-weight:normal;font-stretch:normal;font-size:10.0071px;font-family:'Palatino Linotype';writing-mode:lr-tb;fill:#000000;fill-opacity:1;fill-rule:nonzero;stroke:none"
       x="0"
       y="0"
       id="tspan64">Z</tspan></text>
  <text
     id="text65"
     xml:space="preserve"
     transform="matrix(1.3333333,0,0,1.3333333,80.960653,325.35415)"
     clip-path="url(#clipPath66)"><tspan
       style="font-style:italic;font-variant:normal;font-weight:normal;font-stretch:normal;font-size:10.0071px;font-family:'Palatino Linotype';writing-mode:lr-tb;fill:#000000;fill-opacity:1;fill-rule:nonzero;stroke:none"
       x="0"
       y="0"
       id="tspan65">X</tspan></text>
  <text
     id="text66"
     xml:space="preserve"
     transform="matrix(1.3333333,0,0,1.3333333,490.47404,312.75337)"
     clip-path="url(#clipPath67)"><tspan
       style="font-style:italic;font-variant:normal;font-weight:normal;font-stretch:normal;font-size:10.0071px;font-family:'Palatino Linotype';writing-mode:lr-tb;fill:#000000;fill-opacity:1;fill-rule:nonzero;stroke:none"
       x="0"
       y="0"
       id="tspan66">M</tspan></text>
  <text
     id="text67"
     xml:space="preserve"
     transform="matrix(1.3333333,0,0,1.3333333,503.4544,318.26519)"
     clip-path="url(#clipPath68)"><tspan
       style="font-style:italic;font-variant:normal;font-weight:normal;font-stretch:normal;font-size:6.00428px;font-family:'Palatino Linotype';writing-mode:lr-tb;fill:#000000;fill-opacity:1;fill-rule:nonzero;stroke:none"
       x="0"
       y="0"
       id="tspan67">y</tspan></text>
</svg>
