<?xml version="1.0" encoding="UTF-8" standalone="no"?>
<!-- Created with Inkscape (http://www.inkscape.org/) -->

<svg
   version="1.1"
   id="svg1"
   width="566.92932"
   height="158.74001"
   viewBox="0 0 566.92932 158.74001"
   sodipodi:docname="trm_q_w.pdf"
   xmlns:inkscape="http://www.inkscape.org/namespaces/inkscape"
   xmlns:sodipodi="http://sodipodi.sourceforge.net/DTD/sodipodi-0.dtd"
   xmlns="http://www.w3.org/2000/svg"
   xmlns:svg="http://www.w3.org/2000/svg">
  <defs
     id="defs1">
    <clipPath
       clipPathUnits="userSpaceOnUse"
       id="clipPath7">
      <path
         d="M -0.00426,-0.00119 V 119.0563 H 425.20111 V -0.00119 H -0.00426"
         transform="matrix(1,0,0,-1,-63.972251,108.93895)"
         clip-rule="evenodd"
         id="path7" />
    </clipPath>
    <clipPath
       clipPathUnits="userSpaceOnUse"
       id="clipPath8">
      <path
         d="M -0.00426,-0.00119 V 119.0563 H 425.20111 V -0.00119 H -0.00426"
         transform="matrix(1,0,0,-1,-365.86282,8.6559527)"
         clip-rule="evenodd"
         id="path8" />
    </clipPath>
    <clipPath
       clipPathUnits="userSpaceOnUse"
       id="clipPath9">
      <path
         d="M -0.00426,-0.00119 V 119.0563 H 425.20111 V -0.00119 H -0.00426"
         transform="matrix(1,0,0,-1,-214.19167,89.845312)"
         clip-rule="evenodd"
         id="path9" />
    </clipPath>
    <clipPath
       clipPathUnits="userSpaceOnUse"
       id="clipPath10">
      <path
         d="M -0.00426,-0.00119 V 119.0563 H 425.20111 V -0.00119 H -0.00426"
         transform="matrix(1,0,0,-1,-73.087052,53.591431)"
         clip-rule="evenodd"
         id="path10" />
    </clipPath>
    <clipPath
       clipPathUnits="userSpaceOnUse"
       id="clipPath11">
      <path
         d="M -0.00426,-0.00119 V 119.0563 H 425.20111 V -0.00119 H -0.00426"
         transform="matrix(1,0,0,-1,-112.98868,83.665702)"
         clip-rule="evenodd"
         id="path11" />
    </clipPath>
    <clipPath
       clipPathUnits="userSpaceOnUse"
       id="clipPath12">
      <path
         d="M -0.00426,-0.00119 V 119.0563 H 425.20111 V -0.00119 H -0.00426"
         transform="matrix(1,0,0,-1,-122.63841,99.722063)"
         clip-rule="evenodd"
         id="path12" />
    </clipPath>
  </defs>
  <sodipodi:namedview
     id="namedview1"
     pagecolor="#ffffff"
     bordercolor="#000000"
     borderopacity="0.25"
     inkscape:showpageshadow="2"
     inkscape:pageopacity="0.0"
     inkscape:pagecheckerboard="0"
     inkscape:deskcolor="#d1d1d1">
    <inkscape:page
       x="0"
       y="0"
       inkscape:label="1"
       id="page1"
       width="566.92932"
       height="158.74001"
       margin="0"
       bleed="0" />
  </sodipodi:namedview>
  <g
     id="g1"
     inkscape:groupmode="layer"
     inkscape:label="1">
    <path
       id="path1"
       d="m 72.38998,62.5016 c 0,0.78276 -0.63455,1.41731 -1.41732,1.41731 m 0,0 c -0.78276,0 -1.41732,-0.63455 -1.41732,-1.41731 m 0,0 c 0,-0.78277 0.63456,-1.41733 1.41732,-1.41733 m 0,0 c 0.78277,0 1.41732,0.63456 1.41732,1.41733"
       style="fill:none;stroke:#000000;stroke-width:0.3685;stroke-linecap:round;stroke-linejoin:round;stroke-miterlimit:10;stroke-dasharray:none;stroke-opacity:1"
       transform="matrix(1.3333333,0,0,-1.3333333,0,158.74)" />
    <path
       id="path2"
       d="m 214.25754,100.01518 c 0,0.78276 -0.63455,1.41733 -1.41733,1.41733 m 0,0 c -0.78275,0 -1.4173,-0.63457 -1.4173,-1.41733 m 0,0 c 0,-0.78277 0.63455,-1.41733 1.4173,-1.41733 m 0,0 c 0.78278,0 1.41733,0.63456 1.41733,1.41733"
       style="fill:none;stroke:#000000;stroke-width:0.3685;stroke-linecap:round;stroke-linejoin:round;stroke-miterlimit:10;stroke-dasharray:none;stroke-opacity:1"
       transform="matrix(1.3333333,0,0,-1.3333333,0,158.74)" />
    <path
       id="path3"
       d="m 329.20496,103.23283 -3.83326,-6.02365 m 5.95728,6.02365 -3.83325,-6.02365 m -220.43195,-5.2494 12.9847,3.56967"
       style="fill:none;stroke:#000000;stroke-width:0.3685;stroke-linecap:round;stroke-linejoin:round;stroke-miterlimit:10;stroke-dasharray:none;stroke-opacity:1"
       transform="matrix(1.3333333,0,0,-1.3333333,0,158.74)" />
    <path
       id="path4"
       d="m 108.48111,91.95978 c 0,0.78276 -0.63457,1.41731 -1.41733,1.41731 m 0,0 c -0.78276,0 -1.41733,-0.63455 -1.41733,-1.41731 m 0,0 c 0,-0.78278 0.63457,-1.41733 1.41733,-1.41733 m 0,0 c 0.78276,0 1.41733,0.63455 1.41733,1.41733"
       style="fill:none;stroke:#000000;stroke-width:0.3685;stroke-linecap:round;stroke-linejoin:round;stroke-miterlimit:10;stroke-dasharray:none;stroke-opacity:1"
       transform="matrix(1.3333333,0,0,-1.3333333,0,158.74)" />
    <path
       id="path5"
       d="m 121.46579,95.52945 c 0,0.78276 -0.63455,1.41731 -1.41731,1.41731 m 0,0 c -0.78278,0 -1.41733,-0.63455 -1.41733,-1.41731 m 0,0 c 0,-0.78278 0.63455,-1.41733 1.41733,-1.41733 m 0,0 c 0.78276,0 1.41731,0.63455 1.41731,1.41733"
       style="fill:none;stroke:#000000;stroke-width:0.3685;stroke-linecap:round;stroke-linejoin:round;stroke-miterlimit:10;stroke-dasharray:none;stroke-opacity:1"
       transform="matrix(1.3333333,0,0,-1.3333333,0,158.74)" />
    <path
       id="path6"
       d="m 56.82675,19.68768 14.14591,42.81392 36.09112,29.45818 12.9847,3.56967 92.79173,4.48573 114.44812,0.20583"
       style="fill:none;stroke:#000000;stroke-width:0.3685;stroke-linecap:round;stroke-linejoin:round;stroke-miterlimit:10;stroke-dasharray:none;stroke-opacity:1"
       transform="matrix(1.3333333,0,0,-1.3333333,0,158.74)" />
    <text
       id="text6"
       xml:space="preserve"
       transform="matrix(1.3333333,0,0,1.3333333,85.296333,13.488067)"
       clip-path="url(#clipPath7)"><tspan
         style="font-style:italic;font-variant:normal;font-weight:normal;font-stretch:normal;font-size:10.0071px;font-family:'Palatino Linotype';writing-mode:lr-tb;fill:#000000;fill-opacity:1;fill-rule:nonzero;stroke:none"
         x="0"
         y="0"
         id="tspan6">Q</tspan></text>
    <text
       id="text7"
       xml:space="preserve"
       transform="matrix(1.3333333,0,0,1.3333333,487.81708,147.19873)"
       clip-path="url(#clipPath8)"><tspan
         style="font-style:italic;font-variant:normal;font-weight:normal;font-stretch:normal;font-size:10.0071px;font-family:'Palatino Linotype';writing-mode:lr-tb;fill:#000000;fill-opacity:1;fill-rule:nonzero;stroke:none"
         x="0"
         y="0"
         id="tspan7">w</tspan></text>
    <text
       id="text8"
       xml:space="preserve"
       transform="matrix(1.3333333,0,0,1.3333333,285.58888,38.946253)"
       clip-path="url(#clipPath9)"><tspan
         style="font-style:italic;font-variant:normal;font-weight:normal;font-stretch:normal;font-size:8.0057px;font-family:'Palatino Linotype';writing-mode:lr-tb;fill:#000000;fill-opacity:1;fill-rule:nonzero;stroke:none"
         x="0 4.451169 9.3426523 11.344077 15.346927 17.348352 21.351202 23.352627 27.355476 31.358326"
         y="0"
         sodipodi:role="line"
         id="tspan8">LP = 0.833</tspan></text>
    <text
       id="text9"
       xml:space="preserve"
       transform="matrix(1.3333333,0,0,1.3333333,97.4494,87.28476)"
       clip-path="url(#clipPath10)"><tspan
         style="font-style:italic;font-variant:normal;font-weight:normal;font-stretch:normal;font-size:8.0057px;font-family:'Palatino Linotype';writing-mode:lr-tb;fill:#000000;fill-opacity:1;fill-rule:nonzero;stroke:none"
         x="0 4.451169 9.3426523 11.344077 15.346927 17.348352 21.351202 23.352627 27.355476 31.358326"
         y="0"
         sodipodi:role="line"
         id="tspan9">LP = 0.477</tspan></text>
    <text
       id="text10"
       xml:space="preserve"
       transform="matrix(1.3333333,0,0,1.3333333,150.65157,47.185733)"
       clip-path="url(#clipPath11)"><tspan
         style="font-style:italic;font-variant:normal;font-weight:normal;font-stretch:normal;font-size:8.0057px;font-family:'Palatino Linotype';writing-mode:lr-tb;fill:#000000;fill-opacity:1;fill-rule:nonzero;stroke:none"
         x="0 4.451169 9.3426523 11.344077 15.346927 17.348352 21.351202 23.352627 27.355476 31.358326"
         y="0"
         sodipodi:role="line"
         id="tspan10">LP = 0.747</tspan></text>
    <text
       id="text11"
       xml:space="preserve"
       transform="matrix(1.3333333,0,0,1.3333333,163.51787,25.777253)"
       clip-path="url(#clipPath12)"><tspan
         style="font-style:italic;font-variant:normal;font-weight:normal;font-stretch:normal;font-size:8.0057px;font-family:'Palatino Linotype';writing-mode:lr-tb;fill:#000000;fill-opacity:1;fill-rule:nonzero;stroke:none"
         x="0 4.451169 9.3426523 11.344077 15.346927 17.348352 21.351202 23.352627 27.355476 31.358326"
         y="0"
         sodipodi:role="line"
         id="tspan11">LP = 0.779</tspan></text>
    <path
       id="path13"
       d="m 56.82675,19.68768 v 96.46535 m 0,-5.95276 v -0.42518 m 0,6.37794 v 0 l -0.85039,-5.95276 h 1.70078 l -0.85039,5.95276"
       style="fill:none;stroke:#000000;stroke-width:0.3685;stroke-linecap:round;stroke-linejoin:round;stroke-miterlimit:10;stroke-dasharray:none;stroke-opacity:1"
       transform="matrix(1.3333333,0,0,-1.3333333,0,158.74)" />
    <path
       id="path14"
       d="m 57.67714,110.20027 -0.85039,5.95276 -0.85039,-5.95276 z"
       style="fill:#000000;fill-opacity:1;fill-rule:nonzero;stroke:none"
       transform="matrix(1.3333333,0,0,-1.3333333,0,158.74)" />
    <path
       id="path15"
       d="m 260.92123,19.68768 h 123.21979 m -5.95276,0 h -0.4252 m 6.37796,0 v 0 l -5.95276,0.85039 V 18.8373 l 5.95276,0.85038"
       style="fill:none;stroke:#000000;stroke-width:0.3685;stroke-linecap:round;stroke-linejoin:round;stroke-miterlimit:10;stroke-dasharray:none;stroke-opacity:1"
       transform="matrix(1.3333333,0,0,-1.3333333,0,158.74)" />
    <path
       id="path16"
       d="m 378.18826,18.8373 5.95276,0.85038 -5.95276,0.85039 z"
       style="fill:#000000;fill-opacity:1;fill-rule:nonzero;stroke:none"
       transform="matrix(1.3333333,0,0,-1.3333333,0,158.74)" />
    <path
       id="path17"
       d="m 56.82675,19.68768 h 327.31427 m -5.95276,0 h -0.4252 m 6.37796,0 v 0 l -5.95276,0.85039 V 18.8373 l 5.95276,0.85038"
       style="fill:none;stroke:#000000;stroke-width:0.3685;stroke-linecap:round;stroke-linejoin:round;stroke-miterlimit:10;stroke-dasharray:none;stroke-opacity:1"
       transform="matrix(1.3333333,0,0,-1.3333333,0,158.74)" />
    <path
       id="path18"
       d="m 378.18826,18.8373 5.95276,0.85038 -5.95276,0.85039 z"
       style="fill:#000000;fill-opacity:1;fill-rule:nonzero;stroke:none"
       transform="matrix(1.3333333,0,0,-1.3333333,0,158.74)" />
  </g>
</svg>
