<?xml version="1.0" encoding="UTF-8" standalone="no"?>
<!-- Created with Inkscape (http://www.inkscape.org/) -->

<svg
   version="1.1"
   id="svg1"
   width="566.92932"
   height="170.07867"
   viewBox="0 0 566.92932 170.07867"
   sodipodi:docname="trm_schnitt.pdf"
   xmlns:inkscape="http://www.inkscape.org/namespaces/inkscape"
   xmlns:sodipodi="http://sodipodi.sourceforge.net/DTD/sodipodi-0.dtd"
   xmlns="http://www.w3.org/2000/svg"
   xmlns:svg="http://www.w3.org/2000/svg">
  <defs
     id="defs1">
    <clipPath
       clipPathUnits="userSpaceOnUse"
       id="clipPath32">
      <path
         d="M -0.00426,-0.00128 V 127.56033 H 425.20111 V -0.00128 H -0.00426"
         transform="matrix(1,0,0,-1,-79.043724,118.26073)"
         clip-rule="evenodd"
         id="path32" />
    </clipPath>
    <clipPath
       clipPathUnits="userSpaceOnUse"
       id="clipPath33">
      <path
         d="M -0.00426,-0.00128 V 127.56033 H 425.20111 V -0.00128 H -0.00426"
         transform="matrix(1,0,0,-1,-133.1688,118.26073)"
         clip-rule="evenodd"
         id="path33" />
    </clipPath>
    <clipPath
       clipPathUnits="userSpaceOnUse"
       id="clipPath34">
      <path
         d="M -0.00426,-0.00128 V 127.56033 H 425.20111 V -0.00128 H -0.00426"
         transform="matrix(1,0,0,-1,-208.75936,118.26073)"
         clip-rule="evenodd"
         id="path34" />
    </clipPath>
    <clipPath
       clipPathUnits="userSpaceOnUse"
       id="clipPath35">
      <path
         d="M -0.00426,-0.00128 V 127.56033 H 425.20111 V -0.00128 H -0.00426"
         transform="matrix(1,0,0,-1,-284.34993,118.26073)"
         clip-rule="evenodd"
         id="path35" />
    </clipPath>
    <clipPath
       clipPathUnits="userSpaceOnUse"
       id="clipPath36">
      <path
         d="M -0.00426,-0.00128 V 127.56033 H 425.20111 V -0.00128 H -0.00426"
         transform="matrix(1,0,0,-1,-343.61066,118.26073)"
         clip-rule="evenodd"
         id="path36" />
    </clipPath>
    <clipPath
       clipPathUnits="userSpaceOnUse"
       id="clipPath38">
      <path
         d="M -0.00426,-0.00128 V 127.56033 H 425.20111 V -0.00128 H -0.00426"
         transform="matrix(1,0,0,-1,-89.23471,19.942663)"
         clip-rule="evenodd"
         id="path38" />
    </clipPath>
    <clipPath
       clipPathUnits="userSpaceOnUse"
       id="clipPath39">
      <path
         d="M -0.00426,-0.00128 V 127.56033 H 425.20111 V -0.00128 H -0.00426"
         transform="matrix(1,0,0,-1,-89.23471,5.7694326)"
         clip-rule="evenodd"
         id="path39" />
    </clipPath>
    <clipPath
       clipPathUnits="userSpaceOnUse"
       id="clipPath40">
      <path
         d="M -0.00426,-0.00128 V 127.56033 H 425.20111 V -0.00128 H -0.00426"
         transform="matrix(1,0,0,-1,-352.08263,13.960213)"
         clip-rule="evenodd"
         id="path40" />
    </clipPath>
    <clipPath
       clipPathUnits="userSpaceOnUse"
       id="clipPath41">
      <path
         d="M -0.00426,-0.00128 V 127.56033 H 425.20111 V -0.00128 H -0.00426"
         transform="matrix(1,0,0,-1,-377.63069,6.4024927)"
         clip-rule="evenodd"
         id="path41" />
    </clipPath>
    <clipPath
       clipPathUnits="userSpaceOnUse"
       id="clipPath42">
      <path
         d="M -0.00426,-0.00128 V 127.56033 H 425.20111 V -0.00128 H -0.00426"
         transform="matrix(0.99948078,0.03222104,0.03222104,-0.99948078,-375.20751,22.692976)"
         clip-rule="evenodd"
         id="path42" />
    </clipPath>
    <clipPath
       clipPathUnits="userSpaceOnUse"
       id="clipPath43">
      <path
         d="M -0.00426,-0.00128 V 127.56033 H 425.20111 V -0.00128 H -0.00426"
         transform="matrix(1,0,0,-1,-256.03972,51.631079)"
         clip-rule="evenodd"
         id="path43" />
    </clipPath>
    <clipPath
       clipPathUnits="userSpaceOnUse"
       id="clipPath44">
      <path
         d="M -0.00426,-0.00128 V 127.56033 H 425.20111 V -0.00128 H -0.00426"
         transform="matrix(1,0,0,-1,-256.03972,17.039518)"
         clip-rule="evenodd"
         id="path44" />
    </clipPath>
    <clipPath
       clipPathUnits="userSpaceOnUse"
       id="clipPath45">
      <path
         d="M -0.00426,-0.00128 V 127.56033 H 425.20111 V -0.00128 H -0.00426"
         transform="matrix(1,0,0,-1,-331.63028,42.110054)"
         clip-rule="evenodd"
         id="path45" />
    </clipPath>
    <clipPath
       clipPathUnits="userSpaceOnUse"
       id="clipPath46">
      <path
         d="M -0.00426,-0.00128 V 127.56033 H 425.20111 V -0.00128 H -0.00426"
         transform="matrix(1,0,0,-1,-369.42554,54.645312)"
         clip-rule="evenodd"
         id="path46" />
    </clipPath>
    <clipPath
       clipPathUnits="userSpaceOnUse"
       id="clipPath47">
      <path
         d="M -0.00426,-0.00128 V 127.56033 H 425.20111 V -0.00128 H -0.00426"
         transform="matrix(1,0,0,-1,-317.94804,66.277452)"
         clip-rule="evenodd"
         id="path47" />
    </clipPath>
    <clipPath
       clipPathUnits="userSpaceOnUse"
       id="clipPath48">
      <path
         d="M -0.00426,-0.00128 V 127.56033 H 425.20111 V -0.00128 H -0.00426"
         transform="matrix(1,0,0,-1,-103.70073,90.619843)"
         clip-rule="evenodd"
         id="path48" />
    </clipPath>
    <clipPath
       clipPathUnits="userSpaceOnUse"
       id="clipPath49">
      <path
         d="M -0.00426,-0.00128 V 127.56033 H 425.20111 V -0.00128 H -0.00426"
         transform="matrix(1,0,0,-1,-179.29128,90.619843)"
         clip-rule="evenodd"
         id="path49" />
    </clipPath>
    <clipPath
       clipPathUnits="userSpaceOnUse"
       id="clipPath50">
      <path
         d="M -0.00426,-0.00128 V 127.56033 H 425.20111 V -0.00128 H -0.00426"
         transform="matrix(1,0,0,-1,-254.88184,90.619843)"
         clip-rule="evenodd"
         id="path50" />
    </clipPath>
    <clipPath
       clipPathUnits="userSpaceOnUse"
       id="clipPath51">
      <path
         d="M -0.00426,-0.00128 V 127.56033 H 425.20111 V -0.00128 H -0.00426"
         transform="matrix(1,0,0,-1,-330.47239,90.619843)"
         clip-rule="evenodd"
         id="path51" />
    </clipPath>
  </defs>
  <sodipodi:namedview
     id="namedview1"
     pagecolor="#ffffff"
     bordercolor="#000000"
     borderopacity="0.25"
     inkscape:showpageshadow="2"
     inkscape:pageopacity="0.0"
     inkscape:pagecheckerboard="0"
     inkscape:deskcolor="#d1d1d1">
    <inkscape:page
       x="0"
       y="0"
       inkscape:label="1"
       id="page1"
       width="566.92932"
       height="170.07867"
       margin="0"
       bleed="0" />
  </sodipodi:namedview>
  <g
     id="g1"
     inkscape:groupmode="layer"
     inkscape:label="1">
    <path
       id="path1"
       d="m 250.39386,46.11966 v 0 m -75.59058,0 v 0 m 75.59058,-21.36322 v 0 m -75.59058,0 v 0"
       style="fill:none;stroke:#1d1d1d;stroke-width:0.51024;stroke-linecap:round;stroke-linejoin:round;stroke-miterlimit:10;stroke-dasharray:none;stroke-opacity:1"
       transform="matrix(1.3333333,0,0,-1.3333333,0,170.07867)" />
    <path
       id="path2"
       d="m 376.37503,19.53433 c -1.00525,0 -1.82019,-0.81492 -1.82019,-1.8202 m 0,0 c 0,-1.00527 0.81494,-1.82021 1.82019,-1.82021 m 0,0 c 1.00528,0 1.82022,0.81494 1.82022,1.82021 m 0,0 c 0,1.00528 -0.81494,1.8202 -1.82022,1.8202"
       style="fill:none;stroke:#000000;stroke-width:0.51024;stroke-linecap:round;stroke-linejoin:round;stroke-miterlimit:10;stroke-dasharray:none;stroke-opacity:1"
       transform="matrix(1.3333333,0,0,-1.3333333,0,170.07867)" />
    <path
       id="path3"
       d="m 325.98441,62.36224 h 37.79525"
       style="fill:none;stroke:#000000;stroke-width:0.3685;stroke-linecap:round;stroke-linejoin:round;stroke-miterlimit:10;stroke-dasharray:none;stroke-opacity:1"
       transform="matrix(1.3333333,0,0,-1.3333333,0,170.07867)" />
    <path
       id="path4"
       d="m 174.80328,46.11966 h 1.51169 m 2.2677,0 h 2.83466 m 2.26773,0 h 2.83462 m 2.26773,0 h 2.83463 m 2.26773,0 h 2.83466 m 2.2677,0 h 2.83465 m 2.2677,0 h 2.83466 m 2.26773,0 h 2.83462 m 2.26773,0 h 2.83466 m 2.2677,0 h 2.83466 m 2.2677,0 h 2.83465 m 2.2677,0 h 2.83466 m 2.26773,0 h 2.83462 m 2.26774,0 h 2.83465 m 2.2677,0 h 2.83466 m 2.2677,0 h 0.37811 m -75.59058,0 v 0 m 75.59058,0 v 0 m 0.7074,0.10133 2.806,0.40197 m 2.24478,0.32156 2.806,0.40196 m 2.24481,0.32157 2.806,0.40196 m 2.24478,0.32158 2.80603,0.40194 m 2.24478,0.32158 2.806,0.40196 m 2.24482,0.32157 2.80599,0.40196 m 2.24482,0.32156 2.806,0.40197 m 2.24478,0.32158 2.806,0.40196 m 2.24481,0.32156 2.806,0.40196 m 2.24481,0.32157 2.806,0.40196 m 2.24478,0.32158 2.806,0.40195 m 2.24481,0.32157 2.806,0.40197 m 2.24482,0.32156 2.806,0.40196 m 2.24478,0.32157 2.806,0.40196 m 2.24481,0.32158 2.806,0.40196 m 2.24481,0.32156 2.806,0.40197 m 2.24478,0.32156 2.806,0.40196 m 2.24481,0.32158 2.806,0.40195 m 2.24482,0.32158 2.806,0.40196 m 2.24481,0.32156 2.806,0.40197 m 2.24478,0.32156 2.806,0.40196 m 2.24481,0.32158 2.806,0.40196 m 2.24481,0.32157 1.56076,0.22358 M 250.39386,46.11966 v 0 m 113.3858,16.24258 v 0 m -302.36219,0 1.88534,-0.27008 m 2.2448,-0.32156 2.806,-0.40196 m 2.24481,-0.32158 2.806,-0.40196 m 2.2448,-0.32157 2.806,-0.40196 m 2.24479,-0.32156 2.806,-0.40197 m 2.24481,-0.32158 2.806,-0.40194 m 2.2448,-0.32158 2.806,-0.40196"
       style="fill:none;stroke:#1d1d1d;stroke-width:0.3685;stroke-linecap:round;stroke-linejoin:round;stroke-miterlimit:10;stroke-dasharray:none;stroke-opacity:1"
       transform="matrix(1.3333333,0,0,-1.3333333,0,170.07867)" />
    <path
       id="path5"
       d="m 95.85242,57.42941 2.80601,-0.40196 m 2.2448,-0.32156 2.806,-0.40197 m 2.2448,-0.32157 2.806,-0.40197 m 2.24481,-0.32156 2.806,-0.40196 m 2.24479,-0.32157 2.806,-0.40196 m 2.2448,-0.32158 2.806,-0.40196 m 2.24481,-0.32156 2.80602,-0.40197 m 2.24478,-0.32156 2.806,-0.40196 m 2.24481,-0.32157 2.806,-0.40196 m 2.24481,-0.32158 2.806,-0.40196 m 2.24478,-0.32156 2.806,-0.40197 m 2.24481,-0.32156 2.806,-0.40196 m 2.24482,-0.32158 2.806,-0.40196 m 2.24478,-0.32157 2.806,-0.40196 m 2.24481,-0.32156 2.806,-0.40196 m 2.24481,-0.32157 2.806,-0.40196 m -113.003,16.18774 v 0 M 174.80328,46.11966 v 0 m 75.59058,-21.36322 h -75.59058 m 188.97638,37.6058 -113.3858,-37.6058 m -75.59058,0 -113.38581,37.6058 m 113.38581,0 v -37.6058 m 75.59058,37.6058 V 24.75644 M 61.41747,22.68842 H 64.063 m 2.26772,0 h 2.83464 m 2.26771,0 h 2.83465 m 2.26771,0 h 2.83466 m -17.95262,0 v 0 m 18.89762,0 v 0 M 61.68262,8.49239 H 80.58026 M 325.98441,62.36224 V 49.82698 M 99.21274,62.36224 V 49.82698"
       style="fill:none;stroke:#1d1d1d;stroke-width:0.3685;stroke-linecap:round;stroke-linejoin:round;stroke-miterlimit:10;stroke-dasharray:none;stroke-opacity:1"
       transform="matrix(1.3333333,0,0,-1.3333333,0,170.07867)" />
    <path
       id="path6"
       d="m 61.41747,62.36224 v 9.44883 m 0,-9.44883 v -9.44882 m 0,16.21405 -3.88613,2.6836 m 3.88613,-5.36718 -3.88613,2.68358 m 3.88613,-5.36716 -3.88613,2.68358 m 3.88613,-5.36715 -3.88613,2.68357 m 3.88613,-5.36717 -3.88613,2.6836 m 3.88613,-5.36718 -3.88613,2.68358 m 3.88613,-5.36715 -3.88613,2.68357 m 306.24832,6.65268 v 9.44883 m 0,-9.44883 v -9.44882 m 0,16.21405 3.88614,2.6836 m -3.88614,-5.36718 3.88614,2.68358 m -3.88614,-5.36716 3.88614,2.68358 m -3.88614,-5.36715 3.88614,2.68357 m -3.88614,-5.36717 3.88614,2.6836 m -3.88614,-5.36718 3.88614,2.68358 m -3.88614,-5.36715 3.88614,2.68357 m -41.68139,6.65268 H 250.39386 174.80328 99.21274 61.41747"
       style="fill:none;stroke:#000000;stroke-width:0.3685;stroke-linecap:round;stroke-linejoin:round;stroke-miterlimit:10;stroke-dasharray:none;stroke-opacity:1"
       transform="matrix(1.3333333,0,0,-1.3333333,0,170.07867)" />
    <path
       id="path7"
       d="m 62.62587,64.45528 h -2.41682 l -1.41427,-2.44959 0.38175,0.0519 1.03252,-1.78838 h 2.41682 l 1.57498,2.72794 -0.64781,-0.14778 z"
       style="fill:#ffffff;fill-opacity:1;fill-rule:nonzero;stroke:none"
       transform="matrix(1.3333333,0,0,-1.3333333,0,170.07867)" />
    <path
       id="path8"
       d="m 364.9881,64.45528 h -2.41684 l -1.41428,-2.44959 0.38175,0.0519 1.03253,-1.78838 h 2.41684 l 1.57495,2.72794 -0.6478,-0.14778 z"
       style="fill:#ffffff;fill-opacity:1;fill-rule:nonzero;stroke:none"
       transform="matrix(1.3333333,0,0,-1.3333333,0,170.07867)" />
    <path
       id="path9"
       d="m 251.60226,48.21269 h -2.41684 l -1.41424,-2.44958 0.38174,0.05189 1.0325,-1.78839 h 2.41684 l 1.57499,2.72794 -0.64783,-0.14777 z"
       style="fill:#ffffff;fill-opacity:1;fill-rule:nonzero;stroke:none"
       transform="matrix(1.3333333,0,0,-1.3333333,0,170.07867)" />
    <path
       id="path10"
       d="m 176.01172,48.21269 h -2.41684 l -1.41428,-2.44958 0.38175,0.05189 1.03253,-1.78839 h 2.41684 l 1.57495,2.72794 -0.6478,-0.14777 z"
       style="fill:#ffffff;fill-opacity:1;fill-rule:nonzero;stroke:none"
       transform="matrix(1.3333333,0,0,-1.3333333,0,170.07867)" />
    <path
       id="path11"
       d="m 251.60226,26.84947 h -2.41684 l -1.41424,-2.44958 0.38174,0.05191 1.0325,-1.78839 h 2.41684 l 1.57499,2.72793 -0.64783,-0.14776 z"
       style="fill:#ffffff;fill-opacity:1;fill-rule:nonzero;stroke:none"
       transform="matrix(1.3333333,0,0,-1.3333333,0,170.07867)" />
    <path
       id="path12"
       d="m 176.01172,26.84947 h -2.41684 l -1.41428,-2.44958 0.38175,0.05191 1.03253,-1.78839 h 2.41684 l 1.57495,2.72793 -0.6478,-0.14776 z"
       style="fill:#ffffff;fill-opacity:1;fill-rule:nonzero;stroke:none"
       transform="matrix(1.3333333,0,0,-1.3333333,0,170.07867)" />
    <path
       id="path13"
       d="m 63.83429,62.36224 c 0,1.33478 -1.08205,2.41683 -2.41682,2.41683 m 0,0 c -1.33478,0 -2.41684,-1.08205 -2.41684,-2.41683 m 0,0 c 0,-1.33477 1.08206,-2.41682 2.41684,-2.41682 m 0,0 c 1.33477,0 2.41682,1.08205 2.41682,2.41682"
       style="fill:none;stroke:#1d1d1d;stroke-width:0.51024;stroke-linecap:round;stroke-linejoin:round;stroke-miterlimit:10;stroke-dasharray:none;stroke-opacity:1"
       transform="matrix(1.3333333,0,0,-1.3333333,0,170.07867)" />
    <path
       id="path14"
       d="m 366.1965,62.36224 c 0,1.33478 -1.08206,2.41683 -2.41684,2.41683 m 0,0 c -1.33477,0 -2.41681,-1.08205 -2.41681,-2.41683 m 0,0 c 0,-1.33477 1.08204,-2.41682 2.41681,-2.41682 m 0,0 c 1.33478,0 2.41684,1.08205 2.41684,2.41682"
       style="fill:none;stroke:#1d1d1d;stroke-width:0.51024;stroke-linecap:round;stroke-linejoin:round;stroke-miterlimit:10;stroke-dasharray:none;stroke-opacity:1"
       transform="matrix(1.3333333,0,0,-1.3333333,0,170.07867)" />
    <path
       id="path15"
       d="m 252.81067,46.11966 -0.18396,0.92487 -0.5239,0.78408 -0.78408,0.5239 m -2.17185,-0.21521 -0.46197,-0.30869 -0.52393,-0.78408 -0.18396,-0.92487 0.0767,-0.38547 m 1.27539,-1.7539 0.13989,-0.09349 0.9249,-0.18398 0.92487,0.18398 0.64886,0.43356 m 0.84308,1.7993 v 0 m -75.59055,0 -0.18396,0.92487 -0.52392,0.78408 -0.78406,0.5239 m -2.17184,-0.21521 -0.46201,-0.30869 -0.5239,-0.78408 -0.18396,-0.92487 0.0767,-0.38547 m 1.27536,-1.7539 0.13993,-0.09349 0.92486,-0.18398 0.9249,0.18398 0.64886,0.43356 m 0.84308,1.7993 v 0"
       style="fill:none;stroke:#1d1d1d;stroke-width:0.51024;stroke-linecap:round;stroke-linejoin:round;stroke-miterlimit:10;stroke-dasharray:none;stroke-opacity:1"
       transform="matrix(1.3333333,0,0,-1.3333333,0,170.07867)" />
    <path
       id="path16"
       d="m 252.81067,24.75644 c 0,1.33478 -1.08203,2.41682 -2.41681,2.41682 m 0,0 c -1.33478,0 -2.41684,-1.08204 -2.41684,-2.41682 m 0,0 c 0,-1.33478 1.08206,-2.41683 2.41684,-2.41683 m 0,0 c 1.33478,0 2.41681,1.08205 2.41681,2.41683"
       style="fill:none;stroke:#1d1d1d;stroke-width:0.51024;stroke-linecap:round;stroke-linejoin:round;stroke-miterlimit:10;stroke-dasharray:none;stroke-opacity:1"
       transform="matrix(1.3333333,0,0,-1.3333333,0,170.07867)" />
    <path
       id="path17"
       d="m 177.22012,24.75644 c 0,1.33478 -1.08206,2.41682 -2.41684,2.41682 m 0,0 c -1.33477,0 -2.41681,-1.08204 -2.41681,-2.41682 m 0,0 c 0,-1.33478 1.08204,-2.41683 2.41681,-2.41683 m 0,0 c 1.33478,0 2.41684,1.08205 2.41684,2.41683"
       style="fill:none;stroke:#1d1d1d;stroke-width:0.51024;stroke-linecap:round;stroke-linejoin:round;stroke-miterlimit:10;stroke-dasharray:none;stroke-opacity:1"
       transform="matrix(1.3333333,0,0,-1.3333333,0,170.07867)" />
    <path
       id="path18"
       d="m 376.37503,17.71413 v 14.66479 m 0,-2.97638 v -0.21258 m 0,3.18896 v 0 l -0.42517,-2.97638 h 0.85037 l -0.4252,2.97638"
       style="fill:none;stroke:#000000;stroke-width:0.3685;stroke-linecap:round;stroke-linejoin:round;stroke-miterlimit:10;stroke-dasharray:none;stroke-opacity:1"
       transform="matrix(1.3333333,0,0,-1.3333333,0,170.07867)" />
    <path
       id="path19"
       d="m 376.80023,29.40254 -0.4252,2.97638 -0.42517,-2.97638 z"
       style="fill:#000000;fill-opacity:1;fill-rule:nonzero;stroke:none"
       transform="matrix(1.3333333,0,0,-1.3333333,0,170.07867)" />
    <path
       id="path20"
       d="m 376.37503,17.71413 h -14.30197 m 2.97638,0 h 0.21258 m -3.18896,0 v 0 l 2.97638,-0.4252 v 0.8504 l -2.97638,-0.4252"
       style="fill:none;stroke:#000000;stroke-width:0.3685;stroke-linecap:round;stroke-linejoin:round;stroke-miterlimit:10;stroke-dasharray:none;stroke-opacity:1"
       transform="matrix(1.3333333,0,0,-1.3333333,0,170.07867)" />
    <path
       id="path21"
       d="m 365.04944,18.13933 -2.97638,-0.4252 2.97638,-0.4252 z"
       style="fill:#000000;fill-opacity:1;fill-rule:nonzero;stroke:none"
       transform="matrix(1.3333333,0,0,-1.3333333,0,170.07867)" />
    <path
       id="path22"
       d="M 99.21274,92.31468 V 62.36224 m 0,5.95276 v 0.42519 m 0,-6.37795 v 0 l 0.85039,5.95276 h -1.70078 l 0.85039,-5.95276"
       style="fill:none;stroke:#4c4c4c;stroke-width:0.3685;stroke-linecap:round;stroke-linejoin:round;stroke-miterlimit:10;stroke-dasharray:none;stroke-opacity:1"
       transform="matrix(1.3333333,0,0,-1.3333333,0,170.07867)" />
    <path
       id="path23"
       d="m 98.36235,68.315 0.85039,-5.95276 0.85039,5.95276 z"
       style="fill:#4c4c4c;fill-opacity:1;fill-rule:nonzero;stroke:none"
       transform="matrix(1.3333333,0,0,-1.3333333,0,170.07867)" />
    <path
       id="path24"
       d="M 174.80328,92.31468 V 62.36224 m 0,5.95276 v 0.42519 m 0,-6.37795 v 0 l 0.85041,5.95276 h -1.70078 l 0.85037,-5.95276"
       style="fill:none;stroke:#4c4c4c;stroke-width:0.3685;stroke-linecap:round;stroke-linejoin:round;stroke-miterlimit:10;stroke-dasharray:none;stroke-opacity:1"
       transform="matrix(1.3333333,0,0,-1.3333333,0,170.07867)" />
    <path
       id="path25"
       d="m 173.95291,68.315 0.85037,-5.95276 0.85041,5.95276 z"
       style="fill:#4c4c4c;fill-opacity:1;fill-rule:nonzero;stroke:none"
       transform="matrix(1.3333333,0,0,-1.3333333,0,170.07867)" />
    <path
       id="path26"
       d="M 250.39386,92.31468 V 62.36224 m 0,5.95276 v 0.42519 m 0,-6.37795 v 0 l 0.85037,5.95276 h -1.70077 l 0.8504,-5.95276"
       style="fill:none;stroke:#4c4c4c;stroke-width:0.3685;stroke-linecap:round;stroke-linejoin:round;stroke-miterlimit:10;stroke-dasharray:none;stroke-opacity:1"
       transform="matrix(1.3333333,0,0,-1.3333333,0,170.07867)" />
    <path
       id="path27"
       d="m 249.54346,68.315 0.8504,-5.95276 0.85037,5.95276 z"
       style="fill:#4c4c4c;fill-opacity:1;fill-rule:nonzero;stroke:none"
       transform="matrix(1.3333333,0,0,-1.3333333,0,170.07867)" />
    <path
       id="path28"
       d="M 325.98441,92.31468 V 62.36224 m 0,5.95276 v 0.42519 m 0,-6.37795 v 0 l 0.85037,5.95276 H 325.134 l 0.85041,-5.95276"
       style="fill:none;stroke:#4c4c4c;stroke-width:0.3685;stroke-linecap:round;stroke-linejoin:round;stroke-miterlimit:10;stroke-dasharray:none;stroke-opacity:1"
       transform="matrix(1.3333333,0,0,-1.3333333,0,170.07867)" />
    <path
       id="path29"
       d="m 325.134,68.315 0.85041,-5.95276 0.85037,5.95276 z"
       style="fill:#4c4c4c;fill-opacity:1;fill-rule:nonzero;stroke:none"
       transform="matrix(1.3333333,0,0,-1.3333333,0,170.07867)" />
    <path
       id="path30"
       d="m 61.41747,115.27563 2.97637,0.42519 v -0.85039 l -2.97637,0.4252 m 37.79527,0 -2.97638,0.42519 v -0.85039 l 2.97638,0.4252 2.97638,0.42519 v -0.85039 l -2.97638,0.4252 m 75.59054,0 -2.97638,0.42519 v -0.85039 l 2.97638,0.4252 2.97638,0.42519 v -0.85039 l -2.97638,0.4252 m 75.59058,0 -2.97638,0.42519 v -0.85039 l 2.97638,0.4252 2.97638,0.42519 v -0.85039 l -2.97638,0.4252 m 75.59055,0 -2.97638,0.42519 v -0.85039 l 2.97638,0.4252 2.97637,0.42519 v -0.85039 l -2.97637,0.4252 m 37.79525,0 -2.97638,0.42519 v -0.85039 l 2.97638,0.4252 m -302.36219,0 v 2.12598 m 0,-2.12598 v -2.12599 m 37.79527,2.12599 v 2.12598 m 0,-2.12598 v -2.12599 m 0,2.12599 v 2.12598 m 0,-2.12598 v -2.12599 m 75.59054,2.12599 v 2.12598 m 0,-2.12598 v -2.12599 m 0,2.12599 v 2.12598 m 0,-2.12598 v -2.12599 m 75.59058,2.12599 v 2.12598 m 0,-2.12598 v -2.12599 m 0,2.12599 v 2.12598 m 0,-2.12598 v -2.12599 m 75.59055,2.12599 v 2.12598 m 0,-2.12598 v -2.12599 m 0,2.12599 v 2.12598 m 0,-2.12598 v -2.12599 m 37.79525,2.12599 v 2.12598 m 0,-2.12598 v -2.12599"
       style="fill:none;stroke:#000000;stroke-width:0.3685;stroke-linecap:round;stroke-linejoin:round;stroke-miterlimit:10;stroke-dasharray:none;stroke-opacity:1"
       transform="matrix(1.3333333,0,0,-1.3333333,0,170.07867)" />
    <path
       id="path31"
       d="M 61.41747,115.27563 V 92.51965 90.70869 m 37.79527,24.56694 v -4.0633 m 75.59054,4.0633 v -4.0633 m 75.59058,4.0633 v -4.0633 m 75.59055,4.0633 v -4.0633 m 37.79525,4.0633 V 90.70869 M 61.41747,115.27563 v 0 m 302.36219,0 v 0"
       style="fill:none;stroke:#000000;stroke-width:0.3685;stroke-linecap:round;stroke-linejoin:round;stroke-miterlimit:10;stroke-dasharray:none;stroke-opacity:1"
       transform="matrix(1.3333333,0,0,-1.3333333,0,170.07867)" />
    <text
       id="text31"
       xml:space="preserve"
       transform="matrix(1.3333333,0,0,1.3333333,105.39163,12.397693)"
       clip-path="url(#clipPath32)"><tspan
         style="font-style:italic;font-variant:normal;font-weight:normal;font-stretch:normal;font-size:10.0071px;font-family:'Palatino Linotype';writing-mode:lr-tb;fill:#000000;fill-opacity:1;fill-rule:nonzero;stroke:none"
         x="0"
         y="0"
         id="tspan31">l</tspan></text>
    <text
       id="text32"
       xml:space="preserve"
       transform="matrix(1.3333333,0,0,1.3333333,177.5584,12.397693)"
       clip-path="url(#clipPath33)"><tspan
         style="font-style:italic;font-variant:normal;font-weight:normal;font-stretch:normal;font-size:10.0071px;font-family:'Palatino Linotype';writing-mode:lr-tb;fill:#000000;fill-opacity:1;fill-rule:nonzero;stroke:none"
         x="0 5.0035648"
         y="0"
         sodipodi:role="line"
         id="tspan32">2l</tspan></text>
    <text
       id="text33"
       xml:space="preserve"
       transform="matrix(1.3333333,0,0,1.3333333,278.3458,12.397693)"
       clip-path="url(#clipPath34)"><tspan
         style="font-style:italic;font-variant:normal;font-weight:normal;font-stretch:normal;font-size:10.0071px;font-family:'Palatino Linotype';writing-mode:lr-tb;fill:#000000;fill-opacity:1;fill-rule:nonzero;stroke:none"
         x="0 5.0035648"
         y="0"
         sodipodi:role="line"
         id="tspan33">2l</tspan></text>
    <text
       id="text34"
       xml:space="preserve"
       transform="matrix(1.3333333,0,0,1.3333333,379.13323,12.397693)"
       clip-path="url(#clipPath35)"><tspan
         style="font-style:italic;font-variant:normal;font-weight:normal;font-stretch:normal;font-size:10.0071px;font-family:'Palatino Linotype';writing-mode:lr-tb;fill:#000000;fill-opacity:1;fill-rule:nonzero;stroke:none"
         x="0 5.0035648"
         y="0"
         sodipodi:role="line"
         id="tspan34">2l</tspan></text>
    <text
       id="text35"
       xml:space="preserve"
       transform="matrix(1.3333333,0,0,1.3333333,458.14753,12.397693)"
       clip-path="url(#clipPath36)"><tspan
         style="font-style:italic;font-variant:normal;font-weight:normal;font-stretch:normal;font-size:10.0071px;font-family:'Palatino Linotype';writing-mode:lr-tb;fill:#000000;fill-opacity:1;fill-rule:nonzero;stroke:none"
         x="0"
         y="0"
         id="tspan35">l</tspan></text>
    <path
       id="path37"
       d="m 61.41747,115.27563 h 12.3785 25.41677 75.59054 75.59058 75.59055 37.79525"
       style="fill:none;stroke:#000000;stroke-width:0.3685;stroke-linecap:round;stroke-linejoin:round;stroke-miterlimit:10;stroke-dasharray:none;stroke-opacity:1"
       transform="matrix(1.3333333,0,0,-1.3333333,0,170.07867)" />
    <text
       id="text37"
       xml:space="preserve"
       transform="matrix(1.3333333,0,0,1.3333333,118.97961,143.48845)"
       clip-path="url(#clipPath38)"><tspan
         style="font-variant:normal;font-weight:normal;font-stretch:normal;font-size:10.0916px;font-family:'Palatino Linotype';writing-mode:lr-tb;fill:#000000;fill-opacity:1;fill-rule:nonzero;stroke:none"
         x="0 7.8512726 13.936513 18.215357 22.494198 27.328079 33.201397 36.491261 40.477448 45.523254 51.13419 55.968067"
         y="0"
         sodipodi:role="line"
         id="tspan37">Aussenträger</tspan></text>
    <text
       id="text38"
       xml:space="preserve"
       transform="matrix(1.3333333,0,0,1.3333333,118.97961,162.38609)"
       clip-path="url(#clipPath39)"><tspan
         style="font-variant:normal;font-weight:normal;font-stretch:normal;font-size:10.0916px;font-family:'Palatino Linotype';writing-mode:lr-tb;fill:#000000;fill-opacity:1;fill-rule:nonzero;stroke:none"
         x="0 3.4008725 9.2741899 15.147507 19.981388 25.854704 29.144569 33.130756 38.176559 43.787495 48.621376"
         y="0"
         sodipodi:role="line"
         id="tspan38">Innenträger</tspan></text>
    <text
       id="text39"
       xml:space="preserve"
       transform="matrix(1.3333333,0,0,1.3333333,469.44349,151.46505)"
       clip-path="url(#clipPath40)"><tspan
         style="font-style:italic;font-variant:normal;font-weight:normal;font-stretch:normal;font-size:10.0071px;font-family:'Palatino Linotype';writing-mode:lr-tb;fill:#000000;fill-opacity:1;fill-rule:nonzero;stroke:none"
         x="0"
         y="0"
         id="tspan39">X</tspan></text>
    <text
       id="text40"
       xml:space="preserve"
       transform="matrix(1.3333333,0,0,1.3333333,503.50757,161.54201)"
       clip-path="url(#clipPath41)"><tspan
         style="font-style:italic;font-variant:normal;font-weight:normal;font-stretch:normal;font-size:10.0071px;font-family:'Palatino Linotype';writing-mode:lr-tb;fill:#000000;fill-opacity:1;fill-rule:nonzero;stroke:none"
         x="0"
         y="0"
         id="tspan40">Y</tspan></text>
    <text
       id="text41"
       xml:space="preserve"
       transform="matrix(1.332641,-0.04296139,0.04296139,1.332641,499.04199,123.71764)"
       clip-path="url(#clipPath42)"><tspan
         style="font-style:italic;font-variant:normal;font-weight:normal;font-stretch:normal;font-size:10.0071px;font-family:'Palatino Linotype';writing-mode:lr-tb;fill:#000000;fill-opacity:1;fill-rule:nonzero;stroke:none"
         x="0"
         y="0"
         id="tspan41">Z</tspan></text>
    <text
       id="text42"
       xml:space="preserve"
       transform="matrix(1.3333333,0,0,1.3333333,341.38628,101.23723)"
       clip-path="url(#clipPath43)"><tspan
         style="font-variant:normal;font-weight:normal;font-stretch:normal;font-size:10.0916px;font-family:'Palatino Linotype';writing-mode:lr-tb;fill:#000000;fill-opacity:1;fill-rule:nonzero;stroke:none"
         x="0 5.045805"
         y="0"
         sodipodi:role="line"
         id="tspan42">2'</tspan></text>
    <text
       id="text43"
       xml:space="preserve"
       transform="matrix(1.3333333,0,0,1.3333333,341.38628,147.35931)"
       clip-path="url(#clipPath44)"><tspan
         style="font-variant:normal;font-weight:normal;font-stretch:normal;font-size:10.0916px;font-family:'Palatino Linotype';writing-mode:lr-tb;fill:#000000;fill-opacity:1;fill-rule:nonzero;stroke:none"
         x="0"
         y="0"
         id="tspan43">1</tspan></text>
    <text
       id="text44"
       xml:space="preserve"
       transform="matrix(1.3333333,0,0,1.3333333,442.17369,113.93193)"
       clip-path="url(#clipPath45)"><tspan
         style="font-variant:normal;font-weight:normal;font-stretch:normal;font-size:10.0916px;font-family:'Palatino Linotype';writing-mode:lr-tb;fill:#000000;fill-opacity:1;fill-rule:nonzero;stroke:none"
         x="0"
         y="0"
         id="tspan44">2</tspan></text>
    <text
       id="text45"
       xml:space="preserve"
       transform="matrix(1.3333333,0,0,1.3333333,492.56737,97.218253)"
       clip-path="url(#clipPath46)"><tspan
         style="font-variant:normal;font-weight:normal;font-stretch:normal;font-size:10.0916px;font-family:'Palatino Linotype';writing-mode:lr-tb;fill:#000000;fill-opacity:1;fill-rule:nonzero;stroke:none"
         x="0 5.045805 7.5687075"
         y="0"
         sodipodi:role="line"
         id="tspan45">3,5</tspan></text>
    <text
       id="text46"
       xml:space="preserve"
       transform="matrix(1.3333333,0,0,1.3333333,423.93071,81.708733)"
       clip-path="url(#clipPath47)"><tspan
         style="font-variant:normal;font-weight:normal;font-stretch:normal;font-size:10.0916px;font-family:'Palatino Linotype';writing-mode:lr-tb;fill:#000000;fill-opacity:1;fill-rule:nonzero;stroke:none"
         x="0"
         y="0"
         id="tspan46">4</tspan></text>
    <text
       id="text47"
       xml:space="preserve"
       transform="matrix(1.3333333,0,0,1.3333333,138.26764,49.252213)"
       clip-path="url(#clipPath48)"><tspan
         style="font-style:italic;font-variant:normal;font-weight:normal;font-stretch:normal;font-size:10.0071px;font-family:'Palatino Linotype';writing-mode:lr-tb;fill:#4c4c4c;fill-opacity:1;fill-rule:nonzero;stroke:none"
         x="0"
         y="0"
         id="tspan47">Q</tspan></text>
    <text
       id="text48"
       xml:space="preserve"
       transform="matrix(1.3333333,0,0,1.3333333,239.05504,49.252213)"
       clip-path="url(#clipPath49)"><tspan
         style="font-style:italic;font-variant:normal;font-weight:normal;font-stretch:normal;font-size:10.0071px;font-family:'Palatino Linotype';writing-mode:lr-tb;fill:#4c4c4c;fill-opacity:1;fill-rule:nonzero;stroke:none"
         x="0"
         y="0"
         id="tspan48">Q</tspan></text>
    <text
       id="text49"
       xml:space="preserve"
       transform="matrix(1.3333333,0,0,1.3333333,339.84245,49.252213)"
       clip-path="url(#clipPath50)"><tspan
         style="font-style:italic;font-variant:normal;font-weight:normal;font-stretch:normal;font-size:10.0071px;font-family:'Palatino Linotype';writing-mode:lr-tb;fill:#4c4c4c;fill-opacity:1;fill-rule:nonzero;stroke:none"
         x="0"
         y="0"
         id="tspan49">Q</tspan></text>
    <text
       id="text50"
       xml:space="preserve"
       transform="matrix(1.3333333,0,0,1.3333333,440.62984,49.252213)"
       clip-path="url(#clipPath51)"><tspan
         style="font-style:italic;font-variant:normal;font-weight:normal;font-stretch:normal;font-size:10.0071px;font-family:'Palatino Linotype';writing-mode:lr-tb;fill:#4c4c4c;fill-opacity:1;fill-rule:nonzero;stroke:none"
         x="0"
         y="0"
         id="tspan50">Q</tspan></text>
  </g>
</svg>
